<?xml version="1.0" encoding="utf-8" standalone="no"?>
<!DOCTYPE svg PUBLIC "-//W3C//DTD SVG 1.1//EN"
  "http://www.w3.org/Graphics/SVG/1.1/DTD/svg11.dtd">
<!-- Created with matplotlib (http://matplotlib.org/) -->
<svg height="339pt" version="1.1" viewBox="0 0 416 339" width="416pt" xmlns="http://www.w3.org/2000/svg" xmlns:xlink="http://www.w3.org/1999/xlink">
 <defs>
  <style type="text/css">
*{stroke-linecap:butt;stroke-linejoin:round;}
  </style>
 </defs>
 <g id="figure_1">
  <g id="patch_1">
   <path d="M 0 339.42375 
L 416.052813 339.42375 
L 416.052813 0 
L 0 0 
z
" style="fill:#ffffff;"/>
  </g>
  <g id="axes_1">
   <g id="patch_2">
    <path d="M 43.78125 301.8675 
L 400.90125 301.8675 
L 400.90125 35.7555 
L 43.78125 35.7555 
z
" style="fill:#ffffff;"/>
   </g>
   <g id="matplotlib.axis_1">
    <g id="xtick_1">
     <g id="line2d_1">
      <defs>
       <path d="M 0 0 
L 0 3.5 
" id="mc80c7cfd1d" style="stroke:#000000;stroke-width:0.8;"/>
      </defs>
      <g>
       <use style="stroke:#000000;stroke-width:0.8;" x="43.78125" xlink:href="#mc80c7cfd1d" y="301.8675"/>
      </g>
     </g>
     <g id="text_1">
      <!-- 0.0 -->
      <defs>
       <path d="M 31.78125 66.40625 
Q 24.171875 66.40625 20.328125 58.90625 
Q 16.5 51.421875 16.5 36.375 
Q 16.5 21.390625 20.328125 13.890625 
Q 24.171875 6.390625 31.78125 6.390625 
Q 39.453125 6.390625 43.28125 13.890625 
Q 47.125 21.390625 47.125 36.375 
Q 47.125 51.421875 43.28125 58.90625 
Q 39.453125 66.40625 31.78125 66.40625 
M 31.78125 74.21875 
Q 44.046875 74.21875 50.515625 64.515625 
Q 56.984375 54.828125 56.984375 36.375 
Q 56.984375 17.96875 50.515625 8.265625 
Q 44.046875 -1.421875 31.78125 -1.421875 
Q 19.53125 -1.421875 13.0625 8.265625 
Q 6.59375 17.96875 6.59375 36.375 
Q 6.59375 54.828125 13.0625 64.515625 
Q 19.53125 74.21875 31.78125 74.21875 
" id="DejaVuSans-30"/>
       <path d="M 10.6875 12.40625 
L 21 12.40625 
L 21 0 
L 10.6875 0 
z
" id="DejaVuSans-2e"/>
      </defs>
      <g transform="translate(35.829688 316.465937)scale(0.1 -0.1)">
       <use xlink:href="#DejaVuSans-30"/>
       <use x="63.623047" xlink:href="#DejaVuSans-2e"/>
       <use x="95.410156" xlink:href="#DejaVuSans-30"/>
      </g>
     </g>
    </g>
    <g id="xtick_2">
     <g id="line2d_2">
      <g>
       <use style="stroke:#000000;stroke-width:0.8;" x="115.20525" xlink:href="#mc80c7cfd1d" y="301.8675"/>
      </g>
     </g>
     <g id="text_2">
      <!-- 0.2 -->
      <defs>
       <path d="M 19.1875 8.296875 
L 53.609375 8.296875 
L 53.609375 0 
L 7.328125 0 
L 7.328125 8.296875 
Q 12.9375 14.109375 22.625 23.890625 
Q 32.328125 33.6875 34.8125 36.53125 
Q 39.546875 41.84375 41.421875 45.53125 
Q 43.3125 49.21875 43.3125 52.78125 
Q 43.3125 58.59375 39.234375 62.25 
Q 35.15625 65.921875 28.609375 65.921875 
Q 23.96875 65.921875 18.8125 64.3125 
Q 13.671875 62.703125 7.8125 59.421875 
L 7.8125 69.390625 
Q 13.765625 71.78125 18.9375 73 
Q 24.125 74.21875 28.421875 74.21875 
Q 39.75 74.21875 46.484375 68.546875 
Q 53.21875 62.890625 53.21875 53.421875 
Q 53.21875 48.921875 51.53125 44.890625 
Q 49.859375 40.875 45.40625 35.40625 
Q 44.1875 33.984375 37.640625 27.21875 
Q 31.109375 20.453125 19.1875 8.296875 
" id="DejaVuSans-32"/>
      </defs>
      <g transform="translate(107.253688 316.465937)scale(0.1 -0.1)">
       <use xlink:href="#DejaVuSans-30"/>
       <use x="63.623047" xlink:href="#DejaVuSans-2e"/>
       <use x="95.410156" xlink:href="#DejaVuSans-32"/>
      </g>
     </g>
    </g>
    <g id="xtick_3">
     <g id="line2d_3">
      <g>
       <use style="stroke:#000000;stroke-width:0.8;" x="186.62925" xlink:href="#mc80c7cfd1d" y="301.8675"/>
      </g>
     </g>
     <g id="text_3">
      <!-- 0.4 -->
      <defs>
       <path d="M 37.796875 64.3125 
L 12.890625 25.390625 
L 37.796875 25.390625 
z
M 35.203125 72.90625 
L 47.609375 72.90625 
L 47.609375 25.390625 
L 58.015625 25.390625 
L 58.015625 17.1875 
L 47.609375 17.1875 
L 47.609375 0 
L 37.796875 0 
L 37.796875 17.1875 
L 4.890625 17.1875 
L 4.890625 26.703125 
z
" id="DejaVuSans-34"/>
      </defs>
      <g transform="translate(178.677688 316.465937)scale(0.1 -0.1)">
       <use xlink:href="#DejaVuSans-30"/>
       <use x="63.623047" xlink:href="#DejaVuSans-2e"/>
       <use x="95.410156" xlink:href="#DejaVuSans-34"/>
      </g>
     </g>
    </g>
    <g id="xtick_4">
     <g id="line2d_4">
      <g>
       <use style="stroke:#000000;stroke-width:0.8;" x="258.05325" xlink:href="#mc80c7cfd1d" y="301.8675"/>
      </g>
     </g>
     <g id="text_4">
      <!-- 0.6 -->
      <defs>
       <path d="M 33.015625 40.375 
Q 26.375 40.375 22.484375 35.828125 
Q 18.609375 31.296875 18.609375 23.390625 
Q 18.609375 15.53125 22.484375 10.953125 
Q 26.375 6.390625 33.015625 6.390625 
Q 39.65625 6.390625 43.53125 10.953125 
Q 47.40625 15.53125 47.40625 23.390625 
Q 47.40625 31.296875 43.53125 35.828125 
Q 39.65625 40.375 33.015625 40.375 
M 52.59375 71.296875 
L 52.59375 62.3125 
Q 48.875 64.0625 45.09375 64.984375 
Q 41.3125 65.921875 37.59375 65.921875 
Q 27.828125 65.921875 22.671875 59.328125 
Q 17.53125 52.734375 16.796875 39.40625 
Q 19.671875 43.65625 24.015625 45.921875 
Q 28.375 48.1875 33.59375 48.1875 
Q 44.578125 48.1875 50.953125 41.515625 
Q 57.328125 34.859375 57.328125 23.390625 
Q 57.328125 12.15625 50.6875 5.359375 
Q 44.046875 -1.421875 33.015625 -1.421875 
Q 20.359375 -1.421875 13.671875 8.265625 
Q 6.984375 17.96875 6.984375 36.375 
Q 6.984375 53.65625 15.1875 63.9375 
Q 23.390625 74.21875 37.203125 74.21875 
Q 40.921875 74.21875 44.703125 73.484375 
Q 48.484375 72.75 52.59375 71.296875 
" id="DejaVuSans-36"/>
      </defs>
      <g transform="translate(250.101688 316.465937)scale(0.1 -0.1)">
       <use xlink:href="#DejaVuSans-30"/>
       <use x="63.623047" xlink:href="#DejaVuSans-2e"/>
       <use x="95.410156" xlink:href="#DejaVuSans-36"/>
      </g>
     </g>
    </g>
    <g id="xtick_5">
     <g id="line2d_5">
      <g>
       <use style="stroke:#000000;stroke-width:0.8;" x="329.47725" xlink:href="#mc80c7cfd1d" y="301.8675"/>
      </g>
     </g>
     <g id="text_5">
      <!-- 0.8 -->
      <defs>
       <path d="M 31.78125 34.625 
Q 24.75 34.625 20.71875 30.859375 
Q 16.703125 27.09375 16.703125 20.515625 
Q 16.703125 13.921875 20.71875 10.15625 
Q 24.75 6.390625 31.78125 6.390625 
Q 38.8125 6.390625 42.859375 10.171875 
Q 46.921875 13.96875 46.921875 20.515625 
Q 46.921875 27.09375 42.890625 30.859375 
Q 38.875 34.625 31.78125 34.625 
M 21.921875 38.8125 
Q 15.578125 40.375 12.03125 44.71875 
Q 8.5 49.078125 8.5 55.328125 
Q 8.5 64.0625 14.71875 69.140625 
Q 20.953125 74.21875 31.78125 74.21875 
Q 42.671875 74.21875 48.875 69.140625 
Q 55.078125 64.0625 55.078125 55.328125 
Q 55.078125 49.078125 51.53125 44.71875 
Q 48 40.375 41.703125 38.8125 
Q 48.828125 37.15625 52.796875 32.3125 
Q 56.78125 27.484375 56.78125 20.515625 
Q 56.78125 9.90625 50.3125 4.234375 
Q 43.84375 -1.421875 31.78125 -1.421875 
Q 19.734375 -1.421875 13.25 4.234375 
Q 6.78125 9.90625 6.78125 20.515625 
Q 6.78125 27.484375 10.78125 32.3125 
Q 14.796875 37.15625 21.921875 38.8125 
M 18.3125 54.390625 
Q 18.3125 48.734375 21.84375 45.5625 
Q 25.390625 42.390625 31.78125 42.390625 
Q 38.140625 42.390625 41.71875 45.5625 
Q 45.3125 48.734375 45.3125 54.390625 
Q 45.3125 60.0625 41.71875 63.234375 
Q 38.140625 66.40625 31.78125 66.40625 
Q 25.390625 66.40625 21.84375 63.234375 
Q 18.3125 60.0625 18.3125 54.390625 
" id="DejaVuSans-38"/>
      </defs>
      <g transform="translate(321.525688 316.465937)scale(0.1 -0.1)">
       <use xlink:href="#DejaVuSans-30"/>
       <use x="63.623047" xlink:href="#DejaVuSans-2e"/>
       <use x="95.410156" xlink:href="#DejaVuSans-38"/>
      </g>
     </g>
    </g>
    <g id="xtick_6">
     <g id="line2d_6">
      <g>
       <use style="stroke:#000000;stroke-width:0.8;" x="400.90125" xlink:href="#mc80c7cfd1d" y="301.8675"/>
      </g>
     </g>
     <g id="text_6">
      <!-- 1.0 -->
      <defs>
       <path d="M 12.40625 8.296875 
L 28.515625 8.296875 
L 28.515625 63.921875 
L 10.984375 60.40625 
L 10.984375 69.390625 
L 28.421875 72.90625 
L 38.28125 72.90625 
L 38.28125 8.296875 
L 54.390625 8.296875 
L 54.390625 0 
L 12.40625 0 
z
" id="DejaVuSans-31"/>
      </defs>
      <g transform="translate(392.949688 316.465937)scale(0.1 -0.1)">
       <use xlink:href="#DejaVuSans-31"/>
       <use x="63.623047" xlink:href="#DejaVuSans-2e"/>
       <use x="95.410156" xlink:href="#DejaVuSans-30"/>
      </g>
     </g>
    </g>
    <g id="text_7">
     <!-- False Positive Rate -->
     <defs>
      <path d="M 9.8125 72.90625 
L 51.703125 72.90625 
L 51.703125 64.59375 
L 19.671875 64.59375 
L 19.671875 43.109375 
L 48.578125 43.109375 
L 48.578125 34.8125 
L 19.671875 34.8125 
L 19.671875 0 
L 9.8125 0 
z
" id="DejaVuSans-46"/>
      <path d="M 34.28125 27.484375 
Q 23.390625 27.484375 19.1875 25 
Q 14.984375 22.515625 14.984375 16.5 
Q 14.984375 11.71875 18.140625 8.90625 
Q 21.296875 6.109375 26.703125 6.109375 
Q 34.1875 6.109375 38.703125 11.40625 
Q 43.21875 16.703125 43.21875 25.484375 
L 43.21875 27.484375 
z
M 52.203125 31.203125 
L 52.203125 0 
L 43.21875 0 
L 43.21875 8.296875 
Q 40.140625 3.328125 35.546875 0.953125 
Q 30.953125 -1.421875 24.3125 -1.421875 
Q 15.921875 -1.421875 10.953125 3.296875 
Q 6 8.015625 6 15.921875 
Q 6 25.140625 12.171875 29.828125 
Q 18.359375 34.515625 30.609375 34.515625 
L 43.21875 34.515625 
L 43.21875 35.40625 
Q 43.21875 41.609375 39.140625 45 
Q 35.0625 48.390625 27.6875 48.390625 
Q 23 48.390625 18.546875 47.265625 
Q 14.109375 46.140625 10.015625 43.890625 
L 10.015625 52.203125 
Q 14.9375 54.109375 19.578125 55.046875 
Q 24.21875 56 28.609375 56 
Q 40.484375 56 46.34375 49.84375 
Q 52.203125 43.703125 52.203125 31.203125 
" id="DejaVuSans-61"/>
      <path d="M 9.421875 75.984375 
L 18.40625 75.984375 
L 18.40625 0 
L 9.421875 0 
z
" id="DejaVuSans-6c"/>
      <path d="M 44.28125 53.078125 
L 44.28125 44.578125 
Q 40.484375 46.53125 36.375 47.5 
Q 32.28125 48.484375 27.875 48.484375 
Q 21.1875 48.484375 17.84375 46.4375 
Q 14.5 44.390625 14.5 40.28125 
Q 14.5 37.15625 16.890625 35.375 
Q 19.28125 33.59375 26.515625 31.984375 
L 29.59375 31.296875 
Q 39.15625 29.25 43.1875 25.515625 
Q 47.21875 21.78125 47.21875 15.09375 
Q 47.21875 7.46875 41.1875 3.015625 
Q 35.15625 -1.421875 24.609375 -1.421875 
Q 20.21875 -1.421875 15.453125 -0.5625 
Q 10.6875 0.296875 5.421875 2 
L 5.421875 11.28125 
Q 10.40625 8.6875 15.234375 7.390625 
Q 20.0625 6.109375 24.8125 6.109375 
Q 31.15625 6.109375 34.5625 8.28125 
Q 37.984375 10.453125 37.984375 14.40625 
Q 37.984375 18.0625 35.515625 20.015625 
Q 33.0625 21.96875 24.703125 23.78125 
L 21.578125 24.515625 
Q 13.234375 26.265625 9.515625 29.90625 
Q 5.8125 33.546875 5.8125 39.890625 
Q 5.8125 47.609375 11.28125 51.796875 
Q 16.75 56 26.8125 56 
Q 31.78125 56 36.171875 55.265625 
Q 40.578125 54.546875 44.28125 53.078125 
" id="DejaVuSans-73"/>
      <path d="M 56.203125 29.59375 
L 56.203125 25.203125 
L 14.890625 25.203125 
Q 15.484375 15.921875 20.484375 11.0625 
Q 25.484375 6.203125 34.421875 6.203125 
Q 39.59375 6.203125 44.453125 7.46875 
Q 49.3125 8.734375 54.109375 11.28125 
L 54.109375 2.78125 
Q 49.265625 0.734375 44.1875 -0.34375 
Q 39.109375 -1.421875 33.890625 -1.421875 
Q 20.796875 -1.421875 13.15625 6.1875 
Q 5.515625 13.8125 5.515625 26.8125 
Q 5.515625 40.234375 12.765625 48.109375 
Q 20.015625 56 32.328125 56 
Q 43.359375 56 49.78125 48.890625 
Q 56.203125 41.796875 56.203125 29.59375 
M 47.21875 32.234375 
Q 47.125 39.59375 43.09375 43.984375 
Q 39.0625 48.390625 32.421875 48.390625 
Q 24.90625 48.390625 20.390625 44.140625 
Q 15.875 39.890625 15.1875 32.171875 
z
" id="DejaVuSans-65"/>
      <path id="DejaVuSans-20"/>
      <path d="M 19.671875 64.796875 
L 19.671875 37.40625 
L 32.078125 37.40625 
Q 38.96875 37.40625 42.71875 40.96875 
Q 46.484375 44.53125 46.484375 51.125 
Q 46.484375 57.671875 42.71875 61.234375 
Q 38.96875 64.796875 32.078125 64.796875 
z
M 9.8125 72.90625 
L 32.078125 72.90625 
Q 44.34375 72.90625 50.609375 67.359375 
Q 56.890625 61.8125 56.890625 51.125 
Q 56.890625 40.328125 50.609375 34.8125 
Q 44.34375 29.296875 32.078125 29.296875 
L 19.671875 29.296875 
L 19.671875 0 
L 9.8125 0 
z
" id="DejaVuSans-50"/>
      <path d="M 30.609375 48.390625 
Q 23.390625 48.390625 19.1875 42.75 
Q 14.984375 37.109375 14.984375 27.296875 
Q 14.984375 17.484375 19.15625 11.84375 
Q 23.34375 6.203125 30.609375 6.203125 
Q 37.796875 6.203125 41.984375 11.859375 
Q 46.1875 17.53125 46.1875 27.296875 
Q 46.1875 37.015625 41.984375 42.703125 
Q 37.796875 48.390625 30.609375 48.390625 
M 30.609375 56 
Q 42.328125 56 49.015625 48.375 
Q 55.71875 40.765625 55.71875 27.296875 
Q 55.71875 13.875 49.015625 6.21875 
Q 42.328125 -1.421875 30.609375 -1.421875 
Q 18.84375 -1.421875 12.171875 6.21875 
Q 5.515625 13.875 5.515625 27.296875 
Q 5.515625 40.765625 12.171875 48.375 
Q 18.84375 56 30.609375 56 
" id="DejaVuSans-6f"/>
      <path d="M 9.421875 54.6875 
L 18.40625 54.6875 
L 18.40625 0 
L 9.421875 0 
z
M 9.421875 75.984375 
L 18.40625 75.984375 
L 18.40625 64.59375 
L 9.421875 64.59375 
z
" id="DejaVuSans-69"/>
      <path d="M 18.3125 70.21875 
L 18.3125 54.6875 
L 36.8125 54.6875 
L 36.8125 47.703125 
L 18.3125 47.703125 
L 18.3125 18.015625 
Q 18.3125 11.328125 20.140625 9.421875 
Q 21.96875 7.515625 27.59375 7.515625 
L 36.8125 7.515625 
L 36.8125 0 
L 27.59375 0 
Q 17.1875 0 13.234375 3.875 
Q 9.28125 7.765625 9.28125 18.015625 
L 9.28125 47.703125 
L 2.6875 47.703125 
L 2.6875 54.6875 
L 9.28125 54.6875 
L 9.28125 70.21875 
z
" id="DejaVuSans-74"/>
      <path d="M 2.984375 54.6875 
L 12.5 54.6875 
L 29.59375 8.796875 
L 46.6875 54.6875 
L 56.203125 54.6875 
L 35.6875 0 
L 23.484375 0 
z
" id="DejaVuSans-76"/>
      <path d="M 44.390625 34.1875 
Q 47.5625 33.109375 50.5625 29.59375 
Q 53.5625 26.078125 56.59375 19.921875 
L 66.609375 0 
L 56 0 
L 46.6875 18.703125 
Q 43.0625 26.03125 39.671875 28.421875 
Q 36.28125 30.8125 30.421875 30.8125 
L 19.671875 30.8125 
L 19.671875 0 
L 9.8125 0 
L 9.8125 72.90625 
L 32.078125 72.90625 
Q 44.578125 72.90625 50.734375 67.671875 
Q 56.890625 62.453125 56.890625 51.90625 
Q 56.890625 45.015625 53.6875 40.46875 
Q 50.484375 35.9375 44.390625 34.1875 
M 19.671875 64.796875 
L 19.671875 38.921875 
L 32.078125 38.921875 
Q 39.203125 38.921875 42.84375 42.21875 
Q 46.484375 45.515625 46.484375 51.90625 
Q 46.484375 58.296875 42.84375 61.546875 
Q 39.203125 64.796875 32.078125 64.796875 
z
" id="DejaVuSans-52"/>
     </defs>
     <g transform="translate(175.135781 330.144062)scale(0.1 -0.1)">
      <use xlink:href="#DejaVuSans-46"/>
      <use x="57.378906" xlink:href="#DejaVuSans-61"/>
      <use x="118.658203" xlink:href="#DejaVuSans-6c"/>
      <use x="146.441406" xlink:href="#DejaVuSans-73"/>
      <use x="198.541016" xlink:href="#DejaVuSans-65"/>
      <use x="260.064453" xlink:href="#DejaVuSans-20"/>
      <use x="291.851562" xlink:href="#DejaVuSans-50"/>
      <use x="352.107422" xlink:href="#DejaVuSans-6f"/>
      <use x="413.289062" xlink:href="#DejaVuSans-73"/>
      <use x="465.388672" xlink:href="#DejaVuSans-69"/>
      <use x="493.171875" xlink:href="#DejaVuSans-74"/>
      <use x="532.380859" xlink:href="#DejaVuSans-69"/>
      <use x="560.164062" xlink:href="#DejaVuSans-76"/>
      <use x="619.34375" xlink:href="#DejaVuSans-65"/>
      <use x="680.867188" xlink:href="#DejaVuSans-20"/>
      <use x="712.654297" xlink:href="#DejaVuSans-52"/>
      <use x="782.105469" xlink:href="#DejaVuSans-61"/>
      <use x="843.384766" xlink:href="#DejaVuSans-74"/>
      <use x="882.59375" xlink:href="#DejaVuSans-65"/>
     </g>
    </g>
   </g>
   <g id="matplotlib.axis_2">
    <g id="ytick_1">
     <g id="line2d_7">
      <defs>
       <path d="M 0 0 
L -3.5 0 
" id="m07b55952f4" style="stroke:#000000;stroke-width:0.8;"/>
      </defs>
      <g>
       <use style="stroke:#000000;stroke-width:0.8;" x="43.78125" xlink:href="#m07b55952f4" y="301.8675"/>
      </g>
     </g>
     <g id="text_8">
      <!-- 0.0 -->
      <g transform="translate(20.878125 305.666719)scale(0.1 -0.1)">
       <use xlink:href="#DejaVuSans-30"/>
       <use x="63.623047" xlink:href="#DejaVuSans-2e"/>
       <use x="95.410156" xlink:href="#DejaVuSans-30"/>
      </g>
     </g>
    </g>
    <g id="ytick_2">
     <g id="line2d_8">
      <g>
       <use style="stroke:#000000;stroke-width:0.8;" x="43.78125" xlink:href="#m07b55952f4" y="251.1795"/>
      </g>
     </g>
     <g id="text_9">
      <!-- 0.2 -->
      <g transform="translate(20.878125 254.978719)scale(0.1 -0.1)">
       <use xlink:href="#DejaVuSans-30"/>
       <use x="63.623047" xlink:href="#DejaVuSans-2e"/>
       <use x="95.410156" xlink:href="#DejaVuSans-32"/>
      </g>
     </g>
    </g>
    <g id="ytick_3">
     <g id="line2d_9">
      <g>
       <use style="stroke:#000000;stroke-width:0.8;" x="43.78125" xlink:href="#m07b55952f4" y="200.4915"/>
      </g>
     </g>
     <g id="text_10">
      <!-- 0.4 -->
      <g transform="translate(20.878125 204.290719)scale(0.1 -0.1)">
       <use xlink:href="#DejaVuSans-30"/>
       <use x="63.623047" xlink:href="#DejaVuSans-2e"/>
       <use x="95.410156" xlink:href="#DejaVuSans-34"/>
      </g>
     </g>
    </g>
    <g id="ytick_4">
     <g id="line2d_10">
      <g>
       <use style="stroke:#000000;stroke-width:0.8;" x="43.78125" xlink:href="#m07b55952f4" y="149.8035"/>
      </g>
     </g>
     <g id="text_11">
      <!-- 0.6 -->
      <g transform="translate(20.878125 153.602719)scale(0.1 -0.1)">
       <use xlink:href="#DejaVuSans-30"/>
       <use x="63.623047" xlink:href="#DejaVuSans-2e"/>
       <use x="95.410156" xlink:href="#DejaVuSans-36"/>
      </g>
     </g>
    </g>
    <g id="ytick_5">
     <g id="line2d_11">
      <g>
       <use style="stroke:#000000;stroke-width:0.8;" x="43.78125" xlink:href="#m07b55952f4" y="99.1155"/>
      </g>
     </g>
     <g id="text_12">
      <!-- 0.8 -->
      <g transform="translate(20.878125 102.914719)scale(0.1 -0.1)">
       <use xlink:href="#DejaVuSans-30"/>
       <use x="63.623047" xlink:href="#DejaVuSans-2e"/>
       <use x="95.410156" xlink:href="#DejaVuSans-38"/>
      </g>
     </g>
    </g>
    <g id="ytick_6">
     <g id="line2d_12">
      <g>
       <use style="stroke:#000000;stroke-width:0.8;" x="43.78125" xlink:href="#m07b55952f4" y="48.4275"/>
      </g>
     </g>
     <g id="text_13">
      <!-- 1.0 -->
      <g transform="translate(20.878125 52.226719)scale(0.1 -0.1)">
       <use xlink:href="#DejaVuSans-31"/>
       <use x="63.623047" xlink:href="#DejaVuSans-2e"/>
       <use x="95.410156" xlink:href="#DejaVuSans-30"/>
      </g>
     </g>
    </g>
    <g id="text_14">
     <!-- True Positive Rate -->
     <defs>
      <path d="M -0.296875 72.90625 
L 61.375 72.90625 
L 61.375 64.59375 
L 35.5 64.59375 
L 35.5 0 
L 25.59375 0 
L 25.59375 64.59375 
L -0.296875 64.59375 
z
" id="DejaVuSans-54"/>
      <path d="M 41.109375 46.296875 
Q 39.59375 47.171875 37.8125 47.578125 
Q 36.03125 48 33.890625 48 
Q 26.265625 48 22.1875 43.046875 
Q 18.109375 38.09375 18.109375 28.8125 
L 18.109375 0 
L 9.078125 0 
L 9.078125 54.6875 
L 18.109375 54.6875 
L 18.109375 46.1875 
Q 20.953125 51.171875 25.484375 53.578125 
Q 30.03125 56 36.53125 56 
Q 37.453125 56 38.578125 55.875 
Q 39.703125 55.765625 41.0625 55.515625 
z
" id="DejaVuSans-72"/>
      <path d="M 8.5 21.578125 
L 8.5 54.6875 
L 17.484375 54.6875 
L 17.484375 21.921875 
Q 17.484375 14.15625 20.5 10.265625 
Q 23.53125 6.390625 29.59375 6.390625 
Q 36.859375 6.390625 41.078125 11.03125 
Q 45.3125 15.671875 45.3125 23.6875 
L 45.3125 54.6875 
L 54.296875 54.6875 
L 54.296875 0 
L 45.3125 0 
L 45.3125 8.40625 
Q 42.046875 3.421875 37.71875 1 
Q 33.40625 -1.421875 27.6875 -1.421875 
Q 18.265625 -1.421875 13.375 4.4375 
Q 8.5 10.296875 8.5 21.578125 
M 31.109375 56 
z
" id="DejaVuSans-75"/>
     </defs>
     <g transform="translate(14.798438 214.357594)rotate(-90)scale(0.1 -0.1)">
      <use xlink:href="#DejaVuSans-54"/>
      <use x="60.865234" xlink:href="#DejaVuSans-72"/>
      <use x="101.978516" xlink:href="#DejaVuSans-75"/>
      <use x="165.357422" xlink:href="#DejaVuSans-65"/>
      <use x="226.880859" xlink:href="#DejaVuSans-20"/>
      <use x="258.667969" xlink:href="#DejaVuSans-50"/>
      <use x="318.923828" xlink:href="#DejaVuSans-6f"/>
      <use x="380.105469" xlink:href="#DejaVuSans-73"/>
      <use x="432.205078" xlink:href="#DejaVuSans-69"/>
      <use x="459.988281" xlink:href="#DejaVuSans-74"/>
      <use x="499.197266" xlink:href="#DejaVuSans-69"/>
      <use x="526.980469" xlink:href="#DejaVuSans-76"/>
      <use x="586.160156" xlink:href="#DejaVuSans-65"/>
      <use x="647.683594" xlink:href="#DejaVuSans-20"/>
      <use x="679.470703" xlink:href="#DejaVuSans-52"/>
      <use x="748.921875" xlink:href="#DejaVuSans-61"/>
      <use x="810.201172" xlink:href="#DejaVuSans-74"/>
      <use x="849.410156" xlink:href="#DejaVuSans-65"/>
     </g>
    </g>
   </g>
   <g id="line2d_13">
    <path clip-path="url(#pfaef9725d2)" d="M 43.78125 301.8675 
L 43.835298 300.581003 
L 43.902857 300.581003 
L 44.004197 300.581003 
L 44.179852 298.008008 
L 44.585209 298.008008 
L 44.862203 293.505266 
L 45.031102 290.932272 
L 45.328365 287.072779 
L 45.598603 287.072779 
L 46.017472 283.213287 
L 46.382294 281.926789 
L 46.497146 279.997043 
L 46.767384 279.997043 
L 46.875479 278.067297 
L 47.044378 275.815926 
L 47.152474 274.529429 
L 47.253813 274.529429 
L 47.503783 273.242931 
L 47.672682 271.313185 
L 47.733486 270.669937 
L 47.936165 270.669937 
L 48.186135 268.096942 
L 48.253695 268.096942 
L 48.294231 266.810444 
L 48.7131 263.272576 
L 48.78066 263.272576 
L 49.023874 260.699581 
L 49.517059 255.875216 
L 49.821077 255.875216 
L 52.455902 228.537145 
L 52.591021 228.537145 
L 52.705872 227.250647 
L 52.840991 227.250647 
L 53.401736 219.853287 
L 53.503075 219.853287 
L 53.543611 218.566789 
L 53.881409 218.566789 
L 54.320546 214.385673 
L 55.854149 203.772069 
L 56.056828 203.772069 
L 56.32031 202.807195 
L 56.428406 199.590952 
L 56.631084 199.590952 
L 56.874299 197.017957 
L 57.212097 197.017957 
L 57.428287 194.444962 
L 57.732306 194.444962 
L 57.786353 193.801713 
L 57.921472 193.801713 
L 58.04308 191.871967 
L 58.164687 190.58547 
L 58.299806 190.58547 
L 58.367366 190.263845 
L 58.570045 190.263845 
L 58.847039 187.047602 
L 59.286176 187.047602 
L 59.421295 186.725977 
L 59.576682 186.082728 
L 59.745581 186.082728 
L 59.873945 185.43948 
L 60.245522 185.43948 
L 60.414421 183.188109 
L 60.65088 183.188109 
L 60.819779 182.866485 
L 60.954898 182.54486 
L 61.008946 181.901612 
L 61.279184 181.901612 
L 61.468351 179.971865 
L 61.535911 179.971865 
L 61.60347 179.650241 
L 61.725077 177.720495 
L 61.792637 177.398871 
L 62.231774 177.398871 
L 62.366894 177.077246 
L 62.502013 177.077246 
L 62.893858 175.469124 
L 63.001954 173.217754 
L 63.137073 173.217754 
L 63.204633 172.896129 
L 63.60999 172.896129 
L 63.664038 172.252881 
L 63.799157 172.252881 
L 64.076151 169.679886 
L 64.481509 169.679886 
L 67.454131 166.785266 
L 67.859488 166.785266 
L 68.075679 164.85552 
L 68.278358 164.212272 
L 68.413477 164.212272 
L 68.535084 162.925774 
L 69.751157 162.925774 
L 70.561872 162.282525 
L 70.683479 161.639277 
L 70.886158 161.317652 
L 71.156396 161.317652 
L 71.210444 160.031155 
L 71.413123 160.031155 
L 71.548242 159.70953 
L 71.9536 159.70953 
L 72.014403 159.066282 
L 72.217082 159.066282 
L 72.257618 157.779784 
L 73.102113 157.779784 
L 73.446667 154.563541 
L 73.548006 154.563541 
L 73.750685 154.241916 
L 74.020923 154.241916 
L 74.338453 151.347297 
L 75.149168 151.347297 
L 75.216728 151.025673 
L 75.351847 151.025673 
L 75.405895 150.382424 
L 76.655747 150.382424 
L 77.027325 148.452678 
L 77.77048 148.131053 
L 77.898844 147.487805 
L 78.57444 147.487805 
L 78.628487 146.844556 
L 79.74322 146.844556 
L 79.979679 145.236434 
L 80.351257 145.236434 
L 80.41206 144.593185 
L 80.851198 144.593185 
L 81.067388 143.306688 
L 81.364651 142.341815 
L 81.53355 142.341815 
L 81.668669 141.376942 
L 81.803788 141.055317 
L 82.513164 141.055317 
L 82.675307 140.090444 
L 83.013105 140.090444 
L 83.161736 138.160698 
L 83.431974 138.160698 
L 83.560337 136.874201 
L 83.796796 136.874201 
L 83.999475 136.552576 
L 84.269713 136.552576 
L 84.452124 135.266079 
L 85.06016 135.266079 
L 85.12772 134.944454 
L 85.566857 134.944454 
L 85.668197 134.62283 
L 86.073554 134.62283 
L 86.201917 133.979581 
L 86.438376 133.979581 
L 86.526203 132.049835 
L 86.796442 132.049835 
L 86.972097 130.120089 
L 87.613913 130.120089 
L 87.789568 127.22547 
L 88.127366 127.22547 
L 88.350312 126.260596 
L 89.161028 126.260596 
L 89.282635 125.617348 
L 89.519093 125.617348 
L 89.721772 125.295723 
L 90.05957 125.295723 
L 90.255493 124.33085 
L 90.66085 124.33085 
L 90.836505 123.044353 
L 91.613441 123.044353 
L 91.708024 122.07948 
L 92.34984 122.07948 
L 92.484959 121.757855 
L 93.059216 121.757855 
L 93.153799 120.792982 
L 94.504991 120.792982 
L 94.633354 120.149734 
L 95.646748 120.149734 
L 95.741332 119.18486 
L 95.876451 119.18486 
L 96.058862 117.576739 
L 96.464219 117.576739 
L 96.754726 114.682119 
L 97.058744 114.682119 
L 97.112791 113.717246 
L 97.31547 113.717246 
L 97.376274 113.073997 
L 97.916751 113.073997 
L 98.072138 112.430749 
L 98.207257 112.430749 
L 98.261304 111.7875 
L 99.173359 111.7875 
L 99.294966 111.144251 
L 99.835443 111.144251 
L 99.903003 110.501003 
L 100.781277 110.501003 
L 100.842081 110.179378 
L 101.382558 110.179378 
L 101.524433 108.892881 
L 104.091697 108.892881 
L 104.152501 108.571256 
L 105.098335 108.571256 
L 105.152383 107.928008 
L 107.820987 107.928008 
L 107.935838 105.033388 
L 110.165304 105.033388 
L 110.293668 103.103642 
L 110.395007 102.460393 
L 111.273282 102.460393 
L 111.354353 101.49552 
L 119.427724 101.49552 
L 119.556088 100.530647 
L 119.893886 100.530647 
L 120.042517 99.565774 
L 122.440882 99.565774 
L 122.542222 99.24415 
L 123.724514 99.24415 
L 123.893413 98.922525 
L 135.851461 98.922525 
L 135.891997 95.063033 
L 145.147661 95.063033 
L 145.249 94.09816 
L 145.654358 94.09816 
L 145.735429 93.133287 
L 147.593318 93.133287 
L 147.654122 92.811662 
L 152.180614 92.811662 
L 152.302222 90.881916 
L 154.29523 90.881916 
L 154.396569 86.057551 
L 156.727375 86.057551 
L 156.781423 84.127805 
L 158.673091 84.127805 
L 161.578154 82.519683 
L 162.11863 82.519683 
L 165.49661 82.198058 
L 168.70569 82.198058 
L 168.827298 81.233185 
L 173.590249 81.233185 
L 173.684832 80.911561 
L 175.137364 80.911561 
L 175.225191 80.268312 
L 179.751684 80.268312 
L 180.575911 79.625063 
L 186.588714 79.625063 
L 189.595116 78.66019 
L 189.865354 78.66019 
L 189.926158 78.338566 
L 190.061277 78.338566 
L 190.122081 76.40882 
L 191.817827 76.40882 
L 191.939434 75.443947 
L 193.337917 75.443947 
L 193.398721 73.514201 
L 196.067325 73.514201 
L 196.121373 72.549327 
L 197.776583 72.549327 
L 197.925214 71.584454 
L 198.803488 71.584454 
L 198.864292 70.941206 
L 207.16061 70.941206 
L 207.214657 70.297957 
L 208.43073 70.297957 
L 208.667189 69.976332 
L 211.133114 69.976332 
L 211.288501 69.333084 
L 216.35547 69.333084 
L 216.396006 66.438464 
L 231.677986 66.438464 
L 231.860396 65.473591 
L 237.298944 65.473591 
L 237.359747 64.830343 
L 237.508378 64.830343 
L 237.569182 64.508718 
L 237.771861 64.508718 
L 237.825908 63.543845 
L 240.79853 63.543845 
L 240.852578 62.578972 
L 246.358685 62.578972 
L 246.419488 60.649226 
L 248.513836 60.649226 
L 248.696247 59.684353 
L 258.796406 59.684353 
L 258.918013 58.71948 
L 260.843461 58.71948 
L 260.904265 58.076231 
L 277.490144 58.076231 
L 277.88199 57.111358 
L 284.232592 57.111358 
L 284.279883 55.503236 
L 289.50224 55.503236 
L 289.576555 54.216739 
L 309.709314 54.216739 
L 309.763361 53.251865 
L 310.641636 53.251865 
L 310.783511 51.965368 
L 313.891252 51.965368 
L 313.972324 51.000495 
L 323.329327 51.000495 
L 323.417155 50.357246 
L 336.793954 50.357246 
L 337.192555 50.035622 
L 346.887357 50.035622 
L 347.279202 49.392373 
L 357.61582 49.392373 
L 357.669867 48.4275 
L 400.90125 48.4275 
L 400.90125 48.4275 
" style="fill:none;stroke:#1f77b4;stroke-linecap:square;stroke-width:1.5;"/>
   </g>
   <g id="line2d_14">
    <path clip-path="url(#pfaef9725d2)" d="M 43.78125 301.8675 
L 43.882591 300.581003 
L 44.085274 300.581003 
L 44.186615 299.937754 
L 44.287957 296.72151 
L 44.896004 296.72151 
L 45.33515 294.47014 
L 45.571613 289.002525 
L 46.07832 289.002525 
L 46.139124 287.716028 
L 46.375587 287.716028 
L 46.558002 287.072779 
L 47.334952 284.499784 
L 48.314584 280.318668 
L 48.382145 280.318668 
L 48.956413 276.780799 
L 48.983437 274.851053 
L 49.827948 270.991561 
L 50.233313 269.705063 
L 50.848117 266.48882 
L 52.773602 255.553591 
L 53.246528 255.553591 
L 53.44921 254.910343 
L 53.658649 252.658972 
L 53.72621 252.658972 
L 53.996453 252.015723 
L 55.921938 247.512982 
L 56.097597 244.939987 
L 56.266499 244.939987 
L 56.455669 243.010241 
L 56.759693 243.010241 
L 57.117766 238.185876 
L 58.131179 233.36151 
L 58.333861 233.36151 
L 58.502763 231.431764 
L 58.570324 230.145266 
L 58.874348 228.858769 
L 59.002714 226.929023 
L 59.205397 226.929023 
L 59.604006 224.356028 
L 59.806688 224.356028 
L 60.178273 221.139784 
L 61.191686 219.210038 
L 61.34032 217.601916 
L 61.441661 217.601916 
L 61.543003 216.958668 
L 61.982148 216.958668 
L 62.184831 216.315419 
L 62.421294 216.315419 
L 62.610464 214.707297 
L 62.678025 214.707297 
L 62.846927 213.420799 
L 63.353634 211.491053 
L 63.894121 211.491053 
L 64.367047 209.239683 
L 64.60351 207.309937 
L 64.671071 207.309937 
L 64.79268 206.345063 
L 64.833217 205.058566 
L 65.002119 204.415317 
L 65.06968 203.12882 
L 65.272363 203.12882 
L 65.576386 200.234201 
L 65.81285 200.234201 
L 65.947971 198.947703 
L 66.697897 193.801713 
L 66.90058 188.977348 
L 67.103262 188.977348 
L 67.21136 187.69085 
L 67.515383 187.69085 
L 67.731578 186.082728 
L 67.799139 186.082728 
L 67.934261 185.117855 
L 68.103163 183.188109 
L 68.305846 182.54486 
L 68.373406 181.579987 
L 68.576089 181.579987 
L 68.812552 179.650241 
L 68.947674 179.650241 
L 69.116576 178.042119 
L 69.521941 178.042119 
L 69.630039 175.790749 
L 69.967843 175.790749 
L 70.129989 174.825876 
L 70.535354 171.609632 
L 70.738037 171.609632 
L 70.805598 170.644759 
L 71.143402 170.644759 
L 71.481206 168.393388 
L 71.582548 168.393388 
L 71.75145 167.75014 
L 72.190596 167.75014 
L 72.258156 167.106891 
L 72.798643 167.106891 
L 72.920253 165.177145 
L 73.42696 163.890647 
L 73.595862 162.282525 
L 73.663423 162.282525 
L 73.730983 161.960901 
L 73.798544 160.996028 
L 74.23769 160.996028 
L 74.474153 160.352779 
L 74.778177 160.352779 
L 74.967347 158.101409 
L 75.13625 158.101409 
L 75.305152 157.45816 
L 75.541615 157.45816 
L 75.899687 154.885165 
L 76.10237 154.885165 
L 76.271272 153.598668 
L 76.338833 153.598668 
L 76.494223 152.955419 
L 77.03471 152.955419 
L 77.203612 152.31217 
L 77.440075 152.31217 
L 77.588709 151.668921 
L 78.162976 151.668921 
L 78.358903 149.739175 
L 78.460244 149.739175 
L 78.798049 147.809429 
L 78.89939 147.809429 
L 79.129097 146.201307 
L 79.433121 145.558058 
L 79.534462 145.558058 
L 79.669584 143.949937 
L 80.446534 143.949937 
L 80.818119 142.02019 
L 80.95324 142.02019 
L 81.243752 139.125571 
L 81.446435 139.125571 
L 81.513996 137.839074 
L 81.784239 137.839074 
L 82.00719 135.587703 
L 82.513896 135.587703 
L 82.736847 134.301206 
L 82.838189 134.301206 
L 82.892237 133.657957 
L 83.162481 133.657957 
L 83.331383 133.014708 
L 83.770529 133.014708 
L 83.973211 132.371459 
L 84.243455 132.371459 
L 84.311016 131.728211 
L 84.446137 129.155216 
L 84.513698 129.155216 
L 84.642064 127.22547 
L 84.810966 127.22547 
L 84.979868 126.582221 
L 85.047429 126.582221 
L 85.169039 125.617348 
L 85.540623 125.617348 
L 86.04733 123.687602 
L 86.148671 123.687602 
L 86.317573 122.401104 
L 87.060743 122.401104 
L 87.195865 121.757855 
L 87.297206 121.757855 
L 87.466108 121.436231 
L 87.770132 121.436231 
L 88.006595 119.828109 
L 88.682204 119.828109 
L 88.851106 118.541612 
L 89.020008 118.541612 
L 89.222691 117.255114 
L 89.492934 117.255114 
L 89.574007 116.611865 
L 90.046933 116.611865 
L 90.168543 115.968617 
L 91.013054 115.968617 
L 91.303566 112.752373 
L 91.708931 112.752373 
L 91.891345 112.109124 
L 92.127808 112.109124 
L 92.330491 111.465876 
L 92.499393 111.465876 
L 92.634515 110.822627 
L 93.614147 110.822627 
L 93.81683 109.536129 
L 93.884391 109.536129 
L 94.100586 108.249632 
L 94.269488 108.249632 
L 94.337049 107.606383 
L 94.607292 107.606383 
L 94.762682 106.64151 
L 94.884292 105.998261 
L 95.424779 105.998261 
L 95.546388 105.355013 
L 95.816632 105.355013 
L 95.911217 104.39014 
L 96.046339 104.39014 
L 96.134168 103.425266 
L 97.04624 103.425266 
L 97.167849 101.49552 
L 97.26919 101.49552 
L 97.438093 100.530647 
L 97.809677 100.530647 
L 98.01236 97.957652 
L 98.215043 96.671155 
L 98.350164 96.671155 
L 98.404213 96.027906 
L 100.937746 96.027906 
L 100.991794 95.384657 
L 101.363379 95.384657 
L 101.633623 93.133287 
L 102.613255 93.133287 
L 102.680816 92.811662 
L 104.133375 92.811662 
L 104.200936 92.168414 
L 104.336057 92.168414 
L 104.498203 89.917043 
L 104.700886 89.273794 
L 105.140032 89.273794 
L 105.295422 88.630546 
L 105.430543 88.630546 
L 105.572421 87.344048 
L 106.923639 87.344048 
L 106.991199 86.700799 
L 107.633028 86.700799 
L 107.687076 86.057551 
L 107.822198 86.057551 
L 107.964076 83.484556 
L 108.065417 83.484556 
L 108.132978 82.519683 
L 111.146193 82.519683 
L 111.247534 80.589937 
L 112.564971 80.589937 
L 112.733873 80.268312 
L 114.82826 80.268312 
L 114.909333 79.625063 
L 115.179577 79.625063 
L 115.402528 78.981815 
L 116.652404 78.981815 
L 116.706453 78.338566 
L 117.246939 78.338566 
L 117.300988 77.695317 
L 119.226473 77.695317 
L 119.280522 77.052069 
L 120.868202 77.052069 
L 120.935763 76.40882 
L 121.881615 76.40882 
L 121.935664 75.765571 
L 123.320662 75.765571 
L 123.489564 74.157449 
L 130.076749 74.157449 
L 130.17809 73.514201 
L 137.238201 73.514201 
L 137.292249 72.870952 
L 138.508345 72.870952 
L 138.609686 72.549327 
L 142.224193 72.549327 
L 142.291754 72.227703 
L 145.365773 72.227703 
L 145.426578 70.941206 
L 155.493148 70.941206 
L 155.621513 69.654708 
L 155.790416 69.654708 
L 155.857976 69.011459 
L 157.546998 69.011459 
L 157.68212 68.689835 
L 159.911629 68.368211 
L 159.992702 67.403338 
L 162.762697 67.403338 
L 162.84377 66.438464 
L 163.147794 66.438464 
L 163.296428 65.473591 
L 170.4241 65.473591 
L 170.484905 63.543845 
L 171.261855 63.543845 
L 171.342928 62.900596 
L 178.031454 62.900596 
L 178.112527 61.935723 
L 179.90289 61.935723 
L 180.071792 61.614099 
L 183.997079 61.614099 
L 184.118688 60.97085 
L 188.131804 60.97085 
L 188.314218 60.005977 
L 189.699216 60.005977 
L 189.84785 59.362728 
L 191.604432 59.362728 
L 191.658481 58.71948 
L 196.387742 58.71948 
L 196.489083 57.754607 
L 201.65749 57.754607 
L 201.725051 57.432982 
L 203.515414 57.432982 
L 203.596487 56.789734 
L 206.839408 56.789734 
L 207.042091 56.146485 
L 207.278554 56.146485 
L 207.460968 55.181612 
L 227.357645 55.181612 
L 227.519791 54.216739 
L 230.424908 54.216739 
L 230.59381 53.895114 
L 235.660875 53.895114 
L 235.741948 53.251865 
L 239.896942 53.251865 
L 239.964503 52.930241 
L 242.396694 52.930241 
L 242.52506 51.643744 
L 279.109271 51.643744 
L 279.190344 51.000495 
L 295.209026 51.000495 
L 295.283343 49.070749 
L 385.48386 49.070749 
L 385.564933 48.4275 
L 400.90125 48.4275 
L 400.90125 48.4275 
" style="fill:none;stroke:#ff7f0e;stroke-linecap:square;stroke-width:1.5;"/>
   </g>
   <g id="line2d_15">
    <path clip-path="url(#pfaef9725d2)" d="M 43.78125 301.8675 
L 44.078518 301.8675 
L 44.24742 300.579368 
L 44.483883 300.579368 
L 44.652785 299.291236 
L 44.754127 299.291236 
L 44.821687 298.003104 
L 45.091931 298.003104 
L 45.159492 297.359037 
L 45.328394 294.138707 
L 46.091832 289.630245 
L 46.294514 289.630245 
L 46.530977 288.986179 
L 46.868782 286.409914 
L 46.970123 286.409914 
L 47.01066 285.121782 
L 47.247123 284.155683 
L 47.382244 284.155683 
L 47.652488 282.545518 
L 47.78761 282.545518 
L 48.463218 277.070956 
L 48.59834 277.070956 
L 48.665901 275.782824 
L 49.071266 275.782824 
L 49.206388 275.138758 
L 49.40907 273.850626 
L 49.510412 273.20656 
L 49.638777 271.274361 
L 49.87524 269.986229 
L 50.010362 266.765899 
L 50.213045 265.7998 
L 50.58463 265.155734 
L 50.74002 263.867602 
L 51.111604 263.867602 
L 51.246726 262.57947 
L 51.483189 262.57947 
L 51.685872 261.61337 
L 53.712698 250.664247 
L 53.780259 250.664247 
L 53.928893 248.087983 
L 57.894716 222.32534 
L 58.252788 217.816877 
L 58.523032 217.816877 
L 58.691934 217.172811 
L 58.894617 217.172811 
L 58.962177 216.528745 
L 59.13108 216.528745 
L 59.313494 215.240613 
L 59.448616 215.240613 
L 59.556713 213.308415 
L 59.928298 210.732151 
L 60.536346 210.732151 
L 60.603907 210.088084 
L 60.806589 210.088084 
L 61.076833 209.121985 
L 61.178174 209.121985 
L 61.299783 207.833853 
L 61.502466 207.833853 
L 61.671368 207.189787 
L 61.738929 207.189787 
L 62.009173 205.901655 
L 62.110514 205.901655 
L 62.279416 205.257589 
L 64.272462 202.037259 
L 68.596357 187.223739 
L 68.79904 187.223739 
L 68.967942 186.579673 
L 69.60977 186.579673 
L 70.251599 182.393243 
L 71.062329 182.393243 
L 71.501475 177.240715 
L 71.839279 177.240715 
L 72.312205 174.986483 
L 72.514888 174.986483 
L 72.582449 174.342417 
L 73.224277 174.342417 
L 73.61613 171.44412 
L 73.852593 171.44412 
L 73.933666 168.867856 
L 74.170129 168.867856 
L 74.541714 165.003459 
L 74.947079 165.003459 
L 75.318664 163.071261 
L 76.636101 163.071261 
L 76.771223 161.783129 
L 77.31171 161.783129 
L 77.433319 161.139063 
L 78.075147 161.139063 
L 78.129196 159.850931 
L 78.500781 159.850931 
L 78.703463 158.884832 
L 78.872366 158.884832 
L 79.17639 156.6306 
L 79.379072 156.6306 
L 79.547974 155.342468 
L 79.716876 154.698402 
L 79.95334 154.698402 
L 80.243851 152.766204 
L 80.412753 152.766204 
L 80.581656 151.800105 
L 80.682997 151.800105 
L 80.818119 150.511973 
L 81.020801 150.511973 
L 81.209972 149.223841 
L 81.378874 149.223841 
L 81.581556 147.935708 
L 81.81802 147.935708 
L 82.04097 146.00351 
L 82.142312 146.00351 
L 82.513896 144.715378 
L 82.655774 143.427246 
L 83.162481 138.59675 
L 83.770529 138.59675 
L 84.108333 137.952684 
L 84.209674 137.952684 
L 84.412357 136.986585 
L 84.547479 136.986585 
L 84.669088 136.342519 
L 84.77043 136.342519 
L 84.851503 135.698453 
L 85.932476 135.698453 
L 86.135159 132.800156 
L 86.405403 132.800156 
L 86.527012 130.223891 
L 86.864816 130.223891 
L 87.006694 128.935759 
L 87.141816 128.291693 
L 87.276938 128.291693 
L 87.44584 127.647627 
L 87.648523 127.647627 
L 87.871473 126.359495 
L 88.952447 126.359495 
L 89.107837 125.071363 
L 89.411861 125.071363 
L 89.479422 124.74933 
L 89.749666 124.74933 
L 90.12125 122.817132 
L 90.256372 122.817132 
L 90.526616 120.240867 
L 91.033322 120.240867 
L 91.154932 119.596801 
L 91.661638 119.596801 
L 91.715687 118.952735 
L 92.019711 118.952735 
L 92.121052 117.020537 
L 93.404709 117.020537 
L 93.803318 113.15614 
L 94.006 113.15614 
L 94.12761 112.512074 
L 94.228951 112.512074 
L 94.330293 111.545975 
L 94.600536 111.545975 
L 94.809975 110.257843 
L 94.978877 110.257843 
L 95.032926 109.613777 
L 95.472071 109.613777 
L 95.627461 108.969711 
L 95.762583 108.969711 
L 95.80312 107.681579 
L 96.411167 107.681579 
L 96.61385 107.037513 
L 97.323239 107.037513 
L 97.404312 106.393447 
L 97.911019 106.393447 
L 98.066409 105.105314 
L 98.404213 105.105314 
L 98.640676 103.817182 
L 99.147383 103.817182 
L 99.316285 102.52905 
L 99.552748 102.52905 
L 99.606796 101.884984 
L 99.809479 101.884984 
L 99.998649 100.918885 
L 100.201332 100.918885 
L 100.370234 100.596852 
L 101.890354 100.596852 
L 102.059256 98.664654 
L 102.36328 98.664654 
L 102.532182 97.698555 
L 103.309132 97.698555 
L 103.430742 97.054489 
L 104.275253 97.054489 
L 104.491447 95.766356 
L 104.592789 95.766356 
L 104.660349 95.12229 
L 104.930593 95.12229 
L 105.133276 94.478224 
L 106.079128 94.478224 
L 106.200737 93.834158 
L 107.315492 93.834158 
L 107.437101 93.190092 
L 107.639784 93.190092 
L 107.741125 92.546026 
L 108.247832 92.546026 
L 108.315393 91.90196 
L 108.92344 91.90196 
L 109.024782 91.257894 
L 109.463927 91.257894 
L 109.517976 90.613828 
L 109.720659 90.613828 
L 110.227365 88.037564 
L 110.328706 88.037564 
L 110.531389 87.071464 
L 111.206998 87.071464 
L 111.328607 86.427398 
L 111.632631 86.427398 
L 111.733973 85.461299 
L 111.936655 85.461299 
L 112.240679 82.240969 
L 113.186531 82.240969 
L 113.24058 81.596903 
L 113.544604 81.596903 
L 113.747286 80.952837 
L 113.949969 79.020639 
L 115.368747 79.020639 
L 115.44982 78.054539 
L 115.584942 78.054539 
L 115.740332 77.410473 
L 118.476547 77.410473 
L 118.645449 77.08844 
L 119.118376 77.08844 
L 119.30079 76.444374 
L 121.530299 76.444374 
L 121.732981 75.800308 
L 122.037005 75.800308 
L 122.192395 75.156242 
L 122.327517 75.156242 
L 122.476151 74.190143 
L 122.678833 74.190143 
L 122.732882 73.546077 
L 127.22568 73.546077 
L 127.38107 72.902011 
L 127.583753 72.902011 
L 127.651313 72.579978 
L 129.002531 72.579978 
L 129.272774 70.64778 
L 129.779481 70.64778 
L 130.042968 69.359647 
L 133.015646 69.359647 
L 133.069695 68.715581 
L 136.58286 68.715581 
L 136.785543 67.749482 
L 137.089567 67.749482 
L 137.224689 67.427449 
L 137.731395 67.427449 
L 137.798956 66.783383 
L 138.271882 66.783383 
L 138.454296 65.817284 
L 140.27844 65.817284 
L 140.413562 65.495251 
L 140.954049 65.495251 
L 141.109439 64.851185 
L 141.24456 64.851185 
L 141.447243 62.918987 
L 141.920169 62.918987 
L 142.224193 62.274921 
L 144.656384 62.274921 
L 144.723945 61.952888 
L 147.352063 61.952888 
L 147.433136 60.986788 
L 157.033536 60.986788 
L 157.114609 60.020689 
L 161.202041 60.020689 
L 161.404724 59.376623 
L 163.870696 59.376623 
L 163.972037 57.766458 
L 185.152369 57.766458 
L 185.233442 56.800359 
L 193.746112 56.800359 
L 193.928526 55.83426 
L 228.080546 55.83426 
L 228.364302 54.868161 
L 249.146025 54.868161 
L 249.247366 53.902062 
L 252.62541 53.902062 
L 252.807824 52.935963 
L 253.618555 52.935963 
L 253.86853 51.969863 
L 266.779412 51.969863 
L 266.880753 51.325797 
L 342.684049 51.325797 
L 342.846195 49.393599 
L 362.979334 49.393599 
L 363.127968 48.4275 
L 400.90125 48.4275 
L 400.90125 48.4275 
" style="fill:none;stroke:#2ca02c;stroke-linecap:square;stroke-width:1.5;"/>
   </g>
   <g id="line2d_16">
    <path clip-path="url(#pfaef9725d2)" d="M 43.78125 301.8675 
L 400.90125 48.4275 
" style="fill:none;stroke:#000000;stroke-dasharray:5.6,2.4;stroke-dashoffset:0;stroke-width:1.5;"/>
   </g>
   <g id="patch_3">
    <path d="M 43.78125 301.8675 
L 43.78125 35.7555 
" style="fill:none;stroke:#000000;stroke-linecap:square;stroke-linejoin:miter;stroke-width:0.8;"/>
   </g>
   <g id="patch_4">
    <path d="M 400.90125 301.8675 
L 400.90125 35.7555 
" style="fill:none;stroke:#000000;stroke-linecap:square;stroke-linejoin:miter;stroke-width:0.8;"/>
   </g>
   <g id="patch_5">
    <path d="M 43.78125 301.8675 
L 400.90125 301.8675 
" style="fill:none;stroke:#000000;stroke-linecap:square;stroke-linejoin:miter;stroke-width:0.8;"/>
   </g>
   <g id="patch_6">
    <path d="M 43.78125 35.7555 
L 400.90125 35.7555 
" style="fill:none;stroke:#000000;stroke-linecap:square;stroke-linejoin:miter;stroke-width:0.8;"/>
   </g>
   <g id="text_15">
    <!-- ROC Curve GradientBoosting + RandomOverSampler -->
    <defs>
     <path d="M 39.40625 66.21875 
Q 28.65625 66.21875 22.328125 58.203125 
Q 16.015625 50.203125 16.015625 36.375 
Q 16.015625 22.609375 22.328125 14.59375 
Q 28.65625 6.59375 39.40625 6.59375 
Q 50.140625 6.59375 56.421875 14.59375 
Q 62.703125 22.609375 62.703125 36.375 
Q 62.703125 50.203125 56.421875 58.203125 
Q 50.140625 66.21875 39.40625 66.21875 
M 39.40625 74.21875 
Q 54.734375 74.21875 63.90625 63.9375 
Q 73.09375 53.65625 73.09375 36.375 
Q 73.09375 19.140625 63.90625 8.859375 
Q 54.734375 -1.421875 39.40625 -1.421875 
Q 24.03125 -1.421875 14.8125 8.828125 
Q 5.609375 19.09375 5.609375 36.375 
Q 5.609375 53.65625 14.8125 63.9375 
Q 24.03125 74.21875 39.40625 74.21875 
" id="DejaVuSans-4f"/>
     <path d="M 64.40625 67.28125 
L 64.40625 56.890625 
Q 59.421875 61.53125 53.78125 63.8125 
Q 48.140625 66.109375 41.796875 66.109375 
Q 29.296875 66.109375 22.65625 58.46875 
Q 16.015625 50.828125 16.015625 36.375 
Q 16.015625 21.96875 22.65625 14.328125 
Q 29.296875 6.6875 41.796875 6.6875 
Q 48.140625 6.6875 53.78125 8.984375 
Q 59.421875 11.28125 64.40625 15.921875 
L 64.40625 5.609375 
Q 59.234375 2.09375 53.4375 0.328125 
Q 47.65625 -1.421875 41.21875 -1.421875 
Q 24.65625 -1.421875 15.125 8.703125 
Q 5.609375 18.84375 5.609375 36.375 
Q 5.609375 53.953125 15.125 64.078125 
Q 24.65625 74.21875 41.21875 74.21875 
Q 47.75 74.21875 53.53125 72.484375 
Q 59.328125 70.75 64.40625 67.28125 
" id="DejaVuSans-43"/>
     <path d="M 59.515625 10.40625 
L 59.515625 29.984375 
L 43.40625 29.984375 
L 43.40625 38.09375 
L 69.28125 38.09375 
L 69.28125 6.78125 
Q 63.578125 2.734375 56.6875 0.65625 
Q 49.8125 -1.421875 42 -1.421875 
Q 24.90625 -1.421875 15.25 8.5625 
Q 5.609375 18.5625 5.609375 36.375 
Q 5.609375 54.25 15.25 64.234375 
Q 24.90625 74.21875 42 74.21875 
Q 49.125 74.21875 55.546875 72.453125 
Q 61.96875 70.703125 67.390625 67.28125 
L 67.390625 56.78125 
Q 61.921875 61.421875 55.765625 63.765625 
Q 49.609375 66.109375 42.828125 66.109375 
Q 29.4375 66.109375 22.71875 58.640625 
Q 16.015625 51.171875 16.015625 36.375 
Q 16.015625 21.625 22.71875 14.15625 
Q 29.4375 6.6875 42.828125 6.6875 
Q 48.046875 6.6875 52.140625 7.59375 
Q 56.25 8.5 59.515625 10.40625 
" id="DejaVuSans-47"/>
     <path d="M 45.40625 46.390625 
L 45.40625 75.984375 
L 54.390625 75.984375 
L 54.390625 0 
L 45.40625 0 
L 45.40625 8.203125 
Q 42.578125 3.328125 38.25 0.953125 
Q 33.9375 -1.421875 27.875 -1.421875 
Q 17.96875 -1.421875 11.734375 6.484375 
Q 5.515625 14.40625 5.515625 27.296875 
Q 5.515625 40.1875 11.734375 48.09375 
Q 17.96875 56 27.875 56 
Q 33.9375 56 38.25 53.625 
Q 42.578125 51.265625 45.40625 46.390625 
M 14.796875 27.296875 
Q 14.796875 17.390625 18.875 11.75 
Q 22.953125 6.109375 30.078125 6.109375 
Q 37.203125 6.109375 41.296875 11.75 
Q 45.40625 17.390625 45.40625 27.296875 
Q 45.40625 37.203125 41.296875 42.84375 
Q 37.203125 48.484375 30.078125 48.484375 
Q 22.953125 48.484375 18.875 42.84375 
Q 14.796875 37.203125 14.796875 27.296875 
" id="DejaVuSans-64"/>
     <path d="M 54.890625 33.015625 
L 54.890625 0 
L 45.90625 0 
L 45.90625 32.71875 
Q 45.90625 40.484375 42.875 44.328125 
Q 39.84375 48.1875 33.796875 48.1875 
Q 26.515625 48.1875 22.3125 43.546875 
Q 18.109375 38.921875 18.109375 30.90625 
L 18.109375 0 
L 9.078125 0 
L 9.078125 54.6875 
L 18.109375 54.6875 
L 18.109375 46.1875 
Q 21.34375 51.125 25.703125 53.5625 
Q 30.078125 56 35.796875 56 
Q 45.21875 56 50.046875 50.171875 
Q 54.890625 44.34375 54.890625 33.015625 
" id="DejaVuSans-6e"/>
     <path d="M 19.671875 34.8125 
L 19.671875 8.109375 
L 35.5 8.109375 
Q 43.453125 8.109375 47.28125 11.40625 
Q 51.125 14.703125 51.125 21.484375 
Q 51.125 28.328125 47.28125 31.5625 
Q 43.453125 34.8125 35.5 34.8125 
z
M 19.671875 64.796875 
L 19.671875 42.828125 
L 34.28125 42.828125 
Q 41.5 42.828125 45.03125 45.53125 
Q 48.578125 48.25 48.578125 53.8125 
Q 48.578125 59.328125 45.03125 62.0625 
Q 41.5 64.796875 34.28125 64.796875 
z
M 9.8125 72.90625 
L 35.015625 72.90625 
Q 46.296875 72.90625 52.390625 68.21875 
Q 58.5 63.53125 58.5 54.890625 
Q 58.5 48.1875 55.375 44.234375 
Q 52.25 40.28125 46.1875 39.3125 
Q 53.46875 37.75 57.5 32.78125 
Q 61.53125 27.828125 61.53125 20.40625 
Q 61.53125 10.640625 54.890625 5.3125 
Q 48.25 0 35.984375 0 
L 9.8125 0 
z
" id="DejaVuSans-42"/>
     <path d="M 45.40625 27.984375 
Q 45.40625 37.75 41.375 43.109375 
Q 37.359375 48.484375 30.078125 48.484375 
Q 22.859375 48.484375 18.828125 43.109375 
Q 14.796875 37.75 14.796875 27.984375 
Q 14.796875 18.265625 18.828125 12.890625 
Q 22.859375 7.515625 30.078125 7.515625 
Q 37.359375 7.515625 41.375 12.890625 
Q 45.40625 18.265625 45.40625 27.984375 
M 54.390625 6.78125 
Q 54.390625 -7.171875 48.1875 -13.984375 
Q 42 -20.796875 29.203125 -20.796875 
Q 24.46875 -20.796875 20.265625 -20.09375 
Q 16.0625 -19.390625 12.109375 -17.921875 
L 12.109375 -9.1875 
Q 16.0625 -11.328125 19.921875 -12.34375 
Q 23.78125 -13.375 27.78125 -13.375 
Q 36.625 -13.375 41.015625 -8.765625 
Q 45.40625 -4.15625 45.40625 5.171875 
L 45.40625 9.625 
Q 42.625 4.78125 38.28125 2.390625 
Q 33.9375 0 27.875 0 
Q 17.828125 0 11.671875 7.65625 
Q 5.515625 15.328125 5.515625 27.984375 
Q 5.515625 40.671875 11.671875 48.328125 
Q 17.828125 56 27.875 56 
Q 33.9375 56 38.28125 53.609375 
Q 42.625 51.21875 45.40625 46.390625 
L 45.40625 54.6875 
L 54.390625 54.6875 
z
" id="DejaVuSans-67"/>
     <path d="M 46 62.703125 
L 46 35.5 
L 73.1875 35.5 
L 73.1875 27.203125 
L 46 27.203125 
L 46 0 
L 37.796875 0 
L 37.796875 27.203125 
L 10.59375 27.203125 
L 10.59375 35.5 
L 37.796875 35.5 
L 37.796875 62.703125 
z
" id="DejaVuSans-2b"/>
     <path d="M 52 44.1875 
Q 55.375 50.25 60.0625 53.125 
Q 64.75 56 71.09375 56 
Q 79.640625 56 84.28125 50.015625 
Q 88.921875 44.046875 88.921875 33.015625 
L 88.921875 0 
L 79.890625 0 
L 79.890625 32.71875 
Q 79.890625 40.578125 77.09375 44.375 
Q 74.3125 48.1875 68.609375 48.1875 
Q 61.625 48.1875 57.5625 43.546875 
Q 53.515625 38.921875 53.515625 30.90625 
L 53.515625 0 
L 44.484375 0 
L 44.484375 32.71875 
Q 44.484375 40.625 41.703125 44.40625 
Q 38.921875 48.1875 33.109375 48.1875 
Q 26.21875 48.1875 22.15625 43.53125 
Q 18.109375 38.875 18.109375 30.90625 
L 18.109375 0 
L 9.078125 0 
L 9.078125 54.6875 
L 18.109375 54.6875 
L 18.109375 46.1875 
Q 21.1875 51.21875 25.484375 53.609375 
Q 29.78125 56 35.6875 56 
Q 41.65625 56 45.828125 52.96875 
Q 50 49.953125 52 44.1875 
" id="DejaVuSans-6d"/>
     <path d="M 53.515625 70.515625 
L 53.515625 60.890625 
Q 47.90625 63.578125 42.921875 64.890625 
Q 37.9375 66.21875 33.296875 66.21875 
Q 25.25 66.21875 20.875 63.09375 
Q 16.5 59.96875 16.5 54.203125 
Q 16.5 49.359375 19.40625 46.890625 
Q 22.3125 44.4375 30.421875 42.921875 
L 36.375 41.703125 
Q 47.40625 39.59375 52.65625 34.296875 
Q 57.90625 29 57.90625 20.125 
Q 57.90625 9.515625 50.796875 4.046875 
Q 43.703125 -1.421875 29.984375 -1.421875 
Q 24.8125 -1.421875 18.96875 -0.25 
Q 13.140625 0.921875 6.890625 3.21875 
L 6.890625 13.375 
Q 12.890625 10.015625 18.65625 8.296875 
Q 24.421875 6.59375 29.984375 6.59375 
Q 38.421875 6.59375 43.015625 9.90625 
Q 47.609375 13.234375 47.609375 19.390625 
Q 47.609375 24.75 44.3125 27.78125 
Q 41.015625 30.8125 33.5 32.328125 
L 27.484375 33.5 
Q 16.453125 35.6875 11.515625 40.375 
Q 6.59375 45.0625 6.59375 53.421875 
Q 6.59375 63.09375 13.40625 68.65625 
Q 20.21875 74.21875 32.171875 74.21875 
Q 37.3125 74.21875 42.625 73.28125 
Q 47.953125 72.359375 53.515625 70.515625 
" id="DejaVuSans-53"/>
     <path d="M 18.109375 8.203125 
L 18.109375 -20.796875 
L 9.078125 -20.796875 
L 9.078125 54.6875 
L 18.109375 54.6875 
L 18.109375 46.390625 
Q 20.953125 51.265625 25.265625 53.625 
Q 29.59375 56 35.59375 56 
Q 45.5625 56 51.78125 48.09375 
Q 58.015625 40.1875 58.015625 27.296875 
Q 58.015625 14.40625 51.78125 6.484375 
Q 45.5625 -1.421875 35.59375 -1.421875 
Q 29.59375 -1.421875 25.265625 0.953125 
Q 20.953125 3.328125 18.109375 8.203125 
M 48.6875 27.296875 
Q 48.6875 37.203125 44.609375 42.84375 
Q 40.53125 48.484375 33.40625 48.484375 
Q 26.265625 48.484375 22.1875 42.84375 
Q 18.109375 37.203125 18.109375 27.296875 
Q 18.109375 17.390625 22.1875 11.75 
Q 26.265625 6.109375 33.40625 6.109375 
Q 40.53125 6.109375 44.609375 11.75 
Q 48.6875 17.390625 48.6875 27.296875 
" id="DejaVuSans-70"/>
    </defs>
    <g transform="translate(62.203125 16.318125)scale(0.12 -0.12)">
     <use xlink:href="#DejaVuSans-52"/>
     <use x="69.482422" xlink:href="#DejaVuSans-4f"/>
     <use x="148.193359" xlink:href="#DejaVuSans-43"/>
     <use x="218.017578" xlink:href="#DejaVuSans-20"/>
     <use x="249.804688" xlink:href="#DejaVuSans-43"/>
     <use x="319.628906" xlink:href="#DejaVuSans-75"/>
     <use x="383.007812" xlink:href="#DejaVuSans-72"/>
     <use x="424.121094" xlink:href="#DejaVuSans-76"/>
     <use x="483.300781" xlink:href="#DejaVuSans-65"/>
     <use x="544.824219" xlink:href="#DejaVuSans-20"/>
     <use x="576.611328" xlink:href="#DejaVuSans-47"/>
     <use x="654.101562" xlink:href="#DejaVuSans-72"/>
     <use x="695.214844" xlink:href="#DejaVuSans-61"/>
     <use x="756.494141" xlink:href="#DejaVuSans-64"/>
     <use x="819.970703" xlink:href="#DejaVuSans-69"/>
     <use x="847.753906" xlink:href="#DejaVuSans-65"/>
     <use x="909.277344" xlink:href="#DejaVuSans-6e"/>
     <use x="972.65625" xlink:href="#DejaVuSans-74"/>
     <use x="1011.865234" xlink:href="#DejaVuSans-42"/>
     <use x="1080.46875" xlink:href="#DejaVuSans-6f"/>
     <use x="1141.650391" xlink:href="#DejaVuSans-6f"/>
     <use x="1202.832031" xlink:href="#DejaVuSans-73"/>
     <use x="1254.931641" xlink:href="#DejaVuSans-74"/>
     <use x="1294.140625" xlink:href="#DejaVuSans-69"/>
     <use x="1321.923828" xlink:href="#DejaVuSans-6e"/>
     <use x="1385.302734" xlink:href="#DejaVuSans-67"/>
     <use x="1448.779297" xlink:href="#DejaVuSans-20"/>
     <use x="1480.566406" xlink:href="#DejaVuSans-2b"/>
     <use x="1564.355469" xlink:href="#DejaVuSans-20"/>
     <use x="1596.142578" xlink:href="#DejaVuSans-52"/>
     <use x="1665.59375" xlink:href="#DejaVuSans-61"/>
     <use x="1726.873047" xlink:href="#DejaVuSans-6e"/>
     <use x="1790.251953" xlink:href="#DejaVuSans-64"/>
     <use x="1853.728516" xlink:href="#DejaVuSans-6f"/>
     <use x="1914.910156" xlink:href="#DejaVuSans-6d"/>
     <use x="2012.322266" xlink:href="#DejaVuSans-4f"/>
     <use x="2091.033203" xlink:href="#DejaVuSans-76"/>
     <use x="2150.212891" xlink:href="#DejaVuSans-65"/>
     <use x="2211.736328" xlink:href="#DejaVuSans-72"/>
     <use x="2252.849609" xlink:href="#DejaVuSans-53"/>
     <use x="2316.326172" xlink:href="#DejaVuSans-61"/>
     <use x="2377.605469" xlink:href="#DejaVuSans-6d"/>
     <use x="2475.017578" xlink:href="#DejaVuSans-70"/>
     <use x="2538.494141" xlink:href="#DejaVuSans-6c"/>
     <use x="2566.277344" xlink:href="#DejaVuSans-65"/>
     <use x="2627.800781" xlink:href="#DejaVuSans-72"/>
    </g>
    <!-- Train: 28   Test: [1, 4, 8, 12, 16, 20, 24] -->
    <defs>
     <path d="M 11.71875 12.40625 
L 22.015625 12.40625 
L 22.015625 0 
L 11.71875 0 
z
M 11.71875 51.703125 
L 22.015625 51.703125 
L 22.015625 39.3125 
L 11.71875 39.3125 
z
" id="DejaVuSans-3a"/>
     <path d="M 8.59375 75.984375 
L 29.296875 75.984375 
L 29.296875 69 
L 17.578125 69 
L 17.578125 -6.203125 
L 29.296875 -6.203125 
L 29.296875 -13.1875 
L 8.59375 -13.1875 
z
" id="DejaVuSans-5b"/>
     <path d="M 11.71875 12.40625 
L 22.015625 12.40625 
L 22.015625 4 
L 14.015625 -11.625 
L 7.71875 -11.625 
L 11.71875 4 
z
" id="DejaVuSans-2c"/>
     <path d="M 30.421875 75.984375 
L 30.421875 -13.1875 
L 9.71875 -13.1875 
L 9.71875 -6.203125 
L 21.390625 -6.203125 
L 21.390625 69 
L 9.71875 69 
L 9.71875 75.984375 
z
" id="DejaVuSans-5d"/>
    </defs>
    <g transform="translate(103.489688 29.7555)scale(0.12 -0.12)">
     <use xlink:href="#DejaVuSans-54"/>
     <use x="60.865234" xlink:href="#DejaVuSans-72"/>
     <use x="101.978516" xlink:href="#DejaVuSans-61"/>
     <use x="163.257812" xlink:href="#DejaVuSans-69"/>
     <use x="191.041016" xlink:href="#DejaVuSans-6e"/>
     <use x="254.419922" xlink:href="#DejaVuSans-3a"/>
     <use x="288.111328" xlink:href="#DejaVuSans-20"/>
     <use x="319.898438" xlink:href="#DejaVuSans-32"/>
     <use x="383.521484" xlink:href="#DejaVuSans-38"/>
     <use x="447.144531" xlink:href="#DejaVuSans-20"/>
     <use x="478.931641" xlink:href="#DejaVuSans-20"/>
     <use x="510.71875" xlink:href="#DejaVuSans-20"/>
     <use x="542.505859" xlink:href="#DejaVuSans-54"/>
     <use x="603.324219" xlink:href="#DejaVuSans-65"/>
     <use x="664.847656" xlink:href="#DejaVuSans-73"/>
     <use x="716.947266" xlink:href="#DejaVuSans-74"/>
     <use x="756.15625" xlink:href="#DejaVuSans-3a"/>
     <use x="789.847656" xlink:href="#DejaVuSans-20"/>
     <use x="821.634766" xlink:href="#DejaVuSans-5b"/>
     <use x="860.648438" xlink:href="#DejaVuSans-31"/>
     <use x="924.271484" xlink:href="#DejaVuSans-2c"/>
     <use x="956.058594" xlink:href="#DejaVuSans-20"/>
     <use x="987.845703" xlink:href="#DejaVuSans-34"/>
     <use x="1051.46875" xlink:href="#DejaVuSans-2c"/>
     <use x="1083.255859" xlink:href="#DejaVuSans-20"/>
     <use x="1115.042969" xlink:href="#DejaVuSans-38"/>
     <use x="1178.666016" xlink:href="#DejaVuSans-2c"/>
     <use x="1210.453125" xlink:href="#DejaVuSans-20"/>
     <use x="1242.240234" xlink:href="#DejaVuSans-31"/>
     <use x="1305.863281" xlink:href="#DejaVuSans-32"/>
     <use x="1369.486328" xlink:href="#DejaVuSans-2c"/>
     <use x="1401.273438" xlink:href="#DejaVuSans-20"/>
     <use x="1433.060547" xlink:href="#DejaVuSans-31"/>
     <use x="1496.683594" xlink:href="#DejaVuSans-36"/>
     <use x="1560.306641" xlink:href="#DejaVuSans-2c"/>
     <use x="1592.09375" xlink:href="#DejaVuSans-20"/>
     <use x="1623.880859" xlink:href="#DejaVuSans-32"/>
     <use x="1687.503906" xlink:href="#DejaVuSans-30"/>
     <use x="1751.126953" xlink:href="#DejaVuSans-2c"/>
     <use x="1782.914062" xlink:href="#DejaVuSans-20"/>
     <use x="1814.701172" xlink:href="#DejaVuSans-32"/>
     <use x="1878.324219" xlink:href="#DejaVuSans-34"/>
     <use x="1941.947266" xlink:href="#DejaVuSans-5d"/>
    </g>
   </g>
   <g id="legend_1">
    <g id="patch_7">
     <path d="M 217.087188 296.8675 
L 393.90125 296.8675 
Q 395.90125 296.8675 395.90125 294.8675 
L 395.90125 251.833125 
Q 395.90125 249.833125 393.90125 249.833125 
L 217.087188 249.833125 
Q 215.087188 249.833125 215.087188 251.833125 
L 215.087188 294.8675 
Q 215.087188 296.8675 217.087188 296.8675 
z
" style="fill:#ffffff;opacity:0.8;stroke:#cccccc;stroke-linejoin:miter;"/>
    </g>
    <g id="line2d_17">
     <path d="M 219.087188 257.931562 
L 239.087188 257.931562 
" style="fill:none;stroke:#1f77b4;stroke-linecap:square;stroke-width:1.5;"/>
    </g>
    <g id="line2d_18"/>
    <g id="text_16">
     <!-- ROC curve - 0 (AUC = 0.861) -->
     <defs>
      <path d="M 48.78125 52.59375 
L 48.78125 44.1875 
Q 44.96875 46.296875 41.140625 47.34375 
Q 37.3125 48.390625 33.40625 48.390625 
Q 24.65625 48.390625 19.8125 42.84375 
Q 14.984375 37.3125 14.984375 27.296875 
Q 14.984375 17.28125 19.8125 11.734375 
Q 24.65625 6.203125 33.40625 6.203125 
Q 37.3125 6.203125 41.140625 7.25 
Q 44.96875 8.296875 48.78125 10.40625 
L 48.78125 2.09375 
Q 45.015625 0.34375 40.984375 -0.53125 
Q 36.96875 -1.421875 32.421875 -1.421875 
Q 20.0625 -1.421875 12.78125 6.34375 
Q 5.515625 14.109375 5.515625 27.296875 
Q 5.515625 40.671875 12.859375 48.328125 
Q 20.21875 56 33.015625 56 
Q 37.15625 56 41.109375 55.140625 
Q 45.0625 54.296875 48.78125 52.59375 
" id="DejaVuSans-63"/>
      <path d="M 4.890625 31.390625 
L 31.203125 31.390625 
L 31.203125 23.390625 
L 4.890625 23.390625 
z
" id="DejaVuSans-2d"/>
      <path d="M 31 75.875 
Q 24.46875 64.65625 21.28125 53.65625 
Q 18.109375 42.671875 18.109375 31.390625 
Q 18.109375 20.125 21.3125 9.0625 
Q 24.515625 -2 31 -13.1875 
L 23.1875 -13.1875 
Q 15.875 -1.703125 12.234375 9.375 
Q 8.59375 20.453125 8.59375 31.390625 
Q 8.59375 42.28125 12.203125 53.3125 
Q 15.828125 64.359375 23.1875 75.875 
z
" id="DejaVuSans-28"/>
      <path d="M 34.1875 63.1875 
L 20.796875 26.90625 
L 47.609375 26.90625 
z
M 28.609375 72.90625 
L 39.796875 72.90625 
L 67.578125 0 
L 57.328125 0 
L 50.6875 18.703125 
L 17.828125 18.703125 
L 11.1875 0 
L 0.78125 0 
z
" id="DejaVuSans-41"/>
      <path d="M 8.6875 72.90625 
L 18.609375 72.90625 
L 18.609375 28.609375 
Q 18.609375 16.890625 22.84375 11.734375 
Q 27.09375 6.59375 36.625 6.59375 
Q 46.09375 6.59375 50.34375 11.734375 
Q 54.59375 16.890625 54.59375 28.609375 
L 54.59375 72.90625 
L 64.5 72.90625 
L 64.5 27.390625 
Q 64.5 13.140625 57.4375 5.859375 
Q 50.390625 -1.421875 36.625 -1.421875 
Q 22.796875 -1.421875 15.734375 5.859375 
Q 8.6875 13.140625 8.6875 27.390625 
z
" id="DejaVuSans-55"/>
      <path d="M 10.59375 45.40625 
L 73.1875 45.40625 
L 73.1875 37.203125 
L 10.59375 37.203125 
z
M 10.59375 25.484375 
L 73.1875 25.484375 
L 73.1875 17.1875 
L 10.59375 17.1875 
z
" id="DejaVuSans-3d"/>
      <path d="M 8.015625 75.875 
L 15.828125 75.875 
Q 23.140625 64.359375 26.78125 53.3125 
Q 30.421875 42.28125 30.421875 31.390625 
Q 30.421875 20.453125 26.78125 9.375 
Q 23.140625 -1.703125 15.828125 -13.1875 
L 8.015625 -13.1875 
Q 14.5 -2 17.703125 9.0625 
Q 20.90625 20.125 20.90625 31.390625 
Q 20.90625 42.671875 17.703125 53.65625 
Q 14.5 64.65625 8.015625 75.875 
" id="DejaVuSans-29"/>
     </defs>
     <g transform="translate(247.087188 261.431562)scale(0.1 -0.1)">
      <use xlink:href="#DejaVuSans-52"/>
      <use x="69.482422" xlink:href="#DejaVuSans-4f"/>
      <use x="148.193359" xlink:href="#DejaVuSans-43"/>
      <use x="218.017578" xlink:href="#DejaVuSans-20"/>
      <use x="249.804688" xlink:href="#DejaVuSans-63"/>
      <use x="304.785156" xlink:href="#DejaVuSans-75"/>
      <use x="368.164062" xlink:href="#DejaVuSans-72"/>
      <use x="409.277344" xlink:href="#DejaVuSans-76"/>
      <use x="468.457031" xlink:href="#DejaVuSans-65"/>
      <use x="529.980469" xlink:href="#DejaVuSans-20"/>
      <use x="561.767578" xlink:href="#DejaVuSans-2d"/>
      <use x="597.851562" xlink:href="#DejaVuSans-20"/>
      <use x="629.638672" xlink:href="#DejaVuSans-30"/>
      <use x="693.261719" xlink:href="#DejaVuSans-20"/>
      <use x="725.048828" xlink:href="#DejaVuSans-28"/>
      <use x="764.0625" xlink:href="#DejaVuSans-41"/>
      <use x="832.470703" xlink:href="#DejaVuSans-55"/>
      <use x="905.664062" xlink:href="#DejaVuSans-43"/>
      <use x="975.488281" xlink:href="#DejaVuSans-20"/>
      <use x="1007.275391" xlink:href="#DejaVuSans-3d"/>
      <use x="1091.064453" xlink:href="#DejaVuSans-20"/>
      <use x="1122.851562" xlink:href="#DejaVuSans-30"/>
      <use x="1186.474609" xlink:href="#DejaVuSans-2e"/>
      <use x="1218.261719" xlink:href="#DejaVuSans-38"/>
      <use x="1281.884766" xlink:href="#DejaVuSans-36"/>
      <use x="1345.507812" xlink:href="#DejaVuSans-31"/>
      <use x="1409.130859" xlink:href="#DejaVuSans-29"/>
     </g>
    </g>
    <g id="line2d_19">
     <path d="M 219.087188 272.609687 
L 239.087188 272.609687 
" style="fill:none;stroke:#ff7f0e;stroke-linecap:square;stroke-width:1.5;"/>
    </g>
    <g id="line2d_20"/>
    <g id="text_17">
     <!-- ROC curve - 1 (AUC = 0.887) -->
     <defs>
      <path d="M 8.203125 72.90625 
L 55.078125 72.90625 
L 55.078125 68.703125 
L 28.609375 0 
L 18.3125 0 
L 43.21875 64.59375 
L 8.203125 64.59375 
z
" id="DejaVuSans-37"/>
     </defs>
     <g transform="translate(247.087188 276.109687)scale(0.1 -0.1)">
      <use xlink:href="#DejaVuSans-52"/>
      <use x="69.482422" xlink:href="#DejaVuSans-4f"/>
      <use x="148.193359" xlink:href="#DejaVuSans-43"/>
      <use x="218.017578" xlink:href="#DejaVuSans-20"/>
      <use x="249.804688" xlink:href="#DejaVuSans-63"/>
      <use x="304.785156" xlink:href="#DejaVuSans-75"/>
      <use x="368.164062" xlink:href="#DejaVuSans-72"/>
      <use x="409.277344" xlink:href="#DejaVuSans-76"/>
      <use x="468.457031" xlink:href="#DejaVuSans-65"/>
      <use x="529.980469" xlink:href="#DejaVuSans-20"/>
      <use x="561.767578" xlink:href="#DejaVuSans-2d"/>
      <use x="597.851562" xlink:href="#DejaVuSans-20"/>
      <use x="629.638672" xlink:href="#DejaVuSans-31"/>
      <use x="693.261719" xlink:href="#DejaVuSans-20"/>
      <use x="725.048828" xlink:href="#DejaVuSans-28"/>
      <use x="764.0625" xlink:href="#DejaVuSans-41"/>
      <use x="832.470703" xlink:href="#DejaVuSans-55"/>
      <use x="905.664062" xlink:href="#DejaVuSans-43"/>
      <use x="975.488281" xlink:href="#DejaVuSans-20"/>
      <use x="1007.275391" xlink:href="#DejaVuSans-3d"/>
      <use x="1091.064453" xlink:href="#DejaVuSans-20"/>
      <use x="1122.851562" xlink:href="#DejaVuSans-30"/>
      <use x="1186.474609" xlink:href="#DejaVuSans-2e"/>
      <use x="1218.261719" xlink:href="#DejaVuSans-38"/>
      <use x="1281.884766" xlink:href="#DejaVuSans-38"/>
      <use x="1345.507812" xlink:href="#DejaVuSans-37"/>
      <use x="1409.130859" xlink:href="#DejaVuSans-29"/>
     </g>
    </g>
    <g id="line2d_21">
     <path d="M 219.087188 287.287812 
L 239.087188 287.287812 
" style="fill:none;stroke:#2ca02c;stroke-linecap:square;stroke-width:1.5;"/>
    </g>
    <g id="line2d_22"/>
    <g id="text_18">
     <!-- ROC curve - 2 (AUC = 0.888) -->
     <g transform="translate(247.087188 290.787812)scale(0.1 -0.1)">
      <use xlink:href="#DejaVuSans-52"/>
      <use x="69.482422" xlink:href="#DejaVuSans-4f"/>
      <use x="148.193359" xlink:href="#DejaVuSans-43"/>
      <use x="218.017578" xlink:href="#DejaVuSans-20"/>
      <use x="249.804688" xlink:href="#DejaVuSans-63"/>
      <use x="304.785156" xlink:href="#DejaVuSans-75"/>
      <use x="368.164062" xlink:href="#DejaVuSans-72"/>
      <use x="409.277344" xlink:href="#DejaVuSans-76"/>
      <use x="468.457031" xlink:href="#DejaVuSans-65"/>
      <use x="529.980469" xlink:href="#DejaVuSans-20"/>
      <use x="561.767578" xlink:href="#DejaVuSans-2d"/>
      <use x="597.851562" xlink:href="#DejaVuSans-20"/>
      <use x="629.638672" xlink:href="#DejaVuSans-32"/>
      <use x="693.261719" xlink:href="#DejaVuSans-20"/>
      <use x="725.048828" xlink:href="#DejaVuSans-28"/>
      <use x="764.0625" xlink:href="#DejaVuSans-41"/>
      <use x="832.470703" xlink:href="#DejaVuSans-55"/>
      <use x="905.664062" xlink:href="#DejaVuSans-43"/>
      <use x="975.488281" xlink:href="#DejaVuSans-20"/>
      <use x="1007.275391" xlink:href="#DejaVuSans-3d"/>
      <use x="1091.064453" xlink:href="#DejaVuSans-20"/>
      <use x="1122.851562" xlink:href="#DejaVuSans-30"/>
      <use x="1186.474609" xlink:href="#DejaVuSans-2e"/>
      <use x="1218.261719" xlink:href="#DejaVuSans-38"/>
      <use x="1281.884766" xlink:href="#DejaVuSans-38"/>
      <use x="1345.507812" xlink:href="#DejaVuSans-38"/>
      <use x="1409.130859" xlink:href="#DejaVuSans-29"/>
     </g>
    </g>
   </g>
  </g>
 </g>
 <defs>
  <clipPath id="pfaef9725d2">
   <rect height="266.112" width="357.12" x="43.78125" y="35.7555"/>
  </clipPath>
 </defs>
</svg>
