<?xml version="1.0" encoding="utf-8" standalone="no"?>
<!DOCTYPE svg PUBLIC "-//W3C//DTD SVG 1.1//EN"
  "http://www.w3.org/Graphics/SVG/1.1/DTD/svg11.dtd">
<!-- Created with matplotlib (http://matplotlib.org/) -->
<svg height="424pt" version="1.1" viewBox="0 0 510 424" width="510pt" xmlns="http://www.w3.org/2000/svg" xmlns:xlink="http://www.w3.org/1999/xlink">
 <defs>
  <style type="text/css">
*{stroke-linecap:butt;stroke-linejoin:round;stroke-miterlimit:100000;}
  </style>
 </defs>
 <g id="figure_1">
  <g id="patch_1">
   <path d="M 0 424.2941 
L 510.039375 424.2941 
L 510.039375 0 
L 0 0 
z
" style="fill:#ffffff;"/>
  </g>
  <g id="axes_1">
   <g id="patch_2">
    <path d="M 46.8975 384.8666 
L 493.2975 384.8666 
L 493.2975 39.2666 
L 46.8975 39.2666 
z
" style="fill:#ffffff;"/>
   </g>
   <g id="line2d_1">
    <path clip-path="url(#p89cb2563ff)" d="M 46.8975 384.8666 
L 48.544896 333.392717 
L 48.640933 332.667733 
L 48.914267 325.41789 
L 52.245997 283.368803 
L 52.60798 278.293913 
L 53.021676 272.856531 
L 53.708707 263.069243 
L 55.19358 245.307129 
L 55.902772 235.157349 
L 56.272144 230.444951 
L 56.604578 226.82003 
L 57.121698 221.020156 
L 57.550169 215.582774 
L 59.012879 198.545643 
L 59.271439 194.195738 
L 59.478287 193.108261 
L 59.69991 193.108261 
L 59.89937 190.933309 
L 60.076668 189.845832 
L 60.298291 189.845832 
L 60.512526 188.758356 
L 61.842263 188.758356 
L 61.953074 188.395864 
L 62.174697 188.395864 
L 62.381545 186.220911 
L 62.603168 186.220911 
L 62.706592 185.133434 
L 63.703894 185.133434 
L 63.992004 181.871005 
L 65.654175 181.871005 
L 65.757599 180.783529 
L 67.382833 180.783529 
L 67.493644 180.421037 
L 68.380135 180.421037 
L 68.483559 179.33356 
L 70.588976 179.33356 
L 70.677625 178.246084 
L 70.899248 178.246084 
L 71.002672 177.158608 
L 71.556728 177.158608 
L 71.645378 176.071131 
L 74.65206 176.071131 
L 74.873683 175.708639 
L 75.760174 175.708639 
L 75.893148 174.621163 
L 76.003959 174.621163 
L 76.070446 172.44621 
L 76.513691 172.44621 
L 76.713152 171.358733 
L 77.156398 171.358733 
L 77.703067 170.271257 
L 77.791716 169.183781 
L 78.345773 169.183781 
L 78.523071 166.283844 
L 81.182545 166.283844 
L 81.285969 165.196367 
L 87.68348 165.196367 
L 88.001139 163.021414 
L 91.620978 163.021414 
L 91.820438 161.933938 
L 92.374495 161.933938 
L 106.779976 156.859048 
L 493.2975 55.723743 
L 493.2975 55.723743 
" style="fill:none;stroke:#0000ff;stroke-linecap:square;"/>
   </g>
   <g id="line2d_2">
    <path clip-path="url(#p89cb2563ff)" d="M 46.8975 384.8666 
L 50.783286 333.755209 
L 51.004909 333.755209 
L 51.152657 331.580256 
L 51.196982 328.317827 
L 51.63284 320.343 
L 52.305096 307.655776 
L 52.415907 307.655776 
L 52.718792 301.493409 
L 53.162037 294.243567 
L 53.368885 288.806185 
L 54.218439 273.581515 
L 54.432675 271.769054 
L 54.61736 270.681578 
L 55.112318 267.419149 
L 55.740249 260.89429 
L 55.998809 260.169306 
L 56.213044 258.356845 
L 56.929625 251.831987 
L 57.461519 247.844574 
L 57.66098 246.757097 
L 57.91954 246.032113 
L 58.673057 237.694794 
L 58.89468 235.882333 
L 59.773784 227.182522 
L 60.15793 224.282585 
L 60.93361 217.757726 
L 61.19217 215.945266 
L 61.635415 212.682837 
L 62.13776 208.695423 
L 62.337221 206.882962 
L 63.504434 199.270628 
L 64.243177 198.545643 
L 64.464799 198.545643 
L 64.686422 196.733183 
L 65.543364 192.383277 
L 65.764986 192.383277 
L 66.282106 186.220911 
L 66.799226 185.495927 
L 67.316346 185.495927 
L 69.310951 184.770942 
L 70.788436 184.770942 
L 70.86231 183.683466 
L 71.010059 183.683466 
L 71.083933 183.320974 
L 71.453305 183.320974 
L 71.527179 182.233497 
L 72.856915 182.233497 
L 72.93079 181.871005 
L 73.300161 181.871005 
L 73.44791 178.608576 
L 73.595658 178.608576 
L 80.39209 173.896178 
L 81.056959 173.896178 
L 81.204707 172.808702 
L 81.574078 172.808702 
L 81.647953 172.083718 
L 82.238947 172.083718 
L 82.423632 170.633749 
L 82.645255 170.633749 
L 88.038076 168.096304 
L 88.185825 167.37132 
L 88.333573 166.646336 
L 88.702945 166.646336 
L 88.776819 165.196367 
L 89.072316 165.196367 
L 89.40475 163.021414 
L 89.92187 163.021414 
L 89.980969 162.29643 
L 90.498089 162.29643 
L 90.571963 161.208954 
L 106.595291 137.284473 
L 109.365576 137.284473 
L 109.498549 135.834504 
L 111.596578 135.834504 
L 111.744327 134.022044 
L 112.002887 134.022044 
L 493.2975 55.723743 
L 493.2975 55.723743 
" style="fill:none;stroke:#008000;stroke-linecap:square;"/>
   </g>
   <g id="line2d_3">
    <path clip-path="url(#p89cb2563ff)" d="M 46.8975 384.8666 
L 48.094283 370.350928 
L 48.426723 366.359119 
L 48.567086 363.093092 
L 49.231965 353.295014 
L 49.630893 344.585611 
L 49.852519 344.585611 
L 50.650375 327.166805 
L 51.403905 321.723428 
L 52.822314 308.659323 
L 52.933127 308.659323 
L 53.117816 307.207756 
L 53.450255 304.304622 
L 53.671882 303.578838 
L 54.063422 299.587028 
L 54.373699 297.046786 
L 54.617488 295.232327 
L 55.718233 286.885816 
L 56.213199 283.256898 
L 56.589964 279.990872 
L 56.700777 279.990872 
L 57.210518 274.910386 
L 57.616833 271.64436 
L 57.727646 271.64436 
L 58.3482 267.289659 
L 58.665865 264.386524 
L 58.998304 262.572065 
L 59.803547 256.765797 
L 60.704828 248.419285 
L 61.480521 242.613017 
L 62.344864 236.080964 
L 63.785436 236.080964 
L 64.428152 231.726263 
L 64.649779 231.726263 
L 64.760592 229.548912 
L 65.093032 229.548912 
L 65.292496 228.460237 
L 65.514122 226.282886 
L 65.846562 226.282886 
L 65.957375 224.105535 
L 66.843881 224.105535 
L 67.17632 223.01686 
L 67.952013 223.01686 
L 68.062826 220.839509 
L 68.727706 220.839509 
L 68.838519 219.750834 
L 69.060145 219.750834 
L 69.170958 218.662158 
L 69.946651 218.662158 
L 70.168277 215.396132 
L 70.61153 215.396132 
L 70.722344 214.307457 
L 71.27641 214.307457 
L 71.6975 208.86408 
L 72.473193 208.86408 
L 72.894283 204.509378 
L 73.005096 203.420703 
L 73.337536 203.420703 
L 73.669975 201.243352 
L 74.445668 201.243352 
L 74.556481 200.154677 
L 74.888921 200.154677 
L 74.999734 199.066001 
L 75.332174 199.066001 
L 75.531638 196.888651 
L 75.753264 196.888651 
L 75.864077 194.7113 
L 77.637089 194.7113 
L 77.747902 192.533949 
L 78.412782 192.533949 
L 78.745221 189.267923 
L 81.183112 189.267923 
L 81.404739 188.179248 
L 83.17775 188.179248 
L 83.266401 187.090572 
L 83.59884 187.090572 
L 83.820467 186.001897 
L 86.19187 186.001897 
L 86.52431 183.824546 
L 86.745936 182.735871 
L 86.967563 182.735871 
L 87.078376 181.647195 
L 87.964882 181.647195 
L 88.053532 180.55852 
L 89.161664 180.55852 
L 89.272478 179.469845 
L 90.04817 179.469845 
L 102.902504 172.937792 
L 106.005275 172.937792 
L 107.113407 168.583091 
L 107.445847 166.40574 
L 109.440485 166.40574 
L 109.772924 162.051038 
L 110.290053 162.051038 
L 110.511679 160.962363 
L 110.844119 160.962363 
L 111.154396 159.873688 
L 113.333723 159.873688 
L 113.666162 157.696337 
L 113.887789 157.696337 
L 114.109415 155.518986 
L 115.808552 155.518986 
L 115.919365 154.430311 
L 116.473431 154.430311 
L 116.672895 153.341635 
L 116.894521 151.164285 
L 117.226961 151.164285 
L 117.559401 150.075609 
L 118.999972 150.075609 
L 119.332412 147.898259 
L 119.554039 147.898259 
L 120.196755 145.720908 
L 120.972448 145.720908 
L 121.526514 144.632232 
L 123.299526 144.632232 
L 123.521152 143.543557 
L 125.626603 143.543557 
L 493.2975 55.723743 
L 493.2975 55.723743 
" style="fill:none;stroke:#ff0000;stroke-linecap:square;"/>
   </g>
   <g id="line2d_4">
    <path clip-path="url(#p89cb2563ff)" d="M 46.8975 384.8666 
L 493.2975 55.723743 
" style="fill:none;stroke:#000000;stroke-dasharray:6.000000,6.000000;stroke-dashoffset:0.0;"/>
   </g>
   <g id="patch_3">
    <path d="M 46.8975 384.8666 
L 46.8975 39.2666 
" style="fill:none;stroke:#000000;stroke-linecap:square;stroke-linejoin:miter;"/>
   </g>
   <g id="patch_4">
    <path d="M 493.2975 384.8666 
L 493.2975 39.2666 
" style="fill:none;stroke:#000000;stroke-linecap:square;stroke-linejoin:miter;"/>
   </g>
   <g id="patch_5">
    <path d="M 46.8975 39.2666 
L 493.2975 39.2666 
" style="fill:none;stroke:#000000;stroke-linecap:square;stroke-linejoin:miter;"/>
   </g>
   <g id="patch_6">
    <path d="M 46.8975 384.8666 
L 493.2975 384.8666 
" style="fill:none;stroke:#000000;stroke-linecap:square;stroke-linejoin:miter;"/>
   </g>
   <g id="matplotlib.axis_1">
    <g id="xtick_1">
     <g id="line2d_5">
      <defs>
       <path d="M 0 0 
L 0 -4 
" id="mc54081c7ed" style="stroke:#000000;stroke-width:0.5;"/>
      </defs>
      <g>
       <use style="stroke:#000000;stroke-width:0.5;" x="46.8975" xlink:href="#mc54081c7ed" y="384.8666"/>
      </g>
     </g>
     <g id="line2d_6">
      <defs>
       <path d="M 0 0 
L 0 4 
" id="mecf0bfe8c7" style="stroke:#000000;stroke-width:0.5;"/>
      </defs>
      <g>
       <use style="stroke:#000000;stroke-width:0.5;" x="46.8975" xlink:href="#mecf0bfe8c7" y="39.2666"/>
      </g>
     </g>
     <g id="text_1">
      <!-- 0.0 -->
      <defs>
       <path d="M 31.78125 66.40625 
Q 24.171875 66.40625 20.328125 58.90625 
Q 16.5 51.421875 16.5 36.375 
Q 16.5 21.390625 20.328125 13.890625 
Q 24.171875 6.390625 31.78125 6.390625 
Q 39.453125 6.390625 43.28125 13.890625 
Q 47.125 21.390625 47.125 36.375 
Q 47.125 51.421875 43.28125 58.90625 
Q 39.453125 66.40625 31.78125 66.40625 
M 31.78125 74.21875 
Q 44.046875 74.21875 50.515625 64.515625 
Q 56.984375 54.828125 56.984375 36.375 
Q 56.984375 17.96875 50.515625 8.265625 
Q 44.046875 -1.421875 31.78125 -1.421875 
Q 19.53125 -1.421875 13.0625 8.265625 
Q 6.59375 17.96875 6.59375 36.375 
Q 6.59375 54.828125 13.0625 64.515625 
Q 19.53125 74.21875 31.78125 74.21875 
" id="BitstreamVeraSans-Roman-30"/>
       <path d="M 10.6875 12.40625 
L 21 12.40625 
L 21 0 
L 10.6875 0 
z
" id="BitstreamVeraSans-Roman-2e"/>
      </defs>
      <g transform="translate(37.355625 397.984725)scale(0.12 -0.12)">
       <use xlink:href="#BitstreamVeraSans-Roman-30"/>
       <use x="63.623046875" xlink:href="#BitstreamVeraSans-Roman-2e"/>
       <use x="95.41015625" xlink:href="#BitstreamVeraSans-Roman-30"/>
      </g>
     </g>
    </g>
    <g id="xtick_2">
     <g id="line2d_7">
      <g>
       <use style="stroke:#000000;stroke-width:0.5;" x="136.1775" xlink:href="#mc54081c7ed" y="384.8666"/>
      </g>
     </g>
     <g id="line2d_8">
      <g>
       <use style="stroke:#000000;stroke-width:0.5;" x="136.1775" xlink:href="#mecf0bfe8c7" y="39.2666"/>
      </g>
     </g>
     <g id="text_2">
      <!-- 0.2 -->
      <defs>
       <path d="M 19.1875 8.296875 
L 53.609375 8.296875 
L 53.609375 0 
L 7.328125 0 
L 7.328125 8.296875 
Q 12.9375 14.109375 22.625 23.890625 
Q 32.328125 33.6875 34.8125 36.53125 
Q 39.546875 41.84375 41.421875 45.53125 
Q 43.3125 49.21875 43.3125 52.78125 
Q 43.3125 58.59375 39.234375 62.25 
Q 35.15625 65.921875 28.609375 65.921875 
Q 23.96875 65.921875 18.8125 64.3125 
Q 13.671875 62.703125 7.8125 59.421875 
L 7.8125 69.390625 
Q 13.765625 71.78125 18.9375 73 
Q 24.125 74.21875 28.421875 74.21875 
Q 39.75 74.21875 46.484375 68.546875 
Q 53.21875 62.890625 53.21875 53.421875 
Q 53.21875 48.921875 51.53125 44.890625 
Q 49.859375 40.875 45.40625 35.40625 
Q 44.1875 33.984375 37.640625 27.21875 
Q 31.109375 20.453125 19.1875 8.296875 
" id="BitstreamVeraSans-Roman-32"/>
      </defs>
      <g transform="translate(126.635625 397.984725)scale(0.12 -0.12)">
       <use xlink:href="#BitstreamVeraSans-Roman-30"/>
       <use x="63.623046875" xlink:href="#BitstreamVeraSans-Roman-2e"/>
       <use x="95.41015625" xlink:href="#BitstreamVeraSans-Roman-32"/>
      </g>
     </g>
    </g>
    <g id="xtick_3">
     <g id="line2d_9">
      <g>
       <use style="stroke:#000000;stroke-width:0.5;" x="225.4575" xlink:href="#mc54081c7ed" y="384.8666"/>
      </g>
     </g>
     <g id="line2d_10">
      <g>
       <use style="stroke:#000000;stroke-width:0.5;" x="225.4575" xlink:href="#mecf0bfe8c7" y="39.2666"/>
      </g>
     </g>
     <g id="text_3">
      <!-- 0.4 -->
      <defs>
       <path d="M 37.796875 64.3125 
L 12.890625 25.390625 
L 37.796875 25.390625 
z
M 35.203125 72.90625 
L 47.609375 72.90625 
L 47.609375 25.390625 
L 58.015625 25.390625 
L 58.015625 17.1875 
L 47.609375 17.1875 
L 47.609375 0 
L 37.796875 0 
L 37.796875 17.1875 
L 4.890625 17.1875 
L 4.890625 26.703125 
z
" id="BitstreamVeraSans-Roman-34"/>
      </defs>
      <g transform="translate(215.915625 397.984725)scale(0.12 -0.12)">
       <use xlink:href="#BitstreamVeraSans-Roman-30"/>
       <use x="63.623046875" xlink:href="#BitstreamVeraSans-Roman-2e"/>
       <use x="95.41015625" xlink:href="#BitstreamVeraSans-Roman-34"/>
      </g>
     </g>
    </g>
    <g id="xtick_4">
     <g id="line2d_11">
      <g>
       <use style="stroke:#000000;stroke-width:0.5;" x="314.7375" xlink:href="#mc54081c7ed" y="384.8666"/>
      </g>
     </g>
     <g id="line2d_12">
      <g>
       <use style="stroke:#000000;stroke-width:0.5;" x="314.7375" xlink:href="#mecf0bfe8c7" y="39.2666"/>
      </g>
     </g>
     <g id="text_4">
      <!-- 0.6 -->
      <defs>
       <path d="M 33.015625 40.375 
Q 26.375 40.375 22.484375 35.828125 
Q 18.609375 31.296875 18.609375 23.390625 
Q 18.609375 15.53125 22.484375 10.953125 
Q 26.375 6.390625 33.015625 6.390625 
Q 39.65625 6.390625 43.53125 10.953125 
Q 47.40625 15.53125 47.40625 23.390625 
Q 47.40625 31.296875 43.53125 35.828125 
Q 39.65625 40.375 33.015625 40.375 
M 52.59375 71.296875 
L 52.59375 62.3125 
Q 48.875 64.0625 45.09375 64.984375 
Q 41.3125 65.921875 37.59375 65.921875 
Q 27.828125 65.921875 22.671875 59.328125 
Q 17.53125 52.734375 16.796875 39.40625 
Q 19.671875 43.65625 24.015625 45.921875 
Q 28.375 48.1875 33.59375 48.1875 
Q 44.578125 48.1875 50.953125 41.515625 
Q 57.328125 34.859375 57.328125 23.390625 
Q 57.328125 12.15625 50.6875 5.359375 
Q 44.046875 -1.421875 33.015625 -1.421875 
Q 20.359375 -1.421875 13.671875 8.265625 
Q 6.984375 17.96875 6.984375 36.375 
Q 6.984375 53.65625 15.1875 63.9375 
Q 23.390625 74.21875 37.203125 74.21875 
Q 40.921875 74.21875 44.703125 73.484375 
Q 48.484375 72.75 52.59375 71.296875 
" id="BitstreamVeraSans-Roman-36"/>
      </defs>
      <g transform="translate(305.195625 397.984725)scale(0.12 -0.12)">
       <use xlink:href="#BitstreamVeraSans-Roman-30"/>
       <use x="63.623046875" xlink:href="#BitstreamVeraSans-Roman-2e"/>
       <use x="95.41015625" xlink:href="#BitstreamVeraSans-Roman-36"/>
      </g>
     </g>
    </g>
    <g id="xtick_5">
     <g id="line2d_13">
      <g>
       <use style="stroke:#000000;stroke-width:0.5;" x="404.0175" xlink:href="#mc54081c7ed" y="384.8666"/>
      </g>
     </g>
     <g id="line2d_14">
      <g>
       <use style="stroke:#000000;stroke-width:0.5;" x="404.0175" xlink:href="#mecf0bfe8c7" y="39.2666"/>
      </g>
     </g>
     <g id="text_5">
      <!-- 0.8 -->
      <defs>
       <path d="M 31.78125 34.625 
Q 24.75 34.625 20.71875 30.859375 
Q 16.703125 27.09375 16.703125 20.515625 
Q 16.703125 13.921875 20.71875 10.15625 
Q 24.75 6.390625 31.78125 6.390625 
Q 38.8125 6.390625 42.859375 10.171875 
Q 46.921875 13.96875 46.921875 20.515625 
Q 46.921875 27.09375 42.890625 30.859375 
Q 38.875 34.625 31.78125 34.625 
M 21.921875 38.8125 
Q 15.578125 40.375 12.03125 44.71875 
Q 8.5 49.078125 8.5 55.328125 
Q 8.5 64.0625 14.71875 69.140625 
Q 20.953125 74.21875 31.78125 74.21875 
Q 42.671875 74.21875 48.875 69.140625 
Q 55.078125 64.0625 55.078125 55.328125 
Q 55.078125 49.078125 51.53125 44.71875 
Q 48 40.375 41.703125 38.8125 
Q 48.828125 37.15625 52.796875 32.3125 
Q 56.78125 27.484375 56.78125 20.515625 
Q 56.78125 9.90625 50.3125 4.234375 
Q 43.84375 -1.421875 31.78125 -1.421875 
Q 19.734375 -1.421875 13.25 4.234375 
Q 6.78125 9.90625 6.78125 20.515625 
Q 6.78125 27.484375 10.78125 32.3125 
Q 14.796875 37.15625 21.921875 38.8125 
M 18.3125 54.390625 
Q 18.3125 48.734375 21.84375 45.5625 
Q 25.390625 42.390625 31.78125 42.390625 
Q 38.140625 42.390625 41.71875 45.5625 
Q 45.3125 48.734375 45.3125 54.390625 
Q 45.3125 60.0625 41.71875 63.234375 
Q 38.140625 66.40625 31.78125 66.40625 
Q 25.390625 66.40625 21.84375 63.234375 
Q 18.3125 60.0625 18.3125 54.390625 
" id="BitstreamVeraSans-Roman-38"/>
      </defs>
      <g transform="translate(394.475625 397.984725)scale(0.12 -0.12)">
       <use xlink:href="#BitstreamVeraSans-Roman-30"/>
       <use x="63.623046875" xlink:href="#BitstreamVeraSans-Roman-2e"/>
       <use x="95.41015625" xlink:href="#BitstreamVeraSans-Roman-38"/>
      </g>
     </g>
    </g>
    <g id="xtick_6">
     <g id="line2d_15">
      <g>
       <use style="stroke:#000000;stroke-width:0.5;" x="493.2975" xlink:href="#mc54081c7ed" y="384.8666"/>
      </g>
     </g>
     <g id="line2d_16">
      <g>
       <use style="stroke:#000000;stroke-width:0.5;" x="493.2975" xlink:href="#mecf0bfe8c7" y="39.2666"/>
      </g>
     </g>
     <g id="text_6">
      <!-- 1.0 -->
      <defs>
       <path d="M 12.40625 8.296875 
L 28.515625 8.296875 
L 28.515625 63.921875 
L 10.984375 60.40625 
L 10.984375 69.390625 
L 28.421875 72.90625 
L 38.28125 72.90625 
L 38.28125 8.296875 
L 54.390625 8.296875 
L 54.390625 0 
L 12.40625 0 
z
" id="BitstreamVeraSans-Roman-31"/>
      </defs>
      <g transform="translate(483.755625 397.984725)scale(0.12 -0.12)">
       <use xlink:href="#BitstreamVeraSans-Roman-31"/>
       <use x="63.623046875" xlink:href="#BitstreamVeraSans-Roman-2e"/>
       <use x="95.41015625" xlink:href="#BitstreamVeraSans-Roman-30"/>
      </g>
     </g>
    </g>
    <g id="text_7">
     <!-- False Positive Rate -->
     <defs>
      <path d="M 9.421875 54.6875 
L 18.40625 54.6875 
L 18.40625 0 
L 9.421875 0 
z
M 9.421875 75.984375 
L 18.40625 75.984375 
L 18.40625 64.59375 
L 9.421875 64.59375 
z
" id="BitstreamVeraSans-Roman-69"/>
      <path d="M 44.28125 53.078125 
L 44.28125 44.578125 
Q 40.484375 46.53125 36.375 47.5 
Q 32.28125 48.484375 27.875 48.484375 
Q 21.1875 48.484375 17.84375 46.4375 
Q 14.5 44.390625 14.5 40.28125 
Q 14.5 37.15625 16.890625 35.375 
Q 19.28125 33.59375 26.515625 31.984375 
L 29.59375 31.296875 
Q 39.15625 29.25 43.1875 25.515625 
Q 47.21875 21.78125 47.21875 15.09375 
Q 47.21875 7.46875 41.1875 3.015625 
Q 35.15625 -1.421875 24.609375 -1.421875 
Q 20.21875 -1.421875 15.453125 -0.5625 
Q 10.6875 0.296875 5.421875 2 
L 5.421875 11.28125 
Q 10.40625 8.6875 15.234375 7.390625 
Q 20.0625 6.109375 24.8125 6.109375 
Q 31.15625 6.109375 34.5625 8.28125 
Q 37.984375 10.453125 37.984375 14.40625 
Q 37.984375 18.0625 35.515625 20.015625 
Q 33.0625 21.96875 24.703125 23.78125 
L 21.578125 24.515625 
Q 13.234375 26.265625 9.515625 29.90625 
Q 5.8125 33.546875 5.8125 39.890625 
Q 5.8125 47.609375 11.28125 51.796875 
Q 16.75 56 26.8125 56 
Q 31.78125 56 36.171875 55.265625 
Q 40.578125 54.546875 44.28125 53.078125 
" id="BitstreamVeraSans-Roman-73"/>
      <path id="BitstreamVeraSans-Roman-20"/>
      <path d="M 19.671875 64.796875 
L 19.671875 37.40625 
L 32.078125 37.40625 
Q 38.96875 37.40625 42.71875 40.96875 
Q 46.484375 44.53125 46.484375 51.125 
Q 46.484375 57.671875 42.71875 61.234375 
Q 38.96875 64.796875 32.078125 64.796875 
z
M 9.8125 72.90625 
L 32.078125 72.90625 
Q 44.34375 72.90625 50.609375 67.359375 
Q 56.890625 61.8125 56.890625 51.125 
Q 56.890625 40.328125 50.609375 34.8125 
Q 44.34375 29.296875 32.078125 29.296875 
L 19.671875 29.296875 
L 19.671875 0 
L 9.8125 0 
z
" id="BitstreamVeraSans-Roman-50"/>
      <path d="M 44.390625 34.1875 
Q 47.5625 33.109375 50.5625 29.59375 
Q 53.5625 26.078125 56.59375 19.921875 
L 66.609375 0 
L 56 0 
L 46.6875 18.703125 
Q 43.0625 26.03125 39.671875 28.421875 
Q 36.28125 30.8125 30.421875 30.8125 
L 19.671875 30.8125 
L 19.671875 0 
L 9.8125 0 
L 9.8125 72.90625 
L 32.078125 72.90625 
Q 44.578125 72.90625 50.734375 67.671875 
Q 56.890625 62.453125 56.890625 51.90625 
Q 56.890625 45.015625 53.6875 40.46875 
Q 50.484375 35.9375 44.390625 34.1875 
M 19.671875 64.796875 
L 19.671875 38.921875 
L 32.078125 38.921875 
Q 39.203125 38.921875 42.84375 42.21875 
Q 46.484375 45.515625 46.484375 51.90625 
Q 46.484375 58.296875 42.84375 61.546875 
Q 39.203125 64.796875 32.078125 64.796875 
z
" id="BitstreamVeraSans-Roman-52"/>
      <path d="M 30.609375 48.390625 
Q 23.390625 48.390625 19.1875 42.75 
Q 14.984375 37.109375 14.984375 27.296875 
Q 14.984375 17.484375 19.15625 11.84375 
Q 23.34375 6.203125 30.609375 6.203125 
Q 37.796875 6.203125 41.984375 11.859375 
Q 46.1875 17.53125 46.1875 27.296875 
Q 46.1875 37.015625 41.984375 42.703125 
Q 37.796875 48.390625 30.609375 48.390625 
M 30.609375 56 
Q 42.328125 56 49.015625 48.375 
Q 55.71875 40.765625 55.71875 27.296875 
Q 55.71875 13.875 49.015625 6.21875 
Q 42.328125 -1.421875 30.609375 -1.421875 
Q 18.84375 -1.421875 12.171875 6.21875 
Q 5.515625 13.875 5.515625 27.296875 
Q 5.515625 40.765625 12.171875 48.375 
Q 18.84375 56 30.609375 56 
" id="BitstreamVeraSans-Roman-6f"/>
      <path d="M 9.8125 72.90625 
L 51.703125 72.90625 
L 51.703125 64.59375 
L 19.671875 64.59375 
L 19.671875 43.109375 
L 48.578125 43.109375 
L 48.578125 34.8125 
L 19.671875 34.8125 
L 19.671875 0 
L 9.8125 0 
z
" id="BitstreamVeraSans-Roman-46"/>
      <path d="M 18.3125 70.21875 
L 18.3125 54.6875 
L 36.8125 54.6875 
L 36.8125 47.703125 
L 18.3125 47.703125 
L 18.3125 18.015625 
Q 18.3125 11.328125 20.140625 9.421875 
Q 21.96875 7.515625 27.59375 7.515625 
L 36.8125 7.515625 
L 36.8125 0 
L 27.59375 0 
Q 17.1875 0 13.234375 3.875 
Q 9.28125 7.765625 9.28125 18.015625 
L 9.28125 47.703125 
L 2.6875 47.703125 
L 2.6875 54.6875 
L 9.28125 54.6875 
L 9.28125 70.21875 
z
" id="BitstreamVeraSans-Roman-74"/>
      <path d="M 9.421875 75.984375 
L 18.40625 75.984375 
L 18.40625 0 
L 9.421875 0 
z
" id="BitstreamVeraSans-Roman-6c"/>
      <path d="M 2.984375 54.6875 
L 12.5 54.6875 
L 29.59375 8.796875 
L 46.6875 54.6875 
L 56.203125 54.6875 
L 35.6875 0 
L 23.484375 0 
z
" id="BitstreamVeraSans-Roman-76"/>
      <path d="M 34.28125 27.484375 
Q 23.390625 27.484375 19.1875 25 
Q 14.984375 22.515625 14.984375 16.5 
Q 14.984375 11.71875 18.140625 8.90625 
Q 21.296875 6.109375 26.703125 6.109375 
Q 34.1875 6.109375 38.703125 11.40625 
Q 43.21875 16.703125 43.21875 25.484375 
L 43.21875 27.484375 
z
M 52.203125 31.203125 
L 52.203125 0 
L 43.21875 0 
L 43.21875 8.296875 
Q 40.140625 3.328125 35.546875 0.953125 
Q 30.953125 -1.421875 24.3125 -1.421875 
Q 15.921875 -1.421875 10.953125 3.296875 
Q 6 8.015625 6 15.921875 
Q 6 25.140625 12.171875 29.828125 
Q 18.359375 34.515625 30.609375 34.515625 
L 43.21875 34.515625 
L 43.21875 35.40625 
Q 43.21875 41.609375 39.140625 45 
Q 35.0625 48.390625 27.6875 48.390625 
Q 23 48.390625 18.546875 47.265625 
Q 14.109375 46.140625 10.015625 43.890625 
L 10.015625 52.203125 
Q 14.9375 54.109375 19.578125 55.046875 
Q 24.21875 56 28.609375 56 
Q 40.484375 56 46.34375 49.84375 
Q 52.203125 43.703125 52.203125 31.203125 
" id="BitstreamVeraSans-Roman-61"/>
      <path d="M 56.203125 29.59375 
L 56.203125 25.203125 
L 14.890625 25.203125 
Q 15.484375 15.921875 20.484375 11.0625 
Q 25.484375 6.203125 34.421875 6.203125 
Q 39.59375 6.203125 44.453125 7.46875 
Q 49.3125 8.734375 54.109375 11.28125 
L 54.109375 2.78125 
Q 49.265625 0.734375 44.1875 -0.34375 
Q 39.109375 -1.421875 33.890625 -1.421875 
Q 20.796875 -1.421875 13.15625 6.1875 
Q 5.515625 13.8125 5.515625 26.8125 
Q 5.515625 40.234375 12.765625 48.109375 
Q 20.015625 56 32.328125 56 
Q 43.359375 56 49.78125 48.890625 
Q 56.203125 41.796875 56.203125 29.59375 
M 47.21875 32.234375 
Q 47.125 39.59375 43.09375 43.984375 
Q 39.0625 48.390625 32.421875 48.390625 
Q 24.90625 48.390625 20.390625 44.140625 
Q 15.875 39.890625 15.1875 32.171875 
z
" id="BitstreamVeraSans-Roman-65"/>
     </defs>
     <g transform="translate(213.4509375 414.598475)scale(0.12 -0.12)">
      <use xlink:href="#BitstreamVeraSans-Roman-46"/>
      <use x="57.37890625" xlink:href="#BitstreamVeraSans-Roman-61"/>
      <use x="118.658203125" xlink:href="#BitstreamVeraSans-Roman-6c"/>
      <use x="146.44140625" xlink:href="#BitstreamVeraSans-Roman-73"/>
      <use x="198.541015625" xlink:href="#BitstreamVeraSans-Roman-65"/>
      <use x="260.064453125" xlink:href="#BitstreamVeraSans-Roman-20"/>
      <use x="291.8515625" xlink:href="#BitstreamVeraSans-Roman-50"/>
      <use x="352.107421875" xlink:href="#BitstreamVeraSans-Roman-6f"/>
      <use x="413.2890625" xlink:href="#BitstreamVeraSans-Roman-73"/>
      <use x="465.388671875" xlink:href="#BitstreamVeraSans-Roman-69"/>
      <use x="493.171875" xlink:href="#BitstreamVeraSans-Roman-74"/>
      <use x="532.380859375" xlink:href="#BitstreamVeraSans-Roman-69"/>
      <use x="560.1640625" xlink:href="#BitstreamVeraSans-Roman-76"/>
      <use x="619.34375" xlink:href="#BitstreamVeraSans-Roman-65"/>
      <use x="680.8671875" xlink:href="#BitstreamVeraSans-Roman-20"/>
      <use x="712.654296875" xlink:href="#BitstreamVeraSans-Roman-52"/>
      <use x="782.10546875" xlink:href="#BitstreamVeraSans-Roman-61"/>
      <use x="843.384765625" xlink:href="#BitstreamVeraSans-Roman-74"/>
      <use x="882.59375" xlink:href="#BitstreamVeraSans-Roman-65"/>
     </g>
    </g>
   </g>
   <g id="matplotlib.axis_2">
    <g id="ytick_1">
     <g id="line2d_17">
      <defs>
       <path d="M 0 0 
L 4 0 
" id="md3d779e169" style="stroke:#000000;stroke-width:0.5;"/>
      </defs>
      <g>
       <use style="stroke:#000000;stroke-width:0.5;" x="46.8975" xlink:href="#md3d779e169" y="384.8666"/>
      </g>
     </g>
     <g id="line2d_18">
      <defs>
       <path d="M 0 0 
L -4 0 
" id="mf734e4dbef" style="stroke:#000000;stroke-width:0.5;"/>
      </defs>
      <g>
       <use style="stroke:#000000;stroke-width:0.5;" x="493.2975" xlink:href="#mf734e4dbef" y="384.8666"/>
      </g>
     </g>
     <g id="text_8">
      <!-- 0.0 -->
      <g transform="translate(23.81375 388.17785)scale(0.12 -0.12)">
       <use xlink:href="#BitstreamVeraSans-Roman-30"/>
       <use x="63.623046875" xlink:href="#BitstreamVeraSans-Roman-2e"/>
       <use x="95.41015625" xlink:href="#BitstreamVeraSans-Roman-30"/>
      </g>
     </g>
    </g>
    <g id="ytick_2">
     <g id="line2d_19">
      <g>
       <use style="stroke:#000000;stroke-width:0.5;" x="46.8975" xlink:href="#md3d779e169" y="319.038028571"/>
      </g>
     </g>
     <g id="line2d_20">
      <g>
       <use style="stroke:#000000;stroke-width:0.5;" x="493.2975" xlink:href="#mf734e4dbef" y="319.038028571"/>
      </g>
     </g>
     <g id="text_9">
      <!-- 0.2 -->
      <g transform="translate(23.81375 322.349278571)scale(0.12 -0.12)">
       <use xlink:href="#BitstreamVeraSans-Roman-30"/>
       <use x="63.623046875" xlink:href="#BitstreamVeraSans-Roman-2e"/>
       <use x="95.41015625" xlink:href="#BitstreamVeraSans-Roman-32"/>
      </g>
     </g>
    </g>
    <g id="ytick_3">
     <g id="line2d_21">
      <g>
       <use style="stroke:#000000;stroke-width:0.5;" x="46.8975" xlink:href="#md3d779e169" y="253.209457143"/>
      </g>
     </g>
     <g id="line2d_22">
      <g>
       <use style="stroke:#000000;stroke-width:0.5;" x="493.2975" xlink:href="#mf734e4dbef" y="253.209457143"/>
      </g>
     </g>
     <g id="text_10">
      <!-- 0.4 -->
      <g transform="translate(23.81375 256.520707143)scale(0.12 -0.12)">
       <use xlink:href="#BitstreamVeraSans-Roman-30"/>
       <use x="63.623046875" xlink:href="#BitstreamVeraSans-Roman-2e"/>
       <use x="95.41015625" xlink:href="#BitstreamVeraSans-Roman-34"/>
      </g>
     </g>
    </g>
    <g id="ytick_4">
     <g id="line2d_23">
      <g>
       <use style="stroke:#000000;stroke-width:0.5;" x="46.8975" xlink:href="#md3d779e169" y="187.380885714"/>
      </g>
     </g>
     <g id="line2d_24">
      <g>
       <use style="stroke:#000000;stroke-width:0.5;" x="493.2975" xlink:href="#mf734e4dbef" y="187.380885714"/>
      </g>
     </g>
     <g id="text_11">
      <!-- 0.6 -->
      <g transform="translate(23.81375 190.692135714)scale(0.12 -0.12)">
       <use xlink:href="#BitstreamVeraSans-Roman-30"/>
       <use x="63.623046875" xlink:href="#BitstreamVeraSans-Roman-2e"/>
       <use x="95.41015625" xlink:href="#BitstreamVeraSans-Roman-36"/>
      </g>
     </g>
    </g>
    <g id="ytick_5">
     <g id="line2d_25">
      <g>
       <use style="stroke:#000000;stroke-width:0.5;" x="46.8975" xlink:href="#md3d779e169" y="121.552314286"/>
      </g>
     </g>
     <g id="line2d_26">
      <g>
       <use style="stroke:#000000;stroke-width:0.5;" x="493.2975" xlink:href="#mf734e4dbef" y="121.552314286"/>
      </g>
     </g>
     <g id="text_12">
      <!-- 0.8 -->
      <g transform="translate(23.81375 124.863564286)scale(0.12 -0.12)">
       <use xlink:href="#BitstreamVeraSans-Roman-30"/>
       <use x="63.623046875" xlink:href="#BitstreamVeraSans-Roman-2e"/>
       <use x="95.41015625" xlink:href="#BitstreamVeraSans-Roman-38"/>
      </g>
     </g>
    </g>
    <g id="ytick_6">
     <g id="line2d_27">
      <g>
       <use style="stroke:#000000;stroke-width:0.5;" x="46.8975" xlink:href="#md3d779e169" y="55.7237428571"/>
      </g>
     </g>
     <g id="line2d_28">
      <g>
       <use style="stroke:#000000;stroke-width:0.5;" x="493.2975" xlink:href="#mf734e4dbef" y="55.7237428571"/>
      </g>
     </g>
     <g id="text_13">
      <!-- 1.0 -->
      <g transform="translate(23.81375 59.0349928571)scale(0.12 -0.12)">
       <use xlink:href="#BitstreamVeraSans-Roman-31"/>
       <use x="63.623046875" xlink:href="#BitstreamVeraSans-Roman-2e"/>
       <use x="95.41015625" xlink:href="#BitstreamVeraSans-Roman-30"/>
      </g>
     </g>
    </g>
    <g id="text_14">
     <!-- True Positive Rate -->
     <defs>
      <path d="M -0.296875 72.90625 
L 61.375 72.90625 
L 61.375 64.59375 
L 35.5 64.59375 
L 35.5 0 
L 25.59375 0 
L 25.59375 64.59375 
L -0.296875 64.59375 
z
" id="BitstreamVeraSans-Roman-54"/>
      <path d="M 41.109375 46.296875 
Q 39.59375 47.171875 37.8125 47.578125 
Q 36.03125 48 33.890625 48 
Q 26.265625 48 22.1875 43.046875 
Q 18.109375 38.09375 18.109375 28.8125 
L 18.109375 0 
L 9.078125 0 
L 9.078125 54.6875 
L 18.109375 54.6875 
L 18.109375 46.1875 
Q 20.953125 51.171875 25.484375 53.578125 
Q 30.03125 56 36.53125 56 
Q 37.453125 56 38.578125 55.875 
Q 39.703125 55.765625 41.0625 55.515625 
z
" id="BitstreamVeraSans-Roman-72"/>
      <path d="M 8.5 21.578125 
L 8.5 54.6875 
L 17.484375 54.6875 
L 17.484375 21.921875 
Q 17.484375 14.15625 20.5 10.265625 
Q 23.53125 6.390625 29.59375 6.390625 
Q 36.859375 6.390625 41.078125 11.03125 
Q 45.3125 15.671875 45.3125 23.6875 
L 45.3125 54.6875 
L 54.296875 54.6875 
L 54.296875 0 
L 45.3125 0 
L 45.3125 8.40625 
Q 42.046875 3.421875 37.71875 1 
Q 33.40625 -1.421875 27.6875 -1.421875 
Q 18.265625 -1.421875 13.375 4.4375 
Q 8.5 10.296875 8.5 21.578125 
" id="BitstreamVeraSans-Roman-75"/>
     </defs>
     <g transform="translate(16.318125 266.7219125)rotate(-90.0)scale(0.12 -0.12)">
      <use xlink:href="#BitstreamVeraSans-Roman-54"/>
      <use x="60.865234375" xlink:href="#BitstreamVeraSans-Roman-72"/>
      <use x="101.978515625" xlink:href="#BitstreamVeraSans-Roman-75"/>
      <use x="165.357421875" xlink:href="#BitstreamVeraSans-Roman-65"/>
      <use x="226.880859375" xlink:href="#BitstreamVeraSans-Roman-20"/>
      <use x="258.66796875" xlink:href="#BitstreamVeraSans-Roman-50"/>
      <use x="318.923828125" xlink:href="#BitstreamVeraSans-Roman-6f"/>
      <use x="380.10546875" xlink:href="#BitstreamVeraSans-Roman-73"/>
      <use x="432.205078125" xlink:href="#BitstreamVeraSans-Roman-69"/>
      <use x="459.98828125" xlink:href="#BitstreamVeraSans-Roman-74"/>
      <use x="499.197265625" xlink:href="#BitstreamVeraSans-Roman-69"/>
      <use x="526.98046875" xlink:href="#BitstreamVeraSans-Roman-76"/>
      <use x="586.16015625" xlink:href="#BitstreamVeraSans-Roman-65"/>
      <use x="647.68359375" xlink:href="#BitstreamVeraSans-Roman-20"/>
      <use x="679.470703125" xlink:href="#BitstreamVeraSans-Roman-52"/>
      <use x="748.921875" xlink:href="#BitstreamVeraSans-Roman-61"/>
      <use x="810.201171875" xlink:href="#BitstreamVeraSans-Roman-74"/>
      <use x="849.41015625" xlink:href="#BitstreamVeraSans-Roman-65"/>
     </g>
    </g>
   </g>
   <g id="text_15">
    <!-- ROC Curve RandomForest + RandomOverSampler -->
    <defs>
     <path d="M 64.40625 67.28125 
L 64.40625 56.890625 
Q 59.421875 61.53125 53.78125 63.8125 
Q 48.140625 66.109375 41.796875 66.109375 
Q 29.296875 66.109375 22.65625 58.46875 
Q 16.015625 50.828125 16.015625 36.375 
Q 16.015625 21.96875 22.65625 14.328125 
Q 29.296875 6.6875 41.796875 6.6875 
Q 48.140625 6.6875 53.78125 8.984375 
Q 59.421875 11.28125 64.40625 15.921875 
L 64.40625 5.609375 
Q 59.234375 2.09375 53.4375 0.328125 
Q 47.65625 -1.421875 41.21875 -1.421875 
Q 24.65625 -1.421875 15.125 8.703125 
Q 5.609375 18.84375 5.609375 36.375 
Q 5.609375 53.953125 15.125 64.078125 
Q 24.65625 74.21875 41.21875 74.21875 
Q 47.75 74.21875 53.53125 72.484375 
Q 59.328125 70.75 64.40625 67.28125 
" id="BitstreamVeraSans-Roman-43"/>
     <path d="M 45.40625 46.390625 
L 45.40625 75.984375 
L 54.390625 75.984375 
L 54.390625 0 
L 45.40625 0 
L 45.40625 8.203125 
Q 42.578125 3.328125 38.25 0.953125 
Q 33.9375 -1.421875 27.875 -1.421875 
Q 17.96875 -1.421875 11.734375 6.484375 
Q 5.515625 14.40625 5.515625 27.296875 
Q 5.515625 40.1875 11.734375 48.09375 
Q 17.96875 56 27.875 56 
Q 33.9375 56 38.25 53.625 
Q 42.578125 51.265625 45.40625 46.390625 
M 14.796875 27.296875 
Q 14.796875 17.390625 18.875 11.75 
Q 22.953125 6.109375 30.078125 6.109375 
Q 37.203125 6.109375 41.296875 11.75 
Q 45.40625 17.390625 45.40625 27.296875 
Q 45.40625 37.203125 41.296875 42.84375 
Q 37.203125 48.484375 30.078125 48.484375 
Q 22.953125 48.484375 18.875 42.84375 
Q 14.796875 37.203125 14.796875 27.296875 
" id="BitstreamVeraSans-Roman-64"/>
     <path d="M 52 44.1875 
Q 55.375 50.25 60.0625 53.125 
Q 64.75 56 71.09375 56 
Q 79.640625 56 84.28125 50.015625 
Q 88.921875 44.046875 88.921875 33.015625 
L 88.921875 0 
L 79.890625 0 
L 79.890625 32.71875 
Q 79.890625 40.578125 77.09375 44.375 
Q 74.3125 48.1875 68.609375 48.1875 
Q 61.625 48.1875 57.5625 43.546875 
Q 53.515625 38.921875 53.515625 30.90625 
L 53.515625 0 
L 44.484375 0 
L 44.484375 32.71875 
Q 44.484375 40.625 41.703125 44.40625 
Q 38.921875 48.1875 33.109375 48.1875 
Q 26.21875 48.1875 22.15625 43.53125 
Q 18.109375 38.875 18.109375 30.90625 
L 18.109375 0 
L 9.078125 0 
L 9.078125 54.6875 
L 18.109375 54.6875 
L 18.109375 46.1875 
Q 21.1875 51.21875 25.484375 53.609375 
Q 29.78125 56 35.6875 56 
Q 41.65625 56 45.828125 52.96875 
Q 50 49.953125 52 44.1875 
" id="BitstreamVeraSans-Roman-6d"/>
     <path d="M 18.109375 8.203125 
L 18.109375 -20.796875 
L 9.078125 -20.796875 
L 9.078125 54.6875 
L 18.109375 54.6875 
L 18.109375 46.390625 
Q 20.953125 51.265625 25.265625 53.625 
Q 29.59375 56 35.59375 56 
Q 45.5625 56 51.78125 48.09375 
Q 58.015625 40.1875 58.015625 27.296875 
Q 58.015625 14.40625 51.78125 6.484375 
Q 45.5625 -1.421875 35.59375 -1.421875 
Q 29.59375 -1.421875 25.265625 0.953125 
Q 20.953125 3.328125 18.109375 8.203125 
M 48.6875 27.296875 
Q 48.6875 37.203125 44.609375 42.84375 
Q 40.53125 48.484375 33.40625 48.484375 
Q 26.265625 48.484375 22.1875 42.84375 
Q 18.109375 37.203125 18.109375 27.296875 
Q 18.109375 17.390625 22.1875 11.75 
Q 26.265625 6.109375 33.40625 6.109375 
Q 40.53125 6.109375 44.609375 11.75 
Q 48.6875 17.390625 48.6875 27.296875 
" id="BitstreamVeraSans-Roman-70"/>
     <path d="M 53.515625 70.515625 
L 53.515625 60.890625 
Q 47.90625 63.578125 42.921875 64.890625 
Q 37.9375 66.21875 33.296875 66.21875 
Q 25.25 66.21875 20.875 63.09375 
Q 16.5 59.96875 16.5 54.203125 
Q 16.5 49.359375 19.40625 46.890625 
Q 22.3125 44.4375 30.421875 42.921875 
L 36.375 41.703125 
Q 47.40625 39.59375 52.65625 34.296875 
Q 57.90625 29 57.90625 20.125 
Q 57.90625 9.515625 50.796875 4.046875 
Q 43.703125 -1.421875 29.984375 -1.421875 
Q 24.8125 -1.421875 18.96875 -0.25 
Q 13.140625 0.921875 6.890625 3.21875 
L 6.890625 13.375 
Q 12.890625 10.015625 18.65625 8.296875 
Q 24.421875 6.59375 29.984375 6.59375 
Q 38.421875 6.59375 43.015625 9.90625 
Q 47.609375 13.234375 47.609375 19.390625 
Q 47.609375 24.75 44.3125 27.78125 
Q 41.015625 30.8125 33.5 32.328125 
L 27.484375 33.5 
Q 16.453125 35.6875 11.515625 40.375 
Q 6.59375 45.0625 6.59375 53.421875 
Q 6.59375 63.09375 13.40625 68.65625 
Q 20.21875 74.21875 32.171875 74.21875 
Q 37.3125 74.21875 42.625 73.28125 
Q 47.953125 72.359375 53.515625 70.515625 
" id="BitstreamVeraSans-Roman-53"/>
     <path d="M 39.40625 66.21875 
Q 28.65625 66.21875 22.328125 58.203125 
Q 16.015625 50.203125 16.015625 36.375 
Q 16.015625 22.609375 22.328125 14.59375 
Q 28.65625 6.59375 39.40625 6.59375 
Q 50.140625 6.59375 56.421875 14.59375 
Q 62.703125 22.609375 62.703125 36.375 
Q 62.703125 50.203125 56.421875 58.203125 
Q 50.140625 66.21875 39.40625 66.21875 
M 39.40625 74.21875 
Q 54.734375 74.21875 63.90625 63.9375 
Q 73.09375 53.65625 73.09375 36.375 
Q 73.09375 19.140625 63.90625 8.859375 
Q 54.734375 -1.421875 39.40625 -1.421875 
Q 24.03125 -1.421875 14.8125 8.828125 
Q 5.609375 19.09375 5.609375 36.375 
Q 5.609375 53.65625 14.8125 63.9375 
Q 24.03125 74.21875 39.40625 74.21875 
" id="BitstreamVeraSans-Roman-4f"/>
     <path d="M 46 62.703125 
L 46 35.5 
L 73.1875 35.5 
L 73.1875 27.203125 
L 46 27.203125 
L 46 0 
L 37.796875 0 
L 37.796875 27.203125 
L 10.59375 27.203125 
L 10.59375 35.5 
L 37.796875 35.5 
L 37.796875 62.703125 
z
" id="BitstreamVeraSans-Roman-2b"/>
     <path d="M 54.890625 33.015625 
L 54.890625 0 
L 45.90625 0 
L 45.90625 32.71875 
Q 45.90625 40.484375 42.875 44.328125 
Q 39.84375 48.1875 33.796875 48.1875 
Q 26.515625 48.1875 22.3125 43.546875 
Q 18.109375 38.921875 18.109375 30.90625 
L 18.109375 0 
L 9.078125 0 
L 9.078125 54.6875 
L 18.109375 54.6875 
L 18.109375 46.1875 
Q 21.34375 51.125 25.703125 53.5625 
Q 30.078125 56 35.796875 56 
Q 45.21875 56 50.046875 50.171875 
Q 54.890625 44.34375 54.890625 33.015625 
" id="BitstreamVeraSans-Roman-6e"/>
    </defs>
    <g transform="translate(88.258125 18.14175)scale(0.144 -0.144)">
     <use xlink:href="#BitstreamVeraSans-Roman-52"/>
     <use x="69.482421875" xlink:href="#BitstreamVeraSans-Roman-4f"/>
     <use x="148.193359375" xlink:href="#BitstreamVeraSans-Roman-43"/>
     <use x="218.017578125" xlink:href="#BitstreamVeraSans-Roman-20"/>
     <use x="249.8046875" xlink:href="#BitstreamVeraSans-Roman-43"/>
     <use x="319.62890625" xlink:href="#BitstreamVeraSans-Roman-75"/>
     <use x="383.0078125" xlink:href="#BitstreamVeraSans-Roman-72"/>
     <use x="424.12109375" xlink:href="#BitstreamVeraSans-Roman-76"/>
     <use x="483.30078125" xlink:href="#BitstreamVeraSans-Roman-65"/>
     <use x="544.82421875" xlink:href="#BitstreamVeraSans-Roman-20"/>
     <use x="576.611328125" xlink:href="#BitstreamVeraSans-Roman-52"/>
     <use x="646.0625" xlink:href="#BitstreamVeraSans-Roman-61"/>
     <use x="707.341796875" xlink:href="#BitstreamVeraSans-Roman-6e"/>
     <use x="770.720703125" xlink:href="#BitstreamVeraSans-Roman-64"/>
     <use x="834.197265625" xlink:href="#BitstreamVeraSans-Roman-6f"/>
     <use x="895.37890625" xlink:href="#BitstreamVeraSans-Roman-6d"/>
     <use x="992.791015625" xlink:href="#BitstreamVeraSans-Roman-46"/>
     <use x="1050.263671875" xlink:href="#BitstreamVeraSans-Roman-6f"/>
     <use x="1111.4453125" xlink:href="#BitstreamVeraSans-Roman-72"/>
     <use x="1152.52734375" xlink:href="#BitstreamVeraSans-Roman-65"/>
     <use x="1214.05078125" xlink:href="#BitstreamVeraSans-Roman-73"/>
     <use x="1266.150390625" xlink:href="#BitstreamVeraSans-Roman-74"/>
     <use x="1305.359375" xlink:href="#BitstreamVeraSans-Roman-20"/>
     <use x="1337.146484375" xlink:href="#BitstreamVeraSans-Roman-2b"/>
     <use x="1420.935546875" xlink:href="#BitstreamVeraSans-Roman-20"/>
     <use x="1452.72265625" xlink:href="#BitstreamVeraSans-Roman-52"/>
     <use x="1522.173828125" xlink:href="#BitstreamVeraSans-Roman-61"/>
     <use x="1583.453125" xlink:href="#BitstreamVeraSans-Roman-6e"/>
     <use x="1646.83203125" xlink:href="#BitstreamVeraSans-Roman-64"/>
     <use x="1710.30859375" xlink:href="#BitstreamVeraSans-Roman-6f"/>
     <use x="1771.490234375" xlink:href="#BitstreamVeraSans-Roman-6d"/>
     <use x="1868.90234375" xlink:href="#BitstreamVeraSans-Roman-4f"/>
     <use x="1947.61328125" xlink:href="#BitstreamVeraSans-Roman-76"/>
     <use x="2006.79296875" xlink:href="#BitstreamVeraSans-Roman-65"/>
     <use x="2068.31640625" xlink:href="#BitstreamVeraSans-Roman-72"/>
     <use x="2109.4296875" xlink:href="#BitstreamVeraSans-Roman-53"/>
     <use x="2172.90625" xlink:href="#BitstreamVeraSans-Roman-61"/>
     <use x="2234.185546875" xlink:href="#BitstreamVeraSans-Roman-6d"/>
     <use x="2331.59765625" xlink:href="#BitstreamVeraSans-Roman-70"/>
     <use x="2395.07421875" xlink:href="#BitstreamVeraSans-Roman-6c"/>
     <use x="2422.857421875" xlink:href="#BitstreamVeraSans-Roman-65"/>
     <use x="2484.380859375" xlink:href="#BitstreamVeraSans-Roman-72"/>
    </g>
    <!-- Train: 1   Test: [1, 4, 8, 12, 16, 20, 24, 28] -->
    <defs>
     <path d="M 30.421875 75.984375 
L 30.421875 -13.1875 
L 9.71875 -13.1875 
L 9.71875 -6.203125 
L 21.390625 -6.203125 
L 21.390625 69 
L 9.71875 69 
L 9.71875 75.984375 
z
" id="BitstreamVeraSans-Roman-5d"/>
     <path d="M 11.71875 12.40625 
L 22.015625 12.40625 
L 22.015625 0 
L 11.71875 0 
z
M 11.71875 51.703125 
L 22.015625 51.703125 
L 22.015625 39.3125 
L 11.71875 39.3125 
z
" id="BitstreamVeraSans-Roman-3a"/>
     <path d="M 8.59375 75.984375 
L 29.296875 75.984375 
L 29.296875 69 
L 17.578125 69 
L 17.578125 -6.203125 
L 29.296875 -6.203125 
L 29.296875 -13.1875 
L 8.59375 -13.1875 
z
" id="BitstreamVeraSans-Roman-5b"/>
     <path d="M 11.71875 12.40625 
L 22.015625 12.40625 
L 22.015625 4 
L 14.015625 -11.625 
L 7.71875 -11.625 
L 11.71875 4 
z
" id="BitstreamVeraSans-Roman-2c"/>
    </defs>
    <g transform="translate(118.318125 34.2666)scale(0.144 -0.144)">
     <use xlink:href="#BitstreamVeraSans-Roman-54"/>
     <use x="60.865234375" xlink:href="#BitstreamVeraSans-Roman-72"/>
     <use x="101.978515625" xlink:href="#BitstreamVeraSans-Roman-61"/>
     <use x="163.2578125" xlink:href="#BitstreamVeraSans-Roman-69"/>
     <use x="191.041015625" xlink:href="#BitstreamVeraSans-Roman-6e"/>
     <use x="254.419921875" xlink:href="#BitstreamVeraSans-Roman-3a"/>
     <use x="288.111328125" xlink:href="#BitstreamVeraSans-Roman-20"/>
     <use x="319.8984375" xlink:href="#BitstreamVeraSans-Roman-31"/>
     <use x="383.521484375" xlink:href="#BitstreamVeraSans-Roman-20"/>
     <use x="415.30859375" xlink:href="#BitstreamVeraSans-Roman-20"/>
     <use x="447.095703125" xlink:href="#BitstreamVeraSans-Roman-20"/>
     <use x="478.8828125" xlink:href="#BitstreamVeraSans-Roman-54"/>
     <use x="539.701171875" xlink:href="#BitstreamVeraSans-Roman-65"/>
     <use x="601.224609375" xlink:href="#BitstreamVeraSans-Roman-73"/>
     <use x="653.32421875" xlink:href="#BitstreamVeraSans-Roman-74"/>
     <use x="692.533203125" xlink:href="#BitstreamVeraSans-Roman-3a"/>
     <use x="726.224609375" xlink:href="#BitstreamVeraSans-Roman-20"/>
     <use x="758.01171875" xlink:href="#BitstreamVeraSans-Roman-5b"/>
     <use x="797.025390625" xlink:href="#BitstreamVeraSans-Roman-31"/>
     <use x="860.6484375" xlink:href="#BitstreamVeraSans-Roman-2c"/>
     <use x="892.435546875" xlink:href="#BitstreamVeraSans-Roman-20"/>
     <use x="924.22265625" xlink:href="#BitstreamVeraSans-Roman-34"/>
     <use x="987.845703125" xlink:href="#BitstreamVeraSans-Roman-2c"/>
     <use x="1019.6328125" xlink:href="#BitstreamVeraSans-Roman-20"/>
     <use x="1051.419921875" xlink:href="#BitstreamVeraSans-Roman-38"/>
     <use x="1115.04296875" xlink:href="#BitstreamVeraSans-Roman-2c"/>
     <use x="1146.830078125" xlink:href="#BitstreamVeraSans-Roman-20"/>
     <use x="1178.6171875" xlink:href="#BitstreamVeraSans-Roman-31"/>
     <use x="1242.240234375" xlink:href="#BitstreamVeraSans-Roman-32"/>
     <use x="1305.86328125" xlink:href="#BitstreamVeraSans-Roman-2c"/>
     <use x="1337.650390625" xlink:href="#BitstreamVeraSans-Roman-20"/>
     <use x="1369.4375" xlink:href="#BitstreamVeraSans-Roman-31"/>
     <use x="1433.060546875" xlink:href="#BitstreamVeraSans-Roman-36"/>
     <use x="1496.68359375" xlink:href="#BitstreamVeraSans-Roman-2c"/>
     <use x="1528.470703125" xlink:href="#BitstreamVeraSans-Roman-20"/>
     <use x="1560.2578125" xlink:href="#BitstreamVeraSans-Roman-32"/>
     <use x="1623.880859375" xlink:href="#BitstreamVeraSans-Roman-30"/>
     <use x="1687.50390625" xlink:href="#BitstreamVeraSans-Roman-2c"/>
     <use x="1719.291015625" xlink:href="#BitstreamVeraSans-Roman-20"/>
     <use x="1751.078125" xlink:href="#BitstreamVeraSans-Roman-32"/>
     <use x="1814.701171875" xlink:href="#BitstreamVeraSans-Roman-34"/>
     <use x="1878.32421875" xlink:href="#BitstreamVeraSans-Roman-2c"/>
     <use x="1910.111328125" xlink:href="#BitstreamVeraSans-Roman-20"/>
     <use x="1941.8984375" xlink:href="#BitstreamVeraSans-Roman-32"/>
     <use x="2005.521484375" xlink:href="#BitstreamVeraSans-Roman-38"/>
     <use x="2069.14453125" xlink:href="#BitstreamVeraSans-Roman-5d"/>
    </g>
   </g>
   <g id="legend_1">
    <g id="patch_7">
     <path d="M 172.01775 377.6666 
L 486.0975 377.6666 
L 486.0975 309.9371 
L 172.01775 309.9371 
z
" style="fill:#ffffff;stroke:#000000;stroke-linejoin:miter;"/>
    </g>
    <g id="line2d_29">
     <path d="M 182.09775 321.59885 
L 202.25775 321.59885 
" style="fill:none;stroke:#0000ff;stroke-linecap:square;"/>
    </g>
    <g id="line2d_30"/>
    <g id="text_16">
     <!-- bridgesROC curve - 0 (AUC = 0.812) -->
     <defs>
      <path d="M 48.6875 27.296875 
Q 48.6875 37.203125 44.609375 42.84375 
Q 40.53125 48.484375 33.40625 48.484375 
Q 26.265625 48.484375 22.1875 42.84375 
Q 18.109375 37.203125 18.109375 27.296875 
Q 18.109375 17.390625 22.1875 11.75 
Q 26.265625 6.109375 33.40625 6.109375 
Q 40.53125 6.109375 44.609375 11.75 
Q 48.6875 17.390625 48.6875 27.296875 
M 18.109375 46.390625 
Q 20.953125 51.265625 25.265625 53.625 
Q 29.59375 56 35.59375 56 
Q 45.5625 56 51.78125 48.09375 
Q 58.015625 40.1875 58.015625 27.296875 
Q 58.015625 14.40625 51.78125 6.484375 
Q 45.5625 -1.421875 35.59375 -1.421875 
Q 29.59375 -1.421875 25.265625 0.953125 
Q 20.953125 3.328125 18.109375 8.203125 
L 18.109375 0 
L 9.078125 0 
L 9.078125 75.984375 
L 18.109375 75.984375 
z
" id="BitstreamVeraSans-Roman-62"/>
      <path d="M 48.78125 52.59375 
L 48.78125 44.1875 
Q 44.96875 46.296875 41.140625 47.34375 
Q 37.3125 48.390625 33.40625 48.390625 
Q 24.65625 48.390625 19.8125 42.84375 
Q 14.984375 37.3125 14.984375 27.296875 
Q 14.984375 17.28125 19.8125 11.734375 
Q 24.65625 6.203125 33.40625 6.203125 
Q 37.3125 6.203125 41.140625 7.25 
Q 44.96875 8.296875 48.78125 10.40625 
L 48.78125 2.09375 
Q 45.015625 0.34375 40.984375 -0.53125 
Q 36.96875 -1.421875 32.421875 -1.421875 
Q 20.0625 -1.421875 12.78125 6.34375 
Q 5.515625 14.109375 5.515625 27.296875 
Q 5.515625 40.671875 12.859375 48.328125 
Q 20.21875 56 33.015625 56 
Q 37.15625 56 41.109375 55.140625 
Q 45.0625 54.296875 48.78125 52.59375 
" id="BitstreamVeraSans-Roman-63"/>
      <path d="M 8.015625 75.875 
L 15.828125 75.875 
Q 23.140625 64.359375 26.78125 53.3125 
Q 30.421875 42.28125 30.421875 31.390625 
Q 30.421875 20.453125 26.78125 9.375 
Q 23.140625 -1.703125 15.828125 -13.1875 
L 8.015625 -13.1875 
Q 14.5 -2 17.703125 9.0625 
Q 20.90625 20.125 20.90625 31.390625 
Q 20.90625 42.671875 17.703125 53.65625 
Q 14.5 64.65625 8.015625 75.875 
" id="BitstreamVeraSans-Roman-29"/>
      <path d="M 8.6875 72.90625 
L 18.609375 72.90625 
L 18.609375 28.609375 
Q 18.609375 16.890625 22.84375 11.734375 
Q 27.09375 6.59375 36.625 6.59375 
Q 46.09375 6.59375 50.34375 11.734375 
Q 54.59375 16.890625 54.59375 28.609375 
L 54.59375 72.90625 
L 64.5 72.90625 
L 64.5 27.390625 
Q 64.5 13.140625 57.4375 5.859375 
Q 50.390625 -1.421875 36.625 -1.421875 
Q 22.796875 -1.421875 15.734375 5.859375 
Q 8.6875 13.140625 8.6875 27.390625 
z
" id="BitstreamVeraSans-Roman-55"/>
      <path d="M 34.1875 63.1875 
L 20.796875 26.90625 
L 47.609375 26.90625 
z
M 28.609375 72.90625 
L 39.796875 72.90625 
L 67.578125 0 
L 57.328125 0 
L 50.6875 18.703125 
L 17.828125 18.703125 
L 11.1875 0 
L 0.78125 0 
z
" id="BitstreamVeraSans-Roman-41"/>
      <path d="M 31 75.875 
Q 24.46875 64.65625 21.28125 53.65625 
Q 18.109375 42.671875 18.109375 31.390625 
Q 18.109375 20.125 21.3125 9.0625 
Q 24.515625 -2 31 -13.1875 
L 23.1875 -13.1875 
Q 15.875 -1.703125 12.234375 9.375 
Q 8.59375 20.453125 8.59375 31.390625 
Q 8.59375 42.28125 12.203125 53.3125 
Q 15.828125 64.359375 23.1875 75.875 
z
" id="BitstreamVeraSans-Roman-28"/>
      <path d="M 45.40625 27.984375 
Q 45.40625 37.75 41.375 43.109375 
Q 37.359375 48.484375 30.078125 48.484375 
Q 22.859375 48.484375 18.828125 43.109375 
Q 14.796875 37.75 14.796875 27.984375 
Q 14.796875 18.265625 18.828125 12.890625 
Q 22.859375 7.515625 30.078125 7.515625 
Q 37.359375 7.515625 41.375 12.890625 
Q 45.40625 18.265625 45.40625 27.984375 
M 54.390625 6.78125 
Q 54.390625 -7.171875 48.1875 -13.984375 
Q 42 -20.796875 29.203125 -20.796875 
Q 24.46875 -20.796875 20.265625 -20.09375 
Q 16.0625 -19.390625 12.109375 -17.921875 
L 12.109375 -9.1875 
Q 16.0625 -11.328125 19.921875 -12.34375 
Q 23.78125 -13.375 27.78125 -13.375 
Q 36.625 -13.375 41.015625 -8.765625 
Q 45.40625 -4.15625 45.40625 5.171875 
L 45.40625 9.625 
Q 42.625 4.78125 38.28125 2.390625 
Q 33.9375 0 27.875 0 
Q 17.828125 0 11.671875 7.65625 
Q 5.515625 15.328125 5.515625 27.984375 
Q 5.515625 40.671875 11.671875 48.328125 
Q 17.828125 56 27.875 56 
Q 33.9375 56 38.28125 53.609375 
Q 42.625 51.21875 45.40625 46.390625 
L 45.40625 54.6875 
L 54.390625 54.6875 
z
" id="BitstreamVeraSans-Roman-67"/>
      <path d="M 4.890625 31.390625 
L 31.203125 31.390625 
L 31.203125 23.390625 
L 4.890625 23.390625 
z
" id="BitstreamVeraSans-Roman-2d"/>
      <path d="M 10.59375 45.40625 
L 73.1875 45.40625 
L 73.1875 37.203125 
L 10.59375 37.203125 
z
M 10.59375 25.484375 
L 73.1875 25.484375 
L 73.1875 17.1875 
L 10.59375 17.1875 
z
" id="BitstreamVeraSans-Roman-3d"/>
     </defs>
     <g transform="translate(218.09775 326.63885)scale(0.144 -0.144)">
      <use xlink:href="#BitstreamVeraSans-Roman-62"/>
      <use x="63.4765625" xlink:href="#BitstreamVeraSans-Roman-72"/>
      <use x="104.58984375" xlink:href="#BitstreamVeraSans-Roman-69"/>
      <use x="132.373046875" xlink:href="#BitstreamVeraSans-Roman-64"/>
      <use x="195.849609375" xlink:href="#BitstreamVeraSans-Roman-67"/>
      <use x="259.326171875" xlink:href="#BitstreamVeraSans-Roman-65"/>
      <use x="320.849609375" xlink:href="#BitstreamVeraSans-Roman-73"/>
      <use x="372.94921875" xlink:href="#BitstreamVeraSans-Roman-52"/>
      <use x="442.431640625" xlink:href="#BitstreamVeraSans-Roman-4f"/>
      <use x="521.142578125" xlink:href="#BitstreamVeraSans-Roman-43"/>
      <use x="590.966796875" xlink:href="#BitstreamVeraSans-Roman-20"/>
      <use x="622.75390625" xlink:href="#BitstreamVeraSans-Roman-63"/>
      <use x="677.734375" xlink:href="#BitstreamVeraSans-Roman-75"/>
      <use x="741.11328125" xlink:href="#BitstreamVeraSans-Roman-72"/>
      <use x="782.2265625" xlink:href="#BitstreamVeraSans-Roman-76"/>
      <use x="841.40625" xlink:href="#BitstreamVeraSans-Roman-65"/>
      <use x="902.9296875" xlink:href="#BitstreamVeraSans-Roman-20"/>
      <use x="934.716796875" xlink:href="#BitstreamVeraSans-Roman-2d"/>
      <use x="970.80078125" xlink:href="#BitstreamVeraSans-Roman-20"/>
      <use x="1002.587890625" xlink:href="#BitstreamVeraSans-Roman-30"/>
      <use x="1066.2109375" xlink:href="#BitstreamVeraSans-Roman-20"/>
      <use x="1097.998046875" xlink:href="#BitstreamVeraSans-Roman-28"/>
      <use x="1137.01171875" xlink:href="#BitstreamVeraSans-Roman-41"/>
      <use x="1205.419921875" xlink:href="#BitstreamVeraSans-Roman-55"/>
      <use x="1278.61328125" xlink:href="#BitstreamVeraSans-Roman-43"/>
      <use x="1348.4375" xlink:href="#BitstreamVeraSans-Roman-20"/>
      <use x="1380.224609375" xlink:href="#BitstreamVeraSans-Roman-3d"/>
      <use x="1464.013671875" xlink:href="#BitstreamVeraSans-Roman-20"/>
      <use x="1495.80078125" xlink:href="#BitstreamVeraSans-Roman-30"/>
      <use x="1559.423828125" xlink:href="#BitstreamVeraSans-Roman-2e"/>
      <use x="1591.2109375" xlink:href="#BitstreamVeraSans-Roman-38"/>
      <use x="1654.833984375" xlink:href="#BitstreamVeraSans-Roman-31"/>
      <use x="1718.45703125" xlink:href="#BitstreamVeraSans-Roman-32"/>
      <use x="1782.080078125" xlink:href="#BitstreamVeraSans-Roman-29"/>
     </g>
    </g>
    <g id="line2d_31">
     <path d="M 182.09775 342.73535 
L 202.25775 342.73535 
" style="fill:none;stroke:#008000;stroke-linecap:square;"/>
    </g>
    <g id="line2d_32"/>
    <g id="text_17">
     <!-- bridgesROC curve - 1 (AUC = 0.838) -->
     <defs>
      <path d="M 40.578125 39.3125 
Q 47.65625 37.796875 51.625 33 
Q 55.609375 28.21875 55.609375 21.1875 
Q 55.609375 10.40625 48.1875 4.484375 
Q 40.765625 -1.421875 27.09375 -1.421875 
Q 22.515625 -1.421875 17.65625 -0.515625 
Q 12.796875 0.390625 7.625 2.203125 
L 7.625 11.71875 
Q 11.71875 9.328125 16.59375 8.109375 
Q 21.484375 6.890625 26.8125 6.890625 
Q 36.078125 6.890625 40.9375 10.546875 
Q 45.796875 14.203125 45.796875 21.1875 
Q 45.796875 27.640625 41.28125 31.265625 
Q 36.765625 34.90625 28.71875 34.90625 
L 20.21875 34.90625 
L 20.21875 43.015625 
L 29.109375 43.015625 
Q 36.375 43.015625 40.234375 45.921875 
Q 44.09375 48.828125 44.09375 54.296875 
Q 44.09375 59.90625 40.109375 62.90625 
Q 36.140625 65.921875 28.71875 65.921875 
Q 24.65625 65.921875 20.015625 65.03125 
Q 15.375 64.15625 9.8125 62.3125 
L 9.8125 71.09375 
Q 15.4375 72.65625 20.34375 73.4375 
Q 25.25 74.21875 29.59375 74.21875 
Q 40.828125 74.21875 47.359375 69.109375 
Q 53.90625 64.015625 53.90625 55.328125 
Q 53.90625 49.265625 50.4375 45.09375 
Q 46.96875 40.921875 40.578125 39.3125 
" id="BitstreamVeraSans-Roman-33"/>
     </defs>
     <g transform="translate(218.09775 347.77535)scale(0.144 -0.144)">
      <use xlink:href="#BitstreamVeraSans-Roman-62"/>
      <use x="63.4765625" xlink:href="#BitstreamVeraSans-Roman-72"/>
      <use x="104.58984375" xlink:href="#BitstreamVeraSans-Roman-69"/>
      <use x="132.373046875" xlink:href="#BitstreamVeraSans-Roman-64"/>
      <use x="195.849609375" xlink:href="#BitstreamVeraSans-Roman-67"/>
      <use x="259.326171875" xlink:href="#BitstreamVeraSans-Roman-65"/>
      <use x="320.849609375" xlink:href="#BitstreamVeraSans-Roman-73"/>
      <use x="372.94921875" xlink:href="#BitstreamVeraSans-Roman-52"/>
      <use x="442.431640625" xlink:href="#BitstreamVeraSans-Roman-4f"/>
      <use x="521.142578125" xlink:href="#BitstreamVeraSans-Roman-43"/>
      <use x="590.966796875" xlink:href="#BitstreamVeraSans-Roman-20"/>
      <use x="622.75390625" xlink:href="#BitstreamVeraSans-Roman-63"/>
      <use x="677.734375" xlink:href="#BitstreamVeraSans-Roman-75"/>
      <use x="741.11328125" xlink:href="#BitstreamVeraSans-Roman-72"/>
      <use x="782.2265625" xlink:href="#BitstreamVeraSans-Roman-76"/>
      <use x="841.40625" xlink:href="#BitstreamVeraSans-Roman-65"/>
      <use x="902.9296875" xlink:href="#BitstreamVeraSans-Roman-20"/>
      <use x="934.716796875" xlink:href="#BitstreamVeraSans-Roman-2d"/>
      <use x="970.80078125" xlink:href="#BitstreamVeraSans-Roman-20"/>
      <use x="1002.587890625" xlink:href="#BitstreamVeraSans-Roman-31"/>
      <use x="1066.2109375" xlink:href="#BitstreamVeraSans-Roman-20"/>
      <use x="1097.998046875" xlink:href="#BitstreamVeraSans-Roman-28"/>
      <use x="1137.01171875" xlink:href="#BitstreamVeraSans-Roman-41"/>
      <use x="1205.419921875" xlink:href="#BitstreamVeraSans-Roman-55"/>
      <use x="1278.61328125" xlink:href="#BitstreamVeraSans-Roman-43"/>
      <use x="1348.4375" xlink:href="#BitstreamVeraSans-Roman-20"/>
      <use x="1380.224609375" xlink:href="#BitstreamVeraSans-Roman-3d"/>
      <use x="1464.013671875" xlink:href="#BitstreamVeraSans-Roman-20"/>
      <use x="1495.80078125" xlink:href="#BitstreamVeraSans-Roman-30"/>
      <use x="1559.423828125" xlink:href="#BitstreamVeraSans-Roman-2e"/>
      <use x="1591.2109375" xlink:href="#BitstreamVeraSans-Roman-38"/>
      <use x="1654.833984375" xlink:href="#BitstreamVeraSans-Roman-33"/>
      <use x="1718.45703125" xlink:href="#BitstreamVeraSans-Roman-38"/>
      <use x="1782.080078125" xlink:href="#BitstreamVeraSans-Roman-29"/>
     </g>
    </g>
    <g id="line2d_33">
     <path d="M 182.09775 363.87185 
L 202.25775 363.87185 
" style="fill:none;stroke:#ff0000;stroke-linecap:square;"/>
    </g>
    <g id="line2d_34"/>
    <g id="text_18">
     <!-- bridgesROC curve - 2 (AUC = 0.811) -->
     <g transform="translate(218.09775 368.91185)scale(0.144 -0.144)">
      <use xlink:href="#BitstreamVeraSans-Roman-62"/>
      <use x="63.4765625" xlink:href="#BitstreamVeraSans-Roman-72"/>
      <use x="104.58984375" xlink:href="#BitstreamVeraSans-Roman-69"/>
      <use x="132.373046875" xlink:href="#BitstreamVeraSans-Roman-64"/>
      <use x="195.849609375" xlink:href="#BitstreamVeraSans-Roman-67"/>
      <use x="259.326171875" xlink:href="#BitstreamVeraSans-Roman-65"/>
      <use x="320.849609375" xlink:href="#BitstreamVeraSans-Roman-73"/>
      <use x="372.94921875" xlink:href="#BitstreamVeraSans-Roman-52"/>
      <use x="442.431640625" xlink:href="#BitstreamVeraSans-Roman-4f"/>
      <use x="521.142578125" xlink:href="#BitstreamVeraSans-Roman-43"/>
      <use x="590.966796875" xlink:href="#BitstreamVeraSans-Roman-20"/>
      <use x="622.75390625" xlink:href="#BitstreamVeraSans-Roman-63"/>
      <use x="677.734375" xlink:href="#BitstreamVeraSans-Roman-75"/>
      <use x="741.11328125" xlink:href="#BitstreamVeraSans-Roman-72"/>
      <use x="782.2265625" xlink:href="#BitstreamVeraSans-Roman-76"/>
      <use x="841.40625" xlink:href="#BitstreamVeraSans-Roman-65"/>
      <use x="902.9296875" xlink:href="#BitstreamVeraSans-Roman-20"/>
      <use x="934.716796875" xlink:href="#BitstreamVeraSans-Roman-2d"/>
      <use x="970.80078125" xlink:href="#BitstreamVeraSans-Roman-20"/>
      <use x="1002.587890625" xlink:href="#BitstreamVeraSans-Roman-32"/>
      <use x="1066.2109375" xlink:href="#BitstreamVeraSans-Roman-20"/>
      <use x="1097.998046875" xlink:href="#BitstreamVeraSans-Roman-28"/>
      <use x="1137.01171875" xlink:href="#BitstreamVeraSans-Roman-41"/>
      <use x="1205.419921875" xlink:href="#BitstreamVeraSans-Roman-55"/>
      <use x="1278.61328125" xlink:href="#BitstreamVeraSans-Roman-43"/>
      <use x="1348.4375" xlink:href="#BitstreamVeraSans-Roman-20"/>
      <use x="1380.224609375" xlink:href="#BitstreamVeraSans-Roman-3d"/>
      <use x="1464.013671875" xlink:href="#BitstreamVeraSans-Roman-20"/>
      <use x="1495.80078125" xlink:href="#BitstreamVeraSans-Roman-30"/>
      <use x="1559.423828125" xlink:href="#BitstreamVeraSans-Roman-2e"/>
      <use x="1591.2109375" xlink:href="#BitstreamVeraSans-Roman-38"/>
      <use x="1654.833984375" xlink:href="#BitstreamVeraSans-Roman-31"/>
      <use x="1718.45703125" xlink:href="#BitstreamVeraSans-Roman-31"/>
      <use x="1782.080078125" xlink:href="#BitstreamVeraSans-Roman-29"/>
     </g>
    </g>
   </g>
  </g>
 </g>
 <defs>
  <clipPath id="p89cb2563ff">
   <rect height="345.6" width="446.4" x="46.8975" y="39.2666"/>
  </clipPath>
 </defs>
</svg>
