<?xml version="1.0" encoding="utf-8" standalone="no"?>
<!DOCTYPE svg PUBLIC "-//W3C//DTD SVG 1.1//EN"
  "http://www.w3.org/Graphics/SVG/1.1/DTD/svg11.dtd">
<!-- Created with matplotlib (http://matplotlib.org/) -->
<svg height="339pt" version="1.1" viewBox="0 0 416 339" width="416pt" xmlns="http://www.w3.org/2000/svg" xmlns:xlink="http://www.w3.org/1999/xlink">
 <defs>
  <style type="text/css">
*{stroke-linecap:butt;stroke-linejoin:round;}
  </style>
 </defs>
 <g id="figure_1">
  <g id="patch_1">
   <path d="M 0 339.42375 
L 416.052813 339.42375 
L 416.052813 0 
L 0 0 
z
" style="fill:#ffffff;"/>
  </g>
  <g id="axes_1">
   <g id="patch_2">
    <path d="M 43.78125 301.8675 
L 400.90125 301.8675 
L 400.90125 35.7555 
L 43.78125 35.7555 
z
" style="fill:#ffffff;"/>
   </g>
   <g id="matplotlib.axis_1">
    <g id="xtick_1">
     <g id="line2d_1">
      <defs>
       <path d="M 0 0 
L 0 3.5 
" id="m40946ffacd" style="stroke:#000000;stroke-width:0.8;"/>
      </defs>
      <g>
       <use style="stroke:#000000;stroke-width:0.8;" x="43.78125" xlink:href="#m40946ffacd" y="301.8675"/>
      </g>
     </g>
     <g id="text_1">
      <!-- 0.0 -->
      <defs>
       <path d="M 31.78125 66.40625 
Q 24.171875 66.40625 20.328125 58.90625 
Q 16.5 51.421875 16.5 36.375 
Q 16.5 21.390625 20.328125 13.890625 
Q 24.171875 6.390625 31.78125 6.390625 
Q 39.453125 6.390625 43.28125 13.890625 
Q 47.125 21.390625 47.125 36.375 
Q 47.125 51.421875 43.28125 58.90625 
Q 39.453125 66.40625 31.78125 66.40625 
M 31.78125 74.21875 
Q 44.046875 74.21875 50.515625 64.515625 
Q 56.984375 54.828125 56.984375 36.375 
Q 56.984375 17.96875 50.515625 8.265625 
Q 44.046875 -1.421875 31.78125 -1.421875 
Q 19.53125 -1.421875 13.0625 8.265625 
Q 6.59375 17.96875 6.59375 36.375 
Q 6.59375 54.828125 13.0625 64.515625 
Q 19.53125 74.21875 31.78125 74.21875 
" id="DejaVuSans-30"/>
       <path d="M 10.6875 12.40625 
L 21 12.40625 
L 21 0 
L 10.6875 0 
z
" id="DejaVuSans-2e"/>
      </defs>
      <g transform="translate(35.829688 316.465937)scale(0.1 -0.1)">
       <use xlink:href="#DejaVuSans-30"/>
       <use x="63.623047" xlink:href="#DejaVuSans-2e"/>
       <use x="95.410156" xlink:href="#DejaVuSans-30"/>
      </g>
     </g>
    </g>
    <g id="xtick_2">
     <g id="line2d_2">
      <g>
       <use style="stroke:#000000;stroke-width:0.8;" x="115.20525" xlink:href="#m40946ffacd" y="301.8675"/>
      </g>
     </g>
     <g id="text_2">
      <!-- 0.2 -->
      <defs>
       <path d="M 19.1875 8.296875 
L 53.609375 8.296875 
L 53.609375 0 
L 7.328125 0 
L 7.328125 8.296875 
Q 12.9375 14.109375 22.625 23.890625 
Q 32.328125 33.6875 34.8125 36.53125 
Q 39.546875 41.84375 41.421875 45.53125 
Q 43.3125 49.21875 43.3125 52.78125 
Q 43.3125 58.59375 39.234375 62.25 
Q 35.15625 65.921875 28.609375 65.921875 
Q 23.96875 65.921875 18.8125 64.3125 
Q 13.671875 62.703125 7.8125 59.421875 
L 7.8125 69.390625 
Q 13.765625 71.78125 18.9375 73 
Q 24.125 74.21875 28.421875 74.21875 
Q 39.75 74.21875 46.484375 68.546875 
Q 53.21875 62.890625 53.21875 53.421875 
Q 53.21875 48.921875 51.53125 44.890625 
Q 49.859375 40.875 45.40625 35.40625 
Q 44.1875 33.984375 37.640625 27.21875 
Q 31.109375 20.453125 19.1875 8.296875 
" id="DejaVuSans-32"/>
      </defs>
      <g transform="translate(107.253688 316.465937)scale(0.1 -0.1)">
       <use xlink:href="#DejaVuSans-30"/>
       <use x="63.623047" xlink:href="#DejaVuSans-2e"/>
       <use x="95.410156" xlink:href="#DejaVuSans-32"/>
      </g>
     </g>
    </g>
    <g id="xtick_3">
     <g id="line2d_3">
      <g>
       <use style="stroke:#000000;stroke-width:0.8;" x="186.62925" xlink:href="#m40946ffacd" y="301.8675"/>
      </g>
     </g>
     <g id="text_3">
      <!-- 0.4 -->
      <defs>
       <path d="M 37.796875 64.3125 
L 12.890625 25.390625 
L 37.796875 25.390625 
z
M 35.203125 72.90625 
L 47.609375 72.90625 
L 47.609375 25.390625 
L 58.015625 25.390625 
L 58.015625 17.1875 
L 47.609375 17.1875 
L 47.609375 0 
L 37.796875 0 
L 37.796875 17.1875 
L 4.890625 17.1875 
L 4.890625 26.703125 
z
" id="DejaVuSans-34"/>
      </defs>
      <g transform="translate(178.677688 316.465937)scale(0.1 -0.1)">
       <use xlink:href="#DejaVuSans-30"/>
       <use x="63.623047" xlink:href="#DejaVuSans-2e"/>
       <use x="95.410156" xlink:href="#DejaVuSans-34"/>
      </g>
     </g>
    </g>
    <g id="xtick_4">
     <g id="line2d_4">
      <g>
       <use style="stroke:#000000;stroke-width:0.8;" x="258.05325" xlink:href="#m40946ffacd" y="301.8675"/>
      </g>
     </g>
     <g id="text_4">
      <!-- 0.6 -->
      <defs>
       <path d="M 33.015625 40.375 
Q 26.375 40.375 22.484375 35.828125 
Q 18.609375 31.296875 18.609375 23.390625 
Q 18.609375 15.53125 22.484375 10.953125 
Q 26.375 6.390625 33.015625 6.390625 
Q 39.65625 6.390625 43.53125 10.953125 
Q 47.40625 15.53125 47.40625 23.390625 
Q 47.40625 31.296875 43.53125 35.828125 
Q 39.65625 40.375 33.015625 40.375 
M 52.59375 71.296875 
L 52.59375 62.3125 
Q 48.875 64.0625 45.09375 64.984375 
Q 41.3125 65.921875 37.59375 65.921875 
Q 27.828125 65.921875 22.671875 59.328125 
Q 17.53125 52.734375 16.796875 39.40625 
Q 19.671875 43.65625 24.015625 45.921875 
Q 28.375 48.1875 33.59375 48.1875 
Q 44.578125 48.1875 50.953125 41.515625 
Q 57.328125 34.859375 57.328125 23.390625 
Q 57.328125 12.15625 50.6875 5.359375 
Q 44.046875 -1.421875 33.015625 -1.421875 
Q 20.359375 -1.421875 13.671875 8.265625 
Q 6.984375 17.96875 6.984375 36.375 
Q 6.984375 53.65625 15.1875 63.9375 
Q 23.390625 74.21875 37.203125 74.21875 
Q 40.921875 74.21875 44.703125 73.484375 
Q 48.484375 72.75 52.59375 71.296875 
" id="DejaVuSans-36"/>
      </defs>
      <g transform="translate(250.101688 316.465937)scale(0.1 -0.1)">
       <use xlink:href="#DejaVuSans-30"/>
       <use x="63.623047" xlink:href="#DejaVuSans-2e"/>
       <use x="95.410156" xlink:href="#DejaVuSans-36"/>
      </g>
     </g>
    </g>
    <g id="xtick_5">
     <g id="line2d_5">
      <g>
       <use style="stroke:#000000;stroke-width:0.8;" x="329.47725" xlink:href="#m40946ffacd" y="301.8675"/>
      </g>
     </g>
     <g id="text_5">
      <!-- 0.8 -->
      <defs>
       <path d="M 31.78125 34.625 
Q 24.75 34.625 20.71875 30.859375 
Q 16.703125 27.09375 16.703125 20.515625 
Q 16.703125 13.921875 20.71875 10.15625 
Q 24.75 6.390625 31.78125 6.390625 
Q 38.8125 6.390625 42.859375 10.171875 
Q 46.921875 13.96875 46.921875 20.515625 
Q 46.921875 27.09375 42.890625 30.859375 
Q 38.875 34.625 31.78125 34.625 
M 21.921875 38.8125 
Q 15.578125 40.375 12.03125 44.71875 
Q 8.5 49.078125 8.5 55.328125 
Q 8.5 64.0625 14.71875 69.140625 
Q 20.953125 74.21875 31.78125 74.21875 
Q 42.671875 74.21875 48.875 69.140625 
Q 55.078125 64.0625 55.078125 55.328125 
Q 55.078125 49.078125 51.53125 44.71875 
Q 48 40.375 41.703125 38.8125 
Q 48.828125 37.15625 52.796875 32.3125 
Q 56.78125 27.484375 56.78125 20.515625 
Q 56.78125 9.90625 50.3125 4.234375 
Q 43.84375 -1.421875 31.78125 -1.421875 
Q 19.734375 -1.421875 13.25 4.234375 
Q 6.78125 9.90625 6.78125 20.515625 
Q 6.78125 27.484375 10.78125 32.3125 
Q 14.796875 37.15625 21.921875 38.8125 
M 18.3125 54.390625 
Q 18.3125 48.734375 21.84375 45.5625 
Q 25.390625 42.390625 31.78125 42.390625 
Q 38.140625 42.390625 41.71875 45.5625 
Q 45.3125 48.734375 45.3125 54.390625 
Q 45.3125 60.0625 41.71875 63.234375 
Q 38.140625 66.40625 31.78125 66.40625 
Q 25.390625 66.40625 21.84375 63.234375 
Q 18.3125 60.0625 18.3125 54.390625 
" id="DejaVuSans-38"/>
      </defs>
      <g transform="translate(321.525688 316.465937)scale(0.1 -0.1)">
       <use xlink:href="#DejaVuSans-30"/>
       <use x="63.623047" xlink:href="#DejaVuSans-2e"/>
       <use x="95.410156" xlink:href="#DejaVuSans-38"/>
      </g>
     </g>
    </g>
    <g id="xtick_6">
     <g id="line2d_6">
      <g>
       <use style="stroke:#000000;stroke-width:0.8;" x="400.90125" xlink:href="#m40946ffacd" y="301.8675"/>
      </g>
     </g>
     <g id="text_6">
      <!-- 1.0 -->
      <defs>
       <path d="M 12.40625 8.296875 
L 28.515625 8.296875 
L 28.515625 63.921875 
L 10.984375 60.40625 
L 10.984375 69.390625 
L 28.421875 72.90625 
L 38.28125 72.90625 
L 38.28125 8.296875 
L 54.390625 8.296875 
L 54.390625 0 
L 12.40625 0 
z
" id="DejaVuSans-31"/>
      </defs>
      <g transform="translate(392.949688 316.465937)scale(0.1 -0.1)">
       <use xlink:href="#DejaVuSans-31"/>
       <use x="63.623047" xlink:href="#DejaVuSans-2e"/>
       <use x="95.410156" xlink:href="#DejaVuSans-30"/>
      </g>
     </g>
    </g>
    <g id="text_7">
     <!-- False Positive Rate -->
     <defs>
      <path d="M 9.8125 72.90625 
L 51.703125 72.90625 
L 51.703125 64.59375 
L 19.671875 64.59375 
L 19.671875 43.109375 
L 48.578125 43.109375 
L 48.578125 34.8125 
L 19.671875 34.8125 
L 19.671875 0 
L 9.8125 0 
z
" id="DejaVuSans-46"/>
      <path d="M 34.28125 27.484375 
Q 23.390625 27.484375 19.1875 25 
Q 14.984375 22.515625 14.984375 16.5 
Q 14.984375 11.71875 18.140625 8.90625 
Q 21.296875 6.109375 26.703125 6.109375 
Q 34.1875 6.109375 38.703125 11.40625 
Q 43.21875 16.703125 43.21875 25.484375 
L 43.21875 27.484375 
z
M 52.203125 31.203125 
L 52.203125 0 
L 43.21875 0 
L 43.21875 8.296875 
Q 40.140625 3.328125 35.546875 0.953125 
Q 30.953125 -1.421875 24.3125 -1.421875 
Q 15.921875 -1.421875 10.953125 3.296875 
Q 6 8.015625 6 15.921875 
Q 6 25.140625 12.171875 29.828125 
Q 18.359375 34.515625 30.609375 34.515625 
L 43.21875 34.515625 
L 43.21875 35.40625 
Q 43.21875 41.609375 39.140625 45 
Q 35.0625 48.390625 27.6875 48.390625 
Q 23 48.390625 18.546875 47.265625 
Q 14.109375 46.140625 10.015625 43.890625 
L 10.015625 52.203125 
Q 14.9375 54.109375 19.578125 55.046875 
Q 24.21875 56 28.609375 56 
Q 40.484375 56 46.34375 49.84375 
Q 52.203125 43.703125 52.203125 31.203125 
" id="DejaVuSans-61"/>
      <path d="M 9.421875 75.984375 
L 18.40625 75.984375 
L 18.40625 0 
L 9.421875 0 
z
" id="DejaVuSans-6c"/>
      <path d="M 44.28125 53.078125 
L 44.28125 44.578125 
Q 40.484375 46.53125 36.375 47.5 
Q 32.28125 48.484375 27.875 48.484375 
Q 21.1875 48.484375 17.84375 46.4375 
Q 14.5 44.390625 14.5 40.28125 
Q 14.5 37.15625 16.890625 35.375 
Q 19.28125 33.59375 26.515625 31.984375 
L 29.59375 31.296875 
Q 39.15625 29.25 43.1875 25.515625 
Q 47.21875 21.78125 47.21875 15.09375 
Q 47.21875 7.46875 41.1875 3.015625 
Q 35.15625 -1.421875 24.609375 -1.421875 
Q 20.21875 -1.421875 15.453125 -0.5625 
Q 10.6875 0.296875 5.421875 2 
L 5.421875 11.28125 
Q 10.40625 8.6875 15.234375 7.390625 
Q 20.0625 6.109375 24.8125 6.109375 
Q 31.15625 6.109375 34.5625 8.28125 
Q 37.984375 10.453125 37.984375 14.40625 
Q 37.984375 18.0625 35.515625 20.015625 
Q 33.0625 21.96875 24.703125 23.78125 
L 21.578125 24.515625 
Q 13.234375 26.265625 9.515625 29.90625 
Q 5.8125 33.546875 5.8125 39.890625 
Q 5.8125 47.609375 11.28125 51.796875 
Q 16.75 56 26.8125 56 
Q 31.78125 56 36.171875 55.265625 
Q 40.578125 54.546875 44.28125 53.078125 
" id="DejaVuSans-73"/>
      <path d="M 56.203125 29.59375 
L 56.203125 25.203125 
L 14.890625 25.203125 
Q 15.484375 15.921875 20.484375 11.0625 
Q 25.484375 6.203125 34.421875 6.203125 
Q 39.59375 6.203125 44.453125 7.46875 
Q 49.3125 8.734375 54.109375 11.28125 
L 54.109375 2.78125 
Q 49.265625 0.734375 44.1875 -0.34375 
Q 39.109375 -1.421875 33.890625 -1.421875 
Q 20.796875 -1.421875 13.15625 6.1875 
Q 5.515625 13.8125 5.515625 26.8125 
Q 5.515625 40.234375 12.765625 48.109375 
Q 20.015625 56 32.328125 56 
Q 43.359375 56 49.78125 48.890625 
Q 56.203125 41.796875 56.203125 29.59375 
M 47.21875 32.234375 
Q 47.125 39.59375 43.09375 43.984375 
Q 39.0625 48.390625 32.421875 48.390625 
Q 24.90625 48.390625 20.390625 44.140625 
Q 15.875 39.890625 15.1875 32.171875 
z
" id="DejaVuSans-65"/>
      <path id="DejaVuSans-20"/>
      <path d="M 19.671875 64.796875 
L 19.671875 37.40625 
L 32.078125 37.40625 
Q 38.96875 37.40625 42.71875 40.96875 
Q 46.484375 44.53125 46.484375 51.125 
Q 46.484375 57.671875 42.71875 61.234375 
Q 38.96875 64.796875 32.078125 64.796875 
z
M 9.8125 72.90625 
L 32.078125 72.90625 
Q 44.34375 72.90625 50.609375 67.359375 
Q 56.890625 61.8125 56.890625 51.125 
Q 56.890625 40.328125 50.609375 34.8125 
Q 44.34375 29.296875 32.078125 29.296875 
L 19.671875 29.296875 
L 19.671875 0 
L 9.8125 0 
z
" id="DejaVuSans-50"/>
      <path d="M 30.609375 48.390625 
Q 23.390625 48.390625 19.1875 42.75 
Q 14.984375 37.109375 14.984375 27.296875 
Q 14.984375 17.484375 19.15625 11.84375 
Q 23.34375 6.203125 30.609375 6.203125 
Q 37.796875 6.203125 41.984375 11.859375 
Q 46.1875 17.53125 46.1875 27.296875 
Q 46.1875 37.015625 41.984375 42.703125 
Q 37.796875 48.390625 30.609375 48.390625 
M 30.609375 56 
Q 42.328125 56 49.015625 48.375 
Q 55.71875 40.765625 55.71875 27.296875 
Q 55.71875 13.875 49.015625 6.21875 
Q 42.328125 -1.421875 30.609375 -1.421875 
Q 18.84375 -1.421875 12.171875 6.21875 
Q 5.515625 13.875 5.515625 27.296875 
Q 5.515625 40.765625 12.171875 48.375 
Q 18.84375 56 30.609375 56 
" id="DejaVuSans-6f"/>
      <path d="M 9.421875 54.6875 
L 18.40625 54.6875 
L 18.40625 0 
L 9.421875 0 
z
M 9.421875 75.984375 
L 18.40625 75.984375 
L 18.40625 64.59375 
L 9.421875 64.59375 
z
" id="DejaVuSans-69"/>
      <path d="M 18.3125 70.21875 
L 18.3125 54.6875 
L 36.8125 54.6875 
L 36.8125 47.703125 
L 18.3125 47.703125 
L 18.3125 18.015625 
Q 18.3125 11.328125 20.140625 9.421875 
Q 21.96875 7.515625 27.59375 7.515625 
L 36.8125 7.515625 
L 36.8125 0 
L 27.59375 0 
Q 17.1875 0 13.234375 3.875 
Q 9.28125 7.765625 9.28125 18.015625 
L 9.28125 47.703125 
L 2.6875 47.703125 
L 2.6875 54.6875 
L 9.28125 54.6875 
L 9.28125 70.21875 
z
" id="DejaVuSans-74"/>
      <path d="M 2.984375 54.6875 
L 12.5 54.6875 
L 29.59375 8.796875 
L 46.6875 54.6875 
L 56.203125 54.6875 
L 35.6875 0 
L 23.484375 0 
z
" id="DejaVuSans-76"/>
      <path d="M 44.390625 34.1875 
Q 47.5625 33.109375 50.5625 29.59375 
Q 53.5625 26.078125 56.59375 19.921875 
L 66.609375 0 
L 56 0 
L 46.6875 18.703125 
Q 43.0625 26.03125 39.671875 28.421875 
Q 36.28125 30.8125 30.421875 30.8125 
L 19.671875 30.8125 
L 19.671875 0 
L 9.8125 0 
L 9.8125 72.90625 
L 32.078125 72.90625 
Q 44.578125 72.90625 50.734375 67.671875 
Q 56.890625 62.453125 56.890625 51.90625 
Q 56.890625 45.015625 53.6875 40.46875 
Q 50.484375 35.9375 44.390625 34.1875 
M 19.671875 64.796875 
L 19.671875 38.921875 
L 32.078125 38.921875 
Q 39.203125 38.921875 42.84375 42.21875 
Q 46.484375 45.515625 46.484375 51.90625 
Q 46.484375 58.296875 42.84375 61.546875 
Q 39.203125 64.796875 32.078125 64.796875 
z
" id="DejaVuSans-52"/>
     </defs>
     <g transform="translate(175.135781 330.144062)scale(0.1 -0.1)">
      <use xlink:href="#DejaVuSans-46"/>
      <use x="57.378906" xlink:href="#DejaVuSans-61"/>
      <use x="118.658203" xlink:href="#DejaVuSans-6c"/>
      <use x="146.441406" xlink:href="#DejaVuSans-73"/>
      <use x="198.541016" xlink:href="#DejaVuSans-65"/>
      <use x="260.064453" xlink:href="#DejaVuSans-20"/>
      <use x="291.851562" xlink:href="#DejaVuSans-50"/>
      <use x="352.107422" xlink:href="#DejaVuSans-6f"/>
      <use x="413.289062" xlink:href="#DejaVuSans-73"/>
      <use x="465.388672" xlink:href="#DejaVuSans-69"/>
      <use x="493.171875" xlink:href="#DejaVuSans-74"/>
      <use x="532.380859" xlink:href="#DejaVuSans-69"/>
      <use x="560.164062" xlink:href="#DejaVuSans-76"/>
      <use x="619.34375" xlink:href="#DejaVuSans-65"/>
      <use x="680.867188" xlink:href="#DejaVuSans-20"/>
      <use x="712.654297" xlink:href="#DejaVuSans-52"/>
      <use x="782.105469" xlink:href="#DejaVuSans-61"/>
      <use x="843.384766" xlink:href="#DejaVuSans-74"/>
      <use x="882.59375" xlink:href="#DejaVuSans-65"/>
     </g>
    </g>
   </g>
   <g id="matplotlib.axis_2">
    <g id="ytick_1">
     <g id="line2d_7">
      <defs>
       <path d="M 0 0 
L -3.5 0 
" id="m6ccfa203f9" style="stroke:#000000;stroke-width:0.8;"/>
      </defs>
      <g>
       <use style="stroke:#000000;stroke-width:0.8;" x="43.78125" xlink:href="#m6ccfa203f9" y="301.8675"/>
      </g>
     </g>
     <g id="text_8">
      <!-- 0.0 -->
      <g transform="translate(20.878125 305.666719)scale(0.1 -0.1)">
       <use xlink:href="#DejaVuSans-30"/>
       <use x="63.623047" xlink:href="#DejaVuSans-2e"/>
       <use x="95.410156" xlink:href="#DejaVuSans-30"/>
      </g>
     </g>
    </g>
    <g id="ytick_2">
     <g id="line2d_8">
      <g>
       <use style="stroke:#000000;stroke-width:0.8;" x="43.78125" xlink:href="#m6ccfa203f9" y="251.1795"/>
      </g>
     </g>
     <g id="text_9">
      <!-- 0.2 -->
      <g transform="translate(20.878125 254.978719)scale(0.1 -0.1)">
       <use xlink:href="#DejaVuSans-30"/>
       <use x="63.623047" xlink:href="#DejaVuSans-2e"/>
       <use x="95.410156" xlink:href="#DejaVuSans-32"/>
      </g>
     </g>
    </g>
    <g id="ytick_3">
     <g id="line2d_9">
      <g>
       <use style="stroke:#000000;stroke-width:0.8;" x="43.78125" xlink:href="#m6ccfa203f9" y="200.4915"/>
      </g>
     </g>
     <g id="text_10">
      <!-- 0.4 -->
      <g transform="translate(20.878125 204.290719)scale(0.1 -0.1)">
       <use xlink:href="#DejaVuSans-30"/>
       <use x="63.623047" xlink:href="#DejaVuSans-2e"/>
       <use x="95.410156" xlink:href="#DejaVuSans-34"/>
      </g>
     </g>
    </g>
    <g id="ytick_4">
     <g id="line2d_10">
      <g>
       <use style="stroke:#000000;stroke-width:0.8;" x="43.78125" xlink:href="#m6ccfa203f9" y="149.8035"/>
      </g>
     </g>
     <g id="text_11">
      <!-- 0.6 -->
      <g transform="translate(20.878125 153.602719)scale(0.1 -0.1)">
       <use xlink:href="#DejaVuSans-30"/>
       <use x="63.623047" xlink:href="#DejaVuSans-2e"/>
       <use x="95.410156" xlink:href="#DejaVuSans-36"/>
      </g>
     </g>
    </g>
    <g id="ytick_5">
     <g id="line2d_11">
      <g>
       <use style="stroke:#000000;stroke-width:0.8;" x="43.78125" xlink:href="#m6ccfa203f9" y="99.1155"/>
      </g>
     </g>
     <g id="text_12">
      <!-- 0.8 -->
      <g transform="translate(20.878125 102.914719)scale(0.1 -0.1)">
       <use xlink:href="#DejaVuSans-30"/>
       <use x="63.623047" xlink:href="#DejaVuSans-2e"/>
       <use x="95.410156" xlink:href="#DejaVuSans-38"/>
      </g>
     </g>
    </g>
    <g id="ytick_6">
     <g id="line2d_12">
      <g>
       <use style="stroke:#000000;stroke-width:0.8;" x="43.78125" xlink:href="#m6ccfa203f9" y="48.4275"/>
      </g>
     </g>
     <g id="text_13">
      <!-- 1.0 -->
      <g transform="translate(20.878125 52.226719)scale(0.1 -0.1)">
       <use xlink:href="#DejaVuSans-31"/>
       <use x="63.623047" xlink:href="#DejaVuSans-2e"/>
       <use x="95.410156" xlink:href="#DejaVuSans-30"/>
      </g>
     </g>
    </g>
    <g id="text_14">
     <!-- True Positive Rate -->
     <defs>
      <path d="M -0.296875 72.90625 
L 61.375 72.90625 
L 61.375 64.59375 
L 35.5 64.59375 
L 35.5 0 
L 25.59375 0 
L 25.59375 64.59375 
L -0.296875 64.59375 
z
" id="DejaVuSans-54"/>
      <path d="M 41.109375 46.296875 
Q 39.59375 47.171875 37.8125 47.578125 
Q 36.03125 48 33.890625 48 
Q 26.265625 48 22.1875 43.046875 
Q 18.109375 38.09375 18.109375 28.8125 
L 18.109375 0 
L 9.078125 0 
L 9.078125 54.6875 
L 18.109375 54.6875 
L 18.109375 46.1875 
Q 20.953125 51.171875 25.484375 53.578125 
Q 30.03125 56 36.53125 56 
Q 37.453125 56 38.578125 55.875 
Q 39.703125 55.765625 41.0625 55.515625 
z
" id="DejaVuSans-72"/>
      <path d="M 8.5 21.578125 
L 8.5 54.6875 
L 17.484375 54.6875 
L 17.484375 21.921875 
Q 17.484375 14.15625 20.5 10.265625 
Q 23.53125 6.390625 29.59375 6.390625 
Q 36.859375 6.390625 41.078125 11.03125 
Q 45.3125 15.671875 45.3125 23.6875 
L 45.3125 54.6875 
L 54.296875 54.6875 
L 54.296875 0 
L 45.3125 0 
L 45.3125 8.40625 
Q 42.046875 3.421875 37.71875 1 
Q 33.40625 -1.421875 27.6875 -1.421875 
Q 18.265625 -1.421875 13.375 4.4375 
Q 8.5 10.296875 8.5 21.578125 
M 31.109375 56 
z
" id="DejaVuSans-75"/>
     </defs>
     <g transform="translate(14.798438 214.357594)rotate(-90)scale(0.1 -0.1)">
      <use xlink:href="#DejaVuSans-54"/>
      <use x="60.865234" xlink:href="#DejaVuSans-72"/>
      <use x="101.978516" xlink:href="#DejaVuSans-75"/>
      <use x="165.357422" xlink:href="#DejaVuSans-65"/>
      <use x="226.880859" xlink:href="#DejaVuSans-20"/>
      <use x="258.667969" xlink:href="#DejaVuSans-50"/>
      <use x="318.923828" xlink:href="#DejaVuSans-6f"/>
      <use x="380.105469" xlink:href="#DejaVuSans-73"/>
      <use x="432.205078" xlink:href="#DejaVuSans-69"/>
      <use x="459.988281" xlink:href="#DejaVuSans-74"/>
      <use x="499.197266" xlink:href="#DejaVuSans-69"/>
      <use x="526.980469" xlink:href="#DejaVuSans-76"/>
      <use x="586.160156" xlink:href="#DejaVuSans-65"/>
      <use x="647.683594" xlink:href="#DejaVuSans-20"/>
      <use x="679.470703" xlink:href="#DejaVuSans-52"/>
      <use x="748.921875" xlink:href="#DejaVuSans-61"/>
      <use x="810.201172" xlink:href="#DejaVuSans-74"/>
      <use x="849.410156" xlink:href="#DejaVuSans-65"/>
     </g>
    </g>
   </g>
   <g id="line2d_13">
    <path clip-path="url(#pf0666a55aa)" d="M 43.78125 301.8675 
L 44.017648 301.8675 
L 44.194946 300.751024 
L 44.254045 300.751024 
L 44.307235 299.913667 
L 44.573182 299.913667 
L 44.862769 295.447764 
L 44.975058 294.610407 
L 45.063707 294.610407 
L 45.335564 292.377456 
L 45.394664 292.377456 
L 45.542412 291.540099 
L 45.631062 291.540099 
L 45.76699 289.865385 
L 46.074307 288.190672 
L 46.239785 285.678601 
L 46.322525 284.841244 
L 46.458453 282.329174 
L 46.606202 282.329174 
L 47.008078 277.584152 
L 47.096727 277.584152 
L 47.309485 275.072081 
L 47.368584 275.072081 
L 47.404044 273.676487 
L 47.522243 273.676487 
L 51.481903 242.415165 
L 51.80104 241.577808 
L 51.854229 239.903095 
L 53.479463 227.342742 
L 53.514923 226.226267 
L 54.188656 221.202126 
L 54.247755 221.202126 
L 54.371864 218.690055 
L 54.519613 218.690055 
L 54.77965 215.898866 
L 54.927399 215.898866 
L 55.086967 213.386795 
L 55.234716 213.386795 
L 55.666141 210.037368 
L 55.872989 205.571465 
L 55.991188 205.571465 
L 56.322145 201.105562 
L 56.381244 201.105562 
L 56.901319 192.731993 
L 56.989968 192.731993 
L 57.037247 192.173756 
L 57.155446 192.173756 
L 57.202726 191.336399 
L 57.468673 191.336399 
L 57.616422 188.824328 
L 57.965108 185.75402 
L 58.053757 185.75402 
L 58.236965 184.079306 
L 58.325615 184.079306 
L 58.361074 182.96283 
L 58.538372 182.96283 
L 58.621112 182.125474 
L 58.975708 182.125474 
L 60.204976 168.727764 
L 60.677771 168.727764 
L 60.872799 166.773932 
L 61.020548 166.773932 
L 61.126927 165.936575 
L 61.481523 165.936575 
L 61.676551 164.54098 
L 62.149346 164.54098 
L 62.291185 163.703623 
L 63.029928 163.703623 
L 63.189496 162.308029 
L 63.337245 162.308029 
L 63.425894 161.470672 
L 63.603192 161.470672 
L 63.839589 158.958601 
L 64.164636 158.958601 
L 64.306475 158.400363 
L 64.897469 158.400363 
L 64.944748 157.842126 
L 65.447093 157.842126 
L 65.494373 156.167412 
L 65.908069 156.167412 
L 66.097187 154.771817 
L 66.363134 152.817985 
L 66.481333 152.817985 
L 66.623172 151.980628 
L 66.77092 151.980628 
L 67.019138 151.143271 
L 67.066417 149.468557 
L 67.273265 149.468557 
L 67.616042 146.398249 
L 69.152626 146.398249 
L 69.264915 146.11913 
L 69.442213 146.11913 
L 69.625422 144.723535 
L 69.950468 144.723535 
L 70.068667 144.165297 
L 70.541462 144.165297 
L 70.671481 143.327941 
L 70.842869 143.048822 
L 70.961068 143.048822 
L 71.357034 141.094989 
L 72.095777 141.094989 
L 72.202156 140.536751 
L 72.290805 140.536751 
L 72.361724 139.699394 
L 73.041367 139.699394 
L 73.159566 139.141156 
L 73.336865 138.862037 
L 73.957408 138.862037 
L 74.181986 138.024681 
L 74.258815 136.349967 
L 74.997558 136.349967 
L 75.174856 135.51261 
L 75.529453 135.51261 
L 75.74812 133.558778 
L 75.80722 133.558778 
L 75.878139 132.721421 
L 77.76932 132.721421 
L 77.846149 131.046707 
L 78.732641 131.046707 
L 78.969038 130.488469 
L 79.707781 130.488469 
L 79.879169 130.20935 
L 81.445303 130.20935 
L 81.563502 129.651112 
L 82.124947 129.651112 
L 82.302245 129.371993 
L 82.74549 129.371993 
L 82.857779 127.69728 
L 84.926259 127.69728 
L 85.008998 126.859923 
L 85.274945 126.859923 
L 85.422694 126.580804 
L 85.552712 125.743447 
L 85.641362 125.743447 
L 85.75956 125.464328 
L 87.709841 125.464328 
L 87.869409 124.626971 
L 89.701491 124.626971 
L 89.76059 124.347852 
L 91.060777 124.347852 
L 91.202616 123.510496 
L 91.76406 123.510496 
L 92.230946 121.556663 
L 92.609182 121.556663 
L 92.697831 120.998425 
L 94.175316 120.998425 
L 94.352614 120.719306 
L 95.061807 120.719306 
L 95.262745 119.323711 
L 97.567622 119.323711 
L 97.739011 118.486355 
L 98.566402 118.486355 
L 98.684601 117.928117 
L 98.950548 117.928117 
L 99.068747 117.648998 
L 100.014338 117.648998 
L 100.067527 115.974284 
L 101.988258 115.974284 
L 102.425594 114.857808 
L 102.490603 113.741333 
L 102.933849 113.741333 
L 103.022498 113.462214 
L 103.968088 113.462214 
L 104.157206 112.345738 
L 105.191446 112.345738 
L 105.356924 111.7875 
L 109.730281 111.7875 
L 109.901669 110.950143 
L 112.176996 110.950143 
L 112.259735 110.112786 
L 112.496133 110.112786 
L 112.584782 109.27543 
L 112.968928 109.27543 
L 113.057577 108.996311 
L 113.169866 107.321597 
L 117.170896 107.321597 
L 117.318645 106.763359 
L 117.377744 106.763359 
L 117.507763 105.926002 
L 118.069207 105.926002 
L 118.151947 105.088645 
L 120.663671 105.088645 
L 120.80551 104.251289 
L 121.426054 104.251289 
L 121.502883 102.576575 
L 124.327835 102.576575 
L 124.440124 101.739218 
L 125.710761 101.739218 
L 125.84078 100.901861 
L 126.431774 100.901861 
L 126.579522 100.622742 
L 126.82183 100.622742 
L 126.940029 100.064504 
L 129.097157 100.064504 
L 129.256726 99.227148 
L 129.877269 99.227148 
L 130.007288 98.389791 
L 134.528393 98.389791 
L 134.563852 95.87772 
L 136.277735 95.87772 
L 136.366384 95.598601 
L 137.914789 95.598601 
L 137.985708 94.761244 
L 139.285895 94.761244 
L 139.368634 94.482126 
L 139.989178 94.482126 
L 140.166476 94.203007 
L 141.496213 94.203007 
L 141.555313 93.923888 
L 149.297335 93.923888 
L 149.456904 93.086531 
L 150.106997 93.086531 
L 150.284295 92.807412 
L 154.8645 92.807412 
L 154.923599 92.528293 
L 158.410464 92.528293 
L 162.665622 91.690936 
L 162.80746 91.411817 
L 162.86656 87.225033 
L 164.580442 87.225033 
L 164.905489 86.945914 
L 165.526033 86.945914 
L 165.673781 86.666795 
L 166.944419 86.666795 
L 167.109897 84.992081 
L 171.8083 84.992081 
L 171.973779 84.433844 
L 172.535223 84.433844 
L 176.938129 82.480011 
L 180.986438 82.480011 
L 181.163737 81.921773 
L 182.523023 81.921773 
L 182.576213 80.247059 
L 182.753511 80.247059 
L 182.8067 78.572346 
L 183.634092 78.572346 
L 183.722741 78.293227 
L 186.677712 78.293227 
L 186.80182 74.9438 
L 190.052288 74.9438 
L 190.211856 74.106443 
L 191.571143 73.827324 
L 195.383054 73.827324 
L 195.530803 73.548205 
L 198.615792 73.548205 
L 198.84037 71.594372 
L 208.042148 71.594372 
L 208.118977 71.036134 
L 209.714661 71.036134 
L 209.951059 70.477896 
L 211.133047 70.477896 
L 211.192146 70.198778 
L 219.909309 70.198778 
L 220.411654 69.361421 
L 222.302835 69.361421 
L 222.438764 68.803183 
L 223.413904 68.803183 
L 223.756681 67.965826 
L 226.238856 67.965826 
L 230.346265 64.058161 
L 230.523563 64.058161 
L 230.600392 63.499923 
L 233.584913 63.499923 
L 233.998608 63.220804 
L 235.387445 63.220804 
L 235.446544 62.941685 
L 247.030028 62.941685 
L 247.083218 61.266971 
L 250.658732 61.266971 
L 250.729651 60.429615 
L 252.000289 60.429615 
L 252.071208 59.592258 
L 258.158447 59.592258 
L 258.377115 58.754901 
L 262.248126 58.754901 
L 262.319045 57.917544 
L 263.85563 57.917544 
L 263.932459 57.359306 
L 270.403845 57.359306 
L 270.480674 56.801068 
L 273.051498 56.801068 
L 273.134237 56.521949 
L 273.370635 56.521949 
L 273.536113 55.963711 
L 277.259376 55.963711 
L 277.330295 55.126355 
L 278.394085 55.126355 
L 278.524103 54.288998 
L 292.767061 54.288998 
L 297.317715 53.451641 
L 303.87775 53.451641 
L 304.025498 53.172522 
L 305.999419 53.172522 
L 306.070338 52.335165 
L 322.588623 52.335165 
L 322.647722 50.93957 
L 328.587213 50.93957 
L 328.711322 49.823095 
L 357.380445 49.823095 
L 357.693672 49.264857 
L 369.980439 49.264857 
L 370.140008 48.4275 
L 400.90125 48.4275 
L 400.90125 48.4275 
" style="fill:none;stroke:#1f77b4;stroke-linecap:square;stroke-width:1.5;"/>
   </g>
   <g id="line2d_14">
    <path clip-path="url(#pf0666a55aa)" d="M 43.78125 301.8675 
L 43.840349 301.8675 
L 43.899449 301.030143 
L 44.017648 301.030143 
L 44.106297 300.471905 
L 44.431344 292.935694 
L 44.608642 291.26098 
L 44.78594 291.26098 
L 45.087347 287.632434 
L 45.205546 287.632434 
L 45.264645 287.353315 
L 45.353294 285.678601 
L 46.889879 273.676487 
L 47.037627 272.001773 
L 47.096727 272.001773 
L 47.333124 269.489703 
L 47.480873 269.489703 
L 47.604982 266.977632 
L 47.75864 265.0238 
L 47.81774 265.0238 
L 48.320085 262.511729 
L 48.408734 262.511729 
L 48.526933 261.674372 
L 48.82243 261.674372 
L 49.058827 260.557896 
L 50.624962 247.718425 
L 50.74316 244.368998 
L 50.920459 243.531641 
L 51.470083 240.182214 
L 51.617832 237.670143 
L 52.031528 237.670143 
L 52.226556 235.99543 
L 54.088187 221.481244 
L 54.265485 221.481244 
L 54.448693 219.806531 
L 54.625992 219.806531 
L 55.157886 217.015341 
L 55.270175 215.340628 
L 55.417924 215.340628 
L 55.902539 211.153844 
L 56.020738 211.153844 
L 56.286685 207.525297 
L 56.463983 207.525297 
L 56.641281 206.967059 
L 56.77721 204.17587 
L 56.954508 204.17587 
L 57.273645 199.989086 
L 57.539592 199.989086 
L 57.716891 199.430848 
L 57.894189 199.430848 
L 58.124677 196.081421 
L 58.284245 193.290231 
L 58.431994 193.290231 
L 58.573832 192.452874 
L 59.342124 188.545209 
L 59.401224 188.545209 
L 59.489873 187.707852 
L 59.78537 187.707852 
L 59.915389 186.870496 
L 60.004038 186.870496 
L 60.181336 186.312258 
L 60.305445 184.637544 
L 60.571392 184.637544 
L 61.227396 180.171641 
L 61.552442 180.171641 
L 61.729741 179.613403 
L 61.995688 179.613403 
L 62.113887 179.055165 
L 62.379834 179.055165 
L 62.580772 175.984857 
L 62.964918 175.984857 
L 63.301785 173.472786 
L 63.715481 171.239835 
L 63.951878 171.239835 
L 64.070077 170.681597 
L 64.158726 170.681597 
L 64.247375 170.123359 
L 64.838369 170.123359 
L 65.015668 169.006883 
L 65.133867 169.006883 
L 65.287525 167.33217 
L 65.937619 167.33217 
L 66.026268 166.773932 
L 66.469513 166.773932 
L 66.599532 165.936575 
L 66.983678 165.936575 
L 67.231896 164.261861 
L 68.709381 164.261861 
L 68.886679 163.145385 
L 69.359474 162.587148 
L 69.625422 160.912434 
L 69.80272 160.075077 
L 70.068667 160.075077 
L 70.305065 155.888293 
L 70.535553 154.492698 
L 70.890149 154.492698 
L 71.037898 153.93446 
L 71.215196 153.93446 
L 71.392494 153.097104 
L 71.717541 153.097104 
L 71.847559 152.538866 
L 72.172606 152.538866 
L 72.320355 151.701509 
L 72.556752 151.701509 
L 72.734051 150.864152 
L 72.911349 150.864152 
L 73.029548 149.468557 
L 73.265945 149.468557 
L 73.401874 148.6312 
L 73.78602 148.6312 
L 73.892399 147.793844 
L 73.981048 147.793844 
L 74.051967 147.235606 
L 74.406564 147.235606 
L 74.666601 145.002654 
L 75.080297 145.002654 
L 75.387614 142.490584 
L 75.434894 141.653227 
L 75.878139 141.653227 
L 75.966788 140.81587 
L 76.291835 140.81587 
L 76.380484 139.699394 
L 79.039958 139.699394 
L 79.234986 138.862037 
L 80.121477 138.862037 
L 80.210126 138.024681 
L 80.978418 138.024681 
L 81.096617 136.908205 
L 81.185266 136.908205 
L 81.398024 134.396134 
L 81.870819 134.396134 
L 82.000838 133.558778 
L 82.089487 133.558778 
L 82.325885 131.604945 
L 83.80337 131.604945 
L 83.874289 130.767588 
L 84.110687 130.767588 
L 84.376634 129.651112 
L 84.731231 129.651112 
L 85.026728 129.092874 
L 85.351774 129.092874 
L 85.440424 128.534637 
L 87.242956 128.534637 
L 87.479353 127.976399 
L 87.83395 127.976399 
L 87.963968 127.139042 
L 88.052617 127.139042 
L 88.123537 126.301685 
L 88.419034 126.301685 
L 88.507683 126.022566 
L 88.980478 126.022566 
L 89.157776 125.464328 
L 90.280665 125.464328 
L 90.517063 124.90609 
L 92.201396 124.90609 
L 92.437794 124.068733 
L 92.674191 124.068733 
L 92.851489 123.510496 
L 94.594922 123.510496 
L 94.713121 121.835782 
L 95.954208 121.835782 
L 96.101957 120.998425 
L 100.445764 120.998425 
L 100.729441 118.486355 
L 100.906739 118.486355 
L 101.084037 117.648998 
L 101.438634 117.648998 
L 101.574562 116.532522 
L 102.342855 116.532522 
L 102.396044 115.974284 
L 106.444354 115.974284 
L 106.497543 114.29957 
L 107.679531 114.29957 
L 107.750451 113.462214 
L 109.641632 113.462214 
L 109.81893 112.903976 
L 111.76921 112.903976 
L 111.928779 111.229262 
L 114.558702 111.229262 
L 114.7951 109.554548 
L 114.972398 109.554548 
L 115.238346 108.717192 
L 117.986468 108.717192 
L 118.252416 107.879835 
L 118.991158 107.879835 
L 119.257105 106.763359 
L 119.670801 106.763359 
L 119.936749 104.530407 
L 126.408134 104.530407 
L 126.514513 103.97217 
L 126.603162 103.97217 
L 126.733181 103.134813 
L 129.540403 103.134813 
L 129.682241 101.460099 
L 130.982428 101.460099 
L 131.396124 100.622742 
L 131.662071 100.622742 
L 131.798 100.064504 
L 136.851 100.064504 
L 137.099217 99.227148 
L 137.193776 97.552434 
L 137.518823 97.552434 
L 137.696121 96.715077 
L 138.050718 96.715077 
L 138.157097 96.156839 
L 140.349685 96.156839 
L 140.526983 95.598601 
L 142.890959 95.598601 
L 143.026888 95.040363 
L 146.750151 95.040363 
L 146.79743 94.482126 
L 147.77257 94.482126 
L 149.072757 92.528293 
L 150.81619 92.528293 
L 150.975758 91.690936 
L 153.78298 91.690936 
L 153.83026 91.132698 
L 154.096207 91.132698 
L 157.258026 81.642654 
L 157.730821 81.642654 
L 157.766281 80.526178 
L 159.509713 80.526178 
L 159.716561 79.688822 
L 162.322845 79.688822 
L 162.706991 79.130584 
L 164.86412 79.130584 
L 165.691511 78.293227 
L 169.503423 78.293227 
L 169.651172 77.734989 
L 171.158207 77.734989 
L 171.495073 76.339394 
L 171.672372 76.339394 
L 174.80464 70.477896 
L 176.282125 70.477896 
L 177.78916 69.082302 
L 177.877809 67.965826 
L 178.055108 67.965826 
L 178.149667 66.84935 
L 178.326965 66.291112 
L 183.173117 66.291112 
L 183.439064 65.453756 
L 184.236906 65.453756 
L 184.325555 65.174637 
L 184.384654 64.33728 
L 187.605572 64.33728 
L 187.78287 63.779042 
L 188.196566 63.779042 
L 188.432964 63.220804 
L 188.87621 63.220804 
L 188.994408 62.662566 
L 190.117297 62.662566 
L 190.253226 62.104328 
L 190.519173 62.104328 
L 190.607822 61.825209 
L 192.233056 61.825209 
L 192.386714 60.708733 
L 196.966919 60.708733 
L 197.321515 59.871377 
L 201.694871 59.871377 
L 201.84262 59.313139 
L 204.206596 59.313139 
L 204.472544 58.475782 
L 210.323385 58.475782 
L 210.589332 57.917544 
L 211.653122 57.917544 
L 211.712221 57.359306 
L 223.478914 57.359306 
L 223.597112 56.801068 
L 225.340545 56.801068 
L 225.429194 56.521949 
L 237.544573 56.521949 
L 237.580033 55.405474 
L 250.020458 55.405474 
L 250.156387 54.568117 
L 250.688282 54.568117 
L 250.776931 54.009879 
L 259.765951 54.009879 
L 260.031898 53.172522 
L 262.632272 53.172522 
L 262.750471 52.614284 
L 269.978329 52.614284 
L 270.131987 51.497808 
L 292.347455 51.497808 
L 292.524753 50.93957 
L 313.126807 50.93957 
L 313.233186 50.102214 
L 314.267426 50.102214 
L 314.326525 48.985738 
L 394.175737 48.985738 
L 394.282116 48.4275 
L 400.90125 48.4275 
L 400.90125 48.4275 
" style="fill:none;stroke:#ff7f0e;stroke-linecap:square;stroke-width:1.5;"/>
   </g>
   <g id="line2d_15">
    <path clip-path="url(#pf0666a55aa)" d="M 43.78125 301.8675 
L 43.869901 301.02922 
L 43.929001 301.02922 
L 44.106302 301.02922 
L 44.460904 299.35266 
L 44.549555 299.35266 
L 44.904157 295.720113 
L 45.25876 295.720113 
L 45.436061 295.16126 
L 45.613362 292.366993 
L 45.672462 292.366993 
L 45.938414 289.293299 
L 46.115715 289.293299 
L 46.257556 286.499033 
L 46.671259 283.425339 
L 49.508078 269.454005 
L 49.685379 269.454005 
L 50.116812 266.100885 
L 50.175912 266.100885 
L 50.601435 261.350631 
L 50.778736 261.350631 
L 51.45839 258.276938 
L 55.95002 235.36395 
L 56.03867 235.36395 
L 56.215971 233.68739 
L 56.541024 233.68739 
L 57.019737 230.054843 
L 57.155668 227.819429 
L 57.332969 227.819429 
L 57.45708 225.304589 
L 57.658021 223.069176 
L 58.119004 219.436629 
L 58.178104 219.436629 
L 58.461786 216.921789 
L 58.639087 214.686375 
L 58.964139 214.686375 
L 59.200541 213.289242 
L 59.289192 213.289242 
L 59.490133 209.936122 
L 59.578784 209.936122 
L 59.797455 208.538988 
L 59.945206 208.538988 
L 60.193428 206.583002 
L 60.282078 206.583002 
L 60.352999 205.744722 
L 60.61895 205.744722 
L 60.766701 204.627015 
L 61.032653 204.068162 
L 61.239504 202.391601 
L 61.653207 202.391601 
L 61.759588 201.273895 
L 61.895519 199.597335 
L 62.13192 199.597335 
L 62.202841 199.038481 
L 63.000696 199.038481 
L 63.237097 197.641348 
L 63.6508 197.641348 
L 63.709901 197.082494 
L 63.851742 195.405934 
L 63.922662 194.567654 
L 64.099963 194.567654 
L 64.407285 192.332241 
L 64.850538 192.332241 
L 65.010109 191.773388 
L 65.276061 191.773388 
L 65.524282 190.655681 
L 66.026636 190.655681 
L 66.133016 188.699694 
L 66.310318 188.699694 
L 66.576269 187.861414 
L 66.989972 187.861414 
L 67.244104 185.626001 
L 68.24881 185.626001 
L 68.319731 184.787721 
L 68.940285 184.787721 
L 69.011205 183.94944 
L 69.365808 183.94944 
L 69.454458 183.11116 
L 70.577366 183.11116 
L 70.713296 182.552307 
L 70.949698 182.552307 
L 71.126999 181.714027 
L 71.481602 181.714027 
L 71.658903 180.037467 
L 72.102156 180.037467 
L 72.173076 179.199187 
L 72.586779 179.199187 
L 72.657699 178.640334 
L 72.7759 178.640334 
L 73.071402 176.684347 
L 73.337354 176.684347 
L 73.573755 175.846067 
L 74.017008 175.846067 
L 74.25341 174.169507 
L 74.430711 174.169507 
L 74.608012 172.772373 
L 74.962614 172.772373 
L 75.346767 170.53696 
L 75.81957 170.53696 
L 75.955501 169.978106 
L 76.635155 169.978106 
L 76.812456 169.139826 
L 76.930657 169.139826 
L 77.019308 168.301546 
L 77.28526 168.301546 
L 77.4271 167.742693 
L 77.722602 167.742693 
L 77.793523 167.18384 
L 78.029924 167.18384 
L 78.295876 165.507279 
L 79.418784 165.507279 
L 79.536984 164.948426 
L 79.950687 164.948426 
L 80.275739 161.595306 
L 80.718992 161.595306 
L 80.896293 160.757026 
L 81.339546 160.757026 
L 81.428197 159.080466 
L 81.812349 159.080466 
L 82.036931 156.845052 
L 83.39624 156.845052 
L 83.573541 156.006772 
L 84.016794 156.006772 
L 84.087714 155.168492 
L 84.678718 155.168492 
L 84.91512 153.491932 
L 85.00377 153.491932 
L 85.311092 151.256519 
L 86.138498 151.256519 
L 86.262608 149.579959 
L 87.681018 149.579959 
L 87.740118 149.021105 
L 88.153821 149.021105 
L 88.301572 148.182825 
L 88.863025 148.182825 
L 88.981226 147.623972 
L 89.069877 147.623972 
L 89.158527 146.785692 
L 90.399635 146.785692 
L 90.458736 146.226838 
L 91.788495 146.226838 
L 91.859415 145.667985 
L 92.036716 145.667985 
L 92.214017 143.991425 
L 92.302668 143.153145 
L 92.805021 143.153145 
L 93.277824 141.197158 
L 93.809728 141.197158 
L 93.969299 140.638305 
L 94.678504 140.638305 
L 94.855805 138.961745 
L 94.944455 138.123465 
L 95.334518 138.123465 
L 95.511819 136.446905 
L 102.337914 136.446905 
L 102.485665 135.608625 
L 102.751616 135.608625 
L 102.840267 134.770345 
L 104.199576 134.770345 
L 104.376877 134.211491 
L 105.233833 134.211491 
L 105.411134 132.534931 
L 107.213696 132.534931 
L 107.249156 131.417224 
L 108.401613 131.417224 
L 108.578915 129.740664 
L 109.229019 129.740664 
L 109.494971 128.902384 
L 113.247845 128.902384 
L 113.336496 127.225824 
L 113.779749 127.225824 
L 114.104801 125.828691 
L 114.282102 125.828691 
L 114.353022 125.269837 
L 115.56458 125.269837 
L 115.653231 124.431557 
L 116.421536 124.431557 
L 116.480636 123.872704 
L 117.869495 123.872704 
L 118.029067 121.357864 
L 118.383669 121.357864 
L 118.454589 120.519584 
L 119.607047 120.519584 
L 119.731158 119.401877 
L 122.390675 119.401877 
L 122.449775 119.12245 
L 123.18853 119.12245 
L 123.454482 118.28417 
L 124.931992 118.28417 
L 125.050193 118.004744 
L 125.493445 118.004744 
L 125.623466 117.166464 
L 126.421321 117.166464 
L 126.468602 116.60761 
L 128.212063 116.60761 
L 128.271164 116.048757 
L 128.684866 116.048757 
L 128.773517 115.210477 
L 131.373934 115.210477 
L 131.492135 114.651623 
L 131.728536 113.813343 
L 133.087845 113.813343 
L 133.176496 113.25449 
L 133.265146 111.57793 
L 133.8266 111.57793 
L 133.915251 110.73965 
L 135.126809 110.73965 
L 135.27456 109.621943 
L 135.954214 109.621943 
L 136.072415 109.06309 
L 136.427017 109.06309 
L 136.515668 107.38653 
L 136.781619 107.38653 
L 136.87027 106.54825 
L 137.520374 106.54825 
L 137.668125 104.87169 
L 140.800446 104.87169 
L 140.977747 103.19513 
L 142.100654 103.19513 
L 142.277955 102.35685 
L 144.257818 102.35685 
L 144.346469 101.518569 
L 145.262525 101.518569 
L 145.392546 100.680289 
L 145.481196 100.680289 
L 145.599397 100.400863 
L 145.98355 100.400863 
L 146.04265 99.842009 
L 146.426803 99.842009 
L 146.485903 99.283156 
L 147.076907 99.283156 
L 147.236478 98.724303 
L 147.413779 98.724303 
L 147.50243 97.886023 
L 150.280148 97.886023 
L 150.368798 97.047743 
L 152.732814 97.047743 
L 153.122876 93.694622 
L 153.388828 93.694622 
L 153.548399 92.856342 
L 154.434905 92.856342 
L 154.523556 91.179782 
L 156.060166 91.179782 
L 156.148816 90.341502 
L 156.71027 90.341502 
L 156.958492 89.503222 
L 158.406451 89.503222 
L 158.495102 88.664942 
L 161.184169 88.664942 
L 161.521041 87.547235 
L 162.525748 87.547235 
L 162.673499 85.870675 
L 162.76215 85.870675 
L 162.939451 85.032395 
L 164.29876 85.032395 
L 164.38741 84.473542 
L 169.942847 84.473542 
L 170.090598 83.914689 
L 182.472129 83.914689 
L 182.64943 83.076408 
L 183.063133 83.076408 
L 185.456698 79.443862 
L 188.116216 79.443862 
L 188.187136 78.605582 
L 196.526201 78.605582 
L 196.585301 78.326155 
L 197.88551 78.326155 
L 198.104181 77.208448 
L 199.020237 77.208448 
L 199.132528 76.370168 
L 206.992879 76.370168 
L 207.1229 75.531888 
L 207.211551 75.531888 
L 207.625254 74.414181 
L 207.891205 74.414181 
L 207.979856 73.575901 
L 211.762281 73.575901 
L 216.19481 60.442847 
L 254.816913 60.442847 
L 254.905563 59.604567 
L 260.667851 59.604567 
L 260.756502 58.766287 
L 265.720934 58.766287 
L 265.898235 57.089727 
L 266.489239 57.089727 
L 266.63699 56.251447 
L 271.282281 56.251447 
L 271.353201 55.413167 
L 275.383848 55.413167 
L 275.549329 54.854314 
L 276.317634 54.854314 
L 276.494935 54.574887 
L 284.384837 54.574887 
L 284.443937 54.016034 
L 288.01951 54.016034 
L 288.285462 53.177754 
L 330.536329 53.177754 
L 330.595429 52.898327 
L 333.225397 52.898327 
L 333.337687 51.221767 
L 341.493541 51.221767 
L 341.611742 50.94234 
L 357.746147 50.94234 
L 357.834798 50.10406 
L 360.523865 50.10406 
L 360.683436 49.26578 
L 398.389484 49.26578 
L 398.448584 48.986353 
L 400.044294 48.986353 
L 400.103395 48.4275 
L 400.90125 48.4275 
L 400.90125 48.4275 
" style="fill:none;stroke:#2ca02c;stroke-linecap:square;stroke-width:1.5;"/>
   </g>
   <g id="line2d_16">
    <path clip-path="url(#pf0666a55aa)" d="M 43.78125 301.8675 
L 400.90125 48.4275 
" style="fill:none;stroke:#000000;stroke-dasharray:5.6,2.4;stroke-dashoffset:0;stroke-width:1.5;"/>
   </g>
   <g id="patch_3">
    <path d="M 43.78125 301.8675 
L 43.78125 35.7555 
" style="fill:none;stroke:#000000;stroke-linecap:square;stroke-linejoin:miter;stroke-width:0.8;"/>
   </g>
   <g id="patch_4">
    <path d="M 400.90125 301.8675 
L 400.90125 35.7555 
" style="fill:none;stroke:#000000;stroke-linecap:square;stroke-linejoin:miter;stroke-width:0.8;"/>
   </g>
   <g id="patch_5">
    <path d="M 43.78125 301.8675 
L 400.90125 301.8675 
" style="fill:none;stroke:#000000;stroke-linecap:square;stroke-linejoin:miter;stroke-width:0.8;"/>
   </g>
   <g id="patch_6">
    <path d="M 43.78125 35.7555 
L 400.90125 35.7555 
" style="fill:none;stroke:#000000;stroke-linecap:square;stroke-linejoin:miter;stroke-width:0.8;"/>
   </g>
   <g id="text_15">
    <!-- ROC Curve GradientBoosting + RandomOverSampler -->
    <defs>
     <path d="M 39.40625 66.21875 
Q 28.65625 66.21875 22.328125 58.203125 
Q 16.015625 50.203125 16.015625 36.375 
Q 16.015625 22.609375 22.328125 14.59375 
Q 28.65625 6.59375 39.40625 6.59375 
Q 50.140625 6.59375 56.421875 14.59375 
Q 62.703125 22.609375 62.703125 36.375 
Q 62.703125 50.203125 56.421875 58.203125 
Q 50.140625 66.21875 39.40625 66.21875 
M 39.40625 74.21875 
Q 54.734375 74.21875 63.90625 63.9375 
Q 73.09375 53.65625 73.09375 36.375 
Q 73.09375 19.140625 63.90625 8.859375 
Q 54.734375 -1.421875 39.40625 -1.421875 
Q 24.03125 -1.421875 14.8125 8.828125 
Q 5.609375 19.09375 5.609375 36.375 
Q 5.609375 53.65625 14.8125 63.9375 
Q 24.03125 74.21875 39.40625 74.21875 
" id="DejaVuSans-4f"/>
     <path d="M 64.40625 67.28125 
L 64.40625 56.890625 
Q 59.421875 61.53125 53.78125 63.8125 
Q 48.140625 66.109375 41.796875 66.109375 
Q 29.296875 66.109375 22.65625 58.46875 
Q 16.015625 50.828125 16.015625 36.375 
Q 16.015625 21.96875 22.65625 14.328125 
Q 29.296875 6.6875 41.796875 6.6875 
Q 48.140625 6.6875 53.78125 8.984375 
Q 59.421875 11.28125 64.40625 15.921875 
L 64.40625 5.609375 
Q 59.234375 2.09375 53.4375 0.328125 
Q 47.65625 -1.421875 41.21875 -1.421875 
Q 24.65625 -1.421875 15.125 8.703125 
Q 5.609375 18.84375 5.609375 36.375 
Q 5.609375 53.953125 15.125 64.078125 
Q 24.65625 74.21875 41.21875 74.21875 
Q 47.75 74.21875 53.53125 72.484375 
Q 59.328125 70.75 64.40625 67.28125 
" id="DejaVuSans-43"/>
     <path d="M 59.515625 10.40625 
L 59.515625 29.984375 
L 43.40625 29.984375 
L 43.40625 38.09375 
L 69.28125 38.09375 
L 69.28125 6.78125 
Q 63.578125 2.734375 56.6875 0.65625 
Q 49.8125 -1.421875 42 -1.421875 
Q 24.90625 -1.421875 15.25 8.5625 
Q 5.609375 18.5625 5.609375 36.375 
Q 5.609375 54.25 15.25 64.234375 
Q 24.90625 74.21875 42 74.21875 
Q 49.125 74.21875 55.546875 72.453125 
Q 61.96875 70.703125 67.390625 67.28125 
L 67.390625 56.78125 
Q 61.921875 61.421875 55.765625 63.765625 
Q 49.609375 66.109375 42.828125 66.109375 
Q 29.4375 66.109375 22.71875 58.640625 
Q 16.015625 51.171875 16.015625 36.375 
Q 16.015625 21.625 22.71875 14.15625 
Q 29.4375 6.6875 42.828125 6.6875 
Q 48.046875 6.6875 52.140625 7.59375 
Q 56.25 8.5 59.515625 10.40625 
" id="DejaVuSans-47"/>
     <path d="M 45.40625 46.390625 
L 45.40625 75.984375 
L 54.390625 75.984375 
L 54.390625 0 
L 45.40625 0 
L 45.40625 8.203125 
Q 42.578125 3.328125 38.25 0.953125 
Q 33.9375 -1.421875 27.875 -1.421875 
Q 17.96875 -1.421875 11.734375 6.484375 
Q 5.515625 14.40625 5.515625 27.296875 
Q 5.515625 40.1875 11.734375 48.09375 
Q 17.96875 56 27.875 56 
Q 33.9375 56 38.25 53.625 
Q 42.578125 51.265625 45.40625 46.390625 
M 14.796875 27.296875 
Q 14.796875 17.390625 18.875 11.75 
Q 22.953125 6.109375 30.078125 6.109375 
Q 37.203125 6.109375 41.296875 11.75 
Q 45.40625 17.390625 45.40625 27.296875 
Q 45.40625 37.203125 41.296875 42.84375 
Q 37.203125 48.484375 30.078125 48.484375 
Q 22.953125 48.484375 18.875 42.84375 
Q 14.796875 37.203125 14.796875 27.296875 
" id="DejaVuSans-64"/>
     <path d="M 54.890625 33.015625 
L 54.890625 0 
L 45.90625 0 
L 45.90625 32.71875 
Q 45.90625 40.484375 42.875 44.328125 
Q 39.84375 48.1875 33.796875 48.1875 
Q 26.515625 48.1875 22.3125 43.546875 
Q 18.109375 38.921875 18.109375 30.90625 
L 18.109375 0 
L 9.078125 0 
L 9.078125 54.6875 
L 18.109375 54.6875 
L 18.109375 46.1875 
Q 21.34375 51.125 25.703125 53.5625 
Q 30.078125 56 35.796875 56 
Q 45.21875 56 50.046875 50.171875 
Q 54.890625 44.34375 54.890625 33.015625 
" id="DejaVuSans-6e"/>
     <path d="M 19.671875 34.8125 
L 19.671875 8.109375 
L 35.5 8.109375 
Q 43.453125 8.109375 47.28125 11.40625 
Q 51.125 14.703125 51.125 21.484375 
Q 51.125 28.328125 47.28125 31.5625 
Q 43.453125 34.8125 35.5 34.8125 
z
M 19.671875 64.796875 
L 19.671875 42.828125 
L 34.28125 42.828125 
Q 41.5 42.828125 45.03125 45.53125 
Q 48.578125 48.25 48.578125 53.8125 
Q 48.578125 59.328125 45.03125 62.0625 
Q 41.5 64.796875 34.28125 64.796875 
z
M 9.8125 72.90625 
L 35.015625 72.90625 
Q 46.296875 72.90625 52.390625 68.21875 
Q 58.5 63.53125 58.5 54.890625 
Q 58.5 48.1875 55.375 44.234375 
Q 52.25 40.28125 46.1875 39.3125 
Q 53.46875 37.75 57.5 32.78125 
Q 61.53125 27.828125 61.53125 20.40625 
Q 61.53125 10.640625 54.890625 5.3125 
Q 48.25 0 35.984375 0 
L 9.8125 0 
z
" id="DejaVuSans-42"/>
     <path d="M 45.40625 27.984375 
Q 45.40625 37.75 41.375 43.109375 
Q 37.359375 48.484375 30.078125 48.484375 
Q 22.859375 48.484375 18.828125 43.109375 
Q 14.796875 37.75 14.796875 27.984375 
Q 14.796875 18.265625 18.828125 12.890625 
Q 22.859375 7.515625 30.078125 7.515625 
Q 37.359375 7.515625 41.375 12.890625 
Q 45.40625 18.265625 45.40625 27.984375 
M 54.390625 6.78125 
Q 54.390625 -7.171875 48.1875 -13.984375 
Q 42 -20.796875 29.203125 -20.796875 
Q 24.46875 -20.796875 20.265625 -20.09375 
Q 16.0625 -19.390625 12.109375 -17.921875 
L 12.109375 -9.1875 
Q 16.0625 -11.328125 19.921875 -12.34375 
Q 23.78125 -13.375 27.78125 -13.375 
Q 36.625 -13.375 41.015625 -8.765625 
Q 45.40625 -4.15625 45.40625 5.171875 
L 45.40625 9.625 
Q 42.625 4.78125 38.28125 2.390625 
Q 33.9375 0 27.875 0 
Q 17.828125 0 11.671875 7.65625 
Q 5.515625 15.328125 5.515625 27.984375 
Q 5.515625 40.671875 11.671875 48.328125 
Q 17.828125 56 27.875 56 
Q 33.9375 56 38.28125 53.609375 
Q 42.625 51.21875 45.40625 46.390625 
L 45.40625 54.6875 
L 54.390625 54.6875 
z
" id="DejaVuSans-67"/>
     <path d="M 46 62.703125 
L 46 35.5 
L 73.1875 35.5 
L 73.1875 27.203125 
L 46 27.203125 
L 46 0 
L 37.796875 0 
L 37.796875 27.203125 
L 10.59375 27.203125 
L 10.59375 35.5 
L 37.796875 35.5 
L 37.796875 62.703125 
z
" id="DejaVuSans-2b"/>
     <path d="M 52 44.1875 
Q 55.375 50.25 60.0625 53.125 
Q 64.75 56 71.09375 56 
Q 79.640625 56 84.28125 50.015625 
Q 88.921875 44.046875 88.921875 33.015625 
L 88.921875 0 
L 79.890625 0 
L 79.890625 32.71875 
Q 79.890625 40.578125 77.09375 44.375 
Q 74.3125 48.1875 68.609375 48.1875 
Q 61.625 48.1875 57.5625 43.546875 
Q 53.515625 38.921875 53.515625 30.90625 
L 53.515625 0 
L 44.484375 0 
L 44.484375 32.71875 
Q 44.484375 40.625 41.703125 44.40625 
Q 38.921875 48.1875 33.109375 48.1875 
Q 26.21875 48.1875 22.15625 43.53125 
Q 18.109375 38.875 18.109375 30.90625 
L 18.109375 0 
L 9.078125 0 
L 9.078125 54.6875 
L 18.109375 54.6875 
L 18.109375 46.1875 
Q 21.1875 51.21875 25.484375 53.609375 
Q 29.78125 56 35.6875 56 
Q 41.65625 56 45.828125 52.96875 
Q 50 49.953125 52 44.1875 
" id="DejaVuSans-6d"/>
     <path d="M 53.515625 70.515625 
L 53.515625 60.890625 
Q 47.90625 63.578125 42.921875 64.890625 
Q 37.9375 66.21875 33.296875 66.21875 
Q 25.25 66.21875 20.875 63.09375 
Q 16.5 59.96875 16.5 54.203125 
Q 16.5 49.359375 19.40625 46.890625 
Q 22.3125 44.4375 30.421875 42.921875 
L 36.375 41.703125 
Q 47.40625 39.59375 52.65625 34.296875 
Q 57.90625 29 57.90625 20.125 
Q 57.90625 9.515625 50.796875 4.046875 
Q 43.703125 -1.421875 29.984375 -1.421875 
Q 24.8125 -1.421875 18.96875 -0.25 
Q 13.140625 0.921875 6.890625 3.21875 
L 6.890625 13.375 
Q 12.890625 10.015625 18.65625 8.296875 
Q 24.421875 6.59375 29.984375 6.59375 
Q 38.421875 6.59375 43.015625 9.90625 
Q 47.609375 13.234375 47.609375 19.390625 
Q 47.609375 24.75 44.3125 27.78125 
Q 41.015625 30.8125 33.5 32.328125 
L 27.484375 33.5 
Q 16.453125 35.6875 11.515625 40.375 
Q 6.59375 45.0625 6.59375 53.421875 
Q 6.59375 63.09375 13.40625 68.65625 
Q 20.21875 74.21875 32.171875 74.21875 
Q 37.3125 74.21875 42.625 73.28125 
Q 47.953125 72.359375 53.515625 70.515625 
" id="DejaVuSans-53"/>
     <path d="M 18.109375 8.203125 
L 18.109375 -20.796875 
L 9.078125 -20.796875 
L 9.078125 54.6875 
L 18.109375 54.6875 
L 18.109375 46.390625 
Q 20.953125 51.265625 25.265625 53.625 
Q 29.59375 56 35.59375 56 
Q 45.5625 56 51.78125 48.09375 
Q 58.015625 40.1875 58.015625 27.296875 
Q 58.015625 14.40625 51.78125 6.484375 
Q 45.5625 -1.421875 35.59375 -1.421875 
Q 29.59375 -1.421875 25.265625 0.953125 
Q 20.953125 3.328125 18.109375 8.203125 
M 48.6875 27.296875 
Q 48.6875 37.203125 44.609375 42.84375 
Q 40.53125 48.484375 33.40625 48.484375 
Q 26.265625 48.484375 22.1875 42.84375 
Q 18.109375 37.203125 18.109375 27.296875 
Q 18.109375 17.390625 22.1875 11.75 
Q 26.265625 6.109375 33.40625 6.109375 
Q 40.53125 6.109375 44.609375 11.75 
Q 48.6875 17.390625 48.6875 27.296875 
" id="DejaVuSans-70"/>
    </defs>
    <g transform="translate(62.203125 16.318125)scale(0.12 -0.12)">
     <use xlink:href="#DejaVuSans-52"/>
     <use x="69.482422" xlink:href="#DejaVuSans-4f"/>
     <use x="148.193359" xlink:href="#DejaVuSans-43"/>
     <use x="218.017578" xlink:href="#DejaVuSans-20"/>
     <use x="249.804688" xlink:href="#DejaVuSans-43"/>
     <use x="319.628906" xlink:href="#DejaVuSans-75"/>
     <use x="383.007812" xlink:href="#DejaVuSans-72"/>
     <use x="424.121094" xlink:href="#DejaVuSans-76"/>
     <use x="483.300781" xlink:href="#DejaVuSans-65"/>
     <use x="544.824219" xlink:href="#DejaVuSans-20"/>
     <use x="576.611328" xlink:href="#DejaVuSans-47"/>
     <use x="654.101562" xlink:href="#DejaVuSans-72"/>
     <use x="695.214844" xlink:href="#DejaVuSans-61"/>
     <use x="756.494141" xlink:href="#DejaVuSans-64"/>
     <use x="819.970703" xlink:href="#DejaVuSans-69"/>
     <use x="847.753906" xlink:href="#DejaVuSans-65"/>
     <use x="909.277344" xlink:href="#DejaVuSans-6e"/>
     <use x="972.65625" xlink:href="#DejaVuSans-74"/>
     <use x="1011.865234" xlink:href="#DejaVuSans-42"/>
     <use x="1080.46875" xlink:href="#DejaVuSans-6f"/>
     <use x="1141.650391" xlink:href="#DejaVuSans-6f"/>
     <use x="1202.832031" xlink:href="#DejaVuSans-73"/>
     <use x="1254.931641" xlink:href="#DejaVuSans-74"/>
     <use x="1294.140625" xlink:href="#DejaVuSans-69"/>
     <use x="1321.923828" xlink:href="#DejaVuSans-6e"/>
     <use x="1385.302734" xlink:href="#DejaVuSans-67"/>
     <use x="1448.779297" xlink:href="#DejaVuSans-20"/>
     <use x="1480.566406" xlink:href="#DejaVuSans-2b"/>
     <use x="1564.355469" xlink:href="#DejaVuSans-20"/>
     <use x="1596.142578" xlink:href="#DejaVuSans-52"/>
     <use x="1665.59375" xlink:href="#DejaVuSans-61"/>
     <use x="1726.873047" xlink:href="#DejaVuSans-6e"/>
     <use x="1790.251953" xlink:href="#DejaVuSans-64"/>
     <use x="1853.728516" xlink:href="#DejaVuSans-6f"/>
     <use x="1914.910156" xlink:href="#DejaVuSans-6d"/>
     <use x="2012.322266" xlink:href="#DejaVuSans-4f"/>
     <use x="2091.033203" xlink:href="#DejaVuSans-76"/>
     <use x="2150.212891" xlink:href="#DejaVuSans-65"/>
     <use x="2211.736328" xlink:href="#DejaVuSans-72"/>
     <use x="2252.849609" xlink:href="#DejaVuSans-53"/>
     <use x="2316.326172" xlink:href="#DejaVuSans-61"/>
     <use x="2377.605469" xlink:href="#DejaVuSans-6d"/>
     <use x="2475.017578" xlink:href="#DejaVuSans-70"/>
     <use x="2538.494141" xlink:href="#DejaVuSans-6c"/>
     <use x="2566.277344" xlink:href="#DejaVuSans-65"/>
     <use x="2627.800781" xlink:href="#DejaVuSans-72"/>
    </g>
    <!-- Train: 1   Test: [1, 4, 8, 12, 16, 20, 24, 28] -->
    <defs>
     <path d="M 11.71875 12.40625 
L 22.015625 12.40625 
L 22.015625 0 
L 11.71875 0 
z
M 11.71875 51.703125 
L 22.015625 51.703125 
L 22.015625 39.3125 
L 11.71875 39.3125 
z
" id="DejaVuSans-3a"/>
     <path d="M 8.59375 75.984375 
L 29.296875 75.984375 
L 29.296875 69 
L 17.578125 69 
L 17.578125 -6.203125 
L 29.296875 -6.203125 
L 29.296875 -13.1875 
L 8.59375 -13.1875 
z
" id="DejaVuSans-5b"/>
     <path d="M 11.71875 12.40625 
L 22.015625 12.40625 
L 22.015625 4 
L 14.015625 -11.625 
L 7.71875 -11.625 
L 11.71875 4 
z
" id="DejaVuSans-2c"/>
     <path d="M 30.421875 75.984375 
L 30.421875 -13.1875 
L 9.71875 -13.1875 
L 9.71875 -6.203125 
L 21.390625 -6.203125 
L 21.390625 69 
L 9.71875 69 
L 9.71875 75.984375 
z
" id="DejaVuSans-5d"/>
    </defs>
    <g transform="translate(95.858438 29.7555)scale(0.12 -0.12)">
     <use xlink:href="#DejaVuSans-54"/>
     <use x="60.865234" xlink:href="#DejaVuSans-72"/>
     <use x="101.978516" xlink:href="#DejaVuSans-61"/>
     <use x="163.257812" xlink:href="#DejaVuSans-69"/>
     <use x="191.041016" xlink:href="#DejaVuSans-6e"/>
     <use x="254.419922" xlink:href="#DejaVuSans-3a"/>
     <use x="288.111328" xlink:href="#DejaVuSans-20"/>
     <use x="319.898438" xlink:href="#DejaVuSans-31"/>
     <use x="383.521484" xlink:href="#DejaVuSans-20"/>
     <use x="415.308594" xlink:href="#DejaVuSans-20"/>
     <use x="447.095703" xlink:href="#DejaVuSans-20"/>
     <use x="478.882812" xlink:href="#DejaVuSans-54"/>
     <use x="539.701172" xlink:href="#DejaVuSans-65"/>
     <use x="601.224609" xlink:href="#DejaVuSans-73"/>
     <use x="653.324219" xlink:href="#DejaVuSans-74"/>
     <use x="692.533203" xlink:href="#DejaVuSans-3a"/>
     <use x="726.224609" xlink:href="#DejaVuSans-20"/>
     <use x="758.011719" xlink:href="#DejaVuSans-5b"/>
     <use x="797.025391" xlink:href="#DejaVuSans-31"/>
     <use x="860.648438" xlink:href="#DejaVuSans-2c"/>
     <use x="892.435547" xlink:href="#DejaVuSans-20"/>
     <use x="924.222656" xlink:href="#DejaVuSans-34"/>
     <use x="987.845703" xlink:href="#DejaVuSans-2c"/>
     <use x="1019.632812" xlink:href="#DejaVuSans-20"/>
     <use x="1051.419922" xlink:href="#DejaVuSans-38"/>
     <use x="1115.042969" xlink:href="#DejaVuSans-2c"/>
     <use x="1146.830078" xlink:href="#DejaVuSans-20"/>
     <use x="1178.617188" xlink:href="#DejaVuSans-31"/>
     <use x="1242.240234" xlink:href="#DejaVuSans-32"/>
     <use x="1305.863281" xlink:href="#DejaVuSans-2c"/>
     <use x="1337.650391" xlink:href="#DejaVuSans-20"/>
     <use x="1369.4375" xlink:href="#DejaVuSans-31"/>
     <use x="1433.060547" xlink:href="#DejaVuSans-36"/>
     <use x="1496.683594" xlink:href="#DejaVuSans-2c"/>
     <use x="1528.470703" xlink:href="#DejaVuSans-20"/>
     <use x="1560.257812" xlink:href="#DejaVuSans-32"/>
     <use x="1623.880859" xlink:href="#DejaVuSans-30"/>
     <use x="1687.503906" xlink:href="#DejaVuSans-2c"/>
     <use x="1719.291016" xlink:href="#DejaVuSans-20"/>
     <use x="1751.078125" xlink:href="#DejaVuSans-32"/>
     <use x="1814.701172" xlink:href="#DejaVuSans-34"/>
     <use x="1878.324219" xlink:href="#DejaVuSans-2c"/>
     <use x="1910.111328" xlink:href="#DejaVuSans-20"/>
     <use x="1941.898438" xlink:href="#DejaVuSans-32"/>
     <use x="2005.521484" xlink:href="#DejaVuSans-38"/>
     <use x="2069.144531" xlink:href="#DejaVuSans-5d"/>
    </g>
   </g>
   <g id="legend_1">
    <g id="patch_7">
     <path d="M 217.087188 296.8675 
L 393.90125 296.8675 
Q 395.90125 296.8675 395.90125 294.8675 
L 395.90125 251.833125 
Q 395.90125 249.833125 393.90125 249.833125 
L 217.087188 249.833125 
Q 215.087188 249.833125 215.087188 251.833125 
L 215.087188 294.8675 
Q 215.087188 296.8675 217.087188 296.8675 
z
" style="fill:#ffffff;opacity:0.8;stroke:#cccccc;stroke-linejoin:miter;"/>
    </g>
    <g id="line2d_17">
     <path d="M 219.087188 257.931562 
L 239.087188 257.931562 
" style="fill:none;stroke:#1f77b4;stroke-linecap:square;stroke-width:1.5;"/>
    </g>
    <g id="line2d_18"/>
    <g id="text_16">
     <!-- ROC curve - 0 (AUC = 0.862) -->
     <defs>
      <path d="M 48.78125 52.59375 
L 48.78125 44.1875 
Q 44.96875 46.296875 41.140625 47.34375 
Q 37.3125 48.390625 33.40625 48.390625 
Q 24.65625 48.390625 19.8125 42.84375 
Q 14.984375 37.3125 14.984375 27.296875 
Q 14.984375 17.28125 19.8125 11.734375 
Q 24.65625 6.203125 33.40625 6.203125 
Q 37.3125 6.203125 41.140625 7.25 
Q 44.96875 8.296875 48.78125 10.40625 
L 48.78125 2.09375 
Q 45.015625 0.34375 40.984375 -0.53125 
Q 36.96875 -1.421875 32.421875 -1.421875 
Q 20.0625 -1.421875 12.78125 6.34375 
Q 5.515625 14.109375 5.515625 27.296875 
Q 5.515625 40.671875 12.859375 48.328125 
Q 20.21875 56 33.015625 56 
Q 37.15625 56 41.109375 55.140625 
Q 45.0625 54.296875 48.78125 52.59375 
" id="DejaVuSans-63"/>
      <path d="M 4.890625 31.390625 
L 31.203125 31.390625 
L 31.203125 23.390625 
L 4.890625 23.390625 
z
" id="DejaVuSans-2d"/>
      <path d="M 31 75.875 
Q 24.46875 64.65625 21.28125 53.65625 
Q 18.109375 42.671875 18.109375 31.390625 
Q 18.109375 20.125 21.3125 9.0625 
Q 24.515625 -2 31 -13.1875 
L 23.1875 -13.1875 
Q 15.875 -1.703125 12.234375 9.375 
Q 8.59375 20.453125 8.59375 31.390625 
Q 8.59375 42.28125 12.203125 53.3125 
Q 15.828125 64.359375 23.1875 75.875 
z
" id="DejaVuSans-28"/>
      <path d="M 34.1875 63.1875 
L 20.796875 26.90625 
L 47.609375 26.90625 
z
M 28.609375 72.90625 
L 39.796875 72.90625 
L 67.578125 0 
L 57.328125 0 
L 50.6875 18.703125 
L 17.828125 18.703125 
L 11.1875 0 
L 0.78125 0 
z
" id="DejaVuSans-41"/>
      <path d="M 8.6875 72.90625 
L 18.609375 72.90625 
L 18.609375 28.609375 
Q 18.609375 16.890625 22.84375 11.734375 
Q 27.09375 6.59375 36.625 6.59375 
Q 46.09375 6.59375 50.34375 11.734375 
Q 54.59375 16.890625 54.59375 28.609375 
L 54.59375 72.90625 
L 64.5 72.90625 
L 64.5 27.390625 
Q 64.5 13.140625 57.4375 5.859375 
Q 50.390625 -1.421875 36.625 -1.421875 
Q 22.796875 -1.421875 15.734375 5.859375 
Q 8.6875 13.140625 8.6875 27.390625 
z
" id="DejaVuSans-55"/>
      <path d="M 10.59375 45.40625 
L 73.1875 45.40625 
L 73.1875 37.203125 
L 10.59375 37.203125 
z
M 10.59375 25.484375 
L 73.1875 25.484375 
L 73.1875 17.1875 
L 10.59375 17.1875 
z
" id="DejaVuSans-3d"/>
      <path d="M 8.015625 75.875 
L 15.828125 75.875 
Q 23.140625 64.359375 26.78125 53.3125 
Q 30.421875 42.28125 30.421875 31.390625 
Q 30.421875 20.453125 26.78125 9.375 
Q 23.140625 -1.703125 15.828125 -13.1875 
L 8.015625 -13.1875 
Q 14.5 -2 17.703125 9.0625 
Q 20.90625 20.125 20.90625 31.390625 
Q 20.90625 42.671875 17.703125 53.65625 
Q 14.5 64.65625 8.015625 75.875 
" id="DejaVuSans-29"/>
     </defs>
     <g transform="translate(247.087188 261.431562)scale(0.1 -0.1)">
      <use xlink:href="#DejaVuSans-52"/>
      <use x="69.482422" xlink:href="#DejaVuSans-4f"/>
      <use x="148.193359" xlink:href="#DejaVuSans-43"/>
      <use x="218.017578" xlink:href="#DejaVuSans-20"/>
      <use x="249.804688" xlink:href="#DejaVuSans-63"/>
      <use x="304.785156" xlink:href="#DejaVuSans-75"/>
      <use x="368.164062" xlink:href="#DejaVuSans-72"/>
      <use x="409.277344" xlink:href="#DejaVuSans-76"/>
      <use x="468.457031" xlink:href="#DejaVuSans-65"/>
      <use x="529.980469" xlink:href="#DejaVuSans-20"/>
      <use x="561.767578" xlink:href="#DejaVuSans-2d"/>
      <use x="597.851562" xlink:href="#DejaVuSans-20"/>
      <use x="629.638672" xlink:href="#DejaVuSans-30"/>
      <use x="693.261719" xlink:href="#DejaVuSans-20"/>
      <use x="725.048828" xlink:href="#DejaVuSans-28"/>
      <use x="764.0625" xlink:href="#DejaVuSans-41"/>
      <use x="832.470703" xlink:href="#DejaVuSans-55"/>
      <use x="905.664062" xlink:href="#DejaVuSans-43"/>
      <use x="975.488281" xlink:href="#DejaVuSans-20"/>
      <use x="1007.275391" xlink:href="#DejaVuSans-3d"/>
      <use x="1091.064453" xlink:href="#DejaVuSans-20"/>
      <use x="1122.851562" xlink:href="#DejaVuSans-30"/>
      <use x="1186.474609" xlink:href="#DejaVuSans-2e"/>
      <use x="1218.261719" xlink:href="#DejaVuSans-38"/>
      <use x="1281.884766" xlink:href="#DejaVuSans-36"/>
      <use x="1345.507812" xlink:href="#DejaVuSans-32"/>
      <use x="1409.130859" xlink:href="#DejaVuSans-29"/>
     </g>
    </g>
    <g id="line2d_19">
     <path d="M 219.087188 272.609687 
L 239.087188 272.609687 
" style="fill:none;stroke:#ff7f0e;stroke-linecap:square;stroke-width:1.5;"/>
    </g>
    <g id="line2d_20"/>
    <g id="text_17">
     <!-- ROC curve - 1 (AUC = 0.872) -->
     <defs>
      <path d="M 8.203125 72.90625 
L 55.078125 72.90625 
L 55.078125 68.703125 
L 28.609375 0 
L 18.3125 0 
L 43.21875 64.59375 
L 8.203125 64.59375 
z
" id="DejaVuSans-37"/>
     </defs>
     <g transform="translate(247.087188 276.109687)scale(0.1 -0.1)">
      <use xlink:href="#DejaVuSans-52"/>
      <use x="69.482422" xlink:href="#DejaVuSans-4f"/>
      <use x="148.193359" xlink:href="#DejaVuSans-43"/>
      <use x="218.017578" xlink:href="#DejaVuSans-20"/>
      <use x="249.804688" xlink:href="#DejaVuSans-63"/>
      <use x="304.785156" xlink:href="#DejaVuSans-75"/>
      <use x="368.164062" xlink:href="#DejaVuSans-72"/>
      <use x="409.277344" xlink:href="#DejaVuSans-76"/>
      <use x="468.457031" xlink:href="#DejaVuSans-65"/>
      <use x="529.980469" xlink:href="#DejaVuSans-20"/>
      <use x="561.767578" xlink:href="#DejaVuSans-2d"/>
      <use x="597.851562" xlink:href="#DejaVuSans-20"/>
      <use x="629.638672" xlink:href="#DejaVuSans-31"/>
      <use x="693.261719" xlink:href="#DejaVuSans-20"/>
      <use x="725.048828" xlink:href="#DejaVuSans-28"/>
      <use x="764.0625" xlink:href="#DejaVuSans-41"/>
      <use x="832.470703" xlink:href="#DejaVuSans-55"/>
      <use x="905.664062" xlink:href="#DejaVuSans-43"/>
      <use x="975.488281" xlink:href="#DejaVuSans-20"/>
      <use x="1007.275391" xlink:href="#DejaVuSans-3d"/>
      <use x="1091.064453" xlink:href="#DejaVuSans-20"/>
      <use x="1122.851562" xlink:href="#DejaVuSans-30"/>
      <use x="1186.474609" xlink:href="#DejaVuSans-2e"/>
      <use x="1218.261719" xlink:href="#DejaVuSans-38"/>
      <use x="1281.884766" xlink:href="#DejaVuSans-37"/>
      <use x="1345.507812" xlink:href="#DejaVuSans-32"/>
      <use x="1409.130859" xlink:href="#DejaVuSans-29"/>
     </g>
    </g>
    <g id="line2d_21">
     <path d="M 219.087188 287.287812 
L 239.087188 287.287812 
" style="fill:none;stroke:#2ca02c;stroke-linecap:square;stroke-width:1.5;"/>
    </g>
    <g id="line2d_22"/>
    <g id="text_18">
     <!-- ROC curve - 2 (AUC = 0.837) -->
     <defs>
      <path d="M 40.578125 39.3125 
Q 47.65625 37.796875 51.625 33 
Q 55.609375 28.21875 55.609375 21.1875 
Q 55.609375 10.40625 48.1875 4.484375 
Q 40.765625 -1.421875 27.09375 -1.421875 
Q 22.515625 -1.421875 17.65625 -0.515625 
Q 12.796875 0.390625 7.625 2.203125 
L 7.625 11.71875 
Q 11.71875 9.328125 16.59375 8.109375 
Q 21.484375 6.890625 26.8125 6.890625 
Q 36.078125 6.890625 40.9375 10.546875 
Q 45.796875 14.203125 45.796875 21.1875 
Q 45.796875 27.640625 41.28125 31.265625 
Q 36.765625 34.90625 28.71875 34.90625 
L 20.21875 34.90625 
L 20.21875 43.015625 
L 29.109375 43.015625 
Q 36.375 43.015625 40.234375 45.921875 
Q 44.09375 48.828125 44.09375 54.296875 
Q 44.09375 59.90625 40.109375 62.90625 
Q 36.140625 65.921875 28.71875 65.921875 
Q 24.65625 65.921875 20.015625 65.03125 
Q 15.375 64.15625 9.8125 62.3125 
L 9.8125 71.09375 
Q 15.4375 72.65625 20.34375 73.4375 
Q 25.25 74.21875 29.59375 74.21875 
Q 40.828125 74.21875 47.359375 69.109375 
Q 53.90625 64.015625 53.90625 55.328125 
Q 53.90625 49.265625 50.4375 45.09375 
Q 46.96875 40.921875 40.578125 39.3125 
" id="DejaVuSans-33"/>
     </defs>
     <g transform="translate(247.087188 290.787812)scale(0.1 -0.1)">
      <use xlink:href="#DejaVuSans-52"/>
      <use x="69.482422" xlink:href="#DejaVuSans-4f"/>
      <use x="148.193359" xlink:href="#DejaVuSans-43"/>
      <use x="218.017578" xlink:href="#DejaVuSans-20"/>
      <use x="249.804688" xlink:href="#DejaVuSans-63"/>
      <use x="304.785156" xlink:href="#DejaVuSans-75"/>
      <use x="368.164062" xlink:href="#DejaVuSans-72"/>
      <use x="409.277344" xlink:href="#DejaVuSans-76"/>
      <use x="468.457031" xlink:href="#DejaVuSans-65"/>
      <use x="529.980469" xlink:href="#DejaVuSans-20"/>
      <use x="561.767578" xlink:href="#DejaVuSans-2d"/>
      <use x="597.851562" xlink:href="#DejaVuSans-20"/>
      <use x="629.638672" xlink:href="#DejaVuSans-32"/>
      <use x="693.261719" xlink:href="#DejaVuSans-20"/>
      <use x="725.048828" xlink:href="#DejaVuSans-28"/>
      <use x="764.0625" xlink:href="#DejaVuSans-41"/>
      <use x="832.470703" xlink:href="#DejaVuSans-55"/>
      <use x="905.664062" xlink:href="#DejaVuSans-43"/>
      <use x="975.488281" xlink:href="#DejaVuSans-20"/>
      <use x="1007.275391" xlink:href="#DejaVuSans-3d"/>
      <use x="1091.064453" xlink:href="#DejaVuSans-20"/>
      <use x="1122.851562" xlink:href="#DejaVuSans-30"/>
      <use x="1186.474609" xlink:href="#DejaVuSans-2e"/>
      <use x="1218.261719" xlink:href="#DejaVuSans-38"/>
      <use x="1281.884766" xlink:href="#DejaVuSans-33"/>
      <use x="1345.507812" xlink:href="#DejaVuSans-37"/>
      <use x="1409.130859" xlink:href="#DejaVuSans-29"/>
     </g>
    </g>
   </g>
  </g>
 </g>
 <defs>
  <clipPath id="pf0666a55aa">
   <rect height="266.112" width="357.12" x="43.78125" y="35.7555"/>
  </clipPath>
 </defs>
</svg>
