<?xml version="1.0" encoding="utf-8" standalone="no"?>
<!DOCTYPE svg PUBLIC "-//W3C//DTD SVG 1.1//EN"
  "http://www.w3.org/Graphics/SVG/1.1/DTD/svg11.dtd">
<!-- Created with matplotlib (http://matplotlib.org/) -->
<svg height="339pt" version="1.1" viewBox="0 0 416 339" width="416pt" xmlns="http://www.w3.org/2000/svg" xmlns:xlink="http://www.w3.org/1999/xlink">
 <defs>
  <style type="text/css">
*{stroke-linecap:butt;stroke-linejoin:round;}
  </style>
 </defs>
 <g id="figure_1">
  <g id="patch_1">
   <path d="M 0 339.42375 
L 416.052813 339.42375 
L 416.052813 0 
L 0 0 
z
" style="fill:#ffffff;"/>
  </g>
  <g id="axes_1">
   <g id="patch_2">
    <path d="M 43.78125 301.8675 
L 400.90125 301.8675 
L 400.90125 35.7555 
L 43.78125 35.7555 
z
" style="fill:#ffffff;"/>
   </g>
   <g id="matplotlib.axis_1">
    <g id="xtick_1">
     <g id="line2d_1">
      <defs>
       <path d="M 0 0 
L 0 3.5 
" id="mb3c2c69702" style="stroke:#000000;stroke-width:0.8;"/>
      </defs>
      <g>
       <use style="stroke:#000000;stroke-width:0.8;" x="43.78125" xlink:href="#mb3c2c69702" y="301.8675"/>
      </g>
     </g>
     <g id="text_1">
      <!-- 0.0 -->
      <defs>
       <path d="M 31.78125 66.40625 
Q 24.171875 66.40625 20.328125 58.90625 
Q 16.5 51.421875 16.5 36.375 
Q 16.5 21.390625 20.328125 13.890625 
Q 24.171875 6.390625 31.78125 6.390625 
Q 39.453125 6.390625 43.28125 13.890625 
Q 47.125 21.390625 47.125 36.375 
Q 47.125 51.421875 43.28125 58.90625 
Q 39.453125 66.40625 31.78125 66.40625 
M 31.78125 74.21875 
Q 44.046875 74.21875 50.515625 64.515625 
Q 56.984375 54.828125 56.984375 36.375 
Q 56.984375 17.96875 50.515625 8.265625 
Q 44.046875 -1.421875 31.78125 -1.421875 
Q 19.53125 -1.421875 13.0625 8.265625 
Q 6.59375 17.96875 6.59375 36.375 
Q 6.59375 54.828125 13.0625 64.515625 
Q 19.53125 74.21875 31.78125 74.21875 
" id="DejaVuSans-30"/>
       <path d="M 10.6875 12.40625 
L 21 12.40625 
L 21 0 
L 10.6875 0 
z
" id="DejaVuSans-2e"/>
      </defs>
      <g transform="translate(35.829688 316.465937)scale(0.1 -0.1)">
       <use xlink:href="#DejaVuSans-30"/>
       <use x="63.623047" xlink:href="#DejaVuSans-2e"/>
       <use x="95.410156" xlink:href="#DejaVuSans-30"/>
      </g>
     </g>
    </g>
    <g id="xtick_2">
     <g id="line2d_2">
      <g>
       <use style="stroke:#000000;stroke-width:0.8;" x="115.20525" xlink:href="#mb3c2c69702" y="301.8675"/>
      </g>
     </g>
     <g id="text_2">
      <!-- 0.2 -->
      <defs>
       <path d="M 19.1875 8.296875 
L 53.609375 8.296875 
L 53.609375 0 
L 7.328125 0 
L 7.328125 8.296875 
Q 12.9375 14.109375 22.625 23.890625 
Q 32.328125 33.6875 34.8125 36.53125 
Q 39.546875 41.84375 41.421875 45.53125 
Q 43.3125 49.21875 43.3125 52.78125 
Q 43.3125 58.59375 39.234375 62.25 
Q 35.15625 65.921875 28.609375 65.921875 
Q 23.96875 65.921875 18.8125 64.3125 
Q 13.671875 62.703125 7.8125 59.421875 
L 7.8125 69.390625 
Q 13.765625 71.78125 18.9375 73 
Q 24.125 74.21875 28.421875 74.21875 
Q 39.75 74.21875 46.484375 68.546875 
Q 53.21875 62.890625 53.21875 53.421875 
Q 53.21875 48.921875 51.53125 44.890625 
Q 49.859375 40.875 45.40625 35.40625 
Q 44.1875 33.984375 37.640625 27.21875 
Q 31.109375 20.453125 19.1875 8.296875 
" id="DejaVuSans-32"/>
      </defs>
      <g transform="translate(107.253688 316.465937)scale(0.1 -0.1)">
       <use xlink:href="#DejaVuSans-30"/>
       <use x="63.623047" xlink:href="#DejaVuSans-2e"/>
       <use x="95.410156" xlink:href="#DejaVuSans-32"/>
      </g>
     </g>
    </g>
    <g id="xtick_3">
     <g id="line2d_3">
      <g>
       <use style="stroke:#000000;stroke-width:0.8;" x="186.62925" xlink:href="#mb3c2c69702" y="301.8675"/>
      </g>
     </g>
     <g id="text_3">
      <!-- 0.4 -->
      <defs>
       <path d="M 37.796875 64.3125 
L 12.890625 25.390625 
L 37.796875 25.390625 
z
M 35.203125 72.90625 
L 47.609375 72.90625 
L 47.609375 25.390625 
L 58.015625 25.390625 
L 58.015625 17.1875 
L 47.609375 17.1875 
L 47.609375 0 
L 37.796875 0 
L 37.796875 17.1875 
L 4.890625 17.1875 
L 4.890625 26.703125 
z
" id="DejaVuSans-34"/>
      </defs>
      <g transform="translate(178.677688 316.465937)scale(0.1 -0.1)">
       <use xlink:href="#DejaVuSans-30"/>
       <use x="63.623047" xlink:href="#DejaVuSans-2e"/>
       <use x="95.410156" xlink:href="#DejaVuSans-34"/>
      </g>
     </g>
    </g>
    <g id="xtick_4">
     <g id="line2d_4">
      <g>
       <use style="stroke:#000000;stroke-width:0.8;" x="258.05325" xlink:href="#mb3c2c69702" y="301.8675"/>
      </g>
     </g>
     <g id="text_4">
      <!-- 0.6 -->
      <defs>
       <path d="M 33.015625 40.375 
Q 26.375 40.375 22.484375 35.828125 
Q 18.609375 31.296875 18.609375 23.390625 
Q 18.609375 15.53125 22.484375 10.953125 
Q 26.375 6.390625 33.015625 6.390625 
Q 39.65625 6.390625 43.53125 10.953125 
Q 47.40625 15.53125 47.40625 23.390625 
Q 47.40625 31.296875 43.53125 35.828125 
Q 39.65625 40.375 33.015625 40.375 
M 52.59375 71.296875 
L 52.59375 62.3125 
Q 48.875 64.0625 45.09375 64.984375 
Q 41.3125 65.921875 37.59375 65.921875 
Q 27.828125 65.921875 22.671875 59.328125 
Q 17.53125 52.734375 16.796875 39.40625 
Q 19.671875 43.65625 24.015625 45.921875 
Q 28.375 48.1875 33.59375 48.1875 
Q 44.578125 48.1875 50.953125 41.515625 
Q 57.328125 34.859375 57.328125 23.390625 
Q 57.328125 12.15625 50.6875 5.359375 
Q 44.046875 -1.421875 33.015625 -1.421875 
Q 20.359375 -1.421875 13.671875 8.265625 
Q 6.984375 17.96875 6.984375 36.375 
Q 6.984375 53.65625 15.1875 63.9375 
Q 23.390625 74.21875 37.203125 74.21875 
Q 40.921875 74.21875 44.703125 73.484375 
Q 48.484375 72.75 52.59375 71.296875 
" id="DejaVuSans-36"/>
      </defs>
      <g transform="translate(250.101688 316.465937)scale(0.1 -0.1)">
       <use xlink:href="#DejaVuSans-30"/>
       <use x="63.623047" xlink:href="#DejaVuSans-2e"/>
       <use x="95.410156" xlink:href="#DejaVuSans-36"/>
      </g>
     </g>
    </g>
    <g id="xtick_5">
     <g id="line2d_5">
      <g>
       <use style="stroke:#000000;stroke-width:0.8;" x="329.47725" xlink:href="#mb3c2c69702" y="301.8675"/>
      </g>
     </g>
     <g id="text_5">
      <!-- 0.8 -->
      <defs>
       <path d="M 31.78125 34.625 
Q 24.75 34.625 20.71875 30.859375 
Q 16.703125 27.09375 16.703125 20.515625 
Q 16.703125 13.921875 20.71875 10.15625 
Q 24.75 6.390625 31.78125 6.390625 
Q 38.8125 6.390625 42.859375 10.171875 
Q 46.921875 13.96875 46.921875 20.515625 
Q 46.921875 27.09375 42.890625 30.859375 
Q 38.875 34.625 31.78125 34.625 
M 21.921875 38.8125 
Q 15.578125 40.375 12.03125 44.71875 
Q 8.5 49.078125 8.5 55.328125 
Q 8.5 64.0625 14.71875 69.140625 
Q 20.953125 74.21875 31.78125 74.21875 
Q 42.671875 74.21875 48.875 69.140625 
Q 55.078125 64.0625 55.078125 55.328125 
Q 55.078125 49.078125 51.53125 44.71875 
Q 48 40.375 41.703125 38.8125 
Q 48.828125 37.15625 52.796875 32.3125 
Q 56.78125 27.484375 56.78125 20.515625 
Q 56.78125 9.90625 50.3125 4.234375 
Q 43.84375 -1.421875 31.78125 -1.421875 
Q 19.734375 -1.421875 13.25 4.234375 
Q 6.78125 9.90625 6.78125 20.515625 
Q 6.78125 27.484375 10.78125 32.3125 
Q 14.796875 37.15625 21.921875 38.8125 
M 18.3125 54.390625 
Q 18.3125 48.734375 21.84375 45.5625 
Q 25.390625 42.390625 31.78125 42.390625 
Q 38.140625 42.390625 41.71875 45.5625 
Q 45.3125 48.734375 45.3125 54.390625 
Q 45.3125 60.0625 41.71875 63.234375 
Q 38.140625 66.40625 31.78125 66.40625 
Q 25.390625 66.40625 21.84375 63.234375 
Q 18.3125 60.0625 18.3125 54.390625 
" id="DejaVuSans-38"/>
      </defs>
      <g transform="translate(321.525688 316.465937)scale(0.1 -0.1)">
       <use xlink:href="#DejaVuSans-30"/>
       <use x="63.623047" xlink:href="#DejaVuSans-2e"/>
       <use x="95.410156" xlink:href="#DejaVuSans-38"/>
      </g>
     </g>
    </g>
    <g id="xtick_6">
     <g id="line2d_6">
      <g>
       <use style="stroke:#000000;stroke-width:0.8;" x="400.90125" xlink:href="#mb3c2c69702" y="301.8675"/>
      </g>
     </g>
     <g id="text_6">
      <!-- 1.0 -->
      <defs>
       <path d="M 12.40625 8.296875 
L 28.515625 8.296875 
L 28.515625 63.921875 
L 10.984375 60.40625 
L 10.984375 69.390625 
L 28.421875 72.90625 
L 38.28125 72.90625 
L 38.28125 8.296875 
L 54.390625 8.296875 
L 54.390625 0 
L 12.40625 0 
z
" id="DejaVuSans-31"/>
      </defs>
      <g transform="translate(392.949688 316.465937)scale(0.1 -0.1)">
       <use xlink:href="#DejaVuSans-31"/>
       <use x="63.623047" xlink:href="#DejaVuSans-2e"/>
       <use x="95.410156" xlink:href="#DejaVuSans-30"/>
      </g>
     </g>
    </g>
    <g id="text_7">
     <!-- False Positive Rate -->
     <defs>
      <path d="M 9.8125 72.90625 
L 51.703125 72.90625 
L 51.703125 64.59375 
L 19.671875 64.59375 
L 19.671875 43.109375 
L 48.578125 43.109375 
L 48.578125 34.8125 
L 19.671875 34.8125 
L 19.671875 0 
L 9.8125 0 
z
" id="DejaVuSans-46"/>
      <path d="M 34.28125 27.484375 
Q 23.390625 27.484375 19.1875 25 
Q 14.984375 22.515625 14.984375 16.5 
Q 14.984375 11.71875 18.140625 8.90625 
Q 21.296875 6.109375 26.703125 6.109375 
Q 34.1875 6.109375 38.703125 11.40625 
Q 43.21875 16.703125 43.21875 25.484375 
L 43.21875 27.484375 
z
M 52.203125 31.203125 
L 52.203125 0 
L 43.21875 0 
L 43.21875 8.296875 
Q 40.140625 3.328125 35.546875 0.953125 
Q 30.953125 -1.421875 24.3125 -1.421875 
Q 15.921875 -1.421875 10.953125 3.296875 
Q 6 8.015625 6 15.921875 
Q 6 25.140625 12.171875 29.828125 
Q 18.359375 34.515625 30.609375 34.515625 
L 43.21875 34.515625 
L 43.21875 35.40625 
Q 43.21875 41.609375 39.140625 45 
Q 35.0625 48.390625 27.6875 48.390625 
Q 23 48.390625 18.546875 47.265625 
Q 14.109375 46.140625 10.015625 43.890625 
L 10.015625 52.203125 
Q 14.9375 54.109375 19.578125 55.046875 
Q 24.21875 56 28.609375 56 
Q 40.484375 56 46.34375 49.84375 
Q 52.203125 43.703125 52.203125 31.203125 
" id="DejaVuSans-61"/>
      <path d="M 9.421875 75.984375 
L 18.40625 75.984375 
L 18.40625 0 
L 9.421875 0 
z
" id="DejaVuSans-6c"/>
      <path d="M 44.28125 53.078125 
L 44.28125 44.578125 
Q 40.484375 46.53125 36.375 47.5 
Q 32.28125 48.484375 27.875 48.484375 
Q 21.1875 48.484375 17.84375 46.4375 
Q 14.5 44.390625 14.5 40.28125 
Q 14.5 37.15625 16.890625 35.375 
Q 19.28125 33.59375 26.515625 31.984375 
L 29.59375 31.296875 
Q 39.15625 29.25 43.1875 25.515625 
Q 47.21875 21.78125 47.21875 15.09375 
Q 47.21875 7.46875 41.1875 3.015625 
Q 35.15625 -1.421875 24.609375 -1.421875 
Q 20.21875 -1.421875 15.453125 -0.5625 
Q 10.6875 0.296875 5.421875 2 
L 5.421875 11.28125 
Q 10.40625 8.6875 15.234375 7.390625 
Q 20.0625 6.109375 24.8125 6.109375 
Q 31.15625 6.109375 34.5625 8.28125 
Q 37.984375 10.453125 37.984375 14.40625 
Q 37.984375 18.0625 35.515625 20.015625 
Q 33.0625 21.96875 24.703125 23.78125 
L 21.578125 24.515625 
Q 13.234375 26.265625 9.515625 29.90625 
Q 5.8125 33.546875 5.8125 39.890625 
Q 5.8125 47.609375 11.28125 51.796875 
Q 16.75 56 26.8125 56 
Q 31.78125 56 36.171875 55.265625 
Q 40.578125 54.546875 44.28125 53.078125 
" id="DejaVuSans-73"/>
      <path d="M 56.203125 29.59375 
L 56.203125 25.203125 
L 14.890625 25.203125 
Q 15.484375 15.921875 20.484375 11.0625 
Q 25.484375 6.203125 34.421875 6.203125 
Q 39.59375 6.203125 44.453125 7.46875 
Q 49.3125 8.734375 54.109375 11.28125 
L 54.109375 2.78125 
Q 49.265625 0.734375 44.1875 -0.34375 
Q 39.109375 -1.421875 33.890625 -1.421875 
Q 20.796875 -1.421875 13.15625 6.1875 
Q 5.515625 13.8125 5.515625 26.8125 
Q 5.515625 40.234375 12.765625 48.109375 
Q 20.015625 56 32.328125 56 
Q 43.359375 56 49.78125 48.890625 
Q 56.203125 41.796875 56.203125 29.59375 
M 47.21875 32.234375 
Q 47.125 39.59375 43.09375 43.984375 
Q 39.0625 48.390625 32.421875 48.390625 
Q 24.90625 48.390625 20.390625 44.140625 
Q 15.875 39.890625 15.1875 32.171875 
z
" id="DejaVuSans-65"/>
      <path id="DejaVuSans-20"/>
      <path d="M 19.671875 64.796875 
L 19.671875 37.40625 
L 32.078125 37.40625 
Q 38.96875 37.40625 42.71875 40.96875 
Q 46.484375 44.53125 46.484375 51.125 
Q 46.484375 57.671875 42.71875 61.234375 
Q 38.96875 64.796875 32.078125 64.796875 
z
M 9.8125 72.90625 
L 32.078125 72.90625 
Q 44.34375 72.90625 50.609375 67.359375 
Q 56.890625 61.8125 56.890625 51.125 
Q 56.890625 40.328125 50.609375 34.8125 
Q 44.34375 29.296875 32.078125 29.296875 
L 19.671875 29.296875 
L 19.671875 0 
L 9.8125 0 
z
" id="DejaVuSans-50"/>
      <path d="M 30.609375 48.390625 
Q 23.390625 48.390625 19.1875 42.75 
Q 14.984375 37.109375 14.984375 27.296875 
Q 14.984375 17.484375 19.15625 11.84375 
Q 23.34375 6.203125 30.609375 6.203125 
Q 37.796875 6.203125 41.984375 11.859375 
Q 46.1875 17.53125 46.1875 27.296875 
Q 46.1875 37.015625 41.984375 42.703125 
Q 37.796875 48.390625 30.609375 48.390625 
M 30.609375 56 
Q 42.328125 56 49.015625 48.375 
Q 55.71875 40.765625 55.71875 27.296875 
Q 55.71875 13.875 49.015625 6.21875 
Q 42.328125 -1.421875 30.609375 -1.421875 
Q 18.84375 -1.421875 12.171875 6.21875 
Q 5.515625 13.875 5.515625 27.296875 
Q 5.515625 40.765625 12.171875 48.375 
Q 18.84375 56 30.609375 56 
" id="DejaVuSans-6f"/>
      <path d="M 9.421875 54.6875 
L 18.40625 54.6875 
L 18.40625 0 
L 9.421875 0 
z
M 9.421875 75.984375 
L 18.40625 75.984375 
L 18.40625 64.59375 
L 9.421875 64.59375 
z
" id="DejaVuSans-69"/>
      <path d="M 18.3125 70.21875 
L 18.3125 54.6875 
L 36.8125 54.6875 
L 36.8125 47.703125 
L 18.3125 47.703125 
L 18.3125 18.015625 
Q 18.3125 11.328125 20.140625 9.421875 
Q 21.96875 7.515625 27.59375 7.515625 
L 36.8125 7.515625 
L 36.8125 0 
L 27.59375 0 
Q 17.1875 0 13.234375 3.875 
Q 9.28125 7.765625 9.28125 18.015625 
L 9.28125 47.703125 
L 2.6875 47.703125 
L 2.6875 54.6875 
L 9.28125 54.6875 
L 9.28125 70.21875 
z
" id="DejaVuSans-74"/>
      <path d="M 2.984375 54.6875 
L 12.5 54.6875 
L 29.59375 8.796875 
L 46.6875 54.6875 
L 56.203125 54.6875 
L 35.6875 0 
L 23.484375 0 
z
" id="DejaVuSans-76"/>
      <path d="M 44.390625 34.1875 
Q 47.5625 33.109375 50.5625 29.59375 
Q 53.5625 26.078125 56.59375 19.921875 
L 66.609375 0 
L 56 0 
L 46.6875 18.703125 
Q 43.0625 26.03125 39.671875 28.421875 
Q 36.28125 30.8125 30.421875 30.8125 
L 19.671875 30.8125 
L 19.671875 0 
L 9.8125 0 
L 9.8125 72.90625 
L 32.078125 72.90625 
Q 44.578125 72.90625 50.734375 67.671875 
Q 56.890625 62.453125 56.890625 51.90625 
Q 56.890625 45.015625 53.6875 40.46875 
Q 50.484375 35.9375 44.390625 34.1875 
M 19.671875 64.796875 
L 19.671875 38.921875 
L 32.078125 38.921875 
Q 39.203125 38.921875 42.84375 42.21875 
Q 46.484375 45.515625 46.484375 51.90625 
Q 46.484375 58.296875 42.84375 61.546875 
Q 39.203125 64.796875 32.078125 64.796875 
z
" id="DejaVuSans-52"/>
     </defs>
     <g transform="translate(175.135781 330.144062)scale(0.1 -0.1)">
      <use xlink:href="#DejaVuSans-46"/>
      <use x="57.378906" xlink:href="#DejaVuSans-61"/>
      <use x="118.658203" xlink:href="#DejaVuSans-6c"/>
      <use x="146.441406" xlink:href="#DejaVuSans-73"/>
      <use x="198.541016" xlink:href="#DejaVuSans-65"/>
      <use x="260.064453" xlink:href="#DejaVuSans-20"/>
      <use x="291.851562" xlink:href="#DejaVuSans-50"/>
      <use x="352.107422" xlink:href="#DejaVuSans-6f"/>
      <use x="413.289062" xlink:href="#DejaVuSans-73"/>
      <use x="465.388672" xlink:href="#DejaVuSans-69"/>
      <use x="493.171875" xlink:href="#DejaVuSans-74"/>
      <use x="532.380859" xlink:href="#DejaVuSans-69"/>
      <use x="560.164062" xlink:href="#DejaVuSans-76"/>
      <use x="619.34375" xlink:href="#DejaVuSans-65"/>
      <use x="680.867188" xlink:href="#DejaVuSans-20"/>
      <use x="712.654297" xlink:href="#DejaVuSans-52"/>
      <use x="782.105469" xlink:href="#DejaVuSans-61"/>
      <use x="843.384766" xlink:href="#DejaVuSans-74"/>
      <use x="882.59375" xlink:href="#DejaVuSans-65"/>
     </g>
    </g>
   </g>
   <g id="matplotlib.axis_2">
    <g id="ytick_1">
     <g id="line2d_7">
      <defs>
       <path d="M 0 0 
L -3.5 0 
" id="m9eb1e97f83" style="stroke:#000000;stroke-width:0.8;"/>
      </defs>
      <g>
       <use style="stroke:#000000;stroke-width:0.8;" x="43.78125" xlink:href="#m9eb1e97f83" y="301.8675"/>
      </g>
     </g>
     <g id="text_8">
      <!-- 0.0 -->
      <g transform="translate(20.878125 305.666719)scale(0.1 -0.1)">
       <use xlink:href="#DejaVuSans-30"/>
       <use x="63.623047" xlink:href="#DejaVuSans-2e"/>
       <use x="95.410156" xlink:href="#DejaVuSans-30"/>
      </g>
     </g>
    </g>
    <g id="ytick_2">
     <g id="line2d_8">
      <g>
       <use style="stroke:#000000;stroke-width:0.8;" x="43.78125" xlink:href="#m9eb1e97f83" y="251.1795"/>
      </g>
     </g>
     <g id="text_9">
      <!-- 0.2 -->
      <g transform="translate(20.878125 254.978719)scale(0.1 -0.1)">
       <use xlink:href="#DejaVuSans-30"/>
       <use x="63.623047" xlink:href="#DejaVuSans-2e"/>
       <use x="95.410156" xlink:href="#DejaVuSans-32"/>
      </g>
     </g>
    </g>
    <g id="ytick_3">
     <g id="line2d_9">
      <g>
       <use style="stroke:#000000;stroke-width:0.8;" x="43.78125" xlink:href="#m9eb1e97f83" y="200.4915"/>
      </g>
     </g>
     <g id="text_10">
      <!-- 0.4 -->
      <g transform="translate(20.878125 204.290719)scale(0.1 -0.1)">
       <use xlink:href="#DejaVuSans-30"/>
       <use x="63.623047" xlink:href="#DejaVuSans-2e"/>
       <use x="95.410156" xlink:href="#DejaVuSans-34"/>
      </g>
     </g>
    </g>
    <g id="ytick_4">
     <g id="line2d_10">
      <g>
       <use style="stroke:#000000;stroke-width:0.8;" x="43.78125" xlink:href="#m9eb1e97f83" y="149.8035"/>
      </g>
     </g>
     <g id="text_11">
      <!-- 0.6 -->
      <g transform="translate(20.878125 153.602719)scale(0.1 -0.1)">
       <use xlink:href="#DejaVuSans-30"/>
       <use x="63.623047" xlink:href="#DejaVuSans-2e"/>
       <use x="95.410156" xlink:href="#DejaVuSans-36"/>
      </g>
     </g>
    </g>
    <g id="ytick_5">
     <g id="line2d_11">
      <g>
       <use style="stroke:#000000;stroke-width:0.8;" x="43.78125" xlink:href="#m9eb1e97f83" y="99.1155"/>
      </g>
     </g>
     <g id="text_12">
      <!-- 0.8 -->
      <g transform="translate(20.878125 102.914719)scale(0.1 -0.1)">
       <use xlink:href="#DejaVuSans-30"/>
       <use x="63.623047" xlink:href="#DejaVuSans-2e"/>
       <use x="95.410156" xlink:href="#DejaVuSans-38"/>
      </g>
     </g>
    </g>
    <g id="ytick_6">
     <g id="line2d_12">
      <g>
       <use style="stroke:#000000;stroke-width:0.8;" x="43.78125" xlink:href="#m9eb1e97f83" y="48.4275"/>
      </g>
     </g>
     <g id="text_13">
      <!-- 1.0 -->
      <g transform="translate(20.878125 52.226719)scale(0.1 -0.1)">
       <use xlink:href="#DejaVuSans-31"/>
       <use x="63.623047" xlink:href="#DejaVuSans-2e"/>
       <use x="95.410156" xlink:href="#DejaVuSans-30"/>
      </g>
     </g>
    </g>
    <g id="text_14">
     <!-- True Positive Rate -->
     <defs>
      <path d="M -0.296875 72.90625 
L 61.375 72.90625 
L 61.375 64.59375 
L 35.5 64.59375 
L 35.5 0 
L 25.59375 0 
L 25.59375 64.59375 
L -0.296875 64.59375 
z
" id="DejaVuSans-54"/>
      <path d="M 41.109375 46.296875 
Q 39.59375 47.171875 37.8125 47.578125 
Q 36.03125 48 33.890625 48 
Q 26.265625 48 22.1875 43.046875 
Q 18.109375 38.09375 18.109375 28.8125 
L 18.109375 0 
L 9.078125 0 
L 9.078125 54.6875 
L 18.109375 54.6875 
L 18.109375 46.1875 
Q 20.953125 51.171875 25.484375 53.578125 
Q 30.03125 56 36.53125 56 
Q 37.453125 56 38.578125 55.875 
Q 39.703125 55.765625 41.0625 55.515625 
z
" id="DejaVuSans-72"/>
      <path d="M 8.5 21.578125 
L 8.5 54.6875 
L 17.484375 54.6875 
L 17.484375 21.921875 
Q 17.484375 14.15625 20.5 10.265625 
Q 23.53125 6.390625 29.59375 6.390625 
Q 36.859375 6.390625 41.078125 11.03125 
Q 45.3125 15.671875 45.3125 23.6875 
L 45.3125 54.6875 
L 54.296875 54.6875 
L 54.296875 0 
L 45.3125 0 
L 45.3125 8.40625 
Q 42.046875 3.421875 37.71875 1 
Q 33.40625 -1.421875 27.6875 -1.421875 
Q 18.265625 -1.421875 13.375 4.4375 
Q 8.5 10.296875 8.5 21.578125 
M 31.109375 56 
z
" id="DejaVuSans-75"/>
     </defs>
     <g transform="translate(14.798438 214.357594)rotate(-90)scale(0.1 -0.1)">
      <use xlink:href="#DejaVuSans-54"/>
      <use x="60.865234" xlink:href="#DejaVuSans-72"/>
      <use x="101.978516" xlink:href="#DejaVuSans-75"/>
      <use x="165.357422" xlink:href="#DejaVuSans-65"/>
      <use x="226.880859" xlink:href="#DejaVuSans-20"/>
      <use x="258.667969" xlink:href="#DejaVuSans-50"/>
      <use x="318.923828" xlink:href="#DejaVuSans-6f"/>
      <use x="380.105469" xlink:href="#DejaVuSans-73"/>
      <use x="432.205078" xlink:href="#DejaVuSans-69"/>
      <use x="459.988281" xlink:href="#DejaVuSans-74"/>
      <use x="499.197266" xlink:href="#DejaVuSans-69"/>
      <use x="526.980469" xlink:href="#DejaVuSans-76"/>
      <use x="586.160156" xlink:href="#DejaVuSans-65"/>
      <use x="647.683594" xlink:href="#DejaVuSans-20"/>
      <use x="679.470703" xlink:href="#DejaVuSans-52"/>
      <use x="748.921875" xlink:href="#DejaVuSans-61"/>
      <use x="810.201172" xlink:href="#DejaVuSans-74"/>
      <use x="849.410156" xlink:href="#DejaVuSans-65"/>
     </g>
    </g>
   </g>
   <g id="line2d_13">
    <path clip-path="url(#p44cd68a2af)" d="M 43.78125 301.8675 
L 43.816446 301.315944 
L 44.036424 301.315944 
L 44.339992 298.282386 
L 44.515974 298.282386 
L 44.621563 298.006608 
L 44.929532 298.006608 
L 45.013123 297.73083 
L 45.475075 297.73083 
L 45.72145 296.627718 
L 45.831439 296.627718 
L 46.099811 295.524606 
L 46.143807 295.524606 
L 46.275793 292.766825 
L 46.869732 292.766825 
L 47.036915 292.215269 
L 47.586858 292.215269 
L 47.991616 290.009045 
L 48.171998 288.905933 
L 48.237991 288.905933 
L 48.510763 288.354377 
L 48.554758 286.975487 
L 48.686745 286.975487 
L 48.770336 286.699709 
L 48.902322 286.699709 
L 49.095902 285.045041 
L 49.227889 285.045041 
L 49.395072 283.114595 
L 49.813028 283.114595 
L 49.971412 282.011483 
L 50.059403 282.011483 
L 50.442164 279.805258 
L 50.538954 277.599034 
L 50.838123 275.668588 
L 51.014105 275.668588 
L 51.181287 275.117032 
L 51.401265 275.117032 
L 51.630041 274.289698 
L 52.113991 274.289698 
L 52.553946 271.531918 
L 53.323867 271.531918 
L 53.592239 267.671026 
L 53.834214 267.671026 
L 53.904607 266.567913 
L 54.278568 266.567913 
L 54.621733 266.016357 
L 54.84171 266.016357 
L 55.074886 265.464801 
L 55.272866 265.464801 
L 55.334459 265.189023 
L 55.510441 265.189023 
L 58.04458 234.301885 
L 58.132571 234.301885 
L 58.387745 230.992549 
L 58.568126 229.889437 
L 58.700113 229.889437 
L 58.814501 228.786325 
L 58.990483 228.786325 
L 59.096072 227.131657 
L 59.250056 227.131657 
L 59.465634 224.098098 
L 59.817598 222.719208 
L 60.829493 222.719208 
L 61.124263 217.755204 
L 63.680399 204.793637 
L 64.208345 204.793637 
L 64.278738 203.690525 
L 64.393126 202.587413 
L 64.657099 202.587413 
L 64.718692 202.311635 
L 65.048658 202.311635 
L 65.141049 201.208523 
L 65.22904 201.208523 
L 65.32143 200.105411 
L 65.356627 198.174965 
L 65.818579 198.174965 
L 66.034157 197.899187 
L 67.076849 197.899187 
L 67.301226 195.417184 
L 67.521204 195.417184 
L 67.978757 193.762516 
L 68.220732 193.762516 
L 68.343919 193.21096 
L 68.42751 192.935182 
L 68.546298 191.280514 
L 68.766275 191.280514 
L 69.140237 188.522734 
L 69.20623 188.522734 
L 69.452605 187.6954 
L 69.514198 186.040732 
L 69.659383 186.040732 
L 69.817767 184.93762 
L 69.949753 184.93762 
L 69.976151 183.834508 
L 70.292918 181.628283 
L 70.798866 181.628283 
L 70.882457 179.973615 
L 71.058439 179.973615 
L 71.181626 179.422059 
L 71.24762 179.422059 
L 71.458798 177.491613 
L 71.705173 176.388501 
L 71.749168 176.388501 
L 71.938349 175.836945 
L 72.158326 175.836945 
L 72.21552 175.285389 
L 72.567484 175.285389 
L 72.668673 174.733833 
L 73.042635 174.733833 
L 73.135025 173.630721 
L 73.355003 173.630721 
L 74.608873 170.872941 
L 74.635271 169.769829 
L 74.855248 169.769829 
L 74.894844 169.494051 
L 76.104719 169.494051 
L 76.320297 167.839382 
L 76.474281 167.839382 
L 76.509477 167.287826 
L 76.87464 167.287826 
L 77.06822 165.633158 
L 77.112215 165.633158 
L 77.191407 165.081602 
L 77.301396 165.081602 
L 77.776547 163.151156 
L 77.84694 162.048044 
L 78.110912 162.048044 
L 78.247298 160.669154 
L 79.347185 160.669154 
L 79.553964 158.46293 
L 79.611158 157.911374 
L 79.743144 157.911374 
L 79.963122 156.808262 
L 81.230191 156.808262 
L 81.454568 155.70515 
L 81.480965 154.602038 
L 81.938518 152.947369 
L 82.242087 151.292701 
L 82.418069 151.292701 
L 82.629247 147.983365 
L 84.741029 147.983365 
L 84.820221 147.431809 
L 86.184081 147.431809 
L 86.373261 146.880253 
L 87.099186 146.880253 
L 87.477547 145.777141 
L 87.521543 145.777141 
L 88.119881 144.674029 
L 88.383854 144.674029 
L 88.41905 144.122473 
L 88.727018 144.122473 
L 88.784213 143.570917 
L 89.554133 143.570917 
L 89.620126 143.295139 
L 90.236063 143.295139 
L 90.429643 143.019361 
L 90.627623 143.019361 
L 90.711214 142.743583 
L 91.195164 142.743583 
L 91.265557 141.640471 
L 91.595523 141.640471 
L 91.62192 140.537359 
L 95.339537 140.537359 
L 95.585912 139.434246 
L 95.6959 139.434246 
L 95.863083 138.88269 
L 96.206248 138.331134 
L 96.514216 138.331134 
L 96.633004 137.5038 
L 96.892577 137.228022 
L 97.266539 137.228022 
L 97.301735 136.676466 
L 97.433721 136.676466 
L 97.53931 135.021798 
L 98.287233 135.021798 
L 98.366425 134.470242 
L 98.982362 134.470242 
L 99.061554 133.918686 
L 100.865368 133.918686 
L 101.010553 133.36713 
L 101.098544 133.36713 
L 101.322921 132.264018 
L 103.236723 132.264018 
L 103.478698 130.885128 
L 103.610685 130.885128 
L 103.725073 129.782016 
L 103.795466 128.678904 
L 103.927452 128.678904 
L 104.121032 128.403126 
L 104.23542 127.300014 
L 104.279416 127.300014 
L 104.314612 126.748458 
L 105.238517 126.748458 
L 105.423298 124.542233 
L 105.687271 124.542233 
L 105.98644 123.990677 
L 107.033532 123.990677 
L 107.156719 123.439121 
L 107.530681 123.439121 
L 110.372788 122.336009 
L 110.478377 120.681341 
L 111.534268 120.681341 
L 111.582663 119.578229 
L 113.276489 119.578229 
L 113.571258 118.750895 
L 113.791236 118.750895 
L 114.050809 118.475117 
L 114.116802 118.475117 
L 114.244389 116.820449 
L 114.398373 116.820449 
L 114.591953 115.165781 
L 114.701942 115.165781 
L 114.772335 114.062669 
L 115.282682 114.062669 
L 115.353075 112.959557 
L 115.441066 112.959557 
L 115.502659 112.683779 
L 116.0746 112.683779 
L 116.298977 111.580666 
L 116.496957 111.580666 
L 116.580548 111.304888 
L 117.878415 111.304888 
L 117.992803 110.201776 
L 118.652735 110.201776 
L 118.775922 109.65022 
L 121.943596 109.65022 
L 122.115178 109.374442 
L 122.335155 109.374442 
L 122.458343 108.822886 
L 124.262157 108.822886 
L 124.345748 108.547108 
L 125.68761 108.547108 
L 126.123165 108.27133 
L 127.025072 108.27133 
L 127.148259 107.719774 
L 127.192255 107.719774 
L 127.271447 107.168218 
L 127.491424 107.168218 
L 127.570616 106.616662 
L 130.54031 106.616662 
L 130.654698 104.13466 
L 130.73389 103.583104 
L 136.919652 103.583104 
L 136.954849 103.031548 
L 140.870445 103.031548 
L 140.971635 102.479992 
L 141.41159 102.479992 
L 141.543576 101.928436 
L 142.093519 101.928436 
L 142.234305 101.101102 
L 143.44418 101.101102 
L 143.479376 100.549546 
L 144.557265 100.549546 
L 144.640857 100.273768 
L 146.400675 100.273768 
L 146.567858 99.722212 
L 147.535758 99.722212 
L 147.641348 99.446434 
L 148.037307 99.446434 
L 148.29688 96.412875 
L 148.384871 96.412875 
L 148.433266 95.309763 
L 149.643141 95.309763 
L 149.678338 94.758207 
L 152.47205 94.758207 
L 155.322956 94.482429 
L 161.187552 93.655095 
L 164.377223 93.655095 
L 164.460814 93.379317 
L 164.658794 93.379317 
L 164.759984 92.827761 
L 164.847974 92.827761 
L 165.371521 92.551983 
L 165.507906 91.448871 
L 166.189836 91.448871 
L 166.291026 90.897315 
L 166.554999 90.897315 
L 169.960248 90.621537 
L 170.03064 89.518425 
L 173.757056 89.518425 
L 173.924239 88.966869 
L 174.628167 88.966869 
L 174.839345 88.415313 
L 176.005225 88.415313 
L 176.040421 87.863757 
L 176.766346 87.863757 
L 176.907132 87.036423 
L 176.995123 87.036423 
L 177.201901 86.209089 
L 177.399881 86.209089 
L 177.435077 85.657533 
L 179.83283 85.657533 
L 180.180395 84.002865 
L 181.456263 84.002865 
L 184.456754 82.623974 
L 184.676731 82.623974 
L 184.843914 82.072418 
L 188.583529 81.245084 
L 191.438834 80.969306 
L 192.653109 80.141972 
L 193.489023 80.141972 
L 193.568215 79.590416 
L 196.075957 79.590416 
L 196.199144 79.03886 
L 196.52911 79.03886 
L 196.762286 78.487304 
L 198.588098 78.487304 
L 198.706885 77.65997 
L 201.324616 77.65997 
L 201.447803 77.108414 
L 202.173728 77.108414 
L 202.345311 76.832636 
L 203.379204 76.832636 
L 203.431999 76.005302 
L 205.169819 76.005302 
L 206.700862 75.729524 
L 206.749257 74.626412 
L 206.881243 74.626412 
L 208.165911 73.799078 
L 210.387682 73.799078 
L 210.532867 73.247522 
L 211.236794 73.247522 
L 211.403977 72.695966 
L 217.563342 72.695966 
L 217.598539 72.14441 
L 233.665683 72.14441 
L 233.78887 71.592854 
L 234.206827 71.592854 
L 234.255222 70.489742 
L 239.380694 70.489742 
L 239.451087 69.386629 
L 249.297272 69.386629 
L 249.394062 67.180405 
L 253.160074 67.180405 
L 253.292061 64.422625 
L 253.864002 64.422625 
L 254.009187 63.871069 
L 255.856996 63.871069 
L 255.953786 63.043735 
L 267.018646 63.043735 
L 267.265021 61.940623 
L 272.80405 61.940623 
L 272.90084 61.113289 
L 275.100613 61.113289 
L 275.250198 60.837511 
L 280.943211 60.837511 
L 281.374367 60.285955 
L 285.003993 60.285955 
L 285.12718 59.734399 
L 288.118872 59.734399 
L 288.23766 58.907065 
L 291.308543 58.907065 
L 291.348139 58.631287 
L 292.931976 58.631287 
L 292.967172 58.079731 
L 299.672081 58.079731 
L 299.78647 56.976619 
L 303.768059 56.976619 
L 303.895646 56.700841 
L 307.428482 56.700841 
L 307.494475 53.94306 
L 312.113999 53.94306 
L 312.417568 53.667282 
L 317.287866 53.667282 
L 317.433051 53.115726 
L 331.076045 53.115726 
L 331.22123 52.839948 
L 331.529199 52.839948 
L 332.052745 52.56417 
L 332.09674 52.56417 
L 332.356313 52.288392 
L 333.764168 52.288392 
L 334.155728 52.012614 
L 339.048024 52.012614 
L 339.175611 51.736836 
L 339.527574 51.736836 
L 339.699157 51.461058 
L 364.635787 51.461058 
L 364.763374 51.18528 
L 374.349986 51.18528 
L 374.477573 50.909502 
L 389.277648 50.909502 
L 389.405235 49.254834 
L 397.759974 49.254834 
L 397.944755 48.4275 
L 400.90125 48.4275 
L 400.90125 48.4275 
" style="fill:none;stroke:#1f77b4;stroke-linecap:square;stroke-width:1.5;"/>
   </g>
   <g id="line2d_14">
    <path clip-path="url(#p44cd68a2af)" d="M 43.78125 301.8675 
L 43.860442 301.315944 
L 43.948433 301.315944 
L 44.036424 301.315944 
L 44.194807 300.212832 
L 44.36199 299.661276 
L 44.405986 299.661276 
L 44.687557 295.248828 
L 44.995525 292.491047 
L 49.967013 292.491047 
L 50.156193 290.560601 
L 50.235385 290.009045 
L 50.411367 290.009045 
L 50.609346 288.630155 
L 50.785328 288.630155 
L 50.908516 288.078599 
L 51.260479 288.078599 
L 51.454059 286.423931 
L 51.498055 286.423931 
L 51.612443 285.320819 
L 51.700434 285.320819 
L 52.043599 282.011483 
L 52.21958 282.011483 
L 52.342768 281.459927 
L 52.80912 274.841254 
L 53.073093 274.841254 
L 53.108289 274.289698 
L 53.48225 274.289698 
L 53.587839 272.63503 
L 53.719826 272.63503 
L 54.080589 267.671026 
L 54.256571 267.671026 
L 54.599735 267.11947 
L 54.740521 264.913245 
L 54.784516 264.913245 
L 55.030891 263.810133 
L 55.250868 263.810133 
L 55.497243 262.707021 
L 55.849206 262.707021 
L 56.143976 259.397685 
L 56.275962 259.397685 
L 56.504739 257.191461 
L 56.768712 257.191461 
L 57.023885 253.882125 
L 57.111876 253.882125 
L 57.305456 252.227456 
L 57.437443 252.227456 
L 57.516635 251.6759 
L 57.956589 251.6759 
L 58.123772 251.124344 
L 58.343749 248.366564 
L 58.475736 248.366564 
L 58.730909 247.815008 
L 58.906891 247.815008 
L 58.942088 247.263452 
L 59.250056 247.263452 
L 59.346846 245.057228 
L 59.461234 243.954116 
L 59.681212 243.954116 
L 60.046374 242.02367 
L 60.354342 242.02367 
L 60.46873 240.920558 
L 60.952681 240.920558 
L 61.410233 239.26589 
L 61.480626 238.162777 
L 61.568617 238.162777 
L 61.647809 237.611221 
L 61.779795 237.611221 
L 61.902983 237.059665 
L 66.368522 202.311635 
L 66.764482 202.311635 
L 67.054852 201.208523 
L 67.142843 201.208523 
L 67.178039 200.656967 
L 67.477208 200.105411 
L 68.163537 200.105411 
L 68.357118 195.692962 
L 68.577095 195.692962 
L 68.990652 194.038294 
L 69.69458 194.038294 
L 69.808968 192.935182 
L 70.138934 192.935182 
L 70.473299 189.07429 
L 70.693277 189.07429 
L 71.001245 186.31651 
L 71.661177 186.31651 
L 71.872355 185.764954 
L 71.898753 184.661842 
L 72.206721 184.661842 
L 72.50149 183.834508 
L 74.129323 183.834508 
L 74.25251 183.282952 
L 75.352397 183.282952 
L 78.2297 167.563604 
L 78.71365 167.563604 
L 79.483571 166.460492 
L 79.518767 165.908936 
L 80.178699 165.908936 
L 80.301887 165.35738 
L 80.882627 163.151156 
L 81.058609 163.151156 
L 81.172997 162.048044 
L 81.296184 161.496488 
L 81.934118 161.496488 
L 82.101301 160.944932 
L 82.268484 160.393376 
L 82.532457 160.393376 
L 82.673242 158.187152 
L 82.866822 156.532484 
L 83.614745 156.532484 
L 83.773129 155.429372 
L 84.072298 154.877816 
L 85.21618 154.877816 
L 85.418559 154.050482 
L 86.034496 154.050482 
L 86.069692 153.498925 
L 86.421656 153.498925 
L 86.492049 152.395813 
L 86.668031 152.395813 
L 86.747223 151.844257 
L 87.099186 151.844257 
L 87.266369 151.292701 
L 87.398355 151.292701 
L 87.424753 150.741145 
L 87.952698 150.741145 
L 89.228567 147.983365 
L 89.800508 147.983365 
L 89.826905 146.880253 
L 90.26686 146.880253 
L 90.337253 145.777141 
L 90.953189 145.777141 
L 91.199564 144.674029 
L 91.639518 144.674029 
L 92.224658 142.743583 
L 92.356644 142.743583 
L 97.323733 141.088915 
L 97.402924 140.537359 
L 97.746089 140.261581 
L 97.966066 140.261581 
L 98.001263 139.710024 
L 98.133249 139.710024 
L 98.326829 138.055356 
L 98.590802 138.055356 
L 98.740387 136.400688 
L 98.823978 136.12491 
L 99.263933 136.12491 
L 99.431115 135.573354 
L 99.651093 135.573354 
L 99.730285 135.297576 
L 101.050149 135.297576 
L 106.039235 135.021798 
L 106.162422 134.470242 
L 106.514386 134.470242 
L 106.637573 133.918686 
L 106.892747 133.36713 
L 107.398694 131.98824 
L 107.970636 131.98824 
L 108.269805 131.436684 
L 108.401791 131.436684 
L 108.436987 130.885128 
L 108.656965 130.885128 
L 109.255303 129.782016 
L 109.343294 129.782016 
L 109.545673 128.678904 
L 109.589669 128.678904 
L 109.880039 127.575792 
L 110.100016 127.575792 
L 110.698354 123.714899 
L 110.874336 123.714899 
L 111.03272 123.163343 
L 111.076715 123.163343 
L 111.32309 122.060231 
L 112.027018 122.060231 
L 112.062214 121.508675 
L 112.67815 121.508675 
L 113.1709 119.302451 
L 113.241292 118.199339 
L 113.857229 118.199339 
L 113.984816 117.923561 
L 114.336779 117.923561 
L 114.451168 116.820449 
L 114.671145 116.820449 
L 114.838328 116.268893 
L 114.926319 116.268893 
L 115.181492 115.717337 
L 130.34673 111.304888 
L 130.527111 109.098664 
L 134.601091 109.098664 
L 134.680283 108.547108 
L 134.81227 108.547108 
L 134.891461 107.995552 
L 135.155434 107.995552 
L 135.340215 105.789328 
L 135.648183 105.789328 
L 140.844048 103.858882 
L 141.459985 103.858882 
L 141.60077 101.652658 
L 142.128716 101.652658 
L 142.313497 99.446434 
L 142.357492 99.446434 
L 142.480679 98.894878 
L 142.722654 98.894878 
L 142.969029 97.791766 
L 143.628961 97.791766 
L 143.708153 97.240209 
L 147.047409 97.240209 
L 147.170596 96.688653 
L 147.346578 96.688653 
L 147.469765 96.137097 
L 147.821729 96.137097 
L 147.936117 95.033985 
L 148.156095 95.033985 
L 148.226487 93.930873 
L 151.059795 93.930873 
L 151.226978 93.379317 
L 152.238874 93.379317 
L 152.318066 92.827761 
L 152.494048 92.827761 
L 152.56444 91.724649 
L 152.784418 91.724649 
L 152.863609 91.173093 
L 153.34756 91.173093 
L 153.426751 90.621537 
L 156.286457 90.621537 
L 156.356849 90.069981 
L 157.104772 90.069981 
L 157.267556 89.242647 
L 157.443537 89.242647 
L 157.566725 88.691091 
L 157.918689 88.691091 
L 167.496502 87.863757 
L 168.816366 87.863757 
L 169.001147 85.933311 
L 169.177128 85.933311 
L 169.25632 85.381755 
L 170.092234 85.381755 
L 170.171426 84.830199 
L 177.743046 84.830199 
L 181.324277 84.002865 
L 181.67624 84.002865 
L 181.746633 82.899752 
L 183.462456 82.899752 
L 183.488854 81.79664 
L 190.99888 81.79664 
L 195.385228 80.969306 
L 196.309133 80.969306 
L 196.344329 80.41775 
L 196.960265 80.41775 
L 197.039457 79.866194 
L 200.911058 79.866194 
L 200.946255 79.314638 
L 203.519989 79.314638 
L 203.678373 78.487304 
L 205.130224 78.487304 
L 208.275899 76.556858 
L 211.839532 76.556858 
L 212.099105 75.453746 
L 215.926711 75.453746 
L 215.961907 74.90219 
L 223.181563 74.90219 
L 223.30915 74.626412 
L 223.639116 74.626412 
L 223.762304 74.074856 
L 224.796197 74.074856 
L 226.256847 73.247522 
L 226.476824 73.247522 
L 226.688002 72.695966 
L 227.083961 72.695966 
L 227.119158 72.14441 
L 227.96827 72.14441 
L 228.038663 71.041298 
L 229.534509 71.041298 
L 229.569705 70.489742 
L 232.033451 70.489742 
L 232.200634 69.938186 
L 238.685566 69.938186 
L 238.887945 68.835073 
L 239.019931 68.835073 
L 239.235509 68.559295 
L 240.753353 68.559295 
L 241.056921 68.283517 
L 241.36489 68.283517 
L 241.479278 67.180405 
L 242.205203 67.180405 
L 242.548368 66.628849 
L 242.746347 66.628849 
L 242.825539 66.077293 
L 244.387378 66.077293 
L 244.501766 64.974181 
L 245.33768 64.974181 
L 245.452069 63.871069 
L 249.257676 63.871069 
L 249.292873 63.319513 
L 251.136283 63.319513 
L 251.435452 62.767957 
L 252.535339 62.767957 
L 252.706921 62.492179 
L 255.192665 62.492179 
L 255.320252 62.216401 
L 258.553918 62.216401 
L 258.712302 61.113289 
L 261.167249 61.113289 
L 261.246441 60.561733 
L 261.83598 60.561733 
L 261.871177 60.010177 
L 262.311131 60.010177 
L 262.434319 59.458621 
L 262.962264 59.458621 
L 263.133846 59.182843 
L 263.169043 58.631287 
L 264.422914 58.631287 
L 264.590096 58.079731 
L 267.361811 58.079731 
L 267.528994 57.528175 
L 281.875915 57.528175 
L 282.153087 56.976619 
L 283.208978 56.976619 
L 283.292569 56.700841 
L 287.64812 56.700841 
L 287.727312 56.149285 
L 290.235054 56.149285 
L 290.362641 55.873507 
L 291.066568 55.873507 
L 291.101764 55.32195 
L 291.356938 54.770394 
L 300.442002 54.770394 
L 300.477198 54.218838 
L 316.139584 54.218838 
L 316.262772 53.667282 
L 318.088584 53.667282 
L 318.422949 52.56417 
L 322.690509 52.56417 
L 322.725706 52.012614 
L 324.52952 52.012614 
L 324.608712 51.461058 
L 334.014942 51.461058 
L 334.13813 50.909502 
L 339.153613 50.909502 
L 339.188809 50.357946 
L 349.27697 50.357946 
L 349.316566 50.082168 
L 353.188167 50.082168 
L 353.302555 48.979056 
L 356.272249 48.979056 
L 356.307445 48.4275 
L 400.90125 48.4275 
L 400.90125 48.4275 
" style="fill:none;stroke:#ff7f0e;stroke-linecap:square;stroke-width:1.5;"/>
   </g>
   <g id="line2d_15">
    <path clip-path="url(#p44cd68a2af)" d="M 43.78125 301.8675 
L 43.816446 301.315343 
L 43.904437 301.315343 
L 43.948433 301.315343 
L 44.106816 300.211029 
L 44.17281 300.211029 
L 44.252001 299.658873 
L 44.801945 299.658873 
L 44.969128 299.106716 
L 45.189105 299.106716 
L 45.382685 298.830637 
L 46.10861 298.830637 
L 46.30219 297.174167 
L 47.094109 297.174167 
L 47.921223 293.861225 
L 48.009214 293.861225 
L 48.176397 293.309069 
L 48.352379 293.309069 
L 48.63395 291.652598 
L 48.721941 291.652598 
L 48.853927 288.891814 
L 48.985914 288.891814 
L 49.201491 287.235343 
L 49.377473 287.235343 
L 49.456665 286.683186 
L 49.540257 286.683186 
L 49.645846 285.026716 
L 50.041805 285.026716 
L 50.120997 284.474559 
L 50.252983 284.474559 
L 50.323376 283.370245 
L 50.851321 283.370245 
L 51.088897 281.713775 
L 51.291276 277.848676 
L 51.467258 277.848676 
L 51.528852 276.192206 
L 52.408761 276.192206 
L 52.71233 274.535735 
L 52.954305 274.535735 
L 56.764312 244.167108 
L 57.050283 240.025931 
L 57.349452 239.473775 
L 57.507836 238.369461 
L 58.119373 238.369461 
L 58.202964 238.093382 
L 58.326151 237.541225 
L 58.590124 236.436912 
L 58.678115 236.436912 
L 58.8233 235.884755 
L 58.902492 235.332598 
L 59.052076 233.676127 
L 59.096072 233.676127 
L 59.258855 231.4675 
L 59.434837 231.4675 
L 59.549225 230.363186 
L 59.716408 229.811029 
L 59.980381 229.811029 
L 60.050773 228.706716 
L 60.86469 228.706716 
L 61.093466 226.498088 
L 61.225452 226.498088 
L 65.413821 206.068284 
L 65.994561 206.068284 
L 66.144146 204.411814 
L 66.320127 204.411814 
L 66.377322 203.859657 
L 66.403719 202.755343 
L 66.535705 202.755343 
L 66.645694 198.614167 
L 66.821676 198.614167 
L 67.516804 193.644755 
L 67.525603 192.81652 
L 68.053549 192.81652 
L 68.423111 188.399265 
L 68.467106 188.399265 
L 68.590294 187.847108 
L 69.558194 187.847108 
L 69.672582 186.742794 
L 70.244523 186.742794 
L 70.473299 184.534167 
L 70.825263 184.534167 
L 71.05404 182.325539 
L 71.326812 180.116912 
L 71.414802 180.116912 
L 71.520392 178.460441 
L 71.73157 177.356127 
L 71.951547 177.356127 
L 72.162725 176.527892 
L 73.821354 176.527892 
L 73.900546 175.975735 
L 73.988537 175.975735 
L 74.023734 175.423578 
L 74.331702 175.423578 
L 74.604474 173.214951 
L 75.440388 173.214951 
L 75.660365 170.454167 
L 75.748356 170.454167 
L 76.531475 169.90201 
L 76.720656 169.073775 
L 76.764651 169.073775 
L 76.931834 168.521618 
L 77.107816 168.521618 
L 77.2574 166.865147 
L 77.310195 164.65652 
L 77.565369 164.104363 
L 77.697355 164.104363 
L 77.864538 163.552206 
L 77.996524 163.552206 
L 78.383684 161.619657 
L 78.559666 161.619657 
L 78.832438 159.411029 
L 79.228397 159.411029 
L 79.712347 156.650245 
L 79.888329 156.650245 
L 80.046713 155.545931 
L 80.310686 155.545931 
L 80.337083 154.441618 
L 80.733042 154.441618 
L 80.95302 151.680833 
L 81.216992 151.680833 
L 81.43257 150.024363 
L 81.652547 150.024363 
L 81.863726 149.472206 
L 82.039708 149.472206 
L 82.20689 148.920049 
L 84.213084 148.920049 
L 84.239481 147.815735 
L 84.503454 147.815735 
L 84.670636 147.263578 
L 84.802623 147.263578 
L 84.908212 146.711422 
L 85.387763 141.74201 
L 85.651735 141.74201 
L 85.730927 141.189853 
L 85.906909 141.189853 
L 85.959704 138.981225 
L 86.267672 138.981225 
L 86.38206 137.876912 
L 86.470051 137.876912 
L 86.624035 136.49652 
L 87.503945 136.49652 
L 87.618333 135.392206 
L 87.706324 135.392206 
L 87.829511 134.840049 
L 89.941293 134.840049 
L 90.055682 133.735735 
L 91.894692 133.183578 
L 92.088272 131.527108 
L 93.7601 131.527108 
L 93.865689 130.974951 
L 93.936082 129.870637 
L 94.552018 129.870637 
L 94.666406 128.766324 
L 95.50232 128.766324 
L 95.704699 127.109853 
L 95.880681 127.109853 
L 95.959873 126.557696 
L 97.191746 126.557696 
L 97.270938 126.005539 
L 97.666897 126.005539 
L 97.684495 125.729461 
L 97.816482 125.729461 
L 98.062856 124.625147 
L 102.352414 124.625147 
L 102.431606 124.07299 
L 102.607588 124.07299 
L 102.68678 123.520833 
L 109.624865 123.520833 
L 109.96803 122.968676 
L 110.122014 122.968676 
L 110.500375 121.864363 
L 110.874336 121.864363 
L 111.191104 119.655735 
L 112.159004 119.655735 
L 112.238196 119.103578 
L 114.064008 119.103578 
L 114.23559 118.8275 
L 115.379472 118.8275 
L 115.546655 118.275343 
L 115.722637 118.275343 
L 115.845824 117.723186 
L 117.055699 117.723186 
L 117.108494 115.514559 
L 118.098392 115.514559 
L 118.203981 115.23848 
L 118.863913 115.23848 
L 118.934306 114.134167 
L 119.528245 114.134167 
L 119.642633 113.029853 
L 124.284154 113.029853 
L 125.190461 111.925539 
L 131.824977 111.925539 
L 131.948165 111.373382 
L 131.99216 111.373382 
L 132.066952 110.545147 
L 132.682889 110.545147 
L 132.850072 109.99299 
L 133.15804 109.99299 
L 133.316424 108.888676 
L 133.558399 108.888676 
L 133.813572 108.33652 
L 134.847466 108.33652 
L 135.115838 107.784363 
L 143.672956 106.956127 
L 143.699354 105.851814 
L 143.945728 105.023578 
L 144.429679 105.023578 
L 153.316763 102.538873 
L 156.55043 102.538873 
L 156.585626 101.986716 
L 159.960078 101.986716 
L 159.995275 101.434559 
L 161.49112 101.434559 
L 161.614308 100.882402 
L 161.79029 100.882402 
L 161.913477 100.330245 
L 163.211343 100.330245 
L 163.422521 99.778088 
L 163.598503 99.778088 
L 163.673296 98.949853 
L 164.355225 98.949853 
L 164.482812 98.673775 
L 165.098749 98.673775 
L 165.226335 98.121618 
L 165.798277 98.121618 
L 165.969859 97.569461 
L 166.013854 97.569461 
L 166.128243 96.465147 
L 166.83217 96.465147 
L 166.911362 95.91299 
L 176.071218 94.808676 
L 176.15041 94.25652 
L 176.238401 94.25652 
L 176.308793 93.152206 
L 176.528771 93.152206 
L 185.838212 90.943578 
L 196.216742 90.943578 
L 196.287135 89.839265 
L 199.947558 89.839265 
L 200.031149 89.563186 
L 206.885643 89.563186 
L 206.964834 89.011029 
L 207.184812 86.250245 
L 208.350692 86.250245 
L 208.539872 85.698088 
L 211.355582 85.698088 
L 211.425975 84.593775 
L 211.601957 84.593775 
L 211.791137 84.041618 
L 211.923124 84.041618 
L 212.090306 83.489461 
L 213.190193 83.489461 
L 213.392572 82.385147 
L 214.888418 82.385147 
L 214.958811 81.280833 
L 215.266779 81.280833 
L 215.389966 80.728676 
L 217.149785 80.728676 
L 217.264173 79.624363 
L 217.343365 79.072206 
L 217.739324 79.072206 
L 217.774521 78.520049 
L 218.434453 78.520049 
L 218.513644 77.967892 
L 225.618912 77.967892 
L 225.698104 77.415735 
L 227.941873 77.415735 
L 227.977069 76.863578 
L 231.193138 76.863578 
L 231.316325 76.311422 
L 238.491986 76.311422 
L 238.571178 75.759265 
L 239.627069 75.759265 
L 239.81185 73.550637 
L 240.735755 73.550637 
L 240.920535 71.34201 
L 255.029882 71.34201 
L 255.24106 70.789853 
L 257.968779 70.789853 
L 258.619912 70.237696 
L 259.455825 70.237696 
L 259.495421 69.961618 
L 260.419326 69.961618 
L 260.498518 69.409461 
L 260.762491 69.409461 
L 261.008865 68.305147 
L 261.844779 68.305147 
L 262.003163 67.200833 
L 268.448499 67.200833 
L 268.642079 65.544363 
L 270.423895 65.544363 
L 270.547083 64.992206 
L 275.122611 64.992206 
L 275.245798 64.440049 
L 279.68934 64.440049 
L 279.724537 63.887892 
L 280.164492 63.887892 
L 280.221686 63.335735 
L 284.823611 63.335735 
L 284.968796 62.783578 
L 285.892701 62.783578 
L 286.015889 62.231422 
L 294.551009 62.231422 
L 294.630201 61.679265 
L 294.982165 61.679265 
L 295.096553 60.574951 
L 295.580503 60.574951 
L 295.659695 60.022794 
L 304.815151 60.022794 
L 304.854747 59.746716 
L 312.377972 59.746716 
L 312.457164 59.194559 
L 317.142681 59.194559 
L 317.243871 58.642402 
L 318.585732 58.642402 
L 318.840906 58.090245 
L 319.764811 58.090245 
L 320.011185 56.985931 
L 320.099176 56.985931 
L 320.25756 55.881618 
L 325.427027 55.881618 
L 325.462224 55.329461 
L 335.185222 55.329461 
L 335.264414 54.777304 
L 336.518284 54.777304 
L 336.588677 53.67299 
L 336.896645 53.67299 
L 337.011034 52.568676 
L 337.846948 52.568676 
L 337.970135 52.01652 
L 353.394945 52.01652 
L 353.606124 51.464363 
L 354.169266 51.464363 
L 354.358446 50.912206 
L 360.513412 50.912206 
L 360.597003 50.636127 
L 367.935447 50.636127 
L 367.970643 50.083971 
L 370.544378 50.083971 
L 370.667565 49.531814 
L 377.178895 49.531814 
L 377.346077 48.979657 
L 395.137844 48.979657 
L 395.17304 48.4275 
L 400.90125 48.4275 
L 400.90125 48.4275 
" style="fill:none;stroke:#2ca02c;stroke-linecap:square;stroke-width:1.5;"/>
   </g>
   <g id="line2d_16">
    <path clip-path="url(#p44cd68a2af)" d="M 43.78125 301.8675 
L 400.90125 48.4275 
" style="fill:none;stroke:#000000;stroke-dasharray:5.6,2.4;stroke-dashoffset:0;stroke-width:1.5;"/>
   </g>
   <g id="patch_3">
    <path d="M 43.78125 301.8675 
L 43.78125 35.7555 
" style="fill:none;stroke:#000000;stroke-linecap:square;stroke-linejoin:miter;stroke-width:0.8;"/>
   </g>
   <g id="patch_4">
    <path d="M 400.90125 301.8675 
L 400.90125 35.7555 
" style="fill:none;stroke:#000000;stroke-linecap:square;stroke-linejoin:miter;stroke-width:0.8;"/>
   </g>
   <g id="patch_5">
    <path d="M 43.78125 301.8675 
L 400.90125 301.8675 
" style="fill:none;stroke:#000000;stroke-linecap:square;stroke-linejoin:miter;stroke-width:0.8;"/>
   </g>
   <g id="patch_6">
    <path d="M 43.78125 35.7555 
L 400.90125 35.7555 
" style="fill:none;stroke:#000000;stroke-linecap:square;stroke-linejoin:miter;stroke-width:0.8;"/>
   </g>
   <g id="text_15">
    <!-- ROC Curve AdaBoost + SMOTEENN -->
    <defs>
     <path d="M 39.40625 66.21875 
Q 28.65625 66.21875 22.328125 58.203125 
Q 16.015625 50.203125 16.015625 36.375 
Q 16.015625 22.609375 22.328125 14.59375 
Q 28.65625 6.59375 39.40625 6.59375 
Q 50.140625 6.59375 56.421875 14.59375 
Q 62.703125 22.609375 62.703125 36.375 
Q 62.703125 50.203125 56.421875 58.203125 
Q 50.140625 66.21875 39.40625 66.21875 
M 39.40625 74.21875 
Q 54.734375 74.21875 63.90625 63.9375 
Q 73.09375 53.65625 73.09375 36.375 
Q 73.09375 19.140625 63.90625 8.859375 
Q 54.734375 -1.421875 39.40625 -1.421875 
Q 24.03125 -1.421875 14.8125 8.828125 
Q 5.609375 19.09375 5.609375 36.375 
Q 5.609375 53.65625 14.8125 63.9375 
Q 24.03125 74.21875 39.40625 74.21875 
" id="DejaVuSans-4f"/>
     <path d="M 64.40625 67.28125 
L 64.40625 56.890625 
Q 59.421875 61.53125 53.78125 63.8125 
Q 48.140625 66.109375 41.796875 66.109375 
Q 29.296875 66.109375 22.65625 58.46875 
Q 16.015625 50.828125 16.015625 36.375 
Q 16.015625 21.96875 22.65625 14.328125 
Q 29.296875 6.6875 41.796875 6.6875 
Q 48.140625 6.6875 53.78125 8.984375 
Q 59.421875 11.28125 64.40625 15.921875 
L 64.40625 5.609375 
Q 59.234375 2.09375 53.4375 0.328125 
Q 47.65625 -1.421875 41.21875 -1.421875 
Q 24.65625 -1.421875 15.125 8.703125 
Q 5.609375 18.84375 5.609375 36.375 
Q 5.609375 53.953125 15.125 64.078125 
Q 24.65625 74.21875 41.21875 74.21875 
Q 47.75 74.21875 53.53125 72.484375 
Q 59.328125 70.75 64.40625 67.28125 
" id="DejaVuSans-43"/>
     <path d="M 34.1875 63.1875 
L 20.796875 26.90625 
L 47.609375 26.90625 
z
M 28.609375 72.90625 
L 39.796875 72.90625 
L 67.578125 0 
L 57.328125 0 
L 50.6875 18.703125 
L 17.828125 18.703125 
L 11.1875 0 
L 0.78125 0 
z
" id="DejaVuSans-41"/>
     <path d="M 45.40625 46.390625 
L 45.40625 75.984375 
L 54.390625 75.984375 
L 54.390625 0 
L 45.40625 0 
L 45.40625 8.203125 
Q 42.578125 3.328125 38.25 0.953125 
Q 33.9375 -1.421875 27.875 -1.421875 
Q 17.96875 -1.421875 11.734375 6.484375 
Q 5.515625 14.40625 5.515625 27.296875 
Q 5.515625 40.1875 11.734375 48.09375 
Q 17.96875 56 27.875 56 
Q 33.9375 56 38.25 53.625 
Q 42.578125 51.265625 45.40625 46.390625 
M 14.796875 27.296875 
Q 14.796875 17.390625 18.875 11.75 
Q 22.953125 6.109375 30.078125 6.109375 
Q 37.203125 6.109375 41.296875 11.75 
Q 45.40625 17.390625 45.40625 27.296875 
Q 45.40625 37.203125 41.296875 42.84375 
Q 37.203125 48.484375 30.078125 48.484375 
Q 22.953125 48.484375 18.875 42.84375 
Q 14.796875 37.203125 14.796875 27.296875 
" id="DejaVuSans-64"/>
     <path d="M 19.671875 34.8125 
L 19.671875 8.109375 
L 35.5 8.109375 
Q 43.453125 8.109375 47.28125 11.40625 
Q 51.125 14.703125 51.125 21.484375 
Q 51.125 28.328125 47.28125 31.5625 
Q 43.453125 34.8125 35.5 34.8125 
z
M 19.671875 64.796875 
L 19.671875 42.828125 
L 34.28125 42.828125 
Q 41.5 42.828125 45.03125 45.53125 
Q 48.578125 48.25 48.578125 53.8125 
Q 48.578125 59.328125 45.03125 62.0625 
Q 41.5 64.796875 34.28125 64.796875 
z
M 9.8125 72.90625 
L 35.015625 72.90625 
Q 46.296875 72.90625 52.390625 68.21875 
Q 58.5 63.53125 58.5 54.890625 
Q 58.5 48.1875 55.375 44.234375 
Q 52.25 40.28125 46.1875 39.3125 
Q 53.46875 37.75 57.5 32.78125 
Q 61.53125 27.828125 61.53125 20.40625 
Q 61.53125 10.640625 54.890625 5.3125 
Q 48.25 0 35.984375 0 
L 9.8125 0 
z
" id="DejaVuSans-42"/>
     <path d="M 46 62.703125 
L 46 35.5 
L 73.1875 35.5 
L 73.1875 27.203125 
L 46 27.203125 
L 46 0 
L 37.796875 0 
L 37.796875 27.203125 
L 10.59375 27.203125 
L 10.59375 35.5 
L 37.796875 35.5 
L 37.796875 62.703125 
z
" id="DejaVuSans-2b"/>
     <path d="M 53.515625 70.515625 
L 53.515625 60.890625 
Q 47.90625 63.578125 42.921875 64.890625 
Q 37.9375 66.21875 33.296875 66.21875 
Q 25.25 66.21875 20.875 63.09375 
Q 16.5 59.96875 16.5 54.203125 
Q 16.5 49.359375 19.40625 46.890625 
Q 22.3125 44.4375 30.421875 42.921875 
L 36.375 41.703125 
Q 47.40625 39.59375 52.65625 34.296875 
Q 57.90625 29 57.90625 20.125 
Q 57.90625 9.515625 50.796875 4.046875 
Q 43.703125 -1.421875 29.984375 -1.421875 
Q 24.8125 -1.421875 18.96875 -0.25 
Q 13.140625 0.921875 6.890625 3.21875 
L 6.890625 13.375 
Q 12.890625 10.015625 18.65625 8.296875 
Q 24.421875 6.59375 29.984375 6.59375 
Q 38.421875 6.59375 43.015625 9.90625 
Q 47.609375 13.234375 47.609375 19.390625 
Q 47.609375 24.75 44.3125 27.78125 
Q 41.015625 30.8125 33.5 32.328125 
L 27.484375 33.5 
Q 16.453125 35.6875 11.515625 40.375 
Q 6.59375 45.0625 6.59375 53.421875 
Q 6.59375 63.09375 13.40625 68.65625 
Q 20.21875 74.21875 32.171875 74.21875 
Q 37.3125 74.21875 42.625 73.28125 
Q 47.953125 72.359375 53.515625 70.515625 
" id="DejaVuSans-53"/>
     <path d="M 9.8125 72.90625 
L 24.515625 72.90625 
L 43.109375 23.296875 
L 61.8125 72.90625 
L 76.515625 72.90625 
L 76.515625 0 
L 66.890625 0 
L 66.890625 64.015625 
L 48.09375 14.015625 
L 38.1875 14.015625 
L 19.390625 64.015625 
L 19.390625 0 
L 9.8125 0 
z
" id="DejaVuSans-4d"/>
     <path d="M 9.8125 72.90625 
L 55.90625 72.90625 
L 55.90625 64.59375 
L 19.671875 64.59375 
L 19.671875 43.015625 
L 54.390625 43.015625 
L 54.390625 34.71875 
L 19.671875 34.71875 
L 19.671875 8.296875 
L 56.78125 8.296875 
L 56.78125 0 
L 9.8125 0 
z
" id="DejaVuSans-45"/>
     <path d="M 9.8125 72.90625 
L 23.09375 72.90625 
L 55.421875 11.921875 
L 55.421875 72.90625 
L 64.984375 72.90625 
L 64.984375 0 
L 51.703125 0 
L 19.390625 60.984375 
L 19.390625 0 
L 9.8125 0 
z
" id="DejaVuSans-4e"/>
    </defs>
    <g transform="translate(116.442188 16.318125)scale(0.12 -0.12)">
     <use xlink:href="#DejaVuSans-52"/>
     <use x="69.482422" xlink:href="#DejaVuSans-4f"/>
     <use x="148.193359" xlink:href="#DejaVuSans-43"/>
     <use x="218.017578" xlink:href="#DejaVuSans-20"/>
     <use x="249.804688" xlink:href="#DejaVuSans-43"/>
     <use x="319.628906" xlink:href="#DejaVuSans-75"/>
     <use x="383.007812" xlink:href="#DejaVuSans-72"/>
     <use x="424.121094" xlink:href="#DejaVuSans-76"/>
     <use x="483.300781" xlink:href="#DejaVuSans-65"/>
     <use x="544.824219" xlink:href="#DejaVuSans-20"/>
     <use x="576.611328" xlink:href="#DejaVuSans-41"/>
     <use x="645.003906" xlink:href="#DejaVuSans-64"/>
     <use x="708.480469" xlink:href="#DejaVuSans-61"/>
     <use x="769.759766" xlink:href="#DejaVuSans-42"/>
     <use x="838.363281" xlink:href="#DejaVuSans-6f"/>
     <use x="899.544922" xlink:href="#DejaVuSans-6f"/>
     <use x="960.726562" xlink:href="#DejaVuSans-73"/>
     <use x="1012.826172" xlink:href="#DejaVuSans-74"/>
     <use x="1052.035156" xlink:href="#DejaVuSans-20"/>
     <use x="1083.822266" xlink:href="#DejaVuSans-2b"/>
     <use x="1167.611328" xlink:href="#DejaVuSans-20"/>
     <use x="1199.398438" xlink:href="#DejaVuSans-53"/>
     <use x="1262.875" xlink:href="#DejaVuSans-4d"/>
     <use x="1349.154297" xlink:href="#DejaVuSans-4f"/>
     <use x="1427.865234" xlink:href="#DejaVuSans-54"/>
     <use x="1488.949219" xlink:href="#DejaVuSans-45"/>
     <use x="1552.132812" xlink:href="#DejaVuSans-45"/>
     <use x="1615.316406" xlink:href="#DejaVuSans-4e"/>
     <use x="1690.121094" xlink:href="#DejaVuSans-4e"/>
    </g>
    <!-- Train: 1   Test: [2, 4, 6, 8, 10, 12] -->
    <defs>
     <path d="M 54.890625 33.015625 
L 54.890625 0 
L 45.90625 0 
L 45.90625 32.71875 
Q 45.90625 40.484375 42.875 44.328125 
Q 39.84375 48.1875 33.796875 48.1875 
Q 26.515625 48.1875 22.3125 43.546875 
Q 18.109375 38.921875 18.109375 30.90625 
L 18.109375 0 
L 9.078125 0 
L 9.078125 54.6875 
L 18.109375 54.6875 
L 18.109375 46.1875 
Q 21.34375 51.125 25.703125 53.5625 
Q 30.078125 56 35.796875 56 
Q 45.21875 56 50.046875 50.171875 
Q 54.890625 44.34375 54.890625 33.015625 
" id="DejaVuSans-6e"/>
     <path d="M 11.71875 12.40625 
L 22.015625 12.40625 
L 22.015625 0 
L 11.71875 0 
z
M 11.71875 51.703125 
L 22.015625 51.703125 
L 22.015625 39.3125 
L 11.71875 39.3125 
z
" id="DejaVuSans-3a"/>
     <path d="M 8.59375 75.984375 
L 29.296875 75.984375 
L 29.296875 69 
L 17.578125 69 
L 17.578125 -6.203125 
L 29.296875 -6.203125 
L 29.296875 -13.1875 
L 8.59375 -13.1875 
z
" id="DejaVuSans-5b"/>
     <path d="M 11.71875 12.40625 
L 22.015625 12.40625 
L 22.015625 4 
L 14.015625 -11.625 
L 7.71875 -11.625 
L 11.71875 4 
z
" id="DejaVuSans-2c"/>
     <path d="M 30.421875 75.984375 
L 30.421875 -13.1875 
L 9.71875 -13.1875 
L 9.71875 -6.203125 
L 21.390625 -6.203125 
L 21.390625 69 
L 9.71875 69 
L 9.71875 75.984375 
z
" id="DejaVuSans-5d"/>
    </defs>
    <g transform="translate(122.573438 29.7555)scale(0.12 -0.12)">
     <use xlink:href="#DejaVuSans-54"/>
     <use x="60.865234" xlink:href="#DejaVuSans-72"/>
     <use x="101.978516" xlink:href="#DejaVuSans-61"/>
     <use x="163.257812" xlink:href="#DejaVuSans-69"/>
     <use x="191.041016" xlink:href="#DejaVuSans-6e"/>
     <use x="254.419922" xlink:href="#DejaVuSans-3a"/>
     <use x="288.111328" xlink:href="#DejaVuSans-20"/>
     <use x="319.898438" xlink:href="#DejaVuSans-31"/>
     <use x="383.521484" xlink:href="#DejaVuSans-20"/>
     <use x="415.308594" xlink:href="#DejaVuSans-20"/>
     <use x="447.095703" xlink:href="#DejaVuSans-20"/>
     <use x="478.882812" xlink:href="#DejaVuSans-54"/>
     <use x="539.701172" xlink:href="#DejaVuSans-65"/>
     <use x="601.224609" xlink:href="#DejaVuSans-73"/>
     <use x="653.324219" xlink:href="#DejaVuSans-74"/>
     <use x="692.533203" xlink:href="#DejaVuSans-3a"/>
     <use x="726.224609" xlink:href="#DejaVuSans-20"/>
     <use x="758.011719" xlink:href="#DejaVuSans-5b"/>
     <use x="797.025391" xlink:href="#DejaVuSans-32"/>
     <use x="860.648438" xlink:href="#DejaVuSans-2c"/>
     <use x="892.435547" xlink:href="#DejaVuSans-20"/>
     <use x="924.222656" xlink:href="#DejaVuSans-34"/>
     <use x="987.845703" xlink:href="#DejaVuSans-2c"/>
     <use x="1019.632812" xlink:href="#DejaVuSans-20"/>
     <use x="1051.419922" xlink:href="#DejaVuSans-36"/>
     <use x="1115.042969" xlink:href="#DejaVuSans-2c"/>
     <use x="1146.830078" xlink:href="#DejaVuSans-20"/>
     <use x="1178.617188" xlink:href="#DejaVuSans-38"/>
     <use x="1242.240234" xlink:href="#DejaVuSans-2c"/>
     <use x="1274.027344" xlink:href="#DejaVuSans-20"/>
     <use x="1305.814453" xlink:href="#DejaVuSans-31"/>
     <use x="1369.4375" xlink:href="#DejaVuSans-30"/>
     <use x="1433.060547" xlink:href="#DejaVuSans-2c"/>
     <use x="1464.847656" xlink:href="#DejaVuSans-20"/>
     <use x="1496.634766" xlink:href="#DejaVuSans-31"/>
     <use x="1560.257812" xlink:href="#DejaVuSans-32"/>
     <use x="1623.880859" xlink:href="#DejaVuSans-5d"/>
    </g>
   </g>
   <g id="legend_1">
    <g id="patch_7">
     <path d="M 217.087188 296.8675 
L 393.90125 296.8675 
Q 395.90125 296.8675 395.90125 294.8675 
L 395.90125 251.833125 
Q 395.90125 249.833125 393.90125 249.833125 
L 217.087188 249.833125 
Q 215.087188 249.833125 215.087188 251.833125 
L 215.087188 294.8675 
Q 215.087188 296.8675 217.087188 296.8675 
z
" style="fill:#ffffff;opacity:0.8;stroke:#cccccc;stroke-linejoin:miter;"/>
    </g>
    <g id="line2d_17">
     <path d="M 219.087188 257.931562 
L 239.087188 257.931562 
" style="fill:none;stroke:#1f77b4;stroke-linecap:square;stroke-width:1.5;"/>
    </g>
    <g id="line2d_18"/>
    <g id="text_16">
     <!-- ROC curve - 0 (AUC = 0.828) -->
     <defs>
      <path d="M 48.78125 52.59375 
L 48.78125 44.1875 
Q 44.96875 46.296875 41.140625 47.34375 
Q 37.3125 48.390625 33.40625 48.390625 
Q 24.65625 48.390625 19.8125 42.84375 
Q 14.984375 37.3125 14.984375 27.296875 
Q 14.984375 17.28125 19.8125 11.734375 
Q 24.65625 6.203125 33.40625 6.203125 
Q 37.3125 6.203125 41.140625 7.25 
Q 44.96875 8.296875 48.78125 10.40625 
L 48.78125 2.09375 
Q 45.015625 0.34375 40.984375 -0.53125 
Q 36.96875 -1.421875 32.421875 -1.421875 
Q 20.0625 -1.421875 12.78125 6.34375 
Q 5.515625 14.109375 5.515625 27.296875 
Q 5.515625 40.671875 12.859375 48.328125 
Q 20.21875 56 33.015625 56 
Q 37.15625 56 41.109375 55.140625 
Q 45.0625 54.296875 48.78125 52.59375 
" id="DejaVuSans-63"/>
      <path d="M 4.890625 31.390625 
L 31.203125 31.390625 
L 31.203125 23.390625 
L 4.890625 23.390625 
z
" id="DejaVuSans-2d"/>
      <path d="M 31 75.875 
Q 24.46875 64.65625 21.28125 53.65625 
Q 18.109375 42.671875 18.109375 31.390625 
Q 18.109375 20.125 21.3125 9.0625 
Q 24.515625 -2 31 -13.1875 
L 23.1875 -13.1875 
Q 15.875 -1.703125 12.234375 9.375 
Q 8.59375 20.453125 8.59375 31.390625 
Q 8.59375 42.28125 12.203125 53.3125 
Q 15.828125 64.359375 23.1875 75.875 
z
" id="DejaVuSans-28"/>
      <path d="M 8.6875 72.90625 
L 18.609375 72.90625 
L 18.609375 28.609375 
Q 18.609375 16.890625 22.84375 11.734375 
Q 27.09375 6.59375 36.625 6.59375 
Q 46.09375 6.59375 50.34375 11.734375 
Q 54.59375 16.890625 54.59375 28.609375 
L 54.59375 72.90625 
L 64.5 72.90625 
L 64.5 27.390625 
Q 64.5 13.140625 57.4375 5.859375 
Q 50.390625 -1.421875 36.625 -1.421875 
Q 22.796875 -1.421875 15.734375 5.859375 
Q 8.6875 13.140625 8.6875 27.390625 
z
" id="DejaVuSans-55"/>
      <path d="M 10.59375 45.40625 
L 73.1875 45.40625 
L 73.1875 37.203125 
L 10.59375 37.203125 
z
M 10.59375 25.484375 
L 73.1875 25.484375 
L 73.1875 17.1875 
L 10.59375 17.1875 
z
" id="DejaVuSans-3d"/>
      <path d="M 8.015625 75.875 
L 15.828125 75.875 
Q 23.140625 64.359375 26.78125 53.3125 
Q 30.421875 42.28125 30.421875 31.390625 
Q 30.421875 20.453125 26.78125 9.375 
Q 23.140625 -1.703125 15.828125 -13.1875 
L 8.015625 -13.1875 
Q 14.5 -2 17.703125 9.0625 
Q 20.90625 20.125 20.90625 31.390625 
Q 20.90625 42.671875 17.703125 53.65625 
Q 14.5 64.65625 8.015625 75.875 
" id="DejaVuSans-29"/>
     </defs>
     <g transform="translate(247.087188 261.431562)scale(0.1 -0.1)">
      <use xlink:href="#DejaVuSans-52"/>
      <use x="69.482422" xlink:href="#DejaVuSans-4f"/>
      <use x="148.193359" xlink:href="#DejaVuSans-43"/>
      <use x="218.017578" xlink:href="#DejaVuSans-20"/>
      <use x="249.804688" xlink:href="#DejaVuSans-63"/>
      <use x="304.785156" xlink:href="#DejaVuSans-75"/>
      <use x="368.164062" xlink:href="#DejaVuSans-72"/>
      <use x="409.277344" xlink:href="#DejaVuSans-76"/>
      <use x="468.457031" xlink:href="#DejaVuSans-65"/>
      <use x="529.980469" xlink:href="#DejaVuSans-20"/>
      <use x="561.767578" xlink:href="#DejaVuSans-2d"/>
      <use x="597.851562" xlink:href="#DejaVuSans-20"/>
      <use x="629.638672" xlink:href="#DejaVuSans-30"/>
      <use x="693.261719" xlink:href="#DejaVuSans-20"/>
      <use x="725.048828" xlink:href="#DejaVuSans-28"/>
      <use x="764.0625" xlink:href="#DejaVuSans-41"/>
      <use x="832.470703" xlink:href="#DejaVuSans-55"/>
      <use x="905.664062" xlink:href="#DejaVuSans-43"/>
      <use x="975.488281" xlink:href="#DejaVuSans-20"/>
      <use x="1007.275391" xlink:href="#DejaVuSans-3d"/>
      <use x="1091.064453" xlink:href="#DejaVuSans-20"/>
      <use x="1122.851562" xlink:href="#DejaVuSans-30"/>
      <use x="1186.474609" xlink:href="#DejaVuSans-2e"/>
      <use x="1218.261719" xlink:href="#DejaVuSans-38"/>
      <use x="1281.884766" xlink:href="#DejaVuSans-32"/>
      <use x="1345.507812" xlink:href="#DejaVuSans-38"/>
      <use x="1409.130859" xlink:href="#DejaVuSans-29"/>
     </g>
    </g>
    <g id="line2d_19">
     <path d="M 219.087188 272.609687 
L 239.087188 272.609687 
" style="fill:none;stroke:#ff7f0e;stroke-linecap:square;stroke-width:1.5;"/>
    </g>
    <g id="line2d_20"/>
    <g id="text_17">
     <!-- ROC curve - 1 (AUC = 0.827) -->
     <defs>
      <path d="M 8.203125 72.90625 
L 55.078125 72.90625 
L 55.078125 68.703125 
L 28.609375 0 
L 18.3125 0 
L 43.21875 64.59375 
L 8.203125 64.59375 
z
" id="DejaVuSans-37"/>
     </defs>
     <g transform="translate(247.087188 276.109687)scale(0.1 -0.1)">
      <use xlink:href="#DejaVuSans-52"/>
      <use x="69.482422" xlink:href="#DejaVuSans-4f"/>
      <use x="148.193359" xlink:href="#DejaVuSans-43"/>
      <use x="218.017578" xlink:href="#DejaVuSans-20"/>
      <use x="249.804688" xlink:href="#DejaVuSans-63"/>
      <use x="304.785156" xlink:href="#DejaVuSans-75"/>
      <use x="368.164062" xlink:href="#DejaVuSans-72"/>
      <use x="409.277344" xlink:href="#DejaVuSans-76"/>
      <use x="468.457031" xlink:href="#DejaVuSans-65"/>
      <use x="529.980469" xlink:href="#DejaVuSans-20"/>
      <use x="561.767578" xlink:href="#DejaVuSans-2d"/>
      <use x="597.851562" xlink:href="#DejaVuSans-20"/>
      <use x="629.638672" xlink:href="#DejaVuSans-31"/>
      <use x="693.261719" xlink:href="#DejaVuSans-20"/>
      <use x="725.048828" xlink:href="#DejaVuSans-28"/>
      <use x="764.0625" xlink:href="#DejaVuSans-41"/>
      <use x="832.470703" xlink:href="#DejaVuSans-55"/>
      <use x="905.664062" xlink:href="#DejaVuSans-43"/>
      <use x="975.488281" xlink:href="#DejaVuSans-20"/>
      <use x="1007.275391" xlink:href="#DejaVuSans-3d"/>
      <use x="1091.064453" xlink:href="#DejaVuSans-20"/>
      <use x="1122.851562" xlink:href="#DejaVuSans-30"/>
      <use x="1186.474609" xlink:href="#DejaVuSans-2e"/>
      <use x="1218.261719" xlink:href="#DejaVuSans-38"/>
      <use x="1281.884766" xlink:href="#DejaVuSans-32"/>
      <use x="1345.507812" xlink:href="#DejaVuSans-37"/>
      <use x="1409.130859" xlink:href="#DejaVuSans-29"/>
     </g>
    </g>
    <g id="line2d_21">
     <path d="M 219.087188 287.287812 
L 239.087188 287.287812 
" style="fill:none;stroke:#2ca02c;stroke-linecap:square;stroke-width:1.5;"/>
    </g>
    <g id="line2d_22"/>
    <g id="text_18">
     <!-- ROC curve - 2 (AUC = 0.816) -->
     <g transform="translate(247.087188 290.787812)scale(0.1 -0.1)">
      <use xlink:href="#DejaVuSans-52"/>
      <use x="69.482422" xlink:href="#DejaVuSans-4f"/>
      <use x="148.193359" xlink:href="#DejaVuSans-43"/>
      <use x="218.017578" xlink:href="#DejaVuSans-20"/>
      <use x="249.804688" xlink:href="#DejaVuSans-63"/>
      <use x="304.785156" xlink:href="#DejaVuSans-75"/>
      <use x="368.164062" xlink:href="#DejaVuSans-72"/>
      <use x="409.277344" xlink:href="#DejaVuSans-76"/>
      <use x="468.457031" xlink:href="#DejaVuSans-65"/>
      <use x="529.980469" xlink:href="#DejaVuSans-20"/>
      <use x="561.767578" xlink:href="#DejaVuSans-2d"/>
      <use x="597.851562" xlink:href="#DejaVuSans-20"/>
      <use x="629.638672" xlink:href="#DejaVuSans-32"/>
      <use x="693.261719" xlink:href="#DejaVuSans-20"/>
      <use x="725.048828" xlink:href="#DejaVuSans-28"/>
      <use x="764.0625" xlink:href="#DejaVuSans-41"/>
      <use x="832.470703" xlink:href="#DejaVuSans-55"/>
      <use x="905.664062" xlink:href="#DejaVuSans-43"/>
      <use x="975.488281" xlink:href="#DejaVuSans-20"/>
      <use x="1007.275391" xlink:href="#DejaVuSans-3d"/>
      <use x="1091.064453" xlink:href="#DejaVuSans-20"/>
      <use x="1122.851562" xlink:href="#DejaVuSans-30"/>
      <use x="1186.474609" xlink:href="#DejaVuSans-2e"/>
      <use x="1218.261719" xlink:href="#DejaVuSans-38"/>
      <use x="1281.884766" xlink:href="#DejaVuSans-31"/>
      <use x="1345.507812" xlink:href="#DejaVuSans-36"/>
      <use x="1409.130859" xlink:href="#DejaVuSans-29"/>
     </g>
    </g>
   </g>
  </g>
 </g>
 <defs>
  <clipPath id="p44cd68a2af">
   <rect height="266.112" width="357.12" x="43.78125" y="35.7555"/>
  </clipPath>
 </defs>
</svg>
