<?xml version="1.0" encoding="utf-8" standalone="no"?>
<!DOCTYPE svg PUBLIC "-//W3C//DTD SVG 1.1//EN"
  "http://www.w3.org/Graphics/SVG/1.1/DTD/svg11.dtd">
<!-- Created with matplotlib (http://matplotlib.org/) -->
<svg height="339pt" version="1.1" viewBox="0 0 416 339" width="416pt" xmlns="http://www.w3.org/2000/svg" xmlns:xlink="http://www.w3.org/1999/xlink">
 <defs>
  <style type="text/css">
*{stroke-linecap:butt;stroke-linejoin:round;}
  </style>
 </defs>
 <g id="figure_1">
  <g id="patch_1">
   <path d="M 0 339.42375 
L 416.052813 339.42375 
L 416.052813 0 
L 0 0 
z
" style="fill:#ffffff;"/>
  </g>
  <g id="axes_1">
   <g id="patch_2">
    <path d="M 43.78125 301.8675 
L 400.90125 301.8675 
L 400.90125 35.7555 
L 43.78125 35.7555 
z
" style="fill:#ffffff;"/>
   </g>
   <g id="matplotlib.axis_1">
    <g id="xtick_1">
     <g id="line2d_1">
      <defs>
       <path d="M 0 0 
L 0 3.5 
" id="ma8c9016eb7" style="stroke:#000000;stroke-width:0.8;"/>
      </defs>
      <g>
       <use style="stroke:#000000;stroke-width:0.8;" x="43.78125" xlink:href="#ma8c9016eb7" y="301.8675"/>
      </g>
     </g>
     <g id="text_1">
      <!-- 0.0 -->
      <defs>
       <path d="M 31.78125 66.40625 
Q 24.171875 66.40625 20.328125 58.90625 
Q 16.5 51.421875 16.5 36.375 
Q 16.5 21.390625 20.328125 13.890625 
Q 24.171875 6.390625 31.78125 6.390625 
Q 39.453125 6.390625 43.28125 13.890625 
Q 47.125 21.390625 47.125 36.375 
Q 47.125 51.421875 43.28125 58.90625 
Q 39.453125 66.40625 31.78125 66.40625 
M 31.78125 74.21875 
Q 44.046875 74.21875 50.515625 64.515625 
Q 56.984375 54.828125 56.984375 36.375 
Q 56.984375 17.96875 50.515625 8.265625 
Q 44.046875 -1.421875 31.78125 -1.421875 
Q 19.53125 -1.421875 13.0625 8.265625 
Q 6.59375 17.96875 6.59375 36.375 
Q 6.59375 54.828125 13.0625 64.515625 
Q 19.53125 74.21875 31.78125 74.21875 
" id="DejaVuSans-30"/>
       <path d="M 10.6875 12.40625 
L 21 12.40625 
L 21 0 
L 10.6875 0 
z
" id="DejaVuSans-2e"/>
      </defs>
      <g transform="translate(35.829688 316.465937)scale(0.1 -0.1)">
       <use xlink:href="#DejaVuSans-30"/>
       <use x="63.623047" xlink:href="#DejaVuSans-2e"/>
       <use x="95.410156" xlink:href="#DejaVuSans-30"/>
      </g>
     </g>
    </g>
    <g id="xtick_2">
     <g id="line2d_2">
      <g>
       <use style="stroke:#000000;stroke-width:0.8;" x="115.20525" xlink:href="#ma8c9016eb7" y="301.8675"/>
      </g>
     </g>
     <g id="text_2">
      <!-- 0.2 -->
      <defs>
       <path d="M 19.1875 8.296875 
L 53.609375 8.296875 
L 53.609375 0 
L 7.328125 0 
L 7.328125 8.296875 
Q 12.9375 14.109375 22.625 23.890625 
Q 32.328125 33.6875 34.8125 36.53125 
Q 39.546875 41.84375 41.421875 45.53125 
Q 43.3125 49.21875 43.3125 52.78125 
Q 43.3125 58.59375 39.234375 62.25 
Q 35.15625 65.921875 28.609375 65.921875 
Q 23.96875 65.921875 18.8125 64.3125 
Q 13.671875 62.703125 7.8125 59.421875 
L 7.8125 69.390625 
Q 13.765625 71.78125 18.9375 73 
Q 24.125 74.21875 28.421875 74.21875 
Q 39.75 74.21875 46.484375 68.546875 
Q 53.21875 62.890625 53.21875 53.421875 
Q 53.21875 48.921875 51.53125 44.890625 
Q 49.859375 40.875 45.40625 35.40625 
Q 44.1875 33.984375 37.640625 27.21875 
Q 31.109375 20.453125 19.1875 8.296875 
" id="DejaVuSans-32"/>
      </defs>
      <g transform="translate(107.253688 316.465937)scale(0.1 -0.1)">
       <use xlink:href="#DejaVuSans-30"/>
       <use x="63.623047" xlink:href="#DejaVuSans-2e"/>
       <use x="95.410156" xlink:href="#DejaVuSans-32"/>
      </g>
     </g>
    </g>
    <g id="xtick_3">
     <g id="line2d_3">
      <g>
       <use style="stroke:#000000;stroke-width:0.8;" x="186.62925" xlink:href="#ma8c9016eb7" y="301.8675"/>
      </g>
     </g>
     <g id="text_3">
      <!-- 0.4 -->
      <defs>
       <path d="M 37.796875 64.3125 
L 12.890625 25.390625 
L 37.796875 25.390625 
z
M 35.203125 72.90625 
L 47.609375 72.90625 
L 47.609375 25.390625 
L 58.015625 25.390625 
L 58.015625 17.1875 
L 47.609375 17.1875 
L 47.609375 0 
L 37.796875 0 
L 37.796875 17.1875 
L 4.890625 17.1875 
L 4.890625 26.703125 
z
" id="DejaVuSans-34"/>
      </defs>
      <g transform="translate(178.677688 316.465937)scale(0.1 -0.1)">
       <use xlink:href="#DejaVuSans-30"/>
       <use x="63.623047" xlink:href="#DejaVuSans-2e"/>
       <use x="95.410156" xlink:href="#DejaVuSans-34"/>
      </g>
     </g>
    </g>
    <g id="xtick_4">
     <g id="line2d_4">
      <g>
       <use style="stroke:#000000;stroke-width:0.8;" x="258.05325" xlink:href="#ma8c9016eb7" y="301.8675"/>
      </g>
     </g>
     <g id="text_4">
      <!-- 0.6 -->
      <defs>
       <path d="M 33.015625 40.375 
Q 26.375 40.375 22.484375 35.828125 
Q 18.609375 31.296875 18.609375 23.390625 
Q 18.609375 15.53125 22.484375 10.953125 
Q 26.375 6.390625 33.015625 6.390625 
Q 39.65625 6.390625 43.53125 10.953125 
Q 47.40625 15.53125 47.40625 23.390625 
Q 47.40625 31.296875 43.53125 35.828125 
Q 39.65625 40.375 33.015625 40.375 
M 52.59375 71.296875 
L 52.59375 62.3125 
Q 48.875 64.0625 45.09375 64.984375 
Q 41.3125 65.921875 37.59375 65.921875 
Q 27.828125 65.921875 22.671875 59.328125 
Q 17.53125 52.734375 16.796875 39.40625 
Q 19.671875 43.65625 24.015625 45.921875 
Q 28.375 48.1875 33.59375 48.1875 
Q 44.578125 48.1875 50.953125 41.515625 
Q 57.328125 34.859375 57.328125 23.390625 
Q 57.328125 12.15625 50.6875 5.359375 
Q 44.046875 -1.421875 33.015625 -1.421875 
Q 20.359375 -1.421875 13.671875 8.265625 
Q 6.984375 17.96875 6.984375 36.375 
Q 6.984375 53.65625 15.1875 63.9375 
Q 23.390625 74.21875 37.203125 74.21875 
Q 40.921875 74.21875 44.703125 73.484375 
Q 48.484375 72.75 52.59375 71.296875 
" id="DejaVuSans-36"/>
      </defs>
      <g transform="translate(250.101688 316.465937)scale(0.1 -0.1)">
       <use xlink:href="#DejaVuSans-30"/>
       <use x="63.623047" xlink:href="#DejaVuSans-2e"/>
       <use x="95.410156" xlink:href="#DejaVuSans-36"/>
      </g>
     </g>
    </g>
    <g id="xtick_5">
     <g id="line2d_5">
      <g>
       <use style="stroke:#000000;stroke-width:0.8;" x="329.47725" xlink:href="#ma8c9016eb7" y="301.8675"/>
      </g>
     </g>
     <g id="text_5">
      <!-- 0.8 -->
      <defs>
       <path d="M 31.78125 34.625 
Q 24.75 34.625 20.71875 30.859375 
Q 16.703125 27.09375 16.703125 20.515625 
Q 16.703125 13.921875 20.71875 10.15625 
Q 24.75 6.390625 31.78125 6.390625 
Q 38.8125 6.390625 42.859375 10.171875 
Q 46.921875 13.96875 46.921875 20.515625 
Q 46.921875 27.09375 42.890625 30.859375 
Q 38.875 34.625 31.78125 34.625 
M 21.921875 38.8125 
Q 15.578125 40.375 12.03125 44.71875 
Q 8.5 49.078125 8.5 55.328125 
Q 8.5 64.0625 14.71875 69.140625 
Q 20.953125 74.21875 31.78125 74.21875 
Q 42.671875 74.21875 48.875 69.140625 
Q 55.078125 64.0625 55.078125 55.328125 
Q 55.078125 49.078125 51.53125 44.71875 
Q 48 40.375 41.703125 38.8125 
Q 48.828125 37.15625 52.796875 32.3125 
Q 56.78125 27.484375 56.78125 20.515625 
Q 56.78125 9.90625 50.3125 4.234375 
Q 43.84375 -1.421875 31.78125 -1.421875 
Q 19.734375 -1.421875 13.25 4.234375 
Q 6.78125 9.90625 6.78125 20.515625 
Q 6.78125 27.484375 10.78125 32.3125 
Q 14.796875 37.15625 21.921875 38.8125 
M 18.3125 54.390625 
Q 18.3125 48.734375 21.84375 45.5625 
Q 25.390625 42.390625 31.78125 42.390625 
Q 38.140625 42.390625 41.71875 45.5625 
Q 45.3125 48.734375 45.3125 54.390625 
Q 45.3125 60.0625 41.71875 63.234375 
Q 38.140625 66.40625 31.78125 66.40625 
Q 25.390625 66.40625 21.84375 63.234375 
Q 18.3125 60.0625 18.3125 54.390625 
" id="DejaVuSans-38"/>
      </defs>
      <g transform="translate(321.525688 316.465937)scale(0.1 -0.1)">
       <use xlink:href="#DejaVuSans-30"/>
       <use x="63.623047" xlink:href="#DejaVuSans-2e"/>
       <use x="95.410156" xlink:href="#DejaVuSans-38"/>
      </g>
     </g>
    </g>
    <g id="xtick_6">
     <g id="line2d_6">
      <g>
       <use style="stroke:#000000;stroke-width:0.8;" x="400.90125" xlink:href="#ma8c9016eb7" y="301.8675"/>
      </g>
     </g>
     <g id="text_6">
      <!-- 1.0 -->
      <defs>
       <path d="M 12.40625 8.296875 
L 28.515625 8.296875 
L 28.515625 63.921875 
L 10.984375 60.40625 
L 10.984375 69.390625 
L 28.421875 72.90625 
L 38.28125 72.90625 
L 38.28125 8.296875 
L 54.390625 8.296875 
L 54.390625 0 
L 12.40625 0 
z
" id="DejaVuSans-31"/>
      </defs>
      <g transform="translate(392.949688 316.465937)scale(0.1 -0.1)">
       <use xlink:href="#DejaVuSans-31"/>
       <use x="63.623047" xlink:href="#DejaVuSans-2e"/>
       <use x="95.410156" xlink:href="#DejaVuSans-30"/>
      </g>
     </g>
    </g>
    <g id="text_7">
     <!-- False Positive Rate -->
     <defs>
      <path d="M 9.8125 72.90625 
L 51.703125 72.90625 
L 51.703125 64.59375 
L 19.671875 64.59375 
L 19.671875 43.109375 
L 48.578125 43.109375 
L 48.578125 34.8125 
L 19.671875 34.8125 
L 19.671875 0 
L 9.8125 0 
z
" id="DejaVuSans-46"/>
      <path d="M 34.28125 27.484375 
Q 23.390625 27.484375 19.1875 25 
Q 14.984375 22.515625 14.984375 16.5 
Q 14.984375 11.71875 18.140625 8.90625 
Q 21.296875 6.109375 26.703125 6.109375 
Q 34.1875 6.109375 38.703125 11.40625 
Q 43.21875 16.703125 43.21875 25.484375 
L 43.21875 27.484375 
z
M 52.203125 31.203125 
L 52.203125 0 
L 43.21875 0 
L 43.21875 8.296875 
Q 40.140625 3.328125 35.546875 0.953125 
Q 30.953125 -1.421875 24.3125 -1.421875 
Q 15.921875 -1.421875 10.953125 3.296875 
Q 6 8.015625 6 15.921875 
Q 6 25.140625 12.171875 29.828125 
Q 18.359375 34.515625 30.609375 34.515625 
L 43.21875 34.515625 
L 43.21875 35.40625 
Q 43.21875 41.609375 39.140625 45 
Q 35.0625 48.390625 27.6875 48.390625 
Q 23 48.390625 18.546875 47.265625 
Q 14.109375 46.140625 10.015625 43.890625 
L 10.015625 52.203125 
Q 14.9375 54.109375 19.578125 55.046875 
Q 24.21875 56 28.609375 56 
Q 40.484375 56 46.34375 49.84375 
Q 52.203125 43.703125 52.203125 31.203125 
" id="DejaVuSans-61"/>
      <path d="M 9.421875 75.984375 
L 18.40625 75.984375 
L 18.40625 0 
L 9.421875 0 
z
" id="DejaVuSans-6c"/>
      <path d="M 44.28125 53.078125 
L 44.28125 44.578125 
Q 40.484375 46.53125 36.375 47.5 
Q 32.28125 48.484375 27.875 48.484375 
Q 21.1875 48.484375 17.84375 46.4375 
Q 14.5 44.390625 14.5 40.28125 
Q 14.5 37.15625 16.890625 35.375 
Q 19.28125 33.59375 26.515625 31.984375 
L 29.59375 31.296875 
Q 39.15625 29.25 43.1875 25.515625 
Q 47.21875 21.78125 47.21875 15.09375 
Q 47.21875 7.46875 41.1875 3.015625 
Q 35.15625 -1.421875 24.609375 -1.421875 
Q 20.21875 -1.421875 15.453125 -0.5625 
Q 10.6875 0.296875 5.421875 2 
L 5.421875 11.28125 
Q 10.40625 8.6875 15.234375 7.390625 
Q 20.0625 6.109375 24.8125 6.109375 
Q 31.15625 6.109375 34.5625 8.28125 
Q 37.984375 10.453125 37.984375 14.40625 
Q 37.984375 18.0625 35.515625 20.015625 
Q 33.0625 21.96875 24.703125 23.78125 
L 21.578125 24.515625 
Q 13.234375 26.265625 9.515625 29.90625 
Q 5.8125 33.546875 5.8125 39.890625 
Q 5.8125 47.609375 11.28125 51.796875 
Q 16.75 56 26.8125 56 
Q 31.78125 56 36.171875 55.265625 
Q 40.578125 54.546875 44.28125 53.078125 
" id="DejaVuSans-73"/>
      <path d="M 56.203125 29.59375 
L 56.203125 25.203125 
L 14.890625 25.203125 
Q 15.484375 15.921875 20.484375 11.0625 
Q 25.484375 6.203125 34.421875 6.203125 
Q 39.59375 6.203125 44.453125 7.46875 
Q 49.3125 8.734375 54.109375 11.28125 
L 54.109375 2.78125 
Q 49.265625 0.734375 44.1875 -0.34375 
Q 39.109375 -1.421875 33.890625 -1.421875 
Q 20.796875 -1.421875 13.15625 6.1875 
Q 5.515625 13.8125 5.515625 26.8125 
Q 5.515625 40.234375 12.765625 48.109375 
Q 20.015625 56 32.328125 56 
Q 43.359375 56 49.78125 48.890625 
Q 56.203125 41.796875 56.203125 29.59375 
M 47.21875 32.234375 
Q 47.125 39.59375 43.09375 43.984375 
Q 39.0625 48.390625 32.421875 48.390625 
Q 24.90625 48.390625 20.390625 44.140625 
Q 15.875 39.890625 15.1875 32.171875 
z
" id="DejaVuSans-65"/>
      <path id="DejaVuSans-20"/>
      <path d="M 19.671875 64.796875 
L 19.671875 37.40625 
L 32.078125 37.40625 
Q 38.96875 37.40625 42.71875 40.96875 
Q 46.484375 44.53125 46.484375 51.125 
Q 46.484375 57.671875 42.71875 61.234375 
Q 38.96875 64.796875 32.078125 64.796875 
z
M 9.8125 72.90625 
L 32.078125 72.90625 
Q 44.34375 72.90625 50.609375 67.359375 
Q 56.890625 61.8125 56.890625 51.125 
Q 56.890625 40.328125 50.609375 34.8125 
Q 44.34375 29.296875 32.078125 29.296875 
L 19.671875 29.296875 
L 19.671875 0 
L 9.8125 0 
z
" id="DejaVuSans-50"/>
      <path d="M 30.609375 48.390625 
Q 23.390625 48.390625 19.1875 42.75 
Q 14.984375 37.109375 14.984375 27.296875 
Q 14.984375 17.484375 19.15625 11.84375 
Q 23.34375 6.203125 30.609375 6.203125 
Q 37.796875 6.203125 41.984375 11.859375 
Q 46.1875 17.53125 46.1875 27.296875 
Q 46.1875 37.015625 41.984375 42.703125 
Q 37.796875 48.390625 30.609375 48.390625 
M 30.609375 56 
Q 42.328125 56 49.015625 48.375 
Q 55.71875 40.765625 55.71875 27.296875 
Q 55.71875 13.875 49.015625 6.21875 
Q 42.328125 -1.421875 30.609375 -1.421875 
Q 18.84375 -1.421875 12.171875 6.21875 
Q 5.515625 13.875 5.515625 27.296875 
Q 5.515625 40.765625 12.171875 48.375 
Q 18.84375 56 30.609375 56 
" id="DejaVuSans-6f"/>
      <path d="M 9.421875 54.6875 
L 18.40625 54.6875 
L 18.40625 0 
L 9.421875 0 
z
M 9.421875 75.984375 
L 18.40625 75.984375 
L 18.40625 64.59375 
L 9.421875 64.59375 
z
" id="DejaVuSans-69"/>
      <path d="M 18.3125 70.21875 
L 18.3125 54.6875 
L 36.8125 54.6875 
L 36.8125 47.703125 
L 18.3125 47.703125 
L 18.3125 18.015625 
Q 18.3125 11.328125 20.140625 9.421875 
Q 21.96875 7.515625 27.59375 7.515625 
L 36.8125 7.515625 
L 36.8125 0 
L 27.59375 0 
Q 17.1875 0 13.234375 3.875 
Q 9.28125 7.765625 9.28125 18.015625 
L 9.28125 47.703125 
L 2.6875 47.703125 
L 2.6875 54.6875 
L 9.28125 54.6875 
L 9.28125 70.21875 
z
" id="DejaVuSans-74"/>
      <path d="M 2.984375 54.6875 
L 12.5 54.6875 
L 29.59375 8.796875 
L 46.6875 54.6875 
L 56.203125 54.6875 
L 35.6875 0 
L 23.484375 0 
z
" id="DejaVuSans-76"/>
      <path d="M 44.390625 34.1875 
Q 47.5625 33.109375 50.5625 29.59375 
Q 53.5625 26.078125 56.59375 19.921875 
L 66.609375 0 
L 56 0 
L 46.6875 18.703125 
Q 43.0625 26.03125 39.671875 28.421875 
Q 36.28125 30.8125 30.421875 30.8125 
L 19.671875 30.8125 
L 19.671875 0 
L 9.8125 0 
L 9.8125 72.90625 
L 32.078125 72.90625 
Q 44.578125 72.90625 50.734375 67.671875 
Q 56.890625 62.453125 56.890625 51.90625 
Q 56.890625 45.015625 53.6875 40.46875 
Q 50.484375 35.9375 44.390625 34.1875 
M 19.671875 64.796875 
L 19.671875 38.921875 
L 32.078125 38.921875 
Q 39.203125 38.921875 42.84375 42.21875 
Q 46.484375 45.515625 46.484375 51.90625 
Q 46.484375 58.296875 42.84375 61.546875 
Q 39.203125 64.796875 32.078125 64.796875 
z
" id="DejaVuSans-52"/>
     </defs>
     <g transform="translate(175.135781 330.144062)scale(0.1 -0.1)">
      <use xlink:href="#DejaVuSans-46"/>
      <use x="57.378906" xlink:href="#DejaVuSans-61"/>
      <use x="118.658203" xlink:href="#DejaVuSans-6c"/>
      <use x="146.441406" xlink:href="#DejaVuSans-73"/>
      <use x="198.541016" xlink:href="#DejaVuSans-65"/>
      <use x="260.064453" xlink:href="#DejaVuSans-20"/>
      <use x="291.851562" xlink:href="#DejaVuSans-50"/>
      <use x="352.107422" xlink:href="#DejaVuSans-6f"/>
      <use x="413.289062" xlink:href="#DejaVuSans-73"/>
      <use x="465.388672" xlink:href="#DejaVuSans-69"/>
      <use x="493.171875" xlink:href="#DejaVuSans-74"/>
      <use x="532.380859" xlink:href="#DejaVuSans-69"/>
      <use x="560.164062" xlink:href="#DejaVuSans-76"/>
      <use x="619.34375" xlink:href="#DejaVuSans-65"/>
      <use x="680.867188" xlink:href="#DejaVuSans-20"/>
      <use x="712.654297" xlink:href="#DejaVuSans-52"/>
      <use x="782.105469" xlink:href="#DejaVuSans-61"/>
      <use x="843.384766" xlink:href="#DejaVuSans-74"/>
      <use x="882.59375" xlink:href="#DejaVuSans-65"/>
     </g>
    </g>
   </g>
   <g id="matplotlib.axis_2">
    <g id="ytick_1">
     <g id="line2d_7">
      <defs>
       <path d="M 0 0 
L -3.5 0 
" id="m8e1cb2413d" style="stroke:#000000;stroke-width:0.8;"/>
      </defs>
      <g>
       <use style="stroke:#000000;stroke-width:0.8;" x="43.78125" xlink:href="#m8e1cb2413d" y="301.8675"/>
      </g>
     </g>
     <g id="text_8">
      <!-- 0.0 -->
      <g transform="translate(20.878125 305.666719)scale(0.1 -0.1)">
       <use xlink:href="#DejaVuSans-30"/>
       <use x="63.623047" xlink:href="#DejaVuSans-2e"/>
       <use x="95.410156" xlink:href="#DejaVuSans-30"/>
      </g>
     </g>
    </g>
    <g id="ytick_2">
     <g id="line2d_8">
      <g>
       <use style="stroke:#000000;stroke-width:0.8;" x="43.78125" xlink:href="#m8e1cb2413d" y="251.1795"/>
      </g>
     </g>
     <g id="text_9">
      <!-- 0.2 -->
      <g transform="translate(20.878125 254.978719)scale(0.1 -0.1)">
       <use xlink:href="#DejaVuSans-30"/>
       <use x="63.623047" xlink:href="#DejaVuSans-2e"/>
       <use x="95.410156" xlink:href="#DejaVuSans-32"/>
      </g>
     </g>
    </g>
    <g id="ytick_3">
     <g id="line2d_9">
      <g>
       <use style="stroke:#000000;stroke-width:0.8;" x="43.78125" xlink:href="#m8e1cb2413d" y="200.4915"/>
      </g>
     </g>
     <g id="text_10">
      <!-- 0.4 -->
      <g transform="translate(20.878125 204.290719)scale(0.1 -0.1)">
       <use xlink:href="#DejaVuSans-30"/>
       <use x="63.623047" xlink:href="#DejaVuSans-2e"/>
       <use x="95.410156" xlink:href="#DejaVuSans-34"/>
      </g>
     </g>
    </g>
    <g id="ytick_4">
     <g id="line2d_10">
      <g>
       <use style="stroke:#000000;stroke-width:0.8;" x="43.78125" xlink:href="#m8e1cb2413d" y="149.8035"/>
      </g>
     </g>
     <g id="text_11">
      <!-- 0.6 -->
      <g transform="translate(20.878125 153.602719)scale(0.1 -0.1)">
       <use xlink:href="#DejaVuSans-30"/>
       <use x="63.623047" xlink:href="#DejaVuSans-2e"/>
       <use x="95.410156" xlink:href="#DejaVuSans-36"/>
      </g>
     </g>
    </g>
    <g id="ytick_5">
     <g id="line2d_11">
      <g>
       <use style="stroke:#000000;stroke-width:0.8;" x="43.78125" xlink:href="#m8e1cb2413d" y="99.1155"/>
      </g>
     </g>
     <g id="text_12">
      <!-- 0.8 -->
      <g transform="translate(20.878125 102.914719)scale(0.1 -0.1)">
       <use xlink:href="#DejaVuSans-30"/>
       <use x="63.623047" xlink:href="#DejaVuSans-2e"/>
       <use x="95.410156" xlink:href="#DejaVuSans-38"/>
      </g>
     </g>
    </g>
    <g id="ytick_6">
     <g id="line2d_12">
      <g>
       <use style="stroke:#000000;stroke-width:0.8;" x="43.78125" xlink:href="#m8e1cb2413d" y="48.4275"/>
      </g>
     </g>
     <g id="text_13">
      <!-- 1.0 -->
      <g transform="translate(20.878125 52.226719)scale(0.1 -0.1)">
       <use xlink:href="#DejaVuSans-31"/>
       <use x="63.623047" xlink:href="#DejaVuSans-2e"/>
       <use x="95.410156" xlink:href="#DejaVuSans-30"/>
      </g>
     </g>
    </g>
    <g id="text_14">
     <!-- True Positive Rate -->
     <defs>
      <path d="M -0.296875 72.90625 
L 61.375 72.90625 
L 61.375 64.59375 
L 35.5 64.59375 
L 35.5 0 
L 25.59375 0 
L 25.59375 64.59375 
L -0.296875 64.59375 
z
" id="DejaVuSans-54"/>
      <path d="M 41.109375 46.296875 
Q 39.59375 47.171875 37.8125 47.578125 
Q 36.03125 48 33.890625 48 
Q 26.265625 48 22.1875 43.046875 
Q 18.109375 38.09375 18.109375 28.8125 
L 18.109375 0 
L 9.078125 0 
L 9.078125 54.6875 
L 18.109375 54.6875 
L 18.109375 46.1875 
Q 20.953125 51.171875 25.484375 53.578125 
Q 30.03125 56 36.53125 56 
Q 37.453125 56 38.578125 55.875 
Q 39.703125 55.765625 41.0625 55.515625 
z
" id="DejaVuSans-72"/>
      <path d="M 8.5 21.578125 
L 8.5 54.6875 
L 17.484375 54.6875 
L 17.484375 21.921875 
Q 17.484375 14.15625 20.5 10.265625 
Q 23.53125 6.390625 29.59375 6.390625 
Q 36.859375 6.390625 41.078125 11.03125 
Q 45.3125 15.671875 45.3125 23.6875 
L 45.3125 54.6875 
L 54.296875 54.6875 
L 54.296875 0 
L 45.3125 0 
L 45.3125 8.40625 
Q 42.046875 3.421875 37.71875 1 
Q 33.40625 -1.421875 27.6875 -1.421875 
Q 18.265625 -1.421875 13.375 4.4375 
Q 8.5 10.296875 8.5 21.578125 
M 31.109375 56 
z
" id="DejaVuSans-75"/>
     </defs>
     <g transform="translate(14.798438 214.357594)rotate(-90)scale(0.1 -0.1)">
      <use xlink:href="#DejaVuSans-54"/>
      <use x="60.865234" xlink:href="#DejaVuSans-72"/>
      <use x="101.978516" xlink:href="#DejaVuSans-75"/>
      <use x="165.357422" xlink:href="#DejaVuSans-65"/>
      <use x="226.880859" xlink:href="#DejaVuSans-20"/>
      <use x="258.667969" xlink:href="#DejaVuSans-50"/>
      <use x="318.923828" xlink:href="#DejaVuSans-6f"/>
      <use x="380.105469" xlink:href="#DejaVuSans-73"/>
      <use x="432.205078" xlink:href="#DejaVuSans-69"/>
      <use x="459.988281" xlink:href="#DejaVuSans-74"/>
      <use x="499.197266" xlink:href="#DejaVuSans-69"/>
      <use x="526.980469" xlink:href="#DejaVuSans-76"/>
      <use x="586.160156" xlink:href="#DejaVuSans-65"/>
      <use x="647.683594" xlink:href="#DejaVuSans-20"/>
      <use x="679.470703" xlink:href="#DejaVuSans-52"/>
      <use x="748.921875" xlink:href="#DejaVuSans-61"/>
      <use x="810.201172" xlink:href="#DejaVuSans-74"/>
      <use x="849.410156" xlink:href="#DejaVuSans-65"/>
     </g>
    </g>
   </g>
   <g id="line2d_13">
    <path clip-path="url(#p62102b6105)" d="M 43.78125 301.8675 
L 44.757949 277.599034 
L 44.951529 271.807696 
L 45.096714 268.49836 
L 45.351888 262.431243 
L 46.363784 247.263452 
L 46.508969 246.16034 
L 46.640955 246.16034 
L 46.78614 244.229894 
L 46.98852 240.369002 
L 47.239294 238.162777 
L 47.388878 236.508109 
L 48.009214 229.889437 
L 48.207194 227.131657 
L 48.889124 218.858316 
L 49.047507 217.755204 
L 49.188293 215.54898 
L 49.430268 212.7912 
L 49.597451 212.239644 
L 49.89662 208.930307 
L 50.323376 204.793637 
L 51.027303 195.417184 
L 51.15929 195.417184 
L 51.295676 194.314072 
L 51.44966 194.314072 
L 51.484856 193.762516 
L 51.682836 193.762516 
L 51.902813 192.383626 
L 52.215181 188.522734 
L 52.523149 188.522734 
L 52.949905 183.55873 
L 53.156684 181.352505 
L 53.306268 179.697837 
L 53.394259 179.697837 
L 53.719826 176.940057 
L 53.887009 176.388501 
L 54.076189 174.458055 
L 54.142182 174.458055 
L 54.533742 170.045607 
L 54.577737 170.045607 
L 54.700925 169.494051 
L 54.9429 168.115161 
L 55.321261 163.702712 
L 55.607231 163.702712 
L 55.743617 162.5996 
L 55.963595 162.5996 
L 55.998791 162.048044 
L 56.469543 159.84182 
L 56.773111 158.187152 
L 56.861102 158.187152 
L 57.054682 156.532484 
L 57.472639 156.532484 
L 57.573829 155.980928 
L 57.705815 155.980928 
L 57.95219 154.877816 
L 58.216163 154.877816 
L 58.356948 154.050482 
L 58.444939 154.050482 
L 59.949584 146.052919 
L 60.037575 146.052919 
L 60.301548 143.019361 
L 60.719505 143.019361 
L 60.829493 140.261581 
L 62.039369 140.261581 
L 62.21535 139.985803 
L 62.347337 139.985803 
L 62.492522 139.434246 
L 62.558515 139.434246 
L 64.089557 136.12491 
L 65.343428 136.12491 
L 65.369825 135.021798 
L 66.553303 133.36713 
L 66.931664 132.264018 
L 69.901358 131.712462 
L 70.75927 131.712462 
L 73.249413 127.85157 
L 73.988537 127.300014 
L 75.726358 127.300014 
L 400.90125 48.4275 
L 400.90125 48.4275 
" style="fill:none;stroke:#1f77b4;stroke-linecap:square;stroke-width:1.5;"/>
   </g>
   <g id="line2d_14">
    <path clip-path="url(#p62102b6105)" d="M 43.78125 301.8675 
L 48.985914 275.117032 
L 49.144297 274.01392 
L 51.286877 273.462364 
L 52.659535 268.49836 
L 52.853115 266.843692 
L 52.985102 266.843692 
L 53.0027 265.189023 
L 58.889293 263.534355 
L 59.091672 262.431243 
L 59.223659 262.431243 
L 59.430437 260.225019 
L 59.448036 258.570351 
L 60.996676 256.364127 
L 61.54222 251.951678 
L 61.678606 250.572788 
L 61.898583 250.572788 
L 62.127359 248.366564 
L 62.188953 246.711896 
L 78.141709 245.057228 
L 78.352888 238.990112 
L 78.977623 228.510547 
L 79.184402 227.958991 
L 79.333986 226.304323 
L 79.470372 225.201211 
L 79.725546 222.44343 
L 79.804738 219.409872 
L 81.129001 218.30676 
L 81.304983 215.54898 
L 81.384175 214.997424 
L 81.577755 211.136532 
L 81.775735 208.378751 
L 82.800829 194.038294 
L 82.880021 193.486738 
L 82.932816 191.280514 
L 86.632834 190.177402 
L 87.235572 182.455618 
L 87.279568 182.455618 
L 87.55234 180.249393 
L 87.701924 178.594725 
L 88.405852 173.079165 
L 88.603831 171.700275 
L 88.911799 169.494051 
L 88.99979 169.494051 
L 89.466142 165.633158 
L 101.578094 163.151156 
L 101.771674 161.772266 
L 102.079643 159.014486 
L 102.559193 153.223147 
L 102.603189 153.223147 
L 102.761572 152.120035 
L 102.805568 152.120035 
L 103.27192 148.259143 
L 103.491897 148.259143 
L 103.553491 146.604475 
L 103.799865 145.501363 
L 103.931852 145.501363 
L 104.081436 143.846695 
L 104.248619 143.295139 
L 104.477395 141.088915 
L 104.521391 141.088915 
L 104.662176 138.88269 
L 104.829359 138.606912 
L 104.952547 138.055356 
L 105.128528 138.055356 
L 105.30451 135.297576 
L 105.480492 135.297576 
L 105.69607 133.642908 
L 105.872052 133.642908 
L 106.188819 131.436684 
L 106.364801 131.436684 
L 106.487988 130.885128 
L 106.575979 130.885128 
L 106.716765 128.678904 
L 117.064498 124.818011 
L 117.231681 124.266455 
L 117.34167 124.266455 
L 117.482455 122.060231 
L 118.010401 122.060231 
L 118.357965 119.026673 
L 118.472353 117.923561 
L 118.648335 117.923561 
L 118.683532 117.372005 
L 119.097089 116.820449 
L 119.405057 116.820449 
L 119.906606 115.165781 
L 120.126583 115.165781 
L 120.689725 111.856445 
L 120.821711 111.856445 
L 122.247164 107.443996 
L 122.361553 106.340884 
L 123.241462 106.340884 
L 124.13017 104.13466 
L 124.900091 102.75577 
L 124.988082 102.75577 
L 125.067274 102.204214 
L 400.90125 48.4275 
L 400.90125 48.4275 
" style="fill:none;stroke:#ff7f0e;stroke-linecap:square;stroke-width:1.5;"/>
   </g>
   <g id="line2d_15">
    <path clip-path="url(#p62102b6105)" d="M 43.78125 301.8675 
L 44.16841 293.03299 
L 45.637859 282.265931 
L 45.752247 278.400833 
L 45.840238 278.400833 
L 46.315389 275.087892 
L 46.583761 268.46201 
L 46.733346 266.805539 
L 46.759743 265.701225 
L 46.891729 265.701225 
L 47.542862 255.486324 
L 49.016711 254.934167 
L 49.192692 249.412598 
L 49.368674 249.412598 
L 49.50946 247.203971 
L 49.553455 247.203971 
L 49.861423 244.443186 
L 50.107798 243.338873 
L 50.204588 242.510637 
L 50.38057 242.510637 
L 50.626945 241.406324 
L 50.780929 237.265147 
L 50.978908 235.608676 
L 51.15929 234.228284 
L 51.300075 232.019657 
L 51.388066 232.019657 
L 51.792824 229.811029 
L 51.872016 229.258873 
L 52.012802 227.050245 
L 52.100793 227.050245 
L 52.338368 225.393775 
L 52.452756 224.289461 
L 52.703531 222.080833 
L 54.463349 222.080833 
L 55.079286 218.215735 
L 55.321261 218.215735 
L 55.602832 216.559265 
L 55.690823 216.559265 
L 55.783213 215.454951 
L 56.135177 215.454951 
L 56.148376 214.350637 
L 56.465143 212.14201 
L 56.680721 209.105147 
L 56.724716 209.105147 
L 56.847904 208.55299 
L 57.155872 208.55299 
L 57.235064 208.000833 
L 57.389048 205.240049 
L 57.433043 205.240049 
L 57.626623 203.583578 
L 57.978587 203.583578 
L 58.004984 202.479265 
L 58.180966 202.479265 
L 58.506533 200.822794 
L 58.673715 200.822794 
L 59.104871 197.509853 
L 59.192862 197.509853 
L 59.364444 195.853382 
L 59.799999 195.577304 
L 60.028776 193.368676 
L 60.556721 188.951422 
L 60.86469 188.951422 
L 61.146261 185.914559 
L 61.419032 183.705931 
L 67.26163 178.184363 
L 67.5608 174.871422 
L 67.604795 174.871422 
L 67.683987 174.319265 
L 67.991955 174.319265 
L 68.211933 172.938873 
L 68.502303 172.386716 
L 68.581494 171.834559 
L 68.713481 171.834559 
L 69.056645 171.282402 
L 69.461404 169.073775 
L 69.505399 169.073775 
L 69.716577 167.141225 
L 70.156532 167.141225 
L 70.420505 164.380441 
L 70.649281 162.171814 
L 71.014444 158.858873 
L 71.181626 158.306716 
L 71.445599 158.306716 
L 71.652378 155.545931 
L 72.136328 155.545931 
L 72.294712 154.441618 
L 72.813858 153.889461 
L 73.095429 152.23299 
L 73.482589 151.680833 
L 73.728964 150.57652 
L 73.984138 150.024363 
L 74.072129 150.024363 
L 74.15132 149.472206 
L 74.283307 149.472206 
L 74.437291 148.367892 
L 74.613273 148.367892 
L 74.824451 147.815735 
L 75.12362 145.883186 
L 76.00353 145.883186 
L 76.082721 145.331029 
L 77.112215 139.257304 
L 77.288197 139.257304 
L 77.93933 138.705147 
L 78.220901 137.048676 
L 78.999621 136.220441 
L 79.140406 135.392206 
L 79.580361 132.631422 
L 80.125905 130.974951 
L 80.257891 130.974951 
L 80.451471 129.31848 
L 80.803435 129.31848 
L 80.926622 128.766324 
L 81.098205 128.490245 
L 92.49743 124.07299 
L 92.567823 122.968676 
L 92.655814 122.968676 
L 92.761403 122.692598 
L 93.069371 122.692598 
L 93.122166 121.864363 
L 93.826093 121.864363 
L 93.94928 121.312206 
L 94.125262 121.312206 
L 94.160459 120.760049 
L 94.670806 119.655735 
L 94.890783 119.655735 
L 94.92598 119.103578 
L 95.101962 119.103578 
L 96.149054 118.551422 
L 96.228246 117.999265 
L 97.064159 117.999265 
L 97.130153 116.618873 
L 97.306134 116.618873 
L 97.534911 114.410245 
L 98.450017 113.858088 
L 98.845976 113.858088 
L 99.048355 112.753775 
L 100.544201 109.99299 
L 100.922562 108.888676 
L 101.054548 108.888676 
L 103.280719 105.023578 
L 104.116633 105.023578 
L 105.124129 104.471422 
L 106.927943 101.710637 
L 107.482286 100.606324 
L 108.362195 100.606324 
L 108.397392 100.054167 
L 400.90125 48.4275 
L 400.90125 48.4275 
" style="fill:none;stroke:#2ca02c;stroke-linecap:square;stroke-width:1.5;"/>
   </g>
   <g id="line2d_16">
    <path clip-path="url(#p62102b6105)" d="M 43.78125 301.8675 
L 400.90125 48.4275 
" style="fill:none;stroke:#000000;stroke-dasharray:5.6,2.4;stroke-dashoffset:0;stroke-width:1.5;"/>
   </g>
   <g id="patch_3">
    <path d="M 43.78125 301.8675 
L 43.78125 35.7555 
" style="fill:none;stroke:#000000;stroke-linecap:square;stroke-linejoin:miter;stroke-width:0.8;"/>
   </g>
   <g id="patch_4">
    <path d="M 400.90125 301.8675 
L 400.90125 35.7555 
" style="fill:none;stroke:#000000;stroke-linecap:square;stroke-linejoin:miter;stroke-width:0.8;"/>
   </g>
   <g id="patch_5">
    <path d="M 43.78125 301.8675 
L 400.90125 301.8675 
" style="fill:none;stroke:#000000;stroke-linecap:square;stroke-linejoin:miter;stroke-width:0.8;"/>
   </g>
   <g id="patch_6">
    <path d="M 43.78125 35.7555 
L 400.90125 35.7555 
" style="fill:none;stroke:#000000;stroke-linecap:square;stroke-linejoin:miter;stroke-width:0.8;"/>
   </g>
   <g id="text_15">
    <!-- ROC Curve RandomForest + DummySampler -->
    <defs>
     <path d="M 39.40625 66.21875 
Q 28.65625 66.21875 22.328125 58.203125 
Q 16.015625 50.203125 16.015625 36.375 
Q 16.015625 22.609375 22.328125 14.59375 
Q 28.65625 6.59375 39.40625 6.59375 
Q 50.140625 6.59375 56.421875 14.59375 
Q 62.703125 22.609375 62.703125 36.375 
Q 62.703125 50.203125 56.421875 58.203125 
Q 50.140625 66.21875 39.40625 66.21875 
M 39.40625 74.21875 
Q 54.734375 74.21875 63.90625 63.9375 
Q 73.09375 53.65625 73.09375 36.375 
Q 73.09375 19.140625 63.90625 8.859375 
Q 54.734375 -1.421875 39.40625 -1.421875 
Q 24.03125 -1.421875 14.8125 8.828125 
Q 5.609375 19.09375 5.609375 36.375 
Q 5.609375 53.65625 14.8125 63.9375 
Q 24.03125 74.21875 39.40625 74.21875 
" id="DejaVuSans-4f"/>
     <path d="M 64.40625 67.28125 
L 64.40625 56.890625 
Q 59.421875 61.53125 53.78125 63.8125 
Q 48.140625 66.109375 41.796875 66.109375 
Q 29.296875 66.109375 22.65625 58.46875 
Q 16.015625 50.828125 16.015625 36.375 
Q 16.015625 21.96875 22.65625 14.328125 
Q 29.296875 6.6875 41.796875 6.6875 
Q 48.140625 6.6875 53.78125 8.984375 
Q 59.421875 11.28125 64.40625 15.921875 
L 64.40625 5.609375 
Q 59.234375 2.09375 53.4375 0.328125 
Q 47.65625 -1.421875 41.21875 -1.421875 
Q 24.65625 -1.421875 15.125 8.703125 
Q 5.609375 18.84375 5.609375 36.375 
Q 5.609375 53.953125 15.125 64.078125 
Q 24.65625 74.21875 41.21875 74.21875 
Q 47.75 74.21875 53.53125 72.484375 
Q 59.328125 70.75 64.40625 67.28125 
" id="DejaVuSans-43"/>
     <path d="M 54.890625 33.015625 
L 54.890625 0 
L 45.90625 0 
L 45.90625 32.71875 
Q 45.90625 40.484375 42.875 44.328125 
Q 39.84375 48.1875 33.796875 48.1875 
Q 26.515625 48.1875 22.3125 43.546875 
Q 18.109375 38.921875 18.109375 30.90625 
L 18.109375 0 
L 9.078125 0 
L 9.078125 54.6875 
L 18.109375 54.6875 
L 18.109375 46.1875 
Q 21.34375 51.125 25.703125 53.5625 
Q 30.078125 56 35.796875 56 
Q 45.21875 56 50.046875 50.171875 
Q 54.890625 44.34375 54.890625 33.015625 
" id="DejaVuSans-6e"/>
     <path d="M 45.40625 46.390625 
L 45.40625 75.984375 
L 54.390625 75.984375 
L 54.390625 0 
L 45.40625 0 
L 45.40625 8.203125 
Q 42.578125 3.328125 38.25 0.953125 
Q 33.9375 -1.421875 27.875 -1.421875 
Q 17.96875 -1.421875 11.734375 6.484375 
Q 5.515625 14.40625 5.515625 27.296875 
Q 5.515625 40.1875 11.734375 48.09375 
Q 17.96875 56 27.875 56 
Q 33.9375 56 38.25 53.625 
Q 42.578125 51.265625 45.40625 46.390625 
M 14.796875 27.296875 
Q 14.796875 17.390625 18.875 11.75 
Q 22.953125 6.109375 30.078125 6.109375 
Q 37.203125 6.109375 41.296875 11.75 
Q 45.40625 17.390625 45.40625 27.296875 
Q 45.40625 37.203125 41.296875 42.84375 
Q 37.203125 48.484375 30.078125 48.484375 
Q 22.953125 48.484375 18.875 42.84375 
Q 14.796875 37.203125 14.796875 27.296875 
" id="DejaVuSans-64"/>
     <path d="M 52 44.1875 
Q 55.375 50.25 60.0625 53.125 
Q 64.75 56 71.09375 56 
Q 79.640625 56 84.28125 50.015625 
Q 88.921875 44.046875 88.921875 33.015625 
L 88.921875 0 
L 79.890625 0 
L 79.890625 32.71875 
Q 79.890625 40.578125 77.09375 44.375 
Q 74.3125 48.1875 68.609375 48.1875 
Q 61.625 48.1875 57.5625 43.546875 
Q 53.515625 38.921875 53.515625 30.90625 
L 53.515625 0 
L 44.484375 0 
L 44.484375 32.71875 
Q 44.484375 40.625 41.703125 44.40625 
Q 38.921875 48.1875 33.109375 48.1875 
Q 26.21875 48.1875 22.15625 43.53125 
Q 18.109375 38.875 18.109375 30.90625 
L 18.109375 0 
L 9.078125 0 
L 9.078125 54.6875 
L 18.109375 54.6875 
L 18.109375 46.1875 
Q 21.1875 51.21875 25.484375 53.609375 
Q 29.78125 56 35.6875 56 
Q 41.65625 56 45.828125 52.96875 
Q 50 49.953125 52 44.1875 
" id="DejaVuSans-6d"/>
     <path d="M 46 62.703125 
L 46 35.5 
L 73.1875 35.5 
L 73.1875 27.203125 
L 46 27.203125 
L 46 0 
L 37.796875 0 
L 37.796875 27.203125 
L 10.59375 27.203125 
L 10.59375 35.5 
L 37.796875 35.5 
L 37.796875 62.703125 
z
" id="DejaVuSans-2b"/>
     <path d="M 19.671875 64.796875 
L 19.671875 8.109375 
L 31.59375 8.109375 
Q 46.6875 8.109375 53.6875 14.9375 
Q 60.6875 21.78125 60.6875 36.53125 
Q 60.6875 51.171875 53.6875 57.984375 
Q 46.6875 64.796875 31.59375 64.796875 
z
M 9.8125 72.90625 
L 30.078125 72.90625 
Q 51.265625 72.90625 61.171875 64.09375 
Q 71.09375 55.28125 71.09375 36.53125 
Q 71.09375 17.671875 61.125 8.828125 
Q 51.171875 0 30.078125 0 
L 9.8125 0 
z
" id="DejaVuSans-44"/>
     <path d="M 32.171875 -5.078125 
Q 28.375 -14.84375 24.75 -17.8125 
Q 21.140625 -20.796875 15.09375 -20.796875 
L 7.90625 -20.796875 
L 7.90625 -13.28125 
L 13.1875 -13.28125 
Q 16.890625 -13.28125 18.9375 -11.515625 
Q 21 -9.765625 23.484375 -3.21875 
L 25.09375 0.875 
L 2.984375 54.6875 
L 12.5 54.6875 
L 29.59375 11.921875 
L 46.6875 54.6875 
L 56.203125 54.6875 
z
" id="DejaVuSans-79"/>
     <path d="M 53.515625 70.515625 
L 53.515625 60.890625 
Q 47.90625 63.578125 42.921875 64.890625 
Q 37.9375 66.21875 33.296875 66.21875 
Q 25.25 66.21875 20.875 63.09375 
Q 16.5 59.96875 16.5 54.203125 
Q 16.5 49.359375 19.40625 46.890625 
Q 22.3125 44.4375 30.421875 42.921875 
L 36.375 41.703125 
Q 47.40625 39.59375 52.65625 34.296875 
Q 57.90625 29 57.90625 20.125 
Q 57.90625 9.515625 50.796875 4.046875 
Q 43.703125 -1.421875 29.984375 -1.421875 
Q 24.8125 -1.421875 18.96875 -0.25 
Q 13.140625 0.921875 6.890625 3.21875 
L 6.890625 13.375 
Q 12.890625 10.015625 18.65625 8.296875 
Q 24.421875 6.59375 29.984375 6.59375 
Q 38.421875 6.59375 43.015625 9.90625 
Q 47.609375 13.234375 47.609375 19.390625 
Q 47.609375 24.75 44.3125 27.78125 
Q 41.015625 30.8125 33.5 32.328125 
L 27.484375 33.5 
Q 16.453125 35.6875 11.515625 40.375 
Q 6.59375 45.0625 6.59375 53.421875 
Q 6.59375 63.09375 13.40625 68.65625 
Q 20.21875 74.21875 32.171875 74.21875 
Q 37.3125 74.21875 42.625 73.28125 
Q 47.953125 72.359375 53.515625 70.515625 
" id="DejaVuSans-53"/>
     <path d="M 18.109375 8.203125 
L 18.109375 -20.796875 
L 9.078125 -20.796875 
L 9.078125 54.6875 
L 18.109375 54.6875 
L 18.109375 46.390625 
Q 20.953125 51.265625 25.265625 53.625 
Q 29.59375 56 35.59375 56 
Q 45.5625 56 51.78125 48.09375 
Q 58.015625 40.1875 58.015625 27.296875 
Q 58.015625 14.40625 51.78125 6.484375 
Q 45.5625 -1.421875 35.59375 -1.421875 
Q 29.59375 -1.421875 25.265625 0.953125 
Q 20.953125 3.328125 18.109375 8.203125 
M 48.6875 27.296875 
Q 48.6875 37.203125 44.609375 42.84375 
Q 40.53125 48.484375 33.40625 48.484375 
Q 26.265625 48.484375 22.1875 42.84375 
Q 18.109375 37.203125 18.109375 27.296875 
Q 18.109375 17.390625 22.1875 11.75 
Q 26.265625 6.109375 33.40625 6.109375 
Q 40.53125 6.109375 44.609375 11.75 
Q 48.6875 17.390625 48.6875 27.296875 
" id="DejaVuSans-70"/>
    </defs>
    <g transform="translate(86.55 16.318125)scale(0.12 -0.12)">
     <use xlink:href="#DejaVuSans-52"/>
     <use x="69.482422" xlink:href="#DejaVuSans-4f"/>
     <use x="148.193359" xlink:href="#DejaVuSans-43"/>
     <use x="218.017578" xlink:href="#DejaVuSans-20"/>
     <use x="249.804688" xlink:href="#DejaVuSans-43"/>
     <use x="319.628906" xlink:href="#DejaVuSans-75"/>
     <use x="383.007812" xlink:href="#DejaVuSans-72"/>
     <use x="424.121094" xlink:href="#DejaVuSans-76"/>
     <use x="483.300781" xlink:href="#DejaVuSans-65"/>
     <use x="544.824219" xlink:href="#DejaVuSans-20"/>
     <use x="576.611328" xlink:href="#DejaVuSans-52"/>
     <use x="646.0625" xlink:href="#DejaVuSans-61"/>
     <use x="707.341797" xlink:href="#DejaVuSans-6e"/>
     <use x="770.720703" xlink:href="#DejaVuSans-64"/>
     <use x="834.197266" xlink:href="#DejaVuSans-6f"/>
     <use x="895.378906" xlink:href="#DejaVuSans-6d"/>
     <use x="992.791016" xlink:href="#DejaVuSans-46"/>
     <use x="1050.263672" xlink:href="#DejaVuSans-6f"/>
     <use x="1111.445312" xlink:href="#DejaVuSans-72"/>
     <use x="1152.527344" xlink:href="#DejaVuSans-65"/>
     <use x="1214.050781" xlink:href="#DejaVuSans-73"/>
     <use x="1266.150391" xlink:href="#DejaVuSans-74"/>
     <use x="1305.359375" xlink:href="#DejaVuSans-20"/>
     <use x="1337.146484" xlink:href="#DejaVuSans-2b"/>
     <use x="1420.935547" xlink:href="#DejaVuSans-20"/>
     <use x="1452.722656" xlink:href="#DejaVuSans-44"/>
     <use x="1529.724609" xlink:href="#DejaVuSans-75"/>
     <use x="1593.103516" xlink:href="#DejaVuSans-6d"/>
     <use x="1690.515625" xlink:href="#DejaVuSans-6d"/>
     <use x="1787.927734" xlink:href="#DejaVuSans-79"/>
     <use x="1847.107422" xlink:href="#DejaVuSans-53"/>
     <use x="1910.583984" xlink:href="#DejaVuSans-61"/>
     <use x="1971.863281" xlink:href="#DejaVuSans-6d"/>
     <use x="2069.275391" xlink:href="#DejaVuSans-70"/>
     <use x="2132.751953" xlink:href="#DejaVuSans-6c"/>
     <use x="2160.535156" xlink:href="#DejaVuSans-65"/>
     <use x="2222.058594" xlink:href="#DejaVuSans-72"/>
    </g>
    <!-- Train: 1   Test: [2, 4, 6, 8, 10, 12] -->
    <defs>
     <path d="M 11.71875 12.40625 
L 22.015625 12.40625 
L 22.015625 0 
L 11.71875 0 
z
M 11.71875 51.703125 
L 22.015625 51.703125 
L 22.015625 39.3125 
L 11.71875 39.3125 
z
" id="DejaVuSans-3a"/>
     <path d="M 8.59375 75.984375 
L 29.296875 75.984375 
L 29.296875 69 
L 17.578125 69 
L 17.578125 -6.203125 
L 29.296875 -6.203125 
L 29.296875 -13.1875 
L 8.59375 -13.1875 
z
" id="DejaVuSans-5b"/>
     <path d="M 11.71875 12.40625 
L 22.015625 12.40625 
L 22.015625 4 
L 14.015625 -11.625 
L 7.71875 -11.625 
L 11.71875 4 
z
" id="DejaVuSans-2c"/>
     <path d="M 30.421875 75.984375 
L 30.421875 -13.1875 
L 9.71875 -13.1875 
L 9.71875 -6.203125 
L 21.390625 -6.203125 
L 21.390625 69 
L 9.71875 69 
L 9.71875 75.984375 
z
" id="DejaVuSans-5d"/>
    </defs>
    <g transform="translate(122.573438 29.7555)scale(0.12 -0.12)">
     <use xlink:href="#DejaVuSans-54"/>
     <use x="60.865234" xlink:href="#DejaVuSans-72"/>
     <use x="101.978516" xlink:href="#DejaVuSans-61"/>
     <use x="163.257812" xlink:href="#DejaVuSans-69"/>
     <use x="191.041016" xlink:href="#DejaVuSans-6e"/>
     <use x="254.419922" xlink:href="#DejaVuSans-3a"/>
     <use x="288.111328" xlink:href="#DejaVuSans-20"/>
     <use x="319.898438" xlink:href="#DejaVuSans-31"/>
     <use x="383.521484" xlink:href="#DejaVuSans-20"/>
     <use x="415.308594" xlink:href="#DejaVuSans-20"/>
     <use x="447.095703" xlink:href="#DejaVuSans-20"/>
     <use x="478.882812" xlink:href="#DejaVuSans-54"/>
     <use x="539.701172" xlink:href="#DejaVuSans-65"/>
     <use x="601.224609" xlink:href="#DejaVuSans-73"/>
     <use x="653.324219" xlink:href="#DejaVuSans-74"/>
     <use x="692.533203" xlink:href="#DejaVuSans-3a"/>
     <use x="726.224609" xlink:href="#DejaVuSans-20"/>
     <use x="758.011719" xlink:href="#DejaVuSans-5b"/>
     <use x="797.025391" xlink:href="#DejaVuSans-32"/>
     <use x="860.648438" xlink:href="#DejaVuSans-2c"/>
     <use x="892.435547" xlink:href="#DejaVuSans-20"/>
     <use x="924.222656" xlink:href="#DejaVuSans-34"/>
     <use x="987.845703" xlink:href="#DejaVuSans-2c"/>
     <use x="1019.632812" xlink:href="#DejaVuSans-20"/>
     <use x="1051.419922" xlink:href="#DejaVuSans-36"/>
     <use x="1115.042969" xlink:href="#DejaVuSans-2c"/>
     <use x="1146.830078" xlink:href="#DejaVuSans-20"/>
     <use x="1178.617188" xlink:href="#DejaVuSans-38"/>
     <use x="1242.240234" xlink:href="#DejaVuSans-2c"/>
     <use x="1274.027344" xlink:href="#DejaVuSans-20"/>
     <use x="1305.814453" xlink:href="#DejaVuSans-31"/>
     <use x="1369.4375" xlink:href="#DejaVuSans-30"/>
     <use x="1433.060547" xlink:href="#DejaVuSans-2c"/>
     <use x="1464.847656" xlink:href="#DejaVuSans-20"/>
     <use x="1496.634766" xlink:href="#DejaVuSans-31"/>
     <use x="1560.257812" xlink:href="#DejaVuSans-32"/>
     <use x="1623.880859" xlink:href="#DejaVuSans-5d"/>
    </g>
   </g>
   <g id="legend_1">
    <g id="patch_7">
     <path d="M 217.087188 296.8675 
L 393.90125 296.8675 
Q 395.90125 296.8675 395.90125 294.8675 
L 395.90125 251.833125 
Q 395.90125 249.833125 393.90125 249.833125 
L 217.087188 249.833125 
Q 215.087188 249.833125 215.087188 251.833125 
L 215.087188 294.8675 
Q 215.087188 296.8675 217.087188 296.8675 
z
" style="fill:#ffffff;opacity:0.8;stroke:#cccccc;stroke-linejoin:miter;"/>
    </g>
    <g id="line2d_17">
     <path d="M 219.087188 257.931562 
L 239.087188 257.931562 
" style="fill:none;stroke:#1f77b4;stroke-linecap:square;stroke-width:1.5;"/>
    </g>
    <g id="line2d_18"/>
    <g id="text_16">
     <!-- ROC curve - 0 (AUC = 0.816) -->
     <defs>
      <path d="M 48.78125 52.59375 
L 48.78125 44.1875 
Q 44.96875 46.296875 41.140625 47.34375 
Q 37.3125 48.390625 33.40625 48.390625 
Q 24.65625 48.390625 19.8125 42.84375 
Q 14.984375 37.3125 14.984375 27.296875 
Q 14.984375 17.28125 19.8125 11.734375 
Q 24.65625 6.203125 33.40625 6.203125 
Q 37.3125 6.203125 41.140625 7.25 
Q 44.96875 8.296875 48.78125 10.40625 
L 48.78125 2.09375 
Q 45.015625 0.34375 40.984375 -0.53125 
Q 36.96875 -1.421875 32.421875 -1.421875 
Q 20.0625 -1.421875 12.78125 6.34375 
Q 5.515625 14.109375 5.515625 27.296875 
Q 5.515625 40.671875 12.859375 48.328125 
Q 20.21875 56 33.015625 56 
Q 37.15625 56 41.109375 55.140625 
Q 45.0625 54.296875 48.78125 52.59375 
" id="DejaVuSans-63"/>
      <path d="M 4.890625 31.390625 
L 31.203125 31.390625 
L 31.203125 23.390625 
L 4.890625 23.390625 
z
" id="DejaVuSans-2d"/>
      <path d="M 31 75.875 
Q 24.46875 64.65625 21.28125 53.65625 
Q 18.109375 42.671875 18.109375 31.390625 
Q 18.109375 20.125 21.3125 9.0625 
Q 24.515625 -2 31 -13.1875 
L 23.1875 -13.1875 
Q 15.875 -1.703125 12.234375 9.375 
Q 8.59375 20.453125 8.59375 31.390625 
Q 8.59375 42.28125 12.203125 53.3125 
Q 15.828125 64.359375 23.1875 75.875 
z
" id="DejaVuSans-28"/>
      <path d="M 34.1875 63.1875 
L 20.796875 26.90625 
L 47.609375 26.90625 
z
M 28.609375 72.90625 
L 39.796875 72.90625 
L 67.578125 0 
L 57.328125 0 
L 50.6875 18.703125 
L 17.828125 18.703125 
L 11.1875 0 
L 0.78125 0 
z
" id="DejaVuSans-41"/>
      <path d="M 8.6875 72.90625 
L 18.609375 72.90625 
L 18.609375 28.609375 
Q 18.609375 16.890625 22.84375 11.734375 
Q 27.09375 6.59375 36.625 6.59375 
Q 46.09375 6.59375 50.34375 11.734375 
Q 54.59375 16.890625 54.59375 28.609375 
L 54.59375 72.90625 
L 64.5 72.90625 
L 64.5 27.390625 
Q 64.5 13.140625 57.4375 5.859375 
Q 50.390625 -1.421875 36.625 -1.421875 
Q 22.796875 -1.421875 15.734375 5.859375 
Q 8.6875 13.140625 8.6875 27.390625 
z
" id="DejaVuSans-55"/>
      <path d="M 10.59375 45.40625 
L 73.1875 45.40625 
L 73.1875 37.203125 
L 10.59375 37.203125 
z
M 10.59375 25.484375 
L 73.1875 25.484375 
L 73.1875 17.1875 
L 10.59375 17.1875 
z
" id="DejaVuSans-3d"/>
      <path d="M 8.015625 75.875 
L 15.828125 75.875 
Q 23.140625 64.359375 26.78125 53.3125 
Q 30.421875 42.28125 30.421875 31.390625 
Q 30.421875 20.453125 26.78125 9.375 
Q 23.140625 -1.703125 15.828125 -13.1875 
L 8.015625 -13.1875 
Q 14.5 -2 17.703125 9.0625 
Q 20.90625 20.125 20.90625 31.390625 
Q 20.90625 42.671875 17.703125 53.65625 
Q 14.5 64.65625 8.015625 75.875 
" id="DejaVuSans-29"/>
     </defs>
     <g transform="translate(247.087188 261.431562)scale(0.1 -0.1)">
      <use xlink:href="#DejaVuSans-52"/>
      <use x="69.482422" xlink:href="#DejaVuSans-4f"/>
      <use x="148.193359" xlink:href="#DejaVuSans-43"/>
      <use x="218.017578" xlink:href="#DejaVuSans-20"/>
      <use x="249.804688" xlink:href="#DejaVuSans-63"/>
      <use x="304.785156" xlink:href="#DejaVuSans-75"/>
      <use x="368.164062" xlink:href="#DejaVuSans-72"/>
      <use x="409.277344" xlink:href="#DejaVuSans-76"/>
      <use x="468.457031" xlink:href="#DejaVuSans-65"/>
      <use x="529.980469" xlink:href="#DejaVuSans-20"/>
      <use x="561.767578" xlink:href="#DejaVuSans-2d"/>
      <use x="597.851562" xlink:href="#DejaVuSans-20"/>
      <use x="629.638672" xlink:href="#DejaVuSans-30"/>
      <use x="693.261719" xlink:href="#DejaVuSans-20"/>
      <use x="725.048828" xlink:href="#DejaVuSans-28"/>
      <use x="764.0625" xlink:href="#DejaVuSans-41"/>
      <use x="832.470703" xlink:href="#DejaVuSans-55"/>
      <use x="905.664062" xlink:href="#DejaVuSans-43"/>
      <use x="975.488281" xlink:href="#DejaVuSans-20"/>
      <use x="1007.275391" xlink:href="#DejaVuSans-3d"/>
      <use x="1091.064453" xlink:href="#DejaVuSans-20"/>
      <use x="1122.851562" xlink:href="#DejaVuSans-30"/>
      <use x="1186.474609" xlink:href="#DejaVuSans-2e"/>
      <use x="1218.261719" xlink:href="#DejaVuSans-38"/>
      <use x="1281.884766" xlink:href="#DejaVuSans-31"/>
      <use x="1345.507812" xlink:href="#DejaVuSans-36"/>
      <use x="1409.130859" xlink:href="#DejaVuSans-29"/>
     </g>
    </g>
    <g id="line2d_19">
     <path d="M 219.087188 272.609687 
L 239.087188 272.609687 
" style="fill:none;stroke:#ff7f0e;stroke-linecap:square;stroke-width:1.5;"/>
    </g>
    <g id="line2d_20"/>
    <g id="text_17">
     <!-- ROC curve - 1 (AUC = 0.784) -->
     <defs>
      <path d="M 8.203125 72.90625 
L 55.078125 72.90625 
L 55.078125 68.703125 
L 28.609375 0 
L 18.3125 0 
L 43.21875 64.59375 
L 8.203125 64.59375 
z
" id="DejaVuSans-37"/>
     </defs>
     <g transform="translate(247.087188 276.109687)scale(0.1 -0.1)">
      <use xlink:href="#DejaVuSans-52"/>
      <use x="69.482422" xlink:href="#DejaVuSans-4f"/>
      <use x="148.193359" xlink:href="#DejaVuSans-43"/>
      <use x="218.017578" xlink:href="#DejaVuSans-20"/>
      <use x="249.804688" xlink:href="#DejaVuSans-63"/>
      <use x="304.785156" xlink:href="#DejaVuSans-75"/>
      <use x="368.164062" xlink:href="#DejaVuSans-72"/>
      <use x="409.277344" xlink:href="#DejaVuSans-76"/>
      <use x="468.457031" xlink:href="#DejaVuSans-65"/>
      <use x="529.980469" xlink:href="#DejaVuSans-20"/>
      <use x="561.767578" xlink:href="#DejaVuSans-2d"/>
      <use x="597.851562" xlink:href="#DejaVuSans-20"/>
      <use x="629.638672" xlink:href="#DejaVuSans-31"/>
      <use x="693.261719" xlink:href="#DejaVuSans-20"/>
      <use x="725.048828" xlink:href="#DejaVuSans-28"/>
      <use x="764.0625" xlink:href="#DejaVuSans-41"/>
      <use x="832.470703" xlink:href="#DejaVuSans-55"/>
      <use x="905.664062" xlink:href="#DejaVuSans-43"/>
      <use x="975.488281" xlink:href="#DejaVuSans-20"/>
      <use x="1007.275391" xlink:href="#DejaVuSans-3d"/>
      <use x="1091.064453" xlink:href="#DejaVuSans-20"/>
      <use x="1122.851562" xlink:href="#DejaVuSans-30"/>
      <use x="1186.474609" xlink:href="#DejaVuSans-2e"/>
      <use x="1218.261719" xlink:href="#DejaVuSans-37"/>
      <use x="1281.884766" xlink:href="#DejaVuSans-38"/>
      <use x="1345.507812" xlink:href="#DejaVuSans-34"/>
      <use x="1409.130859" xlink:href="#DejaVuSans-29"/>
     </g>
    </g>
    <g id="line2d_21">
     <path d="M 219.087188 287.287812 
L 239.087188 287.287812 
" style="fill:none;stroke:#2ca02c;stroke-linecap:square;stroke-width:1.5;"/>
    </g>
    <g id="line2d_22"/>
    <g id="text_18">
     <!-- ROC curve - 2 (AUC = 0.836) -->
     <defs>
      <path d="M 40.578125 39.3125 
Q 47.65625 37.796875 51.625 33 
Q 55.609375 28.21875 55.609375 21.1875 
Q 55.609375 10.40625 48.1875 4.484375 
Q 40.765625 -1.421875 27.09375 -1.421875 
Q 22.515625 -1.421875 17.65625 -0.515625 
Q 12.796875 0.390625 7.625 2.203125 
L 7.625 11.71875 
Q 11.71875 9.328125 16.59375 8.109375 
Q 21.484375 6.890625 26.8125 6.890625 
Q 36.078125 6.890625 40.9375 10.546875 
Q 45.796875 14.203125 45.796875 21.1875 
Q 45.796875 27.640625 41.28125 31.265625 
Q 36.765625 34.90625 28.71875 34.90625 
L 20.21875 34.90625 
L 20.21875 43.015625 
L 29.109375 43.015625 
Q 36.375 43.015625 40.234375 45.921875 
Q 44.09375 48.828125 44.09375 54.296875 
Q 44.09375 59.90625 40.109375 62.90625 
Q 36.140625 65.921875 28.71875 65.921875 
Q 24.65625 65.921875 20.015625 65.03125 
Q 15.375 64.15625 9.8125 62.3125 
L 9.8125 71.09375 
Q 15.4375 72.65625 20.34375 73.4375 
Q 25.25 74.21875 29.59375 74.21875 
Q 40.828125 74.21875 47.359375 69.109375 
Q 53.90625 64.015625 53.90625 55.328125 
Q 53.90625 49.265625 50.4375 45.09375 
Q 46.96875 40.921875 40.578125 39.3125 
" id="DejaVuSans-33"/>
     </defs>
     <g transform="translate(247.087188 290.787812)scale(0.1 -0.1)">
      <use xlink:href="#DejaVuSans-52"/>
      <use x="69.482422" xlink:href="#DejaVuSans-4f"/>
      <use x="148.193359" xlink:href="#DejaVuSans-43"/>
      <use x="218.017578" xlink:href="#DejaVuSans-20"/>
      <use x="249.804688" xlink:href="#DejaVuSans-63"/>
      <use x="304.785156" xlink:href="#DejaVuSans-75"/>
      <use x="368.164062" xlink:href="#DejaVuSans-72"/>
      <use x="409.277344" xlink:href="#DejaVuSans-76"/>
      <use x="468.457031" xlink:href="#DejaVuSans-65"/>
      <use x="529.980469" xlink:href="#DejaVuSans-20"/>
      <use x="561.767578" xlink:href="#DejaVuSans-2d"/>
      <use x="597.851562" xlink:href="#DejaVuSans-20"/>
      <use x="629.638672" xlink:href="#DejaVuSans-32"/>
      <use x="693.261719" xlink:href="#DejaVuSans-20"/>
      <use x="725.048828" xlink:href="#DejaVuSans-28"/>
      <use x="764.0625" xlink:href="#DejaVuSans-41"/>
      <use x="832.470703" xlink:href="#DejaVuSans-55"/>
      <use x="905.664062" xlink:href="#DejaVuSans-43"/>
      <use x="975.488281" xlink:href="#DejaVuSans-20"/>
      <use x="1007.275391" xlink:href="#DejaVuSans-3d"/>
      <use x="1091.064453" xlink:href="#DejaVuSans-20"/>
      <use x="1122.851562" xlink:href="#DejaVuSans-30"/>
      <use x="1186.474609" xlink:href="#DejaVuSans-2e"/>
      <use x="1218.261719" xlink:href="#DejaVuSans-38"/>
      <use x="1281.884766" xlink:href="#DejaVuSans-33"/>
      <use x="1345.507812" xlink:href="#DejaVuSans-36"/>
      <use x="1409.130859" xlink:href="#DejaVuSans-29"/>
     </g>
    </g>
   </g>
  </g>
 </g>
 <defs>
  <clipPath id="p62102b6105">
   <rect height="266.112" width="357.12" x="43.78125" y="35.7555"/>
  </clipPath>
 </defs>
</svg>
