<?xml version="1.0" encoding="utf-8" standalone="no"?>
<!DOCTYPE svg PUBLIC "-//W3C//DTD SVG 1.1//EN"
  "http://www.w3.org/Graphics/SVG/1.1/DTD/svg11.dtd">
<!-- Created with matplotlib (http://matplotlib.org/) -->
<svg height="339pt" version="1.1" viewBox="0 0 416 339" width="416pt" xmlns="http://www.w3.org/2000/svg" xmlns:xlink="http://www.w3.org/1999/xlink">
 <defs>
  <style type="text/css">
*{stroke-linecap:butt;stroke-linejoin:round;}
  </style>
 </defs>
 <g id="figure_1">
  <g id="patch_1">
   <path d="M 0 339.42375 
L 416.052813 339.42375 
L 416.052813 0 
L 0 0 
z
" style="fill:#ffffff;"/>
  </g>
  <g id="axes_1">
   <g id="patch_2">
    <path d="M 43.78125 301.8675 
L 400.90125 301.8675 
L 400.90125 35.7555 
L 43.78125 35.7555 
z
" style="fill:#ffffff;"/>
   </g>
   <g id="matplotlib.axis_1">
    <g id="xtick_1">
     <g id="line2d_1">
      <defs>
       <path d="M 0 0 
L 0 3.5 
" id="mff77eb9e1d" style="stroke:#000000;stroke-width:0.8;"/>
      </defs>
      <g>
       <use style="stroke:#000000;stroke-width:0.8;" x="43.78125" xlink:href="#mff77eb9e1d" y="301.8675"/>
      </g>
     </g>
     <g id="text_1">
      <!-- 0.0 -->
      <defs>
       <path d="M 31.78125 66.40625 
Q 24.171875 66.40625 20.328125 58.90625 
Q 16.5 51.421875 16.5 36.375 
Q 16.5 21.390625 20.328125 13.890625 
Q 24.171875 6.390625 31.78125 6.390625 
Q 39.453125 6.390625 43.28125 13.890625 
Q 47.125 21.390625 47.125 36.375 
Q 47.125 51.421875 43.28125 58.90625 
Q 39.453125 66.40625 31.78125 66.40625 
M 31.78125 74.21875 
Q 44.046875 74.21875 50.515625 64.515625 
Q 56.984375 54.828125 56.984375 36.375 
Q 56.984375 17.96875 50.515625 8.265625 
Q 44.046875 -1.421875 31.78125 -1.421875 
Q 19.53125 -1.421875 13.0625 8.265625 
Q 6.59375 17.96875 6.59375 36.375 
Q 6.59375 54.828125 13.0625 64.515625 
Q 19.53125 74.21875 31.78125 74.21875 
" id="DejaVuSans-30"/>
       <path d="M 10.6875 12.40625 
L 21 12.40625 
L 21 0 
L 10.6875 0 
z
" id="DejaVuSans-2e"/>
      </defs>
      <g transform="translate(35.829688 316.465937)scale(0.1 -0.1)">
       <use xlink:href="#DejaVuSans-30"/>
       <use x="63.623047" xlink:href="#DejaVuSans-2e"/>
       <use x="95.410156" xlink:href="#DejaVuSans-30"/>
      </g>
     </g>
    </g>
    <g id="xtick_2">
     <g id="line2d_2">
      <g>
       <use style="stroke:#000000;stroke-width:0.8;" x="115.20525" xlink:href="#mff77eb9e1d" y="301.8675"/>
      </g>
     </g>
     <g id="text_2">
      <!-- 0.2 -->
      <defs>
       <path d="M 19.1875 8.296875 
L 53.609375 8.296875 
L 53.609375 0 
L 7.328125 0 
L 7.328125 8.296875 
Q 12.9375 14.109375 22.625 23.890625 
Q 32.328125 33.6875 34.8125 36.53125 
Q 39.546875 41.84375 41.421875 45.53125 
Q 43.3125 49.21875 43.3125 52.78125 
Q 43.3125 58.59375 39.234375 62.25 
Q 35.15625 65.921875 28.609375 65.921875 
Q 23.96875 65.921875 18.8125 64.3125 
Q 13.671875 62.703125 7.8125 59.421875 
L 7.8125 69.390625 
Q 13.765625 71.78125 18.9375 73 
Q 24.125 74.21875 28.421875 74.21875 
Q 39.75 74.21875 46.484375 68.546875 
Q 53.21875 62.890625 53.21875 53.421875 
Q 53.21875 48.921875 51.53125 44.890625 
Q 49.859375 40.875 45.40625 35.40625 
Q 44.1875 33.984375 37.640625 27.21875 
Q 31.109375 20.453125 19.1875 8.296875 
" id="DejaVuSans-32"/>
      </defs>
      <g transform="translate(107.253688 316.465937)scale(0.1 -0.1)">
       <use xlink:href="#DejaVuSans-30"/>
       <use x="63.623047" xlink:href="#DejaVuSans-2e"/>
       <use x="95.410156" xlink:href="#DejaVuSans-32"/>
      </g>
     </g>
    </g>
    <g id="xtick_3">
     <g id="line2d_3">
      <g>
       <use style="stroke:#000000;stroke-width:0.8;" x="186.62925" xlink:href="#mff77eb9e1d" y="301.8675"/>
      </g>
     </g>
     <g id="text_3">
      <!-- 0.4 -->
      <defs>
       <path d="M 37.796875 64.3125 
L 12.890625 25.390625 
L 37.796875 25.390625 
z
M 35.203125 72.90625 
L 47.609375 72.90625 
L 47.609375 25.390625 
L 58.015625 25.390625 
L 58.015625 17.1875 
L 47.609375 17.1875 
L 47.609375 0 
L 37.796875 0 
L 37.796875 17.1875 
L 4.890625 17.1875 
L 4.890625 26.703125 
z
" id="DejaVuSans-34"/>
      </defs>
      <g transform="translate(178.677688 316.465937)scale(0.1 -0.1)">
       <use xlink:href="#DejaVuSans-30"/>
       <use x="63.623047" xlink:href="#DejaVuSans-2e"/>
       <use x="95.410156" xlink:href="#DejaVuSans-34"/>
      </g>
     </g>
    </g>
    <g id="xtick_4">
     <g id="line2d_4">
      <g>
       <use style="stroke:#000000;stroke-width:0.8;" x="258.05325" xlink:href="#mff77eb9e1d" y="301.8675"/>
      </g>
     </g>
     <g id="text_4">
      <!-- 0.6 -->
      <defs>
       <path d="M 33.015625 40.375 
Q 26.375 40.375 22.484375 35.828125 
Q 18.609375 31.296875 18.609375 23.390625 
Q 18.609375 15.53125 22.484375 10.953125 
Q 26.375 6.390625 33.015625 6.390625 
Q 39.65625 6.390625 43.53125 10.953125 
Q 47.40625 15.53125 47.40625 23.390625 
Q 47.40625 31.296875 43.53125 35.828125 
Q 39.65625 40.375 33.015625 40.375 
M 52.59375 71.296875 
L 52.59375 62.3125 
Q 48.875 64.0625 45.09375 64.984375 
Q 41.3125 65.921875 37.59375 65.921875 
Q 27.828125 65.921875 22.671875 59.328125 
Q 17.53125 52.734375 16.796875 39.40625 
Q 19.671875 43.65625 24.015625 45.921875 
Q 28.375 48.1875 33.59375 48.1875 
Q 44.578125 48.1875 50.953125 41.515625 
Q 57.328125 34.859375 57.328125 23.390625 
Q 57.328125 12.15625 50.6875 5.359375 
Q 44.046875 -1.421875 33.015625 -1.421875 
Q 20.359375 -1.421875 13.671875 8.265625 
Q 6.984375 17.96875 6.984375 36.375 
Q 6.984375 53.65625 15.1875 63.9375 
Q 23.390625 74.21875 37.203125 74.21875 
Q 40.921875 74.21875 44.703125 73.484375 
Q 48.484375 72.75 52.59375 71.296875 
" id="DejaVuSans-36"/>
      </defs>
      <g transform="translate(250.101688 316.465937)scale(0.1 -0.1)">
       <use xlink:href="#DejaVuSans-30"/>
       <use x="63.623047" xlink:href="#DejaVuSans-2e"/>
       <use x="95.410156" xlink:href="#DejaVuSans-36"/>
      </g>
     </g>
    </g>
    <g id="xtick_5">
     <g id="line2d_5">
      <g>
       <use style="stroke:#000000;stroke-width:0.8;" x="329.47725" xlink:href="#mff77eb9e1d" y="301.8675"/>
      </g>
     </g>
     <g id="text_5">
      <!-- 0.8 -->
      <defs>
       <path d="M 31.78125 34.625 
Q 24.75 34.625 20.71875 30.859375 
Q 16.703125 27.09375 16.703125 20.515625 
Q 16.703125 13.921875 20.71875 10.15625 
Q 24.75 6.390625 31.78125 6.390625 
Q 38.8125 6.390625 42.859375 10.171875 
Q 46.921875 13.96875 46.921875 20.515625 
Q 46.921875 27.09375 42.890625 30.859375 
Q 38.875 34.625 31.78125 34.625 
M 21.921875 38.8125 
Q 15.578125 40.375 12.03125 44.71875 
Q 8.5 49.078125 8.5 55.328125 
Q 8.5 64.0625 14.71875 69.140625 
Q 20.953125 74.21875 31.78125 74.21875 
Q 42.671875 74.21875 48.875 69.140625 
Q 55.078125 64.0625 55.078125 55.328125 
Q 55.078125 49.078125 51.53125 44.71875 
Q 48 40.375 41.703125 38.8125 
Q 48.828125 37.15625 52.796875 32.3125 
Q 56.78125 27.484375 56.78125 20.515625 
Q 56.78125 9.90625 50.3125 4.234375 
Q 43.84375 -1.421875 31.78125 -1.421875 
Q 19.734375 -1.421875 13.25 4.234375 
Q 6.78125 9.90625 6.78125 20.515625 
Q 6.78125 27.484375 10.78125 32.3125 
Q 14.796875 37.15625 21.921875 38.8125 
M 18.3125 54.390625 
Q 18.3125 48.734375 21.84375 45.5625 
Q 25.390625 42.390625 31.78125 42.390625 
Q 38.140625 42.390625 41.71875 45.5625 
Q 45.3125 48.734375 45.3125 54.390625 
Q 45.3125 60.0625 41.71875 63.234375 
Q 38.140625 66.40625 31.78125 66.40625 
Q 25.390625 66.40625 21.84375 63.234375 
Q 18.3125 60.0625 18.3125 54.390625 
" id="DejaVuSans-38"/>
      </defs>
      <g transform="translate(321.525688 316.465937)scale(0.1 -0.1)">
       <use xlink:href="#DejaVuSans-30"/>
       <use x="63.623047" xlink:href="#DejaVuSans-2e"/>
       <use x="95.410156" xlink:href="#DejaVuSans-38"/>
      </g>
     </g>
    </g>
    <g id="xtick_6">
     <g id="line2d_6">
      <g>
       <use style="stroke:#000000;stroke-width:0.8;" x="400.90125" xlink:href="#mff77eb9e1d" y="301.8675"/>
      </g>
     </g>
     <g id="text_6">
      <!-- 1.0 -->
      <defs>
       <path d="M 12.40625 8.296875 
L 28.515625 8.296875 
L 28.515625 63.921875 
L 10.984375 60.40625 
L 10.984375 69.390625 
L 28.421875 72.90625 
L 38.28125 72.90625 
L 38.28125 8.296875 
L 54.390625 8.296875 
L 54.390625 0 
L 12.40625 0 
z
" id="DejaVuSans-31"/>
      </defs>
      <g transform="translate(392.949688 316.465937)scale(0.1 -0.1)">
       <use xlink:href="#DejaVuSans-31"/>
       <use x="63.623047" xlink:href="#DejaVuSans-2e"/>
       <use x="95.410156" xlink:href="#DejaVuSans-30"/>
      </g>
     </g>
    </g>
    <g id="text_7">
     <!-- False Positive Rate -->
     <defs>
      <path d="M 9.8125 72.90625 
L 51.703125 72.90625 
L 51.703125 64.59375 
L 19.671875 64.59375 
L 19.671875 43.109375 
L 48.578125 43.109375 
L 48.578125 34.8125 
L 19.671875 34.8125 
L 19.671875 0 
L 9.8125 0 
z
" id="DejaVuSans-46"/>
      <path d="M 34.28125 27.484375 
Q 23.390625 27.484375 19.1875 25 
Q 14.984375 22.515625 14.984375 16.5 
Q 14.984375 11.71875 18.140625 8.90625 
Q 21.296875 6.109375 26.703125 6.109375 
Q 34.1875 6.109375 38.703125 11.40625 
Q 43.21875 16.703125 43.21875 25.484375 
L 43.21875 27.484375 
z
M 52.203125 31.203125 
L 52.203125 0 
L 43.21875 0 
L 43.21875 8.296875 
Q 40.140625 3.328125 35.546875 0.953125 
Q 30.953125 -1.421875 24.3125 -1.421875 
Q 15.921875 -1.421875 10.953125 3.296875 
Q 6 8.015625 6 15.921875 
Q 6 25.140625 12.171875 29.828125 
Q 18.359375 34.515625 30.609375 34.515625 
L 43.21875 34.515625 
L 43.21875 35.40625 
Q 43.21875 41.609375 39.140625 45 
Q 35.0625 48.390625 27.6875 48.390625 
Q 23 48.390625 18.546875 47.265625 
Q 14.109375 46.140625 10.015625 43.890625 
L 10.015625 52.203125 
Q 14.9375 54.109375 19.578125 55.046875 
Q 24.21875 56 28.609375 56 
Q 40.484375 56 46.34375 49.84375 
Q 52.203125 43.703125 52.203125 31.203125 
" id="DejaVuSans-61"/>
      <path d="M 9.421875 75.984375 
L 18.40625 75.984375 
L 18.40625 0 
L 9.421875 0 
z
" id="DejaVuSans-6c"/>
      <path d="M 44.28125 53.078125 
L 44.28125 44.578125 
Q 40.484375 46.53125 36.375 47.5 
Q 32.28125 48.484375 27.875 48.484375 
Q 21.1875 48.484375 17.84375 46.4375 
Q 14.5 44.390625 14.5 40.28125 
Q 14.5 37.15625 16.890625 35.375 
Q 19.28125 33.59375 26.515625 31.984375 
L 29.59375 31.296875 
Q 39.15625 29.25 43.1875 25.515625 
Q 47.21875 21.78125 47.21875 15.09375 
Q 47.21875 7.46875 41.1875 3.015625 
Q 35.15625 -1.421875 24.609375 -1.421875 
Q 20.21875 -1.421875 15.453125 -0.5625 
Q 10.6875 0.296875 5.421875 2 
L 5.421875 11.28125 
Q 10.40625 8.6875 15.234375 7.390625 
Q 20.0625 6.109375 24.8125 6.109375 
Q 31.15625 6.109375 34.5625 8.28125 
Q 37.984375 10.453125 37.984375 14.40625 
Q 37.984375 18.0625 35.515625 20.015625 
Q 33.0625 21.96875 24.703125 23.78125 
L 21.578125 24.515625 
Q 13.234375 26.265625 9.515625 29.90625 
Q 5.8125 33.546875 5.8125 39.890625 
Q 5.8125 47.609375 11.28125 51.796875 
Q 16.75 56 26.8125 56 
Q 31.78125 56 36.171875 55.265625 
Q 40.578125 54.546875 44.28125 53.078125 
" id="DejaVuSans-73"/>
      <path d="M 56.203125 29.59375 
L 56.203125 25.203125 
L 14.890625 25.203125 
Q 15.484375 15.921875 20.484375 11.0625 
Q 25.484375 6.203125 34.421875 6.203125 
Q 39.59375 6.203125 44.453125 7.46875 
Q 49.3125 8.734375 54.109375 11.28125 
L 54.109375 2.78125 
Q 49.265625 0.734375 44.1875 -0.34375 
Q 39.109375 -1.421875 33.890625 -1.421875 
Q 20.796875 -1.421875 13.15625 6.1875 
Q 5.515625 13.8125 5.515625 26.8125 
Q 5.515625 40.234375 12.765625 48.109375 
Q 20.015625 56 32.328125 56 
Q 43.359375 56 49.78125 48.890625 
Q 56.203125 41.796875 56.203125 29.59375 
M 47.21875 32.234375 
Q 47.125 39.59375 43.09375 43.984375 
Q 39.0625 48.390625 32.421875 48.390625 
Q 24.90625 48.390625 20.390625 44.140625 
Q 15.875 39.890625 15.1875 32.171875 
z
" id="DejaVuSans-65"/>
      <path id="DejaVuSans-20"/>
      <path d="M 19.671875 64.796875 
L 19.671875 37.40625 
L 32.078125 37.40625 
Q 38.96875 37.40625 42.71875 40.96875 
Q 46.484375 44.53125 46.484375 51.125 
Q 46.484375 57.671875 42.71875 61.234375 
Q 38.96875 64.796875 32.078125 64.796875 
z
M 9.8125 72.90625 
L 32.078125 72.90625 
Q 44.34375 72.90625 50.609375 67.359375 
Q 56.890625 61.8125 56.890625 51.125 
Q 56.890625 40.328125 50.609375 34.8125 
Q 44.34375 29.296875 32.078125 29.296875 
L 19.671875 29.296875 
L 19.671875 0 
L 9.8125 0 
z
" id="DejaVuSans-50"/>
      <path d="M 30.609375 48.390625 
Q 23.390625 48.390625 19.1875 42.75 
Q 14.984375 37.109375 14.984375 27.296875 
Q 14.984375 17.484375 19.15625 11.84375 
Q 23.34375 6.203125 30.609375 6.203125 
Q 37.796875 6.203125 41.984375 11.859375 
Q 46.1875 17.53125 46.1875 27.296875 
Q 46.1875 37.015625 41.984375 42.703125 
Q 37.796875 48.390625 30.609375 48.390625 
M 30.609375 56 
Q 42.328125 56 49.015625 48.375 
Q 55.71875 40.765625 55.71875 27.296875 
Q 55.71875 13.875 49.015625 6.21875 
Q 42.328125 -1.421875 30.609375 -1.421875 
Q 18.84375 -1.421875 12.171875 6.21875 
Q 5.515625 13.875 5.515625 27.296875 
Q 5.515625 40.765625 12.171875 48.375 
Q 18.84375 56 30.609375 56 
" id="DejaVuSans-6f"/>
      <path d="M 9.421875 54.6875 
L 18.40625 54.6875 
L 18.40625 0 
L 9.421875 0 
z
M 9.421875 75.984375 
L 18.40625 75.984375 
L 18.40625 64.59375 
L 9.421875 64.59375 
z
" id="DejaVuSans-69"/>
      <path d="M 18.3125 70.21875 
L 18.3125 54.6875 
L 36.8125 54.6875 
L 36.8125 47.703125 
L 18.3125 47.703125 
L 18.3125 18.015625 
Q 18.3125 11.328125 20.140625 9.421875 
Q 21.96875 7.515625 27.59375 7.515625 
L 36.8125 7.515625 
L 36.8125 0 
L 27.59375 0 
Q 17.1875 0 13.234375 3.875 
Q 9.28125 7.765625 9.28125 18.015625 
L 9.28125 47.703125 
L 2.6875 47.703125 
L 2.6875 54.6875 
L 9.28125 54.6875 
L 9.28125 70.21875 
z
" id="DejaVuSans-74"/>
      <path d="M 2.984375 54.6875 
L 12.5 54.6875 
L 29.59375 8.796875 
L 46.6875 54.6875 
L 56.203125 54.6875 
L 35.6875 0 
L 23.484375 0 
z
" id="DejaVuSans-76"/>
      <path d="M 44.390625 34.1875 
Q 47.5625 33.109375 50.5625 29.59375 
Q 53.5625 26.078125 56.59375 19.921875 
L 66.609375 0 
L 56 0 
L 46.6875 18.703125 
Q 43.0625 26.03125 39.671875 28.421875 
Q 36.28125 30.8125 30.421875 30.8125 
L 19.671875 30.8125 
L 19.671875 0 
L 9.8125 0 
L 9.8125 72.90625 
L 32.078125 72.90625 
Q 44.578125 72.90625 50.734375 67.671875 
Q 56.890625 62.453125 56.890625 51.90625 
Q 56.890625 45.015625 53.6875 40.46875 
Q 50.484375 35.9375 44.390625 34.1875 
M 19.671875 64.796875 
L 19.671875 38.921875 
L 32.078125 38.921875 
Q 39.203125 38.921875 42.84375 42.21875 
Q 46.484375 45.515625 46.484375 51.90625 
Q 46.484375 58.296875 42.84375 61.546875 
Q 39.203125 64.796875 32.078125 64.796875 
z
" id="DejaVuSans-52"/>
     </defs>
     <g transform="translate(175.135781 330.144062)scale(0.1 -0.1)">
      <use xlink:href="#DejaVuSans-46"/>
      <use x="57.378906" xlink:href="#DejaVuSans-61"/>
      <use x="118.658203" xlink:href="#DejaVuSans-6c"/>
      <use x="146.441406" xlink:href="#DejaVuSans-73"/>
      <use x="198.541016" xlink:href="#DejaVuSans-65"/>
      <use x="260.064453" xlink:href="#DejaVuSans-20"/>
      <use x="291.851562" xlink:href="#DejaVuSans-50"/>
      <use x="352.107422" xlink:href="#DejaVuSans-6f"/>
      <use x="413.289062" xlink:href="#DejaVuSans-73"/>
      <use x="465.388672" xlink:href="#DejaVuSans-69"/>
      <use x="493.171875" xlink:href="#DejaVuSans-74"/>
      <use x="532.380859" xlink:href="#DejaVuSans-69"/>
      <use x="560.164062" xlink:href="#DejaVuSans-76"/>
      <use x="619.34375" xlink:href="#DejaVuSans-65"/>
      <use x="680.867188" xlink:href="#DejaVuSans-20"/>
      <use x="712.654297" xlink:href="#DejaVuSans-52"/>
      <use x="782.105469" xlink:href="#DejaVuSans-61"/>
      <use x="843.384766" xlink:href="#DejaVuSans-74"/>
      <use x="882.59375" xlink:href="#DejaVuSans-65"/>
     </g>
    </g>
   </g>
   <g id="matplotlib.axis_2">
    <g id="ytick_1">
     <g id="line2d_7">
      <defs>
       <path d="M 0 0 
L -3.5 0 
" id="mfcc13d1f8b" style="stroke:#000000;stroke-width:0.8;"/>
      </defs>
      <g>
       <use style="stroke:#000000;stroke-width:0.8;" x="43.78125" xlink:href="#mfcc13d1f8b" y="301.8675"/>
      </g>
     </g>
     <g id="text_8">
      <!-- 0.0 -->
      <g transform="translate(20.878125 305.666719)scale(0.1 -0.1)">
       <use xlink:href="#DejaVuSans-30"/>
       <use x="63.623047" xlink:href="#DejaVuSans-2e"/>
       <use x="95.410156" xlink:href="#DejaVuSans-30"/>
      </g>
     </g>
    </g>
    <g id="ytick_2">
     <g id="line2d_8">
      <g>
       <use style="stroke:#000000;stroke-width:0.8;" x="43.78125" xlink:href="#mfcc13d1f8b" y="251.1795"/>
      </g>
     </g>
     <g id="text_9">
      <!-- 0.2 -->
      <g transform="translate(20.878125 254.978719)scale(0.1 -0.1)">
       <use xlink:href="#DejaVuSans-30"/>
       <use x="63.623047" xlink:href="#DejaVuSans-2e"/>
       <use x="95.410156" xlink:href="#DejaVuSans-32"/>
      </g>
     </g>
    </g>
    <g id="ytick_3">
     <g id="line2d_9">
      <g>
       <use style="stroke:#000000;stroke-width:0.8;" x="43.78125" xlink:href="#mfcc13d1f8b" y="200.4915"/>
      </g>
     </g>
     <g id="text_10">
      <!-- 0.4 -->
      <g transform="translate(20.878125 204.290719)scale(0.1 -0.1)">
       <use xlink:href="#DejaVuSans-30"/>
       <use x="63.623047" xlink:href="#DejaVuSans-2e"/>
       <use x="95.410156" xlink:href="#DejaVuSans-34"/>
      </g>
     </g>
    </g>
    <g id="ytick_4">
     <g id="line2d_10">
      <g>
       <use style="stroke:#000000;stroke-width:0.8;" x="43.78125" xlink:href="#mfcc13d1f8b" y="149.8035"/>
      </g>
     </g>
     <g id="text_11">
      <!-- 0.6 -->
      <g transform="translate(20.878125 153.602719)scale(0.1 -0.1)">
       <use xlink:href="#DejaVuSans-30"/>
       <use x="63.623047" xlink:href="#DejaVuSans-2e"/>
       <use x="95.410156" xlink:href="#DejaVuSans-36"/>
      </g>
     </g>
    </g>
    <g id="ytick_5">
     <g id="line2d_11">
      <g>
       <use style="stroke:#000000;stroke-width:0.8;" x="43.78125" xlink:href="#mfcc13d1f8b" y="99.1155"/>
      </g>
     </g>
     <g id="text_12">
      <!-- 0.8 -->
      <g transform="translate(20.878125 102.914719)scale(0.1 -0.1)">
       <use xlink:href="#DejaVuSans-30"/>
       <use x="63.623047" xlink:href="#DejaVuSans-2e"/>
       <use x="95.410156" xlink:href="#DejaVuSans-38"/>
      </g>
     </g>
    </g>
    <g id="ytick_6">
     <g id="line2d_12">
      <g>
       <use style="stroke:#000000;stroke-width:0.8;" x="43.78125" xlink:href="#mfcc13d1f8b" y="48.4275"/>
      </g>
     </g>
     <g id="text_13">
      <!-- 1.0 -->
      <g transform="translate(20.878125 52.226719)scale(0.1 -0.1)">
       <use xlink:href="#DejaVuSans-31"/>
       <use x="63.623047" xlink:href="#DejaVuSans-2e"/>
       <use x="95.410156" xlink:href="#DejaVuSans-30"/>
      </g>
     </g>
    </g>
    <g id="text_14">
     <!-- True Positive Rate -->
     <defs>
      <path d="M -0.296875 72.90625 
L 61.375 72.90625 
L 61.375 64.59375 
L 35.5 64.59375 
L 35.5 0 
L 25.59375 0 
L 25.59375 64.59375 
L -0.296875 64.59375 
z
" id="DejaVuSans-54"/>
      <path d="M 41.109375 46.296875 
Q 39.59375 47.171875 37.8125 47.578125 
Q 36.03125 48 33.890625 48 
Q 26.265625 48 22.1875 43.046875 
Q 18.109375 38.09375 18.109375 28.8125 
L 18.109375 0 
L 9.078125 0 
L 9.078125 54.6875 
L 18.109375 54.6875 
L 18.109375 46.1875 
Q 20.953125 51.171875 25.484375 53.578125 
Q 30.03125 56 36.53125 56 
Q 37.453125 56 38.578125 55.875 
Q 39.703125 55.765625 41.0625 55.515625 
z
" id="DejaVuSans-72"/>
      <path d="M 8.5 21.578125 
L 8.5 54.6875 
L 17.484375 54.6875 
L 17.484375 21.921875 
Q 17.484375 14.15625 20.5 10.265625 
Q 23.53125 6.390625 29.59375 6.390625 
Q 36.859375 6.390625 41.078125 11.03125 
Q 45.3125 15.671875 45.3125 23.6875 
L 45.3125 54.6875 
L 54.296875 54.6875 
L 54.296875 0 
L 45.3125 0 
L 45.3125 8.40625 
Q 42.046875 3.421875 37.71875 1 
Q 33.40625 -1.421875 27.6875 -1.421875 
Q 18.265625 -1.421875 13.375 4.4375 
Q 8.5 10.296875 8.5 21.578125 
M 31.109375 56 
z
" id="DejaVuSans-75"/>
     </defs>
     <g transform="translate(14.798438 214.357594)rotate(-90)scale(0.1 -0.1)">
      <use xlink:href="#DejaVuSans-54"/>
      <use x="60.865234" xlink:href="#DejaVuSans-72"/>
      <use x="101.978516" xlink:href="#DejaVuSans-75"/>
      <use x="165.357422" xlink:href="#DejaVuSans-65"/>
      <use x="226.880859" xlink:href="#DejaVuSans-20"/>
      <use x="258.667969" xlink:href="#DejaVuSans-50"/>
      <use x="318.923828" xlink:href="#DejaVuSans-6f"/>
      <use x="380.105469" xlink:href="#DejaVuSans-73"/>
      <use x="432.205078" xlink:href="#DejaVuSans-69"/>
      <use x="459.988281" xlink:href="#DejaVuSans-74"/>
      <use x="499.197266" xlink:href="#DejaVuSans-69"/>
      <use x="526.980469" xlink:href="#DejaVuSans-76"/>
      <use x="586.160156" xlink:href="#DejaVuSans-65"/>
      <use x="647.683594" xlink:href="#DejaVuSans-20"/>
      <use x="679.470703" xlink:href="#DejaVuSans-52"/>
      <use x="748.921875" xlink:href="#DejaVuSans-61"/>
      <use x="810.201172" xlink:href="#DejaVuSans-74"/>
      <use x="849.410156" xlink:href="#DejaVuSans-65"/>
     </g>
    </g>
   </g>
   <g id="line2d_13">
    <path clip-path="url(#paf3d0b3302)" d="M 43.78125 301.8675 
L 43.812139 301.386132 
L 43.927975 301.386132 
L 44.055393 300.423397 
L 44.267758 300.423397 
L 44.395177 299.94203 
L 44.549624 299.94203 
L 44.823767 298.979295 
L 44.877823 297.535192 
L 45.321858 297.535192 
L 45.449277 297.053825 
L 45.487889 297.053825 
L 45.626891 296.09109 
L 45.680948 295.850406 
L 45.874006 295.850406 
L 46.070926 294.887671 
L 46.152011 293.202885 
L 46.229234 293.202885 
L 46.310319 291.036731 
L 46.387543 291.036731 
L 46.530406 290.555363 
L 46.626935 290.555363 
L 46.77366 287.667158 
L 46.935829 286.945107 
L 47.051665 286.945107 
L 47.13661 286.223056 
L 47.542034 286.223056 
L 47.565201 285.260321 
L 47.951318 285.260321 
L 48.043986 285.019637 
L 48.175266 283.575534 
L 48.25249 283.575534 
L 48.403075 281.650064 
L 48.538217 281.650064 
L 48.827805 277.55844 
L 49.310451 276.355021 
L 49.542122 276.355021 
L 49.758348 272.985449 
L 49.874183 272.985449 
L 50.109714 270.819295 
L 50.167632 270.819295 
L 50.302773 269.615876 
L 50.491971 269.375192 
L 50.603945 267.449722 
L 50.71978 267.449722 
L 50.881949 265.042885 
L 51.210149 265.042885 
L 51.383902 263.839466 
L 51.580822 262.876731 
L 51.719824 261.913996 
L 52.202471 261.913996 
L 52.225638 260.951261 
L 52.669673 260.951261 
L 52.777786 260.469893 
L 52.901343 259.747842 
L 53.017179 259.747842 
L 53.140736 257.822372 
L 53.275877 257.822372 
L 53.411018 256.618953 
L 53.681301 256.618953 
L 53.828025 253.730748 
L 53.924555 253.730748 
L 54.094446 253.490064 
L 54.283644 253.24938 
L 54.472841 251.805278 
L 54.696789 250.120491 
L 54.967072 250.120491 
L 55.12538 249.157756 
L 55.384078 247.232286 
L 56.106118 236.401517 
L 56.299177 236.401517 
L 56.380261 235.438782 
L 56.677572 233.513312 
L 56.87063 233.513312 
L 57.028939 232.550577 
L 57.086856 232.550577 
L 57.39575 227.255534 
L 57.49228 227.255534 
L 57.696922 225.570748 
L 57.851369 225.570748 
L 58.133234 222.682543 
L 62.017576 201.983739 
L 62.094799 201.983739 
L 62.179745 200.058269 
L 62.662392 200.058269 
L 63.060093 199.576902 
L 63.253151 199.576902 
L 63.604518 198.614167 
L 63.743521 197.651432 
L 64.419226 197.651432 
L 65.102654 194.522543 
L 65.392242 194.522543 
L 65.461743 194.041175 
L 66.060225 194.041175 
L 68.098925 168.528697 
L 68.388513 168.528697 
L 68.716713 167.325278 
L 69.276583 167.325278 
L 69.419447 165.399808 
L 69.535282 165.399808 
L 69.624089 164.91844 
L 69.739924 164.91844 
L 69.960011 162.99297 
L 70.037234 162.99297 
L 70.496714 159.14203 
L 70.670467 159.14203 
L 70.859665 158.901346 
L 70.917582 158.901346 
L 70.994806 157.697927 
L 71.187864 157.697927 
L 71.319144 156.253825 
L 71.570121 156.253825 
L 71.709123 155.29109 
L 72.435024 155.29109 
L 72.991033 153.846987 
L 74.014244 153.846987 
L 74.755589 145.904423 
L 74.948648 145.904423 
L 75.08765 144.941688 
L 75.466045 144.460321 
L 75.61277 143.978953 
L 77.601275 143.978953 
L 78.029865 141.812799 
L 78.937241 141.812799 
L 79.323358 139.405962 
L 79.497111 139.405962 
L 79.582057 138.68391 
L 80.203706 138.68391 
L 80.346569 137.961859 
L 81.748176 137.961859 
L 81.771343 136.999124 
L 82.006874 136.277073 
L 82.566745 136.277073 
L 82.68258 135.073654 
L 82.91425 135.073654 
L 82.983751 134.592286 
L 83.157504 134.592286 
L 83.284923 134.110919 
L 83.323535 134.110919 
L 83.474121 132.666816 
L 83.57065 132.666816 
L 83.655596 131.944765 
L 84.466442 131.944765 
L 84.825532 131.463397 
L 85.462625 131.463397 
L 85.736769 129.297244 
L 87.107485 129.297244 
L 87.138375 128.815876 
L 87.370045 128.815876 
L 87.497464 128.334509 
L 87.547659 127.853141 
L 88.011 127.853141 
L 88.153864 127.13109 
L 88.269699 127.13109 
L 88.331478 126.168355 
L 91.393389 126.168355 
L 91.424278 125.686987 
L 92.544019 125.686987 
L 92.605798 124.724252 
L 93.416644 124.724252 
L 93.524757 124.242885 
L 94.02671 124.242885 
L 94.227491 123.520833 
L 94.729443 123.520833 
L 94.903196 122.317415 
L 95.617513 122.317415 
L 95.748793 122.076731 
L 95.864629 122.076731 
L 96.026798 121.354679 
L 96.586668 121.354679 
L 96.621419 119.910577 
L 97.007536 119.910577 
L 102.073397 119.429209 
L 102.131314 119.429209 
L 102.169926 118.947842 
L 102.71049 118.947842 
L 102.876521 118.466474 
L 103.494309 118.466474 
L 103.683506 118.225791 
L 103.934483 118.225791 
L 104.170014 116.781688 
L 104.343767 116.781688 
L 104.417129 115.337585 
L 104.88047 115.337585 
L 105.027195 114.856218 
L 109.170235 114.856218 
L 109.278348 114.37485 
L 109.722383 114.37485 
L 109.74555 113.412115 
L 110.652926 113.412115 
L 110.737871 112.690064 
L 112.282341 112.690064 
L 112.529456 112.44938 
L 117.008418 112.44938 
L 117.17831 111.005278 
L 118.278745 111.005278 
L 118.406163 110.52391 
L 118.792281 110.52391 
L 123.101351 108.357756 
L 123.834974 108.357756 
L 128.615108 107.876389 
L 128.877668 107.395021 
L 128.993503 107.395021 
L 129.124783 105.950919 
L 129.646041 105.950919 
L 129.680792 105.710235 
L 139.217892 105.710235 
L 139.252643 105.469551 
L 140.217936 105.469551 
L 140.291299 104.025449 
L 142.974815 104.025449 
L 143.117678 103.303397 
L 143.252819 103.303397 
L 147.484666 102.340662 
L 151.801459 101.137244 
L 151.874821 99.693141 
L 152.376774 99.693141 
L 161.346281 98.489722 
L 162.898473 98.489722 
L 163.045198 95.601517 
L 167.157349 95.601517 
L 167.192099 94.157415 
L 171.099607 94.157415 
L 173.489674 93.916731 
L 173.520564 93.435363 
L 178.794928 93.435363 
L 178.957097 92.713312 
L 179.053626 92.713312 
L 179.169461 90.306474 
L 179.45905 90.306474 
L 179.686859 88.862372 
L 179.918529 88.862372 
L 180.030503 88.621688 
L 181.845255 88.621688 
L 181.891589 87.899637 
L 185.6099 87.899637 
L 185.857015 87.658953 
L 191.610165 87.658953 
L 191.664221 86.21485 
L 191.780056 86.21485 
L 191.853419 85.974167 
L 198.066048 85.974167 
L 198.189605 85.252115 
L 201.278545 85.252115 
L 201.363491 84.530064 
L 207.734428 84.530064 
L 207.857986 83.808013 
L 209.267314 83.808013 
L 209.379288 82.36391 
L 209.997076 82.36391 
L 210.101328 81.641859 
L 211.182457 81.641859 
L 211.228791 80.919808 
L 212.676731 80.919808 
L 212.815733 79.957073 
L 213.336992 79.957073 
L 213.479855 79.235021 
L 220.56511 79.235021 
L 220.688667 78.51297 
L 228.353098 78.51297 
L 228.503684 78.272286 
L 230.511495 78.272286 
L 230.654358 77.550235 
L 233.801215 77.550235 
L 233.932495 76.106132 
L 235.052235 76.106132 
L 235.237572 73.217927 
L 237.979005 73.217927 
L 238.052368 71.773825 
L 241.662566 71.773825 
L 241.828596 71.292457 
L 295.325164 71.292457 
L 295.47575 69.848355 
L 295.649503 69.848355 
L 295.742171 68.404252 
L 296.012453 68.404252 
L 296.078093 67.682201 
L 296.174623 64.071944 
L 296.437183 63.590577 
L 296.688159 63.590577 
L 296.707465 59.980321 
L 297.402476 59.980321 
L 297.44881 59.258269 
L 298.954668 59.258269 
L 299.066642 59.017585 
L 299.723042 59.017585 
L 299.989463 58.776902 
L 301.047425 58.776902 
L 301.19801 58.536218 
L 305.897059 58.536218 
L 306.047645 58.295534 
L 308.190597 58.295534 
L 308.360488 58.05485 
L 311.449428 58.05485 
L 311.561402 57.814167 
L 314.966957 57.814167 
L 315.059626 57.573483 
L 318.017285 57.573483 
L 318.245094 57.332799 
L 320.561799 57.332799 
L 320.608133 56.610748 
L 325.260848 56.610748 
L 325.372822 56.370064 
L 326.260892 56.370064 
L 326.542758 56.12938 
L 328.427011 56.12938 
L 328.577596 55.888697 
L 330.19929 55.888697 
L 330.245624 55.166645 
L 335.245844 55.166645 
L 335.350096 54.444594 
L 337.126236 54.444594 
L 337.292267 52.759808 
L 339.029795 52.759808 
L 339.137908 52.27844 
L 346.520473 52.27844 
L 346.667197 51.797073 
L 347.111232 51.797073 
L 347.165289 51.556389 
L 347.995441 51.556389 
L 348.045637 51.075021 
L 351.559305 51.075021 
L 351.601778 50.112286 
L 353.783341 50.112286 
L 353.895316 49.871603 
L 358.783562 49.871603 
L 358.891675 49.390235 
L 359.316404 49.390235 
L 359.524907 49.149551 
L 378.228435 49.149551 
L 378.282492 48.908868 
L 380.549001 48.908868 
L 380.660975 48.668184 
L 383.811693 48.668184 
L 383.86575 48.4275 
L 400.90125 48.4275 
L 400.90125 48.4275 
" style="fill:none;stroke:#1f77b4;stroke-linecap:square;stroke-width:1.5;"/>
   </g>
   <g id="line2d_14">
    <path clip-path="url(#paf3d0b3302)" d="M 43.78125 301.8675 
L 44.012923 301.8675 
L 44.677052 297.535192 
L 45.117231 293.684252 
L 50.252648 293.684252 
L 50.314427 292.721517 
L 50.430264 292.721517 
L 50.57699 291.036731 
L 50.827969 291.036731 
L 51.017169 289.592628 
L 51.221813 289.592628 
L 51.345372 288.870577 
L 51.646547 288.148526 
L 51.916832 288.148526 
L 51.963167 286.223056 
L 52.136921 286.223056 
L 52.341566 285.019637 
L 52.44968 284.538269 
L 52.592545 283.816218 
L 52.758577 283.33485 
L 53.048168 283.33485 
L 53.218062 283.094167 
L 53.30687 282.612799 
L 53.550126 282.131432 
L 53.955554 282.131432 
L 54.082974 281.650064 
L 54.152476 281.168697 
L 54.268312 281.168697 
L 54.445928 277.799124 
L 54.73552 277.799124 
L 54.967193 276.114338 
L 55.025111 276.114338 
L 55.476873 270.578611 
L 55.920913 270.578611 
L 56.148725 270.337927 
L 56.527124 267.449722 
L 56.778103 267.449722 
L 56.901662 266.727671 
L 57.094723 266.727671 
L 57.260755 265.042885 
L 57.318673 265.042885 
L 57.457677 263.358098 
L 57.650738 263.358098 
L 57.712517 262.395363 
L 58.407536 262.395363 
L 58.442287 260.951261 
L 58.596736 260.951261 
L 58.843853 260.710577 
L 59.168195 259.747842 
L 59.229975 258.785107 
L 59.50026 258.785107 
L 59.631541 257.341004 
L 59.901827 257.341004 
L 60.079442 256.378269 
L 60.268642 256.137585 
L 60.461703 256.137585 
L 60.569817 254.452799 
L 60.917326 254.452799 
L 61.044746 253.971432 
L 61.210779 252.286645 
L 61.365227 252.286645 
L 61.450174 250.361175 
L 61.720459 250.361175 
L 61.909659 246.510235 
L 62.29578 246.510235 
L 62.384588 246.028868 
L 62.550621 245.5475 
L 62.8016 245.5475 
L 63.21475 244.825449 
L 63.485035 244.825449 
L 63.894324 241.455876 
L 63.998577 239.530406 
L 64.106691 239.530406 
L 64.237972 238.086303 
L 64.353808 238.086303 
L 65.014076 234.476047 
L 65.72454 232.069209 
L 66.226498 232.069209 
L 66.589452 231.106474 
L 66.705289 231.106474 
L 66.809542 230.384423 
L 67.365557 228.940321 
L 67.404169 228.940321 
L 67.593369 227.496218 
L 68.037408 227.496218 
L 68.141661 226.774167 
L 69.207357 223.645278 
L 69.412001 223.645278 
L 69.674564 223.16391 
L 69.829013 223.16391 
L 70.276914 222.201175 
L 70.377305 221.23844 
L 70.608978 221.23844 
L 70.767288 220.275705 
L 70.844512 220.275705 
L 70.917876 219.072286 
L 71.477752 219.072286 
L 71.601311 218.350235 
L 71.717147 218.350235 
L 72.145742 214.980662 
L 73.902595 214.980662 
L 74.026154 213.53656 
L 74.883344 213.53656 
L 75.022348 212.573825 
L 75.466388 212.573825 
L 75.651726 209.68562 
L 75.964485 208.722885 
L 76.732867 203.668526 
L 77.146017 202.946474 
L 77.242547 202.946474 
L 80.038068 176.711944 
L 80.150043 176.711944 
L 80.289047 175.749209 
L 80.636556 175.749209 
L 80.706058 175.267842 
L 80.860507 175.267842 
L 81.424244 168.528697 
L 81.810366 168.528697 
L 82.01501 168.047329 
L 82.439744 168.047329 
L 82.58647 167.565962 
L 83.235154 164.677756 
L 83.466827 164.677756 
L 84.520939 161.789551 
L 84.582719 160.826816 
L 85.015175 158.901346 
L 85.131011 158.901346 
L 85.200513 158.419979 
L 85.648414 157.457244 
L 85.76039 156.013141 
L 86.725694 156.013141 
L 87.818418 153.124936 
L 88.3976 153.124936 
L 88.505714 152.643568 
L 88.563632 152.643568 
L 90.351375 149.755363 
L 90.62166 149.755363 
L 90.656411 148.311261 
L 90.984615 148.311261 
L 91.579242 144.460321 
L 95.440458 144.460321 
L 95.977167 144.219637 
L 96.74941 144.219637 
L 100.822993 125.686987 
L 100.981303 124.724252 
L 101.946607 124.724252 
L 102.155112 123.28015 
L 102.386785 123.28015 
L 102.603013 122.317415 
L 102.950523 122.317415 
L 103.182196 119.910577 
L 104.089582 119.910577 
L 104.124333 118.466474 
L 104.985384 117.985107 
L 105.093498 117.503739 
L 105.38695 116.541004 
L 106.545315 116.541004 
L 106.65729 116.300321 
L 107.209444 115.818953 
L 110.661371 115.578269 
L 110.730873 115.096902 
L 111.38728 115.096902 
L 112.900876 108.357756 
L 113.943405 108.357756 
L 114.731093 106.913654 
L 119.256438 106.913654 
L 119.364552 106.432286 
L 119.769979 106.432286 
L 119.970763 105.469551 
L 120.974679 105.469551 
L 122.685197 103.303397 
L 124.932425 103.303397 
L 125.040539 102.82203 
L 125.565665 101.859295 
L 125.951786 101.859295 
L 126.438299 100.89656 
L 128.762751 100.89656 
L 129.755084 100.174509 
L 130.179818 100.174509 
L 130.480992 99.693141 
L 136.809525 99.452457 
L 137.025753 98.489722 
L 137.604936 98.489722 
L 138.342428 96.082885 
L 139.018141 96.082885 
L 139.203479 95.601517 
L 139.550989 95.601517 
L 139.597323 94.879466 
L 143.246172 94.879466 
L 143.589821 91.028526 
L 143.93733 91.028526 
L 144.620765 90.547158 
L 144.836993 89.584423 
L 150.377838 89.343739 
L 150.412589 87.899637 
L 151.706096 87.899637 
L 151.775598 87.418269 
L 152.277556 87.418269 
L 152.613482 85.252115 
L 153.617398 85.252115 
L 153.872239 84.28938 
L 154.219748 84.28938 
L 154.443699 83.808013 
L 155.910961 83.808013 
L 157.189023 82.845278 
L 158.501836 82.845278 
L 158.683314 82.123226 
L 159.14666 82.123226 
L 159.362888 81.160491 
L 159.455557 79.716389 
L 159.957515 79.716389 
L 160.447889 78.994338 
L 163.459638 78.994338 
L 163.571613 78.753654 
L 164.536917 78.753654 
L 165.301438 78.272286 
L 165.401829 77.309551 
L 165.749339 77.309551 
L 166.085265 76.5875 
L 166.239713 75.384081 
L 166.818896 75.384081 
L 166.919287 74.421346 
L 167.517776 74.421346 
L 187.816188 72.73656 
L 188.341313 71.773825 
L 188.476456 71.773825 
L 189.067222 71.292457 
L 194.260557 71.292457 
L 194.291447 70.81109 
L 194.812711 70.81109 
L 194.940131 70.329722 
L 196.61976 70.329722 
L 197.538729 69.848355 
L 198.233748 69.848355 
L 198.403642 69.607671 
L 200.527311 69.607671 
L 200.61998 68.163568 
L 200.870959 68.163568 
L 201.442419 67.682201 
L 201.550533 67.200833 
L 201.589145 67.200833 
L 201.712704 66.478782 
L 201.82854 66.478782 
L 229.146643 61.905791 
L 234.710655 61.905791 
L 234.849659 60.943056 
L 235.370923 60.943056 
L 235.401813 60.461688 
L 237.177972 60.461688 
L 237.42509 59.017585 
L 239.568065 59.017585 
L 239.641428 57.573483 
L 240.367337 57.092115 
L 240.637622 57.092115 
L 245.93521 55.648013 
L 249.506835 55.648013 
L 249.568614 54.685278 
L 251.282994 54.685278 
L 251.352496 54.20391 
L 263.171678 54.20391 
L 263.665913 53.722543 
L 265.982643 53.722543 
L 267.133285 53.241175 
L 274.10278 53.241175 
L 274.616322 53.000491 
L 280.38884 53.000491 
L 282.736459 52.519124 
L 283.817599 52.519124 
L 284.118774 52.037756 
L 293.984181 52.037756 
L 294.347135 50.593654 
L 295.40897 50.593654 
L 295.818259 48.4275 
L 400.90125 48.4275 
L 400.90125 48.4275 
" style="fill:none;stroke:#ff7f0e;stroke-linecap:square;stroke-width:1.5;"/>
   </g>
   <g id="line2d_15">
    <path clip-path="url(#paf3d0b3302)" d="M 43.78125 301.8675 
L 43.819862 301.8675 
L 43.889364 301.386132 
L 44.271624 298.738611 
L 44.580522 298.738611 
L 44.611411 298.257244 
L 44.804472 298.257244 
L 44.982088 297.294509 
L 45.325736 297.294509 
L 45.46474 296.331774 
L 45.541964 296.331774 
L 45.611466 295.850406 
L 45.93967 295.850406 
L 46.109563 293.202885 
L 46.244706 293.202885 
L 46.35282 292.721517 
L 47.067145 292.721517 
L 47.113479 290.796047 
L 47.943641 290.796047 
L 47.97453 290.314679 
L 48.406987 290.314679 
L 48.63866 287.907842 
L 48.808553 286.463739 
L 48.92439 286.463739 
L 49.132895 285.019637 
L 49.248732 285.019637 
L 49.418625 283.575534 
L 49.600102 282.853483 
L 49.658021 281.650064 
L 49.889694 281.650064 
L 49.997808 281.168697 
L 50.113644 281.168697 
L 50.26037 280.687329 
L 50.422541 278.280491 
L 50.499766 278.280491 
L 50.592435 276.836389 
L 50.843414 276.836389 
L 50.905193 275.873654 
L 51.310621 275.873654 
L 51.916832 274.910919 
L 52.021085 274.188868 
L 52.337704 269.85656 
L 52.511459 269.85656 
L 52.67363 267.93109 
L 52.828079 267.93109 
L 53.553988 266.246303 
L 53.662102 266.246303 
L 54.110003 264.08015 
L 54.187227 264.08015 
L 54.604238 262.395363 
L 54.797299 262.395363 
L 54.936303 261.432628 
L 55.129364 261.432628 
L 55.318563 259.747842 
L 55.357175 259.747842 
L 55.457567 258.785107 
L 55.534791 258.785107 
L 55.59271 257.581688 
L 56.171892 257.581688 
L 56.256839 255.656218 
L 56.882356 246.269551 
L 57.693211 246.269551 
L 57.762713 245.788184 
L 57.839937 245.788184 
L 57.901717 244.825449 
L 58.287838 244.825449 
L 58.465454 243.862714 
L 58.650793 243.140662 
L 58.762768 241.69656 
L 59.090971 241.69656 
L 59.125722 241.455876 
L 59.249281 239.530406 
L 59.577484 239.530406 
L 59.7551 238.567671 
L 59.932716 235.198098 
L 60.203001 235.198098 
L 60.295671 233.753996 
L 60.747433 231.828526 
L 60.901881 231.828526 
L 60.955938 230.384423 
L 61.226224 230.384423 
L 61.403839 229.421688 
L 61.693431 229.421688 
L 61.840157 228.940321 
L 62.110442 228.940321 
L 62.218556 226.052115 
L 62.6124 224.608013 
L 62.689624 224.608013 
L 62.871102 223.885962 
L 63.079607 223.885962 
L 63.759181 217.868868 
L 63.91363 217.868868 
L 66.824987 199.336218 
L 67.133884 199.336218 
L 67.203386 198.85485 
L 70.983516 180.322201 
L 71.045296 179.359466 
L 71.354193 179.359466 
L 71.489336 178.156047 
L 72.222967 178.156047 
L 72.524141 177.674679 
L 72.829177 171.176218 
L 73.350442 171.176218 
L 73.728841 168.288013 
L 74.385247 168.288013 
L 74.763647 167.806645 
L 75.180658 167.084594 
L 75.203825 166.121859 
L 76.400802 166.121859 
L 76.748312 163.715021 
L 77.31591 162.99297 
L 77.44333 162.511603 
L 77.686587 162.030235 
L 77.898954 162.030235 
L 78.122904 161.548868 
L 78.972372 161.548868 
L 79.080486 161.0675 
L 79.149988 160.586132 
L 79.304437 160.586132 
L 79.412551 160.104765 
L 80.107569 160.104765 
L 80.594083 156.735192 
L 80.883674 156.735192 
L 80.953176 156.253825 
L 81.034261 155.29109 
L 81.150098 155.29109 
L 81.235045 154.569038 
L 81.350881 154.569038 
L 81.520774 153.124936 
L 81.810366 153.124936 
L 81.879868 152.643568 
L 82.729335 152.643568 
L 83.323962 150.718098 
L 84.926367 150.718098 
L 85.297044 149.755363 
L 85.451492 148.551944 
L 86.513327 148.551944 
L 86.621441 148.070577 
L 87.007562 148.070577 
L 87.486353 147.829893 
L 87.833863 147.829893 
L 88.042368 146.385791 
L 88.065535 145.423056 
L 88.297208 145.423056 
L 88.644718 143.016218 
L 89.077174 141.090748 
L 91.181537 141.090748 
L 91.339847 138.924594 
L 92.517517 138.924594 
L 92.702856 138.202543 
L 92.764635 137.239808 
L 93.0967 133.870235 
L 93.328373 133.870235 
L 93.521434 131.463397 
L 93.63727 131.463397 
L 94.000224 130.019295 
L 94.135367 130.019295 
L 94.166257 129.537927 
L 95.560156 129.537927 
L 95.760939 127.371774 
L 105.83099 127.371774 
L 105.900492 126.890406 
L 106.182361 126.409038 
L 108.236527 126.409038 
L 109.263611 125.446303 
L 109.333113 124.964936 
L 109.603398 124.964936 
L 109.665177 124.002201 
L 109.819626 124.002201 
L 109.985658 123.520833 
L 110.549396 122.558098 
L 110.59573 120.632628 
L 110.750179 120.632628 
L 110.977991 120.391944 
L 111.286888 120.391944 
L 111.383418 119.188526 
L 112.155662 119.188526 
L 112.395057 117.263056 
L 121.83573 117.263056 
L 121.86662 116.781688 
L 123.063597 116.781688 
L 123.299131 115.818953 
L 125.303102 115.818953 
L 125.333992 115.337585 
L 125.778031 115.337585 
L 125.847533 114.856218 
L 127.662305 114.856218 
L 127.762696 113.893483 
L 127.917145 113.893483 
L 129.994479 113.412115 
L 130.515743 113.412115 
L 130.909587 111.486645 
L 133.017811 110.52391 
L 133.346015 110.52391 
L 133.469574 109.801859 
L 136.226482 109.561175 
L 138.523905 109.561175 
L 138.689938 109.079808 
L 139.616629 109.079808 
L 139.987306 108.117073 
L 141.261507 108.117073 
L 141.419817 107.154338 
L 145.532012 107.154338 
L 145.562902 106.67297 
L 146.759879 106.67297 
L 146.86027 105.710235 
L 147.227086 105.710235 
L 147.261837 104.266132 
L 147.686571 104.266132 
L 147.71746 103.784765 
L 148.624846 103.784765 
L 148.89127 102.340662 
L 149.644207 102.340662 
L 149.90677 101.859295 
L 151.103747 101.859295 
L 151.319975 100.89656 
L 153.099995 100.415192 
L 154.219748 100.415192 
L 154.868432 94.879466 
L 158.567477 94.879466 
L 159.023101 94.398098 
L 159.949792 94.398098 
L 159.996127 93.676047 
L 161.540613 93.676047 
L 178.039589 90.787842 
L 179.622688 90.787842 
L 198.059994 88.140321 
L 198.349585 88.140321 
L 198.372752 87.177585 
L 200.052381 87.177585 
L 200.121883 86.696218 
L 200.388307 86.455534 
L 201.276387 86.455534 
L 201.832402 85.011432 
L 202.087242 84.048697 
L 202.24169 84.048697 
L 202.542865 83.567329 
L 203.16066 83.567329 
L 203.369166 82.845278 
L 206.516057 82.845278 
L 206.539224 81.882543 
L 211.172683 81.882543 
L 211.242185 81.401175 
L 211.358021 81.401175 
L 211.427523 80.919808 
L 230.752909 80.919808 
L 230.799243 80.197756 
L 231.552181 80.197756 
L 231.737519 79.716389 
L 233.301311 79.716389 
L 233.695155 78.994338 
L 234.814908 78.994338 
L 234.926883 78.753654 
L 240.795932 78.753654 
L 241.243833 77.790919 
L 241.436893 77.790919 
L 241.545007 77.309551 
L 244.923571 77.309551 
L 245.518199 75.384081 
L 262.457353 75.384081 
L 262.723777 73.939979 
L 264.364794 73.939979 
L 264.550132 73.458611 
L 265.727803 73.458611 
L 265.81275 72.73656 
L 266.778054 72.73656 
L 266.920919 72.014509 
L 285.358225 72.014509 
L 285.678705 69.126303 
L 298.748921 69.126303 
L 298.799117 68.644936 
L 299.482552 67.922885 
L 308.826695 67.922885 
L 309.015895 67.682201 
L 329.345196 67.682201 
L 329.623204 66.96015 
L 347.604887 66.96015 
L 347.658944 66.719466 
L 370.540509 66.719466 
L 370.644762 65.997415 
L 375.451976 65.997415 
L 375.672065 65.275363 
L 375.7184 64.553312 
L 375.911461 64.553312 
L 376.038881 64.071944 
L 376.710732 64.071944 
L 376.757067 63.349893 
L 376.969434 63.349893 
L 377.158633 61.905791 
L 377.757122 61.905791 
L 378.120076 60.461688 
L 378.583422 60.461688 
L 379.834456 59.017585 
L 379.930986 59.017585 
L 380.162659 55.407329 
L 380.336414 55.407329 
L 380.969653 53.963226 
L 382.572058 53.963226 
L 382.680172 53.481859 
L 383.630031 53.481859 
L 383.811508 52.759808 
L 384.332772 52.759808 
L 384.379107 52.037756 
L 388.595555 52.037756 
L 389.128403 49.149551 
L 389.862034 49.149551 
L 390.197959 48.4275 
L 400.90125 48.4275 
L 400.90125 48.4275 
" style="fill:none;stroke:#2ca02c;stroke-linecap:square;stroke-width:1.5;"/>
   </g>
   <g id="line2d_16">
    <path clip-path="url(#paf3d0b3302)" d="M 43.78125 301.8675 
L 400.90125 48.4275 
" style="fill:none;stroke:#000000;stroke-dasharray:5.6,2.4;stroke-dashoffset:0;stroke-width:1.5;"/>
   </g>
   <g id="patch_3">
    <path d="M 43.78125 301.8675 
L 43.78125 35.7555 
" style="fill:none;stroke:#000000;stroke-linecap:square;stroke-linejoin:miter;stroke-width:0.8;"/>
   </g>
   <g id="patch_4">
    <path d="M 400.90125 301.8675 
L 400.90125 35.7555 
" style="fill:none;stroke:#000000;stroke-linecap:square;stroke-linejoin:miter;stroke-width:0.8;"/>
   </g>
   <g id="patch_5">
    <path d="M 43.78125 301.8675 
L 400.90125 301.8675 
" style="fill:none;stroke:#000000;stroke-linecap:square;stroke-linejoin:miter;stroke-width:0.8;"/>
   </g>
   <g id="patch_6">
    <path d="M 43.78125 35.7555 
L 400.90125 35.7555 
" style="fill:none;stroke:#000000;stroke-linecap:square;stroke-linejoin:miter;stroke-width:0.8;"/>
   </g>
   <g id="text_15">
    <!-- ROC Curve AdaBoost + DummySampler -->
    <defs>
     <path d="M 39.40625 66.21875 
Q 28.65625 66.21875 22.328125 58.203125 
Q 16.015625 50.203125 16.015625 36.375 
Q 16.015625 22.609375 22.328125 14.59375 
Q 28.65625 6.59375 39.40625 6.59375 
Q 50.140625 6.59375 56.421875 14.59375 
Q 62.703125 22.609375 62.703125 36.375 
Q 62.703125 50.203125 56.421875 58.203125 
Q 50.140625 66.21875 39.40625 66.21875 
M 39.40625 74.21875 
Q 54.734375 74.21875 63.90625 63.9375 
Q 73.09375 53.65625 73.09375 36.375 
Q 73.09375 19.140625 63.90625 8.859375 
Q 54.734375 -1.421875 39.40625 -1.421875 
Q 24.03125 -1.421875 14.8125 8.828125 
Q 5.609375 19.09375 5.609375 36.375 
Q 5.609375 53.65625 14.8125 63.9375 
Q 24.03125 74.21875 39.40625 74.21875 
" id="DejaVuSans-4f"/>
     <path d="M 64.40625 67.28125 
L 64.40625 56.890625 
Q 59.421875 61.53125 53.78125 63.8125 
Q 48.140625 66.109375 41.796875 66.109375 
Q 29.296875 66.109375 22.65625 58.46875 
Q 16.015625 50.828125 16.015625 36.375 
Q 16.015625 21.96875 22.65625 14.328125 
Q 29.296875 6.6875 41.796875 6.6875 
Q 48.140625 6.6875 53.78125 8.984375 
Q 59.421875 11.28125 64.40625 15.921875 
L 64.40625 5.609375 
Q 59.234375 2.09375 53.4375 0.328125 
Q 47.65625 -1.421875 41.21875 -1.421875 
Q 24.65625 -1.421875 15.125 8.703125 
Q 5.609375 18.84375 5.609375 36.375 
Q 5.609375 53.953125 15.125 64.078125 
Q 24.65625 74.21875 41.21875 74.21875 
Q 47.75 74.21875 53.53125 72.484375 
Q 59.328125 70.75 64.40625 67.28125 
" id="DejaVuSans-43"/>
     <path d="M 34.1875 63.1875 
L 20.796875 26.90625 
L 47.609375 26.90625 
z
M 28.609375 72.90625 
L 39.796875 72.90625 
L 67.578125 0 
L 57.328125 0 
L 50.6875 18.703125 
L 17.828125 18.703125 
L 11.1875 0 
L 0.78125 0 
z
" id="DejaVuSans-41"/>
     <path d="M 45.40625 46.390625 
L 45.40625 75.984375 
L 54.390625 75.984375 
L 54.390625 0 
L 45.40625 0 
L 45.40625 8.203125 
Q 42.578125 3.328125 38.25 0.953125 
Q 33.9375 -1.421875 27.875 -1.421875 
Q 17.96875 -1.421875 11.734375 6.484375 
Q 5.515625 14.40625 5.515625 27.296875 
Q 5.515625 40.1875 11.734375 48.09375 
Q 17.96875 56 27.875 56 
Q 33.9375 56 38.25 53.625 
Q 42.578125 51.265625 45.40625 46.390625 
M 14.796875 27.296875 
Q 14.796875 17.390625 18.875 11.75 
Q 22.953125 6.109375 30.078125 6.109375 
Q 37.203125 6.109375 41.296875 11.75 
Q 45.40625 17.390625 45.40625 27.296875 
Q 45.40625 37.203125 41.296875 42.84375 
Q 37.203125 48.484375 30.078125 48.484375 
Q 22.953125 48.484375 18.875 42.84375 
Q 14.796875 37.203125 14.796875 27.296875 
" id="DejaVuSans-64"/>
     <path d="M 19.671875 34.8125 
L 19.671875 8.109375 
L 35.5 8.109375 
Q 43.453125 8.109375 47.28125 11.40625 
Q 51.125 14.703125 51.125 21.484375 
Q 51.125 28.328125 47.28125 31.5625 
Q 43.453125 34.8125 35.5 34.8125 
z
M 19.671875 64.796875 
L 19.671875 42.828125 
L 34.28125 42.828125 
Q 41.5 42.828125 45.03125 45.53125 
Q 48.578125 48.25 48.578125 53.8125 
Q 48.578125 59.328125 45.03125 62.0625 
Q 41.5 64.796875 34.28125 64.796875 
z
M 9.8125 72.90625 
L 35.015625 72.90625 
Q 46.296875 72.90625 52.390625 68.21875 
Q 58.5 63.53125 58.5 54.890625 
Q 58.5 48.1875 55.375 44.234375 
Q 52.25 40.28125 46.1875 39.3125 
Q 53.46875 37.75 57.5 32.78125 
Q 61.53125 27.828125 61.53125 20.40625 
Q 61.53125 10.640625 54.890625 5.3125 
Q 48.25 0 35.984375 0 
L 9.8125 0 
z
" id="DejaVuSans-42"/>
     <path d="M 46 62.703125 
L 46 35.5 
L 73.1875 35.5 
L 73.1875 27.203125 
L 46 27.203125 
L 46 0 
L 37.796875 0 
L 37.796875 27.203125 
L 10.59375 27.203125 
L 10.59375 35.5 
L 37.796875 35.5 
L 37.796875 62.703125 
z
" id="DejaVuSans-2b"/>
     <path d="M 19.671875 64.796875 
L 19.671875 8.109375 
L 31.59375 8.109375 
Q 46.6875 8.109375 53.6875 14.9375 
Q 60.6875 21.78125 60.6875 36.53125 
Q 60.6875 51.171875 53.6875 57.984375 
Q 46.6875 64.796875 31.59375 64.796875 
z
M 9.8125 72.90625 
L 30.078125 72.90625 
Q 51.265625 72.90625 61.171875 64.09375 
Q 71.09375 55.28125 71.09375 36.53125 
Q 71.09375 17.671875 61.125 8.828125 
Q 51.171875 0 30.078125 0 
L 9.8125 0 
z
" id="DejaVuSans-44"/>
     <path d="M 52 44.1875 
Q 55.375 50.25 60.0625 53.125 
Q 64.75 56 71.09375 56 
Q 79.640625 56 84.28125 50.015625 
Q 88.921875 44.046875 88.921875 33.015625 
L 88.921875 0 
L 79.890625 0 
L 79.890625 32.71875 
Q 79.890625 40.578125 77.09375 44.375 
Q 74.3125 48.1875 68.609375 48.1875 
Q 61.625 48.1875 57.5625 43.546875 
Q 53.515625 38.921875 53.515625 30.90625 
L 53.515625 0 
L 44.484375 0 
L 44.484375 32.71875 
Q 44.484375 40.625 41.703125 44.40625 
Q 38.921875 48.1875 33.109375 48.1875 
Q 26.21875 48.1875 22.15625 43.53125 
Q 18.109375 38.875 18.109375 30.90625 
L 18.109375 0 
L 9.078125 0 
L 9.078125 54.6875 
L 18.109375 54.6875 
L 18.109375 46.1875 
Q 21.1875 51.21875 25.484375 53.609375 
Q 29.78125 56 35.6875 56 
Q 41.65625 56 45.828125 52.96875 
Q 50 49.953125 52 44.1875 
" id="DejaVuSans-6d"/>
     <path d="M 32.171875 -5.078125 
Q 28.375 -14.84375 24.75 -17.8125 
Q 21.140625 -20.796875 15.09375 -20.796875 
L 7.90625 -20.796875 
L 7.90625 -13.28125 
L 13.1875 -13.28125 
Q 16.890625 -13.28125 18.9375 -11.515625 
Q 21 -9.765625 23.484375 -3.21875 
L 25.09375 0.875 
L 2.984375 54.6875 
L 12.5 54.6875 
L 29.59375 11.921875 
L 46.6875 54.6875 
L 56.203125 54.6875 
z
" id="DejaVuSans-79"/>
     <path d="M 53.515625 70.515625 
L 53.515625 60.890625 
Q 47.90625 63.578125 42.921875 64.890625 
Q 37.9375 66.21875 33.296875 66.21875 
Q 25.25 66.21875 20.875 63.09375 
Q 16.5 59.96875 16.5 54.203125 
Q 16.5 49.359375 19.40625 46.890625 
Q 22.3125 44.4375 30.421875 42.921875 
L 36.375 41.703125 
Q 47.40625 39.59375 52.65625 34.296875 
Q 57.90625 29 57.90625 20.125 
Q 57.90625 9.515625 50.796875 4.046875 
Q 43.703125 -1.421875 29.984375 -1.421875 
Q 24.8125 -1.421875 18.96875 -0.25 
Q 13.140625 0.921875 6.890625 3.21875 
L 6.890625 13.375 
Q 12.890625 10.015625 18.65625 8.296875 
Q 24.421875 6.59375 29.984375 6.59375 
Q 38.421875 6.59375 43.015625 9.90625 
Q 47.609375 13.234375 47.609375 19.390625 
Q 47.609375 24.75 44.3125 27.78125 
Q 41.015625 30.8125 33.5 32.328125 
L 27.484375 33.5 
Q 16.453125 35.6875 11.515625 40.375 
Q 6.59375 45.0625 6.59375 53.421875 
Q 6.59375 63.09375 13.40625 68.65625 
Q 20.21875 74.21875 32.171875 74.21875 
Q 37.3125 74.21875 42.625 73.28125 
Q 47.953125 72.359375 53.515625 70.515625 
" id="DejaVuSans-53"/>
     <path d="M 18.109375 8.203125 
L 18.109375 -20.796875 
L 9.078125 -20.796875 
L 9.078125 54.6875 
L 18.109375 54.6875 
L 18.109375 46.390625 
Q 20.953125 51.265625 25.265625 53.625 
Q 29.59375 56 35.59375 56 
Q 45.5625 56 51.78125 48.09375 
Q 58.015625 40.1875 58.015625 27.296875 
Q 58.015625 14.40625 51.78125 6.484375 
Q 45.5625 -1.421875 35.59375 -1.421875 
Q 29.59375 -1.421875 25.265625 0.953125 
Q 20.953125 3.328125 18.109375 8.203125 
M 48.6875 27.296875 
Q 48.6875 37.203125 44.609375 42.84375 
Q 40.53125 48.484375 33.40625 48.484375 
Q 26.265625 48.484375 22.1875 42.84375 
Q 18.109375 37.203125 18.109375 27.296875 
Q 18.109375 17.390625 22.1875 11.75 
Q 26.265625 6.109375 33.40625 6.109375 
Q 40.53125 6.109375 44.609375 11.75 
Q 48.6875 17.390625 48.6875 27.296875 
" id="DejaVuSans-70"/>
    </defs>
    <g transform="translate(101.74875 16.318125)scale(0.12 -0.12)">
     <use xlink:href="#DejaVuSans-52"/>
     <use x="69.482422" xlink:href="#DejaVuSans-4f"/>
     <use x="148.193359" xlink:href="#DejaVuSans-43"/>
     <use x="218.017578" xlink:href="#DejaVuSans-20"/>
     <use x="249.804688" xlink:href="#DejaVuSans-43"/>
     <use x="319.628906" xlink:href="#DejaVuSans-75"/>
     <use x="383.007812" xlink:href="#DejaVuSans-72"/>
     <use x="424.121094" xlink:href="#DejaVuSans-76"/>
     <use x="483.300781" xlink:href="#DejaVuSans-65"/>
     <use x="544.824219" xlink:href="#DejaVuSans-20"/>
     <use x="576.611328" xlink:href="#DejaVuSans-41"/>
     <use x="645.003906" xlink:href="#DejaVuSans-64"/>
     <use x="708.480469" xlink:href="#DejaVuSans-61"/>
     <use x="769.759766" xlink:href="#DejaVuSans-42"/>
     <use x="838.363281" xlink:href="#DejaVuSans-6f"/>
     <use x="899.544922" xlink:href="#DejaVuSans-6f"/>
     <use x="960.726562" xlink:href="#DejaVuSans-73"/>
     <use x="1012.826172" xlink:href="#DejaVuSans-74"/>
     <use x="1052.035156" xlink:href="#DejaVuSans-20"/>
     <use x="1083.822266" xlink:href="#DejaVuSans-2b"/>
     <use x="1167.611328" xlink:href="#DejaVuSans-20"/>
     <use x="1199.398438" xlink:href="#DejaVuSans-44"/>
     <use x="1276.400391" xlink:href="#DejaVuSans-75"/>
     <use x="1339.779297" xlink:href="#DejaVuSans-6d"/>
     <use x="1437.191406" xlink:href="#DejaVuSans-6d"/>
     <use x="1534.603516" xlink:href="#DejaVuSans-79"/>
     <use x="1593.783203" xlink:href="#DejaVuSans-53"/>
     <use x="1657.259766" xlink:href="#DejaVuSans-61"/>
     <use x="1718.539062" xlink:href="#DejaVuSans-6d"/>
     <use x="1815.951172" xlink:href="#DejaVuSans-70"/>
     <use x="1879.427734" xlink:href="#DejaVuSans-6c"/>
     <use x="1907.210938" xlink:href="#DejaVuSans-65"/>
     <use x="1968.734375" xlink:href="#DejaVuSans-72"/>
    </g>
    <!-- Train: 12   Test: [1, 2, 4, 6, 8, 10, 12] -->
    <defs>
     <path d="M 54.890625 33.015625 
L 54.890625 0 
L 45.90625 0 
L 45.90625 32.71875 
Q 45.90625 40.484375 42.875 44.328125 
Q 39.84375 48.1875 33.796875 48.1875 
Q 26.515625 48.1875 22.3125 43.546875 
Q 18.109375 38.921875 18.109375 30.90625 
L 18.109375 0 
L 9.078125 0 
L 9.078125 54.6875 
L 18.109375 54.6875 
L 18.109375 46.1875 
Q 21.34375 51.125 25.703125 53.5625 
Q 30.078125 56 35.796875 56 
Q 45.21875 56 50.046875 50.171875 
Q 54.890625 44.34375 54.890625 33.015625 
" id="DejaVuSans-6e"/>
     <path d="M 11.71875 12.40625 
L 22.015625 12.40625 
L 22.015625 0 
L 11.71875 0 
z
M 11.71875 51.703125 
L 22.015625 51.703125 
L 22.015625 39.3125 
L 11.71875 39.3125 
z
" id="DejaVuSans-3a"/>
     <path d="M 8.59375 75.984375 
L 29.296875 75.984375 
L 29.296875 69 
L 17.578125 69 
L 17.578125 -6.203125 
L 29.296875 -6.203125 
L 29.296875 -13.1875 
L 8.59375 -13.1875 
z
" id="DejaVuSans-5b"/>
     <path d="M 11.71875 12.40625 
L 22.015625 12.40625 
L 22.015625 4 
L 14.015625 -11.625 
L 7.71875 -11.625 
L 11.71875 4 
z
" id="DejaVuSans-2c"/>
     <path d="M 30.421875 75.984375 
L 30.421875 -13.1875 
L 9.71875 -13.1875 
L 9.71875 -6.203125 
L 21.390625 -6.203125 
L 21.390625 69 
L 9.71875 69 
L 9.71875 75.984375 
z
" id="DejaVuSans-5d"/>
    </defs>
    <g transform="translate(111.124688 29.7555)scale(0.12 -0.12)">
     <use xlink:href="#DejaVuSans-54"/>
     <use x="60.865234" xlink:href="#DejaVuSans-72"/>
     <use x="101.978516" xlink:href="#DejaVuSans-61"/>
     <use x="163.257812" xlink:href="#DejaVuSans-69"/>
     <use x="191.041016" xlink:href="#DejaVuSans-6e"/>
     <use x="254.419922" xlink:href="#DejaVuSans-3a"/>
     <use x="288.111328" xlink:href="#DejaVuSans-20"/>
     <use x="319.898438" xlink:href="#DejaVuSans-31"/>
     <use x="383.521484" xlink:href="#DejaVuSans-32"/>
     <use x="447.144531" xlink:href="#DejaVuSans-20"/>
     <use x="478.931641" xlink:href="#DejaVuSans-20"/>
     <use x="510.71875" xlink:href="#DejaVuSans-20"/>
     <use x="542.505859" xlink:href="#DejaVuSans-54"/>
     <use x="603.324219" xlink:href="#DejaVuSans-65"/>
     <use x="664.847656" xlink:href="#DejaVuSans-73"/>
     <use x="716.947266" xlink:href="#DejaVuSans-74"/>
     <use x="756.15625" xlink:href="#DejaVuSans-3a"/>
     <use x="789.847656" xlink:href="#DejaVuSans-20"/>
     <use x="821.634766" xlink:href="#DejaVuSans-5b"/>
     <use x="860.648438" xlink:href="#DejaVuSans-31"/>
     <use x="924.271484" xlink:href="#DejaVuSans-2c"/>
     <use x="956.058594" xlink:href="#DejaVuSans-20"/>
     <use x="987.845703" xlink:href="#DejaVuSans-32"/>
     <use x="1051.46875" xlink:href="#DejaVuSans-2c"/>
     <use x="1083.255859" xlink:href="#DejaVuSans-20"/>
     <use x="1115.042969" xlink:href="#DejaVuSans-34"/>
     <use x="1178.666016" xlink:href="#DejaVuSans-2c"/>
     <use x="1210.453125" xlink:href="#DejaVuSans-20"/>
     <use x="1242.240234" xlink:href="#DejaVuSans-36"/>
     <use x="1305.863281" xlink:href="#DejaVuSans-2c"/>
     <use x="1337.650391" xlink:href="#DejaVuSans-20"/>
     <use x="1369.4375" xlink:href="#DejaVuSans-38"/>
     <use x="1433.060547" xlink:href="#DejaVuSans-2c"/>
     <use x="1464.847656" xlink:href="#DejaVuSans-20"/>
     <use x="1496.634766" xlink:href="#DejaVuSans-31"/>
     <use x="1560.257812" xlink:href="#DejaVuSans-30"/>
     <use x="1623.880859" xlink:href="#DejaVuSans-2c"/>
     <use x="1655.667969" xlink:href="#DejaVuSans-20"/>
     <use x="1687.455078" xlink:href="#DejaVuSans-31"/>
     <use x="1751.078125" xlink:href="#DejaVuSans-32"/>
     <use x="1814.701172" xlink:href="#DejaVuSans-5d"/>
    </g>
   </g>
   <g id="legend_1">
    <g id="patch_7">
     <path d="M 217.087188 296.8675 
L 393.90125 296.8675 
Q 395.90125 296.8675 395.90125 294.8675 
L 395.90125 251.833125 
Q 395.90125 249.833125 393.90125 249.833125 
L 217.087188 249.833125 
Q 215.087188 249.833125 215.087188 251.833125 
L 215.087188 294.8675 
Q 215.087188 296.8675 217.087188 296.8675 
z
" style="fill:#ffffff;opacity:0.8;stroke:#cccccc;stroke-linejoin:miter;"/>
    </g>
    <g id="line2d_17">
     <path d="M 219.087188 257.931562 
L 239.087188 257.931562 
" style="fill:none;stroke:#1f77b4;stroke-linecap:square;stroke-width:1.5;"/>
    </g>
    <g id="line2d_18"/>
    <g id="text_16">
     <!-- ROC curve - 0 (AUC = 0.827) -->
     <defs>
      <path d="M 48.78125 52.59375 
L 48.78125 44.1875 
Q 44.96875 46.296875 41.140625 47.34375 
Q 37.3125 48.390625 33.40625 48.390625 
Q 24.65625 48.390625 19.8125 42.84375 
Q 14.984375 37.3125 14.984375 27.296875 
Q 14.984375 17.28125 19.8125 11.734375 
Q 24.65625 6.203125 33.40625 6.203125 
Q 37.3125 6.203125 41.140625 7.25 
Q 44.96875 8.296875 48.78125 10.40625 
L 48.78125 2.09375 
Q 45.015625 0.34375 40.984375 -0.53125 
Q 36.96875 -1.421875 32.421875 -1.421875 
Q 20.0625 -1.421875 12.78125 6.34375 
Q 5.515625 14.109375 5.515625 27.296875 
Q 5.515625 40.671875 12.859375 48.328125 
Q 20.21875 56 33.015625 56 
Q 37.15625 56 41.109375 55.140625 
Q 45.0625 54.296875 48.78125 52.59375 
" id="DejaVuSans-63"/>
      <path d="M 4.890625 31.390625 
L 31.203125 31.390625 
L 31.203125 23.390625 
L 4.890625 23.390625 
z
" id="DejaVuSans-2d"/>
      <path d="M 31 75.875 
Q 24.46875 64.65625 21.28125 53.65625 
Q 18.109375 42.671875 18.109375 31.390625 
Q 18.109375 20.125 21.3125 9.0625 
Q 24.515625 -2 31 -13.1875 
L 23.1875 -13.1875 
Q 15.875 -1.703125 12.234375 9.375 
Q 8.59375 20.453125 8.59375 31.390625 
Q 8.59375 42.28125 12.203125 53.3125 
Q 15.828125 64.359375 23.1875 75.875 
z
" id="DejaVuSans-28"/>
      <path d="M 8.6875 72.90625 
L 18.609375 72.90625 
L 18.609375 28.609375 
Q 18.609375 16.890625 22.84375 11.734375 
Q 27.09375 6.59375 36.625 6.59375 
Q 46.09375 6.59375 50.34375 11.734375 
Q 54.59375 16.890625 54.59375 28.609375 
L 54.59375 72.90625 
L 64.5 72.90625 
L 64.5 27.390625 
Q 64.5 13.140625 57.4375 5.859375 
Q 50.390625 -1.421875 36.625 -1.421875 
Q 22.796875 -1.421875 15.734375 5.859375 
Q 8.6875 13.140625 8.6875 27.390625 
z
" id="DejaVuSans-55"/>
      <path d="M 10.59375 45.40625 
L 73.1875 45.40625 
L 73.1875 37.203125 
L 10.59375 37.203125 
z
M 10.59375 25.484375 
L 73.1875 25.484375 
L 73.1875 17.1875 
L 10.59375 17.1875 
z
" id="DejaVuSans-3d"/>
      <path d="M 8.203125 72.90625 
L 55.078125 72.90625 
L 55.078125 68.703125 
L 28.609375 0 
L 18.3125 0 
L 43.21875 64.59375 
L 8.203125 64.59375 
z
" id="DejaVuSans-37"/>
      <path d="M 8.015625 75.875 
L 15.828125 75.875 
Q 23.140625 64.359375 26.78125 53.3125 
Q 30.421875 42.28125 30.421875 31.390625 
Q 30.421875 20.453125 26.78125 9.375 
Q 23.140625 -1.703125 15.828125 -13.1875 
L 8.015625 -13.1875 
Q 14.5 -2 17.703125 9.0625 
Q 20.90625 20.125 20.90625 31.390625 
Q 20.90625 42.671875 17.703125 53.65625 
Q 14.5 64.65625 8.015625 75.875 
" id="DejaVuSans-29"/>
     </defs>
     <g transform="translate(247.087188 261.431562)scale(0.1 -0.1)">
      <use xlink:href="#DejaVuSans-52"/>
      <use x="69.482422" xlink:href="#DejaVuSans-4f"/>
      <use x="148.193359" xlink:href="#DejaVuSans-43"/>
      <use x="218.017578" xlink:href="#DejaVuSans-20"/>
      <use x="249.804688" xlink:href="#DejaVuSans-63"/>
      <use x="304.785156" xlink:href="#DejaVuSans-75"/>
      <use x="368.164062" xlink:href="#DejaVuSans-72"/>
      <use x="409.277344" xlink:href="#DejaVuSans-76"/>
      <use x="468.457031" xlink:href="#DejaVuSans-65"/>
      <use x="529.980469" xlink:href="#DejaVuSans-20"/>
      <use x="561.767578" xlink:href="#DejaVuSans-2d"/>
      <use x="597.851562" xlink:href="#DejaVuSans-20"/>
      <use x="629.638672" xlink:href="#DejaVuSans-30"/>
      <use x="693.261719" xlink:href="#DejaVuSans-20"/>
      <use x="725.048828" xlink:href="#DejaVuSans-28"/>
      <use x="764.0625" xlink:href="#DejaVuSans-41"/>
      <use x="832.470703" xlink:href="#DejaVuSans-55"/>
      <use x="905.664062" xlink:href="#DejaVuSans-43"/>
      <use x="975.488281" xlink:href="#DejaVuSans-20"/>
      <use x="1007.275391" xlink:href="#DejaVuSans-3d"/>
      <use x="1091.064453" xlink:href="#DejaVuSans-20"/>
      <use x="1122.851562" xlink:href="#DejaVuSans-30"/>
      <use x="1186.474609" xlink:href="#DejaVuSans-2e"/>
      <use x="1218.261719" xlink:href="#DejaVuSans-38"/>
      <use x="1281.884766" xlink:href="#DejaVuSans-32"/>
      <use x="1345.507812" xlink:href="#DejaVuSans-37"/>
      <use x="1409.130859" xlink:href="#DejaVuSans-29"/>
     </g>
    </g>
    <g id="line2d_19">
     <path d="M 219.087188 272.609687 
L 239.087188 272.609687 
" style="fill:none;stroke:#ff7f0e;stroke-linecap:square;stroke-width:1.5;"/>
    </g>
    <g id="line2d_20"/>
    <g id="text_17">
     <!-- ROC curve - 1 (AUC = 0.841) -->
     <g transform="translate(247.087188 276.109687)scale(0.1 -0.1)">
      <use xlink:href="#DejaVuSans-52"/>
      <use x="69.482422" xlink:href="#DejaVuSans-4f"/>
      <use x="148.193359" xlink:href="#DejaVuSans-43"/>
      <use x="218.017578" xlink:href="#DejaVuSans-20"/>
      <use x="249.804688" xlink:href="#DejaVuSans-63"/>
      <use x="304.785156" xlink:href="#DejaVuSans-75"/>
      <use x="368.164062" xlink:href="#DejaVuSans-72"/>
      <use x="409.277344" xlink:href="#DejaVuSans-76"/>
      <use x="468.457031" xlink:href="#DejaVuSans-65"/>
      <use x="529.980469" xlink:href="#DejaVuSans-20"/>
      <use x="561.767578" xlink:href="#DejaVuSans-2d"/>
      <use x="597.851562" xlink:href="#DejaVuSans-20"/>
      <use x="629.638672" xlink:href="#DejaVuSans-31"/>
      <use x="693.261719" xlink:href="#DejaVuSans-20"/>
      <use x="725.048828" xlink:href="#DejaVuSans-28"/>
      <use x="764.0625" xlink:href="#DejaVuSans-41"/>
      <use x="832.470703" xlink:href="#DejaVuSans-55"/>
      <use x="905.664062" xlink:href="#DejaVuSans-43"/>
      <use x="975.488281" xlink:href="#DejaVuSans-20"/>
      <use x="1007.275391" xlink:href="#DejaVuSans-3d"/>
      <use x="1091.064453" xlink:href="#DejaVuSans-20"/>
      <use x="1122.851562" xlink:href="#DejaVuSans-30"/>
      <use x="1186.474609" xlink:href="#DejaVuSans-2e"/>
      <use x="1218.261719" xlink:href="#DejaVuSans-38"/>
      <use x="1281.884766" xlink:href="#DejaVuSans-34"/>
      <use x="1345.507812" xlink:href="#DejaVuSans-31"/>
      <use x="1409.130859" xlink:href="#DejaVuSans-29"/>
     </g>
    </g>
    <g id="line2d_21">
     <path d="M 219.087188 287.287812 
L 239.087188 287.287812 
" style="fill:none;stroke:#2ca02c;stroke-linecap:square;stroke-width:1.5;"/>
    </g>
    <g id="line2d_22"/>
    <g id="text_18">
     <!-- ROC curve - 2 (AUC = 0.800) -->
     <g transform="translate(247.087188 290.787812)scale(0.1 -0.1)">
      <use xlink:href="#DejaVuSans-52"/>
      <use x="69.482422" xlink:href="#DejaVuSans-4f"/>
      <use x="148.193359" xlink:href="#DejaVuSans-43"/>
      <use x="218.017578" xlink:href="#DejaVuSans-20"/>
      <use x="249.804688" xlink:href="#DejaVuSans-63"/>
      <use x="304.785156" xlink:href="#DejaVuSans-75"/>
      <use x="368.164062" xlink:href="#DejaVuSans-72"/>
      <use x="409.277344" xlink:href="#DejaVuSans-76"/>
      <use x="468.457031" xlink:href="#DejaVuSans-65"/>
      <use x="529.980469" xlink:href="#DejaVuSans-20"/>
      <use x="561.767578" xlink:href="#DejaVuSans-2d"/>
      <use x="597.851562" xlink:href="#DejaVuSans-20"/>
      <use x="629.638672" xlink:href="#DejaVuSans-32"/>
      <use x="693.261719" xlink:href="#DejaVuSans-20"/>
      <use x="725.048828" xlink:href="#DejaVuSans-28"/>
      <use x="764.0625" xlink:href="#DejaVuSans-41"/>
      <use x="832.470703" xlink:href="#DejaVuSans-55"/>
      <use x="905.664062" xlink:href="#DejaVuSans-43"/>
      <use x="975.488281" xlink:href="#DejaVuSans-20"/>
      <use x="1007.275391" xlink:href="#DejaVuSans-3d"/>
      <use x="1091.064453" xlink:href="#DejaVuSans-20"/>
      <use x="1122.851562" xlink:href="#DejaVuSans-30"/>
      <use x="1186.474609" xlink:href="#DejaVuSans-2e"/>
      <use x="1218.261719" xlink:href="#DejaVuSans-38"/>
      <use x="1281.884766" xlink:href="#DejaVuSans-30"/>
      <use x="1345.507812" xlink:href="#DejaVuSans-30"/>
      <use x="1409.130859" xlink:href="#DejaVuSans-29"/>
     </g>
    </g>
   </g>
  </g>
 </g>
 <defs>
  <clipPath id="paf3d0b3302">
   <rect height="266.112" width="357.12" x="43.78125" y="35.7555"/>
  </clipPath>
 </defs>
</svg>
