<?xml version="1.0" encoding="utf-8" standalone="no"?>
<!DOCTYPE svg PUBLIC "-//W3C//DTD SVG 1.1//EN"
  "http://www.w3.org/Graphics/SVG/1.1/DTD/svg11.dtd">
<!-- Created with matplotlib (http://matplotlib.org/) -->
<svg height="339pt" version="1.1" viewBox="0 0 416 339" width="416pt" xmlns="http://www.w3.org/2000/svg" xmlns:xlink="http://www.w3.org/1999/xlink">
 <defs>
  <style type="text/css">
*{stroke-linecap:butt;stroke-linejoin:round;}
  </style>
 </defs>
 <g id="figure_1">
  <g id="patch_1">
   <path d="M 0 339.42375 
L 416.052813 339.42375 
L 416.052813 0 
L 0 0 
z
" style="fill:#ffffff;"/>
  </g>
  <g id="axes_1">
   <g id="patch_2">
    <path d="M 43.78125 301.8675 
L 400.90125 301.8675 
L 400.90125 35.7555 
L 43.78125 35.7555 
z
" style="fill:#ffffff;"/>
   </g>
   <g id="matplotlib.axis_1">
    <g id="xtick_1">
     <g id="line2d_1">
      <defs>
       <path d="M 0 0 
L 0 3.5 
" id="mff4fdbb12c" style="stroke:#000000;stroke-width:0.8;"/>
      </defs>
      <g>
       <use style="stroke:#000000;stroke-width:0.8;" x="43.78125" xlink:href="#mff4fdbb12c" y="301.8675"/>
      </g>
     </g>
     <g id="text_1">
      <!-- 0.0 -->
      <defs>
       <path d="M 31.78125 66.40625 
Q 24.171875 66.40625 20.328125 58.90625 
Q 16.5 51.421875 16.5 36.375 
Q 16.5 21.390625 20.328125 13.890625 
Q 24.171875 6.390625 31.78125 6.390625 
Q 39.453125 6.390625 43.28125 13.890625 
Q 47.125 21.390625 47.125 36.375 
Q 47.125 51.421875 43.28125 58.90625 
Q 39.453125 66.40625 31.78125 66.40625 
M 31.78125 74.21875 
Q 44.046875 74.21875 50.515625 64.515625 
Q 56.984375 54.828125 56.984375 36.375 
Q 56.984375 17.96875 50.515625 8.265625 
Q 44.046875 -1.421875 31.78125 -1.421875 
Q 19.53125 -1.421875 13.0625 8.265625 
Q 6.59375 17.96875 6.59375 36.375 
Q 6.59375 54.828125 13.0625 64.515625 
Q 19.53125 74.21875 31.78125 74.21875 
" id="DejaVuSans-30"/>
       <path d="M 10.6875 12.40625 
L 21 12.40625 
L 21 0 
L 10.6875 0 
z
" id="DejaVuSans-2e"/>
      </defs>
      <g transform="translate(35.829688 316.465937)scale(0.1 -0.1)">
       <use xlink:href="#DejaVuSans-30"/>
       <use x="63.623047" xlink:href="#DejaVuSans-2e"/>
       <use x="95.410156" xlink:href="#DejaVuSans-30"/>
      </g>
     </g>
    </g>
    <g id="xtick_2">
     <g id="line2d_2">
      <g>
       <use style="stroke:#000000;stroke-width:0.8;" x="115.20525" xlink:href="#mff4fdbb12c" y="301.8675"/>
      </g>
     </g>
     <g id="text_2">
      <!-- 0.2 -->
      <defs>
       <path d="M 19.1875 8.296875 
L 53.609375 8.296875 
L 53.609375 0 
L 7.328125 0 
L 7.328125 8.296875 
Q 12.9375 14.109375 22.625 23.890625 
Q 32.328125 33.6875 34.8125 36.53125 
Q 39.546875 41.84375 41.421875 45.53125 
Q 43.3125 49.21875 43.3125 52.78125 
Q 43.3125 58.59375 39.234375 62.25 
Q 35.15625 65.921875 28.609375 65.921875 
Q 23.96875 65.921875 18.8125 64.3125 
Q 13.671875 62.703125 7.8125 59.421875 
L 7.8125 69.390625 
Q 13.765625 71.78125 18.9375 73 
Q 24.125 74.21875 28.421875 74.21875 
Q 39.75 74.21875 46.484375 68.546875 
Q 53.21875 62.890625 53.21875 53.421875 
Q 53.21875 48.921875 51.53125 44.890625 
Q 49.859375 40.875 45.40625 35.40625 
Q 44.1875 33.984375 37.640625 27.21875 
Q 31.109375 20.453125 19.1875 8.296875 
" id="DejaVuSans-32"/>
      </defs>
      <g transform="translate(107.253688 316.465937)scale(0.1 -0.1)">
       <use xlink:href="#DejaVuSans-30"/>
       <use x="63.623047" xlink:href="#DejaVuSans-2e"/>
       <use x="95.410156" xlink:href="#DejaVuSans-32"/>
      </g>
     </g>
    </g>
    <g id="xtick_3">
     <g id="line2d_3">
      <g>
       <use style="stroke:#000000;stroke-width:0.8;" x="186.62925" xlink:href="#mff4fdbb12c" y="301.8675"/>
      </g>
     </g>
     <g id="text_3">
      <!-- 0.4 -->
      <defs>
       <path d="M 37.796875 64.3125 
L 12.890625 25.390625 
L 37.796875 25.390625 
z
M 35.203125 72.90625 
L 47.609375 72.90625 
L 47.609375 25.390625 
L 58.015625 25.390625 
L 58.015625 17.1875 
L 47.609375 17.1875 
L 47.609375 0 
L 37.796875 0 
L 37.796875 17.1875 
L 4.890625 17.1875 
L 4.890625 26.703125 
z
" id="DejaVuSans-34"/>
      </defs>
      <g transform="translate(178.677688 316.465937)scale(0.1 -0.1)">
       <use xlink:href="#DejaVuSans-30"/>
       <use x="63.623047" xlink:href="#DejaVuSans-2e"/>
       <use x="95.410156" xlink:href="#DejaVuSans-34"/>
      </g>
     </g>
    </g>
    <g id="xtick_4">
     <g id="line2d_4">
      <g>
       <use style="stroke:#000000;stroke-width:0.8;" x="258.05325" xlink:href="#mff4fdbb12c" y="301.8675"/>
      </g>
     </g>
     <g id="text_4">
      <!-- 0.6 -->
      <defs>
       <path d="M 33.015625 40.375 
Q 26.375 40.375 22.484375 35.828125 
Q 18.609375 31.296875 18.609375 23.390625 
Q 18.609375 15.53125 22.484375 10.953125 
Q 26.375 6.390625 33.015625 6.390625 
Q 39.65625 6.390625 43.53125 10.953125 
Q 47.40625 15.53125 47.40625 23.390625 
Q 47.40625 31.296875 43.53125 35.828125 
Q 39.65625 40.375 33.015625 40.375 
M 52.59375 71.296875 
L 52.59375 62.3125 
Q 48.875 64.0625 45.09375 64.984375 
Q 41.3125 65.921875 37.59375 65.921875 
Q 27.828125 65.921875 22.671875 59.328125 
Q 17.53125 52.734375 16.796875 39.40625 
Q 19.671875 43.65625 24.015625 45.921875 
Q 28.375 48.1875 33.59375 48.1875 
Q 44.578125 48.1875 50.953125 41.515625 
Q 57.328125 34.859375 57.328125 23.390625 
Q 57.328125 12.15625 50.6875 5.359375 
Q 44.046875 -1.421875 33.015625 -1.421875 
Q 20.359375 -1.421875 13.671875 8.265625 
Q 6.984375 17.96875 6.984375 36.375 
Q 6.984375 53.65625 15.1875 63.9375 
Q 23.390625 74.21875 37.203125 74.21875 
Q 40.921875 74.21875 44.703125 73.484375 
Q 48.484375 72.75 52.59375 71.296875 
" id="DejaVuSans-36"/>
      </defs>
      <g transform="translate(250.101688 316.465937)scale(0.1 -0.1)">
       <use xlink:href="#DejaVuSans-30"/>
       <use x="63.623047" xlink:href="#DejaVuSans-2e"/>
       <use x="95.410156" xlink:href="#DejaVuSans-36"/>
      </g>
     </g>
    </g>
    <g id="xtick_5">
     <g id="line2d_5">
      <g>
       <use style="stroke:#000000;stroke-width:0.8;" x="329.47725" xlink:href="#mff4fdbb12c" y="301.8675"/>
      </g>
     </g>
     <g id="text_5">
      <!-- 0.8 -->
      <defs>
       <path d="M 31.78125 34.625 
Q 24.75 34.625 20.71875 30.859375 
Q 16.703125 27.09375 16.703125 20.515625 
Q 16.703125 13.921875 20.71875 10.15625 
Q 24.75 6.390625 31.78125 6.390625 
Q 38.8125 6.390625 42.859375 10.171875 
Q 46.921875 13.96875 46.921875 20.515625 
Q 46.921875 27.09375 42.890625 30.859375 
Q 38.875 34.625 31.78125 34.625 
M 21.921875 38.8125 
Q 15.578125 40.375 12.03125 44.71875 
Q 8.5 49.078125 8.5 55.328125 
Q 8.5 64.0625 14.71875 69.140625 
Q 20.953125 74.21875 31.78125 74.21875 
Q 42.671875 74.21875 48.875 69.140625 
Q 55.078125 64.0625 55.078125 55.328125 
Q 55.078125 49.078125 51.53125 44.71875 
Q 48 40.375 41.703125 38.8125 
Q 48.828125 37.15625 52.796875 32.3125 
Q 56.78125 27.484375 56.78125 20.515625 
Q 56.78125 9.90625 50.3125 4.234375 
Q 43.84375 -1.421875 31.78125 -1.421875 
Q 19.734375 -1.421875 13.25 4.234375 
Q 6.78125 9.90625 6.78125 20.515625 
Q 6.78125 27.484375 10.78125 32.3125 
Q 14.796875 37.15625 21.921875 38.8125 
M 18.3125 54.390625 
Q 18.3125 48.734375 21.84375 45.5625 
Q 25.390625 42.390625 31.78125 42.390625 
Q 38.140625 42.390625 41.71875 45.5625 
Q 45.3125 48.734375 45.3125 54.390625 
Q 45.3125 60.0625 41.71875 63.234375 
Q 38.140625 66.40625 31.78125 66.40625 
Q 25.390625 66.40625 21.84375 63.234375 
Q 18.3125 60.0625 18.3125 54.390625 
" id="DejaVuSans-38"/>
      </defs>
      <g transform="translate(321.525688 316.465937)scale(0.1 -0.1)">
       <use xlink:href="#DejaVuSans-30"/>
       <use x="63.623047" xlink:href="#DejaVuSans-2e"/>
       <use x="95.410156" xlink:href="#DejaVuSans-38"/>
      </g>
     </g>
    </g>
    <g id="xtick_6">
     <g id="line2d_6">
      <g>
       <use style="stroke:#000000;stroke-width:0.8;" x="400.90125" xlink:href="#mff4fdbb12c" y="301.8675"/>
      </g>
     </g>
     <g id="text_6">
      <!-- 1.0 -->
      <defs>
       <path d="M 12.40625 8.296875 
L 28.515625 8.296875 
L 28.515625 63.921875 
L 10.984375 60.40625 
L 10.984375 69.390625 
L 28.421875 72.90625 
L 38.28125 72.90625 
L 38.28125 8.296875 
L 54.390625 8.296875 
L 54.390625 0 
L 12.40625 0 
z
" id="DejaVuSans-31"/>
      </defs>
      <g transform="translate(392.949688 316.465937)scale(0.1 -0.1)">
       <use xlink:href="#DejaVuSans-31"/>
       <use x="63.623047" xlink:href="#DejaVuSans-2e"/>
       <use x="95.410156" xlink:href="#DejaVuSans-30"/>
      </g>
     </g>
    </g>
    <g id="text_7">
     <!-- False Positive Rate -->
     <defs>
      <path d="M 9.8125 72.90625 
L 51.703125 72.90625 
L 51.703125 64.59375 
L 19.671875 64.59375 
L 19.671875 43.109375 
L 48.578125 43.109375 
L 48.578125 34.8125 
L 19.671875 34.8125 
L 19.671875 0 
L 9.8125 0 
z
" id="DejaVuSans-46"/>
      <path d="M 34.28125 27.484375 
Q 23.390625 27.484375 19.1875 25 
Q 14.984375 22.515625 14.984375 16.5 
Q 14.984375 11.71875 18.140625 8.90625 
Q 21.296875 6.109375 26.703125 6.109375 
Q 34.1875 6.109375 38.703125 11.40625 
Q 43.21875 16.703125 43.21875 25.484375 
L 43.21875 27.484375 
z
M 52.203125 31.203125 
L 52.203125 0 
L 43.21875 0 
L 43.21875 8.296875 
Q 40.140625 3.328125 35.546875 0.953125 
Q 30.953125 -1.421875 24.3125 -1.421875 
Q 15.921875 -1.421875 10.953125 3.296875 
Q 6 8.015625 6 15.921875 
Q 6 25.140625 12.171875 29.828125 
Q 18.359375 34.515625 30.609375 34.515625 
L 43.21875 34.515625 
L 43.21875 35.40625 
Q 43.21875 41.609375 39.140625 45 
Q 35.0625 48.390625 27.6875 48.390625 
Q 23 48.390625 18.546875 47.265625 
Q 14.109375 46.140625 10.015625 43.890625 
L 10.015625 52.203125 
Q 14.9375 54.109375 19.578125 55.046875 
Q 24.21875 56 28.609375 56 
Q 40.484375 56 46.34375 49.84375 
Q 52.203125 43.703125 52.203125 31.203125 
" id="DejaVuSans-61"/>
      <path d="M 9.421875 75.984375 
L 18.40625 75.984375 
L 18.40625 0 
L 9.421875 0 
z
" id="DejaVuSans-6c"/>
      <path d="M 44.28125 53.078125 
L 44.28125 44.578125 
Q 40.484375 46.53125 36.375 47.5 
Q 32.28125 48.484375 27.875 48.484375 
Q 21.1875 48.484375 17.84375 46.4375 
Q 14.5 44.390625 14.5 40.28125 
Q 14.5 37.15625 16.890625 35.375 
Q 19.28125 33.59375 26.515625 31.984375 
L 29.59375 31.296875 
Q 39.15625 29.25 43.1875 25.515625 
Q 47.21875 21.78125 47.21875 15.09375 
Q 47.21875 7.46875 41.1875 3.015625 
Q 35.15625 -1.421875 24.609375 -1.421875 
Q 20.21875 -1.421875 15.453125 -0.5625 
Q 10.6875 0.296875 5.421875 2 
L 5.421875 11.28125 
Q 10.40625 8.6875 15.234375 7.390625 
Q 20.0625 6.109375 24.8125 6.109375 
Q 31.15625 6.109375 34.5625 8.28125 
Q 37.984375 10.453125 37.984375 14.40625 
Q 37.984375 18.0625 35.515625 20.015625 
Q 33.0625 21.96875 24.703125 23.78125 
L 21.578125 24.515625 
Q 13.234375 26.265625 9.515625 29.90625 
Q 5.8125 33.546875 5.8125 39.890625 
Q 5.8125 47.609375 11.28125 51.796875 
Q 16.75 56 26.8125 56 
Q 31.78125 56 36.171875 55.265625 
Q 40.578125 54.546875 44.28125 53.078125 
" id="DejaVuSans-73"/>
      <path d="M 56.203125 29.59375 
L 56.203125 25.203125 
L 14.890625 25.203125 
Q 15.484375 15.921875 20.484375 11.0625 
Q 25.484375 6.203125 34.421875 6.203125 
Q 39.59375 6.203125 44.453125 7.46875 
Q 49.3125 8.734375 54.109375 11.28125 
L 54.109375 2.78125 
Q 49.265625 0.734375 44.1875 -0.34375 
Q 39.109375 -1.421875 33.890625 -1.421875 
Q 20.796875 -1.421875 13.15625 6.1875 
Q 5.515625 13.8125 5.515625 26.8125 
Q 5.515625 40.234375 12.765625 48.109375 
Q 20.015625 56 32.328125 56 
Q 43.359375 56 49.78125 48.890625 
Q 56.203125 41.796875 56.203125 29.59375 
M 47.21875 32.234375 
Q 47.125 39.59375 43.09375 43.984375 
Q 39.0625 48.390625 32.421875 48.390625 
Q 24.90625 48.390625 20.390625 44.140625 
Q 15.875 39.890625 15.1875 32.171875 
z
" id="DejaVuSans-65"/>
      <path id="DejaVuSans-20"/>
      <path d="M 19.671875 64.796875 
L 19.671875 37.40625 
L 32.078125 37.40625 
Q 38.96875 37.40625 42.71875 40.96875 
Q 46.484375 44.53125 46.484375 51.125 
Q 46.484375 57.671875 42.71875 61.234375 
Q 38.96875 64.796875 32.078125 64.796875 
z
M 9.8125 72.90625 
L 32.078125 72.90625 
Q 44.34375 72.90625 50.609375 67.359375 
Q 56.890625 61.8125 56.890625 51.125 
Q 56.890625 40.328125 50.609375 34.8125 
Q 44.34375 29.296875 32.078125 29.296875 
L 19.671875 29.296875 
L 19.671875 0 
L 9.8125 0 
z
" id="DejaVuSans-50"/>
      <path d="M 30.609375 48.390625 
Q 23.390625 48.390625 19.1875 42.75 
Q 14.984375 37.109375 14.984375 27.296875 
Q 14.984375 17.484375 19.15625 11.84375 
Q 23.34375 6.203125 30.609375 6.203125 
Q 37.796875 6.203125 41.984375 11.859375 
Q 46.1875 17.53125 46.1875 27.296875 
Q 46.1875 37.015625 41.984375 42.703125 
Q 37.796875 48.390625 30.609375 48.390625 
M 30.609375 56 
Q 42.328125 56 49.015625 48.375 
Q 55.71875 40.765625 55.71875 27.296875 
Q 55.71875 13.875 49.015625 6.21875 
Q 42.328125 -1.421875 30.609375 -1.421875 
Q 18.84375 -1.421875 12.171875 6.21875 
Q 5.515625 13.875 5.515625 27.296875 
Q 5.515625 40.765625 12.171875 48.375 
Q 18.84375 56 30.609375 56 
" id="DejaVuSans-6f"/>
      <path d="M 9.421875 54.6875 
L 18.40625 54.6875 
L 18.40625 0 
L 9.421875 0 
z
M 9.421875 75.984375 
L 18.40625 75.984375 
L 18.40625 64.59375 
L 9.421875 64.59375 
z
" id="DejaVuSans-69"/>
      <path d="M 18.3125 70.21875 
L 18.3125 54.6875 
L 36.8125 54.6875 
L 36.8125 47.703125 
L 18.3125 47.703125 
L 18.3125 18.015625 
Q 18.3125 11.328125 20.140625 9.421875 
Q 21.96875 7.515625 27.59375 7.515625 
L 36.8125 7.515625 
L 36.8125 0 
L 27.59375 0 
Q 17.1875 0 13.234375 3.875 
Q 9.28125 7.765625 9.28125 18.015625 
L 9.28125 47.703125 
L 2.6875 47.703125 
L 2.6875 54.6875 
L 9.28125 54.6875 
L 9.28125 70.21875 
z
" id="DejaVuSans-74"/>
      <path d="M 2.984375 54.6875 
L 12.5 54.6875 
L 29.59375 8.796875 
L 46.6875 54.6875 
L 56.203125 54.6875 
L 35.6875 0 
L 23.484375 0 
z
" id="DejaVuSans-76"/>
      <path d="M 44.390625 34.1875 
Q 47.5625 33.109375 50.5625 29.59375 
Q 53.5625 26.078125 56.59375 19.921875 
L 66.609375 0 
L 56 0 
L 46.6875 18.703125 
Q 43.0625 26.03125 39.671875 28.421875 
Q 36.28125 30.8125 30.421875 30.8125 
L 19.671875 30.8125 
L 19.671875 0 
L 9.8125 0 
L 9.8125 72.90625 
L 32.078125 72.90625 
Q 44.578125 72.90625 50.734375 67.671875 
Q 56.890625 62.453125 56.890625 51.90625 
Q 56.890625 45.015625 53.6875 40.46875 
Q 50.484375 35.9375 44.390625 34.1875 
M 19.671875 64.796875 
L 19.671875 38.921875 
L 32.078125 38.921875 
Q 39.203125 38.921875 42.84375 42.21875 
Q 46.484375 45.515625 46.484375 51.90625 
Q 46.484375 58.296875 42.84375 61.546875 
Q 39.203125 64.796875 32.078125 64.796875 
z
" id="DejaVuSans-52"/>
     </defs>
     <g transform="translate(175.135781 330.144062)scale(0.1 -0.1)">
      <use xlink:href="#DejaVuSans-46"/>
      <use x="57.378906" xlink:href="#DejaVuSans-61"/>
      <use x="118.658203" xlink:href="#DejaVuSans-6c"/>
      <use x="146.441406" xlink:href="#DejaVuSans-73"/>
      <use x="198.541016" xlink:href="#DejaVuSans-65"/>
      <use x="260.064453" xlink:href="#DejaVuSans-20"/>
      <use x="291.851562" xlink:href="#DejaVuSans-50"/>
      <use x="352.107422" xlink:href="#DejaVuSans-6f"/>
      <use x="413.289062" xlink:href="#DejaVuSans-73"/>
      <use x="465.388672" xlink:href="#DejaVuSans-69"/>
      <use x="493.171875" xlink:href="#DejaVuSans-74"/>
      <use x="532.380859" xlink:href="#DejaVuSans-69"/>
      <use x="560.164062" xlink:href="#DejaVuSans-76"/>
      <use x="619.34375" xlink:href="#DejaVuSans-65"/>
      <use x="680.867188" xlink:href="#DejaVuSans-20"/>
      <use x="712.654297" xlink:href="#DejaVuSans-52"/>
      <use x="782.105469" xlink:href="#DejaVuSans-61"/>
      <use x="843.384766" xlink:href="#DejaVuSans-74"/>
      <use x="882.59375" xlink:href="#DejaVuSans-65"/>
     </g>
    </g>
   </g>
   <g id="matplotlib.axis_2">
    <g id="ytick_1">
     <g id="line2d_7">
      <defs>
       <path d="M 0 0 
L -3.5 0 
" id="m9f3136d03b" style="stroke:#000000;stroke-width:0.8;"/>
      </defs>
      <g>
       <use style="stroke:#000000;stroke-width:0.8;" x="43.78125" xlink:href="#m9f3136d03b" y="301.8675"/>
      </g>
     </g>
     <g id="text_8">
      <!-- 0.0 -->
      <g transform="translate(20.878125 305.666719)scale(0.1 -0.1)">
       <use xlink:href="#DejaVuSans-30"/>
       <use x="63.623047" xlink:href="#DejaVuSans-2e"/>
       <use x="95.410156" xlink:href="#DejaVuSans-30"/>
      </g>
     </g>
    </g>
    <g id="ytick_2">
     <g id="line2d_8">
      <g>
       <use style="stroke:#000000;stroke-width:0.8;" x="43.78125" xlink:href="#m9f3136d03b" y="251.1795"/>
      </g>
     </g>
     <g id="text_9">
      <!-- 0.2 -->
      <g transform="translate(20.878125 254.978719)scale(0.1 -0.1)">
       <use xlink:href="#DejaVuSans-30"/>
       <use x="63.623047" xlink:href="#DejaVuSans-2e"/>
       <use x="95.410156" xlink:href="#DejaVuSans-32"/>
      </g>
     </g>
    </g>
    <g id="ytick_3">
     <g id="line2d_9">
      <g>
       <use style="stroke:#000000;stroke-width:0.8;" x="43.78125" xlink:href="#m9f3136d03b" y="200.4915"/>
      </g>
     </g>
     <g id="text_10">
      <!-- 0.4 -->
      <g transform="translate(20.878125 204.290719)scale(0.1 -0.1)">
       <use xlink:href="#DejaVuSans-30"/>
       <use x="63.623047" xlink:href="#DejaVuSans-2e"/>
       <use x="95.410156" xlink:href="#DejaVuSans-34"/>
      </g>
     </g>
    </g>
    <g id="ytick_4">
     <g id="line2d_10">
      <g>
       <use style="stroke:#000000;stroke-width:0.8;" x="43.78125" xlink:href="#m9f3136d03b" y="149.8035"/>
      </g>
     </g>
     <g id="text_11">
      <!-- 0.6 -->
      <g transform="translate(20.878125 153.602719)scale(0.1 -0.1)">
       <use xlink:href="#DejaVuSans-30"/>
       <use x="63.623047" xlink:href="#DejaVuSans-2e"/>
       <use x="95.410156" xlink:href="#DejaVuSans-36"/>
      </g>
     </g>
    </g>
    <g id="ytick_5">
     <g id="line2d_11">
      <g>
       <use style="stroke:#000000;stroke-width:0.8;" x="43.78125" xlink:href="#m9f3136d03b" y="99.1155"/>
      </g>
     </g>
     <g id="text_12">
      <!-- 0.8 -->
      <g transform="translate(20.878125 102.914719)scale(0.1 -0.1)">
       <use xlink:href="#DejaVuSans-30"/>
       <use x="63.623047" xlink:href="#DejaVuSans-2e"/>
       <use x="95.410156" xlink:href="#DejaVuSans-38"/>
      </g>
     </g>
    </g>
    <g id="ytick_6">
     <g id="line2d_12">
      <g>
       <use style="stroke:#000000;stroke-width:0.8;" x="43.78125" xlink:href="#m9f3136d03b" y="48.4275"/>
      </g>
     </g>
     <g id="text_13">
      <!-- 1.0 -->
      <g transform="translate(20.878125 52.226719)scale(0.1 -0.1)">
       <use xlink:href="#DejaVuSans-31"/>
       <use x="63.623047" xlink:href="#DejaVuSans-2e"/>
       <use x="95.410156" xlink:href="#DejaVuSans-30"/>
      </g>
     </g>
    </g>
    <g id="text_14">
     <!-- True Positive Rate -->
     <defs>
      <path d="M -0.296875 72.90625 
L 61.375 72.90625 
L 61.375 64.59375 
L 35.5 64.59375 
L 35.5 0 
L 25.59375 0 
L 25.59375 64.59375 
L -0.296875 64.59375 
z
" id="DejaVuSans-54"/>
      <path d="M 41.109375 46.296875 
Q 39.59375 47.171875 37.8125 47.578125 
Q 36.03125 48 33.890625 48 
Q 26.265625 48 22.1875 43.046875 
Q 18.109375 38.09375 18.109375 28.8125 
L 18.109375 0 
L 9.078125 0 
L 9.078125 54.6875 
L 18.109375 54.6875 
L 18.109375 46.1875 
Q 20.953125 51.171875 25.484375 53.578125 
Q 30.03125 56 36.53125 56 
Q 37.453125 56 38.578125 55.875 
Q 39.703125 55.765625 41.0625 55.515625 
z
" id="DejaVuSans-72"/>
      <path d="M 8.5 21.578125 
L 8.5 54.6875 
L 17.484375 54.6875 
L 17.484375 21.921875 
Q 17.484375 14.15625 20.5 10.265625 
Q 23.53125 6.390625 29.59375 6.390625 
Q 36.859375 6.390625 41.078125 11.03125 
Q 45.3125 15.671875 45.3125 23.6875 
L 45.3125 54.6875 
L 54.296875 54.6875 
L 54.296875 0 
L 45.3125 0 
L 45.3125 8.40625 
Q 42.046875 3.421875 37.71875 1 
Q 33.40625 -1.421875 27.6875 -1.421875 
Q 18.265625 -1.421875 13.375 4.4375 
Q 8.5 10.296875 8.5 21.578125 
M 31.109375 56 
z
" id="DejaVuSans-75"/>
     </defs>
     <g transform="translate(14.798438 214.357594)rotate(-90)scale(0.1 -0.1)">
      <use xlink:href="#DejaVuSans-54"/>
      <use x="60.865234" xlink:href="#DejaVuSans-72"/>
      <use x="101.978516" xlink:href="#DejaVuSans-75"/>
      <use x="165.357422" xlink:href="#DejaVuSans-65"/>
      <use x="226.880859" xlink:href="#DejaVuSans-20"/>
      <use x="258.667969" xlink:href="#DejaVuSans-50"/>
      <use x="318.923828" xlink:href="#DejaVuSans-6f"/>
      <use x="380.105469" xlink:href="#DejaVuSans-73"/>
      <use x="432.205078" xlink:href="#DejaVuSans-69"/>
      <use x="459.988281" xlink:href="#DejaVuSans-74"/>
      <use x="499.197266" xlink:href="#DejaVuSans-69"/>
      <use x="526.980469" xlink:href="#DejaVuSans-76"/>
      <use x="586.160156" xlink:href="#DejaVuSans-65"/>
      <use x="647.683594" xlink:href="#DejaVuSans-20"/>
      <use x="679.470703" xlink:href="#DejaVuSans-52"/>
      <use x="748.921875" xlink:href="#DejaVuSans-61"/>
      <use x="810.201172" xlink:href="#DejaVuSans-74"/>
      <use x="849.410156" xlink:href="#DejaVuSans-65"/>
     </g>
    </g>
   </g>
   <g id="line2d_13">
    <path clip-path="url(#pce4d6f63e4)" d="M 43.78125 301.8675 
L 44.036087 300.423397 
L 45.310275 300.423397 
L 45.364331 300.182714 
L 45.406804 299.219979 
L 45.657781 299.219979 
L 45.781338 297.294509 
L 46.128844 297.294509 
L 46.808411 295.369038 
L 46.947413 292.480833 
L 47.047803 291.036731 
L 47.155916 290.555363 
L 47.23314 290.555363 
L 47.403031 289.111261 
L 47.904984 289.111261 
L 47.997652 288.870577 
L 48.179127 284.056902 
L 48.44941 284.056902 
L 48.599995 282.612799 
L 48.754442 282.612799 
L 49.542122 278.761859 
L 49.908933 278.761859 
L 49.951406 277.799124 
L 50.144465 277.799124 
L 50.360691 276.836389 
L 50.418608 276.836389 
L 50.712058 274.670235 
L 50.808587 274.670235 
L 50.95145 273.948184 
L 51.125203 273.948184 
L 51.206288 272.985449 
L 51.766158 272.985449 
L 51.966939 270.578611 
L 52.082774 270.578611 
L 52.32989 267.93109 
L 52.387807 267.93109 
L 52.522948 266.727671 
L 52.658089 266.727671 
L 52.847287 264.802201 
L 53.34924 264.802201 
L 53.569327 262.876731 
L 54.090585 262.876731 
L 54.144642 262.636047 
L 54.376312 262.636047 
L 54.484425 262.154679 
L 54.735401 262.154679 
L 55.129241 261.432628 
L 55.237354 259.747842 
L 55.561692 258.303739 
L 55.716139 258.303739 
L 55.797224 257.341004 
L 55.874448 257.341004 
L 61.948075 203.668526 
L 62.025298 203.668526 
L 62.179745 201.261688 
L 62.720309 201.261688 
L 62.782088 200.298953 
L 63.477099 200.298953 
L 63.596796 199.336218 
L 63.720353 198.614167 
L 64.260918 198.614167 
L 64.291807 198.132799 
L 64.639313 198.132799 
L 64.751287 197.892115 
L 65.002263 197.892115 
L 65.515799 190.190235 
L 65.94439 189.2275 
L 66.295757 187.061346 
L 66.697319 185.617244 
L 66.83246 185.617244 
L 67.106603 182.969722 
L 67.415497 182.969722 
L 67.527471 182.729038 
L 67.990812 182.729038 
L 68.013979 181.284936 
L 68.697407 181.284936 
L 68.817103 179.118782 
L 68.894327 179.118782 
L 68.940661 177.193312 
L 69.295889 176.471261 
L 69.527559 176.471261 
L 69.589338 175.508526 
L 70.091291 175.508526 
L 70.292072 174.786474 
L 70.523742 174.786474 
L 70.554632 174.305107 
L 70.709079 174.305107 
L 70.797886 173.823739 
L 70.990944 173.823739 
L 71.361617 172.861004 
L 71.685956 170.69485 
L 72.168603 170.69485 
L 72.589471 169.250748 
L 73.033506 169.250748 
L 73.103007 168.76938 
L 73.218842 168.76938 
L 73.357844 167.806645 
L 73.427345 167.325278 
L 73.543181 167.325278 
L 73.643571 166.362543 
L 73.855936 166.362543 
L 73.879103 165.399808 
L 74.168691 165.399808 
L 74.222747 165.159124 
L 75.091511 165.159124 
L 75.18418 163.715021 
L 75.840579 163.715021 
L 75.894636 163.474338 
L 76.107 163.474338 
L 76.130167 162.511603 
L 77.404355 162.511603 
L 77.578108 161.308184 
L 77.964225 161.308184 
L 77.987392 160.345449 
L 78.141839 160.345449 
L 78.744182 156.975876 
L 78.917935 156.975876 
L 78.99902 156.013141 
L 80.022231 156.013141 
L 80.168955 154.328355 
L 80.651602 154.328355 
L 81.03772 152.162201 
L 81.250084 152.162201 
L 81.593729 150.718098 
L 82.037764 150.718098 
L 82.246267 149.273996 
L 83.338979 149.273996 
L 83.443231 148.551944 
L 84.543666 148.551944 
L 84.783059 146.626474 
L 87.408657 146.626474 
L 87.431824 145.663739 
L 88.910654 145.663739 
L 89.111435 143.738269 
L 89.188658 143.738269 
L 89.331522 141.812799 
L 89.389439 141.812799 
L 90.034256 141.090748 
L 90.779462 139.165278 
L 90.933909 139.165278 
L 91.022716 138.68391 
L 92.347099 138.68391 
L 92.497685 137.239808 
L 92.690743 137.239808 
L 92.860635 136.999124 
L 92.883802 136.036389 
L 93.791178 136.036389 
L 93.860679 133.148184 
L 94.381938 133.148184 
L 94.58658 131.463397 
L 95.185062 131.463397 
L 95.235257 130.98203 
L 95.795127 130.98203 
L 95.90324 130.500662 
L 100.633179 130.500662 
L 107.861297 129.297244 
L 114.784382 127.612457 
L 115.000608 125.446303 
L 116.15896 125.446303 
L 116.286379 124.964936 
L 118.352107 124.964936 
L 118.479526 124.483568 
L 119.792325 124.483568 
L 119.919744 124.002201 
L 120.885037 124.002201 
L 120.966122 123.039466 
L 122.896709 123.039466 
L 122.927598 122.558098 
L 123.32916 122.317415 
L 123.587859 120.391944 
L 123.935365 120.391944 
L 123.970115 120.151261 
L 124.124562 120.151261 
L 124.622654 118.707158 
L 124.668988 117.985107 
L 125.962481 117.985107 
L 126.008815 117.263056 
L 126.240486 117.263056 
L 133.121098 116.781688 
L 133.777498 116.541004 
L 141.526874 114.615534 
L 141.634987 114.134167 
L 141.905269 114.134167 
L 141.974771 113.652799 
L 143.229652 113.652799 
L 143.260542 113.171432 
L 143.542407 111.005278 
L 144.507701 111.005278 
L 144.615814 110.52391 
L 146.527095 110.52391 
L 146.639069 109.079808 
L 147.681586 109.079808 
L 147.770393 108.59844 
L 148.928745 108.59844 
L 149.048442 106.432286 
L 149.859288 106.432286 
L 149.959679 105.469551 
L 150.847749 105.469551 
L 151.183671 104.7475 
L 151.241589 104.7475 
L 158.199425 102.82203 
L 158.311399 102.581346 
L 158.346149 101.137244 
L 158.616431 101.137244 
L 158.709099 99.693141 
L 163.554873 99.693141 
L 163.601207 98.97109 
L 163.794266 98.97109 
L 163.940991 98.489722 
L 164.03752 98.489722 
L 164.164939 98.008355 
L 164.686197 98.008355 
L 164.817477 96.564252 
L 171.698089 95.360833 
L 172.38924 93.916731 
L 172.910498 93.916731 
L 173.007027 93.435363 
L 174.667332 93.435363 
L 174.702083 91.991261 
L 175.686682 91.991261 
L 175.760045 91.750577 
L 175.814101 90.306474 
L 176.00716 90.306474 
L 176.362388 89.584423 
L 179.605774 89.584423 
L 179.652108 88.862372 
L 179.767943 88.862372 
L 179.872195 88.140321 
L 180.296924 88.140321 
L 180.366425 87.658953 
L 180.926296 87.658953 
L 181.053714 87.177585 
L 181.130938 87.177585 
L 181.273801 86.455534 
L 181.930201 86.455534 
L 182.022869 85.011432 
L 183.084692 85.011432 
L 183.188944 84.28938 
L 185.119531 84.28938 
L 185.204477 83.567329 
L 187.173676 83.567329 
L 187.312678 82.604594 
L 187.409207 82.604594 
L 187.482569 82.36391 
L 188.949816 82.36391 
L 196.490689 81.401175 
L 200.313251 81.401175 
L 200.332557 77.790919 
L 201.375074 77.790919 
L 201.514076 76.828184 
L 201.745747 76.828184 
L 201.776636 76.346816 
L 209.460373 76.346816 
L 209.587792 73.458611 
L 211.595602 73.458611 
L 211.71916 72.73656 
L 212.143889 72.73656 
L 212.271308 72.255192 
L 212.831178 72.255192 
L 212.916124 71.533141 
L 213.398771 71.533141 
L 213.472133 71.292457 
L 214.032003 71.292457 
L 214.136255 70.570406 
L 214.869878 70.570406 
L 214.993436 69.848355 
L 217.696257 69.848355 
L 218.194349 69.607671 
L 218.259989 68.88562 
L 221.078646 68.88562 
L 221.109535 68.404252 
L 231.472927 68.404252 
L 231.561734 67.922885 
L 236.986684 67.922885 
L 237.17202 67.441517 
L 247.230379 67.441517 
L 247.361659 65.997415 
L 248.191811 65.997415 
L 248.41962 65.756731 
L 248.805738 65.756731 
L 248.825044 62.146474 
L 249.30769 62.146474 
L 249.361747 61.905791 
L 250.75177 61.905791 
L 250.921661 61.665107 
L 251.983484 61.665107 
L 252.13407 61.424423 
L 255.466263 61.424423 
L 255.501014 59.980321 
L 259.555247 59.980321 
L 260.312037 59.739637 
L 269.2661 59.739637 
L 269.351046 59.017585 
L 273.907231 59.017585 
L 274.026928 58.05485 
L 278.563807 58.05485 
L 278.594697 57.573483 
L 290.046939 57.573483 
L 290.255443 57.332799 
L 290.892536 57.332799 
L 290.985205 57.092115 
L 293.981476 57.092115 
L 294.012365 56.610748 
L 297.101304 56.610748 
L 297.155361 56.370064 
L 298.101349 56.370064 
L 298.232629 56.12938 
L 299.001002 55.888697 
L 306.066951 55.888697 
L 307.31411 55.407329 
L 309.051639 55.407329 
L 309.179057 54.925962 
L 319.465225 54.925962 
L 319.615811 54.685278 
L 320.318545 54.685278 
L 320.449825 54.444594 
L 323.670044 54.444594 
L 324.299415 53.963226 
L 326.998376 53.963226 
L 327.168268 53.722543 
L 328.805406 53.722543 
L 329.033215 53.481859 
L 344.667109 53.481859 
L 344.752055 52.759808 
L 346.798477 52.759808 
L 346.891146 51.315705 
L 352.85666 51.315705 
L 352.98794 51.075021 
L 370.374807 51.075021 
L 370.467475 50.834338 
L 372.822791 50.834338 
L 372.973377 50.593654 
L 374.093118 50.593654 
L 374.143313 50.112286 
L 385.549221 50.112286 
L 385.603278 49.871603 
L 386.124536 49.871603 
L 386.167009 48.908868 
L 389.468313 48.908868 
L 389.576426 48.4275 
L 400.90125 48.4275 
L 400.90125 48.4275 
" style="fill:none;stroke:#1f77b4;stroke-linecap:square;stroke-width:1.5;"/>
   </g>
   <g id="line2d_14">
    <path clip-path="url(#pce4d6f63e4)" d="M 43.78125 301.8675 
L 43.858474 301.8675 
L 43.897086 301.8675 
L 44.043813 301.386132 
L 44.082425 301.386132 
L 44.221429 300.423397 
L 44.897141 300.423397 
L 45.012978 298.01656 
L 45.167427 298.01656 
L 45.314153 297.535192 
L 45.391377 297.535192 
L 45.522658 293.684252 
L 50.252648 293.684252 
L 50.854998 290.314679 
L 50.912916 289.111261 
L 51.318343 289.111261 
L 51.349233 288.629893 
L 51.619518 288.629893 
L 51.754661 287.426474 
L 51.986334 287.426474 
L 52.051975 286.704423 
L 52.279786 286.223056 
L 52.54621 285.982372 
L 52.797189 282.131432 
L 52.913026 282.131432 
L 53.133115 279.48391 
L 53.191033 279.48391 
L 53.310731 278.521175 
L 53.56171 278.521175 
L 53.774077 277.317756 
L 53.889913 277.317756 
L 54.009611 275.151603 
L 54.106141 275.151603 
L 54.225839 274.188868 
L 54.631267 274.188868 
L 55.032833 270.819295 
L 55.59271 270.819295 
L 55.608154 269.375192 
L 55.762603 269.375192 
L 55.862995 268.412457 
L 56.110112 266.968355 
L 56.225949 266.968355 
L 56.627515 265.524252 
L 56.77038 264.802201 
L 56.924829 264.802201 
L 57.164224 262.876731 
L 57.318673 262.876731 
L 57.461538 262.154679 
L 57.650738 258.303739 
L 57.901717 258.303739 
L 57.97508 258.063056 
L 58.322589 258.063056 
L 58.585152 257.581688 
L 58.824547 253.24938 
L 59.05622 253.24938 
L 59.125722 252.768013 
L 59.241559 252.768013 
L 59.392146 251.32391 
L 59.546595 251.32391 
L 59.840047 250.361175 
L 59.994496 250.361175 
L 60.32656 249.39844 
L 60.577539 249.39844 
L 60.917326 248.917073 
L 61.037024 247.954338 
L 61.114248 247.954338 
L 61.276419 246.028868 
L 62.241723 246.028868 
L 62.365282 244.103397 
L 62.481119 244.103397 
L 62.550621 243.62203 
L 62.64329 242.177927 
L 62.952187 242.177927 
L 63.307419 239.530406 
L 63.519786 239.530406 
L 63.581565 238.567671 
L 63.967687 238.567671 
L 64.330641 238.326987 
L 64.477367 237.84562 
L 64.647261 236.401517 
L 65.191692 234.476047 
L 65.384753 232.550577 
L 69.049047 201.261688 
L 69.666842 201.261688 
L 69.744066 200.058269 
L 70.323248 200.058269 
L 70.527893 199.576902 
L 70.605117 199.576902 
L 70.86768 197.170064 
L 70.96421 197.170064 
L 71.261524 196.448013 
L 71.524086 195.966645 
L 71.840706 194.522543 
L 72.323358 194.522543 
L 72.416027 193.07844 
L 72.531864 193.07844 
L 72.67859 192.597073 
L 72.871651 192.597073 
L 73.041544 191.15297 
L 75.242437 191.15297 
L 75.350551 190.671603 
L 75.636281 188.024081 
L 75.810036 188.024081 
L 75.879538 187.542714 
L 76.207741 187.542714 
L 76.277243 187.061346 
L 76.566834 187.061346 
L 77.03018 185.857927 
L 77.261853 185.857927 
L 77.667281 183.45109 
L 78.053403 183.45109 
L 78.161517 182.969722 
L 84.212042 182.969722 
L 84.312434 182.006987 
L 84.698555 182.006987 
L 84.825975 181.52562 
L 84.9032 181.52562 
L 85.146456 179.840833 
L 85.590496 179.840833 
L 85.706333 178.637415 
L 86.165817 177.193312 
L 86.393629 177.193312 
L 86.667775 176.230577 
L 86.957367 176.230577 
L 87.358933 174.786474 
L 87.474769 174.786474 
L 87.783667 173.823739 
L 88.633134 173.823739 
L 88.764416 172.379637 
L 88.880252 172.379637 
L 89.104203 171.898269 
L 89.169843 170.213483 
L 89.28568 170.213483 
L 89.455573 168.76938 
L 89.76447 168.76938 
L 89.903474 167.806645 
L 90.640967 167.806645 
L 90.77997 166.84391 
L 91.088868 166.84391 
L 91.278067 166.603226 
L 92.33604 166.603226 
L 92.552268 165.640491 
L 92.706717 165.640491 
L 92.814831 165.159124 
L 92.96928 165.159124 
L 93.077394 164.677756 
L 93.424903 164.677756 
L 93.455793 164.196389 
L 93.726078 164.196389 
L 96.865247 147.589209 
L 97.212756 147.589209 
L 97.266813 146.145107 
L 98.618239 146.145107 
L 98.734075 144.941688 
L 98.90783 144.941688 
L 98.985054 143.738269 
L 99.178115 143.738269 
L 99.382759 143.256902 
L 99.691657 143.256902 
L 99.753436 142.294167 
L 100.989025 142.294167 
L 101.282478 141.331432 
L 101.591375 141.331432 
L 101.738101 140.850064 
L 101.969774 140.850064 
L 102.039276 137.961859 
L 102.213031 137.961859 
L 102.772907 136.999124 
L 102.888743 136.999124 
L 103.286449 136.517756 
L 104.579956 136.517756 
L 104.753711 135.314338 
L 105.931382 135.314338 
L 106.166916 134.351603 
L 106.282752 134.351603 
L 106.49898 133.388868 
L 107.29053 133.388868 
L 107.865851 130.741346 
L 108.155442 130.741346 
L 108.248111 129.297244 
L 108.595621 129.297244 
L 108.989465 127.371774 
L 109.105301 127.371774 
L 109.213415 126.890406 
L 109.290639 126.890406 
L 109.398753 126.409038 
L 109.920018 126.409038 
L 109.950907 125.927671 
L 110.27525 125.686987 
L 110.564841 125.686987 
L 110.908489 124.242885 
L 111.093827 123.761517 
L 114.692481 123.761517 
L 115.908764 121.354679 
L 116.325775 118.225791 
L 116.634672 118.225791 
L 116.835455 117.263056 
L 121.063487 116.059637 
L 121.214074 115.818953 
L 121.503665 115.818953 
L 125.851395 115.337585 
L 129.87092 115.337585 
L 134.191621 115.096902 
L 134.400127 114.856218 
L 134.766942 114.856218 
L 134.875056 114.37485 
L 135.319096 114.37485 
L 135.496712 113.412115 
L 135.697495 111.486645 
L 135.863527 111.005278 
L 136.404098 111.005278 
L 136.550824 110.52391 
L 138.44282 110.52391 
L 138.624297 109.801859 
L 138.875276 109.801859 
L 138.967945 108.839124 
L 139.411985 108.839124 
L 139.520099 108.357756 
L 140.134032 108.117073 
L 140.354122 107.395021 
L 140.431346 107.395021 
L 140.608962 106.432286 
L 140.956471 106.432286 
L 142.157309 105.469551 
L 142.273146 105.469551 
L 142.304036 104.988184 
L 142.755798 104.988184 
L 142.883218 103.303397 
L 143.095585 103.303397 
L 143.126475 102.82203 
L 143.454678 102.82203 
L 143.528041 102.581346 
L 143.77902 102.581346 
L 143.883273 101.859295 
L 152.713874 101.618611 
L 152.883767 100.174509 
L 154.640621 100.174509 
L 154.822098 99.452457 
L 156.810624 99.452457 
L 156.934183 98.730406 
L 158.13116 98.730406 
L 158.165911 97.286303 
L 158.358971 97.286303 
L 158.463224 96.564252 
L 159.254774 96.564252 
L 159.393777 95.601517 
L 159.664062 95.601517 
L 159.91118 94.157415 
L 161.011627 94.157415 
L 161.042517 93.676047 
L 162.436415 93.676047 
L 162.498195 92.713312 
L 165.664392 92.713312 
L 165.772506 92.231944 
L 166.004179 92.231944 
L 166.127738 91.509893 
L 166.359411 91.509893 
L 166.428913 91.028526 
L 167.548665 91.028526 
L 167.656779 90.547158 
L 167.734004 90.547158 
L 167.838257 89.825107 
L 168.301602 89.825107 
L 168.371104 89.343739 
L 168.641389 89.343739 
L 168.772671 87.899637 
L 169.274629 87.899637 
L 169.502441 87.658953 
L 169.579665 87.658953 
L 169.641444 86.696218 
L 169.91173 86.696218 
L 170.012121 85.733483 
L 170.544969 85.733483 
L 170.819115 84.770748 
L 171.591358 84.770748 
L 175.193873 84.530064 
L 175.371489 83.567329 
L 175.66108 83.567329 
L 175.769194 83.085962 
L 176.23254 83.085962 
L 180.109201 82.36391 
L 180.217315 81.882543 
L 183.676964 80.197756 
L 187.800743 79.957073 
L 188.155975 78.031603 
L 189.005442 78.031603 
L 189.113556 77.550235 
L 190.295088 77.550235 
L 190.441815 77.068868 
L 190.557651 77.068868 
L 190.723683 76.5875 
L 191.225641 76.5875 
L 191.407119 75.865449 
L 194.978743 75.865449 
L 195.183388 75.384081 
L 195.530897 75.384081 
L 195.658317 74.902714 
L 195.735542 74.902714 
L 195.998104 74.421346 
L 198.063855 74.421346 
L 198.171969 73.939979 
L 198.326418 73.939979 
L 198.426809 72.977244 
L 200.338111 72.977244 
L 200.407613 72.495876 
L 207.821148 71.533141 
L 213.03765 71.533141 
L 214.304129 71.051774 
L 216.447104 71.051774 
L 217.48191 70.570406 
L 220.030312 70.570406 
L 220.076647 69.848355 
L 223.223538 69.848355 
L 223.285317 68.88562 
L 224.964946 68.88562 
L 226.382012 68.163568 
L 226.459237 68.163568 
L 226.75655 67.441517 
L 235.089054 67.441517 
L 235.417258 67.200833 
L 246.182328 67.200833 
L 246.313609 65.756731 
L 246.641812 65.756731 
L 246.749926 65.275363 
L 251.344773 65.275363 
L 251.456749 65.034679 
L 252.595807 65.034679 
L 252.703921 64.553312 
L 253.958817 64.553312 
L 254.44533 64.071944 
L 265.944031 64.071944 
L 266.06759 63.349893 
L 267.187342 63.349893 
L 267.295456 62.868526 
L 267.72019 62.868526 
L 267.75108 62.387158 
L 270.878665 62.387158 
L 270.986779 61.905791 
L 272.685714 61.905791 
L 272.755216 61.424423 
L 277.46976 61.424423 
L 277.616487 60.943056 
L 278.04122 60.943056 
L 278.110722 60.461688 
L 282.956548 60.461688 
L 283.068524 60.221004 
L 283.72493 60.221004 
L 283.871656 59.739637 
L 284.721124 59.739637 
L 284.813793 58.295534 
L 292.690674 58.295534 
L 292.725425 56.851432 
L 295.984291 56.851432 
L 296.092405 56.370064 
L 298.486359 56.370064 
L 298.791395 56.12938 
L 300.026984 56.12938 
L 300.409244 55.888697 
L 301.722058 55.888697 
L 302.027094 55.648013 
L 308.977282 55.648013 
L 309.069952 54.20391 
L 310.749581 54.20391 
L 310.795915 53.481859 
L 312.070116 53.481859 
L 312.212981 52.759808 
L 312.927306 52.759808 
L 313.155118 52.519124 
L 315.672631 52.519124 
L 315.703521 52.037756 
L 324.742627 52.037756 
L 324.924104 51.315705 
L 329.121246 51.315705 
L 329.383809 50.834338 
L 331.044131 50.834338 
L 331.152245 50.35297 
L 331.692816 50.35297 
L 331.762318 49.871603 
L 334.831984 49.871603 
L 334.862874 49.390235 
L 339.419109 49.390235 
L 339.527223 48.908868 
L 381.699423 48.908868 
L 381.846149 48.4275 
L 400.90125 48.4275 
L 400.90125 48.4275 
" style="fill:none;stroke:#ff7f0e;stroke-linecap:square;stroke-width:1.5;"/>
   </g>
   <g id="line2d_15">
    <path clip-path="url(#pce4d6f63e4)" d="M 43.78125 301.8675 
L 43.827585 301.145449 
L 44.175094 301.145449 
L 44.205984 300.664081 
L 44.553493 300.664081 
L 44.657746 299.94203 
L 44.742693 297.535192 
L 45.457018 297.535192 
L 45.599883 296.813141 
L 46.294902 296.813141 
L 46.364403 296.331774 
L 46.943586 296.331774 
L 47.576825 296.09109 
L 48.426293 296.09109 
L 48.974585 292.962201 
L 49.071116 292.962201 
L 49.186952 291.518098 
L 49.646437 291.518098 
L 49.928306 288.629893 
L 50.333733 288.629893 
L 50.596296 285.501004 
L 51.569323 285.501004 
L 51.851191 282.612799 
L 52.044252 282.612799 
L 52.233452 281.168697 
L 52.349288 281.168697 
L 52.557794 279.724594 
L 52.638879 278.761859 
L 52.716104 278.761859 
L 53.194894 276.355021 
L 53.310731 276.355021 
L 53.411123 275.392286 
L 53.642795 275.392286 
L 54.052084 274.429551 
L 54.194949 273.7075 
L 54.272174 273.7075 
L 54.399594 273.226132 
L 54.51543 273.226132 
L 54.619683 272.504081 
L 54.774132 272.504081 
L 54.971054 271.541346 
L 55.017388 269.615876 
L 55.210449 269.615876 
L 55.310841 268.653141 
L 55.65835 268.653141 
L 56.029027 262.876731 
L 56.473067 262.876731 
L 56.581181 262.395363 
L 56.646821 260.469893 
L 56.859188 260.469893 
L 57.144918 259.025791 
L 58.519511 259.025791 
L 58.542678 258.063056 
L 58.658515 258.063056 
L 58.731878 257.822372 
L 58.878604 255.896902 
L 59.090971 255.896902 
L 64.647261 225.330064 
L 65.338419 225.330064 
L 65.43881 224.367329 
L 65.570091 224.126645 
L 66.342335 224.126645 
L 66.442726 223.16391 
L 66.635787 223.16391 
L 66.713011 220.757073 
L 67.002603 220.757073 
L 67.048937 220.035021 
L 67.203386 220.035021 
L 67.330806 219.553654 
L 67.774846 219.553654 
L 68.037408 216.665449 
L 68.133939 216.665449 
L 68.527783 214.258611 
L 68.991129 214.258611 
L 69.137855 213.777244 
L 69.485364 213.777244 
L 69.605062 212.814509 
L 70.184245 212.814509 
L 70.307803 210.889038 
L 70.346416 210.889038 
L 70.431362 208.963568 
L 70.894708 208.963568 
L 71.014406 208.000833 
L 71.207467 208.000833 
L 73.925763 188.024081 
L 74.311884 188.024081 
L 74.651671 186.339295 
L 75.153629 186.339295 
L 75.215409 185.37656 
L 75.427776 185.37656 
L 75.871816 183.691774 
L 76.315855 183.691774 
L 76.36219 182.969722 
L 76.593863 182.969722 
L 76.752173 182.006987 
L 76.93365 182.006987 
L 77.3468 181.284936 
L 77.578473 181.284936 
L 77.833313 180.322201 
L 78.721393 180.322201 
L 78.80634 178.396731 
L 79.192461 178.396731 
L 79.292853 177.433996 
L 79.814117 177.433996 
L 79.984011 175.989893 
L 80.061235 175.989893 
L 80.223406 175.267842 
L 80.30063 175.267842 
L 80.451218 173.823739 
L 80.528442 173.823739 
L 80.551609 171.657585 
L 80.976343 171.657585 
L 81.513052 171.416902 
L 82.134708 171.416902 
L 82.33163 170.454167 
L 82.466772 170.454167 
L 82.567164 169.491432 
L 82.721613 169.491432 
L 82.995759 168.528697 
L 83.63286 168.528697 
L 83.798892 168.047329 
L 83.949479 166.603226 
L 84.103928 166.603226 
L 84.33174 163.715021 
L 84.698555 163.715021 
L 84.825975 163.233654 
L 84.9032 163.233654 
L 85.304766 161.308184 
L 86.077009 161.308184 
L 86.146511 160.826816 
L 86.39749 160.826816 
L 86.582829 159.14203 
L 86.621441 159.14203 
L 86.745 158.419979 
L 87.189039 158.419979 
L 87.343488 156.013141 
L 87.903364 156.013141 
L 88.019201 154.809722 
L 88.347404 154.809722 
L 88.474824 154.328355 
L 88.93817 154.328355 
L 88.96906 153.846987 
L 89.393794 153.846987 
L 89.57141 152.884252 
L 90.671856 152.884252 
L 90.818582 152.402885 
L 90.857195 152.402885 
L 90.888084 151.921517 
L 91.100451 151.921517 
L 91.247177 150.236731 
L 91.459544 150.236731 
L 97.459874 148.792628 
L 97.490764 148.311261 
L 97.6066 148.311261 
L 97.749465 146.385791 
L 98.116281 146.385791 
L 98.212811 143.978953 
L 98.402011 143.738269 
L 98.633683 143.738269 
L 98.799716 143.256902 
L 99.22445 143.256902 
L 99.35187 142.775534 
L 99.409788 142.775534 
L 99.510179 141.812799 
L 99.645322 141.812799 
L 99.714824 141.331432 
L 100.100946 141.331432 
L 100.232227 139.887329 
L 100.367369 139.887329 
L 100.668544 136.999124 
L 101.03536 136.999124 
L 101.143474 134.110919 
L 101.25931 134.110919 
L 101.406037 133.629551 
L 102.390647 133.629551 
L 102.510344 132.666816 
L 102.799935 132.666816 
L 102.873299 132.426132 
L 103.60693 132.426132 
L 103.653264 131.704081 
L 104.348283 131.704081 
L 104.456397 131.222714 
L 105.112804 131.222714 
L 105.286559 130.019295 
L 109.410337 130.019295 
L 109.568647 129.05656 
L 109.761708 129.05656 
L 109.862099 128.093825 
L 110.364057 128.093825 
L 110.665232 127.612457 
L 110.800375 127.612457 
L 110.970268 126.168355 
L 111.201941 126.168355 
L 111.286888 125.446303 
L 111.402725 125.446303 
L 111.487671 124.724252 
L 113.785095 124.724252 
L 113.831429 124.002201 
L 113.985878 124.002201 
L 114.205967 123.761517 
L 114.283192 123.761517 
L 114.429918 123.28015 
L 116.553587 123.28015 
L 116.646256 121.836047 
L 122.82034 118.947842 
L 123.167849 118.947842 
L 123.275964 118.466474 
L 123.469024 118.466474 
L 123.499914 117.985107 
L 123.615751 117.985107 
L 123.735448 117.022372 
L 123.843562 116.541004 
L 129.967451 116.541004 
L 130.02923 115.578269 
L 130.260903 115.578269 
L 130.508021 114.134167 
L 130.913449 114.134167 
L 130.936616 113.171432 
L 131.284125 113.171432 
L 131.315015 112.690064 
L 131.759055 112.690064 
L 131.789945 112.208697 
L 135.257317 112.208697 
L 135.4581 111.486645 
L 136.075894 111.486645 
L 136.199453 110.764594 
L 144.906495 110.764594 
L 145.010748 110.042543 
L 145.377564 110.042543 
L 152.343197 109.320491 
L 152.439727 109.320491 
L 155.362668 108.59844 
L 155.393558 108.117073 
L 155.663843 108.117073 
L 155.945712 106.432286 
L 156.737261 106.432286 
L 156.845375 105.950919 
L 157.965127 105.950919 
L 158.026907 104.988184 
L 161.158353 104.025449 
L 162.154547 104.025449 
L 162.224049 103.544081 
L 162.339885 103.544081 
L 162.447999 103.062714 
L 163.046488 103.062714 
L 169.72253 102.099979 
L 170.050733 102.099979 
L 170.170431 101.137244 
L 172.448548 101.137244 
L 172.560524 100.89656 
L 172.606858 100.174509 
L 172.722695 100.174509 
L 172.938923 99.211774 
L 173.325044 99.211774 
L 173.452465 98.730406 
L 177.062701 98.730406 
L 177.190122 97.04562 
L 177.383182 97.04562 
L 177.549215 96.564252 
L 178.089785 96.564252 
L 178.197899 96.082885 
L 178.236511 96.082885 
L 178.367792 94.638782 
L 179.140036 94.638782 
L 179.240427 93.676047 
L 183.024419 93.676047 
L 183.132533 93.194679 
L 184.580489 93.194679 
L 184.707909 92.713312 
L 185.44154 92.713312 
L 185.673213 90.306474 
L 186.097947 90.306474 
L 186.132698 88.862372 
L 186.480207 88.862372 
L 186.503374 87.899637 
L 187.179087 87.899637 
L 187.28334 87.177585 
L 188.26795 87.177585 
L 188.29884 86.455534 
L 188.414676 86.455534 
L 188.654072 86.21485 
L 192.920715 86.21485 
L 193.171694 82.604594 
L 196.646789 82.604594 
L 196.754903 82.123226 
L 196.986576 82.123226 
L 197.117857 80.679124 
L 197.195081 80.679124 
L 197.264583 80.197756 
L 197.650705 80.197756 
L 204.152992 79.235021 
L 204.299719 78.753654 
L 204.338331 78.753654 
L 204.446445 78.272286 
L 204.504363 78.272286 
L 204.651089 77.790919 
L 204.94068 77.790919 
L 205.183937 77.550235 
L 205.299774 77.550235 
L 205.504418 77.068868 
L 205.54303 77.068868 
L 205.57392 76.5875 
L 206.944651 76.5875 
L 207.052766 76.106132 
L 208.848231 76.106132 
L 208.9409 74.66203 
L 209.153267 74.66203 
L 209.338605 74.180662 
L 212.968148 74.180662 
L 213.342686 72.255192 
L 213.786726 72.255192 
L 213.952758 71.773825 
L 214.068595 71.773825 
L 214.134236 71.051774 
L 221.377877 71.051774 
L 221.447379 70.570406 
L 222.026561 70.570406 
L 222.169426 69.848355 
L 225.914805 69.848355 
L 225.999752 69.126303 
L 226.521016 69.126303 
L 226.748828 68.88562 
L 227.250786 68.88562 
L 227.281676 68.404252 
L 230.957553 68.404252 
L 230.980721 67.441517 
L 231.405454 67.441517 
L 231.529013 66.719466 
L 232.301256 66.719466 
L 232.529068 66.478782 
L 235.116083 66.478782 
L 235.216475 65.516047 
L 239.355698 65.516047 
L 239.483118 65.034679 
L 240.969686 65.034679 
L 241.135719 64.553312 
L 242.120329 64.553312 
L 242.267055 64.071944 
L 245.973822 64.071944 
L 246.004712 63.590577 
L 247.722953 63.590577 
L 247.989377 63.349893 
L 252.005041 63.349893 
L 252.113155 62.627842 
L 254.989761 62.627842 
L 255.020651 62.146474 
L 255.792894 62.146474 
L 255.897147 61.424423 
L 259.916673 61.424423 
L 260.044093 60.943056 
L 273.979221 60.943056 
L 274.079613 59.980321 
L 277.767074 59.980321 
L 277.836576 59.498953 
L 287.489616 59.498953 
L 287.632481 58.776902 
L 294.350996 58.776902 
L 294.385747 58.536218 
L 297.687087 58.536218 
L 297.787479 57.573483 
L 303.058038 57.573483 
L 303.154569 56.370064 
L 310.351875 56.370064 
L 310.479295 55.888697 
L 311.618354 55.888697 
L 311.649244 55.166645 
L 312.730384 55.166645 
L 312.857804 54.685278 
L 316.217062 54.685278 
L 316.363788 54.20391 
L 318.024111 54.20391 
L 318.132225 53.722543 
L 318.537653 53.722543 
L 318.607155 53.241175 
L 334.360916 53.241175 
L 334.484475 52.519124 
L 343.751393 52.519124 
L 343.898119 52.037756 
L 353.74422 52.037756 
L 353.852334 51.315705 
L 355.84086 51.315705 
L 355.945113 50.593654 
L 366.262282 50.593654 
L 366.370396 50.112286 
L 368.165861 50.112286 
L 368.250808 49.390235 
L 369.003745 49.390235 
L 369.111859 48.908868 
L 371.505813 48.908868 
L 371.74907 48.4275 
L 400.90125 48.4275 
L 400.90125 48.4275 
" style="fill:none;stroke:#2ca02c;stroke-linecap:square;stroke-width:1.5;"/>
   </g>
   <g id="line2d_16">
    <path clip-path="url(#pce4d6f63e4)" d="M 43.78125 301.8675 
L 400.90125 48.4275 
" style="fill:none;stroke:#000000;stroke-dasharray:5.6,2.4;stroke-dashoffset:0;stroke-width:1.5;"/>
   </g>
   <g id="patch_3">
    <path d="M 43.78125 301.8675 
L 43.78125 35.7555 
" style="fill:none;stroke:#000000;stroke-linecap:square;stroke-linejoin:miter;stroke-width:0.8;"/>
   </g>
   <g id="patch_4">
    <path d="M 400.90125 301.8675 
L 400.90125 35.7555 
" style="fill:none;stroke:#000000;stroke-linecap:square;stroke-linejoin:miter;stroke-width:0.8;"/>
   </g>
   <g id="patch_5">
    <path d="M 43.78125 301.8675 
L 400.90125 301.8675 
" style="fill:none;stroke:#000000;stroke-linecap:square;stroke-linejoin:miter;stroke-width:0.8;"/>
   </g>
   <g id="patch_6">
    <path d="M 43.78125 35.7555 
L 400.90125 35.7555 
" style="fill:none;stroke:#000000;stroke-linecap:square;stroke-linejoin:miter;stroke-width:0.8;"/>
   </g>
   <g id="text_15">
    <!-- ROC Curve AdaBoost + SMOTE -->
    <defs>
     <path d="M 39.40625 66.21875 
Q 28.65625 66.21875 22.328125 58.203125 
Q 16.015625 50.203125 16.015625 36.375 
Q 16.015625 22.609375 22.328125 14.59375 
Q 28.65625 6.59375 39.40625 6.59375 
Q 50.140625 6.59375 56.421875 14.59375 
Q 62.703125 22.609375 62.703125 36.375 
Q 62.703125 50.203125 56.421875 58.203125 
Q 50.140625 66.21875 39.40625 66.21875 
M 39.40625 74.21875 
Q 54.734375 74.21875 63.90625 63.9375 
Q 73.09375 53.65625 73.09375 36.375 
Q 73.09375 19.140625 63.90625 8.859375 
Q 54.734375 -1.421875 39.40625 -1.421875 
Q 24.03125 -1.421875 14.8125 8.828125 
Q 5.609375 19.09375 5.609375 36.375 
Q 5.609375 53.65625 14.8125 63.9375 
Q 24.03125 74.21875 39.40625 74.21875 
" id="DejaVuSans-4f"/>
     <path d="M 64.40625 67.28125 
L 64.40625 56.890625 
Q 59.421875 61.53125 53.78125 63.8125 
Q 48.140625 66.109375 41.796875 66.109375 
Q 29.296875 66.109375 22.65625 58.46875 
Q 16.015625 50.828125 16.015625 36.375 
Q 16.015625 21.96875 22.65625 14.328125 
Q 29.296875 6.6875 41.796875 6.6875 
Q 48.140625 6.6875 53.78125 8.984375 
Q 59.421875 11.28125 64.40625 15.921875 
L 64.40625 5.609375 
Q 59.234375 2.09375 53.4375 0.328125 
Q 47.65625 -1.421875 41.21875 -1.421875 
Q 24.65625 -1.421875 15.125 8.703125 
Q 5.609375 18.84375 5.609375 36.375 
Q 5.609375 53.953125 15.125 64.078125 
Q 24.65625 74.21875 41.21875 74.21875 
Q 47.75 74.21875 53.53125 72.484375 
Q 59.328125 70.75 64.40625 67.28125 
" id="DejaVuSans-43"/>
     <path d="M 34.1875 63.1875 
L 20.796875 26.90625 
L 47.609375 26.90625 
z
M 28.609375 72.90625 
L 39.796875 72.90625 
L 67.578125 0 
L 57.328125 0 
L 50.6875 18.703125 
L 17.828125 18.703125 
L 11.1875 0 
L 0.78125 0 
z
" id="DejaVuSans-41"/>
     <path d="M 45.40625 46.390625 
L 45.40625 75.984375 
L 54.390625 75.984375 
L 54.390625 0 
L 45.40625 0 
L 45.40625 8.203125 
Q 42.578125 3.328125 38.25 0.953125 
Q 33.9375 -1.421875 27.875 -1.421875 
Q 17.96875 -1.421875 11.734375 6.484375 
Q 5.515625 14.40625 5.515625 27.296875 
Q 5.515625 40.1875 11.734375 48.09375 
Q 17.96875 56 27.875 56 
Q 33.9375 56 38.25 53.625 
Q 42.578125 51.265625 45.40625 46.390625 
M 14.796875 27.296875 
Q 14.796875 17.390625 18.875 11.75 
Q 22.953125 6.109375 30.078125 6.109375 
Q 37.203125 6.109375 41.296875 11.75 
Q 45.40625 17.390625 45.40625 27.296875 
Q 45.40625 37.203125 41.296875 42.84375 
Q 37.203125 48.484375 30.078125 48.484375 
Q 22.953125 48.484375 18.875 42.84375 
Q 14.796875 37.203125 14.796875 27.296875 
" id="DejaVuSans-64"/>
     <path d="M 19.671875 34.8125 
L 19.671875 8.109375 
L 35.5 8.109375 
Q 43.453125 8.109375 47.28125 11.40625 
Q 51.125 14.703125 51.125 21.484375 
Q 51.125 28.328125 47.28125 31.5625 
Q 43.453125 34.8125 35.5 34.8125 
z
M 19.671875 64.796875 
L 19.671875 42.828125 
L 34.28125 42.828125 
Q 41.5 42.828125 45.03125 45.53125 
Q 48.578125 48.25 48.578125 53.8125 
Q 48.578125 59.328125 45.03125 62.0625 
Q 41.5 64.796875 34.28125 64.796875 
z
M 9.8125 72.90625 
L 35.015625 72.90625 
Q 46.296875 72.90625 52.390625 68.21875 
Q 58.5 63.53125 58.5 54.890625 
Q 58.5 48.1875 55.375 44.234375 
Q 52.25 40.28125 46.1875 39.3125 
Q 53.46875 37.75 57.5 32.78125 
Q 61.53125 27.828125 61.53125 20.40625 
Q 61.53125 10.640625 54.890625 5.3125 
Q 48.25 0 35.984375 0 
L 9.8125 0 
z
" id="DejaVuSans-42"/>
     <path d="M 46 62.703125 
L 46 35.5 
L 73.1875 35.5 
L 73.1875 27.203125 
L 46 27.203125 
L 46 0 
L 37.796875 0 
L 37.796875 27.203125 
L 10.59375 27.203125 
L 10.59375 35.5 
L 37.796875 35.5 
L 37.796875 62.703125 
z
" id="DejaVuSans-2b"/>
     <path d="M 53.515625 70.515625 
L 53.515625 60.890625 
Q 47.90625 63.578125 42.921875 64.890625 
Q 37.9375 66.21875 33.296875 66.21875 
Q 25.25 66.21875 20.875 63.09375 
Q 16.5 59.96875 16.5 54.203125 
Q 16.5 49.359375 19.40625 46.890625 
Q 22.3125 44.4375 30.421875 42.921875 
L 36.375 41.703125 
Q 47.40625 39.59375 52.65625 34.296875 
Q 57.90625 29 57.90625 20.125 
Q 57.90625 9.515625 50.796875 4.046875 
Q 43.703125 -1.421875 29.984375 -1.421875 
Q 24.8125 -1.421875 18.96875 -0.25 
Q 13.140625 0.921875 6.890625 3.21875 
L 6.890625 13.375 
Q 12.890625 10.015625 18.65625 8.296875 
Q 24.421875 6.59375 29.984375 6.59375 
Q 38.421875 6.59375 43.015625 9.90625 
Q 47.609375 13.234375 47.609375 19.390625 
Q 47.609375 24.75 44.3125 27.78125 
Q 41.015625 30.8125 33.5 32.328125 
L 27.484375 33.5 
Q 16.453125 35.6875 11.515625 40.375 
Q 6.59375 45.0625 6.59375 53.421875 
Q 6.59375 63.09375 13.40625 68.65625 
Q 20.21875 74.21875 32.171875 74.21875 
Q 37.3125 74.21875 42.625 73.28125 
Q 47.953125 72.359375 53.515625 70.515625 
" id="DejaVuSans-53"/>
     <path d="M 9.8125 72.90625 
L 24.515625 72.90625 
L 43.109375 23.296875 
L 61.8125 72.90625 
L 76.515625 72.90625 
L 76.515625 0 
L 66.890625 0 
L 66.890625 64.015625 
L 48.09375 14.015625 
L 38.1875 14.015625 
L 19.390625 64.015625 
L 19.390625 0 
L 9.8125 0 
z
" id="DejaVuSans-4d"/>
     <path d="M 9.8125 72.90625 
L 55.90625 72.90625 
L 55.90625 64.59375 
L 19.671875 64.59375 
L 19.671875 43.015625 
L 54.390625 43.015625 
L 54.390625 34.71875 
L 19.671875 34.71875 
L 19.671875 8.296875 
L 56.78125 8.296875 
L 56.78125 0 
L 9.8125 0 
z
" id="DejaVuSans-45"/>
    </defs>
    <g transform="translate(129.210938 16.318125)scale(0.12 -0.12)">
     <use xlink:href="#DejaVuSans-52"/>
     <use x="69.482422" xlink:href="#DejaVuSans-4f"/>
     <use x="148.193359" xlink:href="#DejaVuSans-43"/>
     <use x="218.017578" xlink:href="#DejaVuSans-20"/>
     <use x="249.804688" xlink:href="#DejaVuSans-43"/>
     <use x="319.628906" xlink:href="#DejaVuSans-75"/>
     <use x="383.007812" xlink:href="#DejaVuSans-72"/>
     <use x="424.121094" xlink:href="#DejaVuSans-76"/>
     <use x="483.300781" xlink:href="#DejaVuSans-65"/>
     <use x="544.824219" xlink:href="#DejaVuSans-20"/>
     <use x="576.611328" xlink:href="#DejaVuSans-41"/>
     <use x="645.003906" xlink:href="#DejaVuSans-64"/>
     <use x="708.480469" xlink:href="#DejaVuSans-61"/>
     <use x="769.759766" xlink:href="#DejaVuSans-42"/>
     <use x="838.363281" xlink:href="#DejaVuSans-6f"/>
     <use x="899.544922" xlink:href="#DejaVuSans-6f"/>
     <use x="960.726562" xlink:href="#DejaVuSans-73"/>
     <use x="1012.826172" xlink:href="#DejaVuSans-74"/>
     <use x="1052.035156" xlink:href="#DejaVuSans-20"/>
     <use x="1083.822266" xlink:href="#DejaVuSans-2b"/>
     <use x="1167.611328" xlink:href="#DejaVuSans-20"/>
     <use x="1199.398438" xlink:href="#DejaVuSans-53"/>
     <use x="1262.875" xlink:href="#DejaVuSans-4d"/>
     <use x="1349.154297" xlink:href="#DejaVuSans-4f"/>
     <use x="1427.865234" xlink:href="#DejaVuSans-54"/>
     <use x="1488.949219" xlink:href="#DejaVuSans-45"/>
    </g>
    <!-- Train: 12   Test: [1, 2, 4, 6, 8, 10, 12] -->
    <defs>
     <path d="M 54.890625 33.015625 
L 54.890625 0 
L 45.90625 0 
L 45.90625 32.71875 
Q 45.90625 40.484375 42.875 44.328125 
Q 39.84375 48.1875 33.796875 48.1875 
Q 26.515625 48.1875 22.3125 43.546875 
Q 18.109375 38.921875 18.109375 30.90625 
L 18.109375 0 
L 9.078125 0 
L 9.078125 54.6875 
L 18.109375 54.6875 
L 18.109375 46.1875 
Q 21.34375 51.125 25.703125 53.5625 
Q 30.078125 56 35.796875 56 
Q 45.21875 56 50.046875 50.171875 
Q 54.890625 44.34375 54.890625 33.015625 
" id="DejaVuSans-6e"/>
     <path d="M 11.71875 12.40625 
L 22.015625 12.40625 
L 22.015625 0 
L 11.71875 0 
z
M 11.71875 51.703125 
L 22.015625 51.703125 
L 22.015625 39.3125 
L 11.71875 39.3125 
z
" id="DejaVuSans-3a"/>
     <path d="M 8.59375 75.984375 
L 29.296875 75.984375 
L 29.296875 69 
L 17.578125 69 
L 17.578125 -6.203125 
L 29.296875 -6.203125 
L 29.296875 -13.1875 
L 8.59375 -13.1875 
z
" id="DejaVuSans-5b"/>
     <path d="M 11.71875 12.40625 
L 22.015625 12.40625 
L 22.015625 4 
L 14.015625 -11.625 
L 7.71875 -11.625 
L 11.71875 4 
z
" id="DejaVuSans-2c"/>
     <path d="M 30.421875 75.984375 
L 30.421875 -13.1875 
L 9.71875 -13.1875 
L 9.71875 -6.203125 
L 21.390625 -6.203125 
L 21.390625 69 
L 9.71875 69 
L 9.71875 75.984375 
z
" id="DejaVuSans-5d"/>
    </defs>
    <g transform="translate(111.124688 29.7555)scale(0.12 -0.12)">
     <use xlink:href="#DejaVuSans-54"/>
     <use x="60.865234" xlink:href="#DejaVuSans-72"/>
     <use x="101.978516" xlink:href="#DejaVuSans-61"/>
     <use x="163.257812" xlink:href="#DejaVuSans-69"/>
     <use x="191.041016" xlink:href="#DejaVuSans-6e"/>
     <use x="254.419922" xlink:href="#DejaVuSans-3a"/>
     <use x="288.111328" xlink:href="#DejaVuSans-20"/>
     <use x="319.898438" xlink:href="#DejaVuSans-31"/>
     <use x="383.521484" xlink:href="#DejaVuSans-32"/>
     <use x="447.144531" xlink:href="#DejaVuSans-20"/>
     <use x="478.931641" xlink:href="#DejaVuSans-20"/>
     <use x="510.71875" xlink:href="#DejaVuSans-20"/>
     <use x="542.505859" xlink:href="#DejaVuSans-54"/>
     <use x="603.324219" xlink:href="#DejaVuSans-65"/>
     <use x="664.847656" xlink:href="#DejaVuSans-73"/>
     <use x="716.947266" xlink:href="#DejaVuSans-74"/>
     <use x="756.15625" xlink:href="#DejaVuSans-3a"/>
     <use x="789.847656" xlink:href="#DejaVuSans-20"/>
     <use x="821.634766" xlink:href="#DejaVuSans-5b"/>
     <use x="860.648438" xlink:href="#DejaVuSans-31"/>
     <use x="924.271484" xlink:href="#DejaVuSans-2c"/>
     <use x="956.058594" xlink:href="#DejaVuSans-20"/>
     <use x="987.845703" xlink:href="#DejaVuSans-32"/>
     <use x="1051.46875" xlink:href="#DejaVuSans-2c"/>
     <use x="1083.255859" xlink:href="#DejaVuSans-20"/>
     <use x="1115.042969" xlink:href="#DejaVuSans-34"/>
     <use x="1178.666016" xlink:href="#DejaVuSans-2c"/>
     <use x="1210.453125" xlink:href="#DejaVuSans-20"/>
     <use x="1242.240234" xlink:href="#DejaVuSans-36"/>
     <use x="1305.863281" xlink:href="#DejaVuSans-2c"/>
     <use x="1337.650391" xlink:href="#DejaVuSans-20"/>
     <use x="1369.4375" xlink:href="#DejaVuSans-38"/>
     <use x="1433.060547" xlink:href="#DejaVuSans-2c"/>
     <use x="1464.847656" xlink:href="#DejaVuSans-20"/>
     <use x="1496.634766" xlink:href="#DejaVuSans-31"/>
     <use x="1560.257812" xlink:href="#DejaVuSans-30"/>
     <use x="1623.880859" xlink:href="#DejaVuSans-2c"/>
     <use x="1655.667969" xlink:href="#DejaVuSans-20"/>
     <use x="1687.455078" xlink:href="#DejaVuSans-31"/>
     <use x="1751.078125" xlink:href="#DejaVuSans-32"/>
     <use x="1814.701172" xlink:href="#DejaVuSans-5d"/>
    </g>
   </g>
   <g id="legend_1">
    <g id="patch_7">
     <path d="M 217.087188 296.8675 
L 393.90125 296.8675 
Q 395.90125 296.8675 395.90125 294.8675 
L 395.90125 251.833125 
Q 395.90125 249.833125 393.90125 249.833125 
L 217.087188 249.833125 
Q 215.087188 249.833125 215.087188 251.833125 
L 215.087188 294.8675 
Q 215.087188 296.8675 217.087188 296.8675 
z
" style="fill:#ffffff;opacity:0.8;stroke:#cccccc;stroke-linejoin:miter;"/>
    </g>
    <g id="line2d_17">
     <path d="M 219.087188 257.931562 
L 239.087188 257.931562 
" style="fill:none;stroke:#1f77b4;stroke-linecap:square;stroke-width:1.5;"/>
    </g>
    <g id="line2d_18"/>
    <g id="text_16">
     <!-- ROC curve - 0 (AUC = 0.826) -->
     <defs>
      <path d="M 48.78125 52.59375 
L 48.78125 44.1875 
Q 44.96875 46.296875 41.140625 47.34375 
Q 37.3125 48.390625 33.40625 48.390625 
Q 24.65625 48.390625 19.8125 42.84375 
Q 14.984375 37.3125 14.984375 27.296875 
Q 14.984375 17.28125 19.8125 11.734375 
Q 24.65625 6.203125 33.40625 6.203125 
Q 37.3125 6.203125 41.140625 7.25 
Q 44.96875 8.296875 48.78125 10.40625 
L 48.78125 2.09375 
Q 45.015625 0.34375 40.984375 -0.53125 
Q 36.96875 -1.421875 32.421875 -1.421875 
Q 20.0625 -1.421875 12.78125 6.34375 
Q 5.515625 14.109375 5.515625 27.296875 
Q 5.515625 40.671875 12.859375 48.328125 
Q 20.21875 56 33.015625 56 
Q 37.15625 56 41.109375 55.140625 
Q 45.0625 54.296875 48.78125 52.59375 
" id="DejaVuSans-63"/>
      <path d="M 4.890625 31.390625 
L 31.203125 31.390625 
L 31.203125 23.390625 
L 4.890625 23.390625 
z
" id="DejaVuSans-2d"/>
      <path d="M 31 75.875 
Q 24.46875 64.65625 21.28125 53.65625 
Q 18.109375 42.671875 18.109375 31.390625 
Q 18.109375 20.125 21.3125 9.0625 
Q 24.515625 -2 31 -13.1875 
L 23.1875 -13.1875 
Q 15.875 -1.703125 12.234375 9.375 
Q 8.59375 20.453125 8.59375 31.390625 
Q 8.59375 42.28125 12.203125 53.3125 
Q 15.828125 64.359375 23.1875 75.875 
z
" id="DejaVuSans-28"/>
      <path d="M 8.6875 72.90625 
L 18.609375 72.90625 
L 18.609375 28.609375 
Q 18.609375 16.890625 22.84375 11.734375 
Q 27.09375 6.59375 36.625 6.59375 
Q 46.09375 6.59375 50.34375 11.734375 
Q 54.59375 16.890625 54.59375 28.609375 
L 54.59375 72.90625 
L 64.5 72.90625 
L 64.5 27.390625 
Q 64.5 13.140625 57.4375 5.859375 
Q 50.390625 -1.421875 36.625 -1.421875 
Q 22.796875 -1.421875 15.734375 5.859375 
Q 8.6875 13.140625 8.6875 27.390625 
z
" id="DejaVuSans-55"/>
      <path d="M 10.59375 45.40625 
L 73.1875 45.40625 
L 73.1875 37.203125 
L 10.59375 37.203125 
z
M 10.59375 25.484375 
L 73.1875 25.484375 
L 73.1875 17.1875 
L 10.59375 17.1875 
z
" id="DejaVuSans-3d"/>
      <path d="M 8.015625 75.875 
L 15.828125 75.875 
Q 23.140625 64.359375 26.78125 53.3125 
Q 30.421875 42.28125 30.421875 31.390625 
Q 30.421875 20.453125 26.78125 9.375 
Q 23.140625 -1.703125 15.828125 -13.1875 
L 8.015625 -13.1875 
Q 14.5 -2 17.703125 9.0625 
Q 20.90625 20.125 20.90625 31.390625 
Q 20.90625 42.671875 17.703125 53.65625 
Q 14.5 64.65625 8.015625 75.875 
" id="DejaVuSans-29"/>
     </defs>
     <g transform="translate(247.087188 261.431562)scale(0.1 -0.1)">
      <use xlink:href="#DejaVuSans-52"/>
      <use x="69.482422" xlink:href="#DejaVuSans-4f"/>
      <use x="148.193359" xlink:href="#DejaVuSans-43"/>
      <use x="218.017578" xlink:href="#DejaVuSans-20"/>
      <use x="249.804688" xlink:href="#DejaVuSans-63"/>
      <use x="304.785156" xlink:href="#DejaVuSans-75"/>
      <use x="368.164062" xlink:href="#DejaVuSans-72"/>
      <use x="409.277344" xlink:href="#DejaVuSans-76"/>
      <use x="468.457031" xlink:href="#DejaVuSans-65"/>
      <use x="529.980469" xlink:href="#DejaVuSans-20"/>
      <use x="561.767578" xlink:href="#DejaVuSans-2d"/>
      <use x="597.851562" xlink:href="#DejaVuSans-20"/>
      <use x="629.638672" xlink:href="#DejaVuSans-30"/>
      <use x="693.261719" xlink:href="#DejaVuSans-20"/>
      <use x="725.048828" xlink:href="#DejaVuSans-28"/>
      <use x="764.0625" xlink:href="#DejaVuSans-41"/>
      <use x="832.470703" xlink:href="#DejaVuSans-55"/>
      <use x="905.664062" xlink:href="#DejaVuSans-43"/>
      <use x="975.488281" xlink:href="#DejaVuSans-20"/>
      <use x="1007.275391" xlink:href="#DejaVuSans-3d"/>
      <use x="1091.064453" xlink:href="#DejaVuSans-20"/>
      <use x="1122.851562" xlink:href="#DejaVuSans-30"/>
      <use x="1186.474609" xlink:href="#DejaVuSans-2e"/>
      <use x="1218.261719" xlink:href="#DejaVuSans-38"/>
      <use x="1281.884766" xlink:href="#DejaVuSans-32"/>
      <use x="1345.507812" xlink:href="#DejaVuSans-36"/>
      <use x="1409.130859" xlink:href="#DejaVuSans-29"/>
     </g>
    </g>
    <g id="line2d_19">
     <path d="M 219.087188 272.609687 
L 239.087188 272.609687 
" style="fill:none;stroke:#ff7f0e;stroke-linecap:square;stroke-width:1.5;"/>
    </g>
    <g id="line2d_20"/>
    <g id="text_17">
     <!-- ROC curve - 1 (AUC = 0.817) -->
     <defs>
      <path d="M 8.203125 72.90625 
L 55.078125 72.90625 
L 55.078125 68.703125 
L 28.609375 0 
L 18.3125 0 
L 43.21875 64.59375 
L 8.203125 64.59375 
z
" id="DejaVuSans-37"/>
     </defs>
     <g transform="translate(247.087188 276.109687)scale(0.1 -0.1)">
      <use xlink:href="#DejaVuSans-52"/>
      <use x="69.482422" xlink:href="#DejaVuSans-4f"/>
      <use x="148.193359" xlink:href="#DejaVuSans-43"/>
      <use x="218.017578" xlink:href="#DejaVuSans-20"/>
      <use x="249.804688" xlink:href="#DejaVuSans-63"/>
      <use x="304.785156" xlink:href="#DejaVuSans-75"/>
      <use x="368.164062" xlink:href="#DejaVuSans-72"/>
      <use x="409.277344" xlink:href="#DejaVuSans-76"/>
      <use x="468.457031" xlink:href="#DejaVuSans-65"/>
      <use x="529.980469" xlink:href="#DejaVuSans-20"/>
      <use x="561.767578" xlink:href="#DejaVuSans-2d"/>
      <use x="597.851562" xlink:href="#DejaVuSans-20"/>
      <use x="629.638672" xlink:href="#DejaVuSans-31"/>
      <use x="693.261719" xlink:href="#DejaVuSans-20"/>
      <use x="725.048828" xlink:href="#DejaVuSans-28"/>
      <use x="764.0625" xlink:href="#DejaVuSans-41"/>
      <use x="832.470703" xlink:href="#DejaVuSans-55"/>
      <use x="905.664062" xlink:href="#DejaVuSans-43"/>
      <use x="975.488281" xlink:href="#DejaVuSans-20"/>
      <use x="1007.275391" xlink:href="#DejaVuSans-3d"/>
      <use x="1091.064453" xlink:href="#DejaVuSans-20"/>
      <use x="1122.851562" xlink:href="#DejaVuSans-30"/>
      <use x="1186.474609" xlink:href="#DejaVuSans-2e"/>
      <use x="1218.261719" xlink:href="#DejaVuSans-38"/>
      <use x="1281.884766" xlink:href="#DejaVuSans-31"/>
      <use x="1345.507812" xlink:href="#DejaVuSans-37"/>
      <use x="1409.130859" xlink:href="#DejaVuSans-29"/>
     </g>
    </g>
    <g id="line2d_21">
     <path d="M 219.087188 287.287812 
L 239.087188 287.287812 
" style="fill:none;stroke:#2ca02c;stroke-linecap:square;stroke-width:1.5;"/>
    </g>
    <g id="line2d_22"/>
    <g id="text_18">
     <!-- ROC curve - 2 (AUC = 0.812) -->
     <g transform="translate(247.087188 290.787812)scale(0.1 -0.1)">
      <use xlink:href="#DejaVuSans-52"/>
      <use x="69.482422" xlink:href="#DejaVuSans-4f"/>
      <use x="148.193359" xlink:href="#DejaVuSans-43"/>
      <use x="218.017578" xlink:href="#DejaVuSans-20"/>
      <use x="249.804688" xlink:href="#DejaVuSans-63"/>
      <use x="304.785156" xlink:href="#DejaVuSans-75"/>
      <use x="368.164062" xlink:href="#DejaVuSans-72"/>
      <use x="409.277344" xlink:href="#DejaVuSans-76"/>
      <use x="468.457031" xlink:href="#DejaVuSans-65"/>
      <use x="529.980469" xlink:href="#DejaVuSans-20"/>
      <use x="561.767578" xlink:href="#DejaVuSans-2d"/>
      <use x="597.851562" xlink:href="#DejaVuSans-20"/>
      <use x="629.638672" xlink:href="#DejaVuSans-32"/>
      <use x="693.261719" xlink:href="#DejaVuSans-20"/>
      <use x="725.048828" xlink:href="#DejaVuSans-28"/>
      <use x="764.0625" xlink:href="#DejaVuSans-41"/>
      <use x="832.470703" xlink:href="#DejaVuSans-55"/>
      <use x="905.664062" xlink:href="#DejaVuSans-43"/>
      <use x="975.488281" xlink:href="#DejaVuSans-20"/>
      <use x="1007.275391" xlink:href="#DejaVuSans-3d"/>
      <use x="1091.064453" xlink:href="#DejaVuSans-20"/>
      <use x="1122.851562" xlink:href="#DejaVuSans-30"/>
      <use x="1186.474609" xlink:href="#DejaVuSans-2e"/>
      <use x="1218.261719" xlink:href="#DejaVuSans-38"/>
      <use x="1281.884766" xlink:href="#DejaVuSans-31"/>
      <use x="1345.507812" xlink:href="#DejaVuSans-32"/>
      <use x="1409.130859" xlink:href="#DejaVuSans-29"/>
     </g>
    </g>
   </g>
  </g>
 </g>
 <defs>
  <clipPath id="pce4d6f63e4">
   <rect height="266.112" width="357.12" x="43.78125" y="35.7555"/>
  </clipPath>
 </defs>
</svg>
