<?xml version="1.0" encoding="utf-8" standalone="no"?>
<!DOCTYPE svg PUBLIC "-//W3C//DTD SVG 1.1//EN"
  "http://www.w3.org/Graphics/SVG/1.1/DTD/svg11.dtd">
<!-- Created with matplotlib (http://matplotlib.org/) -->
<svg height="339pt" version="1.1" viewBox="0 0 416 339" width="416pt" xmlns="http://www.w3.org/2000/svg" xmlns:xlink="http://www.w3.org/1999/xlink">
 <defs>
  <style type="text/css">
*{stroke-linecap:butt;stroke-linejoin:round;}
  </style>
 </defs>
 <g id="figure_1">
  <g id="patch_1">
   <path d="M 0 339.42375 
L 416.052813 339.42375 
L 416.052813 0 
L 0 0 
z
" style="fill:#ffffff;"/>
  </g>
  <g id="axes_1">
   <g id="patch_2">
    <path d="M 43.78125 301.8675 
L 400.90125 301.8675 
L 400.90125 35.7555 
L 43.78125 35.7555 
z
" style="fill:#ffffff;"/>
   </g>
   <g id="matplotlib.axis_1">
    <g id="xtick_1">
     <g id="line2d_1">
      <defs>
       <path d="M 0 0 
L 0 3.5 
" id="m7f794051c8" style="stroke:#000000;stroke-width:0.8;"/>
      </defs>
      <g>
       <use style="stroke:#000000;stroke-width:0.8;" x="43.78125" xlink:href="#m7f794051c8" y="301.8675"/>
      </g>
     </g>
     <g id="text_1">
      <!-- 0.0 -->
      <defs>
       <path d="M 31.78125 66.40625 
Q 24.171875 66.40625 20.328125 58.90625 
Q 16.5 51.421875 16.5 36.375 
Q 16.5 21.390625 20.328125 13.890625 
Q 24.171875 6.390625 31.78125 6.390625 
Q 39.453125 6.390625 43.28125 13.890625 
Q 47.125 21.390625 47.125 36.375 
Q 47.125 51.421875 43.28125 58.90625 
Q 39.453125 66.40625 31.78125 66.40625 
M 31.78125 74.21875 
Q 44.046875 74.21875 50.515625 64.515625 
Q 56.984375 54.828125 56.984375 36.375 
Q 56.984375 17.96875 50.515625 8.265625 
Q 44.046875 -1.421875 31.78125 -1.421875 
Q 19.53125 -1.421875 13.0625 8.265625 
Q 6.59375 17.96875 6.59375 36.375 
Q 6.59375 54.828125 13.0625 64.515625 
Q 19.53125 74.21875 31.78125 74.21875 
" id="DejaVuSans-30"/>
       <path d="M 10.6875 12.40625 
L 21 12.40625 
L 21 0 
L 10.6875 0 
z
" id="DejaVuSans-2e"/>
      </defs>
      <g transform="translate(35.829688 316.465937)scale(0.1 -0.1)">
       <use xlink:href="#DejaVuSans-30"/>
       <use x="63.623047" xlink:href="#DejaVuSans-2e"/>
       <use x="95.410156" xlink:href="#DejaVuSans-30"/>
      </g>
     </g>
    </g>
    <g id="xtick_2">
     <g id="line2d_2">
      <g>
       <use style="stroke:#000000;stroke-width:0.8;" x="115.20525" xlink:href="#m7f794051c8" y="301.8675"/>
      </g>
     </g>
     <g id="text_2">
      <!-- 0.2 -->
      <defs>
       <path d="M 19.1875 8.296875 
L 53.609375 8.296875 
L 53.609375 0 
L 7.328125 0 
L 7.328125 8.296875 
Q 12.9375 14.109375 22.625 23.890625 
Q 32.328125 33.6875 34.8125 36.53125 
Q 39.546875 41.84375 41.421875 45.53125 
Q 43.3125 49.21875 43.3125 52.78125 
Q 43.3125 58.59375 39.234375 62.25 
Q 35.15625 65.921875 28.609375 65.921875 
Q 23.96875 65.921875 18.8125 64.3125 
Q 13.671875 62.703125 7.8125 59.421875 
L 7.8125 69.390625 
Q 13.765625 71.78125 18.9375 73 
Q 24.125 74.21875 28.421875 74.21875 
Q 39.75 74.21875 46.484375 68.546875 
Q 53.21875 62.890625 53.21875 53.421875 
Q 53.21875 48.921875 51.53125 44.890625 
Q 49.859375 40.875 45.40625 35.40625 
Q 44.1875 33.984375 37.640625 27.21875 
Q 31.109375 20.453125 19.1875 8.296875 
" id="DejaVuSans-32"/>
      </defs>
      <g transform="translate(107.253688 316.465937)scale(0.1 -0.1)">
       <use xlink:href="#DejaVuSans-30"/>
       <use x="63.623047" xlink:href="#DejaVuSans-2e"/>
       <use x="95.410156" xlink:href="#DejaVuSans-32"/>
      </g>
     </g>
    </g>
    <g id="xtick_3">
     <g id="line2d_3">
      <g>
       <use style="stroke:#000000;stroke-width:0.8;" x="186.62925" xlink:href="#m7f794051c8" y="301.8675"/>
      </g>
     </g>
     <g id="text_3">
      <!-- 0.4 -->
      <defs>
       <path d="M 37.796875 64.3125 
L 12.890625 25.390625 
L 37.796875 25.390625 
z
M 35.203125 72.90625 
L 47.609375 72.90625 
L 47.609375 25.390625 
L 58.015625 25.390625 
L 58.015625 17.1875 
L 47.609375 17.1875 
L 47.609375 0 
L 37.796875 0 
L 37.796875 17.1875 
L 4.890625 17.1875 
L 4.890625 26.703125 
z
" id="DejaVuSans-34"/>
      </defs>
      <g transform="translate(178.677688 316.465937)scale(0.1 -0.1)">
       <use xlink:href="#DejaVuSans-30"/>
       <use x="63.623047" xlink:href="#DejaVuSans-2e"/>
       <use x="95.410156" xlink:href="#DejaVuSans-34"/>
      </g>
     </g>
    </g>
    <g id="xtick_4">
     <g id="line2d_4">
      <g>
       <use style="stroke:#000000;stroke-width:0.8;" x="258.05325" xlink:href="#m7f794051c8" y="301.8675"/>
      </g>
     </g>
     <g id="text_4">
      <!-- 0.6 -->
      <defs>
       <path d="M 33.015625 40.375 
Q 26.375 40.375 22.484375 35.828125 
Q 18.609375 31.296875 18.609375 23.390625 
Q 18.609375 15.53125 22.484375 10.953125 
Q 26.375 6.390625 33.015625 6.390625 
Q 39.65625 6.390625 43.53125 10.953125 
Q 47.40625 15.53125 47.40625 23.390625 
Q 47.40625 31.296875 43.53125 35.828125 
Q 39.65625 40.375 33.015625 40.375 
M 52.59375 71.296875 
L 52.59375 62.3125 
Q 48.875 64.0625 45.09375 64.984375 
Q 41.3125 65.921875 37.59375 65.921875 
Q 27.828125 65.921875 22.671875 59.328125 
Q 17.53125 52.734375 16.796875 39.40625 
Q 19.671875 43.65625 24.015625 45.921875 
Q 28.375 48.1875 33.59375 48.1875 
Q 44.578125 48.1875 50.953125 41.515625 
Q 57.328125 34.859375 57.328125 23.390625 
Q 57.328125 12.15625 50.6875 5.359375 
Q 44.046875 -1.421875 33.015625 -1.421875 
Q 20.359375 -1.421875 13.671875 8.265625 
Q 6.984375 17.96875 6.984375 36.375 
Q 6.984375 53.65625 15.1875 63.9375 
Q 23.390625 74.21875 37.203125 74.21875 
Q 40.921875 74.21875 44.703125 73.484375 
Q 48.484375 72.75 52.59375 71.296875 
" id="DejaVuSans-36"/>
      </defs>
      <g transform="translate(250.101688 316.465937)scale(0.1 -0.1)">
       <use xlink:href="#DejaVuSans-30"/>
       <use x="63.623047" xlink:href="#DejaVuSans-2e"/>
       <use x="95.410156" xlink:href="#DejaVuSans-36"/>
      </g>
     </g>
    </g>
    <g id="xtick_5">
     <g id="line2d_5">
      <g>
       <use style="stroke:#000000;stroke-width:0.8;" x="329.47725" xlink:href="#m7f794051c8" y="301.8675"/>
      </g>
     </g>
     <g id="text_5">
      <!-- 0.8 -->
      <defs>
       <path d="M 31.78125 34.625 
Q 24.75 34.625 20.71875 30.859375 
Q 16.703125 27.09375 16.703125 20.515625 
Q 16.703125 13.921875 20.71875 10.15625 
Q 24.75 6.390625 31.78125 6.390625 
Q 38.8125 6.390625 42.859375 10.171875 
Q 46.921875 13.96875 46.921875 20.515625 
Q 46.921875 27.09375 42.890625 30.859375 
Q 38.875 34.625 31.78125 34.625 
M 21.921875 38.8125 
Q 15.578125 40.375 12.03125 44.71875 
Q 8.5 49.078125 8.5 55.328125 
Q 8.5 64.0625 14.71875 69.140625 
Q 20.953125 74.21875 31.78125 74.21875 
Q 42.671875 74.21875 48.875 69.140625 
Q 55.078125 64.0625 55.078125 55.328125 
Q 55.078125 49.078125 51.53125 44.71875 
Q 48 40.375 41.703125 38.8125 
Q 48.828125 37.15625 52.796875 32.3125 
Q 56.78125 27.484375 56.78125 20.515625 
Q 56.78125 9.90625 50.3125 4.234375 
Q 43.84375 -1.421875 31.78125 -1.421875 
Q 19.734375 -1.421875 13.25 4.234375 
Q 6.78125 9.90625 6.78125 20.515625 
Q 6.78125 27.484375 10.78125 32.3125 
Q 14.796875 37.15625 21.921875 38.8125 
M 18.3125 54.390625 
Q 18.3125 48.734375 21.84375 45.5625 
Q 25.390625 42.390625 31.78125 42.390625 
Q 38.140625 42.390625 41.71875 45.5625 
Q 45.3125 48.734375 45.3125 54.390625 
Q 45.3125 60.0625 41.71875 63.234375 
Q 38.140625 66.40625 31.78125 66.40625 
Q 25.390625 66.40625 21.84375 63.234375 
Q 18.3125 60.0625 18.3125 54.390625 
" id="DejaVuSans-38"/>
      </defs>
      <g transform="translate(321.525688 316.465937)scale(0.1 -0.1)">
       <use xlink:href="#DejaVuSans-30"/>
       <use x="63.623047" xlink:href="#DejaVuSans-2e"/>
       <use x="95.410156" xlink:href="#DejaVuSans-38"/>
      </g>
     </g>
    </g>
    <g id="xtick_6">
     <g id="line2d_6">
      <g>
       <use style="stroke:#000000;stroke-width:0.8;" x="400.90125" xlink:href="#m7f794051c8" y="301.8675"/>
      </g>
     </g>
     <g id="text_6">
      <!-- 1.0 -->
      <defs>
       <path d="M 12.40625 8.296875 
L 28.515625 8.296875 
L 28.515625 63.921875 
L 10.984375 60.40625 
L 10.984375 69.390625 
L 28.421875 72.90625 
L 38.28125 72.90625 
L 38.28125 8.296875 
L 54.390625 8.296875 
L 54.390625 0 
L 12.40625 0 
z
" id="DejaVuSans-31"/>
      </defs>
      <g transform="translate(392.949688 316.465937)scale(0.1 -0.1)">
       <use xlink:href="#DejaVuSans-31"/>
       <use x="63.623047" xlink:href="#DejaVuSans-2e"/>
       <use x="95.410156" xlink:href="#DejaVuSans-30"/>
      </g>
     </g>
    </g>
    <g id="text_7">
     <!-- False Positive Rate -->
     <defs>
      <path d="M 9.8125 72.90625 
L 51.703125 72.90625 
L 51.703125 64.59375 
L 19.671875 64.59375 
L 19.671875 43.109375 
L 48.578125 43.109375 
L 48.578125 34.8125 
L 19.671875 34.8125 
L 19.671875 0 
L 9.8125 0 
z
" id="DejaVuSans-46"/>
      <path d="M 34.28125 27.484375 
Q 23.390625 27.484375 19.1875 25 
Q 14.984375 22.515625 14.984375 16.5 
Q 14.984375 11.71875 18.140625 8.90625 
Q 21.296875 6.109375 26.703125 6.109375 
Q 34.1875 6.109375 38.703125 11.40625 
Q 43.21875 16.703125 43.21875 25.484375 
L 43.21875 27.484375 
z
M 52.203125 31.203125 
L 52.203125 0 
L 43.21875 0 
L 43.21875 8.296875 
Q 40.140625 3.328125 35.546875 0.953125 
Q 30.953125 -1.421875 24.3125 -1.421875 
Q 15.921875 -1.421875 10.953125 3.296875 
Q 6 8.015625 6 15.921875 
Q 6 25.140625 12.171875 29.828125 
Q 18.359375 34.515625 30.609375 34.515625 
L 43.21875 34.515625 
L 43.21875 35.40625 
Q 43.21875 41.609375 39.140625 45 
Q 35.0625 48.390625 27.6875 48.390625 
Q 23 48.390625 18.546875 47.265625 
Q 14.109375 46.140625 10.015625 43.890625 
L 10.015625 52.203125 
Q 14.9375 54.109375 19.578125 55.046875 
Q 24.21875 56 28.609375 56 
Q 40.484375 56 46.34375 49.84375 
Q 52.203125 43.703125 52.203125 31.203125 
" id="DejaVuSans-61"/>
      <path d="M 9.421875 75.984375 
L 18.40625 75.984375 
L 18.40625 0 
L 9.421875 0 
z
" id="DejaVuSans-6c"/>
      <path d="M 44.28125 53.078125 
L 44.28125 44.578125 
Q 40.484375 46.53125 36.375 47.5 
Q 32.28125 48.484375 27.875 48.484375 
Q 21.1875 48.484375 17.84375 46.4375 
Q 14.5 44.390625 14.5 40.28125 
Q 14.5 37.15625 16.890625 35.375 
Q 19.28125 33.59375 26.515625 31.984375 
L 29.59375 31.296875 
Q 39.15625 29.25 43.1875 25.515625 
Q 47.21875 21.78125 47.21875 15.09375 
Q 47.21875 7.46875 41.1875 3.015625 
Q 35.15625 -1.421875 24.609375 -1.421875 
Q 20.21875 -1.421875 15.453125 -0.5625 
Q 10.6875 0.296875 5.421875 2 
L 5.421875 11.28125 
Q 10.40625 8.6875 15.234375 7.390625 
Q 20.0625 6.109375 24.8125 6.109375 
Q 31.15625 6.109375 34.5625 8.28125 
Q 37.984375 10.453125 37.984375 14.40625 
Q 37.984375 18.0625 35.515625 20.015625 
Q 33.0625 21.96875 24.703125 23.78125 
L 21.578125 24.515625 
Q 13.234375 26.265625 9.515625 29.90625 
Q 5.8125 33.546875 5.8125 39.890625 
Q 5.8125 47.609375 11.28125 51.796875 
Q 16.75 56 26.8125 56 
Q 31.78125 56 36.171875 55.265625 
Q 40.578125 54.546875 44.28125 53.078125 
" id="DejaVuSans-73"/>
      <path d="M 56.203125 29.59375 
L 56.203125 25.203125 
L 14.890625 25.203125 
Q 15.484375 15.921875 20.484375 11.0625 
Q 25.484375 6.203125 34.421875 6.203125 
Q 39.59375 6.203125 44.453125 7.46875 
Q 49.3125 8.734375 54.109375 11.28125 
L 54.109375 2.78125 
Q 49.265625 0.734375 44.1875 -0.34375 
Q 39.109375 -1.421875 33.890625 -1.421875 
Q 20.796875 -1.421875 13.15625 6.1875 
Q 5.515625 13.8125 5.515625 26.8125 
Q 5.515625 40.234375 12.765625 48.109375 
Q 20.015625 56 32.328125 56 
Q 43.359375 56 49.78125 48.890625 
Q 56.203125 41.796875 56.203125 29.59375 
M 47.21875 32.234375 
Q 47.125 39.59375 43.09375 43.984375 
Q 39.0625 48.390625 32.421875 48.390625 
Q 24.90625 48.390625 20.390625 44.140625 
Q 15.875 39.890625 15.1875 32.171875 
z
" id="DejaVuSans-65"/>
      <path id="DejaVuSans-20"/>
      <path d="M 19.671875 64.796875 
L 19.671875 37.40625 
L 32.078125 37.40625 
Q 38.96875 37.40625 42.71875 40.96875 
Q 46.484375 44.53125 46.484375 51.125 
Q 46.484375 57.671875 42.71875 61.234375 
Q 38.96875 64.796875 32.078125 64.796875 
z
M 9.8125 72.90625 
L 32.078125 72.90625 
Q 44.34375 72.90625 50.609375 67.359375 
Q 56.890625 61.8125 56.890625 51.125 
Q 56.890625 40.328125 50.609375 34.8125 
Q 44.34375 29.296875 32.078125 29.296875 
L 19.671875 29.296875 
L 19.671875 0 
L 9.8125 0 
z
" id="DejaVuSans-50"/>
      <path d="M 30.609375 48.390625 
Q 23.390625 48.390625 19.1875 42.75 
Q 14.984375 37.109375 14.984375 27.296875 
Q 14.984375 17.484375 19.15625 11.84375 
Q 23.34375 6.203125 30.609375 6.203125 
Q 37.796875 6.203125 41.984375 11.859375 
Q 46.1875 17.53125 46.1875 27.296875 
Q 46.1875 37.015625 41.984375 42.703125 
Q 37.796875 48.390625 30.609375 48.390625 
M 30.609375 56 
Q 42.328125 56 49.015625 48.375 
Q 55.71875 40.765625 55.71875 27.296875 
Q 55.71875 13.875 49.015625 6.21875 
Q 42.328125 -1.421875 30.609375 -1.421875 
Q 18.84375 -1.421875 12.171875 6.21875 
Q 5.515625 13.875 5.515625 27.296875 
Q 5.515625 40.765625 12.171875 48.375 
Q 18.84375 56 30.609375 56 
" id="DejaVuSans-6f"/>
      <path d="M 9.421875 54.6875 
L 18.40625 54.6875 
L 18.40625 0 
L 9.421875 0 
z
M 9.421875 75.984375 
L 18.40625 75.984375 
L 18.40625 64.59375 
L 9.421875 64.59375 
z
" id="DejaVuSans-69"/>
      <path d="M 18.3125 70.21875 
L 18.3125 54.6875 
L 36.8125 54.6875 
L 36.8125 47.703125 
L 18.3125 47.703125 
L 18.3125 18.015625 
Q 18.3125 11.328125 20.140625 9.421875 
Q 21.96875 7.515625 27.59375 7.515625 
L 36.8125 7.515625 
L 36.8125 0 
L 27.59375 0 
Q 17.1875 0 13.234375 3.875 
Q 9.28125 7.765625 9.28125 18.015625 
L 9.28125 47.703125 
L 2.6875 47.703125 
L 2.6875 54.6875 
L 9.28125 54.6875 
L 9.28125 70.21875 
z
" id="DejaVuSans-74"/>
      <path d="M 2.984375 54.6875 
L 12.5 54.6875 
L 29.59375 8.796875 
L 46.6875 54.6875 
L 56.203125 54.6875 
L 35.6875 0 
L 23.484375 0 
z
" id="DejaVuSans-76"/>
      <path d="M 44.390625 34.1875 
Q 47.5625 33.109375 50.5625 29.59375 
Q 53.5625 26.078125 56.59375 19.921875 
L 66.609375 0 
L 56 0 
L 46.6875 18.703125 
Q 43.0625 26.03125 39.671875 28.421875 
Q 36.28125 30.8125 30.421875 30.8125 
L 19.671875 30.8125 
L 19.671875 0 
L 9.8125 0 
L 9.8125 72.90625 
L 32.078125 72.90625 
Q 44.578125 72.90625 50.734375 67.671875 
Q 56.890625 62.453125 56.890625 51.90625 
Q 56.890625 45.015625 53.6875 40.46875 
Q 50.484375 35.9375 44.390625 34.1875 
M 19.671875 64.796875 
L 19.671875 38.921875 
L 32.078125 38.921875 
Q 39.203125 38.921875 42.84375 42.21875 
Q 46.484375 45.515625 46.484375 51.90625 
Q 46.484375 58.296875 42.84375 61.546875 
Q 39.203125 64.796875 32.078125 64.796875 
z
" id="DejaVuSans-52"/>
     </defs>
     <g transform="translate(175.135781 330.144062)scale(0.1 -0.1)">
      <use xlink:href="#DejaVuSans-46"/>
      <use x="57.378906" xlink:href="#DejaVuSans-61"/>
      <use x="118.658203" xlink:href="#DejaVuSans-6c"/>
      <use x="146.441406" xlink:href="#DejaVuSans-73"/>
      <use x="198.541016" xlink:href="#DejaVuSans-65"/>
      <use x="260.064453" xlink:href="#DejaVuSans-20"/>
      <use x="291.851562" xlink:href="#DejaVuSans-50"/>
      <use x="352.107422" xlink:href="#DejaVuSans-6f"/>
      <use x="413.289062" xlink:href="#DejaVuSans-73"/>
      <use x="465.388672" xlink:href="#DejaVuSans-69"/>
      <use x="493.171875" xlink:href="#DejaVuSans-74"/>
      <use x="532.380859" xlink:href="#DejaVuSans-69"/>
      <use x="560.164062" xlink:href="#DejaVuSans-76"/>
      <use x="619.34375" xlink:href="#DejaVuSans-65"/>
      <use x="680.867188" xlink:href="#DejaVuSans-20"/>
      <use x="712.654297" xlink:href="#DejaVuSans-52"/>
      <use x="782.105469" xlink:href="#DejaVuSans-61"/>
      <use x="843.384766" xlink:href="#DejaVuSans-74"/>
      <use x="882.59375" xlink:href="#DejaVuSans-65"/>
     </g>
    </g>
   </g>
   <g id="matplotlib.axis_2">
    <g id="ytick_1">
     <g id="line2d_7">
      <defs>
       <path d="M 0 0 
L -3.5 0 
" id="m883ad7b9ec" style="stroke:#000000;stroke-width:0.8;"/>
      </defs>
      <g>
       <use style="stroke:#000000;stroke-width:0.8;" x="43.78125" xlink:href="#m883ad7b9ec" y="301.8675"/>
      </g>
     </g>
     <g id="text_8">
      <!-- 0.0 -->
      <g transform="translate(20.878125 305.666719)scale(0.1 -0.1)">
       <use xlink:href="#DejaVuSans-30"/>
       <use x="63.623047" xlink:href="#DejaVuSans-2e"/>
       <use x="95.410156" xlink:href="#DejaVuSans-30"/>
      </g>
     </g>
    </g>
    <g id="ytick_2">
     <g id="line2d_8">
      <g>
       <use style="stroke:#000000;stroke-width:0.8;" x="43.78125" xlink:href="#m883ad7b9ec" y="251.1795"/>
      </g>
     </g>
     <g id="text_9">
      <!-- 0.2 -->
      <g transform="translate(20.878125 254.978719)scale(0.1 -0.1)">
       <use xlink:href="#DejaVuSans-30"/>
       <use x="63.623047" xlink:href="#DejaVuSans-2e"/>
       <use x="95.410156" xlink:href="#DejaVuSans-32"/>
      </g>
     </g>
    </g>
    <g id="ytick_3">
     <g id="line2d_9">
      <g>
       <use style="stroke:#000000;stroke-width:0.8;" x="43.78125" xlink:href="#m883ad7b9ec" y="200.4915"/>
      </g>
     </g>
     <g id="text_10">
      <!-- 0.4 -->
      <g transform="translate(20.878125 204.290719)scale(0.1 -0.1)">
       <use xlink:href="#DejaVuSans-30"/>
       <use x="63.623047" xlink:href="#DejaVuSans-2e"/>
       <use x="95.410156" xlink:href="#DejaVuSans-34"/>
      </g>
     </g>
    </g>
    <g id="ytick_4">
     <g id="line2d_10">
      <g>
       <use style="stroke:#000000;stroke-width:0.8;" x="43.78125" xlink:href="#m883ad7b9ec" y="149.8035"/>
      </g>
     </g>
     <g id="text_11">
      <!-- 0.6 -->
      <g transform="translate(20.878125 153.602719)scale(0.1 -0.1)">
       <use xlink:href="#DejaVuSans-30"/>
       <use x="63.623047" xlink:href="#DejaVuSans-2e"/>
       <use x="95.410156" xlink:href="#DejaVuSans-36"/>
      </g>
     </g>
    </g>
    <g id="ytick_5">
     <g id="line2d_11">
      <g>
       <use style="stroke:#000000;stroke-width:0.8;" x="43.78125" xlink:href="#m883ad7b9ec" y="99.1155"/>
      </g>
     </g>
     <g id="text_12">
      <!-- 0.8 -->
      <g transform="translate(20.878125 102.914719)scale(0.1 -0.1)">
       <use xlink:href="#DejaVuSans-30"/>
       <use x="63.623047" xlink:href="#DejaVuSans-2e"/>
       <use x="95.410156" xlink:href="#DejaVuSans-38"/>
      </g>
     </g>
    </g>
    <g id="ytick_6">
     <g id="line2d_12">
      <g>
       <use style="stroke:#000000;stroke-width:0.8;" x="43.78125" xlink:href="#m883ad7b9ec" y="48.4275"/>
      </g>
     </g>
     <g id="text_13">
      <!-- 1.0 -->
      <g transform="translate(20.878125 52.226719)scale(0.1 -0.1)">
       <use xlink:href="#DejaVuSans-31"/>
       <use x="63.623047" xlink:href="#DejaVuSans-2e"/>
       <use x="95.410156" xlink:href="#DejaVuSans-30"/>
      </g>
     </g>
    </g>
    <g id="text_14">
     <!-- True Positive Rate -->
     <defs>
      <path d="M -0.296875 72.90625 
L 61.375 72.90625 
L 61.375 64.59375 
L 35.5 64.59375 
L 35.5 0 
L 25.59375 0 
L 25.59375 64.59375 
L -0.296875 64.59375 
z
" id="DejaVuSans-54"/>
      <path d="M 41.109375 46.296875 
Q 39.59375 47.171875 37.8125 47.578125 
Q 36.03125 48 33.890625 48 
Q 26.265625 48 22.1875 43.046875 
Q 18.109375 38.09375 18.109375 28.8125 
L 18.109375 0 
L 9.078125 0 
L 9.078125 54.6875 
L 18.109375 54.6875 
L 18.109375 46.1875 
Q 20.953125 51.171875 25.484375 53.578125 
Q 30.03125 56 36.53125 56 
Q 37.453125 56 38.578125 55.875 
Q 39.703125 55.765625 41.0625 55.515625 
z
" id="DejaVuSans-72"/>
      <path d="M 8.5 21.578125 
L 8.5 54.6875 
L 17.484375 54.6875 
L 17.484375 21.921875 
Q 17.484375 14.15625 20.5 10.265625 
Q 23.53125 6.390625 29.59375 6.390625 
Q 36.859375 6.390625 41.078125 11.03125 
Q 45.3125 15.671875 45.3125 23.6875 
L 45.3125 54.6875 
L 54.296875 54.6875 
L 54.296875 0 
L 45.3125 0 
L 45.3125 8.40625 
Q 42.046875 3.421875 37.71875 1 
Q 33.40625 -1.421875 27.6875 -1.421875 
Q 18.265625 -1.421875 13.375 4.4375 
Q 8.5 10.296875 8.5 21.578125 
M 31.109375 56 
z
" id="DejaVuSans-75"/>
     </defs>
     <g transform="translate(14.798438 214.357594)rotate(-90)scale(0.1 -0.1)">
      <use xlink:href="#DejaVuSans-54"/>
      <use x="60.865234" xlink:href="#DejaVuSans-72"/>
      <use x="101.978516" xlink:href="#DejaVuSans-75"/>
      <use x="165.357422" xlink:href="#DejaVuSans-65"/>
      <use x="226.880859" xlink:href="#DejaVuSans-20"/>
      <use x="258.667969" xlink:href="#DejaVuSans-50"/>
      <use x="318.923828" xlink:href="#DejaVuSans-6f"/>
      <use x="380.105469" xlink:href="#DejaVuSans-73"/>
      <use x="432.205078" xlink:href="#DejaVuSans-69"/>
      <use x="459.988281" xlink:href="#DejaVuSans-74"/>
      <use x="499.197266" xlink:href="#DejaVuSans-69"/>
      <use x="526.980469" xlink:href="#DejaVuSans-76"/>
      <use x="586.160156" xlink:href="#DejaVuSans-65"/>
      <use x="647.683594" xlink:href="#DejaVuSans-20"/>
      <use x="679.470703" xlink:href="#DejaVuSans-52"/>
      <use x="748.921875" xlink:href="#DejaVuSans-61"/>
      <use x="810.201172" xlink:href="#DejaVuSans-74"/>
      <use x="849.410156" xlink:href="#DejaVuSans-65"/>
     </g>
    </g>
   </g>
   <g id="line2d_13">
    <path clip-path="url(#p504b13baa4)" d="M 43.78125 301.8675 
L 43.858473 301.8675 
L 44.387454 294.406303 
L 45.846978 275.873654 
L 45.904896 275.873654 
L 46.175178 272.263397 
L 46.352792 271.300662 
L 46.457044 266.968355 
L 46.680992 264.08015 
L 46.719604 264.08015 
L 46.885634 262.395363 
L 47.078693 262.395363 
L 47.252446 261.191944 
L 47.306502 259.025791 
L 47.572923 256.137585 
L 47.750537 255.17485 
L 50.040213 239.77109 
L 50.117437 239.77109 
L 50.484248 238.567671 
L 50.619389 238.567671 
L 50.816309 237.604936 
L 50.932145 237.604936 
L 51.075008 236.882885 
L 51.190843 236.882885 
L 51.333707 236.160833 
L 51.41093 236.160833 
L 51.546071 233.753996 
L 51.681212 233.753996 
L 51.785464 231.347158 
L 51.858826 231.106474 
L 51.939911 229.662372 
L 52.13297 229.662372 
L 52.314445 226.052115 
L 52.410974 226.052115 
L 52.546115 225.08938 
L 52.739174 225.08938 
L 52.897482 224.126645 
L 52.9554 224.126645 
L 53.183209 220.997756 
L 53.337656 220.997756 
L 54.329978 207.038098 
L 54.387895 207.038098 
L 54.465119 203.427842 
L 54.542342 203.427842 
L 54.642733 202.465107 
L 54.739262 202.465107 
L 54.905293 199.576902 
L 55.079046 198.373483 
L 55.252798 198.373483 
L 55.441996 195.725962 
L 55.635055 195.725962 
L 55.754751 193.559808 
L 55.831975 193.559808 
L 57.0328 182.488355 
L 57.303082 182.488355 
L 57.403473 181.52562 
L 57.646726 181.044252 
L 57.893842 178.396731 
L 58.028983 178.396731 
L 58.110067 177.433996 
L 59.110111 174.786474 
L 59.252975 172.861004 
L 59.677704 172.861004 
L 59.855318 169.491432 
L 59.913236 169.491432 
L 59.963431 169.010064 
L 60.117878 169.010064 
L 60.631414 162.511603 
L 60.959614 162.511603 
L 61.191284 158.419979 
L 61.500178 154.809722 
L 61.693237 154.809722 
L 61.785905 153.36562 
L 61.921046 153.36562 
L 62.133411 148.551944 
L 62.249246 148.551944 
L 62.430721 146.626474 
L 62.836145 146.626474 
L 63.094843 144.701004 
L 63.168206 144.460321 
L 63.24929 143.497585 
L 63.886384 143.497585 
L 64.044692 141.331432 
L 64.10261 141.331432 
L 64.226167 140.60938 
L 64.303391 140.60938 
L 64.473282 138.68391 
L 64.685647 138.68391 
L 64.836233 137.239808 
L 65.12196 134.592286 
L 65.237795 134.592286 
L 65.268684 134.110919 
L 65.461743 134.110919 
L 65.728164 130.259979 
L 65.959834 130.259979 
L 66.172199 127.853141 
L 66.210811 127.853141 
L 66.392286 125.927671 
L 66.759098 125.927671 
L 67.044824 120.873312 
L 67.16066 120.873312 
L 67.299662 119.910577 
L 67.666473 119.910577 
L 67.797753 118.466474 
L 67.894283 118.466474 
L 67.998534 117.744423 
L 68.230205 117.744423 
L 68.319012 117.263056 
L 68.898188 117.263056 
L 69.164609 114.615534 
L 69.357668 114.615534 
L 69.527559 113.171432 
L 70.106736 113.171432 
L 70.249599 111.245962 
L 71.002528 111.245962 
L 71.249643 109.801859 
L 71.346172 109.801859 
L 71.446563 108.839124 
L 71.485175 108.839124 
L 71.508342 107.876389 
L 71.778624 107.876389 
L 71.809513 107.395021 
L 71.925349 107.395021 
L 72.087518 106.67297 
L 72.531553 106.67297 
L 72.639666 106.191603 
L 72.828863 102.340662 
L 73.021922 102.340662 
L 73.091423 101.859295 
L 73.207258 101.859295 
L 73.346261 99.693141 
L 73.462096 99.693141 
L 73.550903 99.211774 
L 73.686044 99.211774 
L 73.790296 98.489722 
L 74.079884 98.489722 
L 74.207303 98.008355 
L 74.303832 98.008355 
L 74.539364 95.842201 
L 75.523963 95.842201 
L 75.632076 95.360833 
L 75.747911 95.360833 
L 75.91008 92.231944 
L 76.991209 92.231944 
L 77.172684 91.509893 
L 77.269214 91.509893 
L 77.500884 90.306474 
L 79.593641 90.306474 
L 79.721059 89.825107 
L 79.8562 89.825107 
L 79.917979 88.381004 
L 80.497155 88.381004 
L 80.632296 87.177585 
L 82.25399 87.177585 
L 82.454771 85.252115 
L 83.67104 85.252115 
L 83.856377 84.770748 
L 85.489654 84.770748 
L 85.520543 84.28938 
L 85.829437 84.28938 
L 85.93755 83.808013 
L 87.559243 83.808013 
L 87.71369 82.604594 
L 88.022584 82.604594 
L 88.200198 81.882543 
L 88.528398 81.882543 
L 88.729179 80.679124 
L 89.482108 80.679124 
L 89.644277 78.753654 
L 90.3779 78.753654 
L 90.567098 78.51297 
L 90.605709 78.51297 
L 90.733128 78.031603 
L 90.887575 78.031603 
L 90.960937 77.790919 
L 91.007271 77.068868 
L 91.181024 77.068868 
L 91.285276 76.346816 
L 91.439723 76.346816 
L 91.551697 76.106132 
L 92.54788 76.106132 
L 92.636687 75.624765 
L 93.563369 75.624765 
L 93.629009 74.902714 
L 93.860679 74.902714 
L 93.934041 73.458611 
L 94.918641 73.458611 
L 95.003587 72.73656 
L 97.551962 72.73656 
L 97.656213 72.014509 
L 99.470965 72.014509 
L 99.598384 71.533141 
L 103.814786 71.533141 
L 103.845676 71.051774 
L 104.212487 71.051774 
L 104.243377 70.570406 
L 104.841858 70.570406 
L 104.872748 70.089038 
L 105.741512 70.089038 
L 105.957738 69.126303 
L 106.285938 69.126303 
L 106.428801 68.404252 
L 107.432706 68.404252 
L 107.506069 68.163568 
L 109.262903 68.163568 
L 109.367155 67.441517 
L 111.123989 67.441517 
L 111.216657 67.200833 
L 113.92334 67.200833 
L 114.05462 66.96015 
L 114.286291 66.96015 
L 114.409848 66.238098 
L 114.660824 66.238098 
L 117.514232 65.997415 
L 122.224865 65.997415 
L 122.352283 65.516047 
L 125.170941 65.516047 
L 125.282915 65.275363 
L 125.437362 65.275363 
L 126.618881 64.793996 
L 131.90869 64.793996 
L 132.059275 64.553312 
L 134.009168 64.553312 
L 134.063225 64.312628 
L 136.823964 64.312628 
L 136.97455 64.071944 
L 139.484313 64.071944 
L 139.615593 63.831261 
L 142.723838 63.831261 
L 142.770172 63.109209 
L 146.592735 63.109209 
L 146.820544 62.868526 
L 148.558073 62.868526 
L 148.612129 62.627842 
L 154.013912 62.627842 
L 154.10658 62.387158 
L 154.743674 62.387158 
L 155.048706 62.146474 
L 155.820941 62.146474 
L 155.874998 61.905791 
L 157.129879 61.905791 
L 157.222547 61.665107 
L 160.002593 61.665107 
L 160.19179 61.424423 
L 163.338647 61.424423 
L 168.060863 60.943056 
L 180.366425 60.943056 
L 180.459094 60.702372 
L 183.992068 60.702372 
L 184.142654 60.461688 
L 185.482481 60.461688 
L 185.633067 60.221004 
L 192.865046 60.221004 
L 192.973159 59.739637 
L 193.533029 59.739637 
L 193.637281 59.017585 
L 199.062231 59.017585 
L 199.193511 58.776902 
L 201.413686 58.776902 
L 202.367396 58.05485 
L 202.599066 58.05485 
L 202.749652 57.814167 
L 204.950521 57.814167 
L 206.035511 56.610748 
L 206.151347 56.610748 
L 206.274904 55.888697 
L 210.580113 55.888697 
L 210.692087 55.648013 
L 213.827361 55.648013 
L 213.877556 55.166645 
L 214.244368 55.166645 
L 214.77721 54.685278 
L 218.078514 54.685278 
L 218.229099 54.444594 
L 221.762074 54.444594 
L 221.796824 54.20391 
L 222.897259 54.20391 
L 223.109624 53.963226 
L 226.275786 53.963226 
L 228.534573 53.241175 
L 228.669714 53.241175 
L 228.723771 53.000491 
L 230.349325 53.000491 
L 230.441993 52.759808 
L 233.839827 52.759808 
L 235.090847 52.27844 
L 237.233799 52.27844 
L 238.357401 51.556389 
L 241.832457 51.556389 
L 241.944431 51.315705 
L 243.315148 51.315705 
L 243.369205 51.075021 
L 252.493159 51.075021 
L 252.547216 50.834338 
L 258.25017 50.834338 
L 258.532036 50.593654 
L 259.053294 50.593654 
L 259.23863 50.112286 
L 264.49755 50.112286 
L 264.841194 49.871603 
L 271.084713 49.871603 
L 271.235299 49.630919 
L 273.938121 49.630919 
L 274.146624 49.390235 
L 278.741421 49.390235 
L 278.834089 49.149551 
L 279.316736 49.149551 
L 279.467322 48.908868 
L 294.618569 48.908868 
L 294.668765 48.4275 
L 400.90125 48.4275 
L 400.90125 48.4275 
" style="fill:none;stroke:#1f77b4;stroke-linecap:square;stroke-width:1.5;"/>
   </g>
   <g id="line2d_14">
    <path clip-path="url(#p504b13baa4)" d="M 43.78125 301.8675 
L 43.819862 301.8675 
L 43.858474 301.8675 
L 44.082425 299.460662 
L 44.333404 299.460662 
L 44.472408 297.294509 
L 44.66933 296.331774 
L 44.804472 296.331774 
L 44.935754 294.887671 
L 45.001394 294.16562 
L 45.136537 294.16562 
L 47.229316 278.521175 
L 47.267928 278.521175 
L 47.642466 276.595705 
L 47.661772 276.595705 
L 49.503572 269.615876 
L 49.542184 269.615876 
L 49.557629 269.375192 
L 49.712078 269.375192 
L 49.839498 268.893825 
L 51.577045 256.137585 
L 51.654269 256.137585 
L 51.766245 254.693483 
L 52.055836 254.693483 
L 52.349288 253.24938 
L 52.3879 253.24938 
L 54.148615 245.066132 
L 54.314647 243.381346 
L 54.472957 242.418611 
L 54.492263 242.418611 
L 54.67374 241.69656 
L 54.712352 241.69656 
L 54.723936 241.215192 
L 54.916997 241.215192 
L 55.152531 240.252457 
L 55.191143 240.252457 
L 55.364898 237.84562 
L 55.40351 237.84562 
L 55.56182 236.882885 
L 55.619738 236.882885 
L 55.762603 236.160833 
L 55.81666 235.92015 
L 56.654544 228.218269 
L 56.967302 224.848697 
L 57.025221 224.848697 
L 57.226004 222.923226 
L 57.365008 221.960491 
L 57.484705 219.794338 
L 57.639154 219.794338 
L 57.673905 219.553654 
L 58.728017 215.221346 
L 58.847715 213.295876 
L 59.210669 209.204252 
L 59.249281 209.204252 
L 59.284032 208.963568 
L 59.496399 208.963568 
L 59.558178 208.000833 
L 59.758962 206.075363 
L 59.855492 206.075363 
L 60.013802 205.112628 
L 60.07172 205.112628 
L 60.195279 204.390577 
L 60.272503 204.390577 
L 60.616151 201.743056 
L 60.677931 200.780321 
L 60.793767 200.780321 
L 61.836296 193.07844 
L 61.948271 191.634338 
L 62.083414 191.634338 
L 62.264891 190.912286 
L 62.303503 190.912286 
L 62.427062 190.190235 
L 62.465674 190.190235 
L 62.6124 188.505449 
L 62.689624 188.505449 
L 62.847934 187.542714 
L 62.95991 187.30203 
L 63.05644 187.30203 
L 63.195444 185.37656 
L 63.264946 185.37656 
L 63.384643 184.413825 
L 63.46959 184.413825 
L 63.720569 182.006987 
L 63.759181 182.006987 
L 63.932936 180.803568 
L 63.971548 180.803568 
L 64.122136 178.156047 
L 64.160748 178.156047 
L 64.307474 176.471261 
L 64.604788 173.342372 
L 64.6434 173.342372 
L 64.747652 172.620321 
L 64.824877 172.620321 
L 64.925268 171.657585 
L 65.060411 171.657585 
L 65.272778 169.491432 
L 65.31139 169.491432 
L 65.380892 169.010064 
L 65.543063 166.603226 
L 65.697512 166.603226 
L 65.859683 165.881175 
L 65.956213 165.881175 
L 66.060466 163.955705 
L 66.13769 163.955705 
L 66.311445 162.752286 
L 66.388669 162.752286 
L 66.543118 161.789551 
L 66.658954 161.789551 
L 66.736179 160.586132 
L 66.929239 160.586132 
L 67.068243 159.623397 
L 67.241998 159.623397 
L 67.462087 157.697927 
L 67.520006 157.697927 
L 67.662871 156.975876 
L 67.682177 156.975876 
L 67.825042 156.253825 
L 68.056715 156.253825 
L 68.253637 155.29109 
L 68.311555 155.29109 
L 68.450559 154.809722 
L 68.527783 154.809722 
L 68.655203 154.328355 
L 68.713121 154.328355 
L 68.848264 153.124936 
L 69.222802 151.199466 
L 69.423585 149.273996 
L 69.500809 149.273996 
L 69.705454 147.589209 
L 69.763372 147.589209 
L 70.006629 147.107842 
L 70.161077 147.107842 
L 70.261469 146.145107 
L 70.415917 146.145107 
L 70.52017 145.423056 
L 70.558782 145.423056 
L 70.574227 145.182372 
L 71.037573 145.182372 
L 71.161132 144.460321 
L 71.423695 144.460321 
L 71.497058 144.219637 
L 71.574282 144.219637 
L 71.717147 143.497585 
L 71.794372 143.497585 
L 72.134159 141.812799 
L 72.172771 141.812799 
L 72.284746 141.572115 
L 72.400582 141.572115 
L 72.686312 140.128013 
L 72.744231 140.128013 
L 72.86779 139.405962 
L 73.157381 139.405962 
L 73.257772 138.443226 
L 73.296385 138.443226 
L 73.470139 137.239808 
L 73.508751 137.239808 
L 73.705673 135.073654 
L 73.782898 135.073654 
L 74.002987 133.148184 
L 74.060905 133.148184 
L 74.184464 131.222714 
L 74.358219 131.222714 
L 74.485639 129.537927 
L 74.717312 129.537927 
L 74.83701 128.575192 
L 75.300356 128.575192 
L 75.331245 128.093825 
L 75.505 128.093825 
L 75.616975 127.853141 
L 75.655587 127.853141 
L 75.779146 127.13109 
L 76.327439 124.002201 
L 76.597724 124.002201 
L 76.983846 122.076731 
L 77.118988 122.076731 
L 77.25027 120.632628 
L 77.416302 120.151261 
L 77.47422 120.151261 
L 77.563028 119.669893 
L 77.756089 119.669893 
L 77.82173 118.947842 
L 78.053403 118.947842 
L 78.192406 117.985107 
L 78.269631 117.985107 
L 78.397051 117.503739 
L 78.470414 117.503739 
L 78.682781 116.781688 
L 78.875842 116.781688 
L 78.987817 115.818953 
L 79.142265 115.818953 
L 79.288992 114.134167 
L 79.385522 114.134167 
L 79.478191 113.893483 
L 79.536109 113.893483 
L 79.605611 113.412115 
L 79.817978 113.412115 
L 80.219545 111.968013 
L 80.316075 111.968013 
L 80.447356 111.727329 
L 80.852784 111.727329 
L 80.984065 111.486645 
L 81.15782 111.486645 
L 81.358603 110.764594 
L 81.397216 110.764594 
L 81.582554 109.561175 
L 81.621166 109.561175 
L 81.752447 109.320491 
L 81.88759 109.320491 
L 81.949369 108.357756 
L 82.215793 108.357756 
L 82.308463 108.117073 
L 82.675278 108.117073 
L 82.806559 107.876389 
L 83.563358 107.876389 
L 83.675333 107.635705 
L 83.868394 107.635705 
L 83.980369 107.395021 
L 84.057593 107.395021 
L 84.092344 107.154338 
L 84.208181 107.154338 
L 84.381935 105.950919 
L 84.439854 105.950919 
L 84.594302 104.7475 
L 84.690833 104.7475 
L 84.833698 104.025449 
L 85.103983 104.025449 
L 85.277738 102.82203 
L 85.41288 102.82203 
L 85.536439 102.099979 
L 85.594357 102.099979 
L 85.768112 100.89656 
L 86.540355 100.89656 
L 86.65233 100.655876 
L 86.690943 100.655876 
L 86.783612 100.415192 
L 86.880142 100.415192 
L 86.99984 99.452457 
L 87.347349 99.452457 
L 87.467047 98.489722 
L 87.544271 98.489722 
L 87.864752 96.804936 
L 88.135037 96.804936 
L 88.258596 96.082885 
L 88.386016 95.601517 
L 88.443935 95.601517 
L 88.478686 95.360833 
L 88.729665 95.360833 
L 88.760554 94.879466 
L 89.455573 94.879466 
L 89.610022 93.676047 
L 89.66794 93.676047 
L 89.787638 92.713312 
L 89.845556 92.713312 
L 89.957531 92.472628 
L 90.343653 92.472628 
L 90.413155 91.991261 
L 91.22401 91.991261 
L 91.38232 91.509893 
L 91.942196 91.509893 
L 92.054172 91.269209 
L 92.74919 91.269209 
L 92.857304 90.787842 
L 93.146896 90.787842 
L 93.189369 89.825107 
L 93.440348 89.825107 
L 93.614103 88.621688 
L 93.787857 88.621688 
L 93.915278 88.140321 
L 93.973196 88.140321 
L 94.042698 87.658953 
L 94.409513 87.658953 
L 94.583268 86.455534 
L 94.718411 86.455534 
L 94.834247 85.252115 
L 94.96939 85.252115 
L 95.428874 85.011432 
L 95.660547 85.011432 
L 95.780245 84.048697 
L 96.166367 84.048697 
L 96.259036 83.808013 
L 96.87683 83.808013 
L 96.950193 83.567329 
L 97.123948 83.567329 
L 97.208895 82.845278 
L 98.405872 82.845278 
L 98.537153 82.604594 
L 98.730214 82.604594 
L 98.880801 82.36391 
L 100.085501 82.36391 
L 100.193615 81.882543 
L 100.290145 81.882543 
L 100.398259 81.401175 
L 102.193725 81.401175 
L 102.359757 80.919808 
L 102.552818 80.919808 
L 102.641626 80.43844 
L 102.757462 80.43844 
L 102.850131 80.197756 
L 102.946662 80.197756 
L 103.089527 79.475705 
L 103.243975 79.475705 
L 103.60693 79.235021 
L 104.328977 79.235021 
L 104.440952 78.994338 
L 104.460258 78.994338 
L 104.587678 78.51297 
L 105.885047 78.51297 
L 105.993161 78.031603 
L 106.456507 78.031603 
L 106.583927 77.550235 
L 108.012577 77.550235 
L 108.124552 77.309551 
L 108.43345 77.309551 
L 108.545425 77.068868 
L 108.584037 77.068868 
L 108.634233 76.5875 
L 108.730763 76.5875 
L 108.842738 76.346816 
L 109.22886 76.346816 
L 109.244305 76.106132 
L 110.113078 76.106132 
L 110.240499 75.624765 
L 110.317723 75.624765 
L 110.445143 75.143397 
L 111.873793 75.143397 
L 111.889238 74.902714 
L 112.005074 74.902714 
L 112.113188 74.421346 
L 112.344861 74.421346 
L 112.360306 74.180662 
L 112.534061 74.180662 
L 112.607424 73.939979 
L 113.997462 73.939979 
L 114.032213 73.699295 
L 115.657785 73.699295 
L 115.76976 73.458611 
L 118.298856 73.458611 
L 118.391525 73.217927 
L 120.129073 73.217927 
L 120.241048 72.977244 
L 120.260354 72.977244 
L 120.403219 72.255192 
L 120.519055 72.255192 
L 120.611725 72.014509 
L 121.383968 72.014509 
L 121.495943 71.773825 
L 121.573167 71.773825 
L 121.665836 71.533141 
L 121.858897 71.533141 
L 121.970873 71.292457 
L 122.144627 71.292457 
L 122.353133 71.051774 
L 122.445802 70.81109 
L 122.812618 70.81109 
L 122.924593 70.570406 
L 122.963205 70.570406 
L 123.055874 70.329722 
L 123.133099 70.329722 
L 123.148543 70.089038 
L 123.862868 70.089038 
L 123.955538 69.848355 
L 124.573332 69.848355 
L 124.700752 69.366987 
L 125.086874 69.366987 
L 125.102319 69.126303 
L 126.02901 69.126303 
L 128.496327 68.88562 
L 128.608303 68.644936 
L 131.376795 68.644936 
L 131.469464 68.404252 
L 131.93281 68.404252 
L 131.948255 68.163568 
L 132.604661 68.163568 
L 132.693469 67.682201 
L 133.465712 67.682201 
L 133.577688 67.441517 
L 133.635606 67.441517 
L 133.747581 67.200833 
L 138.620436 67.200833 
L 138.713105 66.96015 
L 139.234369 66.96015 
L 139.327038 66.719466 
L 142.22295 66.719466 
L 142.257701 66.478782 
L 143.126475 66.478782 
L 143.180532 66.238098 
L 144.531957 66.238098 
L 144.663239 65.997415 
L 144.817687 65.997415 
L 144.991442 64.793996 
L 145.840909 64.793996 
L 145.894966 64.553312 
L 146.3197 64.553312 
L 146.431675 64.312628 
L 149.485897 64.312628 
L 149.520648 64.071944 
L 150.852768 64.071944 
L 150.926131 63.831261 
L 152.316169 63.831261 
L 152.408838 63.590577 
L 152.640511 63.590577 
L 152.752486 63.349893 
L 153.042077 63.349893 
L 153.154052 63.109209 
L 155.215942 63.109209 
L 155.327917 62.868526 
L 155.771957 62.868526 
L 155.883932 62.627842 
L 156.347278 62.627842 
L 156.741122 61.905791 
L 157.957405 61.905791 
L 158.030768 61.665107 
L 159.285663 61.665107 
L 159.301108 61.424423 
L 162.95768 61.424423 
L 163.417164 61.183739 
L 166.911565 61.183739 
L 167.004234 60.943056 
L 167.660641 60.943056 
L 167.865285 60.461688 
L 171.823031 60.461688 
L 171.896395 60.221004 
L 172.35974 60.221004 
L 173.155151 59.258269 
L 173.483354 59.258269 
L 173.59533 59.017585 
L 173.981451 59.017585 
L 175.749888 58.536218 
L 175.885031 58.536218 
L 176.711331 58.295534 
L 178.661245 58.05485 
L 182.785023 58.05485 
L 184.209812 57.814167 
L 184.383567 57.814167 
L 184.495542 57.573483 
L 186.252395 57.573483 
L 187.572931 56.851432 
L 190.179252 56.851432 
L 191.588596 56.370064 
L 192.148472 56.370064 
L 192.260447 56.12938 
L 193.47673 56.12938 
L 193.588706 55.888697 
L 195.770293 55.888697 
L 195.901574 55.648013 
L 202.793844 55.648013 
L 203.527475 54.444594 
L 203.643312 54.444594 
L 205.133741 53.481859 
L 208.060543 53.481859 
L 209.720866 53.241175 
L 210.531721 53.241175 
L 210.643696 53.000491 
L 212.979732 53.000491 
L 213.242295 52.759808 
L 215.423882 52.759808 
L 215.535857 52.519124 
L 216.192264 52.519124 
L 217.574579 52.037756 
L 220.605633 52.037756 
L 220.717609 51.797073 
L 231.007749 51.797073 
L 231.119724 51.556389 
L 231.293479 51.556389 
L 231.467234 51.315705 
L 232.355314 51.315705 
L 232.467289 51.075021 
L 233.451899 51.075021 
L 233.467344 50.834338 
L 234.548484 50.834338 
L 234.583235 50.593654 
L 239.942603 50.593654 
L 240.035272 50.35297 
L 246.76151 50.35297 
L 248.452723 50.112286 
L 251.043599 50.112286 
L 251.17488 49.871603 
L 253.352606 49.871603 
L 253.464581 49.630919 
L 273.662602 49.630919 
L 273.755271 49.390235 
L 281.296225 49.390235 
L 281.369589 49.149551 
L 285.956713 49.149551 
L 286.068688 48.908868 
L 287.632481 48.908868 
L 288.315916 48.4275 
L 400.90125 48.4275 
L 400.90125 48.4275 
" style="fill:none;stroke:#ff7f0e;stroke-linecap:square;stroke-width:1.5;"/>
   </g>
   <g id="line2d_15">
    <path clip-path="url(#p504b13baa4)" d="M 43.78125 301.8675 
L 43.916393 301.8675 
L 44.148066 298.257244 
L 44.22529 298.257244 
L 44.325681 294.887671 
L 44.769721 294.887671 
L 44.816056 294.16562 
L 47.472572 271.541346 
L 47.704245 271.541346 
L 47.812359 271.059979 
L 47.935918 269.134509 
L 48.017004 268.171774 
L 48.171453 264.561517 
L 48.248677 264.561517 
L 50.376207 252.286645 
L 50.820247 251.083226 
L 50.897471 251.083226 
L 51.121421 248.195021 
L 51.333788 248.195021 
L 51.646547 243.62203 
L 51.7508 242.899979 
L 51.84733 242.899979 
L 51.970889 242.177927 
L 52.009501 242.177927 
L 52.399484 240.011774 
L 52.51532 240.011774 
L 52.758577 239.530406 
L 52.874414 238.326987 
L 53.106086 238.326987 
L 54.279896 232.069209 
L 54.337814 232.069209 
L 54.442067 231.347158 
L 54.561765 230.384423 
L 55.137086 225.330064 
L 55.202727 225.330064 
L 55.272229 224.848697 
L 55.388065 224.848697 
L 55.418955 224.367329 
L 55.573403 224.367329 
L 55.635183 222.201175 
L 55.928635 221.23844 
L 56.063778 218.831603 
L 56.442177 214.739979 
L 56.693156 213.53656 
L 56.743352 213.055192 
L 57.013637 205.834679 
L 57.249171 203.668526 
L 58.210614 201.021004 
L 58.392091 199.095534 
L 58.720294 199.095534 
L 58.851576 197.651432 
L 59.006024 197.651432 
L 59.145028 196.688697 
L 59.345811 194.763226 
L 59.484815 193.800491 
L 59.523427 193.800491 
L 59.608374 193.07844 
L 59.797574 193.07844 
L 60.033108 190.912286 
L 60.141222 190.912286 
L 60.287948 188.024081 
L 60.345866 188.024081 
L 60.45398 187.542714 
L 60.531205 187.542714 
L 60.635458 186.820662 
L 60.766739 185.37656 
L 60.882575 185.37656 
L 60.994551 183.932457 
L 61.091081 183.932457 
L 61.18375 182.488355 
L 61.365227 181.766303 
L 61.427007 180.803568 
L 61.542843 180.803568 
L 61.612345 180.322201 
L 61.813128 178.156047 
L 61.959855 177.674679 
L 62.118164 176.711944 
L 62.407756 176.711944 
L 62.531315 174.786474 
L 62.743681 174.786474 
L 62.824767 173.823739 
L 62.901991 173.823739 
L 63.060301 172.861004 
L 63.376921 172.379637 
L 63.512063 172.379637 
L 63.643345 170.935534 
L 63.739875 170.935534 
L 63.863434 169.010064 
L 63.979271 169.010064 
L 64.608649 162.511603 
L 64.724485 162.511603 
L 64.824877 161.548868 
L 64.979325 161.548868 
L 65.133774 161.0675 
L 65.180109 159.14203 
L 65.373169 159.14203 
L 65.581675 157.697927 
L 65.709095 156.013141 
L 65.840377 155.531774 
L 65.971658 154.087671 
L 66.087494 154.087671 
L 66.249665 152.162201 
L 66.902211 152.162201 
L 67.1223 150.236731 
L 67.160912 150.236731 
L 67.269026 149.755363 
L 67.400308 148.070577 
L 67.477532 148.070577 
L 67.577924 146.867158 
L 67.601091 145.904423 
L 67.987213 143.256902 
L 68.064437 143.256902 
L 68.187996 142.53485 
L 68.408085 142.294167 
L 68.736289 142.294167 
L 68.80579 141.812799 
L 69.076076 141.812799 
L 69.145577 141.331432 
L 69.261414 141.331432 
L 69.388834 139.165278 
L 69.466058 139.165278 
L 69.56645 138.202543 
L 69.643674 138.202543 
L 69.782678 137.239808 
L 70.072269 137.239808 
L 70.261469 135.795705 
L 70.840651 135.795705 
L 70.941043 134.83297 
L 71.288552 134.83297 
L 71.354193 134.110919 
L 71.639923 132.666816 
L 71.732592 131.222714 
L 71.887041 131.222714 
L 71.910208 130.259979 
L 72.083963 130.259979 
L 72.292468 128.815876 
L 72.524141 128.815876 
L 72.555031 128.093825 
L 72.70948 128.093825 
L 72.829177 127.13109 
L 73.138075 127.13109 
L 73.385193 125.686987 
L 73.501029 125.686987 
L 73.585976 123.761517 
L 73.697951 123.520833 
L 74.103379 123.520833 
L 74.311884 120.873312 
L 74.968291 120.873312 
L 75.115017 120.391944 
L 75.435498 115.818953 
L 75.589947 115.818953 
L 75.752118 115.096902 
L 75.945179 115.096902 
L 76.053293 114.615534 
L 76.207741 114.615534 
L 76.315855 114.134167 
L 76.508916 114.134167 
L 76.609308 113.171432 
L 76.918205 113.171432 
L 76.949095 112.690064 
L 77.451053 112.690064 
L 77.582334 111.245962 
L 77.794701 111.245962 
L 77.964595 110.764594 
L 78.312104 110.764594 
L 78.644169 108.59844 
L 78.817923 108.59844 
L 78.887425 108.117073 
L 79.15771 108.117073 
L 79.1886 107.635705 
L 79.304437 107.635705 
L 79.44344 106.67297 
L 79.563138 105.950919 
L 80.169349 105.950919 
L 80.594083 103.544081 
L 80.883674 103.544081 
L 81.045845 102.82203 
L 81.663639 102.82203 
L 81.794921 102.581346 
L 81.926202 101.137244 
L 81.964814 101.137244 
L 82.126985 99.211774 
L 82.497662 98.249038 
L 83.192681 98.249038 
L 83.327824 96.564252 
L 83.47455 95.842201 
L 84.227487 95.842201 
L 84.273821 95.12015 
L 84.737167 95.12015 
L 84.829837 93.676047 
L 85.814447 93.676047 
L 85.922561 93.194679 
L 86.077009 93.194679 
L 86.181262 92.472628 
L 86.335711 92.472628 
L 86.466992 92.231944 
L 87.258541 92.231944 
L 87.440019 91.509893 
L 87.536549 91.509893 
L 87.683275 89.825107 
L 88.745109 89.825107 
L 89.081035 89.103056 
L 89.621606 89.103056 
L 89.72972 87.418269 
L 89.787638 87.418269 
L 89.934364 86.936902 
L 90.899668 86.936902 
L 90.946003 86.21485 
L 91.100451 86.21485 
L 91.289651 85.974167 
L 91.347569 85.974167 
L 91.393904 85.252115 
L 92.475044 85.252115 
L 92.544546 84.770748 
L 92.660382 84.770748 
L 92.764635 84.048697 
L 93.47896 84.048697 
L 93.583213 83.326645 
L 94.567823 83.326645 
L 94.637325 82.845278 
L 94.946222 82.845278 
L 95.054336 82.36391 
L 95.536988 82.36391 
L 95.625796 81.882543 
L 95.818857 81.882543 
L 96.004195 81.401175 
L 96.757133 81.401175 
L 96.911581 80.197756 
L 96.988805 80.197756 
L 97.077613 79.716389 
L 97.463735 79.716389 
L 97.919359 76.5875 
L 101.135751 76.5875 
L 101.324951 76.346816 
L 105.549121 76.346816 
L 105.649513 75.384081 
L 105.842574 75.384081 
L 106.105136 74.902714 
L 109.657455 74.902714 
L 109.688345 74.421346 
L 109.804181 74.421346 
L 109.877544 74.180662 
L 110.109217 74.180662 
L 110.449004 73.699295 
L 113.557283 73.699295 
L 113.665397 73.217927 
L 117.970653 73.217927 
L 118.101934 71.773825 
L 119.202381 71.773825 
L 119.383858 71.051774 
L 119.538307 71.051774 
L 119.584641 70.329722 
L 120.781618 70.329722 
L 120.843397 69.366987 
L 124.048207 69.366987 
L 124.156321 68.88562 
L 125.160237 68.88562 
L 125.268351 68.404252 
L 127.797447 68.404252 
L 128.02912 67.200833 
L 130.075565 67.200833 
L 130.233875 66.238098 
L 135.99867 66.238098 
L 136.02956 65.756731 
L 141.589711 65.756731 
L 141.732576 65.034679 
L 149.010968 65.034679 
L 149.211751 64.312628 
L 149.501342 64.312628 
L 149.628762 63.831261 
L 156.165801 63.831261 
L 156.389751 63.349893 
L 158.706481 63.349893 
L 158.833901 62.868526 
L 159.374471 62.868526 
L 159.640895 62.627842 
L 159.756732 62.627842 
L 160.057906 62.146474 
L 161.428638 62.146474 
L 161.590809 61.424423 
L 163.857343 61.424423 
L 166.208823 61.183739 
L 170.826838 61.183739 
L 174.193818 60.221004 
L 174.271042 60.221004 
L 177.792471 59.258269 
L 178.93153 59.258269 
L 179.043505 59.017585 
L 183.449153 59.017585 
L 183.480042 58.536218 
L 185.294814 58.536218 
L 192.194807 57.814167 
L 195.361004 57.814167 
L 195.434367 57.573483 
L 196.785792 57.573483 
L 197.148747 57.332799 
L 200.141189 57.332799 
L 203.438667 57.092115 
L 203.720536 56.610748 
L 206.326857 56.610748 
L 206.469722 55.888697 
L 208.419636 55.888697 
L 208.531611 55.648013 
L 210.481525 55.648013 
L 210.670725 55.407329 
L 211.790477 55.407329 
L 212.134126 55.166645 
L 213.369715 55.166645 
L 213.786726 54.685278 
L 216.08415 54.685278 
L 216.157513 54.444594 
L 218.165345 54.444594 
L 218.273459 53.963226 
L 222.493768 53.963226 
L 223.455211 53.722543 
L 224.582686 53.000491 
L 238.456035 53.000491 
L 239.591232 52.759808 
L 247.553059 52.759808 
L 247.661173 52.27844 
L 248.742314 52.27844 
L 248.908346 51.797073 
L 251.727034 51.797073 
L 251.835148 51.315705 
L 257.086402 51.315705 
L 257.155903 50.834338 
L 266.48074 50.834338 
L 266.60816 50.35297 
L 267.245261 50.35297 
L 267.353375 49.871603 
L 270.187507 49.871603 
L 270.299482 49.630919 
L 272.558294 49.630919 
L 272.70502 49.149551 
L 297.428386 49.149551 
L 297.5365 48.668184 
L 303.432576 48.668184 
L 303.621776 48.4275 
L 400.90125 48.4275 
L 400.90125 48.4275 
" style="fill:none;stroke:#2ca02c;stroke-linecap:square;stroke-width:1.5;"/>
   </g>
   <g id="line2d_16">
    <path clip-path="url(#p504b13baa4)" d="M 43.78125 301.8675 
L 400.90125 48.4275 
" style="fill:none;stroke:#000000;stroke-dasharray:5.6,2.4;stroke-dashoffset:0;stroke-width:1.5;"/>
   </g>
   <g id="patch_3">
    <path d="M 43.78125 301.8675 
L 43.78125 35.7555 
" style="fill:none;stroke:#000000;stroke-linecap:square;stroke-linejoin:miter;stroke-width:0.8;"/>
   </g>
   <g id="patch_4">
    <path d="M 400.90125 301.8675 
L 400.90125 35.7555 
" style="fill:none;stroke:#000000;stroke-linecap:square;stroke-linejoin:miter;stroke-width:0.8;"/>
   </g>
   <g id="patch_5">
    <path d="M 43.78125 301.8675 
L 400.90125 301.8675 
" style="fill:none;stroke:#000000;stroke-linecap:square;stroke-linejoin:miter;stroke-width:0.8;"/>
   </g>
   <g id="patch_6">
    <path d="M 43.78125 35.7555 
L 400.90125 35.7555 
" style="fill:none;stroke:#000000;stroke-linecap:square;stroke-linejoin:miter;stroke-width:0.8;"/>
   </g>
   <g id="text_15">
    <!-- ROC Curve GradientBoosting + SMOTEENN -->
    <defs>
     <path d="M 39.40625 66.21875 
Q 28.65625 66.21875 22.328125 58.203125 
Q 16.015625 50.203125 16.015625 36.375 
Q 16.015625 22.609375 22.328125 14.59375 
Q 28.65625 6.59375 39.40625 6.59375 
Q 50.140625 6.59375 56.421875 14.59375 
Q 62.703125 22.609375 62.703125 36.375 
Q 62.703125 50.203125 56.421875 58.203125 
Q 50.140625 66.21875 39.40625 66.21875 
M 39.40625 74.21875 
Q 54.734375 74.21875 63.90625 63.9375 
Q 73.09375 53.65625 73.09375 36.375 
Q 73.09375 19.140625 63.90625 8.859375 
Q 54.734375 -1.421875 39.40625 -1.421875 
Q 24.03125 -1.421875 14.8125 8.828125 
Q 5.609375 19.09375 5.609375 36.375 
Q 5.609375 53.65625 14.8125 63.9375 
Q 24.03125 74.21875 39.40625 74.21875 
" id="DejaVuSans-4f"/>
     <path d="M 64.40625 67.28125 
L 64.40625 56.890625 
Q 59.421875 61.53125 53.78125 63.8125 
Q 48.140625 66.109375 41.796875 66.109375 
Q 29.296875 66.109375 22.65625 58.46875 
Q 16.015625 50.828125 16.015625 36.375 
Q 16.015625 21.96875 22.65625 14.328125 
Q 29.296875 6.6875 41.796875 6.6875 
Q 48.140625 6.6875 53.78125 8.984375 
Q 59.421875 11.28125 64.40625 15.921875 
L 64.40625 5.609375 
Q 59.234375 2.09375 53.4375 0.328125 
Q 47.65625 -1.421875 41.21875 -1.421875 
Q 24.65625 -1.421875 15.125 8.703125 
Q 5.609375 18.84375 5.609375 36.375 
Q 5.609375 53.953125 15.125 64.078125 
Q 24.65625 74.21875 41.21875 74.21875 
Q 47.75 74.21875 53.53125 72.484375 
Q 59.328125 70.75 64.40625 67.28125 
" id="DejaVuSans-43"/>
     <path d="M 59.515625 10.40625 
L 59.515625 29.984375 
L 43.40625 29.984375 
L 43.40625 38.09375 
L 69.28125 38.09375 
L 69.28125 6.78125 
Q 63.578125 2.734375 56.6875 0.65625 
Q 49.8125 -1.421875 42 -1.421875 
Q 24.90625 -1.421875 15.25 8.5625 
Q 5.609375 18.5625 5.609375 36.375 
Q 5.609375 54.25 15.25 64.234375 
Q 24.90625 74.21875 42 74.21875 
Q 49.125 74.21875 55.546875 72.453125 
Q 61.96875 70.703125 67.390625 67.28125 
L 67.390625 56.78125 
Q 61.921875 61.421875 55.765625 63.765625 
Q 49.609375 66.109375 42.828125 66.109375 
Q 29.4375 66.109375 22.71875 58.640625 
Q 16.015625 51.171875 16.015625 36.375 
Q 16.015625 21.625 22.71875 14.15625 
Q 29.4375 6.6875 42.828125 6.6875 
Q 48.046875 6.6875 52.140625 7.59375 
Q 56.25 8.5 59.515625 10.40625 
" id="DejaVuSans-47"/>
     <path d="M 45.40625 46.390625 
L 45.40625 75.984375 
L 54.390625 75.984375 
L 54.390625 0 
L 45.40625 0 
L 45.40625 8.203125 
Q 42.578125 3.328125 38.25 0.953125 
Q 33.9375 -1.421875 27.875 -1.421875 
Q 17.96875 -1.421875 11.734375 6.484375 
Q 5.515625 14.40625 5.515625 27.296875 
Q 5.515625 40.1875 11.734375 48.09375 
Q 17.96875 56 27.875 56 
Q 33.9375 56 38.25 53.625 
Q 42.578125 51.265625 45.40625 46.390625 
M 14.796875 27.296875 
Q 14.796875 17.390625 18.875 11.75 
Q 22.953125 6.109375 30.078125 6.109375 
Q 37.203125 6.109375 41.296875 11.75 
Q 45.40625 17.390625 45.40625 27.296875 
Q 45.40625 37.203125 41.296875 42.84375 
Q 37.203125 48.484375 30.078125 48.484375 
Q 22.953125 48.484375 18.875 42.84375 
Q 14.796875 37.203125 14.796875 27.296875 
" id="DejaVuSans-64"/>
     <path d="M 54.890625 33.015625 
L 54.890625 0 
L 45.90625 0 
L 45.90625 32.71875 
Q 45.90625 40.484375 42.875 44.328125 
Q 39.84375 48.1875 33.796875 48.1875 
Q 26.515625 48.1875 22.3125 43.546875 
Q 18.109375 38.921875 18.109375 30.90625 
L 18.109375 0 
L 9.078125 0 
L 9.078125 54.6875 
L 18.109375 54.6875 
L 18.109375 46.1875 
Q 21.34375 51.125 25.703125 53.5625 
Q 30.078125 56 35.796875 56 
Q 45.21875 56 50.046875 50.171875 
Q 54.890625 44.34375 54.890625 33.015625 
" id="DejaVuSans-6e"/>
     <path d="M 19.671875 34.8125 
L 19.671875 8.109375 
L 35.5 8.109375 
Q 43.453125 8.109375 47.28125 11.40625 
Q 51.125 14.703125 51.125 21.484375 
Q 51.125 28.328125 47.28125 31.5625 
Q 43.453125 34.8125 35.5 34.8125 
z
M 19.671875 64.796875 
L 19.671875 42.828125 
L 34.28125 42.828125 
Q 41.5 42.828125 45.03125 45.53125 
Q 48.578125 48.25 48.578125 53.8125 
Q 48.578125 59.328125 45.03125 62.0625 
Q 41.5 64.796875 34.28125 64.796875 
z
M 9.8125 72.90625 
L 35.015625 72.90625 
Q 46.296875 72.90625 52.390625 68.21875 
Q 58.5 63.53125 58.5 54.890625 
Q 58.5 48.1875 55.375 44.234375 
Q 52.25 40.28125 46.1875 39.3125 
Q 53.46875 37.75 57.5 32.78125 
Q 61.53125 27.828125 61.53125 20.40625 
Q 61.53125 10.640625 54.890625 5.3125 
Q 48.25 0 35.984375 0 
L 9.8125 0 
z
" id="DejaVuSans-42"/>
     <path d="M 45.40625 27.984375 
Q 45.40625 37.75 41.375 43.109375 
Q 37.359375 48.484375 30.078125 48.484375 
Q 22.859375 48.484375 18.828125 43.109375 
Q 14.796875 37.75 14.796875 27.984375 
Q 14.796875 18.265625 18.828125 12.890625 
Q 22.859375 7.515625 30.078125 7.515625 
Q 37.359375 7.515625 41.375 12.890625 
Q 45.40625 18.265625 45.40625 27.984375 
M 54.390625 6.78125 
Q 54.390625 -7.171875 48.1875 -13.984375 
Q 42 -20.796875 29.203125 -20.796875 
Q 24.46875 -20.796875 20.265625 -20.09375 
Q 16.0625 -19.390625 12.109375 -17.921875 
L 12.109375 -9.1875 
Q 16.0625 -11.328125 19.921875 -12.34375 
Q 23.78125 -13.375 27.78125 -13.375 
Q 36.625 -13.375 41.015625 -8.765625 
Q 45.40625 -4.15625 45.40625 5.171875 
L 45.40625 9.625 
Q 42.625 4.78125 38.28125 2.390625 
Q 33.9375 0 27.875 0 
Q 17.828125 0 11.671875 7.65625 
Q 5.515625 15.328125 5.515625 27.984375 
Q 5.515625 40.671875 11.671875 48.328125 
Q 17.828125 56 27.875 56 
Q 33.9375 56 38.28125 53.609375 
Q 42.625 51.21875 45.40625 46.390625 
L 45.40625 54.6875 
L 54.390625 54.6875 
z
" id="DejaVuSans-67"/>
     <path d="M 46 62.703125 
L 46 35.5 
L 73.1875 35.5 
L 73.1875 27.203125 
L 46 27.203125 
L 46 0 
L 37.796875 0 
L 37.796875 27.203125 
L 10.59375 27.203125 
L 10.59375 35.5 
L 37.796875 35.5 
L 37.796875 62.703125 
z
" id="DejaVuSans-2b"/>
     <path d="M 53.515625 70.515625 
L 53.515625 60.890625 
Q 47.90625 63.578125 42.921875 64.890625 
Q 37.9375 66.21875 33.296875 66.21875 
Q 25.25 66.21875 20.875 63.09375 
Q 16.5 59.96875 16.5 54.203125 
Q 16.5 49.359375 19.40625 46.890625 
Q 22.3125 44.4375 30.421875 42.921875 
L 36.375 41.703125 
Q 47.40625 39.59375 52.65625 34.296875 
Q 57.90625 29 57.90625 20.125 
Q 57.90625 9.515625 50.796875 4.046875 
Q 43.703125 -1.421875 29.984375 -1.421875 
Q 24.8125 -1.421875 18.96875 -0.25 
Q 13.140625 0.921875 6.890625 3.21875 
L 6.890625 13.375 
Q 12.890625 10.015625 18.65625 8.296875 
Q 24.421875 6.59375 29.984375 6.59375 
Q 38.421875 6.59375 43.015625 9.90625 
Q 47.609375 13.234375 47.609375 19.390625 
Q 47.609375 24.75 44.3125 27.78125 
Q 41.015625 30.8125 33.5 32.328125 
L 27.484375 33.5 
Q 16.453125 35.6875 11.515625 40.375 
Q 6.59375 45.0625 6.59375 53.421875 
Q 6.59375 63.09375 13.40625 68.65625 
Q 20.21875 74.21875 32.171875 74.21875 
Q 37.3125 74.21875 42.625 73.28125 
Q 47.953125 72.359375 53.515625 70.515625 
" id="DejaVuSans-53"/>
     <path d="M 9.8125 72.90625 
L 24.515625 72.90625 
L 43.109375 23.296875 
L 61.8125 72.90625 
L 76.515625 72.90625 
L 76.515625 0 
L 66.890625 0 
L 66.890625 64.015625 
L 48.09375 14.015625 
L 38.1875 14.015625 
L 19.390625 64.015625 
L 19.390625 0 
L 9.8125 0 
z
" id="DejaVuSans-4d"/>
     <path d="M 9.8125 72.90625 
L 55.90625 72.90625 
L 55.90625 64.59375 
L 19.671875 64.59375 
L 19.671875 43.015625 
L 54.390625 43.015625 
L 54.390625 34.71875 
L 19.671875 34.71875 
L 19.671875 8.296875 
L 56.78125 8.296875 
L 56.78125 0 
L 9.8125 0 
z
" id="DejaVuSans-45"/>
     <path d="M 9.8125 72.90625 
L 23.09375 72.90625 
L 55.421875 11.921875 
L 55.421875 72.90625 
L 64.984375 72.90625 
L 64.984375 0 
L 51.703125 0 
L 19.390625 60.984375 
L 19.390625 0 
L 9.8125 0 
z
" id="DejaVuSans-4e"/>
    </defs>
    <g transform="translate(92.638125 16.318125)scale(0.12 -0.12)">
     <use xlink:href="#DejaVuSans-52"/>
     <use x="69.482422" xlink:href="#DejaVuSans-4f"/>
     <use x="148.193359" xlink:href="#DejaVuSans-43"/>
     <use x="218.017578" xlink:href="#DejaVuSans-20"/>
     <use x="249.804688" xlink:href="#DejaVuSans-43"/>
     <use x="319.628906" xlink:href="#DejaVuSans-75"/>
     <use x="383.007812" xlink:href="#DejaVuSans-72"/>
     <use x="424.121094" xlink:href="#DejaVuSans-76"/>
     <use x="483.300781" xlink:href="#DejaVuSans-65"/>
     <use x="544.824219" xlink:href="#DejaVuSans-20"/>
     <use x="576.611328" xlink:href="#DejaVuSans-47"/>
     <use x="654.101562" xlink:href="#DejaVuSans-72"/>
     <use x="695.214844" xlink:href="#DejaVuSans-61"/>
     <use x="756.494141" xlink:href="#DejaVuSans-64"/>
     <use x="819.970703" xlink:href="#DejaVuSans-69"/>
     <use x="847.753906" xlink:href="#DejaVuSans-65"/>
     <use x="909.277344" xlink:href="#DejaVuSans-6e"/>
     <use x="972.65625" xlink:href="#DejaVuSans-74"/>
     <use x="1011.865234" xlink:href="#DejaVuSans-42"/>
     <use x="1080.46875" xlink:href="#DejaVuSans-6f"/>
     <use x="1141.650391" xlink:href="#DejaVuSans-6f"/>
     <use x="1202.832031" xlink:href="#DejaVuSans-73"/>
     <use x="1254.931641" xlink:href="#DejaVuSans-74"/>
     <use x="1294.140625" xlink:href="#DejaVuSans-69"/>
     <use x="1321.923828" xlink:href="#DejaVuSans-6e"/>
     <use x="1385.302734" xlink:href="#DejaVuSans-67"/>
     <use x="1448.779297" xlink:href="#DejaVuSans-20"/>
     <use x="1480.566406" xlink:href="#DejaVuSans-2b"/>
     <use x="1564.355469" xlink:href="#DejaVuSans-20"/>
     <use x="1596.142578" xlink:href="#DejaVuSans-53"/>
     <use x="1659.619141" xlink:href="#DejaVuSans-4d"/>
     <use x="1745.898438" xlink:href="#DejaVuSans-4f"/>
     <use x="1824.609375" xlink:href="#DejaVuSans-54"/>
     <use x="1885.693359" xlink:href="#DejaVuSans-45"/>
     <use x="1948.876953" xlink:href="#DejaVuSans-45"/>
     <use x="2012.060547" xlink:href="#DejaVuSans-4e"/>
     <use x="2086.865234" xlink:href="#DejaVuSans-4e"/>
    </g>
    <!-- Train: [1, 2, 4, 6, 8, 10, 12]   Test: [1, 2, 4, 6, 8, 10, 12] -->
    <defs>
     <path d="M 11.71875 12.40625 
L 22.015625 12.40625 
L 22.015625 0 
L 11.71875 0 
z
M 11.71875 51.703125 
L 22.015625 51.703125 
L 22.015625 39.3125 
L 11.71875 39.3125 
z
" id="DejaVuSans-3a"/>
     <path d="M 8.59375 75.984375 
L 29.296875 75.984375 
L 29.296875 69 
L 17.578125 69 
L 17.578125 -6.203125 
L 29.296875 -6.203125 
L 29.296875 -13.1875 
L 8.59375 -13.1875 
z
" id="DejaVuSans-5b"/>
     <path d="M 11.71875 12.40625 
L 22.015625 12.40625 
L 22.015625 4 
L 14.015625 -11.625 
L 7.71875 -11.625 
L 11.71875 4 
z
" id="DejaVuSans-2c"/>
     <path d="M 30.421875 75.984375 
L 30.421875 -13.1875 
L 9.71875 -13.1875 
L 9.71875 -6.203125 
L 21.390625 -6.203125 
L 21.390625 69 
L 9.71875 69 
L 9.71875 75.984375 
z
" id="DejaVuSans-5d"/>
    </defs>
    <g transform="translate(56.837813 29.7555)scale(0.12 -0.12)">
     <use xlink:href="#DejaVuSans-54"/>
     <use x="60.865234" xlink:href="#DejaVuSans-72"/>
     <use x="101.978516" xlink:href="#DejaVuSans-61"/>
     <use x="163.257812" xlink:href="#DejaVuSans-69"/>
     <use x="191.041016" xlink:href="#DejaVuSans-6e"/>
     <use x="254.419922" xlink:href="#DejaVuSans-3a"/>
     <use x="288.111328" xlink:href="#DejaVuSans-20"/>
     <use x="319.898438" xlink:href="#DejaVuSans-5b"/>
     <use x="358.912109" xlink:href="#DejaVuSans-31"/>
     <use x="422.535156" xlink:href="#DejaVuSans-2c"/>
     <use x="454.322266" xlink:href="#DejaVuSans-20"/>
     <use x="486.109375" xlink:href="#DejaVuSans-32"/>
     <use x="549.732422" xlink:href="#DejaVuSans-2c"/>
     <use x="581.519531" xlink:href="#DejaVuSans-20"/>
     <use x="613.306641" xlink:href="#DejaVuSans-34"/>
     <use x="676.929688" xlink:href="#DejaVuSans-2c"/>
     <use x="708.716797" xlink:href="#DejaVuSans-20"/>
     <use x="740.503906" xlink:href="#DejaVuSans-36"/>
     <use x="804.126953" xlink:href="#DejaVuSans-2c"/>
     <use x="835.914062" xlink:href="#DejaVuSans-20"/>
     <use x="867.701172" xlink:href="#DejaVuSans-38"/>
     <use x="931.324219" xlink:href="#DejaVuSans-2c"/>
     <use x="963.111328" xlink:href="#DejaVuSans-20"/>
     <use x="994.898438" xlink:href="#DejaVuSans-31"/>
     <use x="1058.521484" xlink:href="#DejaVuSans-30"/>
     <use x="1122.144531" xlink:href="#DejaVuSans-2c"/>
     <use x="1153.931641" xlink:href="#DejaVuSans-20"/>
     <use x="1185.71875" xlink:href="#DejaVuSans-31"/>
     <use x="1249.341797" xlink:href="#DejaVuSans-32"/>
     <use x="1312.964844" xlink:href="#DejaVuSans-5d"/>
     <use x="1351.978516" xlink:href="#DejaVuSans-20"/>
     <use x="1383.765625" xlink:href="#DejaVuSans-20"/>
     <use x="1415.552734" xlink:href="#DejaVuSans-20"/>
     <use x="1447.339844" xlink:href="#DejaVuSans-54"/>
     <use x="1508.158203" xlink:href="#DejaVuSans-65"/>
     <use x="1569.681641" xlink:href="#DejaVuSans-73"/>
     <use x="1621.78125" xlink:href="#DejaVuSans-74"/>
     <use x="1660.990234" xlink:href="#DejaVuSans-3a"/>
     <use x="1694.681641" xlink:href="#DejaVuSans-20"/>
     <use x="1726.46875" xlink:href="#DejaVuSans-5b"/>
     <use x="1765.482422" xlink:href="#DejaVuSans-31"/>
     <use x="1829.105469" xlink:href="#DejaVuSans-2c"/>
     <use x="1860.892578" xlink:href="#DejaVuSans-20"/>
     <use x="1892.679688" xlink:href="#DejaVuSans-32"/>
     <use x="1956.302734" xlink:href="#DejaVuSans-2c"/>
     <use x="1988.089844" xlink:href="#DejaVuSans-20"/>
     <use x="2019.876953" xlink:href="#DejaVuSans-34"/>
     <use x="2083.5" xlink:href="#DejaVuSans-2c"/>
     <use x="2115.287109" xlink:href="#DejaVuSans-20"/>
     <use x="2147.074219" xlink:href="#DejaVuSans-36"/>
     <use x="2210.697266" xlink:href="#DejaVuSans-2c"/>
     <use x="2242.484375" xlink:href="#DejaVuSans-20"/>
     <use x="2274.271484" xlink:href="#DejaVuSans-38"/>
     <use x="2337.894531" xlink:href="#DejaVuSans-2c"/>
     <use x="2369.681641" xlink:href="#DejaVuSans-20"/>
     <use x="2401.46875" xlink:href="#DejaVuSans-31"/>
     <use x="2465.091797" xlink:href="#DejaVuSans-30"/>
     <use x="2528.714844" xlink:href="#DejaVuSans-2c"/>
     <use x="2560.501953" xlink:href="#DejaVuSans-20"/>
     <use x="2592.289062" xlink:href="#DejaVuSans-31"/>
     <use x="2655.912109" xlink:href="#DejaVuSans-32"/>
     <use x="2719.535156" xlink:href="#DejaVuSans-5d"/>
    </g>
   </g>
   <g id="legend_1">
    <g id="patch_7">
     <path d="M 217.087188 296.8675 
L 393.90125 296.8675 
Q 395.90125 296.8675 395.90125 294.8675 
L 395.90125 251.833125 
Q 395.90125 249.833125 393.90125 249.833125 
L 217.087188 249.833125 
Q 215.087188 249.833125 215.087188 251.833125 
L 215.087188 294.8675 
Q 215.087188 296.8675 217.087188 296.8675 
z
" style="fill:#ffffff;opacity:0.8;stroke:#cccccc;stroke-linejoin:miter;"/>
    </g>
    <g id="line2d_17">
     <path d="M 219.087188 257.931562 
L 239.087188 257.931562 
" style="fill:none;stroke:#1f77b4;stroke-linecap:square;stroke-width:1.5;"/>
    </g>
    <g id="line2d_18"/>
    <g id="text_16">
     <!-- ROC curve - 0 (AUC = 0.926) -->
     <defs>
      <path d="M 48.78125 52.59375 
L 48.78125 44.1875 
Q 44.96875 46.296875 41.140625 47.34375 
Q 37.3125 48.390625 33.40625 48.390625 
Q 24.65625 48.390625 19.8125 42.84375 
Q 14.984375 37.3125 14.984375 27.296875 
Q 14.984375 17.28125 19.8125 11.734375 
Q 24.65625 6.203125 33.40625 6.203125 
Q 37.3125 6.203125 41.140625 7.25 
Q 44.96875 8.296875 48.78125 10.40625 
L 48.78125 2.09375 
Q 45.015625 0.34375 40.984375 -0.53125 
Q 36.96875 -1.421875 32.421875 -1.421875 
Q 20.0625 -1.421875 12.78125 6.34375 
Q 5.515625 14.109375 5.515625 27.296875 
Q 5.515625 40.671875 12.859375 48.328125 
Q 20.21875 56 33.015625 56 
Q 37.15625 56 41.109375 55.140625 
Q 45.0625 54.296875 48.78125 52.59375 
" id="DejaVuSans-63"/>
      <path d="M 4.890625 31.390625 
L 31.203125 31.390625 
L 31.203125 23.390625 
L 4.890625 23.390625 
z
" id="DejaVuSans-2d"/>
      <path d="M 31 75.875 
Q 24.46875 64.65625 21.28125 53.65625 
Q 18.109375 42.671875 18.109375 31.390625 
Q 18.109375 20.125 21.3125 9.0625 
Q 24.515625 -2 31 -13.1875 
L 23.1875 -13.1875 
Q 15.875 -1.703125 12.234375 9.375 
Q 8.59375 20.453125 8.59375 31.390625 
Q 8.59375 42.28125 12.203125 53.3125 
Q 15.828125 64.359375 23.1875 75.875 
z
" id="DejaVuSans-28"/>
      <path d="M 34.1875 63.1875 
L 20.796875 26.90625 
L 47.609375 26.90625 
z
M 28.609375 72.90625 
L 39.796875 72.90625 
L 67.578125 0 
L 57.328125 0 
L 50.6875 18.703125 
L 17.828125 18.703125 
L 11.1875 0 
L 0.78125 0 
z
" id="DejaVuSans-41"/>
      <path d="M 8.6875 72.90625 
L 18.609375 72.90625 
L 18.609375 28.609375 
Q 18.609375 16.890625 22.84375 11.734375 
Q 27.09375 6.59375 36.625 6.59375 
Q 46.09375 6.59375 50.34375 11.734375 
Q 54.59375 16.890625 54.59375 28.609375 
L 54.59375 72.90625 
L 64.5 72.90625 
L 64.5 27.390625 
Q 64.5 13.140625 57.4375 5.859375 
Q 50.390625 -1.421875 36.625 -1.421875 
Q 22.796875 -1.421875 15.734375 5.859375 
Q 8.6875 13.140625 8.6875 27.390625 
z
" id="DejaVuSans-55"/>
      <path d="M 10.59375 45.40625 
L 73.1875 45.40625 
L 73.1875 37.203125 
L 10.59375 37.203125 
z
M 10.59375 25.484375 
L 73.1875 25.484375 
L 73.1875 17.1875 
L 10.59375 17.1875 
z
" id="DejaVuSans-3d"/>
      <path d="M 10.984375 1.515625 
L 10.984375 10.5 
Q 14.703125 8.734375 18.5 7.8125 
Q 22.3125 6.890625 25.984375 6.890625 
Q 35.75 6.890625 40.890625 13.453125 
Q 46.046875 20.015625 46.78125 33.40625 
Q 43.953125 29.203125 39.59375 26.953125 
Q 35.25 24.703125 29.984375 24.703125 
Q 19.046875 24.703125 12.671875 31.3125 
Q 6.296875 37.9375 6.296875 49.421875 
Q 6.296875 60.640625 12.9375 67.421875 
Q 19.578125 74.21875 30.609375 74.21875 
Q 43.265625 74.21875 49.921875 64.515625 
Q 56.59375 54.828125 56.59375 36.375 
Q 56.59375 19.140625 48.40625 8.859375 
Q 40.234375 -1.421875 26.421875 -1.421875 
Q 22.703125 -1.421875 18.890625 -0.6875 
Q 15.09375 0.046875 10.984375 1.515625 
M 30.609375 32.421875 
Q 37.25 32.421875 41.125 36.953125 
Q 45.015625 41.5 45.015625 49.421875 
Q 45.015625 57.28125 41.125 61.84375 
Q 37.25 66.40625 30.609375 66.40625 
Q 23.96875 66.40625 20.09375 61.84375 
Q 16.21875 57.28125 16.21875 49.421875 
Q 16.21875 41.5 20.09375 36.953125 
Q 23.96875 32.421875 30.609375 32.421875 
" id="DejaVuSans-39"/>
      <path d="M 8.015625 75.875 
L 15.828125 75.875 
Q 23.140625 64.359375 26.78125 53.3125 
Q 30.421875 42.28125 30.421875 31.390625 
Q 30.421875 20.453125 26.78125 9.375 
Q 23.140625 -1.703125 15.828125 -13.1875 
L 8.015625 -13.1875 
Q 14.5 -2 17.703125 9.0625 
Q 20.90625 20.125 20.90625 31.390625 
Q 20.90625 42.671875 17.703125 53.65625 
Q 14.5 64.65625 8.015625 75.875 
" id="DejaVuSans-29"/>
     </defs>
     <g transform="translate(247.087188 261.431562)scale(0.1 -0.1)">
      <use xlink:href="#DejaVuSans-52"/>
      <use x="69.482422" xlink:href="#DejaVuSans-4f"/>
      <use x="148.193359" xlink:href="#DejaVuSans-43"/>
      <use x="218.017578" xlink:href="#DejaVuSans-20"/>
      <use x="249.804688" xlink:href="#DejaVuSans-63"/>
      <use x="304.785156" xlink:href="#DejaVuSans-75"/>
      <use x="368.164062" xlink:href="#DejaVuSans-72"/>
      <use x="409.277344" xlink:href="#DejaVuSans-76"/>
      <use x="468.457031" xlink:href="#DejaVuSans-65"/>
      <use x="529.980469" xlink:href="#DejaVuSans-20"/>
      <use x="561.767578" xlink:href="#DejaVuSans-2d"/>
      <use x="597.851562" xlink:href="#DejaVuSans-20"/>
      <use x="629.638672" xlink:href="#DejaVuSans-30"/>
      <use x="693.261719" xlink:href="#DejaVuSans-20"/>
      <use x="725.048828" xlink:href="#DejaVuSans-28"/>
      <use x="764.0625" xlink:href="#DejaVuSans-41"/>
      <use x="832.470703" xlink:href="#DejaVuSans-55"/>
      <use x="905.664062" xlink:href="#DejaVuSans-43"/>
      <use x="975.488281" xlink:href="#DejaVuSans-20"/>
      <use x="1007.275391" xlink:href="#DejaVuSans-3d"/>
      <use x="1091.064453" xlink:href="#DejaVuSans-20"/>
      <use x="1122.851562" xlink:href="#DejaVuSans-30"/>
      <use x="1186.474609" xlink:href="#DejaVuSans-2e"/>
      <use x="1218.261719" xlink:href="#DejaVuSans-39"/>
      <use x="1281.884766" xlink:href="#DejaVuSans-32"/>
      <use x="1345.507812" xlink:href="#DejaVuSans-36"/>
      <use x="1409.130859" xlink:href="#DejaVuSans-29"/>
     </g>
    </g>
    <g id="line2d_19">
     <path d="M 219.087188 272.609687 
L 239.087188 272.609687 
" style="fill:none;stroke:#ff7f0e;stroke-linecap:square;stroke-width:1.5;"/>
    </g>
    <g id="line2d_20"/>
    <g id="text_17">
     <!-- ROC curve - 1 (AUC = 0.909) -->
     <g transform="translate(247.087188 276.109687)scale(0.1 -0.1)">
      <use xlink:href="#DejaVuSans-52"/>
      <use x="69.482422" xlink:href="#DejaVuSans-4f"/>
      <use x="148.193359" xlink:href="#DejaVuSans-43"/>
      <use x="218.017578" xlink:href="#DejaVuSans-20"/>
      <use x="249.804688" xlink:href="#DejaVuSans-63"/>
      <use x="304.785156" xlink:href="#DejaVuSans-75"/>
      <use x="368.164062" xlink:href="#DejaVuSans-72"/>
      <use x="409.277344" xlink:href="#DejaVuSans-76"/>
      <use x="468.457031" xlink:href="#DejaVuSans-65"/>
      <use x="529.980469" xlink:href="#DejaVuSans-20"/>
      <use x="561.767578" xlink:href="#DejaVuSans-2d"/>
      <use x="597.851562" xlink:href="#DejaVuSans-20"/>
      <use x="629.638672" xlink:href="#DejaVuSans-31"/>
      <use x="693.261719" xlink:href="#DejaVuSans-20"/>
      <use x="725.048828" xlink:href="#DejaVuSans-28"/>
      <use x="764.0625" xlink:href="#DejaVuSans-41"/>
      <use x="832.470703" xlink:href="#DejaVuSans-55"/>
      <use x="905.664062" xlink:href="#DejaVuSans-43"/>
      <use x="975.488281" xlink:href="#DejaVuSans-20"/>
      <use x="1007.275391" xlink:href="#DejaVuSans-3d"/>
      <use x="1091.064453" xlink:href="#DejaVuSans-20"/>
      <use x="1122.851562" xlink:href="#DejaVuSans-30"/>
      <use x="1186.474609" xlink:href="#DejaVuSans-2e"/>
      <use x="1218.261719" xlink:href="#DejaVuSans-39"/>
      <use x="1281.884766" xlink:href="#DejaVuSans-30"/>
      <use x="1345.507812" xlink:href="#DejaVuSans-39"/>
      <use x="1409.130859" xlink:href="#DejaVuSans-29"/>
     </g>
    </g>
    <g id="line2d_21">
     <path d="M 219.087188 287.287812 
L 239.087188 287.287812 
" style="fill:none;stroke:#2ca02c;stroke-linecap:square;stroke-width:1.5;"/>
    </g>
    <g id="line2d_22"/>
    <g id="text_18">
     <!-- ROC curve - 2 (AUC = 0.913) -->
     <defs>
      <path d="M 40.578125 39.3125 
Q 47.65625 37.796875 51.625 33 
Q 55.609375 28.21875 55.609375 21.1875 
Q 55.609375 10.40625 48.1875 4.484375 
Q 40.765625 -1.421875 27.09375 -1.421875 
Q 22.515625 -1.421875 17.65625 -0.515625 
Q 12.796875 0.390625 7.625 2.203125 
L 7.625 11.71875 
Q 11.71875 9.328125 16.59375 8.109375 
Q 21.484375 6.890625 26.8125 6.890625 
Q 36.078125 6.890625 40.9375 10.546875 
Q 45.796875 14.203125 45.796875 21.1875 
Q 45.796875 27.640625 41.28125 31.265625 
Q 36.765625 34.90625 28.71875 34.90625 
L 20.21875 34.90625 
L 20.21875 43.015625 
L 29.109375 43.015625 
Q 36.375 43.015625 40.234375 45.921875 
Q 44.09375 48.828125 44.09375 54.296875 
Q 44.09375 59.90625 40.109375 62.90625 
Q 36.140625 65.921875 28.71875 65.921875 
Q 24.65625 65.921875 20.015625 65.03125 
Q 15.375 64.15625 9.8125 62.3125 
L 9.8125 71.09375 
Q 15.4375 72.65625 20.34375 73.4375 
Q 25.25 74.21875 29.59375 74.21875 
Q 40.828125 74.21875 47.359375 69.109375 
Q 53.90625 64.015625 53.90625 55.328125 
Q 53.90625 49.265625 50.4375 45.09375 
Q 46.96875 40.921875 40.578125 39.3125 
" id="DejaVuSans-33"/>
     </defs>
     <g transform="translate(247.087188 290.787812)scale(0.1 -0.1)">
      <use xlink:href="#DejaVuSans-52"/>
      <use x="69.482422" xlink:href="#DejaVuSans-4f"/>
      <use x="148.193359" xlink:href="#DejaVuSans-43"/>
      <use x="218.017578" xlink:href="#DejaVuSans-20"/>
      <use x="249.804688" xlink:href="#DejaVuSans-63"/>
      <use x="304.785156" xlink:href="#DejaVuSans-75"/>
      <use x="368.164062" xlink:href="#DejaVuSans-72"/>
      <use x="409.277344" xlink:href="#DejaVuSans-76"/>
      <use x="468.457031" xlink:href="#DejaVuSans-65"/>
      <use x="529.980469" xlink:href="#DejaVuSans-20"/>
      <use x="561.767578" xlink:href="#DejaVuSans-2d"/>
      <use x="597.851562" xlink:href="#DejaVuSans-20"/>
      <use x="629.638672" xlink:href="#DejaVuSans-32"/>
      <use x="693.261719" xlink:href="#DejaVuSans-20"/>
      <use x="725.048828" xlink:href="#DejaVuSans-28"/>
      <use x="764.0625" xlink:href="#DejaVuSans-41"/>
      <use x="832.470703" xlink:href="#DejaVuSans-55"/>
      <use x="905.664062" xlink:href="#DejaVuSans-43"/>
      <use x="975.488281" xlink:href="#DejaVuSans-20"/>
      <use x="1007.275391" xlink:href="#DejaVuSans-3d"/>
      <use x="1091.064453" xlink:href="#DejaVuSans-20"/>
      <use x="1122.851562" xlink:href="#DejaVuSans-30"/>
      <use x="1186.474609" xlink:href="#DejaVuSans-2e"/>
      <use x="1218.261719" xlink:href="#DejaVuSans-39"/>
      <use x="1281.884766" xlink:href="#DejaVuSans-31"/>
      <use x="1345.507812" xlink:href="#DejaVuSans-33"/>
      <use x="1409.130859" xlink:href="#DejaVuSans-29"/>
     </g>
    </g>
   </g>
  </g>
 </g>
 <defs>
  <clipPath id="p504b13baa4">
   <rect height="266.112" width="357.12" x="43.78125" y="35.7555"/>
  </clipPath>
 </defs>
</svg>
