<?xml version="1.0" encoding="utf-8" standalone="no"?>
<!DOCTYPE svg PUBLIC "-//W3C//DTD SVG 1.1//EN"
  "http://www.w3.org/Graphics/SVG/1.1/DTD/svg11.dtd">
<!-- Created with matplotlib (http://matplotlib.org/) -->
<svg height="339pt" version="1.1" viewBox="0 0 416 339" width="416pt" xmlns="http://www.w3.org/2000/svg" xmlns:xlink="http://www.w3.org/1999/xlink">
 <defs>
  <style type="text/css">
*{stroke-linecap:butt;stroke-linejoin:round;}
  </style>
 </defs>
 <g id="figure_1">
  <g id="patch_1">
   <path d="M 0 339.42375 
L 416.052813 339.42375 
L 416.052813 0 
L 0 0 
z
" style="fill:#ffffff;"/>
  </g>
  <g id="axes_1">
   <g id="patch_2">
    <path d="M 43.78125 301.8675 
L 400.90125 301.8675 
L 400.90125 35.7555 
L 43.78125 35.7555 
z
" style="fill:#ffffff;"/>
   </g>
   <g id="matplotlib.axis_1">
    <g id="xtick_1">
     <g id="line2d_1">
      <defs>
       <path d="M 0 0 
L 0 3.5 
" id="mea44123c48" style="stroke:#000000;stroke-width:0.8;"/>
      </defs>
      <g>
       <use style="stroke:#000000;stroke-width:0.8;" x="43.78125" xlink:href="#mea44123c48" y="301.8675"/>
      </g>
     </g>
     <g id="text_1">
      <!-- 0.0 -->
      <defs>
       <path d="M 31.78125 66.40625 
Q 24.171875 66.40625 20.328125 58.90625 
Q 16.5 51.421875 16.5 36.375 
Q 16.5 21.390625 20.328125 13.890625 
Q 24.171875 6.390625 31.78125 6.390625 
Q 39.453125 6.390625 43.28125 13.890625 
Q 47.125 21.390625 47.125 36.375 
Q 47.125 51.421875 43.28125 58.90625 
Q 39.453125 66.40625 31.78125 66.40625 
M 31.78125 74.21875 
Q 44.046875 74.21875 50.515625 64.515625 
Q 56.984375 54.828125 56.984375 36.375 
Q 56.984375 17.96875 50.515625 8.265625 
Q 44.046875 -1.421875 31.78125 -1.421875 
Q 19.53125 -1.421875 13.0625 8.265625 
Q 6.59375 17.96875 6.59375 36.375 
Q 6.59375 54.828125 13.0625 64.515625 
Q 19.53125 74.21875 31.78125 74.21875 
" id="DejaVuSans-30"/>
       <path d="M 10.6875 12.40625 
L 21 12.40625 
L 21 0 
L 10.6875 0 
z
" id="DejaVuSans-2e"/>
      </defs>
      <g transform="translate(35.829688 316.465937)scale(0.1 -0.1)">
       <use xlink:href="#DejaVuSans-30"/>
       <use x="63.623047" xlink:href="#DejaVuSans-2e"/>
       <use x="95.410156" xlink:href="#DejaVuSans-30"/>
      </g>
     </g>
    </g>
    <g id="xtick_2">
     <g id="line2d_2">
      <g>
       <use style="stroke:#000000;stroke-width:0.8;" x="115.20525" xlink:href="#mea44123c48" y="301.8675"/>
      </g>
     </g>
     <g id="text_2">
      <!-- 0.2 -->
      <defs>
       <path d="M 19.1875 8.296875 
L 53.609375 8.296875 
L 53.609375 0 
L 7.328125 0 
L 7.328125 8.296875 
Q 12.9375 14.109375 22.625 23.890625 
Q 32.328125 33.6875 34.8125 36.53125 
Q 39.546875 41.84375 41.421875 45.53125 
Q 43.3125 49.21875 43.3125 52.78125 
Q 43.3125 58.59375 39.234375 62.25 
Q 35.15625 65.921875 28.609375 65.921875 
Q 23.96875 65.921875 18.8125 64.3125 
Q 13.671875 62.703125 7.8125 59.421875 
L 7.8125 69.390625 
Q 13.765625 71.78125 18.9375 73 
Q 24.125 74.21875 28.421875 74.21875 
Q 39.75 74.21875 46.484375 68.546875 
Q 53.21875 62.890625 53.21875 53.421875 
Q 53.21875 48.921875 51.53125 44.890625 
Q 49.859375 40.875 45.40625 35.40625 
Q 44.1875 33.984375 37.640625 27.21875 
Q 31.109375 20.453125 19.1875 8.296875 
" id="DejaVuSans-32"/>
      </defs>
      <g transform="translate(107.253688 316.465937)scale(0.1 -0.1)">
       <use xlink:href="#DejaVuSans-30"/>
       <use x="63.623047" xlink:href="#DejaVuSans-2e"/>
       <use x="95.410156" xlink:href="#DejaVuSans-32"/>
      </g>
     </g>
    </g>
    <g id="xtick_3">
     <g id="line2d_3">
      <g>
       <use style="stroke:#000000;stroke-width:0.8;" x="186.62925" xlink:href="#mea44123c48" y="301.8675"/>
      </g>
     </g>
     <g id="text_3">
      <!-- 0.4 -->
      <defs>
       <path d="M 37.796875 64.3125 
L 12.890625 25.390625 
L 37.796875 25.390625 
z
M 35.203125 72.90625 
L 47.609375 72.90625 
L 47.609375 25.390625 
L 58.015625 25.390625 
L 58.015625 17.1875 
L 47.609375 17.1875 
L 47.609375 0 
L 37.796875 0 
L 37.796875 17.1875 
L 4.890625 17.1875 
L 4.890625 26.703125 
z
" id="DejaVuSans-34"/>
      </defs>
      <g transform="translate(178.677688 316.465937)scale(0.1 -0.1)">
       <use xlink:href="#DejaVuSans-30"/>
       <use x="63.623047" xlink:href="#DejaVuSans-2e"/>
       <use x="95.410156" xlink:href="#DejaVuSans-34"/>
      </g>
     </g>
    </g>
    <g id="xtick_4">
     <g id="line2d_4">
      <g>
       <use style="stroke:#000000;stroke-width:0.8;" x="258.05325" xlink:href="#mea44123c48" y="301.8675"/>
      </g>
     </g>
     <g id="text_4">
      <!-- 0.6 -->
      <defs>
       <path d="M 33.015625 40.375 
Q 26.375 40.375 22.484375 35.828125 
Q 18.609375 31.296875 18.609375 23.390625 
Q 18.609375 15.53125 22.484375 10.953125 
Q 26.375 6.390625 33.015625 6.390625 
Q 39.65625 6.390625 43.53125 10.953125 
Q 47.40625 15.53125 47.40625 23.390625 
Q 47.40625 31.296875 43.53125 35.828125 
Q 39.65625 40.375 33.015625 40.375 
M 52.59375 71.296875 
L 52.59375 62.3125 
Q 48.875 64.0625 45.09375 64.984375 
Q 41.3125 65.921875 37.59375 65.921875 
Q 27.828125 65.921875 22.671875 59.328125 
Q 17.53125 52.734375 16.796875 39.40625 
Q 19.671875 43.65625 24.015625 45.921875 
Q 28.375 48.1875 33.59375 48.1875 
Q 44.578125 48.1875 50.953125 41.515625 
Q 57.328125 34.859375 57.328125 23.390625 
Q 57.328125 12.15625 50.6875 5.359375 
Q 44.046875 -1.421875 33.015625 -1.421875 
Q 20.359375 -1.421875 13.671875 8.265625 
Q 6.984375 17.96875 6.984375 36.375 
Q 6.984375 53.65625 15.1875 63.9375 
Q 23.390625 74.21875 37.203125 74.21875 
Q 40.921875 74.21875 44.703125 73.484375 
Q 48.484375 72.75 52.59375 71.296875 
" id="DejaVuSans-36"/>
      </defs>
      <g transform="translate(250.101688 316.465937)scale(0.1 -0.1)">
       <use xlink:href="#DejaVuSans-30"/>
       <use x="63.623047" xlink:href="#DejaVuSans-2e"/>
       <use x="95.410156" xlink:href="#DejaVuSans-36"/>
      </g>
     </g>
    </g>
    <g id="xtick_5">
     <g id="line2d_5">
      <g>
       <use style="stroke:#000000;stroke-width:0.8;" x="329.47725" xlink:href="#mea44123c48" y="301.8675"/>
      </g>
     </g>
     <g id="text_5">
      <!-- 0.8 -->
      <defs>
       <path d="M 31.78125 34.625 
Q 24.75 34.625 20.71875 30.859375 
Q 16.703125 27.09375 16.703125 20.515625 
Q 16.703125 13.921875 20.71875 10.15625 
Q 24.75 6.390625 31.78125 6.390625 
Q 38.8125 6.390625 42.859375 10.171875 
Q 46.921875 13.96875 46.921875 20.515625 
Q 46.921875 27.09375 42.890625 30.859375 
Q 38.875 34.625 31.78125 34.625 
M 21.921875 38.8125 
Q 15.578125 40.375 12.03125 44.71875 
Q 8.5 49.078125 8.5 55.328125 
Q 8.5 64.0625 14.71875 69.140625 
Q 20.953125 74.21875 31.78125 74.21875 
Q 42.671875 74.21875 48.875 69.140625 
Q 55.078125 64.0625 55.078125 55.328125 
Q 55.078125 49.078125 51.53125 44.71875 
Q 48 40.375 41.703125 38.8125 
Q 48.828125 37.15625 52.796875 32.3125 
Q 56.78125 27.484375 56.78125 20.515625 
Q 56.78125 9.90625 50.3125 4.234375 
Q 43.84375 -1.421875 31.78125 -1.421875 
Q 19.734375 -1.421875 13.25 4.234375 
Q 6.78125 9.90625 6.78125 20.515625 
Q 6.78125 27.484375 10.78125 32.3125 
Q 14.796875 37.15625 21.921875 38.8125 
M 18.3125 54.390625 
Q 18.3125 48.734375 21.84375 45.5625 
Q 25.390625 42.390625 31.78125 42.390625 
Q 38.140625 42.390625 41.71875 45.5625 
Q 45.3125 48.734375 45.3125 54.390625 
Q 45.3125 60.0625 41.71875 63.234375 
Q 38.140625 66.40625 31.78125 66.40625 
Q 25.390625 66.40625 21.84375 63.234375 
Q 18.3125 60.0625 18.3125 54.390625 
" id="DejaVuSans-38"/>
      </defs>
      <g transform="translate(321.525688 316.465937)scale(0.1 -0.1)">
       <use xlink:href="#DejaVuSans-30"/>
       <use x="63.623047" xlink:href="#DejaVuSans-2e"/>
       <use x="95.410156" xlink:href="#DejaVuSans-38"/>
      </g>
     </g>
    </g>
    <g id="xtick_6">
     <g id="line2d_6">
      <g>
       <use style="stroke:#000000;stroke-width:0.8;" x="400.90125" xlink:href="#mea44123c48" y="301.8675"/>
      </g>
     </g>
     <g id="text_6">
      <!-- 1.0 -->
      <defs>
       <path d="M 12.40625 8.296875 
L 28.515625 8.296875 
L 28.515625 63.921875 
L 10.984375 60.40625 
L 10.984375 69.390625 
L 28.421875 72.90625 
L 38.28125 72.90625 
L 38.28125 8.296875 
L 54.390625 8.296875 
L 54.390625 0 
L 12.40625 0 
z
" id="DejaVuSans-31"/>
      </defs>
      <g transform="translate(392.949688 316.465937)scale(0.1 -0.1)">
       <use xlink:href="#DejaVuSans-31"/>
       <use x="63.623047" xlink:href="#DejaVuSans-2e"/>
       <use x="95.410156" xlink:href="#DejaVuSans-30"/>
      </g>
     </g>
    </g>
    <g id="text_7">
     <!-- False Positive Rate -->
     <defs>
      <path d="M 9.8125 72.90625 
L 51.703125 72.90625 
L 51.703125 64.59375 
L 19.671875 64.59375 
L 19.671875 43.109375 
L 48.578125 43.109375 
L 48.578125 34.8125 
L 19.671875 34.8125 
L 19.671875 0 
L 9.8125 0 
z
" id="DejaVuSans-46"/>
      <path d="M 34.28125 27.484375 
Q 23.390625 27.484375 19.1875 25 
Q 14.984375 22.515625 14.984375 16.5 
Q 14.984375 11.71875 18.140625 8.90625 
Q 21.296875 6.109375 26.703125 6.109375 
Q 34.1875 6.109375 38.703125 11.40625 
Q 43.21875 16.703125 43.21875 25.484375 
L 43.21875 27.484375 
z
M 52.203125 31.203125 
L 52.203125 0 
L 43.21875 0 
L 43.21875 8.296875 
Q 40.140625 3.328125 35.546875 0.953125 
Q 30.953125 -1.421875 24.3125 -1.421875 
Q 15.921875 -1.421875 10.953125 3.296875 
Q 6 8.015625 6 15.921875 
Q 6 25.140625 12.171875 29.828125 
Q 18.359375 34.515625 30.609375 34.515625 
L 43.21875 34.515625 
L 43.21875 35.40625 
Q 43.21875 41.609375 39.140625 45 
Q 35.0625 48.390625 27.6875 48.390625 
Q 23 48.390625 18.546875 47.265625 
Q 14.109375 46.140625 10.015625 43.890625 
L 10.015625 52.203125 
Q 14.9375 54.109375 19.578125 55.046875 
Q 24.21875 56 28.609375 56 
Q 40.484375 56 46.34375 49.84375 
Q 52.203125 43.703125 52.203125 31.203125 
" id="DejaVuSans-61"/>
      <path d="M 9.421875 75.984375 
L 18.40625 75.984375 
L 18.40625 0 
L 9.421875 0 
z
" id="DejaVuSans-6c"/>
      <path d="M 44.28125 53.078125 
L 44.28125 44.578125 
Q 40.484375 46.53125 36.375 47.5 
Q 32.28125 48.484375 27.875 48.484375 
Q 21.1875 48.484375 17.84375 46.4375 
Q 14.5 44.390625 14.5 40.28125 
Q 14.5 37.15625 16.890625 35.375 
Q 19.28125 33.59375 26.515625 31.984375 
L 29.59375 31.296875 
Q 39.15625 29.25 43.1875 25.515625 
Q 47.21875 21.78125 47.21875 15.09375 
Q 47.21875 7.46875 41.1875 3.015625 
Q 35.15625 -1.421875 24.609375 -1.421875 
Q 20.21875 -1.421875 15.453125 -0.5625 
Q 10.6875 0.296875 5.421875 2 
L 5.421875 11.28125 
Q 10.40625 8.6875 15.234375 7.390625 
Q 20.0625 6.109375 24.8125 6.109375 
Q 31.15625 6.109375 34.5625 8.28125 
Q 37.984375 10.453125 37.984375 14.40625 
Q 37.984375 18.0625 35.515625 20.015625 
Q 33.0625 21.96875 24.703125 23.78125 
L 21.578125 24.515625 
Q 13.234375 26.265625 9.515625 29.90625 
Q 5.8125 33.546875 5.8125 39.890625 
Q 5.8125 47.609375 11.28125 51.796875 
Q 16.75 56 26.8125 56 
Q 31.78125 56 36.171875 55.265625 
Q 40.578125 54.546875 44.28125 53.078125 
" id="DejaVuSans-73"/>
      <path d="M 56.203125 29.59375 
L 56.203125 25.203125 
L 14.890625 25.203125 
Q 15.484375 15.921875 20.484375 11.0625 
Q 25.484375 6.203125 34.421875 6.203125 
Q 39.59375 6.203125 44.453125 7.46875 
Q 49.3125 8.734375 54.109375 11.28125 
L 54.109375 2.78125 
Q 49.265625 0.734375 44.1875 -0.34375 
Q 39.109375 -1.421875 33.890625 -1.421875 
Q 20.796875 -1.421875 13.15625 6.1875 
Q 5.515625 13.8125 5.515625 26.8125 
Q 5.515625 40.234375 12.765625 48.109375 
Q 20.015625 56 32.328125 56 
Q 43.359375 56 49.78125 48.890625 
Q 56.203125 41.796875 56.203125 29.59375 
M 47.21875 32.234375 
Q 47.125 39.59375 43.09375 43.984375 
Q 39.0625 48.390625 32.421875 48.390625 
Q 24.90625 48.390625 20.390625 44.140625 
Q 15.875 39.890625 15.1875 32.171875 
z
" id="DejaVuSans-65"/>
      <path id="DejaVuSans-20"/>
      <path d="M 19.671875 64.796875 
L 19.671875 37.40625 
L 32.078125 37.40625 
Q 38.96875 37.40625 42.71875 40.96875 
Q 46.484375 44.53125 46.484375 51.125 
Q 46.484375 57.671875 42.71875 61.234375 
Q 38.96875 64.796875 32.078125 64.796875 
z
M 9.8125 72.90625 
L 32.078125 72.90625 
Q 44.34375 72.90625 50.609375 67.359375 
Q 56.890625 61.8125 56.890625 51.125 
Q 56.890625 40.328125 50.609375 34.8125 
Q 44.34375 29.296875 32.078125 29.296875 
L 19.671875 29.296875 
L 19.671875 0 
L 9.8125 0 
z
" id="DejaVuSans-50"/>
      <path d="M 30.609375 48.390625 
Q 23.390625 48.390625 19.1875 42.75 
Q 14.984375 37.109375 14.984375 27.296875 
Q 14.984375 17.484375 19.15625 11.84375 
Q 23.34375 6.203125 30.609375 6.203125 
Q 37.796875 6.203125 41.984375 11.859375 
Q 46.1875 17.53125 46.1875 27.296875 
Q 46.1875 37.015625 41.984375 42.703125 
Q 37.796875 48.390625 30.609375 48.390625 
M 30.609375 56 
Q 42.328125 56 49.015625 48.375 
Q 55.71875 40.765625 55.71875 27.296875 
Q 55.71875 13.875 49.015625 6.21875 
Q 42.328125 -1.421875 30.609375 -1.421875 
Q 18.84375 -1.421875 12.171875 6.21875 
Q 5.515625 13.875 5.515625 27.296875 
Q 5.515625 40.765625 12.171875 48.375 
Q 18.84375 56 30.609375 56 
" id="DejaVuSans-6f"/>
      <path d="M 9.421875 54.6875 
L 18.40625 54.6875 
L 18.40625 0 
L 9.421875 0 
z
M 9.421875 75.984375 
L 18.40625 75.984375 
L 18.40625 64.59375 
L 9.421875 64.59375 
z
" id="DejaVuSans-69"/>
      <path d="M 18.3125 70.21875 
L 18.3125 54.6875 
L 36.8125 54.6875 
L 36.8125 47.703125 
L 18.3125 47.703125 
L 18.3125 18.015625 
Q 18.3125 11.328125 20.140625 9.421875 
Q 21.96875 7.515625 27.59375 7.515625 
L 36.8125 7.515625 
L 36.8125 0 
L 27.59375 0 
Q 17.1875 0 13.234375 3.875 
Q 9.28125 7.765625 9.28125 18.015625 
L 9.28125 47.703125 
L 2.6875 47.703125 
L 2.6875 54.6875 
L 9.28125 54.6875 
L 9.28125 70.21875 
z
" id="DejaVuSans-74"/>
      <path d="M 2.984375 54.6875 
L 12.5 54.6875 
L 29.59375 8.796875 
L 46.6875 54.6875 
L 56.203125 54.6875 
L 35.6875 0 
L 23.484375 0 
z
" id="DejaVuSans-76"/>
      <path d="M 44.390625 34.1875 
Q 47.5625 33.109375 50.5625 29.59375 
Q 53.5625 26.078125 56.59375 19.921875 
L 66.609375 0 
L 56 0 
L 46.6875 18.703125 
Q 43.0625 26.03125 39.671875 28.421875 
Q 36.28125 30.8125 30.421875 30.8125 
L 19.671875 30.8125 
L 19.671875 0 
L 9.8125 0 
L 9.8125 72.90625 
L 32.078125 72.90625 
Q 44.578125 72.90625 50.734375 67.671875 
Q 56.890625 62.453125 56.890625 51.90625 
Q 56.890625 45.015625 53.6875 40.46875 
Q 50.484375 35.9375 44.390625 34.1875 
M 19.671875 64.796875 
L 19.671875 38.921875 
L 32.078125 38.921875 
Q 39.203125 38.921875 42.84375 42.21875 
Q 46.484375 45.515625 46.484375 51.90625 
Q 46.484375 58.296875 42.84375 61.546875 
Q 39.203125 64.796875 32.078125 64.796875 
z
" id="DejaVuSans-52"/>
     </defs>
     <g transform="translate(175.135781 330.144062)scale(0.1 -0.1)">
      <use xlink:href="#DejaVuSans-46"/>
      <use x="57.378906" xlink:href="#DejaVuSans-61"/>
      <use x="118.658203" xlink:href="#DejaVuSans-6c"/>
      <use x="146.441406" xlink:href="#DejaVuSans-73"/>
      <use x="198.541016" xlink:href="#DejaVuSans-65"/>
      <use x="260.064453" xlink:href="#DejaVuSans-20"/>
      <use x="291.851562" xlink:href="#DejaVuSans-50"/>
      <use x="352.107422" xlink:href="#DejaVuSans-6f"/>
      <use x="413.289062" xlink:href="#DejaVuSans-73"/>
      <use x="465.388672" xlink:href="#DejaVuSans-69"/>
      <use x="493.171875" xlink:href="#DejaVuSans-74"/>
      <use x="532.380859" xlink:href="#DejaVuSans-69"/>
      <use x="560.164062" xlink:href="#DejaVuSans-76"/>
      <use x="619.34375" xlink:href="#DejaVuSans-65"/>
      <use x="680.867188" xlink:href="#DejaVuSans-20"/>
      <use x="712.654297" xlink:href="#DejaVuSans-52"/>
      <use x="782.105469" xlink:href="#DejaVuSans-61"/>
      <use x="843.384766" xlink:href="#DejaVuSans-74"/>
      <use x="882.59375" xlink:href="#DejaVuSans-65"/>
     </g>
    </g>
   </g>
   <g id="matplotlib.axis_2">
    <g id="ytick_1">
     <g id="line2d_7">
      <defs>
       <path d="M 0 0 
L -3.5 0 
" id="m69d595a267" style="stroke:#000000;stroke-width:0.8;"/>
      </defs>
      <g>
       <use style="stroke:#000000;stroke-width:0.8;" x="43.78125" xlink:href="#m69d595a267" y="301.8675"/>
      </g>
     </g>
     <g id="text_8">
      <!-- 0.0 -->
      <g transform="translate(20.878125 305.666719)scale(0.1 -0.1)">
       <use xlink:href="#DejaVuSans-30"/>
       <use x="63.623047" xlink:href="#DejaVuSans-2e"/>
       <use x="95.410156" xlink:href="#DejaVuSans-30"/>
      </g>
     </g>
    </g>
    <g id="ytick_2">
     <g id="line2d_8">
      <g>
       <use style="stroke:#000000;stroke-width:0.8;" x="43.78125" xlink:href="#m69d595a267" y="251.1795"/>
      </g>
     </g>
     <g id="text_9">
      <!-- 0.2 -->
      <g transform="translate(20.878125 254.978719)scale(0.1 -0.1)">
       <use xlink:href="#DejaVuSans-30"/>
       <use x="63.623047" xlink:href="#DejaVuSans-2e"/>
       <use x="95.410156" xlink:href="#DejaVuSans-32"/>
      </g>
     </g>
    </g>
    <g id="ytick_3">
     <g id="line2d_9">
      <g>
       <use style="stroke:#000000;stroke-width:0.8;" x="43.78125" xlink:href="#m69d595a267" y="200.4915"/>
      </g>
     </g>
     <g id="text_10">
      <!-- 0.4 -->
      <g transform="translate(20.878125 204.290719)scale(0.1 -0.1)">
       <use xlink:href="#DejaVuSans-30"/>
       <use x="63.623047" xlink:href="#DejaVuSans-2e"/>
       <use x="95.410156" xlink:href="#DejaVuSans-34"/>
      </g>
     </g>
    </g>
    <g id="ytick_4">
     <g id="line2d_10">
      <g>
       <use style="stroke:#000000;stroke-width:0.8;" x="43.78125" xlink:href="#m69d595a267" y="149.8035"/>
      </g>
     </g>
     <g id="text_11">
      <!-- 0.6 -->
      <g transform="translate(20.878125 153.602719)scale(0.1 -0.1)">
       <use xlink:href="#DejaVuSans-30"/>
       <use x="63.623047" xlink:href="#DejaVuSans-2e"/>
       <use x="95.410156" xlink:href="#DejaVuSans-36"/>
      </g>
     </g>
    </g>
    <g id="ytick_5">
     <g id="line2d_11">
      <g>
       <use style="stroke:#000000;stroke-width:0.8;" x="43.78125" xlink:href="#m69d595a267" y="99.1155"/>
      </g>
     </g>
     <g id="text_12">
      <!-- 0.8 -->
      <g transform="translate(20.878125 102.914719)scale(0.1 -0.1)">
       <use xlink:href="#DejaVuSans-30"/>
       <use x="63.623047" xlink:href="#DejaVuSans-2e"/>
       <use x="95.410156" xlink:href="#DejaVuSans-38"/>
      </g>
     </g>
    </g>
    <g id="ytick_6">
     <g id="line2d_12">
      <g>
       <use style="stroke:#000000;stroke-width:0.8;" x="43.78125" xlink:href="#m69d595a267" y="48.4275"/>
      </g>
     </g>
     <g id="text_13">
      <!-- 1.0 -->
      <g transform="translate(20.878125 52.226719)scale(0.1 -0.1)">
       <use xlink:href="#DejaVuSans-31"/>
       <use x="63.623047" xlink:href="#DejaVuSans-2e"/>
       <use x="95.410156" xlink:href="#DejaVuSans-30"/>
      </g>
     </g>
    </g>
    <g id="text_14">
     <!-- True Positive Rate -->
     <defs>
      <path d="M -0.296875 72.90625 
L 61.375 72.90625 
L 61.375 64.59375 
L 35.5 64.59375 
L 35.5 0 
L 25.59375 0 
L 25.59375 64.59375 
L -0.296875 64.59375 
z
" id="DejaVuSans-54"/>
      <path d="M 41.109375 46.296875 
Q 39.59375 47.171875 37.8125 47.578125 
Q 36.03125 48 33.890625 48 
Q 26.265625 48 22.1875 43.046875 
Q 18.109375 38.09375 18.109375 28.8125 
L 18.109375 0 
L 9.078125 0 
L 9.078125 54.6875 
L 18.109375 54.6875 
L 18.109375 46.1875 
Q 20.953125 51.171875 25.484375 53.578125 
Q 30.03125 56 36.53125 56 
Q 37.453125 56 38.578125 55.875 
Q 39.703125 55.765625 41.0625 55.515625 
z
" id="DejaVuSans-72"/>
      <path d="M 8.5 21.578125 
L 8.5 54.6875 
L 17.484375 54.6875 
L 17.484375 21.921875 
Q 17.484375 14.15625 20.5 10.265625 
Q 23.53125 6.390625 29.59375 6.390625 
Q 36.859375 6.390625 41.078125 11.03125 
Q 45.3125 15.671875 45.3125 23.6875 
L 45.3125 54.6875 
L 54.296875 54.6875 
L 54.296875 0 
L 45.3125 0 
L 45.3125 8.40625 
Q 42.046875 3.421875 37.71875 1 
Q 33.40625 -1.421875 27.6875 -1.421875 
Q 18.265625 -1.421875 13.375 4.4375 
Q 8.5 10.296875 8.5 21.578125 
M 31.109375 56 
z
" id="DejaVuSans-75"/>
     </defs>
     <g transform="translate(14.798438 214.357594)rotate(-90)scale(0.1 -0.1)">
      <use xlink:href="#DejaVuSans-54"/>
      <use x="60.865234" xlink:href="#DejaVuSans-72"/>
      <use x="101.978516" xlink:href="#DejaVuSans-75"/>
      <use x="165.357422" xlink:href="#DejaVuSans-65"/>
      <use x="226.880859" xlink:href="#DejaVuSans-20"/>
      <use x="258.667969" xlink:href="#DejaVuSans-50"/>
      <use x="318.923828" xlink:href="#DejaVuSans-6f"/>
      <use x="380.105469" xlink:href="#DejaVuSans-73"/>
      <use x="432.205078" xlink:href="#DejaVuSans-69"/>
      <use x="459.988281" xlink:href="#DejaVuSans-74"/>
      <use x="499.197266" xlink:href="#DejaVuSans-69"/>
      <use x="526.980469" xlink:href="#DejaVuSans-76"/>
      <use x="586.160156" xlink:href="#DejaVuSans-65"/>
      <use x="647.683594" xlink:href="#DejaVuSans-20"/>
      <use x="679.470703" xlink:href="#DejaVuSans-52"/>
      <use x="748.921875" xlink:href="#DejaVuSans-61"/>
      <use x="810.201172" xlink:href="#DejaVuSans-74"/>
      <use x="849.410156" xlink:href="#DejaVuSans-65"/>
     </g>
    </g>
   </g>
   <g id="line2d_13">
    <path clip-path="url(#pd1988529e9)" d="M 43.78125 301.8675 
L 43.819862 301.8675 
L 43.850751 301.386132 
L 43.966586 301.386132 
L 44.113311 300.904765 
L 44.190534 300.904765 
L 44.321814 300.182714 
L 44.707932 300.182714 
L 44.738821 299.701346 
L 44.854656 299.701346 
L 44.939602 298.979295 
L 45.055437 298.979295 
L 45.086327 298.497927 
L 45.202162 298.497927 
L 45.383637 297.775876 
L 45.441555 297.775876 
L 45.943508 296.572457 
L 46.020731 295.369038 
L 46.619213 295.369038 
L 46.746632 294.887671 
L 46.785244 294.887671 
L 46.947413 292.962201 
L 47.043942 292.962201 
L 47.23314 291.518098 
L 47.522728 291.518098 
L 47.626979 291.036731 
L 47.72737 290.073996 
L 47.862511 290.073996 
L 47.986069 287.426474 
L 48.2216 286.463739 
L 48.472577 286.463739 
L 48.607718 284.056902 
L 48.897306 284.056902 
L 49.086503 282.612799 
L 49.202339 282.612799 
L 49.406981 279.724594 
L 49.851016 279.724594 
L 50.020907 278.280491 
L 50.233272 278.280491 
L 50.264161 277.799124 
L 50.576917 275.63297 
L 50.835615 271.300662 
L 50.932145 271.300662 
L 51.171537 270.578611 
L 51.229455 270.578611 
L 51.461125 268.171774 
L 51.615572 268.171774 
L 51.820215 266.486987 
L 52.391668 264.802201 
L 52.488198 264.802201 
L 52.708285 261.191944 
L 53.202515 261.191944 
L 53.356962 259.988526 
L 53.472797 259.988526 
L 53.866637 259.266474 
L 54.04039 259.266474 
L 54.063557 258.303739 
L 54.218004 258.303739 
L 54.49987 256.859637 
L 54.596399 256.859637 
L 55.017267 255.415534 
L 55.140824 253.490064 
L 55.48833 253.490064 
L 55.650499 251.083226 
L 55.862864 251.083226 
L 56.028895 250.601859 
L 56.052062 249.639124 
L 59.117834 209.926303 
L 59.561869 209.926303 
L 59.596619 209.68562 
L 59.924819 202.705791 
L 60.040654 202.705791 
L 60.195101 200.298953 
L 60.253019 200.298953 
L 60.326381 198.373483 
L 60.635275 198.373483 
L 60.666165 197.892115 
L 61.129506 197.892115 
L 61.310981 195.966645 
L 61.697098 195.966645 
L 61.905602 194.522543 
L 61.982825 194.522543 
L 62.303303 192.837756 
L 62.45775 192.837756 
L 62.697142 190.912286 
L 63.175928 190.671603 
L 63.272457 189.468184 
L 63.639269 189.468184 
L 63.701048 188.505449 
L 64.067859 188.505449 
L 64.411504 184.654509 
L 64.627729 183.691774 
L 67.801615 166.84391 
L 67.936756 166.84391 
L 68.037146 165.881175 
L 68.67424 165.881175 
L 68.820965 164.196389 
L 68.994717 164.196389 
L 69.145303 163.955705 
L 69.33064 161.0675 
L 69.407863 161.0675 
L 69.43103 160.104765 
L 69.546865 160.104765 
L 69.608644 159.14203 
L 69.95615 159.14203 
L 70.002484 158.419979 
L 70.58166 158.419979 
L 70.797886 151.44015 
L 70.913721 151.44015 
L 71.203309 148.551944 
L 72.979449 148.551944 
L 73.14548 148.070577 
L 73.299927 148.070577 
L 73.635849 146.145107 
L 73.906131 144.941688 
L 74.09919 144.941688 
L 75.226653 143.016218 
L 75.346349 142.053483 
L 75.578019 142.053483 
L 75.686132 141.572115 
L 75.840579 141.572115 
L 76.010471 140.128013 
L 77.78275 140.128013 
L 77.910169 139.646645 
L 78.624486 139.646645 
L 78.775072 138.202543 
L 79.655419 138.202543 
L 79.686309 137.721175 
L 79.975897 137.721175 
L 80.107177 137.480491 
L 80.609129 137.480491 
L 80.682492 136.036389 
L 80.779021 136.036389 
L 80.902579 135.314338 
L 81.933512 135.314338 
L 81.979846 134.592286 
L 82.346658 134.592286 
L 82.806137 133.148184 
L 82.921973 133.148184 
L 82.991474 132.666816 
L 84.188438 132.666816 
L 84.234772 131.944765 
L 84.52436 131.944765 
L 84.775336 129.537927 
L 86.146053 129.537927 
L 86.176943 129.05656 
L 87.180848 129.05656 
L 87.211737 128.575192 
L 91.20033 128.575192 
L 91.33161 128.334509 
L 91.432001 127.371774 
L 91.933953 127.371774 
L 92.034344 126.168355 
L 92.478379 126.168355 
L 92.655993 124.724252 
L 92.926275 124.724252 
L 93.034388 124.242885 
L 94.540246 124.242885 
L 94.571135 123.761517 
L 95.188923 123.761517 
L 95.223674 122.317415 
L 95.953436 122.076731 
L 96.022937 121.595363 
L 97.104065 121.595363 
L 97.165844 120.632628 
L 97.629185 120.632628 
L 97.822244 117.022372 
L 100.293395 117.022372 
L 100.401508 116.541004 
L 100.826237 116.541004 
L 100.857127 116.059637 
L 101.455609 116.059637 
L 101.640945 113.171432 
L 101.988451 113.171432 
L 102.200815 109.561175 
L 102.602377 108.117073 
L 104.3206 108.117073 
L 104.409407 107.635705 
L 105.548453 107.635705 
L 105.641122 106.191603 
L 106.606415 106.191603 
L 106.764723 105.228868 
L 110.278392 103.784765 
L 110.838262 103.784765 
L 111.625942 103.544081 
L 112.320953 103.544081 
L 112.390454 103.062714 
L 113.06616 103.062714 
L 113.270802 100.174509 
L 121.116708 100.174509 
L 121.244126 99.693141 
L 121.572326 99.693141 
L 121.954582 99.452457 
L 122.066557 98.008355 
L 125.001049 98.008355 
L 126.676798 97.767671 
L 132.680924 97.767671 
L 132.754287 97.526987 
L 133.924222 97.526987 
L 137.522837 96.804936 
L 148.511738 96.804936 
L 148.635296 96.082885 
L 151.70493 96.082885 
L 151.928878 93.194679 
L 152.091047 92.472628 
L 153.789964 92.472628 
L 154.021634 92.231944 
L 157.207103 92.231944 
L 160.975609 91.509893 
L 161.67062 91.509893 
L 161.794178 90.787842 
L 164.188106 90.787842 
L 174.46269 89.103056 
L 175.331454 89.103056 
L 175.516791 88.621688 
L 177.196401 88.621688 
L 177.269764 88.381004 
L 179.161739 88.381004 
L 179.350937 88.140321 
L 180.895406 88.140321 
L 180.957185 85.974167 
L 181.613585 85.974167 
L 181.648335 85.733483 
L 182.999746 85.733483 
L 183.165777 85.252115 
L 185.192893 85.252115 
L 185.748902 85.011432 
L 186.231549 85.011432 
L 186.729641 84.770748 
L 193.467389 84.770748 
L 193.714505 83.326645 
L 194.100622 83.326645 
L 199.05837 83.085962 
L 201.510215 83.085962 
L 201.653079 82.36391 
L 201.961973 82.36391 
L 202.131864 80.919808 
L 210.854257 80.919808 
L 210.946925 79.475705 
L 214.568706 78.51297 
L 214.858294 78.51297 
L 214.94324 77.790919 
L 216.777298 77.790919 
L 216.943328 74.902714 
L 217.387364 74.902714 
L 217.646062 74.180662 
L 226.12134 74.180662 
L 226.175396 73.939979 
L 228.02876 73.939979 
L 228.133011 73.217927 
L 234.368808 73.217927 
L 234.446031 72.014509 
L 238.944299 72.014509 
L 238.998355 71.773825 
L 245.446516 71.773825 
L 245.882829 71.292457 
L 246.635758 71.292457 
L 246.74001 70.570406 
L 258.400756 70.570406 
L 258.51273 69.126303 
L 265.87985 69.126303 
L 265.926184 68.404252 
L 278.108189 68.404252 
L 278.154523 67.682201 
L 304.205865 67.682201 
L 304.28695 66.719466 
L 311.399232 66.719466 
L 311.449428 66.238098 
L 321.855292 66.238098 
L 321.909349 64.793996 
L 322.449913 64.793996 
L 322.612082 64.071944 
L 322.727918 64.071944 
L 322.781974 63.831261 
L 322.83603 62.387158 
L 323.087007 62.387158 
L 323.368872 61.905791 
L 326.535035 61.905791 
L 326.612259 58.295534 
L 332.249573 58.295534 
L 332.492827 57.814167 
L 333.78632 57.814167 
L 333.898294 53.963226 
L 338.357951 53.963226 
L 338.508536 53.722543 
L 340.744156 53.722543 
L 340.836824 53.481859 
L 347.265679 53.481859 
L 347.319736 53.241175 
L 348.439476 53.241175 
L 348.667286 53.000491 
L 353.204165 53.000491 
L 353.296834 52.759808 
L 358.254581 52.759808 
L 358.308638 52.519124 
L 360.104084 52.519124 
L 360.370505 52.27844 
L 363.335886 52.27844 
L 363.602307 52.037756 
L 363.640919 52.037756 
L 363.752893 51.797073 
L 367.309035 51.797073 
L 367.409425 50.834338 
L 368.567777 50.834338 
L 368.926867 50.593654 
L 371.591077 50.593654 
L 371.679884 50.112286 
L 371.795719 50.112286 
L 372.023528 49.871603 
L 374.49468 49.871603 
L 374.62596 49.630919 
L 382.039414 49.630919 
L 382.089609 49.149551 
L 382.379197 49.149551 
L 382.607007 48.908868 
L 384.209394 48.908868 
L 384.26345 48.668184 
L 384.610956 48.668184 
L 384.81946 48.4275 
L 400.90125 48.4275 
L 400.90125 48.4275 
" style="fill:none;stroke:#1f77b4;stroke-linecap:square;stroke-width:1.5;"/>
   </g>
   <g id="line2d_14">
    <path clip-path="url(#pd1988529e9)" d="M 43.78125 301.8675 
L 43.982033 299.94203 
L 44.03609 298.497927 
L 44.3836 296.09109 
L 46.159759 296.09109 
L 46.430044 293.684252 
L 50.252648 293.684252 
L 50.32215 293.202885 
L 50.573129 293.202885 
L 50.897471 291.758782 
L 50.928361 291.277415 
L 51.368539 289.833312 
L 51.542294 289.833312 
L 51.68902 288.148526 
L 51.901387 288.148526 
L 51.932277 287.667158 
L 52.175533 287.185791 
L 52.329982 287.185791 
L 52.700659 286.704423 
L 52.824218 285.982372 
L 53.229645 285.982372 
L 53.341621 285.741688 
L 53.488347 285.260321 
L 53.72002 285.260321 
L 53.808828 284.778953 
L 54.144754 284.056902 
L 54.376427 284.056902 
L 54.669879 283.094167 
L 54.940164 283.094167 
L 55.052139 281.650064 
L 55.113919 280.687329 
L 55.229755 280.687329 
L 55.260645 280.205962 
L 55.635183 279.48391 
L 55.696962 278.521175 
L 55.870717 278.521175 
L 55.905468 277.077073 
L 56.137141 277.077073 
L 56.280006 276.355021 
L 56.35723 276.355021 
L 56.411287 274.910919 
L 56.669989 274.429551 
L 56.95958 274.429551 
L 57.067694 273.948184 
L 57.337979 273.948184 
L 57.438371 272.985449 
L 57.917162 271.541346 
L 58.110222 271.541346 
L 58.26081 270.097244 
L 58.318728 270.097244 
L 58.38823 269.615876 
L 58.504066 269.615876 
L 58.824547 266.727671 
L 59.152751 266.727671 
L 59.257003 266.00562 
L 59.604513 266.00562 
L 59.789851 263.117415 
L 59.97519 262.636047 
L 60.361311 260.951261 
L 60.805351 260.951261 
L 60.828518 259.988526 
L 61.08722 258.063056 
L 61.37295 258.063056 
L 61.72432 254.693483 
L 61.832434 254.693483 
L 61.952132 253.730748 
L 62.029356 253.730748 
L 62.315086 252.768013 
L 62.376866 251.805278 
L 62.608539 251.805278 
L 65.191692 236.642201 
L 65.461977 236.642201 
L 65.554647 233.994679 
L 65.651177 233.994679 
L 65.85196 232.069209 
L 66.160858 230.865791 
L 66.253527 229.421688 
L 66.465894 229.421688 
L 66.608759 228.699637 
L 67.110717 228.699637 
L 67.218831 228.218269 
L 67.520006 227.736902 
L 71.910208 193.559808 
L 72.354248 193.559808 
L 72.755814 190.912286 
L 72.86779 189.468184 
L 73.389054 189.468184 
L 73.558947 188.024081 
L 73.752008 188.024081 
L 74.323468 186.579979 
L 74.462472 185.617244 
L 74.6787 184.654509 
L 74.871761 184.654509 
L 74.96443 183.691774 
L 75.196103 183.691774 
L 75.304217 183.210406 
L 75.651726 182.006987 
L 75.728951 182.006987 
L 75.871816 181.284936 
L 76.180713 181.284936 
L 76.261798 179.359466 
L 76.570696 179.359466 
L 76.844842 177.193312 
L 77.03018 176.711944 
L 77.532138 176.711944 
L 79.281269 173.823739 
L 79.47433 173.823739 
L 79.702142 172.379637 
L 79.779366 172.379637 
L 79.841146 171.416902 
L 79.956982 171.416902 
L 80.273602 170.935534 
L 80.563193 170.935534 
L 80.733086 170.69485 
L 80.887535 170.69485 
L 81.15782 168.288013 
L 81.543942 168.288013 
L 81.652056 167.806645 
L 81.767892 167.806645 
L 82.123124 167.084594 
L 82.242822 166.121859 
L 82.320046 166.121859 
L 82.613499 164.196389 
L 82.883784 164.196389 
L 82.988037 163.474338 
L 83.208126 162.752286 
L 83.41277 161.0675 
L 83.489995 161.0675 
L 83.625137 159.864081 
L 83.895422 159.864081 
L 84.351046 156.975876 
L 84.602025 156.975876 
L 84.856865 156.013141 
L 85.231403 152.162201 
L 85.385852 152.162201 
L 85.493966 151.680833 
L 85.706333 151.680833 
L 85.872365 151.199466 
L 86.277793 151.199466 
L 86.436102 150.236731 
L 86.590551 150.236731 
L 86.660053 149.755363 
L 86.795195 149.755363 
L 86.903309 149.273996 
L 87.173595 149.273996 
L 87.235374 148.311261 
L 87.467047 148.311261 
L 88.409184 146.867158 
L 91.22401 146.867158 
L 91.247177 145.904423 
L 91.386181 144.941688 
L 91.517463 142.53485 
L 91.610132 141.090748 
L 91.725968 141.090748 
L 91.79547 140.60938 
L 91.942196 137.721175 
L 92.231787 137.721175 
L 92.675827 135.314338 
L 93.139173 135.314338 
L 94.100616 131.463397 
L 94.370901 131.463397 
L 94.467431 130.259979 
L 94.660492 130.259979 
L 94.953945 126.890406 
L 95.258981 124.242885 
L 95.521543 123.761517 
L 95.560156 123.761517 
L 95.853608 122.798782 
L 98.834467 122.798782 
L 99.274645 118.947842 
L 99.622155 118.947842 
L 105.371505 118.707158 
L 105.479619 118.225791 
L 105.70357 117.744423 
L 105.73446 117.263056 
L 106.236418 117.263056 
L 106.379283 116.781688 
L 106.441062 115.818953 
L 107.248056 115.578269 
L 107.348448 114.615534 
L 107.657345 114.615534 
L 107.970104 113.652799 
L 108.240389 113.652799 
L 108.850461 113.171432 
L 113.731038 112.44938 
L 115.020684 108.59844 
L 115.487891 108.59844 
L 115.557393 108.117073 
L 115.893319 107.395021 
L 117.013071 107.395021 
L 117.275634 106.913654 
L 117.565225 106.913654 
L 117.650172 104.988184 
L 120.063432 104.988184 
L 120.5345 103.544081 
L 120.959234 103.544081 
L 121.237242 101.618611 
L 121.816424 101.618611 
L 122.078987 98.730406 
L 122.465108 98.730406 
L 122.495998 98.249038 
L 124.866784 98.008355 
L 125.13707 98.008355 
L 125.206571 97.526987 
L 127.059955 97.526987 
L 127.241432 95.601517 
L 130.407629 95.601517 
L 130.438519 95.12015 
L 130.979089 95.12015 
L 131.064036 94.398098 
L 131.20304 93.435363 
L 131.589161 93.435363 
L 131.739749 93.194679 
L 132.666441 93.194679 
L 133.040979 91.269209 
L 133.909752 91.269209 
L 134.319041 90.306474 
L 135.091284 90.306474 
L 136.184008 89.825107 
L 137.952445 89.825107 
L 138.064421 89.584423 
L 138.373318 89.584423 
L 138.520044 89.103056 
L 139.948694 89.103056 
L 140.330954 88.862372 
L 141.720992 88.862372 
L 141.921775 87.899637 
L 144.972136 87.658953 
L 145.806158 86.696218 
L 148.277337 86.696218 
L 148.385451 86.21485 
L 151.339281 86.21485 
L 151.68679 83.808013 
L 153.733235 83.808013 
L 158.679452 82.604594 
L 158.972905 81.641859 
L 159.667924 81.641859 
L 159.741287 80.679124 
L 161.749119 80.679124 
L 161.8804 80.43844 
L 162.112073 80.43844 
L 162.278106 79.957073 
L 163.841898 79.957073 
L 163.872788 79.475705 
L 165.996457 79.475705 
L 166.104571 78.994338 
L 170.085484 78.994338 
L 182.016641 77.068868 
L 186.472485 77.068868 
L 187.796882 76.5875 
L 188.820104 76.5875 
L 188.951385 76.346816 
L 189.067222 76.346816 
L 209.087626 74.180662 
L 209.334744 73.217927 
L 211.246046 73.217927 
L 211.454552 72.977244 
L 211.744143 72.977244 
L 212.045318 72.495876 
L 212.199766 72.495876 
L 212.65539 72.014509 
L 214.52808 72.014509 
L 214.713418 71.533141 
L 220.065063 71.533141 
L 220.153871 71.051774 
L 220.906808 71.051774 
L 221.096008 69.607671 
L 225.671549 69.607671 
L 232.733713 67.200833 
L 239.483118 67.200833 
L 239.55262 66.719466 
L 244.881098 66.719466 
L 245.159106 64.793996 
L 245.23633 64.793996 
L 245.309693 64.553312 
L 249.290607 64.553312 
L 249.475945 64.071944 
L 253.897037 64.071944 
L 254.124849 62.627842 
L 254.41444 62.627842 
L 254.514832 61.665107 
L 261.46502 61.665107 
L 261.499771 60.221004 
L 263.835807 60.221004 
L 264.25668 59.980321 
L 265.492269 59.980321 
L 265.638995 59.498953 
L 266.102341 59.498953 
L 266.214316 59.258269 
L 266.503907 59.258269 
L 266.550242 58.536218 
L 279.006524 58.536218 
L 279.462148 58.05485 
L 279.574123 56.610748 
L 281.041385 56.610748 
L 281.612845 56.12938 
L 285.91424 56.12938 
L 285.948991 54.685278 
L 299.501859 54.685278 
L 299.532748 54.20391 
L 299.648585 54.20391 
L 299.911147 53.722543 
L 316.958416 53.722543 
L 316.993167 52.27844 
L 324.870047 52.27844 
L 324.916382 51.556389 
L 328.121191 51.556389 
L 328.229305 51.075021 
L 341.318827 51.075021 
L 341.58139 50.593654 
L 351.466102 50.593654 
L 351.512437 49.871603 
L 361.068946 49.871603 
L 361.385566 48.4275 
L 400.90125 48.4275 
L 400.90125 48.4275 
" style="fill:none;stroke:#ff7f0e;stroke-linecap:square;stroke-width:1.5;"/>
   </g>
   <g id="line2d_15">
    <path clip-path="url(#pd1988529e9)" d="M 43.78125 301.8675 
L 43.87778 301.8675 
L 43.947282 301.386132 
L 44.178955 301.386132 
L 44.375877 300.423397 
L 44.704081 300.423397 
L 44.920309 298.257244 
L 45.167427 298.257244 
L 45.233067 296.331774 
L 45.850862 296.331774 
L 46.395293 292.962201 
L 46.453211 292.962201 
L 46.561325 292.480833 
L 46.715774 292.480833 
L 46.816166 291.518098 
L 47.820082 291.518098 
L 47.966808 291.036731 
L 48.121257 291.036731 
L 48.248677 290.555363 
L 48.839443 290.555363 
L 48.966863 290.073996 
L 49.256454 290.073996 
L 49.380013 288.148526 
L 49.881971 288.148526 
L 49.951473 287.667158 
L 50.144534 287.667158 
L 50.190868 286.945107 
L 50.306705 286.945107 
L 50.611741 285.501004 
L 51.600212 280.928013 
L 51.947722 280.928013 
L 52.148505 279.002543 
L 52.41879 279.002543 
L 52.588684 277.55844 
L 53.194894 276.595705 
L 53.252813 275.392286 
L 53.445873 275.392286 
L 53.588738 274.670235 
L 53.743187 274.670235 
L 53.824273 273.7075 
L 54.082974 272.985449 
L 54.237423 272.985449 
L 54.337814 272.022714 
L 54.395733 272.022714 
L 54.496124 271.059979 
L 54.716214 270.337927 
L 55.179559 270.337927 
L 55.364898 269.615876 
L 55.84755 269.615876 
L 56.210504 268.171774 
L 56.326341 268.171774 
L 56.434455 267.690406 
L 57.032943 260.469893 
L 57.187392 260.469893 
L 57.291645 259.747842 
L 57.504011 259.747842 
L 57.731823 258.303739 
L 58.002108 258.303739 
L 58.032998 257.822372 
L 58.511789 257.822372 
L 58.631486 256.618953 
L 58.708711 256.618953 
L 58.905633 255.656218 
L 59.704904 248.917073 
L 59.897965 248.917073 
L 60.052414 246.269551 
L 60.361311 246.269551 
L 60.477148 245.066132 
L 60.724265 243.62203 
L 60.882575 241.455876 
L 60.979106 241.455876 
L 61.164444 238.086303 
L 61.569872 238.086303 
L 61.662541 236.642201 
L 61.720459 236.642201 
L 61.743626 235.679466 
L 62.091136 235.679466 
L 65.620287 207.278782 
L 65.743846 205.353312 
L 65.898295 205.353312 
L 65.929185 204.871944 
L 66.045021 204.871944 
L 66.180164 203.668526 
L 66.257388 203.668526 
L 66.365502 203.187158 
L 66.481338 203.187158 
L 67.075966 201.261688 
L 67.365557 201.261688 
L 67.492977 199.576902 
L 67.716928 199.095534 
L 67.778707 198.132799 
L 67.894543 198.132799 
L 68.002658 197.651432 
L 68.157106 197.651432 
L 68.442836 196.207329 
L 68.597285 196.207329 
L 68.744011 193.319124 
L 68.859847 193.319124 
L 69.303887 190.912286 
L 69.987323 190.190235 
L 70.095437 189.708868 
L 70.346416 189.708868 
L 70.798178 187.30203 
L 70.856096 187.30203 
L 70.948765 185.857927 
L 71.180438 185.857927 
L 71.211328 185.37656 
L 71.539531 185.37656 
L 71.840706 183.691774 
L 71.898624 183.691774 
L 71.921792 182.729038 
L 72.192077 182.729038 
L 72.566615 180.803568 
L 72.975904 175.027158 
L 73.856261 174.545791 
L 74.145852 174.545791 
L 77.462637 158.419979 
L 77.647975 157.938611 
L 78.149933 157.938611 
L 78.180823 157.457244 
L 79.47433 157.457244 
L 79.671252 156.494509 
L 80.095986 156.494509 
L 80.242712 156.013141 
L 80.397161 156.013141 
L 80.478246 155.050406 
L 80.555471 155.050406 
L 80.578638 154.087671 
L 81.15782 154.087671 
L 81.625027 150.718098 
L 81.968676 144.219637 
L 82.296879 144.219637 
L 82.366381 143.738269 
L 82.945563 143.738269 
L 83.076845 142.294167 
L 83.154069 142.294167 
L 83.25446 141.331432 
L 84.14254 141.331432 
L 84.358768 140.368697 
L 84.818253 140.368697 
L 84.984285 137.480491 
L 87.648524 137.480491 
L 87.718026 136.999124 
L 88.451657 136.999124 
L 88.899558 133.629551 
L 89.227761 133.629551 
L 89.694969 132.666816 
L 91.417071 132.666816 
L 91.841805 130.259979 
L 91.919029 130.259979 
L 92.027143 129.778611 
L 92.204759 128.815876 
L 92.505934 128.334509 
L 92.641076 128.334509 
L 92.84186 126.409038 
L 92.977002 126.409038 
L 93.19323 125.446303 
L 94.814941 125.446303 
L 94.861276 124.724252 
L 96.096865 124.724252 
L 96.428929 121.354679 
L 96.853663 121.354679 
L 96.923165 120.873312 
L 97.000389 120.873312 
L 97.22434 120.151261 
L 98.517847 120.151261 
L 99.081585 118.947842 
L 99.521763 117.503739 
L 100.05075 117.503739 
L 100.33648 116.059637 
L 100.934968 116.059637 
L 101.421481 115.096902 
L 110.823542 115.096902 
L 111.07066 113.652799 
L 111.263721 113.652799 
L 111.530145 112.208697 
L 111.553312 111.245962 
L 111.920127 111.245962 
L 112.422086 106.432286 
L 113.619062 106.432286 
L 113.649952 105.710235 
L 116.101824 105.710235 
L 116.229244 105.228868 
L 117.233161 105.228868 
L 117.588392 103.784765 
L 117.99382 103.784765 
L 118.082628 103.303397 
L 119.337523 103.303397 
L 119.507417 101.859295 
L 119.700478 101.859295 
L 120.31055 98.97109 
L 120.870426 98.97109 
L 121.171601 98.489722 
L 121.673559 98.489722 
L 121.735338 97.526987 
L 121.851175 97.526987 
L 121.951566 96.564252 
L 123.055874 95.601517 
L 123.534665 95.360833 
L 123.631195 94.157415 
L 123.747032 94.157415 
L 128.260793 92.713312 
L 128.380491 91.750577 
L 132.176066 91.750577 
L 132.210817 90.306474 
L 137.790274 90.306474 
L 137.898388 89.825107 
L 138.747856 89.825107 
L 138.871415 89.103056 
L 139.933249 89.103056 
L 139.979584 88.381004 
L 141.176561 88.381004 
L 141.346454 87.658953 
L 142.485513 87.658953 
L 143.087862 85.492799 
L 144.458594 85.492799 
L 144.489484 85.011432 
L 145.416176 85.011432 
L 146.66721 83.567329 
L 147.30431 83.567329 
L 147.49351 82.123226 
L 148.246447 82.123226 
L 148.377728 81.882543 
L 148.555344 80.919808 
L 148.844935 80.919808 
L 148.953049 80.43844 
L 149.107498 80.43844 
L 149.381644 79.475705 
L 149.439563 79.475705 
L 151.11533 79.235021 
L 153.779569 79.235021 
L 154.717845 78.753654 
L 154.910906 78.753654 
L 155.034465 78.031603 
L 161.540613 78.031603 
L 161.648727 77.550235 
L 162.073461 77.550235 
L 162.142963 77.068868 
L 163.799425 77.068868 
L 163.961596 75.143397 
L 169.668473 75.143397 
L 190.260337 72.255192 
L 197.461505 72.255192 
L 197.727929 70.81109 
L 198.399781 69.366987 
L 199.616064 69.366987 
L 199.646953 68.88562 
L 205.431055 68.88562 
L 223.173342 66.238098 
L 223.26215 65.756731 
L 223.435905 65.756731 
L 223.544019 65.275363 
L 223.73708 65.275363 
L 224.073005 64.553312 
L 225.308594 64.553312 
L 225.725606 64.071944 
L 225.795108 63.349893 
L 226.354984 63.349893 
L 226.717938 61.424423 
L 228.802995 61.424423 
L 229.084864 58.536218 
L 235.764767 58.536218 
L 235.872881 58.05485 
L 239.502424 58.05485 
L 239.687763 57.573483 
L 240.53723 57.573483 
L 240.606732 57.092115 
L 242.556646 57.092115 
L 242.741984 56.610748 
L 244.498838 56.610748 
L 244.765262 56.370064 
L 244.842486 56.370064 
L 245.120493 55.648013 
L 247.10902 55.648013 
L 247.155354 54.925962 
L 248.60331 54.925962 
L 248.688257 54.20391 
L 256.792949 54.20391 
L 256.978287 53.722543 
L 268.179675 53.722543 
L 268.395903 52.759808 
L 272.257119 52.759808 
L 272.535126 52.037756 
L 277.284422 52.037756 
L 277.546985 51.556389 
L 291.343109 51.556389 
L 291.431917 51.075021 
L 295.756479 51.075021 
L 296.401302 50.35297 
L 312.908 50.35297 
L 313.058588 50.112286 
L 333.92846 50.112286 
L 334.264386 49.390235 
L 337.411276 49.390235 
L 337.577309 48.908868 
L 356.311928 48.908868 
L 356.423904 48.668184 
L 372.409338 48.668184 
L 372.463395 48.4275 
L 400.90125 48.4275 
L 400.90125 48.4275 
" style="fill:none;stroke:#2ca02c;stroke-linecap:square;stroke-width:1.5;"/>
   </g>
   <g id="line2d_16">
    <path clip-path="url(#pd1988529e9)" d="M 43.78125 301.8675 
L 400.90125 48.4275 
" style="fill:none;stroke:#000000;stroke-dasharray:5.6,2.4;stroke-dashoffset:0;stroke-width:1.5;"/>
   </g>
   <g id="patch_3">
    <path d="M 43.78125 301.8675 
L 43.78125 35.7555 
" style="fill:none;stroke:#000000;stroke-linecap:square;stroke-linejoin:miter;stroke-width:0.8;"/>
   </g>
   <g id="patch_4">
    <path d="M 400.90125 301.8675 
L 400.90125 35.7555 
" style="fill:none;stroke:#000000;stroke-linecap:square;stroke-linejoin:miter;stroke-width:0.8;"/>
   </g>
   <g id="patch_5">
    <path d="M 43.78125 301.8675 
L 400.90125 301.8675 
" style="fill:none;stroke:#000000;stroke-linecap:square;stroke-linejoin:miter;stroke-width:0.8;"/>
   </g>
   <g id="patch_6">
    <path d="M 43.78125 35.7555 
L 400.90125 35.7555 
" style="fill:none;stroke:#000000;stroke-linecap:square;stroke-linejoin:miter;stroke-width:0.8;"/>
   </g>
   <g id="text_15">
    <!-- ROC Curve AdaBoost + DummySampler -->
    <defs>
     <path d="M 39.40625 66.21875 
Q 28.65625 66.21875 22.328125 58.203125 
Q 16.015625 50.203125 16.015625 36.375 
Q 16.015625 22.609375 22.328125 14.59375 
Q 28.65625 6.59375 39.40625 6.59375 
Q 50.140625 6.59375 56.421875 14.59375 
Q 62.703125 22.609375 62.703125 36.375 
Q 62.703125 50.203125 56.421875 58.203125 
Q 50.140625 66.21875 39.40625 66.21875 
M 39.40625 74.21875 
Q 54.734375 74.21875 63.90625 63.9375 
Q 73.09375 53.65625 73.09375 36.375 
Q 73.09375 19.140625 63.90625 8.859375 
Q 54.734375 -1.421875 39.40625 -1.421875 
Q 24.03125 -1.421875 14.8125 8.828125 
Q 5.609375 19.09375 5.609375 36.375 
Q 5.609375 53.65625 14.8125 63.9375 
Q 24.03125 74.21875 39.40625 74.21875 
" id="DejaVuSans-4f"/>
     <path d="M 64.40625 67.28125 
L 64.40625 56.890625 
Q 59.421875 61.53125 53.78125 63.8125 
Q 48.140625 66.109375 41.796875 66.109375 
Q 29.296875 66.109375 22.65625 58.46875 
Q 16.015625 50.828125 16.015625 36.375 
Q 16.015625 21.96875 22.65625 14.328125 
Q 29.296875 6.6875 41.796875 6.6875 
Q 48.140625 6.6875 53.78125 8.984375 
Q 59.421875 11.28125 64.40625 15.921875 
L 64.40625 5.609375 
Q 59.234375 2.09375 53.4375 0.328125 
Q 47.65625 -1.421875 41.21875 -1.421875 
Q 24.65625 -1.421875 15.125 8.703125 
Q 5.609375 18.84375 5.609375 36.375 
Q 5.609375 53.953125 15.125 64.078125 
Q 24.65625 74.21875 41.21875 74.21875 
Q 47.75 74.21875 53.53125 72.484375 
Q 59.328125 70.75 64.40625 67.28125 
" id="DejaVuSans-43"/>
     <path d="M 34.1875 63.1875 
L 20.796875 26.90625 
L 47.609375 26.90625 
z
M 28.609375 72.90625 
L 39.796875 72.90625 
L 67.578125 0 
L 57.328125 0 
L 50.6875 18.703125 
L 17.828125 18.703125 
L 11.1875 0 
L 0.78125 0 
z
" id="DejaVuSans-41"/>
     <path d="M 45.40625 46.390625 
L 45.40625 75.984375 
L 54.390625 75.984375 
L 54.390625 0 
L 45.40625 0 
L 45.40625 8.203125 
Q 42.578125 3.328125 38.25 0.953125 
Q 33.9375 -1.421875 27.875 -1.421875 
Q 17.96875 -1.421875 11.734375 6.484375 
Q 5.515625 14.40625 5.515625 27.296875 
Q 5.515625 40.1875 11.734375 48.09375 
Q 17.96875 56 27.875 56 
Q 33.9375 56 38.25 53.625 
Q 42.578125 51.265625 45.40625 46.390625 
M 14.796875 27.296875 
Q 14.796875 17.390625 18.875 11.75 
Q 22.953125 6.109375 30.078125 6.109375 
Q 37.203125 6.109375 41.296875 11.75 
Q 45.40625 17.390625 45.40625 27.296875 
Q 45.40625 37.203125 41.296875 42.84375 
Q 37.203125 48.484375 30.078125 48.484375 
Q 22.953125 48.484375 18.875 42.84375 
Q 14.796875 37.203125 14.796875 27.296875 
" id="DejaVuSans-64"/>
     <path d="M 19.671875 34.8125 
L 19.671875 8.109375 
L 35.5 8.109375 
Q 43.453125 8.109375 47.28125 11.40625 
Q 51.125 14.703125 51.125 21.484375 
Q 51.125 28.328125 47.28125 31.5625 
Q 43.453125 34.8125 35.5 34.8125 
z
M 19.671875 64.796875 
L 19.671875 42.828125 
L 34.28125 42.828125 
Q 41.5 42.828125 45.03125 45.53125 
Q 48.578125 48.25 48.578125 53.8125 
Q 48.578125 59.328125 45.03125 62.0625 
Q 41.5 64.796875 34.28125 64.796875 
z
M 9.8125 72.90625 
L 35.015625 72.90625 
Q 46.296875 72.90625 52.390625 68.21875 
Q 58.5 63.53125 58.5 54.890625 
Q 58.5 48.1875 55.375 44.234375 
Q 52.25 40.28125 46.1875 39.3125 
Q 53.46875 37.75 57.5 32.78125 
Q 61.53125 27.828125 61.53125 20.40625 
Q 61.53125 10.640625 54.890625 5.3125 
Q 48.25 0 35.984375 0 
L 9.8125 0 
z
" id="DejaVuSans-42"/>
     <path d="M 46 62.703125 
L 46 35.5 
L 73.1875 35.5 
L 73.1875 27.203125 
L 46 27.203125 
L 46 0 
L 37.796875 0 
L 37.796875 27.203125 
L 10.59375 27.203125 
L 10.59375 35.5 
L 37.796875 35.5 
L 37.796875 62.703125 
z
" id="DejaVuSans-2b"/>
     <path d="M 19.671875 64.796875 
L 19.671875 8.109375 
L 31.59375 8.109375 
Q 46.6875 8.109375 53.6875 14.9375 
Q 60.6875 21.78125 60.6875 36.53125 
Q 60.6875 51.171875 53.6875 57.984375 
Q 46.6875 64.796875 31.59375 64.796875 
z
M 9.8125 72.90625 
L 30.078125 72.90625 
Q 51.265625 72.90625 61.171875 64.09375 
Q 71.09375 55.28125 71.09375 36.53125 
Q 71.09375 17.671875 61.125 8.828125 
Q 51.171875 0 30.078125 0 
L 9.8125 0 
z
" id="DejaVuSans-44"/>
     <path d="M 52 44.1875 
Q 55.375 50.25 60.0625 53.125 
Q 64.75 56 71.09375 56 
Q 79.640625 56 84.28125 50.015625 
Q 88.921875 44.046875 88.921875 33.015625 
L 88.921875 0 
L 79.890625 0 
L 79.890625 32.71875 
Q 79.890625 40.578125 77.09375 44.375 
Q 74.3125 48.1875 68.609375 48.1875 
Q 61.625 48.1875 57.5625 43.546875 
Q 53.515625 38.921875 53.515625 30.90625 
L 53.515625 0 
L 44.484375 0 
L 44.484375 32.71875 
Q 44.484375 40.625 41.703125 44.40625 
Q 38.921875 48.1875 33.109375 48.1875 
Q 26.21875 48.1875 22.15625 43.53125 
Q 18.109375 38.875 18.109375 30.90625 
L 18.109375 0 
L 9.078125 0 
L 9.078125 54.6875 
L 18.109375 54.6875 
L 18.109375 46.1875 
Q 21.1875 51.21875 25.484375 53.609375 
Q 29.78125 56 35.6875 56 
Q 41.65625 56 45.828125 52.96875 
Q 50 49.953125 52 44.1875 
" id="DejaVuSans-6d"/>
     <path d="M 32.171875 -5.078125 
Q 28.375 -14.84375 24.75 -17.8125 
Q 21.140625 -20.796875 15.09375 -20.796875 
L 7.90625 -20.796875 
L 7.90625 -13.28125 
L 13.1875 -13.28125 
Q 16.890625 -13.28125 18.9375 -11.515625 
Q 21 -9.765625 23.484375 -3.21875 
L 25.09375 0.875 
L 2.984375 54.6875 
L 12.5 54.6875 
L 29.59375 11.921875 
L 46.6875 54.6875 
L 56.203125 54.6875 
z
" id="DejaVuSans-79"/>
     <path d="M 53.515625 70.515625 
L 53.515625 60.890625 
Q 47.90625 63.578125 42.921875 64.890625 
Q 37.9375 66.21875 33.296875 66.21875 
Q 25.25 66.21875 20.875 63.09375 
Q 16.5 59.96875 16.5 54.203125 
Q 16.5 49.359375 19.40625 46.890625 
Q 22.3125 44.4375 30.421875 42.921875 
L 36.375 41.703125 
Q 47.40625 39.59375 52.65625 34.296875 
Q 57.90625 29 57.90625 20.125 
Q 57.90625 9.515625 50.796875 4.046875 
Q 43.703125 -1.421875 29.984375 -1.421875 
Q 24.8125 -1.421875 18.96875 -0.25 
Q 13.140625 0.921875 6.890625 3.21875 
L 6.890625 13.375 
Q 12.890625 10.015625 18.65625 8.296875 
Q 24.421875 6.59375 29.984375 6.59375 
Q 38.421875 6.59375 43.015625 9.90625 
Q 47.609375 13.234375 47.609375 19.390625 
Q 47.609375 24.75 44.3125 27.78125 
Q 41.015625 30.8125 33.5 32.328125 
L 27.484375 33.5 
Q 16.453125 35.6875 11.515625 40.375 
Q 6.59375 45.0625 6.59375 53.421875 
Q 6.59375 63.09375 13.40625 68.65625 
Q 20.21875 74.21875 32.171875 74.21875 
Q 37.3125 74.21875 42.625 73.28125 
Q 47.953125 72.359375 53.515625 70.515625 
" id="DejaVuSans-53"/>
     <path d="M 18.109375 8.203125 
L 18.109375 -20.796875 
L 9.078125 -20.796875 
L 9.078125 54.6875 
L 18.109375 54.6875 
L 18.109375 46.390625 
Q 20.953125 51.265625 25.265625 53.625 
Q 29.59375 56 35.59375 56 
Q 45.5625 56 51.78125 48.09375 
Q 58.015625 40.1875 58.015625 27.296875 
Q 58.015625 14.40625 51.78125 6.484375 
Q 45.5625 -1.421875 35.59375 -1.421875 
Q 29.59375 -1.421875 25.265625 0.953125 
Q 20.953125 3.328125 18.109375 8.203125 
M 48.6875 27.296875 
Q 48.6875 37.203125 44.609375 42.84375 
Q 40.53125 48.484375 33.40625 48.484375 
Q 26.265625 48.484375 22.1875 42.84375 
Q 18.109375 37.203125 18.109375 27.296875 
Q 18.109375 17.390625 22.1875 11.75 
Q 26.265625 6.109375 33.40625 6.109375 
Q 40.53125 6.109375 44.609375 11.75 
Q 48.6875 17.390625 48.6875 27.296875 
" id="DejaVuSans-70"/>
    </defs>
    <g transform="translate(101.74875 16.318125)scale(0.12 -0.12)">
     <use xlink:href="#DejaVuSans-52"/>
     <use x="69.482422" xlink:href="#DejaVuSans-4f"/>
     <use x="148.193359" xlink:href="#DejaVuSans-43"/>
     <use x="218.017578" xlink:href="#DejaVuSans-20"/>
     <use x="249.804688" xlink:href="#DejaVuSans-43"/>
     <use x="319.628906" xlink:href="#DejaVuSans-75"/>
     <use x="383.007812" xlink:href="#DejaVuSans-72"/>
     <use x="424.121094" xlink:href="#DejaVuSans-76"/>
     <use x="483.300781" xlink:href="#DejaVuSans-65"/>
     <use x="544.824219" xlink:href="#DejaVuSans-20"/>
     <use x="576.611328" xlink:href="#DejaVuSans-41"/>
     <use x="645.003906" xlink:href="#DejaVuSans-64"/>
     <use x="708.480469" xlink:href="#DejaVuSans-61"/>
     <use x="769.759766" xlink:href="#DejaVuSans-42"/>
     <use x="838.363281" xlink:href="#DejaVuSans-6f"/>
     <use x="899.544922" xlink:href="#DejaVuSans-6f"/>
     <use x="960.726562" xlink:href="#DejaVuSans-73"/>
     <use x="1012.826172" xlink:href="#DejaVuSans-74"/>
     <use x="1052.035156" xlink:href="#DejaVuSans-20"/>
     <use x="1083.822266" xlink:href="#DejaVuSans-2b"/>
     <use x="1167.611328" xlink:href="#DejaVuSans-20"/>
     <use x="1199.398438" xlink:href="#DejaVuSans-44"/>
     <use x="1276.400391" xlink:href="#DejaVuSans-75"/>
     <use x="1339.779297" xlink:href="#DejaVuSans-6d"/>
     <use x="1437.191406" xlink:href="#DejaVuSans-6d"/>
     <use x="1534.603516" xlink:href="#DejaVuSans-79"/>
     <use x="1593.783203" xlink:href="#DejaVuSans-53"/>
     <use x="1657.259766" xlink:href="#DejaVuSans-61"/>
     <use x="1718.539062" xlink:href="#DejaVuSans-6d"/>
     <use x="1815.951172" xlink:href="#DejaVuSans-70"/>
     <use x="1879.427734" xlink:href="#DejaVuSans-6c"/>
     <use x="1907.210938" xlink:href="#DejaVuSans-65"/>
     <use x="1968.734375" xlink:href="#DejaVuSans-72"/>
    </g>
    <!-- Train: 1   Test: [1, 2, 4, 6, 8, 10, 12] -->
    <defs>
     <path d="M 54.890625 33.015625 
L 54.890625 0 
L 45.90625 0 
L 45.90625 32.71875 
Q 45.90625 40.484375 42.875 44.328125 
Q 39.84375 48.1875 33.796875 48.1875 
Q 26.515625 48.1875 22.3125 43.546875 
Q 18.109375 38.921875 18.109375 30.90625 
L 18.109375 0 
L 9.078125 0 
L 9.078125 54.6875 
L 18.109375 54.6875 
L 18.109375 46.1875 
Q 21.34375 51.125 25.703125 53.5625 
Q 30.078125 56 35.796875 56 
Q 45.21875 56 50.046875 50.171875 
Q 54.890625 44.34375 54.890625 33.015625 
" id="DejaVuSans-6e"/>
     <path d="M 11.71875 12.40625 
L 22.015625 12.40625 
L 22.015625 0 
L 11.71875 0 
z
M 11.71875 51.703125 
L 22.015625 51.703125 
L 22.015625 39.3125 
L 11.71875 39.3125 
z
" id="DejaVuSans-3a"/>
     <path d="M 8.59375 75.984375 
L 29.296875 75.984375 
L 29.296875 69 
L 17.578125 69 
L 17.578125 -6.203125 
L 29.296875 -6.203125 
L 29.296875 -13.1875 
L 8.59375 -13.1875 
z
" id="DejaVuSans-5b"/>
     <path d="M 11.71875 12.40625 
L 22.015625 12.40625 
L 22.015625 4 
L 14.015625 -11.625 
L 7.71875 -11.625 
L 11.71875 4 
z
" id="DejaVuSans-2c"/>
     <path d="M 30.421875 75.984375 
L 30.421875 -13.1875 
L 9.71875 -13.1875 
L 9.71875 -6.203125 
L 21.390625 -6.203125 
L 21.390625 69 
L 9.71875 69 
L 9.71875 75.984375 
z
" id="DejaVuSans-5d"/>
    </defs>
    <g transform="translate(114.942188 29.7555)scale(0.12 -0.12)">
     <use xlink:href="#DejaVuSans-54"/>
     <use x="60.865234" xlink:href="#DejaVuSans-72"/>
     <use x="101.978516" xlink:href="#DejaVuSans-61"/>
     <use x="163.257812" xlink:href="#DejaVuSans-69"/>
     <use x="191.041016" xlink:href="#DejaVuSans-6e"/>
     <use x="254.419922" xlink:href="#DejaVuSans-3a"/>
     <use x="288.111328" xlink:href="#DejaVuSans-20"/>
     <use x="319.898438" xlink:href="#DejaVuSans-31"/>
     <use x="383.521484" xlink:href="#DejaVuSans-20"/>
     <use x="415.308594" xlink:href="#DejaVuSans-20"/>
     <use x="447.095703" xlink:href="#DejaVuSans-20"/>
     <use x="478.882812" xlink:href="#DejaVuSans-54"/>
     <use x="539.701172" xlink:href="#DejaVuSans-65"/>
     <use x="601.224609" xlink:href="#DejaVuSans-73"/>
     <use x="653.324219" xlink:href="#DejaVuSans-74"/>
     <use x="692.533203" xlink:href="#DejaVuSans-3a"/>
     <use x="726.224609" xlink:href="#DejaVuSans-20"/>
     <use x="758.011719" xlink:href="#DejaVuSans-5b"/>
     <use x="797.025391" xlink:href="#DejaVuSans-31"/>
     <use x="860.648438" xlink:href="#DejaVuSans-2c"/>
     <use x="892.435547" xlink:href="#DejaVuSans-20"/>
     <use x="924.222656" xlink:href="#DejaVuSans-32"/>
     <use x="987.845703" xlink:href="#DejaVuSans-2c"/>
     <use x="1019.632812" xlink:href="#DejaVuSans-20"/>
     <use x="1051.419922" xlink:href="#DejaVuSans-34"/>
     <use x="1115.042969" xlink:href="#DejaVuSans-2c"/>
     <use x="1146.830078" xlink:href="#DejaVuSans-20"/>
     <use x="1178.617188" xlink:href="#DejaVuSans-36"/>
     <use x="1242.240234" xlink:href="#DejaVuSans-2c"/>
     <use x="1274.027344" xlink:href="#DejaVuSans-20"/>
     <use x="1305.814453" xlink:href="#DejaVuSans-38"/>
     <use x="1369.4375" xlink:href="#DejaVuSans-2c"/>
     <use x="1401.224609" xlink:href="#DejaVuSans-20"/>
     <use x="1433.011719" xlink:href="#DejaVuSans-31"/>
     <use x="1496.634766" xlink:href="#DejaVuSans-30"/>
     <use x="1560.257812" xlink:href="#DejaVuSans-2c"/>
     <use x="1592.044922" xlink:href="#DejaVuSans-20"/>
     <use x="1623.832031" xlink:href="#DejaVuSans-31"/>
     <use x="1687.455078" xlink:href="#DejaVuSans-32"/>
     <use x="1751.078125" xlink:href="#DejaVuSans-5d"/>
    </g>
   </g>
   <g id="legend_1">
    <g id="patch_7">
     <path d="M 217.087188 296.8675 
L 393.90125 296.8675 
Q 395.90125 296.8675 395.90125 294.8675 
L 395.90125 251.833125 
Q 395.90125 249.833125 393.90125 249.833125 
L 217.087188 249.833125 
Q 215.087188 249.833125 215.087188 251.833125 
L 215.087188 294.8675 
Q 215.087188 296.8675 217.087188 296.8675 
z
" style="fill:#ffffff;opacity:0.8;stroke:#cccccc;stroke-linejoin:miter;"/>
    </g>
    <g id="line2d_17">
     <path d="M 219.087188 257.931562 
L 239.087188 257.931562 
" style="fill:none;stroke:#1f77b4;stroke-linecap:square;stroke-width:1.5;"/>
    </g>
    <g id="line2d_18"/>
    <g id="text_16">
     <!-- ROC curve - 0 (AUC = 0.834) -->
     <defs>
      <path d="M 48.78125 52.59375 
L 48.78125 44.1875 
Q 44.96875 46.296875 41.140625 47.34375 
Q 37.3125 48.390625 33.40625 48.390625 
Q 24.65625 48.390625 19.8125 42.84375 
Q 14.984375 37.3125 14.984375 27.296875 
Q 14.984375 17.28125 19.8125 11.734375 
Q 24.65625 6.203125 33.40625 6.203125 
Q 37.3125 6.203125 41.140625 7.25 
Q 44.96875 8.296875 48.78125 10.40625 
L 48.78125 2.09375 
Q 45.015625 0.34375 40.984375 -0.53125 
Q 36.96875 -1.421875 32.421875 -1.421875 
Q 20.0625 -1.421875 12.78125 6.34375 
Q 5.515625 14.109375 5.515625 27.296875 
Q 5.515625 40.671875 12.859375 48.328125 
Q 20.21875 56 33.015625 56 
Q 37.15625 56 41.109375 55.140625 
Q 45.0625 54.296875 48.78125 52.59375 
" id="DejaVuSans-63"/>
      <path d="M 4.890625 31.390625 
L 31.203125 31.390625 
L 31.203125 23.390625 
L 4.890625 23.390625 
z
" id="DejaVuSans-2d"/>
      <path d="M 31 75.875 
Q 24.46875 64.65625 21.28125 53.65625 
Q 18.109375 42.671875 18.109375 31.390625 
Q 18.109375 20.125 21.3125 9.0625 
Q 24.515625 -2 31 -13.1875 
L 23.1875 -13.1875 
Q 15.875 -1.703125 12.234375 9.375 
Q 8.59375 20.453125 8.59375 31.390625 
Q 8.59375 42.28125 12.203125 53.3125 
Q 15.828125 64.359375 23.1875 75.875 
z
" id="DejaVuSans-28"/>
      <path d="M 8.6875 72.90625 
L 18.609375 72.90625 
L 18.609375 28.609375 
Q 18.609375 16.890625 22.84375 11.734375 
Q 27.09375 6.59375 36.625 6.59375 
Q 46.09375 6.59375 50.34375 11.734375 
Q 54.59375 16.890625 54.59375 28.609375 
L 54.59375 72.90625 
L 64.5 72.90625 
L 64.5 27.390625 
Q 64.5 13.140625 57.4375 5.859375 
Q 50.390625 -1.421875 36.625 -1.421875 
Q 22.796875 -1.421875 15.734375 5.859375 
Q 8.6875 13.140625 8.6875 27.390625 
z
" id="DejaVuSans-55"/>
      <path d="M 10.59375 45.40625 
L 73.1875 45.40625 
L 73.1875 37.203125 
L 10.59375 37.203125 
z
M 10.59375 25.484375 
L 73.1875 25.484375 
L 73.1875 17.1875 
L 10.59375 17.1875 
z
" id="DejaVuSans-3d"/>
      <path d="M 40.578125 39.3125 
Q 47.65625 37.796875 51.625 33 
Q 55.609375 28.21875 55.609375 21.1875 
Q 55.609375 10.40625 48.1875 4.484375 
Q 40.765625 -1.421875 27.09375 -1.421875 
Q 22.515625 -1.421875 17.65625 -0.515625 
Q 12.796875 0.390625 7.625 2.203125 
L 7.625 11.71875 
Q 11.71875 9.328125 16.59375 8.109375 
Q 21.484375 6.890625 26.8125 6.890625 
Q 36.078125 6.890625 40.9375 10.546875 
Q 45.796875 14.203125 45.796875 21.1875 
Q 45.796875 27.640625 41.28125 31.265625 
Q 36.765625 34.90625 28.71875 34.90625 
L 20.21875 34.90625 
L 20.21875 43.015625 
L 29.109375 43.015625 
Q 36.375 43.015625 40.234375 45.921875 
Q 44.09375 48.828125 44.09375 54.296875 
Q 44.09375 59.90625 40.109375 62.90625 
Q 36.140625 65.921875 28.71875 65.921875 
Q 24.65625 65.921875 20.015625 65.03125 
Q 15.375 64.15625 9.8125 62.3125 
L 9.8125 71.09375 
Q 15.4375 72.65625 20.34375 73.4375 
Q 25.25 74.21875 29.59375 74.21875 
Q 40.828125 74.21875 47.359375 69.109375 
Q 53.90625 64.015625 53.90625 55.328125 
Q 53.90625 49.265625 50.4375 45.09375 
Q 46.96875 40.921875 40.578125 39.3125 
" id="DejaVuSans-33"/>
      <path d="M 8.015625 75.875 
L 15.828125 75.875 
Q 23.140625 64.359375 26.78125 53.3125 
Q 30.421875 42.28125 30.421875 31.390625 
Q 30.421875 20.453125 26.78125 9.375 
Q 23.140625 -1.703125 15.828125 -13.1875 
L 8.015625 -13.1875 
Q 14.5 -2 17.703125 9.0625 
Q 20.90625 20.125 20.90625 31.390625 
Q 20.90625 42.671875 17.703125 53.65625 
Q 14.5 64.65625 8.015625 75.875 
" id="DejaVuSans-29"/>
     </defs>
     <g transform="translate(247.087188 261.431562)scale(0.1 -0.1)">
      <use xlink:href="#DejaVuSans-52"/>
      <use x="69.482422" xlink:href="#DejaVuSans-4f"/>
      <use x="148.193359" xlink:href="#DejaVuSans-43"/>
      <use x="218.017578" xlink:href="#DejaVuSans-20"/>
      <use x="249.804688" xlink:href="#DejaVuSans-63"/>
      <use x="304.785156" xlink:href="#DejaVuSans-75"/>
      <use x="368.164062" xlink:href="#DejaVuSans-72"/>
      <use x="409.277344" xlink:href="#DejaVuSans-76"/>
      <use x="468.457031" xlink:href="#DejaVuSans-65"/>
      <use x="529.980469" xlink:href="#DejaVuSans-20"/>
      <use x="561.767578" xlink:href="#DejaVuSans-2d"/>
      <use x="597.851562" xlink:href="#DejaVuSans-20"/>
      <use x="629.638672" xlink:href="#DejaVuSans-30"/>
      <use x="693.261719" xlink:href="#DejaVuSans-20"/>
      <use x="725.048828" xlink:href="#DejaVuSans-28"/>
      <use x="764.0625" xlink:href="#DejaVuSans-41"/>
      <use x="832.470703" xlink:href="#DejaVuSans-55"/>
      <use x="905.664062" xlink:href="#DejaVuSans-43"/>
      <use x="975.488281" xlink:href="#DejaVuSans-20"/>
      <use x="1007.275391" xlink:href="#DejaVuSans-3d"/>
      <use x="1091.064453" xlink:href="#DejaVuSans-20"/>
      <use x="1122.851562" xlink:href="#DejaVuSans-30"/>
      <use x="1186.474609" xlink:href="#DejaVuSans-2e"/>
      <use x="1218.261719" xlink:href="#DejaVuSans-38"/>
      <use x="1281.884766" xlink:href="#DejaVuSans-33"/>
      <use x="1345.507812" xlink:href="#DejaVuSans-34"/>
      <use x="1409.130859" xlink:href="#DejaVuSans-29"/>
     </g>
    </g>
    <g id="line2d_19">
     <path d="M 219.087188 272.609687 
L 239.087188 272.609687 
" style="fill:none;stroke:#ff7f0e;stroke-linecap:square;stroke-width:1.5;"/>
    </g>
    <g id="line2d_20"/>
    <g id="text_17">
     <!-- ROC curve - 1 (AUC = 0.835) -->
     <defs>
      <path d="M 10.796875 72.90625 
L 49.515625 72.90625 
L 49.515625 64.59375 
L 19.828125 64.59375 
L 19.828125 46.734375 
Q 21.96875 47.46875 24.109375 47.828125 
Q 26.265625 48.1875 28.421875 48.1875 
Q 40.625 48.1875 47.75 41.5 
Q 54.890625 34.8125 54.890625 23.390625 
Q 54.890625 11.625 47.5625 5.09375 
Q 40.234375 -1.421875 26.90625 -1.421875 
Q 22.3125 -1.421875 17.546875 -0.640625 
Q 12.796875 0.140625 7.71875 1.703125 
L 7.71875 11.625 
Q 12.109375 9.234375 16.796875 8.0625 
Q 21.484375 6.890625 26.703125 6.890625 
Q 35.15625 6.890625 40.078125 11.328125 
Q 45.015625 15.765625 45.015625 23.390625 
Q 45.015625 31 40.078125 35.4375 
Q 35.15625 39.890625 26.703125 39.890625 
Q 22.75 39.890625 18.8125 39.015625 
Q 14.890625 38.140625 10.796875 36.28125 
z
" id="DejaVuSans-35"/>
     </defs>
     <g transform="translate(247.087188 276.109687)scale(0.1 -0.1)">
      <use xlink:href="#DejaVuSans-52"/>
      <use x="69.482422" xlink:href="#DejaVuSans-4f"/>
      <use x="148.193359" xlink:href="#DejaVuSans-43"/>
      <use x="218.017578" xlink:href="#DejaVuSans-20"/>
      <use x="249.804688" xlink:href="#DejaVuSans-63"/>
      <use x="304.785156" xlink:href="#DejaVuSans-75"/>
      <use x="368.164062" xlink:href="#DejaVuSans-72"/>
      <use x="409.277344" xlink:href="#DejaVuSans-76"/>
      <use x="468.457031" xlink:href="#DejaVuSans-65"/>
      <use x="529.980469" xlink:href="#DejaVuSans-20"/>
      <use x="561.767578" xlink:href="#DejaVuSans-2d"/>
      <use x="597.851562" xlink:href="#DejaVuSans-20"/>
      <use x="629.638672" xlink:href="#DejaVuSans-31"/>
      <use x="693.261719" xlink:href="#DejaVuSans-20"/>
      <use x="725.048828" xlink:href="#DejaVuSans-28"/>
      <use x="764.0625" xlink:href="#DejaVuSans-41"/>
      <use x="832.470703" xlink:href="#DejaVuSans-55"/>
      <use x="905.664062" xlink:href="#DejaVuSans-43"/>
      <use x="975.488281" xlink:href="#DejaVuSans-20"/>
      <use x="1007.275391" xlink:href="#DejaVuSans-3d"/>
      <use x="1091.064453" xlink:href="#DejaVuSans-20"/>
      <use x="1122.851562" xlink:href="#DejaVuSans-30"/>
      <use x="1186.474609" xlink:href="#DejaVuSans-2e"/>
      <use x="1218.261719" xlink:href="#DejaVuSans-38"/>
      <use x="1281.884766" xlink:href="#DejaVuSans-33"/>
      <use x="1345.507812" xlink:href="#DejaVuSans-35"/>
      <use x="1409.130859" xlink:href="#DejaVuSans-29"/>
     </g>
    </g>
    <g id="line2d_21">
     <path d="M 219.087188 287.287812 
L 239.087188 287.287812 
" style="fill:none;stroke:#2ca02c;stroke-linecap:square;stroke-width:1.5;"/>
    </g>
    <g id="line2d_22"/>
    <g id="text_18">
     <!-- ROC curve - 2 (AUC = 0.855) -->
     <g transform="translate(247.087188 290.787812)scale(0.1 -0.1)">
      <use xlink:href="#DejaVuSans-52"/>
      <use x="69.482422" xlink:href="#DejaVuSans-4f"/>
      <use x="148.193359" xlink:href="#DejaVuSans-43"/>
      <use x="218.017578" xlink:href="#DejaVuSans-20"/>
      <use x="249.804688" xlink:href="#DejaVuSans-63"/>
      <use x="304.785156" xlink:href="#DejaVuSans-75"/>
      <use x="368.164062" xlink:href="#DejaVuSans-72"/>
      <use x="409.277344" xlink:href="#DejaVuSans-76"/>
      <use x="468.457031" xlink:href="#DejaVuSans-65"/>
      <use x="529.980469" xlink:href="#DejaVuSans-20"/>
      <use x="561.767578" xlink:href="#DejaVuSans-2d"/>
      <use x="597.851562" xlink:href="#DejaVuSans-20"/>
      <use x="629.638672" xlink:href="#DejaVuSans-32"/>
      <use x="693.261719" xlink:href="#DejaVuSans-20"/>
      <use x="725.048828" xlink:href="#DejaVuSans-28"/>
      <use x="764.0625" xlink:href="#DejaVuSans-41"/>
      <use x="832.470703" xlink:href="#DejaVuSans-55"/>
      <use x="905.664062" xlink:href="#DejaVuSans-43"/>
      <use x="975.488281" xlink:href="#DejaVuSans-20"/>
      <use x="1007.275391" xlink:href="#DejaVuSans-3d"/>
      <use x="1091.064453" xlink:href="#DejaVuSans-20"/>
      <use x="1122.851562" xlink:href="#DejaVuSans-30"/>
      <use x="1186.474609" xlink:href="#DejaVuSans-2e"/>
      <use x="1218.261719" xlink:href="#DejaVuSans-38"/>
      <use x="1281.884766" xlink:href="#DejaVuSans-35"/>
      <use x="1345.507812" xlink:href="#DejaVuSans-35"/>
      <use x="1409.130859" xlink:href="#DejaVuSans-29"/>
     </g>
    </g>
   </g>
  </g>
 </g>
 <defs>
  <clipPath id="pd1988529e9">
   <rect height="266.112" width="357.12" x="43.78125" y="35.7555"/>
  </clipPath>
 </defs>
</svg>
