<?xml version="1.0" encoding="utf-8" standalone="no"?>
<!DOCTYPE svg PUBLIC "-//W3C//DTD SVG 1.1//EN"
  "http://www.w3.org/Graphics/SVG/1.1/DTD/svg11.dtd">
<!-- Created with matplotlib (http://matplotlib.org/) -->
<svg height="339pt" version="1.1" viewBox="0 0 416 339" width="416pt" xmlns="http://www.w3.org/2000/svg" xmlns:xlink="http://www.w3.org/1999/xlink">
 <defs>
  <style type="text/css">
*{stroke-linecap:butt;stroke-linejoin:round;}
  </style>
 </defs>
 <g id="figure_1">
  <g id="patch_1">
   <path d="M 0 339.42375 
L 416.052813 339.42375 
L 416.052813 0 
L 0 0 
z
" style="fill:#ffffff;"/>
  </g>
  <g id="axes_1">
   <g id="patch_2">
    <path d="M 43.78125 301.8675 
L 400.90125 301.8675 
L 400.90125 35.7555 
L 43.78125 35.7555 
z
" style="fill:#ffffff;"/>
   </g>
   <g id="matplotlib.axis_1">
    <g id="xtick_1">
     <g id="line2d_1">
      <defs>
       <path d="M 0 0 
L 0 3.5 
" id="m09926cad59" style="stroke:#000000;stroke-width:0.8;"/>
      </defs>
      <g>
       <use style="stroke:#000000;stroke-width:0.8;" x="43.78125" xlink:href="#m09926cad59" y="301.8675"/>
      </g>
     </g>
     <g id="text_1">
      <!-- 0.0 -->
      <defs>
       <path d="M 31.78125 66.40625 
Q 24.171875 66.40625 20.328125 58.90625 
Q 16.5 51.421875 16.5 36.375 
Q 16.5 21.390625 20.328125 13.890625 
Q 24.171875 6.390625 31.78125 6.390625 
Q 39.453125 6.390625 43.28125 13.890625 
Q 47.125 21.390625 47.125 36.375 
Q 47.125 51.421875 43.28125 58.90625 
Q 39.453125 66.40625 31.78125 66.40625 
M 31.78125 74.21875 
Q 44.046875 74.21875 50.515625 64.515625 
Q 56.984375 54.828125 56.984375 36.375 
Q 56.984375 17.96875 50.515625 8.265625 
Q 44.046875 -1.421875 31.78125 -1.421875 
Q 19.53125 -1.421875 13.0625 8.265625 
Q 6.59375 17.96875 6.59375 36.375 
Q 6.59375 54.828125 13.0625 64.515625 
Q 19.53125 74.21875 31.78125 74.21875 
" id="DejaVuSans-30"/>
       <path d="M 10.6875 12.40625 
L 21 12.40625 
L 21 0 
L 10.6875 0 
z
" id="DejaVuSans-2e"/>
      </defs>
      <g transform="translate(35.829688 316.465937)scale(0.1 -0.1)">
       <use xlink:href="#DejaVuSans-30"/>
       <use x="63.623047" xlink:href="#DejaVuSans-2e"/>
       <use x="95.410156" xlink:href="#DejaVuSans-30"/>
      </g>
     </g>
    </g>
    <g id="xtick_2">
     <g id="line2d_2">
      <g>
       <use style="stroke:#000000;stroke-width:0.8;" x="115.20525" xlink:href="#m09926cad59" y="301.8675"/>
      </g>
     </g>
     <g id="text_2">
      <!-- 0.2 -->
      <defs>
       <path d="M 19.1875 8.296875 
L 53.609375 8.296875 
L 53.609375 0 
L 7.328125 0 
L 7.328125 8.296875 
Q 12.9375 14.109375 22.625 23.890625 
Q 32.328125 33.6875 34.8125 36.53125 
Q 39.546875 41.84375 41.421875 45.53125 
Q 43.3125 49.21875 43.3125 52.78125 
Q 43.3125 58.59375 39.234375 62.25 
Q 35.15625 65.921875 28.609375 65.921875 
Q 23.96875 65.921875 18.8125 64.3125 
Q 13.671875 62.703125 7.8125 59.421875 
L 7.8125 69.390625 
Q 13.765625 71.78125 18.9375 73 
Q 24.125 74.21875 28.421875 74.21875 
Q 39.75 74.21875 46.484375 68.546875 
Q 53.21875 62.890625 53.21875 53.421875 
Q 53.21875 48.921875 51.53125 44.890625 
Q 49.859375 40.875 45.40625 35.40625 
Q 44.1875 33.984375 37.640625 27.21875 
Q 31.109375 20.453125 19.1875 8.296875 
" id="DejaVuSans-32"/>
      </defs>
      <g transform="translate(107.253688 316.465937)scale(0.1 -0.1)">
       <use xlink:href="#DejaVuSans-30"/>
       <use x="63.623047" xlink:href="#DejaVuSans-2e"/>
       <use x="95.410156" xlink:href="#DejaVuSans-32"/>
      </g>
     </g>
    </g>
    <g id="xtick_3">
     <g id="line2d_3">
      <g>
       <use style="stroke:#000000;stroke-width:0.8;" x="186.62925" xlink:href="#m09926cad59" y="301.8675"/>
      </g>
     </g>
     <g id="text_3">
      <!-- 0.4 -->
      <defs>
       <path d="M 37.796875 64.3125 
L 12.890625 25.390625 
L 37.796875 25.390625 
z
M 35.203125 72.90625 
L 47.609375 72.90625 
L 47.609375 25.390625 
L 58.015625 25.390625 
L 58.015625 17.1875 
L 47.609375 17.1875 
L 47.609375 0 
L 37.796875 0 
L 37.796875 17.1875 
L 4.890625 17.1875 
L 4.890625 26.703125 
z
" id="DejaVuSans-34"/>
      </defs>
      <g transform="translate(178.677688 316.465937)scale(0.1 -0.1)">
       <use xlink:href="#DejaVuSans-30"/>
       <use x="63.623047" xlink:href="#DejaVuSans-2e"/>
       <use x="95.410156" xlink:href="#DejaVuSans-34"/>
      </g>
     </g>
    </g>
    <g id="xtick_4">
     <g id="line2d_4">
      <g>
       <use style="stroke:#000000;stroke-width:0.8;" x="258.05325" xlink:href="#m09926cad59" y="301.8675"/>
      </g>
     </g>
     <g id="text_4">
      <!-- 0.6 -->
      <defs>
       <path d="M 33.015625 40.375 
Q 26.375 40.375 22.484375 35.828125 
Q 18.609375 31.296875 18.609375 23.390625 
Q 18.609375 15.53125 22.484375 10.953125 
Q 26.375 6.390625 33.015625 6.390625 
Q 39.65625 6.390625 43.53125 10.953125 
Q 47.40625 15.53125 47.40625 23.390625 
Q 47.40625 31.296875 43.53125 35.828125 
Q 39.65625 40.375 33.015625 40.375 
M 52.59375 71.296875 
L 52.59375 62.3125 
Q 48.875 64.0625 45.09375 64.984375 
Q 41.3125 65.921875 37.59375 65.921875 
Q 27.828125 65.921875 22.671875 59.328125 
Q 17.53125 52.734375 16.796875 39.40625 
Q 19.671875 43.65625 24.015625 45.921875 
Q 28.375 48.1875 33.59375 48.1875 
Q 44.578125 48.1875 50.953125 41.515625 
Q 57.328125 34.859375 57.328125 23.390625 
Q 57.328125 12.15625 50.6875 5.359375 
Q 44.046875 -1.421875 33.015625 -1.421875 
Q 20.359375 -1.421875 13.671875 8.265625 
Q 6.984375 17.96875 6.984375 36.375 
Q 6.984375 53.65625 15.1875 63.9375 
Q 23.390625 74.21875 37.203125 74.21875 
Q 40.921875 74.21875 44.703125 73.484375 
Q 48.484375 72.75 52.59375 71.296875 
" id="DejaVuSans-36"/>
      </defs>
      <g transform="translate(250.101688 316.465937)scale(0.1 -0.1)">
       <use xlink:href="#DejaVuSans-30"/>
       <use x="63.623047" xlink:href="#DejaVuSans-2e"/>
       <use x="95.410156" xlink:href="#DejaVuSans-36"/>
      </g>
     </g>
    </g>
    <g id="xtick_5">
     <g id="line2d_5">
      <g>
       <use style="stroke:#000000;stroke-width:0.8;" x="329.47725" xlink:href="#m09926cad59" y="301.8675"/>
      </g>
     </g>
     <g id="text_5">
      <!-- 0.8 -->
      <defs>
       <path d="M 31.78125 34.625 
Q 24.75 34.625 20.71875 30.859375 
Q 16.703125 27.09375 16.703125 20.515625 
Q 16.703125 13.921875 20.71875 10.15625 
Q 24.75 6.390625 31.78125 6.390625 
Q 38.8125 6.390625 42.859375 10.171875 
Q 46.921875 13.96875 46.921875 20.515625 
Q 46.921875 27.09375 42.890625 30.859375 
Q 38.875 34.625 31.78125 34.625 
M 21.921875 38.8125 
Q 15.578125 40.375 12.03125 44.71875 
Q 8.5 49.078125 8.5 55.328125 
Q 8.5 64.0625 14.71875 69.140625 
Q 20.953125 74.21875 31.78125 74.21875 
Q 42.671875 74.21875 48.875 69.140625 
Q 55.078125 64.0625 55.078125 55.328125 
Q 55.078125 49.078125 51.53125 44.71875 
Q 48 40.375 41.703125 38.8125 
Q 48.828125 37.15625 52.796875 32.3125 
Q 56.78125 27.484375 56.78125 20.515625 
Q 56.78125 9.90625 50.3125 4.234375 
Q 43.84375 -1.421875 31.78125 -1.421875 
Q 19.734375 -1.421875 13.25 4.234375 
Q 6.78125 9.90625 6.78125 20.515625 
Q 6.78125 27.484375 10.78125 32.3125 
Q 14.796875 37.15625 21.921875 38.8125 
M 18.3125 54.390625 
Q 18.3125 48.734375 21.84375 45.5625 
Q 25.390625 42.390625 31.78125 42.390625 
Q 38.140625 42.390625 41.71875 45.5625 
Q 45.3125 48.734375 45.3125 54.390625 
Q 45.3125 60.0625 41.71875 63.234375 
Q 38.140625 66.40625 31.78125 66.40625 
Q 25.390625 66.40625 21.84375 63.234375 
Q 18.3125 60.0625 18.3125 54.390625 
" id="DejaVuSans-38"/>
      </defs>
      <g transform="translate(321.525688 316.465937)scale(0.1 -0.1)">
       <use xlink:href="#DejaVuSans-30"/>
       <use x="63.623047" xlink:href="#DejaVuSans-2e"/>
       <use x="95.410156" xlink:href="#DejaVuSans-38"/>
      </g>
     </g>
    </g>
    <g id="xtick_6">
     <g id="line2d_6">
      <g>
       <use style="stroke:#000000;stroke-width:0.8;" x="400.90125" xlink:href="#m09926cad59" y="301.8675"/>
      </g>
     </g>
     <g id="text_6">
      <!-- 1.0 -->
      <defs>
       <path d="M 12.40625 8.296875 
L 28.515625 8.296875 
L 28.515625 63.921875 
L 10.984375 60.40625 
L 10.984375 69.390625 
L 28.421875 72.90625 
L 38.28125 72.90625 
L 38.28125 8.296875 
L 54.390625 8.296875 
L 54.390625 0 
L 12.40625 0 
z
" id="DejaVuSans-31"/>
      </defs>
      <g transform="translate(392.949688 316.465937)scale(0.1 -0.1)">
       <use xlink:href="#DejaVuSans-31"/>
       <use x="63.623047" xlink:href="#DejaVuSans-2e"/>
       <use x="95.410156" xlink:href="#DejaVuSans-30"/>
      </g>
     </g>
    </g>
    <g id="text_7">
     <!-- False Positive Rate -->
     <defs>
      <path d="M 9.8125 72.90625 
L 51.703125 72.90625 
L 51.703125 64.59375 
L 19.671875 64.59375 
L 19.671875 43.109375 
L 48.578125 43.109375 
L 48.578125 34.8125 
L 19.671875 34.8125 
L 19.671875 0 
L 9.8125 0 
z
" id="DejaVuSans-46"/>
      <path d="M 34.28125 27.484375 
Q 23.390625 27.484375 19.1875 25 
Q 14.984375 22.515625 14.984375 16.5 
Q 14.984375 11.71875 18.140625 8.90625 
Q 21.296875 6.109375 26.703125 6.109375 
Q 34.1875 6.109375 38.703125 11.40625 
Q 43.21875 16.703125 43.21875 25.484375 
L 43.21875 27.484375 
z
M 52.203125 31.203125 
L 52.203125 0 
L 43.21875 0 
L 43.21875 8.296875 
Q 40.140625 3.328125 35.546875 0.953125 
Q 30.953125 -1.421875 24.3125 -1.421875 
Q 15.921875 -1.421875 10.953125 3.296875 
Q 6 8.015625 6 15.921875 
Q 6 25.140625 12.171875 29.828125 
Q 18.359375 34.515625 30.609375 34.515625 
L 43.21875 34.515625 
L 43.21875 35.40625 
Q 43.21875 41.609375 39.140625 45 
Q 35.0625 48.390625 27.6875 48.390625 
Q 23 48.390625 18.546875 47.265625 
Q 14.109375 46.140625 10.015625 43.890625 
L 10.015625 52.203125 
Q 14.9375 54.109375 19.578125 55.046875 
Q 24.21875 56 28.609375 56 
Q 40.484375 56 46.34375 49.84375 
Q 52.203125 43.703125 52.203125 31.203125 
" id="DejaVuSans-61"/>
      <path d="M 9.421875 75.984375 
L 18.40625 75.984375 
L 18.40625 0 
L 9.421875 0 
z
" id="DejaVuSans-6c"/>
      <path d="M 44.28125 53.078125 
L 44.28125 44.578125 
Q 40.484375 46.53125 36.375 47.5 
Q 32.28125 48.484375 27.875 48.484375 
Q 21.1875 48.484375 17.84375 46.4375 
Q 14.5 44.390625 14.5 40.28125 
Q 14.5 37.15625 16.890625 35.375 
Q 19.28125 33.59375 26.515625 31.984375 
L 29.59375 31.296875 
Q 39.15625 29.25 43.1875 25.515625 
Q 47.21875 21.78125 47.21875 15.09375 
Q 47.21875 7.46875 41.1875 3.015625 
Q 35.15625 -1.421875 24.609375 -1.421875 
Q 20.21875 -1.421875 15.453125 -0.5625 
Q 10.6875 0.296875 5.421875 2 
L 5.421875 11.28125 
Q 10.40625 8.6875 15.234375 7.390625 
Q 20.0625 6.109375 24.8125 6.109375 
Q 31.15625 6.109375 34.5625 8.28125 
Q 37.984375 10.453125 37.984375 14.40625 
Q 37.984375 18.0625 35.515625 20.015625 
Q 33.0625 21.96875 24.703125 23.78125 
L 21.578125 24.515625 
Q 13.234375 26.265625 9.515625 29.90625 
Q 5.8125 33.546875 5.8125 39.890625 
Q 5.8125 47.609375 11.28125 51.796875 
Q 16.75 56 26.8125 56 
Q 31.78125 56 36.171875 55.265625 
Q 40.578125 54.546875 44.28125 53.078125 
" id="DejaVuSans-73"/>
      <path d="M 56.203125 29.59375 
L 56.203125 25.203125 
L 14.890625 25.203125 
Q 15.484375 15.921875 20.484375 11.0625 
Q 25.484375 6.203125 34.421875 6.203125 
Q 39.59375 6.203125 44.453125 7.46875 
Q 49.3125 8.734375 54.109375 11.28125 
L 54.109375 2.78125 
Q 49.265625 0.734375 44.1875 -0.34375 
Q 39.109375 -1.421875 33.890625 -1.421875 
Q 20.796875 -1.421875 13.15625 6.1875 
Q 5.515625 13.8125 5.515625 26.8125 
Q 5.515625 40.234375 12.765625 48.109375 
Q 20.015625 56 32.328125 56 
Q 43.359375 56 49.78125 48.890625 
Q 56.203125 41.796875 56.203125 29.59375 
M 47.21875 32.234375 
Q 47.125 39.59375 43.09375 43.984375 
Q 39.0625 48.390625 32.421875 48.390625 
Q 24.90625 48.390625 20.390625 44.140625 
Q 15.875 39.890625 15.1875 32.171875 
z
" id="DejaVuSans-65"/>
      <path id="DejaVuSans-20"/>
      <path d="M 19.671875 64.796875 
L 19.671875 37.40625 
L 32.078125 37.40625 
Q 38.96875 37.40625 42.71875 40.96875 
Q 46.484375 44.53125 46.484375 51.125 
Q 46.484375 57.671875 42.71875 61.234375 
Q 38.96875 64.796875 32.078125 64.796875 
z
M 9.8125 72.90625 
L 32.078125 72.90625 
Q 44.34375 72.90625 50.609375 67.359375 
Q 56.890625 61.8125 56.890625 51.125 
Q 56.890625 40.328125 50.609375 34.8125 
Q 44.34375 29.296875 32.078125 29.296875 
L 19.671875 29.296875 
L 19.671875 0 
L 9.8125 0 
z
" id="DejaVuSans-50"/>
      <path d="M 30.609375 48.390625 
Q 23.390625 48.390625 19.1875 42.75 
Q 14.984375 37.109375 14.984375 27.296875 
Q 14.984375 17.484375 19.15625 11.84375 
Q 23.34375 6.203125 30.609375 6.203125 
Q 37.796875 6.203125 41.984375 11.859375 
Q 46.1875 17.53125 46.1875 27.296875 
Q 46.1875 37.015625 41.984375 42.703125 
Q 37.796875 48.390625 30.609375 48.390625 
M 30.609375 56 
Q 42.328125 56 49.015625 48.375 
Q 55.71875 40.765625 55.71875 27.296875 
Q 55.71875 13.875 49.015625 6.21875 
Q 42.328125 -1.421875 30.609375 -1.421875 
Q 18.84375 -1.421875 12.171875 6.21875 
Q 5.515625 13.875 5.515625 27.296875 
Q 5.515625 40.765625 12.171875 48.375 
Q 18.84375 56 30.609375 56 
" id="DejaVuSans-6f"/>
      <path d="M 9.421875 54.6875 
L 18.40625 54.6875 
L 18.40625 0 
L 9.421875 0 
z
M 9.421875 75.984375 
L 18.40625 75.984375 
L 18.40625 64.59375 
L 9.421875 64.59375 
z
" id="DejaVuSans-69"/>
      <path d="M 18.3125 70.21875 
L 18.3125 54.6875 
L 36.8125 54.6875 
L 36.8125 47.703125 
L 18.3125 47.703125 
L 18.3125 18.015625 
Q 18.3125 11.328125 20.140625 9.421875 
Q 21.96875 7.515625 27.59375 7.515625 
L 36.8125 7.515625 
L 36.8125 0 
L 27.59375 0 
Q 17.1875 0 13.234375 3.875 
Q 9.28125 7.765625 9.28125 18.015625 
L 9.28125 47.703125 
L 2.6875 47.703125 
L 2.6875 54.6875 
L 9.28125 54.6875 
L 9.28125 70.21875 
z
" id="DejaVuSans-74"/>
      <path d="M 2.984375 54.6875 
L 12.5 54.6875 
L 29.59375 8.796875 
L 46.6875 54.6875 
L 56.203125 54.6875 
L 35.6875 0 
L 23.484375 0 
z
" id="DejaVuSans-76"/>
      <path d="M 44.390625 34.1875 
Q 47.5625 33.109375 50.5625 29.59375 
Q 53.5625 26.078125 56.59375 19.921875 
L 66.609375 0 
L 56 0 
L 46.6875 18.703125 
Q 43.0625 26.03125 39.671875 28.421875 
Q 36.28125 30.8125 30.421875 30.8125 
L 19.671875 30.8125 
L 19.671875 0 
L 9.8125 0 
L 9.8125 72.90625 
L 32.078125 72.90625 
Q 44.578125 72.90625 50.734375 67.671875 
Q 56.890625 62.453125 56.890625 51.90625 
Q 56.890625 45.015625 53.6875 40.46875 
Q 50.484375 35.9375 44.390625 34.1875 
M 19.671875 64.796875 
L 19.671875 38.921875 
L 32.078125 38.921875 
Q 39.203125 38.921875 42.84375 42.21875 
Q 46.484375 45.515625 46.484375 51.90625 
Q 46.484375 58.296875 42.84375 61.546875 
Q 39.203125 64.796875 32.078125 64.796875 
z
" id="DejaVuSans-52"/>
     </defs>
     <g transform="translate(175.135781 330.144062)scale(0.1 -0.1)">
      <use xlink:href="#DejaVuSans-46"/>
      <use x="57.378906" xlink:href="#DejaVuSans-61"/>
      <use x="118.658203" xlink:href="#DejaVuSans-6c"/>
      <use x="146.441406" xlink:href="#DejaVuSans-73"/>
      <use x="198.541016" xlink:href="#DejaVuSans-65"/>
      <use x="260.064453" xlink:href="#DejaVuSans-20"/>
      <use x="291.851562" xlink:href="#DejaVuSans-50"/>
      <use x="352.107422" xlink:href="#DejaVuSans-6f"/>
      <use x="413.289062" xlink:href="#DejaVuSans-73"/>
      <use x="465.388672" xlink:href="#DejaVuSans-69"/>
      <use x="493.171875" xlink:href="#DejaVuSans-74"/>
      <use x="532.380859" xlink:href="#DejaVuSans-69"/>
      <use x="560.164062" xlink:href="#DejaVuSans-76"/>
      <use x="619.34375" xlink:href="#DejaVuSans-65"/>
      <use x="680.867188" xlink:href="#DejaVuSans-20"/>
      <use x="712.654297" xlink:href="#DejaVuSans-52"/>
      <use x="782.105469" xlink:href="#DejaVuSans-61"/>
      <use x="843.384766" xlink:href="#DejaVuSans-74"/>
      <use x="882.59375" xlink:href="#DejaVuSans-65"/>
     </g>
    </g>
   </g>
   <g id="matplotlib.axis_2">
    <g id="ytick_1">
     <g id="line2d_7">
      <defs>
       <path d="M 0 0 
L -3.5 0 
" id="mb710847458" style="stroke:#000000;stroke-width:0.8;"/>
      </defs>
      <g>
       <use style="stroke:#000000;stroke-width:0.8;" x="43.78125" xlink:href="#mb710847458" y="301.8675"/>
      </g>
     </g>
     <g id="text_8">
      <!-- 0.0 -->
      <g transform="translate(20.878125 305.666719)scale(0.1 -0.1)">
       <use xlink:href="#DejaVuSans-30"/>
       <use x="63.623047" xlink:href="#DejaVuSans-2e"/>
       <use x="95.410156" xlink:href="#DejaVuSans-30"/>
      </g>
     </g>
    </g>
    <g id="ytick_2">
     <g id="line2d_8">
      <g>
       <use style="stroke:#000000;stroke-width:0.8;" x="43.78125" xlink:href="#mb710847458" y="251.1795"/>
      </g>
     </g>
     <g id="text_9">
      <!-- 0.2 -->
      <g transform="translate(20.878125 254.978719)scale(0.1 -0.1)">
       <use xlink:href="#DejaVuSans-30"/>
       <use x="63.623047" xlink:href="#DejaVuSans-2e"/>
       <use x="95.410156" xlink:href="#DejaVuSans-32"/>
      </g>
     </g>
    </g>
    <g id="ytick_3">
     <g id="line2d_9">
      <g>
       <use style="stroke:#000000;stroke-width:0.8;" x="43.78125" xlink:href="#mb710847458" y="200.4915"/>
      </g>
     </g>
     <g id="text_10">
      <!-- 0.4 -->
      <g transform="translate(20.878125 204.290719)scale(0.1 -0.1)">
       <use xlink:href="#DejaVuSans-30"/>
       <use x="63.623047" xlink:href="#DejaVuSans-2e"/>
       <use x="95.410156" xlink:href="#DejaVuSans-34"/>
      </g>
     </g>
    </g>
    <g id="ytick_4">
     <g id="line2d_10">
      <g>
       <use style="stroke:#000000;stroke-width:0.8;" x="43.78125" xlink:href="#mb710847458" y="149.8035"/>
      </g>
     </g>
     <g id="text_11">
      <!-- 0.6 -->
      <g transform="translate(20.878125 153.602719)scale(0.1 -0.1)">
       <use xlink:href="#DejaVuSans-30"/>
       <use x="63.623047" xlink:href="#DejaVuSans-2e"/>
       <use x="95.410156" xlink:href="#DejaVuSans-36"/>
      </g>
     </g>
    </g>
    <g id="ytick_5">
     <g id="line2d_11">
      <g>
       <use style="stroke:#000000;stroke-width:0.8;" x="43.78125" xlink:href="#mb710847458" y="99.1155"/>
      </g>
     </g>
     <g id="text_12">
      <!-- 0.8 -->
      <g transform="translate(20.878125 102.914719)scale(0.1 -0.1)">
       <use xlink:href="#DejaVuSans-30"/>
       <use x="63.623047" xlink:href="#DejaVuSans-2e"/>
       <use x="95.410156" xlink:href="#DejaVuSans-38"/>
      </g>
     </g>
    </g>
    <g id="ytick_6">
     <g id="line2d_12">
      <g>
       <use style="stroke:#000000;stroke-width:0.8;" x="43.78125" xlink:href="#mb710847458" y="48.4275"/>
      </g>
     </g>
     <g id="text_13">
      <!-- 1.0 -->
      <g transform="translate(20.878125 52.226719)scale(0.1 -0.1)">
       <use xlink:href="#DejaVuSans-31"/>
       <use x="63.623047" xlink:href="#DejaVuSans-2e"/>
       <use x="95.410156" xlink:href="#DejaVuSans-30"/>
      </g>
     </g>
    </g>
    <g id="text_14">
     <!-- True Positive Rate -->
     <defs>
      <path d="M -0.296875 72.90625 
L 61.375 72.90625 
L 61.375 64.59375 
L 35.5 64.59375 
L 35.5 0 
L 25.59375 0 
L 25.59375 64.59375 
L -0.296875 64.59375 
z
" id="DejaVuSans-54"/>
      <path d="M 41.109375 46.296875 
Q 39.59375 47.171875 37.8125 47.578125 
Q 36.03125 48 33.890625 48 
Q 26.265625 48 22.1875 43.046875 
Q 18.109375 38.09375 18.109375 28.8125 
L 18.109375 0 
L 9.078125 0 
L 9.078125 54.6875 
L 18.109375 54.6875 
L 18.109375 46.1875 
Q 20.953125 51.171875 25.484375 53.578125 
Q 30.03125 56 36.53125 56 
Q 37.453125 56 38.578125 55.875 
Q 39.703125 55.765625 41.0625 55.515625 
z
" id="DejaVuSans-72"/>
      <path d="M 8.5 21.578125 
L 8.5 54.6875 
L 17.484375 54.6875 
L 17.484375 21.921875 
Q 17.484375 14.15625 20.5 10.265625 
Q 23.53125 6.390625 29.59375 6.390625 
Q 36.859375 6.390625 41.078125 11.03125 
Q 45.3125 15.671875 45.3125 23.6875 
L 45.3125 54.6875 
L 54.296875 54.6875 
L 54.296875 0 
L 45.3125 0 
L 45.3125 8.40625 
Q 42.046875 3.421875 37.71875 1 
Q 33.40625 -1.421875 27.6875 -1.421875 
Q 18.265625 -1.421875 13.375 4.4375 
Q 8.5 10.296875 8.5 21.578125 
M 31.109375 56 
z
" id="DejaVuSans-75"/>
     </defs>
     <g transform="translate(14.798438 214.357594)rotate(-90)scale(0.1 -0.1)">
      <use xlink:href="#DejaVuSans-54"/>
      <use x="60.865234" xlink:href="#DejaVuSans-72"/>
      <use x="101.978516" xlink:href="#DejaVuSans-75"/>
      <use x="165.357422" xlink:href="#DejaVuSans-65"/>
      <use x="226.880859" xlink:href="#DejaVuSans-20"/>
      <use x="258.667969" xlink:href="#DejaVuSans-50"/>
      <use x="318.923828" xlink:href="#DejaVuSans-6f"/>
      <use x="380.105469" xlink:href="#DejaVuSans-73"/>
      <use x="432.205078" xlink:href="#DejaVuSans-69"/>
      <use x="459.988281" xlink:href="#DejaVuSans-74"/>
      <use x="499.197266" xlink:href="#DejaVuSans-69"/>
      <use x="526.980469" xlink:href="#DejaVuSans-76"/>
      <use x="586.160156" xlink:href="#DejaVuSans-65"/>
      <use x="647.683594" xlink:href="#DejaVuSans-20"/>
      <use x="679.470703" xlink:href="#DejaVuSans-52"/>
      <use x="748.921875" xlink:href="#DejaVuSans-61"/>
      <use x="810.201172" xlink:href="#DejaVuSans-74"/>
      <use x="849.410156" xlink:href="#DejaVuSans-65"/>
     </g>
    </g>
   </g>
   <g id="line2d_13">
    <path clip-path="url(#p66e916a8a9)" d="M 43.78125 301.8675 
L 43.819862 301.8675 
L 43.897085 301.386132 
L 44.10945 301.386132 
L 44.252313 300.664081 
L 44.50329 300.664081 
L 44.557346 299.219979 
L 44.758127 297.294509 
L 45.16355 297.294509 
L 45.302553 296.331774 
L 45.835395 289.592628 
L 45.989842 289.592628 
L 46.615352 281.40938 
L 46.692575 281.40938 
L 46.723465 280.928013 
L 48.105765 259.988526 
L 48.225461 259.025791 
L 48.321991 259.025791 
L 48.445548 258.303739 
L 48.542078 258.303739 
L 48.654052 256.859637 
L 50.793142 241.69656 
L 50.936006 239.77109 
L 50.993923 239.77109 
L 51.140648 238.086303 
L 51.237177 238.086303 
L 51.287373 237.604936 
L 51.762297 235.92015 
L 51.862688 234.957415 
L 51.997829 234.957415 
L 52.028718 234.476047 
L 52.302861 233.513312 
L 52.468892 230.625107 
L 52.623339 230.625107 
L 52.677395 229.181004 
L 52.793231 229.181004 
L 52.893621 227.736902 
L 53.395574 227.736902 
L 53.54616 227.496218 
L 53.874359 227.496218 
L 53.924555 227.01485 
L 53.947722 225.570748 
L 54.14078 225.570748 
L 54.248893 224.126645 
L 54.461258 224.126645 
L 54.580954 223.16391 
L 54.677484 223.16391 
L 54.73154 221.719808 
L 54.847375 221.719808 
L 54.970933 219.794338 
L 55.117657 218.109551 
L 55.214187 218.109551 
L 55.333883 217.146816 
L 55.441996 216.665449 
L 55.51922 216.665449 
L 55.542387 215.702714 
L 55.716139 215.702714 
L 55.963255 211.851774 
L 56.445901 208.241517 
L 56.523125 208.241517 
L 56.654405 206.797415 
L 56.77024 206.797415 
L 56.90152 205.353312 
L 57.017355 205.353312 
L 57.048244 204.871944 
L 57.202691 204.871944 
L 57.368722 204.390577 
L 57.465251 204.390577 
L 57.615837 204.149893 
L 57.770284 204.149893 
L 57.870675 203.187158 
L 57.928592 203.187158 
L 58.017399 202.705791 
L 58.094623 202.705791 
L 58.167985 202.465107 
L 58.341738 201.261688 
L 58.395794 201.021004 
L 58.469157 199.095534 
L 58.681521 199.095534 
L 58.855274 196.207329 
L 59.473062 196.207329 
L 59.554147 194.763226 
L 59.650676 194.763226 
L 59.808984 193.800491 
L 59.982737 193.800491 
L 60.110156 193.319124 
L 60.225991 193.319124 
L 60.303214 192.115705 
L 60.41905 192.115705 
L 60.500134 191.15297 
L 60.905557 191.15297 
L 60.936447 190.671603 
L 61.090894 190.671603 
L 61.268508 187.30203 
L 61.353454 185.37656 
L 61.546512 185.37656 
L 61.600569 183.932457 
L 61.755016 183.932457 
L 61.940352 182.247671 
L 62.094799 182.247671 
L 62.303303 181.044252 
L 62.36122 181.044252 
L 62.585168 178.878098 
L 62.693281 178.878098 
L 62.816839 178.156047 
L 63.029203 178.156047 
L 63.299485 170.935534 
L 63.646991 170.935534 
L 63.728076 169.972799 
L 63.805299 169.972799 
L 63.936579 168.528697 
L 64.237751 165.640491 
L 64.353586 165.640491 
L 64.442393 165.159124 
L 64.538922 165.159124 
L 64.592979 163.715021 
L 64.882567 163.715021 
L 64.982957 162.752286 
L 65.129682 162.270919 
L 65.1876 162.270919 
L 65.276407 161.789551 
L 65.35363 161.789551 
L 65.469465 160.586132 
L 65.585301 160.586132 
L 65.697275 159.14203 
L 65.871027 159.14203 
L 66.037058 157.457244 
L 66.268728 157.457244 
L 66.396147 156.975876 
L 66.454065 156.975876 
L 66.581484 156.494509 
L 66.631679 156.013141 
L 66.882655 156.013141 
L 66.994629 154.569038 
L 67.573805 154.569038 
L 67.72053 152.884252 
L 67.824782 152.162201 
L 68.172287 152.162201 
L 68.261094 151.680833 
L 69.419447 151.680833 
L 69.539143 150.718098 
L 69.597061 150.718098 
L 69.766952 149.273996 
L 69.805564 149.273996 
L 69.932983 148.792628 
L 70.492853 148.792628 
L 70.624133 148.551944 
L 70.867387 148.551944 
L 71.114502 145.904423 
L 71.944654 145.904423 
L 72.010294 145.182372 
L 72.145436 145.182372 
L 72.296021 143.738269 
L 72.431162 143.738269 
L 72.682139 142.53485 
L 73.369428 142.53485 
L 73.50843 140.368697 
L 73.933159 140.368697 
L 74.106912 139.165278 
L 74.666782 139.165278 
L 74.794201 138.68391 
L 75.025871 138.68391 
L 75.149429 137.961859 
L 75.342488 137.961859 
L 75.411989 137.480491 
L 75.605048 137.480491 
L 75.628215 135.314338 
L 75.956414 135.314338 
L 76.087694 133.870235 
L 76.551035 133.870235 
L 76.713205 133.148184 
L 77.543357 133.148184 
L 77.724832 131.222714 
L 77.879279 131.222714 
L 78.010559 129.778611 
L 79.458499 129.778611 
L 79.55889 128.334509 
L 79.636113 128.334509 
L 79.69017 128.093825 
L 81.358197 128.093825 
L 81.501061 127.371774 
L 82.466354 127.371774 
L 82.632385 125.686987 
L 82.97989 125.686987 
L 83.103448 124.964936 
L 84.493471 124.964936 
L 84.632473 122.798782 
L 85.462625 122.798782 
L 85.60935 122.317415 
L 86.111303 122.317415 
L 86.20011 121.836047 
L 86.99165 121.836047 
L 87.084318 121.595363 
L 88.532259 121.595363 
L 88.624927 120.151261 
L 88.817986 120.151261 
L 88.848875 119.669893 
L 89.06124 119.669893 
L 89.188658 119.188526 
L 89.439635 119.188526 
L 89.474385 117.744423 
L 89.648138 117.744423 
L 89.694472 117.022372 
L 90.621154 117.022372 
L 90.791046 116.781688 
L 93.215863 116.781688 
L 93.405061 116.541004 
L 95.914824 116.541004 
L 96.042243 116.059637 
L 96.466972 116.059637 
L 96.59439 115.578269 
L 96.961202 115.578269 
L 97.181289 113.652799 
L 97.393654 113.652799 
L 97.478599 112.930748 
L 97.594435 112.930748 
L 97.683242 112.44938 
L 98.725759 112.44938 
L 98.826149 110.283226 
L 99.965196 110.283226 
L 99.996085 109.801859 
L 100.343591 109.801859 
L 100.486454 109.079808 
L 101.220077 109.079808 
L 101.32819 108.59844 
L 103.876565 108.59844 
L 104.000123 107.876389 
L 104.212487 107.876389 
L 104.301294 107.395021 
L 105.054223 107.395021 
L 105.162336 104.506816 
L 106.339994 104.506816 
L 106.370883 104.025449 
L 108.340082 104.025449 
L 108.374833 103.784765 
L 109.185679 103.784765 
L 109.328543 103.062714 
L 109.71466 103.062714 
L 109.760994 102.340662 
L 111.181907 102.340662 
L 111.266852 101.618611 
L 115.243862 101.618611 
L 115.278612 100.174509 
L 115.394448 100.174509 
L 115.425337 99.693141 
L 119.305817 99.693141 
L 119.359873 98.249038 
L 121.367684 98.249038 
L 121.398573 97.526987 
L 126.769467 97.526987 
L 126.873718 96.804936 
L 127.742483 96.804936 
L 127.873762 96.564252 
L 128.684609 96.564252 
L 128.71936 96.323568 
L 129.626736 96.323568 
L 129.661486 94.879466 
L 130.375803 94.879466 
L 130.557279 93.676047 
L 132.275501 93.676047 
L 132.50331 92.231944 
L 136.769908 92.231944 
L 136.862576 91.991261 
L 138.851081 91.991261 
L 138.993944 91.269209 
L 140.326049 91.269209 
L 140.399412 91.028526 
L 143.044316 91.028526 
L 143.187179 90.306474 
L 143.804967 90.306474 
L 143.955553 90.065791 
L 144.098416 89.343739 
L 144.233557 89.343739 
L 146.990436 89.103056 
L 147.198939 88.862372 
L 148.994385 88.862372 
L 149.11022 88.621688 
L 152.29955 88.621688 
L 152.411524 88.381004 
L 154.766841 88.381004 
L 154.956038 88.140321 
L 159.477473 88.140321 
L 159.562419 87.418269 
L 160.006454 87.418269 
L 160.137734 85.974167 
L 160.543157 85.974167 
L 160.670576 85.492799 
L 161.172529 85.492799 
L 161.203418 85.011432 
L 161.937041 85.011432 
L 162.145545 84.770748 
L 166.450754 84.770748 
L 166.620645 84.530064 
L 168.667068 84.530064 
L 169.122686 84.048697 
L 169.875615 84.048697 
L 170.026201 83.808013 
L 170.335095 83.808013 
L 170.497264 83.085962 
L 172.968416 83.085962 
L 173.08039 82.845278 
L 178.389504 82.845278 
L 178.578702 82.604594 
L 181.127077 82.604594 
L 181.219745 81.160491 
L 182.918662 81.160491 
L 183.049942 79.716389 
L 183.455365 79.716389 
L 183.598228 78.994338 
L 183.748814 78.753654 
L 185.409119 78.753654 
L 185.521093 77.309551 
L 188.783785 77.309551 
L 188.895759 75.865449 
L 195.073638 75.865449 
L 195.116111 74.902714 
L 195.231946 74.902714 
L 197.637458 74.421346 
L 199.568045 74.421346 
L 199.680019 74.180662 
L 203.541193 74.180662 
L 203.610694 71.292457 
L 206.576076 71.292457 
L 206.707356 71.051774 
L 209.02406 71.051774 
L 209.773128 70.81109 
L 213.479855 70.81109 
L 213.630441 70.570406 
L 213.688359 70.570406 
L 213.796472 70.089038 
L 216.321679 70.089038 
L 216.368014 69.366987 
L 216.483849 65.756731 
L 216.657602 65.756731 
L 216.808187 65.516047 
L 219.518732 65.516047 
L 220.113352 65.275363 
L 220.808364 65.275363 
L 220.897171 64.793996 
L 223.542075 64.793996 
L 223.997694 64.312628 
L 226.102034 64.312628 
L 226.229452 63.831261 
L 228.333792 63.831261 
L 228.368543 63.590577 
L 229.546201 63.590577 
L 229.654314 63.109209 
L 230.194878 63.109209 
L 230.310714 59.498953 
L 232.86295 59.498953 
L 233.538655 59.258269 
L 238.565904 59.258269 
L 238.890243 59.017585 
L 247.346214 59.017585 
L 247.438882 58.776902 
L 264.62883 58.776902 
L 264.779415 58.536218 
L 267.829743 58.536218 
L 267.941717 58.295534 
L 269.609744 58.295534 
L 269.656078 57.573483 
L 272.050006 57.573483 
L 272.104063 57.332799 
L 272.914909 57.332799 
L 272.988272 57.092115 
L 275.660204 57.092115 
L 275.706538 56.370064 
L 276.594608 56.370064 
L 277.861074 55.888697 
L 278.787755 55.888697 
L 278.915174 55.407329 
L 291.633882 55.407329 
L 291.823079 55.166645 
L 294.467984 55.166645 
L 294.962214 54.685278 
L 300.502999 54.685278 
L 300.614973 54.444594 
L 309.862485 54.444594 
L 312.140578 53.722543 
L 312.546001 53.722543 
L 312.580752 53.481859 
L 313.526739 53.481859 
L 313.592379 52.759808 
L 316.009474 52.759808 
L 316.055809 52.037756 
L 318.206483 52.037756 
L 318.318457 51.797073 
L 330.187706 51.797073 
L 330.840244 51.556389 
L 331.013997 51.556389 
L 331.102804 51.075021 
L 331.875039 51.075021 
L 331.929096 50.834338 
L 332.720636 50.834338 
L 332.871222 50.593654 
L 336.307667 50.593654 
L 336.361724 50.35297 
L 338.431313 50.35297 
L 338.62051 50.112286 
L 350.682819 50.112286 
L 350.771626 49.630919 
L 362.038532 49.630919 
L 362.1312 49.390235 
L 366.691247 49.390235 
L 366.772331 48.4275 
L 400.90125 48.4275 
L 400.90125 48.4275 
" style="fill:none;stroke:#1f77b4;stroke-linecap:square;stroke-width:1.5;"/>
   </g>
   <g id="line2d_14">
    <path clip-path="url(#p66e916a8a9)" d="M 43.78125 301.8675 
L 43.819862 299.460662 
L 43.897086 299.460662 
L 44.090147 297.053825 
L 44.167372 297.053825 
L 44.314098 296.572457 
L 44.429934 294.16562 
L 44.468546 294.16562 
L 44.60755 293.202885 
L 45.109508 293.202885 
L 47.460989 275.63297 
L 50.206313 261.191944 
L 51.194785 251.083226 
L 51.596351 246.269551 
L 52.098309 243.862714 
L 52.329982 243.862714 
L 52.635018 241.69656 
L 52.777883 238.567671 
L 53.256674 235.92015 
L 53.353204 235.92015 
L 53.573294 235.198098 
L 53.638934 234.476047 
L 54.125447 233.513312 
L 54.326231 229.181004 
L 54.57721 229.181004 
L 55.21431 224.126645 
L 55.511624 223.404594 
L 55.557959 221.479124 
L 55.770325 221.479124 
L 55.890023 220.516389 
L 56.00586 220.516389 
L 56.075362 220.035021 
L 56.337924 217.146816 
L 56.453761 217.146816 
L 56.561875 215.46203 
L 56.754936 214.258611 
L 56.870772 214.258611 
L 57.106306 212.092457 
L 57.202837 212.092457 
L 57.291645 209.204252 
L 58.272393 207.76015 
L 58.380507 207.278782 
L 58.504066 205.353312 
L 58.573568 204.871944 
L 58.589013 203.427842 
L 58.743462 203.427842 
L 58.843853 202.465107 
L 59.075526 202.465107 
L 59.168195 198.614167 
L 59.361256 198.614167 
L 59.384424 197.651432 
L 59.789851 197.651432 
L 60.021524 195.244594 
L 60.079442 195.244594 
L 60.284087 193.559808 
L 60.342005 193.559808 
L 60.519621 192.597073 
L 60.565956 190.671603 
L 60.789906 189.708868 
L 60.886437 189.708868 
L 61.05633 188.264765 
L 61.114248 188.264765 
L 61.430868 185.37656 
L 61.461758 184.895192 
L 61.732043 184.895192 
L 61.81699 184.173141 
L 61.894214 184.173141 
L 61.940549 183.45109 
L 62.442507 183.45109 
L 62.735959 180.562885 
L 63.044856 180.562885 
L 63.264946 179.840833 
L 63.369198 179.118782 
L 64.280445 179.118782 
L 64.365392 177.193312 
L 64.597065 177.193312 
L 64.859628 176.711944 
L 65.419504 176.711944 
L 65.539202 174.786474 
L 65.770875 174.786474 
L 65.960074 174.545791 
L 66.102939 173.823739 
L 66.160858 173.823739 
L 66.353918 171.416902 
L 66.720734 171.416902 
L 66.743901 170.454167 
L 67.577924 170.454167 
L 67.743956 168.76938 
L 68.014241 168.76938 
L 68.076021 167.806645 
L 68.327 167.806645 
L 68.466003 166.84391 
L 68.732427 165.399808 
L 68.983406 165.399808 
L 69.09152 164.91844 
L 69.207357 164.91844 
L 69.272998 162.99297 
L 69.75565 162.99297 
L 69.875347 162.030235 
L 70.01049 162.030235 
L 70.04138 161.548868 
L 70.350277 161.548868 
L 70.879263 159.864081 
L 71.033712 159.864081 
L 71.307858 156.975876 
L 71.887041 156.975876 
L 71.991294 156.253825 
L 72.165048 156.253825 
L 72.315636 155.050406 
L 72.48939 155.050406 
L 72.643839 152.643568 
L 72.740369 152.643568 
L 72.86779 152.162201 
L 73.049267 151.44015 
L 73.300246 151.44015 
L 73.489445 149.996047 
L 74.126546 149.996047 
L 74.315746 149.755363 
L 74.470194 149.755363 
L 74.597614 149.273996 
L 74.798398 148.551944 
L 77.713616 148.551944 
L 77.783117 148.070577 
L 78.080431 147.107842 
L 78.119043 147.107842 
L 78.304382 145.663739 
L 79.057319 145.663739 
L 79.196322 144.701004 
L 79.698281 144.701004 
L 79.767782 144.219637 
L 79.883619 144.219637 
L 79.976288 142.775534 
L 80.323798 142.775534 
L 80.497552 140.850064 
L 81.076735 140.850064 
L 81.246628 139.405962 
L 81.304546 139.405962 
L 81.431967 138.924594 
L 81.489885 138.924594 
L 81.520774 138.443226 
L 81.848978 138.443226 
L 82.061345 137.480491 
L 82.157875 137.480491 
L 82.36252 135.073654 
L 82.690723 135.073654 
L 82.818143 134.592286 
L 82.914673 134.592286 
L 82.945563 134.110919 
L 83.15793 134.110919 
L 83.18882 133.629551 
L 83.806614 133.629551 
L 83.852949 132.9075 
L 84.23907 132.9075 
L 84.420548 132.185449 
L 85.482382 132.185449 
L 85.57119 131.704081 
L 85.783557 131.704081 
L 85.814447 131.222714 
L 85.968895 131.222714 
L 86.405213 128.334509 
L 86.656192 128.334509 
L 86.741138 127.612457 
L 86.895587 127.612457 
L 86.976673 126.649722 
L 87.555855 126.649722 
L 87.721887 126.168355 
L 88.339682 126.168355 
L 88.409184 125.686987 
L 89.111925 125.686987 
L 89.293402 123.761517 
L 89.563687 123.761517 
L 89.702691 122.798782 
L 89.95367 122.798782 
L 90.08109 122.317415 
L 90.756803 122.317415 
L 90.864917 121.836047 
L 91.019366 121.836047 
L 91.088868 121.354679 
L 91.262622 121.354679 
L 91.525185 118.947842 
L 92.482767 118.947842 
L 92.65266 117.503739 
L 93.347679 117.503739 
L 93.563907 116.541004 
L 94.046559 116.541004 
L 94.710688 114.615534 
L 96.892275 114.615534 
L 96.954055 113.652799 
L 97.629767 113.652799 
L 97.737881 113.171432 
L 97.873024 113.171432 
L 97.961832 112.690064 
L 98.039056 112.690064 
L 98.127864 112.208697 
L 98.764965 112.208697 
L 98.811299 111.486645 
L 98.965748 111.486645 
L 99.054556 111.005278 
L 99.170392 111.005278 
L 99.35187 109.079808 
L 100.317174 109.079808 
L 100.487067 106.432286 
L 101.220698 106.432286 
L 101.38673 105.950919 
L 101.579791 105.950919 
L 101.722656 105.228868 
L 102.533512 105.228868 
L 102.649348 104.266132 
L 102.680238 103.784765 
L 105.873463 103.784765 
L 105.977716 103.062714 
L 109.452811 103.062714 
L 109.51459 102.099979 
L 109.939324 102.099979 
L 110.031993 100.655876 
L 110.147829 100.655876 
L 110.337029 99.211774 
L 110.645926 99.211774 
L 110.738595 98.249038 
L 113.592034 97.526987 
L 113.622924 97.04562 
L 118.657949 97.04562 
L 121.746922 96.564252 
L 122.017207 96.564252 
L 122.144627 96.082885 
L 123.418829 96.082885 
L 123.507636 95.601517 
L 125.260629 95.601517 
L 125.368743 95.12015 
L 129.017592 95.12015 
L 129.125706 94.638782 
L 129.260848 94.638782 
L 129.349656 94.157415 
L 129.697166 94.157415 
L 129.731917 92.713312 
L 130.311099 92.713312 
L 130.419213 92.231944 
L 132.079536 92.231944 
L 132.233984 91.269209 
L 133.257207 91.269209 
L 136.400236 91.028526 
L 136.431126 90.547158 
L 136.585575 90.547158 
L 136.987141 89.103056 
L 140.829051 89.103056 
L 143.844661 88.381004 
L 148.420202 88.381004 
L 152.107663 88.140321 
L 152.343197 88.140321 
L 152.536258 87.177585 
L 161.575364 87.177585 
L 161.745258 86.936902 
L 162.285828 86.936902 
L 162.316718 86.455534 
L 163.644976 86.21485 
L 163.799425 86.21485 
L 163.988624 85.974167 
L 167.660641 85.974167 
L 168.093097 85.252115 
L 168.286158 85.252115 
L 168.367243 84.28938 
L 169.004344 84.28938 
L 169.073846 83.808013 
L 170.290129 83.808013 
L 170.382798 82.36391 
L 170.884756 82.36391 
L 173.985312 81.882543 
L 175.715137 81.882543 
L 175.942949 81.641859 
L 178.692135 81.641859 
L 179.140036 80.679124 
L 180.004948 80.679124 
L 182.927888 79.957073 
L 183.866164 79.475705 
L 183.943388 79.475705 
L 183.966555 78.51297 
L 184.198228 78.51297 
L 184.290898 77.068868 
L 185.75816 77.068868 
L 186.333481 76.828184 
L 187.742825 76.828184 
L 187.932024 76.5875 
L 193.882158 76.5875 
L 194.036607 75.865449 
L 195.098441 75.865449 
L 195.249028 75.624765 
L 195.326253 75.624765 
L 195.395755 75.143397 
L 195.627428 75.143397 
L 195.862962 74.180662 
L 196.403532 74.180662 
L 200.202968 73.939979 
L 202.751371 73.939979 
L 202.863346 72.495876 
L 202.901958 72.495876 
L 203.010072 72.014509 
L 203.203133 72.014509 
L 203.291941 71.533141 
L 211.365744 71.533141 
L 211.388911 70.570406 
L 214.825393 70.570406 
L 215.277155 70.089038 
L 216.396908 70.089038 
L 216.505022 69.607671 
L 216.794613 69.607671 
L 216.945201 69.366987 
L 218.470381 69.366987 
L 219.539938 68.644936 
L 220.389405 68.644936 
L 220.520687 67.682201 
L 221.794888 67.682201 
L 221.914586 66.719466 
L 222.165565 66.719466 
L 222.316152 66.478782 
L 222.972559 66.478782 
L 223.432043 66.238098 
L 225.729467 66.238098 
L 225.841442 65.275363 
L 227.540377 65.275363 
L 227.648491 64.793996 
L 228.459347 64.793996 
L 228.567461 64.312628 
L 228.953582 64.312628 
L 229.316537 64.071944 
L 231.034778 64.071944 
L 231.142892 63.590577 
L 234.193252 63.590577 
L 234.374729 62.868526 
L 236.112277 62.868526 
L 237.20114 62.146474 
L 238.436729 62.146474 
L 238.595038 61.183739 
L 241.973602 61.183739 
L 242.104884 59.739637 
L 251.004986 59.739637 
L 251.232798 59.498953 
L 252.468387 59.498953 
L 252.696199 59.258269 
L 261.994007 59.258269 
L 262.063509 58.776902 
L 262.372406 58.776902 
L 262.407157 57.332799 
L 262.986339 57.332799 
L 263.133066 56.851432 
L 267.206648 56.851432 
L 267.314763 56.370064 
L 274.678101 56.370064 
L 274.751464 56.12938 
L 280.910104 56.12938 
L 280.983467 55.888697 
L 286.180664 55.888697 
L 286.250165 55.407329 
L 287.447142 55.407329 
L 287.516644 54.925962 
L 292.991848 54.925962 
L 293.038183 54.20391 
L 306.992617 54.20391 
L 307.023507 53.722543 
L 308.317014 53.722543 
L 308.386516 53.241175 
L 314.352095 53.241175 
L 314.421597 52.759808 
L 324.414424 52.759808 
L 324.603623 52.519124 
L 325.221418 52.519124 
L 325.352699 52.27844 
L 328.298807 52.27844 
L 328.410782 52.037756 
L 328.495729 51.315705 
L 338.411331 51.315705 
L 338.53489 50.593654 
L 347.041149 50.593654 
L 347.110651 50.112286 
L 348.095261 50.112286 
L 348.203375 49.630919 
L 355.076339 49.630919 
L 355.199898 48.908868 
L 358.277287 48.908868 
L 358.385401 48.4275 
L 400.90125 48.4275 
L 400.90125 48.4275 
" style="fill:none;stroke:#ff7f0e;stroke-linecap:square;stroke-width:1.5;"/>
   </g>
   <g id="line2d_15">
    <path clip-path="url(#p66e916a8a9)" d="M 43.78125 301.8675 
L 43.87778 301.8675 
L 43.962727 301.145449 
L 44.078564 301.145449 
L 44.379738 299.460662 
L 44.456963 299.460662 
L 44.48013 298.497927 
L 44.595967 298.497927 
L 44.704081 295.609722 
L 44.993672 295.609722 
L 45.24079 294.16562 
L 45.356626 294.16562 
L 45.538103 292.24015 
L 45.75047 292.24015 
L 46.379848 288.148526 
L 46.457073 288.148526 
L 46.592215 286.945107 
L 46.908835 286.223056 
L 50.00553 259.747842 
L 53.129254 243.62203 
L 53.283702 243.62203 
L 53.526959 241.937244 
L 53.681408 241.937244 
L 53.75091 241.455876 
L 53.866746 241.455876 
L 54.179504 238.086303 
L 54.391871 238.086303 
L 54.453651 237.123568 
L 54.723936 237.123568 
L 54.785715 236.160833 
L 55.056001 236.160833 
L 55.225894 234.716731 
L 55.361037 234.716731 
L 55.453706 232.069209 
L 55.623599 230.625107 
L 56.376536 230.625107 
L 56.507818 229.181004 
L 56.681572 229.181004 
L 56.789686 226.292799 
L 56.866911 226.292799 
L 56.994331 224.608013 
L 57.264616 224.608013 
L 57.353424 224.126645 
L 57.778158 224.126645 
L 57.878549 223.16391 
L 58.052304 223.16391 
L 58.148834 220.757073 
L 58.264671 220.757073 
L 58.399814 218.350235 
L 58.670099 218.350235 
L 58.743462 218.109551 
L 59.071665 218.109551 
L 59.145028 217.868868 
L 59.287893 216.906132 
L 59.558178 216.906132 
L 59.650847 215.46203 
L 59.824602 215.46203 
L 60.114193 212.092457 
L 60.191418 212.092457 
L 60.423091 209.68562 
L 60.828518 209.68562 
L 60.940494 208.241517 
L 61.002273 207.278782 
L 61.195334 207.278782 
L 61.376811 206.556731 
L 61.496509 205.112628 
L 61.747488 205.112628 
L 61.81699 204.631261 
L 62.589233 204.631261 
L 62.654873 203.909209 
L 62.747543 202.465107 
L 62.863379 202.465107 
L 62.894269 201.983739 
L 63.071885 201.021004 
L 63.234056 199.095534 
L 63.504341 199.095534 
L 63.817099 196.92938 
L 64.222527 196.92938 
L 64.330641 196.448013 
L 64.388559 196.448013 
L 64.558453 195.00391 
L 65.871266 195.00391 
L 65.940768 194.522543 
L 66.056605 194.522543 
L 66.218776 188.986816 
L 66.257388 188.986816 
L 66.361641 187.061346 
L 66.651232 187.061346 
L 66.975574 183.210406 
L 67.091411 183.210406 
L 67.253582 182.488355 
L 67.446642 182.488355 
L 67.508422 181.52562 
L 67.624258 181.52562 
L 67.732372 179.840833 
L 68.002658 179.840833 
L 68.095327 178.396731 
L 68.230469 178.396731 
L 68.388779 177.674679 
L 68.504616 175.267842 
L 68.697676 175.267842 
L 68.821235 174.545791 
L 69.400418 174.545791 
L 69.520115 173.583056 
L 69.728621 173.342372 
L 69.751788 172.379637 
L 69.867625 172.379637 
L 69.898515 171.898269 
L 70.014351 171.898269 
L 70.36186 169.491432 
L 71.481613 169.491432 
L 71.609033 169.010064 
L 71.840706 169.010064 
L 71.960404 168.047329 
L 73.365886 168.047329 
L 73.435388 167.565962 
L 74.188325 167.565962 
L 74.327329 166.603226 
L 74.501084 166.603226 
L 74.570586 166.121859 
L 75.169074 166.121859 
L 75.304217 164.91844 
L 75.574502 164.91844 
L 75.763702 163.474338 
L 76.26566 163.474338 
L 76.288827 162.511603 
L 76.443276 162.511603 
L 76.532084 162.030235 
L 76.918205 162.030235 
L 76.987707 161.548868 
L 77.21938 161.548868 
L 77.358384 160.345449 
L 77.47422 160.345449 
L 77.613224 159.382714 
L 77.902815 159.382714 
L 77.925982 158.419979 
L 78.080431 158.419979 
L 78.323688 156.735192 
L 78.593973 156.735192 
L 78.736838 154.809722 
L 79.007123 154.809722 
L 79.099792 153.36562 
L 79.578583 150.477415 
L 79.848868 150.477415 
L 80.022623 149.273996 
L 80.177071 149.273996 
L 80.246573 148.792628 
L 80.269741 147.829893 
L 80.559332 147.829893 
L 80.771699 146.626474 
L 81.648195 146.626474 
L 81.671362 145.663739 
L 82.192626 145.663739 
L 82.308463 143.256902 
L 82.501523 143.256902 
L 82.524691 142.294167 
L 83.103873 142.294167 
L 83.173375 141.812799 
L 83.98423 141.812799 
L 84.092344 141.331432 
L 84.246793 141.331432 
L 84.354907 140.850064 
L 84.393519 140.850064 
L 84.640637 139.405962 
L 84.702416 138.443226 
L 85.300905 138.443226 
L 85.501688 136.517756 
L 85.578912 136.517756 
L 85.771973 135.073654 
L 85.88781 135.073654 
L 86.034536 134.592286 
L 86.980534 134.592286 
L 87.146566 134.110919 
L 87.474769 134.110919 
L 87.555855 133.148184 
L 87.625357 132.666816 
L 88.3976 132.666816 
L 88.505714 132.185449 
L 88.96906 132.185449 
L 89.081035 130.741346 
L 89.563687 130.741346 
L 89.652495 130.259979 
L 89.806944 130.259979 
L 89.972976 128.093825 
L 91.498156 128.093825 
L 91.590826 126.649722 
L 92.324457 126.649722 
L 92.428709 124.724252 
L 93.220259 124.724252 
L 93.753107 120.632628 
L 94.062004 120.632628 
L 94.216452 119.429209 
L 95.552433 119.429209 
L 95.621935 118.947842 
L 95.89222 118.947842 
L 96.000334 118.466474 
L 96.220424 116.541004 
L 97.031279 116.541004 
L 97.093058 115.578269 
L 97.208895 115.578269 
L 97.347899 114.615534 
L 98.564182 114.615534 
L 98.691602 114.134167 
L 99.560375 114.134167 
L 99.629877 113.652799 
L 99.737991 113.171432 
L 100.162725 113.171432 
L 100.340341 112.208697 
L 101.382869 112.208697 
L 101.490983 111.727329 
L 102.108778 111.727329 
L 102.309561 111.486645 
L 103.023886 111.486645 
L 103.201502 110.52391 
L 103.355951 110.52391 
L 103.425452 110.042543 
L 103.966023 110.042543 
L 104.151361 109.561175 
L 104.49887 109.561175 
L 104.691931 108.357756 
L 104.84638 108.357756 
L 105.031718 106.191603 
L 105.51437 106.191603 
L 105.626346 104.7475 
L 106.205528 104.7475 
L 106.286613 103.784765 
L 107.271224 103.784765 
L 107.398644 102.099979 
L 109.429643 102.099979 
L 109.614982 100.655876 
L 109.923879 100.655876 
L 109.993381 100.174509 
L 110.302278 100.174509 
L 110.421976 98.97109 
L 110.537812 98.97109 
L 110.607314 98.489722 
L 110.800375 98.489722 
L 110.869877 98.008355 
L 111.043631 98.008355 
L 111.190358 97.526987 
L 111.395002 97.286303 
L 114.016768 97.286303 
L 114.27933 96.804936 
L 114.491697 96.804936 
L 114.634562 96.082885 
L 114.962766 96.082885 
L 115.036129 95.842201 
L 115.395222 95.842201 
L 115.599866 95.360833 
L 115.677091 95.360833 
L 115.804511 94.879466 
L 116.036184 94.879466 
L 116.18291 94.398098 
L 116.684868 94.398098 
L 116.870206 93.916731 
L 117.217716 93.916731 
L 117.306524 93.435363 
L 118.117379 93.435363 
L 118.283411 92.953996 
L 118.360636 92.953996 
L 118.464888 92.231944 
L 118.889622 92.231944 
L 119.078822 91.991261 
L 119.252577 91.991261 
L 119.399303 91.509893 
L 119.630976 91.509893 
L 119.73909 91.028526 
L 120.434109 91.028526 
L 120.600141 90.547158 
L 122.299076 90.547158 
L 122.449663 90.306474 
L 123.067458 90.306474 
L 123.175572 89.825107 
L 123.523081 89.825107 
L 123.611889 89.343739 
L 125.272212 89.343739 
L 125.36102 88.862372 
L 125.476857 88.862372 
L 125.666056 87.418269 
L 126.341769 87.418269 
L 126.442161 86.455534 
L 127.198959 86.455534 
L 127.341824 85.733483 
L 128.422964 85.733483 
L 128.531078 85.252115 
L 128.82067 85.252115 
L 128.932645 83.808013 
L 129.96359 83.808013 
L 130.087148 83.085962 
L 131.650941 83.085962 
L 131.759055 82.604594 
L 133.747581 82.604594 
L 133.817083 82.123226 
L 134.434878 82.123226 
L 134.481212 81.401175 
L 138.323122 81.401175 
L 138.628158 81.160491 
L 143.010638 81.160491 
L 143.199838 80.919808 
L 143.933469 80.919808 
L 144.084056 80.679124 
L 147.848742 80.679124 
L 147.879631 79.957073 
L 148.883548 79.957073 
L 149.061164 78.994338 
L 150.335365 78.994338 
L 150.443479 78.51297 
L 151.350865 78.51297 
L 151.439673 77.790919 
L 151.883712 77.790919 
L 152.030439 77.309551 
L 153.84521 77.309551 
L 154.420531 77.068868 
L 160.420861 77.068868 
L 160.532836 76.828184 
L 161.305079 76.828184 
L 161.919013 76.5875 
L 162.459583 76.5875 
L 162.617893 75.624765 
L 163.46736 75.624765 
L 163.749229 75.143397 
L 169.637583 75.143397 
L 169.707085 74.66203 
L 170.344186 74.66203 
L 170.487051 73.939979 
L 170.525663 73.939979 
L 170.653083 73.458611 
L 172.409936 73.458611 
L 172.599136 72.014509 
L 173.892643 72.014509 
L 174.031647 71.051774 
L 175.228624 71.051774 
L 175.37535 70.570406 
L 177.556937 70.570406 
L 179.59952 70.329722 
L 180.854415 70.329722 
L 181.020448 69.848355 
L 181.773385 69.848355 
L 181.920111 69.366987 
L 183.375789 69.366987 
L 183.483904 68.88562 
L 184.294759 68.88562 
L 186.356648 68.644936 
L 190.183113 68.644936 
L 190.410925 68.404252 
L 191.395535 68.404252 
L 191.44187 67.682201 
L 192.503704 67.682201 
L 192.627263 66.96015 
L 199.685566 66.96015 
L 202.075658 66.238098 
L 203.894291 66.238098 
L 204.068046 65.756731 
L 213.89484 65.756731 
L 214.068595 64.553312 
L 214.570553 64.553312 
L 216.875699 63.590577 
L 223.416599 63.590577 
L 223.524713 63.109209 
L 224.509323 63.109209 
L 227.509488 62.868526 
L 229.015362 62.868526 
L 229.258618 62.387158 
L 233.235671 62.387158 
L 233.282005 61.665107 
L 236.660569 61.665107 
L 236.733932 61.424423 
L 237.486869 61.424423 
L 241.050772 59.739637 
L 246.027879 59.739637 
L 246.074214 59.017585 
L 246.769233 59.017585 
L 246.869624 58.05485 
L 252.313939 58.05485 
L 252.398885 57.332799 
L 269.797524 57.332799 
L 269.886332 56.851432 
L 279.964106 56.851432 
L 279.994996 56.12938 
L 281.018218 56.12938 
L 284.651622 55.166645 
L 284.782903 54.925962 
L 287.794652 54.925962 
L 287.922072 54.444594 
L 288.790846 54.444594 
L 288.83718 53.722543 
L 292.096046 53.722543 
L 292.223466 53.241175 
L 292.312274 52.759808 
L 301.065651 52.759808 
L 301.193071 52.27844 
L 301.772253 52.27844 
L 301.841755 51.556389 
L 306.243542 51.556389 
L 306.274431 51.075021 
L 307.722387 51.075021 
L 307.830501 50.593654 
L 324.599762 50.593654 
L 324.684709 49.871603 
L 329.248666 49.871603 
L 329.360641 49.630919 
L 332.623369 49.630919 
L 332.669703 48.908868 
L 350.319321 48.908868 
L 350.388823 48.4275 
L 400.90125 48.4275 
L 400.90125 48.4275 
" style="fill:none;stroke:#2ca02c;stroke-linecap:square;stroke-width:1.5;"/>
   </g>
   <g id="line2d_16">
    <path clip-path="url(#p66e916a8a9)" d="M 43.78125 301.8675 
L 400.90125 48.4275 
" style="fill:none;stroke:#000000;stroke-dasharray:5.6,2.4;stroke-dashoffset:0;stroke-width:1.5;"/>
   </g>
   <g id="patch_3">
    <path d="M 43.78125 301.8675 
L 43.78125 35.7555 
" style="fill:none;stroke:#000000;stroke-linecap:square;stroke-linejoin:miter;stroke-width:0.8;"/>
   </g>
   <g id="patch_4">
    <path d="M 400.90125 301.8675 
L 400.90125 35.7555 
" style="fill:none;stroke:#000000;stroke-linecap:square;stroke-linejoin:miter;stroke-width:0.8;"/>
   </g>
   <g id="patch_5">
    <path d="M 43.78125 301.8675 
L 400.90125 301.8675 
" style="fill:none;stroke:#000000;stroke-linecap:square;stroke-linejoin:miter;stroke-width:0.8;"/>
   </g>
   <g id="patch_6">
    <path d="M 43.78125 35.7555 
L 400.90125 35.7555 
" style="fill:none;stroke:#000000;stroke-linecap:square;stroke-linejoin:miter;stroke-width:0.8;"/>
   </g>
   <g id="text_15">
    <!-- ROC Curve GradientBoosting + SMOTETomek -->
    <defs>
     <path d="M 39.40625 66.21875 
Q 28.65625 66.21875 22.328125 58.203125 
Q 16.015625 50.203125 16.015625 36.375 
Q 16.015625 22.609375 22.328125 14.59375 
Q 28.65625 6.59375 39.40625 6.59375 
Q 50.140625 6.59375 56.421875 14.59375 
Q 62.703125 22.609375 62.703125 36.375 
Q 62.703125 50.203125 56.421875 58.203125 
Q 50.140625 66.21875 39.40625 66.21875 
M 39.40625 74.21875 
Q 54.734375 74.21875 63.90625 63.9375 
Q 73.09375 53.65625 73.09375 36.375 
Q 73.09375 19.140625 63.90625 8.859375 
Q 54.734375 -1.421875 39.40625 -1.421875 
Q 24.03125 -1.421875 14.8125 8.828125 
Q 5.609375 19.09375 5.609375 36.375 
Q 5.609375 53.65625 14.8125 63.9375 
Q 24.03125 74.21875 39.40625 74.21875 
" id="DejaVuSans-4f"/>
     <path d="M 64.40625 67.28125 
L 64.40625 56.890625 
Q 59.421875 61.53125 53.78125 63.8125 
Q 48.140625 66.109375 41.796875 66.109375 
Q 29.296875 66.109375 22.65625 58.46875 
Q 16.015625 50.828125 16.015625 36.375 
Q 16.015625 21.96875 22.65625 14.328125 
Q 29.296875 6.6875 41.796875 6.6875 
Q 48.140625 6.6875 53.78125 8.984375 
Q 59.421875 11.28125 64.40625 15.921875 
L 64.40625 5.609375 
Q 59.234375 2.09375 53.4375 0.328125 
Q 47.65625 -1.421875 41.21875 -1.421875 
Q 24.65625 -1.421875 15.125 8.703125 
Q 5.609375 18.84375 5.609375 36.375 
Q 5.609375 53.953125 15.125 64.078125 
Q 24.65625 74.21875 41.21875 74.21875 
Q 47.75 74.21875 53.53125 72.484375 
Q 59.328125 70.75 64.40625 67.28125 
" id="DejaVuSans-43"/>
     <path d="M 59.515625 10.40625 
L 59.515625 29.984375 
L 43.40625 29.984375 
L 43.40625 38.09375 
L 69.28125 38.09375 
L 69.28125 6.78125 
Q 63.578125 2.734375 56.6875 0.65625 
Q 49.8125 -1.421875 42 -1.421875 
Q 24.90625 -1.421875 15.25 8.5625 
Q 5.609375 18.5625 5.609375 36.375 
Q 5.609375 54.25 15.25 64.234375 
Q 24.90625 74.21875 42 74.21875 
Q 49.125 74.21875 55.546875 72.453125 
Q 61.96875 70.703125 67.390625 67.28125 
L 67.390625 56.78125 
Q 61.921875 61.421875 55.765625 63.765625 
Q 49.609375 66.109375 42.828125 66.109375 
Q 29.4375 66.109375 22.71875 58.640625 
Q 16.015625 51.171875 16.015625 36.375 
Q 16.015625 21.625 22.71875 14.15625 
Q 29.4375 6.6875 42.828125 6.6875 
Q 48.046875 6.6875 52.140625 7.59375 
Q 56.25 8.5 59.515625 10.40625 
" id="DejaVuSans-47"/>
     <path d="M 45.40625 46.390625 
L 45.40625 75.984375 
L 54.390625 75.984375 
L 54.390625 0 
L 45.40625 0 
L 45.40625 8.203125 
Q 42.578125 3.328125 38.25 0.953125 
Q 33.9375 -1.421875 27.875 -1.421875 
Q 17.96875 -1.421875 11.734375 6.484375 
Q 5.515625 14.40625 5.515625 27.296875 
Q 5.515625 40.1875 11.734375 48.09375 
Q 17.96875 56 27.875 56 
Q 33.9375 56 38.25 53.625 
Q 42.578125 51.265625 45.40625 46.390625 
M 14.796875 27.296875 
Q 14.796875 17.390625 18.875 11.75 
Q 22.953125 6.109375 30.078125 6.109375 
Q 37.203125 6.109375 41.296875 11.75 
Q 45.40625 17.390625 45.40625 27.296875 
Q 45.40625 37.203125 41.296875 42.84375 
Q 37.203125 48.484375 30.078125 48.484375 
Q 22.953125 48.484375 18.875 42.84375 
Q 14.796875 37.203125 14.796875 27.296875 
" id="DejaVuSans-64"/>
     <path d="M 54.890625 33.015625 
L 54.890625 0 
L 45.90625 0 
L 45.90625 32.71875 
Q 45.90625 40.484375 42.875 44.328125 
Q 39.84375 48.1875 33.796875 48.1875 
Q 26.515625 48.1875 22.3125 43.546875 
Q 18.109375 38.921875 18.109375 30.90625 
L 18.109375 0 
L 9.078125 0 
L 9.078125 54.6875 
L 18.109375 54.6875 
L 18.109375 46.1875 
Q 21.34375 51.125 25.703125 53.5625 
Q 30.078125 56 35.796875 56 
Q 45.21875 56 50.046875 50.171875 
Q 54.890625 44.34375 54.890625 33.015625 
" id="DejaVuSans-6e"/>
     <path d="M 19.671875 34.8125 
L 19.671875 8.109375 
L 35.5 8.109375 
Q 43.453125 8.109375 47.28125 11.40625 
Q 51.125 14.703125 51.125 21.484375 
Q 51.125 28.328125 47.28125 31.5625 
Q 43.453125 34.8125 35.5 34.8125 
z
M 19.671875 64.796875 
L 19.671875 42.828125 
L 34.28125 42.828125 
Q 41.5 42.828125 45.03125 45.53125 
Q 48.578125 48.25 48.578125 53.8125 
Q 48.578125 59.328125 45.03125 62.0625 
Q 41.5 64.796875 34.28125 64.796875 
z
M 9.8125 72.90625 
L 35.015625 72.90625 
Q 46.296875 72.90625 52.390625 68.21875 
Q 58.5 63.53125 58.5 54.890625 
Q 58.5 48.1875 55.375 44.234375 
Q 52.25 40.28125 46.1875 39.3125 
Q 53.46875 37.75 57.5 32.78125 
Q 61.53125 27.828125 61.53125 20.40625 
Q 61.53125 10.640625 54.890625 5.3125 
Q 48.25 0 35.984375 0 
L 9.8125 0 
z
" id="DejaVuSans-42"/>
     <path d="M 45.40625 27.984375 
Q 45.40625 37.75 41.375 43.109375 
Q 37.359375 48.484375 30.078125 48.484375 
Q 22.859375 48.484375 18.828125 43.109375 
Q 14.796875 37.75 14.796875 27.984375 
Q 14.796875 18.265625 18.828125 12.890625 
Q 22.859375 7.515625 30.078125 7.515625 
Q 37.359375 7.515625 41.375 12.890625 
Q 45.40625 18.265625 45.40625 27.984375 
M 54.390625 6.78125 
Q 54.390625 -7.171875 48.1875 -13.984375 
Q 42 -20.796875 29.203125 -20.796875 
Q 24.46875 -20.796875 20.265625 -20.09375 
Q 16.0625 -19.390625 12.109375 -17.921875 
L 12.109375 -9.1875 
Q 16.0625 -11.328125 19.921875 -12.34375 
Q 23.78125 -13.375 27.78125 -13.375 
Q 36.625 -13.375 41.015625 -8.765625 
Q 45.40625 -4.15625 45.40625 5.171875 
L 45.40625 9.625 
Q 42.625 4.78125 38.28125 2.390625 
Q 33.9375 0 27.875 0 
Q 17.828125 0 11.671875 7.65625 
Q 5.515625 15.328125 5.515625 27.984375 
Q 5.515625 40.671875 11.671875 48.328125 
Q 17.828125 56 27.875 56 
Q 33.9375 56 38.28125 53.609375 
Q 42.625 51.21875 45.40625 46.390625 
L 45.40625 54.6875 
L 54.390625 54.6875 
z
" id="DejaVuSans-67"/>
     <path d="M 46 62.703125 
L 46 35.5 
L 73.1875 35.5 
L 73.1875 27.203125 
L 46 27.203125 
L 46 0 
L 37.796875 0 
L 37.796875 27.203125 
L 10.59375 27.203125 
L 10.59375 35.5 
L 37.796875 35.5 
L 37.796875 62.703125 
z
" id="DejaVuSans-2b"/>
     <path d="M 53.515625 70.515625 
L 53.515625 60.890625 
Q 47.90625 63.578125 42.921875 64.890625 
Q 37.9375 66.21875 33.296875 66.21875 
Q 25.25 66.21875 20.875 63.09375 
Q 16.5 59.96875 16.5 54.203125 
Q 16.5 49.359375 19.40625 46.890625 
Q 22.3125 44.4375 30.421875 42.921875 
L 36.375 41.703125 
Q 47.40625 39.59375 52.65625 34.296875 
Q 57.90625 29 57.90625 20.125 
Q 57.90625 9.515625 50.796875 4.046875 
Q 43.703125 -1.421875 29.984375 -1.421875 
Q 24.8125 -1.421875 18.96875 -0.25 
Q 13.140625 0.921875 6.890625 3.21875 
L 6.890625 13.375 
Q 12.890625 10.015625 18.65625 8.296875 
Q 24.421875 6.59375 29.984375 6.59375 
Q 38.421875 6.59375 43.015625 9.90625 
Q 47.609375 13.234375 47.609375 19.390625 
Q 47.609375 24.75 44.3125 27.78125 
Q 41.015625 30.8125 33.5 32.328125 
L 27.484375 33.5 
Q 16.453125 35.6875 11.515625 40.375 
Q 6.59375 45.0625 6.59375 53.421875 
Q 6.59375 63.09375 13.40625 68.65625 
Q 20.21875 74.21875 32.171875 74.21875 
Q 37.3125 74.21875 42.625 73.28125 
Q 47.953125 72.359375 53.515625 70.515625 
" id="DejaVuSans-53"/>
     <path d="M 9.8125 72.90625 
L 24.515625 72.90625 
L 43.109375 23.296875 
L 61.8125 72.90625 
L 76.515625 72.90625 
L 76.515625 0 
L 66.890625 0 
L 66.890625 64.015625 
L 48.09375 14.015625 
L 38.1875 14.015625 
L 19.390625 64.015625 
L 19.390625 0 
L 9.8125 0 
z
" id="DejaVuSans-4d"/>
     <path d="M 9.8125 72.90625 
L 55.90625 72.90625 
L 55.90625 64.59375 
L 19.671875 64.59375 
L 19.671875 43.015625 
L 54.390625 43.015625 
L 54.390625 34.71875 
L 19.671875 34.71875 
L 19.671875 8.296875 
L 56.78125 8.296875 
L 56.78125 0 
L 9.8125 0 
z
" id="DejaVuSans-45"/>
     <path d="M 52 44.1875 
Q 55.375 50.25 60.0625 53.125 
Q 64.75 56 71.09375 56 
Q 79.640625 56 84.28125 50.015625 
Q 88.921875 44.046875 88.921875 33.015625 
L 88.921875 0 
L 79.890625 0 
L 79.890625 32.71875 
Q 79.890625 40.578125 77.09375 44.375 
Q 74.3125 48.1875 68.609375 48.1875 
Q 61.625 48.1875 57.5625 43.546875 
Q 53.515625 38.921875 53.515625 30.90625 
L 53.515625 0 
L 44.484375 0 
L 44.484375 32.71875 
Q 44.484375 40.625 41.703125 44.40625 
Q 38.921875 48.1875 33.109375 48.1875 
Q 26.21875 48.1875 22.15625 43.53125 
Q 18.109375 38.875 18.109375 30.90625 
L 18.109375 0 
L 9.078125 0 
L 9.078125 54.6875 
L 18.109375 54.6875 
L 18.109375 46.1875 
Q 21.1875 51.21875 25.484375 53.609375 
Q 29.78125 56 35.6875 56 
Q 41.65625 56 45.828125 52.96875 
Q 50 49.953125 52 44.1875 
" id="DejaVuSans-6d"/>
     <path d="M 9.078125 75.984375 
L 18.109375 75.984375 
L 18.109375 31.109375 
L 44.921875 54.6875 
L 56.390625 54.6875 
L 27.390625 29.109375 
L 57.625 0 
L 45.90625 0 
L 18.109375 26.703125 
L 18.109375 0 
L 9.078125 0 
z
" id="DejaVuSans-6b"/>
    </defs>
    <g transform="translate(85.07625 16.318125)scale(0.12 -0.12)">
     <use xlink:href="#DejaVuSans-52"/>
     <use x="69.482422" xlink:href="#DejaVuSans-4f"/>
     <use x="148.193359" xlink:href="#DejaVuSans-43"/>
     <use x="218.017578" xlink:href="#DejaVuSans-20"/>
     <use x="249.804688" xlink:href="#DejaVuSans-43"/>
     <use x="319.628906" xlink:href="#DejaVuSans-75"/>
     <use x="383.007812" xlink:href="#DejaVuSans-72"/>
     <use x="424.121094" xlink:href="#DejaVuSans-76"/>
     <use x="483.300781" xlink:href="#DejaVuSans-65"/>
     <use x="544.824219" xlink:href="#DejaVuSans-20"/>
     <use x="576.611328" xlink:href="#DejaVuSans-47"/>
     <use x="654.101562" xlink:href="#DejaVuSans-72"/>
     <use x="695.214844" xlink:href="#DejaVuSans-61"/>
     <use x="756.494141" xlink:href="#DejaVuSans-64"/>
     <use x="819.970703" xlink:href="#DejaVuSans-69"/>
     <use x="847.753906" xlink:href="#DejaVuSans-65"/>
     <use x="909.277344" xlink:href="#DejaVuSans-6e"/>
     <use x="972.65625" xlink:href="#DejaVuSans-74"/>
     <use x="1011.865234" xlink:href="#DejaVuSans-42"/>
     <use x="1080.46875" xlink:href="#DejaVuSans-6f"/>
     <use x="1141.650391" xlink:href="#DejaVuSans-6f"/>
     <use x="1202.832031" xlink:href="#DejaVuSans-73"/>
     <use x="1254.931641" xlink:href="#DejaVuSans-74"/>
     <use x="1294.140625" xlink:href="#DejaVuSans-69"/>
     <use x="1321.923828" xlink:href="#DejaVuSans-6e"/>
     <use x="1385.302734" xlink:href="#DejaVuSans-67"/>
     <use x="1448.779297" xlink:href="#DejaVuSans-20"/>
     <use x="1480.566406" xlink:href="#DejaVuSans-2b"/>
     <use x="1564.355469" xlink:href="#DejaVuSans-20"/>
     <use x="1596.142578" xlink:href="#DejaVuSans-53"/>
     <use x="1659.619141" xlink:href="#DejaVuSans-4d"/>
     <use x="1745.898438" xlink:href="#DejaVuSans-4f"/>
     <use x="1824.609375" xlink:href="#DejaVuSans-54"/>
     <use x="1885.693359" xlink:href="#DejaVuSans-45"/>
     <use x="1948.876953" xlink:href="#DejaVuSans-54"/>
     <use x="2009.695312" xlink:href="#DejaVuSans-6f"/>
     <use x="2070.876953" xlink:href="#DejaVuSans-6d"/>
     <use x="2168.289062" xlink:href="#DejaVuSans-65"/>
     <use x="2229.8125" xlink:href="#DejaVuSans-6b"/>
    </g>
    <!-- Train: 1   Test: [1, 2, 4, 6, 8, 10, 12] -->
    <defs>
     <path d="M 11.71875 12.40625 
L 22.015625 12.40625 
L 22.015625 0 
L 11.71875 0 
z
M 11.71875 51.703125 
L 22.015625 51.703125 
L 22.015625 39.3125 
L 11.71875 39.3125 
z
" id="DejaVuSans-3a"/>
     <path d="M 8.59375 75.984375 
L 29.296875 75.984375 
L 29.296875 69 
L 17.578125 69 
L 17.578125 -6.203125 
L 29.296875 -6.203125 
L 29.296875 -13.1875 
L 8.59375 -13.1875 
z
" id="DejaVuSans-5b"/>
     <path d="M 11.71875 12.40625 
L 22.015625 12.40625 
L 22.015625 4 
L 14.015625 -11.625 
L 7.71875 -11.625 
L 11.71875 4 
z
" id="DejaVuSans-2c"/>
     <path d="M 30.421875 75.984375 
L 30.421875 -13.1875 
L 9.71875 -13.1875 
L 9.71875 -6.203125 
L 21.390625 -6.203125 
L 21.390625 69 
L 9.71875 69 
L 9.71875 75.984375 
z
" id="DejaVuSans-5d"/>
    </defs>
    <g transform="translate(114.942188 29.7555)scale(0.12 -0.12)">
     <use xlink:href="#DejaVuSans-54"/>
     <use x="60.865234" xlink:href="#DejaVuSans-72"/>
     <use x="101.978516" xlink:href="#DejaVuSans-61"/>
     <use x="163.257812" xlink:href="#DejaVuSans-69"/>
     <use x="191.041016" xlink:href="#DejaVuSans-6e"/>
     <use x="254.419922" xlink:href="#DejaVuSans-3a"/>
     <use x="288.111328" xlink:href="#DejaVuSans-20"/>
     <use x="319.898438" xlink:href="#DejaVuSans-31"/>
     <use x="383.521484" xlink:href="#DejaVuSans-20"/>
     <use x="415.308594" xlink:href="#DejaVuSans-20"/>
     <use x="447.095703" xlink:href="#DejaVuSans-20"/>
     <use x="478.882812" xlink:href="#DejaVuSans-54"/>
     <use x="539.701172" xlink:href="#DejaVuSans-65"/>
     <use x="601.224609" xlink:href="#DejaVuSans-73"/>
     <use x="653.324219" xlink:href="#DejaVuSans-74"/>
     <use x="692.533203" xlink:href="#DejaVuSans-3a"/>
     <use x="726.224609" xlink:href="#DejaVuSans-20"/>
     <use x="758.011719" xlink:href="#DejaVuSans-5b"/>
     <use x="797.025391" xlink:href="#DejaVuSans-31"/>
     <use x="860.648438" xlink:href="#DejaVuSans-2c"/>
     <use x="892.435547" xlink:href="#DejaVuSans-20"/>
     <use x="924.222656" xlink:href="#DejaVuSans-32"/>
     <use x="987.845703" xlink:href="#DejaVuSans-2c"/>
     <use x="1019.632812" xlink:href="#DejaVuSans-20"/>
     <use x="1051.419922" xlink:href="#DejaVuSans-34"/>
     <use x="1115.042969" xlink:href="#DejaVuSans-2c"/>
     <use x="1146.830078" xlink:href="#DejaVuSans-20"/>
     <use x="1178.617188" xlink:href="#DejaVuSans-36"/>
     <use x="1242.240234" xlink:href="#DejaVuSans-2c"/>
     <use x="1274.027344" xlink:href="#DejaVuSans-20"/>
     <use x="1305.814453" xlink:href="#DejaVuSans-38"/>
     <use x="1369.4375" xlink:href="#DejaVuSans-2c"/>
     <use x="1401.224609" xlink:href="#DejaVuSans-20"/>
     <use x="1433.011719" xlink:href="#DejaVuSans-31"/>
     <use x="1496.634766" xlink:href="#DejaVuSans-30"/>
     <use x="1560.257812" xlink:href="#DejaVuSans-2c"/>
     <use x="1592.044922" xlink:href="#DejaVuSans-20"/>
     <use x="1623.832031" xlink:href="#DejaVuSans-31"/>
     <use x="1687.455078" xlink:href="#DejaVuSans-32"/>
     <use x="1751.078125" xlink:href="#DejaVuSans-5d"/>
    </g>
   </g>
   <g id="legend_1">
    <g id="patch_7">
     <path d="M 217.087188 296.8675 
L 393.90125 296.8675 
Q 395.90125 296.8675 395.90125 294.8675 
L 395.90125 251.833125 
Q 395.90125 249.833125 393.90125 249.833125 
L 217.087188 249.833125 
Q 215.087188 249.833125 215.087188 251.833125 
L 215.087188 294.8675 
Q 215.087188 296.8675 217.087188 296.8675 
z
" style="fill:#ffffff;opacity:0.8;stroke:#cccccc;stroke-linejoin:miter;"/>
    </g>
    <g id="line2d_17">
     <path d="M 219.087188 257.931562 
L 239.087188 257.931562 
" style="fill:none;stroke:#1f77b4;stroke-linecap:square;stroke-width:1.5;"/>
    </g>
    <g id="line2d_18"/>
    <g id="text_16">
     <!-- ROC curve - 0 (AUC = 0.866) -->
     <defs>
      <path d="M 48.78125 52.59375 
L 48.78125 44.1875 
Q 44.96875 46.296875 41.140625 47.34375 
Q 37.3125 48.390625 33.40625 48.390625 
Q 24.65625 48.390625 19.8125 42.84375 
Q 14.984375 37.3125 14.984375 27.296875 
Q 14.984375 17.28125 19.8125 11.734375 
Q 24.65625 6.203125 33.40625 6.203125 
Q 37.3125 6.203125 41.140625 7.25 
Q 44.96875 8.296875 48.78125 10.40625 
L 48.78125 2.09375 
Q 45.015625 0.34375 40.984375 -0.53125 
Q 36.96875 -1.421875 32.421875 -1.421875 
Q 20.0625 -1.421875 12.78125 6.34375 
Q 5.515625 14.109375 5.515625 27.296875 
Q 5.515625 40.671875 12.859375 48.328125 
Q 20.21875 56 33.015625 56 
Q 37.15625 56 41.109375 55.140625 
Q 45.0625 54.296875 48.78125 52.59375 
" id="DejaVuSans-63"/>
      <path d="M 4.890625 31.390625 
L 31.203125 31.390625 
L 31.203125 23.390625 
L 4.890625 23.390625 
z
" id="DejaVuSans-2d"/>
      <path d="M 31 75.875 
Q 24.46875 64.65625 21.28125 53.65625 
Q 18.109375 42.671875 18.109375 31.390625 
Q 18.109375 20.125 21.3125 9.0625 
Q 24.515625 -2 31 -13.1875 
L 23.1875 -13.1875 
Q 15.875 -1.703125 12.234375 9.375 
Q 8.59375 20.453125 8.59375 31.390625 
Q 8.59375 42.28125 12.203125 53.3125 
Q 15.828125 64.359375 23.1875 75.875 
z
" id="DejaVuSans-28"/>
      <path d="M 34.1875 63.1875 
L 20.796875 26.90625 
L 47.609375 26.90625 
z
M 28.609375 72.90625 
L 39.796875 72.90625 
L 67.578125 0 
L 57.328125 0 
L 50.6875 18.703125 
L 17.828125 18.703125 
L 11.1875 0 
L 0.78125 0 
z
" id="DejaVuSans-41"/>
      <path d="M 8.6875 72.90625 
L 18.609375 72.90625 
L 18.609375 28.609375 
Q 18.609375 16.890625 22.84375 11.734375 
Q 27.09375 6.59375 36.625 6.59375 
Q 46.09375 6.59375 50.34375 11.734375 
Q 54.59375 16.890625 54.59375 28.609375 
L 54.59375 72.90625 
L 64.5 72.90625 
L 64.5 27.390625 
Q 64.5 13.140625 57.4375 5.859375 
Q 50.390625 -1.421875 36.625 -1.421875 
Q 22.796875 -1.421875 15.734375 5.859375 
Q 8.6875 13.140625 8.6875 27.390625 
z
" id="DejaVuSans-55"/>
      <path d="M 10.59375 45.40625 
L 73.1875 45.40625 
L 73.1875 37.203125 
L 10.59375 37.203125 
z
M 10.59375 25.484375 
L 73.1875 25.484375 
L 73.1875 17.1875 
L 10.59375 17.1875 
z
" id="DejaVuSans-3d"/>
      <path d="M 8.015625 75.875 
L 15.828125 75.875 
Q 23.140625 64.359375 26.78125 53.3125 
Q 30.421875 42.28125 30.421875 31.390625 
Q 30.421875 20.453125 26.78125 9.375 
Q 23.140625 -1.703125 15.828125 -13.1875 
L 8.015625 -13.1875 
Q 14.5 -2 17.703125 9.0625 
Q 20.90625 20.125 20.90625 31.390625 
Q 20.90625 42.671875 17.703125 53.65625 
Q 14.5 64.65625 8.015625 75.875 
" id="DejaVuSans-29"/>
     </defs>
     <g transform="translate(247.087188 261.431562)scale(0.1 -0.1)">
      <use xlink:href="#DejaVuSans-52"/>
      <use x="69.482422" xlink:href="#DejaVuSans-4f"/>
      <use x="148.193359" xlink:href="#DejaVuSans-43"/>
      <use x="218.017578" xlink:href="#DejaVuSans-20"/>
      <use x="249.804688" xlink:href="#DejaVuSans-63"/>
      <use x="304.785156" xlink:href="#DejaVuSans-75"/>
      <use x="368.164062" xlink:href="#DejaVuSans-72"/>
      <use x="409.277344" xlink:href="#DejaVuSans-76"/>
      <use x="468.457031" xlink:href="#DejaVuSans-65"/>
      <use x="529.980469" xlink:href="#DejaVuSans-20"/>
      <use x="561.767578" xlink:href="#DejaVuSans-2d"/>
      <use x="597.851562" xlink:href="#DejaVuSans-20"/>
      <use x="629.638672" xlink:href="#DejaVuSans-30"/>
      <use x="693.261719" xlink:href="#DejaVuSans-20"/>
      <use x="725.048828" xlink:href="#DejaVuSans-28"/>
      <use x="764.0625" xlink:href="#DejaVuSans-41"/>
      <use x="832.470703" xlink:href="#DejaVuSans-55"/>
      <use x="905.664062" xlink:href="#DejaVuSans-43"/>
      <use x="975.488281" xlink:href="#DejaVuSans-20"/>
      <use x="1007.275391" xlink:href="#DejaVuSans-3d"/>
      <use x="1091.064453" xlink:href="#DejaVuSans-20"/>
      <use x="1122.851562" xlink:href="#DejaVuSans-30"/>
      <use x="1186.474609" xlink:href="#DejaVuSans-2e"/>
      <use x="1218.261719" xlink:href="#DejaVuSans-38"/>
      <use x="1281.884766" xlink:href="#DejaVuSans-36"/>
      <use x="1345.507812" xlink:href="#DejaVuSans-36"/>
      <use x="1409.130859" xlink:href="#DejaVuSans-29"/>
     </g>
    </g>
    <g id="line2d_19">
     <path d="M 219.087188 272.609687 
L 239.087188 272.609687 
" style="fill:none;stroke:#ff7f0e;stroke-linecap:square;stroke-width:1.5;"/>
    </g>
    <g id="line2d_20"/>
    <g id="text_17">
     <!-- ROC curve - 1 (AUC = 0.862) -->
     <g transform="translate(247.087188 276.109687)scale(0.1 -0.1)">
      <use xlink:href="#DejaVuSans-52"/>
      <use x="69.482422" xlink:href="#DejaVuSans-4f"/>
      <use x="148.193359" xlink:href="#DejaVuSans-43"/>
      <use x="218.017578" xlink:href="#DejaVuSans-20"/>
      <use x="249.804688" xlink:href="#DejaVuSans-63"/>
      <use x="304.785156" xlink:href="#DejaVuSans-75"/>
      <use x="368.164062" xlink:href="#DejaVuSans-72"/>
      <use x="409.277344" xlink:href="#DejaVuSans-76"/>
      <use x="468.457031" xlink:href="#DejaVuSans-65"/>
      <use x="529.980469" xlink:href="#DejaVuSans-20"/>
      <use x="561.767578" xlink:href="#DejaVuSans-2d"/>
      <use x="597.851562" xlink:href="#DejaVuSans-20"/>
      <use x="629.638672" xlink:href="#DejaVuSans-31"/>
      <use x="693.261719" xlink:href="#DejaVuSans-20"/>
      <use x="725.048828" xlink:href="#DejaVuSans-28"/>
      <use x="764.0625" xlink:href="#DejaVuSans-41"/>
      <use x="832.470703" xlink:href="#DejaVuSans-55"/>
      <use x="905.664062" xlink:href="#DejaVuSans-43"/>
      <use x="975.488281" xlink:href="#DejaVuSans-20"/>
      <use x="1007.275391" xlink:href="#DejaVuSans-3d"/>
      <use x="1091.064453" xlink:href="#DejaVuSans-20"/>
      <use x="1122.851562" xlink:href="#DejaVuSans-30"/>
      <use x="1186.474609" xlink:href="#DejaVuSans-2e"/>
      <use x="1218.261719" xlink:href="#DejaVuSans-38"/>
      <use x="1281.884766" xlink:href="#DejaVuSans-36"/>
      <use x="1345.507812" xlink:href="#DejaVuSans-32"/>
      <use x="1409.130859" xlink:href="#DejaVuSans-29"/>
     </g>
    </g>
    <g id="line2d_21">
     <path d="M 219.087188 287.287812 
L 239.087188 287.287812 
" style="fill:none;stroke:#2ca02c;stroke-linecap:square;stroke-width:1.5;"/>
    </g>
    <g id="line2d_22"/>
    <g id="text_18">
     <!-- ROC curve - 2 (AUC = 0.867) -->
     <defs>
      <path d="M 8.203125 72.90625 
L 55.078125 72.90625 
L 55.078125 68.703125 
L 28.609375 0 
L 18.3125 0 
L 43.21875 64.59375 
L 8.203125 64.59375 
z
" id="DejaVuSans-37"/>
     </defs>
     <g transform="translate(247.087188 290.787812)scale(0.1 -0.1)">
      <use xlink:href="#DejaVuSans-52"/>
      <use x="69.482422" xlink:href="#DejaVuSans-4f"/>
      <use x="148.193359" xlink:href="#DejaVuSans-43"/>
      <use x="218.017578" xlink:href="#DejaVuSans-20"/>
      <use x="249.804688" xlink:href="#DejaVuSans-63"/>
      <use x="304.785156" xlink:href="#DejaVuSans-75"/>
      <use x="368.164062" xlink:href="#DejaVuSans-72"/>
      <use x="409.277344" xlink:href="#DejaVuSans-76"/>
      <use x="468.457031" xlink:href="#DejaVuSans-65"/>
      <use x="529.980469" xlink:href="#DejaVuSans-20"/>
      <use x="561.767578" xlink:href="#DejaVuSans-2d"/>
      <use x="597.851562" xlink:href="#DejaVuSans-20"/>
      <use x="629.638672" xlink:href="#DejaVuSans-32"/>
      <use x="693.261719" xlink:href="#DejaVuSans-20"/>
      <use x="725.048828" xlink:href="#DejaVuSans-28"/>
      <use x="764.0625" xlink:href="#DejaVuSans-41"/>
      <use x="832.470703" xlink:href="#DejaVuSans-55"/>
      <use x="905.664062" xlink:href="#DejaVuSans-43"/>
      <use x="975.488281" xlink:href="#DejaVuSans-20"/>
      <use x="1007.275391" xlink:href="#DejaVuSans-3d"/>
      <use x="1091.064453" xlink:href="#DejaVuSans-20"/>
      <use x="1122.851562" xlink:href="#DejaVuSans-30"/>
      <use x="1186.474609" xlink:href="#DejaVuSans-2e"/>
      <use x="1218.261719" xlink:href="#DejaVuSans-38"/>
      <use x="1281.884766" xlink:href="#DejaVuSans-36"/>
      <use x="1345.507812" xlink:href="#DejaVuSans-37"/>
      <use x="1409.130859" xlink:href="#DejaVuSans-29"/>
     </g>
    </g>
   </g>
  </g>
 </g>
 <defs>
  <clipPath id="p66e916a8a9">
   <rect height="266.112" width="357.12" x="43.78125" y="35.7555"/>
  </clipPath>
 </defs>
</svg>
