<?xml version="1.0" encoding="utf-8" standalone="no"?>
<!DOCTYPE svg PUBLIC "-//W3C//DTD SVG 1.1//EN"
  "http://www.w3.org/Graphics/SVG/1.1/DTD/svg11.dtd">
<!-- Created with matplotlib (http://matplotlib.org/) -->
<svg height="424pt" version="1.1" viewBox="0 0 510 424" width="510pt" xmlns="http://www.w3.org/2000/svg" xmlns:xlink="http://www.w3.org/1999/xlink">
 <defs>
  <style type="text/css">
*{stroke-linecap:butt;stroke-linejoin:round;stroke-miterlimit:100000;}
  </style>
 </defs>
 <g id="figure_1">
  <g id="patch_1">
   <path d="M 0 424.2941 
L 510.039375 424.2941 
L 510.039375 0 
L 0 0 
z
" style="fill:#ffffff;"/>
  </g>
  <g id="axes_1">
   <g id="patch_2">
    <path d="M 46.8975 384.8666 
L 493.2975 384.8666 
L 493.2975 39.2666 
L 46.8975 39.2666 
z
" style="fill:#ffffff;"/>
   </g>
   <g id="line2d_1">
    <path clip-path="url(#pe0a129b071)" d="M 46.8975 384.8666 
L 50.285735 384.8666 
L 50.285735 377.152314 
L 50.850441 377.152314 
L 50.850441 354.009457 
L 53.109265 354.009457 
L 53.109265 351.438029 
L 53.673971 351.438029 
L 53.899853 348.8666 
L 54.746912 348.8666 
L 54.972794 346.295171 
L 55.819853 346.295171 
L 56.045735 343.723743 
L 56.328088 343.723743 
L 56.553971 341.152314 
L 56.836324 341.152314 
L 57.062206 338.580886 
L 57.344559 338.580886 
L 57.570441 336.009457 
L 58.699853 336.009457 
L 59.151618 330.8666 
L 59.716324 330.8666 
L 59.885735 325.723743 
L 60.732794 325.723743 
L 60.902206 320.580886 
L 67.113971 320.580886 
L 67.283382 315.438029 
L 69.259853 315.438029 
L 69.485735 312.8666 
L 70.050441 312.8666 
L 70.502206 307.723743 
L 73.608088 307.723743 
L 73.833971 305.152314 
L 75.245735 305.152314 
L 75.245735 302.580886 
L 75.415147 297.438029 
L 75.641029 294.8666 
L 75.923382 294.8666 
L 76.826912 284.580886 
L 76.826912 282.009457 
L 77.109265 282.009457 
L 77.561029 276.8666 
L 78.125735 276.8666 
L 78.351618 274.295171 
L 78.521029 269.152314 
L 79.029265 266.580886 
L 80.723382 266.580886 
L 81.175147 261.438029 
L 83.151618 261.438029 
L 83.3775 258.8666 
L 86.483382 258.8666 
L 86.935147 253.723743 
L 87.2175 253.723743 
L 87.725735 251.152314 
L 90.549265 251.152314 
L 90.718676 246.009457 
L 91.001029 246.009457 
L 91.001029 243.438029 
L 92.130441 243.438029 
L 92.582206 238.295171 
L 94.276324 238.295171 
L 94.276324 235.723743 
L 94.558676 235.723743 
L 94.558676 230.580886 
L 94.728088 225.438029 
L 95.575147 225.438029 
L 95.575147 220.295171 
L 97.551618 220.295171 
L 98.003382 215.152314 
L 98.003382 210.009457 
L 112.121029 210.009457 
L 112.121029 202.295171 
L 114.662206 202.295171 
L 114.888088 199.723743 
L 123.358676 199.723743 
L 123.866912 197.152314 
L 131.772794 197.152314 
L 131.998676 194.580886 
L 137.363382 194.580886 
L 137.532794 189.438029 
L 140.356324 189.438029 
L 140.582206 186.8666 
L 148.488088 186.8666 
L 148.488088 181.723743 
L 150.182206 181.723743 
L 150.351618 176.580886 
L 150.916324 176.580886 
L 150.916324 174.009457 
L 172.939853 174.009457 
L 172.939853 171.438029 
L 174.351618 171.438029 
L 174.521029 166.295171 
L 192.309265 166.295171 
L 192.309265 161.152314 
L 193.438676 161.152314 
L 193.438676 156.009457 
L 196.262206 156.009457 
L 196.488088 153.438029 
L 197.052794 153.438029 
L 197.278676 150.8666 
L 214.784559 150.8666 
L 214.784559 148.295171 
L 233.419853 148.295171 
L 233.815147 140.580886 
L 251.321029 140.580886 
L 251.546912 138.009457 
L 261.711618 138.009457 
L 261.881029 132.8666 
L 262.163382 132.8666 
L 262.163382 120.009457 
L 272.328088 120.009457 
L 272.553971 117.438029 
L 287.801029 117.438029 
L 288.309265 114.8666 
L 296.779853 114.8666 
L 297.005735 112.295171 
L 306.041029 112.295171 
L 306.041029 99.438029 
L 308.921029 99.438029 
L 308.921029 94.295171 
L 330.775147 94.295171 
L 330.775147 91.723743 
L 343.198676 91.723743 
L 343.198676 76.295171 
L 343.424559 73.723743 
L 347.095147 73.723743 
L 347.095147 71.152314 
L 362.342206 71.152314 
L 362.511618 66.009457 
L 372.958676 66.009457 
L 373.184559 63.438029 
L 378.266912 63.438029 
L 378.775147 60.8666 
L 402.775147 60.8666 
L 403.001029 58.295171 
L 449.871618 58.295171 
L 450.0975 55.723743 
L 493.2975 55.723743 
L 493.2975 55.723743 
" style="fill:none;stroke:#0000ff;stroke-linecap:square;"/>
   </g>
   <g id="line2d_2">
    <path clip-path="url(#pe0a129b071)" d="M 46.8975 384.8666 
L 53.222206 384.8666 
L 53.673971 379.723743 
L 54.125735 377.152314 
L 54.690441 377.152314 
L 55.142206 372.009457 
L 55.593971 369.438029 
L 56.384559 369.438029 
L 57.513971 361.723743 
L 57.796324 361.723743 
L 58.022206 359.152314 
L 59.095147 359.152314 
L 64.516324 310.295171 
L 64.742206 305.152314 
L 65.984559 297.438029 
L 66.831618 297.438029 
L 67.735147 287.152314 
L 67.904559 287.152314 
L 68.356324 279.438029 
L 68.525735 274.295171 
L 68.9775 271.723743 
L 69.259853 271.723743 
L 74.059853 238.295171 
L 74.624559 238.295171 
L 74.624559 235.723743 
L 76.318676 235.723743 
L 76.544559 233.152314 
L 79.932794 233.152314 
L 80.158676 230.580886 
L 80.441029 230.580886 
L 80.610441 225.438029 
L 82.869265 225.438029 
L 83.321029 220.295171 
L 86.652794 220.295171 
L 86.652794 217.723743 
L 95.8575 217.723743 
L 96.083382 215.152314 
L 102.5775 215.152314 
L 103.593971 212.580886 
L 109.523382 212.580886 
L 110.201029 204.8666 
L 110.991618 204.8666 
L 110.991618 202.295171 
L 113.758676 202.295171 
L 113.928088 197.152314 
L 114.775147 197.152314 
L 115.283382 192.009457 
L 116.695147 192.009457 
L 116.695147 189.438029 
L 119.744559 189.438029 
L 119.970441 186.8666 
L 121.099853 186.8666 
L 121.325735 184.295171 
L 136.290441 184.295171 
L 136.516324 181.723743 
L 137.645735 181.723743 
L 137.645735 179.152314 
L 138.492794 179.152314 
L 138.718676 176.580886 
L 149.730441 176.580886 
L 149.956324 174.009457 
L 151.932794 174.009457 
L 151.932794 171.438029 
L 157.523382 171.438029 
L 158.031618 168.8666 
L 163.396324 168.8666 
L 163.396324 166.295171 
L 166.219853 166.295171 
L 167.292794 163.723743 
L 173.786912 163.723743 
L 174.238676 158.580886 
L 175.650441 158.580886 
L 175.650441 150.8666 
L 177.062206 150.8666 
L 177.062206 148.295171 
L 204.732794 148.295171 
L 204.732794 143.152314 
L 225.062206 143.152314 
L 225.288088 140.580886 
L 228.676324 140.580886 
L 229.128088 135.438029 
L 229.410441 135.438029 
L 229.579853 130.295171 
L 230.709265 130.295171 
L 231.161029 125.152314 
L 237.542206 125.152314 
L 238.050441 122.580886 
L 238.050441 120.009457 
L 240.873971 120.009457 
L 241.099853 117.438029 
L 246.972794 117.438029 
L 247.142206 112.295171 
L 249.965735 112.295171 
L 250.4175 107.152314 
L 260.864559 107.152314 
L 261.033971 102.009457 
L 287.575147 102.009457 
L 287.575147 99.438029 
L 301.692794 99.438029 
L 302.144559 94.295171 
L 309.824559 94.295171 
L 310.050441 91.723743 
L 320.779853 91.723743 
L 320.949265 86.580886 
L 327.443382 86.580886 
L 327.443382 81.438029 
L 330.266912 81.438029 
L 330.492794 78.8666 
L 334.445735 78.8666 
L 334.953971 76.295171 
L 337.212794 76.295171 
L 337.438676 73.723743 
L 353.250441 73.723743 
L 353.250441 68.580886 
L 369.062206 68.580886 
L 369.288088 66.009457 
L 381.711618 66.009457 
L 382.163382 60.8666 
L 416.610441 60.8666 
L 417.062206 55.723743 
L 493.2975 55.723743 
L 493.2975 55.723743 
" style="fill:none;stroke:#008000;stroke-linecap:square;"/>
   </g>
   <g id="line2d_3">
    <path clip-path="url(#pe0a129b071)" d="M 46.8975 384.8666 
L 47.349322 379.683248 
L 49.608431 379.683248 
L 49.89082 377.091572 
L 50.342642 371.90822 
L 50.62503 371.90822 
L 50.794464 366.724868 
L 51.020374 364.133192 
L 51.924018 364.133192 
L 52.149929 361.541516 
L 52.997095 361.541516 
L 53.223006 358.94984 
L 53.731306 358.94984 
L 54.409038 351.174811 
L 55.538593 351.174811 
L 55.764504 348.583135 
L 56.329281 348.583135 
L 56.837581 345.991459 
L 57.402358 345.991459 
L 59.887379 330.441403 
L 60.734545 330.441403 
L 61.073411 320.074699 
L 61.299322 317.483023 
L 61.581711 317.483023 
L 61.807621 314.891347 
L 65.365719 314.891347 
L 65.59163 312.299671 
L 66.664706 312.299671 
L 66.890617 309.707995 
L 68.980294 309.707995 
L 69.658026 301.932967 
L 70.674626 301.932967 
L 70.844059 296.749615 
L 71.126447 296.749615 
L 71.352358 294.157939 
L 71.578269 294.157939 
L 72.086569 291.566263 
L 72.31248 288.974587 
L 74.006812 288.974587 
L 74.458634 283.791234 
L 75.588188 283.791234 
L 75.757621 278.607882 
L 76.209443 273.42453 
L 77.056609 273.42453 
L 77.28252 270.832854 
L 79.202763 270.832854 
L 79.428674 268.241178 
L 80.840617 268.241178 
L 81.292439 263.057826 
L 84.229281 263.057826 
L 84.681103 257.874474 
L 86.601346 257.874474 
L 86.827257 255.282798 
L 87.956812 255.282798 
L 88.182723 252.691122 
L 88.465111 252.691122 
L 88.691022 250.099446 
L 88.860455 244.916094 
L 93.039808 244.916094 
L 93.209241 239.732742 
L 94.056407 239.732742 
L 94.508229 234.54939 
L 97.332115 234.54939 
L 97.783937 229.366038 
L 97.95337 224.182685 
L 101.285557 224.182685 
L 101.45499 218.999333 
L 103.036366 218.999333 
L 103.544666 216.407657 
L 104.674221 216.407657 
L 104.900132 213.815981 
L 105.18252 213.815981 
L 105.408431 211.224305 
L 106.255597 211.224305 
L 106.42503 206.040953 
L 109.248917 206.040953 
L 109.474828 203.449277 
L 111.733937 203.449277 
L 112.242237 200.857601 
L 113.597702 200.857601 
L 113.823613 198.265925 
L 120.036164 198.265925 
L 120.262075 195.674249 
L 121.109241 195.674249 
L 121.335152 193.082573 
L 123.594261 193.082573 
L 123.763694 187.899221 
L 128.281913 187.899221 
L 128.507824 185.307545 
L 129.637379 185.307545 
L 130.0892 180.124193 
L 130.653978 180.124193 
L 130.879889 177.532517 
L 133.421387 177.532517 
L 133.647298 174.940841 
L 135.34163 174.940841 
L 135.56754 172.349165 
L 140.368148 172.349165 
L 140.594059 169.757489 
L 142.570779 169.757489 
L 143.248512 161.982461 
L 145.225233 161.982461 
L 145.394666 156.799108 
L 153.301549 156.799108 
L 153.809848 154.207432 
L 157.480901 154.207432 
L 157.706812 151.615756 
L 165.331306 151.615756 
L 165.500739 146.432404 
L 168.889403 146.432404 
L 169.115314 143.840728 
L 170.809646 143.840728 
L 171.035557 141.249052 
L 173.859443 141.249052 
L 174.367743 138.657376 
L 177.19163 138.657376 
L 177.699929 136.0657 
L 181.65337 136.0657 
L 181.879281 133.474024 
L 182.444059 133.474024 
L 182.613492 128.290672 
L 185.15499 128.290672 
L 185.550334 120.515644 
L 189.503775 120.515644 
L 189.729686 117.923968 
L 192.553573 117.923968 
L 192.779484 115.332292 
L 194.756204 115.332292 
L 194.982115 112.740616 
L 197.806002 112.740616 
L 198.031913 110.14894 
L 201.702966 110.14894 
L 202.154787 104.965588 
L 208.084949 104.965588 
L 208.254383 99.782236 
L 216.161265 99.782236 
L 216.330698 94.598883 
L 232.426852 94.598883 
L 232.652763 92.007207 
L 236.041427 92.007207 
L 236.267338 89.415531 
L 241.067945 89.415531 
L 241.293856 86.823855 
L 272.074221 86.823855 
L 272.300132 84.232179 
L 277.947905 84.232179 
L 278.173816 81.640503 
L 284.103978 81.640503 
L 284.273411 76.457151 
L 286.250132 76.457151 
L 286.476043 73.865475 
L 294.382925 73.865475 
L 294.608836 71.273799 
L 300.821387 71.273799 
L 301.047298 68.682123 
L 317.143451 68.682123 
L 317.369362 66.090447 
L 344.196285 66.090447 
L 344.422196 63.498771 
L 370.345476 63.498771 
L 370.571387 60.907095 
L 431.849727 60.907095 
L 432.075638 58.315419 
L 474.716326 58.315419 
L 474.942237 55.723743 
L 493.2975 55.723743 
L 493.2975 55.723743 
" style="fill:none;stroke:#ff0000;stroke-linecap:square;"/>
   </g>
   <g id="line2d_4">
    <path clip-path="url(#pe0a129b071)" d="M 46.8975 384.8666 
L 493.2975 55.723743 
" style="fill:none;stroke:#000000;stroke-dasharray:6.000000,6.000000;stroke-dashoffset:0.0;"/>
   </g>
   <g id="patch_3">
    <path d="M 46.8975 384.8666 
L 46.8975 39.2666 
" style="fill:none;stroke:#000000;stroke-linecap:square;stroke-linejoin:miter;"/>
   </g>
   <g id="patch_4">
    <path d="M 493.2975 384.8666 
L 493.2975 39.2666 
" style="fill:none;stroke:#000000;stroke-linecap:square;stroke-linejoin:miter;"/>
   </g>
   <g id="patch_5">
    <path d="M 46.8975 39.2666 
L 493.2975 39.2666 
" style="fill:none;stroke:#000000;stroke-linecap:square;stroke-linejoin:miter;"/>
   </g>
   <g id="patch_6">
    <path d="M 46.8975 384.8666 
L 493.2975 384.8666 
" style="fill:none;stroke:#000000;stroke-linecap:square;stroke-linejoin:miter;"/>
   </g>
   <g id="matplotlib.axis_1">
    <g id="xtick_1">
     <g id="line2d_5">
      <defs>
       <path d="M 0 0 
L 0 -4 
" id="m5ce0142314" style="stroke:#000000;stroke-width:0.5;"/>
      </defs>
      <g>
       <use style="stroke:#000000;stroke-width:0.5;" x="46.8975" xlink:href="#m5ce0142314" y="384.8666"/>
      </g>
     </g>
     <g id="line2d_6">
      <defs>
       <path d="M 0 0 
L 0 4 
" id="m79e156b258" style="stroke:#000000;stroke-width:0.5;"/>
      </defs>
      <g>
       <use style="stroke:#000000;stroke-width:0.5;" x="46.8975" xlink:href="#m79e156b258" y="39.2666"/>
      </g>
     </g>
     <g id="text_1">
      <!-- 0.0 -->
      <defs>
       <path d="M 31.78125 66.40625 
Q 24.171875 66.40625 20.328125 58.90625 
Q 16.5 51.421875 16.5 36.375 
Q 16.5 21.390625 20.328125 13.890625 
Q 24.171875 6.390625 31.78125 6.390625 
Q 39.453125 6.390625 43.28125 13.890625 
Q 47.125 21.390625 47.125 36.375 
Q 47.125 51.421875 43.28125 58.90625 
Q 39.453125 66.40625 31.78125 66.40625 
M 31.78125 74.21875 
Q 44.046875 74.21875 50.515625 64.515625 
Q 56.984375 54.828125 56.984375 36.375 
Q 56.984375 17.96875 50.515625 8.265625 
Q 44.046875 -1.421875 31.78125 -1.421875 
Q 19.53125 -1.421875 13.0625 8.265625 
Q 6.59375 17.96875 6.59375 36.375 
Q 6.59375 54.828125 13.0625 64.515625 
Q 19.53125 74.21875 31.78125 74.21875 
" id="BitstreamVeraSans-Roman-30"/>
       <path d="M 10.6875 12.40625 
L 21 12.40625 
L 21 0 
L 10.6875 0 
z
" id="BitstreamVeraSans-Roman-2e"/>
      </defs>
      <g transform="translate(37.355625 397.984725)scale(0.12 -0.12)">
       <use xlink:href="#BitstreamVeraSans-Roman-30"/>
       <use x="63.623046875" xlink:href="#BitstreamVeraSans-Roman-2e"/>
       <use x="95.41015625" xlink:href="#BitstreamVeraSans-Roman-30"/>
      </g>
     </g>
    </g>
    <g id="xtick_2">
     <g id="line2d_7">
      <g>
       <use style="stroke:#000000;stroke-width:0.5;" x="136.1775" xlink:href="#m5ce0142314" y="384.8666"/>
      </g>
     </g>
     <g id="line2d_8">
      <g>
       <use style="stroke:#000000;stroke-width:0.5;" x="136.1775" xlink:href="#m79e156b258" y="39.2666"/>
      </g>
     </g>
     <g id="text_2">
      <!-- 0.2 -->
      <defs>
       <path d="M 19.1875 8.296875 
L 53.609375 8.296875 
L 53.609375 0 
L 7.328125 0 
L 7.328125 8.296875 
Q 12.9375 14.109375 22.625 23.890625 
Q 32.328125 33.6875 34.8125 36.53125 
Q 39.546875 41.84375 41.421875 45.53125 
Q 43.3125 49.21875 43.3125 52.78125 
Q 43.3125 58.59375 39.234375 62.25 
Q 35.15625 65.921875 28.609375 65.921875 
Q 23.96875 65.921875 18.8125 64.3125 
Q 13.671875 62.703125 7.8125 59.421875 
L 7.8125 69.390625 
Q 13.765625 71.78125 18.9375 73 
Q 24.125 74.21875 28.421875 74.21875 
Q 39.75 74.21875 46.484375 68.546875 
Q 53.21875 62.890625 53.21875 53.421875 
Q 53.21875 48.921875 51.53125 44.890625 
Q 49.859375 40.875 45.40625 35.40625 
Q 44.1875 33.984375 37.640625 27.21875 
Q 31.109375 20.453125 19.1875 8.296875 
" id="BitstreamVeraSans-Roman-32"/>
      </defs>
      <g transform="translate(126.635625 397.984725)scale(0.12 -0.12)">
       <use xlink:href="#BitstreamVeraSans-Roman-30"/>
       <use x="63.623046875" xlink:href="#BitstreamVeraSans-Roman-2e"/>
       <use x="95.41015625" xlink:href="#BitstreamVeraSans-Roman-32"/>
      </g>
     </g>
    </g>
    <g id="xtick_3">
     <g id="line2d_9">
      <g>
       <use style="stroke:#000000;stroke-width:0.5;" x="225.4575" xlink:href="#m5ce0142314" y="384.8666"/>
      </g>
     </g>
     <g id="line2d_10">
      <g>
       <use style="stroke:#000000;stroke-width:0.5;" x="225.4575" xlink:href="#m79e156b258" y="39.2666"/>
      </g>
     </g>
     <g id="text_3">
      <!-- 0.4 -->
      <defs>
       <path d="M 37.796875 64.3125 
L 12.890625 25.390625 
L 37.796875 25.390625 
z
M 35.203125 72.90625 
L 47.609375 72.90625 
L 47.609375 25.390625 
L 58.015625 25.390625 
L 58.015625 17.1875 
L 47.609375 17.1875 
L 47.609375 0 
L 37.796875 0 
L 37.796875 17.1875 
L 4.890625 17.1875 
L 4.890625 26.703125 
z
" id="BitstreamVeraSans-Roman-34"/>
      </defs>
      <g transform="translate(215.915625 397.984725)scale(0.12 -0.12)">
       <use xlink:href="#BitstreamVeraSans-Roman-30"/>
       <use x="63.623046875" xlink:href="#BitstreamVeraSans-Roman-2e"/>
       <use x="95.41015625" xlink:href="#BitstreamVeraSans-Roman-34"/>
      </g>
     </g>
    </g>
    <g id="xtick_4">
     <g id="line2d_11">
      <g>
       <use style="stroke:#000000;stroke-width:0.5;" x="314.7375" xlink:href="#m5ce0142314" y="384.8666"/>
      </g>
     </g>
     <g id="line2d_12">
      <g>
       <use style="stroke:#000000;stroke-width:0.5;" x="314.7375" xlink:href="#m79e156b258" y="39.2666"/>
      </g>
     </g>
     <g id="text_4">
      <!-- 0.6 -->
      <defs>
       <path d="M 33.015625 40.375 
Q 26.375 40.375 22.484375 35.828125 
Q 18.609375 31.296875 18.609375 23.390625 
Q 18.609375 15.53125 22.484375 10.953125 
Q 26.375 6.390625 33.015625 6.390625 
Q 39.65625 6.390625 43.53125 10.953125 
Q 47.40625 15.53125 47.40625 23.390625 
Q 47.40625 31.296875 43.53125 35.828125 
Q 39.65625 40.375 33.015625 40.375 
M 52.59375 71.296875 
L 52.59375 62.3125 
Q 48.875 64.0625 45.09375 64.984375 
Q 41.3125 65.921875 37.59375 65.921875 
Q 27.828125 65.921875 22.671875 59.328125 
Q 17.53125 52.734375 16.796875 39.40625 
Q 19.671875 43.65625 24.015625 45.921875 
Q 28.375 48.1875 33.59375 48.1875 
Q 44.578125 48.1875 50.953125 41.515625 
Q 57.328125 34.859375 57.328125 23.390625 
Q 57.328125 12.15625 50.6875 5.359375 
Q 44.046875 -1.421875 33.015625 -1.421875 
Q 20.359375 -1.421875 13.671875 8.265625 
Q 6.984375 17.96875 6.984375 36.375 
Q 6.984375 53.65625 15.1875 63.9375 
Q 23.390625 74.21875 37.203125 74.21875 
Q 40.921875 74.21875 44.703125 73.484375 
Q 48.484375 72.75 52.59375 71.296875 
" id="BitstreamVeraSans-Roman-36"/>
      </defs>
      <g transform="translate(305.195625 397.984725)scale(0.12 -0.12)">
       <use xlink:href="#BitstreamVeraSans-Roman-30"/>
       <use x="63.623046875" xlink:href="#BitstreamVeraSans-Roman-2e"/>
       <use x="95.41015625" xlink:href="#BitstreamVeraSans-Roman-36"/>
      </g>
     </g>
    </g>
    <g id="xtick_5">
     <g id="line2d_13">
      <g>
       <use style="stroke:#000000;stroke-width:0.5;" x="404.0175" xlink:href="#m5ce0142314" y="384.8666"/>
      </g>
     </g>
     <g id="line2d_14">
      <g>
       <use style="stroke:#000000;stroke-width:0.5;" x="404.0175" xlink:href="#m79e156b258" y="39.2666"/>
      </g>
     </g>
     <g id="text_5">
      <!-- 0.8 -->
      <defs>
       <path d="M 31.78125 34.625 
Q 24.75 34.625 20.71875 30.859375 
Q 16.703125 27.09375 16.703125 20.515625 
Q 16.703125 13.921875 20.71875 10.15625 
Q 24.75 6.390625 31.78125 6.390625 
Q 38.8125 6.390625 42.859375 10.171875 
Q 46.921875 13.96875 46.921875 20.515625 
Q 46.921875 27.09375 42.890625 30.859375 
Q 38.875 34.625 31.78125 34.625 
M 21.921875 38.8125 
Q 15.578125 40.375 12.03125 44.71875 
Q 8.5 49.078125 8.5 55.328125 
Q 8.5 64.0625 14.71875 69.140625 
Q 20.953125 74.21875 31.78125 74.21875 
Q 42.671875 74.21875 48.875 69.140625 
Q 55.078125 64.0625 55.078125 55.328125 
Q 55.078125 49.078125 51.53125 44.71875 
Q 48 40.375 41.703125 38.8125 
Q 48.828125 37.15625 52.796875 32.3125 
Q 56.78125 27.484375 56.78125 20.515625 
Q 56.78125 9.90625 50.3125 4.234375 
Q 43.84375 -1.421875 31.78125 -1.421875 
Q 19.734375 -1.421875 13.25 4.234375 
Q 6.78125 9.90625 6.78125 20.515625 
Q 6.78125 27.484375 10.78125 32.3125 
Q 14.796875 37.15625 21.921875 38.8125 
M 18.3125 54.390625 
Q 18.3125 48.734375 21.84375 45.5625 
Q 25.390625 42.390625 31.78125 42.390625 
Q 38.140625 42.390625 41.71875 45.5625 
Q 45.3125 48.734375 45.3125 54.390625 
Q 45.3125 60.0625 41.71875 63.234375 
Q 38.140625 66.40625 31.78125 66.40625 
Q 25.390625 66.40625 21.84375 63.234375 
Q 18.3125 60.0625 18.3125 54.390625 
" id="BitstreamVeraSans-Roman-38"/>
      </defs>
      <g transform="translate(394.475625 397.984725)scale(0.12 -0.12)">
       <use xlink:href="#BitstreamVeraSans-Roman-30"/>
       <use x="63.623046875" xlink:href="#BitstreamVeraSans-Roman-2e"/>
       <use x="95.41015625" xlink:href="#BitstreamVeraSans-Roman-38"/>
      </g>
     </g>
    </g>
    <g id="xtick_6">
     <g id="line2d_15">
      <g>
       <use style="stroke:#000000;stroke-width:0.5;" x="493.2975" xlink:href="#m5ce0142314" y="384.8666"/>
      </g>
     </g>
     <g id="line2d_16">
      <g>
       <use style="stroke:#000000;stroke-width:0.5;" x="493.2975" xlink:href="#m79e156b258" y="39.2666"/>
      </g>
     </g>
     <g id="text_6">
      <!-- 1.0 -->
      <defs>
       <path d="M 12.40625 8.296875 
L 28.515625 8.296875 
L 28.515625 63.921875 
L 10.984375 60.40625 
L 10.984375 69.390625 
L 28.421875 72.90625 
L 38.28125 72.90625 
L 38.28125 8.296875 
L 54.390625 8.296875 
L 54.390625 0 
L 12.40625 0 
z
" id="BitstreamVeraSans-Roman-31"/>
      </defs>
      <g transform="translate(483.755625 397.984725)scale(0.12 -0.12)">
       <use xlink:href="#BitstreamVeraSans-Roman-31"/>
       <use x="63.623046875" xlink:href="#BitstreamVeraSans-Roman-2e"/>
       <use x="95.41015625" xlink:href="#BitstreamVeraSans-Roman-30"/>
      </g>
     </g>
    </g>
    <g id="text_7">
     <!-- False Positive Rate -->
     <defs>
      <path d="M 18.3125 70.21875 
L 18.3125 54.6875 
L 36.8125 54.6875 
L 36.8125 47.703125 
L 18.3125 47.703125 
L 18.3125 18.015625 
Q 18.3125 11.328125 20.140625 9.421875 
Q 21.96875 7.515625 27.59375 7.515625 
L 36.8125 7.515625 
L 36.8125 0 
L 27.59375 0 
Q 17.1875 0 13.234375 3.875 
Q 9.28125 7.765625 9.28125 18.015625 
L 9.28125 47.703125 
L 2.6875 47.703125 
L 2.6875 54.6875 
L 9.28125 54.6875 
L 9.28125 70.21875 
z
" id="BitstreamVeraSans-Roman-74"/>
      <path d="M 44.390625 34.1875 
Q 47.5625 33.109375 50.5625 29.59375 
Q 53.5625 26.078125 56.59375 19.921875 
L 66.609375 0 
L 56 0 
L 46.6875 18.703125 
Q 43.0625 26.03125 39.671875 28.421875 
Q 36.28125 30.8125 30.421875 30.8125 
L 19.671875 30.8125 
L 19.671875 0 
L 9.8125 0 
L 9.8125 72.90625 
L 32.078125 72.90625 
Q 44.578125 72.90625 50.734375 67.671875 
Q 56.890625 62.453125 56.890625 51.90625 
Q 56.890625 45.015625 53.6875 40.46875 
Q 50.484375 35.9375 44.390625 34.1875 
M 19.671875 64.796875 
L 19.671875 38.921875 
L 32.078125 38.921875 
Q 39.203125 38.921875 42.84375 42.21875 
Q 46.484375 45.515625 46.484375 51.90625 
Q 46.484375 58.296875 42.84375 61.546875 
Q 39.203125 64.796875 32.078125 64.796875 
z
" id="BitstreamVeraSans-Roman-52"/>
      <path d="M 2.984375 54.6875 
L 12.5 54.6875 
L 29.59375 8.796875 
L 46.6875 54.6875 
L 56.203125 54.6875 
L 35.6875 0 
L 23.484375 0 
z
" id="BitstreamVeraSans-Roman-76"/>
      <path d="M 9.8125 72.90625 
L 51.703125 72.90625 
L 51.703125 64.59375 
L 19.671875 64.59375 
L 19.671875 43.109375 
L 48.578125 43.109375 
L 48.578125 34.8125 
L 19.671875 34.8125 
L 19.671875 0 
L 9.8125 0 
z
" id="BitstreamVeraSans-Roman-46"/>
      <path d="M 19.671875 64.796875 
L 19.671875 37.40625 
L 32.078125 37.40625 
Q 38.96875 37.40625 42.71875 40.96875 
Q 46.484375 44.53125 46.484375 51.125 
Q 46.484375 57.671875 42.71875 61.234375 
Q 38.96875 64.796875 32.078125 64.796875 
z
M 9.8125 72.90625 
L 32.078125 72.90625 
Q 44.34375 72.90625 50.609375 67.359375 
Q 56.890625 61.8125 56.890625 51.125 
Q 56.890625 40.328125 50.609375 34.8125 
Q 44.34375 29.296875 32.078125 29.296875 
L 19.671875 29.296875 
L 19.671875 0 
L 9.8125 0 
z
" id="BitstreamVeraSans-Roman-50"/>
      <path d="M 30.609375 48.390625 
Q 23.390625 48.390625 19.1875 42.75 
Q 14.984375 37.109375 14.984375 27.296875 
Q 14.984375 17.484375 19.15625 11.84375 
Q 23.34375 6.203125 30.609375 6.203125 
Q 37.796875 6.203125 41.984375 11.859375 
Q 46.1875 17.53125 46.1875 27.296875 
Q 46.1875 37.015625 41.984375 42.703125 
Q 37.796875 48.390625 30.609375 48.390625 
M 30.609375 56 
Q 42.328125 56 49.015625 48.375 
Q 55.71875 40.765625 55.71875 27.296875 
Q 55.71875 13.875 49.015625 6.21875 
Q 42.328125 -1.421875 30.609375 -1.421875 
Q 18.84375 -1.421875 12.171875 6.21875 
Q 5.515625 13.875 5.515625 27.296875 
Q 5.515625 40.765625 12.171875 48.375 
Q 18.84375 56 30.609375 56 
" id="BitstreamVeraSans-Roman-6f"/>
      <path d="M 44.28125 53.078125 
L 44.28125 44.578125 
Q 40.484375 46.53125 36.375 47.5 
Q 32.28125 48.484375 27.875 48.484375 
Q 21.1875 48.484375 17.84375 46.4375 
Q 14.5 44.390625 14.5 40.28125 
Q 14.5 37.15625 16.890625 35.375 
Q 19.28125 33.59375 26.515625 31.984375 
L 29.59375 31.296875 
Q 39.15625 29.25 43.1875 25.515625 
Q 47.21875 21.78125 47.21875 15.09375 
Q 47.21875 7.46875 41.1875 3.015625 
Q 35.15625 -1.421875 24.609375 -1.421875 
Q 20.21875 -1.421875 15.453125 -0.5625 
Q 10.6875 0.296875 5.421875 2 
L 5.421875 11.28125 
Q 10.40625 8.6875 15.234375 7.390625 
Q 20.0625 6.109375 24.8125 6.109375 
Q 31.15625 6.109375 34.5625 8.28125 
Q 37.984375 10.453125 37.984375 14.40625 
Q 37.984375 18.0625 35.515625 20.015625 
Q 33.0625 21.96875 24.703125 23.78125 
L 21.578125 24.515625 
Q 13.234375 26.265625 9.515625 29.90625 
Q 5.8125 33.546875 5.8125 39.890625 
Q 5.8125 47.609375 11.28125 51.796875 
Q 16.75 56 26.8125 56 
Q 31.78125 56 36.171875 55.265625 
Q 40.578125 54.546875 44.28125 53.078125 
" id="BitstreamVeraSans-Roman-73"/>
      <path id="BitstreamVeraSans-Roman-20"/>
      <path d="M 56.203125 29.59375 
L 56.203125 25.203125 
L 14.890625 25.203125 
Q 15.484375 15.921875 20.484375 11.0625 
Q 25.484375 6.203125 34.421875 6.203125 
Q 39.59375 6.203125 44.453125 7.46875 
Q 49.3125 8.734375 54.109375 11.28125 
L 54.109375 2.78125 
Q 49.265625 0.734375 44.1875 -0.34375 
Q 39.109375 -1.421875 33.890625 -1.421875 
Q 20.796875 -1.421875 13.15625 6.1875 
Q 5.515625 13.8125 5.515625 26.8125 
Q 5.515625 40.234375 12.765625 48.109375 
Q 20.015625 56 32.328125 56 
Q 43.359375 56 49.78125 48.890625 
Q 56.203125 41.796875 56.203125 29.59375 
M 47.21875 32.234375 
Q 47.125 39.59375 43.09375 43.984375 
Q 39.0625 48.390625 32.421875 48.390625 
Q 24.90625 48.390625 20.390625 44.140625 
Q 15.875 39.890625 15.1875 32.171875 
z
" id="BitstreamVeraSans-Roman-65"/>
      <path d="M 9.421875 54.6875 
L 18.40625 54.6875 
L 18.40625 0 
L 9.421875 0 
z
M 9.421875 75.984375 
L 18.40625 75.984375 
L 18.40625 64.59375 
L 9.421875 64.59375 
z
" id="BitstreamVeraSans-Roman-69"/>
      <path d="M 34.28125 27.484375 
Q 23.390625 27.484375 19.1875 25 
Q 14.984375 22.515625 14.984375 16.5 
Q 14.984375 11.71875 18.140625 8.90625 
Q 21.296875 6.109375 26.703125 6.109375 
Q 34.1875 6.109375 38.703125 11.40625 
Q 43.21875 16.703125 43.21875 25.484375 
L 43.21875 27.484375 
z
M 52.203125 31.203125 
L 52.203125 0 
L 43.21875 0 
L 43.21875 8.296875 
Q 40.140625 3.328125 35.546875 0.953125 
Q 30.953125 -1.421875 24.3125 -1.421875 
Q 15.921875 -1.421875 10.953125 3.296875 
Q 6 8.015625 6 15.921875 
Q 6 25.140625 12.171875 29.828125 
Q 18.359375 34.515625 30.609375 34.515625 
L 43.21875 34.515625 
L 43.21875 35.40625 
Q 43.21875 41.609375 39.140625 45 
Q 35.0625 48.390625 27.6875 48.390625 
Q 23 48.390625 18.546875 47.265625 
Q 14.109375 46.140625 10.015625 43.890625 
L 10.015625 52.203125 
Q 14.9375 54.109375 19.578125 55.046875 
Q 24.21875 56 28.609375 56 
Q 40.484375 56 46.34375 49.84375 
Q 52.203125 43.703125 52.203125 31.203125 
" id="BitstreamVeraSans-Roman-61"/>
      <path d="M 9.421875 75.984375 
L 18.40625 75.984375 
L 18.40625 0 
L 9.421875 0 
z
" id="BitstreamVeraSans-Roman-6c"/>
     </defs>
     <g transform="translate(213.4509375 414.598475)scale(0.12 -0.12)">
      <use xlink:href="#BitstreamVeraSans-Roman-46"/>
      <use x="57.37890625" xlink:href="#BitstreamVeraSans-Roman-61"/>
      <use x="118.658203125" xlink:href="#BitstreamVeraSans-Roman-6c"/>
      <use x="146.44140625" xlink:href="#BitstreamVeraSans-Roman-73"/>
      <use x="198.541015625" xlink:href="#BitstreamVeraSans-Roman-65"/>
      <use x="260.064453125" xlink:href="#BitstreamVeraSans-Roman-20"/>
      <use x="291.8515625" xlink:href="#BitstreamVeraSans-Roman-50"/>
      <use x="352.107421875" xlink:href="#BitstreamVeraSans-Roman-6f"/>
      <use x="413.2890625" xlink:href="#BitstreamVeraSans-Roman-73"/>
      <use x="465.388671875" xlink:href="#BitstreamVeraSans-Roman-69"/>
      <use x="493.171875" xlink:href="#BitstreamVeraSans-Roman-74"/>
      <use x="532.380859375" xlink:href="#BitstreamVeraSans-Roman-69"/>
      <use x="560.1640625" xlink:href="#BitstreamVeraSans-Roman-76"/>
      <use x="619.34375" xlink:href="#BitstreamVeraSans-Roman-65"/>
      <use x="680.8671875" xlink:href="#BitstreamVeraSans-Roman-20"/>
      <use x="712.654296875" xlink:href="#BitstreamVeraSans-Roman-52"/>
      <use x="782.10546875" xlink:href="#BitstreamVeraSans-Roman-61"/>
      <use x="843.384765625" xlink:href="#BitstreamVeraSans-Roman-74"/>
      <use x="882.59375" xlink:href="#BitstreamVeraSans-Roman-65"/>
     </g>
    </g>
   </g>
   <g id="matplotlib.axis_2">
    <g id="ytick_1">
     <g id="line2d_17">
      <defs>
       <path d="M 0 0 
L 4 0 
" id="mb2e3fe4a7f" style="stroke:#000000;stroke-width:0.5;"/>
      </defs>
      <g>
       <use style="stroke:#000000;stroke-width:0.5;" x="46.8975" xlink:href="#mb2e3fe4a7f" y="384.8666"/>
      </g>
     </g>
     <g id="line2d_18">
      <defs>
       <path d="M 0 0 
L -4 0 
" id="m0d4313f354" style="stroke:#000000;stroke-width:0.5;"/>
      </defs>
      <g>
       <use style="stroke:#000000;stroke-width:0.5;" x="493.2975" xlink:href="#m0d4313f354" y="384.8666"/>
      </g>
     </g>
     <g id="text_8">
      <!-- 0.0 -->
      <g transform="translate(23.81375 388.17785)scale(0.12 -0.12)">
       <use xlink:href="#BitstreamVeraSans-Roman-30"/>
       <use x="63.623046875" xlink:href="#BitstreamVeraSans-Roman-2e"/>
       <use x="95.41015625" xlink:href="#BitstreamVeraSans-Roman-30"/>
      </g>
     </g>
    </g>
    <g id="ytick_2">
     <g id="line2d_19">
      <g>
       <use style="stroke:#000000;stroke-width:0.5;" x="46.8975" xlink:href="#mb2e3fe4a7f" y="319.038028571"/>
      </g>
     </g>
     <g id="line2d_20">
      <g>
       <use style="stroke:#000000;stroke-width:0.5;" x="493.2975" xlink:href="#m0d4313f354" y="319.038028571"/>
      </g>
     </g>
     <g id="text_9">
      <!-- 0.2 -->
      <g transform="translate(23.81375 322.349278571)scale(0.12 -0.12)">
       <use xlink:href="#BitstreamVeraSans-Roman-30"/>
       <use x="63.623046875" xlink:href="#BitstreamVeraSans-Roman-2e"/>
       <use x="95.41015625" xlink:href="#BitstreamVeraSans-Roman-32"/>
      </g>
     </g>
    </g>
    <g id="ytick_3">
     <g id="line2d_21">
      <g>
       <use style="stroke:#000000;stroke-width:0.5;" x="46.8975" xlink:href="#mb2e3fe4a7f" y="253.209457143"/>
      </g>
     </g>
     <g id="line2d_22">
      <g>
       <use style="stroke:#000000;stroke-width:0.5;" x="493.2975" xlink:href="#m0d4313f354" y="253.209457143"/>
      </g>
     </g>
     <g id="text_10">
      <!-- 0.4 -->
      <g transform="translate(23.81375 256.520707143)scale(0.12 -0.12)">
       <use xlink:href="#BitstreamVeraSans-Roman-30"/>
       <use x="63.623046875" xlink:href="#BitstreamVeraSans-Roman-2e"/>
       <use x="95.41015625" xlink:href="#BitstreamVeraSans-Roman-34"/>
      </g>
     </g>
    </g>
    <g id="ytick_4">
     <g id="line2d_23">
      <g>
       <use style="stroke:#000000;stroke-width:0.5;" x="46.8975" xlink:href="#mb2e3fe4a7f" y="187.380885714"/>
      </g>
     </g>
     <g id="line2d_24">
      <g>
       <use style="stroke:#000000;stroke-width:0.5;" x="493.2975" xlink:href="#m0d4313f354" y="187.380885714"/>
      </g>
     </g>
     <g id="text_11">
      <!-- 0.6 -->
      <g transform="translate(23.81375 190.692135714)scale(0.12 -0.12)">
       <use xlink:href="#BitstreamVeraSans-Roman-30"/>
       <use x="63.623046875" xlink:href="#BitstreamVeraSans-Roman-2e"/>
       <use x="95.41015625" xlink:href="#BitstreamVeraSans-Roman-36"/>
      </g>
     </g>
    </g>
    <g id="ytick_5">
     <g id="line2d_25">
      <g>
       <use style="stroke:#000000;stroke-width:0.5;" x="46.8975" xlink:href="#mb2e3fe4a7f" y="121.552314286"/>
      </g>
     </g>
     <g id="line2d_26">
      <g>
       <use style="stroke:#000000;stroke-width:0.5;" x="493.2975" xlink:href="#m0d4313f354" y="121.552314286"/>
      </g>
     </g>
     <g id="text_12">
      <!-- 0.8 -->
      <g transform="translate(23.81375 124.863564286)scale(0.12 -0.12)">
       <use xlink:href="#BitstreamVeraSans-Roman-30"/>
       <use x="63.623046875" xlink:href="#BitstreamVeraSans-Roman-2e"/>
       <use x="95.41015625" xlink:href="#BitstreamVeraSans-Roman-38"/>
      </g>
     </g>
    </g>
    <g id="ytick_6">
     <g id="line2d_27">
      <g>
       <use style="stroke:#000000;stroke-width:0.5;" x="46.8975" xlink:href="#mb2e3fe4a7f" y="55.7237428571"/>
      </g>
     </g>
     <g id="line2d_28">
      <g>
       <use style="stroke:#000000;stroke-width:0.5;" x="493.2975" xlink:href="#m0d4313f354" y="55.7237428571"/>
      </g>
     </g>
     <g id="text_13">
      <!-- 1.0 -->
      <g transform="translate(23.81375 59.0349928571)scale(0.12 -0.12)">
       <use xlink:href="#BitstreamVeraSans-Roman-31"/>
       <use x="63.623046875" xlink:href="#BitstreamVeraSans-Roman-2e"/>
       <use x="95.41015625" xlink:href="#BitstreamVeraSans-Roman-30"/>
      </g>
     </g>
    </g>
    <g id="text_14">
     <!-- True Positive Rate -->
     <defs>
      <path d="M -0.296875 72.90625 
L 61.375 72.90625 
L 61.375 64.59375 
L 35.5 64.59375 
L 35.5 0 
L 25.59375 0 
L 25.59375 64.59375 
L -0.296875 64.59375 
z
" id="BitstreamVeraSans-Roman-54"/>
      <path d="M 8.5 21.578125 
L 8.5 54.6875 
L 17.484375 54.6875 
L 17.484375 21.921875 
Q 17.484375 14.15625 20.5 10.265625 
Q 23.53125 6.390625 29.59375 6.390625 
Q 36.859375 6.390625 41.078125 11.03125 
Q 45.3125 15.671875 45.3125 23.6875 
L 45.3125 54.6875 
L 54.296875 54.6875 
L 54.296875 0 
L 45.3125 0 
L 45.3125 8.40625 
Q 42.046875 3.421875 37.71875 1 
Q 33.40625 -1.421875 27.6875 -1.421875 
Q 18.265625 -1.421875 13.375 4.4375 
Q 8.5 10.296875 8.5 21.578125 
" id="BitstreamVeraSans-Roman-75"/>
      <path d="M 41.109375 46.296875 
Q 39.59375 47.171875 37.8125 47.578125 
Q 36.03125 48 33.890625 48 
Q 26.265625 48 22.1875 43.046875 
Q 18.109375 38.09375 18.109375 28.8125 
L 18.109375 0 
L 9.078125 0 
L 9.078125 54.6875 
L 18.109375 54.6875 
L 18.109375 46.1875 
Q 20.953125 51.171875 25.484375 53.578125 
Q 30.03125 56 36.53125 56 
Q 37.453125 56 38.578125 55.875 
Q 39.703125 55.765625 41.0625 55.515625 
z
" id="BitstreamVeraSans-Roman-72"/>
     </defs>
     <g transform="translate(16.318125 266.7219125)rotate(-90.0)scale(0.12 -0.12)">
      <use xlink:href="#BitstreamVeraSans-Roman-54"/>
      <use x="60.865234375" xlink:href="#BitstreamVeraSans-Roman-72"/>
      <use x="101.978515625" xlink:href="#BitstreamVeraSans-Roman-75"/>
      <use x="165.357421875" xlink:href="#BitstreamVeraSans-Roman-65"/>
      <use x="226.880859375" xlink:href="#BitstreamVeraSans-Roman-20"/>
      <use x="258.66796875" xlink:href="#BitstreamVeraSans-Roman-50"/>
      <use x="318.923828125" xlink:href="#BitstreamVeraSans-Roman-6f"/>
      <use x="380.10546875" xlink:href="#BitstreamVeraSans-Roman-73"/>
      <use x="432.205078125" xlink:href="#BitstreamVeraSans-Roman-69"/>
      <use x="459.98828125" xlink:href="#BitstreamVeraSans-Roman-74"/>
      <use x="499.197265625" xlink:href="#BitstreamVeraSans-Roman-69"/>
      <use x="526.98046875" xlink:href="#BitstreamVeraSans-Roman-76"/>
      <use x="586.16015625" xlink:href="#BitstreamVeraSans-Roman-65"/>
      <use x="647.68359375" xlink:href="#BitstreamVeraSans-Roman-20"/>
      <use x="679.470703125" xlink:href="#BitstreamVeraSans-Roman-52"/>
      <use x="748.921875" xlink:href="#BitstreamVeraSans-Roman-61"/>
      <use x="810.201171875" xlink:href="#BitstreamVeraSans-Roman-74"/>
      <use x="849.41015625" xlink:href="#BitstreamVeraSans-Roman-65"/>
     </g>
    </g>
   </g>
   <g id="text_15">
    <!-- ROC Curve GradientBoosting + RandomOverSampler -->
    <defs>
     <path d="M 53.515625 70.515625 
L 53.515625 60.890625 
Q 47.90625 63.578125 42.921875 64.890625 
Q 37.9375 66.21875 33.296875 66.21875 
Q 25.25 66.21875 20.875 63.09375 
Q 16.5 59.96875 16.5 54.203125 
Q 16.5 49.359375 19.40625 46.890625 
Q 22.3125 44.4375 30.421875 42.921875 
L 36.375 41.703125 
Q 47.40625 39.59375 52.65625 34.296875 
Q 57.90625 29 57.90625 20.125 
Q 57.90625 9.515625 50.796875 4.046875 
Q 43.703125 -1.421875 29.984375 -1.421875 
Q 24.8125 -1.421875 18.96875 -0.25 
Q 13.140625 0.921875 6.890625 3.21875 
L 6.890625 13.375 
Q 12.890625 10.015625 18.65625 8.296875 
Q 24.421875 6.59375 29.984375 6.59375 
Q 38.421875 6.59375 43.015625 9.90625 
Q 47.609375 13.234375 47.609375 19.390625 
Q 47.609375 24.75 44.3125 27.78125 
Q 41.015625 30.8125 33.5 32.328125 
L 27.484375 33.5 
Q 16.453125 35.6875 11.515625 40.375 
Q 6.59375 45.0625 6.59375 53.421875 
Q 6.59375 63.09375 13.40625 68.65625 
Q 20.21875 74.21875 32.171875 74.21875 
Q 37.3125 74.21875 42.625 73.28125 
Q 47.953125 72.359375 53.515625 70.515625 
" id="BitstreamVeraSans-Roman-53"/>
     <path d="M 45.40625 46.390625 
L 45.40625 75.984375 
L 54.390625 75.984375 
L 54.390625 0 
L 45.40625 0 
L 45.40625 8.203125 
Q 42.578125 3.328125 38.25 0.953125 
Q 33.9375 -1.421875 27.875 -1.421875 
Q 17.96875 -1.421875 11.734375 6.484375 
Q 5.515625 14.40625 5.515625 27.296875 
Q 5.515625 40.1875 11.734375 48.09375 
Q 17.96875 56 27.875 56 
Q 33.9375 56 38.25 53.625 
Q 42.578125 51.265625 45.40625 46.390625 
M 14.796875 27.296875 
Q 14.796875 17.390625 18.875 11.75 
Q 22.953125 6.109375 30.078125 6.109375 
Q 37.203125 6.109375 41.296875 11.75 
Q 45.40625 17.390625 45.40625 27.296875 
Q 45.40625 37.203125 41.296875 42.84375 
Q 37.203125 48.484375 30.078125 48.484375 
Q 22.953125 48.484375 18.875 42.84375 
Q 14.796875 37.203125 14.796875 27.296875 
" id="BitstreamVeraSans-Roman-64"/>
     <path d="M 18.109375 8.203125 
L 18.109375 -20.796875 
L 9.078125 -20.796875 
L 9.078125 54.6875 
L 18.109375 54.6875 
L 18.109375 46.390625 
Q 20.953125 51.265625 25.265625 53.625 
Q 29.59375 56 35.59375 56 
Q 45.5625 56 51.78125 48.09375 
Q 58.015625 40.1875 58.015625 27.296875 
Q 58.015625 14.40625 51.78125 6.484375 
Q 45.5625 -1.421875 35.59375 -1.421875 
Q 29.59375 -1.421875 25.265625 0.953125 
Q 20.953125 3.328125 18.109375 8.203125 
M 48.6875 27.296875 
Q 48.6875 37.203125 44.609375 42.84375 
Q 40.53125 48.484375 33.40625 48.484375 
Q 26.265625 48.484375 22.1875 42.84375 
Q 18.109375 37.203125 18.109375 27.296875 
Q 18.109375 17.390625 22.1875 11.75 
Q 26.265625 6.109375 33.40625 6.109375 
Q 40.53125 6.109375 44.609375 11.75 
Q 48.6875 17.390625 48.6875 27.296875 
" id="BitstreamVeraSans-Roman-70"/>
     <path d="M 59.515625 10.40625 
L 59.515625 29.984375 
L 43.40625 29.984375 
L 43.40625 38.09375 
L 69.28125 38.09375 
L 69.28125 6.78125 
Q 63.578125 2.734375 56.6875 0.65625 
Q 49.8125 -1.421875 42 -1.421875 
Q 24.90625 -1.421875 15.25 8.5625 
Q 5.609375 18.5625 5.609375 36.375 
Q 5.609375 54.25 15.25 64.234375 
Q 24.90625 74.21875 42 74.21875 
Q 49.125 74.21875 55.546875 72.453125 
Q 61.96875 70.703125 67.390625 67.28125 
L 67.390625 56.78125 
Q 61.921875 61.421875 55.765625 63.765625 
Q 49.609375 66.109375 42.828125 66.109375 
Q 29.4375 66.109375 22.71875 58.640625 
Q 16.015625 51.171875 16.015625 36.375 
Q 16.015625 21.625 22.71875 14.15625 
Q 29.4375 6.6875 42.828125 6.6875 
Q 48.046875 6.6875 52.140625 7.59375 
Q 56.25 8.5 59.515625 10.40625 
" id="BitstreamVeraSans-Roman-47"/>
     <path d="M 52 44.1875 
Q 55.375 50.25 60.0625 53.125 
Q 64.75 56 71.09375 56 
Q 79.640625 56 84.28125 50.015625 
Q 88.921875 44.046875 88.921875 33.015625 
L 88.921875 0 
L 79.890625 0 
L 79.890625 32.71875 
Q 79.890625 40.578125 77.09375 44.375 
Q 74.3125 48.1875 68.609375 48.1875 
Q 61.625 48.1875 57.5625 43.546875 
Q 53.515625 38.921875 53.515625 30.90625 
L 53.515625 0 
L 44.484375 0 
L 44.484375 32.71875 
Q 44.484375 40.625 41.703125 44.40625 
Q 38.921875 48.1875 33.109375 48.1875 
Q 26.21875 48.1875 22.15625 43.53125 
Q 18.109375 38.875 18.109375 30.90625 
L 18.109375 0 
L 9.078125 0 
L 9.078125 54.6875 
L 18.109375 54.6875 
L 18.109375 46.1875 
Q 21.1875 51.21875 25.484375 53.609375 
Q 29.78125 56 35.6875 56 
Q 41.65625 56 45.828125 52.96875 
Q 50 49.953125 52 44.1875 
" id="BitstreamVeraSans-Roman-6d"/>
     <path d="M 19.671875 34.8125 
L 19.671875 8.109375 
L 35.5 8.109375 
Q 43.453125 8.109375 47.28125 11.40625 
Q 51.125 14.703125 51.125 21.484375 
Q 51.125 28.328125 47.28125 31.5625 
Q 43.453125 34.8125 35.5 34.8125 
z
M 19.671875 64.796875 
L 19.671875 42.828125 
L 34.28125 42.828125 
Q 41.5 42.828125 45.03125 45.53125 
Q 48.578125 48.25 48.578125 53.8125 
Q 48.578125 59.328125 45.03125 62.0625 
Q 41.5 64.796875 34.28125 64.796875 
z
M 9.8125 72.90625 
L 35.015625 72.90625 
Q 46.296875 72.90625 52.390625 68.21875 
Q 58.5 63.53125 58.5 54.890625 
Q 58.5 48.1875 55.375 44.234375 
Q 52.25 40.28125 46.1875 39.3125 
Q 53.46875 37.75 57.5 32.78125 
Q 61.53125 27.828125 61.53125 20.40625 
Q 61.53125 10.640625 54.890625 5.3125 
Q 48.25 0 35.984375 0 
L 9.8125 0 
z
" id="BitstreamVeraSans-Roman-42"/>
     <path d="M 54.890625 33.015625 
L 54.890625 0 
L 45.90625 0 
L 45.90625 32.71875 
Q 45.90625 40.484375 42.875 44.328125 
Q 39.84375 48.1875 33.796875 48.1875 
Q 26.515625 48.1875 22.3125 43.546875 
Q 18.109375 38.921875 18.109375 30.90625 
L 18.109375 0 
L 9.078125 0 
L 9.078125 54.6875 
L 18.109375 54.6875 
L 18.109375 46.1875 
Q 21.34375 51.125 25.703125 53.5625 
Q 30.078125 56 35.796875 56 
Q 45.21875 56 50.046875 50.171875 
Q 54.890625 44.34375 54.890625 33.015625 
" id="BitstreamVeraSans-Roman-6e"/>
     <path d="M 64.40625 67.28125 
L 64.40625 56.890625 
Q 59.421875 61.53125 53.78125 63.8125 
Q 48.140625 66.109375 41.796875 66.109375 
Q 29.296875 66.109375 22.65625 58.46875 
Q 16.015625 50.828125 16.015625 36.375 
Q 16.015625 21.96875 22.65625 14.328125 
Q 29.296875 6.6875 41.796875 6.6875 
Q 48.140625 6.6875 53.78125 8.984375 
Q 59.421875 11.28125 64.40625 15.921875 
L 64.40625 5.609375 
Q 59.234375 2.09375 53.4375 0.328125 
Q 47.65625 -1.421875 41.21875 -1.421875 
Q 24.65625 -1.421875 15.125 8.703125 
Q 5.609375 18.84375 5.609375 36.375 
Q 5.609375 53.953125 15.125 64.078125 
Q 24.65625 74.21875 41.21875 74.21875 
Q 47.75 74.21875 53.53125 72.484375 
Q 59.328125 70.75 64.40625 67.28125 
" id="BitstreamVeraSans-Roman-43"/>
     <path d="M 39.40625 66.21875 
Q 28.65625 66.21875 22.328125 58.203125 
Q 16.015625 50.203125 16.015625 36.375 
Q 16.015625 22.609375 22.328125 14.59375 
Q 28.65625 6.59375 39.40625 6.59375 
Q 50.140625 6.59375 56.421875 14.59375 
Q 62.703125 22.609375 62.703125 36.375 
Q 62.703125 50.203125 56.421875 58.203125 
Q 50.140625 66.21875 39.40625 66.21875 
M 39.40625 74.21875 
Q 54.734375 74.21875 63.90625 63.9375 
Q 73.09375 53.65625 73.09375 36.375 
Q 73.09375 19.140625 63.90625 8.859375 
Q 54.734375 -1.421875 39.40625 -1.421875 
Q 24.03125 -1.421875 14.8125 8.828125 
Q 5.609375 19.09375 5.609375 36.375 
Q 5.609375 53.65625 14.8125 63.9375 
Q 24.03125 74.21875 39.40625 74.21875 
" id="BitstreamVeraSans-Roman-4f"/>
     <path d="M 45.40625 27.984375 
Q 45.40625 37.75 41.375 43.109375 
Q 37.359375 48.484375 30.078125 48.484375 
Q 22.859375 48.484375 18.828125 43.109375 
Q 14.796875 37.75 14.796875 27.984375 
Q 14.796875 18.265625 18.828125 12.890625 
Q 22.859375 7.515625 30.078125 7.515625 
Q 37.359375 7.515625 41.375 12.890625 
Q 45.40625 18.265625 45.40625 27.984375 
M 54.390625 6.78125 
Q 54.390625 -7.171875 48.1875 -13.984375 
Q 42 -20.796875 29.203125 -20.796875 
Q 24.46875 -20.796875 20.265625 -20.09375 
Q 16.0625 -19.390625 12.109375 -17.921875 
L 12.109375 -9.1875 
Q 16.0625 -11.328125 19.921875 -12.34375 
Q 23.78125 -13.375 27.78125 -13.375 
Q 36.625 -13.375 41.015625 -8.765625 
Q 45.40625 -4.15625 45.40625 5.171875 
L 45.40625 9.625 
Q 42.625 4.78125 38.28125 2.390625 
Q 33.9375 0 27.875 0 
Q 17.828125 0 11.671875 7.65625 
Q 5.515625 15.328125 5.515625 27.984375 
Q 5.515625 40.671875 11.671875 48.328125 
Q 17.828125 56 27.875 56 
Q 33.9375 56 38.28125 53.609375 
Q 42.625 51.21875 45.40625 46.390625 
L 45.40625 54.6875 
L 54.390625 54.6875 
z
" id="BitstreamVeraSans-Roman-67"/>
     <path d="M 46 62.703125 
L 46 35.5 
L 73.1875 35.5 
L 73.1875 27.203125 
L 46 27.203125 
L 46 0 
L 37.796875 0 
L 37.796875 27.203125 
L 10.59375 27.203125 
L 10.59375 35.5 
L 37.796875 35.5 
L 37.796875 62.703125 
z
" id="BitstreamVeraSans-Roman-2b"/>
    </defs>
    <g transform="translate(77.93175 18.14175)scale(0.144 -0.144)">
     <use xlink:href="#BitstreamVeraSans-Roman-52"/>
     <use x="69.482421875" xlink:href="#BitstreamVeraSans-Roman-4f"/>
     <use x="148.193359375" xlink:href="#BitstreamVeraSans-Roman-43"/>
     <use x="218.017578125" xlink:href="#BitstreamVeraSans-Roman-20"/>
     <use x="249.8046875" xlink:href="#BitstreamVeraSans-Roman-43"/>
     <use x="319.62890625" xlink:href="#BitstreamVeraSans-Roman-75"/>
     <use x="383.0078125" xlink:href="#BitstreamVeraSans-Roman-72"/>
     <use x="424.12109375" xlink:href="#BitstreamVeraSans-Roman-76"/>
     <use x="483.30078125" xlink:href="#BitstreamVeraSans-Roman-65"/>
     <use x="544.82421875" xlink:href="#BitstreamVeraSans-Roman-20"/>
     <use x="576.611328125" xlink:href="#BitstreamVeraSans-Roman-47"/>
     <use x="654.1015625" xlink:href="#BitstreamVeraSans-Roman-72"/>
     <use x="695.21484375" xlink:href="#BitstreamVeraSans-Roman-61"/>
     <use x="756.494140625" xlink:href="#BitstreamVeraSans-Roman-64"/>
     <use x="819.970703125" xlink:href="#BitstreamVeraSans-Roman-69"/>
     <use x="847.75390625" xlink:href="#BitstreamVeraSans-Roman-65"/>
     <use x="909.27734375" xlink:href="#BitstreamVeraSans-Roman-6e"/>
     <use x="972.65625" xlink:href="#BitstreamVeraSans-Roman-74"/>
     <use x="1011.865234375" xlink:href="#BitstreamVeraSans-Roman-42"/>
     <use x="1080.46875" xlink:href="#BitstreamVeraSans-Roman-6f"/>
     <use x="1141.650390625" xlink:href="#BitstreamVeraSans-Roman-6f"/>
     <use x="1202.83203125" xlink:href="#BitstreamVeraSans-Roman-73"/>
     <use x="1254.931640625" xlink:href="#BitstreamVeraSans-Roman-74"/>
     <use x="1294.140625" xlink:href="#BitstreamVeraSans-Roman-69"/>
     <use x="1321.923828125" xlink:href="#BitstreamVeraSans-Roman-6e"/>
     <use x="1385.302734375" xlink:href="#BitstreamVeraSans-Roman-67"/>
     <use x="1448.779296875" xlink:href="#BitstreamVeraSans-Roman-20"/>
     <use x="1480.56640625" xlink:href="#BitstreamVeraSans-Roman-2b"/>
     <use x="1564.35546875" xlink:href="#BitstreamVeraSans-Roman-20"/>
     <use x="1596.142578125" xlink:href="#BitstreamVeraSans-Roman-52"/>
     <use x="1665.59375" xlink:href="#BitstreamVeraSans-Roman-61"/>
     <use x="1726.873046875" xlink:href="#BitstreamVeraSans-Roman-6e"/>
     <use x="1790.251953125" xlink:href="#BitstreamVeraSans-Roman-64"/>
     <use x="1853.728515625" xlink:href="#BitstreamVeraSans-Roman-6f"/>
     <use x="1914.91015625" xlink:href="#BitstreamVeraSans-Roman-6d"/>
     <use x="2012.322265625" xlink:href="#BitstreamVeraSans-Roman-4f"/>
     <use x="2091.033203125" xlink:href="#BitstreamVeraSans-Roman-76"/>
     <use x="2150.212890625" xlink:href="#BitstreamVeraSans-Roman-65"/>
     <use x="2211.736328125" xlink:href="#BitstreamVeraSans-Roman-72"/>
     <use x="2252.849609375" xlink:href="#BitstreamVeraSans-Roman-53"/>
     <use x="2316.326171875" xlink:href="#BitstreamVeraSans-Roman-61"/>
     <use x="2377.60546875" xlink:href="#BitstreamVeraSans-Roman-6d"/>
     <use x="2475.017578125" xlink:href="#BitstreamVeraSans-Roman-70"/>
     <use x="2538.494140625" xlink:href="#BitstreamVeraSans-Roman-6c"/>
     <use x="2566.27734375" xlink:href="#BitstreamVeraSans-Roman-65"/>
     <use x="2627.80078125" xlink:href="#BitstreamVeraSans-Roman-72"/>
    </g>
    <!-- Train: 24   Test: 1 -->
    <defs>
     <path d="M 11.71875 12.40625 
L 22.015625 12.40625 
L 22.015625 0 
L 11.71875 0 
z
M 11.71875 51.703125 
L 22.015625 51.703125 
L 22.015625 39.3125 
L 11.71875 39.3125 
z
" id="BitstreamVeraSans-Roman-3a"/>
    </defs>
    <g transform="translate(206.362875 34.2666)scale(0.144 -0.144)">
     <use xlink:href="#BitstreamVeraSans-Roman-54"/>
     <use x="60.865234375" xlink:href="#BitstreamVeraSans-Roman-72"/>
     <use x="101.978515625" xlink:href="#BitstreamVeraSans-Roman-61"/>
     <use x="163.2578125" xlink:href="#BitstreamVeraSans-Roman-69"/>
     <use x="191.041015625" xlink:href="#BitstreamVeraSans-Roman-6e"/>
     <use x="254.419921875" xlink:href="#BitstreamVeraSans-Roman-3a"/>
     <use x="288.111328125" xlink:href="#BitstreamVeraSans-Roman-20"/>
     <use x="319.8984375" xlink:href="#BitstreamVeraSans-Roman-32"/>
     <use x="383.521484375" xlink:href="#BitstreamVeraSans-Roman-34"/>
     <use x="447.14453125" xlink:href="#BitstreamVeraSans-Roman-20"/>
     <use x="478.931640625" xlink:href="#BitstreamVeraSans-Roman-20"/>
     <use x="510.71875" xlink:href="#BitstreamVeraSans-Roman-20"/>
     <use x="542.505859375" xlink:href="#BitstreamVeraSans-Roman-54"/>
     <use x="603.32421875" xlink:href="#BitstreamVeraSans-Roman-65"/>
     <use x="664.84765625" xlink:href="#BitstreamVeraSans-Roman-73"/>
     <use x="716.947265625" xlink:href="#BitstreamVeraSans-Roman-74"/>
     <use x="756.15625" xlink:href="#BitstreamVeraSans-Roman-3a"/>
     <use x="789.84765625" xlink:href="#BitstreamVeraSans-Roman-20"/>
     <use x="821.634765625" xlink:href="#BitstreamVeraSans-Roman-31"/>
    </g>
   </g>
   <g id="legend_1">
    <g id="patch_7">
     <path d="M 180.46425 377.6666 
L 486.0975 377.6666 
L 486.0975 309.9371 
L 180.46425 309.9371 
z
" style="fill:#ffffff;stroke:#000000;stroke-linejoin:miter;"/>
    </g>
    <g id="line2d_29">
     <path d="M 190.54425 321.59885 
L 210.70425 321.59885 
" style="fill:none;stroke:#0000ff;stroke-linecap:square;"/>
    </g>
    <g id="line2d_30"/>
    <g id="text_16">
     <!-- cometROC curve - 0 (AUC = 0.756) -->
     <defs>
      <path d="M 34.1875 63.1875 
L 20.796875 26.90625 
L 47.609375 26.90625 
z
M 28.609375 72.90625 
L 39.796875 72.90625 
L 67.578125 0 
L 57.328125 0 
L 50.6875 18.703125 
L 17.828125 18.703125 
L 11.1875 0 
L 0.78125 0 
z
" id="BitstreamVeraSans-Roman-41"/>
      <path d="M 8.015625 75.875 
L 15.828125 75.875 
Q 23.140625 64.359375 26.78125 53.3125 
Q 30.421875 42.28125 30.421875 31.390625 
Q 30.421875 20.453125 26.78125 9.375 
Q 23.140625 -1.703125 15.828125 -13.1875 
L 8.015625 -13.1875 
Q 14.5 -2 17.703125 9.0625 
Q 20.90625 20.125 20.90625 31.390625 
Q 20.90625 42.671875 17.703125 53.65625 
Q 14.5 64.65625 8.015625 75.875 
" id="BitstreamVeraSans-Roman-29"/>
      <path d="M 31 75.875 
Q 24.46875 64.65625 21.28125 53.65625 
Q 18.109375 42.671875 18.109375 31.390625 
Q 18.109375 20.125 21.3125 9.0625 
Q 24.515625 -2 31 -13.1875 
L 23.1875 -13.1875 
Q 15.875 -1.703125 12.234375 9.375 
Q 8.59375 20.453125 8.59375 31.390625 
Q 8.59375 42.28125 12.203125 53.3125 
Q 15.828125 64.359375 23.1875 75.875 
z
" id="BitstreamVeraSans-Roman-28"/>
      <path d="M 8.6875 72.90625 
L 18.609375 72.90625 
L 18.609375 28.609375 
Q 18.609375 16.890625 22.84375 11.734375 
Q 27.09375 6.59375 36.625 6.59375 
Q 46.09375 6.59375 50.34375 11.734375 
Q 54.59375 16.890625 54.59375 28.609375 
L 54.59375 72.90625 
L 64.5 72.90625 
L 64.5 27.390625 
Q 64.5 13.140625 57.4375 5.859375 
Q 50.390625 -1.421875 36.625 -1.421875 
Q 22.796875 -1.421875 15.734375 5.859375 
Q 8.6875 13.140625 8.6875 27.390625 
z
" id="BitstreamVeraSans-Roman-55"/>
      <path d="M 48.78125 52.59375 
L 48.78125 44.1875 
Q 44.96875 46.296875 41.140625 47.34375 
Q 37.3125 48.390625 33.40625 48.390625 
Q 24.65625 48.390625 19.8125 42.84375 
Q 14.984375 37.3125 14.984375 27.296875 
Q 14.984375 17.28125 19.8125 11.734375 
Q 24.65625 6.203125 33.40625 6.203125 
Q 37.3125 6.203125 41.140625 7.25 
Q 44.96875 8.296875 48.78125 10.40625 
L 48.78125 2.09375 
Q 45.015625 0.34375 40.984375 -0.53125 
Q 36.96875 -1.421875 32.421875 -1.421875 
Q 20.0625 -1.421875 12.78125 6.34375 
Q 5.515625 14.109375 5.515625 27.296875 
Q 5.515625 40.671875 12.859375 48.328125 
Q 20.21875 56 33.015625 56 
Q 37.15625 56 41.109375 55.140625 
Q 45.0625 54.296875 48.78125 52.59375 
" id="BitstreamVeraSans-Roman-63"/>
      <path d="M 10.796875 72.90625 
L 49.515625 72.90625 
L 49.515625 64.59375 
L 19.828125 64.59375 
L 19.828125 46.734375 
Q 21.96875 47.46875 24.109375 47.828125 
Q 26.265625 48.1875 28.421875 48.1875 
Q 40.625 48.1875 47.75 41.5 
Q 54.890625 34.8125 54.890625 23.390625 
Q 54.890625 11.625 47.5625 5.09375 
Q 40.234375 -1.421875 26.90625 -1.421875 
Q 22.3125 -1.421875 17.546875 -0.640625 
Q 12.796875 0.140625 7.71875 1.703125 
L 7.71875 11.625 
Q 12.109375 9.234375 16.796875 8.0625 
Q 21.484375 6.890625 26.703125 6.890625 
Q 35.15625 6.890625 40.078125 11.328125 
Q 45.015625 15.765625 45.015625 23.390625 
Q 45.015625 31 40.078125 35.4375 
Q 35.15625 39.890625 26.703125 39.890625 
Q 22.75 39.890625 18.8125 39.015625 
Q 14.890625 38.140625 10.796875 36.28125 
z
" id="BitstreamVeraSans-Roman-35"/>
      <path d="M 8.203125 72.90625 
L 55.078125 72.90625 
L 55.078125 68.703125 
L 28.609375 0 
L 18.3125 0 
L 43.21875 64.59375 
L 8.203125 64.59375 
z
" id="BitstreamVeraSans-Roman-37"/>
      <path d="M 10.59375 45.40625 
L 73.1875 45.40625 
L 73.1875 37.203125 
L 10.59375 37.203125 
z
M 10.59375 25.484375 
L 73.1875 25.484375 
L 73.1875 17.1875 
L 10.59375 17.1875 
z
" id="BitstreamVeraSans-Roman-3d"/>
      <path d="M 4.890625 31.390625 
L 31.203125 31.390625 
L 31.203125 23.390625 
L 4.890625 23.390625 
z
" id="BitstreamVeraSans-Roman-2d"/>
     </defs>
     <g transform="translate(226.54425 326.63885)scale(0.144 -0.144)">
      <use xlink:href="#BitstreamVeraSans-Roman-63"/>
      <use x="54.98046875" xlink:href="#BitstreamVeraSans-Roman-6f"/>
      <use x="116.162109375" xlink:href="#BitstreamVeraSans-Roman-6d"/>
      <use x="213.57421875" xlink:href="#BitstreamVeraSans-Roman-65"/>
      <use x="275.09765625" xlink:href="#BitstreamVeraSans-Roman-74"/>
      <use x="314.306640625" xlink:href="#BitstreamVeraSans-Roman-52"/>
      <use x="383.7890625" xlink:href="#BitstreamVeraSans-Roman-4f"/>
      <use x="462.5" xlink:href="#BitstreamVeraSans-Roman-43"/>
      <use x="532.32421875" xlink:href="#BitstreamVeraSans-Roman-20"/>
      <use x="564.111328125" xlink:href="#BitstreamVeraSans-Roman-63"/>
      <use x="619.091796875" xlink:href="#BitstreamVeraSans-Roman-75"/>
      <use x="682.470703125" xlink:href="#BitstreamVeraSans-Roman-72"/>
      <use x="723.583984375" xlink:href="#BitstreamVeraSans-Roman-76"/>
      <use x="782.763671875" xlink:href="#BitstreamVeraSans-Roman-65"/>
      <use x="844.287109375" xlink:href="#BitstreamVeraSans-Roman-20"/>
      <use x="876.07421875" xlink:href="#BitstreamVeraSans-Roman-2d"/>
      <use x="912.158203125" xlink:href="#BitstreamVeraSans-Roman-20"/>
      <use x="943.9453125" xlink:href="#BitstreamVeraSans-Roman-30"/>
      <use x="1007.568359375" xlink:href="#BitstreamVeraSans-Roman-20"/>
      <use x="1039.35546875" xlink:href="#BitstreamVeraSans-Roman-28"/>
      <use x="1078.369140625" xlink:href="#BitstreamVeraSans-Roman-41"/>
      <use x="1146.77734375" xlink:href="#BitstreamVeraSans-Roman-55"/>
      <use x="1219.970703125" xlink:href="#BitstreamVeraSans-Roman-43"/>
      <use x="1289.794921875" xlink:href="#BitstreamVeraSans-Roman-20"/>
      <use x="1321.58203125" xlink:href="#BitstreamVeraSans-Roman-3d"/>
      <use x="1405.37109375" xlink:href="#BitstreamVeraSans-Roman-20"/>
      <use x="1437.158203125" xlink:href="#BitstreamVeraSans-Roman-30"/>
      <use x="1500.78125" xlink:href="#BitstreamVeraSans-Roman-2e"/>
      <use x="1532.568359375" xlink:href="#BitstreamVeraSans-Roman-37"/>
      <use x="1596.19140625" xlink:href="#BitstreamVeraSans-Roman-35"/>
      <use x="1659.814453125" xlink:href="#BitstreamVeraSans-Roman-36"/>
      <use x="1723.4375" xlink:href="#BitstreamVeraSans-Roman-29"/>
     </g>
    </g>
    <g id="line2d_31">
     <path d="M 190.54425 342.73535 
L 210.70425 342.73535 
" style="fill:none;stroke:#008000;stroke-linecap:square;"/>
    </g>
    <g id="line2d_32"/>
    <g id="text_17">
     <!-- cometROC curve - 1 (AUC = 0.782) -->
     <g transform="translate(226.54425 347.77535)scale(0.144 -0.144)">
      <use xlink:href="#BitstreamVeraSans-Roman-63"/>
      <use x="54.98046875" xlink:href="#BitstreamVeraSans-Roman-6f"/>
      <use x="116.162109375" xlink:href="#BitstreamVeraSans-Roman-6d"/>
      <use x="213.57421875" xlink:href="#BitstreamVeraSans-Roman-65"/>
      <use x="275.09765625" xlink:href="#BitstreamVeraSans-Roman-74"/>
      <use x="314.306640625" xlink:href="#BitstreamVeraSans-Roman-52"/>
      <use x="383.7890625" xlink:href="#BitstreamVeraSans-Roman-4f"/>
      <use x="462.5" xlink:href="#BitstreamVeraSans-Roman-43"/>
      <use x="532.32421875" xlink:href="#BitstreamVeraSans-Roman-20"/>
      <use x="564.111328125" xlink:href="#BitstreamVeraSans-Roman-63"/>
      <use x="619.091796875" xlink:href="#BitstreamVeraSans-Roman-75"/>
      <use x="682.470703125" xlink:href="#BitstreamVeraSans-Roman-72"/>
      <use x="723.583984375" xlink:href="#BitstreamVeraSans-Roman-76"/>
      <use x="782.763671875" xlink:href="#BitstreamVeraSans-Roman-65"/>
      <use x="844.287109375" xlink:href="#BitstreamVeraSans-Roman-20"/>
      <use x="876.07421875" xlink:href="#BitstreamVeraSans-Roman-2d"/>
      <use x="912.158203125" xlink:href="#BitstreamVeraSans-Roman-20"/>
      <use x="943.9453125" xlink:href="#BitstreamVeraSans-Roman-31"/>
      <use x="1007.568359375" xlink:href="#BitstreamVeraSans-Roman-20"/>
      <use x="1039.35546875" xlink:href="#BitstreamVeraSans-Roman-28"/>
      <use x="1078.369140625" xlink:href="#BitstreamVeraSans-Roman-41"/>
      <use x="1146.77734375" xlink:href="#BitstreamVeraSans-Roman-55"/>
      <use x="1219.970703125" xlink:href="#BitstreamVeraSans-Roman-43"/>
      <use x="1289.794921875" xlink:href="#BitstreamVeraSans-Roman-20"/>
      <use x="1321.58203125" xlink:href="#BitstreamVeraSans-Roman-3d"/>
      <use x="1405.37109375" xlink:href="#BitstreamVeraSans-Roman-20"/>
      <use x="1437.158203125" xlink:href="#BitstreamVeraSans-Roman-30"/>
      <use x="1500.78125" xlink:href="#BitstreamVeraSans-Roman-2e"/>
      <use x="1532.568359375" xlink:href="#BitstreamVeraSans-Roman-37"/>
      <use x="1596.19140625" xlink:href="#BitstreamVeraSans-Roman-38"/>
      <use x="1659.814453125" xlink:href="#BitstreamVeraSans-Roman-32"/>
      <use x="1723.4375" xlink:href="#BitstreamVeraSans-Roman-29"/>
     </g>
    </g>
    <g id="line2d_33">
     <path d="M 190.54425 363.87185 
L 210.70425 363.87185 
" style="fill:none;stroke:#ff0000;stroke-linecap:square;"/>
    </g>
    <g id="line2d_34"/>
    <g id="text_18">
     <!-- cometROC curve - 2 (AUC = 0.811) -->
     <g transform="translate(226.54425 368.91185)scale(0.144 -0.144)">
      <use xlink:href="#BitstreamVeraSans-Roman-63"/>
      <use x="54.98046875" xlink:href="#BitstreamVeraSans-Roman-6f"/>
      <use x="116.162109375" xlink:href="#BitstreamVeraSans-Roman-6d"/>
      <use x="213.57421875" xlink:href="#BitstreamVeraSans-Roman-65"/>
      <use x="275.09765625" xlink:href="#BitstreamVeraSans-Roman-74"/>
      <use x="314.306640625" xlink:href="#BitstreamVeraSans-Roman-52"/>
      <use x="383.7890625" xlink:href="#BitstreamVeraSans-Roman-4f"/>
      <use x="462.5" xlink:href="#BitstreamVeraSans-Roman-43"/>
      <use x="532.32421875" xlink:href="#BitstreamVeraSans-Roman-20"/>
      <use x="564.111328125" xlink:href="#BitstreamVeraSans-Roman-63"/>
      <use x="619.091796875" xlink:href="#BitstreamVeraSans-Roman-75"/>
      <use x="682.470703125" xlink:href="#BitstreamVeraSans-Roman-72"/>
      <use x="723.583984375" xlink:href="#BitstreamVeraSans-Roman-76"/>
      <use x="782.763671875" xlink:href="#BitstreamVeraSans-Roman-65"/>
      <use x="844.287109375" xlink:href="#BitstreamVeraSans-Roman-20"/>
      <use x="876.07421875" xlink:href="#BitstreamVeraSans-Roman-2d"/>
      <use x="912.158203125" xlink:href="#BitstreamVeraSans-Roman-20"/>
      <use x="943.9453125" xlink:href="#BitstreamVeraSans-Roman-32"/>
      <use x="1007.568359375" xlink:href="#BitstreamVeraSans-Roman-20"/>
      <use x="1039.35546875" xlink:href="#BitstreamVeraSans-Roman-28"/>
      <use x="1078.369140625" xlink:href="#BitstreamVeraSans-Roman-41"/>
      <use x="1146.77734375" xlink:href="#BitstreamVeraSans-Roman-55"/>
      <use x="1219.970703125" xlink:href="#BitstreamVeraSans-Roman-43"/>
      <use x="1289.794921875" xlink:href="#BitstreamVeraSans-Roman-20"/>
      <use x="1321.58203125" xlink:href="#BitstreamVeraSans-Roman-3d"/>
      <use x="1405.37109375" xlink:href="#BitstreamVeraSans-Roman-20"/>
      <use x="1437.158203125" xlink:href="#BitstreamVeraSans-Roman-30"/>
      <use x="1500.78125" xlink:href="#BitstreamVeraSans-Roman-2e"/>
      <use x="1532.568359375" xlink:href="#BitstreamVeraSans-Roman-38"/>
      <use x="1596.19140625" xlink:href="#BitstreamVeraSans-Roman-31"/>
      <use x="1659.814453125" xlink:href="#BitstreamVeraSans-Roman-31"/>
      <use x="1723.4375" xlink:href="#BitstreamVeraSans-Roman-29"/>
     </g>
    </g>
   </g>
  </g>
 </g>
 <defs>
  <clipPath id="pe0a129b071">
   <rect height="345.6" width="446.4" x="46.8975" y="39.2666"/>
  </clipPath>
 </defs>
</svg>
