<?xml version="1.0" encoding="utf-8" standalone="no"?>
<!DOCTYPE svg PUBLIC "-//W3C//DTD SVG 1.1//EN"
  "http://www.w3.org/Graphics/SVG/1.1/DTD/svg11.dtd">
<!-- Created with matplotlib (http://matplotlib.org/) -->
<svg height="339pt" version="1.1" viewBox="0 0 416 339" width="416pt" xmlns="http://www.w3.org/2000/svg" xmlns:xlink="http://www.w3.org/1999/xlink">
 <defs>
  <style type="text/css">
*{stroke-linecap:butt;stroke-linejoin:round;}
  </style>
 </defs>
 <g id="figure_1">
  <g id="patch_1">
   <path d="M 0 339.42375 
L 416.052813 339.42375 
L 416.052813 0 
L 0 0 
z
" style="fill:#ffffff;"/>
  </g>
  <g id="axes_1">
   <g id="patch_2">
    <path d="M 43.78125 301.8675 
L 400.90125 301.8675 
L 400.90125 35.7555 
L 43.78125 35.7555 
z
" style="fill:#ffffff;"/>
   </g>
   <g id="matplotlib.axis_1">
    <g id="xtick_1">
     <g id="line2d_1">
      <defs>
       <path d="M 0 0 
L 0 3.5 
" id="m7732ece734" style="stroke:#000000;stroke-width:0.8;"/>
      </defs>
      <g>
       <use style="stroke:#000000;stroke-width:0.8;" x="43.78125" xlink:href="#m7732ece734" y="301.8675"/>
      </g>
     </g>
     <g id="text_1">
      <!-- 0.0 -->
      <defs>
       <path d="M 31.78125 66.40625 
Q 24.171875 66.40625 20.328125 58.90625 
Q 16.5 51.421875 16.5 36.375 
Q 16.5 21.390625 20.328125 13.890625 
Q 24.171875 6.390625 31.78125 6.390625 
Q 39.453125 6.390625 43.28125 13.890625 
Q 47.125 21.390625 47.125 36.375 
Q 47.125 51.421875 43.28125 58.90625 
Q 39.453125 66.40625 31.78125 66.40625 
M 31.78125 74.21875 
Q 44.046875 74.21875 50.515625 64.515625 
Q 56.984375 54.828125 56.984375 36.375 
Q 56.984375 17.96875 50.515625 8.265625 
Q 44.046875 -1.421875 31.78125 -1.421875 
Q 19.53125 -1.421875 13.0625 8.265625 
Q 6.59375 17.96875 6.59375 36.375 
Q 6.59375 54.828125 13.0625 64.515625 
Q 19.53125 74.21875 31.78125 74.21875 
" id="DejaVuSans-30"/>
       <path d="M 10.6875 12.40625 
L 21 12.40625 
L 21 0 
L 10.6875 0 
z
" id="DejaVuSans-2e"/>
      </defs>
      <g transform="translate(35.829688 316.465937)scale(0.1 -0.1)">
       <use xlink:href="#DejaVuSans-30"/>
       <use x="63.623047" xlink:href="#DejaVuSans-2e"/>
       <use x="95.410156" xlink:href="#DejaVuSans-30"/>
      </g>
     </g>
    </g>
    <g id="xtick_2">
     <g id="line2d_2">
      <g>
       <use style="stroke:#000000;stroke-width:0.8;" x="115.20525" xlink:href="#m7732ece734" y="301.8675"/>
      </g>
     </g>
     <g id="text_2">
      <!-- 0.2 -->
      <defs>
       <path d="M 19.1875 8.296875 
L 53.609375 8.296875 
L 53.609375 0 
L 7.328125 0 
L 7.328125 8.296875 
Q 12.9375 14.109375 22.625 23.890625 
Q 32.328125 33.6875 34.8125 36.53125 
Q 39.546875 41.84375 41.421875 45.53125 
Q 43.3125 49.21875 43.3125 52.78125 
Q 43.3125 58.59375 39.234375 62.25 
Q 35.15625 65.921875 28.609375 65.921875 
Q 23.96875 65.921875 18.8125 64.3125 
Q 13.671875 62.703125 7.8125 59.421875 
L 7.8125 69.390625 
Q 13.765625 71.78125 18.9375 73 
Q 24.125 74.21875 28.421875 74.21875 
Q 39.75 74.21875 46.484375 68.546875 
Q 53.21875 62.890625 53.21875 53.421875 
Q 53.21875 48.921875 51.53125 44.890625 
Q 49.859375 40.875 45.40625 35.40625 
Q 44.1875 33.984375 37.640625 27.21875 
Q 31.109375 20.453125 19.1875 8.296875 
" id="DejaVuSans-32"/>
      </defs>
      <g transform="translate(107.253688 316.465937)scale(0.1 -0.1)">
       <use xlink:href="#DejaVuSans-30"/>
       <use x="63.623047" xlink:href="#DejaVuSans-2e"/>
       <use x="95.410156" xlink:href="#DejaVuSans-32"/>
      </g>
     </g>
    </g>
    <g id="xtick_3">
     <g id="line2d_3">
      <g>
       <use style="stroke:#000000;stroke-width:0.8;" x="186.62925" xlink:href="#m7732ece734" y="301.8675"/>
      </g>
     </g>
     <g id="text_3">
      <!-- 0.4 -->
      <defs>
       <path d="M 37.796875 64.3125 
L 12.890625 25.390625 
L 37.796875 25.390625 
z
M 35.203125 72.90625 
L 47.609375 72.90625 
L 47.609375 25.390625 
L 58.015625 25.390625 
L 58.015625 17.1875 
L 47.609375 17.1875 
L 47.609375 0 
L 37.796875 0 
L 37.796875 17.1875 
L 4.890625 17.1875 
L 4.890625 26.703125 
z
" id="DejaVuSans-34"/>
      </defs>
      <g transform="translate(178.677688 316.465937)scale(0.1 -0.1)">
       <use xlink:href="#DejaVuSans-30"/>
       <use x="63.623047" xlink:href="#DejaVuSans-2e"/>
       <use x="95.410156" xlink:href="#DejaVuSans-34"/>
      </g>
     </g>
    </g>
    <g id="xtick_4">
     <g id="line2d_4">
      <g>
       <use style="stroke:#000000;stroke-width:0.8;" x="258.05325" xlink:href="#m7732ece734" y="301.8675"/>
      </g>
     </g>
     <g id="text_4">
      <!-- 0.6 -->
      <defs>
       <path d="M 33.015625 40.375 
Q 26.375 40.375 22.484375 35.828125 
Q 18.609375 31.296875 18.609375 23.390625 
Q 18.609375 15.53125 22.484375 10.953125 
Q 26.375 6.390625 33.015625 6.390625 
Q 39.65625 6.390625 43.53125 10.953125 
Q 47.40625 15.53125 47.40625 23.390625 
Q 47.40625 31.296875 43.53125 35.828125 
Q 39.65625 40.375 33.015625 40.375 
M 52.59375 71.296875 
L 52.59375 62.3125 
Q 48.875 64.0625 45.09375 64.984375 
Q 41.3125 65.921875 37.59375 65.921875 
Q 27.828125 65.921875 22.671875 59.328125 
Q 17.53125 52.734375 16.796875 39.40625 
Q 19.671875 43.65625 24.015625 45.921875 
Q 28.375 48.1875 33.59375 48.1875 
Q 44.578125 48.1875 50.953125 41.515625 
Q 57.328125 34.859375 57.328125 23.390625 
Q 57.328125 12.15625 50.6875 5.359375 
Q 44.046875 -1.421875 33.015625 -1.421875 
Q 20.359375 -1.421875 13.671875 8.265625 
Q 6.984375 17.96875 6.984375 36.375 
Q 6.984375 53.65625 15.1875 63.9375 
Q 23.390625 74.21875 37.203125 74.21875 
Q 40.921875 74.21875 44.703125 73.484375 
Q 48.484375 72.75 52.59375 71.296875 
" id="DejaVuSans-36"/>
      </defs>
      <g transform="translate(250.101688 316.465937)scale(0.1 -0.1)">
       <use xlink:href="#DejaVuSans-30"/>
       <use x="63.623047" xlink:href="#DejaVuSans-2e"/>
       <use x="95.410156" xlink:href="#DejaVuSans-36"/>
      </g>
     </g>
    </g>
    <g id="xtick_5">
     <g id="line2d_5">
      <g>
       <use style="stroke:#000000;stroke-width:0.8;" x="329.47725" xlink:href="#m7732ece734" y="301.8675"/>
      </g>
     </g>
     <g id="text_5">
      <!-- 0.8 -->
      <defs>
       <path d="M 31.78125 34.625 
Q 24.75 34.625 20.71875 30.859375 
Q 16.703125 27.09375 16.703125 20.515625 
Q 16.703125 13.921875 20.71875 10.15625 
Q 24.75 6.390625 31.78125 6.390625 
Q 38.8125 6.390625 42.859375 10.171875 
Q 46.921875 13.96875 46.921875 20.515625 
Q 46.921875 27.09375 42.890625 30.859375 
Q 38.875 34.625 31.78125 34.625 
M 21.921875 38.8125 
Q 15.578125 40.375 12.03125 44.71875 
Q 8.5 49.078125 8.5 55.328125 
Q 8.5 64.0625 14.71875 69.140625 
Q 20.953125 74.21875 31.78125 74.21875 
Q 42.671875 74.21875 48.875 69.140625 
Q 55.078125 64.0625 55.078125 55.328125 
Q 55.078125 49.078125 51.53125 44.71875 
Q 48 40.375 41.703125 38.8125 
Q 48.828125 37.15625 52.796875 32.3125 
Q 56.78125 27.484375 56.78125 20.515625 
Q 56.78125 9.90625 50.3125 4.234375 
Q 43.84375 -1.421875 31.78125 -1.421875 
Q 19.734375 -1.421875 13.25 4.234375 
Q 6.78125 9.90625 6.78125 20.515625 
Q 6.78125 27.484375 10.78125 32.3125 
Q 14.796875 37.15625 21.921875 38.8125 
M 18.3125 54.390625 
Q 18.3125 48.734375 21.84375 45.5625 
Q 25.390625 42.390625 31.78125 42.390625 
Q 38.140625 42.390625 41.71875 45.5625 
Q 45.3125 48.734375 45.3125 54.390625 
Q 45.3125 60.0625 41.71875 63.234375 
Q 38.140625 66.40625 31.78125 66.40625 
Q 25.390625 66.40625 21.84375 63.234375 
Q 18.3125 60.0625 18.3125 54.390625 
" id="DejaVuSans-38"/>
      </defs>
      <g transform="translate(321.525688 316.465937)scale(0.1 -0.1)">
       <use xlink:href="#DejaVuSans-30"/>
       <use x="63.623047" xlink:href="#DejaVuSans-2e"/>
       <use x="95.410156" xlink:href="#DejaVuSans-38"/>
      </g>
     </g>
    </g>
    <g id="xtick_6">
     <g id="line2d_6">
      <g>
       <use style="stroke:#000000;stroke-width:0.8;" x="400.90125" xlink:href="#m7732ece734" y="301.8675"/>
      </g>
     </g>
     <g id="text_6">
      <!-- 1.0 -->
      <defs>
       <path d="M 12.40625 8.296875 
L 28.515625 8.296875 
L 28.515625 63.921875 
L 10.984375 60.40625 
L 10.984375 69.390625 
L 28.421875 72.90625 
L 38.28125 72.90625 
L 38.28125 8.296875 
L 54.390625 8.296875 
L 54.390625 0 
L 12.40625 0 
z
" id="DejaVuSans-31"/>
      </defs>
      <g transform="translate(392.949688 316.465937)scale(0.1 -0.1)">
       <use xlink:href="#DejaVuSans-31"/>
       <use x="63.623047" xlink:href="#DejaVuSans-2e"/>
       <use x="95.410156" xlink:href="#DejaVuSans-30"/>
      </g>
     </g>
    </g>
    <g id="text_7">
     <!-- False Positive Rate -->
     <defs>
      <path d="M 9.8125 72.90625 
L 51.703125 72.90625 
L 51.703125 64.59375 
L 19.671875 64.59375 
L 19.671875 43.109375 
L 48.578125 43.109375 
L 48.578125 34.8125 
L 19.671875 34.8125 
L 19.671875 0 
L 9.8125 0 
z
" id="DejaVuSans-46"/>
      <path d="M 34.28125 27.484375 
Q 23.390625 27.484375 19.1875 25 
Q 14.984375 22.515625 14.984375 16.5 
Q 14.984375 11.71875 18.140625 8.90625 
Q 21.296875 6.109375 26.703125 6.109375 
Q 34.1875 6.109375 38.703125 11.40625 
Q 43.21875 16.703125 43.21875 25.484375 
L 43.21875 27.484375 
z
M 52.203125 31.203125 
L 52.203125 0 
L 43.21875 0 
L 43.21875 8.296875 
Q 40.140625 3.328125 35.546875 0.953125 
Q 30.953125 -1.421875 24.3125 -1.421875 
Q 15.921875 -1.421875 10.953125 3.296875 
Q 6 8.015625 6 15.921875 
Q 6 25.140625 12.171875 29.828125 
Q 18.359375 34.515625 30.609375 34.515625 
L 43.21875 34.515625 
L 43.21875 35.40625 
Q 43.21875 41.609375 39.140625 45 
Q 35.0625 48.390625 27.6875 48.390625 
Q 23 48.390625 18.546875 47.265625 
Q 14.109375 46.140625 10.015625 43.890625 
L 10.015625 52.203125 
Q 14.9375 54.109375 19.578125 55.046875 
Q 24.21875 56 28.609375 56 
Q 40.484375 56 46.34375 49.84375 
Q 52.203125 43.703125 52.203125 31.203125 
" id="DejaVuSans-61"/>
      <path d="M 9.421875 75.984375 
L 18.40625 75.984375 
L 18.40625 0 
L 9.421875 0 
z
" id="DejaVuSans-6c"/>
      <path d="M 44.28125 53.078125 
L 44.28125 44.578125 
Q 40.484375 46.53125 36.375 47.5 
Q 32.28125 48.484375 27.875 48.484375 
Q 21.1875 48.484375 17.84375 46.4375 
Q 14.5 44.390625 14.5 40.28125 
Q 14.5 37.15625 16.890625 35.375 
Q 19.28125 33.59375 26.515625 31.984375 
L 29.59375 31.296875 
Q 39.15625 29.25 43.1875 25.515625 
Q 47.21875 21.78125 47.21875 15.09375 
Q 47.21875 7.46875 41.1875 3.015625 
Q 35.15625 -1.421875 24.609375 -1.421875 
Q 20.21875 -1.421875 15.453125 -0.5625 
Q 10.6875 0.296875 5.421875 2 
L 5.421875 11.28125 
Q 10.40625 8.6875 15.234375 7.390625 
Q 20.0625 6.109375 24.8125 6.109375 
Q 31.15625 6.109375 34.5625 8.28125 
Q 37.984375 10.453125 37.984375 14.40625 
Q 37.984375 18.0625 35.515625 20.015625 
Q 33.0625 21.96875 24.703125 23.78125 
L 21.578125 24.515625 
Q 13.234375 26.265625 9.515625 29.90625 
Q 5.8125 33.546875 5.8125 39.890625 
Q 5.8125 47.609375 11.28125 51.796875 
Q 16.75 56 26.8125 56 
Q 31.78125 56 36.171875 55.265625 
Q 40.578125 54.546875 44.28125 53.078125 
" id="DejaVuSans-73"/>
      <path d="M 56.203125 29.59375 
L 56.203125 25.203125 
L 14.890625 25.203125 
Q 15.484375 15.921875 20.484375 11.0625 
Q 25.484375 6.203125 34.421875 6.203125 
Q 39.59375 6.203125 44.453125 7.46875 
Q 49.3125 8.734375 54.109375 11.28125 
L 54.109375 2.78125 
Q 49.265625 0.734375 44.1875 -0.34375 
Q 39.109375 -1.421875 33.890625 -1.421875 
Q 20.796875 -1.421875 13.15625 6.1875 
Q 5.515625 13.8125 5.515625 26.8125 
Q 5.515625 40.234375 12.765625 48.109375 
Q 20.015625 56 32.328125 56 
Q 43.359375 56 49.78125 48.890625 
Q 56.203125 41.796875 56.203125 29.59375 
M 47.21875 32.234375 
Q 47.125 39.59375 43.09375 43.984375 
Q 39.0625 48.390625 32.421875 48.390625 
Q 24.90625 48.390625 20.390625 44.140625 
Q 15.875 39.890625 15.1875 32.171875 
z
" id="DejaVuSans-65"/>
      <path id="DejaVuSans-20"/>
      <path d="M 19.671875 64.796875 
L 19.671875 37.40625 
L 32.078125 37.40625 
Q 38.96875 37.40625 42.71875 40.96875 
Q 46.484375 44.53125 46.484375 51.125 
Q 46.484375 57.671875 42.71875 61.234375 
Q 38.96875 64.796875 32.078125 64.796875 
z
M 9.8125 72.90625 
L 32.078125 72.90625 
Q 44.34375 72.90625 50.609375 67.359375 
Q 56.890625 61.8125 56.890625 51.125 
Q 56.890625 40.328125 50.609375 34.8125 
Q 44.34375 29.296875 32.078125 29.296875 
L 19.671875 29.296875 
L 19.671875 0 
L 9.8125 0 
z
" id="DejaVuSans-50"/>
      <path d="M 30.609375 48.390625 
Q 23.390625 48.390625 19.1875 42.75 
Q 14.984375 37.109375 14.984375 27.296875 
Q 14.984375 17.484375 19.15625 11.84375 
Q 23.34375 6.203125 30.609375 6.203125 
Q 37.796875 6.203125 41.984375 11.859375 
Q 46.1875 17.53125 46.1875 27.296875 
Q 46.1875 37.015625 41.984375 42.703125 
Q 37.796875 48.390625 30.609375 48.390625 
M 30.609375 56 
Q 42.328125 56 49.015625 48.375 
Q 55.71875 40.765625 55.71875 27.296875 
Q 55.71875 13.875 49.015625 6.21875 
Q 42.328125 -1.421875 30.609375 -1.421875 
Q 18.84375 -1.421875 12.171875 6.21875 
Q 5.515625 13.875 5.515625 27.296875 
Q 5.515625 40.765625 12.171875 48.375 
Q 18.84375 56 30.609375 56 
" id="DejaVuSans-6f"/>
      <path d="M 9.421875 54.6875 
L 18.40625 54.6875 
L 18.40625 0 
L 9.421875 0 
z
M 9.421875 75.984375 
L 18.40625 75.984375 
L 18.40625 64.59375 
L 9.421875 64.59375 
z
" id="DejaVuSans-69"/>
      <path d="M 18.3125 70.21875 
L 18.3125 54.6875 
L 36.8125 54.6875 
L 36.8125 47.703125 
L 18.3125 47.703125 
L 18.3125 18.015625 
Q 18.3125 11.328125 20.140625 9.421875 
Q 21.96875 7.515625 27.59375 7.515625 
L 36.8125 7.515625 
L 36.8125 0 
L 27.59375 0 
Q 17.1875 0 13.234375 3.875 
Q 9.28125 7.765625 9.28125 18.015625 
L 9.28125 47.703125 
L 2.6875 47.703125 
L 2.6875 54.6875 
L 9.28125 54.6875 
L 9.28125 70.21875 
z
" id="DejaVuSans-74"/>
      <path d="M 2.984375 54.6875 
L 12.5 54.6875 
L 29.59375 8.796875 
L 46.6875 54.6875 
L 56.203125 54.6875 
L 35.6875 0 
L 23.484375 0 
z
" id="DejaVuSans-76"/>
      <path d="M 44.390625 34.1875 
Q 47.5625 33.109375 50.5625 29.59375 
Q 53.5625 26.078125 56.59375 19.921875 
L 66.609375 0 
L 56 0 
L 46.6875 18.703125 
Q 43.0625 26.03125 39.671875 28.421875 
Q 36.28125 30.8125 30.421875 30.8125 
L 19.671875 30.8125 
L 19.671875 0 
L 9.8125 0 
L 9.8125 72.90625 
L 32.078125 72.90625 
Q 44.578125 72.90625 50.734375 67.671875 
Q 56.890625 62.453125 56.890625 51.90625 
Q 56.890625 45.015625 53.6875 40.46875 
Q 50.484375 35.9375 44.390625 34.1875 
M 19.671875 64.796875 
L 19.671875 38.921875 
L 32.078125 38.921875 
Q 39.203125 38.921875 42.84375 42.21875 
Q 46.484375 45.515625 46.484375 51.90625 
Q 46.484375 58.296875 42.84375 61.546875 
Q 39.203125 64.796875 32.078125 64.796875 
z
" id="DejaVuSans-52"/>
     </defs>
     <g transform="translate(175.135781 330.144062)scale(0.1 -0.1)">
      <use xlink:href="#DejaVuSans-46"/>
      <use x="57.378906" xlink:href="#DejaVuSans-61"/>
      <use x="118.658203" xlink:href="#DejaVuSans-6c"/>
      <use x="146.441406" xlink:href="#DejaVuSans-73"/>
      <use x="198.541016" xlink:href="#DejaVuSans-65"/>
      <use x="260.064453" xlink:href="#DejaVuSans-20"/>
      <use x="291.851562" xlink:href="#DejaVuSans-50"/>
      <use x="352.107422" xlink:href="#DejaVuSans-6f"/>
      <use x="413.289062" xlink:href="#DejaVuSans-73"/>
      <use x="465.388672" xlink:href="#DejaVuSans-69"/>
      <use x="493.171875" xlink:href="#DejaVuSans-74"/>
      <use x="532.380859" xlink:href="#DejaVuSans-69"/>
      <use x="560.164062" xlink:href="#DejaVuSans-76"/>
      <use x="619.34375" xlink:href="#DejaVuSans-65"/>
      <use x="680.867188" xlink:href="#DejaVuSans-20"/>
      <use x="712.654297" xlink:href="#DejaVuSans-52"/>
      <use x="782.105469" xlink:href="#DejaVuSans-61"/>
      <use x="843.384766" xlink:href="#DejaVuSans-74"/>
      <use x="882.59375" xlink:href="#DejaVuSans-65"/>
     </g>
    </g>
   </g>
   <g id="matplotlib.axis_2">
    <g id="ytick_1">
     <g id="line2d_7">
      <defs>
       <path d="M 0 0 
L -3.5 0 
" id="me0809a70e8" style="stroke:#000000;stroke-width:0.8;"/>
      </defs>
      <g>
       <use style="stroke:#000000;stroke-width:0.8;" x="43.78125" xlink:href="#me0809a70e8" y="301.8675"/>
      </g>
     </g>
     <g id="text_8">
      <!-- 0.0 -->
      <g transform="translate(20.878125 305.666719)scale(0.1 -0.1)">
       <use xlink:href="#DejaVuSans-30"/>
       <use x="63.623047" xlink:href="#DejaVuSans-2e"/>
       <use x="95.410156" xlink:href="#DejaVuSans-30"/>
      </g>
     </g>
    </g>
    <g id="ytick_2">
     <g id="line2d_8">
      <g>
       <use style="stroke:#000000;stroke-width:0.8;" x="43.78125" xlink:href="#me0809a70e8" y="251.1795"/>
      </g>
     </g>
     <g id="text_9">
      <!-- 0.2 -->
      <g transform="translate(20.878125 254.978719)scale(0.1 -0.1)">
       <use xlink:href="#DejaVuSans-30"/>
       <use x="63.623047" xlink:href="#DejaVuSans-2e"/>
       <use x="95.410156" xlink:href="#DejaVuSans-32"/>
      </g>
     </g>
    </g>
    <g id="ytick_3">
     <g id="line2d_9">
      <g>
       <use style="stroke:#000000;stroke-width:0.8;" x="43.78125" xlink:href="#me0809a70e8" y="200.4915"/>
      </g>
     </g>
     <g id="text_10">
      <!-- 0.4 -->
      <g transform="translate(20.878125 204.290719)scale(0.1 -0.1)">
       <use xlink:href="#DejaVuSans-30"/>
       <use x="63.623047" xlink:href="#DejaVuSans-2e"/>
       <use x="95.410156" xlink:href="#DejaVuSans-34"/>
      </g>
     </g>
    </g>
    <g id="ytick_4">
     <g id="line2d_10">
      <g>
       <use style="stroke:#000000;stroke-width:0.8;" x="43.78125" xlink:href="#me0809a70e8" y="149.8035"/>
      </g>
     </g>
     <g id="text_11">
      <!-- 0.6 -->
      <g transform="translate(20.878125 153.602719)scale(0.1 -0.1)">
       <use xlink:href="#DejaVuSans-30"/>
       <use x="63.623047" xlink:href="#DejaVuSans-2e"/>
       <use x="95.410156" xlink:href="#DejaVuSans-36"/>
      </g>
     </g>
    </g>
    <g id="ytick_5">
     <g id="line2d_11">
      <g>
       <use style="stroke:#000000;stroke-width:0.8;" x="43.78125" xlink:href="#me0809a70e8" y="99.1155"/>
      </g>
     </g>
     <g id="text_12">
      <!-- 0.8 -->
      <g transform="translate(20.878125 102.914719)scale(0.1 -0.1)">
       <use xlink:href="#DejaVuSans-30"/>
       <use x="63.623047" xlink:href="#DejaVuSans-2e"/>
       <use x="95.410156" xlink:href="#DejaVuSans-38"/>
      </g>
     </g>
    </g>
    <g id="ytick_6">
     <g id="line2d_12">
      <g>
       <use style="stroke:#000000;stroke-width:0.8;" x="43.78125" xlink:href="#me0809a70e8" y="48.4275"/>
      </g>
     </g>
     <g id="text_13">
      <!-- 1.0 -->
      <g transform="translate(20.878125 52.226719)scale(0.1 -0.1)">
       <use xlink:href="#DejaVuSans-31"/>
       <use x="63.623047" xlink:href="#DejaVuSans-2e"/>
       <use x="95.410156" xlink:href="#DejaVuSans-30"/>
      </g>
     </g>
    </g>
    <g id="text_14">
     <!-- True Positive Rate -->
     <defs>
      <path d="M -0.296875 72.90625 
L 61.375 72.90625 
L 61.375 64.59375 
L 35.5 64.59375 
L 35.5 0 
L 25.59375 0 
L 25.59375 64.59375 
L -0.296875 64.59375 
z
" id="DejaVuSans-54"/>
      <path d="M 41.109375 46.296875 
Q 39.59375 47.171875 37.8125 47.578125 
Q 36.03125 48 33.890625 48 
Q 26.265625 48 22.1875 43.046875 
Q 18.109375 38.09375 18.109375 28.8125 
L 18.109375 0 
L 9.078125 0 
L 9.078125 54.6875 
L 18.109375 54.6875 
L 18.109375 46.1875 
Q 20.953125 51.171875 25.484375 53.578125 
Q 30.03125 56 36.53125 56 
Q 37.453125 56 38.578125 55.875 
Q 39.703125 55.765625 41.0625 55.515625 
z
" id="DejaVuSans-72"/>
      <path d="M 8.5 21.578125 
L 8.5 54.6875 
L 17.484375 54.6875 
L 17.484375 21.921875 
Q 17.484375 14.15625 20.5 10.265625 
Q 23.53125 6.390625 29.59375 6.390625 
Q 36.859375 6.390625 41.078125 11.03125 
Q 45.3125 15.671875 45.3125 23.6875 
L 45.3125 54.6875 
L 54.296875 54.6875 
L 54.296875 0 
L 45.3125 0 
L 45.3125 8.40625 
Q 42.046875 3.421875 37.71875 1 
Q 33.40625 -1.421875 27.6875 -1.421875 
Q 18.265625 -1.421875 13.375 4.4375 
Q 8.5 10.296875 8.5 21.578125 
M 31.109375 56 
z
" id="DejaVuSans-75"/>
     </defs>
     <g transform="translate(14.798438 214.357594)rotate(-90)scale(0.1 -0.1)">
      <use xlink:href="#DejaVuSans-54"/>
      <use x="60.865234" xlink:href="#DejaVuSans-72"/>
      <use x="101.978516" xlink:href="#DejaVuSans-75"/>
      <use x="165.357422" xlink:href="#DejaVuSans-65"/>
      <use x="226.880859" xlink:href="#DejaVuSans-20"/>
      <use x="258.667969" xlink:href="#DejaVuSans-50"/>
      <use x="318.923828" xlink:href="#DejaVuSans-6f"/>
      <use x="380.105469" xlink:href="#DejaVuSans-73"/>
      <use x="432.205078" xlink:href="#DejaVuSans-69"/>
      <use x="459.988281" xlink:href="#DejaVuSans-74"/>
      <use x="499.197266" xlink:href="#DejaVuSans-69"/>
      <use x="526.980469" xlink:href="#DejaVuSans-76"/>
      <use x="586.160156" xlink:href="#DejaVuSans-65"/>
      <use x="647.683594" xlink:href="#DejaVuSans-20"/>
      <use x="679.470703" xlink:href="#DejaVuSans-52"/>
      <use x="748.921875" xlink:href="#DejaVuSans-61"/>
      <use x="810.201172" xlink:href="#DejaVuSans-74"/>
      <use x="849.410156" xlink:href="#DejaVuSans-65"/>
     </g>
    </g>
   </g>
   <g id="line2d_13">
    <path clip-path="url(#p854f437143)" d="M 43.78125 301.8675 
L 44.152371 301.8675 
L 44.219848 301.244797 
L 44.354801 301.244797 
L 44.624708 298.753986 
L 44.692184 298.131284 
L 44.894614 298.131284 
L 45.913511 289.413446 
L 46.115941 289.413446 
L 47.431735 277.270743 
L 47.566688 277.270743 
L 47.694894 276.336689 
L 50.366968 253.296689 
L 50.434445 253.296689 
L 50.839304 252.051284 
L 51.102463 249.249122 
L 51.304893 249.249122 
L 51.520818 245.512905 
L 51.655771 243.333446 
L 51.790725 243.333446 
L 52.067379 238.974527 
L 52.600444 234.926959 
L 52.971565 234.926959 
L 53.133509 232.124797 
L 53.302201 232.124797 
L 53.437154 231.502095 
L 53.538369 231.502095 
L 53.727303 230.256689 
L 54.334593 230.256689 
L 54.557266 228.388581 
L 54.928387 228.388581 
L 55.097079 226.520473 
L 55.26577 226.520473 
L 55.44121 224.029662 
L 55.812331 224.029662 
L 55.98777 221.538851 
L 56.055247 221.538851 
L 56.156462 221.2275 
L 56.426368 221.2275 
L 56.635546 219.359392 
L 57.647695 219.359392 
L 57.809639 216.868581 
L 58.416928 216.868581 
L 58.47091 216.245878 
L 58.740816 216.245878 
L 58.794797 215.623176 
L 59.098442 215.623176 
L 59.152424 215.000473 
L 59.354853 215.000473 
L 59.42233 214.37777 
L 59.860928 214.37777 
L 60.184816 211.264257 
L 60.353507 211.264257 
L 60.542442 209.396149 
L 61.520853 209.396149 
L 61.885227 204.725878 
L 62.22261 204.725878 
L 62.330572 202.85777 
L 62.56674 202.85777 
L 62.688198 201.612365 
L 63.160535 201.612365 
L 63.295488 200.989662 
L 63.497918 200.989662 
L 63.734086 199.432905 
L 64.138946 199.432905 
L 64.260404 198.1875 
L 64.496572 198.1875 
L 64.685506 196.319392 
L 65.056628 196.319392 
L 65.353525 193.205878 
L 65.555955 193.205878 
L 65.697655 191.960473 
L 65.866347 191.960473 
L 66.014796 189.469662 
L 66.385917 189.469662 
L 66.554609 188.846959 
L 66.858253 188.846959 
L 67.060683 186.6675 
L 67.33059 186.6675 
L 67.398066 186.356149 
L 67.904141 186.356149 
L 68.072832 186.044797 
L 68.309001 186.044797 
L 68.376477 185.422095 
L 68.781337 185.422095 
L 69.071486 183.242635 
L 69.172701 182.308581 
L 69.381879 179.81777 
L 69.483094 179.81777 
L 69.584309 178.883716 
L 69.921692 178.883716 
L 70.178103 177.326959 
L 70.414271 177.326959 
L 70.549224 176.704257 
L 70.751654 176.704257 
L 71.122776 175.1475 
L 72.640999 175.1475 
L 72.708476 174.524797 
L 72.978383 174.524797 
L 73.045859 173.902095 
L 73.720625 173.902095 
L 73.855579 173.279392 
L 75.340064 173.279392 
L 75.475017 172.033986 
L 75.846139 172.033986 
L 76.041821 171.411284 
L 76.311727 171.411284 
L 76.379204 170.788581 
L 76.581634 170.788581 
L 76.716587 169.231824 
L 76.838045 167.675068 
L 77.34412 167.675068 
L 77.600531 165.495608 
L 77.668007 165.184257 
L 79.523614 165.184257 
L 79.624829 164.250203 
L 81.379221 164.250203 
L 81.446698 163.6275 
L 81.952773 163.6275 
L 82.006754 163.004797 
L 82.816473 163.004797 
L 82.97167 162.382095 
L 83.1741 161.759392 
L 83.342791 161.759392 
L 83.396772 161.136689 
L 84.813781 161.136689 
L 84.881258 160.202635 
L 86.02836 160.202635 
L 86.095837 158.95723 
L 88.558734 158.95723 
L 88.680192 158.334527 
L 88.848883 158.334527 
L 88.91636 157.711824 
L 89.928509 157.711824 
L 90.164677 156.155068 
L 91.31178 156.155068 
L 91.439985 155.532365 
L 91.844845 155.532365 
L 91.905574 154.909662 
L 92.040527 154.909662 
L 92.17548 154.286959 
L 93.153891 154.286959 
L 93.221368 153.664257 
L 94.233517 153.664257 
L 94.435947 152.1075 
L 95.110713 152.1075 
L 95.279405 151.173446 
L 97.202488 151.173446 
L 97.337442 150.239392 
L 98.720712 150.239392 
L 98.788189 149.928041 
L 100.205198 149.928041 
L 100.272674 149.305338 
L 100.576319 149.305338 
L 100.839478 146.814527 
L 100.940693 146.814527 
L 101.109385 146.503176 
L 101.919104 146.503176 
L 102.195758 142.766959 
L 103.376599 142.766959 
L 103.626262 141.210203 
L 104.840841 141.210203 
L 104.975795 140.276149 
L 105.07701 139.964797 
L 105.205215 139.342095 
L 105.879981 139.342095 
L 106.014935 138.408041 
L 107.162037 138.408041 
L 107.263252 138.096689 
L 108.072971 138.096689 
L 108.126953 137.162635 
L 108.565551 137.162635 
L 108.734242 136.228581 
L 110.387419 136.228581 
L 110.454896 135.91723 
L 112.006858 135.91723 
L 112.162055 135.294527 
L 113.309157 135.294527 
L 113.376634 134.983176 
L 114.928596 134.983176 
L 114.982577 134.360473 
L 115.387437 134.049122 
L 115.488652 134.049122 
L 115.61011 132.803716 
L 116.149923 132.803716 
L 116.217399 132.181014 
L 116.757212 132.181014 
L 116.844932 131.246959 
L 118.025773 131.246959 
L 118.194464 130.312905 
L 120.387454 130.312905 
L 120.488669 129.378851 
L 121.163435 129.378851 
L 121.217417 128.444797 
L 122.195828 128.444797 
L 122.263304 128.133446 
L 122.600687 128.133446 
L 122.735641 127.510743 
L 123.916481 127.510743 
L 124.15265 126.888041 
L 124.220126 126.888041 
L 124.321341 126.576689 
L 125.502182 126.576689 
L 125.670873 126.265338 
L 134.847693 126.265338 
L 134.901675 125.642635 
L 135.137843 125.642635 
L 135.306534 125.331284 
L 136.58859 125.331284 
L 136.99345 125.019932 
L 139.625038 124.708581 
L 139.692515 120.972365 
L 139.827468 120.972365 
L 139.894944 120.349662 
L 140.333542 120.349662 
L 140.569711 119.104257 
L 140.839617 119.104257 
L 140.907094 118.792905 
L 140.94758 115.990743 
L 141.419916 115.990743 
L 141.473897 115.368041 
L 142.992121 115.368041 
L 143.113579 114.433986 
L 143.855822 114.433986 
L 144.011018 113.499932 
L 144.483354 113.499932 
L 144.584569 112.565878 
L 145.293074 112.565878 
L 145.697934 112.254527 
L 150.117652 112.254527 
L 150.252605 111.943176 
L 151.872044 111.943176 
L 152.02724 111.009122 
L 152.094717 111.009122 
L 152.175689 110.075068 
L 154.402417 110.075068 
L 154.584604 107.584257 
L 156.980024 107.584257 
L 157.722267 106.338851 
L 157.992173 106.338851 
L 158.046155 105.716149 
L 159.092042 105.716149 
L 159.220248 103.848041 
L 159.726322 103.225338 
L 163.808658 103.225338 
L 166.440246 96.375608 
L 166.507723 91.705338 
L 167.789778 91.705338 
L 170.55632 89.83723 
L 171.905852 89.83723 
L 172.108282 89.525878 
L 172.884263 89.525878 
L 173.154169 89.214527 
L 177.675103 89.214527 
L 177.776318 88.280473 
L 178.990897 88.280473 
L 179.058373 86.412365 
L 180.745289 86.412365 
L 180.812766 85.789662 
L 181.858653 85.789662 
L 181.912634 84.855608 
L 184.00441 84.855608 
L 184.044896 82.9875 
L 186.440315 82.9875 
L 186.561773 82.364797 
L 188.005773 82.364797 
L 188.127231 81.742095 
L 191.062464 81.742095 
L 191.5348 79.873986 
L 192.411996 79.873986 
L 192.479473 79.251284 
L 195.617135 79.251284 
L 198.451153 78.31723 
L 201.86547 78.31723 
L 202.088143 77.071824 
L 203.235246 77.071824 
L 203.484909 75.203716 
L 204.766965 75.203716 
L 204.901918 74.892365 
L 210.69816 74.892365 
L 210.900589 74.269662 
L 217.378345 74.269662 
L 217.587522 72.401554 
L 219.402643 72.401554 
L 219.463372 70.533446 
L 220.003185 70.533446 
L 220.158381 69.599392 
L 220.596979 69.599392 
L 220.752176 68.665338 
L 220.833148 67.731284 
L 227.445856 67.731284 
L 227.567314 67.108581 
L 228.579463 67.108581 
L 228.727912 66.174527 
L 229.807538 66.174527 
L 229.868267 64.306419 
L 230.441818 64.306419 
L 230.61051 63.683716 
L 241.339292 63.683716 
L 241.57546 63.061014 
L 243.97088 63.061014 
L 244.159814 62.126959 
L 252.391962 62.126959 
L 252.547158 61.192905 
L 256.730708 61.192905 
L 256.879157 60.258851 
L 258.835979 60.258851 
L 258.903455 59.9475 
L 260.387941 59.9475 
L 260.495904 58.079392 
L 260.900763 58.079392 
L 261.035717 57.768041 
L 267.95207 57.768041 
L 268.006051 56.833986 
L 270.165303 56.833986 
L 270.300256 56.522635 
L 278.437936 56.522635 
L 278.505413 54.654527 
L 291.29898 54.654527 
L 291.420438 53.720473 
L 309.301741 53.720473 
L 309.423199 53.09777 
L 315.091235 53.09777 
L 315.151964 51.229662 
L 326.420559 51.229662 
L 326.575755 50.295608 
L 338.65407 50.295608 
L 338.789023 49.984257 
L 344.524536 49.984257 
L 344.578517 49.361554 
L 376.758116 49.361554 
L 376.940303 48.4275 
L 400.90125 48.4275 
L 400.90125 48.4275 
" style="fill:none;stroke:#1f77b4;stroke-linecap:square;stroke-width:1.5;"/>
   </g>
   <g id="line2d_14">
    <path clip-path="url(#p854f437143)" d="M 43.78125 301.8675 
L 43.882465 301.8675 
L 43.98368 301.244797 
L 44.084895 298.131284 
L 44.287325 297.508581 
L 44.590969 297.508581 
L 47.290034 284.743176 
L 47.424987 283.809122 
L 47.694894 282.875068 
L 47.951305 278.8275 
L 48.828501 276.336689 
L 49.354819 271.97777 
L 49.52351 271.97777 
L 50.232015 267.618851 
L 50.468183 267.618851 
L 50.528912 266.996149 
L 53.093023 253.608041 
L 53.36293 253.608041 
L 53.430406 252.985338 
L 53.835266 252.985338 
L 54.172649 252.362635 
L 54.341341 252.362635 
L 54.510032 251.428581 
L 54.611247 251.428581 
L 54.779939 250.183176 
L 55.252275 247.381014 
L 55.387228 247.381014 
L 55.542424 243.333446 
L 55.609901 243.333446 
L 55.852817 241.465338 
L 55.920294 240.219932 
L 56.757004 233.992905 
L 57.094387 231.813446 
L 57.22934 231.813446 
L 57.398031 230.568041 
L 57.465508 230.568041 
L 57.701676 228.07723 
L 58.106536 228.07723 
L 58.275228 227.143176 
L 58.477657 227.143176 
L 58.747564 223.406959 
L 58.882517 223.406959 
L 58.949994 222.161554 
L 59.388592 222.161554 
L 59.62476 221.538851 
L 59.793451 219.670743 
L 60.063358 219.670743 
L 60.319769 216.245878 
L 60.825844 216.245878 
L 61.028274 214.066419 
L 61.264442 214.066419 
L 61.331918 212.821014 
L 61.514105 212.198311 
L 61.750273 209.7075 
L 62.02018 209.7075 
L 62.438535 205.971284 
L 62.640965 201.612365 
L 63.012086 201.612365 
L 63.147039 200.989662 
L 63.450684 200.989662 
L 63.551899 200.678311 
L 63.686852 200.678311 
L 63.943263 198.498851 
L 64.179432 198.498851 
L 64.395357 197.253446 
L 64.867693 197.253446 
L 65.205076 194.451284 
L 65.508721 194.451284 
L 65.677412 193.51723 
L 65.812366 193.51723 
L 65.920328 191.649122 
L 66.358926 191.649122 
L 66.595094 190.715068 
L 66.898739 190.715068 
L 67.236122 188.535608 
L 67.438552 188.535608 
L 67.506029 187.912905 
L 68.012103 187.912905 
L 68.07958 187.290203 
L 68.315748 187.290203 
L 68.497935 186.356149 
L 68.666627 186.356149 
L 68.821823 185.110743 
L 68.990514 185.110743 
L 69.091729 183.242635 
L 69.226683 183.242635 
L 69.496589 180.751824 
L 70.103879 180.751824 
L 70.394028 178.572365 
L 71.001318 178.572365 
L 71.055299 177.638311 
L 71.190252 177.638311 
L 71.271224 177.015608 
L 71.878514 177.015608 
L 72.23614 172.968041 
L 73.113336 172.968041 
L 73.612663 168.609122 
L 74.051261 168.609122 
L 74.118737 167.986419 
L 74.45612 167.986419 
L 74.557335 166.118311 
L 74.759765 166.118311 
L 74.813747 165.495608 
L 76.197017 165.495608 
L 76.33197 164.872905 
L 77.411596 164.872905 
L 77.54655 164.250203 
L 78.221316 164.250203 
L 78.356269 163.004797 
L 79.300942 163.004797 
L 79.368418 162.382095 
L 79.53711 160.513986 
L 79.975708 160.513986 
L 80.124156 159.891284 
L 80.461539 159.891284 
L 80.529016 159.268581 
L 84.881258 159.268581 
L 85.083688 158.334527 
L 85.421071 158.334527 
L 85.610005 156.77777 
L 87.398136 156.77777 
L 87.90421 155.843716 
L 88.477762 155.843716 
L 88.646453 153.975608 
L 88.815145 153.975608 
L 88.950098 153.041554 
L 89.827294 153.041554 
L 89.908266 152.418851 
L 90.211911 152.418851 
L 90.292883 151.796149 
L 91.305032 151.796149 
L 91.439985 151.173446 
L 94.037835 151.173446 
L 94.098564 149.305338 
L 97.843516 149.305338 
L 98.045946 148.682635 
L 98.923142 148.682635 
L 99.004114 147.748581 
L 101.703179 139.964797 
L 101.770655 139.964797 
L 101.892113 138.719392 
L 103.477814 138.719392 
L 103.896169 135.294527 
L 104.503458 135.294527 
L 104.570935 134.671824 
L 106.325327 134.671824 
L 106.763925 132.803716 
L 107.202523 132.803716 
L 107.27 132.181014 
L 108.383364 132.181014 
L 109.496728 129.690203 
L 110.879999 129.690203 
L 111.001457 129.0675 
L 111.811176 129.0675 
L 112.000111 126.576689 
L 112.101326 126.576689 
L 112.674877 124.708581 
L 113.585811 124.708581 
L 113.720764 123.774527 
L 114.328054 123.774527 
L 114.834129 122.529122 
L 120.19852 122.529122 
L 120.265996 121.283716 
L 120.603379 121.283716 
L 120.758576 120.661014 
L 121.129697 120.661014 
L 121.197174 119.726959 
L 122.411753 119.726959 
L 122.580444 119.104257 
L 122.985304 119.104257 
L 124.503528 115.368041 
L 127.978574 115.368041 
L 128.04605 114.433986 
L 129.294368 114.433986 
L 129.699228 113.188581 
L 132.735675 113.188581 
L 132.803152 112.565878 
L 134.658759 112.565878 
L 134.881432 111.009122 
L 135.994796 111.009122 
L 136.149992 110.386419 
L 136.521114 110.386419 
L 136.683057 108.518311 
L 138.572403 108.518311 
L 138.842309 107.895608 
L 139.41586 107.895608 
L 139.550814 107.272905 
L 143.700626 107.272905 
L 143.869317 106.961554 
L 144.004271 106.961554 
L 144.193205 105.716149 
L 144.867971 105.716149 
L 144.935448 104.782095 
L 145.137878 104.782095 
L 145.205354 103.848041 
L 146.08255 103.848041 
L 146.163522 102.913986 
L 148.525204 102.913986 
L 148.579185 102.291284 
L 148.950307 102.291284 
L 149.132493 101.668581 
L 149.773521 101.668581 
L 149.942213 101.045878 
L 150.785671 101.045878 
L 150.920624 99.800473 
L 151.629128 99.800473 
L 151.737091 98.555068 
L 152.243166 98.555068 
L 152.614287 97.621014 
L 159.73307 97.621014 
L 159.793799 95.752905 
L 160.536042 95.752905 
L 160.603518 94.818851 
L 160.907163 94.818851 
L 161.055612 93.884797 
L 161.932808 93.884797 
L 162.067761 92.639392 
L 163.855891 92.639392 
L 163.936863 91.705338 
L 164.240508 91.705338 
L 164.301237 89.83723 
L 167.270208 89.83723 
L 167.405162 89.214527 
L 167.607591 89.214527 
L 167.675068 88.591824 
L 167.978713 88.591824 
L 168.046189 87.969122 
L 168.720956 87.969122 
L 168.788432 87.346419 
L 170.104226 87.346419 
L 170.225684 86.723716 
L 171.035404 86.723716 
L 171.170357 86.101014 
L 171.339048 86.101014 
L 171.406525 85.478311 
L 171.811385 85.478311 
L 171.966581 84.855608 
L 175.407888 84.855608 
L 175.542842 84.232905 
L 175.711533 84.232905 
L 175.77901 83.298851 
L 178.444336 83.298851 
L 178.498318 82.676149 
L 178.700747 82.676149 
L 178.882934 82.053446 
L 179.793869 82.053446 
L 179.928822 81.430743 
L 183.133961 81.430743 
L 183.255419 80.808041 
L 183.457849 80.808041 
L 183.565812 79.562635 
L 185.286465 79.562635 
L 185.353942 78.939932 
L 186.129923 78.939932 
L 186.1974 78.31723 
L 187.749362 78.31723 
L 187.816838 77.383176 
L 189.874875 77.383176 
L 190.124539 76.760473 
L 190.360707 76.760473 
L 190.421436 75.515068 
L 192.310781 75.515068 
L 192.391753 74.581014 
L 193.066519 74.581014 
L 193.147491 73.958311 
L 196.690014 73.958311 
L 196.858705 73.024257 
L 197.634686 73.024257 
L 197.675172 71.778851 
L 198.11377 71.778851 
L 198.268967 71.156149 
L 209.942421 71.156149 
L 210.00315 69.288041 
L 210.779132 69.288041 
L 210.914085 68.353986 
L 219.011279 68.353986 
L 219.078756 67.731284 
L 224.240717 67.731284 
L 224.409408 66.79723 
L 226.399969 66.79723 
L 226.521426 66.174527 
L 227.061239 66.174527 
L 227.209688 65.551824 
L 238.181386 65.551824 
L 238.242115 63.683716 
L 241.966824 63.683716 
L 242.101778 63.061014 
L 248.883178 63.061014 
L 248.984393 62.126959 
L 253.100466 62.126959 
L 253.154448 61.504257 
L 261.993884 61.504257 
L 262.047866 60.881554 
L 263.599828 60.881554 
L 263.76852 59.9475 
L 274.639003 59.9475 
L 274.760461 59.324797 
L 275.968292 59.324797 
L 276.022273 58.702095 
L 276.49461 58.702095 
L 276.562086 57.768041 
L 276.899469 57.768041 
L 277.007432 57.145338 
L 283.350234 57.145338 
L 283.404215 56.522635 
L 294.841502 56.522635 
L 294.908979 55.899932 
L 297.101969 55.899932 
L 297.263913 55.27723 
L 297.601296 55.27723 
L 297.668772 54.343176 
L 303.566229 54.343176 
L 303.768659 53.409122 
L 321.447532 53.409122 
L 321.609476 51.541014 
L 327.743101 51.541014 
L 327.810578 50.918311 
L 331.791698 50.918311 
L 331.859175 50.295608 
L 346.636554 50.295608 
L 346.805245 49.361554 
L 386.312805 49.361554 
L 386.393777 48.4275 
L 400.90125 48.4275 
L 400.90125 48.4275 
" style="fill:none;stroke:#ff7f0e;stroke-linecap:square;stroke-width:1.5;"/>
   </g>
   <g id="line2d_15">
    <path clip-path="url(#p854f437143)" d="M 43.78125 301.8675 
L 44.186117 299.373625 
L 44.590985 299.373625 
L 44.72594 295.632814 
L 44.793418 295.632814 
L 47.155145 282.539972 
L 47.222623 282.539972 
L 47.357578 280.046098 
L 47.492534 279.422629 
L 51.439991 255.419087 
L 51.676163 255.419087 
L 51.844858 254.795618 
L 51.912336 254.795618 
L 52.553376 252.613478 
L 53.093199 252.613478 
L 53.295633 251.990009 
L 53.363111 251.990009 
L 54.010899 247.00226 
L 54.145854 247.00226 
L 54.274062 245.131854 
L 54.483244 243.261448 
L 54.685677 243.261448 
L 54.888111 241.391042 
L 55.191762 241.391042 
L 55.427934 239.520637 
L 55.529151 239.520637 
L 55.731585 237.650231 
L 55.90028 236.715028 
L 56.305147 235.156356 
L 56.406364 235.156356 
L 56.507581 233.28595 
L 56.710014 233.28595 
L 57.013665 228.92167 
L 57.081143 228.92167 
L 57.371298 224.557389 
L 57.641209 224.557389 
L 57.843643 222.686983 
L 58.720855 222.686983 
L 59.017758 219.56964 
L 59.118975 219.56964 
L 59.760015 214.270157 
L 60.131143 212.711485 
L 60.367316 212.711485 
L 60.461785 210.841079 
L 60.832914 210.841079 
L 60.886896 210.217611 
L 61.325502 210.217611 
L 61.494197 209.282408 
L 61.595414 209.282408 
L 61.662892 208.658939 
L 61.932803 208.658939 
L 62.101498 207.412002 
L 62.418644 204.918127 
L 62.688556 204.918127 
L 62.85725 203.67119 
L 63.025945 203.67119 
L 63.208135 202.735987 
L 63.275613 202.735987 
L 63.343091 202.112518 
L 63.646742 202.112518 
L 63.849175 198.371707 
L 64.051609 198.371707 
L 64.220304 197.748238 
L 64.523954 197.748238 
L 64.793866 196.501301 
L 64.861344 196.501301 
L 65.063777 194.630895 
L 65.333689 194.630895 
L 65.603601 193.072223 
L 65.873512 193.072223 
L 65.954486 192.13702 
L 66.46057 192.13702 
L 66.561787 191.201817 
L 67.506477 191.201817 
L 67.661676 190.578349 
L 67.729154 190.578349 
L 67.830371 188.707943 
L 68.977495 188.707943 
L 69.078712 188.084474 
L 70.057141 188.084474 
L 70.192097 187.461006 
L 70.394531 187.461006 
L 70.462009 186.214068 
L 70.664443 186.214068 
L 70.833137 185.5906 
L 71.170527 185.5906 
L 71.339221 184.343662 
L 71.811567 184.343662 
L 72.014 183.408459 
L 72.317651 183.408459 
L 72.486346 181.538054 
L 72.99243 181.538054 
L 73.11389 180.291116 
L 74.024842 180.291116 
L 74.159797 179.667648 
L 75.104488 179.667648 
L 75.259687 179.044179 
L 76.305594 179.044179 
L 76.406811 178.108976 
L 76.912895 178.108976 
L 76.966878 177.485507 
L 78.215219 177.485507 
L 78.269201 176.862039 
L 78.910241 176.862039 
L 79.078936 174.991633 
L 79.24763 174.05643 
L 79.753715 174.05643 
L 79.821193 172.809493 
L 80.259799 172.809493 
L 80.313781 172.186024 
L 81.157255 172.186024 
L 81.427166 169.692149 
L 81.562122 169.692149 
L 81.683582 169.068681 
L 82.155928 169.068681 
L 82.297631 167.198275 
L 82.635021 167.198275 
L 82.803715 165.951338 
L 84.018317 165.951338 
L 84.085795 165.327869 
L 85.23292 165.327869 
L 85.300397 164.7044 
L 86.042654 164.7044 
L 86.096637 164.080932 
L 86.231592 164.080932 
L 86.413783 163.145729 
L 86.953606 163.145729 
L 87.095309 161.898792 
L 87.297743 161.898792 
L 87.486681 160.028386 
L 87.689115 158.15798 
L 87.925287 158.15798 
L 88.093982 157.534511 
L 88.566327 157.534511 
L 88.667544 156.287574 
L 88.937456 156.287574 
L 88.977943 155.040637 
L 89.247854 155.040637 
L 89.288341 153.793699 
L 89.490775 151.923293 
L 90.300509 151.923293 
L 90.435465 151.299825 
L 90.536682 151.299825 
L 90.739116 150.364622 
L 90.941549 149.741153 
L 91.616328 149.741153 
L 91.906483 148.494216 
L 92.108917 148.494216 
L 92.311351 146.935544 
L 93.019868 146.935544 
L 93.121085 146.312076 
L 93.829603 146.312076 
L 94.018541 145.065138 
L 95.401838 145.065138 
L 95.604272 144.129935 
L 95.67175 144.129935 
L 95.752723 143.506467 
L 96.292546 143.506467 
L 96.360024 142.882998 
L 97.338454 142.882998 
L 97.520644 141.012592 
L 97.858033 141.012592 
L 98.08071 139.453921 
L 98.181927 139.453921 
L 98.472082 136.648312 
L 99.045644 136.648312 
L 99.416773 134.154437 
L 102.487017 134.154437 
L 102.621973 133.530969 
L 103.465446 133.530969 
L 103.519429 132.9075 
L 105.003942 132.9075 
L 105.206376 131.972297 
L 107.331929 131.972297 
L 107.433146 131.037094 
L 108.512793 131.037094 
L 108.661244 130.101891 
L 109.032372 130.101891 
L 109.133589 129.478423 
L 109.673412 129.478423 
L 109.774629 127.608017 
L 110.820537 127.608017 
L 110.888014 126.984548 
L 112.574962 126.984548 
L 112.743656 126.361079 
L 113.58713 126.361079 
L 113.789564 125.737611 
L 114.599299 125.737611 
L 114.754498 125.114142 
L 114.970427 123.867205 
L 116.79233 123.867205 
L 116.900295 122.620268 
L 119.059587 122.620268 
L 119.194543 121.996799 
L 119.396977 121.996799 
L 119.612906 119.814659 
L 119.747862 119.814659 
L 119.869322 119.19119 
L 120.814012 119.19119 
L 121.016446 117.632518 
L 123.209478 117.632518 
L 123.411911 115.762113 
L 124.592774 115.762113 
L 124.896425 115.138644 
L 125.604943 115.138644 
L 125.70616 114.203441 
L 126.111027 114.203441 
L 126.245983 113.579972 
L 128.57397 113.579972 
L 128.810143 112.956504 
L 134.950631 112.956504 
L 135.153065 111.086098 
L 135.321759 110.462629 
L 136.705056 110.462629 
L 138.729393 107.345286 
L 138.931827 107.345286 
L 142.575633 93.628976 
L 143.925191 93.628976 
L 143.965677 92.382039 
L 148.68913 92.382039 
L 149.013024 91.135101 
L 153.837693 91.135101 
L 153.959153 90.511633 
L 154.735149 90.511633 
L 154.816123 89.57643 
L 158.42619 89.57643 
L 158.527407 88.641227 
L 160.315571 88.641227 
L 160.383049 88.017758 
L 160.518005 88.017758 
L 160.619221 87.082555 
L 161.091567 87.082555 
L 161.192784 86.147352 
L 161.867562 86.147352 
L 162.123978 84.900415 
L 163.574753 84.900415 
L 163.67597 84.276946 
L 164.856833 84.276946 
L 164.95805 82.406541 
L 165.90274 82.406541 
L 165.970218 81.783072 
L 170.255065 81.783072 
L 170.417011 81.159603 
L 173.419778 81.159603 
L 173.601968 80.2244 
L 174.074313 80.2244 
L 174.310486 79.600932 
L 174.850309 79.600932 
L 174.985265 78.665729 
L 177.043341 78.665729 
L 177.144557 76.795323 
L 178.055509 76.795323 
L 178.20396 75.86012 
L 186.23383 75.86012 
L 186.422768 75.236651 
L 190.943786 75.236651 
L 191.011264 74.613183 
L 199.007395 74.613183 
L 199.088368 73.67798 
L 203.406953 73.67798 
L 203.528413 73.054511 
L 208.724211 73.054511 
L 208.872663 72.119308 
L 210.55961 72.119308 
L 210.762044 71.495839 
L 211.234389 71.495839 
L 211.355849 70.872371 
L 212.671668 70.872371 
L 212.772885 70.248902 
L 213.717575 70.248902 
L 213.818792 69.313699 
L 230.620787 69.313699 
L 230.755743 69.001965 
L 231.396783 69.001965 
L 231.477757 68.066762 
L 232.861053 68.066762 
L 233.029748 67.443293 
L 244.770902 67.443293 
L 244.872118 65.572887 
L 248.367473 65.572887 
L 248.46869 64.637685 
L 248.873557 64.637685 
L 249.075991 63.702482 
L 251.977541 63.702482 
L 252.146235 63.079013 
L 256.80221 63.079013 
L 256.970905 62.14381 
L 259.636281 62.14381 
L 259.784733 61.208607 
L 261.640375 61.208607 
L 261.80907 60.896873 
L 262.75376 60.896873 
L 262.821238 60.585138 
L 264.946792 60.585138 
L 265.027765 59.649935 
L 266.849668 59.649935 
L 266.90365 59.026467 
L 269.035952 59.026467 
L 269.204647 58.714732 
L 275.675776 58.714732 
L 275.844471 58.091264 
L 277.49768 58.091264 
L 277.55841 57.467795 
L 294.576334 57.467795 
L 294.697794 56.844327 
L 294.900228 56.844327 
L 295.136401 56.532592 
L 299.050119 56.532592 
L 299.205318 55.909124 
L 301.971911 55.909124 
L 302.093372 54.662186 
L 326.493378 54.662186 
L 326.695811 53.726983 
L 350.886636 53.726983 
L 351.008096 53.103515 
L 351.143052 53.103515 
L 351.278008 52.79178 
L 359.274138 52.79178 
L 359.32812 52.168312 
L 364.523918 52.168312 
L 364.584648 50.297906 
L 386.751136 50.297906 
L 386.818614 49.986172 
L 389.922597 49.986172 
L 390.00357 49.050969 
L 398.134656 49.050969 
L 398.202134 48.4275 
L 400.90125 48.4275 
L 400.90125 48.4275 
" style="fill:none;stroke:#2ca02c;stroke-linecap:square;stroke-width:1.5;"/>
   </g>
   <g id="line2d_16">
    <path clip-path="url(#p854f437143)" d="M 43.78125 301.8675 
L 400.90125 48.4275 
" style="fill:none;stroke:#000000;stroke-dasharray:5.6,2.4;stroke-dashoffset:0;stroke-width:1.5;"/>
   </g>
   <g id="patch_3">
    <path d="M 43.78125 301.8675 
L 43.78125 35.7555 
" style="fill:none;stroke:#000000;stroke-linecap:square;stroke-linejoin:miter;stroke-width:0.8;"/>
   </g>
   <g id="patch_4">
    <path d="M 400.90125 301.8675 
L 400.90125 35.7555 
" style="fill:none;stroke:#000000;stroke-linecap:square;stroke-linejoin:miter;stroke-width:0.8;"/>
   </g>
   <g id="patch_5">
    <path d="M 43.78125 301.8675 
L 400.90125 301.8675 
" style="fill:none;stroke:#000000;stroke-linecap:square;stroke-linejoin:miter;stroke-width:0.8;"/>
   </g>
   <g id="patch_6">
    <path d="M 43.78125 35.7555 
L 400.90125 35.7555 
" style="fill:none;stroke:#000000;stroke-linecap:square;stroke-linejoin:miter;stroke-width:0.8;"/>
   </g>
   <g id="text_15">
    <!-- ROC Curve GradientBoosting + SMOTE -->
    <defs>
     <path d="M 39.40625 66.21875 
Q 28.65625 66.21875 22.328125 58.203125 
Q 16.015625 50.203125 16.015625 36.375 
Q 16.015625 22.609375 22.328125 14.59375 
Q 28.65625 6.59375 39.40625 6.59375 
Q 50.140625 6.59375 56.421875 14.59375 
Q 62.703125 22.609375 62.703125 36.375 
Q 62.703125 50.203125 56.421875 58.203125 
Q 50.140625 66.21875 39.40625 66.21875 
M 39.40625 74.21875 
Q 54.734375 74.21875 63.90625 63.9375 
Q 73.09375 53.65625 73.09375 36.375 
Q 73.09375 19.140625 63.90625 8.859375 
Q 54.734375 -1.421875 39.40625 -1.421875 
Q 24.03125 -1.421875 14.8125 8.828125 
Q 5.609375 19.09375 5.609375 36.375 
Q 5.609375 53.65625 14.8125 63.9375 
Q 24.03125 74.21875 39.40625 74.21875 
" id="DejaVuSans-4f"/>
     <path d="M 64.40625 67.28125 
L 64.40625 56.890625 
Q 59.421875 61.53125 53.78125 63.8125 
Q 48.140625 66.109375 41.796875 66.109375 
Q 29.296875 66.109375 22.65625 58.46875 
Q 16.015625 50.828125 16.015625 36.375 
Q 16.015625 21.96875 22.65625 14.328125 
Q 29.296875 6.6875 41.796875 6.6875 
Q 48.140625 6.6875 53.78125 8.984375 
Q 59.421875 11.28125 64.40625 15.921875 
L 64.40625 5.609375 
Q 59.234375 2.09375 53.4375 0.328125 
Q 47.65625 -1.421875 41.21875 -1.421875 
Q 24.65625 -1.421875 15.125 8.703125 
Q 5.609375 18.84375 5.609375 36.375 
Q 5.609375 53.953125 15.125 64.078125 
Q 24.65625 74.21875 41.21875 74.21875 
Q 47.75 74.21875 53.53125 72.484375 
Q 59.328125 70.75 64.40625 67.28125 
" id="DejaVuSans-43"/>
     <path d="M 59.515625 10.40625 
L 59.515625 29.984375 
L 43.40625 29.984375 
L 43.40625 38.09375 
L 69.28125 38.09375 
L 69.28125 6.78125 
Q 63.578125 2.734375 56.6875 0.65625 
Q 49.8125 -1.421875 42 -1.421875 
Q 24.90625 -1.421875 15.25 8.5625 
Q 5.609375 18.5625 5.609375 36.375 
Q 5.609375 54.25 15.25 64.234375 
Q 24.90625 74.21875 42 74.21875 
Q 49.125 74.21875 55.546875 72.453125 
Q 61.96875 70.703125 67.390625 67.28125 
L 67.390625 56.78125 
Q 61.921875 61.421875 55.765625 63.765625 
Q 49.609375 66.109375 42.828125 66.109375 
Q 29.4375 66.109375 22.71875 58.640625 
Q 16.015625 51.171875 16.015625 36.375 
Q 16.015625 21.625 22.71875 14.15625 
Q 29.4375 6.6875 42.828125 6.6875 
Q 48.046875 6.6875 52.140625 7.59375 
Q 56.25 8.5 59.515625 10.40625 
" id="DejaVuSans-47"/>
     <path d="M 45.40625 46.390625 
L 45.40625 75.984375 
L 54.390625 75.984375 
L 54.390625 0 
L 45.40625 0 
L 45.40625 8.203125 
Q 42.578125 3.328125 38.25 0.953125 
Q 33.9375 -1.421875 27.875 -1.421875 
Q 17.96875 -1.421875 11.734375 6.484375 
Q 5.515625 14.40625 5.515625 27.296875 
Q 5.515625 40.1875 11.734375 48.09375 
Q 17.96875 56 27.875 56 
Q 33.9375 56 38.25 53.625 
Q 42.578125 51.265625 45.40625 46.390625 
M 14.796875 27.296875 
Q 14.796875 17.390625 18.875 11.75 
Q 22.953125 6.109375 30.078125 6.109375 
Q 37.203125 6.109375 41.296875 11.75 
Q 45.40625 17.390625 45.40625 27.296875 
Q 45.40625 37.203125 41.296875 42.84375 
Q 37.203125 48.484375 30.078125 48.484375 
Q 22.953125 48.484375 18.875 42.84375 
Q 14.796875 37.203125 14.796875 27.296875 
" id="DejaVuSans-64"/>
     <path d="M 54.890625 33.015625 
L 54.890625 0 
L 45.90625 0 
L 45.90625 32.71875 
Q 45.90625 40.484375 42.875 44.328125 
Q 39.84375 48.1875 33.796875 48.1875 
Q 26.515625 48.1875 22.3125 43.546875 
Q 18.109375 38.921875 18.109375 30.90625 
L 18.109375 0 
L 9.078125 0 
L 9.078125 54.6875 
L 18.109375 54.6875 
L 18.109375 46.1875 
Q 21.34375 51.125 25.703125 53.5625 
Q 30.078125 56 35.796875 56 
Q 45.21875 56 50.046875 50.171875 
Q 54.890625 44.34375 54.890625 33.015625 
" id="DejaVuSans-6e"/>
     <path d="M 19.671875 34.8125 
L 19.671875 8.109375 
L 35.5 8.109375 
Q 43.453125 8.109375 47.28125 11.40625 
Q 51.125 14.703125 51.125 21.484375 
Q 51.125 28.328125 47.28125 31.5625 
Q 43.453125 34.8125 35.5 34.8125 
z
M 19.671875 64.796875 
L 19.671875 42.828125 
L 34.28125 42.828125 
Q 41.5 42.828125 45.03125 45.53125 
Q 48.578125 48.25 48.578125 53.8125 
Q 48.578125 59.328125 45.03125 62.0625 
Q 41.5 64.796875 34.28125 64.796875 
z
M 9.8125 72.90625 
L 35.015625 72.90625 
Q 46.296875 72.90625 52.390625 68.21875 
Q 58.5 63.53125 58.5 54.890625 
Q 58.5 48.1875 55.375 44.234375 
Q 52.25 40.28125 46.1875 39.3125 
Q 53.46875 37.75 57.5 32.78125 
Q 61.53125 27.828125 61.53125 20.40625 
Q 61.53125 10.640625 54.890625 5.3125 
Q 48.25 0 35.984375 0 
L 9.8125 0 
z
" id="DejaVuSans-42"/>
     <path d="M 45.40625 27.984375 
Q 45.40625 37.75 41.375 43.109375 
Q 37.359375 48.484375 30.078125 48.484375 
Q 22.859375 48.484375 18.828125 43.109375 
Q 14.796875 37.75 14.796875 27.984375 
Q 14.796875 18.265625 18.828125 12.890625 
Q 22.859375 7.515625 30.078125 7.515625 
Q 37.359375 7.515625 41.375 12.890625 
Q 45.40625 18.265625 45.40625 27.984375 
M 54.390625 6.78125 
Q 54.390625 -7.171875 48.1875 -13.984375 
Q 42 -20.796875 29.203125 -20.796875 
Q 24.46875 -20.796875 20.265625 -20.09375 
Q 16.0625 -19.390625 12.109375 -17.921875 
L 12.109375 -9.1875 
Q 16.0625 -11.328125 19.921875 -12.34375 
Q 23.78125 -13.375 27.78125 -13.375 
Q 36.625 -13.375 41.015625 -8.765625 
Q 45.40625 -4.15625 45.40625 5.171875 
L 45.40625 9.625 
Q 42.625 4.78125 38.28125 2.390625 
Q 33.9375 0 27.875 0 
Q 17.828125 0 11.671875 7.65625 
Q 5.515625 15.328125 5.515625 27.984375 
Q 5.515625 40.671875 11.671875 48.328125 
Q 17.828125 56 27.875 56 
Q 33.9375 56 38.28125 53.609375 
Q 42.625 51.21875 45.40625 46.390625 
L 45.40625 54.6875 
L 54.390625 54.6875 
z
" id="DejaVuSans-67"/>
     <path d="M 46 62.703125 
L 46 35.5 
L 73.1875 35.5 
L 73.1875 27.203125 
L 46 27.203125 
L 46 0 
L 37.796875 0 
L 37.796875 27.203125 
L 10.59375 27.203125 
L 10.59375 35.5 
L 37.796875 35.5 
L 37.796875 62.703125 
z
" id="DejaVuSans-2b"/>
     <path d="M 53.515625 70.515625 
L 53.515625 60.890625 
Q 47.90625 63.578125 42.921875 64.890625 
Q 37.9375 66.21875 33.296875 66.21875 
Q 25.25 66.21875 20.875 63.09375 
Q 16.5 59.96875 16.5 54.203125 
Q 16.5 49.359375 19.40625 46.890625 
Q 22.3125 44.4375 30.421875 42.921875 
L 36.375 41.703125 
Q 47.40625 39.59375 52.65625 34.296875 
Q 57.90625 29 57.90625 20.125 
Q 57.90625 9.515625 50.796875 4.046875 
Q 43.703125 -1.421875 29.984375 -1.421875 
Q 24.8125 -1.421875 18.96875 -0.25 
Q 13.140625 0.921875 6.890625 3.21875 
L 6.890625 13.375 
Q 12.890625 10.015625 18.65625 8.296875 
Q 24.421875 6.59375 29.984375 6.59375 
Q 38.421875 6.59375 43.015625 9.90625 
Q 47.609375 13.234375 47.609375 19.390625 
Q 47.609375 24.75 44.3125 27.78125 
Q 41.015625 30.8125 33.5 32.328125 
L 27.484375 33.5 
Q 16.453125 35.6875 11.515625 40.375 
Q 6.59375 45.0625 6.59375 53.421875 
Q 6.59375 63.09375 13.40625 68.65625 
Q 20.21875 74.21875 32.171875 74.21875 
Q 37.3125 74.21875 42.625 73.28125 
Q 47.953125 72.359375 53.515625 70.515625 
" id="DejaVuSans-53"/>
     <path d="M 9.8125 72.90625 
L 24.515625 72.90625 
L 43.109375 23.296875 
L 61.8125 72.90625 
L 76.515625 72.90625 
L 76.515625 0 
L 66.890625 0 
L 66.890625 64.015625 
L 48.09375 14.015625 
L 38.1875 14.015625 
L 19.390625 64.015625 
L 19.390625 0 
L 9.8125 0 
z
" id="DejaVuSans-4d"/>
     <path d="M 9.8125 72.90625 
L 55.90625 72.90625 
L 55.90625 64.59375 
L 19.671875 64.59375 
L 19.671875 43.015625 
L 54.390625 43.015625 
L 54.390625 34.71875 
L 19.671875 34.71875 
L 19.671875 8.296875 
L 56.78125 8.296875 
L 56.78125 0 
L 9.8125 0 
z
" id="DejaVuSans-45"/>
    </defs>
    <g transform="translate(105.406875 16.318125)scale(0.12 -0.12)">
     <use xlink:href="#DejaVuSans-52"/>
     <use x="69.482422" xlink:href="#DejaVuSans-4f"/>
     <use x="148.193359" xlink:href="#DejaVuSans-43"/>
     <use x="218.017578" xlink:href="#DejaVuSans-20"/>
     <use x="249.804688" xlink:href="#DejaVuSans-43"/>
     <use x="319.628906" xlink:href="#DejaVuSans-75"/>
     <use x="383.007812" xlink:href="#DejaVuSans-72"/>
     <use x="424.121094" xlink:href="#DejaVuSans-76"/>
     <use x="483.300781" xlink:href="#DejaVuSans-65"/>
     <use x="544.824219" xlink:href="#DejaVuSans-20"/>
     <use x="576.611328" xlink:href="#DejaVuSans-47"/>
     <use x="654.101562" xlink:href="#DejaVuSans-72"/>
     <use x="695.214844" xlink:href="#DejaVuSans-61"/>
     <use x="756.494141" xlink:href="#DejaVuSans-64"/>
     <use x="819.970703" xlink:href="#DejaVuSans-69"/>
     <use x="847.753906" xlink:href="#DejaVuSans-65"/>
     <use x="909.277344" xlink:href="#DejaVuSans-6e"/>
     <use x="972.65625" xlink:href="#DejaVuSans-74"/>
     <use x="1011.865234" xlink:href="#DejaVuSans-42"/>
     <use x="1080.46875" xlink:href="#DejaVuSans-6f"/>
     <use x="1141.650391" xlink:href="#DejaVuSans-6f"/>
     <use x="1202.832031" xlink:href="#DejaVuSans-73"/>
     <use x="1254.931641" xlink:href="#DejaVuSans-74"/>
     <use x="1294.140625" xlink:href="#DejaVuSans-69"/>
     <use x="1321.923828" xlink:href="#DejaVuSans-6e"/>
     <use x="1385.302734" xlink:href="#DejaVuSans-67"/>
     <use x="1448.779297" xlink:href="#DejaVuSans-20"/>
     <use x="1480.566406" xlink:href="#DejaVuSans-2b"/>
     <use x="1564.355469" xlink:href="#DejaVuSans-20"/>
     <use x="1596.142578" xlink:href="#DejaVuSans-53"/>
     <use x="1659.619141" xlink:href="#DejaVuSans-4d"/>
     <use x="1745.898438" xlink:href="#DejaVuSans-4f"/>
     <use x="1824.609375" xlink:href="#DejaVuSans-54"/>
     <use x="1885.693359" xlink:href="#DejaVuSans-45"/>
    </g>
    <!-- Train: 1   Test: [4, 8, 12, 16, 20, 24, 28] -->
    <defs>
     <path d="M 11.71875 12.40625 
L 22.015625 12.40625 
L 22.015625 0 
L 11.71875 0 
z
M 11.71875 51.703125 
L 22.015625 51.703125 
L 22.015625 39.3125 
L 11.71875 39.3125 
z
" id="DejaVuSans-3a"/>
     <path d="M 8.59375 75.984375 
L 29.296875 75.984375 
L 29.296875 69 
L 17.578125 69 
L 17.578125 -6.203125 
L 29.296875 -6.203125 
L 29.296875 -13.1875 
L 8.59375 -13.1875 
z
" id="DejaVuSans-5b"/>
     <path d="M 11.71875 12.40625 
L 22.015625 12.40625 
L 22.015625 4 
L 14.015625 -11.625 
L 7.71875 -11.625 
L 11.71875 4 
z
" id="DejaVuSans-2c"/>
     <path d="M 30.421875 75.984375 
L 30.421875 -13.1875 
L 9.71875 -13.1875 
L 9.71875 -6.203125 
L 21.390625 -6.203125 
L 21.390625 69 
L 9.71875 69 
L 9.71875 75.984375 
z
" id="DejaVuSans-5d"/>
    </defs>
    <g transform="translate(103.489688 29.7555)scale(0.12 -0.12)">
     <use xlink:href="#DejaVuSans-54"/>
     <use x="60.865234" xlink:href="#DejaVuSans-72"/>
     <use x="101.978516" xlink:href="#DejaVuSans-61"/>
     <use x="163.257812" xlink:href="#DejaVuSans-69"/>
     <use x="191.041016" xlink:href="#DejaVuSans-6e"/>
     <use x="254.419922" xlink:href="#DejaVuSans-3a"/>
     <use x="288.111328" xlink:href="#DejaVuSans-20"/>
     <use x="319.898438" xlink:href="#DejaVuSans-31"/>
     <use x="383.521484" xlink:href="#DejaVuSans-20"/>
     <use x="415.308594" xlink:href="#DejaVuSans-20"/>
     <use x="447.095703" xlink:href="#DejaVuSans-20"/>
     <use x="478.882812" xlink:href="#DejaVuSans-54"/>
     <use x="539.701172" xlink:href="#DejaVuSans-65"/>
     <use x="601.224609" xlink:href="#DejaVuSans-73"/>
     <use x="653.324219" xlink:href="#DejaVuSans-74"/>
     <use x="692.533203" xlink:href="#DejaVuSans-3a"/>
     <use x="726.224609" xlink:href="#DejaVuSans-20"/>
     <use x="758.011719" xlink:href="#DejaVuSans-5b"/>
     <use x="797.025391" xlink:href="#DejaVuSans-34"/>
     <use x="860.648438" xlink:href="#DejaVuSans-2c"/>
     <use x="892.435547" xlink:href="#DejaVuSans-20"/>
     <use x="924.222656" xlink:href="#DejaVuSans-38"/>
     <use x="987.845703" xlink:href="#DejaVuSans-2c"/>
     <use x="1019.632812" xlink:href="#DejaVuSans-20"/>
     <use x="1051.419922" xlink:href="#DejaVuSans-31"/>
     <use x="1115.042969" xlink:href="#DejaVuSans-32"/>
     <use x="1178.666016" xlink:href="#DejaVuSans-2c"/>
     <use x="1210.453125" xlink:href="#DejaVuSans-20"/>
     <use x="1242.240234" xlink:href="#DejaVuSans-31"/>
     <use x="1305.863281" xlink:href="#DejaVuSans-36"/>
     <use x="1369.486328" xlink:href="#DejaVuSans-2c"/>
     <use x="1401.273438" xlink:href="#DejaVuSans-20"/>
     <use x="1433.060547" xlink:href="#DejaVuSans-32"/>
     <use x="1496.683594" xlink:href="#DejaVuSans-30"/>
     <use x="1560.306641" xlink:href="#DejaVuSans-2c"/>
     <use x="1592.09375" xlink:href="#DejaVuSans-20"/>
     <use x="1623.880859" xlink:href="#DejaVuSans-32"/>
     <use x="1687.503906" xlink:href="#DejaVuSans-34"/>
     <use x="1751.126953" xlink:href="#DejaVuSans-2c"/>
     <use x="1782.914062" xlink:href="#DejaVuSans-20"/>
     <use x="1814.701172" xlink:href="#DejaVuSans-32"/>
     <use x="1878.324219" xlink:href="#DejaVuSans-38"/>
     <use x="1941.947266" xlink:href="#DejaVuSans-5d"/>
    </g>
   </g>
   <g id="legend_1">
    <g id="patch_7">
     <path d="M 217.087188 296.8675 
L 393.90125 296.8675 
Q 395.90125 296.8675 395.90125 294.8675 
L 395.90125 251.833125 
Q 395.90125 249.833125 393.90125 249.833125 
L 217.087188 249.833125 
Q 215.087188 249.833125 215.087188 251.833125 
L 215.087188 294.8675 
Q 215.087188 296.8675 217.087188 296.8675 
z
" style="fill:#ffffff;opacity:0.8;stroke:#cccccc;stroke-linejoin:miter;"/>
    </g>
    <g id="line2d_17">
     <path d="M 219.087188 257.931562 
L 239.087188 257.931562 
" style="fill:none;stroke:#1f77b4;stroke-linecap:square;stroke-width:1.5;"/>
    </g>
    <g id="line2d_18"/>
    <g id="text_16">
     <!-- ROC curve - 0 (AUC = 0.825) -->
     <defs>
      <path d="M 48.78125 52.59375 
L 48.78125 44.1875 
Q 44.96875 46.296875 41.140625 47.34375 
Q 37.3125 48.390625 33.40625 48.390625 
Q 24.65625 48.390625 19.8125 42.84375 
Q 14.984375 37.3125 14.984375 27.296875 
Q 14.984375 17.28125 19.8125 11.734375 
Q 24.65625 6.203125 33.40625 6.203125 
Q 37.3125 6.203125 41.140625 7.25 
Q 44.96875 8.296875 48.78125 10.40625 
L 48.78125 2.09375 
Q 45.015625 0.34375 40.984375 -0.53125 
Q 36.96875 -1.421875 32.421875 -1.421875 
Q 20.0625 -1.421875 12.78125 6.34375 
Q 5.515625 14.109375 5.515625 27.296875 
Q 5.515625 40.671875 12.859375 48.328125 
Q 20.21875 56 33.015625 56 
Q 37.15625 56 41.109375 55.140625 
Q 45.0625 54.296875 48.78125 52.59375 
" id="DejaVuSans-63"/>
      <path d="M 4.890625 31.390625 
L 31.203125 31.390625 
L 31.203125 23.390625 
L 4.890625 23.390625 
z
" id="DejaVuSans-2d"/>
      <path d="M 31 75.875 
Q 24.46875 64.65625 21.28125 53.65625 
Q 18.109375 42.671875 18.109375 31.390625 
Q 18.109375 20.125 21.3125 9.0625 
Q 24.515625 -2 31 -13.1875 
L 23.1875 -13.1875 
Q 15.875 -1.703125 12.234375 9.375 
Q 8.59375 20.453125 8.59375 31.390625 
Q 8.59375 42.28125 12.203125 53.3125 
Q 15.828125 64.359375 23.1875 75.875 
z
" id="DejaVuSans-28"/>
      <path d="M 34.1875 63.1875 
L 20.796875 26.90625 
L 47.609375 26.90625 
z
M 28.609375 72.90625 
L 39.796875 72.90625 
L 67.578125 0 
L 57.328125 0 
L 50.6875 18.703125 
L 17.828125 18.703125 
L 11.1875 0 
L 0.78125 0 
z
" id="DejaVuSans-41"/>
      <path d="M 8.6875 72.90625 
L 18.609375 72.90625 
L 18.609375 28.609375 
Q 18.609375 16.890625 22.84375 11.734375 
Q 27.09375 6.59375 36.625 6.59375 
Q 46.09375 6.59375 50.34375 11.734375 
Q 54.59375 16.890625 54.59375 28.609375 
L 54.59375 72.90625 
L 64.5 72.90625 
L 64.5 27.390625 
Q 64.5 13.140625 57.4375 5.859375 
Q 50.390625 -1.421875 36.625 -1.421875 
Q 22.796875 -1.421875 15.734375 5.859375 
Q 8.6875 13.140625 8.6875 27.390625 
z
" id="DejaVuSans-55"/>
      <path d="M 10.59375 45.40625 
L 73.1875 45.40625 
L 73.1875 37.203125 
L 10.59375 37.203125 
z
M 10.59375 25.484375 
L 73.1875 25.484375 
L 73.1875 17.1875 
L 10.59375 17.1875 
z
" id="DejaVuSans-3d"/>
      <path d="M 10.796875 72.90625 
L 49.515625 72.90625 
L 49.515625 64.59375 
L 19.828125 64.59375 
L 19.828125 46.734375 
Q 21.96875 47.46875 24.109375 47.828125 
Q 26.265625 48.1875 28.421875 48.1875 
Q 40.625 48.1875 47.75 41.5 
Q 54.890625 34.8125 54.890625 23.390625 
Q 54.890625 11.625 47.5625 5.09375 
Q 40.234375 -1.421875 26.90625 -1.421875 
Q 22.3125 -1.421875 17.546875 -0.640625 
Q 12.796875 0.140625 7.71875 1.703125 
L 7.71875 11.625 
Q 12.109375 9.234375 16.796875 8.0625 
Q 21.484375 6.890625 26.703125 6.890625 
Q 35.15625 6.890625 40.078125 11.328125 
Q 45.015625 15.765625 45.015625 23.390625 
Q 45.015625 31 40.078125 35.4375 
Q 35.15625 39.890625 26.703125 39.890625 
Q 22.75 39.890625 18.8125 39.015625 
Q 14.890625 38.140625 10.796875 36.28125 
z
" id="DejaVuSans-35"/>
      <path d="M 8.015625 75.875 
L 15.828125 75.875 
Q 23.140625 64.359375 26.78125 53.3125 
Q 30.421875 42.28125 30.421875 31.390625 
Q 30.421875 20.453125 26.78125 9.375 
Q 23.140625 -1.703125 15.828125 -13.1875 
L 8.015625 -13.1875 
Q 14.5 -2 17.703125 9.0625 
Q 20.90625 20.125 20.90625 31.390625 
Q 20.90625 42.671875 17.703125 53.65625 
Q 14.5 64.65625 8.015625 75.875 
" id="DejaVuSans-29"/>
     </defs>
     <g transform="translate(247.087188 261.431562)scale(0.1 -0.1)">
      <use xlink:href="#DejaVuSans-52"/>
      <use x="69.482422" xlink:href="#DejaVuSans-4f"/>
      <use x="148.193359" xlink:href="#DejaVuSans-43"/>
      <use x="218.017578" xlink:href="#DejaVuSans-20"/>
      <use x="249.804688" xlink:href="#DejaVuSans-63"/>
      <use x="304.785156" xlink:href="#DejaVuSans-75"/>
      <use x="368.164062" xlink:href="#DejaVuSans-72"/>
      <use x="409.277344" xlink:href="#DejaVuSans-76"/>
      <use x="468.457031" xlink:href="#DejaVuSans-65"/>
      <use x="529.980469" xlink:href="#DejaVuSans-20"/>
      <use x="561.767578" xlink:href="#DejaVuSans-2d"/>
      <use x="597.851562" xlink:href="#DejaVuSans-20"/>
      <use x="629.638672" xlink:href="#DejaVuSans-30"/>
      <use x="693.261719" xlink:href="#DejaVuSans-20"/>
      <use x="725.048828" xlink:href="#DejaVuSans-28"/>
      <use x="764.0625" xlink:href="#DejaVuSans-41"/>
      <use x="832.470703" xlink:href="#DejaVuSans-55"/>
      <use x="905.664062" xlink:href="#DejaVuSans-43"/>
      <use x="975.488281" xlink:href="#DejaVuSans-20"/>
      <use x="1007.275391" xlink:href="#DejaVuSans-3d"/>
      <use x="1091.064453" xlink:href="#DejaVuSans-20"/>
      <use x="1122.851562" xlink:href="#DejaVuSans-30"/>
      <use x="1186.474609" xlink:href="#DejaVuSans-2e"/>
      <use x="1218.261719" xlink:href="#DejaVuSans-38"/>
      <use x="1281.884766" xlink:href="#DejaVuSans-32"/>
      <use x="1345.507812" xlink:href="#DejaVuSans-35"/>
      <use x="1409.130859" xlink:href="#DejaVuSans-29"/>
     </g>
    </g>
    <g id="line2d_19">
     <path d="M 219.087188 272.609687 
L 239.087188 272.609687 
" style="fill:none;stroke:#ff7f0e;stroke-linecap:square;stroke-width:1.5;"/>
    </g>
    <g id="line2d_20"/>
    <g id="text_17">
     <!-- ROC curve - 1 (AUC = 0.832) -->
     <defs>
      <path d="M 40.578125 39.3125 
Q 47.65625 37.796875 51.625 33 
Q 55.609375 28.21875 55.609375 21.1875 
Q 55.609375 10.40625 48.1875 4.484375 
Q 40.765625 -1.421875 27.09375 -1.421875 
Q 22.515625 -1.421875 17.65625 -0.515625 
Q 12.796875 0.390625 7.625 2.203125 
L 7.625 11.71875 
Q 11.71875 9.328125 16.59375 8.109375 
Q 21.484375 6.890625 26.8125 6.890625 
Q 36.078125 6.890625 40.9375 10.546875 
Q 45.796875 14.203125 45.796875 21.1875 
Q 45.796875 27.640625 41.28125 31.265625 
Q 36.765625 34.90625 28.71875 34.90625 
L 20.21875 34.90625 
L 20.21875 43.015625 
L 29.109375 43.015625 
Q 36.375 43.015625 40.234375 45.921875 
Q 44.09375 48.828125 44.09375 54.296875 
Q 44.09375 59.90625 40.109375 62.90625 
Q 36.140625 65.921875 28.71875 65.921875 
Q 24.65625 65.921875 20.015625 65.03125 
Q 15.375 64.15625 9.8125 62.3125 
L 9.8125 71.09375 
Q 15.4375 72.65625 20.34375 73.4375 
Q 25.25 74.21875 29.59375 74.21875 
Q 40.828125 74.21875 47.359375 69.109375 
Q 53.90625 64.015625 53.90625 55.328125 
Q 53.90625 49.265625 50.4375 45.09375 
Q 46.96875 40.921875 40.578125 39.3125 
" id="DejaVuSans-33"/>
     </defs>
     <g transform="translate(247.087188 276.109687)scale(0.1 -0.1)">
      <use xlink:href="#DejaVuSans-52"/>
      <use x="69.482422" xlink:href="#DejaVuSans-4f"/>
      <use x="148.193359" xlink:href="#DejaVuSans-43"/>
      <use x="218.017578" xlink:href="#DejaVuSans-20"/>
      <use x="249.804688" xlink:href="#DejaVuSans-63"/>
      <use x="304.785156" xlink:href="#DejaVuSans-75"/>
      <use x="368.164062" xlink:href="#DejaVuSans-72"/>
      <use x="409.277344" xlink:href="#DejaVuSans-76"/>
      <use x="468.457031" xlink:href="#DejaVuSans-65"/>
      <use x="529.980469" xlink:href="#DejaVuSans-20"/>
      <use x="561.767578" xlink:href="#DejaVuSans-2d"/>
      <use x="597.851562" xlink:href="#DejaVuSans-20"/>
      <use x="629.638672" xlink:href="#DejaVuSans-31"/>
      <use x="693.261719" xlink:href="#DejaVuSans-20"/>
      <use x="725.048828" xlink:href="#DejaVuSans-28"/>
      <use x="764.0625" xlink:href="#DejaVuSans-41"/>
      <use x="832.470703" xlink:href="#DejaVuSans-55"/>
      <use x="905.664062" xlink:href="#DejaVuSans-43"/>
      <use x="975.488281" xlink:href="#DejaVuSans-20"/>
      <use x="1007.275391" xlink:href="#DejaVuSans-3d"/>
      <use x="1091.064453" xlink:href="#DejaVuSans-20"/>
      <use x="1122.851562" xlink:href="#DejaVuSans-30"/>
      <use x="1186.474609" xlink:href="#DejaVuSans-2e"/>
      <use x="1218.261719" xlink:href="#DejaVuSans-38"/>
      <use x="1281.884766" xlink:href="#DejaVuSans-33"/>
      <use x="1345.507812" xlink:href="#DejaVuSans-32"/>
      <use x="1409.130859" xlink:href="#DejaVuSans-29"/>
     </g>
    </g>
    <g id="line2d_21">
     <path d="M 219.087188 287.287812 
L 239.087188 287.287812 
" style="fill:none;stroke:#2ca02c;stroke-linecap:square;stroke-width:1.5;"/>
    </g>
    <g id="line2d_22"/>
    <g id="text_18">
     <!-- ROC curve - 2 (AUC = 0.832) -->
     <g transform="translate(247.087188 290.787812)scale(0.1 -0.1)">
      <use xlink:href="#DejaVuSans-52"/>
      <use x="69.482422" xlink:href="#DejaVuSans-4f"/>
      <use x="148.193359" xlink:href="#DejaVuSans-43"/>
      <use x="218.017578" xlink:href="#DejaVuSans-20"/>
      <use x="249.804688" xlink:href="#DejaVuSans-63"/>
      <use x="304.785156" xlink:href="#DejaVuSans-75"/>
      <use x="368.164062" xlink:href="#DejaVuSans-72"/>
      <use x="409.277344" xlink:href="#DejaVuSans-76"/>
      <use x="468.457031" xlink:href="#DejaVuSans-65"/>
      <use x="529.980469" xlink:href="#DejaVuSans-20"/>
      <use x="561.767578" xlink:href="#DejaVuSans-2d"/>
      <use x="597.851562" xlink:href="#DejaVuSans-20"/>
      <use x="629.638672" xlink:href="#DejaVuSans-32"/>
      <use x="693.261719" xlink:href="#DejaVuSans-20"/>
      <use x="725.048828" xlink:href="#DejaVuSans-28"/>
      <use x="764.0625" xlink:href="#DejaVuSans-41"/>
      <use x="832.470703" xlink:href="#DejaVuSans-55"/>
      <use x="905.664062" xlink:href="#DejaVuSans-43"/>
      <use x="975.488281" xlink:href="#DejaVuSans-20"/>
      <use x="1007.275391" xlink:href="#DejaVuSans-3d"/>
      <use x="1091.064453" xlink:href="#DejaVuSans-20"/>
      <use x="1122.851562" xlink:href="#DejaVuSans-30"/>
      <use x="1186.474609" xlink:href="#DejaVuSans-2e"/>
      <use x="1218.261719" xlink:href="#DejaVuSans-38"/>
      <use x="1281.884766" xlink:href="#DejaVuSans-33"/>
      <use x="1345.507812" xlink:href="#DejaVuSans-32"/>
      <use x="1409.130859" xlink:href="#DejaVuSans-29"/>
     </g>
    </g>
   </g>
  </g>
 </g>
 <defs>
  <clipPath id="p854f437143">
   <rect height="266.112" width="357.12" x="43.78125" y="35.7555"/>
  </clipPath>
 </defs>
</svg>
