<?xml version="1.0" encoding="utf-8" standalone="no"?>
<!DOCTYPE svg PUBLIC "-//W3C//DTD SVG 1.1//EN"
  "http://www.w3.org/Graphics/SVG/1.1/DTD/svg11.dtd">
<!-- Created with matplotlib (http://matplotlib.org/) -->
<svg height="339pt" version="1.1" viewBox="0 0 416 339" width="416pt" xmlns="http://www.w3.org/2000/svg" xmlns:xlink="http://www.w3.org/1999/xlink">
 <defs>
  <style type="text/css">
*{stroke-linecap:butt;stroke-linejoin:round;}
  </style>
 </defs>
 <g id="figure_1">
  <g id="patch_1">
   <path d="M 0 339.42375 
L 416.052813 339.42375 
L 416.052813 0 
L 0 0 
z
" style="fill:#ffffff;"/>
  </g>
  <g id="axes_1">
   <g id="patch_2">
    <path d="M 43.78125 301.8675 
L 400.90125 301.8675 
L 400.90125 35.7555 
L 43.78125 35.7555 
z
" style="fill:#ffffff;"/>
   </g>
   <g id="matplotlib.axis_1">
    <g id="xtick_1">
     <g id="line2d_1">
      <defs>
       <path d="M 0 0 
L 0 3.5 
" id="m5e6a453f66" style="stroke:#000000;stroke-width:0.8;"/>
      </defs>
      <g>
       <use style="stroke:#000000;stroke-width:0.8;" x="43.78125" xlink:href="#m5e6a453f66" y="301.8675"/>
      </g>
     </g>
     <g id="text_1">
      <!-- 0.0 -->
      <defs>
       <path d="M 31.78125 66.40625 
Q 24.171875 66.40625 20.328125 58.90625 
Q 16.5 51.421875 16.5 36.375 
Q 16.5 21.390625 20.328125 13.890625 
Q 24.171875 6.390625 31.78125 6.390625 
Q 39.453125 6.390625 43.28125 13.890625 
Q 47.125 21.390625 47.125 36.375 
Q 47.125 51.421875 43.28125 58.90625 
Q 39.453125 66.40625 31.78125 66.40625 
M 31.78125 74.21875 
Q 44.046875 74.21875 50.515625 64.515625 
Q 56.984375 54.828125 56.984375 36.375 
Q 56.984375 17.96875 50.515625 8.265625 
Q 44.046875 -1.421875 31.78125 -1.421875 
Q 19.53125 -1.421875 13.0625 8.265625 
Q 6.59375 17.96875 6.59375 36.375 
Q 6.59375 54.828125 13.0625 64.515625 
Q 19.53125 74.21875 31.78125 74.21875 
" id="DejaVuSans-30"/>
       <path d="M 10.6875 12.40625 
L 21 12.40625 
L 21 0 
L 10.6875 0 
z
" id="DejaVuSans-2e"/>
      </defs>
      <g transform="translate(35.829688 316.465937)scale(0.1 -0.1)">
       <use xlink:href="#DejaVuSans-30"/>
       <use x="63.623047" xlink:href="#DejaVuSans-2e"/>
       <use x="95.410156" xlink:href="#DejaVuSans-30"/>
      </g>
     </g>
    </g>
    <g id="xtick_2">
     <g id="line2d_2">
      <g>
       <use style="stroke:#000000;stroke-width:0.8;" x="115.20525" xlink:href="#m5e6a453f66" y="301.8675"/>
      </g>
     </g>
     <g id="text_2">
      <!-- 0.2 -->
      <defs>
       <path d="M 19.1875 8.296875 
L 53.609375 8.296875 
L 53.609375 0 
L 7.328125 0 
L 7.328125 8.296875 
Q 12.9375 14.109375 22.625 23.890625 
Q 32.328125 33.6875 34.8125 36.53125 
Q 39.546875 41.84375 41.421875 45.53125 
Q 43.3125 49.21875 43.3125 52.78125 
Q 43.3125 58.59375 39.234375 62.25 
Q 35.15625 65.921875 28.609375 65.921875 
Q 23.96875 65.921875 18.8125 64.3125 
Q 13.671875 62.703125 7.8125 59.421875 
L 7.8125 69.390625 
Q 13.765625 71.78125 18.9375 73 
Q 24.125 74.21875 28.421875 74.21875 
Q 39.75 74.21875 46.484375 68.546875 
Q 53.21875 62.890625 53.21875 53.421875 
Q 53.21875 48.921875 51.53125 44.890625 
Q 49.859375 40.875 45.40625 35.40625 
Q 44.1875 33.984375 37.640625 27.21875 
Q 31.109375 20.453125 19.1875 8.296875 
" id="DejaVuSans-32"/>
      </defs>
      <g transform="translate(107.253688 316.465937)scale(0.1 -0.1)">
       <use xlink:href="#DejaVuSans-30"/>
       <use x="63.623047" xlink:href="#DejaVuSans-2e"/>
       <use x="95.410156" xlink:href="#DejaVuSans-32"/>
      </g>
     </g>
    </g>
    <g id="xtick_3">
     <g id="line2d_3">
      <g>
       <use style="stroke:#000000;stroke-width:0.8;" x="186.62925" xlink:href="#m5e6a453f66" y="301.8675"/>
      </g>
     </g>
     <g id="text_3">
      <!-- 0.4 -->
      <defs>
       <path d="M 37.796875 64.3125 
L 12.890625 25.390625 
L 37.796875 25.390625 
z
M 35.203125 72.90625 
L 47.609375 72.90625 
L 47.609375 25.390625 
L 58.015625 25.390625 
L 58.015625 17.1875 
L 47.609375 17.1875 
L 47.609375 0 
L 37.796875 0 
L 37.796875 17.1875 
L 4.890625 17.1875 
L 4.890625 26.703125 
z
" id="DejaVuSans-34"/>
      </defs>
      <g transform="translate(178.677688 316.465937)scale(0.1 -0.1)">
       <use xlink:href="#DejaVuSans-30"/>
       <use x="63.623047" xlink:href="#DejaVuSans-2e"/>
       <use x="95.410156" xlink:href="#DejaVuSans-34"/>
      </g>
     </g>
    </g>
    <g id="xtick_4">
     <g id="line2d_4">
      <g>
       <use style="stroke:#000000;stroke-width:0.8;" x="258.05325" xlink:href="#m5e6a453f66" y="301.8675"/>
      </g>
     </g>
     <g id="text_4">
      <!-- 0.6 -->
      <defs>
       <path d="M 33.015625 40.375 
Q 26.375 40.375 22.484375 35.828125 
Q 18.609375 31.296875 18.609375 23.390625 
Q 18.609375 15.53125 22.484375 10.953125 
Q 26.375 6.390625 33.015625 6.390625 
Q 39.65625 6.390625 43.53125 10.953125 
Q 47.40625 15.53125 47.40625 23.390625 
Q 47.40625 31.296875 43.53125 35.828125 
Q 39.65625 40.375 33.015625 40.375 
M 52.59375 71.296875 
L 52.59375 62.3125 
Q 48.875 64.0625 45.09375 64.984375 
Q 41.3125 65.921875 37.59375 65.921875 
Q 27.828125 65.921875 22.671875 59.328125 
Q 17.53125 52.734375 16.796875 39.40625 
Q 19.671875 43.65625 24.015625 45.921875 
Q 28.375 48.1875 33.59375 48.1875 
Q 44.578125 48.1875 50.953125 41.515625 
Q 57.328125 34.859375 57.328125 23.390625 
Q 57.328125 12.15625 50.6875 5.359375 
Q 44.046875 -1.421875 33.015625 -1.421875 
Q 20.359375 -1.421875 13.671875 8.265625 
Q 6.984375 17.96875 6.984375 36.375 
Q 6.984375 53.65625 15.1875 63.9375 
Q 23.390625 74.21875 37.203125 74.21875 
Q 40.921875 74.21875 44.703125 73.484375 
Q 48.484375 72.75 52.59375 71.296875 
" id="DejaVuSans-36"/>
      </defs>
      <g transform="translate(250.101688 316.465937)scale(0.1 -0.1)">
       <use xlink:href="#DejaVuSans-30"/>
       <use x="63.623047" xlink:href="#DejaVuSans-2e"/>
       <use x="95.410156" xlink:href="#DejaVuSans-36"/>
      </g>
     </g>
    </g>
    <g id="xtick_5">
     <g id="line2d_5">
      <g>
       <use style="stroke:#000000;stroke-width:0.8;" x="329.47725" xlink:href="#m5e6a453f66" y="301.8675"/>
      </g>
     </g>
     <g id="text_5">
      <!-- 0.8 -->
      <defs>
       <path d="M 31.78125 34.625 
Q 24.75 34.625 20.71875 30.859375 
Q 16.703125 27.09375 16.703125 20.515625 
Q 16.703125 13.921875 20.71875 10.15625 
Q 24.75 6.390625 31.78125 6.390625 
Q 38.8125 6.390625 42.859375 10.171875 
Q 46.921875 13.96875 46.921875 20.515625 
Q 46.921875 27.09375 42.890625 30.859375 
Q 38.875 34.625 31.78125 34.625 
M 21.921875 38.8125 
Q 15.578125 40.375 12.03125 44.71875 
Q 8.5 49.078125 8.5 55.328125 
Q 8.5 64.0625 14.71875 69.140625 
Q 20.953125 74.21875 31.78125 74.21875 
Q 42.671875 74.21875 48.875 69.140625 
Q 55.078125 64.0625 55.078125 55.328125 
Q 55.078125 49.078125 51.53125 44.71875 
Q 48 40.375 41.703125 38.8125 
Q 48.828125 37.15625 52.796875 32.3125 
Q 56.78125 27.484375 56.78125 20.515625 
Q 56.78125 9.90625 50.3125 4.234375 
Q 43.84375 -1.421875 31.78125 -1.421875 
Q 19.734375 -1.421875 13.25 4.234375 
Q 6.78125 9.90625 6.78125 20.515625 
Q 6.78125 27.484375 10.78125 32.3125 
Q 14.796875 37.15625 21.921875 38.8125 
M 18.3125 54.390625 
Q 18.3125 48.734375 21.84375 45.5625 
Q 25.390625 42.390625 31.78125 42.390625 
Q 38.140625 42.390625 41.71875 45.5625 
Q 45.3125 48.734375 45.3125 54.390625 
Q 45.3125 60.0625 41.71875 63.234375 
Q 38.140625 66.40625 31.78125 66.40625 
Q 25.390625 66.40625 21.84375 63.234375 
Q 18.3125 60.0625 18.3125 54.390625 
" id="DejaVuSans-38"/>
      </defs>
      <g transform="translate(321.525688 316.465937)scale(0.1 -0.1)">
       <use xlink:href="#DejaVuSans-30"/>
       <use x="63.623047" xlink:href="#DejaVuSans-2e"/>
       <use x="95.410156" xlink:href="#DejaVuSans-38"/>
      </g>
     </g>
    </g>
    <g id="xtick_6">
     <g id="line2d_6">
      <g>
       <use style="stroke:#000000;stroke-width:0.8;" x="400.90125" xlink:href="#m5e6a453f66" y="301.8675"/>
      </g>
     </g>
     <g id="text_6">
      <!-- 1.0 -->
      <defs>
       <path d="M 12.40625 8.296875 
L 28.515625 8.296875 
L 28.515625 63.921875 
L 10.984375 60.40625 
L 10.984375 69.390625 
L 28.421875 72.90625 
L 38.28125 72.90625 
L 38.28125 8.296875 
L 54.390625 8.296875 
L 54.390625 0 
L 12.40625 0 
z
" id="DejaVuSans-31"/>
      </defs>
      <g transform="translate(392.949688 316.465937)scale(0.1 -0.1)">
       <use xlink:href="#DejaVuSans-31"/>
       <use x="63.623047" xlink:href="#DejaVuSans-2e"/>
       <use x="95.410156" xlink:href="#DejaVuSans-30"/>
      </g>
     </g>
    </g>
    <g id="text_7">
     <!-- False Positive Rate -->
     <defs>
      <path d="M 9.8125 72.90625 
L 51.703125 72.90625 
L 51.703125 64.59375 
L 19.671875 64.59375 
L 19.671875 43.109375 
L 48.578125 43.109375 
L 48.578125 34.8125 
L 19.671875 34.8125 
L 19.671875 0 
L 9.8125 0 
z
" id="DejaVuSans-46"/>
      <path d="M 34.28125 27.484375 
Q 23.390625 27.484375 19.1875 25 
Q 14.984375 22.515625 14.984375 16.5 
Q 14.984375 11.71875 18.140625 8.90625 
Q 21.296875 6.109375 26.703125 6.109375 
Q 34.1875 6.109375 38.703125 11.40625 
Q 43.21875 16.703125 43.21875 25.484375 
L 43.21875 27.484375 
z
M 52.203125 31.203125 
L 52.203125 0 
L 43.21875 0 
L 43.21875 8.296875 
Q 40.140625 3.328125 35.546875 0.953125 
Q 30.953125 -1.421875 24.3125 -1.421875 
Q 15.921875 -1.421875 10.953125 3.296875 
Q 6 8.015625 6 15.921875 
Q 6 25.140625 12.171875 29.828125 
Q 18.359375 34.515625 30.609375 34.515625 
L 43.21875 34.515625 
L 43.21875 35.40625 
Q 43.21875 41.609375 39.140625 45 
Q 35.0625 48.390625 27.6875 48.390625 
Q 23 48.390625 18.546875 47.265625 
Q 14.109375 46.140625 10.015625 43.890625 
L 10.015625 52.203125 
Q 14.9375 54.109375 19.578125 55.046875 
Q 24.21875 56 28.609375 56 
Q 40.484375 56 46.34375 49.84375 
Q 52.203125 43.703125 52.203125 31.203125 
" id="DejaVuSans-61"/>
      <path d="M 9.421875 75.984375 
L 18.40625 75.984375 
L 18.40625 0 
L 9.421875 0 
z
" id="DejaVuSans-6c"/>
      <path d="M 44.28125 53.078125 
L 44.28125 44.578125 
Q 40.484375 46.53125 36.375 47.5 
Q 32.28125 48.484375 27.875 48.484375 
Q 21.1875 48.484375 17.84375 46.4375 
Q 14.5 44.390625 14.5 40.28125 
Q 14.5 37.15625 16.890625 35.375 
Q 19.28125 33.59375 26.515625 31.984375 
L 29.59375 31.296875 
Q 39.15625 29.25 43.1875 25.515625 
Q 47.21875 21.78125 47.21875 15.09375 
Q 47.21875 7.46875 41.1875 3.015625 
Q 35.15625 -1.421875 24.609375 -1.421875 
Q 20.21875 -1.421875 15.453125 -0.5625 
Q 10.6875 0.296875 5.421875 2 
L 5.421875 11.28125 
Q 10.40625 8.6875 15.234375 7.390625 
Q 20.0625 6.109375 24.8125 6.109375 
Q 31.15625 6.109375 34.5625 8.28125 
Q 37.984375 10.453125 37.984375 14.40625 
Q 37.984375 18.0625 35.515625 20.015625 
Q 33.0625 21.96875 24.703125 23.78125 
L 21.578125 24.515625 
Q 13.234375 26.265625 9.515625 29.90625 
Q 5.8125 33.546875 5.8125 39.890625 
Q 5.8125 47.609375 11.28125 51.796875 
Q 16.75 56 26.8125 56 
Q 31.78125 56 36.171875 55.265625 
Q 40.578125 54.546875 44.28125 53.078125 
" id="DejaVuSans-73"/>
      <path d="M 56.203125 29.59375 
L 56.203125 25.203125 
L 14.890625 25.203125 
Q 15.484375 15.921875 20.484375 11.0625 
Q 25.484375 6.203125 34.421875 6.203125 
Q 39.59375 6.203125 44.453125 7.46875 
Q 49.3125 8.734375 54.109375 11.28125 
L 54.109375 2.78125 
Q 49.265625 0.734375 44.1875 -0.34375 
Q 39.109375 -1.421875 33.890625 -1.421875 
Q 20.796875 -1.421875 13.15625 6.1875 
Q 5.515625 13.8125 5.515625 26.8125 
Q 5.515625 40.234375 12.765625 48.109375 
Q 20.015625 56 32.328125 56 
Q 43.359375 56 49.78125 48.890625 
Q 56.203125 41.796875 56.203125 29.59375 
M 47.21875 32.234375 
Q 47.125 39.59375 43.09375 43.984375 
Q 39.0625 48.390625 32.421875 48.390625 
Q 24.90625 48.390625 20.390625 44.140625 
Q 15.875 39.890625 15.1875 32.171875 
z
" id="DejaVuSans-65"/>
      <path id="DejaVuSans-20"/>
      <path d="M 19.671875 64.796875 
L 19.671875 37.40625 
L 32.078125 37.40625 
Q 38.96875 37.40625 42.71875 40.96875 
Q 46.484375 44.53125 46.484375 51.125 
Q 46.484375 57.671875 42.71875 61.234375 
Q 38.96875 64.796875 32.078125 64.796875 
z
M 9.8125 72.90625 
L 32.078125 72.90625 
Q 44.34375 72.90625 50.609375 67.359375 
Q 56.890625 61.8125 56.890625 51.125 
Q 56.890625 40.328125 50.609375 34.8125 
Q 44.34375 29.296875 32.078125 29.296875 
L 19.671875 29.296875 
L 19.671875 0 
L 9.8125 0 
z
" id="DejaVuSans-50"/>
      <path d="M 30.609375 48.390625 
Q 23.390625 48.390625 19.1875 42.75 
Q 14.984375 37.109375 14.984375 27.296875 
Q 14.984375 17.484375 19.15625 11.84375 
Q 23.34375 6.203125 30.609375 6.203125 
Q 37.796875 6.203125 41.984375 11.859375 
Q 46.1875 17.53125 46.1875 27.296875 
Q 46.1875 37.015625 41.984375 42.703125 
Q 37.796875 48.390625 30.609375 48.390625 
M 30.609375 56 
Q 42.328125 56 49.015625 48.375 
Q 55.71875 40.765625 55.71875 27.296875 
Q 55.71875 13.875 49.015625 6.21875 
Q 42.328125 -1.421875 30.609375 -1.421875 
Q 18.84375 -1.421875 12.171875 6.21875 
Q 5.515625 13.875 5.515625 27.296875 
Q 5.515625 40.765625 12.171875 48.375 
Q 18.84375 56 30.609375 56 
" id="DejaVuSans-6f"/>
      <path d="M 9.421875 54.6875 
L 18.40625 54.6875 
L 18.40625 0 
L 9.421875 0 
z
M 9.421875 75.984375 
L 18.40625 75.984375 
L 18.40625 64.59375 
L 9.421875 64.59375 
z
" id="DejaVuSans-69"/>
      <path d="M 18.3125 70.21875 
L 18.3125 54.6875 
L 36.8125 54.6875 
L 36.8125 47.703125 
L 18.3125 47.703125 
L 18.3125 18.015625 
Q 18.3125 11.328125 20.140625 9.421875 
Q 21.96875 7.515625 27.59375 7.515625 
L 36.8125 7.515625 
L 36.8125 0 
L 27.59375 0 
Q 17.1875 0 13.234375 3.875 
Q 9.28125 7.765625 9.28125 18.015625 
L 9.28125 47.703125 
L 2.6875 47.703125 
L 2.6875 54.6875 
L 9.28125 54.6875 
L 9.28125 70.21875 
z
" id="DejaVuSans-74"/>
      <path d="M 2.984375 54.6875 
L 12.5 54.6875 
L 29.59375 8.796875 
L 46.6875 54.6875 
L 56.203125 54.6875 
L 35.6875 0 
L 23.484375 0 
z
" id="DejaVuSans-76"/>
      <path d="M 44.390625 34.1875 
Q 47.5625 33.109375 50.5625 29.59375 
Q 53.5625 26.078125 56.59375 19.921875 
L 66.609375 0 
L 56 0 
L 46.6875 18.703125 
Q 43.0625 26.03125 39.671875 28.421875 
Q 36.28125 30.8125 30.421875 30.8125 
L 19.671875 30.8125 
L 19.671875 0 
L 9.8125 0 
L 9.8125 72.90625 
L 32.078125 72.90625 
Q 44.578125 72.90625 50.734375 67.671875 
Q 56.890625 62.453125 56.890625 51.90625 
Q 56.890625 45.015625 53.6875 40.46875 
Q 50.484375 35.9375 44.390625 34.1875 
M 19.671875 64.796875 
L 19.671875 38.921875 
L 32.078125 38.921875 
Q 39.203125 38.921875 42.84375 42.21875 
Q 46.484375 45.515625 46.484375 51.90625 
Q 46.484375 58.296875 42.84375 61.546875 
Q 39.203125 64.796875 32.078125 64.796875 
z
" id="DejaVuSans-52"/>
     </defs>
     <g transform="translate(175.135781 330.144062)scale(0.1 -0.1)">
      <use xlink:href="#DejaVuSans-46"/>
      <use x="57.378906" xlink:href="#DejaVuSans-61"/>
      <use x="118.658203" xlink:href="#DejaVuSans-6c"/>
      <use x="146.441406" xlink:href="#DejaVuSans-73"/>
      <use x="198.541016" xlink:href="#DejaVuSans-65"/>
      <use x="260.064453" xlink:href="#DejaVuSans-20"/>
      <use x="291.851562" xlink:href="#DejaVuSans-50"/>
      <use x="352.107422" xlink:href="#DejaVuSans-6f"/>
      <use x="413.289062" xlink:href="#DejaVuSans-73"/>
      <use x="465.388672" xlink:href="#DejaVuSans-69"/>
      <use x="493.171875" xlink:href="#DejaVuSans-74"/>
      <use x="532.380859" xlink:href="#DejaVuSans-69"/>
      <use x="560.164062" xlink:href="#DejaVuSans-76"/>
      <use x="619.34375" xlink:href="#DejaVuSans-65"/>
      <use x="680.867188" xlink:href="#DejaVuSans-20"/>
      <use x="712.654297" xlink:href="#DejaVuSans-52"/>
      <use x="782.105469" xlink:href="#DejaVuSans-61"/>
      <use x="843.384766" xlink:href="#DejaVuSans-74"/>
      <use x="882.59375" xlink:href="#DejaVuSans-65"/>
     </g>
    </g>
   </g>
   <g id="matplotlib.axis_2">
    <g id="ytick_1">
     <g id="line2d_7">
      <defs>
       <path d="M 0 0 
L -3.5 0 
" id="m7bbe9834a4" style="stroke:#000000;stroke-width:0.8;"/>
      </defs>
      <g>
       <use style="stroke:#000000;stroke-width:0.8;" x="43.78125" xlink:href="#m7bbe9834a4" y="301.8675"/>
      </g>
     </g>
     <g id="text_8">
      <!-- 0.0 -->
      <g transform="translate(20.878125 305.666719)scale(0.1 -0.1)">
       <use xlink:href="#DejaVuSans-30"/>
       <use x="63.623047" xlink:href="#DejaVuSans-2e"/>
       <use x="95.410156" xlink:href="#DejaVuSans-30"/>
      </g>
     </g>
    </g>
    <g id="ytick_2">
     <g id="line2d_8">
      <g>
       <use style="stroke:#000000;stroke-width:0.8;" x="43.78125" xlink:href="#m7bbe9834a4" y="251.1795"/>
      </g>
     </g>
     <g id="text_9">
      <!-- 0.2 -->
      <g transform="translate(20.878125 254.978719)scale(0.1 -0.1)">
       <use xlink:href="#DejaVuSans-30"/>
       <use x="63.623047" xlink:href="#DejaVuSans-2e"/>
       <use x="95.410156" xlink:href="#DejaVuSans-32"/>
      </g>
     </g>
    </g>
    <g id="ytick_3">
     <g id="line2d_9">
      <g>
       <use style="stroke:#000000;stroke-width:0.8;" x="43.78125" xlink:href="#m7bbe9834a4" y="200.4915"/>
      </g>
     </g>
     <g id="text_10">
      <!-- 0.4 -->
      <g transform="translate(20.878125 204.290719)scale(0.1 -0.1)">
       <use xlink:href="#DejaVuSans-30"/>
       <use x="63.623047" xlink:href="#DejaVuSans-2e"/>
       <use x="95.410156" xlink:href="#DejaVuSans-34"/>
      </g>
     </g>
    </g>
    <g id="ytick_4">
     <g id="line2d_10">
      <g>
       <use style="stroke:#000000;stroke-width:0.8;" x="43.78125" xlink:href="#m7bbe9834a4" y="149.8035"/>
      </g>
     </g>
     <g id="text_11">
      <!-- 0.6 -->
      <g transform="translate(20.878125 153.602719)scale(0.1 -0.1)">
       <use xlink:href="#DejaVuSans-30"/>
       <use x="63.623047" xlink:href="#DejaVuSans-2e"/>
       <use x="95.410156" xlink:href="#DejaVuSans-36"/>
      </g>
     </g>
    </g>
    <g id="ytick_5">
     <g id="line2d_11">
      <g>
       <use style="stroke:#000000;stroke-width:0.8;" x="43.78125" xlink:href="#m7bbe9834a4" y="99.1155"/>
      </g>
     </g>
     <g id="text_12">
      <!-- 0.8 -->
      <g transform="translate(20.878125 102.914719)scale(0.1 -0.1)">
       <use xlink:href="#DejaVuSans-30"/>
       <use x="63.623047" xlink:href="#DejaVuSans-2e"/>
       <use x="95.410156" xlink:href="#DejaVuSans-38"/>
      </g>
     </g>
    </g>
    <g id="ytick_6">
     <g id="line2d_12">
      <g>
       <use style="stroke:#000000;stroke-width:0.8;" x="43.78125" xlink:href="#m7bbe9834a4" y="48.4275"/>
      </g>
     </g>
     <g id="text_13">
      <!-- 1.0 -->
      <g transform="translate(20.878125 52.226719)scale(0.1 -0.1)">
       <use xlink:href="#DejaVuSans-31"/>
       <use x="63.623047" xlink:href="#DejaVuSans-2e"/>
       <use x="95.410156" xlink:href="#DejaVuSans-30"/>
      </g>
     </g>
    </g>
    <g id="text_14">
     <!-- True Positive Rate -->
     <defs>
      <path d="M -0.296875 72.90625 
L 61.375 72.90625 
L 61.375 64.59375 
L 35.5 64.59375 
L 35.5 0 
L 25.59375 0 
L 25.59375 64.59375 
L -0.296875 64.59375 
z
" id="DejaVuSans-54"/>
      <path d="M 41.109375 46.296875 
Q 39.59375 47.171875 37.8125 47.578125 
Q 36.03125 48 33.890625 48 
Q 26.265625 48 22.1875 43.046875 
Q 18.109375 38.09375 18.109375 28.8125 
L 18.109375 0 
L 9.078125 0 
L 9.078125 54.6875 
L 18.109375 54.6875 
L 18.109375 46.1875 
Q 20.953125 51.171875 25.484375 53.578125 
Q 30.03125 56 36.53125 56 
Q 37.453125 56 38.578125 55.875 
Q 39.703125 55.765625 41.0625 55.515625 
z
" id="DejaVuSans-72"/>
      <path d="M 8.5 21.578125 
L 8.5 54.6875 
L 17.484375 54.6875 
L 17.484375 21.921875 
Q 17.484375 14.15625 20.5 10.265625 
Q 23.53125 6.390625 29.59375 6.390625 
Q 36.859375 6.390625 41.078125 11.03125 
Q 45.3125 15.671875 45.3125 23.6875 
L 45.3125 54.6875 
L 54.296875 54.6875 
L 54.296875 0 
L 45.3125 0 
L 45.3125 8.40625 
Q 42.046875 3.421875 37.71875 1 
Q 33.40625 -1.421875 27.6875 -1.421875 
Q 18.265625 -1.421875 13.375 4.4375 
Q 8.5 10.296875 8.5 21.578125 
M 31.109375 56 
z
" id="DejaVuSans-75"/>
     </defs>
     <g transform="translate(14.798438 214.357594)rotate(-90)scale(0.1 -0.1)">
      <use xlink:href="#DejaVuSans-54"/>
      <use x="60.865234" xlink:href="#DejaVuSans-72"/>
      <use x="101.978516" xlink:href="#DejaVuSans-75"/>
      <use x="165.357422" xlink:href="#DejaVuSans-65"/>
      <use x="226.880859" xlink:href="#DejaVuSans-20"/>
      <use x="258.667969" xlink:href="#DejaVuSans-50"/>
      <use x="318.923828" xlink:href="#DejaVuSans-6f"/>
      <use x="380.105469" xlink:href="#DejaVuSans-73"/>
      <use x="432.205078" xlink:href="#DejaVuSans-69"/>
      <use x="459.988281" xlink:href="#DejaVuSans-74"/>
      <use x="499.197266" xlink:href="#DejaVuSans-69"/>
      <use x="526.980469" xlink:href="#DejaVuSans-76"/>
      <use x="586.160156" xlink:href="#DejaVuSans-65"/>
      <use x="647.683594" xlink:href="#DejaVuSans-20"/>
      <use x="679.470703" xlink:href="#DejaVuSans-52"/>
      <use x="748.921875" xlink:href="#DejaVuSans-61"/>
      <use x="810.201172" xlink:href="#DejaVuSans-74"/>
      <use x="849.410156" xlink:href="#DejaVuSans-65"/>
     </g>
    </g>
   </g>
   <g id="line2d_13">
    <path clip-path="url(#p504c3b93cf)" d="M 43.78125 301.8675 
L 43.98368 301.8675 
L 44.051156 300.933446 
L 44.321063 300.933446 
L 44.456016 300.310743 
L 44.725923 296.574527 
L 44.827138 296.574527 
L 45.124035 293.461014 
L 45.22525 293.461014 
L 45.292726 292.838311 
L 45.427679 292.838311 
L 45.616614 291.592905 
L 45.819044 291.592905 
L 46.858184 279.761554 
L 46.993137 279.761554 
L 47.161829 278.516149 
L 48.173978 268.864257 
L 48.511361 266.996149 
L 48.680052 266.996149 
L 48.848744 265.750743 
L 48.916221 265.750743 
L 49.179379 263.259932 
L 49.348071 263.259932 
L 49.456034 262.014527 
L 50.029585 259.212365 
L 50.137547 256.410203 
L 53.106519 230.568041 
L 53.27521 230.568041 
L 54.152406 222.472905 
L 54.219883 222.472905 
L 54.327845 221.2275 
L 54.968873 216.245878 
L 55.070088 216.245878 
L 55.272518 212.509662 
L 55.920294 206.905338 
L 56.055247 206.905338 
L 56.176705 205.659932 
L 56.27792 205.659932 
L 56.453359 204.414527 
L 56.554574 204.414527 
L 56.743508 203.169122 
L 56.844723 203.169122 
L 57.053901 201.923716 
L 57.188854 201.923716 
L 57.310312 200.678311 
L 57.411527 200.678311 
L 57.580218 200.055608 
L 57.647695 200.055608 
L 58.18076 197.564797 
L 58.342704 195.073986 
L 58.410181 195.073986 
L 58.464162 194.451284 
L 58.970237 194.451284 
L 59.213153 191.33777 
L 59.348106 191.33777 
L 59.456068 190.092365 
L 59.523545 189.469662 
L 60.130835 189.469662 
L 60.272535 188.224257 
L 60.340012 186.6675 
L 60.474965 186.6675 
L 60.542442 185.422095 
L 60.947302 185.422095 
L 61.149731 184.488041 
L 61.453376 184.488041 
L 61.520853 183.242635 
L 61.723283 183.242635 
L 61.90547 182.308581 
L 61.972946 182.308581 
L 62.13489 181.685878 
L 62.303582 181.685878 
L 62.472273 180.751824 
L 62.593731 180.129122 
L 62.796161 177.015608 
L 62.863638 177.015608 
L 63.032329 176.081554 
L 63.133544 176.081554 
L 63.268497 175.458851 
L 63.470927 175.458851 
L 63.592385 174.213446 
L 63.89603 174.213446 
L 63.963506 173.590743 
L 64.334628 173.590743 
L 64.388609 172.968041 
L 65.198329 172.968041 
L 65.265805 171.722635 
L 65.97431 171.722635 
L 66.041786 171.099932 
L 66.176739 171.099932 
L 66.433151 169.231824 
L 66.534366 169.231824 
L 66.703057 168.609122 
L 67.24287 168.609122 
L 67.398066 167.986419 
L 67.701711 167.986419 
L 67.769188 167.363716 
L 68.174047 167.363716 
L 68.275262 167.052365 
L 68.983767 167.052365 
L 69.226683 164.872905 
L 69.294159 164.872905 
L 69.361636 164.250203 
L 69.645038 163.316149 
L 70.151112 163.316149 
L 70.218589 162.693446 
L 70.690925 162.693446 
L 70.825878 162.070743 
L 70.99457 162.070743 
L 71.116028 160.825338 
L 71.622103 160.825338 
L 71.723317 158.95723 
L 71.858271 158.95723 
L 72.013467 158.334527 
L 72.080944 158.334527 
L 72.134925 157.711824 
L 72.371093 157.711824 
L 72.43857 156.77777 
L 72.775953 156.77777 
L 72.829934 156.155068 
L 73.066102 156.155068 
L 73.214551 155.221014 
L 73.315766 155.221014 
L 73.470962 154.598311 
L 74.348158 154.598311 
L 74.483111 153.664257 
L 75.765167 153.664257 
L 75.920363 153.041554 
L 77.607279 153.041554 
L 77.742232 152.730203 
L 78.079615 152.730203 
L 78.302288 151.484797 
L 78.538456 151.484797 
L 78.605932 150.862095 
L 78.943316 150.862095 
L 79.348175 148.059932 
L 79.415652 147.748581 
L 80.157895 147.748581 
L 80.340082 146.191824 
L 80.812418 146.191824 
L 80.886642 144.323716 
L 81.52767 144.323716 
L 81.696362 143.389662 
L 81.763838 143.078311 
L 82.674773 143.078311 
L 82.742249 142.455608 
L 84.564118 142.455608 
L 84.699071 142.144257 
L 86.31851 142.144257 
L 86.588416 141.832905 
L 88.275332 141.832905 
L 88.349556 139.964797 
L 92.094508 139.964797 
L 92.161985 139.342095 
L 92.398153 139.342095 
L 92.566845 138.408041 
L 92.701798 137.785338 
L 93.376564 137.785338 
L 93.53176 137.162635 
L 93.599237 137.162635 
L 93.801667 136.851284 
L 94.240265 136.851284 
L 94.375218 136.228581 
L 94.746339 136.228581 
L 94.813816 135.294527 
L 97.074283 135.294527 
L 97.242974 134.983176 
L 97.647834 134.983176 
L 97.715311 134.671824 
L 99.13232 134.671824 
L 99.199796 134.360473 
L 99.334749 134.360473 
L 99.516936 133.426419 
L 99.584413 133.426419 
L 99.685628 132.492365 
L 100.562824 132.492365 
L 100.60331 130.624257 
L 102.18901 130.624257 
L 102.36445 128.756149 
L 103.74772 128.756149 
L 103.848935 128.444797 
L 104.658655 128.444797 
L 104.726131 128.133446 
L 104.867832 126.265338 
L 106.183626 126.265338 
L 106.386056 125.953986 
L 106.689701 125.953986 
L 106.824654 125.019932 
L 106.925869 125.019932 
L 107.027084 124.085878 
L 111.008204 124.085878 
L 111.244373 123.463176 
L 113.471101 123.463176 
L 113.639792 122.529122 
L 115.495399 122.529122 
L 115.596614 121.595068 
L 116.507549 121.595068 
L 116.575025 120.972365 
L 117.789604 120.972365 
L 117.890819 120.038311 
L 118.363156 120.038311 
L 118.653305 119.104257 
L 119.699193 119.104257 
L 119.867884 117.236149 
L 120.54265 117.236149 
L 120.610127 116.613446 
L 121.048725 116.613446 
L 121.116202 116.302095 
L 121.453585 116.302095 
L 121.521061 115.679392 
L 126.581808 115.679392 
L 126.635789 114.745338 
L 128.187751 114.745338 
L 128.3362 113.811284 
L 130.562928 113.811284 
L 130.751863 112.87723 
L 131.291676 112.87723 
L 131.345657 111.943176 
L 135.461731 111.943176 
L 135.630422 111.009122 
L 138.801823 111.009122 
L 138.923281 110.075068 
L 139.024496 110.075068 
L 139.159449 109.452365 
L 140.002907 109.452365 
L 140.164851 107.584257 
L 141.885505 107.584257 
L 141.925991 104.782095 
L 148.302531 104.782095 
L 148.471223 104.159392 
L 148.842344 104.159392 
L 149.078512 103.848041 
L 149.382157 103.848041 
L 152.283652 101.668581 
L 152.958418 101.668581 
L 153.093371 97.932365 
L 156.973276 97.621014 
L 160.515799 97.621014 
L 161.156827 97.309662 
L 161.797855 97.309662 
L 161.932808 96.998311 
L 162.506359 96.998311 
L 162.607574 96.064257 
L 163.48477 96.064257 
L 163.552247 95.752905 
L 166.244564 95.752905 
L 166.366022 94.818851 
L 167.074526 94.818851 
L 167.276956 93.884797 
L 170.55632 93.884797 
L 170.691273 92.016689 
L 172.074544 92.016689 
L 172.209497 87.346419 
L 172.34445 87.035068 
L 173.154169 87.035068 
L 173.282375 85.166959 
L 179.119102 85.166959 
L 179.5577 84.544257 
L 179.928822 84.544257 
L 179.989551 82.676149 
L 184.308054 82.676149 
L 184.389026 81.742095 
L 186.075942 81.742095 
L 186.143418 81.430743 
L 192.992295 81.430743 
L 193.154239 79.562635 
L 197.675172 79.562635 
L 198.653583 78.005878 
L 198.788537 78.005878 
L 199.193396 77.694527 
L 199.497041 77.694527 
L 199.631994 77.383176 
L 201.656293 77.383176 
L 201.824984 76.760473 
L 202.432274 76.760473 
L 202.58747 75.826419 
L 206.089507 75.826419 
L 209.058478 68.665338 
L 218.538943 68.665338 
L 219.17997 68.353986 
L 229.16651 68.353986 
L 229.348697 67.419932 
L 229.719818 67.419932 
L 229.875014 66.485878 
L 230.144921 66.485878 
L 230.367594 65.551824 
L 230.704977 65.551824 
L 230.860173 64.61777 
L 232.71578 64.61777 
L 232.850733 63.995068 
L 235.009985 63.995068 
L 235.165181 63.061014 
L 239.78733 63.061014 
L 239.868301 62.126959 
L 240.340638 62.126959 
L 240.678021 60.258851 
L 241.082881 60.258851 
L 241.150357 59.636149 
L 246.042412 59.636149 
L 246.265085 58.702095 
L 260.097792 58.702095 
L 260.151773 57.768041 
L 260.421679 57.768041 
L 260.603866 56.833986 
L 267.823864 56.833986 
L 267.958818 56.522635 
L 273.559377 56.522635 
L 276.730778 55.588581 
L 277.338067 55.588581 
L 277.392049 54.965878 
L 288.72812 54.965878 
L 288.782102 54.031824 
L 314.187048 54.031824 
L 314.315254 52.163716 
L 329.16011 52.163716 
L 329.200596 50.295608 
L 367.230418 50.295608 
L 367.385614 49.361554 
L 383.613741 49.361554 
L 383.762189 48.4275 
L 400.90125 48.4275 
L 400.90125 48.4275 
" style="fill:none;stroke:#1f77b4;stroke-linecap:square;stroke-width:1.5;"/>
   </g>
   <g id="line2d_14">
    <path clip-path="url(#p504c3b93cf)" d="M 43.78125 301.8675 
L 43.882465 301.8675 
L 43.98368 301.244797 
L 44.38854 301.244797 
L 44.489754 299.999392 
L 44.725923 295.640473 
L 44.995829 294.083716 
L 45.299474 293.461014 
L 45.434427 292.215608 
L 45.77181 292.215608 
L 45.987735 290.3475 
L 46.142932 289.102095 
L 46.277885 289.102095 
L 46.682745 287.233986 
L 46.851436 284.743176 
L 49.584239 272.911824 
L 49.833903 271.666419 
L 50.508669 267.930203 
L 50.535659 266.062095 
L 50.974257 262.63723 
L 51.075472 262.63723 
L 51.412855 260.45777 
L 52.391266 257.344257 
L 52.823117 253.919392 
L 52.924332 253.919392 
L 53.059285 252.673986 
L 54.982369 241.465338 
L 55.623396 236.483716 
L 55.927041 236.483716 
L 56.62205 229.945338 
L 56.837976 226.831824 
L 57.080891 223.406959 
L 57.215845 223.406959 
L 57.586966 219.048041 
L 57.654443 219.048041 
L 57.856872 215.623176 
L 58.025564 215.623176 
L 58.194256 213.755068 
L 58.362947 212.821014 
L 58.47091 211.575608 
L 58.605863 211.575608 
L 58.842031 210.330203 
L 59.044461 210.330203 
L 59.314367 208.462095 
L 59.483059 208.462095 
L 59.604517 206.282635 
L 59.73947 206.282635 
L 59.935152 204.414527 
L 60.137582 204.103176 
L 60.272535 202.235068 
L 60.542442 200.989662 
L 60.98104 200.989662 
L 61.129488 200.366959 
L 61.29818 200.366959 
L 61.406143 198.1875 
L 61.709787 198.1875 
L 61.878479 196.630743 
L 61.979694 195.696689 
L 62.114647 195.696689 
L 62.317077 194.139932 
L 62.485768 194.139932 
L 62.76917 191.026419 
L 62.823152 190.403716 
L 62.958105 190.403716 
L 63.025581 189.781014 
L 63.666609 189.158311 
L 63.92302 185.733446 
L 64.057974 185.733446 
L 64.260404 184.488041 
L 64.429095 184.488041 
L 64.550553 183.242635 
L 64.921674 183.242635 
L 65.056628 181.99723 
L 65.340029 181.374527 
L 65.407506 181.374527 
L 65.744889 178.883716 
L 66.048534 178.883716 
L 66.250964 177.326959 
L 66.588347 177.326959 
L 66.858253 175.458851 
L 66.959468 175.458851 
L 67.094421 175.1475 
L 67.296851 175.1475 
L 67.350833 174.524797 
L 68.093075 174.524797 
L 68.275262 173.902095 
L 68.477692 173.902095 
L 68.545169 173.279392 
L 68.781337 173.279392 
L 68.983767 172.345338 
L 70.097131 172.345338 
L 70.609953 168.920473 
L 70.778645 168.920473 
L 70.913598 168.29777 
L 71.487149 168.29777 
L 71.723317 167.675068 
L 71.993224 167.675068 
L 72.195654 165.806959 
L 72.371093 164.561554 
L 72.573523 164.561554 
L 73.012121 161.448041 
L 73.349504 161.448041 
L 73.403485 160.513986 
L 73.70713 160.513986 
L 73.774607 159.891284 
L 74.044513 159.268581 
L 74.199709 158.645878 
L 74.435877 158.645878 
L 74.739522 157.711824 
L 75.157877 156.466419 
L 75.326569 156.466419 
L 75.461522 155.843716 
L 76.811054 155.843716 
L 76.946008 154.598311 
L 77.553297 154.598311 
L 77.620774 153.664257 
L 78.126848 153.664257 
L 78.194325 152.418851 
L 78.666661 152.418851 
L 78.734138 151.484797 
L 79.780026 151.484797 
L 79.96896 150.239392 
L 81.014848 150.239392 
L 81.12281 148.371284 
L 81.291502 148.371284 
L 81.473689 147.748581 
L 81.946025 147.748581 
L 82.350885 146.814527 
L 83.531726 146.814527 
L 83.700417 146.191824 
L 83.781389 145.569122 
L 87.161968 145.569122 
L 87.283426 144.946419 
L 87.485855 144.946419 
L 87.553332 144.635068 
L 87.688285 144.635068 
L 87.769257 144.012365 
L 87.90421 144.012365 
L 88.059407 143.389662 
L 88.59922 143.389662 
L 88.666696 142.455608 
L 89.645107 142.455608 
L 89.78006 141.832905 
L 91.703144 141.832905 
L 91.824602 141.210203 
L 93.545256 141.210203 
L 93.700452 140.5875 
L 93.801667 139.653446 
L 94.004097 139.653446 
L 94.193031 138.096689 
L 94.766582 138.096689 
L 94.948769 137.162635 
L 97.344189 137.162635 
L 97.546619 136.228581 
L 98.12017 136.228581 
L 98.342843 134.671824 
L 100.097235 134.671824 
L 100.232188 133.426419 
L 101.885366 133.426419 
L 102.087795 132.492365 
L 103.336113 132.492365 
L 103.471066 131.869662 
L 105.967701 131.869662 
L 106.11615 131.246959 
L 106.318579 130.624257 
L 106.959607 130.624257 
L 107.195775 129.690203 
L 109.759887 129.690203 
L 109.861102 127.822095 
L 110.468391 127.822095 
L 110.569606 126.265338 
L 111.784185 126.265338 
L 111.959625 124.085878 
L 113.106727 124.085878 
L 113.160708 123.463176 
L 114.915101 123.463176 
L 115.185007 122.529122 
L 118.153978 122.529122 
L 118.221455 121.906419 
L 118.5251 121.906419 
L 118.619567 120.972365 
L 118.990688 120.972365 
L 119.15938 120.349662 
L 119.631716 120.349662 
L 119.834146 119.415608 
L 120.576389 119.415608 
L 120.704594 117.5475 
L 122.054127 117.5475 
L 122.18908 116.302095 
L 123.707304 116.302095 
L 123.8625 115.679392 
L 124.436051 115.679392 
L 124.638481 114.433986 
L 126.089228 114.433986 
L 126.1702 113.499932 
L 130.488704 113.499932 
L 130.61691 112.254527 
L 131.662797 112.254527 
L 131.79775 111.631824 
L 137.027188 111.631824 
L 139.051487 109.141014 
L 141.662832 109.141014 
L 142.270121 108.206959 
L 149.726288 108.206959 
L 149.942213 106.650203 
L 152.101465 106.650203 
L 152.20268 106.0275 
L 153.181091 106.0275 
L 154.058287 104.782095 
L 154.159501 104.782095 
L 154.382174 104.159392 
L 155.090679 104.159392 
L 158.329556 96.998311 
L 159.611612 96.064257 
L 160.522547 96.064257 
L 160.745219 95.441554 
L 163.781667 95.441554 
L 163.862639 94.5075 
L 164.301237 94.5075 
L 164.483424 93.573446 
L 165.023237 93.573446 
L 166.440246 92.950743 
L 166.642676 92.016689 
L 166.80462 90.148581 
L 167.648077 90.148581 
L 167.877498 88.280473 
L 168.889647 88.280473 
L 169.058339 87.346419 
L 169.63189 87.346419 
L 169.760096 85.478311 
L 169.962525 85.478311 
L 170.164955 84.855608 
L 171.244581 84.855608 
L 172.45916 82.9875 
L 177.040823 82.9875 
L 180.752037 78.628581 
L 181.325588 78.628581 
L 181.831662 78.005878 
L 186.318858 78.005878 
L 186.507792 77.383176 
L 186.676484 77.383176 
L 186.858671 76.449122 
L 190.974744 76.449122 
L 191.177174 75.826419 
L 191.615772 75.826419 
L 191.750725 75.203716 
L 191.912669 73.335608 
L 193.667061 73.335608 
L 194.746687 72.401554 
L 195.758836 72.401554 
L 195.89379 71.4675 
L 197.580705 71.4675 
L 197.648182 70.222095 
L 198.08678 70.222095 
L 198.221733 69.288041 
L 200.043602 69.288041 
L 200.246031 67.419932 
L 201.899209 67.419932 
L 202.101638 66.485878 
L 207.128647 66.485878 
L 207.499768 65.240473 
L 214.618551 65.240473 
L 214.753504 64.306419 
L 215.124626 64.306419 
L 215.192102 63.995068 
L 215.83313 63.995068 
L 216.015317 63.372365 
L 220.772419 63.372365 
L 220.839895 62.749662 
L 222.553801 62.749662 
L 222.735988 61.815608 
L 228.269071 61.815608 
L 228.538977 61.192905 
L 238.491778 61.192905 
L 238.626732 60.570203 
L 242.061292 60.570203 
L 242.196245 59.9475 
L 246.346057 59.9475 
L 246.413533 59.013446 
L 258.120727 59.013446 
L 258.593063 57.145338 
L 266.042482 57.145338 
L 266.103211 55.27723 
L 267.182836 55.27723 
L 267.351528 54.654527 
L 280.921076 54.654527 
L 281.123506 53.720473 
L 294.753782 53.720473 
L 294.814511 51.852365 
L 317.412431 51.852365 
L 317.662094 51.229662 
L 322.115551 51.229662 
L 322.250504 49.361554 
L 398.661026 49.361554 
L 398.741998 48.4275 
L 400.90125 48.4275 
L 400.90125 48.4275 
" style="fill:none;stroke:#ff7f0e;stroke-linecap:square;stroke-width:1.5;"/>
   </g>
   <g id="line2d_15">
    <path clip-path="url(#p504c3b93cf)" d="M 43.78125 301.8675 
L 44.186117 299.997094 
L 44.354812 299.997094 
L 44.658463 298.126688 
L 44.860896 298.126688 
L 44.995852 297.50322 
L 45.130808 294.385876 
L 45.333242 293.762408 
L 45.495188 289.398127 
L 45.900056 289.398127 
L 46.10249 287.527721 
L 46.203706 287.527721 
L 46.574835 283.475175 
L 49.523619 266.329788 
L 49.759791 263.835913 
L 49.827269 263.212445 
L 50.299614 263.212445 
L 50.502048 261.342039 
L 50.704482 259.471633 
L 50.906915 259.471633 
L 52.411672 248.872666 
L 52.465655 248.249197 
L 55.097293 232.974216 
L 55.198509 231.10381 
L 55.468421 231.10381 
L 55.637116 229.856873 
L 56.041983 226.73953 
L 56.109461 226.73953 
L 56.345634 225.492592 
L 56.480589 225.492592 
L 56.696519 221.128312 
L 56.898952 221.128312 
L 57.033908 219.257906 
L 57.337559 219.257906 
L 57.506253 218.634437 
L 57.641209 218.010969 
L 57.681696 216.764031 
L 58.019085 215.517094 
L 58.221519 215.517094 
L 58.457692 212.711485 
L 58.660125 212.711485 
L 58.909794 210.217611 
L 59.01101 210.217611 
L 59.078488 209.594142 
L 59.213444 209.594142 
L 59.402382 208.347205 
L 59.874727 208.347205 
L 60.077161 206.476799 
L 60.515767 206.476799 
L 60.704706 204.606393 
L 60.839661 204.606393 
L 60.974617 203.359456 
L 61.109573 203.359456 
L 61.278268 202.112518 
L 61.51444 202.112518 
L 61.750613 200.865581 
L 61.818091 200.865581 
L 62.195967 198.371707 
L 62.43214 198.371707 
L 62.5536 197.124769 
L 62.756033 197.124769 
L 62.890989 196.501301 
L 63.903158 196.501301 
L 64.105591 195.877832 
L 64.173069 195.877832 
L 64.227052 195.254363 
L 64.429485 195.254363 
L 64.604928 194.007426 
L 64.672406 194.007426 
L 64.814109 192.760489 
L 64.949065 192.760489 
L 65.016543 192.13702 
L 65.961233 192.13702 
L 66.082694 191.513552 
L 66.386344 191.513552 
L 66.541543 190.266614 
L 66.609021 190.266614 
L 66.663003 189.643146 
L 67.000393 189.643146 
L 67.438999 187.77274 
L 67.540216 187.77274 
L 67.648181 186.525803 
L 68.356699 186.525803 
L 68.511898 185.902334 
L 68.734575 185.278865 
L 69.274398 185.278865 
L 69.746743 181.849788 
L 70.455261 181.849788 
L 70.657695 180.291116 
L 70.860128 180.291116 
L 71.015328 179.667648 
L 71.082805 179.667648 
L 71.150283 179.044179 
L 71.285239 179.044179 
L 71.440438 178.42071 
L 71.575394 178.42071 
L 71.946522 175.926836 
L 72.418868 175.926836 
L 72.587562 174.991633 
L 72.958691 174.991633 
L 73.140881 174.05643 
L 73.275837 174.05643 
L 73.75493 169.068681 
L 74.463448 169.068681 
L 74.598404 168.445212 
L 74.800837 168.445212 
L 74.996523 167.821744 
L 75.705041 167.821744 
L 75.759023 167.198275 
L 76.535019 167.198275 
L 76.636236 166.263072 
L 77.176059 166.263072 
L 77.47971 165.016135 
L 77.715882 164.392666 
L 77.78336 164.392666 
L 77.884577 163.457463 
L 79.40283 163.457463 
L 79.510794 162.210526 
L 79.612011 160.963589 
L 79.881923 160.963589 
L 80.084356 158.15798 
L 81.433914 158.15798 
L 81.595861 157.534511 
L 82.742985 157.534511 
L 82.796968 156.911042 
L 84.112787 156.911042 
L 84.382698 155.975839 
L 84.720088 155.975839 
L 84.77407 155.352371 
L 84.976504 155.352371 
L 85.131703 154.105434 
L 88.539336 154.105434 
L 89.031925 151.611559 
L 89.706704 151.611559 
L 89.909138 150.98809 
L 90.14531 150.98809 
L 90.314005 150.364622 
L 90.381483 150.364622 
L 90.536682 149.741153 
L 90.60416 149.741153 
L 90.772855 149.117685 
L 90.90781 149.117685 
L 91.380156 145.688607 
L 92.594758 145.688607 
L 92.729713 145.065138 
L 93.202059 145.065138 
L 93.458475 143.506467 
L 93.627169 143.506467 
L 93.829603 142.25953 
L 95.51655 142.25953 
L 95.570533 141.636061 
L 100.570645 141.636061 
L 100.908034 139.142186 
L 101.920202 139.142186 
L 102.122636 138.206983 
L 102.561242 138.206983 
L 102.662459 137.27178 
L 105.901398 137.27178 
L 106.04985 136.336577 
L 106.252283 136.336577 
L 106.29277 135.08964 
L 106.495204 134.466172 
L 107.169983 134.466172 
L 107.311686 133.219234 
L 108.391332 133.219234 
L 108.593766 132.595766 
L 110.07828 132.595766 
L 110.179497 130.72536 
L 111.292882 130.72536 
L 111.461577 128.854954 
L 111.900183 128.854954 
L 112.0014 127.919751 
L 112.608701 127.919751 
L 112.878612 126.049345 
L 113.452174 126.049345 
L 113.519652 125.425876 
L 114.633037 125.425876 
L 114.788237 124.802408 
L 115.226843 124.802408 
L 115.395538 123.867205 
L 117.419874 123.867205 
L 117.602065 122.932002 
L 118.310583 122.932002 
L 118.681711 120.126393 
L 118.816667 120.126393 
L 118.917884 119.502924 
L 119.221534 119.502924 
L 119.53868 118.567721 
L 120.415893 118.567721 
L 120.888238 117.632518 
L 121.225628 117.632518 
L 121.306601 116.697315 
L 121.542774 116.697315 
L 121.711468 116.073847 
L 122.082597 116.073847 
L 122.150075 115.762113 
L 122.892332 115.762113 
L 123.094765 112.956504 
L 126.299965 112.956504 
L 126.549633 112.021301 
L 130.665785 112.021301 
L 130.733263 111.397832 
L 130.935696 111.397832 
L 131.070652 111.086098 
L 131.880387 111.086098 
L 132.11656 109.839161 
L 132.318993 108.592223 
L 132.521427 106.721817 
L 133.162467 106.721817 
L 133.466117 105.786614 
L 134.613242 105.786614 
L 134.916892 105.163146 
L 135.389237 105.163146 
L 135.470211 104.227943 
L 136.010034 104.227943 
L 136.279945 102.357537 
L 139.147756 102.357537 
L 139.215234 102.045803 
L 140.328619 102.045803 
L 140.497314 101.422334 
L 140.800964 101.422334 
L 140.956163 100.798865 
L 142.913022 100.798865 
L 142.993996 99.863662 
L 143.803731 99.863662 
L 143.904947 99.240194 
L 144.242337 99.240194 
L 144.478509 97.681522 
L 146.030501 97.681522 
L 146.111474 96.746319 
L 149.552847 96.746319 
L 149.654064 96.122851 
L 150.261365 96.122851 
L 150.443555 95.499382 
L 150.848423 95.499382 
L 150.9159 95.187648 
L 152.164241 95.187648 
L 152.265458 94.252445 
L 155.065791 94.252445 
L 155.436919 91.446836 
L 155.639353 91.446836 
L 155.74057 89.57643 
L 158.777075 89.57643 
L 158.878292 88.952961 
L 159.451854 88.952961 
L 159.519332 88.329493 
L 159.789243 88.329493 
L 159.991677 87.39429 
L 161.746102 87.39429 
L 161.894554 86.459087 
L 166.111922 86.459087 
L 166.1794 85.835618 
L 168.811038 85.835618 
L 168.892011 84.900415 
L 170.875861 84.900415 
L 171.24699 83.030009 
L 174.519667 83.030009 
L 174.600641 82.094806 
L 180.977302 82.094806 
L 181.112257 81.471338 
L 186.679184 81.471338 
L 186.814139 81.159603 
L 192.752194 81.159603 
L 192.819672 80.847869 
L 194.405402 80.847869 
L 194.68881 79.912666 
L 195.431066 79.912666 
L 195.552527 79.289197 
L 213.103526 79.289197 
L 215.060385 76.171854 
L 215.937598 76.171854 
L 216.059058 75.548386 
L 219.635386 75.548386 
L 220.006515 74.301448 
L 221.794679 74.301448 
L 221.875653 73.366245 
L 226.632844 73.366245 
L 226.734061 72.742777 
L 227.442579 72.742777 
L 227.564039 72.119308 
L 230.364371 72.119308 
L 231.68019 68.690231 
L 233.60331 68.690231 
L 235.897559 59.026467 
L 247.604973 59.026467 
L 247.773668 58.091264 
L 250.135394 58.091264 
L 250.202872 57.77953 
L 270.851107 57.77953 
L 271.154758 55.909124 
L 280.095578 55.909124 
L 280.163056 55.285655 
L 298.928658 55.285655 
L 299.131092 54.350452 
L 313.915498 54.350452 
L 314.219149 53.726983 
L 320.966938 53.726983 
L 321.034416 53.415249 
L 323.693045 53.415249 
L 323.86174 53.103515 
L 359.732988 53.103515 
L 359.793718 51.233109 
L 379.024917 51.233109 
L 379.126134 50.297906 
L 386.042618 50.297906 
L 386.123591 49.362703 
L 397.594833 49.362703 
L 397.763528 49.050969 
L 398.539524 49.050969 
L 398.607002 48.4275 
L 400.90125 48.4275 
L 400.90125 48.4275 
" style="fill:none;stroke:#2ca02c;stroke-linecap:square;stroke-width:1.5;"/>
   </g>
   <g id="line2d_16">
    <path clip-path="url(#p504c3b93cf)" d="M 43.78125 301.8675 
L 400.90125 48.4275 
" style="fill:none;stroke:#000000;stroke-dasharray:5.6,2.4;stroke-dashoffset:0;stroke-width:1.5;"/>
   </g>
   <g id="patch_3">
    <path d="M 43.78125 301.8675 
L 43.78125 35.7555 
" style="fill:none;stroke:#000000;stroke-linecap:square;stroke-linejoin:miter;stroke-width:0.8;"/>
   </g>
   <g id="patch_4">
    <path d="M 400.90125 301.8675 
L 400.90125 35.7555 
" style="fill:none;stroke:#000000;stroke-linecap:square;stroke-linejoin:miter;stroke-width:0.8;"/>
   </g>
   <g id="patch_5">
    <path d="M 43.78125 301.8675 
L 400.90125 301.8675 
" style="fill:none;stroke:#000000;stroke-linecap:square;stroke-linejoin:miter;stroke-width:0.8;"/>
   </g>
   <g id="patch_6">
    <path d="M 43.78125 35.7555 
L 400.90125 35.7555 
" style="fill:none;stroke:#000000;stroke-linecap:square;stroke-linejoin:miter;stroke-width:0.8;"/>
   </g>
   <g id="text_15">
    <!-- ROC Curve GradientBoosting + RandomOverSampler -->
    <defs>
     <path d="M 39.40625 66.21875 
Q 28.65625 66.21875 22.328125 58.203125 
Q 16.015625 50.203125 16.015625 36.375 
Q 16.015625 22.609375 22.328125 14.59375 
Q 28.65625 6.59375 39.40625 6.59375 
Q 50.140625 6.59375 56.421875 14.59375 
Q 62.703125 22.609375 62.703125 36.375 
Q 62.703125 50.203125 56.421875 58.203125 
Q 50.140625 66.21875 39.40625 66.21875 
M 39.40625 74.21875 
Q 54.734375 74.21875 63.90625 63.9375 
Q 73.09375 53.65625 73.09375 36.375 
Q 73.09375 19.140625 63.90625 8.859375 
Q 54.734375 -1.421875 39.40625 -1.421875 
Q 24.03125 -1.421875 14.8125 8.828125 
Q 5.609375 19.09375 5.609375 36.375 
Q 5.609375 53.65625 14.8125 63.9375 
Q 24.03125 74.21875 39.40625 74.21875 
" id="DejaVuSans-4f"/>
     <path d="M 64.40625 67.28125 
L 64.40625 56.890625 
Q 59.421875 61.53125 53.78125 63.8125 
Q 48.140625 66.109375 41.796875 66.109375 
Q 29.296875 66.109375 22.65625 58.46875 
Q 16.015625 50.828125 16.015625 36.375 
Q 16.015625 21.96875 22.65625 14.328125 
Q 29.296875 6.6875 41.796875 6.6875 
Q 48.140625 6.6875 53.78125 8.984375 
Q 59.421875 11.28125 64.40625 15.921875 
L 64.40625 5.609375 
Q 59.234375 2.09375 53.4375 0.328125 
Q 47.65625 -1.421875 41.21875 -1.421875 
Q 24.65625 -1.421875 15.125 8.703125 
Q 5.609375 18.84375 5.609375 36.375 
Q 5.609375 53.953125 15.125 64.078125 
Q 24.65625 74.21875 41.21875 74.21875 
Q 47.75 74.21875 53.53125 72.484375 
Q 59.328125 70.75 64.40625 67.28125 
" id="DejaVuSans-43"/>
     <path d="M 59.515625 10.40625 
L 59.515625 29.984375 
L 43.40625 29.984375 
L 43.40625 38.09375 
L 69.28125 38.09375 
L 69.28125 6.78125 
Q 63.578125 2.734375 56.6875 0.65625 
Q 49.8125 -1.421875 42 -1.421875 
Q 24.90625 -1.421875 15.25 8.5625 
Q 5.609375 18.5625 5.609375 36.375 
Q 5.609375 54.25 15.25 64.234375 
Q 24.90625 74.21875 42 74.21875 
Q 49.125 74.21875 55.546875 72.453125 
Q 61.96875 70.703125 67.390625 67.28125 
L 67.390625 56.78125 
Q 61.921875 61.421875 55.765625 63.765625 
Q 49.609375 66.109375 42.828125 66.109375 
Q 29.4375 66.109375 22.71875 58.640625 
Q 16.015625 51.171875 16.015625 36.375 
Q 16.015625 21.625 22.71875 14.15625 
Q 29.4375 6.6875 42.828125 6.6875 
Q 48.046875 6.6875 52.140625 7.59375 
Q 56.25 8.5 59.515625 10.40625 
" id="DejaVuSans-47"/>
     <path d="M 45.40625 46.390625 
L 45.40625 75.984375 
L 54.390625 75.984375 
L 54.390625 0 
L 45.40625 0 
L 45.40625 8.203125 
Q 42.578125 3.328125 38.25 0.953125 
Q 33.9375 -1.421875 27.875 -1.421875 
Q 17.96875 -1.421875 11.734375 6.484375 
Q 5.515625 14.40625 5.515625 27.296875 
Q 5.515625 40.1875 11.734375 48.09375 
Q 17.96875 56 27.875 56 
Q 33.9375 56 38.25 53.625 
Q 42.578125 51.265625 45.40625 46.390625 
M 14.796875 27.296875 
Q 14.796875 17.390625 18.875 11.75 
Q 22.953125 6.109375 30.078125 6.109375 
Q 37.203125 6.109375 41.296875 11.75 
Q 45.40625 17.390625 45.40625 27.296875 
Q 45.40625 37.203125 41.296875 42.84375 
Q 37.203125 48.484375 30.078125 48.484375 
Q 22.953125 48.484375 18.875 42.84375 
Q 14.796875 37.203125 14.796875 27.296875 
" id="DejaVuSans-64"/>
     <path d="M 54.890625 33.015625 
L 54.890625 0 
L 45.90625 0 
L 45.90625 32.71875 
Q 45.90625 40.484375 42.875 44.328125 
Q 39.84375 48.1875 33.796875 48.1875 
Q 26.515625 48.1875 22.3125 43.546875 
Q 18.109375 38.921875 18.109375 30.90625 
L 18.109375 0 
L 9.078125 0 
L 9.078125 54.6875 
L 18.109375 54.6875 
L 18.109375 46.1875 
Q 21.34375 51.125 25.703125 53.5625 
Q 30.078125 56 35.796875 56 
Q 45.21875 56 50.046875 50.171875 
Q 54.890625 44.34375 54.890625 33.015625 
" id="DejaVuSans-6e"/>
     <path d="M 19.671875 34.8125 
L 19.671875 8.109375 
L 35.5 8.109375 
Q 43.453125 8.109375 47.28125 11.40625 
Q 51.125 14.703125 51.125 21.484375 
Q 51.125 28.328125 47.28125 31.5625 
Q 43.453125 34.8125 35.5 34.8125 
z
M 19.671875 64.796875 
L 19.671875 42.828125 
L 34.28125 42.828125 
Q 41.5 42.828125 45.03125 45.53125 
Q 48.578125 48.25 48.578125 53.8125 
Q 48.578125 59.328125 45.03125 62.0625 
Q 41.5 64.796875 34.28125 64.796875 
z
M 9.8125 72.90625 
L 35.015625 72.90625 
Q 46.296875 72.90625 52.390625 68.21875 
Q 58.5 63.53125 58.5 54.890625 
Q 58.5 48.1875 55.375 44.234375 
Q 52.25 40.28125 46.1875 39.3125 
Q 53.46875 37.75 57.5 32.78125 
Q 61.53125 27.828125 61.53125 20.40625 
Q 61.53125 10.640625 54.890625 5.3125 
Q 48.25 0 35.984375 0 
L 9.8125 0 
z
" id="DejaVuSans-42"/>
     <path d="M 45.40625 27.984375 
Q 45.40625 37.75 41.375 43.109375 
Q 37.359375 48.484375 30.078125 48.484375 
Q 22.859375 48.484375 18.828125 43.109375 
Q 14.796875 37.75 14.796875 27.984375 
Q 14.796875 18.265625 18.828125 12.890625 
Q 22.859375 7.515625 30.078125 7.515625 
Q 37.359375 7.515625 41.375 12.890625 
Q 45.40625 18.265625 45.40625 27.984375 
M 54.390625 6.78125 
Q 54.390625 -7.171875 48.1875 -13.984375 
Q 42 -20.796875 29.203125 -20.796875 
Q 24.46875 -20.796875 20.265625 -20.09375 
Q 16.0625 -19.390625 12.109375 -17.921875 
L 12.109375 -9.1875 
Q 16.0625 -11.328125 19.921875 -12.34375 
Q 23.78125 -13.375 27.78125 -13.375 
Q 36.625 -13.375 41.015625 -8.765625 
Q 45.40625 -4.15625 45.40625 5.171875 
L 45.40625 9.625 
Q 42.625 4.78125 38.28125 2.390625 
Q 33.9375 0 27.875 0 
Q 17.828125 0 11.671875 7.65625 
Q 5.515625 15.328125 5.515625 27.984375 
Q 5.515625 40.671875 11.671875 48.328125 
Q 17.828125 56 27.875 56 
Q 33.9375 56 38.28125 53.609375 
Q 42.625 51.21875 45.40625 46.390625 
L 45.40625 54.6875 
L 54.390625 54.6875 
z
" id="DejaVuSans-67"/>
     <path d="M 46 62.703125 
L 46 35.5 
L 73.1875 35.5 
L 73.1875 27.203125 
L 46 27.203125 
L 46 0 
L 37.796875 0 
L 37.796875 27.203125 
L 10.59375 27.203125 
L 10.59375 35.5 
L 37.796875 35.5 
L 37.796875 62.703125 
z
" id="DejaVuSans-2b"/>
     <path d="M 52 44.1875 
Q 55.375 50.25 60.0625 53.125 
Q 64.75 56 71.09375 56 
Q 79.640625 56 84.28125 50.015625 
Q 88.921875 44.046875 88.921875 33.015625 
L 88.921875 0 
L 79.890625 0 
L 79.890625 32.71875 
Q 79.890625 40.578125 77.09375 44.375 
Q 74.3125 48.1875 68.609375 48.1875 
Q 61.625 48.1875 57.5625 43.546875 
Q 53.515625 38.921875 53.515625 30.90625 
L 53.515625 0 
L 44.484375 0 
L 44.484375 32.71875 
Q 44.484375 40.625 41.703125 44.40625 
Q 38.921875 48.1875 33.109375 48.1875 
Q 26.21875 48.1875 22.15625 43.53125 
Q 18.109375 38.875 18.109375 30.90625 
L 18.109375 0 
L 9.078125 0 
L 9.078125 54.6875 
L 18.109375 54.6875 
L 18.109375 46.1875 
Q 21.1875 51.21875 25.484375 53.609375 
Q 29.78125 56 35.6875 56 
Q 41.65625 56 45.828125 52.96875 
Q 50 49.953125 52 44.1875 
" id="DejaVuSans-6d"/>
     <path d="M 53.515625 70.515625 
L 53.515625 60.890625 
Q 47.90625 63.578125 42.921875 64.890625 
Q 37.9375 66.21875 33.296875 66.21875 
Q 25.25 66.21875 20.875 63.09375 
Q 16.5 59.96875 16.5 54.203125 
Q 16.5 49.359375 19.40625 46.890625 
Q 22.3125 44.4375 30.421875 42.921875 
L 36.375 41.703125 
Q 47.40625 39.59375 52.65625 34.296875 
Q 57.90625 29 57.90625 20.125 
Q 57.90625 9.515625 50.796875 4.046875 
Q 43.703125 -1.421875 29.984375 -1.421875 
Q 24.8125 -1.421875 18.96875 -0.25 
Q 13.140625 0.921875 6.890625 3.21875 
L 6.890625 13.375 
Q 12.890625 10.015625 18.65625 8.296875 
Q 24.421875 6.59375 29.984375 6.59375 
Q 38.421875 6.59375 43.015625 9.90625 
Q 47.609375 13.234375 47.609375 19.390625 
Q 47.609375 24.75 44.3125 27.78125 
Q 41.015625 30.8125 33.5 32.328125 
L 27.484375 33.5 
Q 16.453125 35.6875 11.515625 40.375 
Q 6.59375 45.0625 6.59375 53.421875 
Q 6.59375 63.09375 13.40625 68.65625 
Q 20.21875 74.21875 32.171875 74.21875 
Q 37.3125 74.21875 42.625 73.28125 
Q 47.953125 72.359375 53.515625 70.515625 
" id="DejaVuSans-53"/>
     <path d="M 18.109375 8.203125 
L 18.109375 -20.796875 
L 9.078125 -20.796875 
L 9.078125 54.6875 
L 18.109375 54.6875 
L 18.109375 46.390625 
Q 20.953125 51.265625 25.265625 53.625 
Q 29.59375 56 35.59375 56 
Q 45.5625 56 51.78125 48.09375 
Q 58.015625 40.1875 58.015625 27.296875 
Q 58.015625 14.40625 51.78125 6.484375 
Q 45.5625 -1.421875 35.59375 -1.421875 
Q 29.59375 -1.421875 25.265625 0.953125 
Q 20.953125 3.328125 18.109375 8.203125 
M 48.6875 27.296875 
Q 48.6875 37.203125 44.609375 42.84375 
Q 40.53125 48.484375 33.40625 48.484375 
Q 26.265625 48.484375 22.1875 42.84375 
Q 18.109375 37.203125 18.109375 27.296875 
Q 18.109375 17.390625 22.1875 11.75 
Q 26.265625 6.109375 33.40625 6.109375 
Q 40.53125 6.109375 44.609375 11.75 
Q 48.6875 17.390625 48.6875 27.296875 
" id="DejaVuSans-70"/>
    </defs>
    <g transform="translate(62.203125 16.318125)scale(0.12 -0.12)">
     <use xlink:href="#DejaVuSans-52"/>
     <use x="69.482422" xlink:href="#DejaVuSans-4f"/>
     <use x="148.193359" xlink:href="#DejaVuSans-43"/>
     <use x="218.017578" xlink:href="#DejaVuSans-20"/>
     <use x="249.804688" xlink:href="#DejaVuSans-43"/>
     <use x="319.628906" xlink:href="#DejaVuSans-75"/>
     <use x="383.007812" xlink:href="#DejaVuSans-72"/>
     <use x="424.121094" xlink:href="#DejaVuSans-76"/>
     <use x="483.300781" xlink:href="#DejaVuSans-65"/>
     <use x="544.824219" xlink:href="#DejaVuSans-20"/>
     <use x="576.611328" xlink:href="#DejaVuSans-47"/>
     <use x="654.101562" xlink:href="#DejaVuSans-72"/>
     <use x="695.214844" xlink:href="#DejaVuSans-61"/>
     <use x="756.494141" xlink:href="#DejaVuSans-64"/>
     <use x="819.970703" xlink:href="#DejaVuSans-69"/>
     <use x="847.753906" xlink:href="#DejaVuSans-65"/>
     <use x="909.277344" xlink:href="#DejaVuSans-6e"/>
     <use x="972.65625" xlink:href="#DejaVuSans-74"/>
     <use x="1011.865234" xlink:href="#DejaVuSans-42"/>
     <use x="1080.46875" xlink:href="#DejaVuSans-6f"/>
     <use x="1141.650391" xlink:href="#DejaVuSans-6f"/>
     <use x="1202.832031" xlink:href="#DejaVuSans-73"/>
     <use x="1254.931641" xlink:href="#DejaVuSans-74"/>
     <use x="1294.140625" xlink:href="#DejaVuSans-69"/>
     <use x="1321.923828" xlink:href="#DejaVuSans-6e"/>
     <use x="1385.302734" xlink:href="#DejaVuSans-67"/>
     <use x="1448.779297" xlink:href="#DejaVuSans-20"/>
     <use x="1480.566406" xlink:href="#DejaVuSans-2b"/>
     <use x="1564.355469" xlink:href="#DejaVuSans-20"/>
     <use x="1596.142578" xlink:href="#DejaVuSans-52"/>
     <use x="1665.59375" xlink:href="#DejaVuSans-61"/>
     <use x="1726.873047" xlink:href="#DejaVuSans-6e"/>
     <use x="1790.251953" xlink:href="#DejaVuSans-64"/>
     <use x="1853.728516" xlink:href="#DejaVuSans-6f"/>
     <use x="1914.910156" xlink:href="#DejaVuSans-6d"/>
     <use x="2012.322266" xlink:href="#DejaVuSans-4f"/>
     <use x="2091.033203" xlink:href="#DejaVuSans-76"/>
     <use x="2150.212891" xlink:href="#DejaVuSans-65"/>
     <use x="2211.736328" xlink:href="#DejaVuSans-72"/>
     <use x="2252.849609" xlink:href="#DejaVuSans-53"/>
     <use x="2316.326172" xlink:href="#DejaVuSans-61"/>
     <use x="2377.605469" xlink:href="#DejaVuSans-6d"/>
     <use x="2475.017578" xlink:href="#DejaVuSans-70"/>
     <use x="2538.494141" xlink:href="#DejaVuSans-6c"/>
     <use x="2566.277344" xlink:href="#DejaVuSans-65"/>
     <use x="2627.800781" xlink:href="#DejaVuSans-72"/>
    </g>
    <!-- Train: 1   Test: [4, 8, 12, 16, 20, 24, 28] -->
    <defs>
     <path d="M 11.71875 12.40625 
L 22.015625 12.40625 
L 22.015625 0 
L 11.71875 0 
z
M 11.71875 51.703125 
L 22.015625 51.703125 
L 22.015625 39.3125 
L 11.71875 39.3125 
z
" id="DejaVuSans-3a"/>
     <path d="M 8.59375 75.984375 
L 29.296875 75.984375 
L 29.296875 69 
L 17.578125 69 
L 17.578125 -6.203125 
L 29.296875 -6.203125 
L 29.296875 -13.1875 
L 8.59375 -13.1875 
z
" id="DejaVuSans-5b"/>
     <path d="M 11.71875 12.40625 
L 22.015625 12.40625 
L 22.015625 4 
L 14.015625 -11.625 
L 7.71875 -11.625 
L 11.71875 4 
z
" id="DejaVuSans-2c"/>
     <path d="M 30.421875 75.984375 
L 30.421875 -13.1875 
L 9.71875 -13.1875 
L 9.71875 -6.203125 
L 21.390625 -6.203125 
L 21.390625 69 
L 9.71875 69 
L 9.71875 75.984375 
z
" id="DejaVuSans-5d"/>
    </defs>
    <g transform="translate(103.489688 29.7555)scale(0.12 -0.12)">
     <use xlink:href="#DejaVuSans-54"/>
     <use x="60.865234" xlink:href="#DejaVuSans-72"/>
     <use x="101.978516" xlink:href="#DejaVuSans-61"/>
     <use x="163.257812" xlink:href="#DejaVuSans-69"/>
     <use x="191.041016" xlink:href="#DejaVuSans-6e"/>
     <use x="254.419922" xlink:href="#DejaVuSans-3a"/>
     <use x="288.111328" xlink:href="#DejaVuSans-20"/>
     <use x="319.898438" xlink:href="#DejaVuSans-31"/>
     <use x="383.521484" xlink:href="#DejaVuSans-20"/>
     <use x="415.308594" xlink:href="#DejaVuSans-20"/>
     <use x="447.095703" xlink:href="#DejaVuSans-20"/>
     <use x="478.882812" xlink:href="#DejaVuSans-54"/>
     <use x="539.701172" xlink:href="#DejaVuSans-65"/>
     <use x="601.224609" xlink:href="#DejaVuSans-73"/>
     <use x="653.324219" xlink:href="#DejaVuSans-74"/>
     <use x="692.533203" xlink:href="#DejaVuSans-3a"/>
     <use x="726.224609" xlink:href="#DejaVuSans-20"/>
     <use x="758.011719" xlink:href="#DejaVuSans-5b"/>
     <use x="797.025391" xlink:href="#DejaVuSans-34"/>
     <use x="860.648438" xlink:href="#DejaVuSans-2c"/>
     <use x="892.435547" xlink:href="#DejaVuSans-20"/>
     <use x="924.222656" xlink:href="#DejaVuSans-38"/>
     <use x="987.845703" xlink:href="#DejaVuSans-2c"/>
     <use x="1019.632812" xlink:href="#DejaVuSans-20"/>
     <use x="1051.419922" xlink:href="#DejaVuSans-31"/>
     <use x="1115.042969" xlink:href="#DejaVuSans-32"/>
     <use x="1178.666016" xlink:href="#DejaVuSans-2c"/>
     <use x="1210.453125" xlink:href="#DejaVuSans-20"/>
     <use x="1242.240234" xlink:href="#DejaVuSans-31"/>
     <use x="1305.863281" xlink:href="#DejaVuSans-36"/>
     <use x="1369.486328" xlink:href="#DejaVuSans-2c"/>
     <use x="1401.273438" xlink:href="#DejaVuSans-20"/>
     <use x="1433.060547" xlink:href="#DejaVuSans-32"/>
     <use x="1496.683594" xlink:href="#DejaVuSans-30"/>
     <use x="1560.306641" xlink:href="#DejaVuSans-2c"/>
     <use x="1592.09375" xlink:href="#DejaVuSans-20"/>
     <use x="1623.880859" xlink:href="#DejaVuSans-32"/>
     <use x="1687.503906" xlink:href="#DejaVuSans-34"/>
     <use x="1751.126953" xlink:href="#DejaVuSans-2c"/>
     <use x="1782.914062" xlink:href="#DejaVuSans-20"/>
     <use x="1814.701172" xlink:href="#DejaVuSans-32"/>
     <use x="1878.324219" xlink:href="#DejaVuSans-38"/>
     <use x="1941.947266" xlink:href="#DejaVuSans-5d"/>
    </g>
   </g>
   <g id="legend_1">
    <g id="patch_7">
     <path d="M 217.087188 296.8675 
L 393.90125 296.8675 
Q 395.90125 296.8675 395.90125 294.8675 
L 395.90125 251.833125 
Q 395.90125 249.833125 393.90125 249.833125 
L 217.087188 249.833125 
Q 215.087188 249.833125 215.087188 251.833125 
L 215.087188 294.8675 
Q 215.087188 296.8675 217.087188 296.8675 
z
" style="fill:#ffffff;opacity:0.8;stroke:#cccccc;stroke-linejoin:miter;"/>
    </g>
    <g id="line2d_17">
     <path d="M 219.087188 257.931562 
L 239.087188 257.931562 
" style="fill:none;stroke:#1f77b4;stroke-linecap:square;stroke-width:1.5;"/>
    </g>
    <g id="line2d_18"/>
    <g id="text_16">
     <!-- ROC curve - 0 (AUC = 0.843) -->
     <defs>
      <path d="M 48.78125 52.59375 
L 48.78125 44.1875 
Q 44.96875 46.296875 41.140625 47.34375 
Q 37.3125 48.390625 33.40625 48.390625 
Q 24.65625 48.390625 19.8125 42.84375 
Q 14.984375 37.3125 14.984375 27.296875 
Q 14.984375 17.28125 19.8125 11.734375 
Q 24.65625 6.203125 33.40625 6.203125 
Q 37.3125 6.203125 41.140625 7.25 
Q 44.96875 8.296875 48.78125 10.40625 
L 48.78125 2.09375 
Q 45.015625 0.34375 40.984375 -0.53125 
Q 36.96875 -1.421875 32.421875 -1.421875 
Q 20.0625 -1.421875 12.78125 6.34375 
Q 5.515625 14.109375 5.515625 27.296875 
Q 5.515625 40.671875 12.859375 48.328125 
Q 20.21875 56 33.015625 56 
Q 37.15625 56 41.109375 55.140625 
Q 45.0625 54.296875 48.78125 52.59375 
" id="DejaVuSans-63"/>
      <path d="M 4.890625 31.390625 
L 31.203125 31.390625 
L 31.203125 23.390625 
L 4.890625 23.390625 
z
" id="DejaVuSans-2d"/>
      <path d="M 31 75.875 
Q 24.46875 64.65625 21.28125 53.65625 
Q 18.109375 42.671875 18.109375 31.390625 
Q 18.109375 20.125 21.3125 9.0625 
Q 24.515625 -2 31 -13.1875 
L 23.1875 -13.1875 
Q 15.875 -1.703125 12.234375 9.375 
Q 8.59375 20.453125 8.59375 31.390625 
Q 8.59375 42.28125 12.203125 53.3125 
Q 15.828125 64.359375 23.1875 75.875 
z
" id="DejaVuSans-28"/>
      <path d="M 34.1875 63.1875 
L 20.796875 26.90625 
L 47.609375 26.90625 
z
M 28.609375 72.90625 
L 39.796875 72.90625 
L 67.578125 0 
L 57.328125 0 
L 50.6875 18.703125 
L 17.828125 18.703125 
L 11.1875 0 
L 0.78125 0 
z
" id="DejaVuSans-41"/>
      <path d="M 8.6875 72.90625 
L 18.609375 72.90625 
L 18.609375 28.609375 
Q 18.609375 16.890625 22.84375 11.734375 
Q 27.09375 6.59375 36.625 6.59375 
Q 46.09375 6.59375 50.34375 11.734375 
Q 54.59375 16.890625 54.59375 28.609375 
L 54.59375 72.90625 
L 64.5 72.90625 
L 64.5 27.390625 
Q 64.5 13.140625 57.4375 5.859375 
Q 50.390625 -1.421875 36.625 -1.421875 
Q 22.796875 -1.421875 15.734375 5.859375 
Q 8.6875 13.140625 8.6875 27.390625 
z
" id="DejaVuSans-55"/>
      <path d="M 10.59375 45.40625 
L 73.1875 45.40625 
L 73.1875 37.203125 
L 10.59375 37.203125 
z
M 10.59375 25.484375 
L 73.1875 25.484375 
L 73.1875 17.1875 
L 10.59375 17.1875 
z
" id="DejaVuSans-3d"/>
      <path d="M 40.578125 39.3125 
Q 47.65625 37.796875 51.625 33 
Q 55.609375 28.21875 55.609375 21.1875 
Q 55.609375 10.40625 48.1875 4.484375 
Q 40.765625 -1.421875 27.09375 -1.421875 
Q 22.515625 -1.421875 17.65625 -0.515625 
Q 12.796875 0.390625 7.625 2.203125 
L 7.625 11.71875 
Q 11.71875 9.328125 16.59375 8.109375 
Q 21.484375 6.890625 26.8125 6.890625 
Q 36.078125 6.890625 40.9375 10.546875 
Q 45.796875 14.203125 45.796875 21.1875 
Q 45.796875 27.640625 41.28125 31.265625 
Q 36.765625 34.90625 28.71875 34.90625 
L 20.21875 34.90625 
L 20.21875 43.015625 
L 29.109375 43.015625 
Q 36.375 43.015625 40.234375 45.921875 
Q 44.09375 48.828125 44.09375 54.296875 
Q 44.09375 59.90625 40.109375 62.90625 
Q 36.140625 65.921875 28.71875 65.921875 
Q 24.65625 65.921875 20.015625 65.03125 
Q 15.375 64.15625 9.8125 62.3125 
L 9.8125 71.09375 
Q 15.4375 72.65625 20.34375 73.4375 
Q 25.25 74.21875 29.59375 74.21875 
Q 40.828125 74.21875 47.359375 69.109375 
Q 53.90625 64.015625 53.90625 55.328125 
Q 53.90625 49.265625 50.4375 45.09375 
Q 46.96875 40.921875 40.578125 39.3125 
" id="DejaVuSans-33"/>
      <path d="M 8.015625 75.875 
L 15.828125 75.875 
Q 23.140625 64.359375 26.78125 53.3125 
Q 30.421875 42.28125 30.421875 31.390625 
Q 30.421875 20.453125 26.78125 9.375 
Q 23.140625 -1.703125 15.828125 -13.1875 
L 8.015625 -13.1875 
Q 14.5 -2 17.703125 9.0625 
Q 20.90625 20.125 20.90625 31.390625 
Q 20.90625 42.671875 17.703125 53.65625 
Q 14.5 64.65625 8.015625 75.875 
" id="DejaVuSans-29"/>
     </defs>
     <g transform="translate(247.087188 261.431562)scale(0.1 -0.1)">
      <use xlink:href="#DejaVuSans-52"/>
      <use x="69.482422" xlink:href="#DejaVuSans-4f"/>
      <use x="148.193359" xlink:href="#DejaVuSans-43"/>
      <use x="218.017578" xlink:href="#DejaVuSans-20"/>
      <use x="249.804688" xlink:href="#DejaVuSans-63"/>
      <use x="304.785156" xlink:href="#DejaVuSans-75"/>
      <use x="368.164062" xlink:href="#DejaVuSans-72"/>
      <use x="409.277344" xlink:href="#DejaVuSans-76"/>
      <use x="468.457031" xlink:href="#DejaVuSans-65"/>
      <use x="529.980469" xlink:href="#DejaVuSans-20"/>
      <use x="561.767578" xlink:href="#DejaVuSans-2d"/>
      <use x="597.851562" xlink:href="#DejaVuSans-20"/>
      <use x="629.638672" xlink:href="#DejaVuSans-30"/>
      <use x="693.261719" xlink:href="#DejaVuSans-20"/>
      <use x="725.048828" xlink:href="#DejaVuSans-28"/>
      <use x="764.0625" xlink:href="#DejaVuSans-41"/>
      <use x="832.470703" xlink:href="#DejaVuSans-55"/>
      <use x="905.664062" xlink:href="#DejaVuSans-43"/>
      <use x="975.488281" xlink:href="#DejaVuSans-20"/>
      <use x="1007.275391" xlink:href="#DejaVuSans-3d"/>
      <use x="1091.064453" xlink:href="#DejaVuSans-20"/>
      <use x="1122.851562" xlink:href="#DejaVuSans-30"/>
      <use x="1186.474609" xlink:href="#DejaVuSans-2e"/>
      <use x="1218.261719" xlink:href="#DejaVuSans-38"/>
      <use x="1281.884766" xlink:href="#DejaVuSans-34"/>
      <use x="1345.507812" xlink:href="#DejaVuSans-33"/>
      <use x="1409.130859" xlink:href="#DejaVuSans-29"/>
     </g>
    </g>
    <g id="line2d_19">
     <path d="M 219.087188 272.609687 
L 239.087188 272.609687 
" style="fill:none;stroke:#ff7f0e;stroke-linecap:square;stroke-width:1.5;"/>
    </g>
    <g id="line2d_20"/>
    <g id="text_17">
     <!-- ROC curve - 1 (AUC = 0.843) -->
     <g transform="translate(247.087188 276.109687)scale(0.1 -0.1)">
      <use xlink:href="#DejaVuSans-52"/>
      <use x="69.482422" xlink:href="#DejaVuSans-4f"/>
      <use x="148.193359" xlink:href="#DejaVuSans-43"/>
      <use x="218.017578" xlink:href="#DejaVuSans-20"/>
      <use x="249.804688" xlink:href="#DejaVuSans-63"/>
      <use x="304.785156" xlink:href="#DejaVuSans-75"/>
      <use x="368.164062" xlink:href="#DejaVuSans-72"/>
      <use x="409.277344" xlink:href="#DejaVuSans-76"/>
      <use x="468.457031" xlink:href="#DejaVuSans-65"/>
      <use x="529.980469" xlink:href="#DejaVuSans-20"/>
      <use x="561.767578" xlink:href="#DejaVuSans-2d"/>
      <use x="597.851562" xlink:href="#DejaVuSans-20"/>
      <use x="629.638672" xlink:href="#DejaVuSans-31"/>
      <use x="693.261719" xlink:href="#DejaVuSans-20"/>
      <use x="725.048828" xlink:href="#DejaVuSans-28"/>
      <use x="764.0625" xlink:href="#DejaVuSans-41"/>
      <use x="832.470703" xlink:href="#DejaVuSans-55"/>
      <use x="905.664062" xlink:href="#DejaVuSans-43"/>
      <use x="975.488281" xlink:href="#DejaVuSans-20"/>
      <use x="1007.275391" xlink:href="#DejaVuSans-3d"/>
      <use x="1091.064453" xlink:href="#DejaVuSans-20"/>
      <use x="1122.851562" xlink:href="#DejaVuSans-30"/>
      <use x="1186.474609" xlink:href="#DejaVuSans-2e"/>
      <use x="1218.261719" xlink:href="#DejaVuSans-38"/>
      <use x="1281.884766" xlink:href="#DejaVuSans-34"/>
      <use x="1345.507812" xlink:href="#DejaVuSans-33"/>
      <use x="1409.130859" xlink:href="#DejaVuSans-29"/>
     </g>
    </g>
    <g id="line2d_21">
     <path d="M 219.087188 287.287812 
L 239.087188 287.287812 
" style="fill:none;stroke:#2ca02c;stroke-linecap:square;stroke-width:1.5;"/>
    </g>
    <g id="line2d_22"/>
    <g id="text_18">
     <!-- ROC curve - 2 (AUC = 0.834) -->
     <g transform="translate(247.087188 290.787812)scale(0.1 -0.1)">
      <use xlink:href="#DejaVuSans-52"/>
      <use x="69.482422" xlink:href="#DejaVuSans-4f"/>
      <use x="148.193359" xlink:href="#DejaVuSans-43"/>
      <use x="218.017578" xlink:href="#DejaVuSans-20"/>
      <use x="249.804688" xlink:href="#DejaVuSans-63"/>
      <use x="304.785156" xlink:href="#DejaVuSans-75"/>
      <use x="368.164062" xlink:href="#DejaVuSans-72"/>
      <use x="409.277344" xlink:href="#DejaVuSans-76"/>
      <use x="468.457031" xlink:href="#DejaVuSans-65"/>
      <use x="529.980469" xlink:href="#DejaVuSans-20"/>
      <use x="561.767578" xlink:href="#DejaVuSans-2d"/>
      <use x="597.851562" xlink:href="#DejaVuSans-20"/>
      <use x="629.638672" xlink:href="#DejaVuSans-32"/>
      <use x="693.261719" xlink:href="#DejaVuSans-20"/>
      <use x="725.048828" xlink:href="#DejaVuSans-28"/>
      <use x="764.0625" xlink:href="#DejaVuSans-41"/>
      <use x="832.470703" xlink:href="#DejaVuSans-55"/>
      <use x="905.664062" xlink:href="#DejaVuSans-43"/>
      <use x="975.488281" xlink:href="#DejaVuSans-20"/>
      <use x="1007.275391" xlink:href="#DejaVuSans-3d"/>
      <use x="1091.064453" xlink:href="#DejaVuSans-20"/>
      <use x="1122.851562" xlink:href="#DejaVuSans-30"/>
      <use x="1186.474609" xlink:href="#DejaVuSans-2e"/>
      <use x="1218.261719" xlink:href="#DejaVuSans-38"/>
      <use x="1281.884766" xlink:href="#DejaVuSans-33"/>
      <use x="1345.507812" xlink:href="#DejaVuSans-34"/>
      <use x="1409.130859" xlink:href="#DejaVuSans-29"/>
     </g>
    </g>
   </g>
  </g>
 </g>
 <defs>
  <clipPath id="p504c3b93cf">
   <rect height="266.112" width="357.12" x="43.78125" y="35.7555"/>
  </clipPath>
 </defs>
</svg>
