<?xml version="1.0" encoding="utf-8" standalone="no"?>
<!DOCTYPE svg PUBLIC "-//W3C//DTD SVG 1.1//EN"
  "http://www.w3.org/Graphics/SVG/1.1/DTD/svg11.dtd">
<!-- Created with matplotlib (http://matplotlib.org/) -->
<svg height="339pt" version="1.1" viewBox="0 0 416 339" width="416pt" xmlns="http://www.w3.org/2000/svg" xmlns:xlink="http://www.w3.org/1999/xlink">
 <defs>
  <style type="text/css">
*{stroke-linecap:butt;stroke-linejoin:round;}
  </style>
 </defs>
 <g id="figure_1">
  <g id="patch_1">
   <path d="M 0 339.42375 
L 416.052813 339.42375 
L 416.052813 0 
L 0 0 
z
" style="fill:#ffffff;"/>
  </g>
  <g id="axes_1">
   <g id="patch_2">
    <path d="M 43.78125 301.8675 
L 400.90125 301.8675 
L 400.90125 35.7555 
L 43.78125 35.7555 
z
" style="fill:#ffffff;"/>
   </g>
   <g id="matplotlib.axis_1">
    <g id="xtick_1">
     <g id="line2d_1">
      <defs>
       <path d="M 0 0 
L 0 3.5 
" id="m041df78ad9" style="stroke:#000000;stroke-width:0.8;"/>
      </defs>
      <g>
       <use style="stroke:#000000;stroke-width:0.8;" x="43.78125" xlink:href="#m041df78ad9" y="301.8675"/>
      </g>
     </g>
     <g id="text_1">
      <!-- 0.0 -->
      <defs>
       <path d="M 31.78125 66.40625 
Q 24.171875 66.40625 20.328125 58.90625 
Q 16.5 51.421875 16.5 36.375 
Q 16.5 21.390625 20.328125 13.890625 
Q 24.171875 6.390625 31.78125 6.390625 
Q 39.453125 6.390625 43.28125 13.890625 
Q 47.125 21.390625 47.125 36.375 
Q 47.125 51.421875 43.28125 58.90625 
Q 39.453125 66.40625 31.78125 66.40625 
M 31.78125 74.21875 
Q 44.046875 74.21875 50.515625 64.515625 
Q 56.984375 54.828125 56.984375 36.375 
Q 56.984375 17.96875 50.515625 8.265625 
Q 44.046875 -1.421875 31.78125 -1.421875 
Q 19.53125 -1.421875 13.0625 8.265625 
Q 6.59375 17.96875 6.59375 36.375 
Q 6.59375 54.828125 13.0625 64.515625 
Q 19.53125 74.21875 31.78125 74.21875 
" id="DejaVuSans-30"/>
       <path d="M 10.6875 12.40625 
L 21 12.40625 
L 21 0 
L 10.6875 0 
z
" id="DejaVuSans-2e"/>
      </defs>
      <g transform="translate(35.829688 316.465937)scale(0.1 -0.1)">
       <use xlink:href="#DejaVuSans-30"/>
       <use x="63.623047" xlink:href="#DejaVuSans-2e"/>
       <use x="95.410156" xlink:href="#DejaVuSans-30"/>
      </g>
     </g>
    </g>
    <g id="xtick_2">
     <g id="line2d_2">
      <g>
       <use style="stroke:#000000;stroke-width:0.8;" x="115.20525" xlink:href="#m041df78ad9" y="301.8675"/>
      </g>
     </g>
     <g id="text_2">
      <!-- 0.2 -->
      <defs>
       <path d="M 19.1875 8.296875 
L 53.609375 8.296875 
L 53.609375 0 
L 7.328125 0 
L 7.328125 8.296875 
Q 12.9375 14.109375 22.625 23.890625 
Q 32.328125 33.6875 34.8125 36.53125 
Q 39.546875 41.84375 41.421875 45.53125 
Q 43.3125 49.21875 43.3125 52.78125 
Q 43.3125 58.59375 39.234375 62.25 
Q 35.15625 65.921875 28.609375 65.921875 
Q 23.96875 65.921875 18.8125 64.3125 
Q 13.671875 62.703125 7.8125 59.421875 
L 7.8125 69.390625 
Q 13.765625 71.78125 18.9375 73 
Q 24.125 74.21875 28.421875 74.21875 
Q 39.75 74.21875 46.484375 68.546875 
Q 53.21875 62.890625 53.21875 53.421875 
Q 53.21875 48.921875 51.53125 44.890625 
Q 49.859375 40.875 45.40625 35.40625 
Q 44.1875 33.984375 37.640625 27.21875 
Q 31.109375 20.453125 19.1875 8.296875 
" id="DejaVuSans-32"/>
      </defs>
      <g transform="translate(107.253688 316.465937)scale(0.1 -0.1)">
       <use xlink:href="#DejaVuSans-30"/>
       <use x="63.623047" xlink:href="#DejaVuSans-2e"/>
       <use x="95.410156" xlink:href="#DejaVuSans-32"/>
      </g>
     </g>
    </g>
    <g id="xtick_3">
     <g id="line2d_3">
      <g>
       <use style="stroke:#000000;stroke-width:0.8;" x="186.62925" xlink:href="#m041df78ad9" y="301.8675"/>
      </g>
     </g>
     <g id="text_3">
      <!-- 0.4 -->
      <defs>
       <path d="M 37.796875 64.3125 
L 12.890625 25.390625 
L 37.796875 25.390625 
z
M 35.203125 72.90625 
L 47.609375 72.90625 
L 47.609375 25.390625 
L 58.015625 25.390625 
L 58.015625 17.1875 
L 47.609375 17.1875 
L 47.609375 0 
L 37.796875 0 
L 37.796875 17.1875 
L 4.890625 17.1875 
L 4.890625 26.703125 
z
" id="DejaVuSans-34"/>
      </defs>
      <g transform="translate(178.677688 316.465937)scale(0.1 -0.1)">
       <use xlink:href="#DejaVuSans-30"/>
       <use x="63.623047" xlink:href="#DejaVuSans-2e"/>
       <use x="95.410156" xlink:href="#DejaVuSans-34"/>
      </g>
     </g>
    </g>
    <g id="xtick_4">
     <g id="line2d_4">
      <g>
       <use style="stroke:#000000;stroke-width:0.8;" x="258.05325" xlink:href="#m041df78ad9" y="301.8675"/>
      </g>
     </g>
     <g id="text_4">
      <!-- 0.6 -->
      <defs>
       <path d="M 33.015625 40.375 
Q 26.375 40.375 22.484375 35.828125 
Q 18.609375 31.296875 18.609375 23.390625 
Q 18.609375 15.53125 22.484375 10.953125 
Q 26.375 6.390625 33.015625 6.390625 
Q 39.65625 6.390625 43.53125 10.953125 
Q 47.40625 15.53125 47.40625 23.390625 
Q 47.40625 31.296875 43.53125 35.828125 
Q 39.65625 40.375 33.015625 40.375 
M 52.59375 71.296875 
L 52.59375 62.3125 
Q 48.875 64.0625 45.09375 64.984375 
Q 41.3125 65.921875 37.59375 65.921875 
Q 27.828125 65.921875 22.671875 59.328125 
Q 17.53125 52.734375 16.796875 39.40625 
Q 19.671875 43.65625 24.015625 45.921875 
Q 28.375 48.1875 33.59375 48.1875 
Q 44.578125 48.1875 50.953125 41.515625 
Q 57.328125 34.859375 57.328125 23.390625 
Q 57.328125 12.15625 50.6875 5.359375 
Q 44.046875 -1.421875 33.015625 -1.421875 
Q 20.359375 -1.421875 13.671875 8.265625 
Q 6.984375 17.96875 6.984375 36.375 
Q 6.984375 53.65625 15.1875 63.9375 
Q 23.390625 74.21875 37.203125 74.21875 
Q 40.921875 74.21875 44.703125 73.484375 
Q 48.484375 72.75 52.59375 71.296875 
" id="DejaVuSans-36"/>
      </defs>
      <g transform="translate(250.101688 316.465937)scale(0.1 -0.1)">
       <use xlink:href="#DejaVuSans-30"/>
       <use x="63.623047" xlink:href="#DejaVuSans-2e"/>
       <use x="95.410156" xlink:href="#DejaVuSans-36"/>
      </g>
     </g>
    </g>
    <g id="xtick_5">
     <g id="line2d_5">
      <g>
       <use style="stroke:#000000;stroke-width:0.8;" x="329.47725" xlink:href="#m041df78ad9" y="301.8675"/>
      </g>
     </g>
     <g id="text_5">
      <!-- 0.8 -->
      <defs>
       <path d="M 31.78125 34.625 
Q 24.75 34.625 20.71875 30.859375 
Q 16.703125 27.09375 16.703125 20.515625 
Q 16.703125 13.921875 20.71875 10.15625 
Q 24.75 6.390625 31.78125 6.390625 
Q 38.8125 6.390625 42.859375 10.171875 
Q 46.921875 13.96875 46.921875 20.515625 
Q 46.921875 27.09375 42.890625 30.859375 
Q 38.875 34.625 31.78125 34.625 
M 21.921875 38.8125 
Q 15.578125 40.375 12.03125 44.71875 
Q 8.5 49.078125 8.5 55.328125 
Q 8.5 64.0625 14.71875 69.140625 
Q 20.953125 74.21875 31.78125 74.21875 
Q 42.671875 74.21875 48.875 69.140625 
Q 55.078125 64.0625 55.078125 55.328125 
Q 55.078125 49.078125 51.53125 44.71875 
Q 48 40.375 41.703125 38.8125 
Q 48.828125 37.15625 52.796875 32.3125 
Q 56.78125 27.484375 56.78125 20.515625 
Q 56.78125 9.90625 50.3125 4.234375 
Q 43.84375 -1.421875 31.78125 -1.421875 
Q 19.734375 -1.421875 13.25 4.234375 
Q 6.78125 9.90625 6.78125 20.515625 
Q 6.78125 27.484375 10.78125 32.3125 
Q 14.796875 37.15625 21.921875 38.8125 
M 18.3125 54.390625 
Q 18.3125 48.734375 21.84375 45.5625 
Q 25.390625 42.390625 31.78125 42.390625 
Q 38.140625 42.390625 41.71875 45.5625 
Q 45.3125 48.734375 45.3125 54.390625 
Q 45.3125 60.0625 41.71875 63.234375 
Q 38.140625 66.40625 31.78125 66.40625 
Q 25.390625 66.40625 21.84375 63.234375 
Q 18.3125 60.0625 18.3125 54.390625 
" id="DejaVuSans-38"/>
      </defs>
      <g transform="translate(321.525688 316.465937)scale(0.1 -0.1)">
       <use xlink:href="#DejaVuSans-30"/>
       <use x="63.623047" xlink:href="#DejaVuSans-2e"/>
       <use x="95.410156" xlink:href="#DejaVuSans-38"/>
      </g>
     </g>
    </g>
    <g id="xtick_6">
     <g id="line2d_6">
      <g>
       <use style="stroke:#000000;stroke-width:0.8;" x="400.90125" xlink:href="#m041df78ad9" y="301.8675"/>
      </g>
     </g>
     <g id="text_6">
      <!-- 1.0 -->
      <defs>
       <path d="M 12.40625 8.296875 
L 28.515625 8.296875 
L 28.515625 63.921875 
L 10.984375 60.40625 
L 10.984375 69.390625 
L 28.421875 72.90625 
L 38.28125 72.90625 
L 38.28125 8.296875 
L 54.390625 8.296875 
L 54.390625 0 
L 12.40625 0 
z
" id="DejaVuSans-31"/>
      </defs>
      <g transform="translate(392.949688 316.465937)scale(0.1 -0.1)">
       <use xlink:href="#DejaVuSans-31"/>
       <use x="63.623047" xlink:href="#DejaVuSans-2e"/>
       <use x="95.410156" xlink:href="#DejaVuSans-30"/>
      </g>
     </g>
    </g>
    <g id="text_7">
     <!-- False Positive Rate -->
     <defs>
      <path d="M 9.8125 72.90625 
L 51.703125 72.90625 
L 51.703125 64.59375 
L 19.671875 64.59375 
L 19.671875 43.109375 
L 48.578125 43.109375 
L 48.578125 34.8125 
L 19.671875 34.8125 
L 19.671875 0 
L 9.8125 0 
z
" id="DejaVuSans-46"/>
      <path d="M 34.28125 27.484375 
Q 23.390625 27.484375 19.1875 25 
Q 14.984375 22.515625 14.984375 16.5 
Q 14.984375 11.71875 18.140625 8.90625 
Q 21.296875 6.109375 26.703125 6.109375 
Q 34.1875 6.109375 38.703125 11.40625 
Q 43.21875 16.703125 43.21875 25.484375 
L 43.21875 27.484375 
z
M 52.203125 31.203125 
L 52.203125 0 
L 43.21875 0 
L 43.21875 8.296875 
Q 40.140625 3.328125 35.546875 0.953125 
Q 30.953125 -1.421875 24.3125 -1.421875 
Q 15.921875 -1.421875 10.953125 3.296875 
Q 6 8.015625 6 15.921875 
Q 6 25.140625 12.171875 29.828125 
Q 18.359375 34.515625 30.609375 34.515625 
L 43.21875 34.515625 
L 43.21875 35.40625 
Q 43.21875 41.609375 39.140625 45 
Q 35.0625 48.390625 27.6875 48.390625 
Q 23 48.390625 18.546875 47.265625 
Q 14.109375 46.140625 10.015625 43.890625 
L 10.015625 52.203125 
Q 14.9375 54.109375 19.578125 55.046875 
Q 24.21875 56 28.609375 56 
Q 40.484375 56 46.34375 49.84375 
Q 52.203125 43.703125 52.203125 31.203125 
" id="DejaVuSans-61"/>
      <path d="M 9.421875 75.984375 
L 18.40625 75.984375 
L 18.40625 0 
L 9.421875 0 
z
" id="DejaVuSans-6c"/>
      <path d="M 44.28125 53.078125 
L 44.28125 44.578125 
Q 40.484375 46.53125 36.375 47.5 
Q 32.28125 48.484375 27.875 48.484375 
Q 21.1875 48.484375 17.84375 46.4375 
Q 14.5 44.390625 14.5 40.28125 
Q 14.5 37.15625 16.890625 35.375 
Q 19.28125 33.59375 26.515625 31.984375 
L 29.59375 31.296875 
Q 39.15625 29.25 43.1875 25.515625 
Q 47.21875 21.78125 47.21875 15.09375 
Q 47.21875 7.46875 41.1875 3.015625 
Q 35.15625 -1.421875 24.609375 -1.421875 
Q 20.21875 -1.421875 15.453125 -0.5625 
Q 10.6875 0.296875 5.421875 2 
L 5.421875 11.28125 
Q 10.40625 8.6875 15.234375 7.390625 
Q 20.0625 6.109375 24.8125 6.109375 
Q 31.15625 6.109375 34.5625 8.28125 
Q 37.984375 10.453125 37.984375 14.40625 
Q 37.984375 18.0625 35.515625 20.015625 
Q 33.0625 21.96875 24.703125 23.78125 
L 21.578125 24.515625 
Q 13.234375 26.265625 9.515625 29.90625 
Q 5.8125 33.546875 5.8125 39.890625 
Q 5.8125 47.609375 11.28125 51.796875 
Q 16.75 56 26.8125 56 
Q 31.78125 56 36.171875 55.265625 
Q 40.578125 54.546875 44.28125 53.078125 
" id="DejaVuSans-73"/>
      <path d="M 56.203125 29.59375 
L 56.203125 25.203125 
L 14.890625 25.203125 
Q 15.484375 15.921875 20.484375 11.0625 
Q 25.484375 6.203125 34.421875 6.203125 
Q 39.59375 6.203125 44.453125 7.46875 
Q 49.3125 8.734375 54.109375 11.28125 
L 54.109375 2.78125 
Q 49.265625 0.734375 44.1875 -0.34375 
Q 39.109375 -1.421875 33.890625 -1.421875 
Q 20.796875 -1.421875 13.15625 6.1875 
Q 5.515625 13.8125 5.515625 26.8125 
Q 5.515625 40.234375 12.765625 48.109375 
Q 20.015625 56 32.328125 56 
Q 43.359375 56 49.78125 48.890625 
Q 56.203125 41.796875 56.203125 29.59375 
M 47.21875 32.234375 
Q 47.125 39.59375 43.09375 43.984375 
Q 39.0625 48.390625 32.421875 48.390625 
Q 24.90625 48.390625 20.390625 44.140625 
Q 15.875 39.890625 15.1875 32.171875 
z
" id="DejaVuSans-65"/>
      <path id="DejaVuSans-20"/>
      <path d="M 19.671875 64.796875 
L 19.671875 37.40625 
L 32.078125 37.40625 
Q 38.96875 37.40625 42.71875 40.96875 
Q 46.484375 44.53125 46.484375 51.125 
Q 46.484375 57.671875 42.71875 61.234375 
Q 38.96875 64.796875 32.078125 64.796875 
z
M 9.8125 72.90625 
L 32.078125 72.90625 
Q 44.34375 72.90625 50.609375 67.359375 
Q 56.890625 61.8125 56.890625 51.125 
Q 56.890625 40.328125 50.609375 34.8125 
Q 44.34375 29.296875 32.078125 29.296875 
L 19.671875 29.296875 
L 19.671875 0 
L 9.8125 0 
z
" id="DejaVuSans-50"/>
      <path d="M 30.609375 48.390625 
Q 23.390625 48.390625 19.1875 42.75 
Q 14.984375 37.109375 14.984375 27.296875 
Q 14.984375 17.484375 19.15625 11.84375 
Q 23.34375 6.203125 30.609375 6.203125 
Q 37.796875 6.203125 41.984375 11.859375 
Q 46.1875 17.53125 46.1875 27.296875 
Q 46.1875 37.015625 41.984375 42.703125 
Q 37.796875 48.390625 30.609375 48.390625 
M 30.609375 56 
Q 42.328125 56 49.015625 48.375 
Q 55.71875 40.765625 55.71875 27.296875 
Q 55.71875 13.875 49.015625 6.21875 
Q 42.328125 -1.421875 30.609375 -1.421875 
Q 18.84375 -1.421875 12.171875 6.21875 
Q 5.515625 13.875 5.515625 27.296875 
Q 5.515625 40.765625 12.171875 48.375 
Q 18.84375 56 30.609375 56 
" id="DejaVuSans-6f"/>
      <path d="M 9.421875 54.6875 
L 18.40625 54.6875 
L 18.40625 0 
L 9.421875 0 
z
M 9.421875 75.984375 
L 18.40625 75.984375 
L 18.40625 64.59375 
L 9.421875 64.59375 
z
" id="DejaVuSans-69"/>
      <path d="M 18.3125 70.21875 
L 18.3125 54.6875 
L 36.8125 54.6875 
L 36.8125 47.703125 
L 18.3125 47.703125 
L 18.3125 18.015625 
Q 18.3125 11.328125 20.140625 9.421875 
Q 21.96875 7.515625 27.59375 7.515625 
L 36.8125 7.515625 
L 36.8125 0 
L 27.59375 0 
Q 17.1875 0 13.234375 3.875 
Q 9.28125 7.765625 9.28125 18.015625 
L 9.28125 47.703125 
L 2.6875 47.703125 
L 2.6875 54.6875 
L 9.28125 54.6875 
L 9.28125 70.21875 
z
" id="DejaVuSans-74"/>
      <path d="M 2.984375 54.6875 
L 12.5 54.6875 
L 29.59375 8.796875 
L 46.6875 54.6875 
L 56.203125 54.6875 
L 35.6875 0 
L 23.484375 0 
z
" id="DejaVuSans-76"/>
      <path d="M 44.390625 34.1875 
Q 47.5625 33.109375 50.5625 29.59375 
Q 53.5625 26.078125 56.59375 19.921875 
L 66.609375 0 
L 56 0 
L 46.6875 18.703125 
Q 43.0625 26.03125 39.671875 28.421875 
Q 36.28125 30.8125 30.421875 30.8125 
L 19.671875 30.8125 
L 19.671875 0 
L 9.8125 0 
L 9.8125 72.90625 
L 32.078125 72.90625 
Q 44.578125 72.90625 50.734375 67.671875 
Q 56.890625 62.453125 56.890625 51.90625 
Q 56.890625 45.015625 53.6875 40.46875 
Q 50.484375 35.9375 44.390625 34.1875 
M 19.671875 64.796875 
L 19.671875 38.921875 
L 32.078125 38.921875 
Q 39.203125 38.921875 42.84375 42.21875 
Q 46.484375 45.515625 46.484375 51.90625 
Q 46.484375 58.296875 42.84375 61.546875 
Q 39.203125 64.796875 32.078125 64.796875 
z
" id="DejaVuSans-52"/>
     </defs>
     <g transform="translate(175.135781 330.144062)scale(0.1 -0.1)">
      <use xlink:href="#DejaVuSans-46"/>
      <use x="57.378906" xlink:href="#DejaVuSans-61"/>
      <use x="118.658203" xlink:href="#DejaVuSans-6c"/>
      <use x="146.441406" xlink:href="#DejaVuSans-73"/>
      <use x="198.541016" xlink:href="#DejaVuSans-65"/>
      <use x="260.064453" xlink:href="#DejaVuSans-20"/>
      <use x="291.851562" xlink:href="#DejaVuSans-50"/>
      <use x="352.107422" xlink:href="#DejaVuSans-6f"/>
      <use x="413.289062" xlink:href="#DejaVuSans-73"/>
      <use x="465.388672" xlink:href="#DejaVuSans-69"/>
      <use x="493.171875" xlink:href="#DejaVuSans-74"/>
      <use x="532.380859" xlink:href="#DejaVuSans-69"/>
      <use x="560.164062" xlink:href="#DejaVuSans-76"/>
      <use x="619.34375" xlink:href="#DejaVuSans-65"/>
      <use x="680.867188" xlink:href="#DejaVuSans-20"/>
      <use x="712.654297" xlink:href="#DejaVuSans-52"/>
      <use x="782.105469" xlink:href="#DejaVuSans-61"/>
      <use x="843.384766" xlink:href="#DejaVuSans-74"/>
      <use x="882.59375" xlink:href="#DejaVuSans-65"/>
     </g>
    </g>
   </g>
   <g id="matplotlib.axis_2">
    <g id="ytick_1">
     <g id="line2d_7">
      <defs>
       <path d="M 0 0 
L -3.5 0 
" id="m4c21309483" style="stroke:#000000;stroke-width:0.8;"/>
      </defs>
      <g>
       <use style="stroke:#000000;stroke-width:0.8;" x="43.78125" xlink:href="#m4c21309483" y="301.8675"/>
      </g>
     </g>
     <g id="text_8">
      <!-- 0.0 -->
      <g transform="translate(20.878125 305.666719)scale(0.1 -0.1)">
       <use xlink:href="#DejaVuSans-30"/>
       <use x="63.623047" xlink:href="#DejaVuSans-2e"/>
       <use x="95.410156" xlink:href="#DejaVuSans-30"/>
      </g>
     </g>
    </g>
    <g id="ytick_2">
     <g id="line2d_8">
      <g>
       <use style="stroke:#000000;stroke-width:0.8;" x="43.78125" xlink:href="#m4c21309483" y="251.1795"/>
      </g>
     </g>
     <g id="text_9">
      <!-- 0.2 -->
      <g transform="translate(20.878125 254.978719)scale(0.1 -0.1)">
       <use xlink:href="#DejaVuSans-30"/>
       <use x="63.623047" xlink:href="#DejaVuSans-2e"/>
       <use x="95.410156" xlink:href="#DejaVuSans-32"/>
      </g>
     </g>
    </g>
    <g id="ytick_3">
     <g id="line2d_9">
      <g>
       <use style="stroke:#000000;stroke-width:0.8;" x="43.78125" xlink:href="#m4c21309483" y="200.4915"/>
      </g>
     </g>
     <g id="text_10">
      <!-- 0.4 -->
      <g transform="translate(20.878125 204.290719)scale(0.1 -0.1)">
       <use xlink:href="#DejaVuSans-30"/>
       <use x="63.623047" xlink:href="#DejaVuSans-2e"/>
       <use x="95.410156" xlink:href="#DejaVuSans-34"/>
      </g>
     </g>
    </g>
    <g id="ytick_4">
     <g id="line2d_10">
      <g>
       <use style="stroke:#000000;stroke-width:0.8;" x="43.78125" xlink:href="#m4c21309483" y="149.8035"/>
      </g>
     </g>
     <g id="text_11">
      <!-- 0.6 -->
      <g transform="translate(20.878125 153.602719)scale(0.1 -0.1)">
       <use xlink:href="#DejaVuSans-30"/>
       <use x="63.623047" xlink:href="#DejaVuSans-2e"/>
       <use x="95.410156" xlink:href="#DejaVuSans-36"/>
      </g>
     </g>
    </g>
    <g id="ytick_5">
     <g id="line2d_11">
      <g>
       <use style="stroke:#000000;stroke-width:0.8;" x="43.78125" xlink:href="#m4c21309483" y="99.1155"/>
      </g>
     </g>
     <g id="text_12">
      <!-- 0.8 -->
      <g transform="translate(20.878125 102.914719)scale(0.1 -0.1)">
       <use xlink:href="#DejaVuSans-30"/>
       <use x="63.623047" xlink:href="#DejaVuSans-2e"/>
       <use x="95.410156" xlink:href="#DejaVuSans-38"/>
      </g>
     </g>
    </g>
    <g id="ytick_6">
     <g id="line2d_12">
      <g>
       <use style="stroke:#000000;stroke-width:0.8;" x="43.78125" xlink:href="#m4c21309483" y="48.4275"/>
      </g>
     </g>
     <g id="text_13">
      <!-- 1.0 -->
      <g transform="translate(20.878125 52.226719)scale(0.1 -0.1)">
       <use xlink:href="#DejaVuSans-31"/>
       <use x="63.623047" xlink:href="#DejaVuSans-2e"/>
       <use x="95.410156" xlink:href="#DejaVuSans-30"/>
      </g>
     </g>
    </g>
    <g id="text_14">
     <!-- True Positive Rate -->
     <defs>
      <path d="M -0.296875 72.90625 
L 61.375 72.90625 
L 61.375 64.59375 
L 35.5 64.59375 
L 35.5 0 
L 25.59375 0 
L 25.59375 64.59375 
L -0.296875 64.59375 
z
" id="DejaVuSans-54"/>
      <path d="M 41.109375 46.296875 
Q 39.59375 47.171875 37.8125 47.578125 
Q 36.03125 48 33.890625 48 
Q 26.265625 48 22.1875 43.046875 
Q 18.109375 38.09375 18.109375 28.8125 
L 18.109375 0 
L 9.078125 0 
L 9.078125 54.6875 
L 18.109375 54.6875 
L 18.109375 46.1875 
Q 20.953125 51.171875 25.484375 53.578125 
Q 30.03125 56 36.53125 56 
Q 37.453125 56 38.578125 55.875 
Q 39.703125 55.765625 41.0625 55.515625 
z
" id="DejaVuSans-72"/>
      <path d="M 8.5 21.578125 
L 8.5 54.6875 
L 17.484375 54.6875 
L 17.484375 21.921875 
Q 17.484375 14.15625 20.5 10.265625 
Q 23.53125 6.390625 29.59375 6.390625 
Q 36.859375 6.390625 41.078125 11.03125 
Q 45.3125 15.671875 45.3125 23.6875 
L 45.3125 54.6875 
L 54.296875 54.6875 
L 54.296875 0 
L 45.3125 0 
L 45.3125 8.40625 
Q 42.046875 3.421875 37.71875 1 
Q 33.40625 -1.421875 27.6875 -1.421875 
Q 18.265625 -1.421875 13.375 4.4375 
Q 8.5 10.296875 8.5 21.578125 
M 31.109375 56 
z
" id="DejaVuSans-75"/>
     </defs>
     <g transform="translate(14.798438 214.357594)rotate(-90)scale(0.1 -0.1)">
      <use xlink:href="#DejaVuSans-54"/>
      <use x="60.865234" xlink:href="#DejaVuSans-72"/>
      <use x="101.978516" xlink:href="#DejaVuSans-75"/>
      <use x="165.357422" xlink:href="#DejaVuSans-65"/>
      <use x="226.880859" xlink:href="#DejaVuSans-20"/>
      <use x="258.667969" xlink:href="#DejaVuSans-50"/>
      <use x="318.923828" xlink:href="#DejaVuSans-6f"/>
      <use x="380.105469" xlink:href="#DejaVuSans-73"/>
      <use x="432.205078" xlink:href="#DejaVuSans-69"/>
      <use x="459.988281" xlink:href="#DejaVuSans-74"/>
      <use x="499.197266" xlink:href="#DejaVuSans-69"/>
      <use x="526.980469" xlink:href="#DejaVuSans-76"/>
      <use x="586.160156" xlink:href="#DejaVuSans-65"/>
      <use x="647.683594" xlink:href="#DejaVuSans-20"/>
      <use x="679.470703" xlink:href="#DejaVuSans-52"/>
      <use x="748.921875" xlink:href="#DejaVuSans-61"/>
      <use x="810.201172" xlink:href="#DejaVuSans-74"/>
      <use x="849.410156" xlink:href="#DejaVuSans-65"/>
     </g>
    </g>
   </g>
   <g id="line2d_13">
    <path clip-path="url(#p1aa0678a43)" d="M 43.78125 301.8675 
L 43.831445 301.386132 
L 43.908669 301.386132 
L 44.005198 301.386132 
L 44.121033 300.904765 
L 44.642292 300.904765 
L 44.881685 300.182714 
L 44.978214 300.182714 
L 45.03227 298.738611 
L 45.148106 298.738611 
L 45.460861 297.775876 
L 45.596002 296.813141 
L 45.789061 296.813141 
L 45.912618 296.09109 
L 46.036176 295.369038 
L 46.229234 295.369038 
L 46.321903 293.202885 
L 46.611491 293.202885 
L 46.955135 290.555363 
L 47.457088 290.555363 
L 47.735092 287.426474 
L 48.016958 285.741688 
L 48.094182 285.741688 
L 48.603857 282.612799 
L 48.661774 282.612799 
L 48.796915 280.928013 
L 49.020863 280.446645 
L 49.329757 272.022714 
L 49.83171 272.022714 
L 50.125159 271.059979 
L 50.441775 270.337927 
L 50.511277 269.85656 
L 50.627112 269.85656 
L 50.762253 268.653141 
L 51.206288 268.653141 
L 51.291234 267.93109 
L 51.407069 267.93109 
L 51.534488 265.042885 
L 51.862688 265.042885 
L 51.978523 263.839466 
L 52.229499 263.839466 
L 52.391668 263.117415 
L 52.449586 263.117415 
L 52.56156 262.876731 
L 52.723729 262.154679 
L 53.167764 258.544423 
L 53.399435 258.544423 
L 56.781823 218.831603 
L 56.943993 215.943397 
L 57.368722 215.943397 
L 57.391889 214.980662 
L 57.685338 214.017927 
L 57.897703 214.017927 
L 57.92087 213.055192 
L 58.036705 213.055192 
L 58.256792 211.129722 
L 58.565686 211.129722 
L 58.61202 210.407671 
L 58.766467 210.407671 
L 59.191196 201.983739 
L 59.527118 200.058269 
L 59.585036 200.058269 
L 59.940264 199.336218 
L 60.15649 198.373483 
L 63.762826 179.60015 
L 65.446298 179.60015 
L 65.631635 177.915363 
L 66.191505 177.915363 
L 66.291895 176.952628 
L 67.145215 173.583056 
L 67.376885 173.583056 
L 67.639445 173.101688 
L 68.160704 173.101688 
L 68.195454 172.861004 
L 68.678101 172.861004 
L 68.878882 172.138953 
L 69.342223 172.138953 
L 69.597061 169.972799 
L 69.732202 169.972799 
L 69.813286 169.010064 
L 70.095152 168.528697 
L 70.373157 165.399808 
L 70.701356 165.399808 
L 70.755413 163.955705 
L 70.987083 163.955705 
L 71.017973 163.474338 
L 71.330728 161.308184 
L 71.86357 159.623397 
L 71.925349 158.660662 
L 72.558581 157.21656 
L 72.601054 156.253825 
L 73.597237 153.36562 
L 73.713072 153.36562 
L 73.782573 152.884252 
L 73.944743 150.958782 
L 74.620448 150.958782 
L 74.952509 149.996047 
L 75.203485 149.996047 
L 75.303876 149.033312 
L 75.400405 149.033312 
L 75.616631 148.070577 
L 75.736328 147.107842 
L 75.852163 147.107842 
L 76.022054 145.663739 
L 76.195807 145.663739 
L 76.462228 144.219637 
L 77.273075 144.219637 
L 77.531774 143.497585 
L 77.78275 143.497585 
L 78.134117 139.165278 
L 78.249952 139.165278 
L 78.813683 138.202543 
L 79.423749 134.110919 
L 80.138066 134.110919 
L 80.570518 132.185449 
L 84.354468 127.853141 
L 84.566833 127.853141 
L 84.609306 126.890406 
L 84.763753 126.890406 
L 84.810087 126.168355 
L 85.138287 126.168355 
L 85.300456 123.761517 
L 85.570738 123.761517 
L 85.817853 122.317415 
L 85.952994 122.317415 
L 86.196248 120.632628 
L 86.331389 120.632628 
L 86.43178 119.669893 
L 86.547615 119.669893 
L 86.659589 119.429209 
L 86.89126 119.429209 
L 87.621022 119.188526 
L 87.678939 119.188526 
L 88.111391 118.466474 
L 88.211781 116.300321 
L 88.63651 116.300321 
L 88.686706 115.818953 
L 92.91083 115.818953 
L 93.17339 112.930748 
L 93.401199 112.690064 
L 93.555646 112.690064 
L 93.625148 112.208697 
L 93.702371 112.208697 
L 94.15799 111.727329 
L 94.563413 111.727329 
L 95.293175 110.283226 
L 97.8763 110.283226 
L 98.231528 109.561175 
L 99.138904 109.561175 
L 99.285629 109.079808 
L 99.393742 108.59844 
L 99.664024 108.59844 
L 99.725803 107.635705 
L 99.88025 107.635705 
L 99.98064 106.67297 
L 100.386063 106.67297 
L 100.610012 106.191603 
L 100.826237 105.228868 
L 101.270272 105.228868 
L 101.899644 104.7475 
L 102.227844 104.7475 
L 106.06199 101.377927 
L 106.170102 100.89656 
L 106.498302 100.89656 
L 106.741556 100.415192 
L 107.359344 100.415192 
L 107.618043 96.804936 
L 108.00416 96.804936 
L 108.054355 96.323568 
L 108.575614 96.323568 
L 108.815007 95.601517 
L 110.398088 95.601517 
L 111.077655 93.435363 
L 111.907807 93.435363 
L 113.201301 89.825107 
L 114.224512 89.825107 
L 114.537267 89.584423 
L 114.923384 89.584423 
L 115.07397 89.343739 
L 115.63384 89.343739 
L 115.799871 88.862372 
L 116.243906 88.862372 
L 116.494882 87.658953 
L 116.610717 87.658953 
L 116.664774 87.418269 
L 117.610762 87.418269 
L 121.495103 86.455534 
L 124.526124 86.455534 
L 124.622654 85.252115 
L 125.279053 85.252115 
L 125.456667 84.530064 
L 125.920008 84.530064 
L 126.182568 83.808013 
L 126.329293 80.919808 
L 127.719316 80.919808 
L 129.371898 80.43844 
L 129.603569 80.43844 
L 137.318195 79.716389 
L 137.410863 78.272286 
L 149.311002 75.865449 
L 150.268573 75.865449 
L 150.585189 75.143397 
L 150.874777 75.143397 
L 151.091003 74.180662 
L 152.403802 74.180662 
L 152.589138 73.699295 
L 152.878726 73.699295 
L 152.982978 72.977244 
L 153.156731 72.977244 
L 153.488792 72.014509 
L 153.720462 72.014509 
L 153.882632 71.292457 
L 154.519726 71.292457 
L 155.152958 71.051774 
L 155.25721 70.329722 
L 155.450268 70.329722 
L 155.612438 69.607671 
L 156.886625 69.607671 
L 156.917515 69.126303 
L 158.056561 69.126303 
L 158.21873 68.404252 
L 159.550835 68.404252 
L 167.168932 67.200833 
L 179.161739 64.793996 
L 180.995797 64.793996 
L 181.713975 63.831261 
L 187.505737 63.831261 
L 187.536626 63.349893 
L 189.235543 63.349893 
L 189.42474 63.109209 
L 199.232123 63.109209 
L 199.513988 62.627842 
L 201.151126 62.387158 
L 201.259239 61.905791 
L 202.359674 61.905791 
L 202.992906 61.665107 
L 203.842364 61.665107 
L 204.398374 61.424423 
L 204.630044 61.424423 
L 204.6841 61.183739 
L 205.688006 61.183739 
L 205.935121 60.943056 
L 212.808011 60.943056 
L 212.8389 60.461688 
L 214.71157 60.461688 
L 214.74632 59.017585 
L 220.345023 59.017585 
L 220.375912 58.536218 
L 222.904981 58.536218 
L 223.12893 58.05485 
L 229.229585 58.05485 
L 229.264335 56.610748 
L 230.828111 56.610748 
L 231.210367 56.370064 
L 231.38412 56.370064 
L 232.133188 56.12938 
L 235.283906 56.12938 
L 235.334101 55.648013 
L 235.449936 55.648013 
L 236.538787 55.407329 
L 236.71254 55.407329 
L 236.990545 54.685278 
L 245.52374 54.685278 
L 245.566213 53.722543 
L 265.069003 53.722543 
L 266.088353 53.481859 
L 267.717769 53.481859 
L 267.945578 53.241175 
L 269.026707 53.241175 
L 269.23521 53.000491 
L 269.505493 53.000491 
L 269.787358 52.519124 
L 270.019029 52.519124 
L 270.18892 52.27844 
L 270.347229 51.315705 
L 271.988228 51.315705 
L 273.038467 51.075021 
L 286.139431 51.075021 
L 286.247544 50.593654 
L 286.788108 50.593654 
L 286.838304 50.112286 
L 292.919653 50.112286 
L 293.012321 49.871603 
L 293.707332 49.871603 
L 294.220869 49.390235 
L 296.479655 49.390235 
L 296.649547 49.149551 
L 318.835854 49.149551 
L 319.754813 48.908868 
L 321.102363 48.668184 
L 327.415383 48.668184 
L 327.604581 48.4275 
L 400.90125 48.4275 
L 400.90125 48.4275 
" style="fill:none;stroke:#1f77b4;stroke-linecap:square;stroke-width:1.5;"/>
   </g>
   <g id="line2d_14">
    <path clip-path="url(#p1aa0678a43)" d="M 43.78125 301.8675 
L 43.850752 301.386132 
L 43.889364 301.386132 
L 44.140343 301.386132 
L 44.306375 300.182714 
L 44.57666 300.182714 
L 44.777444 298.257244 
L 44.89328 298.257244 
L 45.036145 297.535192 
L 45.298708 297.053825 
L 45.491769 297.053825 
L 45.881751 294.887671 
L 45.920364 294.887671 
L 46.310346 292.721517 
L 46.542019 292.721517 
L 46.681023 291.277415 
L 46.758247 291.277415 
L 46.916557 290.314679 
L 46.993782 290.314679 
L 47.098034 289.592628 
L 47.387626 289.592628 
L 47.460989 289.351944 
L 47.538213 289.351944 
L 47.854833 285.982372 
L 48.086506 285.982372 
L 48.217787 284.538269 
L 48.615492 284.056902 
L 48.719745 283.33485 
L 48.796969 283.33485 
L 48.847165 282.853483 
L 49.040226 282.853483 
L 49.190814 282.612799 
L 49.383874 282.612799 
L 49.56149 279.243226 
L 49.600102 279.243226 
L 49.661882 278.521175 
L 49.700494 276.114338 
L 49.951473 276.114338 
L 50.140673 272.263397 
L 50.561545 270.097244 
L 50.677382 270.097244 
L 50.750745 269.85656 
L 51.214091 269.85656 
L 51.326066 269.615876 
L 51.453486 269.134509 
L 51.569323 269.134509 
L 51.978611 268.171774 
L 52.001779 267.209038 
L 52.631157 267.209038 
L 52.828079 266.486987 
L 56.538707 239.049038 
L 56.724046 239.049038 
L 56.797409 238.808355 
L 56.874633 238.808355 
L 56.963441 237.123568 
L 57.137196 237.123568 
L 57.322534 236.642201 
L 57.399759 236.642201 
L 57.631432 234.235363 
L 57.670044 234.235363 
L 57.84766 232.069209 
L 58.04072 232.069209 
L 58.160418 231.106474 
L 58.778213 227.496218 
L 58.99058 227.496218 
L 59.110277 226.533483 
L 59.24542 226.533483 
L 59.353534 226.052115 
L 59.411452 226.052115 
L 59.423036 225.570748 
L 59.538872 225.570748 
L 63.261084 209.444936 
L 63.492757 209.444936 
L 63.631761 208.482201 
L 63.940658 208.482201 
L 65.02566 200.780321 
L 65.164664 197.410748 
L 65.241888 197.410748 
L 65.377031 196.207329 
L 65.589398 196.207329 
L 65.743846 195.485278 
L 65.821071 195.485278 
L 66.160858 195.00391 
L 66.315306 195.00391 
L 66.597175 193.319124 
L 67.041215 193.319124 
L 67.157051 190.912286 
L 67.450504 189.949551 
L 67.489116 189.949551 
L 67.56634 187.542714 
L 68.068298 187.542714 
L 68.23433 185.857927 
L 68.29611 185.135876 
L 68.605007 185.135876 
L 68.620452 184.895192 
L 68.871431 184.895192 
L 69.010435 183.932457 
L 69.049047 183.932457 
L 70.064547 179.60015 
L 70.180383 179.60015 
L 70.288497 179.118782 
L 70.713231 179.118782 
L 70.751843 177.915363 
L 70.906292 177.915363 
L 70.960349 177.674679 
L 71.053018 177.674679 
L 71.543393 175.749209 
L 71.85229 175.749209 
L 72.087824 174.786474 
L 73.010655 169.732115 
L 73.049267 169.732115 
L 73.238466 168.288013 
L 73.431527 168.288013 
L 73.562808 168.047329 
L 73.697951 168.047329 
L 73.945069 166.603226 
L 74.022293 166.603226 
L 74.273272 165.399808 
L 74.427721 165.399808 
L 74.725034 163.955705 
L 74.976013 163.955705 
L 75.176797 162.030235 
L 75.532029 160.104765 
L 75.605392 160.104765 
L 75.728951 159.382714 
L 75.902705 159.382714 
L 76.033987 159.14203 
L 76.3313 157.21656 
L 76.369912 157.21656 
L 76.478026 156.735192 
L 76.555251 156.735192 
L 76.833258 153.606303 
L 77.200074 153.606303 
L 77.300465 151.44015 
L 78.342994 151.44015 
L 78.416357 151.199466 
L 78.841091 151.199466 
L 78.910593 150.718098 
L 79.122959 150.718098 
L 79.574722 148.070577 
L 79.671252 148.070577 
L 79.929954 147.348526 
L 80.103708 147.348526 
L 80.17321 146.867158 
L 80.269741 146.867158 
L 80.717642 145.904423 
L 80.787143 145.423056 
L 81.115347 145.423056 
L 81.18871 145.182372 
L 81.265934 145.182372 
L 81.366326 144.219637 
L 81.462856 144.219637 
L 81.671362 143.256902 
L 82.07679 143.256902 
L 82.138569 142.294167 
L 82.524691 142.294167 
L 82.694584 142.053483 
L 82.733196 142.053483 
L 82.910812 141.090748 
L 82.988037 141.090748 
L 83.096151 140.60938 
L 83.134763 140.60938 
L 87.266264 138.202543 
L 87.895642 135.314338 
L 88.725803 135.314338 
L 88.756693 134.83297 
L 89.316569 134.83297 
L 89.389933 133.388868 
L 89.640912 133.388868 
L 89.822389 132.666816 
L 90.189204 132.666816 
L 90.644828 130.259979 
L 90.799276 130.259979 
L 90.853333 130.019295 
L 91.162231 130.019295 
L 91.656466 129.537927 
L 91.810915 129.537927 
L 92.015559 129.05656 
L 92.170008 129.05656 
L 92.312873 127.13109 
L 93.258871 127.13109 
L 93.440348 126.409038 
L 93.498266 126.409038 
L 93.625686 125.927671 
L 93.664299 125.927671 
L 93.872804 125.686987 
L 97.873024 125.686987 
L 98.116281 125.20562 
L 98.205089 124.724252 
L 98.351815 124.724252 
L 98.471512 123.761517 
L 98.606655 123.761517 
L 98.78041 122.558098 
L 99.514041 122.558098 
L 99.876995 121.113996 
L 99.973525 121.113996 
L 100.081639 120.632628 
L 100.992886 120.391944 
L 101.139613 119.910577 
L 101.506428 119.910577 
L 101.560485 118.466474 
L 101.714934 118.466474 
L 101.907995 117.503739 
L 103.066359 117.503739 
L 103.139722 117.263056 
L 103.410008 117.263056 
L 103.633958 115.578269 
L 103.981468 115.578269 
L 104.031663 115.337585 
L 104.1475 115.337585 
L 104.27492 114.856218 
L 104.352144 114.856218 
L 104.637874 113.412115 
L 104.87727 112.690064 
L 105.016273 111.727329 
L 105.657235 111.727329 
L 105.753766 110.52391 
L 106.074247 110.52391 
L 106.483535 109.561175 
L 107.564676 109.561175 
L 107.819516 108.59844 
L 107.973965 108.59844 
L 108.317613 107.154338 
L 108.356225 107.154338 
L 112.564951 105.950919 
L 112.638314 105.710235 
L 114.337249 105.710235 
L 114.368138 105.228868 
L 114.812178 105.228868 
L 114.862374 104.7475 
L 115.32572 104.7475 
L 115.530364 104.266132 
L 115.877874 104.266132 
L 116.372109 103.784765 
L 116.387554 103.544081 
L 117.584531 103.544081 
L 117.654033 103.062714 
L 118.132824 102.82203 
L 118.59617 102.82203 
L 118.708145 101.377927 
L 119.847204 101.377927 
L 120.18313 100.655876 
L 121.032597 100.655876 
L 121.048042 100.415192 
L 125.241322 98.97109 
L 125.349436 98.489722 
L 125.696946 98.489722 
L 125.917035 97.767671 
L 130.334266 97.767671 
L 130.384462 97.286303 
L 130.847808 97.286303 
L 130.882559 97.04562 
L 131.206901 96.804936 
L 131.496492 96.804936 
L 135.956197 95.601517 
L 136.867444 95.601517 
L 137.087533 94.879466 
L 138.323122 94.879466 
L 138.493016 94.638782 
L 138.632019 93.676047 
L 138.998835 93.676047 
L 139.106949 93.194679 
L 139.415846 93.194679 
L 139.971861 92.953996 
L 140.118587 92.472628 
L 140.674603 91.028526 
L 141.060724 91.028526 
L 141.215173 89.825107 
L 141.36576 89.584423 
L 142.516403 89.103056 
L 142.724908 88.862372 
L 144.771353 88.862372 
L 144.864022 88.621688 
L 144.979858 88.621688 
L 148.937605 88.381004 
L 149.231057 87.418269 
L 149.93766 87.418269 
L 150.084386 86.936902 
L 151.04969 86.936902 
L 151.238889 86.696218 
L 151.354726 86.696218 
L 151.385615 86.455534 
L 155.771957 85.492799 
L 155.887793 85.492799 
L 156.845375 85.252115 
L 157.065464 83.326645 
L 157.335749 83.326645 
L 158.760538 83.085962 
L 158.876374 83.085962 
L 159.081019 82.604594 
L 159.27408 82.604594 
L 159.362888 82.123226 
L 160.945986 82.123226 
L 161.092712 81.641859 
L 161.247161 81.641859 
L 161.405471 80.679124 
L 161.695062 80.679124 
L 161.749119 80.43844 
L 162.154547 80.43844 
L 170.432994 79.235021 
L 170.556553 77.309551 
L 170.687834 77.068868 
L 172.236182 77.068868 
L 172.290239 76.828184 
L 172.830809 76.828184 
L 172.954368 76.106132 
L 173.162873 75.865449 
L 174.996951 75.865449 
L 179.804165 75.624765 
L 179.873667 75.143397 
L 180.217315 75.143397 
L 180.441265 74.66203 
L 181.696161 74.66203 
L 181.881499 74.180662 
L 182.634436 74.180662 
L 182.688493 73.939979 
L 183.499348 73.939979 
L 183.765772 73.699295 
L 184.576628 73.699295 
L 184.669297 73.458611 
L 184.862358 73.458611 
L 184.877802 73.217927 
L 186.360509 73.217927 
L 186.538125 72.255192 
L 187.947469 72.255192 
L 195.924741 69.126303 
L 196.774209 69.126303 
L 196.924796 67.682201 
L 200.670176 67.682201 
L 205.122158 67.441517 
L 205.388581 67.200833 
L 205.54303 67.200833 
L 205.651144 66.719466 
L 206.828815 66.719466 
L 206.956235 66.238098 
L 209.578001 66.238098 
L 209.744033 65.756731 
L 209.9564 65.756731 
L 210.172628 64.793996 
L 210.442913 64.793996 
L 210.570333 64.312628 
L 213.149625 64.312628 
L 213.419911 63.109209 
L 215.157458 63.109209 
L 215.192209 62.868526 
L 218.555328 62.868526 
L 218.605524 62.387158 
L 218.837197 62.387158 
L 218.983923 61.905791 
L 221.26204 61.905791 
L 221.331542 61.424423 
L 222.69069 60.943056 
L 223.482239 60.943056 
L 224.517045 60.461688 
L 224.617437 59.498953 
L 225.215925 59.498953 
L 225.250676 59.258269 
L 226.621408 59.258269 
L 226.965056 59.017585 
L 228.142727 59.017585 
L 228.177478 58.776902 
L 231.440205 58.776902 
L 231.973053 58.295534 
L 233.366952 58.295534 
L 233.436454 57.814167 
L 233.687433 57.814167 
L 233.702878 57.573483 
L 234.436509 57.573483 
L 235.7416 57.092115 
L 237.286086 57.092115 
L 237.398062 56.851432 
L 240.185859 56.851432 
L 240.332586 56.370064 
L 241.182053 56.370064 
L 241.390559 56.12938 
L 243.13969 56.12938 
L 243.174441 55.888697 
L 245.572256 55.888697 
L 245.607007 55.648013 
L 246.533698 55.648013 
L 246.595478 54.685278 
L 253.248353 54.685278 
L 253.283104 54.444594 
L 254.866202 54.444594 
L 255.094014 54.20391 
L 255.966649 54.20391 
L 256.047734 53.241175 
L 256.785227 53.241175 
L 256.931953 52.759808 
L 261.488188 52.759808 
L 261.715999 52.519124 
L 267.577325 52.519124 
L 267.6893 52.27844 
L 274.311286 52.27844 
L 274.423261 52.037756 
L 288.061076 52.037756 
L 288.173051 51.797073 
L 288.3275 51.797073 
L 288.536005 51.556389 
L 294.231299 51.556389 
L 294.381886 51.315705 
L 294.768008 51.315705 
L 294.783453 51.075021 
L 297.968956 51.075021 
L 298.038458 50.593654 
L 298.115682 50.593654 
L 300.598444 50.112286 
L 302.74528 50.112286 
L 303.085067 49.630919 
L 312.255455 49.630919 
L 312.348124 49.390235 
L 317.908275 49.390235 
L 318.000944 49.149551 
L 325.877825 49.149551 
L 326.059302 48.4275 
L 400.90125 48.4275 
L 400.90125 48.4275 
" style="fill:none;stroke:#ff7f0e;stroke-linecap:square;stroke-width:1.5;"/>
   </g>
   <g id="line2d_15">
    <path clip-path="url(#p1aa0678a43)" d="M 43.78125 301.8675 
L 44.070841 301.8675 
L 44.209845 300.904765 
L 44.325681 300.904765 
L 44.426073 299.94203 
L 44.889419 299.94203 
L 44.958921 299.460662 
L 45.113369 299.460662 
L 45.159704 298.738611 
L 45.352765 298.738611 
L 45.429989 297.535192 
L 45.758193 297.535192 
L 45.955115 295.369038 
L 46.186788 295.369038 
L 46.325791 294.406303 
L 46.692607 294.406303 
L 46.970614 290.073996 
L 47.163675 290.073996 
L 47.399209 289.111261 
L 47.542074 289.111261 
L 48.047894 285.019637 
L 48.256399 284.778953 
L 48.410848 284.778953 
L 48.453321 283.816218 
L 48.897361 282.612799 
L 49.206258 282.612799 
L 49.310511 281.890748 
L 49.542184 281.890748 
L 49.762273 281.168697 
L 50.341456 281.168697 
L 50.465015 279.243226 
L 50.851136 279.243226 
L 50.978556 278.761859 
L 51.299037 277.077073 
L 51.97475 277.077073 
L 52.021085 275.151603 
L 52.484431 275.151603 
L 52.700659 272.985449 
L 52.812634 272.985449 
L 57.751129 238.567671 
L 57.959635 235.679466 
L 58.075471 235.679466 
L 58.172002 232.069209 
L 58.442287 229.662372 
L 58.596736 229.662372 
L 58.666237 229.181004 
L 58.820686 229.181004 
L 58.9288 228.699637 
L 59.199085 228.699637 
L 59.345811 227.01485 
L 59.453925 226.533483 
L 59.569762 226.533483 
L 59.704904 225.330064 
L 59.897965 225.330064 
L 60.002218 224.608013 
L 60.118055 224.608013 
L 63.832544 206.797415 
L 64.508257 206.797415 
L 64.608649 205.834679 
L 64.724485 205.834679 
L 64.848044 203.909209 
L 65.079717 203.909209 
L 65.295945 202.946474 
L 65.836515 202.946474 
L 66.114523 200.780321 
L 66.288278 200.780321 
L 66.415698 200.298953 
L 66.639648 199.336218 
L 66.705289 197.410748 
L 67.292194 193.07844 
L 67.689899 192.597073 
L 67.921572 192.597073 
L 68.052853 192.115705 
L 68.323138 189.708868 
L 68.574117 189.708868 
L 69.010435 188.264765 
L 69.068353 188.264765 
L 69.303887 187.783397 
L 69.578034 186.820662 
L 69.848319 186.820662 
L 69.9796 185.37656 
L 70.056824 185.37656 
L 70.118604 184.413825 
L 70.23444 184.413825 
L 70.280775 183.691774 
L 71.149549 183.691774 
L 71.365777 182.729038 
L 71.995155 179.840833 
L 72.369693 179.118782 
L 72.446917 179.118782 
L 72.948875 176.711944 
L 73.547364 176.711944 
L 73.609143 175.267842 
L 73.794481 174.545791 
L 74.080211 174.545791 
L 74.242382 173.823739 
L 74.763647 173.823739 
L 74.786814 172.861004 
L 75.049377 169.972799 
L 75.242437 169.972799 
L 75.516584 169.010064 
L 75.709645 169.010064 
L 75.91815 167.565962 
L 76.381496 167.565962 
L 76.667226 166.121859 
L 76.794646 163.233654 
L 77.169184 161.308184 
L 77.323633 161.308184 
L 77.485804 159.382714 
L 77.60164 159.382714 
L 78.061125 156.735192 
L 78.389328 156.735192 
L 78.937621 152.884252 
L 79.319881 152.884252 
L 79.389383 152.402885 
L 81.0304 152.402885 
L 81.06129 151.921517 
L 86.33185 149.514679 
L 86.99984 143.978953 
L 87.077064 143.978953 
L 87.675553 142.53485 
L 87.914948 140.60938 
L 88.455518 140.60938 
L 88.799167 139.165278 
L 89.2239 139.165278 
L 89.405377 138.443226 
L 89.63705 138.443226 
L 89.845556 136.999124 
L 90.000005 136.999124 
L 90.177621 136.036389 
L 90.409294 136.036389 
L 90.710468 135.555021 
L 91.119757 134.592286 
L 91.235594 134.592286 
L 91.63716 133.148184 
L 92.100506 133.148184 
L 92.231787 131.704081 
L 92.575436 131.463397 
L 93.868943 131.463397 
L 93.923 130.019295 
L 97.950248 130.019295 
L 98.328647 129.537927 
L 98.56032 129.537927 
L 98.6221 128.575192 
L 99.077723 128.093825 
L 99.834522 128.093825 
L 100.170447 127.371774 
L 100.259255 126.890406 
L 100.452316 126.890406 
L 100.552708 125.927671 
L 101.595236 125.927671 
L 101.853938 125.20562 
L 102.240059 125.20562 
L 102.599152 124.724252 
L 103.834741 124.724252 
L 108.981742 121.836047 
L 109.07055 121.354679 
L 109.35628 119.910577 
L 110.533951 119.910577 
L 110.750179 116.541004 
L 111.059076 116.541004 
L 111.267582 115.096902 
L 111.460643 115.096902 
L 112.11705 112.208697 
L 112.348722 112.208697 
L 113.020574 110.764594 
L 113.58045 110.764594 
L 113.796678 109.801859 
L 114.144188 109.801859 
L 114.561199 109.320491 
L 114.592089 108.839124 
L 116.677146 108.839124 
L 117.132769 108.357756 
L 117.383748 108.357756 
L 117.877984 107.876389 
L 119.7082 107.876389 
L 120.271938 106.913654 
L 120.453415 106.191603 
L 121.380107 106.191603 
L 121.526833 105.710235 
L 121.912954 105.710235 
L 121.943844 105.228868 
L 122.059681 105.228868 
L 122.283631 104.506816 
L 126.82056 104.506816 
L 126.882339 103.544081 
L 129.160457 103.544081 
L 129.183624 102.581346 
L 130.152789 100.415192 
L 130.423074 100.415192 
L 131.056314 98.97109 
L 131.287987 98.97109 
L 131.720443 98.249038 
L 132.338237 98.249038 
L 132.674163 97.526987 
L 132.751387 97.526987 
L 133.087313 96.804936 
L 133.125925 96.804936 
L 133.17226 94.879466 
L 133.442545 94.879466 
L 133.512047 94.398098 
L 134.207066 94.398098 
L 134.832583 93.676047 
L 134.921391 92.953996 
L 135.770858 92.953996 
L 136.184008 92.231944 
L 136.272816 91.750577 
L 136.388653 91.750577 
L 136.566269 90.787842 
L 136.662799 89.584423 
L 137.261288 89.584423 
L 137.307622 88.862372 
L 137.597213 88.862372 
L 137.909972 86.696218 
L 138.230453 86.21485 
L 138.307677 86.21485 
L 138.408069 85.252115 
L 140.454513 85.252115 
L 140.620545 83.567329 
L 140.852218 83.567329 
L 156.355 79.475705 
L 157.706426 79.475705 
L 168.45219 78.272286 
L 168.791977 77.790919 
L 169.236017 77.790919 
L 169.498579 77.309551 
L 170.521802 77.309551 
L 170.842283 76.828184 
L 172.830809 76.828184 
L 172.877143 76.106132 
L 177.105175 76.106132 
L 177.213289 75.624765 
L 189.383841 73.699295 
L 189.453343 73.217927 
L 190.901299 73.217927 
L 199.63537 72.255192 
L 200.870959 72.255192 
L 200.917293 71.533141 
L 201.708843 71.533141 
L 201.874875 71.051774 
L 202.936709 71.051774 
L 203.820928 69.607671 
L 203.882707 68.404252 
L 204.481196 68.404252 
L 205.037211 66.96015 
L 206.71684 66.96015 
L 207.477499 66.238098 
L 210.94101 66.238098 
L 211.087736 65.756731 
L 211.377327 65.756731 
L 211.73642 65.275363 
L 213.010622 65.275363 
L 213.833061 64.793996 
L 220.802555 64.793996 
L 221.250457 63.831261 
L 221.443517 63.831261 
L 221.590244 63.349893 
L 222.208038 63.349893 
L 222.316152 62.868526 
L 222.655939 62.387158 
L 223.775692 62.387158 
L 223.845194 61.905791 
L 228.903386 61.905791 
L 229.023084 60.943056 
L 229.544348 60.943056 
L 229.721964 59.980321 
L 232.687378 59.980321 
L 234.050387 59.498953 
L 234.513733 59.498953 
L 234.718378 58.536218 
L 236.243558 58.536218 
L 237.467563 57.814167 
L 241.738068 57.814167 
L 242.463977 57.332799 
L 243.429281 57.332799 
L 243.653231 56.851432 
L 247.410194 56.851432 
L 247.471974 55.888697 
L 249.170909 55.888697 
L 249.475945 55.648013 
L 256.352771 55.648013 
L 256.626917 54.685278 
L 260.584663 54.685278 
L 260.654165 54.20391 
L 264.457463 54.20391 
L 264.642801 53.722543 
L 264.700719 53.722543 
L 264.901503 53.000491 
L 266.272234 53.000491 
L 266.434405 52.27844 
L 266.781915 52.27844 
L 266.886168 51.556389 
L 276.589403 51.556389 
L 277.411842 51.075021 
L 280.635957 51.075021 
L 281.690069 50.593654 
L 291.485974 50.593654 
L 291.597949 50.35297 
L 296.540306 50.35297 
L 296.802869 49.871603 
L 314.047059 49.871603 
L 314.448625 49.630919 
L 321.456732 49.630919 
L 321.858299 49.390235 
L 328.422366 49.390235 
L 328.491868 48.908868 
L 342.31116 48.908868 
L 342.53511 48.4275 
L 400.90125 48.4275 
L 400.90125 48.4275 
" style="fill:none;stroke:#2ca02c;stroke-linecap:square;stroke-width:1.5;"/>
   </g>
   <g id="line2d_16">
    <path clip-path="url(#p1aa0678a43)" d="M 43.78125 301.8675 
L 400.90125 48.4275 
" style="fill:none;stroke:#000000;stroke-dasharray:5.6,2.4;stroke-dashoffset:0;stroke-width:1.5;"/>
   </g>
   <g id="patch_3">
    <path d="M 43.78125 301.8675 
L 43.78125 35.7555 
" style="fill:none;stroke:#000000;stroke-linecap:square;stroke-linejoin:miter;stroke-width:0.8;"/>
   </g>
   <g id="patch_4">
    <path d="M 400.90125 301.8675 
L 400.90125 35.7555 
" style="fill:none;stroke:#000000;stroke-linecap:square;stroke-linejoin:miter;stroke-width:0.8;"/>
   </g>
   <g id="patch_5">
    <path d="M 43.78125 301.8675 
L 400.90125 301.8675 
" style="fill:none;stroke:#000000;stroke-linecap:square;stroke-linejoin:miter;stroke-width:0.8;"/>
   </g>
   <g id="patch_6">
    <path d="M 43.78125 35.7555 
L 400.90125 35.7555 
" style="fill:none;stroke:#000000;stroke-linecap:square;stroke-linejoin:miter;stroke-width:0.8;"/>
   </g>
   <g id="text_15">
    <!-- ROC Curve AdaBoost + SMOTEENN -->
    <defs>
     <path d="M 39.40625 66.21875 
Q 28.65625 66.21875 22.328125 58.203125 
Q 16.015625 50.203125 16.015625 36.375 
Q 16.015625 22.609375 22.328125 14.59375 
Q 28.65625 6.59375 39.40625 6.59375 
Q 50.140625 6.59375 56.421875 14.59375 
Q 62.703125 22.609375 62.703125 36.375 
Q 62.703125 50.203125 56.421875 58.203125 
Q 50.140625 66.21875 39.40625 66.21875 
M 39.40625 74.21875 
Q 54.734375 74.21875 63.90625 63.9375 
Q 73.09375 53.65625 73.09375 36.375 
Q 73.09375 19.140625 63.90625 8.859375 
Q 54.734375 -1.421875 39.40625 -1.421875 
Q 24.03125 -1.421875 14.8125 8.828125 
Q 5.609375 19.09375 5.609375 36.375 
Q 5.609375 53.65625 14.8125 63.9375 
Q 24.03125 74.21875 39.40625 74.21875 
" id="DejaVuSans-4f"/>
     <path d="M 64.40625 67.28125 
L 64.40625 56.890625 
Q 59.421875 61.53125 53.78125 63.8125 
Q 48.140625 66.109375 41.796875 66.109375 
Q 29.296875 66.109375 22.65625 58.46875 
Q 16.015625 50.828125 16.015625 36.375 
Q 16.015625 21.96875 22.65625 14.328125 
Q 29.296875 6.6875 41.796875 6.6875 
Q 48.140625 6.6875 53.78125 8.984375 
Q 59.421875 11.28125 64.40625 15.921875 
L 64.40625 5.609375 
Q 59.234375 2.09375 53.4375 0.328125 
Q 47.65625 -1.421875 41.21875 -1.421875 
Q 24.65625 -1.421875 15.125 8.703125 
Q 5.609375 18.84375 5.609375 36.375 
Q 5.609375 53.953125 15.125 64.078125 
Q 24.65625 74.21875 41.21875 74.21875 
Q 47.75 74.21875 53.53125 72.484375 
Q 59.328125 70.75 64.40625 67.28125 
" id="DejaVuSans-43"/>
     <path d="M 34.1875 63.1875 
L 20.796875 26.90625 
L 47.609375 26.90625 
z
M 28.609375 72.90625 
L 39.796875 72.90625 
L 67.578125 0 
L 57.328125 0 
L 50.6875 18.703125 
L 17.828125 18.703125 
L 11.1875 0 
L 0.78125 0 
z
" id="DejaVuSans-41"/>
     <path d="M 45.40625 46.390625 
L 45.40625 75.984375 
L 54.390625 75.984375 
L 54.390625 0 
L 45.40625 0 
L 45.40625 8.203125 
Q 42.578125 3.328125 38.25 0.953125 
Q 33.9375 -1.421875 27.875 -1.421875 
Q 17.96875 -1.421875 11.734375 6.484375 
Q 5.515625 14.40625 5.515625 27.296875 
Q 5.515625 40.1875 11.734375 48.09375 
Q 17.96875 56 27.875 56 
Q 33.9375 56 38.25 53.625 
Q 42.578125 51.265625 45.40625 46.390625 
M 14.796875 27.296875 
Q 14.796875 17.390625 18.875 11.75 
Q 22.953125 6.109375 30.078125 6.109375 
Q 37.203125 6.109375 41.296875 11.75 
Q 45.40625 17.390625 45.40625 27.296875 
Q 45.40625 37.203125 41.296875 42.84375 
Q 37.203125 48.484375 30.078125 48.484375 
Q 22.953125 48.484375 18.875 42.84375 
Q 14.796875 37.203125 14.796875 27.296875 
" id="DejaVuSans-64"/>
     <path d="M 19.671875 34.8125 
L 19.671875 8.109375 
L 35.5 8.109375 
Q 43.453125 8.109375 47.28125 11.40625 
Q 51.125 14.703125 51.125 21.484375 
Q 51.125 28.328125 47.28125 31.5625 
Q 43.453125 34.8125 35.5 34.8125 
z
M 19.671875 64.796875 
L 19.671875 42.828125 
L 34.28125 42.828125 
Q 41.5 42.828125 45.03125 45.53125 
Q 48.578125 48.25 48.578125 53.8125 
Q 48.578125 59.328125 45.03125 62.0625 
Q 41.5 64.796875 34.28125 64.796875 
z
M 9.8125 72.90625 
L 35.015625 72.90625 
Q 46.296875 72.90625 52.390625 68.21875 
Q 58.5 63.53125 58.5 54.890625 
Q 58.5 48.1875 55.375 44.234375 
Q 52.25 40.28125 46.1875 39.3125 
Q 53.46875 37.75 57.5 32.78125 
Q 61.53125 27.828125 61.53125 20.40625 
Q 61.53125 10.640625 54.890625 5.3125 
Q 48.25 0 35.984375 0 
L 9.8125 0 
z
" id="DejaVuSans-42"/>
     <path d="M 46 62.703125 
L 46 35.5 
L 73.1875 35.5 
L 73.1875 27.203125 
L 46 27.203125 
L 46 0 
L 37.796875 0 
L 37.796875 27.203125 
L 10.59375 27.203125 
L 10.59375 35.5 
L 37.796875 35.5 
L 37.796875 62.703125 
z
" id="DejaVuSans-2b"/>
     <path d="M 53.515625 70.515625 
L 53.515625 60.890625 
Q 47.90625 63.578125 42.921875 64.890625 
Q 37.9375 66.21875 33.296875 66.21875 
Q 25.25 66.21875 20.875 63.09375 
Q 16.5 59.96875 16.5 54.203125 
Q 16.5 49.359375 19.40625 46.890625 
Q 22.3125 44.4375 30.421875 42.921875 
L 36.375 41.703125 
Q 47.40625 39.59375 52.65625 34.296875 
Q 57.90625 29 57.90625 20.125 
Q 57.90625 9.515625 50.796875 4.046875 
Q 43.703125 -1.421875 29.984375 -1.421875 
Q 24.8125 -1.421875 18.96875 -0.25 
Q 13.140625 0.921875 6.890625 3.21875 
L 6.890625 13.375 
Q 12.890625 10.015625 18.65625 8.296875 
Q 24.421875 6.59375 29.984375 6.59375 
Q 38.421875 6.59375 43.015625 9.90625 
Q 47.609375 13.234375 47.609375 19.390625 
Q 47.609375 24.75 44.3125 27.78125 
Q 41.015625 30.8125 33.5 32.328125 
L 27.484375 33.5 
Q 16.453125 35.6875 11.515625 40.375 
Q 6.59375 45.0625 6.59375 53.421875 
Q 6.59375 63.09375 13.40625 68.65625 
Q 20.21875 74.21875 32.171875 74.21875 
Q 37.3125 74.21875 42.625 73.28125 
Q 47.953125 72.359375 53.515625 70.515625 
" id="DejaVuSans-53"/>
     <path d="M 9.8125 72.90625 
L 24.515625 72.90625 
L 43.109375 23.296875 
L 61.8125 72.90625 
L 76.515625 72.90625 
L 76.515625 0 
L 66.890625 0 
L 66.890625 64.015625 
L 48.09375 14.015625 
L 38.1875 14.015625 
L 19.390625 64.015625 
L 19.390625 0 
L 9.8125 0 
z
" id="DejaVuSans-4d"/>
     <path d="M 9.8125 72.90625 
L 55.90625 72.90625 
L 55.90625 64.59375 
L 19.671875 64.59375 
L 19.671875 43.015625 
L 54.390625 43.015625 
L 54.390625 34.71875 
L 19.671875 34.71875 
L 19.671875 8.296875 
L 56.78125 8.296875 
L 56.78125 0 
L 9.8125 0 
z
" id="DejaVuSans-45"/>
     <path d="M 9.8125 72.90625 
L 23.09375 72.90625 
L 55.421875 11.921875 
L 55.421875 72.90625 
L 64.984375 72.90625 
L 64.984375 0 
L 51.703125 0 
L 19.390625 60.984375 
L 19.390625 0 
L 9.8125 0 
z
" id="DejaVuSans-4e"/>
    </defs>
    <g transform="translate(116.442188 16.318125)scale(0.12 -0.12)">
     <use xlink:href="#DejaVuSans-52"/>
     <use x="69.482422" xlink:href="#DejaVuSans-4f"/>
     <use x="148.193359" xlink:href="#DejaVuSans-43"/>
     <use x="218.017578" xlink:href="#DejaVuSans-20"/>
     <use x="249.804688" xlink:href="#DejaVuSans-43"/>
     <use x="319.628906" xlink:href="#DejaVuSans-75"/>
     <use x="383.007812" xlink:href="#DejaVuSans-72"/>
     <use x="424.121094" xlink:href="#DejaVuSans-76"/>
     <use x="483.300781" xlink:href="#DejaVuSans-65"/>
     <use x="544.824219" xlink:href="#DejaVuSans-20"/>
     <use x="576.611328" xlink:href="#DejaVuSans-41"/>
     <use x="645.003906" xlink:href="#DejaVuSans-64"/>
     <use x="708.480469" xlink:href="#DejaVuSans-61"/>
     <use x="769.759766" xlink:href="#DejaVuSans-42"/>
     <use x="838.363281" xlink:href="#DejaVuSans-6f"/>
     <use x="899.544922" xlink:href="#DejaVuSans-6f"/>
     <use x="960.726562" xlink:href="#DejaVuSans-73"/>
     <use x="1012.826172" xlink:href="#DejaVuSans-74"/>
     <use x="1052.035156" xlink:href="#DejaVuSans-20"/>
     <use x="1083.822266" xlink:href="#DejaVuSans-2b"/>
     <use x="1167.611328" xlink:href="#DejaVuSans-20"/>
     <use x="1199.398438" xlink:href="#DejaVuSans-53"/>
     <use x="1262.875" xlink:href="#DejaVuSans-4d"/>
     <use x="1349.154297" xlink:href="#DejaVuSans-4f"/>
     <use x="1427.865234" xlink:href="#DejaVuSans-54"/>
     <use x="1488.949219" xlink:href="#DejaVuSans-45"/>
     <use x="1552.132812" xlink:href="#DejaVuSans-45"/>
     <use x="1615.316406" xlink:href="#DejaVuSans-4e"/>
     <use x="1690.121094" xlink:href="#DejaVuSans-4e"/>
    </g>
    <!-- Train: [1, 2, 4, 6, 8, 10, 12]   Test: [1, 2, 4, 6, 8, 10, 12] -->
    <defs>
     <path d="M 54.890625 33.015625 
L 54.890625 0 
L 45.90625 0 
L 45.90625 32.71875 
Q 45.90625 40.484375 42.875 44.328125 
Q 39.84375 48.1875 33.796875 48.1875 
Q 26.515625 48.1875 22.3125 43.546875 
Q 18.109375 38.921875 18.109375 30.90625 
L 18.109375 0 
L 9.078125 0 
L 9.078125 54.6875 
L 18.109375 54.6875 
L 18.109375 46.1875 
Q 21.34375 51.125 25.703125 53.5625 
Q 30.078125 56 35.796875 56 
Q 45.21875 56 50.046875 50.171875 
Q 54.890625 44.34375 54.890625 33.015625 
" id="DejaVuSans-6e"/>
     <path d="M 11.71875 12.40625 
L 22.015625 12.40625 
L 22.015625 0 
L 11.71875 0 
z
M 11.71875 51.703125 
L 22.015625 51.703125 
L 22.015625 39.3125 
L 11.71875 39.3125 
z
" id="DejaVuSans-3a"/>
     <path d="M 8.59375 75.984375 
L 29.296875 75.984375 
L 29.296875 69 
L 17.578125 69 
L 17.578125 -6.203125 
L 29.296875 -6.203125 
L 29.296875 -13.1875 
L 8.59375 -13.1875 
z
" id="DejaVuSans-5b"/>
     <path d="M 11.71875 12.40625 
L 22.015625 12.40625 
L 22.015625 4 
L 14.015625 -11.625 
L 7.71875 -11.625 
L 11.71875 4 
z
" id="DejaVuSans-2c"/>
     <path d="M 30.421875 75.984375 
L 30.421875 -13.1875 
L 9.71875 -13.1875 
L 9.71875 -6.203125 
L 21.390625 -6.203125 
L 21.390625 69 
L 9.71875 69 
L 9.71875 75.984375 
z
" id="DejaVuSans-5d"/>
    </defs>
    <g transform="translate(56.837813 29.7555)scale(0.12 -0.12)">
     <use xlink:href="#DejaVuSans-54"/>
     <use x="60.865234" xlink:href="#DejaVuSans-72"/>
     <use x="101.978516" xlink:href="#DejaVuSans-61"/>
     <use x="163.257812" xlink:href="#DejaVuSans-69"/>
     <use x="191.041016" xlink:href="#DejaVuSans-6e"/>
     <use x="254.419922" xlink:href="#DejaVuSans-3a"/>
     <use x="288.111328" xlink:href="#DejaVuSans-20"/>
     <use x="319.898438" xlink:href="#DejaVuSans-5b"/>
     <use x="358.912109" xlink:href="#DejaVuSans-31"/>
     <use x="422.535156" xlink:href="#DejaVuSans-2c"/>
     <use x="454.322266" xlink:href="#DejaVuSans-20"/>
     <use x="486.109375" xlink:href="#DejaVuSans-32"/>
     <use x="549.732422" xlink:href="#DejaVuSans-2c"/>
     <use x="581.519531" xlink:href="#DejaVuSans-20"/>
     <use x="613.306641" xlink:href="#DejaVuSans-34"/>
     <use x="676.929688" xlink:href="#DejaVuSans-2c"/>
     <use x="708.716797" xlink:href="#DejaVuSans-20"/>
     <use x="740.503906" xlink:href="#DejaVuSans-36"/>
     <use x="804.126953" xlink:href="#DejaVuSans-2c"/>
     <use x="835.914062" xlink:href="#DejaVuSans-20"/>
     <use x="867.701172" xlink:href="#DejaVuSans-38"/>
     <use x="931.324219" xlink:href="#DejaVuSans-2c"/>
     <use x="963.111328" xlink:href="#DejaVuSans-20"/>
     <use x="994.898438" xlink:href="#DejaVuSans-31"/>
     <use x="1058.521484" xlink:href="#DejaVuSans-30"/>
     <use x="1122.144531" xlink:href="#DejaVuSans-2c"/>
     <use x="1153.931641" xlink:href="#DejaVuSans-20"/>
     <use x="1185.71875" xlink:href="#DejaVuSans-31"/>
     <use x="1249.341797" xlink:href="#DejaVuSans-32"/>
     <use x="1312.964844" xlink:href="#DejaVuSans-5d"/>
     <use x="1351.978516" xlink:href="#DejaVuSans-20"/>
     <use x="1383.765625" xlink:href="#DejaVuSans-20"/>
     <use x="1415.552734" xlink:href="#DejaVuSans-20"/>
     <use x="1447.339844" xlink:href="#DejaVuSans-54"/>
     <use x="1508.158203" xlink:href="#DejaVuSans-65"/>
     <use x="1569.681641" xlink:href="#DejaVuSans-73"/>
     <use x="1621.78125" xlink:href="#DejaVuSans-74"/>
     <use x="1660.990234" xlink:href="#DejaVuSans-3a"/>
     <use x="1694.681641" xlink:href="#DejaVuSans-20"/>
     <use x="1726.46875" xlink:href="#DejaVuSans-5b"/>
     <use x="1765.482422" xlink:href="#DejaVuSans-31"/>
     <use x="1829.105469" xlink:href="#DejaVuSans-2c"/>
     <use x="1860.892578" xlink:href="#DejaVuSans-20"/>
     <use x="1892.679688" xlink:href="#DejaVuSans-32"/>
     <use x="1956.302734" xlink:href="#DejaVuSans-2c"/>
     <use x="1988.089844" xlink:href="#DejaVuSans-20"/>
     <use x="2019.876953" xlink:href="#DejaVuSans-34"/>
     <use x="2083.5" xlink:href="#DejaVuSans-2c"/>
     <use x="2115.287109" xlink:href="#DejaVuSans-20"/>
     <use x="2147.074219" xlink:href="#DejaVuSans-36"/>
     <use x="2210.697266" xlink:href="#DejaVuSans-2c"/>
     <use x="2242.484375" xlink:href="#DejaVuSans-20"/>
     <use x="2274.271484" xlink:href="#DejaVuSans-38"/>
     <use x="2337.894531" xlink:href="#DejaVuSans-2c"/>
     <use x="2369.681641" xlink:href="#DejaVuSans-20"/>
     <use x="2401.46875" xlink:href="#DejaVuSans-31"/>
     <use x="2465.091797" xlink:href="#DejaVuSans-30"/>
     <use x="2528.714844" xlink:href="#DejaVuSans-2c"/>
     <use x="2560.501953" xlink:href="#DejaVuSans-20"/>
     <use x="2592.289062" xlink:href="#DejaVuSans-31"/>
     <use x="2655.912109" xlink:href="#DejaVuSans-32"/>
     <use x="2719.535156" xlink:href="#DejaVuSans-5d"/>
    </g>
   </g>
   <g id="legend_1">
    <g id="patch_7">
     <path d="M 217.087188 296.8675 
L 393.90125 296.8675 
Q 395.90125 296.8675 395.90125 294.8675 
L 395.90125 251.833125 
Q 395.90125 249.833125 393.90125 249.833125 
L 217.087188 249.833125 
Q 215.087188 249.833125 215.087188 251.833125 
L 215.087188 294.8675 
Q 215.087188 296.8675 217.087188 296.8675 
z
" style="fill:#ffffff;opacity:0.8;stroke:#cccccc;stroke-linejoin:miter;"/>
    </g>
    <g id="line2d_17">
     <path d="M 219.087188 257.931562 
L 239.087188 257.931562 
" style="fill:none;stroke:#1f77b4;stroke-linecap:square;stroke-width:1.5;"/>
    </g>
    <g id="line2d_18"/>
    <g id="text_16">
     <!-- ROC curve - 0 (AUC = 0.883) -->
     <defs>
      <path d="M 48.78125 52.59375 
L 48.78125 44.1875 
Q 44.96875 46.296875 41.140625 47.34375 
Q 37.3125 48.390625 33.40625 48.390625 
Q 24.65625 48.390625 19.8125 42.84375 
Q 14.984375 37.3125 14.984375 27.296875 
Q 14.984375 17.28125 19.8125 11.734375 
Q 24.65625 6.203125 33.40625 6.203125 
Q 37.3125 6.203125 41.140625 7.25 
Q 44.96875 8.296875 48.78125 10.40625 
L 48.78125 2.09375 
Q 45.015625 0.34375 40.984375 -0.53125 
Q 36.96875 -1.421875 32.421875 -1.421875 
Q 20.0625 -1.421875 12.78125 6.34375 
Q 5.515625 14.109375 5.515625 27.296875 
Q 5.515625 40.671875 12.859375 48.328125 
Q 20.21875 56 33.015625 56 
Q 37.15625 56 41.109375 55.140625 
Q 45.0625 54.296875 48.78125 52.59375 
" id="DejaVuSans-63"/>
      <path d="M 4.890625 31.390625 
L 31.203125 31.390625 
L 31.203125 23.390625 
L 4.890625 23.390625 
z
" id="DejaVuSans-2d"/>
      <path d="M 31 75.875 
Q 24.46875 64.65625 21.28125 53.65625 
Q 18.109375 42.671875 18.109375 31.390625 
Q 18.109375 20.125 21.3125 9.0625 
Q 24.515625 -2 31 -13.1875 
L 23.1875 -13.1875 
Q 15.875 -1.703125 12.234375 9.375 
Q 8.59375 20.453125 8.59375 31.390625 
Q 8.59375 42.28125 12.203125 53.3125 
Q 15.828125 64.359375 23.1875 75.875 
z
" id="DejaVuSans-28"/>
      <path d="M 8.6875 72.90625 
L 18.609375 72.90625 
L 18.609375 28.609375 
Q 18.609375 16.890625 22.84375 11.734375 
Q 27.09375 6.59375 36.625 6.59375 
Q 46.09375 6.59375 50.34375 11.734375 
Q 54.59375 16.890625 54.59375 28.609375 
L 54.59375 72.90625 
L 64.5 72.90625 
L 64.5 27.390625 
Q 64.5 13.140625 57.4375 5.859375 
Q 50.390625 -1.421875 36.625 -1.421875 
Q 22.796875 -1.421875 15.734375 5.859375 
Q 8.6875 13.140625 8.6875 27.390625 
z
" id="DejaVuSans-55"/>
      <path d="M 10.59375 45.40625 
L 73.1875 45.40625 
L 73.1875 37.203125 
L 10.59375 37.203125 
z
M 10.59375 25.484375 
L 73.1875 25.484375 
L 73.1875 17.1875 
L 10.59375 17.1875 
z
" id="DejaVuSans-3d"/>
      <path d="M 40.578125 39.3125 
Q 47.65625 37.796875 51.625 33 
Q 55.609375 28.21875 55.609375 21.1875 
Q 55.609375 10.40625 48.1875 4.484375 
Q 40.765625 -1.421875 27.09375 -1.421875 
Q 22.515625 -1.421875 17.65625 -0.515625 
Q 12.796875 0.390625 7.625 2.203125 
L 7.625 11.71875 
Q 11.71875 9.328125 16.59375 8.109375 
Q 21.484375 6.890625 26.8125 6.890625 
Q 36.078125 6.890625 40.9375 10.546875 
Q 45.796875 14.203125 45.796875 21.1875 
Q 45.796875 27.640625 41.28125 31.265625 
Q 36.765625 34.90625 28.71875 34.90625 
L 20.21875 34.90625 
L 20.21875 43.015625 
L 29.109375 43.015625 
Q 36.375 43.015625 40.234375 45.921875 
Q 44.09375 48.828125 44.09375 54.296875 
Q 44.09375 59.90625 40.109375 62.90625 
Q 36.140625 65.921875 28.71875 65.921875 
Q 24.65625 65.921875 20.015625 65.03125 
Q 15.375 64.15625 9.8125 62.3125 
L 9.8125 71.09375 
Q 15.4375 72.65625 20.34375 73.4375 
Q 25.25 74.21875 29.59375 74.21875 
Q 40.828125 74.21875 47.359375 69.109375 
Q 53.90625 64.015625 53.90625 55.328125 
Q 53.90625 49.265625 50.4375 45.09375 
Q 46.96875 40.921875 40.578125 39.3125 
" id="DejaVuSans-33"/>
      <path d="M 8.015625 75.875 
L 15.828125 75.875 
Q 23.140625 64.359375 26.78125 53.3125 
Q 30.421875 42.28125 30.421875 31.390625 
Q 30.421875 20.453125 26.78125 9.375 
Q 23.140625 -1.703125 15.828125 -13.1875 
L 8.015625 -13.1875 
Q 14.5 -2 17.703125 9.0625 
Q 20.90625 20.125 20.90625 31.390625 
Q 20.90625 42.671875 17.703125 53.65625 
Q 14.5 64.65625 8.015625 75.875 
" id="DejaVuSans-29"/>
     </defs>
     <g transform="translate(247.087188 261.431562)scale(0.1 -0.1)">
      <use xlink:href="#DejaVuSans-52"/>
      <use x="69.482422" xlink:href="#DejaVuSans-4f"/>
      <use x="148.193359" xlink:href="#DejaVuSans-43"/>
      <use x="218.017578" xlink:href="#DejaVuSans-20"/>
      <use x="249.804688" xlink:href="#DejaVuSans-63"/>
      <use x="304.785156" xlink:href="#DejaVuSans-75"/>
      <use x="368.164062" xlink:href="#DejaVuSans-72"/>
      <use x="409.277344" xlink:href="#DejaVuSans-76"/>
      <use x="468.457031" xlink:href="#DejaVuSans-65"/>
      <use x="529.980469" xlink:href="#DejaVuSans-20"/>
      <use x="561.767578" xlink:href="#DejaVuSans-2d"/>
      <use x="597.851562" xlink:href="#DejaVuSans-20"/>
      <use x="629.638672" xlink:href="#DejaVuSans-30"/>
      <use x="693.261719" xlink:href="#DejaVuSans-20"/>
      <use x="725.048828" xlink:href="#DejaVuSans-28"/>
      <use x="764.0625" xlink:href="#DejaVuSans-41"/>
      <use x="832.470703" xlink:href="#DejaVuSans-55"/>
      <use x="905.664062" xlink:href="#DejaVuSans-43"/>
      <use x="975.488281" xlink:href="#DejaVuSans-20"/>
      <use x="1007.275391" xlink:href="#DejaVuSans-3d"/>
      <use x="1091.064453" xlink:href="#DejaVuSans-20"/>
      <use x="1122.851562" xlink:href="#DejaVuSans-30"/>
      <use x="1186.474609" xlink:href="#DejaVuSans-2e"/>
      <use x="1218.261719" xlink:href="#DejaVuSans-38"/>
      <use x="1281.884766" xlink:href="#DejaVuSans-38"/>
      <use x="1345.507812" xlink:href="#DejaVuSans-33"/>
      <use x="1409.130859" xlink:href="#DejaVuSans-29"/>
     </g>
    </g>
    <g id="line2d_19">
     <path d="M 219.087188 272.609687 
L 239.087188 272.609687 
" style="fill:none;stroke:#ff7f0e;stroke-linecap:square;stroke-width:1.5;"/>
    </g>
    <g id="line2d_20"/>
    <g id="text_17">
     <!-- ROC curve - 1 (AUC = 0.859) -->
     <defs>
      <path d="M 10.796875 72.90625 
L 49.515625 72.90625 
L 49.515625 64.59375 
L 19.828125 64.59375 
L 19.828125 46.734375 
Q 21.96875 47.46875 24.109375 47.828125 
Q 26.265625 48.1875 28.421875 48.1875 
Q 40.625 48.1875 47.75 41.5 
Q 54.890625 34.8125 54.890625 23.390625 
Q 54.890625 11.625 47.5625 5.09375 
Q 40.234375 -1.421875 26.90625 -1.421875 
Q 22.3125 -1.421875 17.546875 -0.640625 
Q 12.796875 0.140625 7.71875 1.703125 
L 7.71875 11.625 
Q 12.109375 9.234375 16.796875 8.0625 
Q 21.484375 6.890625 26.703125 6.890625 
Q 35.15625 6.890625 40.078125 11.328125 
Q 45.015625 15.765625 45.015625 23.390625 
Q 45.015625 31 40.078125 35.4375 
Q 35.15625 39.890625 26.703125 39.890625 
Q 22.75 39.890625 18.8125 39.015625 
Q 14.890625 38.140625 10.796875 36.28125 
z
" id="DejaVuSans-35"/>
      <path d="M 10.984375 1.515625 
L 10.984375 10.5 
Q 14.703125 8.734375 18.5 7.8125 
Q 22.3125 6.890625 25.984375 6.890625 
Q 35.75 6.890625 40.890625 13.453125 
Q 46.046875 20.015625 46.78125 33.40625 
Q 43.953125 29.203125 39.59375 26.953125 
Q 35.25 24.703125 29.984375 24.703125 
Q 19.046875 24.703125 12.671875 31.3125 
Q 6.296875 37.9375 6.296875 49.421875 
Q 6.296875 60.640625 12.9375 67.421875 
Q 19.578125 74.21875 30.609375 74.21875 
Q 43.265625 74.21875 49.921875 64.515625 
Q 56.59375 54.828125 56.59375 36.375 
Q 56.59375 19.140625 48.40625 8.859375 
Q 40.234375 -1.421875 26.421875 -1.421875 
Q 22.703125 -1.421875 18.890625 -0.6875 
Q 15.09375 0.046875 10.984375 1.515625 
M 30.609375 32.421875 
Q 37.25 32.421875 41.125 36.953125 
Q 45.015625 41.5 45.015625 49.421875 
Q 45.015625 57.28125 41.125 61.84375 
Q 37.25 66.40625 30.609375 66.40625 
Q 23.96875 66.40625 20.09375 61.84375 
Q 16.21875 57.28125 16.21875 49.421875 
Q 16.21875 41.5 20.09375 36.953125 
Q 23.96875 32.421875 30.609375 32.421875 
" id="DejaVuSans-39"/>
     </defs>
     <g transform="translate(247.087188 276.109687)scale(0.1 -0.1)">
      <use xlink:href="#DejaVuSans-52"/>
      <use x="69.482422" xlink:href="#DejaVuSans-4f"/>
      <use x="148.193359" xlink:href="#DejaVuSans-43"/>
      <use x="218.017578" xlink:href="#DejaVuSans-20"/>
      <use x="249.804688" xlink:href="#DejaVuSans-63"/>
      <use x="304.785156" xlink:href="#DejaVuSans-75"/>
      <use x="368.164062" xlink:href="#DejaVuSans-72"/>
      <use x="409.277344" xlink:href="#DejaVuSans-76"/>
      <use x="468.457031" xlink:href="#DejaVuSans-65"/>
      <use x="529.980469" xlink:href="#DejaVuSans-20"/>
      <use x="561.767578" xlink:href="#DejaVuSans-2d"/>
      <use x="597.851562" xlink:href="#DejaVuSans-20"/>
      <use x="629.638672" xlink:href="#DejaVuSans-31"/>
      <use x="693.261719" xlink:href="#DejaVuSans-20"/>
      <use x="725.048828" xlink:href="#DejaVuSans-28"/>
      <use x="764.0625" xlink:href="#DejaVuSans-41"/>
      <use x="832.470703" xlink:href="#DejaVuSans-55"/>
      <use x="905.664062" xlink:href="#DejaVuSans-43"/>
      <use x="975.488281" xlink:href="#DejaVuSans-20"/>
      <use x="1007.275391" xlink:href="#DejaVuSans-3d"/>
      <use x="1091.064453" xlink:href="#DejaVuSans-20"/>
      <use x="1122.851562" xlink:href="#DejaVuSans-30"/>
      <use x="1186.474609" xlink:href="#DejaVuSans-2e"/>
      <use x="1218.261719" xlink:href="#DejaVuSans-38"/>
      <use x="1281.884766" xlink:href="#DejaVuSans-35"/>
      <use x="1345.507812" xlink:href="#DejaVuSans-39"/>
      <use x="1409.130859" xlink:href="#DejaVuSans-29"/>
     </g>
    </g>
    <g id="line2d_21">
     <path d="M 219.087188 287.287812 
L 239.087188 287.287812 
" style="fill:none;stroke:#2ca02c;stroke-linecap:square;stroke-width:1.5;"/>
    </g>
    <g id="line2d_22"/>
    <g id="text_18">
     <!-- ROC curve - 2 (AUC = 0.854) -->
     <g transform="translate(247.087188 290.787812)scale(0.1 -0.1)">
      <use xlink:href="#DejaVuSans-52"/>
      <use x="69.482422" xlink:href="#DejaVuSans-4f"/>
      <use x="148.193359" xlink:href="#DejaVuSans-43"/>
      <use x="218.017578" xlink:href="#DejaVuSans-20"/>
      <use x="249.804688" xlink:href="#DejaVuSans-63"/>
      <use x="304.785156" xlink:href="#DejaVuSans-75"/>
      <use x="368.164062" xlink:href="#DejaVuSans-72"/>
      <use x="409.277344" xlink:href="#DejaVuSans-76"/>
      <use x="468.457031" xlink:href="#DejaVuSans-65"/>
      <use x="529.980469" xlink:href="#DejaVuSans-20"/>
      <use x="561.767578" xlink:href="#DejaVuSans-2d"/>
      <use x="597.851562" xlink:href="#DejaVuSans-20"/>
      <use x="629.638672" xlink:href="#DejaVuSans-32"/>
      <use x="693.261719" xlink:href="#DejaVuSans-20"/>
      <use x="725.048828" xlink:href="#DejaVuSans-28"/>
      <use x="764.0625" xlink:href="#DejaVuSans-41"/>
      <use x="832.470703" xlink:href="#DejaVuSans-55"/>
      <use x="905.664062" xlink:href="#DejaVuSans-43"/>
      <use x="975.488281" xlink:href="#DejaVuSans-20"/>
      <use x="1007.275391" xlink:href="#DejaVuSans-3d"/>
      <use x="1091.064453" xlink:href="#DejaVuSans-20"/>
      <use x="1122.851562" xlink:href="#DejaVuSans-30"/>
      <use x="1186.474609" xlink:href="#DejaVuSans-2e"/>
      <use x="1218.261719" xlink:href="#DejaVuSans-38"/>
      <use x="1281.884766" xlink:href="#DejaVuSans-35"/>
      <use x="1345.507812" xlink:href="#DejaVuSans-34"/>
      <use x="1409.130859" xlink:href="#DejaVuSans-29"/>
     </g>
    </g>
   </g>
  </g>
 </g>
 <defs>
  <clipPath id="p1aa0678a43">
   <rect height="266.112" width="357.12" x="43.78125" y="35.7555"/>
  </clipPath>
 </defs>
</svg>
