<?xml version="1.0" encoding="utf-8" standalone="no"?>
<!DOCTYPE svg PUBLIC "-//W3C//DTD SVG 1.1//EN"
  "http://www.w3.org/Graphics/SVG/1.1/DTD/svg11.dtd">
<!-- Created with matplotlib (http://matplotlib.org/) -->
<svg height="424pt" version="1.1" viewBox="0 0 510 424" width="510pt" xmlns="http://www.w3.org/2000/svg" xmlns:xlink="http://www.w3.org/1999/xlink">
 <defs>
  <style type="text/css">
*{stroke-linecap:butt;stroke-linejoin:round;stroke-miterlimit:100000;}
  </style>
 </defs>
 <g id="figure_1">
  <g id="patch_1">
   <path d="M 0 424.2941 
L 510.039375 424.2941 
L 510.039375 0 
L 0 0 
z
" style="fill:#ffffff;"/>
  </g>
  <g id="axes_1">
   <g id="patch_2">
    <path d="M 46.8975 384.8666 
L 493.2975 384.8666 
L 493.2975 39.2666 
L 46.8975 39.2666 
z
" style="fill:#ffffff;"/>
   </g>
   <g id="line2d_1">
    <path clip-path="url(#p380a61e7a2)" d="M 46.8975 373.438029 
L 46.8975 339.152314 
L 47.107117 339.152314 
L 47.107117 336.8666 
L 47.316734 336.8666 
L 47.316734 334.580886 
L 48.364818 334.580886 
L 48.364818 330.009457 
L 48.742128 320.8666 
L 48.742128 304.8666 
L 48.951745 300.295171 
L 48.951745 295.723743 
L 49.161362 293.438029 
L 49.580595 293.438029 
L 49.706366 288.8666 
L 50.125599 288.8666 
L 50.335216 284.295171 
L 50.544833 284.295171 
L 50.670603 279.723743 
L 51.299453 279.723743 
L 51.63484 270.580886 
L 52.263691 270.580886 
L 52.682924 266.009457 
L 52.892541 266.009457 
L 53.102158 261.438029 
L 53.311775 261.438029 
L 53.856779 254.580886 
L 54.276012 254.580886 
L 54.485629 252.295171 
L 54.485629 245.438029 
L 54.611399 240.8666 
L 55.030633 240.8666 
L 55.11448 234.009457 
L 55.533713 229.438029 
L 55.827177 222.580886 
L 56.456027 222.580886 
L 56.665644 220.295171 
L 57.084878 220.295171 
L 57.084878 218.009457 
L 57.252571 215.723743 
L 58.510272 215.723743 
L 58.677966 213.438029 
L 59.306816 213.438029 
L 59.47451 211.152314 
L 59.684127 211.152314 
L 59.684127 208.8666 
L 59.809897 204.295171 
L 60.22913 204.295171 
L 60.22913 202.009457 
L 61.067598 202.009457 
L 61.235291 199.723743 
L 61.444908 199.723743 
L 61.444908 197.438029 
L 61.612601 195.152314 
L 61.906065 188.295171 
L 62.115682 188.295171 
L 62.283375 186.009457 
L 62.283375 181.438029 
L 62.492992 181.438029 
L 62.660686 179.152314 
L 62.870302 179.152314 
L 63.289536 165.438029 
L 64.966471 165.438029 
L 64.966471 160.8666 
L 65.804938 160.8666 
L 65.930708 156.295171 
L 68.236493 156.295171 
L 68.236493 151.723743 
L 69.494194 151.723743 
L 69.494194 149.438029 
L 72.42883 149.438029 
L 72.596523 147.152314 
L 74.063841 147.152314 
L 74.231535 144.8666 
L 74.650768 144.8666 
L 74.818462 142.580886 
L 76.076163 142.580886 
L 76.285779 140.295171 
L 76.495396 140.295171 
L 76.66309 138.009457 
L 77.711174 138.009457 
L 78.004637 131.152314 
L 79.891189 131.152314 
L 80.058882 128.8666 
L 82.155051 128.8666 
L 82.322744 126.580886 
L 86.515081 126.580886 
L 86.515081 122.009457 
L 86.934314 122.009457 
L 87.227778 115.152314 
L 87.437395 115.152314 
L 87.563165 110.580886 
L 89.2401 110.580886 
L 89.2401 108.295171 
L 93.013202 108.295171 
L 93.013202 106.009457 
L 95.947838 106.009457 
L 96.073608 101.438029 
L 96.702459 101.438029 
L 96.870152 99.152314 
L 101.481722 99.152314 
L 101.649416 96.8666 
L 107.099453 96.8666 
L 107.099453 94.580886 
L 108.147538 94.580886 
L 108.147538 92.295171 
L 108.566771 92.295171 
L 108.566771 90.009457 
L 124.49765 90.009457 
L 124.49765 87.723743 
L 131.205389 87.723743 
L 131.373082 85.438029 
L 134.098101 85.438029 
L 134.098101 83.152314 
L 137.871204 83.152314 
L 137.871204 80.8666 
L 161.557906 80.8666 
L 161.767523 78.580886 
L 172.038747 78.580886 
L 172.038747 76.295171 
L 172.877215 76.295171 
L 173.044908 74.009457 
L 188.179243 74.009457 
L 188.346937 71.723743 
L 190.023871 71.723743 
L 190.023871 69.438029 
L 197.821617 69.438029 
L 197.821617 67.152314 
L 200.546636 67.152314 
L 200.756253 64.8666 
L 209.140926 64.8666 
L 209.140926 62.580886 
L 224.023721 62.580886 
L 224.191414 60.295171 
L 249.303511 60.295171 
L 249.471204 58.009457 
L 320.531309 58.009457 
L 320.699003 55.723743 
L 493.2975 55.723743 
L 493.2975 55.723743 
" style="fill:none;stroke:#0000ff;stroke-linecap:square;"/>
   </g>
   <g id="line2d_2">
    <path clip-path="url(#p380a61e7a2)" d="M 46.8975 384.8666 
L 48.574592 384.8666 
L 48.742301 380.295171 
L 54.82176 330.009457 
L 55.618379 330.009457 
L 57.924381 307.152314 
L 58.972563 307.152314 
L 59.140273 304.8666 
L 59.349909 304.8666 
L 59.349909 302.580886 
L 59.559546 300.295171 
L 59.978819 300.295171 
L 62.494457 277.438029 
L 62.91373 277.438029 
L 63.123366 272.8666 
L 63.542639 268.295171 
L 63.752276 268.295171 
L 63.961913 259.152314 
L 65.429368 252.295171 
L 66.058278 252.295171 
L 66.058278 250.009457 
L 66.267914 247.723743 
L 67.525733 240.8666 
L 67.693443 238.580886 
L 67.819224 231.723743 
L 68.448134 218.009457 
L 68.783552 215.723743 
L 68.783552 211.152314 
L 69.831735 211.152314 
L 70.041372 206.580886 
L 70.251008 206.580886 
L 70.251008 204.295171 
L 70.460645 202.009457 
L 71.089554 202.009457 
L 71.089554 197.438029 
L 71.508827 197.438029 
L 71.718464 192.8666 
L 72.347373 192.8666 
L 72.55701 190.580886 
L 73.814829 190.580886 
L 73.814829 183.723743 
L 74.234102 174.580886 
L 74.653375 174.580886 
L 74.653375 172.295171 
L 74.73723 172.295171 
L 75.156503 172.295171 
L 75.701557 156.295171 
L 78.30105 156.295171 
L 78.636469 154.009457 
L 78.804178 151.723743 
L 80.48127 151.723743 
L 80.48127 147.152314 
L 80.607052 142.580886 
L 81.152107 142.580886 
L 81.277889 138.009457 
L 81.277889 133.438029 
L 90.292259 133.438029 
L 90.292259 131.152314 
L 90.627678 128.8666 
L 91.21466 128.8666 
L 91.424296 124.295171 
L 94.359208 124.295171 
L 94.526917 122.009457 
L 95.155826 122.009457 
L 95.323536 119.723743 
L 98.468083 119.723743 
L 98.67772 117.438029 
L 106.182707 117.438029 
L 106.182707 115.152314 
L 107.650163 115.152314 
L 107.650163 112.8666 
L 109.956164 112.8666 
L 110.123874 110.580886 
L 111.172056 110.580886 
L 111.297838 106.009457 
L 113.184567 106.009457 
L 113.184567 103.723743 
L 114.232749 103.723743 
L 114.442386 101.438029 
L 120.521845 101.438029 
L 120.689554 99.152314 
L 126.769013 99.152314 
L 129.075015 96.8666 
L 135.36411 90.009457 
L 137.250839 90.009457 
L 139.556841 87.723743 
L 146.642555 87.723743 
L 146.768337 83.152314 
L 177.584905 83.152314 
L 177.752614 80.8666 
L 180.855235 80.8666 
L 183.790146 67.152314 
L 185.676874 67.152314 
L 185.886511 64.8666 
L 186.934694 64.8666 
L 187.14433 62.580886 
L 189.198768 62.580886 
L 189.408404 60.295171 
L 239.637314 60.295171 
L 239.846951 58.009457 
L 257.875691 58.009457 
L 257.875691 55.723743 
L 493.2975 55.723743 
L 493.2975 55.723743 
" style="fill:none;stroke:#008000;stroke-linecap:square;"/>
   </g>
   <g id="line2d_3">
    <path clip-path="url(#p380a61e7a2)" d="M 46.8975 384.8666 
L 47.107137 384.8666 
L 47.52641 380.263203 
L 47.945683 380.263203 
L 48.364956 373.358108 
L 48.574592 373.358108 
L 49.119647 366.453014 
L 49.53892 366.453014 
L 49.748557 364.151315 
L 50.16783 364.151315 
L 50.377466 361.849617 
L 50.587103 361.849617 
L 52.431904 348.039427 
L 52.641541 343.436031 
L 53.060814 343.436031 
L 53.27045 341.134332 
L 54.108996 341.134332 
L 54.276705 338.832634 
L 54.695978 338.832634 
L 54.905615 334.229237 
L 55.115251 334.229237 
L 55.324888 331.927539 
L 55.702234 331.927539 
L 55.869943 329.625841 
L 56.079579 329.625841 
L 56.289216 327.324142 
L 56.498852 327.324142 
L 56.708489 322.720746 
L 56.918126 322.720746 
L 57.127762 318.117349 
L 57.337399 318.117349 
L 57.756672 315.815651 
L 57.966308 313.513953 
L 58.050163 306.608858 
L 58.469436 306.608858 
L 58.637145 304.307159 
L 59.014491 297.402065 
L 59.6434 297.402065 
L 59.853037 292.798668 
L 60.062673 292.798668 
L 60.27231 290.49697 
L 60.481946 290.49697 
L 60.691583 285.893573 
L 61.320492 285.893573 
L 61.530129 283.591875 
L 61.739765 283.591875 
L 61.949402 281.290176 
L 62.28482 281.290176 
L 62.494457 278.988478 
L 62.704093 278.988478 
L 62.91373 274.385082 
L 63.752276 274.385082 
L 63.919985 272.083383 
L 64.045767 267.479987 
L 65.303586 267.479987 
L 65.429368 265.178288 
L 65.639005 265.178288 
L 66.687187 260.574892 
L 66.896824 258.273193 
L 67.064533 258.273193 
L 67.274169 255.971495 
L 69.160898 255.971495 
L 69.370535 253.669797 
L 69.999444 253.669797 
L 70.209081 251.368099 
L 71.676536 251.368099 
L 71.802318 246.764702 
L 72.011955 246.764702 
L 72.179664 244.463004 
L 72.389301 239.859607 
L 73.227847 239.859607 
L 73.395556 237.557909 
L 74.024465 237.557909 
L 74.192175 235.25621 
L 74.527593 235.25621 
L 74.946866 230.652814 
L 77.588286 230.652814 
L 77.755995 228.351115 
L 78.30105 228.351115 
L 78.510687 223.747719 
L 79.978142 223.747719 
L 80.103924 219.144322 
L 81.361743 219.144322 
L 81.57138 214.540926 
L 81.990653 214.540926 
L 82.20029 212.239227 
L 82.409926 212.239227 
L 82.745344 207.635831 
L 84.003164 207.635831 
L 84.2128 203.032434 
L 85.889892 203.032434 
L 86.057601 200.730736 
L 86.267238 196.127339 
L 86.686511 196.127339 
L 86.896148 193.825641 
L 87.525057 193.825641 
L 87.692766 191.523943 
L 93.143316 191.523943 
L 93.772225 184.618848 
L 95.239681 184.618848 
L 95.658954 182.317149 
L 96.707137 182.317149 
L 96.874846 180.015451 
L 98.719647 180.015451 
L 99.013138 173.110356 
L 99.222775 170.808658 
L 99.432411 170.808658 
L 99.60012 168.50696 
L 103.163941 168.50696 
L 103.33165 166.205261 
L 103.96056 166.205261 
L 104.212124 156.998468 
L 105.05067 156.998468 
L 105.51187 143.188278 
L 105.721507 143.188278 
L 105.889216 140.88658 
L 106.098852 136.283183 
L 106.518126 136.283183 
L 106.685835 133.981485 
L 108.991836 133.981485 
L 109.201473 129.378089 
L 112.262166 129.378089 
L 112.471803 124.774692 
L 114.358531 124.774692 
L 114.568168 122.472994 
L 114.987441 122.472994 
L 115.15515 120.171295 
L 124.16952 120.171295 
L 124.379157 117.869597 
L 124.588793 117.869597 
L 124.79843 115.567899 
L 136.747711 115.567899 
L 136.915421 113.2662 
L 143.204516 113.2662 
L 143.372225 110.964502 
L 145.678227 110.964502 
L 146.055573 106.361105 
L 148.361574 106.361105 
L 148.529284 104.059407 
L 148.948557 104.059407 
L 149.451684 97.154312 
L 149.661321 97.154312 
L 149.870957 94.852614 
L 150.499867 94.852614 
L 150.667576 92.550916 
L 151.925395 92.550916 
L 152.135032 90.249217 
L 156.118126 90.249217 
L 156.285835 87.947519 
L 159.430383 87.947519 
L 159.598092 85.645821 
L 161.48482 85.645821 
L 161.694457 81.042424 
L 163.581186 81.042424 
L 163.748895 78.740726 
L 171.924719 78.740726 
L 172.134355 76.439028 
L 206.514744 76.439028 
L 206.682454 74.137329 
L 213.768168 74.137329 
L 213.935877 71.835631 
L 245.171718 71.835631 
L 245.339427 69.533933 
L 245.549064 69.533933 
L 245.716773 67.232234 
L 247.603502 67.232234 
L 247.813138 64.930536 
L 256.03089 64.930536 
L 256.198599 62.628838 
L 276.952614 62.628838 
L 277.120323 60.327139 
L 285.925057 60.327139 
L 286.092766 58.025441 
L 329.277889 58.025441 
L 329.445598 55.723743 
L 493.2975 55.723743 
L 493.2975 55.723743 
" style="fill:none;stroke:#ff0000;stroke-linecap:square;"/>
   </g>
   <g id="line2d_4">
    <path clip-path="url(#p380a61e7a2)" d="M 46.8975 384.8666 
L 493.2975 55.723743 
" style="fill:none;stroke:#000000;stroke-dasharray:6.000000,6.000000;stroke-dashoffset:0.0;"/>
   </g>
   <g id="patch_3">
    <path d="M 46.8975 384.8666 
L 493.2975 384.8666 
" style="fill:none;stroke:#000000;stroke-linecap:square;stroke-linejoin:miter;"/>
   </g>
   <g id="patch_4">
    <path d="M 46.8975 384.8666 
L 46.8975 39.2666 
" style="fill:none;stroke:#000000;stroke-linecap:square;stroke-linejoin:miter;"/>
   </g>
   <g id="patch_5">
    <path d="M 46.8975 39.2666 
L 493.2975 39.2666 
" style="fill:none;stroke:#000000;stroke-linecap:square;stroke-linejoin:miter;"/>
   </g>
   <g id="patch_6">
    <path d="M 493.2975 384.8666 
L 493.2975 39.2666 
" style="fill:none;stroke:#000000;stroke-linecap:square;stroke-linejoin:miter;"/>
   </g>
   <g id="matplotlib.axis_1">
    <g id="xtick_1">
     <g id="line2d_5">
      <defs>
       <path d="M 0 0 
L 0 -4 
" id="m2fba8e9ade" style="stroke:#000000;stroke-width:0.5;"/>
      </defs>
      <g>
       <use style="stroke:#000000;stroke-width:0.5;" x="46.8975" xlink:href="#m2fba8e9ade" y="384.8666"/>
      </g>
     </g>
     <g id="line2d_6">
      <defs>
       <path d="M 0 0 
L 0 4 
" id="m42c495c3a2" style="stroke:#000000;stroke-width:0.5;"/>
      </defs>
      <g>
       <use style="stroke:#000000;stroke-width:0.5;" x="46.8975" xlink:href="#m42c495c3a2" y="39.2666"/>
      </g>
     </g>
     <g id="text_1">
      <!-- 0.0 -->
      <defs>
       <path d="M 31.78125 66.40625 
Q 24.171875 66.40625 20.328125 58.90625 
Q 16.5 51.421875 16.5 36.375 
Q 16.5 21.390625 20.328125 13.890625 
Q 24.171875 6.390625 31.78125 6.390625 
Q 39.453125 6.390625 43.28125 13.890625 
Q 47.125 21.390625 47.125 36.375 
Q 47.125 51.421875 43.28125 58.90625 
Q 39.453125 66.40625 31.78125 66.40625 
M 31.78125 74.21875 
Q 44.046875 74.21875 50.515625 64.515625 
Q 56.984375 54.828125 56.984375 36.375 
Q 56.984375 17.96875 50.515625 8.265625 
Q 44.046875 -1.421875 31.78125 -1.421875 
Q 19.53125 -1.421875 13.0625 8.265625 
Q 6.59375 17.96875 6.59375 36.375 
Q 6.59375 54.828125 13.0625 64.515625 
Q 19.53125 74.21875 31.78125 74.21875 
" id="BitstreamVeraSans-Roman-30"/>
       <path d="M 10.6875 12.40625 
L 21 12.40625 
L 21 0 
L 10.6875 0 
z
" id="BitstreamVeraSans-Roman-2e"/>
      </defs>
      <g transform="translate(37.355625 397.984725)scale(0.12 -0.12)">
       <use xlink:href="#BitstreamVeraSans-Roman-30"/>
       <use x="63.623046875" xlink:href="#BitstreamVeraSans-Roman-2e"/>
       <use x="95.41015625" xlink:href="#BitstreamVeraSans-Roman-30"/>
      </g>
     </g>
    </g>
    <g id="xtick_2">
     <g id="line2d_7">
      <g>
       <use style="stroke:#000000;stroke-width:0.5;" x="136.1775" xlink:href="#m2fba8e9ade" y="384.8666"/>
      </g>
     </g>
     <g id="line2d_8">
      <g>
       <use style="stroke:#000000;stroke-width:0.5;" x="136.1775" xlink:href="#m42c495c3a2" y="39.2666"/>
      </g>
     </g>
     <g id="text_2">
      <!-- 0.2 -->
      <defs>
       <path d="M 19.1875 8.296875 
L 53.609375 8.296875 
L 53.609375 0 
L 7.328125 0 
L 7.328125 8.296875 
Q 12.9375 14.109375 22.625 23.890625 
Q 32.328125 33.6875 34.8125 36.53125 
Q 39.546875 41.84375 41.421875 45.53125 
Q 43.3125 49.21875 43.3125 52.78125 
Q 43.3125 58.59375 39.234375 62.25 
Q 35.15625 65.921875 28.609375 65.921875 
Q 23.96875 65.921875 18.8125 64.3125 
Q 13.671875 62.703125 7.8125 59.421875 
L 7.8125 69.390625 
Q 13.765625 71.78125 18.9375 73 
Q 24.125 74.21875 28.421875 74.21875 
Q 39.75 74.21875 46.484375 68.546875 
Q 53.21875 62.890625 53.21875 53.421875 
Q 53.21875 48.921875 51.53125 44.890625 
Q 49.859375 40.875 45.40625 35.40625 
Q 44.1875 33.984375 37.640625 27.21875 
Q 31.109375 20.453125 19.1875 8.296875 
" id="BitstreamVeraSans-Roman-32"/>
      </defs>
      <g transform="translate(126.635625 397.984725)scale(0.12 -0.12)">
       <use xlink:href="#BitstreamVeraSans-Roman-30"/>
       <use x="63.623046875" xlink:href="#BitstreamVeraSans-Roman-2e"/>
       <use x="95.41015625" xlink:href="#BitstreamVeraSans-Roman-32"/>
      </g>
     </g>
    </g>
    <g id="xtick_3">
     <g id="line2d_9">
      <g>
       <use style="stroke:#000000;stroke-width:0.5;" x="225.4575" xlink:href="#m2fba8e9ade" y="384.8666"/>
      </g>
     </g>
     <g id="line2d_10">
      <g>
       <use style="stroke:#000000;stroke-width:0.5;" x="225.4575" xlink:href="#m42c495c3a2" y="39.2666"/>
      </g>
     </g>
     <g id="text_3">
      <!-- 0.4 -->
      <defs>
       <path d="M 37.796875 64.3125 
L 12.890625 25.390625 
L 37.796875 25.390625 
z
M 35.203125 72.90625 
L 47.609375 72.90625 
L 47.609375 25.390625 
L 58.015625 25.390625 
L 58.015625 17.1875 
L 47.609375 17.1875 
L 47.609375 0 
L 37.796875 0 
L 37.796875 17.1875 
L 4.890625 17.1875 
L 4.890625 26.703125 
z
" id="BitstreamVeraSans-Roman-34"/>
      </defs>
      <g transform="translate(215.915625 397.984725)scale(0.12 -0.12)">
       <use xlink:href="#BitstreamVeraSans-Roman-30"/>
       <use x="63.623046875" xlink:href="#BitstreamVeraSans-Roman-2e"/>
       <use x="95.41015625" xlink:href="#BitstreamVeraSans-Roman-34"/>
      </g>
     </g>
    </g>
    <g id="xtick_4">
     <g id="line2d_11">
      <g>
       <use style="stroke:#000000;stroke-width:0.5;" x="314.7375" xlink:href="#m2fba8e9ade" y="384.8666"/>
      </g>
     </g>
     <g id="line2d_12">
      <g>
       <use style="stroke:#000000;stroke-width:0.5;" x="314.7375" xlink:href="#m42c495c3a2" y="39.2666"/>
      </g>
     </g>
     <g id="text_4">
      <!-- 0.6 -->
      <defs>
       <path d="M 33.015625 40.375 
Q 26.375 40.375 22.484375 35.828125 
Q 18.609375 31.296875 18.609375 23.390625 
Q 18.609375 15.53125 22.484375 10.953125 
Q 26.375 6.390625 33.015625 6.390625 
Q 39.65625 6.390625 43.53125 10.953125 
Q 47.40625 15.53125 47.40625 23.390625 
Q 47.40625 31.296875 43.53125 35.828125 
Q 39.65625 40.375 33.015625 40.375 
M 52.59375 71.296875 
L 52.59375 62.3125 
Q 48.875 64.0625 45.09375 64.984375 
Q 41.3125 65.921875 37.59375 65.921875 
Q 27.828125 65.921875 22.671875 59.328125 
Q 17.53125 52.734375 16.796875 39.40625 
Q 19.671875 43.65625 24.015625 45.921875 
Q 28.375 48.1875 33.59375 48.1875 
Q 44.578125 48.1875 50.953125 41.515625 
Q 57.328125 34.859375 57.328125 23.390625 
Q 57.328125 12.15625 50.6875 5.359375 
Q 44.046875 -1.421875 33.015625 -1.421875 
Q 20.359375 -1.421875 13.671875 8.265625 
Q 6.984375 17.96875 6.984375 36.375 
Q 6.984375 53.65625 15.1875 63.9375 
Q 23.390625 74.21875 37.203125 74.21875 
Q 40.921875 74.21875 44.703125 73.484375 
Q 48.484375 72.75 52.59375 71.296875 
" id="BitstreamVeraSans-Roman-36"/>
      </defs>
      <g transform="translate(305.195625 397.984725)scale(0.12 -0.12)">
       <use xlink:href="#BitstreamVeraSans-Roman-30"/>
       <use x="63.623046875" xlink:href="#BitstreamVeraSans-Roman-2e"/>
       <use x="95.41015625" xlink:href="#BitstreamVeraSans-Roman-36"/>
      </g>
     </g>
    </g>
    <g id="xtick_5">
     <g id="line2d_13">
      <g>
       <use style="stroke:#000000;stroke-width:0.5;" x="404.0175" xlink:href="#m2fba8e9ade" y="384.8666"/>
      </g>
     </g>
     <g id="line2d_14">
      <g>
       <use style="stroke:#000000;stroke-width:0.5;" x="404.0175" xlink:href="#m42c495c3a2" y="39.2666"/>
      </g>
     </g>
     <g id="text_5">
      <!-- 0.8 -->
      <defs>
       <path d="M 31.78125 34.625 
Q 24.75 34.625 20.71875 30.859375 
Q 16.703125 27.09375 16.703125 20.515625 
Q 16.703125 13.921875 20.71875 10.15625 
Q 24.75 6.390625 31.78125 6.390625 
Q 38.8125 6.390625 42.859375 10.171875 
Q 46.921875 13.96875 46.921875 20.515625 
Q 46.921875 27.09375 42.890625 30.859375 
Q 38.875 34.625 31.78125 34.625 
M 21.921875 38.8125 
Q 15.578125 40.375 12.03125 44.71875 
Q 8.5 49.078125 8.5 55.328125 
Q 8.5 64.0625 14.71875 69.140625 
Q 20.953125 74.21875 31.78125 74.21875 
Q 42.671875 74.21875 48.875 69.140625 
Q 55.078125 64.0625 55.078125 55.328125 
Q 55.078125 49.078125 51.53125 44.71875 
Q 48 40.375 41.703125 38.8125 
Q 48.828125 37.15625 52.796875 32.3125 
Q 56.78125 27.484375 56.78125 20.515625 
Q 56.78125 9.90625 50.3125 4.234375 
Q 43.84375 -1.421875 31.78125 -1.421875 
Q 19.734375 -1.421875 13.25 4.234375 
Q 6.78125 9.90625 6.78125 20.515625 
Q 6.78125 27.484375 10.78125 32.3125 
Q 14.796875 37.15625 21.921875 38.8125 
M 18.3125 54.390625 
Q 18.3125 48.734375 21.84375 45.5625 
Q 25.390625 42.390625 31.78125 42.390625 
Q 38.140625 42.390625 41.71875 45.5625 
Q 45.3125 48.734375 45.3125 54.390625 
Q 45.3125 60.0625 41.71875 63.234375 
Q 38.140625 66.40625 31.78125 66.40625 
Q 25.390625 66.40625 21.84375 63.234375 
Q 18.3125 60.0625 18.3125 54.390625 
" id="BitstreamVeraSans-Roman-38"/>
      </defs>
      <g transform="translate(394.475625 397.984725)scale(0.12 -0.12)">
       <use xlink:href="#BitstreamVeraSans-Roman-30"/>
       <use x="63.623046875" xlink:href="#BitstreamVeraSans-Roman-2e"/>
       <use x="95.41015625" xlink:href="#BitstreamVeraSans-Roman-38"/>
      </g>
     </g>
    </g>
    <g id="xtick_6">
     <g id="line2d_15">
      <g>
       <use style="stroke:#000000;stroke-width:0.5;" x="493.2975" xlink:href="#m2fba8e9ade" y="384.8666"/>
      </g>
     </g>
     <g id="line2d_16">
      <g>
       <use style="stroke:#000000;stroke-width:0.5;" x="493.2975" xlink:href="#m42c495c3a2" y="39.2666"/>
      </g>
     </g>
     <g id="text_6">
      <!-- 1.0 -->
      <defs>
       <path d="M 12.40625 8.296875 
L 28.515625 8.296875 
L 28.515625 63.921875 
L 10.984375 60.40625 
L 10.984375 69.390625 
L 28.421875 72.90625 
L 38.28125 72.90625 
L 38.28125 8.296875 
L 54.390625 8.296875 
L 54.390625 0 
L 12.40625 0 
z
" id="BitstreamVeraSans-Roman-31"/>
      </defs>
      <g transform="translate(483.755625 397.984725)scale(0.12 -0.12)">
       <use xlink:href="#BitstreamVeraSans-Roman-31"/>
       <use x="63.623046875" xlink:href="#BitstreamVeraSans-Roman-2e"/>
       <use x="95.41015625" xlink:href="#BitstreamVeraSans-Roman-30"/>
      </g>
     </g>
    </g>
    <g id="text_7">
     <!-- False Positive Rate -->
     <defs>
      <path d="M 44.28125 53.078125 
L 44.28125 44.578125 
Q 40.484375 46.53125 36.375 47.5 
Q 32.28125 48.484375 27.875 48.484375 
Q 21.1875 48.484375 17.84375 46.4375 
Q 14.5 44.390625 14.5 40.28125 
Q 14.5 37.15625 16.890625 35.375 
Q 19.28125 33.59375 26.515625 31.984375 
L 29.59375 31.296875 
Q 39.15625 29.25 43.1875 25.515625 
Q 47.21875 21.78125 47.21875 15.09375 
Q 47.21875 7.46875 41.1875 3.015625 
Q 35.15625 -1.421875 24.609375 -1.421875 
Q 20.21875 -1.421875 15.453125 -0.5625 
Q 10.6875 0.296875 5.421875 2 
L 5.421875 11.28125 
Q 10.40625 8.6875 15.234375 7.390625 
Q 20.0625 6.109375 24.8125 6.109375 
Q 31.15625 6.109375 34.5625 8.28125 
Q 37.984375 10.453125 37.984375 14.40625 
Q 37.984375 18.0625 35.515625 20.015625 
Q 33.0625 21.96875 24.703125 23.78125 
L 21.578125 24.515625 
Q 13.234375 26.265625 9.515625 29.90625 
Q 5.8125 33.546875 5.8125 39.890625 
Q 5.8125 47.609375 11.28125 51.796875 
Q 16.75 56 26.8125 56 
Q 31.78125 56 36.171875 55.265625 
Q 40.578125 54.546875 44.28125 53.078125 
" id="BitstreamVeraSans-Roman-73"/>
      <path d="M 34.28125 27.484375 
Q 23.390625 27.484375 19.1875 25 
Q 14.984375 22.515625 14.984375 16.5 
Q 14.984375 11.71875 18.140625 8.90625 
Q 21.296875 6.109375 26.703125 6.109375 
Q 34.1875 6.109375 38.703125 11.40625 
Q 43.21875 16.703125 43.21875 25.484375 
L 43.21875 27.484375 
z
M 52.203125 31.203125 
L 52.203125 0 
L 43.21875 0 
L 43.21875 8.296875 
Q 40.140625 3.328125 35.546875 0.953125 
Q 30.953125 -1.421875 24.3125 -1.421875 
Q 15.921875 -1.421875 10.953125 3.296875 
Q 6 8.015625 6 15.921875 
Q 6 25.140625 12.171875 29.828125 
Q 18.359375 34.515625 30.609375 34.515625 
L 43.21875 34.515625 
L 43.21875 35.40625 
Q 43.21875 41.609375 39.140625 45 
Q 35.0625 48.390625 27.6875 48.390625 
Q 23 48.390625 18.546875 47.265625 
Q 14.109375 46.140625 10.015625 43.890625 
L 10.015625 52.203125 
Q 14.9375 54.109375 19.578125 55.046875 
Q 24.21875 56 28.609375 56 
Q 40.484375 56 46.34375 49.84375 
Q 52.203125 43.703125 52.203125 31.203125 
" id="BitstreamVeraSans-Roman-61"/>
      <path d="M 9.8125 72.90625 
L 51.703125 72.90625 
L 51.703125 64.59375 
L 19.671875 64.59375 
L 19.671875 43.109375 
L 48.578125 43.109375 
L 48.578125 34.8125 
L 19.671875 34.8125 
L 19.671875 0 
L 9.8125 0 
z
" id="BitstreamVeraSans-Roman-46"/>
      <path d="M 44.390625 34.1875 
Q 47.5625 33.109375 50.5625 29.59375 
Q 53.5625 26.078125 56.59375 19.921875 
L 66.609375 0 
L 56 0 
L 46.6875 18.703125 
Q 43.0625 26.03125 39.671875 28.421875 
Q 36.28125 30.8125 30.421875 30.8125 
L 19.671875 30.8125 
L 19.671875 0 
L 9.8125 0 
L 9.8125 72.90625 
L 32.078125 72.90625 
Q 44.578125 72.90625 50.734375 67.671875 
Q 56.890625 62.453125 56.890625 51.90625 
Q 56.890625 45.015625 53.6875 40.46875 
Q 50.484375 35.9375 44.390625 34.1875 
M 19.671875 64.796875 
L 19.671875 38.921875 
L 32.078125 38.921875 
Q 39.203125 38.921875 42.84375 42.21875 
Q 46.484375 45.515625 46.484375 51.90625 
Q 46.484375 58.296875 42.84375 61.546875 
Q 39.203125 64.796875 32.078125 64.796875 
z
" id="BitstreamVeraSans-Roman-52"/>
      <path d="M 56.203125 29.59375 
L 56.203125 25.203125 
L 14.890625 25.203125 
Q 15.484375 15.921875 20.484375 11.0625 
Q 25.484375 6.203125 34.421875 6.203125 
Q 39.59375 6.203125 44.453125 7.46875 
Q 49.3125 8.734375 54.109375 11.28125 
L 54.109375 2.78125 
Q 49.265625 0.734375 44.1875 -0.34375 
Q 39.109375 -1.421875 33.890625 -1.421875 
Q 20.796875 -1.421875 13.15625 6.1875 
Q 5.515625 13.8125 5.515625 26.8125 
Q 5.515625 40.234375 12.765625 48.109375 
Q 20.015625 56 32.328125 56 
Q 43.359375 56 49.78125 48.890625 
Q 56.203125 41.796875 56.203125 29.59375 
M 47.21875 32.234375 
Q 47.125 39.59375 43.09375 43.984375 
Q 39.0625 48.390625 32.421875 48.390625 
Q 24.90625 48.390625 20.390625 44.140625 
Q 15.875 39.890625 15.1875 32.171875 
z
" id="BitstreamVeraSans-Roman-65"/>
      <path d="M 18.3125 70.21875 
L 18.3125 54.6875 
L 36.8125 54.6875 
L 36.8125 47.703125 
L 18.3125 47.703125 
L 18.3125 18.015625 
Q 18.3125 11.328125 20.140625 9.421875 
Q 21.96875 7.515625 27.59375 7.515625 
L 36.8125 7.515625 
L 36.8125 0 
L 27.59375 0 
Q 17.1875 0 13.234375 3.875 
Q 9.28125 7.765625 9.28125 18.015625 
L 9.28125 47.703125 
L 2.6875 47.703125 
L 2.6875 54.6875 
L 9.28125 54.6875 
L 9.28125 70.21875 
z
" id="BitstreamVeraSans-Roman-74"/>
      <path d="M 9.421875 54.6875 
L 18.40625 54.6875 
L 18.40625 0 
L 9.421875 0 
z
M 9.421875 75.984375 
L 18.40625 75.984375 
L 18.40625 64.59375 
L 9.421875 64.59375 
z
" id="BitstreamVeraSans-Roman-69"/>
      <path d="M 30.609375 48.390625 
Q 23.390625 48.390625 19.1875 42.75 
Q 14.984375 37.109375 14.984375 27.296875 
Q 14.984375 17.484375 19.15625 11.84375 
Q 23.34375 6.203125 30.609375 6.203125 
Q 37.796875 6.203125 41.984375 11.859375 
Q 46.1875 17.53125 46.1875 27.296875 
Q 46.1875 37.015625 41.984375 42.703125 
Q 37.796875 48.390625 30.609375 48.390625 
M 30.609375 56 
Q 42.328125 56 49.015625 48.375 
Q 55.71875 40.765625 55.71875 27.296875 
Q 55.71875 13.875 49.015625 6.21875 
Q 42.328125 -1.421875 30.609375 -1.421875 
Q 18.84375 -1.421875 12.171875 6.21875 
Q 5.515625 13.875 5.515625 27.296875 
Q 5.515625 40.765625 12.171875 48.375 
Q 18.84375 56 30.609375 56 
" id="BitstreamVeraSans-Roman-6f"/>
      <path d="M 9.421875 75.984375 
L 18.40625 75.984375 
L 18.40625 0 
L 9.421875 0 
z
" id="BitstreamVeraSans-Roman-6c"/>
      <path id="BitstreamVeraSans-Roman-20"/>
      <path d="M 2.984375 54.6875 
L 12.5 54.6875 
L 29.59375 8.796875 
L 46.6875 54.6875 
L 56.203125 54.6875 
L 35.6875 0 
L 23.484375 0 
z
" id="BitstreamVeraSans-Roman-76"/>
      <path d="M 19.671875 64.796875 
L 19.671875 37.40625 
L 32.078125 37.40625 
Q 38.96875 37.40625 42.71875 40.96875 
Q 46.484375 44.53125 46.484375 51.125 
Q 46.484375 57.671875 42.71875 61.234375 
Q 38.96875 64.796875 32.078125 64.796875 
z
M 9.8125 72.90625 
L 32.078125 72.90625 
Q 44.34375 72.90625 50.609375 67.359375 
Q 56.890625 61.8125 56.890625 51.125 
Q 56.890625 40.328125 50.609375 34.8125 
Q 44.34375 29.296875 32.078125 29.296875 
L 19.671875 29.296875 
L 19.671875 0 
L 9.8125 0 
z
" id="BitstreamVeraSans-Roman-50"/>
     </defs>
     <g transform="translate(213.4509375 414.598475)scale(0.12 -0.12)">
      <use xlink:href="#BitstreamVeraSans-Roman-46"/>
      <use x="57.37890625" xlink:href="#BitstreamVeraSans-Roman-61"/>
      <use x="118.658203125" xlink:href="#BitstreamVeraSans-Roman-6c"/>
      <use x="146.44140625" xlink:href="#BitstreamVeraSans-Roman-73"/>
      <use x="198.541015625" xlink:href="#BitstreamVeraSans-Roman-65"/>
      <use x="260.064453125" xlink:href="#BitstreamVeraSans-Roman-20"/>
      <use x="291.8515625" xlink:href="#BitstreamVeraSans-Roman-50"/>
      <use x="352.107421875" xlink:href="#BitstreamVeraSans-Roman-6f"/>
      <use x="413.2890625" xlink:href="#BitstreamVeraSans-Roman-73"/>
      <use x="465.388671875" xlink:href="#BitstreamVeraSans-Roman-69"/>
      <use x="493.171875" xlink:href="#BitstreamVeraSans-Roman-74"/>
      <use x="532.380859375" xlink:href="#BitstreamVeraSans-Roman-69"/>
      <use x="560.1640625" xlink:href="#BitstreamVeraSans-Roman-76"/>
      <use x="619.34375" xlink:href="#BitstreamVeraSans-Roman-65"/>
      <use x="680.8671875" xlink:href="#BitstreamVeraSans-Roman-20"/>
      <use x="712.654296875" xlink:href="#BitstreamVeraSans-Roman-52"/>
      <use x="782.10546875" xlink:href="#BitstreamVeraSans-Roman-61"/>
      <use x="843.384765625" xlink:href="#BitstreamVeraSans-Roman-74"/>
      <use x="882.59375" xlink:href="#BitstreamVeraSans-Roman-65"/>
     </g>
    </g>
   </g>
   <g id="matplotlib.axis_2">
    <g id="ytick_1">
     <g id="line2d_17">
      <defs>
       <path d="M 0 0 
L 4 0 
" id="m3a2671f0b0" style="stroke:#000000;stroke-width:0.5;"/>
      </defs>
      <g>
       <use style="stroke:#000000;stroke-width:0.5;" x="46.8975" xlink:href="#m3a2671f0b0" y="384.8666"/>
      </g>
     </g>
     <g id="line2d_18">
      <defs>
       <path d="M 0 0 
L -4 0 
" id="me7daef5fe1" style="stroke:#000000;stroke-width:0.5;"/>
      </defs>
      <g>
       <use style="stroke:#000000;stroke-width:0.5;" x="493.2975" xlink:href="#me7daef5fe1" y="384.8666"/>
      </g>
     </g>
     <g id="text_8">
      <!-- 0.0 -->
      <g transform="translate(23.81375 388.17785)scale(0.12 -0.12)">
       <use xlink:href="#BitstreamVeraSans-Roman-30"/>
       <use x="63.623046875" xlink:href="#BitstreamVeraSans-Roman-2e"/>
       <use x="95.41015625" xlink:href="#BitstreamVeraSans-Roman-30"/>
      </g>
     </g>
    </g>
    <g id="ytick_2">
     <g id="line2d_19">
      <g>
       <use style="stroke:#000000;stroke-width:0.5;" x="46.8975" xlink:href="#m3a2671f0b0" y="319.038028571"/>
      </g>
     </g>
     <g id="line2d_20">
      <g>
       <use style="stroke:#000000;stroke-width:0.5;" x="493.2975" xlink:href="#me7daef5fe1" y="319.038028571"/>
      </g>
     </g>
     <g id="text_9">
      <!-- 0.2 -->
      <g transform="translate(23.81375 322.349278571)scale(0.12 -0.12)">
       <use xlink:href="#BitstreamVeraSans-Roman-30"/>
       <use x="63.623046875" xlink:href="#BitstreamVeraSans-Roman-2e"/>
       <use x="95.41015625" xlink:href="#BitstreamVeraSans-Roman-32"/>
      </g>
     </g>
    </g>
    <g id="ytick_3">
     <g id="line2d_21">
      <g>
       <use style="stroke:#000000;stroke-width:0.5;" x="46.8975" xlink:href="#m3a2671f0b0" y="253.209457143"/>
      </g>
     </g>
     <g id="line2d_22">
      <g>
       <use style="stroke:#000000;stroke-width:0.5;" x="493.2975" xlink:href="#me7daef5fe1" y="253.209457143"/>
      </g>
     </g>
     <g id="text_10">
      <!-- 0.4 -->
      <g transform="translate(23.81375 256.520707143)scale(0.12 -0.12)">
       <use xlink:href="#BitstreamVeraSans-Roman-30"/>
       <use x="63.623046875" xlink:href="#BitstreamVeraSans-Roman-2e"/>
       <use x="95.41015625" xlink:href="#BitstreamVeraSans-Roman-34"/>
      </g>
     </g>
    </g>
    <g id="ytick_4">
     <g id="line2d_23">
      <g>
       <use style="stroke:#000000;stroke-width:0.5;" x="46.8975" xlink:href="#m3a2671f0b0" y="187.380885714"/>
      </g>
     </g>
     <g id="line2d_24">
      <g>
       <use style="stroke:#000000;stroke-width:0.5;" x="493.2975" xlink:href="#me7daef5fe1" y="187.380885714"/>
      </g>
     </g>
     <g id="text_11">
      <!-- 0.6 -->
      <g transform="translate(23.81375 190.692135714)scale(0.12 -0.12)">
       <use xlink:href="#BitstreamVeraSans-Roman-30"/>
       <use x="63.623046875" xlink:href="#BitstreamVeraSans-Roman-2e"/>
       <use x="95.41015625" xlink:href="#BitstreamVeraSans-Roman-36"/>
      </g>
     </g>
    </g>
    <g id="ytick_5">
     <g id="line2d_25">
      <g>
       <use style="stroke:#000000;stroke-width:0.5;" x="46.8975" xlink:href="#m3a2671f0b0" y="121.552314286"/>
      </g>
     </g>
     <g id="line2d_26">
      <g>
       <use style="stroke:#000000;stroke-width:0.5;" x="493.2975" xlink:href="#me7daef5fe1" y="121.552314286"/>
      </g>
     </g>
     <g id="text_12">
      <!-- 0.8 -->
      <g transform="translate(23.81375 124.863564286)scale(0.12 -0.12)">
       <use xlink:href="#BitstreamVeraSans-Roman-30"/>
       <use x="63.623046875" xlink:href="#BitstreamVeraSans-Roman-2e"/>
       <use x="95.41015625" xlink:href="#BitstreamVeraSans-Roman-38"/>
      </g>
     </g>
    </g>
    <g id="ytick_6">
     <g id="line2d_27">
      <g>
       <use style="stroke:#000000;stroke-width:0.5;" x="46.8975" xlink:href="#m3a2671f0b0" y="55.7237428571"/>
      </g>
     </g>
     <g id="line2d_28">
      <g>
       <use style="stroke:#000000;stroke-width:0.5;" x="493.2975" xlink:href="#me7daef5fe1" y="55.7237428571"/>
      </g>
     </g>
     <g id="text_13">
      <!-- 1.0 -->
      <g transform="translate(23.81375 59.0349928571)scale(0.12 -0.12)">
       <use xlink:href="#BitstreamVeraSans-Roman-31"/>
       <use x="63.623046875" xlink:href="#BitstreamVeraSans-Roman-2e"/>
       <use x="95.41015625" xlink:href="#BitstreamVeraSans-Roman-30"/>
      </g>
     </g>
    </g>
    <g id="text_14">
     <!-- True Positive Rate -->
     <defs>
      <path d="M 41.109375 46.296875 
Q 39.59375 47.171875 37.8125 47.578125 
Q 36.03125 48 33.890625 48 
Q 26.265625 48 22.1875 43.046875 
Q 18.109375 38.09375 18.109375 28.8125 
L 18.109375 0 
L 9.078125 0 
L 9.078125 54.6875 
L 18.109375 54.6875 
L 18.109375 46.1875 
Q 20.953125 51.171875 25.484375 53.578125 
Q 30.03125 56 36.53125 56 
Q 37.453125 56 38.578125 55.875 
Q 39.703125 55.765625 41.0625 55.515625 
z
" id="BitstreamVeraSans-Roman-72"/>
      <path d="M 8.5 21.578125 
L 8.5 54.6875 
L 17.484375 54.6875 
L 17.484375 21.921875 
Q 17.484375 14.15625 20.5 10.265625 
Q 23.53125 6.390625 29.59375 6.390625 
Q 36.859375 6.390625 41.078125 11.03125 
Q 45.3125 15.671875 45.3125 23.6875 
L 45.3125 54.6875 
L 54.296875 54.6875 
L 54.296875 0 
L 45.3125 0 
L 45.3125 8.40625 
Q 42.046875 3.421875 37.71875 1 
Q 33.40625 -1.421875 27.6875 -1.421875 
Q 18.265625 -1.421875 13.375 4.4375 
Q 8.5 10.296875 8.5 21.578125 
" id="BitstreamVeraSans-Roman-75"/>
      <path d="M -0.296875 72.90625 
L 61.375 72.90625 
L 61.375 64.59375 
L 35.5 64.59375 
L 35.5 0 
L 25.59375 0 
L 25.59375 64.59375 
L -0.296875 64.59375 
z
" id="BitstreamVeraSans-Roman-54"/>
     </defs>
     <g transform="translate(16.318125 266.7219125)rotate(-90.0)scale(0.12 -0.12)">
      <use xlink:href="#BitstreamVeraSans-Roman-54"/>
      <use x="60.865234375" xlink:href="#BitstreamVeraSans-Roman-72"/>
      <use x="101.978515625" xlink:href="#BitstreamVeraSans-Roman-75"/>
      <use x="165.357421875" xlink:href="#BitstreamVeraSans-Roman-65"/>
      <use x="226.880859375" xlink:href="#BitstreamVeraSans-Roman-20"/>
      <use x="258.66796875" xlink:href="#BitstreamVeraSans-Roman-50"/>
      <use x="318.923828125" xlink:href="#BitstreamVeraSans-Roman-6f"/>
      <use x="380.10546875" xlink:href="#BitstreamVeraSans-Roman-73"/>
      <use x="432.205078125" xlink:href="#BitstreamVeraSans-Roman-69"/>
      <use x="459.98828125" xlink:href="#BitstreamVeraSans-Roman-74"/>
      <use x="499.197265625" xlink:href="#BitstreamVeraSans-Roman-69"/>
      <use x="526.98046875" xlink:href="#BitstreamVeraSans-Roman-76"/>
      <use x="586.16015625" xlink:href="#BitstreamVeraSans-Roman-65"/>
      <use x="647.68359375" xlink:href="#BitstreamVeraSans-Roman-20"/>
      <use x="679.470703125" xlink:href="#BitstreamVeraSans-Roman-52"/>
      <use x="748.921875" xlink:href="#BitstreamVeraSans-Roman-61"/>
      <use x="810.201171875" xlink:href="#BitstreamVeraSans-Roman-74"/>
      <use x="849.41015625" xlink:href="#BitstreamVeraSans-Roman-65"/>
     </g>
    </g>
   </g>
   <g id="text_15">
    <!-- ROC Curve GradientBoosting + SMOTE -->
    <defs>
     <path d="M 64.40625 67.28125 
L 64.40625 56.890625 
Q 59.421875 61.53125 53.78125 63.8125 
Q 48.140625 66.109375 41.796875 66.109375 
Q 29.296875 66.109375 22.65625 58.46875 
Q 16.015625 50.828125 16.015625 36.375 
Q 16.015625 21.96875 22.65625 14.328125 
Q 29.296875 6.6875 41.796875 6.6875 
Q 48.140625 6.6875 53.78125 8.984375 
Q 59.421875 11.28125 64.40625 15.921875 
L 64.40625 5.609375 
Q 59.234375 2.09375 53.4375 0.328125 
Q 47.65625 -1.421875 41.21875 -1.421875 
Q 24.65625 -1.421875 15.125 8.703125 
Q 5.609375 18.84375 5.609375 36.375 
Q 5.609375 53.953125 15.125 64.078125 
Q 24.65625 74.21875 41.21875 74.21875 
Q 47.75 74.21875 53.53125 72.484375 
Q 59.328125 70.75 64.40625 67.28125 
" id="BitstreamVeraSans-Roman-43"/>
     <path d="M 45.40625 27.984375 
Q 45.40625 37.75 41.375 43.109375 
Q 37.359375 48.484375 30.078125 48.484375 
Q 22.859375 48.484375 18.828125 43.109375 
Q 14.796875 37.75 14.796875 27.984375 
Q 14.796875 18.265625 18.828125 12.890625 
Q 22.859375 7.515625 30.078125 7.515625 
Q 37.359375 7.515625 41.375 12.890625 
Q 45.40625 18.265625 45.40625 27.984375 
M 54.390625 6.78125 
Q 54.390625 -7.171875 48.1875 -13.984375 
Q 42 -20.796875 29.203125 -20.796875 
Q 24.46875 -20.796875 20.265625 -20.09375 
Q 16.0625 -19.390625 12.109375 -17.921875 
L 12.109375 -9.1875 
Q 16.0625 -11.328125 19.921875 -12.34375 
Q 23.78125 -13.375 27.78125 -13.375 
Q 36.625 -13.375 41.015625 -8.765625 
Q 45.40625 -4.15625 45.40625 5.171875 
L 45.40625 9.625 
Q 42.625 4.78125 38.28125 2.390625 
Q 33.9375 0 27.875 0 
Q 17.828125 0 11.671875 7.65625 
Q 5.515625 15.328125 5.515625 27.984375 
Q 5.515625 40.671875 11.671875 48.328125 
Q 17.828125 56 27.875 56 
Q 33.9375 56 38.28125 53.609375 
Q 42.625 51.21875 45.40625 46.390625 
L 45.40625 54.6875 
L 54.390625 54.6875 
z
" id="BitstreamVeraSans-Roman-67"/>
     <path d="M 45.40625 46.390625 
L 45.40625 75.984375 
L 54.390625 75.984375 
L 54.390625 0 
L 45.40625 0 
L 45.40625 8.203125 
Q 42.578125 3.328125 38.25 0.953125 
Q 33.9375 -1.421875 27.875 -1.421875 
Q 17.96875 -1.421875 11.734375 6.484375 
Q 5.515625 14.40625 5.515625 27.296875 
Q 5.515625 40.1875 11.734375 48.09375 
Q 17.96875 56 27.875 56 
Q 33.9375 56 38.25 53.625 
Q 42.578125 51.265625 45.40625 46.390625 
M 14.796875 27.296875 
Q 14.796875 17.390625 18.875 11.75 
Q 22.953125 6.109375 30.078125 6.109375 
Q 37.203125 6.109375 41.296875 11.75 
Q 45.40625 17.390625 45.40625 27.296875 
Q 45.40625 37.203125 41.296875 42.84375 
Q 37.203125 48.484375 30.078125 48.484375 
Q 22.953125 48.484375 18.875 42.84375 
Q 14.796875 37.203125 14.796875 27.296875 
" id="BitstreamVeraSans-Roman-64"/>
     <path d="M 19.671875 34.8125 
L 19.671875 8.109375 
L 35.5 8.109375 
Q 43.453125 8.109375 47.28125 11.40625 
Q 51.125 14.703125 51.125 21.484375 
Q 51.125 28.328125 47.28125 31.5625 
Q 43.453125 34.8125 35.5 34.8125 
z
M 19.671875 64.796875 
L 19.671875 42.828125 
L 34.28125 42.828125 
Q 41.5 42.828125 45.03125 45.53125 
Q 48.578125 48.25 48.578125 53.8125 
Q 48.578125 59.328125 45.03125 62.0625 
Q 41.5 64.796875 34.28125 64.796875 
z
M 9.8125 72.90625 
L 35.015625 72.90625 
Q 46.296875 72.90625 52.390625 68.21875 
Q 58.5 63.53125 58.5 54.890625 
Q 58.5 48.1875 55.375 44.234375 
Q 52.25 40.28125 46.1875 39.3125 
Q 53.46875 37.75 57.5 32.78125 
Q 61.53125 27.828125 61.53125 20.40625 
Q 61.53125 10.640625 54.890625 5.3125 
Q 48.25 0 35.984375 0 
L 9.8125 0 
z
" id="BitstreamVeraSans-Roman-42"/>
     <path d="M 59.515625 10.40625 
L 59.515625 29.984375 
L 43.40625 29.984375 
L 43.40625 38.09375 
L 69.28125 38.09375 
L 69.28125 6.78125 
Q 63.578125 2.734375 56.6875 0.65625 
Q 49.8125 -1.421875 42 -1.421875 
Q 24.90625 -1.421875 15.25 8.5625 
Q 5.609375 18.5625 5.609375 36.375 
Q 5.609375 54.25 15.25 64.234375 
Q 24.90625 74.21875 42 74.21875 
Q 49.125 74.21875 55.546875 72.453125 
Q 61.96875 70.703125 67.390625 67.28125 
L 67.390625 56.78125 
Q 61.921875 61.421875 55.765625 63.765625 
Q 49.609375 66.109375 42.828125 66.109375 
Q 29.4375 66.109375 22.71875 58.640625 
Q 16.015625 51.171875 16.015625 36.375 
Q 16.015625 21.625 22.71875 14.15625 
Q 29.4375 6.6875 42.828125 6.6875 
Q 48.046875 6.6875 52.140625 7.59375 
Q 56.25 8.5 59.515625 10.40625 
" id="BitstreamVeraSans-Roman-47"/>
     <path d="M 53.515625 70.515625 
L 53.515625 60.890625 
Q 47.90625 63.578125 42.921875 64.890625 
Q 37.9375 66.21875 33.296875 66.21875 
Q 25.25 66.21875 20.875 63.09375 
Q 16.5 59.96875 16.5 54.203125 
Q 16.5 49.359375 19.40625 46.890625 
Q 22.3125 44.4375 30.421875 42.921875 
L 36.375 41.703125 
Q 47.40625 39.59375 52.65625 34.296875 
Q 57.90625 29 57.90625 20.125 
Q 57.90625 9.515625 50.796875 4.046875 
Q 43.703125 -1.421875 29.984375 -1.421875 
Q 24.8125 -1.421875 18.96875 -0.25 
Q 13.140625 0.921875 6.890625 3.21875 
L 6.890625 13.375 
Q 12.890625 10.015625 18.65625 8.296875 
Q 24.421875 6.59375 29.984375 6.59375 
Q 38.421875 6.59375 43.015625 9.90625 
Q 47.609375 13.234375 47.609375 19.390625 
Q 47.609375 24.75 44.3125 27.78125 
Q 41.015625 30.8125 33.5 32.328125 
L 27.484375 33.5 
Q 16.453125 35.6875 11.515625 40.375 
Q 6.59375 45.0625 6.59375 53.421875 
Q 6.59375 63.09375 13.40625 68.65625 
Q 20.21875 74.21875 32.171875 74.21875 
Q 37.3125 74.21875 42.625 73.28125 
Q 47.953125 72.359375 53.515625 70.515625 
" id="BitstreamVeraSans-Roman-53"/>
     <path d="M 39.40625 66.21875 
Q 28.65625 66.21875 22.328125 58.203125 
Q 16.015625 50.203125 16.015625 36.375 
Q 16.015625 22.609375 22.328125 14.59375 
Q 28.65625 6.59375 39.40625 6.59375 
Q 50.140625 6.59375 56.421875 14.59375 
Q 62.703125 22.609375 62.703125 36.375 
Q 62.703125 50.203125 56.421875 58.203125 
Q 50.140625 66.21875 39.40625 66.21875 
M 39.40625 74.21875 
Q 54.734375 74.21875 63.90625 63.9375 
Q 73.09375 53.65625 73.09375 36.375 
Q 73.09375 19.140625 63.90625 8.859375 
Q 54.734375 -1.421875 39.40625 -1.421875 
Q 24.03125 -1.421875 14.8125 8.828125 
Q 5.609375 19.09375 5.609375 36.375 
Q 5.609375 53.65625 14.8125 63.9375 
Q 24.03125 74.21875 39.40625 74.21875 
" id="BitstreamVeraSans-Roman-4f"/>
     <path d="M 9.8125 72.90625 
L 24.515625 72.90625 
L 43.109375 23.296875 
L 61.8125 72.90625 
L 76.515625 72.90625 
L 76.515625 0 
L 66.890625 0 
L 66.890625 64.015625 
L 48.09375 14.015625 
L 38.1875 14.015625 
L 19.390625 64.015625 
L 19.390625 0 
L 9.8125 0 
z
" id="BitstreamVeraSans-Roman-4d"/>
     <path d="M 9.8125 72.90625 
L 55.90625 72.90625 
L 55.90625 64.59375 
L 19.671875 64.59375 
L 19.671875 43.015625 
L 54.390625 43.015625 
L 54.390625 34.71875 
L 19.671875 34.71875 
L 19.671875 8.296875 
L 56.78125 8.296875 
L 56.78125 0 
L 9.8125 0 
z
" id="BitstreamVeraSans-Roman-45"/>
     <path d="M 54.890625 33.015625 
L 54.890625 0 
L 45.90625 0 
L 45.90625 32.71875 
Q 45.90625 40.484375 42.875 44.328125 
Q 39.84375 48.1875 33.796875 48.1875 
Q 26.515625 48.1875 22.3125 43.546875 
Q 18.109375 38.921875 18.109375 30.90625 
L 18.109375 0 
L 9.078125 0 
L 9.078125 54.6875 
L 18.109375 54.6875 
L 18.109375 46.1875 
Q 21.34375 51.125 25.703125 53.5625 
Q 30.078125 56 35.796875 56 
Q 45.21875 56 50.046875 50.171875 
Q 54.890625 44.34375 54.890625 33.015625 
" id="BitstreamVeraSans-Roman-6e"/>
     <path d="M 46 62.703125 
L 46 35.5 
L 73.1875 35.5 
L 73.1875 27.203125 
L 46 27.203125 
L 46 0 
L 37.796875 0 
L 37.796875 27.203125 
L 10.59375 27.203125 
L 10.59375 35.5 
L 37.796875 35.5 
L 37.796875 62.703125 
z
" id="BitstreamVeraSans-Roman-2b"/>
    </defs>
    <g transform="translate(129.77625 18.14175)scale(0.144 -0.144)">
     <use xlink:href="#BitstreamVeraSans-Roman-52"/>
     <use x="69.482421875" xlink:href="#BitstreamVeraSans-Roman-4f"/>
     <use x="148.193359375" xlink:href="#BitstreamVeraSans-Roman-43"/>
     <use x="218.017578125" xlink:href="#BitstreamVeraSans-Roman-20"/>
     <use x="249.8046875" xlink:href="#BitstreamVeraSans-Roman-43"/>
     <use x="319.62890625" xlink:href="#BitstreamVeraSans-Roman-75"/>
     <use x="383.0078125" xlink:href="#BitstreamVeraSans-Roman-72"/>
     <use x="424.12109375" xlink:href="#BitstreamVeraSans-Roman-76"/>
     <use x="483.30078125" xlink:href="#BitstreamVeraSans-Roman-65"/>
     <use x="544.82421875" xlink:href="#BitstreamVeraSans-Roman-20"/>
     <use x="576.611328125" xlink:href="#BitstreamVeraSans-Roman-47"/>
     <use x="654.1015625" xlink:href="#BitstreamVeraSans-Roman-72"/>
     <use x="695.21484375" xlink:href="#BitstreamVeraSans-Roman-61"/>
     <use x="756.494140625" xlink:href="#BitstreamVeraSans-Roman-64"/>
     <use x="819.970703125" xlink:href="#BitstreamVeraSans-Roman-69"/>
     <use x="847.75390625" xlink:href="#BitstreamVeraSans-Roman-65"/>
     <use x="909.27734375" xlink:href="#BitstreamVeraSans-Roman-6e"/>
     <use x="972.65625" xlink:href="#BitstreamVeraSans-Roman-74"/>
     <use x="1011.865234375" xlink:href="#BitstreamVeraSans-Roman-42"/>
     <use x="1080.46875" xlink:href="#BitstreamVeraSans-Roman-6f"/>
     <use x="1141.650390625" xlink:href="#BitstreamVeraSans-Roman-6f"/>
     <use x="1202.83203125" xlink:href="#BitstreamVeraSans-Roman-73"/>
     <use x="1254.931640625" xlink:href="#BitstreamVeraSans-Roman-74"/>
     <use x="1294.140625" xlink:href="#BitstreamVeraSans-Roman-69"/>
     <use x="1321.923828125" xlink:href="#BitstreamVeraSans-Roman-6e"/>
     <use x="1385.302734375" xlink:href="#BitstreamVeraSans-Roman-67"/>
     <use x="1448.779296875" xlink:href="#BitstreamVeraSans-Roman-20"/>
     <use x="1480.56640625" xlink:href="#BitstreamVeraSans-Roman-2b"/>
     <use x="1564.35546875" xlink:href="#BitstreamVeraSans-Roman-20"/>
     <use x="1596.142578125" xlink:href="#BitstreamVeraSans-Roman-53"/>
     <use x="1659.619140625" xlink:href="#BitstreamVeraSans-Roman-4d"/>
     <use x="1745.8984375" xlink:href="#BitstreamVeraSans-Roman-4f"/>
     <use x="1824.609375" xlink:href="#BitstreamVeraSans-Roman-54"/>
     <use x="1885.693359375" xlink:href="#BitstreamVeraSans-Roman-45"/>
    </g>
    <!-- Train: [1, 2, 4, 6, 8, 10, 12]   Test: 12 -->
    <defs>
     <path d="M 8.59375 75.984375 
L 29.296875 75.984375 
L 29.296875 69 
L 17.578125 69 
L 17.578125 -6.203125 
L 29.296875 -6.203125 
L 29.296875 -13.1875 
L 8.59375 -13.1875 
z
" id="BitstreamVeraSans-Roman-5b"/>
     <path d="M 11.71875 12.40625 
L 22.015625 12.40625 
L 22.015625 4 
L 14.015625 -11.625 
L 7.71875 -11.625 
L 11.71875 4 
z
" id="BitstreamVeraSans-Roman-2c"/>
     <path d="M 11.71875 12.40625 
L 22.015625 12.40625 
L 22.015625 0 
L 11.71875 0 
z
M 11.71875 51.703125 
L 22.015625 51.703125 
L 22.015625 39.3125 
L 11.71875 39.3125 
z
" id="BitstreamVeraSans-Roman-3a"/>
     <path d="M 30.421875 75.984375 
L 30.421875 -13.1875 
L 9.71875 -13.1875 
L 9.71875 -6.203125 
L 21.390625 -6.203125 
L 21.390625 69 
L 9.71875 69 
L 9.71875 75.984375 
z
" id="BitstreamVeraSans-Roman-5d"/>
    </defs>
    <g transform="translate(136.637625 34.2666)scale(0.144 -0.144)">
     <use xlink:href="#BitstreamVeraSans-Roman-54"/>
     <use x="60.865234375" xlink:href="#BitstreamVeraSans-Roman-72"/>
     <use x="101.978515625" xlink:href="#BitstreamVeraSans-Roman-61"/>
     <use x="163.2578125" xlink:href="#BitstreamVeraSans-Roman-69"/>
     <use x="191.041015625" xlink:href="#BitstreamVeraSans-Roman-6e"/>
     <use x="254.419921875" xlink:href="#BitstreamVeraSans-Roman-3a"/>
     <use x="288.111328125" xlink:href="#BitstreamVeraSans-Roman-20"/>
     <use x="319.8984375" xlink:href="#BitstreamVeraSans-Roman-5b"/>
     <use x="358.912109375" xlink:href="#BitstreamVeraSans-Roman-31"/>
     <use x="422.53515625" xlink:href="#BitstreamVeraSans-Roman-2c"/>
     <use x="454.322265625" xlink:href="#BitstreamVeraSans-Roman-20"/>
     <use x="486.109375" xlink:href="#BitstreamVeraSans-Roman-32"/>
     <use x="549.732421875" xlink:href="#BitstreamVeraSans-Roman-2c"/>
     <use x="581.51953125" xlink:href="#BitstreamVeraSans-Roman-20"/>
     <use x="613.306640625" xlink:href="#BitstreamVeraSans-Roman-34"/>
     <use x="676.9296875" xlink:href="#BitstreamVeraSans-Roman-2c"/>
     <use x="708.716796875" xlink:href="#BitstreamVeraSans-Roman-20"/>
     <use x="740.50390625" xlink:href="#BitstreamVeraSans-Roman-36"/>
     <use x="804.126953125" xlink:href="#BitstreamVeraSans-Roman-2c"/>
     <use x="835.9140625" xlink:href="#BitstreamVeraSans-Roman-20"/>
     <use x="867.701171875" xlink:href="#BitstreamVeraSans-Roman-38"/>
     <use x="931.32421875" xlink:href="#BitstreamVeraSans-Roman-2c"/>
     <use x="963.111328125" xlink:href="#BitstreamVeraSans-Roman-20"/>
     <use x="994.8984375" xlink:href="#BitstreamVeraSans-Roman-31"/>
     <use x="1058.521484375" xlink:href="#BitstreamVeraSans-Roman-30"/>
     <use x="1122.14453125" xlink:href="#BitstreamVeraSans-Roman-2c"/>
     <use x="1153.931640625" xlink:href="#BitstreamVeraSans-Roman-20"/>
     <use x="1185.71875" xlink:href="#BitstreamVeraSans-Roman-31"/>
     <use x="1249.341796875" xlink:href="#BitstreamVeraSans-Roman-32"/>
     <use x="1312.96484375" xlink:href="#BitstreamVeraSans-Roman-5d"/>
     <use x="1351.978515625" xlink:href="#BitstreamVeraSans-Roman-20"/>
     <use x="1383.765625" xlink:href="#BitstreamVeraSans-Roman-20"/>
     <use x="1415.552734375" xlink:href="#BitstreamVeraSans-Roman-20"/>
     <use x="1447.33984375" xlink:href="#BitstreamVeraSans-Roman-54"/>
     <use x="1508.158203125" xlink:href="#BitstreamVeraSans-Roman-65"/>
     <use x="1569.681640625" xlink:href="#BitstreamVeraSans-Roman-73"/>
     <use x="1621.78125" xlink:href="#BitstreamVeraSans-Roman-74"/>
     <use x="1660.990234375" xlink:href="#BitstreamVeraSans-Roman-3a"/>
     <use x="1694.681640625" xlink:href="#BitstreamVeraSans-Roman-20"/>
     <use x="1726.46875" xlink:href="#BitstreamVeraSans-Roman-31"/>
     <use x="1790.091796875" xlink:href="#BitstreamVeraSans-Roman-32"/>
    </g>
   </g>
   <g id="legend_1">
    <g id="patch_7">
     <path d="M 187.14675 377.6666 
L 486.0975 377.6666 
L 486.0975 309.9371 
L 187.14675 309.9371 
z
" style="fill:#ffffff;stroke:#000000;stroke-linejoin:miter;"/>
    </g>
    <g id="line2d_29">
     <path d="M 197.22675 321.59885 
L 217.38675 321.59885 
" style="fill:none;stroke:#0000ff;stroke-linecap:square;"/>
    </g>
    <g id="line2d_30"/>
    <g id="text_16">
     <!-- janusROC curve - 0 (AUC = 0.940) -->
     <defs>
      <path d="M 8.015625 75.875 
L 15.828125 75.875 
Q 23.140625 64.359375 26.78125 53.3125 
Q 30.421875 42.28125 30.421875 31.390625 
Q 30.421875 20.453125 26.78125 9.375 
Q 23.140625 -1.703125 15.828125 -13.1875 
L 8.015625 -13.1875 
Q 14.5 -2 17.703125 9.0625 
Q 20.90625 20.125 20.90625 31.390625 
Q 20.90625 42.671875 17.703125 53.65625 
Q 14.5 64.65625 8.015625 75.875 
" id="BitstreamVeraSans-Roman-29"/>
      <path d="M 31 75.875 
Q 24.46875 64.65625 21.28125 53.65625 
Q 18.109375 42.671875 18.109375 31.390625 
Q 18.109375 20.125 21.3125 9.0625 
Q 24.515625 -2 31 -13.1875 
L 23.1875 -13.1875 
Q 15.875 -1.703125 12.234375 9.375 
Q 8.59375 20.453125 8.59375 31.390625 
Q 8.59375 42.28125 12.203125 53.3125 
Q 15.828125 64.359375 23.1875 75.875 
z
" id="BitstreamVeraSans-Roman-28"/>
      <path d="M 10.984375 1.515625 
L 10.984375 10.5 
Q 14.703125 8.734375 18.5 7.8125 
Q 22.3125 6.890625 25.984375 6.890625 
Q 35.75 6.890625 40.890625 13.453125 
Q 46.046875 20.015625 46.78125 33.40625 
Q 43.953125 29.203125 39.59375 26.953125 
Q 35.25 24.703125 29.984375 24.703125 
Q 19.046875 24.703125 12.671875 31.3125 
Q 6.296875 37.9375 6.296875 49.421875 
Q 6.296875 60.640625 12.9375 67.421875 
Q 19.578125 74.21875 30.609375 74.21875 
Q 43.265625 74.21875 49.921875 64.515625 
Q 56.59375 54.828125 56.59375 36.375 
Q 56.59375 19.140625 48.40625 8.859375 
Q 40.234375 -1.421875 26.421875 -1.421875 
Q 22.703125 -1.421875 18.890625 -0.6875 
Q 15.09375 0.046875 10.984375 1.515625 
M 30.609375 32.421875 
Q 37.25 32.421875 41.125 36.953125 
Q 45.015625 41.5 45.015625 49.421875 
Q 45.015625 57.28125 41.125 61.84375 
Q 37.25 66.40625 30.609375 66.40625 
Q 23.96875 66.40625 20.09375 61.84375 
Q 16.21875 57.28125 16.21875 49.421875 
Q 16.21875 41.5 20.09375 36.953125 
Q 23.96875 32.421875 30.609375 32.421875 
" id="BitstreamVeraSans-Roman-39"/>
      <path d="M 34.1875 63.1875 
L 20.796875 26.90625 
L 47.609375 26.90625 
z
M 28.609375 72.90625 
L 39.796875 72.90625 
L 67.578125 0 
L 57.328125 0 
L 50.6875 18.703125 
L 17.828125 18.703125 
L 11.1875 0 
L 0.78125 0 
z
" id="BitstreamVeraSans-Roman-41"/>
      <path d="M 8.6875 72.90625 
L 18.609375 72.90625 
L 18.609375 28.609375 
Q 18.609375 16.890625 22.84375 11.734375 
Q 27.09375 6.59375 36.625 6.59375 
Q 46.09375 6.59375 50.34375 11.734375 
Q 54.59375 16.890625 54.59375 28.609375 
L 54.59375 72.90625 
L 64.5 72.90625 
L 64.5 27.390625 
Q 64.5 13.140625 57.4375 5.859375 
Q 50.390625 -1.421875 36.625 -1.421875 
Q 22.796875 -1.421875 15.734375 5.859375 
Q 8.6875 13.140625 8.6875 27.390625 
z
" id="BitstreamVeraSans-Roman-55"/>
      <path d="M 10.59375 45.40625 
L 73.1875 45.40625 
L 73.1875 37.203125 
L 10.59375 37.203125 
z
M 10.59375 25.484375 
L 73.1875 25.484375 
L 73.1875 17.1875 
L 10.59375 17.1875 
z
" id="BitstreamVeraSans-Roman-3d"/>
      <path d="M 9.421875 54.6875 
L 18.40625 54.6875 
L 18.40625 -0.984375 
Q 18.40625 -11.421875 14.421875 -16.109375 
Q 10.453125 -20.796875 1.609375 -20.796875 
L -1.8125 -20.796875 
L -1.8125 -13.1875 
L 0.59375 -13.1875 
Q 5.71875 -13.1875 7.5625 -10.8125 
Q 9.421875 -8.453125 9.421875 -0.984375 
z
M 9.421875 75.984375 
L 18.40625 75.984375 
L 18.40625 64.59375 
L 9.421875 64.59375 
z
" id="BitstreamVeraSans-Roman-6a"/>
      <path d="M 4.890625 31.390625 
L 31.203125 31.390625 
L 31.203125 23.390625 
L 4.890625 23.390625 
z
" id="BitstreamVeraSans-Roman-2d"/>
      <path d="M 48.78125 52.59375 
L 48.78125 44.1875 
Q 44.96875 46.296875 41.140625 47.34375 
Q 37.3125 48.390625 33.40625 48.390625 
Q 24.65625 48.390625 19.8125 42.84375 
Q 14.984375 37.3125 14.984375 27.296875 
Q 14.984375 17.28125 19.8125 11.734375 
Q 24.65625 6.203125 33.40625 6.203125 
Q 37.3125 6.203125 41.140625 7.25 
Q 44.96875 8.296875 48.78125 10.40625 
L 48.78125 2.09375 
Q 45.015625 0.34375 40.984375 -0.53125 
Q 36.96875 -1.421875 32.421875 -1.421875 
Q 20.0625 -1.421875 12.78125 6.34375 
Q 5.515625 14.109375 5.515625 27.296875 
Q 5.515625 40.671875 12.859375 48.328125 
Q 20.21875 56 33.015625 56 
Q 37.15625 56 41.109375 55.140625 
Q 45.0625 54.296875 48.78125 52.59375 
" id="BitstreamVeraSans-Roman-63"/>
     </defs>
     <g transform="translate(233.22675 326.63885)scale(0.144 -0.144)">
      <use xlink:href="#BitstreamVeraSans-Roman-6a"/>
      <use x="27.783203125" xlink:href="#BitstreamVeraSans-Roman-61"/>
      <use x="89.0625" xlink:href="#BitstreamVeraSans-Roman-6e"/>
      <use x="152.44140625" xlink:href="#BitstreamVeraSans-Roman-75"/>
      <use x="215.8203125" xlink:href="#BitstreamVeraSans-Roman-73"/>
      <use x="267.919921875" xlink:href="#BitstreamVeraSans-Roman-52"/>
      <use x="337.40234375" xlink:href="#BitstreamVeraSans-Roman-4f"/>
      <use x="416.11328125" xlink:href="#BitstreamVeraSans-Roman-43"/>
      <use x="485.9375" xlink:href="#BitstreamVeraSans-Roman-20"/>
      <use x="517.724609375" xlink:href="#BitstreamVeraSans-Roman-63"/>
      <use x="572.705078125" xlink:href="#BitstreamVeraSans-Roman-75"/>
      <use x="636.083984375" xlink:href="#BitstreamVeraSans-Roman-72"/>
      <use x="677.197265625" xlink:href="#BitstreamVeraSans-Roman-76"/>
      <use x="736.376953125" xlink:href="#BitstreamVeraSans-Roman-65"/>
      <use x="797.900390625" xlink:href="#BitstreamVeraSans-Roman-20"/>
      <use x="829.6875" xlink:href="#BitstreamVeraSans-Roman-2d"/>
      <use x="865.771484375" xlink:href="#BitstreamVeraSans-Roman-20"/>
      <use x="897.55859375" xlink:href="#BitstreamVeraSans-Roman-30"/>
      <use x="961.181640625" xlink:href="#BitstreamVeraSans-Roman-20"/>
      <use x="992.96875" xlink:href="#BitstreamVeraSans-Roman-28"/>
      <use x="1031.982421875" xlink:href="#BitstreamVeraSans-Roman-41"/>
      <use x="1100.390625" xlink:href="#BitstreamVeraSans-Roman-55"/>
      <use x="1173.583984375" xlink:href="#BitstreamVeraSans-Roman-43"/>
      <use x="1243.408203125" xlink:href="#BitstreamVeraSans-Roman-20"/>
      <use x="1275.1953125" xlink:href="#BitstreamVeraSans-Roman-3d"/>
      <use x="1358.984375" xlink:href="#BitstreamVeraSans-Roman-20"/>
      <use x="1390.771484375" xlink:href="#BitstreamVeraSans-Roman-30"/>
      <use x="1454.39453125" xlink:href="#BitstreamVeraSans-Roman-2e"/>
      <use x="1486.181640625" xlink:href="#BitstreamVeraSans-Roman-39"/>
      <use x="1549.8046875" xlink:href="#BitstreamVeraSans-Roman-34"/>
      <use x="1613.427734375" xlink:href="#BitstreamVeraSans-Roman-30"/>
      <use x="1677.05078125" xlink:href="#BitstreamVeraSans-Roman-29"/>
     </g>
    </g>
    <g id="line2d_31">
     <path d="M 197.22675 342.73535 
L 217.38675 342.73535 
" style="fill:none;stroke:#008000;stroke-linecap:square;"/>
    </g>
    <g id="line2d_32"/>
    <g id="text_17">
     <!-- janusROC curve - 1 (AUC = 0.920) -->
     <g transform="translate(233.22675 347.77535)scale(0.144 -0.144)">
      <use xlink:href="#BitstreamVeraSans-Roman-6a"/>
      <use x="27.783203125" xlink:href="#BitstreamVeraSans-Roman-61"/>
      <use x="89.0625" xlink:href="#BitstreamVeraSans-Roman-6e"/>
      <use x="152.44140625" xlink:href="#BitstreamVeraSans-Roman-75"/>
      <use x="215.8203125" xlink:href="#BitstreamVeraSans-Roman-73"/>
      <use x="267.919921875" xlink:href="#BitstreamVeraSans-Roman-52"/>
      <use x="337.40234375" xlink:href="#BitstreamVeraSans-Roman-4f"/>
      <use x="416.11328125" xlink:href="#BitstreamVeraSans-Roman-43"/>
      <use x="485.9375" xlink:href="#BitstreamVeraSans-Roman-20"/>
      <use x="517.724609375" xlink:href="#BitstreamVeraSans-Roman-63"/>
      <use x="572.705078125" xlink:href="#BitstreamVeraSans-Roman-75"/>
      <use x="636.083984375" xlink:href="#BitstreamVeraSans-Roman-72"/>
      <use x="677.197265625" xlink:href="#BitstreamVeraSans-Roman-76"/>
      <use x="736.376953125" xlink:href="#BitstreamVeraSans-Roman-65"/>
      <use x="797.900390625" xlink:href="#BitstreamVeraSans-Roman-20"/>
      <use x="829.6875" xlink:href="#BitstreamVeraSans-Roman-2d"/>
      <use x="865.771484375" xlink:href="#BitstreamVeraSans-Roman-20"/>
      <use x="897.55859375" xlink:href="#BitstreamVeraSans-Roman-31"/>
      <use x="961.181640625" xlink:href="#BitstreamVeraSans-Roman-20"/>
      <use x="992.96875" xlink:href="#BitstreamVeraSans-Roman-28"/>
      <use x="1031.982421875" xlink:href="#BitstreamVeraSans-Roman-41"/>
      <use x="1100.390625" xlink:href="#BitstreamVeraSans-Roman-55"/>
      <use x="1173.583984375" xlink:href="#BitstreamVeraSans-Roman-43"/>
      <use x="1243.408203125" xlink:href="#BitstreamVeraSans-Roman-20"/>
      <use x="1275.1953125" xlink:href="#BitstreamVeraSans-Roman-3d"/>
      <use x="1358.984375" xlink:href="#BitstreamVeraSans-Roman-20"/>
      <use x="1390.771484375" xlink:href="#BitstreamVeraSans-Roman-30"/>
      <use x="1454.39453125" xlink:href="#BitstreamVeraSans-Roman-2e"/>
      <use x="1486.181640625" xlink:href="#BitstreamVeraSans-Roman-39"/>
      <use x="1549.8046875" xlink:href="#BitstreamVeraSans-Roman-32"/>
      <use x="1613.427734375" xlink:href="#BitstreamVeraSans-Roman-30"/>
      <use x="1677.05078125" xlink:href="#BitstreamVeraSans-Roman-29"/>
     </g>
    </g>
    <g id="line2d_33">
     <path d="M 197.22675 363.87185 
L 217.38675 363.87185 
" style="fill:none;stroke:#ff0000;stroke-linecap:square;"/>
    </g>
    <g id="line2d_34"/>
    <g id="text_18">
     <!-- janusROC curve - 2 (AUC = 0.890) -->
     <g transform="translate(233.22675 368.91185)scale(0.144 -0.144)">
      <use xlink:href="#BitstreamVeraSans-Roman-6a"/>
      <use x="27.783203125" xlink:href="#BitstreamVeraSans-Roman-61"/>
      <use x="89.0625" xlink:href="#BitstreamVeraSans-Roman-6e"/>
      <use x="152.44140625" xlink:href="#BitstreamVeraSans-Roman-75"/>
      <use x="215.8203125" xlink:href="#BitstreamVeraSans-Roman-73"/>
      <use x="267.919921875" xlink:href="#BitstreamVeraSans-Roman-52"/>
      <use x="337.40234375" xlink:href="#BitstreamVeraSans-Roman-4f"/>
      <use x="416.11328125" xlink:href="#BitstreamVeraSans-Roman-43"/>
      <use x="485.9375" xlink:href="#BitstreamVeraSans-Roman-20"/>
      <use x="517.724609375" xlink:href="#BitstreamVeraSans-Roman-63"/>
      <use x="572.705078125" xlink:href="#BitstreamVeraSans-Roman-75"/>
      <use x="636.083984375" xlink:href="#BitstreamVeraSans-Roman-72"/>
      <use x="677.197265625" xlink:href="#BitstreamVeraSans-Roman-76"/>
      <use x="736.376953125" xlink:href="#BitstreamVeraSans-Roman-65"/>
      <use x="797.900390625" xlink:href="#BitstreamVeraSans-Roman-20"/>
      <use x="829.6875" xlink:href="#BitstreamVeraSans-Roman-2d"/>
      <use x="865.771484375" xlink:href="#BitstreamVeraSans-Roman-20"/>
      <use x="897.55859375" xlink:href="#BitstreamVeraSans-Roman-32"/>
      <use x="961.181640625" xlink:href="#BitstreamVeraSans-Roman-20"/>
      <use x="992.96875" xlink:href="#BitstreamVeraSans-Roman-28"/>
      <use x="1031.982421875" xlink:href="#BitstreamVeraSans-Roman-41"/>
      <use x="1100.390625" xlink:href="#BitstreamVeraSans-Roman-55"/>
      <use x="1173.583984375" xlink:href="#BitstreamVeraSans-Roman-43"/>
      <use x="1243.408203125" xlink:href="#BitstreamVeraSans-Roman-20"/>
      <use x="1275.1953125" xlink:href="#BitstreamVeraSans-Roman-3d"/>
      <use x="1358.984375" xlink:href="#BitstreamVeraSans-Roman-20"/>
      <use x="1390.771484375" xlink:href="#BitstreamVeraSans-Roman-30"/>
      <use x="1454.39453125" xlink:href="#BitstreamVeraSans-Roman-2e"/>
      <use x="1486.181640625" xlink:href="#BitstreamVeraSans-Roman-38"/>
      <use x="1549.8046875" xlink:href="#BitstreamVeraSans-Roman-39"/>
      <use x="1613.427734375" xlink:href="#BitstreamVeraSans-Roman-30"/>
      <use x="1677.05078125" xlink:href="#BitstreamVeraSans-Roman-29"/>
     </g>
    </g>
   </g>
  </g>
 </g>
 <defs>
  <clipPath id="p380a61e7a2">
   <rect height="345.6" width="446.4" x="46.8975" y="39.2666"/>
  </clipPath>
 </defs>
</svg>
