<?xml version="1.0" encoding="utf-8" standalone="no"?>
<!DOCTYPE svg PUBLIC "-//W3C//DTD SVG 1.1//EN"
  "http://www.w3.org/Graphics/SVG/1.1/DTD/svg11.dtd">
<!-- Created with matplotlib (http://matplotlib.org/) -->
<svg height="339pt" version="1.1" viewBox="0 0 416 339" width="416pt" xmlns="http://www.w3.org/2000/svg" xmlns:xlink="http://www.w3.org/1999/xlink">
 <defs>
  <style type="text/css">
*{stroke-linecap:butt;stroke-linejoin:round;}
  </style>
 </defs>
 <g id="figure_1">
  <g id="patch_1">
   <path d="M 0 339.42375 
L 416.052813 339.42375 
L 416.052813 0 
L 0 0 
z
" style="fill:#ffffff;"/>
  </g>
  <g id="axes_1">
   <g id="patch_2">
    <path d="M 43.78125 301.8675 
L 400.90125 301.8675 
L 400.90125 35.7555 
L 43.78125 35.7555 
z
" style="fill:#ffffff;"/>
   </g>
   <g id="matplotlib.axis_1">
    <g id="xtick_1">
     <g id="line2d_1">
      <defs>
       <path d="M 0 0 
L 0 3.5 
" id="mf0335021b5" style="stroke:#000000;stroke-width:0.8;"/>
      </defs>
      <g>
       <use style="stroke:#000000;stroke-width:0.8;" x="43.78125" xlink:href="#mf0335021b5" y="301.8675"/>
      </g>
     </g>
     <g id="text_1">
      <!-- 0.0 -->
      <defs>
       <path d="M 31.78125 66.40625 
Q 24.171875 66.40625 20.328125 58.90625 
Q 16.5 51.421875 16.5 36.375 
Q 16.5 21.390625 20.328125 13.890625 
Q 24.171875 6.390625 31.78125 6.390625 
Q 39.453125 6.390625 43.28125 13.890625 
Q 47.125 21.390625 47.125 36.375 
Q 47.125 51.421875 43.28125 58.90625 
Q 39.453125 66.40625 31.78125 66.40625 
M 31.78125 74.21875 
Q 44.046875 74.21875 50.515625 64.515625 
Q 56.984375 54.828125 56.984375 36.375 
Q 56.984375 17.96875 50.515625 8.265625 
Q 44.046875 -1.421875 31.78125 -1.421875 
Q 19.53125 -1.421875 13.0625 8.265625 
Q 6.59375 17.96875 6.59375 36.375 
Q 6.59375 54.828125 13.0625 64.515625 
Q 19.53125 74.21875 31.78125 74.21875 
" id="DejaVuSans-30"/>
       <path d="M 10.6875 12.40625 
L 21 12.40625 
L 21 0 
L 10.6875 0 
z
" id="DejaVuSans-2e"/>
      </defs>
      <g transform="translate(35.829688 316.465937)scale(0.1 -0.1)">
       <use xlink:href="#DejaVuSans-30"/>
       <use x="63.623047" xlink:href="#DejaVuSans-2e"/>
       <use x="95.410156" xlink:href="#DejaVuSans-30"/>
      </g>
     </g>
    </g>
    <g id="xtick_2">
     <g id="line2d_2">
      <g>
       <use style="stroke:#000000;stroke-width:0.8;" x="115.20525" xlink:href="#mf0335021b5" y="301.8675"/>
      </g>
     </g>
     <g id="text_2">
      <!-- 0.2 -->
      <defs>
       <path d="M 19.1875 8.296875 
L 53.609375 8.296875 
L 53.609375 0 
L 7.328125 0 
L 7.328125 8.296875 
Q 12.9375 14.109375 22.625 23.890625 
Q 32.328125 33.6875 34.8125 36.53125 
Q 39.546875 41.84375 41.421875 45.53125 
Q 43.3125 49.21875 43.3125 52.78125 
Q 43.3125 58.59375 39.234375 62.25 
Q 35.15625 65.921875 28.609375 65.921875 
Q 23.96875 65.921875 18.8125 64.3125 
Q 13.671875 62.703125 7.8125 59.421875 
L 7.8125 69.390625 
Q 13.765625 71.78125 18.9375 73 
Q 24.125 74.21875 28.421875 74.21875 
Q 39.75 74.21875 46.484375 68.546875 
Q 53.21875 62.890625 53.21875 53.421875 
Q 53.21875 48.921875 51.53125 44.890625 
Q 49.859375 40.875 45.40625 35.40625 
Q 44.1875 33.984375 37.640625 27.21875 
Q 31.109375 20.453125 19.1875 8.296875 
" id="DejaVuSans-32"/>
      </defs>
      <g transform="translate(107.253688 316.465937)scale(0.1 -0.1)">
       <use xlink:href="#DejaVuSans-30"/>
       <use x="63.623047" xlink:href="#DejaVuSans-2e"/>
       <use x="95.410156" xlink:href="#DejaVuSans-32"/>
      </g>
     </g>
    </g>
    <g id="xtick_3">
     <g id="line2d_3">
      <g>
       <use style="stroke:#000000;stroke-width:0.8;" x="186.62925" xlink:href="#mf0335021b5" y="301.8675"/>
      </g>
     </g>
     <g id="text_3">
      <!-- 0.4 -->
      <defs>
       <path d="M 37.796875 64.3125 
L 12.890625 25.390625 
L 37.796875 25.390625 
z
M 35.203125 72.90625 
L 47.609375 72.90625 
L 47.609375 25.390625 
L 58.015625 25.390625 
L 58.015625 17.1875 
L 47.609375 17.1875 
L 47.609375 0 
L 37.796875 0 
L 37.796875 17.1875 
L 4.890625 17.1875 
L 4.890625 26.703125 
z
" id="DejaVuSans-34"/>
      </defs>
      <g transform="translate(178.677688 316.465937)scale(0.1 -0.1)">
       <use xlink:href="#DejaVuSans-30"/>
       <use x="63.623047" xlink:href="#DejaVuSans-2e"/>
       <use x="95.410156" xlink:href="#DejaVuSans-34"/>
      </g>
     </g>
    </g>
    <g id="xtick_4">
     <g id="line2d_4">
      <g>
       <use style="stroke:#000000;stroke-width:0.8;" x="258.05325" xlink:href="#mf0335021b5" y="301.8675"/>
      </g>
     </g>
     <g id="text_4">
      <!-- 0.6 -->
      <defs>
       <path d="M 33.015625 40.375 
Q 26.375 40.375 22.484375 35.828125 
Q 18.609375 31.296875 18.609375 23.390625 
Q 18.609375 15.53125 22.484375 10.953125 
Q 26.375 6.390625 33.015625 6.390625 
Q 39.65625 6.390625 43.53125 10.953125 
Q 47.40625 15.53125 47.40625 23.390625 
Q 47.40625 31.296875 43.53125 35.828125 
Q 39.65625 40.375 33.015625 40.375 
M 52.59375 71.296875 
L 52.59375 62.3125 
Q 48.875 64.0625 45.09375 64.984375 
Q 41.3125 65.921875 37.59375 65.921875 
Q 27.828125 65.921875 22.671875 59.328125 
Q 17.53125 52.734375 16.796875 39.40625 
Q 19.671875 43.65625 24.015625 45.921875 
Q 28.375 48.1875 33.59375 48.1875 
Q 44.578125 48.1875 50.953125 41.515625 
Q 57.328125 34.859375 57.328125 23.390625 
Q 57.328125 12.15625 50.6875 5.359375 
Q 44.046875 -1.421875 33.015625 -1.421875 
Q 20.359375 -1.421875 13.671875 8.265625 
Q 6.984375 17.96875 6.984375 36.375 
Q 6.984375 53.65625 15.1875 63.9375 
Q 23.390625 74.21875 37.203125 74.21875 
Q 40.921875 74.21875 44.703125 73.484375 
Q 48.484375 72.75 52.59375 71.296875 
" id="DejaVuSans-36"/>
      </defs>
      <g transform="translate(250.101688 316.465937)scale(0.1 -0.1)">
       <use xlink:href="#DejaVuSans-30"/>
       <use x="63.623047" xlink:href="#DejaVuSans-2e"/>
       <use x="95.410156" xlink:href="#DejaVuSans-36"/>
      </g>
     </g>
    </g>
    <g id="xtick_5">
     <g id="line2d_5">
      <g>
       <use style="stroke:#000000;stroke-width:0.8;" x="329.47725" xlink:href="#mf0335021b5" y="301.8675"/>
      </g>
     </g>
     <g id="text_5">
      <!-- 0.8 -->
      <defs>
       <path d="M 31.78125 34.625 
Q 24.75 34.625 20.71875 30.859375 
Q 16.703125 27.09375 16.703125 20.515625 
Q 16.703125 13.921875 20.71875 10.15625 
Q 24.75 6.390625 31.78125 6.390625 
Q 38.8125 6.390625 42.859375 10.171875 
Q 46.921875 13.96875 46.921875 20.515625 
Q 46.921875 27.09375 42.890625 30.859375 
Q 38.875 34.625 31.78125 34.625 
M 21.921875 38.8125 
Q 15.578125 40.375 12.03125 44.71875 
Q 8.5 49.078125 8.5 55.328125 
Q 8.5 64.0625 14.71875 69.140625 
Q 20.953125 74.21875 31.78125 74.21875 
Q 42.671875 74.21875 48.875 69.140625 
Q 55.078125 64.0625 55.078125 55.328125 
Q 55.078125 49.078125 51.53125 44.71875 
Q 48 40.375 41.703125 38.8125 
Q 48.828125 37.15625 52.796875 32.3125 
Q 56.78125 27.484375 56.78125 20.515625 
Q 56.78125 9.90625 50.3125 4.234375 
Q 43.84375 -1.421875 31.78125 -1.421875 
Q 19.734375 -1.421875 13.25 4.234375 
Q 6.78125 9.90625 6.78125 20.515625 
Q 6.78125 27.484375 10.78125 32.3125 
Q 14.796875 37.15625 21.921875 38.8125 
M 18.3125 54.390625 
Q 18.3125 48.734375 21.84375 45.5625 
Q 25.390625 42.390625 31.78125 42.390625 
Q 38.140625 42.390625 41.71875 45.5625 
Q 45.3125 48.734375 45.3125 54.390625 
Q 45.3125 60.0625 41.71875 63.234375 
Q 38.140625 66.40625 31.78125 66.40625 
Q 25.390625 66.40625 21.84375 63.234375 
Q 18.3125 60.0625 18.3125 54.390625 
" id="DejaVuSans-38"/>
      </defs>
      <g transform="translate(321.525688 316.465937)scale(0.1 -0.1)">
       <use xlink:href="#DejaVuSans-30"/>
       <use x="63.623047" xlink:href="#DejaVuSans-2e"/>
       <use x="95.410156" xlink:href="#DejaVuSans-38"/>
      </g>
     </g>
    </g>
    <g id="xtick_6">
     <g id="line2d_6">
      <g>
       <use style="stroke:#000000;stroke-width:0.8;" x="400.90125" xlink:href="#mf0335021b5" y="301.8675"/>
      </g>
     </g>
     <g id="text_6">
      <!-- 1.0 -->
      <defs>
       <path d="M 12.40625 8.296875 
L 28.515625 8.296875 
L 28.515625 63.921875 
L 10.984375 60.40625 
L 10.984375 69.390625 
L 28.421875 72.90625 
L 38.28125 72.90625 
L 38.28125 8.296875 
L 54.390625 8.296875 
L 54.390625 0 
L 12.40625 0 
z
" id="DejaVuSans-31"/>
      </defs>
      <g transform="translate(392.949688 316.465937)scale(0.1 -0.1)">
       <use xlink:href="#DejaVuSans-31"/>
       <use x="63.623047" xlink:href="#DejaVuSans-2e"/>
       <use x="95.410156" xlink:href="#DejaVuSans-30"/>
      </g>
     </g>
    </g>
    <g id="text_7">
     <!-- False Positive Rate -->
     <defs>
      <path d="M 9.8125 72.90625 
L 51.703125 72.90625 
L 51.703125 64.59375 
L 19.671875 64.59375 
L 19.671875 43.109375 
L 48.578125 43.109375 
L 48.578125 34.8125 
L 19.671875 34.8125 
L 19.671875 0 
L 9.8125 0 
z
" id="DejaVuSans-46"/>
      <path d="M 34.28125 27.484375 
Q 23.390625 27.484375 19.1875 25 
Q 14.984375 22.515625 14.984375 16.5 
Q 14.984375 11.71875 18.140625 8.90625 
Q 21.296875 6.109375 26.703125 6.109375 
Q 34.1875 6.109375 38.703125 11.40625 
Q 43.21875 16.703125 43.21875 25.484375 
L 43.21875 27.484375 
z
M 52.203125 31.203125 
L 52.203125 0 
L 43.21875 0 
L 43.21875 8.296875 
Q 40.140625 3.328125 35.546875 0.953125 
Q 30.953125 -1.421875 24.3125 -1.421875 
Q 15.921875 -1.421875 10.953125 3.296875 
Q 6 8.015625 6 15.921875 
Q 6 25.140625 12.171875 29.828125 
Q 18.359375 34.515625 30.609375 34.515625 
L 43.21875 34.515625 
L 43.21875 35.40625 
Q 43.21875 41.609375 39.140625 45 
Q 35.0625 48.390625 27.6875 48.390625 
Q 23 48.390625 18.546875 47.265625 
Q 14.109375 46.140625 10.015625 43.890625 
L 10.015625 52.203125 
Q 14.9375 54.109375 19.578125 55.046875 
Q 24.21875 56 28.609375 56 
Q 40.484375 56 46.34375 49.84375 
Q 52.203125 43.703125 52.203125 31.203125 
" id="DejaVuSans-61"/>
      <path d="M 9.421875 75.984375 
L 18.40625 75.984375 
L 18.40625 0 
L 9.421875 0 
z
" id="DejaVuSans-6c"/>
      <path d="M 44.28125 53.078125 
L 44.28125 44.578125 
Q 40.484375 46.53125 36.375 47.5 
Q 32.28125 48.484375 27.875 48.484375 
Q 21.1875 48.484375 17.84375 46.4375 
Q 14.5 44.390625 14.5 40.28125 
Q 14.5 37.15625 16.890625 35.375 
Q 19.28125 33.59375 26.515625 31.984375 
L 29.59375 31.296875 
Q 39.15625 29.25 43.1875 25.515625 
Q 47.21875 21.78125 47.21875 15.09375 
Q 47.21875 7.46875 41.1875 3.015625 
Q 35.15625 -1.421875 24.609375 -1.421875 
Q 20.21875 -1.421875 15.453125 -0.5625 
Q 10.6875 0.296875 5.421875 2 
L 5.421875 11.28125 
Q 10.40625 8.6875 15.234375 7.390625 
Q 20.0625 6.109375 24.8125 6.109375 
Q 31.15625 6.109375 34.5625 8.28125 
Q 37.984375 10.453125 37.984375 14.40625 
Q 37.984375 18.0625 35.515625 20.015625 
Q 33.0625 21.96875 24.703125 23.78125 
L 21.578125 24.515625 
Q 13.234375 26.265625 9.515625 29.90625 
Q 5.8125 33.546875 5.8125 39.890625 
Q 5.8125 47.609375 11.28125 51.796875 
Q 16.75 56 26.8125 56 
Q 31.78125 56 36.171875 55.265625 
Q 40.578125 54.546875 44.28125 53.078125 
" id="DejaVuSans-73"/>
      <path d="M 56.203125 29.59375 
L 56.203125 25.203125 
L 14.890625 25.203125 
Q 15.484375 15.921875 20.484375 11.0625 
Q 25.484375 6.203125 34.421875 6.203125 
Q 39.59375 6.203125 44.453125 7.46875 
Q 49.3125 8.734375 54.109375 11.28125 
L 54.109375 2.78125 
Q 49.265625 0.734375 44.1875 -0.34375 
Q 39.109375 -1.421875 33.890625 -1.421875 
Q 20.796875 -1.421875 13.15625 6.1875 
Q 5.515625 13.8125 5.515625 26.8125 
Q 5.515625 40.234375 12.765625 48.109375 
Q 20.015625 56 32.328125 56 
Q 43.359375 56 49.78125 48.890625 
Q 56.203125 41.796875 56.203125 29.59375 
M 47.21875 32.234375 
Q 47.125 39.59375 43.09375 43.984375 
Q 39.0625 48.390625 32.421875 48.390625 
Q 24.90625 48.390625 20.390625 44.140625 
Q 15.875 39.890625 15.1875 32.171875 
z
" id="DejaVuSans-65"/>
      <path id="DejaVuSans-20"/>
      <path d="M 19.671875 64.796875 
L 19.671875 37.40625 
L 32.078125 37.40625 
Q 38.96875 37.40625 42.71875 40.96875 
Q 46.484375 44.53125 46.484375 51.125 
Q 46.484375 57.671875 42.71875 61.234375 
Q 38.96875 64.796875 32.078125 64.796875 
z
M 9.8125 72.90625 
L 32.078125 72.90625 
Q 44.34375 72.90625 50.609375 67.359375 
Q 56.890625 61.8125 56.890625 51.125 
Q 56.890625 40.328125 50.609375 34.8125 
Q 44.34375 29.296875 32.078125 29.296875 
L 19.671875 29.296875 
L 19.671875 0 
L 9.8125 0 
z
" id="DejaVuSans-50"/>
      <path d="M 30.609375 48.390625 
Q 23.390625 48.390625 19.1875 42.75 
Q 14.984375 37.109375 14.984375 27.296875 
Q 14.984375 17.484375 19.15625 11.84375 
Q 23.34375 6.203125 30.609375 6.203125 
Q 37.796875 6.203125 41.984375 11.859375 
Q 46.1875 17.53125 46.1875 27.296875 
Q 46.1875 37.015625 41.984375 42.703125 
Q 37.796875 48.390625 30.609375 48.390625 
M 30.609375 56 
Q 42.328125 56 49.015625 48.375 
Q 55.71875 40.765625 55.71875 27.296875 
Q 55.71875 13.875 49.015625 6.21875 
Q 42.328125 -1.421875 30.609375 -1.421875 
Q 18.84375 -1.421875 12.171875 6.21875 
Q 5.515625 13.875 5.515625 27.296875 
Q 5.515625 40.765625 12.171875 48.375 
Q 18.84375 56 30.609375 56 
" id="DejaVuSans-6f"/>
      <path d="M 9.421875 54.6875 
L 18.40625 54.6875 
L 18.40625 0 
L 9.421875 0 
z
M 9.421875 75.984375 
L 18.40625 75.984375 
L 18.40625 64.59375 
L 9.421875 64.59375 
z
" id="DejaVuSans-69"/>
      <path d="M 18.3125 70.21875 
L 18.3125 54.6875 
L 36.8125 54.6875 
L 36.8125 47.703125 
L 18.3125 47.703125 
L 18.3125 18.015625 
Q 18.3125 11.328125 20.140625 9.421875 
Q 21.96875 7.515625 27.59375 7.515625 
L 36.8125 7.515625 
L 36.8125 0 
L 27.59375 0 
Q 17.1875 0 13.234375 3.875 
Q 9.28125 7.765625 9.28125 18.015625 
L 9.28125 47.703125 
L 2.6875 47.703125 
L 2.6875 54.6875 
L 9.28125 54.6875 
L 9.28125 70.21875 
z
" id="DejaVuSans-74"/>
      <path d="M 2.984375 54.6875 
L 12.5 54.6875 
L 29.59375 8.796875 
L 46.6875 54.6875 
L 56.203125 54.6875 
L 35.6875 0 
L 23.484375 0 
z
" id="DejaVuSans-76"/>
      <path d="M 44.390625 34.1875 
Q 47.5625 33.109375 50.5625 29.59375 
Q 53.5625 26.078125 56.59375 19.921875 
L 66.609375 0 
L 56 0 
L 46.6875 18.703125 
Q 43.0625 26.03125 39.671875 28.421875 
Q 36.28125 30.8125 30.421875 30.8125 
L 19.671875 30.8125 
L 19.671875 0 
L 9.8125 0 
L 9.8125 72.90625 
L 32.078125 72.90625 
Q 44.578125 72.90625 50.734375 67.671875 
Q 56.890625 62.453125 56.890625 51.90625 
Q 56.890625 45.015625 53.6875 40.46875 
Q 50.484375 35.9375 44.390625 34.1875 
M 19.671875 64.796875 
L 19.671875 38.921875 
L 32.078125 38.921875 
Q 39.203125 38.921875 42.84375 42.21875 
Q 46.484375 45.515625 46.484375 51.90625 
Q 46.484375 58.296875 42.84375 61.546875 
Q 39.203125 64.796875 32.078125 64.796875 
z
" id="DejaVuSans-52"/>
     </defs>
     <g transform="translate(175.135781 330.144062)scale(0.1 -0.1)">
      <use xlink:href="#DejaVuSans-46"/>
      <use x="57.378906" xlink:href="#DejaVuSans-61"/>
      <use x="118.658203" xlink:href="#DejaVuSans-6c"/>
      <use x="146.441406" xlink:href="#DejaVuSans-73"/>
      <use x="198.541016" xlink:href="#DejaVuSans-65"/>
      <use x="260.064453" xlink:href="#DejaVuSans-20"/>
      <use x="291.851562" xlink:href="#DejaVuSans-50"/>
      <use x="352.107422" xlink:href="#DejaVuSans-6f"/>
      <use x="413.289062" xlink:href="#DejaVuSans-73"/>
      <use x="465.388672" xlink:href="#DejaVuSans-69"/>
      <use x="493.171875" xlink:href="#DejaVuSans-74"/>
      <use x="532.380859" xlink:href="#DejaVuSans-69"/>
      <use x="560.164062" xlink:href="#DejaVuSans-76"/>
      <use x="619.34375" xlink:href="#DejaVuSans-65"/>
      <use x="680.867188" xlink:href="#DejaVuSans-20"/>
      <use x="712.654297" xlink:href="#DejaVuSans-52"/>
      <use x="782.105469" xlink:href="#DejaVuSans-61"/>
      <use x="843.384766" xlink:href="#DejaVuSans-74"/>
      <use x="882.59375" xlink:href="#DejaVuSans-65"/>
     </g>
    </g>
   </g>
   <g id="matplotlib.axis_2">
    <g id="ytick_1">
     <g id="line2d_7">
      <defs>
       <path d="M 0 0 
L -3.5 0 
" id="meae9b3d68a" style="stroke:#000000;stroke-width:0.8;"/>
      </defs>
      <g>
       <use style="stroke:#000000;stroke-width:0.8;" x="43.78125" xlink:href="#meae9b3d68a" y="301.8675"/>
      </g>
     </g>
     <g id="text_8">
      <!-- 0.0 -->
      <g transform="translate(20.878125 305.666719)scale(0.1 -0.1)">
       <use xlink:href="#DejaVuSans-30"/>
       <use x="63.623047" xlink:href="#DejaVuSans-2e"/>
       <use x="95.410156" xlink:href="#DejaVuSans-30"/>
      </g>
     </g>
    </g>
    <g id="ytick_2">
     <g id="line2d_8">
      <g>
       <use style="stroke:#000000;stroke-width:0.8;" x="43.78125" xlink:href="#meae9b3d68a" y="251.1795"/>
      </g>
     </g>
     <g id="text_9">
      <!-- 0.2 -->
      <g transform="translate(20.878125 254.978719)scale(0.1 -0.1)">
       <use xlink:href="#DejaVuSans-30"/>
       <use x="63.623047" xlink:href="#DejaVuSans-2e"/>
       <use x="95.410156" xlink:href="#DejaVuSans-32"/>
      </g>
     </g>
    </g>
    <g id="ytick_3">
     <g id="line2d_9">
      <g>
       <use style="stroke:#000000;stroke-width:0.8;" x="43.78125" xlink:href="#meae9b3d68a" y="200.4915"/>
      </g>
     </g>
     <g id="text_10">
      <!-- 0.4 -->
      <g transform="translate(20.878125 204.290719)scale(0.1 -0.1)">
       <use xlink:href="#DejaVuSans-30"/>
       <use x="63.623047" xlink:href="#DejaVuSans-2e"/>
       <use x="95.410156" xlink:href="#DejaVuSans-34"/>
      </g>
     </g>
    </g>
    <g id="ytick_4">
     <g id="line2d_10">
      <g>
       <use style="stroke:#000000;stroke-width:0.8;" x="43.78125" xlink:href="#meae9b3d68a" y="149.8035"/>
      </g>
     </g>
     <g id="text_11">
      <!-- 0.6 -->
      <g transform="translate(20.878125 153.602719)scale(0.1 -0.1)">
       <use xlink:href="#DejaVuSans-30"/>
       <use x="63.623047" xlink:href="#DejaVuSans-2e"/>
       <use x="95.410156" xlink:href="#DejaVuSans-36"/>
      </g>
     </g>
    </g>
    <g id="ytick_5">
     <g id="line2d_11">
      <g>
       <use style="stroke:#000000;stroke-width:0.8;" x="43.78125" xlink:href="#meae9b3d68a" y="99.1155"/>
      </g>
     </g>
     <g id="text_12">
      <!-- 0.8 -->
      <g transform="translate(20.878125 102.914719)scale(0.1 -0.1)">
       <use xlink:href="#DejaVuSans-30"/>
       <use x="63.623047" xlink:href="#DejaVuSans-2e"/>
       <use x="95.410156" xlink:href="#DejaVuSans-38"/>
      </g>
     </g>
    </g>
    <g id="ytick_6">
     <g id="line2d_12">
      <g>
       <use style="stroke:#000000;stroke-width:0.8;" x="43.78125" xlink:href="#meae9b3d68a" y="48.4275"/>
      </g>
     </g>
     <g id="text_13">
      <!-- 1.0 -->
      <g transform="translate(20.878125 52.226719)scale(0.1 -0.1)">
       <use xlink:href="#DejaVuSans-31"/>
       <use x="63.623047" xlink:href="#DejaVuSans-2e"/>
       <use x="95.410156" xlink:href="#DejaVuSans-30"/>
      </g>
     </g>
    </g>
    <g id="text_14">
     <!-- True Positive Rate -->
     <defs>
      <path d="M -0.296875 72.90625 
L 61.375 72.90625 
L 61.375 64.59375 
L 35.5 64.59375 
L 35.5 0 
L 25.59375 0 
L 25.59375 64.59375 
L -0.296875 64.59375 
z
" id="DejaVuSans-54"/>
      <path d="M 41.109375 46.296875 
Q 39.59375 47.171875 37.8125 47.578125 
Q 36.03125 48 33.890625 48 
Q 26.265625 48 22.1875 43.046875 
Q 18.109375 38.09375 18.109375 28.8125 
L 18.109375 0 
L 9.078125 0 
L 9.078125 54.6875 
L 18.109375 54.6875 
L 18.109375 46.1875 
Q 20.953125 51.171875 25.484375 53.578125 
Q 30.03125 56 36.53125 56 
Q 37.453125 56 38.578125 55.875 
Q 39.703125 55.765625 41.0625 55.515625 
z
" id="DejaVuSans-72"/>
      <path d="M 8.5 21.578125 
L 8.5 54.6875 
L 17.484375 54.6875 
L 17.484375 21.921875 
Q 17.484375 14.15625 20.5 10.265625 
Q 23.53125 6.390625 29.59375 6.390625 
Q 36.859375 6.390625 41.078125 11.03125 
Q 45.3125 15.671875 45.3125 23.6875 
L 45.3125 54.6875 
L 54.296875 54.6875 
L 54.296875 0 
L 45.3125 0 
L 45.3125 8.40625 
Q 42.046875 3.421875 37.71875 1 
Q 33.40625 -1.421875 27.6875 -1.421875 
Q 18.265625 -1.421875 13.375 4.4375 
Q 8.5 10.296875 8.5 21.578125 
M 31.109375 56 
z
" id="DejaVuSans-75"/>
     </defs>
     <g transform="translate(14.798438 214.357594)rotate(-90)scale(0.1 -0.1)">
      <use xlink:href="#DejaVuSans-54"/>
      <use x="60.865234" xlink:href="#DejaVuSans-72"/>
      <use x="101.978516" xlink:href="#DejaVuSans-75"/>
      <use x="165.357422" xlink:href="#DejaVuSans-65"/>
      <use x="226.880859" xlink:href="#DejaVuSans-20"/>
      <use x="258.667969" xlink:href="#DejaVuSans-50"/>
      <use x="318.923828" xlink:href="#DejaVuSans-6f"/>
      <use x="380.105469" xlink:href="#DejaVuSans-73"/>
      <use x="432.205078" xlink:href="#DejaVuSans-69"/>
      <use x="459.988281" xlink:href="#DejaVuSans-74"/>
      <use x="499.197266" xlink:href="#DejaVuSans-69"/>
      <use x="526.980469" xlink:href="#DejaVuSans-76"/>
      <use x="586.160156" xlink:href="#DejaVuSans-65"/>
      <use x="647.683594" xlink:href="#DejaVuSans-20"/>
      <use x="679.470703" xlink:href="#DejaVuSans-52"/>
      <use x="748.921875" xlink:href="#DejaVuSans-61"/>
      <use x="810.201172" xlink:href="#DejaVuSans-74"/>
      <use x="849.410156" xlink:href="#DejaVuSans-65"/>
     </g>
    </g>
   </g>
   <g id="line2d_13">
    <path clip-path="url(#pd04232c56d)" d="M 43.78125 301.8675 
L 43.893402 301.8675 
L 44.465377 295.100898 
L 44.487808 293.255461 
L 44.656036 293.255461 
L 44.801833 291.717597 
L 44.857909 291.717597 
L 45.026137 288.641869 
L 45.138289 288.641869 
L 45.407454 287.411578 
L 45.598112 284.643422 
L 45.654188 284.643422 
L 45.783163 282.18284 
L 45.934568 280.952549 
L 46.02429 278.491966 
L 46.248594 278.491966 
L 46.517759 276.646529 
L 46.663556 275.416238 
L 46.775708 275.416238 
L 46.910291 273.570801 
L 46.966367 273.570801 
L 47.011228 272.955655 
L 47.179456 272.955655 
L 47.577595 268.342063 
L 49.220622 257.577015 
L 49.38885 257.577015 
L 49.624369 254.501286 
L 52.478637 219.130413 
L 52.590789 219.130413 
L 52.669296 217.284976 
L 52.837524 217.284976 
L 52.882385 216.66983 
L 52.994537 216.66983 
L 53.330993 212.978956 
L 53.443145 212.978956 
L 53.628195 210.518374 
L 53.740347 210.518374 
L 53.785208 209.903228 
L 53.89736 209.903228 
L 54.172133 206.212354 
L 54.396437 206.212354 
L 54.519804 203.751772 
L 54.732893 199.445752 
L 54.833829 198.215461 
L 54.945981 198.215461 
L 55.091779 196.98517 
L 55.484311 196.98517 
L 55.680577 195.139733 
L 55.792729 195.139733 
L 55.938527 193.294296 
L 56.050679 193.294296 
L 56.70116 188.988277 
L 57.116123 184.067112 
L 57.172199 184.067112 
L 57.217059 183.451966 
L 57.329211 183.451966 
L 57.794642 178.223228 
L 57.906794 178.223228 
L 57.996516 176.992937 
L 58.164744 176.992937 
L 58.215212 176.377791 
L 58.327364 176.377791 
L 58.377833 175.762646 
L 58.546061 175.762646 
L 58.635782 174.532354 
L 58.80401 174.532354 
L 58.837656 172.686917 
L 58.949808 172.686917 
L 59.247011 170.226335 
L 59.303087 170.226335 
L 59.409631 169.918762 
L 59.521783 169.918762 
L 59.701226 167.45818 
L 59.813378 167.45818 
L 59.847024 166.227888 
L 59.959176 166.227888 
L 59.992821 164.997597 
L 60.104973 164.997597 
L 60.256379 163.15216 
L 60.368531 163.15216 
L 60.519936 161.921869 
L 60.912468 161.921869 
L 61.002189 160.691578 
L 61.506873 160.691578 
L 61.551734 160.076432 
L 61.719962 160.076432 
L 61.77043 159.153714 
L 61.882582 159.153714 
L 61.972304 157.923422 
L 62.084456 157.923422 
L 62.392874 156.077985 
L 62.583532 154.232549 
L 62.695684 154.232549 
L 62.72933 153.002257 
L 63.121862 153.002257 
L 63.278875 152.387112 
L 64.176091 152.387112 
L 64.254597 150.541675 
L 64.422825 150.541675 
L 64.456471 149.311383 
L 64.680775 149.311383 
L 64.725636 148.696238 
L 65.118168 148.696238 
L 65.163028 148.081092 
L 65.443408 148.081092 
L 65.477054 146.850801 
L 65.925662 146.850801 
L 65.981738 145.62051 
L 66.318194 145.62051 
L 66.407916 143.775073 
L 66.63222 143.775073 
L 66.688296 143.4675 
L 66.721941 142.237209 
L 67.114473 142.237209 
L 67.136904 141.929636 
L 67.361208 141.929636 
L 67.462144 141.31449 
L 67.630372 141.31449 
L 67.675233 140.699345 
L 68.123841 140.699345 
L 68.168702 140.084199 
L 68.280854 140.084199 
L 68.370576 138.853908 
L 68.819184 138.853908 
L 68.864044 138.238762 
L 68.976196 138.238762 
L 69.127602 136.700898 
L 69.800514 136.700898 
L 69.90145 136.085752 
L 70.350058 136.085752 
L 70.394919 135.470607 
L 70.843527 135.470607 
L 70.877173 134.240316 
L 70.989325 134.240316 
L 71.034186 132.702451 
L 73.389378 132.702451 
L 73.423023 130.857015 
L 73.535175 130.857015 
L 73.568821 129.011578 
L 73.737049 129.011578 
L 73.815555 128.088859 
L 74.712771 128.088859 
L 74.869784 127.473714 
L 75.598772 127.473714 
L 75.654848 126.858568 
L 77.841812 126.858568 
L 77.89228 126.550995 
L 78.845572 126.550995 
L 78.879218 124.705558 
L 83.309222 124.705558 
L 83.398943 123.475267 
L 87.997175 123.475267 
L 88.047644 123.167694 
L 90.178532 123.167694 
L 90.223392 122.552549 
L 91.120608 122.552549 
L 91.21033 121.322257 
L 91.49071 121.322257 
L 91.597254 120.707112 
L 92.158014 120.707112 
L 92.208483 120.399539 
L 94.058991 120.399539 
L 94.058991 120.091966 
L 96.189879 120.091966 
L 96.2796 118.246529 
L 97.345044 118.246529 
L 97.860943 115.785947 
L 98.617969 115.785947 
L 98.66283 115.170801 
L 99.588084 115.170801 
L 99.632945 114.248083 
L 100.530161 114.248083 
L 100.636705 113.94051 
L 101.085313 113.94051 
L 101.18625 113.325364 
L 101.287187 112.710218 
L 101.455415 112.710218 
L 101.60682 111.7875 
L 104.242392 111.7875 
L 104.276038 109.942063 
L 104.612494 109.942063 
L 104.646139 108.096626 
L 104.926519 108.096626 
L 104.97138 107.481481 
L 107.999484 107.481481 
L 108.05556 107.173908 
L 108.448092 107.173908 
L 108.554637 106.866335 
L 109.115397 106.866335 
L 109.137827 105.020898 
L 111.717323 105.020898 
L 111.779006 103.790607 
L 112.956602 103.790607 
L 113.001463 102.867888 
L 113.674375 102.867888 
L 113.708021 101.637597 
L 115.250111 101.637597 
L 115.283756 99.79216 
L 115.564136 99.79216 
L 115.608997 99.177015 
L 116.281909 99.177015 
L 117.066973 98.254296 
L 118.356721 98.254296 
L 118.805329 97.946723 
L 119.141785 97.946723 
L 119.141785 94.870995 
L 120.095077 94.870995 
L 120.139938 94.25585 
L 121.261458 94.25585 
L 121.295103 93.025558 
L 122.192319 93.025558 
L 122.225965 91.795267 
L 125.169955 91.795267 
L 127.581223 91.180121 
L 128.085907 91.180121 
L 128.119553 89.94983 
L 129.465377 89.94983 
L 129.510237 89.027112 
L 130.743909 89.027112 
L 131.416821 88.719539 
L 133.435557 88.719539 
L 133.480418 88.104393 
L 138.302954 88.104393 
L 138.38146 85.336238 
L 139.615132 85.336238 
L 139.659993 84.721092 
L 140.669361 84.721092 
L 140.714222 83.798374 
L 141.499286 83.798374 
L 141.532932 82.568083 
L 146.691923 82.568083 
L 146.832113 81.030218 
L 149.635913 81.030218 
L 151.878953 80.722646 
L 152.888321 80.722646 
L 152.989258 79.799927 
L 153.437866 79.799927 
L 153.471512 78.569636 
L 164.210066 78.569636 
L 164.210066 75.493908 
L 167.09798 75.493908 
L 167.14284 74.571189 
L 170.731704 74.571189 
L 170.832641 73.956044 
L 177.225305 73.956044 
L 177.270166 73.340898 
L 177.718774 73.340898 
L 177.763635 72.41818 
L 178.829079 72.41818 
L 178.862724 70.572743 
L 179.703864 70.572743 
L 179.754333 70.26517 
L 182.44598 70.26517 
L 182.546917 69.342451 
L 182.715145 69.342451 
L 182.933842 69.034879 
L 191.849926 69.034879 
L 191.894786 68.419733 
L 197.810804 68.419733 
L 198.029501 68.11216 
L 207.029698 68.11216 
L 207.063344 66.266723 
L 208.52132 66.266723 
L 208.588611 65.344005 
L 212.541969 65.344005 
L 212.642906 64.728859 
L 229.190933 64.728859 
L 229.235794 63.806141 
L 231.310606 63.806141 
L 231.41715 63.498568 
L 232.202214 63.498568 
L 232.269506 62.57585 
L 236.8397 62.57585 
L 236.890168 62.268277 
L 241.600552 62.268277 
L 241.634197 59.500121 
L 242.980021 59.500121 
L 243.080958 58.884976 
L 247.645545 58.884976 
L 247.690405 58.26983 
L 250.550281 58.26983 
L 250.651218 57.039539 
L 255.922362 57.039539 
L 255.97283 56.731966 
L 261.602861 56.731966 
L 261.647722 55.501675 
L 266.302029 55.501675 
L 266.46465 55.194102 
L 266.632878 55.194102 
L 266.795498 54.886529 
L 269.963792 54.886529 
L 270.126413 54.578956 
L 276.350848 54.578956 
L 276.502254 53.656238 
L 277.53966 53.656238 
L 277.646204 53.348665 
L 305.566444 53.348665 
L 305.616912 53.041092 
L 306.06552 53.041092 
L 306.172065 52.733519 
L 307.966497 52.733519 
L 308.140332 51.503228 
L 308.757168 51.503228 
L 308.802029 50.888083 
L 323.107017 50.888083 
L 323.325713 50.58051 
L 332.718443 50.58051 
L 332.931532 49.965364 
L 339.941031 49.965364 
L 340.047576 49.350218 
L 348.178596 49.350218 
L 348.28514 49.042646 
L 361.210658 49.042646 
L 361.255519 48.4275 
L 400.90125 48.4275 
L 400.90125 48.4275 
" style="fill:none;stroke:#1f77b4;stroke-linecap:square;stroke-width:1.5;"/>
   </g>
   <g id="line2d_14">
    <path clip-path="url(#pd04232c56d)" d="M 43.78125 301.8675 
L 44.162567 300.019821 
L 44.274719 299.711874 
L 44.499023 296.940355 
L 44.667251 293.552943 
L 44.779403 293.552943 
L 45.143897 285.85428 
L 45.199973 285.85428 
L 45.256049 285.546334 
L 45.513998 282.158922 
L 45.570074 282.158922 
L 45.676619 280.927135 
L 45.788771 280.927135 
L 45.968214 278.463563 
L 46.080366 278.463563 
L 46.28224 276.615884 
L 46.338316 276.615884 
L 46.618696 274.152312 
L 46.730848 274.152312 
L 46.775708 273.536419 
L 46.88786 273.536419 
L 47.229924 269.84106 
L 47.342076 269.84106 
L 47.398152 269.225167 
L 47.465443 266.761595 
L 47.577595 266.761595 
L 47.745823 264.913916 
L 47.857975 264.913916 
L 48.228077 261.526504 
L 48.284153 261.526504 
L 48.486026 259.986771 
L 48.654254 258.754985 
L 48.71033 258.754985 
L 48.99071 255.675519 
L 49.046786 255.059626 
L 49.158938 255.059626 
L 49.383242 253.82784 
L 49.495394 252.596054 
L 49.719698 251.056321 
L 50.992623 236.274888 
L 51.104775 236.274888 
L 51.194497 234.427208 
L 51.329079 232.579529 
L 51.441231 232.579529 
L 52.164612 225.188812 
L 52.276764 225.188812 
L 52.602005 222.109347 
L 52.630043 222.109347 
L 52.787055 220.877561 
L 52.899207 220.877561 
L 53.101081 219.953721 
L 53.269309 219.953721 
L 53.740347 217.182202 
L 54.357183 217.182202 
L 54.570272 215.64247 
L 54.682424 215.64247 
L 54.727285 215.026577 
L 54.895513 215.026577 
L 54.951589 213.79479 
L 55.231969 213.79479 
L 55.635716 210.099432 
L 55.691792 210.099432 
L 56.67873 200.245143 
L 56.903034 200.245143 
L 57.071262 197.165677 
L 57.183414 194.702105 
L 57.51987 194.702105 
L 57.845111 193.470319 
L 57.957263 193.470319 
L 58.10306 192.238533 
L 58.159136 192.238533 
L 58.316149 189.774961 
L 58.540453 189.774961 
L 58.854479 186.695495 
L 58.966631 186.695495 
L 59.000276 185.463709 
L 59.280656 183.61603 
L 59.549821 183.000137 
L 59.605897 183.000137 
L 59.718049 181.768351 
L 59.830201 181.768351 
L 59.998429 178.688885 
L 60.278809 178.688885 
L 60.351708 177.457099 
L 60.912468 177.457099 
L 60.968544 176.841206 
L 61.080696 176.841206 
L 61.125557 176.225313 
L 61.237709 176.225313 
L 61.293785 174.993527 
L 61.405937 174.993527 
L 61.450797 174.377634 
L 61.619025 174.377634 
L 61.663886 173.761741 
L 62.000342 172.529954 
L 62.112494 172.529954 
L 62.179785 170.066382 
L 62.291937 170.066382 
L 62.348013 169.450489 
L 62.572317 169.450489 
L 62.819052 166.67897 
L 63.379812 166.67897 
L 63.682622 163.599505 
L 63.839635 162.983612 
L 65.241535 162.983612 
L 65.297611 162.367719 
L 65.409763 162.367719 
L 65.454624 161.751826 
L 65.678928 161.751826 
L 65.81351 160.212093 
L 65.858371 159.5962 
L 65.970523 159.5962 
L 66.060244 158.364414 
L 66.172396 158.364414 
L 66.194827 157.748521 
L 66.306979 157.748521 
L 66.363055 156.516735 
L 66.475207 156.516735 
L 66.531283 156.208788 
L 66.699511 156.208788 
L 67.069612 154.669055 
L 67.23784 154.669055 
L 67.282701 154.053162 
L 68.179917 154.053162 
L 68.622918 149.433964 
L 68.903298 149.433964 
L 68.970589 146.970392 
L 69.194893 146.970392 
L 69.239754 146.354499 
L 69.351906 146.354499 
L 69.407982 146.046552 
L 69.542564 144.198873 
L 69.654716 144.198873 
L 69.822944 142.967087 
L 69.87902 142.967087 
L 69.957526 141.735301 
L 70.125754 141.735301 
L 70.226691 140.503515 
L 70.731375 140.503515 
L 71.02297 137.424049 
L 71.135122 137.424049 
L 71.426718 134.65253 
L 71.987478 134.65253 
L 72.032338 134.344584 
L 72.537022 134.344584 
L 72.581883 133.728691 
L 72.750111 133.728691 
L 72.794972 133.112798 
L 72.9632 133.112798 
L 73.064137 131.573065 
L 73.288441 131.573065 
L 73.344517 130.957172 
L 73.680973 130.957172 
L 73.849201 130.649225 
L 74.073505 130.649225 
L 74.118365 130.033332 
L 75.183809 130.033332 
L 75.295961 128.801546 
L 75.800645 128.801546 
L 75.935228 127.56976 
L 76.024949 126.337974 
L 76.193177 126.337974 
L 76.372621 122.642615 
L 76.905343 118.947257 
L 77.353951 118.947257 
L 77.398811 118.331364 
L 77.567039 117.715471 
L 77.735267 117.715471 
L 77.841812 117.099578 
L 77.931533 115.867792 
L 78.660521 115.867792 
L 78.772673 113.404219 
L 78.996977 113.404219 
L 79.097914 112.788326 
L 79.322218 112.788326 
L 79.378294 112.172433 
L 80.079244 112.172433 
L 80.13532 111.55654 
L 80.471776 111.55654 
L 80.516637 110.016807 
L 80.628789 110.016807 
L 80.729726 109.400914 
L 81.010106 109.400914 
L 81.178334 109.092968 
L 81.290486 109.092968 
L 81.335347 108.477075 
L 81.559651 108.477075 
L 81.604511 107.861182 
L 81.884891 107.861182 
L 82.041904 106.937342 
L 82.266208 106.937342 
L 82.434436 104.47377 
L 82.714816 104.47377 
L 82.972766 102.626091 
L 84.31859 102.626091 
L 84.464387 101.394304 
L 84.520463 101.394304 
L 84.666261 100.162518 
L 85.002717 100.162518 
L 85.221413 99.854572 
L 85.557869 99.238679 
L 86.735465 99.238679 
L 86.836402 98.622786 
L 87.329871 95.851267 
L 87.778479 95.851267 
L 87.935492 95.235374 
L 90.78976 95.235374 
L 90.834621 94.619481 
L 92.797281 94.619481 
L 92.842142 94.003587 
L 94.244042 94.003587 
L 94.288902 93.387694 
L 94.961814 93.387694 
L 95.062751 92.771801 
L 97.305791 92.771801 
L 97.361867 91.540015 
L 97.530095 91.540015 
L 97.698323 91.232069 
L 99.604907 91.232069 
L 99.773135 90.000283 
L 99.885287 90.000283 
L 100.109591 89.384389 
L 100.277819 89.384389 
L 100.614275 88.46055 
L 101.960099 88.46055 
L 102.150757 86.612871 
L 102.431137 86.612871 
L 102.58815 85.381084 
L 102.86853 85.381084 
L 103.092834 84.765191 
L 103.765746 84.765191 
L 103.810607 84.149298 
L 104.932127 84.149298 
L 105.100355 83.533405 
L 107.175167 83.533405 
L 107.848079 82.917512 
L 109.025675 82.917512 
L 109.070536 82.301619 
L 109.799524 82.301619 
L 109.90046 81.685726 
L 110.965904 81.685726 
L 111.02198 81.069833 
L 113.769704 81.069833 
L 113.994008 80.761886 
L 115.50806 80.761886 
L 119.040848 80.145993 
L 119.321228 80.145993 
L 119.422165 79.5301 
L 120.487609 79.5301 
L 120.577331 78.298314 
L 121.082015 78.298314 
L 124.502651 77.990368 
L 124.783031 77.682421 
L 127.867211 77.682421 
L 128.085907 77.374474 
L 128.478439 77.374474 
L 128.534515 76.758581 
L 133.693507 76.758581 
L 133.727152 75.526795 
L 133.951456 75.526795 
L 134.119684 75.218849 
L 144.157288 75.218849 
L 144.258225 74.602956 
L 144.762909 74.602956 
L 144.863846 73.987063 
L 145.032074 73.37117 
L 145.36853 73.37117 
L 145.592834 73.063223 
L 148.87328 73.063223 
L 149.0359 72.755276 
L 155.680906 72.755276 
L 155.821096 72.44733 
L 159.522112 72.44733 
L 159.611834 71.215544 
L 161.181962 71.215544 
L 161.344582 70.907597 
L 161.737114 70.907597 
L 162.006279 70.291704 
L 163.576407 70.291704 
L 163.968939 69.983758 
L 169.520463 69.983758 
L 170.193375 69.367865 
L 170.866287 69.367865 
L 171.202743 69.059918 
L 172.716795 69.059918 
L 172.828947 68.751971 
L 185.502122 68.751971 
L 185.67035 68.444025 
L 187.128326 68.444025 
L 187.35263 67.828132 
L 191.55833 67.828132 
L 191.614406 67.520185 
L 192.343394 67.520185 
L 192.67985 66.904292 
L 194.193902 66.904292 
L 194.3397 65.672506 
L 194.564004 65.672506 
L 194.597649 64.44072 
L 195.663093 64.44072 
L 195.713562 64.132773 
L 197.676222 64.132773 
L 198.517362 63.824827 
L 202.47072 63.824827 
L 202.504365 62.593041 
L 207.831585 62.593041 
L 207.954952 60.129468 
L 209.749384 60.129468 
L 209.794245 59.513575 
L 210.411081 59.513575 
L 210.444727 58.281789 
L 212.912071 58.281789 
L 213.528907 57.973843 
L 220.538407 57.973843 
L 220.762711 57.665896 
L 225.585247 57.665896 
L 225.618892 56.43411 
L 230.2732 56.43411 
L 230.306846 55.202324 
L 233.222798 55.202324 
L 233.37981 54.586431 
L 237.249054 54.586431 
L 237.417282 54.278484 
L 238.572448 54.278484 
L 238.617309 53.662591 
L 244.757631 53.662591 
L 245.262315 53.354645 
L 245.766999 53.354645 
L 246.047379 53.046698 
L 246.720291 53.046698 
L 246.765151 52.430805 
L 253.718575 52.430805 
L 253.774651 52.122858 
L 261.462671 52.122858 
L 261.552392 50.891072 
L 285.777224 50.891072 
L 285.81087 49.659286 
L 294.783029 49.659286 
L 294.816675 48.4275 
L 400.90125 48.4275 
L 400.90125 48.4275 
" style="fill:none;stroke:#ff7f0e;stroke-linecap:square;stroke-width:1.5;"/>
   </g>
   <g id="line2d_15">
    <path clip-path="url(#pd04232c56d)" d="M 43.78125 301.8675 
L 43.949481 301.8675 
L 44.330803 297.248302 
L 44.656049 295.092676 
L 44.992511 290.165532 
L 45.093449 285.85428 
L 45.317757 285.85428 
L 45.474772 284.006601 
L 45.586926 284.006601 
L 46.057971 278.463563 
L 46.450509 278.463563 
L 46.730894 276.92383 
L 46.753325 275.999991 
L 46.921555 275.999991 
L 47.033709 275.384098 
L 47.258017 275.384098 
L 50.174014 244.281498 
L 50.342245 239.970246 
L 50.734783 237.506674 
L 51.239475 231.347743 
L 51.463783 231.347743 
L 51.845105 229.192117 
L 51.878751 226.728545 
L 51.990905 226.728545 
L 52.159136 224.880866 
L 52.495597 224.880866 
L 52.540459 224.572919 
L 52.708689 224.572919 
L 52.787197 222.72524 
L 53.090012 218.413988 
L 53.493766 213.486844 
L 53.605919 212.870951 
L 54.166688 212.870951 
L 54.374173 207.63586 
L 54.430249 207.63586 
L 54.710634 207.019967 
L 54.912511 204.248448 
L 55.64151 204.248448 
L 55.697587 203.632555 
L 55.809741 203.632555 
L 55.86021 202.708715 
L 56.140594 201.476929 
L 56.622855 197.165677 
L 56.735009 197.165677 
L 56.914455 194.086212 
L 56.970532 194.086212 
L 57.07147 192.238533 
L 57.351855 192.238533 
L 57.385501 191.006747 
L 57.497655 191.006747 
L 57.688316 189.159067 
L 57.968701 189.159067 
L 58.1145 187.927281 
L 58.271516 186.695495 
L 58.439746 186.695495 
L 58.473392 185.463709 
L 58.6977 185.463709 
L 58.809854 184.847816 
L 58.922007 184.847816 
L 59.000515 183.000137 
L 59.112669 182.384244 
L 59.393053 182.384244 
L 59.437915 181.768351 
L 59.550069 181.768351 
L 59.606145 181.460404 
L 59.998684 181.460404 
L 60.110837 180.228618 
L 60.267853 178.996832 
L 60.49216 178.996832 
L 60.705252 178.380939 
L 60.92956 178.380939 
L 61.322098 174.68558 
L 61.378175 174.68558 
L 61.411821 173.453794 
L 61.692205 173.453794 
L 61.905297 172.222008 
L 61.950159 171.914061 
L 62.208113 168.218703 
L 62.26419 168.218703 
L 62.466066 164.831291 
L 62.567005 164.523344 
L 62.735235 164.523344 
L 62.948327 162.675665 
L 63.060481 162.059772 
L 63.228712 162.059772 
L 63.335258 159.288253 
L 63.671719 159.288253 
L 63.806304 157.748521 
L 64.086688 157.748521 
L 64.198842 156.516735 
L 64.310996 156.516735 
L 64.355857 155.900841 
L 64.636242 155.900841 
L 64.692318 155.284948 
L 64.804472 155.284948 
L 64.950272 154.669055 
L 65.230656 154.669055 
L 65.432533 149.741911 
L 65.937225 149.741911 
L 66.083025 147.894231 
L 66.127887 147.278338 
L 66.520425 147.278338 
L 66.565286 146.662445 
L 66.901747 146.662445 
L 67.13727 144.198873 
L 67.193347 144.198873 
L 67.294286 142.967087 
L 67.406439 142.967087 
L 67.619532 141.427354 
L 67.675608 141.427354 
L 67.776547 140.811461 
L 67.888701 140.811461 
L 67.922347 139.579675 
L 68.0345 139.579675 
L 68.191516 138.655835 
L 68.415823 138.655835 
L 68.572838 138.039942 
L 68.741069 138.039942 
L 68.785931 137.424049 
L 68.898084 137.424049 
L 69.111177 134.036637 
L 70.288791 134.036637 
L 70.400945 133.420744 
L 70.961714 133.420744 
L 71.376682 131.573065 
L 71.432759 131.573065 
L 71.657067 130.957172 
L 72.105682 130.957172 
L 72.268305 130.033332 
L 72.324382 130.033332 
L 72.414105 129.417439 
L 72.806643 129.417439 
L 72.963658 128.4936 
L 73.244043 128.4936 
L 73.46835 127.877707 
L 73.636581 127.877707 
L 73.748734 126.64592 
L 75.318887 126.64592 
L 75.419825 126.030027 
L 75.868441 126.030027 
L 75.913302 125.414134 
L 76.081533 125.414134 
L 76.193686 124.182348 
L 76.361917 124.182348 
L 76.395563 122.950562 
L 77.068486 122.950562 
L 77.113347 122.334669 
L 77.281578 122.334669 
L 77.618039 121.102883 
L 77.842347 121.102883 
L 77.887208 120.48699 
L 78.223669 120.48699 
L 78.436762 119.871097 
L 78.604992 119.871097 
L 78.762007 118.63931 
L 78.818084 118.63931 
L 79.042392 118.331364 
L 79.188192 115.559845 
L 79.277915 114.328059 
L 79.446145 114.328059 
L 79.591945 113.096273 
L 79.984483 113.096273 
L 80.085422 112.48038 
L 80.253652 112.48038 
L 80.309729 111.864487 
L 80.421883 111.864487 
L 80.455529 110.6327 
L 80.960221 110.6327 
L 81.049944 109.400914 
L 81.722867 109.400914 
L 81.767728 108.785021 
L 82.27242 108.785021 
L 82.373359 108.169128 
L 82.597666 108.169128 
L 82.70982 106.321449 
L 83.046281 106.321449 
L 83.326665 105.705556 
L 83.887434 105.705556 
L 84.038842 104.47377 
L 84.375303 103.241984 
L 85.384687 103.241984 
L 85.407118 101.394304 
L 85.575348 101.394304 
L 85.732364 100.162518 
L 86.461363 100.162518 
L 86.562301 99.546625 
L 86.730532 99.546625 
L 86.775394 98.930732 
L 86.887547 98.930732 
L 86.988486 98.314839 
L 87.308124 97.390999 
L 88.037123 97.390999 
L 88.149277 97.083053 
L 88.99043 97.083053 
L 89.158661 96.46716 
L 89.192307 95.235374 
L 89.977383 95.235374 
L 90.078322 94.619481 
L 91.816705 94.619481 
L 91.917643 94.003587 
L 92.310182 94.003587 
L 92.332612 93.695641 
L 92.500843 93.695641 
L 92.770012 93.079748 
L 94.171934 93.079748 
L 94.317734 90.616176 
L 94.93458 90.616176 
L 95.035518 90.000283 
L 95.54021 90.000283 
L 95.708441 88.768496 
L 97.33467 88.768496 
L 97.491685 87.53671 
L 100.744144 87.53671 
L 100.856298 87.228764 
L 101.304913 87.228764 
L 101.461928 85.996978 
L 102.022697 85.996978 
L 102.190928 85.689031 
L 102.471312 85.689031 
L 102.572251 84.149298 
L 103.357327 84.149298 
L 103.458265 83.533405 
L 103.850803 83.225459 
L 104.131188 83.225459 
L 104.220911 81.993673 
L 106.463986 81.993673 
L 106.564924 81.377779 
L 107.686462 81.377779 
L 107.736931 80.761886 
L 108.858469 80.761886 
L 109.015484 79.5301 
L 110.080945 79.5301 
L 112.548327 77.374474 
L 114.623172 77.374474 
L 114.84748 77.066528 
L 115.576479 77.066528 
L 115.632556 76.142688 
L 116.305478 76.142688 
L 116.754093 75.218849 
L 118.660707 75.218849 
L 118.885015 74.910902 
L 119.053245 74.910902 
L 119.501861 74.602956 
L 121.184167 74.602956 
L 121.285105 73.987063 
L 125.462833 73.987063 
L 125.507694 73.37117 
L 129.54523 73.37117 
L 129.595699 72.139383 
L 131.278005 72.139383 
L 131.390159 71.831437 
L 132.063082 71.831437 
L 132.220097 71.215544 
L 133.117327 71.215544 
L 133.162188 70.599651 
L 135.517417 70.599651 
L 135.573494 69.675811 
L 137.648339 69.675811 
L 137.6932 69.059918 
L 138.310046 69.059918 
L 138.354907 68.444025 
L 139.308214 68.444025 
L 139.420368 68.136078 
L 140.261521 68.136078 
L 140.317598 67.520185 
L 143.51398 67.520185 
L 143.558842 66.904292 
L 145.465456 66.904292 
L 149.615145 65.980453 
L 155.054602 65.980453 
L 155.110679 65.36456 
L 158.391177 65.36456 
L 158.436038 64.748666 
L 162.081035 64.748666 
L 162.187581 64.44072 
L 164.823195 64.44072 
L 164.879271 63.824827 
L 167.739192 63.824827 
L 167.789662 63.51688 
L 170.537429 63.208934 
L 173.397349 63.208934 
L 173.453426 62.593041 
L 176.08904 62.593041 
L 176.133901 61.977148 
L 181.937858 61.977148 
L 182.050012 61.361255 
L 194.538333 61.361255 
L 194.695348 60.745361 
L 195.087887 60.745361 
L 195.132748 60.129468 
L 195.581363 60.129468 
L 195.63744 58.897682 
L 199.674975 58.897682 
L 199.719837 57.665896 
L 200.729221 57.665896 
L 200.830159 57.050003 
L 202.736773 57.050003 
L 202.848927 55.818217 
L 205.708848 55.818217 
L 205.753709 55.202324 
L 210.183783 55.202324 
L 210.228644 54.586431 
L 210.452952 54.586431 
L 210.497813 53.970538 
L 212.067966 53.970538 
L 212.281058 53.354645 
L 212.841827 53.354645 
L 213.00445 53.046698 
L 216.59337 53.046698 
L 216.638231 52.430805 
L 233.657564 52.430805 
L 233.747287 51.199019 
L 260.720266 51.199019 
L 260.933359 50.583126 
L 288.551222 50.583126 
L 288.65216 49.967233 
L 301.998457 49.967233 
L 302.099396 49.35134 
L 316.376569 49.35134 
L 316.539192 49.043393 
L 385.042708 49.043393 
L 385.08757 48.4275 
L 400.90125 48.4275 
L 400.90125 48.4275 
" style="fill:none;stroke:#2ca02c;stroke-linecap:square;stroke-width:1.5;"/>
   </g>
   <g id="line2d_16">
    <path clip-path="url(#pd04232c56d)" d="M 43.78125 301.8675 
L 400.90125 48.4275 
" style="fill:none;stroke:#000000;stroke-dasharray:5.6,2.4;stroke-dashoffset:0;stroke-width:1.5;"/>
   </g>
   <g id="patch_3">
    <path d="M 43.78125 301.8675 
L 43.78125 35.7555 
" style="fill:none;stroke:#000000;stroke-linecap:square;stroke-linejoin:miter;stroke-width:0.8;"/>
   </g>
   <g id="patch_4">
    <path d="M 400.90125 301.8675 
L 400.90125 35.7555 
" style="fill:none;stroke:#000000;stroke-linecap:square;stroke-linejoin:miter;stroke-width:0.8;"/>
   </g>
   <g id="patch_5">
    <path d="M 43.78125 301.8675 
L 400.90125 301.8675 
" style="fill:none;stroke:#000000;stroke-linecap:square;stroke-linejoin:miter;stroke-width:0.8;"/>
   </g>
   <g id="patch_6">
    <path d="M 43.78125 35.7555 
L 400.90125 35.7555 
" style="fill:none;stroke:#000000;stroke-linecap:square;stroke-linejoin:miter;stroke-width:0.8;"/>
   </g>
   <g id="text_15">
    <!-- ROC Curve GradientBoosting + RandomOverSampler -->
    <defs>
     <path d="M 39.40625 66.21875 
Q 28.65625 66.21875 22.328125 58.203125 
Q 16.015625 50.203125 16.015625 36.375 
Q 16.015625 22.609375 22.328125 14.59375 
Q 28.65625 6.59375 39.40625 6.59375 
Q 50.140625 6.59375 56.421875 14.59375 
Q 62.703125 22.609375 62.703125 36.375 
Q 62.703125 50.203125 56.421875 58.203125 
Q 50.140625 66.21875 39.40625 66.21875 
M 39.40625 74.21875 
Q 54.734375 74.21875 63.90625 63.9375 
Q 73.09375 53.65625 73.09375 36.375 
Q 73.09375 19.140625 63.90625 8.859375 
Q 54.734375 -1.421875 39.40625 -1.421875 
Q 24.03125 -1.421875 14.8125 8.828125 
Q 5.609375 19.09375 5.609375 36.375 
Q 5.609375 53.65625 14.8125 63.9375 
Q 24.03125 74.21875 39.40625 74.21875 
" id="DejaVuSans-4f"/>
     <path d="M 64.40625 67.28125 
L 64.40625 56.890625 
Q 59.421875 61.53125 53.78125 63.8125 
Q 48.140625 66.109375 41.796875 66.109375 
Q 29.296875 66.109375 22.65625 58.46875 
Q 16.015625 50.828125 16.015625 36.375 
Q 16.015625 21.96875 22.65625 14.328125 
Q 29.296875 6.6875 41.796875 6.6875 
Q 48.140625 6.6875 53.78125 8.984375 
Q 59.421875 11.28125 64.40625 15.921875 
L 64.40625 5.609375 
Q 59.234375 2.09375 53.4375 0.328125 
Q 47.65625 -1.421875 41.21875 -1.421875 
Q 24.65625 -1.421875 15.125 8.703125 
Q 5.609375 18.84375 5.609375 36.375 
Q 5.609375 53.953125 15.125 64.078125 
Q 24.65625 74.21875 41.21875 74.21875 
Q 47.75 74.21875 53.53125 72.484375 
Q 59.328125 70.75 64.40625 67.28125 
" id="DejaVuSans-43"/>
     <path d="M 59.515625 10.40625 
L 59.515625 29.984375 
L 43.40625 29.984375 
L 43.40625 38.09375 
L 69.28125 38.09375 
L 69.28125 6.78125 
Q 63.578125 2.734375 56.6875 0.65625 
Q 49.8125 -1.421875 42 -1.421875 
Q 24.90625 -1.421875 15.25 8.5625 
Q 5.609375 18.5625 5.609375 36.375 
Q 5.609375 54.25 15.25 64.234375 
Q 24.90625 74.21875 42 74.21875 
Q 49.125 74.21875 55.546875 72.453125 
Q 61.96875 70.703125 67.390625 67.28125 
L 67.390625 56.78125 
Q 61.921875 61.421875 55.765625 63.765625 
Q 49.609375 66.109375 42.828125 66.109375 
Q 29.4375 66.109375 22.71875 58.640625 
Q 16.015625 51.171875 16.015625 36.375 
Q 16.015625 21.625 22.71875 14.15625 
Q 29.4375 6.6875 42.828125 6.6875 
Q 48.046875 6.6875 52.140625 7.59375 
Q 56.25 8.5 59.515625 10.40625 
" id="DejaVuSans-47"/>
     <path d="M 45.40625 46.390625 
L 45.40625 75.984375 
L 54.390625 75.984375 
L 54.390625 0 
L 45.40625 0 
L 45.40625 8.203125 
Q 42.578125 3.328125 38.25 0.953125 
Q 33.9375 -1.421875 27.875 -1.421875 
Q 17.96875 -1.421875 11.734375 6.484375 
Q 5.515625 14.40625 5.515625 27.296875 
Q 5.515625 40.1875 11.734375 48.09375 
Q 17.96875 56 27.875 56 
Q 33.9375 56 38.25 53.625 
Q 42.578125 51.265625 45.40625 46.390625 
M 14.796875 27.296875 
Q 14.796875 17.390625 18.875 11.75 
Q 22.953125 6.109375 30.078125 6.109375 
Q 37.203125 6.109375 41.296875 11.75 
Q 45.40625 17.390625 45.40625 27.296875 
Q 45.40625 37.203125 41.296875 42.84375 
Q 37.203125 48.484375 30.078125 48.484375 
Q 22.953125 48.484375 18.875 42.84375 
Q 14.796875 37.203125 14.796875 27.296875 
" id="DejaVuSans-64"/>
     <path d="M 54.890625 33.015625 
L 54.890625 0 
L 45.90625 0 
L 45.90625 32.71875 
Q 45.90625 40.484375 42.875 44.328125 
Q 39.84375 48.1875 33.796875 48.1875 
Q 26.515625 48.1875 22.3125 43.546875 
Q 18.109375 38.921875 18.109375 30.90625 
L 18.109375 0 
L 9.078125 0 
L 9.078125 54.6875 
L 18.109375 54.6875 
L 18.109375 46.1875 
Q 21.34375 51.125 25.703125 53.5625 
Q 30.078125 56 35.796875 56 
Q 45.21875 56 50.046875 50.171875 
Q 54.890625 44.34375 54.890625 33.015625 
" id="DejaVuSans-6e"/>
     <path d="M 19.671875 34.8125 
L 19.671875 8.109375 
L 35.5 8.109375 
Q 43.453125 8.109375 47.28125 11.40625 
Q 51.125 14.703125 51.125 21.484375 
Q 51.125 28.328125 47.28125 31.5625 
Q 43.453125 34.8125 35.5 34.8125 
z
M 19.671875 64.796875 
L 19.671875 42.828125 
L 34.28125 42.828125 
Q 41.5 42.828125 45.03125 45.53125 
Q 48.578125 48.25 48.578125 53.8125 
Q 48.578125 59.328125 45.03125 62.0625 
Q 41.5 64.796875 34.28125 64.796875 
z
M 9.8125 72.90625 
L 35.015625 72.90625 
Q 46.296875 72.90625 52.390625 68.21875 
Q 58.5 63.53125 58.5 54.890625 
Q 58.5 48.1875 55.375 44.234375 
Q 52.25 40.28125 46.1875 39.3125 
Q 53.46875 37.75 57.5 32.78125 
Q 61.53125 27.828125 61.53125 20.40625 
Q 61.53125 10.640625 54.890625 5.3125 
Q 48.25 0 35.984375 0 
L 9.8125 0 
z
" id="DejaVuSans-42"/>
     <path d="M 45.40625 27.984375 
Q 45.40625 37.75 41.375 43.109375 
Q 37.359375 48.484375 30.078125 48.484375 
Q 22.859375 48.484375 18.828125 43.109375 
Q 14.796875 37.75 14.796875 27.984375 
Q 14.796875 18.265625 18.828125 12.890625 
Q 22.859375 7.515625 30.078125 7.515625 
Q 37.359375 7.515625 41.375 12.890625 
Q 45.40625 18.265625 45.40625 27.984375 
M 54.390625 6.78125 
Q 54.390625 -7.171875 48.1875 -13.984375 
Q 42 -20.796875 29.203125 -20.796875 
Q 24.46875 -20.796875 20.265625 -20.09375 
Q 16.0625 -19.390625 12.109375 -17.921875 
L 12.109375 -9.1875 
Q 16.0625 -11.328125 19.921875 -12.34375 
Q 23.78125 -13.375 27.78125 -13.375 
Q 36.625 -13.375 41.015625 -8.765625 
Q 45.40625 -4.15625 45.40625 5.171875 
L 45.40625 9.625 
Q 42.625 4.78125 38.28125 2.390625 
Q 33.9375 0 27.875 0 
Q 17.828125 0 11.671875 7.65625 
Q 5.515625 15.328125 5.515625 27.984375 
Q 5.515625 40.671875 11.671875 48.328125 
Q 17.828125 56 27.875 56 
Q 33.9375 56 38.28125 53.609375 
Q 42.625 51.21875 45.40625 46.390625 
L 45.40625 54.6875 
L 54.390625 54.6875 
z
" id="DejaVuSans-67"/>
     <path d="M 46 62.703125 
L 46 35.5 
L 73.1875 35.5 
L 73.1875 27.203125 
L 46 27.203125 
L 46 0 
L 37.796875 0 
L 37.796875 27.203125 
L 10.59375 27.203125 
L 10.59375 35.5 
L 37.796875 35.5 
L 37.796875 62.703125 
z
" id="DejaVuSans-2b"/>
     <path d="M 52 44.1875 
Q 55.375 50.25 60.0625 53.125 
Q 64.75 56 71.09375 56 
Q 79.640625 56 84.28125 50.015625 
Q 88.921875 44.046875 88.921875 33.015625 
L 88.921875 0 
L 79.890625 0 
L 79.890625 32.71875 
Q 79.890625 40.578125 77.09375 44.375 
Q 74.3125 48.1875 68.609375 48.1875 
Q 61.625 48.1875 57.5625 43.546875 
Q 53.515625 38.921875 53.515625 30.90625 
L 53.515625 0 
L 44.484375 0 
L 44.484375 32.71875 
Q 44.484375 40.625 41.703125 44.40625 
Q 38.921875 48.1875 33.109375 48.1875 
Q 26.21875 48.1875 22.15625 43.53125 
Q 18.109375 38.875 18.109375 30.90625 
L 18.109375 0 
L 9.078125 0 
L 9.078125 54.6875 
L 18.109375 54.6875 
L 18.109375 46.1875 
Q 21.1875 51.21875 25.484375 53.609375 
Q 29.78125 56 35.6875 56 
Q 41.65625 56 45.828125 52.96875 
Q 50 49.953125 52 44.1875 
" id="DejaVuSans-6d"/>
     <path d="M 53.515625 70.515625 
L 53.515625 60.890625 
Q 47.90625 63.578125 42.921875 64.890625 
Q 37.9375 66.21875 33.296875 66.21875 
Q 25.25 66.21875 20.875 63.09375 
Q 16.5 59.96875 16.5 54.203125 
Q 16.5 49.359375 19.40625 46.890625 
Q 22.3125 44.4375 30.421875 42.921875 
L 36.375 41.703125 
Q 47.40625 39.59375 52.65625 34.296875 
Q 57.90625 29 57.90625 20.125 
Q 57.90625 9.515625 50.796875 4.046875 
Q 43.703125 -1.421875 29.984375 -1.421875 
Q 24.8125 -1.421875 18.96875 -0.25 
Q 13.140625 0.921875 6.890625 3.21875 
L 6.890625 13.375 
Q 12.890625 10.015625 18.65625 8.296875 
Q 24.421875 6.59375 29.984375 6.59375 
Q 38.421875 6.59375 43.015625 9.90625 
Q 47.609375 13.234375 47.609375 19.390625 
Q 47.609375 24.75 44.3125 27.78125 
Q 41.015625 30.8125 33.5 32.328125 
L 27.484375 33.5 
Q 16.453125 35.6875 11.515625 40.375 
Q 6.59375 45.0625 6.59375 53.421875 
Q 6.59375 63.09375 13.40625 68.65625 
Q 20.21875 74.21875 32.171875 74.21875 
Q 37.3125 74.21875 42.625 73.28125 
Q 47.953125 72.359375 53.515625 70.515625 
" id="DejaVuSans-53"/>
     <path d="M 18.109375 8.203125 
L 18.109375 -20.796875 
L 9.078125 -20.796875 
L 9.078125 54.6875 
L 18.109375 54.6875 
L 18.109375 46.390625 
Q 20.953125 51.265625 25.265625 53.625 
Q 29.59375 56 35.59375 56 
Q 45.5625 56 51.78125 48.09375 
Q 58.015625 40.1875 58.015625 27.296875 
Q 58.015625 14.40625 51.78125 6.484375 
Q 45.5625 -1.421875 35.59375 -1.421875 
Q 29.59375 -1.421875 25.265625 0.953125 
Q 20.953125 3.328125 18.109375 8.203125 
M 48.6875 27.296875 
Q 48.6875 37.203125 44.609375 42.84375 
Q 40.53125 48.484375 33.40625 48.484375 
Q 26.265625 48.484375 22.1875 42.84375 
Q 18.109375 37.203125 18.109375 27.296875 
Q 18.109375 17.390625 22.1875 11.75 
Q 26.265625 6.109375 33.40625 6.109375 
Q 40.53125 6.109375 44.609375 11.75 
Q 48.6875 17.390625 48.6875 27.296875 
" id="DejaVuSans-70"/>
    </defs>
    <g transform="translate(62.203125 16.318125)scale(0.12 -0.12)">
     <use xlink:href="#DejaVuSans-52"/>
     <use x="69.482422" xlink:href="#DejaVuSans-4f"/>
     <use x="148.193359" xlink:href="#DejaVuSans-43"/>
     <use x="218.017578" xlink:href="#DejaVuSans-20"/>
     <use x="249.804688" xlink:href="#DejaVuSans-43"/>
     <use x="319.628906" xlink:href="#DejaVuSans-75"/>
     <use x="383.007812" xlink:href="#DejaVuSans-72"/>
     <use x="424.121094" xlink:href="#DejaVuSans-76"/>
     <use x="483.300781" xlink:href="#DejaVuSans-65"/>
     <use x="544.824219" xlink:href="#DejaVuSans-20"/>
     <use x="576.611328" xlink:href="#DejaVuSans-47"/>
     <use x="654.101562" xlink:href="#DejaVuSans-72"/>
     <use x="695.214844" xlink:href="#DejaVuSans-61"/>
     <use x="756.494141" xlink:href="#DejaVuSans-64"/>
     <use x="819.970703" xlink:href="#DejaVuSans-69"/>
     <use x="847.753906" xlink:href="#DejaVuSans-65"/>
     <use x="909.277344" xlink:href="#DejaVuSans-6e"/>
     <use x="972.65625" xlink:href="#DejaVuSans-74"/>
     <use x="1011.865234" xlink:href="#DejaVuSans-42"/>
     <use x="1080.46875" xlink:href="#DejaVuSans-6f"/>
     <use x="1141.650391" xlink:href="#DejaVuSans-6f"/>
     <use x="1202.832031" xlink:href="#DejaVuSans-73"/>
     <use x="1254.931641" xlink:href="#DejaVuSans-74"/>
     <use x="1294.140625" xlink:href="#DejaVuSans-69"/>
     <use x="1321.923828" xlink:href="#DejaVuSans-6e"/>
     <use x="1385.302734" xlink:href="#DejaVuSans-67"/>
     <use x="1448.779297" xlink:href="#DejaVuSans-20"/>
     <use x="1480.566406" xlink:href="#DejaVuSans-2b"/>
     <use x="1564.355469" xlink:href="#DejaVuSans-20"/>
     <use x="1596.142578" xlink:href="#DejaVuSans-52"/>
     <use x="1665.59375" xlink:href="#DejaVuSans-61"/>
     <use x="1726.873047" xlink:href="#DejaVuSans-6e"/>
     <use x="1790.251953" xlink:href="#DejaVuSans-64"/>
     <use x="1853.728516" xlink:href="#DejaVuSans-6f"/>
     <use x="1914.910156" xlink:href="#DejaVuSans-6d"/>
     <use x="2012.322266" xlink:href="#DejaVuSans-4f"/>
     <use x="2091.033203" xlink:href="#DejaVuSans-76"/>
     <use x="2150.212891" xlink:href="#DejaVuSans-65"/>
     <use x="2211.736328" xlink:href="#DejaVuSans-72"/>
     <use x="2252.849609" xlink:href="#DejaVuSans-53"/>
     <use x="2316.326172" xlink:href="#DejaVuSans-61"/>
     <use x="2377.605469" xlink:href="#DejaVuSans-6d"/>
     <use x="2475.017578" xlink:href="#DejaVuSans-70"/>
     <use x="2538.494141" xlink:href="#DejaVuSans-6c"/>
     <use x="2566.277344" xlink:href="#DejaVuSans-65"/>
     <use x="2627.800781" xlink:href="#DejaVuSans-72"/>
    </g>
    <!-- Train: 12   Test: [1, 2, 4, 6, 8, 10] -->
    <defs>
     <path d="M 11.71875 12.40625 
L 22.015625 12.40625 
L 22.015625 0 
L 11.71875 0 
z
M 11.71875 51.703125 
L 22.015625 51.703125 
L 22.015625 39.3125 
L 11.71875 39.3125 
z
" id="DejaVuSans-3a"/>
     <path d="M 8.59375 75.984375 
L 29.296875 75.984375 
L 29.296875 69 
L 17.578125 69 
L 17.578125 -6.203125 
L 29.296875 -6.203125 
L 29.296875 -13.1875 
L 8.59375 -13.1875 
z
" id="DejaVuSans-5b"/>
     <path d="M 11.71875 12.40625 
L 22.015625 12.40625 
L 22.015625 4 
L 14.015625 -11.625 
L 7.71875 -11.625 
L 11.71875 4 
z
" id="DejaVuSans-2c"/>
     <path d="M 30.421875 75.984375 
L 30.421875 -13.1875 
L 9.71875 -13.1875 
L 9.71875 -6.203125 
L 21.390625 -6.203125 
L 21.390625 69 
L 9.71875 69 
L 9.71875 75.984375 
z
" id="DejaVuSans-5d"/>
    </defs>
    <g transform="translate(122.573438 29.7555)scale(0.12 -0.12)">
     <use xlink:href="#DejaVuSans-54"/>
     <use x="60.865234" xlink:href="#DejaVuSans-72"/>
     <use x="101.978516" xlink:href="#DejaVuSans-61"/>
     <use x="163.257812" xlink:href="#DejaVuSans-69"/>
     <use x="191.041016" xlink:href="#DejaVuSans-6e"/>
     <use x="254.419922" xlink:href="#DejaVuSans-3a"/>
     <use x="288.111328" xlink:href="#DejaVuSans-20"/>
     <use x="319.898438" xlink:href="#DejaVuSans-31"/>
     <use x="383.521484" xlink:href="#DejaVuSans-32"/>
     <use x="447.144531" xlink:href="#DejaVuSans-20"/>
     <use x="478.931641" xlink:href="#DejaVuSans-20"/>
     <use x="510.71875" xlink:href="#DejaVuSans-20"/>
     <use x="542.505859" xlink:href="#DejaVuSans-54"/>
     <use x="603.324219" xlink:href="#DejaVuSans-65"/>
     <use x="664.847656" xlink:href="#DejaVuSans-73"/>
     <use x="716.947266" xlink:href="#DejaVuSans-74"/>
     <use x="756.15625" xlink:href="#DejaVuSans-3a"/>
     <use x="789.847656" xlink:href="#DejaVuSans-20"/>
     <use x="821.634766" xlink:href="#DejaVuSans-5b"/>
     <use x="860.648438" xlink:href="#DejaVuSans-31"/>
     <use x="924.271484" xlink:href="#DejaVuSans-2c"/>
     <use x="956.058594" xlink:href="#DejaVuSans-20"/>
     <use x="987.845703" xlink:href="#DejaVuSans-32"/>
     <use x="1051.46875" xlink:href="#DejaVuSans-2c"/>
     <use x="1083.255859" xlink:href="#DejaVuSans-20"/>
     <use x="1115.042969" xlink:href="#DejaVuSans-34"/>
     <use x="1178.666016" xlink:href="#DejaVuSans-2c"/>
     <use x="1210.453125" xlink:href="#DejaVuSans-20"/>
     <use x="1242.240234" xlink:href="#DejaVuSans-36"/>
     <use x="1305.863281" xlink:href="#DejaVuSans-2c"/>
     <use x="1337.650391" xlink:href="#DejaVuSans-20"/>
     <use x="1369.4375" xlink:href="#DejaVuSans-38"/>
     <use x="1433.060547" xlink:href="#DejaVuSans-2c"/>
     <use x="1464.847656" xlink:href="#DejaVuSans-20"/>
     <use x="1496.634766" xlink:href="#DejaVuSans-31"/>
     <use x="1560.257812" xlink:href="#DejaVuSans-30"/>
     <use x="1623.880859" xlink:href="#DejaVuSans-5d"/>
    </g>
   </g>
   <g id="legend_1">
    <g id="patch_7">
     <path d="M 217.087188 296.8675 
L 393.90125 296.8675 
Q 395.90125 296.8675 395.90125 294.8675 
L 395.90125 251.833125 
Q 395.90125 249.833125 393.90125 249.833125 
L 217.087188 249.833125 
Q 215.087188 249.833125 215.087188 251.833125 
L 215.087188 294.8675 
Q 215.087188 296.8675 217.087188 296.8675 
z
" style="fill:#ffffff;opacity:0.8;stroke:#cccccc;stroke-linejoin:miter;"/>
    </g>
    <g id="line2d_17">
     <path d="M 219.087188 257.931562 
L 239.087188 257.931562 
" style="fill:none;stroke:#1f77b4;stroke-linecap:square;stroke-width:1.5;"/>
    </g>
    <g id="line2d_18"/>
    <g id="text_16">
     <!-- ROC curve - 0 (AUC = 0.879) -->
     <defs>
      <path d="M 48.78125 52.59375 
L 48.78125 44.1875 
Q 44.96875 46.296875 41.140625 47.34375 
Q 37.3125 48.390625 33.40625 48.390625 
Q 24.65625 48.390625 19.8125 42.84375 
Q 14.984375 37.3125 14.984375 27.296875 
Q 14.984375 17.28125 19.8125 11.734375 
Q 24.65625 6.203125 33.40625 6.203125 
Q 37.3125 6.203125 41.140625 7.25 
Q 44.96875 8.296875 48.78125 10.40625 
L 48.78125 2.09375 
Q 45.015625 0.34375 40.984375 -0.53125 
Q 36.96875 -1.421875 32.421875 -1.421875 
Q 20.0625 -1.421875 12.78125 6.34375 
Q 5.515625 14.109375 5.515625 27.296875 
Q 5.515625 40.671875 12.859375 48.328125 
Q 20.21875 56 33.015625 56 
Q 37.15625 56 41.109375 55.140625 
Q 45.0625 54.296875 48.78125 52.59375 
" id="DejaVuSans-63"/>
      <path d="M 4.890625 31.390625 
L 31.203125 31.390625 
L 31.203125 23.390625 
L 4.890625 23.390625 
z
" id="DejaVuSans-2d"/>
      <path d="M 31 75.875 
Q 24.46875 64.65625 21.28125 53.65625 
Q 18.109375 42.671875 18.109375 31.390625 
Q 18.109375 20.125 21.3125 9.0625 
Q 24.515625 -2 31 -13.1875 
L 23.1875 -13.1875 
Q 15.875 -1.703125 12.234375 9.375 
Q 8.59375 20.453125 8.59375 31.390625 
Q 8.59375 42.28125 12.203125 53.3125 
Q 15.828125 64.359375 23.1875 75.875 
z
" id="DejaVuSans-28"/>
      <path d="M 34.1875 63.1875 
L 20.796875 26.90625 
L 47.609375 26.90625 
z
M 28.609375 72.90625 
L 39.796875 72.90625 
L 67.578125 0 
L 57.328125 0 
L 50.6875 18.703125 
L 17.828125 18.703125 
L 11.1875 0 
L 0.78125 0 
z
" id="DejaVuSans-41"/>
      <path d="M 8.6875 72.90625 
L 18.609375 72.90625 
L 18.609375 28.609375 
Q 18.609375 16.890625 22.84375 11.734375 
Q 27.09375 6.59375 36.625 6.59375 
Q 46.09375 6.59375 50.34375 11.734375 
Q 54.59375 16.890625 54.59375 28.609375 
L 54.59375 72.90625 
L 64.5 72.90625 
L 64.5 27.390625 
Q 64.5 13.140625 57.4375 5.859375 
Q 50.390625 -1.421875 36.625 -1.421875 
Q 22.796875 -1.421875 15.734375 5.859375 
Q 8.6875 13.140625 8.6875 27.390625 
z
" id="DejaVuSans-55"/>
      <path d="M 10.59375 45.40625 
L 73.1875 45.40625 
L 73.1875 37.203125 
L 10.59375 37.203125 
z
M 10.59375 25.484375 
L 73.1875 25.484375 
L 73.1875 17.1875 
L 10.59375 17.1875 
z
" id="DejaVuSans-3d"/>
      <path d="M 8.203125 72.90625 
L 55.078125 72.90625 
L 55.078125 68.703125 
L 28.609375 0 
L 18.3125 0 
L 43.21875 64.59375 
L 8.203125 64.59375 
z
" id="DejaVuSans-37"/>
      <path d="M 10.984375 1.515625 
L 10.984375 10.5 
Q 14.703125 8.734375 18.5 7.8125 
Q 22.3125 6.890625 25.984375 6.890625 
Q 35.75 6.890625 40.890625 13.453125 
Q 46.046875 20.015625 46.78125 33.40625 
Q 43.953125 29.203125 39.59375 26.953125 
Q 35.25 24.703125 29.984375 24.703125 
Q 19.046875 24.703125 12.671875 31.3125 
Q 6.296875 37.9375 6.296875 49.421875 
Q 6.296875 60.640625 12.9375 67.421875 
Q 19.578125 74.21875 30.609375 74.21875 
Q 43.265625 74.21875 49.921875 64.515625 
Q 56.59375 54.828125 56.59375 36.375 
Q 56.59375 19.140625 48.40625 8.859375 
Q 40.234375 -1.421875 26.421875 -1.421875 
Q 22.703125 -1.421875 18.890625 -0.6875 
Q 15.09375 0.046875 10.984375 1.515625 
M 30.609375 32.421875 
Q 37.25 32.421875 41.125 36.953125 
Q 45.015625 41.5 45.015625 49.421875 
Q 45.015625 57.28125 41.125 61.84375 
Q 37.25 66.40625 30.609375 66.40625 
Q 23.96875 66.40625 20.09375 61.84375 
Q 16.21875 57.28125 16.21875 49.421875 
Q 16.21875 41.5 20.09375 36.953125 
Q 23.96875 32.421875 30.609375 32.421875 
" id="DejaVuSans-39"/>
      <path d="M 8.015625 75.875 
L 15.828125 75.875 
Q 23.140625 64.359375 26.78125 53.3125 
Q 30.421875 42.28125 30.421875 31.390625 
Q 30.421875 20.453125 26.78125 9.375 
Q 23.140625 -1.703125 15.828125 -13.1875 
L 8.015625 -13.1875 
Q 14.5 -2 17.703125 9.0625 
Q 20.90625 20.125 20.90625 31.390625 
Q 20.90625 42.671875 17.703125 53.65625 
Q 14.5 64.65625 8.015625 75.875 
" id="DejaVuSans-29"/>
     </defs>
     <g transform="translate(247.087188 261.431562)scale(0.1 -0.1)">
      <use xlink:href="#DejaVuSans-52"/>
      <use x="69.482422" xlink:href="#DejaVuSans-4f"/>
      <use x="148.193359" xlink:href="#DejaVuSans-43"/>
      <use x="218.017578" xlink:href="#DejaVuSans-20"/>
      <use x="249.804688" xlink:href="#DejaVuSans-63"/>
      <use x="304.785156" xlink:href="#DejaVuSans-75"/>
      <use x="368.164062" xlink:href="#DejaVuSans-72"/>
      <use x="409.277344" xlink:href="#DejaVuSans-76"/>
      <use x="468.457031" xlink:href="#DejaVuSans-65"/>
      <use x="529.980469" xlink:href="#DejaVuSans-20"/>
      <use x="561.767578" xlink:href="#DejaVuSans-2d"/>
      <use x="597.851562" xlink:href="#DejaVuSans-20"/>
      <use x="629.638672" xlink:href="#DejaVuSans-30"/>
      <use x="693.261719" xlink:href="#DejaVuSans-20"/>
      <use x="725.048828" xlink:href="#DejaVuSans-28"/>
      <use x="764.0625" xlink:href="#DejaVuSans-41"/>
      <use x="832.470703" xlink:href="#DejaVuSans-55"/>
      <use x="905.664062" xlink:href="#DejaVuSans-43"/>
      <use x="975.488281" xlink:href="#DejaVuSans-20"/>
      <use x="1007.275391" xlink:href="#DejaVuSans-3d"/>
      <use x="1091.064453" xlink:href="#DejaVuSans-20"/>
      <use x="1122.851562" xlink:href="#DejaVuSans-30"/>
      <use x="1186.474609" xlink:href="#DejaVuSans-2e"/>
      <use x="1218.261719" xlink:href="#DejaVuSans-38"/>
      <use x="1281.884766" xlink:href="#DejaVuSans-37"/>
      <use x="1345.507812" xlink:href="#DejaVuSans-39"/>
      <use x="1409.130859" xlink:href="#DejaVuSans-29"/>
     </g>
    </g>
    <g id="line2d_19">
     <path d="M 219.087188 272.609687 
L 239.087188 272.609687 
" style="fill:none;stroke:#ff7f0e;stroke-linecap:square;stroke-width:1.5;"/>
    </g>
    <g id="line2d_20"/>
    <g id="text_17">
     <!-- ROC curve - 1 (AUC = 0.900) -->
     <g transform="translate(247.087188 276.109687)scale(0.1 -0.1)">
      <use xlink:href="#DejaVuSans-52"/>
      <use x="69.482422" xlink:href="#DejaVuSans-4f"/>
      <use x="148.193359" xlink:href="#DejaVuSans-43"/>
      <use x="218.017578" xlink:href="#DejaVuSans-20"/>
      <use x="249.804688" xlink:href="#DejaVuSans-63"/>
      <use x="304.785156" xlink:href="#DejaVuSans-75"/>
      <use x="368.164062" xlink:href="#DejaVuSans-72"/>
      <use x="409.277344" xlink:href="#DejaVuSans-76"/>
      <use x="468.457031" xlink:href="#DejaVuSans-65"/>
      <use x="529.980469" xlink:href="#DejaVuSans-20"/>
      <use x="561.767578" xlink:href="#DejaVuSans-2d"/>
      <use x="597.851562" xlink:href="#DejaVuSans-20"/>
      <use x="629.638672" xlink:href="#DejaVuSans-31"/>
      <use x="693.261719" xlink:href="#DejaVuSans-20"/>
      <use x="725.048828" xlink:href="#DejaVuSans-28"/>
      <use x="764.0625" xlink:href="#DejaVuSans-41"/>
      <use x="832.470703" xlink:href="#DejaVuSans-55"/>
      <use x="905.664062" xlink:href="#DejaVuSans-43"/>
      <use x="975.488281" xlink:href="#DejaVuSans-20"/>
      <use x="1007.275391" xlink:href="#DejaVuSans-3d"/>
      <use x="1091.064453" xlink:href="#DejaVuSans-20"/>
      <use x="1122.851562" xlink:href="#DejaVuSans-30"/>
      <use x="1186.474609" xlink:href="#DejaVuSans-2e"/>
      <use x="1218.261719" xlink:href="#DejaVuSans-39"/>
      <use x="1281.884766" xlink:href="#DejaVuSans-30"/>
      <use x="1345.507812" xlink:href="#DejaVuSans-30"/>
      <use x="1409.130859" xlink:href="#DejaVuSans-29"/>
     </g>
    </g>
    <g id="line2d_21">
     <path d="M 219.087188 287.287812 
L 239.087188 287.287812 
" style="fill:none;stroke:#2ca02c;stroke-linecap:square;stroke-width:1.5;"/>
    </g>
    <g id="line2d_22"/>
    <g id="text_18">
     <!-- ROC curve - 2 (AUC = 0.909) -->
     <g transform="translate(247.087188 290.787812)scale(0.1 -0.1)">
      <use xlink:href="#DejaVuSans-52"/>
      <use x="69.482422" xlink:href="#DejaVuSans-4f"/>
      <use x="148.193359" xlink:href="#DejaVuSans-43"/>
      <use x="218.017578" xlink:href="#DejaVuSans-20"/>
      <use x="249.804688" xlink:href="#DejaVuSans-63"/>
      <use x="304.785156" xlink:href="#DejaVuSans-75"/>
      <use x="368.164062" xlink:href="#DejaVuSans-72"/>
      <use x="409.277344" xlink:href="#DejaVuSans-76"/>
      <use x="468.457031" xlink:href="#DejaVuSans-65"/>
      <use x="529.980469" xlink:href="#DejaVuSans-20"/>
      <use x="561.767578" xlink:href="#DejaVuSans-2d"/>
      <use x="597.851562" xlink:href="#DejaVuSans-20"/>
      <use x="629.638672" xlink:href="#DejaVuSans-32"/>
      <use x="693.261719" xlink:href="#DejaVuSans-20"/>
      <use x="725.048828" xlink:href="#DejaVuSans-28"/>
      <use x="764.0625" xlink:href="#DejaVuSans-41"/>
      <use x="832.470703" xlink:href="#DejaVuSans-55"/>
      <use x="905.664062" xlink:href="#DejaVuSans-43"/>
      <use x="975.488281" xlink:href="#DejaVuSans-20"/>
      <use x="1007.275391" xlink:href="#DejaVuSans-3d"/>
      <use x="1091.064453" xlink:href="#DejaVuSans-20"/>
      <use x="1122.851562" xlink:href="#DejaVuSans-30"/>
      <use x="1186.474609" xlink:href="#DejaVuSans-2e"/>
      <use x="1218.261719" xlink:href="#DejaVuSans-39"/>
      <use x="1281.884766" xlink:href="#DejaVuSans-30"/>
      <use x="1345.507812" xlink:href="#DejaVuSans-39"/>
      <use x="1409.130859" xlink:href="#DejaVuSans-29"/>
     </g>
    </g>
   </g>
  </g>
 </g>
 <defs>
  <clipPath id="pd04232c56d">
   <rect height="266.112" width="357.12" x="43.78125" y="35.7555"/>
  </clipPath>
 </defs>
</svg>
