<?xml version="1.0" encoding="utf-8" standalone="no"?>
<!DOCTYPE svg PUBLIC "-//W3C//DTD SVG 1.1//EN"
  "http://www.w3.org/Graphics/SVG/1.1/DTD/svg11.dtd">
<!-- Created with matplotlib (http://matplotlib.org/) -->
<svg height="339pt" version="1.1" viewBox="0 0 416 339" width="416pt" xmlns="http://www.w3.org/2000/svg" xmlns:xlink="http://www.w3.org/1999/xlink">
 <defs>
  <style type="text/css">
*{stroke-linecap:butt;stroke-linejoin:round;}
  </style>
 </defs>
 <g id="figure_1">
  <g id="patch_1">
   <path d="M 0 339.42375 
L 416.052813 339.42375 
L 416.052813 0 
L 0 0 
z
" style="fill:#ffffff;"/>
  </g>
  <g id="axes_1">
   <g id="patch_2">
    <path d="M 43.78125 301.8675 
L 400.90125 301.8675 
L 400.90125 35.7555 
L 43.78125 35.7555 
z
" style="fill:#ffffff;"/>
   </g>
   <g id="matplotlib.axis_1">
    <g id="xtick_1">
     <g id="line2d_1">
      <defs>
       <path d="M 0 0 
L 0 3.5 
" id="m6a264c5c08" style="stroke:#000000;stroke-width:0.8;"/>
      </defs>
      <g>
       <use style="stroke:#000000;stroke-width:0.8;" x="43.78125" xlink:href="#m6a264c5c08" y="301.8675"/>
      </g>
     </g>
     <g id="text_1">
      <!-- 0.0 -->
      <defs>
       <path d="M 31.78125 66.40625 
Q 24.171875 66.40625 20.328125 58.90625 
Q 16.5 51.421875 16.5 36.375 
Q 16.5 21.390625 20.328125 13.890625 
Q 24.171875 6.390625 31.78125 6.390625 
Q 39.453125 6.390625 43.28125 13.890625 
Q 47.125 21.390625 47.125 36.375 
Q 47.125 51.421875 43.28125 58.90625 
Q 39.453125 66.40625 31.78125 66.40625 
M 31.78125 74.21875 
Q 44.046875 74.21875 50.515625 64.515625 
Q 56.984375 54.828125 56.984375 36.375 
Q 56.984375 17.96875 50.515625 8.265625 
Q 44.046875 -1.421875 31.78125 -1.421875 
Q 19.53125 -1.421875 13.0625 8.265625 
Q 6.59375 17.96875 6.59375 36.375 
Q 6.59375 54.828125 13.0625 64.515625 
Q 19.53125 74.21875 31.78125 74.21875 
" id="DejaVuSans-30"/>
       <path d="M 10.6875 12.40625 
L 21 12.40625 
L 21 0 
L 10.6875 0 
z
" id="DejaVuSans-2e"/>
      </defs>
      <g transform="translate(35.829688 316.465937)scale(0.1 -0.1)">
       <use xlink:href="#DejaVuSans-30"/>
       <use x="63.623047" xlink:href="#DejaVuSans-2e"/>
       <use x="95.410156" xlink:href="#DejaVuSans-30"/>
      </g>
     </g>
    </g>
    <g id="xtick_2">
     <g id="line2d_2">
      <g>
       <use style="stroke:#000000;stroke-width:0.8;" x="115.20525" xlink:href="#m6a264c5c08" y="301.8675"/>
      </g>
     </g>
     <g id="text_2">
      <!-- 0.2 -->
      <defs>
       <path d="M 19.1875 8.296875 
L 53.609375 8.296875 
L 53.609375 0 
L 7.328125 0 
L 7.328125 8.296875 
Q 12.9375 14.109375 22.625 23.890625 
Q 32.328125 33.6875 34.8125 36.53125 
Q 39.546875 41.84375 41.421875 45.53125 
Q 43.3125 49.21875 43.3125 52.78125 
Q 43.3125 58.59375 39.234375 62.25 
Q 35.15625 65.921875 28.609375 65.921875 
Q 23.96875 65.921875 18.8125 64.3125 
Q 13.671875 62.703125 7.8125 59.421875 
L 7.8125 69.390625 
Q 13.765625 71.78125 18.9375 73 
Q 24.125 74.21875 28.421875 74.21875 
Q 39.75 74.21875 46.484375 68.546875 
Q 53.21875 62.890625 53.21875 53.421875 
Q 53.21875 48.921875 51.53125 44.890625 
Q 49.859375 40.875 45.40625 35.40625 
Q 44.1875 33.984375 37.640625 27.21875 
Q 31.109375 20.453125 19.1875 8.296875 
" id="DejaVuSans-32"/>
      </defs>
      <g transform="translate(107.253688 316.465937)scale(0.1 -0.1)">
       <use xlink:href="#DejaVuSans-30"/>
       <use x="63.623047" xlink:href="#DejaVuSans-2e"/>
       <use x="95.410156" xlink:href="#DejaVuSans-32"/>
      </g>
     </g>
    </g>
    <g id="xtick_3">
     <g id="line2d_3">
      <g>
       <use style="stroke:#000000;stroke-width:0.8;" x="186.62925" xlink:href="#m6a264c5c08" y="301.8675"/>
      </g>
     </g>
     <g id="text_3">
      <!-- 0.4 -->
      <defs>
       <path d="M 37.796875 64.3125 
L 12.890625 25.390625 
L 37.796875 25.390625 
z
M 35.203125 72.90625 
L 47.609375 72.90625 
L 47.609375 25.390625 
L 58.015625 25.390625 
L 58.015625 17.1875 
L 47.609375 17.1875 
L 47.609375 0 
L 37.796875 0 
L 37.796875 17.1875 
L 4.890625 17.1875 
L 4.890625 26.703125 
z
" id="DejaVuSans-34"/>
      </defs>
      <g transform="translate(178.677688 316.465937)scale(0.1 -0.1)">
       <use xlink:href="#DejaVuSans-30"/>
       <use x="63.623047" xlink:href="#DejaVuSans-2e"/>
       <use x="95.410156" xlink:href="#DejaVuSans-34"/>
      </g>
     </g>
    </g>
    <g id="xtick_4">
     <g id="line2d_4">
      <g>
       <use style="stroke:#000000;stroke-width:0.8;" x="258.05325" xlink:href="#m6a264c5c08" y="301.8675"/>
      </g>
     </g>
     <g id="text_4">
      <!-- 0.6 -->
      <defs>
       <path d="M 33.015625 40.375 
Q 26.375 40.375 22.484375 35.828125 
Q 18.609375 31.296875 18.609375 23.390625 
Q 18.609375 15.53125 22.484375 10.953125 
Q 26.375 6.390625 33.015625 6.390625 
Q 39.65625 6.390625 43.53125 10.953125 
Q 47.40625 15.53125 47.40625 23.390625 
Q 47.40625 31.296875 43.53125 35.828125 
Q 39.65625 40.375 33.015625 40.375 
M 52.59375 71.296875 
L 52.59375 62.3125 
Q 48.875 64.0625 45.09375 64.984375 
Q 41.3125 65.921875 37.59375 65.921875 
Q 27.828125 65.921875 22.671875 59.328125 
Q 17.53125 52.734375 16.796875 39.40625 
Q 19.671875 43.65625 24.015625 45.921875 
Q 28.375 48.1875 33.59375 48.1875 
Q 44.578125 48.1875 50.953125 41.515625 
Q 57.328125 34.859375 57.328125 23.390625 
Q 57.328125 12.15625 50.6875 5.359375 
Q 44.046875 -1.421875 33.015625 -1.421875 
Q 20.359375 -1.421875 13.671875 8.265625 
Q 6.984375 17.96875 6.984375 36.375 
Q 6.984375 53.65625 15.1875 63.9375 
Q 23.390625 74.21875 37.203125 74.21875 
Q 40.921875 74.21875 44.703125 73.484375 
Q 48.484375 72.75 52.59375 71.296875 
" id="DejaVuSans-36"/>
      </defs>
      <g transform="translate(250.101688 316.465937)scale(0.1 -0.1)">
       <use xlink:href="#DejaVuSans-30"/>
       <use x="63.623047" xlink:href="#DejaVuSans-2e"/>
       <use x="95.410156" xlink:href="#DejaVuSans-36"/>
      </g>
     </g>
    </g>
    <g id="xtick_5">
     <g id="line2d_5">
      <g>
       <use style="stroke:#000000;stroke-width:0.8;" x="329.47725" xlink:href="#m6a264c5c08" y="301.8675"/>
      </g>
     </g>
     <g id="text_5">
      <!-- 0.8 -->
      <defs>
       <path d="M 31.78125 34.625 
Q 24.75 34.625 20.71875 30.859375 
Q 16.703125 27.09375 16.703125 20.515625 
Q 16.703125 13.921875 20.71875 10.15625 
Q 24.75 6.390625 31.78125 6.390625 
Q 38.8125 6.390625 42.859375 10.171875 
Q 46.921875 13.96875 46.921875 20.515625 
Q 46.921875 27.09375 42.890625 30.859375 
Q 38.875 34.625 31.78125 34.625 
M 21.921875 38.8125 
Q 15.578125 40.375 12.03125 44.71875 
Q 8.5 49.078125 8.5 55.328125 
Q 8.5 64.0625 14.71875 69.140625 
Q 20.953125 74.21875 31.78125 74.21875 
Q 42.671875 74.21875 48.875 69.140625 
Q 55.078125 64.0625 55.078125 55.328125 
Q 55.078125 49.078125 51.53125 44.71875 
Q 48 40.375 41.703125 38.8125 
Q 48.828125 37.15625 52.796875 32.3125 
Q 56.78125 27.484375 56.78125 20.515625 
Q 56.78125 9.90625 50.3125 4.234375 
Q 43.84375 -1.421875 31.78125 -1.421875 
Q 19.734375 -1.421875 13.25 4.234375 
Q 6.78125 9.90625 6.78125 20.515625 
Q 6.78125 27.484375 10.78125 32.3125 
Q 14.796875 37.15625 21.921875 38.8125 
M 18.3125 54.390625 
Q 18.3125 48.734375 21.84375 45.5625 
Q 25.390625 42.390625 31.78125 42.390625 
Q 38.140625 42.390625 41.71875 45.5625 
Q 45.3125 48.734375 45.3125 54.390625 
Q 45.3125 60.0625 41.71875 63.234375 
Q 38.140625 66.40625 31.78125 66.40625 
Q 25.390625 66.40625 21.84375 63.234375 
Q 18.3125 60.0625 18.3125 54.390625 
" id="DejaVuSans-38"/>
      </defs>
      <g transform="translate(321.525688 316.465937)scale(0.1 -0.1)">
       <use xlink:href="#DejaVuSans-30"/>
       <use x="63.623047" xlink:href="#DejaVuSans-2e"/>
       <use x="95.410156" xlink:href="#DejaVuSans-38"/>
      </g>
     </g>
    </g>
    <g id="xtick_6">
     <g id="line2d_6">
      <g>
       <use style="stroke:#000000;stroke-width:0.8;" x="400.90125" xlink:href="#m6a264c5c08" y="301.8675"/>
      </g>
     </g>
     <g id="text_6">
      <!-- 1.0 -->
      <defs>
       <path d="M 12.40625 8.296875 
L 28.515625 8.296875 
L 28.515625 63.921875 
L 10.984375 60.40625 
L 10.984375 69.390625 
L 28.421875 72.90625 
L 38.28125 72.90625 
L 38.28125 8.296875 
L 54.390625 8.296875 
L 54.390625 0 
L 12.40625 0 
z
" id="DejaVuSans-31"/>
      </defs>
      <g transform="translate(392.949688 316.465937)scale(0.1 -0.1)">
       <use xlink:href="#DejaVuSans-31"/>
       <use x="63.623047" xlink:href="#DejaVuSans-2e"/>
       <use x="95.410156" xlink:href="#DejaVuSans-30"/>
      </g>
     </g>
    </g>
    <g id="text_7">
     <!-- False Positive Rate -->
     <defs>
      <path d="M 9.8125 72.90625 
L 51.703125 72.90625 
L 51.703125 64.59375 
L 19.671875 64.59375 
L 19.671875 43.109375 
L 48.578125 43.109375 
L 48.578125 34.8125 
L 19.671875 34.8125 
L 19.671875 0 
L 9.8125 0 
z
" id="DejaVuSans-46"/>
      <path d="M 34.28125 27.484375 
Q 23.390625 27.484375 19.1875 25 
Q 14.984375 22.515625 14.984375 16.5 
Q 14.984375 11.71875 18.140625 8.90625 
Q 21.296875 6.109375 26.703125 6.109375 
Q 34.1875 6.109375 38.703125 11.40625 
Q 43.21875 16.703125 43.21875 25.484375 
L 43.21875 27.484375 
z
M 52.203125 31.203125 
L 52.203125 0 
L 43.21875 0 
L 43.21875 8.296875 
Q 40.140625 3.328125 35.546875 0.953125 
Q 30.953125 -1.421875 24.3125 -1.421875 
Q 15.921875 -1.421875 10.953125 3.296875 
Q 6 8.015625 6 15.921875 
Q 6 25.140625 12.171875 29.828125 
Q 18.359375 34.515625 30.609375 34.515625 
L 43.21875 34.515625 
L 43.21875 35.40625 
Q 43.21875 41.609375 39.140625 45 
Q 35.0625 48.390625 27.6875 48.390625 
Q 23 48.390625 18.546875 47.265625 
Q 14.109375 46.140625 10.015625 43.890625 
L 10.015625 52.203125 
Q 14.9375 54.109375 19.578125 55.046875 
Q 24.21875 56 28.609375 56 
Q 40.484375 56 46.34375 49.84375 
Q 52.203125 43.703125 52.203125 31.203125 
" id="DejaVuSans-61"/>
      <path d="M 9.421875 75.984375 
L 18.40625 75.984375 
L 18.40625 0 
L 9.421875 0 
z
" id="DejaVuSans-6c"/>
      <path d="M 44.28125 53.078125 
L 44.28125 44.578125 
Q 40.484375 46.53125 36.375 47.5 
Q 32.28125 48.484375 27.875 48.484375 
Q 21.1875 48.484375 17.84375 46.4375 
Q 14.5 44.390625 14.5 40.28125 
Q 14.5 37.15625 16.890625 35.375 
Q 19.28125 33.59375 26.515625 31.984375 
L 29.59375 31.296875 
Q 39.15625 29.25 43.1875 25.515625 
Q 47.21875 21.78125 47.21875 15.09375 
Q 47.21875 7.46875 41.1875 3.015625 
Q 35.15625 -1.421875 24.609375 -1.421875 
Q 20.21875 -1.421875 15.453125 -0.5625 
Q 10.6875 0.296875 5.421875 2 
L 5.421875 11.28125 
Q 10.40625 8.6875 15.234375 7.390625 
Q 20.0625 6.109375 24.8125 6.109375 
Q 31.15625 6.109375 34.5625 8.28125 
Q 37.984375 10.453125 37.984375 14.40625 
Q 37.984375 18.0625 35.515625 20.015625 
Q 33.0625 21.96875 24.703125 23.78125 
L 21.578125 24.515625 
Q 13.234375 26.265625 9.515625 29.90625 
Q 5.8125 33.546875 5.8125 39.890625 
Q 5.8125 47.609375 11.28125 51.796875 
Q 16.75 56 26.8125 56 
Q 31.78125 56 36.171875 55.265625 
Q 40.578125 54.546875 44.28125 53.078125 
" id="DejaVuSans-73"/>
      <path d="M 56.203125 29.59375 
L 56.203125 25.203125 
L 14.890625 25.203125 
Q 15.484375 15.921875 20.484375 11.0625 
Q 25.484375 6.203125 34.421875 6.203125 
Q 39.59375 6.203125 44.453125 7.46875 
Q 49.3125 8.734375 54.109375 11.28125 
L 54.109375 2.78125 
Q 49.265625 0.734375 44.1875 -0.34375 
Q 39.109375 -1.421875 33.890625 -1.421875 
Q 20.796875 -1.421875 13.15625 6.1875 
Q 5.515625 13.8125 5.515625 26.8125 
Q 5.515625 40.234375 12.765625 48.109375 
Q 20.015625 56 32.328125 56 
Q 43.359375 56 49.78125 48.890625 
Q 56.203125 41.796875 56.203125 29.59375 
M 47.21875 32.234375 
Q 47.125 39.59375 43.09375 43.984375 
Q 39.0625 48.390625 32.421875 48.390625 
Q 24.90625 48.390625 20.390625 44.140625 
Q 15.875 39.890625 15.1875 32.171875 
z
" id="DejaVuSans-65"/>
      <path id="DejaVuSans-20"/>
      <path d="M 19.671875 64.796875 
L 19.671875 37.40625 
L 32.078125 37.40625 
Q 38.96875 37.40625 42.71875 40.96875 
Q 46.484375 44.53125 46.484375 51.125 
Q 46.484375 57.671875 42.71875 61.234375 
Q 38.96875 64.796875 32.078125 64.796875 
z
M 9.8125 72.90625 
L 32.078125 72.90625 
Q 44.34375 72.90625 50.609375 67.359375 
Q 56.890625 61.8125 56.890625 51.125 
Q 56.890625 40.328125 50.609375 34.8125 
Q 44.34375 29.296875 32.078125 29.296875 
L 19.671875 29.296875 
L 19.671875 0 
L 9.8125 0 
z
" id="DejaVuSans-50"/>
      <path d="M 30.609375 48.390625 
Q 23.390625 48.390625 19.1875 42.75 
Q 14.984375 37.109375 14.984375 27.296875 
Q 14.984375 17.484375 19.15625 11.84375 
Q 23.34375 6.203125 30.609375 6.203125 
Q 37.796875 6.203125 41.984375 11.859375 
Q 46.1875 17.53125 46.1875 27.296875 
Q 46.1875 37.015625 41.984375 42.703125 
Q 37.796875 48.390625 30.609375 48.390625 
M 30.609375 56 
Q 42.328125 56 49.015625 48.375 
Q 55.71875 40.765625 55.71875 27.296875 
Q 55.71875 13.875 49.015625 6.21875 
Q 42.328125 -1.421875 30.609375 -1.421875 
Q 18.84375 -1.421875 12.171875 6.21875 
Q 5.515625 13.875 5.515625 27.296875 
Q 5.515625 40.765625 12.171875 48.375 
Q 18.84375 56 30.609375 56 
" id="DejaVuSans-6f"/>
      <path d="M 9.421875 54.6875 
L 18.40625 54.6875 
L 18.40625 0 
L 9.421875 0 
z
M 9.421875 75.984375 
L 18.40625 75.984375 
L 18.40625 64.59375 
L 9.421875 64.59375 
z
" id="DejaVuSans-69"/>
      <path d="M 18.3125 70.21875 
L 18.3125 54.6875 
L 36.8125 54.6875 
L 36.8125 47.703125 
L 18.3125 47.703125 
L 18.3125 18.015625 
Q 18.3125 11.328125 20.140625 9.421875 
Q 21.96875 7.515625 27.59375 7.515625 
L 36.8125 7.515625 
L 36.8125 0 
L 27.59375 0 
Q 17.1875 0 13.234375 3.875 
Q 9.28125 7.765625 9.28125 18.015625 
L 9.28125 47.703125 
L 2.6875 47.703125 
L 2.6875 54.6875 
L 9.28125 54.6875 
L 9.28125 70.21875 
z
" id="DejaVuSans-74"/>
      <path d="M 2.984375 54.6875 
L 12.5 54.6875 
L 29.59375 8.796875 
L 46.6875 54.6875 
L 56.203125 54.6875 
L 35.6875 0 
L 23.484375 0 
z
" id="DejaVuSans-76"/>
      <path d="M 44.390625 34.1875 
Q 47.5625 33.109375 50.5625 29.59375 
Q 53.5625 26.078125 56.59375 19.921875 
L 66.609375 0 
L 56 0 
L 46.6875 18.703125 
Q 43.0625 26.03125 39.671875 28.421875 
Q 36.28125 30.8125 30.421875 30.8125 
L 19.671875 30.8125 
L 19.671875 0 
L 9.8125 0 
L 9.8125 72.90625 
L 32.078125 72.90625 
Q 44.578125 72.90625 50.734375 67.671875 
Q 56.890625 62.453125 56.890625 51.90625 
Q 56.890625 45.015625 53.6875 40.46875 
Q 50.484375 35.9375 44.390625 34.1875 
M 19.671875 64.796875 
L 19.671875 38.921875 
L 32.078125 38.921875 
Q 39.203125 38.921875 42.84375 42.21875 
Q 46.484375 45.515625 46.484375 51.90625 
Q 46.484375 58.296875 42.84375 61.546875 
Q 39.203125 64.796875 32.078125 64.796875 
z
" id="DejaVuSans-52"/>
     </defs>
     <g transform="translate(175.135781 330.144062)scale(0.1 -0.1)">
      <use xlink:href="#DejaVuSans-46"/>
      <use x="57.378906" xlink:href="#DejaVuSans-61"/>
      <use x="118.658203" xlink:href="#DejaVuSans-6c"/>
      <use x="146.441406" xlink:href="#DejaVuSans-73"/>
      <use x="198.541016" xlink:href="#DejaVuSans-65"/>
      <use x="260.064453" xlink:href="#DejaVuSans-20"/>
      <use x="291.851562" xlink:href="#DejaVuSans-50"/>
      <use x="352.107422" xlink:href="#DejaVuSans-6f"/>
      <use x="413.289062" xlink:href="#DejaVuSans-73"/>
      <use x="465.388672" xlink:href="#DejaVuSans-69"/>
      <use x="493.171875" xlink:href="#DejaVuSans-74"/>
      <use x="532.380859" xlink:href="#DejaVuSans-69"/>
      <use x="560.164062" xlink:href="#DejaVuSans-76"/>
      <use x="619.34375" xlink:href="#DejaVuSans-65"/>
      <use x="680.867188" xlink:href="#DejaVuSans-20"/>
      <use x="712.654297" xlink:href="#DejaVuSans-52"/>
      <use x="782.105469" xlink:href="#DejaVuSans-61"/>
      <use x="843.384766" xlink:href="#DejaVuSans-74"/>
      <use x="882.59375" xlink:href="#DejaVuSans-65"/>
     </g>
    </g>
   </g>
   <g id="matplotlib.axis_2">
    <g id="ytick_1">
     <g id="line2d_7">
      <defs>
       <path d="M 0 0 
L -3.5 0 
" id="mb07f7ac71a" style="stroke:#000000;stroke-width:0.8;"/>
      </defs>
      <g>
       <use style="stroke:#000000;stroke-width:0.8;" x="43.78125" xlink:href="#mb07f7ac71a" y="301.8675"/>
      </g>
     </g>
     <g id="text_8">
      <!-- 0.0 -->
      <g transform="translate(20.878125 305.666719)scale(0.1 -0.1)">
       <use xlink:href="#DejaVuSans-30"/>
       <use x="63.623047" xlink:href="#DejaVuSans-2e"/>
       <use x="95.410156" xlink:href="#DejaVuSans-30"/>
      </g>
     </g>
    </g>
    <g id="ytick_2">
     <g id="line2d_8">
      <g>
       <use style="stroke:#000000;stroke-width:0.8;" x="43.78125" xlink:href="#mb07f7ac71a" y="251.1795"/>
      </g>
     </g>
     <g id="text_9">
      <!-- 0.2 -->
      <g transform="translate(20.878125 254.978719)scale(0.1 -0.1)">
       <use xlink:href="#DejaVuSans-30"/>
       <use x="63.623047" xlink:href="#DejaVuSans-2e"/>
       <use x="95.410156" xlink:href="#DejaVuSans-32"/>
      </g>
     </g>
    </g>
    <g id="ytick_3">
     <g id="line2d_9">
      <g>
       <use style="stroke:#000000;stroke-width:0.8;" x="43.78125" xlink:href="#mb07f7ac71a" y="200.4915"/>
      </g>
     </g>
     <g id="text_10">
      <!-- 0.4 -->
      <g transform="translate(20.878125 204.290719)scale(0.1 -0.1)">
       <use xlink:href="#DejaVuSans-30"/>
       <use x="63.623047" xlink:href="#DejaVuSans-2e"/>
       <use x="95.410156" xlink:href="#DejaVuSans-34"/>
      </g>
     </g>
    </g>
    <g id="ytick_4">
     <g id="line2d_10">
      <g>
       <use style="stroke:#000000;stroke-width:0.8;" x="43.78125" xlink:href="#mb07f7ac71a" y="149.8035"/>
      </g>
     </g>
     <g id="text_11">
      <!-- 0.6 -->
      <g transform="translate(20.878125 153.602719)scale(0.1 -0.1)">
       <use xlink:href="#DejaVuSans-30"/>
       <use x="63.623047" xlink:href="#DejaVuSans-2e"/>
       <use x="95.410156" xlink:href="#DejaVuSans-36"/>
      </g>
     </g>
    </g>
    <g id="ytick_5">
     <g id="line2d_11">
      <g>
       <use style="stroke:#000000;stroke-width:0.8;" x="43.78125" xlink:href="#mb07f7ac71a" y="99.1155"/>
      </g>
     </g>
     <g id="text_12">
      <!-- 0.8 -->
      <g transform="translate(20.878125 102.914719)scale(0.1 -0.1)">
       <use xlink:href="#DejaVuSans-30"/>
       <use x="63.623047" xlink:href="#DejaVuSans-2e"/>
       <use x="95.410156" xlink:href="#DejaVuSans-38"/>
      </g>
     </g>
    </g>
    <g id="ytick_6">
     <g id="line2d_12">
      <g>
       <use style="stroke:#000000;stroke-width:0.8;" x="43.78125" xlink:href="#mb07f7ac71a" y="48.4275"/>
      </g>
     </g>
     <g id="text_13">
      <!-- 1.0 -->
      <g transform="translate(20.878125 52.226719)scale(0.1 -0.1)">
       <use xlink:href="#DejaVuSans-31"/>
       <use x="63.623047" xlink:href="#DejaVuSans-2e"/>
       <use x="95.410156" xlink:href="#DejaVuSans-30"/>
      </g>
     </g>
    </g>
    <g id="text_14">
     <!-- True Positive Rate -->
     <defs>
      <path d="M -0.296875 72.90625 
L 61.375 72.90625 
L 61.375 64.59375 
L 35.5 64.59375 
L 35.5 0 
L 25.59375 0 
L 25.59375 64.59375 
L -0.296875 64.59375 
z
" id="DejaVuSans-54"/>
      <path d="M 41.109375 46.296875 
Q 39.59375 47.171875 37.8125 47.578125 
Q 36.03125 48 33.890625 48 
Q 26.265625 48 22.1875 43.046875 
Q 18.109375 38.09375 18.109375 28.8125 
L 18.109375 0 
L 9.078125 0 
L 9.078125 54.6875 
L 18.109375 54.6875 
L 18.109375 46.1875 
Q 20.953125 51.171875 25.484375 53.578125 
Q 30.03125 56 36.53125 56 
Q 37.453125 56 38.578125 55.875 
Q 39.703125 55.765625 41.0625 55.515625 
z
" id="DejaVuSans-72"/>
      <path d="M 8.5 21.578125 
L 8.5 54.6875 
L 17.484375 54.6875 
L 17.484375 21.921875 
Q 17.484375 14.15625 20.5 10.265625 
Q 23.53125 6.390625 29.59375 6.390625 
Q 36.859375 6.390625 41.078125 11.03125 
Q 45.3125 15.671875 45.3125 23.6875 
L 45.3125 54.6875 
L 54.296875 54.6875 
L 54.296875 0 
L 45.3125 0 
L 45.3125 8.40625 
Q 42.046875 3.421875 37.71875 1 
Q 33.40625 -1.421875 27.6875 -1.421875 
Q 18.265625 -1.421875 13.375 4.4375 
Q 8.5 10.296875 8.5 21.578125 
M 31.109375 56 
z
" id="DejaVuSans-75"/>
     </defs>
     <g transform="translate(14.798438 214.357594)rotate(-90)scale(0.1 -0.1)">
      <use xlink:href="#DejaVuSans-54"/>
      <use x="60.865234" xlink:href="#DejaVuSans-72"/>
      <use x="101.978516" xlink:href="#DejaVuSans-75"/>
      <use x="165.357422" xlink:href="#DejaVuSans-65"/>
      <use x="226.880859" xlink:href="#DejaVuSans-20"/>
      <use x="258.667969" xlink:href="#DejaVuSans-50"/>
      <use x="318.923828" xlink:href="#DejaVuSans-6f"/>
      <use x="380.105469" xlink:href="#DejaVuSans-73"/>
      <use x="432.205078" xlink:href="#DejaVuSans-69"/>
      <use x="459.988281" xlink:href="#DejaVuSans-74"/>
      <use x="499.197266" xlink:href="#DejaVuSans-69"/>
      <use x="526.980469" xlink:href="#DejaVuSans-76"/>
      <use x="586.160156" xlink:href="#DejaVuSans-65"/>
      <use x="647.683594" xlink:href="#DejaVuSans-20"/>
      <use x="679.470703" xlink:href="#DejaVuSans-52"/>
      <use x="748.921875" xlink:href="#DejaVuSans-61"/>
      <use x="810.201172" xlink:href="#DejaVuSans-74"/>
      <use x="849.410156" xlink:href="#DejaVuSans-65"/>
     </g>
    </g>
   </g>
   <g id="line2d_13">
    <path clip-path="url(#pc264fc4444)" d="M 43.78125 301.8675 
L 43.877334 301.8675 
L 44.344945 297.59745 
L 44.492274 295.336836 
L 44.767716 292.322683 
L 45.055969 292.322683 
L 46.119303 283.531405 
L 48.732798 252.63634 
L 48.989023 252.63634 
L 49.219626 251.129264 
L 49.283682 251.129264 
L 49.527096 250.124547 
L 49.82816 246.356856 
L 50.020329 246.356856 
L 50.289365 244.5986 
L 50.667297 243.091524 
L 50.846654 240.077371 
L 50.910711 240.077371 
L 51.102879 238.319115 
L 51.327076 238.319115 
L 51.583301 233.546707 
L 51.967639 233.546707 
L 52.166213 230.532555 
L 52.262298 228.774299 
L 52.454466 228.774299 
L 52.736314 227.016043 
L 52.832398 227.016043 
L 52.883643 226.513684 
L 53.267981 226.513684 
L 53.408904 223.499532 
L 53.716374 222.243635 
L 53.959788 218.224765 
L 54.087901 218.224765 
L 54.203202 217.722406 
L 54.491455 217.722406 
L 54.5427 216.717688 
L 54.734869 216.717688 
L 54.907821 215.210612 
L 55.003905 215.210612 
L 55.042339 214.205894 
L 55.170451 214.205894 
L 55.228102 213.703536 
L 55.420271 213.703536 
L 55.477921 213.201177 
L 55.67009 213.201177 
L 56.015994 211.694101 
L 56.400331 211.694101 
L 56.624528 211.191742 
L 57.008866 211.191742 
L 57.060111 210.689383 
L 57.252279 210.689383 
L 57.502099 208.931127 
L 57.726296 208.931127 
L 57.841597 207.92641 
L 58.142661 206.921692 
L 58.341236 205.916975 
L 58.597461 205.916975 
L 58.84728 203.405181 
L 59.071477 203.405181 
L 59.122722 202.902822 
L 59.410975 202.902822 
L 59.468626 201.395746 
L 59.660794 201.395746 
L 59.782501 200.893387 
L 60.070754 200.893387 
L 60.250112 199.386311 
L 61.242984 199.386311 
L 61.345474 198.381593 
L 61.460775 197.628055 
L 61.652944 197.628055 
L 61.774651 196.120979 
L 61.966819 196.120979 
L 62.018064 195.61862 
L 62.146177 195.61862 
L 62.274289 195.367441 
L 62.466458 195.367441 
L 62.504892 194.362723 
L 62.697061 194.362723 
L 62.812362 193.358005 
L 63.516981 193.358005 
L 63.657904 192.604467 
L 63.946158 192.604467 
L 64.119109 191.59975 
L 64.215194 191.59975 
L 64.272844 191.097391 
L 64.721238 191.097391 
L 64.971058 188.083238 
L 65.092764 187.58088 
L 65.284933 187.58088 
L 65.521941 183.813189 
L 65.618026 183.813189 
L 65.797383 182.306112 
L 65.989552 182.306112 
L 66.232966 181.301395 
L 66.425134 181.301395 
L 66.482785 179.794319 
L 66.610898 179.794319 
L 66.726199 178.789601 
L 66.886339 178.789601 
L 66.950396 178.538422 
L 67.206621 178.538422 
L 67.296299 177.784884 
L 67.424412 177.784884 
L 67.610175 177.031345 
L 67.802344 177.031345 
L 67.949673 176.528987 
L 68.013729 176.528987 
L 68.295577 174.017193 
L 68.487746 174.017193 
L 68.724754 172.761296 
L 69.077063 172.761296 
L 69.192364 172.258937 
L 69.288449 172.258937 
L 69.467806 171.25422 
L 69.820116 171.25422 
L 69.871361 169.747143 
L 69.999473 169.747143 
L 70.050718 169.244784 
L 70.467084 169.244784 
L 70.684875 167.988888 
L 71.485578 167.988888 
L 71.652124 166.98417 
L 71.908349 166.98417 
L 72.190197 164.472376 
L 72.670619 164.472376 
L 72.843571 163.718838 
L 73.003711 163.718838 
L 73.163852 161.709403 
L 74.060639 161.709403 
L 74.246403 161.207044 
L 74.348893 160.202327 
L 74.573089 160.202327 
L 74.637146 159.951147 
L 74.765258 159.951147 
L 74.899776 158.444071 
L 75.027889 158.444071 
L 75.220058 157.439353 
L 75.34817 157.439353 
L 75.386604 156.434636 
L 75.610801 156.434636 
L 75.892648 152.415766 
L 76.052789 152.415766 
L 76.104034 151.411048 
L 76.776624 151.411048 
L 76.866303 150.65751 
L 77.378753 150.65751 
L 77.494054 149.652792 
L 78.358814 149.652792 
L 78.435681 148.899254 
L 79.236384 148.899254 
L 79.390119 147.392178 
L 79.646344 147.392178 
L 79.710401 147.140999 
L 79.838513 147.140999 
L 79.889758 146.63864 
L 80.017871 146.63864 
L 80.069116 146.136281 
L 80.261284 146.136281 
L 80.581566 144.880384 
L 80.997931 144.880384 
L 81.337429 142.36859 
L 81.593654 142.36859 
L 81.715361 141.866231 
L 81.90753 141.866231 
L 82.227811 141.615052 
L 82.381546 140.107976 
L 84.079037 140.107976 
L 84.136688 139.605617 
L 84.328856 139.605617 
L 84.456969 137.847361 
L 85.225644 137.847361 
L 85.405001 136.340285 
L 86.173676 136.340285 
L 86.308194 135.335567 
L 86.852673 135.335567 
L 87.019219 133.577312 
L 87.204982 133.074953 
L 87.525263 133.074953 
L 87.698215 132.321415 
L 87.95444 132.321415 
L 88.114581 132.070235 
L 88.338778 132.070235 
L 88.396428 130.563159 
L 89.357272 130.563159 
L 89.395706 129.558442 
L 90.228437 129.558442 
L 90.382172 128.051365 
L 91.118819 128.051365 
L 91.221309 126.544289 
L 92.214181 126.544289 
L 92.316671 125.288392 
L 92.925205 125.288392 
L 93.002073 124.534854 
L 93.450466 124.534854 
L 93.572173 124.032495 
L 94.404904 124.032495 
L 94.917354 123.781316 
L 95.397776 123.027778 
L 95.942254 123.027778 
L 96.134423 122.02306 
L 96.903098 122.02306 
L 97.005588 120.515984 
L 97.133701 120.515984 
L 97.255408 119.762445 
L 97.703801 119.762445 
L 97.819103 119.260087 
L 98.011271 119.260087 
L 98.651834 118.255369 
L 98.703079 117.75301 
L 99.375669 117.75301 
L 99.452537 116.999472 
L 100.349324 116.999472 
L 100.413381 116.748293 
L 102.206956 116.748293 
L 102.386313 115.994755 
L 103.731494 115.994755 
L 103.795551 115.743575 
L 104.404085 115.743575 
L 104.589848 115.492396 
L 104.717961 115.492396 
L 104.820451 114.236499 
L 105.108704 114.236499 
L 105.320089 113.482961 
L 106.697299 113.482961 
L 106.870251 112.729423 
L 107.478785 112.729423 
L 107.626114 108.459373 
L 108.747099 108.459373 
L 108.875211 108.208194 
L 109.451718 108.208194 
L 109.554208 107.203476 
L 109.68232 107.203476 
L 109.842461 106.952297 
L 110.547079 106.952297 
L 110.688003 106.198759 
L 111.168425 106.198759 
L 111.296538 105.6964 
L 118.663006 105.6964 
L 118.784713 105.445221 
L 121.314935 105.445221 
L 121.443048 105.194041 
L 123.428791 105.194041 
L 123.544093 104.691682 
L 124.601021 104.691682 
L 124.716322 104.189324 
L 126.702066 104.189324 
L 126.894235 103.686965 
L 127.054375 101.175171 
L 127.82305 101.175171 
L 127.938351 100.672812 
L 129.059336 100.672812 
L 129.270721 100.170453 
L 131.51269 100.170453 
L 131.551124 98.663377 
L 131.679236 98.663377 
L 131.730481 98.161018 
L 139.064922 98.161018 
L 139.116167 97.40748 
L 139.628617 97.40748 
L 139.679862 96.905121 
L 148.647737 96.905121 
L 148.807878 96.653942 
L 149.032075 96.653942 
L 149.18581 95.900404 
L 149.474063 95.900404 
L 149.525308 95.398045 
L 149.749505 95.398045 
L 149.864806 94.895686 
L 151.49824 94.895686 
L 151.555891 94.644507 
L 155.591435 94.644507 
L 155.732358 93.890969 
L 158.294608 93.890969 
L 158.441938 92.383892 
L 159.819147 92.383892 
L 159.876798 90.876816 
L 163.239751 90.876816 
L 163.303807 90.625637 
L 164.745073 90.625637 
L 165.340796 89.872099 
L 165.853246 89.872099 
L 165.910896 89.620919 
L 166.391318 89.620919 
L 166.513025 88.113843 
L 167.377785 88.113843 
L 167.493086 87.611484 
L 168.517986 87.611484 
L 168.646098 83.843793 
L 172.71367 83.843793 
L 172.867405 83.592614 
L 174.949233 83.592614 
L 175.006884 83.341435 
L 175.615418 83.341435 
L 175.673069 81.834358 
L 175.865238 81.834358 
L 175.942105 81.08082 
L 178.984777 81.08082 
L 179.061645 80.327282 
L 181.495782 80.327282 
L 181.623895 80.076103 
L 182.168373 80.076103 
L 182.206806 77.815488 
L 183.648072 77.815488 
L 183.705723 77.564309 
L 184.09006 77.564309 
L 184.128494 76.057232 
L 185.697872 76.057232 
L 185.787551 75.806053 
L 186.203916 75.806053 
L 186.402491 74.801335 
L 187.395363 74.801335 
L 187.446608 74.047797 
L 190.841589 74.047797 
L 190.988918 73.545439 
L 191.917734 73.545439 
L 192.020224 72.038362 
L 192.981068 72.038362 
L 193.032313 71.536003 
L 197.484222 71.536003 
L 197.541873 71.284824 
L 198.855026 71.284824 
L 199.111251 71.033645 
L 202.922598 71.033645 
L 206.733945 70.531286 
L 207.342479 70.531286 
L 207.393724 70.028927 
L 208.514708 70.028927 
L 208.770933 69.777748 
L 208.809367 68.270671 
L 209.481958 68.270671 
L 209.546014 68.019492 
L 212.236377 68.019492 
L 212.454168 67.768313 
L 212.902562 67.768313 
L 213.190815 67.517133 
L 215.400755 67.517133 
L 215.528868 66.010057 
L 216.938105 66.010057 
L 217.19433 65.758878 
L 219.724552 65.758878 
L 219.80142 65.005339 
L 223.292485 65.005339 
L 223.542305 63.498263 
L 226.328752 63.498263 
L 226.456864 59.730572 
L 228.122327 59.730572 
L 228.244033 59.479393 
L 229.108793 59.479393 
L 229.28815 58.725855 
L 234.092369 58.725855 
L 234.233293 57.972317 
L 235.001968 57.972317 
L 235.040402 56.46524 
L 252.412457 56.46524 
L 252.534163 55.962882 
L 259.292098 55.962882 
L 259.439427 55.460523 
L 261.425171 55.460523 
L 261.482822 55.209343 
L 270.514753 55.209343 
L 270.783789 54.455805 
L 271.007986 54.455805 
L 271.321862 54.204626 
L 280.385821 54.204626 
L 280.571584 53.953446 
L 281.916765 53.953446 
L 282.230641 53.702267 
L 282.775119 53.702267 
L 283.088995 53.199908 
L 285.298935 53.199908 
L 285.45267 52.948729 
L 286.669739 52.948729 
L 286.746607 52.195191 
L 289.436969 52.195191 
L 289.872552 51.692832 
L 293.395645 51.692832 
L 293.54938 51.441653 
L 300.864604 51.441653 
L 301.005528 50.688114 
L 319.972584 50.688114 
L 320.113507 49.934576 
L 331.099154 49.934576 
L 331.156805 49.683397 
L 338.062069 49.683397 
L 338.215804 49.181038 
L 343.052051 49.181038 
L 343.109701 48.929859 
L 371.838929 48.929859 
L 371.986259 48.4275 
L 400.90125 48.4275 
L 400.90125 48.4275 
" style="fill:none;stroke:#1f77b4;stroke-linecap:square;stroke-width:1.5;"/>
   </g>
   <g id="line2d_14">
    <path clip-path="url(#pc264fc4444)" d="M 43.78125 301.8675 
L 43.877336 300.861786 
L 44.069508 300.861786 
L 44.165594 298.3475 
L 44.549939 298.3475 
L 44.934283 293.318929 
L 45.895144 288.793214 
L 45.99123 286.278929 
L 46.612587 282.758929 
L 48.630395 269.433214 
L 48.726481 269.433214 
L 49.078797 267.421786 
L 50.424002 258.118929 
L 50.616174 258.118929 
L 51.288777 255.101786 
L 51.448921 255.101786 
L 51.512978 254.096071 
L 51.70515 253.593214 
L 52.230421 249.318929 
L 52.678823 247.056071 
L 52.736474 246.050357 
L 53.953565 241.776071 
L 54.017622 240.770357 
L 54.273852 240.770357 
L 54.337909 239.764643 
L 54.530082 239.764643 
L 54.7735 238.5075 
L 54.869586 238.004643 
L 55.113004 234.9875 
L 55.356422 233.478929 
L 55.548594 233.478929 
L 55.612652 232.976071 
L 55.798418 230.461786 
L 55.894504 230.461786 
L 56.560701 225.181786 
L 57.105189 225.181786 
L 57.265333 224.4275 
L 57.393447 224.4275 
L 57.521562 223.924643 
L 57.681706 223.924643 
L 57.995587 221.410357 
L 58.091673 221.410357 
L 58.315874 219.398929 
L 58.443989 219.398929 
L 58.508046 218.393214 
L 60.269625 218.393214 
L 60.461797 216.381786 
L 60.551477 214.873214 
L 60.711621 214.873214 
L 61.095965 210.3475 
L 61.22408 210.3475 
L 61.3586 209.341786 
L 61.582801 206.8275 
L 61.87106 206.8275 
L 62.197752 204.313214 
L 62.236187 202.804643 
L 62.844732 202.804643 
L 63.004875 202.050357 
L 63.100962 202.050357 
L 63.165019 201.5475 
L 63.453277 201.5475 
L 63.594204 201.044643 
L 63.850433 201.044643 
L 64.177126 197.273214 
L 64.273212 197.273214 
L 64.311646 196.2675 
L 64.760048 196.2675 
L 64.798483 195.261786 
L 65.374999 195.261786 
L 65.695286 192.998929 
L 65.887458 192.998929 
L 66.015573 191.490357 
L 66.271803 191.490357 
L 66.431946 190.484643 
L 67.649037 190.484643 
L 67.687471 189.478929 
L 69.737308 189.478929 
L 69.833394 188.724643 
L 70.377882 188.724643 
L 70.44194 187.718929 
L 71.434829 187.718929 
L 71.710276 184.701786 
L 71.838391 184.198929 
L 71.998534 184.198929 
L 72.152272 183.193214 
L 74.106023 183.193214 
L 74.336629 180.930357 
L 74.528802 180.930357 
L 74.81706 179.924643 
L 76.03415 176.404643 
L 76.514581 176.404643 
L 76.674724 175.398929 
L 76.738782 175.398929 
L 76.866897 173.890357 
L 78.596446 173.890357 
L 78.775807 172.381786 
L 79.416381 172.381786 
L 79.608553 171.6275 
L 80.281156 171.6275 
L 80.524574 169.8675 
L 80.652689 169.8675 
L 80.864078 168.861786 
L 82.30537 168.861786 
L 82.369427 167.856071 
L 82.497542 167.856071 
L 82.657686 167.353214 
L 84.931723 167.353214 
L 84.995781 166.850357 
L 85.380125 166.850357 
L 85.50824 166.096071 
L 85.828527 166.096071 
L 85.892584 165.090357 
L 86.116785 165.090357 
L 86.308957 164.5875 
L 86.373015 164.5875 
L 86.469101 163.078929 
L 86.597216 163.078929 
L 86.731736 162.073214 
L 86.987966 162.073214 
L 87.103269 161.570357 
L 87.199355 161.570357 
L 87.385122 160.061786 
L 87.865552 160.061786 
L 87.916798 159.558929 
L 88.044913 159.558929 
L 88.205056 158.804643 
L 89.069831 158.804643 
L 89.262003 157.5475 
L 90.863438 157.5475 
L 91.183725 157.044643 
L 91.471984 157.044643 
L 91.536041 156.290357 
L 91.664156 156.290357 
L 91.728213 155.7875 
L 95.315428 155.7875 
L 95.616497 154.0275 
L 95.712583 154.0275 
L 95.885538 153.273214 
L 97.551031 153.273214 
L 97.647117 151.764643 
L 97.775232 151.764643 
L 97.903347 151.261786 
L 98.06349 151.261786 
L 98.191605 149.753214 
L 99.953183 149.753214 
L 100.017241 148.244643 
L 100.465642 148.244643 
L 100.606569 146.233214 
L 101.343229 146.233214 
L 101.381663 144.724643 
L 101.509778 144.724643 
L 101.561024 144.221786 
L 101.91334 144.221786 
L 102.073483 141.456071 
L 102.265655 141.456071 
L 102.329713 140.953214 
L 102.457828 140.953214 
L 102.65 139.444643 
L 103.066373 139.444643 
L 103.232922 136.930357 
L 103.29698 136.930357 
L 103.444312 136.4275 
L 104.46923 136.4275 
L 104.72546 136.176071 
L 106.230808 136.176071 
L 106.294866 135.421786 
L 107.383842 135.421786 
L 107.601637 133.913214 
L 107.697723 133.913214 
L 107.857866 133.410357 
L 108.338297 133.410357 
L 108.434383 132.9075 
L 111.541167 132.9075 
L 111.720527 130.896071 
L 112.200958 130.896071 
L 112.380319 129.890357 
L 116.447964 129.890357 
L 116.627324 127.878929 
L 117.556157 127.878929 
L 117.607402 127.376071 
L 118.920579 127.376071 
L 119.18962 126.621786 
L 119.413821 126.621786 
L 119.53553 125.113214 
L 120.336248 125.113214 
L 120.470768 124.1075 
L 121.591773 124.1075 
L 121.65583 123.604643 
L 121.713482 122.096071 
L 124.532007 122.096071 
L 124.570442 121.090357 
L 124.8587 121.090357 
L 124.922757 120.5875 
L 125.371159 120.5875 
L 125.435217 119.833214 
L 125.563331 119.833214 
L 125.691446 118.8275 
L 126.043762 118.8275 
L 126.107819 118.324643 
L 126.460135 118.324643 
L 126.511381 117.570357 
L 127.248041 117.570357 
L 127.408185 116.816071 
L 130.130624 116.816071 
L 130.290767 116.313214 
L 130.611054 116.313214 
L 130.6623 115.810357 
L 134.1214 115.810357 
L 134.275138 114.301786 
L 134.563396 114.301786 
L 134.627453 113.798929 
L 134.979769 113.798929 
L 135.146318 111.7875 
L 135.915007 111.7875 
L 135.979065 111.284643 
L 136.363409 111.284643 
L 136.427466 111.033214 
L 137.484413 111.033214 
L 137.779077 109.021786 
L 137.97125 109.021786 
L 138.131393 108.518929 
L 138.419651 108.518929 
L 138.477303 107.010357 
L 138.605418 107.010357 
L 138.669475 106.5075 
L 138.79759 106.5075 
L 138.861647 105.753214 
L 140.431054 105.753214 
L 140.495111 105.250357 
L 141.648144 105.250357 
L 141.69939 104.7475 
L 142.307936 104.7475 
L 142.487296 103.490357 
L 142.743526 103.490357 
L 143.044596 101.478929 
L 143.121465 100.976071 
L 146.004047 100.976071 
L 146.164191 100.221786 
L 147.861712 100.221786 
L 148.009044 99.718929 
L 148.265274 98.713214 
L 148.681647 98.713214 
L 148.720081 97.7075 
L 148.912253 97.7075 
L 149.040368 97.204643 
L 150.22543 97.204643 
L 150.340733 96.701786 
L 150.564934 96.701786 
L 150.61618 96.198929 
L 151.833271 96.198929 
L 151.884517 95.696071 
L 152.012632 95.696071 
L 152.153558 95.193214 
L 152.60196 95.193214 
L 152.762103 94.690357 
L 153.114419 94.690357 
L 153.268157 93.181786 
L 153.332214 93.181786 
L 153.550009 91.673214 
L 153.742181 91.673214 
L 153.992005 90.164643 
L 155.305182 90.164643 
L 155.407674 89.158929 
L 156.624764 89.158929 
L 156.913023 87.650357 
L 157.361424 87.650357 
L 157.425482 87.1475 
L 158.258228 87.1475 
L 158.552892 85.136071 
L 160.122298 85.136071 
L 160.263225 84.633214 
L 163.068939 84.633214 
L 163.120185 84.130357 
L 163.504529 84.130357 
L 163.709513 83.376071 
L 166.399923 83.376071 
L 166.496009 82.621786 
L 166.752239 82.621786 
L 166.925194 81.8675 
L 167.373596 81.8675 
L 167.424842 81.364643 
L 169.666851 81.364643 
L 169.782154 80.861786 
L 171.031273 80.861786 
L 171.146577 80.358929 
L 171.402806 80.358929 
L 171.787151 79.353214 
L 172.235552 79.353214 
L 174.285389 78.096071 
L 174.797848 78.096071 
L 174.94518 77.593214 
L 176.354443 77.593214 
L 176.546615 77.090357 
L 177.827763 77.090357 
L 177.879009 76.5875 
L 180.153047 76.5875 
L 180.210699 75.078929 
L 180.338813 75.078929 
L 180.466928 74.576071 
L 180.723158 74.576071 
L 180.787215 73.821786 
L 182.196478 73.821786 
L 182.395056 72.816071 
L 182.939544 72.816071 
L 183.054847 72.313214 
L 183.663392 72.313214 
L 183.791507 71.558929 
L 184.271938 71.558929 
L 184.540979 71.056071 
L 184.989381 71.056071 
L 185.053438 70.301786 
L 185.694012 70.301786 
L 185.745258 69.5475 
L 188.691898 69.5475 
L 188.743144 69.044643 
L 189.415747 69.044643 
L 190.760952 67.536071 
L 191.978043 67.536071 
L 192.0421 67.033214 
L 195.821487 67.033214 
L 195.872733 66.530357 
L 196.353163 66.530357 
L 196.660639 64.518929 
L 200.82437 64.518929 
L 200.875616 64.016071 
L 201.548218 64.016071 
L 201.612276 63.513214 
L 202.445022 63.513214 
L 202.496268 63.010357 
L 205.346822 63.010357 
L 205.494154 62.5075 
L 207.896307 62.5075 
L 208.043639 62.004643 
L 208.876385 62.004643 
L 208.914819 60.496071 
L 214.712014 60.496071 
L 214.865752 59.490357 
L 224.794648 59.490357 
L 224.94198 58.9875 
L 228.208908 58.9875 
L 228.260154 58.484643 
L 236.459501 58.484643 
L 236.523558 57.981786 
L 239.470199 57.981786 
L 239.707211 57.478929 
L 251.192703 57.478929 
L 251.25676 56.724643 
L 253.146453 56.724643 
L 253.274568 56.473214 
L 257.790615 56.473214 
L 257.96357 55.718929 
L 263.901691 55.718929 
L 264.061834 55.4675 
L 264.382121 55.4675 
L 264.497424 54.964643 
L 277.96229 54.964643 
L 278.154462 54.210357 
L 282.190078 54.210357 
L 282.465525 53.7075 
L 284.419275 53.7075 
L 284.470521 53.204643 
L 289.563085 53.204643 
L 289.614331 52.701786 
L 295.79587 52.701786 
L 295.847115 52.198929 
L 299.818674 52.198929 
L 299.895543 51.444643 
L 304.89202 51.444643 
L 304.949672 49.936071 
L 330.668718 49.936071 
L 330.81605 49.433214 
L 356.970686 49.433214 
L 357.021932 48.930357 
L 357.854678 48.930357 
L 357.905924 48.4275 
L 400.90125 48.4275 
L 400.90125 48.4275 
" style="fill:none;stroke:#ff7f0e;stroke-linecap:square;stroke-width:1.5;"/>
   </g>
   <g id="line2d_15">
    <path clip-path="url(#pc264fc4444)" d="M 43.78125 301.8675 
L 43.877336 301.364643 
L 44.005451 298.850357 
L 44.389795 298.850357 
L 44.947095 295.330357 
L 45.171296 294.324643 
L 45.363468 292.816071 
L 45.587669 291.810357 
L 45.683755 291.810357 
L 46.228243 288.793214 
L 46.388386 287.7875 
L 46.932874 284.016071 
L 47.060989 284.016071 
L 47.221132 282.5075 
L 47.426116 278.736071 
L 47.554231 277.730357 
L 47.682346 277.730357 
L 51.045359 252.5875 
L 51.141445 252.5875 
L 51.301589 250.073214 
L 51.365646 250.073214 
L 51.621876 248.313214 
L 52.26245 248.313214 
L 52.435405 246.301786 
L 53.08879 243.033214 
L 53.184876 242.530357 
L 53.312991 242.530357 
L 53.940753 238.256071 
L 54.549299 238.256071 
L 54.933643 237.753214 
L 55.25393 234.233214 
L 55.317988 234.233214 
L 55.64468 230.461786 
L 55.740766 230.461786 
L 56.080271 227.9475 
L 56.624759 227.9475 
L 56.823336 225.936071 
L 57.130812 223.924643 
L 57.233304 221.913214 
L 57.32939 221.913214 
L 57.521562 221.410357 
L 58.418366 221.410357 
L 58.610538 219.398929 
L 58.674595 219.398929 
L 59.026911 216.633214 
L 59.090968 216.633214 
L 59.270329 214.621786 
L 59.878874 214.621786 
L 60.039018 213.616071 
L 60.115887 212.861786 
L 60.308059 212.861786 
L 60.500231 212.358929 
L 60.660375 212.358929 
L 60.993473 211.101786 
L 61.217674 208.336071 
L 61.31376 208.336071 
L 61.505932 207.581786 
L 61.794191 207.581786 
L 61.954334 207.078929 
L 63.29954 207.078929 
L 63.43406 205.318929 
L 63.498117 205.318929 
L 63.664667 203.3075 
L 63.82481 203.3075 
L 64.273212 200.793214 
L 64.497413 200.793214 
L 64.56147 199.7875 
L 64.8177 199.7875 
L 64.90738 198.278929 
L 65.64404 198.278929 
L 65.740126 197.524643 
L 66.092442 197.524643 
L 66.303832 194.256071 
L 66.848319 194.256071 
L 67.008463 193.250357 
L 67.104549 193.250357 
L 67.32875 192.244643 
L 67.424836 192.244643 
L 67.668254 190.9875 
L 67.860426 190.9875 
L 67.924484 190.484643 
L 69.01346 190.484643 
L 69.115951 188.473214 
L 69.244066 188.473214 
L 69.340152 186.964643 
L 69.532324 186.964643 
L 69.92948 183.9475 
L 70.121653 183.193214 
L 70.313825 183.193214 
L 70.53162 181.181786 
L 70.595677 181.181786 
L 70.736604 178.6675 
L 70.83269 178.6675 
L 71.056891 176.656071 
L 71.172194 175.650357 
L 71.300309 175.650357 
L 71.486075 174.141786 
L 71.678247 174.141786 
L 71.716682 173.136071 
L 72.229141 173.136071 
L 72.44053 172.130357 
L 72.504588 172.130357 
L 72.594268 170.621786 
L 72.946584 170.621786 
L 73.081104 169.616071 
L 73.273277 168.1075 
L 73.977908 168.1075 
L 74.118834 167.353214 
L 74.21492 167.353214 
L 74.311006 166.850357 
L 74.855494 166.850357 
L 75.047667 165.844643 
L 75.335925 165.844643 
L 75.387171 165.341786 
L 75.707458 165.341786 
L 75.835573 164.838929 
L 75.963687 164.838929 
L 76.059773 164.084643 
L 76.444118 164.084643 
L 76.501769 162.576071 
L 76.757999 162.576071 
L 76.950171 162.073214 
L 77.142343 162.073214 
L 77.302487 161.0675 
L 77.398573 161.0675 
L 77.558717 160.816071 
L 77.846975 160.816071 
L 78.06477 158.804643 
L 78.250536 158.050357 
L 78.66691 158.050357 
L 78.955168 157.044643 
L 79.307484 157.044643 
L 79.627771 156.541786 
L 80.108201 156.541786 
L 80.223504 154.781786 
L 80.31959 154.781786 
L 80.370836 154.278929 
L 80.979382 154.278929 
L 81.075468 152.770357 
L 81.52387 152.770357 
L 81.562304 151.764643 
L 81.754476 151.764643 
L 82.023517 149.753214 
L 82.824235 149.753214 
L 82.984378 148.244643 
L 83.080464 148.244643 
L 83.240608 146.233214 
L 83.279042 143.970357 
L 83.82353 143.970357 
L 83.913211 142.461786 
L 84.041325 142.461786 
L 84.137411 141.7075 
L 84.681899 141.7075 
L 84.970158 140.701786 
L 85.034215 140.701786 
L 85.072649 139.696071 
L 85.489023 139.696071 
L 85.681195 138.1875 
L 86.513941 138.1875 
L 86.59081 136.176071 
L 86.782982 136.176071 
L 86.898285 135.673214 
L 87.314658 135.673214 
L 87.41715 134.6675 
L 87.494019 133.913214 
L 88.582995 133.913214 
L 88.621429 132.9075 
L 89.229975 132.9075 
L 89.422147 131.398929 
L 89.550262 130.393214 
L 91.824299 130.393214 
L 91.901168 129.638929 
L 92.221455 129.638929 
L 92.317541 129.3875 
L 92.797972 129.3875 
L 92.862029 128.884643 
L 93.214345 128.884643 
L 93.361677 128.381786 
L 93.585878 128.381786 
L 93.649935 127.878929 
L 95.25137 127.878929 
L 95.443542 126.873214 
L 95.5076 126.873214 
L 95.603686 126.118929 
L 96.212231 125.616071 
L 96.353157 124.861786 
L 96.513301 124.861786 
L 96.609387 123.353214 
L 96.865617 123.353214 
L 97.02576 122.3475 
L 97.141063 121.844643 
L 97.365264 121.844643 
L 97.442133 121.090357 
L 98.531109 121.090357 
L 98.646412 120.084643 
L 98.838585 120.084643 
L 99.094814 118.8275 
L 99.383072 118.8275 
L 99.53681 117.318929 
L 100.401585 117.318929 
L 100.548917 116.061786 
L 101.029348 116.061786 
L 101.080593 115.558929 
L 101.368852 115.558929 
L 101.65711 114.804643 
L 101.721167 114.804643 
L 101.919745 112.290357 
L 102.137541 109.273214 
L 102.233627 109.273214 
L 102.272061 108.2675 
L 103.072779 108.2675 
L 103.636484 107.261786 
L 103.796627 107.261786 
L 103.982394 105.753214 
L 104.430795 105.753214 
L 104.494853 105.250357 
L 104.719054 105.250357 
L 104.911226 104.7475 
L 105.80803 104.7475 
L 105.884898 103.238929 
L 108.927625 103.238929 
L 109.004494 102.484643 
L 110.029412 102.484643 
L 110.157527 101.981786 
L 110.894187 101.981786 
L 111.054331 101.478929 
L 111.342589 101.478929 
L 111.489921 100.976071 
L 111.842237 100.976071 
L 111.893482 100.473214 
L 112.117683 100.473214 
L 112.213769 99.718929 
L 112.790286 99.718929 
L 112.867155 99.216071 
L 117.287115 99.216071 
L 117.338361 98.713214 
L 117.466476 98.713214 
L 117.524128 97.204643 
L 117.7163 97.204643 
L 117.870038 95.696071 
L 118.734813 95.696071 
L 118.926985 93.684643 
L 119.567559 93.684643 
L 119.759731 92.930357 
L 120.304219 92.930357 
L 120.400305 91.421786 
L 122.225941 91.421786 
L 122.322027 90.6675 
L 122.99463 90.6675 
L 123.045876 90.164643 
L 123.366163 90.164643 
L 123.417409 89.661786 
L 128.253742 89.661786 
L 128.509972 88.9075 
L 128.606058 88.9075 
L 128.702144 88.153214 
L 130.175464 88.153214 
L 130.290767 87.650357 
L 133.621752 87.650357 
L 133.769084 87.1475 
L 134.569802 87.1475 
L 134.646671 86.393214 
L 137.913598 86.393214 
L 138.009684 84.884643 
L 138.233885 84.884643 
L 138.40684 84.381786 
L 138.631041 84.381786 
L 138.765561 83.376071 
L 139.53425 83.376071 
L 139.982652 82.118929 
L 141.391915 82.118929 
L 141.468784 81.364643 
L 143.134276 81.364643 
L 143.230362 80.610357 
L 143.550649 80.610357 
L 143.665952 80.1075 
L 144.979129 80.1075 
L 145.075215 79.353214 
L 145.651732 79.353214 
L 145.747818 78.598929 
L 146.036076 78.598929 
L 146.420421 78.096071 
L 149.238946 78.096071 
L 149.39909 77.341786 
L 151.256754 77.341786 
L 151.314406 75.833214 
L 152.723669 75.833214 
L 152.883812 75.330357 
L 153.460329 75.330357 
L 153.620472 74.8275 
L 154.261046 74.8275 
L 154.312292 74.324643 
L 155.84967 74.324643 
L 155.990596 73.821786 
L 157.239715 73.821786 
L 159.57781 73.318929 
L 159.705925 72.816071 
L 161.56359 72.816071 
L 161.614836 72.313214 
L 162.479611 72.313214 
L 162.530856 71.810357 
L 165.093152 71.810357 
L 165.253296 71.558929 
L 169.769343 71.558929 
L 169.910269 70.804643 
L 172.229147 70.804643 
L 172.280393 70.301786 
L 172.568651 70.301786 
L 172.728794 69.798929 
L 173.945885 69.798929 
L 173.997131 69.296071 
L 174.50959 69.296071 
L 174.650516 68.541786 
L 175.259062 68.541786 
L 175.399988 67.7875 
L 179.019231 67.7875 
L 179.0961 67.033214 
L 191.299034 67.033214 
L 191.35028 66.530357 
L 191.894768 66.530357 
L 192.035694 65.776071 
L 193.188728 65.776071 
L 193.239974 65.273214 
L 195.962413 65.273214 
L 196.058499 64.770357 
L 196.346757 64.770357 
L 196.494089 64.2675 
L 196.97452 64.2675 
L 197.089823 63.764643 
L 200.472054 63.764643 
L 200.587357 63.261786 
L 204.398773 63.261786 
L 204.450018 62.758929 
L 206.083482 62.758929 
L 206.275654 62.004643 
L 207.524774 62.004643 
L 207.601642 61.250357 
L 212.982464 61.250357 
L 213.129796 60.7475 
L 214.058628 60.7475 
L 214.231583 59.993214 
L 214.872157 59.993214 
L 215.045112 59.238929 
L 215.173227 59.238929 
L 215.333371 58.484643 
L 234.082971 58.484643 
L 234.223898 57.730357 
L 242.807589 57.730357 
L 242.871646 57.2275 
L 253.37706 57.2275 
L 253.453929 56.473214 
L 256.36854 56.473214 
L 256.445409 55.718929 
L 272.844103 55.718929 
L 272.895349 55.216071 
L 287.116092 55.216071 
L 287.173744 53.7075 
L 288.262719 53.7075 
L 288.634252 53.204643 
L 294.271303 53.204643 
L 294.322549 52.701786 
L 297.173104 52.701786 
L 297.249973 51.9475 
L 327.65802 51.9475 
L 327.837381 51.444643 
L 364.433373 51.444643 
L 364.510242 50.690357 
L 391.990866 50.690357 
L 392.067735 49.936071 
L 393.637141 49.936071 
L 393.71401 49.181786 
L 399.799463 49.181786 
L 399.940389 48.4275 
L 400.90125 48.4275 
L 400.90125 48.4275 
" style="fill:none;stroke:#2ca02c;stroke-linecap:square;stroke-width:1.5;"/>
   </g>
   <g id="line2d_16">
    <path clip-path="url(#pc264fc4444)" d="M 43.78125 301.8675 
L 400.90125 48.4275 
" style="fill:none;stroke:#000000;stroke-dasharray:5.6,2.4;stroke-dashoffset:0;stroke-width:1.5;"/>
   </g>
   <g id="patch_3">
    <path d="M 43.78125 301.8675 
L 43.78125 35.7555 
" style="fill:none;stroke:#000000;stroke-linecap:square;stroke-linejoin:miter;stroke-width:0.8;"/>
   </g>
   <g id="patch_4">
    <path d="M 400.90125 301.8675 
L 400.90125 35.7555 
" style="fill:none;stroke:#000000;stroke-linecap:square;stroke-linejoin:miter;stroke-width:0.8;"/>
   </g>
   <g id="patch_5">
    <path d="M 43.78125 301.8675 
L 400.90125 301.8675 
" style="fill:none;stroke:#000000;stroke-linecap:square;stroke-linejoin:miter;stroke-width:0.8;"/>
   </g>
   <g id="patch_6">
    <path d="M 43.78125 35.7555 
L 400.90125 35.7555 
" style="fill:none;stroke:#000000;stroke-linecap:square;stroke-linejoin:miter;stroke-width:0.8;"/>
   </g>
   <g id="text_15">
    <!-- ROC Curve GradientBoosting + SMOTE -->
    <defs>
     <path d="M 39.40625 66.21875 
Q 28.65625 66.21875 22.328125 58.203125 
Q 16.015625 50.203125 16.015625 36.375 
Q 16.015625 22.609375 22.328125 14.59375 
Q 28.65625 6.59375 39.40625 6.59375 
Q 50.140625 6.59375 56.421875 14.59375 
Q 62.703125 22.609375 62.703125 36.375 
Q 62.703125 50.203125 56.421875 58.203125 
Q 50.140625 66.21875 39.40625 66.21875 
M 39.40625 74.21875 
Q 54.734375 74.21875 63.90625 63.9375 
Q 73.09375 53.65625 73.09375 36.375 
Q 73.09375 19.140625 63.90625 8.859375 
Q 54.734375 -1.421875 39.40625 -1.421875 
Q 24.03125 -1.421875 14.8125 8.828125 
Q 5.609375 19.09375 5.609375 36.375 
Q 5.609375 53.65625 14.8125 63.9375 
Q 24.03125 74.21875 39.40625 74.21875 
" id="DejaVuSans-4f"/>
     <path d="M 64.40625 67.28125 
L 64.40625 56.890625 
Q 59.421875 61.53125 53.78125 63.8125 
Q 48.140625 66.109375 41.796875 66.109375 
Q 29.296875 66.109375 22.65625 58.46875 
Q 16.015625 50.828125 16.015625 36.375 
Q 16.015625 21.96875 22.65625 14.328125 
Q 29.296875 6.6875 41.796875 6.6875 
Q 48.140625 6.6875 53.78125 8.984375 
Q 59.421875 11.28125 64.40625 15.921875 
L 64.40625 5.609375 
Q 59.234375 2.09375 53.4375 0.328125 
Q 47.65625 -1.421875 41.21875 -1.421875 
Q 24.65625 -1.421875 15.125 8.703125 
Q 5.609375 18.84375 5.609375 36.375 
Q 5.609375 53.953125 15.125 64.078125 
Q 24.65625 74.21875 41.21875 74.21875 
Q 47.75 74.21875 53.53125 72.484375 
Q 59.328125 70.75 64.40625 67.28125 
" id="DejaVuSans-43"/>
     <path d="M 59.515625 10.40625 
L 59.515625 29.984375 
L 43.40625 29.984375 
L 43.40625 38.09375 
L 69.28125 38.09375 
L 69.28125 6.78125 
Q 63.578125 2.734375 56.6875 0.65625 
Q 49.8125 -1.421875 42 -1.421875 
Q 24.90625 -1.421875 15.25 8.5625 
Q 5.609375 18.5625 5.609375 36.375 
Q 5.609375 54.25 15.25 64.234375 
Q 24.90625 74.21875 42 74.21875 
Q 49.125 74.21875 55.546875 72.453125 
Q 61.96875 70.703125 67.390625 67.28125 
L 67.390625 56.78125 
Q 61.921875 61.421875 55.765625 63.765625 
Q 49.609375 66.109375 42.828125 66.109375 
Q 29.4375 66.109375 22.71875 58.640625 
Q 16.015625 51.171875 16.015625 36.375 
Q 16.015625 21.625 22.71875 14.15625 
Q 29.4375 6.6875 42.828125 6.6875 
Q 48.046875 6.6875 52.140625 7.59375 
Q 56.25 8.5 59.515625 10.40625 
" id="DejaVuSans-47"/>
     <path d="M 45.40625 46.390625 
L 45.40625 75.984375 
L 54.390625 75.984375 
L 54.390625 0 
L 45.40625 0 
L 45.40625 8.203125 
Q 42.578125 3.328125 38.25 0.953125 
Q 33.9375 -1.421875 27.875 -1.421875 
Q 17.96875 -1.421875 11.734375 6.484375 
Q 5.515625 14.40625 5.515625 27.296875 
Q 5.515625 40.1875 11.734375 48.09375 
Q 17.96875 56 27.875 56 
Q 33.9375 56 38.25 53.625 
Q 42.578125 51.265625 45.40625 46.390625 
M 14.796875 27.296875 
Q 14.796875 17.390625 18.875 11.75 
Q 22.953125 6.109375 30.078125 6.109375 
Q 37.203125 6.109375 41.296875 11.75 
Q 45.40625 17.390625 45.40625 27.296875 
Q 45.40625 37.203125 41.296875 42.84375 
Q 37.203125 48.484375 30.078125 48.484375 
Q 22.953125 48.484375 18.875 42.84375 
Q 14.796875 37.203125 14.796875 27.296875 
" id="DejaVuSans-64"/>
     <path d="M 54.890625 33.015625 
L 54.890625 0 
L 45.90625 0 
L 45.90625 32.71875 
Q 45.90625 40.484375 42.875 44.328125 
Q 39.84375 48.1875 33.796875 48.1875 
Q 26.515625 48.1875 22.3125 43.546875 
Q 18.109375 38.921875 18.109375 30.90625 
L 18.109375 0 
L 9.078125 0 
L 9.078125 54.6875 
L 18.109375 54.6875 
L 18.109375 46.1875 
Q 21.34375 51.125 25.703125 53.5625 
Q 30.078125 56 35.796875 56 
Q 45.21875 56 50.046875 50.171875 
Q 54.890625 44.34375 54.890625 33.015625 
" id="DejaVuSans-6e"/>
     <path d="M 19.671875 34.8125 
L 19.671875 8.109375 
L 35.5 8.109375 
Q 43.453125 8.109375 47.28125 11.40625 
Q 51.125 14.703125 51.125 21.484375 
Q 51.125 28.328125 47.28125 31.5625 
Q 43.453125 34.8125 35.5 34.8125 
z
M 19.671875 64.796875 
L 19.671875 42.828125 
L 34.28125 42.828125 
Q 41.5 42.828125 45.03125 45.53125 
Q 48.578125 48.25 48.578125 53.8125 
Q 48.578125 59.328125 45.03125 62.0625 
Q 41.5 64.796875 34.28125 64.796875 
z
M 9.8125 72.90625 
L 35.015625 72.90625 
Q 46.296875 72.90625 52.390625 68.21875 
Q 58.5 63.53125 58.5 54.890625 
Q 58.5 48.1875 55.375 44.234375 
Q 52.25 40.28125 46.1875 39.3125 
Q 53.46875 37.75 57.5 32.78125 
Q 61.53125 27.828125 61.53125 20.40625 
Q 61.53125 10.640625 54.890625 5.3125 
Q 48.25 0 35.984375 0 
L 9.8125 0 
z
" id="DejaVuSans-42"/>
     <path d="M 45.40625 27.984375 
Q 45.40625 37.75 41.375 43.109375 
Q 37.359375 48.484375 30.078125 48.484375 
Q 22.859375 48.484375 18.828125 43.109375 
Q 14.796875 37.75 14.796875 27.984375 
Q 14.796875 18.265625 18.828125 12.890625 
Q 22.859375 7.515625 30.078125 7.515625 
Q 37.359375 7.515625 41.375 12.890625 
Q 45.40625 18.265625 45.40625 27.984375 
M 54.390625 6.78125 
Q 54.390625 -7.171875 48.1875 -13.984375 
Q 42 -20.796875 29.203125 -20.796875 
Q 24.46875 -20.796875 20.265625 -20.09375 
Q 16.0625 -19.390625 12.109375 -17.921875 
L 12.109375 -9.1875 
Q 16.0625 -11.328125 19.921875 -12.34375 
Q 23.78125 -13.375 27.78125 -13.375 
Q 36.625 -13.375 41.015625 -8.765625 
Q 45.40625 -4.15625 45.40625 5.171875 
L 45.40625 9.625 
Q 42.625 4.78125 38.28125 2.390625 
Q 33.9375 0 27.875 0 
Q 17.828125 0 11.671875 7.65625 
Q 5.515625 15.328125 5.515625 27.984375 
Q 5.515625 40.671875 11.671875 48.328125 
Q 17.828125 56 27.875 56 
Q 33.9375 56 38.28125 53.609375 
Q 42.625 51.21875 45.40625 46.390625 
L 45.40625 54.6875 
L 54.390625 54.6875 
z
" id="DejaVuSans-67"/>
     <path d="M 46 62.703125 
L 46 35.5 
L 73.1875 35.5 
L 73.1875 27.203125 
L 46 27.203125 
L 46 0 
L 37.796875 0 
L 37.796875 27.203125 
L 10.59375 27.203125 
L 10.59375 35.5 
L 37.796875 35.5 
L 37.796875 62.703125 
z
" id="DejaVuSans-2b"/>
     <path d="M 53.515625 70.515625 
L 53.515625 60.890625 
Q 47.90625 63.578125 42.921875 64.890625 
Q 37.9375 66.21875 33.296875 66.21875 
Q 25.25 66.21875 20.875 63.09375 
Q 16.5 59.96875 16.5 54.203125 
Q 16.5 49.359375 19.40625 46.890625 
Q 22.3125 44.4375 30.421875 42.921875 
L 36.375 41.703125 
Q 47.40625 39.59375 52.65625 34.296875 
Q 57.90625 29 57.90625 20.125 
Q 57.90625 9.515625 50.796875 4.046875 
Q 43.703125 -1.421875 29.984375 -1.421875 
Q 24.8125 -1.421875 18.96875 -0.25 
Q 13.140625 0.921875 6.890625 3.21875 
L 6.890625 13.375 
Q 12.890625 10.015625 18.65625 8.296875 
Q 24.421875 6.59375 29.984375 6.59375 
Q 38.421875 6.59375 43.015625 9.90625 
Q 47.609375 13.234375 47.609375 19.390625 
Q 47.609375 24.75 44.3125 27.78125 
Q 41.015625 30.8125 33.5 32.328125 
L 27.484375 33.5 
Q 16.453125 35.6875 11.515625 40.375 
Q 6.59375 45.0625 6.59375 53.421875 
Q 6.59375 63.09375 13.40625 68.65625 
Q 20.21875 74.21875 32.171875 74.21875 
Q 37.3125 74.21875 42.625 73.28125 
Q 47.953125 72.359375 53.515625 70.515625 
" id="DejaVuSans-53"/>
     <path d="M 9.8125 72.90625 
L 24.515625 72.90625 
L 43.109375 23.296875 
L 61.8125 72.90625 
L 76.515625 72.90625 
L 76.515625 0 
L 66.890625 0 
L 66.890625 64.015625 
L 48.09375 14.015625 
L 38.1875 14.015625 
L 19.390625 64.015625 
L 19.390625 0 
L 9.8125 0 
z
" id="DejaVuSans-4d"/>
     <path d="M 9.8125 72.90625 
L 55.90625 72.90625 
L 55.90625 64.59375 
L 19.671875 64.59375 
L 19.671875 43.015625 
L 54.390625 43.015625 
L 54.390625 34.71875 
L 19.671875 34.71875 
L 19.671875 8.296875 
L 56.78125 8.296875 
L 56.78125 0 
L 9.8125 0 
z
" id="DejaVuSans-45"/>
    </defs>
    <g transform="translate(105.406875 16.318125)scale(0.12 -0.12)">
     <use xlink:href="#DejaVuSans-52"/>
     <use x="69.482422" xlink:href="#DejaVuSans-4f"/>
     <use x="148.193359" xlink:href="#DejaVuSans-43"/>
     <use x="218.017578" xlink:href="#DejaVuSans-20"/>
     <use x="249.804688" xlink:href="#DejaVuSans-43"/>
     <use x="319.628906" xlink:href="#DejaVuSans-75"/>
     <use x="383.007812" xlink:href="#DejaVuSans-72"/>
     <use x="424.121094" xlink:href="#DejaVuSans-76"/>
     <use x="483.300781" xlink:href="#DejaVuSans-65"/>
     <use x="544.824219" xlink:href="#DejaVuSans-20"/>
     <use x="576.611328" xlink:href="#DejaVuSans-47"/>
     <use x="654.101562" xlink:href="#DejaVuSans-72"/>
     <use x="695.214844" xlink:href="#DejaVuSans-61"/>
     <use x="756.494141" xlink:href="#DejaVuSans-64"/>
     <use x="819.970703" xlink:href="#DejaVuSans-69"/>
     <use x="847.753906" xlink:href="#DejaVuSans-65"/>
     <use x="909.277344" xlink:href="#DejaVuSans-6e"/>
     <use x="972.65625" xlink:href="#DejaVuSans-74"/>
     <use x="1011.865234" xlink:href="#DejaVuSans-42"/>
     <use x="1080.46875" xlink:href="#DejaVuSans-6f"/>
     <use x="1141.650391" xlink:href="#DejaVuSans-6f"/>
     <use x="1202.832031" xlink:href="#DejaVuSans-73"/>
     <use x="1254.931641" xlink:href="#DejaVuSans-74"/>
     <use x="1294.140625" xlink:href="#DejaVuSans-69"/>
     <use x="1321.923828" xlink:href="#DejaVuSans-6e"/>
     <use x="1385.302734" xlink:href="#DejaVuSans-67"/>
     <use x="1448.779297" xlink:href="#DejaVuSans-20"/>
     <use x="1480.566406" xlink:href="#DejaVuSans-2b"/>
     <use x="1564.355469" xlink:href="#DejaVuSans-20"/>
     <use x="1596.142578" xlink:href="#DejaVuSans-53"/>
     <use x="1659.619141" xlink:href="#DejaVuSans-4d"/>
     <use x="1745.898438" xlink:href="#DejaVuSans-4f"/>
     <use x="1824.609375" xlink:href="#DejaVuSans-54"/>
     <use x="1885.693359" xlink:href="#DejaVuSans-45"/>
    </g>
    <!-- Train: 24   Test: [1, 4, 8, 12, 16, 20, 24] -->
    <defs>
     <path d="M 11.71875 12.40625 
L 22.015625 12.40625 
L 22.015625 0 
L 11.71875 0 
z
M 11.71875 51.703125 
L 22.015625 51.703125 
L 22.015625 39.3125 
L 11.71875 39.3125 
z
" id="DejaVuSans-3a"/>
     <path d="M 8.59375 75.984375 
L 29.296875 75.984375 
L 29.296875 69 
L 17.578125 69 
L 17.578125 -6.203125 
L 29.296875 -6.203125 
L 29.296875 -13.1875 
L 8.59375 -13.1875 
z
" id="DejaVuSans-5b"/>
     <path d="M 11.71875 12.40625 
L 22.015625 12.40625 
L 22.015625 4 
L 14.015625 -11.625 
L 7.71875 -11.625 
L 11.71875 4 
z
" id="DejaVuSans-2c"/>
     <path d="M 30.421875 75.984375 
L 30.421875 -13.1875 
L 9.71875 -13.1875 
L 9.71875 -6.203125 
L 21.390625 -6.203125 
L 21.390625 69 
L 9.71875 69 
L 9.71875 75.984375 
z
" id="DejaVuSans-5d"/>
    </defs>
    <g transform="translate(103.489688 29.7555)scale(0.12 -0.12)">
     <use xlink:href="#DejaVuSans-54"/>
     <use x="60.865234" xlink:href="#DejaVuSans-72"/>
     <use x="101.978516" xlink:href="#DejaVuSans-61"/>
     <use x="163.257812" xlink:href="#DejaVuSans-69"/>
     <use x="191.041016" xlink:href="#DejaVuSans-6e"/>
     <use x="254.419922" xlink:href="#DejaVuSans-3a"/>
     <use x="288.111328" xlink:href="#DejaVuSans-20"/>
     <use x="319.898438" xlink:href="#DejaVuSans-32"/>
     <use x="383.521484" xlink:href="#DejaVuSans-34"/>
     <use x="447.144531" xlink:href="#DejaVuSans-20"/>
     <use x="478.931641" xlink:href="#DejaVuSans-20"/>
     <use x="510.71875" xlink:href="#DejaVuSans-20"/>
     <use x="542.505859" xlink:href="#DejaVuSans-54"/>
     <use x="603.324219" xlink:href="#DejaVuSans-65"/>
     <use x="664.847656" xlink:href="#DejaVuSans-73"/>
     <use x="716.947266" xlink:href="#DejaVuSans-74"/>
     <use x="756.15625" xlink:href="#DejaVuSans-3a"/>
     <use x="789.847656" xlink:href="#DejaVuSans-20"/>
     <use x="821.634766" xlink:href="#DejaVuSans-5b"/>
     <use x="860.648438" xlink:href="#DejaVuSans-31"/>
     <use x="924.271484" xlink:href="#DejaVuSans-2c"/>
     <use x="956.058594" xlink:href="#DejaVuSans-20"/>
     <use x="987.845703" xlink:href="#DejaVuSans-34"/>
     <use x="1051.46875" xlink:href="#DejaVuSans-2c"/>
     <use x="1083.255859" xlink:href="#DejaVuSans-20"/>
     <use x="1115.042969" xlink:href="#DejaVuSans-38"/>
     <use x="1178.666016" xlink:href="#DejaVuSans-2c"/>
     <use x="1210.453125" xlink:href="#DejaVuSans-20"/>
     <use x="1242.240234" xlink:href="#DejaVuSans-31"/>
     <use x="1305.863281" xlink:href="#DejaVuSans-32"/>
     <use x="1369.486328" xlink:href="#DejaVuSans-2c"/>
     <use x="1401.273438" xlink:href="#DejaVuSans-20"/>
     <use x="1433.060547" xlink:href="#DejaVuSans-31"/>
     <use x="1496.683594" xlink:href="#DejaVuSans-36"/>
     <use x="1560.306641" xlink:href="#DejaVuSans-2c"/>
     <use x="1592.09375" xlink:href="#DejaVuSans-20"/>
     <use x="1623.880859" xlink:href="#DejaVuSans-32"/>
     <use x="1687.503906" xlink:href="#DejaVuSans-30"/>
     <use x="1751.126953" xlink:href="#DejaVuSans-2c"/>
     <use x="1782.914062" xlink:href="#DejaVuSans-20"/>
     <use x="1814.701172" xlink:href="#DejaVuSans-32"/>
     <use x="1878.324219" xlink:href="#DejaVuSans-34"/>
     <use x="1941.947266" xlink:href="#DejaVuSans-5d"/>
    </g>
   </g>
   <g id="legend_1">
    <g id="patch_7">
     <path d="M 217.087188 296.8675 
L 393.90125 296.8675 
Q 395.90125 296.8675 395.90125 294.8675 
L 395.90125 251.833125 
Q 395.90125 249.833125 393.90125 249.833125 
L 217.087188 249.833125 
Q 215.087188 249.833125 215.087188 251.833125 
L 215.087188 294.8675 
Q 215.087188 296.8675 217.087188 296.8675 
z
" style="fill:#ffffff;opacity:0.8;stroke:#cccccc;stroke-linejoin:miter;"/>
    </g>
    <g id="line2d_17">
     <path d="M 219.087188 257.931562 
L 239.087188 257.931562 
" style="fill:none;stroke:#1f77b4;stroke-linecap:square;stroke-width:1.5;"/>
    </g>
    <g id="line2d_18"/>
    <g id="text_16">
     <!-- ROC curve - 0 (AUC = 0.859) -->
     <defs>
      <path d="M 48.78125 52.59375 
L 48.78125 44.1875 
Q 44.96875 46.296875 41.140625 47.34375 
Q 37.3125 48.390625 33.40625 48.390625 
Q 24.65625 48.390625 19.8125 42.84375 
Q 14.984375 37.3125 14.984375 27.296875 
Q 14.984375 17.28125 19.8125 11.734375 
Q 24.65625 6.203125 33.40625 6.203125 
Q 37.3125 6.203125 41.140625 7.25 
Q 44.96875 8.296875 48.78125 10.40625 
L 48.78125 2.09375 
Q 45.015625 0.34375 40.984375 -0.53125 
Q 36.96875 -1.421875 32.421875 -1.421875 
Q 20.0625 -1.421875 12.78125 6.34375 
Q 5.515625 14.109375 5.515625 27.296875 
Q 5.515625 40.671875 12.859375 48.328125 
Q 20.21875 56 33.015625 56 
Q 37.15625 56 41.109375 55.140625 
Q 45.0625 54.296875 48.78125 52.59375 
" id="DejaVuSans-63"/>
      <path d="M 4.890625 31.390625 
L 31.203125 31.390625 
L 31.203125 23.390625 
L 4.890625 23.390625 
z
" id="DejaVuSans-2d"/>
      <path d="M 31 75.875 
Q 24.46875 64.65625 21.28125 53.65625 
Q 18.109375 42.671875 18.109375 31.390625 
Q 18.109375 20.125 21.3125 9.0625 
Q 24.515625 -2 31 -13.1875 
L 23.1875 -13.1875 
Q 15.875 -1.703125 12.234375 9.375 
Q 8.59375 20.453125 8.59375 31.390625 
Q 8.59375 42.28125 12.203125 53.3125 
Q 15.828125 64.359375 23.1875 75.875 
z
" id="DejaVuSans-28"/>
      <path d="M 34.1875 63.1875 
L 20.796875 26.90625 
L 47.609375 26.90625 
z
M 28.609375 72.90625 
L 39.796875 72.90625 
L 67.578125 0 
L 57.328125 0 
L 50.6875 18.703125 
L 17.828125 18.703125 
L 11.1875 0 
L 0.78125 0 
z
" id="DejaVuSans-41"/>
      <path d="M 8.6875 72.90625 
L 18.609375 72.90625 
L 18.609375 28.609375 
Q 18.609375 16.890625 22.84375 11.734375 
Q 27.09375 6.59375 36.625 6.59375 
Q 46.09375 6.59375 50.34375 11.734375 
Q 54.59375 16.890625 54.59375 28.609375 
L 54.59375 72.90625 
L 64.5 72.90625 
L 64.5 27.390625 
Q 64.5 13.140625 57.4375 5.859375 
Q 50.390625 -1.421875 36.625 -1.421875 
Q 22.796875 -1.421875 15.734375 5.859375 
Q 8.6875 13.140625 8.6875 27.390625 
z
" id="DejaVuSans-55"/>
      <path d="M 10.59375 45.40625 
L 73.1875 45.40625 
L 73.1875 37.203125 
L 10.59375 37.203125 
z
M 10.59375 25.484375 
L 73.1875 25.484375 
L 73.1875 17.1875 
L 10.59375 17.1875 
z
" id="DejaVuSans-3d"/>
      <path d="M 10.796875 72.90625 
L 49.515625 72.90625 
L 49.515625 64.59375 
L 19.828125 64.59375 
L 19.828125 46.734375 
Q 21.96875 47.46875 24.109375 47.828125 
Q 26.265625 48.1875 28.421875 48.1875 
Q 40.625 48.1875 47.75 41.5 
Q 54.890625 34.8125 54.890625 23.390625 
Q 54.890625 11.625 47.5625 5.09375 
Q 40.234375 -1.421875 26.90625 -1.421875 
Q 22.3125 -1.421875 17.546875 -0.640625 
Q 12.796875 0.140625 7.71875 1.703125 
L 7.71875 11.625 
Q 12.109375 9.234375 16.796875 8.0625 
Q 21.484375 6.890625 26.703125 6.890625 
Q 35.15625 6.890625 40.078125 11.328125 
Q 45.015625 15.765625 45.015625 23.390625 
Q 45.015625 31 40.078125 35.4375 
Q 35.15625 39.890625 26.703125 39.890625 
Q 22.75 39.890625 18.8125 39.015625 
Q 14.890625 38.140625 10.796875 36.28125 
z
" id="DejaVuSans-35"/>
      <path d="M 10.984375 1.515625 
L 10.984375 10.5 
Q 14.703125 8.734375 18.5 7.8125 
Q 22.3125 6.890625 25.984375 6.890625 
Q 35.75 6.890625 40.890625 13.453125 
Q 46.046875 20.015625 46.78125 33.40625 
Q 43.953125 29.203125 39.59375 26.953125 
Q 35.25 24.703125 29.984375 24.703125 
Q 19.046875 24.703125 12.671875 31.3125 
Q 6.296875 37.9375 6.296875 49.421875 
Q 6.296875 60.640625 12.9375 67.421875 
Q 19.578125 74.21875 30.609375 74.21875 
Q 43.265625 74.21875 49.921875 64.515625 
Q 56.59375 54.828125 56.59375 36.375 
Q 56.59375 19.140625 48.40625 8.859375 
Q 40.234375 -1.421875 26.421875 -1.421875 
Q 22.703125 -1.421875 18.890625 -0.6875 
Q 15.09375 0.046875 10.984375 1.515625 
M 30.609375 32.421875 
Q 37.25 32.421875 41.125 36.953125 
Q 45.015625 41.5 45.015625 49.421875 
Q 45.015625 57.28125 41.125 61.84375 
Q 37.25 66.40625 30.609375 66.40625 
Q 23.96875 66.40625 20.09375 61.84375 
Q 16.21875 57.28125 16.21875 49.421875 
Q 16.21875 41.5 20.09375 36.953125 
Q 23.96875 32.421875 30.609375 32.421875 
" id="DejaVuSans-39"/>
      <path d="M 8.015625 75.875 
L 15.828125 75.875 
Q 23.140625 64.359375 26.78125 53.3125 
Q 30.421875 42.28125 30.421875 31.390625 
Q 30.421875 20.453125 26.78125 9.375 
Q 23.140625 -1.703125 15.828125 -13.1875 
L 8.015625 -13.1875 
Q 14.5 -2 17.703125 9.0625 
Q 20.90625 20.125 20.90625 31.390625 
Q 20.90625 42.671875 17.703125 53.65625 
Q 14.5 64.65625 8.015625 75.875 
" id="DejaVuSans-29"/>
     </defs>
     <g transform="translate(247.087188 261.431562)scale(0.1 -0.1)">
      <use xlink:href="#DejaVuSans-52"/>
      <use x="69.482422" xlink:href="#DejaVuSans-4f"/>
      <use x="148.193359" xlink:href="#DejaVuSans-43"/>
      <use x="218.017578" xlink:href="#DejaVuSans-20"/>
      <use x="249.804688" xlink:href="#DejaVuSans-63"/>
      <use x="304.785156" xlink:href="#DejaVuSans-75"/>
      <use x="368.164062" xlink:href="#DejaVuSans-72"/>
      <use x="409.277344" xlink:href="#DejaVuSans-76"/>
      <use x="468.457031" xlink:href="#DejaVuSans-65"/>
      <use x="529.980469" xlink:href="#DejaVuSans-20"/>
      <use x="561.767578" xlink:href="#DejaVuSans-2d"/>
      <use x="597.851562" xlink:href="#DejaVuSans-20"/>
      <use x="629.638672" xlink:href="#DejaVuSans-30"/>
      <use x="693.261719" xlink:href="#DejaVuSans-20"/>
      <use x="725.048828" xlink:href="#DejaVuSans-28"/>
      <use x="764.0625" xlink:href="#DejaVuSans-41"/>
      <use x="832.470703" xlink:href="#DejaVuSans-55"/>
      <use x="905.664062" xlink:href="#DejaVuSans-43"/>
      <use x="975.488281" xlink:href="#DejaVuSans-20"/>
      <use x="1007.275391" xlink:href="#DejaVuSans-3d"/>
      <use x="1091.064453" xlink:href="#DejaVuSans-20"/>
      <use x="1122.851562" xlink:href="#DejaVuSans-30"/>
      <use x="1186.474609" xlink:href="#DejaVuSans-2e"/>
      <use x="1218.261719" xlink:href="#DejaVuSans-38"/>
      <use x="1281.884766" xlink:href="#DejaVuSans-35"/>
      <use x="1345.507812" xlink:href="#DejaVuSans-39"/>
      <use x="1409.130859" xlink:href="#DejaVuSans-29"/>
     </g>
    </g>
    <g id="line2d_19">
     <path d="M 219.087188 272.609687 
L 239.087188 272.609687 
" style="fill:none;stroke:#ff7f0e;stroke-linecap:square;stroke-width:1.5;"/>
    </g>
    <g id="line2d_20"/>
    <g id="text_17">
     <!-- ROC curve - 1 (AUC = 0.841) -->
     <g transform="translate(247.087188 276.109687)scale(0.1 -0.1)">
      <use xlink:href="#DejaVuSans-52"/>
      <use x="69.482422" xlink:href="#DejaVuSans-4f"/>
      <use x="148.193359" xlink:href="#DejaVuSans-43"/>
      <use x="218.017578" xlink:href="#DejaVuSans-20"/>
      <use x="249.804688" xlink:href="#DejaVuSans-63"/>
      <use x="304.785156" xlink:href="#DejaVuSans-75"/>
      <use x="368.164062" xlink:href="#DejaVuSans-72"/>
      <use x="409.277344" xlink:href="#DejaVuSans-76"/>
      <use x="468.457031" xlink:href="#DejaVuSans-65"/>
      <use x="529.980469" xlink:href="#DejaVuSans-20"/>
      <use x="561.767578" xlink:href="#DejaVuSans-2d"/>
      <use x="597.851562" xlink:href="#DejaVuSans-20"/>
      <use x="629.638672" xlink:href="#DejaVuSans-31"/>
      <use x="693.261719" xlink:href="#DejaVuSans-20"/>
      <use x="725.048828" xlink:href="#DejaVuSans-28"/>
      <use x="764.0625" xlink:href="#DejaVuSans-41"/>
      <use x="832.470703" xlink:href="#DejaVuSans-55"/>
      <use x="905.664062" xlink:href="#DejaVuSans-43"/>
      <use x="975.488281" xlink:href="#DejaVuSans-20"/>
      <use x="1007.275391" xlink:href="#DejaVuSans-3d"/>
      <use x="1091.064453" xlink:href="#DejaVuSans-20"/>
      <use x="1122.851562" xlink:href="#DejaVuSans-30"/>
      <use x="1186.474609" xlink:href="#DejaVuSans-2e"/>
      <use x="1218.261719" xlink:href="#DejaVuSans-38"/>
      <use x="1281.884766" xlink:href="#DejaVuSans-34"/>
      <use x="1345.507812" xlink:href="#DejaVuSans-31"/>
      <use x="1409.130859" xlink:href="#DejaVuSans-29"/>
     </g>
    </g>
    <g id="line2d_21">
     <path d="M 219.087188 287.287812 
L 239.087188 287.287812 
" style="fill:none;stroke:#2ca02c;stroke-linecap:square;stroke-width:1.5;"/>
    </g>
    <g id="line2d_22"/>
    <g id="text_18">
     <!-- ROC curve - 2 (AUC = 0.866) -->
     <g transform="translate(247.087188 290.787812)scale(0.1 -0.1)">
      <use xlink:href="#DejaVuSans-52"/>
      <use x="69.482422" xlink:href="#DejaVuSans-4f"/>
      <use x="148.193359" xlink:href="#DejaVuSans-43"/>
      <use x="218.017578" xlink:href="#DejaVuSans-20"/>
      <use x="249.804688" xlink:href="#DejaVuSans-63"/>
      <use x="304.785156" xlink:href="#DejaVuSans-75"/>
      <use x="368.164062" xlink:href="#DejaVuSans-72"/>
      <use x="409.277344" xlink:href="#DejaVuSans-76"/>
      <use x="468.457031" xlink:href="#DejaVuSans-65"/>
      <use x="529.980469" xlink:href="#DejaVuSans-20"/>
      <use x="561.767578" xlink:href="#DejaVuSans-2d"/>
      <use x="597.851562" xlink:href="#DejaVuSans-20"/>
      <use x="629.638672" xlink:href="#DejaVuSans-32"/>
      <use x="693.261719" xlink:href="#DejaVuSans-20"/>
      <use x="725.048828" xlink:href="#DejaVuSans-28"/>
      <use x="764.0625" xlink:href="#DejaVuSans-41"/>
      <use x="832.470703" xlink:href="#DejaVuSans-55"/>
      <use x="905.664062" xlink:href="#DejaVuSans-43"/>
      <use x="975.488281" xlink:href="#DejaVuSans-20"/>
      <use x="1007.275391" xlink:href="#DejaVuSans-3d"/>
      <use x="1091.064453" xlink:href="#DejaVuSans-20"/>
      <use x="1122.851562" xlink:href="#DejaVuSans-30"/>
      <use x="1186.474609" xlink:href="#DejaVuSans-2e"/>
      <use x="1218.261719" xlink:href="#DejaVuSans-38"/>
      <use x="1281.884766" xlink:href="#DejaVuSans-36"/>
      <use x="1345.507812" xlink:href="#DejaVuSans-36"/>
      <use x="1409.130859" xlink:href="#DejaVuSans-29"/>
     </g>
    </g>
   </g>
  </g>
 </g>
 <defs>
  <clipPath id="pc264fc4444">
   <rect height="266.112" width="357.12" x="43.78125" y="35.7555"/>
  </clipPath>
 </defs>
</svg>
