<?xml version="1.0" encoding="utf-8" standalone="no"?>
<!DOCTYPE svg PUBLIC "-//W3C//DTD SVG 1.1//EN"
  "http://www.w3.org/Graphics/SVG/1.1/DTD/svg11.dtd">
<!-- Created with matplotlib (http://matplotlib.org/) -->
<svg height="339pt" version="1.1" viewBox="0 0 416 339" width="416pt" xmlns="http://www.w3.org/2000/svg" xmlns:xlink="http://www.w3.org/1999/xlink">
 <defs>
  <style type="text/css">
*{stroke-linecap:butt;stroke-linejoin:round;}
  </style>
 </defs>
 <g id="figure_1">
  <g id="patch_1">
   <path d="M 0 339.42375 
L 416.052813 339.42375 
L 416.052813 0 
L 0 0 
z
" style="fill:#ffffff;"/>
  </g>
  <g id="axes_1">
   <g id="patch_2">
    <path d="M 43.78125 301.8675 
L 400.90125 301.8675 
L 400.90125 35.7555 
L 43.78125 35.7555 
z
" style="fill:#ffffff;"/>
   </g>
   <g id="matplotlib.axis_1">
    <g id="xtick_1">
     <g id="line2d_1">
      <defs>
       <path d="M 0 0 
L 0 3.5 
" id="mb5c6eca12d" style="stroke:#000000;stroke-width:0.8;"/>
      </defs>
      <g>
       <use style="stroke:#000000;stroke-width:0.8;" x="43.78125" xlink:href="#mb5c6eca12d" y="301.8675"/>
      </g>
     </g>
     <g id="text_1">
      <!-- 0.0 -->
      <defs>
       <path d="M 31.78125 66.40625 
Q 24.171875 66.40625 20.328125 58.90625 
Q 16.5 51.421875 16.5 36.375 
Q 16.5 21.390625 20.328125 13.890625 
Q 24.171875 6.390625 31.78125 6.390625 
Q 39.453125 6.390625 43.28125 13.890625 
Q 47.125 21.390625 47.125 36.375 
Q 47.125 51.421875 43.28125 58.90625 
Q 39.453125 66.40625 31.78125 66.40625 
M 31.78125 74.21875 
Q 44.046875 74.21875 50.515625 64.515625 
Q 56.984375 54.828125 56.984375 36.375 
Q 56.984375 17.96875 50.515625 8.265625 
Q 44.046875 -1.421875 31.78125 -1.421875 
Q 19.53125 -1.421875 13.0625 8.265625 
Q 6.59375 17.96875 6.59375 36.375 
Q 6.59375 54.828125 13.0625 64.515625 
Q 19.53125 74.21875 31.78125 74.21875 
" id="DejaVuSans-30"/>
       <path d="M 10.6875 12.40625 
L 21 12.40625 
L 21 0 
L 10.6875 0 
z
" id="DejaVuSans-2e"/>
      </defs>
      <g transform="translate(35.829688 316.465937)scale(0.1 -0.1)">
       <use xlink:href="#DejaVuSans-30"/>
       <use x="63.623047" xlink:href="#DejaVuSans-2e"/>
       <use x="95.410156" xlink:href="#DejaVuSans-30"/>
      </g>
     </g>
    </g>
    <g id="xtick_2">
     <g id="line2d_2">
      <g>
       <use style="stroke:#000000;stroke-width:0.8;" x="115.20525" xlink:href="#mb5c6eca12d" y="301.8675"/>
      </g>
     </g>
     <g id="text_2">
      <!-- 0.2 -->
      <defs>
       <path d="M 19.1875 8.296875 
L 53.609375 8.296875 
L 53.609375 0 
L 7.328125 0 
L 7.328125 8.296875 
Q 12.9375 14.109375 22.625 23.890625 
Q 32.328125 33.6875 34.8125 36.53125 
Q 39.546875 41.84375 41.421875 45.53125 
Q 43.3125 49.21875 43.3125 52.78125 
Q 43.3125 58.59375 39.234375 62.25 
Q 35.15625 65.921875 28.609375 65.921875 
Q 23.96875 65.921875 18.8125 64.3125 
Q 13.671875 62.703125 7.8125 59.421875 
L 7.8125 69.390625 
Q 13.765625 71.78125 18.9375 73 
Q 24.125 74.21875 28.421875 74.21875 
Q 39.75 74.21875 46.484375 68.546875 
Q 53.21875 62.890625 53.21875 53.421875 
Q 53.21875 48.921875 51.53125 44.890625 
Q 49.859375 40.875 45.40625 35.40625 
Q 44.1875 33.984375 37.640625 27.21875 
Q 31.109375 20.453125 19.1875 8.296875 
" id="DejaVuSans-32"/>
      </defs>
      <g transform="translate(107.253688 316.465937)scale(0.1 -0.1)">
       <use xlink:href="#DejaVuSans-30"/>
       <use x="63.623047" xlink:href="#DejaVuSans-2e"/>
       <use x="95.410156" xlink:href="#DejaVuSans-32"/>
      </g>
     </g>
    </g>
    <g id="xtick_3">
     <g id="line2d_3">
      <g>
       <use style="stroke:#000000;stroke-width:0.8;" x="186.62925" xlink:href="#mb5c6eca12d" y="301.8675"/>
      </g>
     </g>
     <g id="text_3">
      <!-- 0.4 -->
      <defs>
       <path d="M 37.796875 64.3125 
L 12.890625 25.390625 
L 37.796875 25.390625 
z
M 35.203125 72.90625 
L 47.609375 72.90625 
L 47.609375 25.390625 
L 58.015625 25.390625 
L 58.015625 17.1875 
L 47.609375 17.1875 
L 47.609375 0 
L 37.796875 0 
L 37.796875 17.1875 
L 4.890625 17.1875 
L 4.890625 26.703125 
z
" id="DejaVuSans-34"/>
      </defs>
      <g transform="translate(178.677688 316.465937)scale(0.1 -0.1)">
       <use xlink:href="#DejaVuSans-30"/>
       <use x="63.623047" xlink:href="#DejaVuSans-2e"/>
       <use x="95.410156" xlink:href="#DejaVuSans-34"/>
      </g>
     </g>
    </g>
    <g id="xtick_4">
     <g id="line2d_4">
      <g>
       <use style="stroke:#000000;stroke-width:0.8;" x="258.05325" xlink:href="#mb5c6eca12d" y="301.8675"/>
      </g>
     </g>
     <g id="text_4">
      <!-- 0.6 -->
      <defs>
       <path d="M 33.015625 40.375 
Q 26.375 40.375 22.484375 35.828125 
Q 18.609375 31.296875 18.609375 23.390625 
Q 18.609375 15.53125 22.484375 10.953125 
Q 26.375 6.390625 33.015625 6.390625 
Q 39.65625 6.390625 43.53125 10.953125 
Q 47.40625 15.53125 47.40625 23.390625 
Q 47.40625 31.296875 43.53125 35.828125 
Q 39.65625 40.375 33.015625 40.375 
M 52.59375 71.296875 
L 52.59375 62.3125 
Q 48.875 64.0625 45.09375 64.984375 
Q 41.3125 65.921875 37.59375 65.921875 
Q 27.828125 65.921875 22.671875 59.328125 
Q 17.53125 52.734375 16.796875 39.40625 
Q 19.671875 43.65625 24.015625 45.921875 
Q 28.375 48.1875 33.59375 48.1875 
Q 44.578125 48.1875 50.953125 41.515625 
Q 57.328125 34.859375 57.328125 23.390625 
Q 57.328125 12.15625 50.6875 5.359375 
Q 44.046875 -1.421875 33.015625 -1.421875 
Q 20.359375 -1.421875 13.671875 8.265625 
Q 6.984375 17.96875 6.984375 36.375 
Q 6.984375 53.65625 15.1875 63.9375 
Q 23.390625 74.21875 37.203125 74.21875 
Q 40.921875 74.21875 44.703125 73.484375 
Q 48.484375 72.75 52.59375 71.296875 
" id="DejaVuSans-36"/>
      </defs>
      <g transform="translate(250.101688 316.465937)scale(0.1 -0.1)">
       <use xlink:href="#DejaVuSans-30"/>
       <use x="63.623047" xlink:href="#DejaVuSans-2e"/>
       <use x="95.410156" xlink:href="#DejaVuSans-36"/>
      </g>
     </g>
    </g>
    <g id="xtick_5">
     <g id="line2d_5">
      <g>
       <use style="stroke:#000000;stroke-width:0.8;" x="329.47725" xlink:href="#mb5c6eca12d" y="301.8675"/>
      </g>
     </g>
     <g id="text_5">
      <!-- 0.8 -->
      <defs>
       <path d="M 31.78125 34.625 
Q 24.75 34.625 20.71875 30.859375 
Q 16.703125 27.09375 16.703125 20.515625 
Q 16.703125 13.921875 20.71875 10.15625 
Q 24.75 6.390625 31.78125 6.390625 
Q 38.8125 6.390625 42.859375 10.171875 
Q 46.921875 13.96875 46.921875 20.515625 
Q 46.921875 27.09375 42.890625 30.859375 
Q 38.875 34.625 31.78125 34.625 
M 21.921875 38.8125 
Q 15.578125 40.375 12.03125 44.71875 
Q 8.5 49.078125 8.5 55.328125 
Q 8.5 64.0625 14.71875 69.140625 
Q 20.953125 74.21875 31.78125 74.21875 
Q 42.671875 74.21875 48.875 69.140625 
Q 55.078125 64.0625 55.078125 55.328125 
Q 55.078125 49.078125 51.53125 44.71875 
Q 48 40.375 41.703125 38.8125 
Q 48.828125 37.15625 52.796875 32.3125 
Q 56.78125 27.484375 56.78125 20.515625 
Q 56.78125 9.90625 50.3125 4.234375 
Q 43.84375 -1.421875 31.78125 -1.421875 
Q 19.734375 -1.421875 13.25 4.234375 
Q 6.78125 9.90625 6.78125 20.515625 
Q 6.78125 27.484375 10.78125 32.3125 
Q 14.796875 37.15625 21.921875 38.8125 
M 18.3125 54.390625 
Q 18.3125 48.734375 21.84375 45.5625 
Q 25.390625 42.390625 31.78125 42.390625 
Q 38.140625 42.390625 41.71875 45.5625 
Q 45.3125 48.734375 45.3125 54.390625 
Q 45.3125 60.0625 41.71875 63.234375 
Q 38.140625 66.40625 31.78125 66.40625 
Q 25.390625 66.40625 21.84375 63.234375 
Q 18.3125 60.0625 18.3125 54.390625 
" id="DejaVuSans-38"/>
      </defs>
      <g transform="translate(321.525688 316.465937)scale(0.1 -0.1)">
       <use xlink:href="#DejaVuSans-30"/>
       <use x="63.623047" xlink:href="#DejaVuSans-2e"/>
       <use x="95.410156" xlink:href="#DejaVuSans-38"/>
      </g>
     </g>
    </g>
    <g id="xtick_6">
     <g id="line2d_6">
      <g>
       <use style="stroke:#000000;stroke-width:0.8;" x="400.90125" xlink:href="#mb5c6eca12d" y="301.8675"/>
      </g>
     </g>
     <g id="text_6">
      <!-- 1.0 -->
      <defs>
       <path d="M 12.40625 8.296875 
L 28.515625 8.296875 
L 28.515625 63.921875 
L 10.984375 60.40625 
L 10.984375 69.390625 
L 28.421875 72.90625 
L 38.28125 72.90625 
L 38.28125 8.296875 
L 54.390625 8.296875 
L 54.390625 0 
L 12.40625 0 
z
" id="DejaVuSans-31"/>
      </defs>
      <g transform="translate(392.949688 316.465937)scale(0.1 -0.1)">
       <use xlink:href="#DejaVuSans-31"/>
       <use x="63.623047" xlink:href="#DejaVuSans-2e"/>
       <use x="95.410156" xlink:href="#DejaVuSans-30"/>
      </g>
     </g>
    </g>
    <g id="text_7">
     <!-- False Positive Rate -->
     <defs>
      <path d="M 9.8125 72.90625 
L 51.703125 72.90625 
L 51.703125 64.59375 
L 19.671875 64.59375 
L 19.671875 43.109375 
L 48.578125 43.109375 
L 48.578125 34.8125 
L 19.671875 34.8125 
L 19.671875 0 
L 9.8125 0 
z
" id="DejaVuSans-46"/>
      <path d="M 34.28125 27.484375 
Q 23.390625 27.484375 19.1875 25 
Q 14.984375 22.515625 14.984375 16.5 
Q 14.984375 11.71875 18.140625 8.90625 
Q 21.296875 6.109375 26.703125 6.109375 
Q 34.1875 6.109375 38.703125 11.40625 
Q 43.21875 16.703125 43.21875 25.484375 
L 43.21875 27.484375 
z
M 52.203125 31.203125 
L 52.203125 0 
L 43.21875 0 
L 43.21875 8.296875 
Q 40.140625 3.328125 35.546875 0.953125 
Q 30.953125 -1.421875 24.3125 -1.421875 
Q 15.921875 -1.421875 10.953125 3.296875 
Q 6 8.015625 6 15.921875 
Q 6 25.140625 12.171875 29.828125 
Q 18.359375 34.515625 30.609375 34.515625 
L 43.21875 34.515625 
L 43.21875 35.40625 
Q 43.21875 41.609375 39.140625 45 
Q 35.0625 48.390625 27.6875 48.390625 
Q 23 48.390625 18.546875 47.265625 
Q 14.109375 46.140625 10.015625 43.890625 
L 10.015625 52.203125 
Q 14.9375 54.109375 19.578125 55.046875 
Q 24.21875 56 28.609375 56 
Q 40.484375 56 46.34375 49.84375 
Q 52.203125 43.703125 52.203125 31.203125 
" id="DejaVuSans-61"/>
      <path d="M 9.421875 75.984375 
L 18.40625 75.984375 
L 18.40625 0 
L 9.421875 0 
z
" id="DejaVuSans-6c"/>
      <path d="M 44.28125 53.078125 
L 44.28125 44.578125 
Q 40.484375 46.53125 36.375 47.5 
Q 32.28125 48.484375 27.875 48.484375 
Q 21.1875 48.484375 17.84375 46.4375 
Q 14.5 44.390625 14.5 40.28125 
Q 14.5 37.15625 16.890625 35.375 
Q 19.28125 33.59375 26.515625 31.984375 
L 29.59375 31.296875 
Q 39.15625 29.25 43.1875 25.515625 
Q 47.21875 21.78125 47.21875 15.09375 
Q 47.21875 7.46875 41.1875 3.015625 
Q 35.15625 -1.421875 24.609375 -1.421875 
Q 20.21875 -1.421875 15.453125 -0.5625 
Q 10.6875 0.296875 5.421875 2 
L 5.421875 11.28125 
Q 10.40625 8.6875 15.234375 7.390625 
Q 20.0625 6.109375 24.8125 6.109375 
Q 31.15625 6.109375 34.5625 8.28125 
Q 37.984375 10.453125 37.984375 14.40625 
Q 37.984375 18.0625 35.515625 20.015625 
Q 33.0625 21.96875 24.703125 23.78125 
L 21.578125 24.515625 
Q 13.234375 26.265625 9.515625 29.90625 
Q 5.8125 33.546875 5.8125 39.890625 
Q 5.8125 47.609375 11.28125 51.796875 
Q 16.75 56 26.8125 56 
Q 31.78125 56 36.171875 55.265625 
Q 40.578125 54.546875 44.28125 53.078125 
" id="DejaVuSans-73"/>
      <path d="M 56.203125 29.59375 
L 56.203125 25.203125 
L 14.890625 25.203125 
Q 15.484375 15.921875 20.484375 11.0625 
Q 25.484375 6.203125 34.421875 6.203125 
Q 39.59375 6.203125 44.453125 7.46875 
Q 49.3125 8.734375 54.109375 11.28125 
L 54.109375 2.78125 
Q 49.265625 0.734375 44.1875 -0.34375 
Q 39.109375 -1.421875 33.890625 -1.421875 
Q 20.796875 -1.421875 13.15625 6.1875 
Q 5.515625 13.8125 5.515625 26.8125 
Q 5.515625 40.234375 12.765625 48.109375 
Q 20.015625 56 32.328125 56 
Q 43.359375 56 49.78125 48.890625 
Q 56.203125 41.796875 56.203125 29.59375 
M 47.21875 32.234375 
Q 47.125 39.59375 43.09375 43.984375 
Q 39.0625 48.390625 32.421875 48.390625 
Q 24.90625 48.390625 20.390625 44.140625 
Q 15.875 39.890625 15.1875 32.171875 
z
" id="DejaVuSans-65"/>
      <path id="DejaVuSans-20"/>
      <path d="M 19.671875 64.796875 
L 19.671875 37.40625 
L 32.078125 37.40625 
Q 38.96875 37.40625 42.71875 40.96875 
Q 46.484375 44.53125 46.484375 51.125 
Q 46.484375 57.671875 42.71875 61.234375 
Q 38.96875 64.796875 32.078125 64.796875 
z
M 9.8125 72.90625 
L 32.078125 72.90625 
Q 44.34375 72.90625 50.609375 67.359375 
Q 56.890625 61.8125 56.890625 51.125 
Q 56.890625 40.328125 50.609375 34.8125 
Q 44.34375 29.296875 32.078125 29.296875 
L 19.671875 29.296875 
L 19.671875 0 
L 9.8125 0 
z
" id="DejaVuSans-50"/>
      <path d="M 30.609375 48.390625 
Q 23.390625 48.390625 19.1875 42.75 
Q 14.984375 37.109375 14.984375 27.296875 
Q 14.984375 17.484375 19.15625 11.84375 
Q 23.34375 6.203125 30.609375 6.203125 
Q 37.796875 6.203125 41.984375 11.859375 
Q 46.1875 17.53125 46.1875 27.296875 
Q 46.1875 37.015625 41.984375 42.703125 
Q 37.796875 48.390625 30.609375 48.390625 
M 30.609375 56 
Q 42.328125 56 49.015625 48.375 
Q 55.71875 40.765625 55.71875 27.296875 
Q 55.71875 13.875 49.015625 6.21875 
Q 42.328125 -1.421875 30.609375 -1.421875 
Q 18.84375 -1.421875 12.171875 6.21875 
Q 5.515625 13.875 5.515625 27.296875 
Q 5.515625 40.765625 12.171875 48.375 
Q 18.84375 56 30.609375 56 
" id="DejaVuSans-6f"/>
      <path d="M 9.421875 54.6875 
L 18.40625 54.6875 
L 18.40625 0 
L 9.421875 0 
z
M 9.421875 75.984375 
L 18.40625 75.984375 
L 18.40625 64.59375 
L 9.421875 64.59375 
z
" id="DejaVuSans-69"/>
      <path d="M 18.3125 70.21875 
L 18.3125 54.6875 
L 36.8125 54.6875 
L 36.8125 47.703125 
L 18.3125 47.703125 
L 18.3125 18.015625 
Q 18.3125 11.328125 20.140625 9.421875 
Q 21.96875 7.515625 27.59375 7.515625 
L 36.8125 7.515625 
L 36.8125 0 
L 27.59375 0 
Q 17.1875 0 13.234375 3.875 
Q 9.28125 7.765625 9.28125 18.015625 
L 9.28125 47.703125 
L 2.6875 47.703125 
L 2.6875 54.6875 
L 9.28125 54.6875 
L 9.28125 70.21875 
z
" id="DejaVuSans-74"/>
      <path d="M 2.984375 54.6875 
L 12.5 54.6875 
L 29.59375 8.796875 
L 46.6875 54.6875 
L 56.203125 54.6875 
L 35.6875 0 
L 23.484375 0 
z
" id="DejaVuSans-76"/>
      <path d="M 44.390625 34.1875 
Q 47.5625 33.109375 50.5625 29.59375 
Q 53.5625 26.078125 56.59375 19.921875 
L 66.609375 0 
L 56 0 
L 46.6875 18.703125 
Q 43.0625 26.03125 39.671875 28.421875 
Q 36.28125 30.8125 30.421875 30.8125 
L 19.671875 30.8125 
L 19.671875 0 
L 9.8125 0 
L 9.8125 72.90625 
L 32.078125 72.90625 
Q 44.578125 72.90625 50.734375 67.671875 
Q 56.890625 62.453125 56.890625 51.90625 
Q 56.890625 45.015625 53.6875 40.46875 
Q 50.484375 35.9375 44.390625 34.1875 
M 19.671875 64.796875 
L 19.671875 38.921875 
L 32.078125 38.921875 
Q 39.203125 38.921875 42.84375 42.21875 
Q 46.484375 45.515625 46.484375 51.90625 
Q 46.484375 58.296875 42.84375 61.546875 
Q 39.203125 64.796875 32.078125 64.796875 
z
" id="DejaVuSans-52"/>
     </defs>
     <g transform="translate(175.135781 330.144062)scale(0.1 -0.1)">
      <use xlink:href="#DejaVuSans-46"/>
      <use x="57.378906" xlink:href="#DejaVuSans-61"/>
      <use x="118.658203" xlink:href="#DejaVuSans-6c"/>
      <use x="146.441406" xlink:href="#DejaVuSans-73"/>
      <use x="198.541016" xlink:href="#DejaVuSans-65"/>
      <use x="260.064453" xlink:href="#DejaVuSans-20"/>
      <use x="291.851562" xlink:href="#DejaVuSans-50"/>
      <use x="352.107422" xlink:href="#DejaVuSans-6f"/>
      <use x="413.289062" xlink:href="#DejaVuSans-73"/>
      <use x="465.388672" xlink:href="#DejaVuSans-69"/>
      <use x="493.171875" xlink:href="#DejaVuSans-74"/>
      <use x="532.380859" xlink:href="#DejaVuSans-69"/>
      <use x="560.164062" xlink:href="#DejaVuSans-76"/>
      <use x="619.34375" xlink:href="#DejaVuSans-65"/>
      <use x="680.867188" xlink:href="#DejaVuSans-20"/>
      <use x="712.654297" xlink:href="#DejaVuSans-52"/>
      <use x="782.105469" xlink:href="#DejaVuSans-61"/>
      <use x="843.384766" xlink:href="#DejaVuSans-74"/>
      <use x="882.59375" xlink:href="#DejaVuSans-65"/>
     </g>
    </g>
   </g>
   <g id="matplotlib.axis_2">
    <g id="ytick_1">
     <g id="line2d_7">
      <defs>
       <path d="M 0 0 
L -3.5 0 
" id="mdca00a9c6e" style="stroke:#000000;stroke-width:0.8;"/>
      </defs>
      <g>
       <use style="stroke:#000000;stroke-width:0.8;" x="43.78125" xlink:href="#mdca00a9c6e" y="301.8675"/>
      </g>
     </g>
     <g id="text_8">
      <!-- 0.0 -->
      <g transform="translate(20.878125 305.666719)scale(0.1 -0.1)">
       <use xlink:href="#DejaVuSans-30"/>
       <use x="63.623047" xlink:href="#DejaVuSans-2e"/>
       <use x="95.410156" xlink:href="#DejaVuSans-30"/>
      </g>
     </g>
    </g>
    <g id="ytick_2">
     <g id="line2d_8">
      <g>
       <use style="stroke:#000000;stroke-width:0.8;" x="43.78125" xlink:href="#mdca00a9c6e" y="251.1795"/>
      </g>
     </g>
     <g id="text_9">
      <!-- 0.2 -->
      <g transform="translate(20.878125 254.978719)scale(0.1 -0.1)">
       <use xlink:href="#DejaVuSans-30"/>
       <use x="63.623047" xlink:href="#DejaVuSans-2e"/>
       <use x="95.410156" xlink:href="#DejaVuSans-32"/>
      </g>
     </g>
    </g>
    <g id="ytick_3">
     <g id="line2d_9">
      <g>
       <use style="stroke:#000000;stroke-width:0.8;" x="43.78125" xlink:href="#mdca00a9c6e" y="200.4915"/>
      </g>
     </g>
     <g id="text_10">
      <!-- 0.4 -->
      <g transform="translate(20.878125 204.290719)scale(0.1 -0.1)">
       <use xlink:href="#DejaVuSans-30"/>
       <use x="63.623047" xlink:href="#DejaVuSans-2e"/>
       <use x="95.410156" xlink:href="#DejaVuSans-34"/>
      </g>
     </g>
    </g>
    <g id="ytick_4">
     <g id="line2d_10">
      <g>
       <use style="stroke:#000000;stroke-width:0.8;" x="43.78125" xlink:href="#mdca00a9c6e" y="149.8035"/>
      </g>
     </g>
     <g id="text_11">
      <!-- 0.6 -->
      <g transform="translate(20.878125 153.602719)scale(0.1 -0.1)">
       <use xlink:href="#DejaVuSans-30"/>
       <use x="63.623047" xlink:href="#DejaVuSans-2e"/>
       <use x="95.410156" xlink:href="#DejaVuSans-36"/>
      </g>
     </g>
    </g>
    <g id="ytick_5">
     <g id="line2d_11">
      <g>
       <use style="stroke:#000000;stroke-width:0.8;" x="43.78125" xlink:href="#mdca00a9c6e" y="99.1155"/>
      </g>
     </g>
     <g id="text_12">
      <!-- 0.8 -->
      <g transform="translate(20.878125 102.914719)scale(0.1 -0.1)">
       <use xlink:href="#DejaVuSans-30"/>
       <use x="63.623047" xlink:href="#DejaVuSans-2e"/>
       <use x="95.410156" xlink:href="#DejaVuSans-38"/>
      </g>
     </g>
    </g>
    <g id="ytick_6">
     <g id="line2d_12">
      <g>
       <use style="stroke:#000000;stroke-width:0.8;" x="43.78125" xlink:href="#mdca00a9c6e" y="48.4275"/>
      </g>
     </g>
     <g id="text_13">
      <!-- 1.0 -->
      <g transform="translate(20.878125 52.226719)scale(0.1 -0.1)">
       <use xlink:href="#DejaVuSans-31"/>
       <use x="63.623047" xlink:href="#DejaVuSans-2e"/>
       <use x="95.410156" xlink:href="#DejaVuSans-30"/>
      </g>
     </g>
    </g>
    <g id="text_14">
     <!-- True Positive Rate -->
     <defs>
      <path d="M -0.296875 72.90625 
L 61.375 72.90625 
L 61.375 64.59375 
L 35.5 64.59375 
L 35.5 0 
L 25.59375 0 
L 25.59375 64.59375 
L -0.296875 64.59375 
z
" id="DejaVuSans-54"/>
      <path d="M 41.109375 46.296875 
Q 39.59375 47.171875 37.8125 47.578125 
Q 36.03125 48 33.890625 48 
Q 26.265625 48 22.1875 43.046875 
Q 18.109375 38.09375 18.109375 28.8125 
L 18.109375 0 
L 9.078125 0 
L 9.078125 54.6875 
L 18.109375 54.6875 
L 18.109375 46.1875 
Q 20.953125 51.171875 25.484375 53.578125 
Q 30.03125 56 36.53125 56 
Q 37.453125 56 38.578125 55.875 
Q 39.703125 55.765625 41.0625 55.515625 
z
" id="DejaVuSans-72"/>
      <path d="M 8.5 21.578125 
L 8.5 54.6875 
L 17.484375 54.6875 
L 17.484375 21.921875 
Q 17.484375 14.15625 20.5 10.265625 
Q 23.53125 6.390625 29.59375 6.390625 
Q 36.859375 6.390625 41.078125 11.03125 
Q 45.3125 15.671875 45.3125 23.6875 
L 45.3125 54.6875 
L 54.296875 54.6875 
L 54.296875 0 
L 45.3125 0 
L 45.3125 8.40625 
Q 42.046875 3.421875 37.71875 1 
Q 33.40625 -1.421875 27.6875 -1.421875 
Q 18.265625 -1.421875 13.375 4.4375 
Q 8.5 10.296875 8.5 21.578125 
M 31.109375 56 
z
" id="DejaVuSans-75"/>
     </defs>
     <g transform="translate(14.798438 214.357594)rotate(-90)scale(0.1 -0.1)">
      <use xlink:href="#DejaVuSans-54"/>
      <use x="60.865234" xlink:href="#DejaVuSans-72"/>
      <use x="101.978516" xlink:href="#DejaVuSans-75"/>
      <use x="165.357422" xlink:href="#DejaVuSans-65"/>
      <use x="226.880859" xlink:href="#DejaVuSans-20"/>
      <use x="258.667969" xlink:href="#DejaVuSans-50"/>
      <use x="318.923828" xlink:href="#DejaVuSans-6f"/>
      <use x="380.105469" xlink:href="#DejaVuSans-73"/>
      <use x="432.205078" xlink:href="#DejaVuSans-69"/>
      <use x="459.988281" xlink:href="#DejaVuSans-74"/>
      <use x="499.197266" xlink:href="#DejaVuSans-69"/>
      <use x="526.980469" xlink:href="#DejaVuSans-76"/>
      <use x="586.160156" xlink:href="#DejaVuSans-65"/>
      <use x="647.683594" xlink:href="#DejaVuSans-20"/>
      <use x="679.470703" xlink:href="#DejaVuSans-52"/>
      <use x="748.921875" xlink:href="#DejaVuSans-61"/>
      <use x="810.201172" xlink:href="#DejaVuSans-74"/>
      <use x="849.410156" xlink:href="#DejaVuSans-65"/>
     </g>
    </g>
   </g>
   <g id="line2d_13">
    <path clip-path="url(#p119ca97e6f)" d="M 43.78125 301.8675 
L 43.812139 301.386132 
L 43.927975 301.386132 
L 44.113311 300.423397 
L 44.248452 300.423397 
L 44.375871 299.94203 
L 45.1288 299.94203 
L 45.22919 298.979295 
L 45.538084 298.979295 
L 45.611447 297.535192 
L 45.727282 297.535192 
L 46.163594 295.850406 
L 46.491794 295.850406 
L 46.646241 294.646987 
L 46.762076 294.646987 
L 46.901079 293.684252 
L 47.016914 293.684252 
L 47.155916 292.721517 
L 47.310363 292.721517 
L 47.379864 292.24015 
L 47.611535 292.24015 
L 47.704203 291.999466 
L 47.935873 291.999466 
L 48.051709 290.796047 
L 48.128932 290.796047 
L 48.248629 289.111261 
L 48.557522 288.148526 
L 48.769887 288.148526 
L 48.91275 285.741688 
L 48.982252 285.260321 
L 49.078781 285.260321 
L 49.159866 284.297585 
L 49.719736 284.297585 
L 49.839432 282.853483 
L 49.986157 282.372115 
L 50.067242 281.40938 
L 50.418608 279.243226 
L 50.480387 277.799124 
L 50.596222 277.799124 
L 51.117481 271.78203 
L 51.225594 271.300662 
L 51.631017 271.300662 
L 51.758436 270.819295 
L 52.117525 270.337927 
L 52.140692 269.375192 
L 52.256527 269.375192 
L 52.291278 269.134509 
L 52.407113 269.134509 
L 52.515226 268.653141 
L 52.650367 268.653141 
L 52.777786 268.171774 
L 53.009456 268.171774 
L 53.171626 265.042885 
L 55.897615 228.218269 
L 55.974838 228.218269 
L 56.198786 226.533483 
L 56.391845 226.533483 
L 56.731628 223.645278 
L 56.963299 223.645278 
L 57.044383 221.479124 
L 57.469112 221.479124 
L 57.639004 220.035021 
L 57.693061 219.794338 
L 57.812757 218.831603 
L 58.604298 218.831603 
L 58.727855 216.424765 
L 58.905469 214.258611 
L 58.944081 214.258611 
L 59.063777 213.295876 
L 59.23753 213.295876 
L 59.415144 212.333141 
L 59.473062 212.333141 
L 59.538702 211.61109 
L 59.770372 211.61109 
L 60.075405 211.370406 
L 60.106294 210.889038 
L 62.569724 195.485278 
L 62.75506 195.00391 
L 63.044648 195.00391 
L 63.175928 193.559808 
L 63.291763 193.559808 
L 63.399876 193.07844 
L 63.523434 191.15297 
L 63.797577 190.190235 
L 63.932718 190.190235 
L 64.245473 186.339295 
L 64.380614 186.339295 
L 64.519617 185.37656 
L 64.558228 185.37656 
L 64.654758 184.173141 
L 64.886428 184.173141 
L 65.044736 182.006987 
L 65.199183 182.006987 
L 65.25324 180.562885 
L 65.511938 179.840833 
L 65.724303 179.840833 
L 65.882611 177.674679 
L 66.133587 177.674679 
L 66.253284 176.711944 
L 66.427037 176.711944 
L 66.457926 176.230577 
L 66.747514 176.230577 
L 66.967601 175.508526 
L 67.12977 174.786474 
L 67.990812 173.101688 
L 68.04873 173.101688 
L 68.141398 171.657585 
L 68.257233 171.657585 
L 68.303567 169.732115 
L 69.191637 169.732115 
L 69.261138 169.250748 
L 69.62795 169.250748 
L 69.851898 167.325278 
L 69.909816 167.325278 
L 70.431074 166.121859 
L 70.867387 166.121859 
L 70.948472 165.159124 
L 71.720706 165.159124 
L 71.813375 163.715021 
L 72.141574 163.715021 
L 72.442746 162.030235 
L 72.655111 162.030235 
L 72.774807 161.0675 
L 72.85203 161.0675 
L 73.338538 156.735192 
L 74.400361 156.735192 
L 74.624309 155.050406 
L 74.836674 155.050406 
L 74.898453 154.087671 
L 75.439017 154.087671 
L 75.54713 153.606303 
L 75.817412 153.606303 
L 75.871469 152.162201 
L 76.257586 152.162201 
L 76.377282 151.199466 
L 77.014376 151.199466 
L 77.381188 147.589209 
L 79.601363 147.589209 
L 79.771255 147.348526 
L 80.338847 147.348526 
L 80.547351 147.107842 
L 81.029997 147.107842 
L 81.153555 146.385791 
L 81.192167 146.385791 
L 81.273251 145.423056 
L 81.813816 145.423056 
L 81.864011 144.941688 
L 82.578328 144.941688 
L 82.601495 143.978953 
L 82.775248 143.978953 
L 83.037808 142.294167 
L 83.230867 142.294167 
L 83.300368 141.812799 
L 83.705791 141.812799 
L 83.844793 140.850064 
L 84.578416 140.850064 
L 84.651779 140.60938 
L 84.864143 140.60938 
L 84.895033 140.128013 
L 85.010868 140.128013 
L 85.045618 139.887329 
L 85.74063 139.887329 
L 85.968439 138.443226 
L 86.296639 138.443226 
L 86.420196 137.721175 
L 88.022584 137.721175 
L 88.126835 136.999124 
L 88.551565 136.999124 
L 88.783235 135.314338 
L 88.945404 134.592286 
L 89.640416 134.592286 
L 89.779418 133.629551 
L 90.416512 133.629551 
L 90.451262 132.185449 
L 92.362544 132.185449 
L 92.509268 131.704081 
L 92.914691 131.704081 
L 93.076861 130.98203 
L 93.694649 130.98203 
L 93.725538 130.500662 
L 93.879985 130.500662 
L 93.972653 129.05656 
L 94.880029 129.05656 
L 95.022893 128.334509 
L 98.548145 128.334509 
L 98.63309 127.612457 
L 98.980596 127.612457 
L 99.142765 125.686987 
L 99.779859 125.686987 
L 99.930445 125.446303 
L 100.335868 125.446303 
L 100.467148 125.20562 
L 100.544372 125.20562 
L 100.756736 124.964936 
L 100.949795 124.964936 
L 100.984545 123.520833 
L 104.131402 123.520833 
L 104.251099 122.558098 
L 106.09674 122.558098 
L 106.143074 121.836047 
L 106.316827 121.836047 
L 106.62186 121.595363 
L 106.791751 120.151261 
L 107.004116 120.151261 
L 107.112229 119.669893 
L 107.459735 119.669893 
L 107.506069 118.947842 
L 111.174184 118.947842 
L 111.297742 118.225791 
L 111.432883 118.225791 
L 111.544857 117.985107 
L 115.714925 117.985107 
L 115.799871 117.263056 
L 116.992974 117.263056 
L 117.182171 115.818953 
L 124.44504 115.818953 
L 124.553153 115.337585 
L 127.676843 115.337585 
L 127.804261 114.856218 
L 127.900791 114.856218 
L 127.954847 113.412115 
L 128.070682 113.412115 
L 128.132461 112.44938 
L 129.611291 112.44938 
L 129.680792 111.968013 
L 130.240662 111.968013 
L 133.341185 111.486645 
L 133.514938 111.486645 
L 133.804526 109.079808 
L 134.653984 109.079808 
L 134.765958 108.839124 
L 136.542099 108.839124 
L 136.727435 107.154338 
L 136.766047 107.154338 
L 136.847131 106.191603 
L 137.175331 106.191603 
L 137.30275 105.710235 
L 138.461102 105.710235 
L 138.630994 105.469551 
L 138.800885 104.025449 
L 138.963055 103.303397 
L 139.117502 103.303397 
L 139.233337 102.099979 
L 139.484313 102.099979 
L 139.553814 101.618611 
L 143.260542 101.618611 
L 144.152473 100.174509 
L 145.812778 100.174509 
L 145.955641 99.452457 
L 151.392174 98.249038 
L 152.550527 98.249038 
L 152.739724 96.804936 
L 152.874865 96.804936 
L 152.95595 94.638782 
L 153.554432 94.638782 
L 154.013912 94.398098 
L 154.921288 94.398098 
L 155.102763 93.676047 
L 156.010139 93.676047 
L 156.122113 92.231944 
L 156.431007 92.231944 
L 156.465757 90.787842 
L 161.126195 90.787842 
L 161.24203 90.306474 
L 161.435088 90.306474 
L 162.346326 89.584423 
L 162.462161 89.584423 
L 162.531662 89.103056 
L 162.937085 89.103056 
L 163.029753 88.862372 
L 163.782682 88.862372 
L 164.002769 88.140321 
L 166.917956 88.140321 
L 167.087847 86.696218 
L 169.346634 86.696218 
L 173.184642 86.455534 
L 173.366117 85.733483 
L 174.273493 85.733483 
L 174.497441 82.845278 
L 176.389416 82.845278 
L 176.443473 81.401175 
L 177.891413 81.401175 
L 177.984081 81.160491 
L 179.837445 81.160491 
L 182.690852 80.919808 
L 182.779659 80.43844 
L 188.513503 80.43844 
L 188.567559 78.994338 
L 189.088818 78.994338 
L 191.66036 78.031603 
L 191.810946 77.790919 
L 192.834157 77.790919 
L 192.926825 77.550235 
L 193.100578 77.550235 
L 193.324526 77.068868 
L 194.830384 77.068868 
L 195.787955 76.5875 
L 199.2244 76.5875 
L 199.328652 75.865449 
L 208.564581 75.865449 
L 208.722889 74.902714 
L 209.128312 74.902714 
L 209.182368 74.66203 
L 216.634435 74.66203 
L 216.788882 73.458611 
L 222.484113 73.458611 
L 222.576782 72.014509 
L 224.198475 72.014509 
L 224.244809 71.292457 
L 224.978432 71.292457 
L 225.094267 67.682201 
L 230.66208 67.682201 
L 230.982558 67.200833 
L 233.241345 67.200833 
L 233.364902 66.478782 
L 234.252972 66.478782 
L 234.403558 66.238098 
L 250.801965 66.238098 
L 250.94869 63.349893 
L 256.643921 63.349893 
L 256.752034 62.868526 
L 257.736634 62.868526 
L 258.273337 62.627842 
L 263.057332 62.627842 
L 263.142278 61.905791 
L 266.173299 61.905791 
L 266.265967 61.665107 
L 266.883755 61.665107 
L 267.015035 61.424423 
L 268.67534 61.424423 
L 268.80662 59.980321 
L 270.02289 59.980321 
L 270.289311 59.739637 
L 284.123898 59.739637 
L 284.181816 56.12938 
L 285.880732 56.12938 
L 285.969539 55.648013 
L 286.471492 55.648013 
L 286.525548 55.407329 
L 297.101304 55.407329 
L 297.143777 54.444594 
L 302.059052 54.444594 
L 302.228944 54.20391 
L 305.375801 54.20391 
L 305.468469 53.963226 
L 307.650032 53.963226 
L 307.993677 53.722543 
L 315.858889 53.722543 
L 316.009474 53.481859 
L 321.171864 53.481859 
L 321.22206 53.000491 
L 321.762624 53.000491 
L 322.005878 52.759808 
L 322.411301 52.759808 
L 322.639111 52.519124 
L 324.048439 52.519124 
L 324.430695 52.27844 
L 327.762889 52.27844 
L 328.106533 52.037756 
L 332.160766 52.037756 
L 332.40402 51.556389 
L 333.353869 51.556389 
L 333.523761 51.315705 
L 351.215661 51.315705 
L 351.269717 51.075021 
L 357.022867 51.075021 
L 357.076923 50.834338 
L 363.312719 50.834338 
L 363.366776 50.593654 
L 373.60661 50.593654 
L 373.757196 50.35297 
L 380.614641 50.35297 
L 380.664836 49.871603 
L 386.881327 49.871603 
L 387.020329 48.908868 
L 392.576558 48.908868 
L 392.761895 48.4275 
L 400.90125 48.4275 
L 400.90125 48.4275 
" style="fill:none;stroke:#1f77b4;stroke-linecap:square;stroke-width:1.5;"/>
   </g>
   <g id="line2d_14">
    <path clip-path="url(#p119ca97e6f)" d="M 43.78125 301.8675 
L 43.858474 301.8675 
L 43.966588 301.386132 
L 44.159649 301.386132 
L 44.290931 299.94203 
L 44.677052 299.94203 
L 44.808333 298.497927 
L 45.040006 298.497927 
L 45.155843 296.09109 
L 45.194455 296.09109 
L 45.233067 293.684252 
L 50.252648 293.684252 
L 50.383929 292.721517 
L 50.994001 288.629893 
L 51.14845 288.629893 
L 51.376262 285.982372 
L 52.129199 285.982372 
L 52.268203 285.019637 
L 52.384039 285.019637 
L 52.534627 283.575534 
L 52.650463 283.575534 
L 52.808773 281.40938 
L 52.924609 281.40938 
L 53.028862 280.687329 
L 53.183311 280.687329 
L 53.260535 278.761859 
L 53.414984 278.761859 
L 53.546265 277.317756 
L 53.584877 277.317756 
L 53.600322 275.873654 
L 53.986444 275.873654 
L 54.059807 275.63297 
L 54.237423 272.744765 
L 54.507708 272.744765 
L 54.654434 270.337927 
L 54.847495 270.337927 
L 55.14867 269.85656 
L 55.206588 269.85656 
L 55.322424 267.449722 
L 55.426677 266.727671 
L 55.600432 266.727671 
L 55.770325 265.283568 
L 56.117835 265.283568 
L 56.488512 260.951261 
L 56.527124 260.951261 
L 56.920968 255.415534 
L 57.229865 255.415534 
L 57.330257 254.452799 
L 57.484705 254.452799 
L 57.615987 254.212115 
L 58.002108 254.212115 
L 58.334173 252.045962 
L 58.368924 250.601859 
L 58.735739 250.601859 
L 58.886327 249.157756 
L 59.075526 247.713654 
L 59.303338 247.232286 
L 59.46937 245.5475 
L 59.643125 245.5475 
L 59.886382 245.066132 
L 60.098749 245.066132 
L 60.511899 244.344081 
L 60.596845 242.418611 
L 61.021579 242.418611 
L 61.129693 241.937244 
L 61.268697 240.974509 
L 61.867185 240.974509 
L 62.222417 239.049038 
L 62.396172 239.049038 
L 62.457951 238.086303 
L 62.6124 238.086303 
L 66.280555 207.038098 
L 66.415698 207.038098 
L 66.504506 206.556731 
L 66.658954 206.556731 
L 66.743901 204.631261 
L 67.207247 204.631261 
L 67.396447 203.668526 
L 67.585646 203.427842 
L 67.682177 203.427842 
L 67.767123 202.705791 
L 67.921572 202.705791 
L 67.991074 202.224423 
L 72.219105 183.691774 
L 72.358109 182.729038 
L 72.52028 182.247671 
L 72.713341 182.247671 
L 72.902541 182.006987 
L 74.199909 182.006987 
L 74.346635 180.322201 
L 74.42386 180.322201 
L 74.570586 179.840833 
L 74.667116 179.840833 
L 74.798398 178.637415 
L 75.053238 177.674679 
L 75.261743 176.230577 
L 75.609253 176.230577 
L 75.740534 174.786474 
L 75.952901 174.786474 
L 76.138239 173.101688 
L 78.088154 173.101688 
L 78.536055 169.732115 
L 78.709809 169.732115 
L 78.837229 169.250748 
L 78.875842 169.250748 
L 79.273547 168.76938 
L 79.466608 168.76938 
L 79.76006 167.806645 
L 79.953121 167.806645 
L 80.084402 166.362543 
L 80.547748 166.362543 
L 80.71378 165.881175 
L 81.331575 165.881175 
L 81.50533 164.677756 
L 82.0459 164.677756 
L 82.184904 162.99297 
L 82.64825 162.99297 
L 82.798837 162.752286 
L 82.891506 161.308184 
L 83.200403 161.308184 
L 83.605831 160.104765 
L 84.20432 160.104765 
L 84.324017 159.14203 
L 85.520994 159.14203 
L 85.702471 158.419979 
L 85.992063 158.419979 
L 86.084732 156.975876 
L 86.362739 156.253825 
L 86.401351 156.253825 
L 86.633024 155.29109 
L 87.270125 155.29109 
L 87.339627 154.809722 
L 87.5713 154.809722 
L 87.741193 153.36562 
L 88.065535 153.124936 
L 88.204539 152.162201 
L 88.513437 152.162201 
L 88.548187 150.718098 
L 89.011533 150.718098 
L 89.165982 149.514679 
L 89.281819 149.514679 
L 89.374488 148.070577 
L 89.907335 148.070577 
L 90.355237 147.107842 
L 90.471073 147.107842 
L 90.579187 146.626474 
L 91.235594 146.626474 
L 91.355291 145.663739 
L 91.586964 145.663739 
L 91.729829 144.941688 
L 91.810915 143.978953 
L 92.405542 143.978953 
L 92.830276 141.572115 
L 92.946112 141.572115 
L 93.189369 139.887329 
L 97.595016 139.887329 
L 97.683824 139.405962 
L 97.992722 139.405962 
L 98.189644 138.443226 
L 98.382704 138.443226 
L 98.444484 137.480491 
L 98.598933 137.480491 
L 102.668654 137.239808 
L 102.691821 136.277073 
L 103.811574 136.277073 
L 103.881076 135.795705 
L 104.711237 135.795705 
L 104.800045 135.314338 
L 109.692206 135.314338 
L 109.80032 134.83297 
L 109.993381 134.83297 
L 110.151691 133.870235 
L 111.155607 133.870235 
L 111.186496 133.388868 
L 111.302333 133.388868 
L 111.422031 132.426132 
L 116.067073 132.185449 
L 116.097963 131.704081 
L 116.252412 131.704081 
L 116.677146 130.500662 
L 116.889512 130.500662 
L 117.16752 129.778611 
L 117.534335 129.778611 
L 117.642449 129.297244 
L 119.360691 129.297244 
L 119.596225 128.334509 
L 120.329856 128.334509 
L 120.399358 127.853141 
L 120.677365 127.13109 
L 120.85112 127.13109 
L 120.920622 126.649722 
L 121.07507 126.649722 
L 121.569306 126.168355 
L 121.67742 125.686987 
L 121.939983 125.20562 
L 122.403329 125.20562 
L 122.5655 124.483568 
L 122.650447 122.558098 
L 122.843507 122.558098 
L 123.090625 119.910577 
L 123.194878 119.188526 
L 123.581 117.985107 
L 123.735448 117.985107 
L 123.797228 117.022372 
L 124.299186 117.022372 
L 124.442051 116.300321 
L 124.557887 116.300321 
L 124.801144 115.818953 
L 124.878368 115.818953 
L 124.97876 114.856218 
L 125.094596 114.856218 
L 125.469134 113.893483 
L 125.913174 113.893483 
L 126.140986 113.652799 
L 126.391965 111.245962 
L 126.739474 111.245962 
L 126.91709 110.283226 
L 127.032927 110.283226 
L 127.411326 109.801859 
L 127.527162 109.801859 
L 131.662525 109.320491 
L 131.762916 108.357756 
L 132.307348 108.357756 
L 132.457935 108.117073 
L 132.627829 107.154338 
L 132.666441 107.154338 
L 132.735943 106.67297 
L 132.948309 106.67297 
L 133.056423 106.191603 
L 133.71283 106.191603 
L 133.940642 105.950919 
L 133.979254 105.950919 
L 134.137564 104.988184 
L 135.122174 104.988184 
L 140.446791 104.266132 
L 145.030054 104.266132 
L 145.230837 103.544081 
L 145.674877 103.544081 
L 145.790714 102.340662 
L 146.176835 102.340662 
L 146.269504 100.89656 
L 150.304475 99.693141 
L 150.373977 99.211774 
L 150.451201 99.211774 
L 150.520703 98.730406 
L 150.964743 98.730406 
L 151.153943 98.489722 
L 151.424228 98.489722 
L 151.516897 97.526987 
L 151.806488 97.526987 
L 151.895296 97.04562 
L 152.165581 97.04562 
L 152.273695 96.564252 
L 152.389532 96.564252 
L 157.022991 96.323568 
L 157.227635 95.842201 
L 157.397529 94.398098 
L 158.304914 94.398098 
L 158.48253 93.435363 
L 159.582977 93.435363 
L 159.918903 92.713312 
L 164.51375 91.750577 
L 164.544639 91.269209 
L 164.660476 91.269209 
L 164.691366 90.787842 
L 165.965567 90.787842 
L 166.027346 89.825107 
L 173.270987 89.825107 
L 173.402269 89.584423 
L 175.815529 89.584423 
L 175.923643 89.103056 
L 177.680496 89.103056 
L 177.749998 88.621688 
L 177.904446 88.621688 
L 178.047311 86.696218 
L 182.827497 84.28938 
L 183.406679 84.28938 
L 183.646075 82.36391 
L 186.696435 82.36391 
L 192.565483 82.123226 
L 192.816462 82.123226 
L 192.924576 81.641859 
L 193.310698 81.641859 
L 193.399506 81.160491 
L 193.804934 81.160491 
L 193.874436 80.679124 
L 194.52312 80.679124 
L 194.673707 80.43844 
L 194.781821 79.957073 
L 194.974882 79.957073 
L 195.106163 78.994338 
L 196.052161 78.994338 
L 201.264803 78.272286 
L 201.295693 77.790919 
L 204.905929 77.790919 
L 205.133741 77.550235 
L 208.821202 77.550235 
L 208.967929 77.068868 
L 209.92551 77.068868 
L 210.05293 76.5875 
L 210.323215 76.5875 
L 210.774978 75.865449 
L 218.346822 75.865449 
L 218.454936 75.384081 
L 220.188622 75.384081 
L 220.493658 75.143397 
L 222.667523 75.143397 
L 222.767914 74.180662 
L 224.505462 74.180662 
L 224.594269 73.699295 
L 228.463208 73.699295 
L 228.683297 73.217927 
L 229.050113 73.217927 
L 229.285647 72.255192 
L 234.459676 72.255192 
L 234.590958 71.292457 
L 239.417477 71.292457 
L 239.525591 70.81109 
L 239.988937 70.81109 
L 240.100913 69.366987 
L 240.274667 69.366987 
L 240.394365 68.404252 
L 242.749707 68.404252 
L 242.842376 66.96015 
L 245.506615 66.96015 
L 245.695815 65.516047 
L 247.317525 65.516047 
L 247.425639 65.034679 
L 250.456694 65.034679 
L 250.518473 64.071944 
L 252.333245 64.071944 
L 252.437498 63.349893 
L 254.441469 63.349893 
L 254.510971 62.868526 
L 258.294962 62.868526 
L 258.711973 62.387158 
L 264.399544 62.387158 
L 264.550132 62.146474 
L 269.318734 62.146474 
L 269.546545 61.905791 
L 271.824663 61.905791 
L 271.859414 60.461688 
L 272.612351 60.461688 
L 272.80155 60.221004 
L 274.616322 60.221004 
L 274.724436 59.739637 
L 274.917497 59.739637 
L 274.948386 59.258269 
L 275.37312 59.258269 
L 275.554597 58.536218 
L 275.940719 58.536218 
L 276.183976 58.05485 
L 278.04122 58.05485 
L 278.191808 57.814167 
L 282.690124 57.814167 
L 282.759626 57.332799 
L 282.875463 57.332799 
L 282.948826 57.092115 
L 284.918046 57.092115 
L 285.064772 56.610748 
L 285.373669 56.610748 
L 285.504951 56.370064 
L 302.104318 56.370064 
L 302.293518 56.12938 
L 305.749306 56.12938 
L 305.85742 55.648013 
L 306.243542 55.648013 
L 306.390268 55.166645 
L 307.973366 55.166645 
L 308.042868 54.685278 
L 312.657021 54.685278 
L 312.799886 53.963226 
L 313.630048 53.963226 
L 313.738162 53.481859 
L 315.707382 53.481859 
L 315.780745 53.241175 
L 317.943026 53.241175 
L 318.132225 53.000491 
L 318.363898 53.000491 
L 318.398649 52.759808 
L 318.707547 52.759808 
L 318.815661 52.27844 
L 321.016554 52.27844 
L 321.124668 51.797073 
L 332.858903 51.797073 
L 333.001768 51.075021 
L 337.461472 51.075021 
L 337.496223 50.834338 
L 337.805121 50.834338 
L 338.044516 50.112286 
L 338.276189 50.112286 
L 338.345691 49.630919 
L 339.812953 49.630919 
L 340.033042 48.908868 
L 353.535714 48.908868 
L 353.566604 48.4275 
L 400.90125 48.4275 
L 400.90125 48.4275 
" style="fill:none;stroke:#ff7f0e;stroke-linecap:square;stroke-width:1.5;"/>
   </g>
   <g id="line2d_15">
    <path clip-path="url(#p119ca97e6f)" d="M 43.78125 301.8675 
L 43.827585 301.145449 
L 43.935699 300.664081 
L 44.078564 299.94203 
L 44.657746 299.94203 
L 44.704081 299.219979 
L 44.819917 299.219979 
L 44.978227 297.775876 
L 45.789082 297.775876 
L 45.858584 297.053825 
L 46.013033 297.053825 
L 46.121147 296.572457 
L 46.584493 296.572457 
L 46.630827 295.850406 
L 46.812305 295.128355 
L 46.928141 295.128355 
L 46.951308 294.16562 
L 47.453266 294.16562 
L 47.565242 293.924936 
L 47.758302 293.924936 
L 47.90889 292.480833 
L 48.024726 292.480833 
L 48.213926 291.036731 
L 48.503517 291.036731 
L 48.696578 288.629893 
L 49.005475 288.629893 
L 49.186952 287.907842 
L 49.920583 287.907842 
L 50.109783 286.463739 
L 50.187007 286.463739 
L 50.326011 285.501004 
L 50.67352 285.501004 
L 50.820247 285.019637 
L 51.129144 285.019637 
L 51.333788 283.33485 
L 51.735355 283.33485 
L 54.148615 268.893825 
L 54.669879 267.690406 
L 55.017388 267.690406 
L 55.048278 267.209038 
L 55.511624 267.209038 
L 55.581126 266.727671 
L 55.681517 263.358098 
L 56.280006 263.358098 
L 56.38812 262.636047 
L 57.005915 262.636047 
L 57.106306 261.673312 
L 57.222143 261.673312 
L 57.291645 261.191944 
L 57.453816 259.266474 
L 57.592819 258.303739 
L 57.921023 258.303739 
L 58.021414 257.341004 
L 58.365063 257.341004 
L 60.523482 243.62203 
L 60.554372 243.140662 
L 60.901881 243.140662 
L 60.994551 241.69656 
L 61.380672 241.69656 
L 61.477203 238.086303 
L 61.593039 238.086303 
L 61.654819 237.123568 
L 62.349837 237.123568 
L 62.508147 236.160833 
L 62.817045 236.160833 
L 62.901991 235.438782 
L 63.210889 235.438782 
L 63.465729 234.476047 
L 63.890463 234.476047 
L 63.990854 233.513312 
L 64.222527 233.513312 
L 64.570037 228.699637 
L 66.35778 212.092457 
L 66.635787 211.370406 
L 66.713011 211.370406 
L 68.029686 206.797415 
L 68.184135 206.797415 
L 68.323138 205.834679 
L 69.848319 205.834679 
L 69.894653 205.112628 
L 70.242163 205.112628 
L 70.257608 203.668526 
L 70.446807 202.224423 
L 70.524032 202.224423 
L 70.651452 200.298953 
L 70.883125 200.298953 
L 71.010545 199.817585 
L 71.203606 199.817585 
L 71.296275 198.373483 
L 71.79051 195.725962 
L 72.041489 195.725962 
L 72.130297 195.244594 
L 72.207522 195.244594 
L 72.431472 194.763226 
L 72.55117 193.800491 
L 73.265495 193.800491 
L 73.423805 192.837756 
L 74.080211 192.837756 
L 74.219215 191.875021 
L 74.373664 191.875021 
L 74.404554 191.393654 
L 74.860177 188.505449 
L 75.265605 187.30203 
L 75.458665 187.30203 
L 75.520445 186.098611 
L 75.728951 184.654509 
L 76.07646 184.654509 
L 76.10735 184.173141 
L 76.763756 184.173141 
L 76.794646 183.691774 
L 77.555306 183.691774 
L 77.79084 181.044252 
L 78.157655 181.044252 
L 78.474275 179.118782 
L 78.821785 179.118782 
L 78.883564 178.156047 
L 79.076625 178.156047 
L 79.196322 177.193312 
L 79.57086 175.267842 
L 80.034206 175.267842 
L 80.134598 174.305107 
L 80.327659 174.305107 
L 80.563193 173.342372 
L 80.601805 173.342372 
L 80.663585 172.379637 
L 80.818033 172.379637 
L 80.879813 171.416902 
L 81.111486 171.416902 
L 81.208016 170.213483 
L 81.478301 170.213483 
L 81.547803 169.732115 
L 81.663639 169.732115 
L 81.876006 167.325278 
L 82.20421 167.325278 
L 82.273712 166.84391 
L 82.320046 164.91844 
L 82.667556 164.91844 
L 82.860616 163.715021 
L 83.478411 163.715021 
L 83.617415 162.752286 
L 86.273931 162.270919 
L 86.393629 160.104765 
L 88.150482 160.104765 
L 88.362849 158.901346 
L 89.347459 158.901346 
L 89.63705 156.494509 
L 89.868723 156.494509 
L 90.023172 154.087671 
L 90.389987 154.087671 
L 90.459489 153.606303 
L 90.884223 153.606303 
L 90.915113 153.124936 
L 91.212426 153.124936 
L 91.355291 152.402885 
L 91.586964 152.402885 
L 91.76458 149.033312 
L 91.818637 147.589209 
L 92.007837 147.107842 
L 92.162286 147.107842 
L 92.428709 145.663739 
L 92.799386 145.663739 
L 92.830276 145.182372 
L 93.177785 145.182372 
L 93.309067 143.738269 
L 93.463515 143.738269 
L 93.76469 140.368697 
L 96.467541 140.368697 
L 96.521598 138.924594 
L 96.676047 138.924594 
L 96.737826 137.961859 
L 96.930887 137.961859 
L 97.089197 136.999124 
L 101.73424 136.999124 
L 101.803742 136.517756 
L 104.004635 136.517756 
L 104.112749 136.036389 
L 104.186112 134.592286 
L 110.730873 134.592286 
L 110.800375 134.110919 
L 111.178774 133.629551 
L 111.279166 132.666816 
L 112.727122 132.666816 
L 113.140272 130.741346 
L 113.286998 130.259979 
L 113.348777 129.297244 
L 113.503226 129.297244 
L 113.603618 128.334509 
L 114.1828 128.334509 
L 114.283192 127.371774 
L 120.615586 127.371774 
L 120.800924 126.890406 
L 123.252796 126.890406 
L 123.438135 126.409038 
L 123.569416 124.964936 
L 123.839701 124.964936 
L 123.874452 123.520833 
L 124.144737 123.520833 
L 124.399577 122.558098 
L 125.113902 122.558098 
L 125.26449 122.317415 
L 125.500024 121.354679 
L 125.693085 121.354679 
L 125.890007 120.391944 
L 126.353353 120.391944 
L 126.422855 119.910577 
L 127.310934 119.910577 
L 137.257426 117.985107 
L 137.377124 117.022372 
L 137.84047 117.022372 
L 138.994974 116.781688 
L 139.122394 116.300321 
L 139.199618 116.300321 
L 139.624352 113.893483 
L 142.906385 113.893483 
L 143.045389 112.930748 
L 143.547347 112.930748 
L 143.593682 111.005278 
L 145.945162 111.005278 
L 146.053276 110.52391 
L 147.404702 110.52391 
L 147.71746 109.561175 
L 147.802407 108.839124 
L 148.03408 108.839124 
L 148.134472 107.876389 
L 148.327532 107.876389 
L 148.50901 107.154338 
L 150.246557 107.154338 
L 150.385561 106.191603 
L 151.235028 106.191603 
L 151.30453 105.710235 
L 151.767876 105.710235 
L 151.81421 104.988184 
L 151.930047 104.988184 
L 156.215997 104.266132 
L 156.285499 103.784765 
L 160.397693 103.784765 
L 166.919287 103.544081 
L 166.957899 103.544081 
L 167.104626 103.062714 
L 167.18185 103.062714 
L 167.21274 102.581346 
L 167.328576 102.581346 
L 167.629751 102.099979 
L 168.247545 102.099979 
L 168.32477 101.618611 
L 172.900311 101.618611 
L 173.135845 101.137244 
L 173.290293 101.137244 
L 173.491077 100.415192 
L 176.437184 100.415192 
L 176.545298 99.933825 
L 176.815584 99.933825 
L 176.888947 98.489722 
L 177.236456 98.489722 
L 177.352293 97.286303 
L 179.553186 97.286303 
L 183.951111 96.082885 
L 184.530293 96.082885 
L 186.90108 94.638782 
L 187.615405 94.638782 
L 187.901135 93.194679 
L 189.484233 93.194679 
L 192.372423 92.713312 
L 192.511426 91.750577 
L 194.577177 91.750577 
L 194.80885 89.343739 
L 195.194971 89.343739 
L 195.496146 88.862372 
L 198.797486 88.862372 
L 198.866988 88.381004 
L 199.156579 88.381004 
L 199.623786 86.455534 
L 203.272635 86.455534 
L 203.342137 85.974167 
L 205.589365 85.974167 
L 205.658867 85.492799 
L 207.087516 85.492799 
L 207.149296 84.530064 
L 207.554724 84.530064 
L 207.929262 82.604594 
L 210.998928 82.604594 
L 211.083875 81.882543 
L 211.836812 81.882543 
L 212.064624 81.641859 
L 212.682418 81.641859 
L 212.87934 79.475705 
L 214.057011 79.475705 
L 214.24235 78.994338 
L 221.532325 78.994338 
L 221.594105 78.031603 
L 228.961305 78.031603 
L 229.247035 76.5875 
L 231.93058 76.5875 
L 231.976914 75.865449 
L 235.475176 75.865449 
L 235.691404 74.421346 
L 237.390339 74.421346 
L 237.560233 74.180662 
L 239.548759 74.180662 
L 239.714791 73.699295 
L 247.267329 73.699295 
L 247.39475 73.217927 
L 248.166993 73.217927 
L 248.34847 72.495876 
L 251.070627 72.495876 
L 251.194186 71.773825 
L 256.715725 71.773825 
L 256.901063 71.292457 
L 261.93995 71.292457 
L 262.09826 69.126303 
L 264.530826 69.126303 
L 264.63894 68.644936 
L 274.542959 68.644936 
L 274.670379 68.163568 
L 275.442622 68.163568 
L 275.550736 67.682201 
L 276.149225 67.682201 
L 276.288228 66.719466 
L 277.002553 66.719466 
L 277.095222 65.275363 
L 277.886772 65.275363 
L 278.033498 64.793996 
L 278.265171 64.793996 
L 278.35784 63.349893 
L 280.307754 63.349893 
L 280.431313 62.627842 
L 280.701598 62.627842 
L 280.829018 62.146474 
L 294.146352 62.146474 
L 294.370303 61.665107 
L 294.544057 61.665107 
L 294.686922 60.943056 
L 298.335771 60.943056 
L 298.440024 60.221004 
L 299.328104 60.221004 
L 299.358994 59.739637 
L 299.590666 59.739637 
L 299.895703 58.295534 
L 300.888035 58.295534 
L 300.996149 57.814167 
L 304.838059 57.814167 
L 304.961618 57.092115 
L 307.760999 57.092115 
L 307.907726 56.610748 
L 310.900168 56.610748 
L 311.116396 55.648013 
L 312.17823 55.648013 
L 312.274761 54.444594 
L 330.202386 54.444594 
L 330.248721 53.722543 
L 330.557618 53.722543 
L 330.619398 52.27844 
L 331.19858 52.27844 
L 331.310555 52.037756 
L 331.851126 52.037756 
L 331.955378 51.315705 
L 334.889902 51.315705 
L 335.001878 51.075021 
L 344.114347 51.075021 
L 344.160682 50.35297 
L 345.319047 50.35297 
L 345.4233 49.630919 
L 367.482426 49.630919 
L 367.551928 49.149551 
L 375.351584 49.149551 
L 375.475143 48.4275 
L 400.90125 48.4275 
L 400.90125 48.4275 
" style="fill:none;stroke:#2ca02c;stroke-linecap:square;stroke-width:1.5;"/>
   </g>
   <g id="line2d_16">
    <path clip-path="url(#p119ca97e6f)" d="M 43.78125 301.8675 
L 400.90125 48.4275 
" style="fill:none;stroke:#000000;stroke-dasharray:5.6,2.4;stroke-dashoffset:0;stroke-width:1.5;"/>
   </g>
   <g id="patch_3">
    <path d="M 43.78125 301.8675 
L 43.78125 35.7555 
" style="fill:none;stroke:#000000;stroke-linecap:square;stroke-linejoin:miter;stroke-width:0.8;"/>
   </g>
   <g id="patch_4">
    <path d="M 400.90125 301.8675 
L 400.90125 35.7555 
" style="fill:none;stroke:#000000;stroke-linecap:square;stroke-linejoin:miter;stroke-width:0.8;"/>
   </g>
   <g id="patch_5">
    <path d="M 43.78125 301.8675 
L 400.90125 301.8675 
" style="fill:none;stroke:#000000;stroke-linecap:square;stroke-linejoin:miter;stroke-width:0.8;"/>
   </g>
   <g id="patch_6">
    <path d="M 43.78125 35.7555 
L 400.90125 35.7555 
" style="fill:none;stroke:#000000;stroke-linecap:square;stroke-linejoin:miter;stroke-width:0.8;"/>
   </g>
   <g id="text_15">
    <!-- ROC Curve AdaBoost + SMOTEENN -->
    <defs>
     <path d="M 39.40625 66.21875 
Q 28.65625 66.21875 22.328125 58.203125 
Q 16.015625 50.203125 16.015625 36.375 
Q 16.015625 22.609375 22.328125 14.59375 
Q 28.65625 6.59375 39.40625 6.59375 
Q 50.140625 6.59375 56.421875 14.59375 
Q 62.703125 22.609375 62.703125 36.375 
Q 62.703125 50.203125 56.421875 58.203125 
Q 50.140625 66.21875 39.40625 66.21875 
M 39.40625 74.21875 
Q 54.734375 74.21875 63.90625 63.9375 
Q 73.09375 53.65625 73.09375 36.375 
Q 73.09375 19.140625 63.90625 8.859375 
Q 54.734375 -1.421875 39.40625 -1.421875 
Q 24.03125 -1.421875 14.8125 8.828125 
Q 5.609375 19.09375 5.609375 36.375 
Q 5.609375 53.65625 14.8125 63.9375 
Q 24.03125 74.21875 39.40625 74.21875 
" id="DejaVuSans-4f"/>
     <path d="M 64.40625 67.28125 
L 64.40625 56.890625 
Q 59.421875 61.53125 53.78125 63.8125 
Q 48.140625 66.109375 41.796875 66.109375 
Q 29.296875 66.109375 22.65625 58.46875 
Q 16.015625 50.828125 16.015625 36.375 
Q 16.015625 21.96875 22.65625 14.328125 
Q 29.296875 6.6875 41.796875 6.6875 
Q 48.140625 6.6875 53.78125 8.984375 
Q 59.421875 11.28125 64.40625 15.921875 
L 64.40625 5.609375 
Q 59.234375 2.09375 53.4375 0.328125 
Q 47.65625 -1.421875 41.21875 -1.421875 
Q 24.65625 -1.421875 15.125 8.703125 
Q 5.609375 18.84375 5.609375 36.375 
Q 5.609375 53.953125 15.125 64.078125 
Q 24.65625 74.21875 41.21875 74.21875 
Q 47.75 74.21875 53.53125 72.484375 
Q 59.328125 70.75 64.40625 67.28125 
" id="DejaVuSans-43"/>
     <path d="M 34.1875 63.1875 
L 20.796875 26.90625 
L 47.609375 26.90625 
z
M 28.609375 72.90625 
L 39.796875 72.90625 
L 67.578125 0 
L 57.328125 0 
L 50.6875 18.703125 
L 17.828125 18.703125 
L 11.1875 0 
L 0.78125 0 
z
" id="DejaVuSans-41"/>
     <path d="M 45.40625 46.390625 
L 45.40625 75.984375 
L 54.390625 75.984375 
L 54.390625 0 
L 45.40625 0 
L 45.40625 8.203125 
Q 42.578125 3.328125 38.25 0.953125 
Q 33.9375 -1.421875 27.875 -1.421875 
Q 17.96875 -1.421875 11.734375 6.484375 
Q 5.515625 14.40625 5.515625 27.296875 
Q 5.515625 40.1875 11.734375 48.09375 
Q 17.96875 56 27.875 56 
Q 33.9375 56 38.25 53.625 
Q 42.578125 51.265625 45.40625 46.390625 
M 14.796875 27.296875 
Q 14.796875 17.390625 18.875 11.75 
Q 22.953125 6.109375 30.078125 6.109375 
Q 37.203125 6.109375 41.296875 11.75 
Q 45.40625 17.390625 45.40625 27.296875 
Q 45.40625 37.203125 41.296875 42.84375 
Q 37.203125 48.484375 30.078125 48.484375 
Q 22.953125 48.484375 18.875 42.84375 
Q 14.796875 37.203125 14.796875 27.296875 
" id="DejaVuSans-64"/>
     <path d="M 19.671875 34.8125 
L 19.671875 8.109375 
L 35.5 8.109375 
Q 43.453125 8.109375 47.28125 11.40625 
Q 51.125 14.703125 51.125 21.484375 
Q 51.125 28.328125 47.28125 31.5625 
Q 43.453125 34.8125 35.5 34.8125 
z
M 19.671875 64.796875 
L 19.671875 42.828125 
L 34.28125 42.828125 
Q 41.5 42.828125 45.03125 45.53125 
Q 48.578125 48.25 48.578125 53.8125 
Q 48.578125 59.328125 45.03125 62.0625 
Q 41.5 64.796875 34.28125 64.796875 
z
M 9.8125 72.90625 
L 35.015625 72.90625 
Q 46.296875 72.90625 52.390625 68.21875 
Q 58.5 63.53125 58.5 54.890625 
Q 58.5 48.1875 55.375 44.234375 
Q 52.25 40.28125 46.1875 39.3125 
Q 53.46875 37.75 57.5 32.78125 
Q 61.53125 27.828125 61.53125 20.40625 
Q 61.53125 10.640625 54.890625 5.3125 
Q 48.25 0 35.984375 0 
L 9.8125 0 
z
" id="DejaVuSans-42"/>
     <path d="M 46 62.703125 
L 46 35.5 
L 73.1875 35.5 
L 73.1875 27.203125 
L 46 27.203125 
L 46 0 
L 37.796875 0 
L 37.796875 27.203125 
L 10.59375 27.203125 
L 10.59375 35.5 
L 37.796875 35.5 
L 37.796875 62.703125 
z
" id="DejaVuSans-2b"/>
     <path d="M 53.515625 70.515625 
L 53.515625 60.890625 
Q 47.90625 63.578125 42.921875 64.890625 
Q 37.9375 66.21875 33.296875 66.21875 
Q 25.25 66.21875 20.875 63.09375 
Q 16.5 59.96875 16.5 54.203125 
Q 16.5 49.359375 19.40625 46.890625 
Q 22.3125 44.4375 30.421875 42.921875 
L 36.375 41.703125 
Q 47.40625 39.59375 52.65625 34.296875 
Q 57.90625 29 57.90625 20.125 
Q 57.90625 9.515625 50.796875 4.046875 
Q 43.703125 -1.421875 29.984375 -1.421875 
Q 24.8125 -1.421875 18.96875 -0.25 
Q 13.140625 0.921875 6.890625 3.21875 
L 6.890625 13.375 
Q 12.890625 10.015625 18.65625 8.296875 
Q 24.421875 6.59375 29.984375 6.59375 
Q 38.421875 6.59375 43.015625 9.90625 
Q 47.609375 13.234375 47.609375 19.390625 
Q 47.609375 24.75 44.3125 27.78125 
Q 41.015625 30.8125 33.5 32.328125 
L 27.484375 33.5 
Q 16.453125 35.6875 11.515625 40.375 
Q 6.59375 45.0625 6.59375 53.421875 
Q 6.59375 63.09375 13.40625 68.65625 
Q 20.21875 74.21875 32.171875 74.21875 
Q 37.3125 74.21875 42.625 73.28125 
Q 47.953125 72.359375 53.515625 70.515625 
" id="DejaVuSans-53"/>
     <path d="M 9.8125 72.90625 
L 24.515625 72.90625 
L 43.109375 23.296875 
L 61.8125 72.90625 
L 76.515625 72.90625 
L 76.515625 0 
L 66.890625 0 
L 66.890625 64.015625 
L 48.09375 14.015625 
L 38.1875 14.015625 
L 19.390625 64.015625 
L 19.390625 0 
L 9.8125 0 
z
" id="DejaVuSans-4d"/>
     <path d="M 9.8125 72.90625 
L 55.90625 72.90625 
L 55.90625 64.59375 
L 19.671875 64.59375 
L 19.671875 43.015625 
L 54.390625 43.015625 
L 54.390625 34.71875 
L 19.671875 34.71875 
L 19.671875 8.296875 
L 56.78125 8.296875 
L 56.78125 0 
L 9.8125 0 
z
" id="DejaVuSans-45"/>
     <path d="M 9.8125 72.90625 
L 23.09375 72.90625 
L 55.421875 11.921875 
L 55.421875 72.90625 
L 64.984375 72.90625 
L 64.984375 0 
L 51.703125 0 
L 19.390625 60.984375 
L 19.390625 0 
L 9.8125 0 
z
" id="DejaVuSans-4e"/>
    </defs>
    <g transform="translate(116.442188 16.318125)scale(0.12 -0.12)">
     <use xlink:href="#DejaVuSans-52"/>
     <use x="69.482422" xlink:href="#DejaVuSans-4f"/>
     <use x="148.193359" xlink:href="#DejaVuSans-43"/>
     <use x="218.017578" xlink:href="#DejaVuSans-20"/>
     <use x="249.804688" xlink:href="#DejaVuSans-43"/>
     <use x="319.628906" xlink:href="#DejaVuSans-75"/>
     <use x="383.007812" xlink:href="#DejaVuSans-72"/>
     <use x="424.121094" xlink:href="#DejaVuSans-76"/>
     <use x="483.300781" xlink:href="#DejaVuSans-65"/>
     <use x="544.824219" xlink:href="#DejaVuSans-20"/>
     <use x="576.611328" xlink:href="#DejaVuSans-41"/>
     <use x="645.003906" xlink:href="#DejaVuSans-64"/>
     <use x="708.480469" xlink:href="#DejaVuSans-61"/>
     <use x="769.759766" xlink:href="#DejaVuSans-42"/>
     <use x="838.363281" xlink:href="#DejaVuSans-6f"/>
     <use x="899.544922" xlink:href="#DejaVuSans-6f"/>
     <use x="960.726562" xlink:href="#DejaVuSans-73"/>
     <use x="1012.826172" xlink:href="#DejaVuSans-74"/>
     <use x="1052.035156" xlink:href="#DejaVuSans-20"/>
     <use x="1083.822266" xlink:href="#DejaVuSans-2b"/>
     <use x="1167.611328" xlink:href="#DejaVuSans-20"/>
     <use x="1199.398438" xlink:href="#DejaVuSans-53"/>
     <use x="1262.875" xlink:href="#DejaVuSans-4d"/>
     <use x="1349.154297" xlink:href="#DejaVuSans-4f"/>
     <use x="1427.865234" xlink:href="#DejaVuSans-54"/>
     <use x="1488.949219" xlink:href="#DejaVuSans-45"/>
     <use x="1552.132812" xlink:href="#DejaVuSans-45"/>
     <use x="1615.316406" xlink:href="#DejaVuSans-4e"/>
     <use x="1690.121094" xlink:href="#DejaVuSans-4e"/>
    </g>
    <!-- Train: 1   Test: [1, 2, 4, 6, 8, 10, 12] -->
    <defs>
     <path d="M 54.890625 33.015625 
L 54.890625 0 
L 45.90625 0 
L 45.90625 32.71875 
Q 45.90625 40.484375 42.875 44.328125 
Q 39.84375 48.1875 33.796875 48.1875 
Q 26.515625 48.1875 22.3125 43.546875 
Q 18.109375 38.921875 18.109375 30.90625 
L 18.109375 0 
L 9.078125 0 
L 9.078125 54.6875 
L 18.109375 54.6875 
L 18.109375 46.1875 
Q 21.34375 51.125 25.703125 53.5625 
Q 30.078125 56 35.796875 56 
Q 45.21875 56 50.046875 50.171875 
Q 54.890625 44.34375 54.890625 33.015625 
" id="DejaVuSans-6e"/>
     <path d="M 11.71875 12.40625 
L 22.015625 12.40625 
L 22.015625 0 
L 11.71875 0 
z
M 11.71875 51.703125 
L 22.015625 51.703125 
L 22.015625 39.3125 
L 11.71875 39.3125 
z
" id="DejaVuSans-3a"/>
     <path d="M 8.59375 75.984375 
L 29.296875 75.984375 
L 29.296875 69 
L 17.578125 69 
L 17.578125 -6.203125 
L 29.296875 -6.203125 
L 29.296875 -13.1875 
L 8.59375 -13.1875 
z
" id="DejaVuSans-5b"/>
     <path d="M 11.71875 12.40625 
L 22.015625 12.40625 
L 22.015625 4 
L 14.015625 -11.625 
L 7.71875 -11.625 
L 11.71875 4 
z
" id="DejaVuSans-2c"/>
     <path d="M 30.421875 75.984375 
L 30.421875 -13.1875 
L 9.71875 -13.1875 
L 9.71875 -6.203125 
L 21.390625 -6.203125 
L 21.390625 69 
L 9.71875 69 
L 9.71875 75.984375 
z
" id="DejaVuSans-5d"/>
    </defs>
    <g transform="translate(114.942188 29.7555)scale(0.12 -0.12)">
     <use xlink:href="#DejaVuSans-54"/>
     <use x="60.865234" xlink:href="#DejaVuSans-72"/>
     <use x="101.978516" xlink:href="#DejaVuSans-61"/>
     <use x="163.257812" xlink:href="#DejaVuSans-69"/>
     <use x="191.041016" xlink:href="#DejaVuSans-6e"/>
     <use x="254.419922" xlink:href="#DejaVuSans-3a"/>
     <use x="288.111328" xlink:href="#DejaVuSans-20"/>
     <use x="319.898438" xlink:href="#DejaVuSans-31"/>
     <use x="383.521484" xlink:href="#DejaVuSans-20"/>
     <use x="415.308594" xlink:href="#DejaVuSans-20"/>
     <use x="447.095703" xlink:href="#DejaVuSans-20"/>
     <use x="478.882812" xlink:href="#DejaVuSans-54"/>
     <use x="539.701172" xlink:href="#DejaVuSans-65"/>
     <use x="601.224609" xlink:href="#DejaVuSans-73"/>
     <use x="653.324219" xlink:href="#DejaVuSans-74"/>
     <use x="692.533203" xlink:href="#DejaVuSans-3a"/>
     <use x="726.224609" xlink:href="#DejaVuSans-20"/>
     <use x="758.011719" xlink:href="#DejaVuSans-5b"/>
     <use x="797.025391" xlink:href="#DejaVuSans-31"/>
     <use x="860.648438" xlink:href="#DejaVuSans-2c"/>
     <use x="892.435547" xlink:href="#DejaVuSans-20"/>
     <use x="924.222656" xlink:href="#DejaVuSans-32"/>
     <use x="987.845703" xlink:href="#DejaVuSans-2c"/>
     <use x="1019.632812" xlink:href="#DejaVuSans-20"/>
     <use x="1051.419922" xlink:href="#DejaVuSans-34"/>
     <use x="1115.042969" xlink:href="#DejaVuSans-2c"/>
     <use x="1146.830078" xlink:href="#DejaVuSans-20"/>
     <use x="1178.617188" xlink:href="#DejaVuSans-36"/>
     <use x="1242.240234" xlink:href="#DejaVuSans-2c"/>
     <use x="1274.027344" xlink:href="#DejaVuSans-20"/>
     <use x="1305.814453" xlink:href="#DejaVuSans-38"/>
     <use x="1369.4375" xlink:href="#DejaVuSans-2c"/>
     <use x="1401.224609" xlink:href="#DejaVuSans-20"/>
     <use x="1433.011719" xlink:href="#DejaVuSans-31"/>
     <use x="1496.634766" xlink:href="#DejaVuSans-30"/>
     <use x="1560.257812" xlink:href="#DejaVuSans-2c"/>
     <use x="1592.044922" xlink:href="#DejaVuSans-20"/>
     <use x="1623.832031" xlink:href="#DejaVuSans-31"/>
     <use x="1687.455078" xlink:href="#DejaVuSans-32"/>
     <use x="1751.078125" xlink:href="#DejaVuSans-5d"/>
    </g>
   </g>
   <g id="legend_1">
    <g id="patch_7">
     <path d="M 217.087188 296.8675 
L 393.90125 296.8675 
Q 395.90125 296.8675 395.90125 294.8675 
L 395.90125 251.833125 
Q 395.90125 249.833125 393.90125 249.833125 
L 217.087188 249.833125 
Q 215.087188 249.833125 215.087188 251.833125 
L 215.087188 294.8675 
Q 215.087188 296.8675 217.087188 296.8675 
z
" style="fill:#ffffff;opacity:0.8;stroke:#cccccc;stroke-linejoin:miter;"/>
    </g>
    <g id="line2d_17">
     <path d="M 219.087188 257.931562 
L 239.087188 257.931562 
" style="fill:none;stroke:#1f77b4;stroke-linecap:square;stroke-width:1.5;"/>
    </g>
    <g id="line2d_18"/>
    <g id="text_16">
     <!-- ROC curve - 0 (AUC = 0.838) -->
     <defs>
      <path d="M 48.78125 52.59375 
L 48.78125 44.1875 
Q 44.96875 46.296875 41.140625 47.34375 
Q 37.3125 48.390625 33.40625 48.390625 
Q 24.65625 48.390625 19.8125 42.84375 
Q 14.984375 37.3125 14.984375 27.296875 
Q 14.984375 17.28125 19.8125 11.734375 
Q 24.65625 6.203125 33.40625 6.203125 
Q 37.3125 6.203125 41.140625 7.25 
Q 44.96875 8.296875 48.78125 10.40625 
L 48.78125 2.09375 
Q 45.015625 0.34375 40.984375 -0.53125 
Q 36.96875 -1.421875 32.421875 -1.421875 
Q 20.0625 -1.421875 12.78125 6.34375 
Q 5.515625 14.109375 5.515625 27.296875 
Q 5.515625 40.671875 12.859375 48.328125 
Q 20.21875 56 33.015625 56 
Q 37.15625 56 41.109375 55.140625 
Q 45.0625 54.296875 48.78125 52.59375 
" id="DejaVuSans-63"/>
      <path d="M 4.890625 31.390625 
L 31.203125 31.390625 
L 31.203125 23.390625 
L 4.890625 23.390625 
z
" id="DejaVuSans-2d"/>
      <path d="M 31 75.875 
Q 24.46875 64.65625 21.28125 53.65625 
Q 18.109375 42.671875 18.109375 31.390625 
Q 18.109375 20.125 21.3125 9.0625 
Q 24.515625 -2 31 -13.1875 
L 23.1875 -13.1875 
Q 15.875 -1.703125 12.234375 9.375 
Q 8.59375 20.453125 8.59375 31.390625 
Q 8.59375 42.28125 12.203125 53.3125 
Q 15.828125 64.359375 23.1875 75.875 
z
" id="DejaVuSans-28"/>
      <path d="M 8.6875 72.90625 
L 18.609375 72.90625 
L 18.609375 28.609375 
Q 18.609375 16.890625 22.84375 11.734375 
Q 27.09375 6.59375 36.625 6.59375 
Q 46.09375 6.59375 50.34375 11.734375 
Q 54.59375 16.890625 54.59375 28.609375 
L 54.59375 72.90625 
L 64.5 72.90625 
L 64.5 27.390625 
Q 64.5 13.140625 57.4375 5.859375 
Q 50.390625 -1.421875 36.625 -1.421875 
Q 22.796875 -1.421875 15.734375 5.859375 
Q 8.6875 13.140625 8.6875 27.390625 
z
" id="DejaVuSans-55"/>
      <path d="M 10.59375 45.40625 
L 73.1875 45.40625 
L 73.1875 37.203125 
L 10.59375 37.203125 
z
M 10.59375 25.484375 
L 73.1875 25.484375 
L 73.1875 17.1875 
L 10.59375 17.1875 
z
" id="DejaVuSans-3d"/>
      <path d="M 40.578125 39.3125 
Q 47.65625 37.796875 51.625 33 
Q 55.609375 28.21875 55.609375 21.1875 
Q 55.609375 10.40625 48.1875 4.484375 
Q 40.765625 -1.421875 27.09375 -1.421875 
Q 22.515625 -1.421875 17.65625 -0.515625 
Q 12.796875 0.390625 7.625 2.203125 
L 7.625 11.71875 
Q 11.71875 9.328125 16.59375 8.109375 
Q 21.484375 6.890625 26.8125 6.890625 
Q 36.078125 6.890625 40.9375 10.546875 
Q 45.796875 14.203125 45.796875 21.1875 
Q 45.796875 27.640625 41.28125 31.265625 
Q 36.765625 34.90625 28.71875 34.90625 
L 20.21875 34.90625 
L 20.21875 43.015625 
L 29.109375 43.015625 
Q 36.375 43.015625 40.234375 45.921875 
Q 44.09375 48.828125 44.09375 54.296875 
Q 44.09375 59.90625 40.109375 62.90625 
Q 36.140625 65.921875 28.71875 65.921875 
Q 24.65625 65.921875 20.015625 65.03125 
Q 15.375 64.15625 9.8125 62.3125 
L 9.8125 71.09375 
Q 15.4375 72.65625 20.34375 73.4375 
Q 25.25 74.21875 29.59375 74.21875 
Q 40.828125 74.21875 47.359375 69.109375 
Q 53.90625 64.015625 53.90625 55.328125 
Q 53.90625 49.265625 50.4375 45.09375 
Q 46.96875 40.921875 40.578125 39.3125 
" id="DejaVuSans-33"/>
      <path d="M 8.015625 75.875 
L 15.828125 75.875 
Q 23.140625 64.359375 26.78125 53.3125 
Q 30.421875 42.28125 30.421875 31.390625 
Q 30.421875 20.453125 26.78125 9.375 
Q 23.140625 -1.703125 15.828125 -13.1875 
L 8.015625 -13.1875 
Q 14.5 -2 17.703125 9.0625 
Q 20.90625 20.125 20.90625 31.390625 
Q 20.90625 42.671875 17.703125 53.65625 
Q 14.5 64.65625 8.015625 75.875 
" id="DejaVuSans-29"/>
     </defs>
     <g transform="translate(247.087188 261.431562)scale(0.1 -0.1)">
      <use xlink:href="#DejaVuSans-52"/>
      <use x="69.482422" xlink:href="#DejaVuSans-4f"/>
      <use x="148.193359" xlink:href="#DejaVuSans-43"/>
      <use x="218.017578" xlink:href="#DejaVuSans-20"/>
      <use x="249.804688" xlink:href="#DejaVuSans-63"/>
      <use x="304.785156" xlink:href="#DejaVuSans-75"/>
      <use x="368.164062" xlink:href="#DejaVuSans-72"/>
      <use x="409.277344" xlink:href="#DejaVuSans-76"/>
      <use x="468.457031" xlink:href="#DejaVuSans-65"/>
      <use x="529.980469" xlink:href="#DejaVuSans-20"/>
      <use x="561.767578" xlink:href="#DejaVuSans-2d"/>
      <use x="597.851562" xlink:href="#DejaVuSans-20"/>
      <use x="629.638672" xlink:href="#DejaVuSans-30"/>
      <use x="693.261719" xlink:href="#DejaVuSans-20"/>
      <use x="725.048828" xlink:href="#DejaVuSans-28"/>
      <use x="764.0625" xlink:href="#DejaVuSans-41"/>
      <use x="832.470703" xlink:href="#DejaVuSans-55"/>
      <use x="905.664062" xlink:href="#DejaVuSans-43"/>
      <use x="975.488281" xlink:href="#DejaVuSans-20"/>
      <use x="1007.275391" xlink:href="#DejaVuSans-3d"/>
      <use x="1091.064453" xlink:href="#DejaVuSans-20"/>
      <use x="1122.851562" xlink:href="#DejaVuSans-30"/>
      <use x="1186.474609" xlink:href="#DejaVuSans-2e"/>
      <use x="1218.261719" xlink:href="#DejaVuSans-38"/>
      <use x="1281.884766" xlink:href="#DejaVuSans-33"/>
      <use x="1345.507812" xlink:href="#DejaVuSans-38"/>
      <use x="1409.130859" xlink:href="#DejaVuSans-29"/>
     </g>
    </g>
    <g id="line2d_19">
     <path d="M 219.087188 272.609687 
L 239.087188 272.609687 
" style="fill:none;stroke:#ff7f0e;stroke-linecap:square;stroke-width:1.5;"/>
    </g>
    <g id="line2d_20"/>
    <g id="text_17">
     <!-- ROC curve - 1 (AUC = 0.821) -->
     <g transform="translate(247.087188 276.109687)scale(0.1 -0.1)">
      <use xlink:href="#DejaVuSans-52"/>
      <use x="69.482422" xlink:href="#DejaVuSans-4f"/>
      <use x="148.193359" xlink:href="#DejaVuSans-43"/>
      <use x="218.017578" xlink:href="#DejaVuSans-20"/>
      <use x="249.804688" xlink:href="#DejaVuSans-63"/>
      <use x="304.785156" xlink:href="#DejaVuSans-75"/>
      <use x="368.164062" xlink:href="#DejaVuSans-72"/>
      <use x="409.277344" xlink:href="#DejaVuSans-76"/>
      <use x="468.457031" xlink:href="#DejaVuSans-65"/>
      <use x="529.980469" xlink:href="#DejaVuSans-20"/>
      <use x="561.767578" xlink:href="#DejaVuSans-2d"/>
      <use x="597.851562" xlink:href="#DejaVuSans-20"/>
      <use x="629.638672" xlink:href="#DejaVuSans-31"/>
      <use x="693.261719" xlink:href="#DejaVuSans-20"/>
      <use x="725.048828" xlink:href="#DejaVuSans-28"/>
      <use x="764.0625" xlink:href="#DejaVuSans-41"/>
      <use x="832.470703" xlink:href="#DejaVuSans-55"/>
      <use x="905.664062" xlink:href="#DejaVuSans-43"/>
      <use x="975.488281" xlink:href="#DejaVuSans-20"/>
      <use x="1007.275391" xlink:href="#DejaVuSans-3d"/>
      <use x="1091.064453" xlink:href="#DejaVuSans-20"/>
      <use x="1122.851562" xlink:href="#DejaVuSans-30"/>
      <use x="1186.474609" xlink:href="#DejaVuSans-2e"/>
      <use x="1218.261719" xlink:href="#DejaVuSans-38"/>
      <use x="1281.884766" xlink:href="#DejaVuSans-32"/>
      <use x="1345.507812" xlink:href="#DejaVuSans-31"/>
      <use x="1409.130859" xlink:href="#DejaVuSans-29"/>
     </g>
    </g>
    <g id="line2d_21">
     <path d="M 219.087188 287.287812 
L 239.087188 287.287812 
" style="fill:none;stroke:#2ca02c;stroke-linecap:square;stroke-width:1.5;"/>
    </g>
    <g id="line2d_22"/>
    <g id="text_18">
     <!-- ROC curve - 2 (AUC = 0.802) -->
     <g transform="translate(247.087188 290.787812)scale(0.1 -0.1)">
      <use xlink:href="#DejaVuSans-52"/>
      <use x="69.482422" xlink:href="#DejaVuSans-4f"/>
      <use x="148.193359" xlink:href="#DejaVuSans-43"/>
      <use x="218.017578" xlink:href="#DejaVuSans-20"/>
      <use x="249.804688" xlink:href="#DejaVuSans-63"/>
      <use x="304.785156" xlink:href="#DejaVuSans-75"/>
      <use x="368.164062" xlink:href="#DejaVuSans-72"/>
      <use x="409.277344" xlink:href="#DejaVuSans-76"/>
      <use x="468.457031" xlink:href="#DejaVuSans-65"/>
      <use x="529.980469" xlink:href="#DejaVuSans-20"/>
      <use x="561.767578" xlink:href="#DejaVuSans-2d"/>
      <use x="597.851562" xlink:href="#DejaVuSans-20"/>
      <use x="629.638672" xlink:href="#DejaVuSans-32"/>
      <use x="693.261719" xlink:href="#DejaVuSans-20"/>
      <use x="725.048828" xlink:href="#DejaVuSans-28"/>
      <use x="764.0625" xlink:href="#DejaVuSans-41"/>
      <use x="832.470703" xlink:href="#DejaVuSans-55"/>
      <use x="905.664062" xlink:href="#DejaVuSans-43"/>
      <use x="975.488281" xlink:href="#DejaVuSans-20"/>
      <use x="1007.275391" xlink:href="#DejaVuSans-3d"/>
      <use x="1091.064453" xlink:href="#DejaVuSans-20"/>
      <use x="1122.851562" xlink:href="#DejaVuSans-30"/>
      <use x="1186.474609" xlink:href="#DejaVuSans-2e"/>
      <use x="1218.261719" xlink:href="#DejaVuSans-38"/>
      <use x="1281.884766" xlink:href="#DejaVuSans-30"/>
      <use x="1345.507812" xlink:href="#DejaVuSans-32"/>
      <use x="1409.130859" xlink:href="#DejaVuSans-29"/>
     </g>
    </g>
   </g>
  </g>
 </g>
 <defs>
  <clipPath id="p119ca97e6f">
   <rect height="266.112" width="357.12" x="43.78125" y="35.7555"/>
  </clipPath>
 </defs>
</svg>
