<?xml version="1.0" encoding="utf-8" standalone="no"?>
<!DOCTYPE svg PUBLIC "-//W3C//DTD SVG 1.1//EN"
  "http://www.w3.org/Graphics/SVG/1.1/DTD/svg11.dtd">
<!-- Created with matplotlib (http://matplotlib.org/) -->
<svg height="339pt" version="1.1" viewBox="0 0 416 339" width="416pt" xmlns="http://www.w3.org/2000/svg" xmlns:xlink="http://www.w3.org/1999/xlink">
 <defs>
  <style type="text/css">
*{stroke-linecap:butt;stroke-linejoin:round;}
  </style>
 </defs>
 <g id="figure_1">
  <g id="patch_1">
   <path d="M 0 339.42375 
L 416.052813 339.42375 
L 416.052813 0 
L 0 0 
z
" style="fill:#ffffff;"/>
  </g>
  <g id="axes_1">
   <g id="patch_2">
    <path d="M 43.78125 301.8675 
L 400.90125 301.8675 
L 400.90125 35.7555 
L 43.78125 35.7555 
z
" style="fill:#ffffff;"/>
   </g>
   <g id="matplotlib.axis_1">
    <g id="xtick_1">
     <g id="line2d_1">
      <defs>
       <path d="M 0 0 
L 0 3.5 
" id="m01701a0ebf" style="stroke:#000000;stroke-width:0.8;"/>
      </defs>
      <g>
       <use style="stroke:#000000;stroke-width:0.8;" x="43.78125" xlink:href="#m01701a0ebf" y="301.8675"/>
      </g>
     </g>
     <g id="text_1">
      <!-- 0.0 -->
      <defs>
       <path d="M 31.78125 66.40625 
Q 24.171875 66.40625 20.328125 58.90625 
Q 16.5 51.421875 16.5 36.375 
Q 16.5 21.390625 20.328125 13.890625 
Q 24.171875 6.390625 31.78125 6.390625 
Q 39.453125 6.390625 43.28125 13.890625 
Q 47.125 21.390625 47.125 36.375 
Q 47.125 51.421875 43.28125 58.90625 
Q 39.453125 66.40625 31.78125 66.40625 
M 31.78125 74.21875 
Q 44.046875 74.21875 50.515625 64.515625 
Q 56.984375 54.828125 56.984375 36.375 
Q 56.984375 17.96875 50.515625 8.265625 
Q 44.046875 -1.421875 31.78125 -1.421875 
Q 19.53125 -1.421875 13.0625 8.265625 
Q 6.59375 17.96875 6.59375 36.375 
Q 6.59375 54.828125 13.0625 64.515625 
Q 19.53125 74.21875 31.78125 74.21875 
" id="DejaVuSans-30"/>
       <path d="M 10.6875 12.40625 
L 21 12.40625 
L 21 0 
L 10.6875 0 
z
" id="DejaVuSans-2e"/>
      </defs>
      <g transform="translate(35.829688 316.465937)scale(0.1 -0.1)">
       <use xlink:href="#DejaVuSans-30"/>
       <use x="63.623047" xlink:href="#DejaVuSans-2e"/>
       <use x="95.410156" xlink:href="#DejaVuSans-30"/>
      </g>
     </g>
    </g>
    <g id="xtick_2">
     <g id="line2d_2">
      <g>
       <use style="stroke:#000000;stroke-width:0.8;" x="115.20525" xlink:href="#m01701a0ebf" y="301.8675"/>
      </g>
     </g>
     <g id="text_2">
      <!-- 0.2 -->
      <defs>
       <path d="M 19.1875 8.296875 
L 53.609375 8.296875 
L 53.609375 0 
L 7.328125 0 
L 7.328125 8.296875 
Q 12.9375 14.109375 22.625 23.890625 
Q 32.328125 33.6875 34.8125 36.53125 
Q 39.546875 41.84375 41.421875 45.53125 
Q 43.3125 49.21875 43.3125 52.78125 
Q 43.3125 58.59375 39.234375 62.25 
Q 35.15625 65.921875 28.609375 65.921875 
Q 23.96875 65.921875 18.8125 64.3125 
Q 13.671875 62.703125 7.8125 59.421875 
L 7.8125 69.390625 
Q 13.765625 71.78125 18.9375 73 
Q 24.125 74.21875 28.421875 74.21875 
Q 39.75 74.21875 46.484375 68.546875 
Q 53.21875 62.890625 53.21875 53.421875 
Q 53.21875 48.921875 51.53125 44.890625 
Q 49.859375 40.875 45.40625 35.40625 
Q 44.1875 33.984375 37.640625 27.21875 
Q 31.109375 20.453125 19.1875 8.296875 
" id="DejaVuSans-32"/>
      </defs>
      <g transform="translate(107.253688 316.465937)scale(0.1 -0.1)">
       <use xlink:href="#DejaVuSans-30"/>
       <use x="63.623047" xlink:href="#DejaVuSans-2e"/>
       <use x="95.410156" xlink:href="#DejaVuSans-32"/>
      </g>
     </g>
    </g>
    <g id="xtick_3">
     <g id="line2d_3">
      <g>
       <use style="stroke:#000000;stroke-width:0.8;" x="186.62925" xlink:href="#m01701a0ebf" y="301.8675"/>
      </g>
     </g>
     <g id="text_3">
      <!-- 0.4 -->
      <defs>
       <path d="M 37.796875 64.3125 
L 12.890625 25.390625 
L 37.796875 25.390625 
z
M 35.203125 72.90625 
L 47.609375 72.90625 
L 47.609375 25.390625 
L 58.015625 25.390625 
L 58.015625 17.1875 
L 47.609375 17.1875 
L 47.609375 0 
L 37.796875 0 
L 37.796875 17.1875 
L 4.890625 17.1875 
L 4.890625 26.703125 
z
" id="DejaVuSans-34"/>
      </defs>
      <g transform="translate(178.677688 316.465937)scale(0.1 -0.1)">
       <use xlink:href="#DejaVuSans-30"/>
       <use x="63.623047" xlink:href="#DejaVuSans-2e"/>
       <use x="95.410156" xlink:href="#DejaVuSans-34"/>
      </g>
     </g>
    </g>
    <g id="xtick_4">
     <g id="line2d_4">
      <g>
       <use style="stroke:#000000;stroke-width:0.8;" x="258.05325" xlink:href="#m01701a0ebf" y="301.8675"/>
      </g>
     </g>
     <g id="text_4">
      <!-- 0.6 -->
      <defs>
       <path d="M 33.015625 40.375 
Q 26.375 40.375 22.484375 35.828125 
Q 18.609375 31.296875 18.609375 23.390625 
Q 18.609375 15.53125 22.484375 10.953125 
Q 26.375 6.390625 33.015625 6.390625 
Q 39.65625 6.390625 43.53125 10.953125 
Q 47.40625 15.53125 47.40625 23.390625 
Q 47.40625 31.296875 43.53125 35.828125 
Q 39.65625 40.375 33.015625 40.375 
M 52.59375 71.296875 
L 52.59375 62.3125 
Q 48.875 64.0625 45.09375 64.984375 
Q 41.3125 65.921875 37.59375 65.921875 
Q 27.828125 65.921875 22.671875 59.328125 
Q 17.53125 52.734375 16.796875 39.40625 
Q 19.671875 43.65625 24.015625 45.921875 
Q 28.375 48.1875 33.59375 48.1875 
Q 44.578125 48.1875 50.953125 41.515625 
Q 57.328125 34.859375 57.328125 23.390625 
Q 57.328125 12.15625 50.6875 5.359375 
Q 44.046875 -1.421875 33.015625 -1.421875 
Q 20.359375 -1.421875 13.671875 8.265625 
Q 6.984375 17.96875 6.984375 36.375 
Q 6.984375 53.65625 15.1875 63.9375 
Q 23.390625 74.21875 37.203125 74.21875 
Q 40.921875 74.21875 44.703125 73.484375 
Q 48.484375 72.75 52.59375 71.296875 
" id="DejaVuSans-36"/>
      </defs>
      <g transform="translate(250.101688 316.465937)scale(0.1 -0.1)">
       <use xlink:href="#DejaVuSans-30"/>
       <use x="63.623047" xlink:href="#DejaVuSans-2e"/>
       <use x="95.410156" xlink:href="#DejaVuSans-36"/>
      </g>
     </g>
    </g>
    <g id="xtick_5">
     <g id="line2d_5">
      <g>
       <use style="stroke:#000000;stroke-width:0.8;" x="329.47725" xlink:href="#m01701a0ebf" y="301.8675"/>
      </g>
     </g>
     <g id="text_5">
      <!-- 0.8 -->
      <defs>
       <path d="M 31.78125 34.625 
Q 24.75 34.625 20.71875 30.859375 
Q 16.703125 27.09375 16.703125 20.515625 
Q 16.703125 13.921875 20.71875 10.15625 
Q 24.75 6.390625 31.78125 6.390625 
Q 38.8125 6.390625 42.859375 10.171875 
Q 46.921875 13.96875 46.921875 20.515625 
Q 46.921875 27.09375 42.890625 30.859375 
Q 38.875 34.625 31.78125 34.625 
M 21.921875 38.8125 
Q 15.578125 40.375 12.03125 44.71875 
Q 8.5 49.078125 8.5 55.328125 
Q 8.5 64.0625 14.71875 69.140625 
Q 20.953125 74.21875 31.78125 74.21875 
Q 42.671875 74.21875 48.875 69.140625 
Q 55.078125 64.0625 55.078125 55.328125 
Q 55.078125 49.078125 51.53125 44.71875 
Q 48 40.375 41.703125 38.8125 
Q 48.828125 37.15625 52.796875 32.3125 
Q 56.78125 27.484375 56.78125 20.515625 
Q 56.78125 9.90625 50.3125 4.234375 
Q 43.84375 -1.421875 31.78125 -1.421875 
Q 19.734375 -1.421875 13.25 4.234375 
Q 6.78125 9.90625 6.78125 20.515625 
Q 6.78125 27.484375 10.78125 32.3125 
Q 14.796875 37.15625 21.921875 38.8125 
M 18.3125 54.390625 
Q 18.3125 48.734375 21.84375 45.5625 
Q 25.390625 42.390625 31.78125 42.390625 
Q 38.140625 42.390625 41.71875 45.5625 
Q 45.3125 48.734375 45.3125 54.390625 
Q 45.3125 60.0625 41.71875 63.234375 
Q 38.140625 66.40625 31.78125 66.40625 
Q 25.390625 66.40625 21.84375 63.234375 
Q 18.3125 60.0625 18.3125 54.390625 
" id="DejaVuSans-38"/>
      </defs>
      <g transform="translate(321.525688 316.465937)scale(0.1 -0.1)">
       <use xlink:href="#DejaVuSans-30"/>
       <use x="63.623047" xlink:href="#DejaVuSans-2e"/>
       <use x="95.410156" xlink:href="#DejaVuSans-38"/>
      </g>
     </g>
    </g>
    <g id="xtick_6">
     <g id="line2d_6">
      <g>
       <use style="stroke:#000000;stroke-width:0.8;" x="400.90125" xlink:href="#m01701a0ebf" y="301.8675"/>
      </g>
     </g>
     <g id="text_6">
      <!-- 1.0 -->
      <defs>
       <path d="M 12.40625 8.296875 
L 28.515625 8.296875 
L 28.515625 63.921875 
L 10.984375 60.40625 
L 10.984375 69.390625 
L 28.421875 72.90625 
L 38.28125 72.90625 
L 38.28125 8.296875 
L 54.390625 8.296875 
L 54.390625 0 
L 12.40625 0 
z
" id="DejaVuSans-31"/>
      </defs>
      <g transform="translate(392.949688 316.465937)scale(0.1 -0.1)">
       <use xlink:href="#DejaVuSans-31"/>
       <use x="63.623047" xlink:href="#DejaVuSans-2e"/>
       <use x="95.410156" xlink:href="#DejaVuSans-30"/>
      </g>
     </g>
    </g>
    <g id="text_7">
     <!-- False Positive Rate -->
     <defs>
      <path d="M 9.8125 72.90625 
L 51.703125 72.90625 
L 51.703125 64.59375 
L 19.671875 64.59375 
L 19.671875 43.109375 
L 48.578125 43.109375 
L 48.578125 34.8125 
L 19.671875 34.8125 
L 19.671875 0 
L 9.8125 0 
z
" id="DejaVuSans-46"/>
      <path d="M 34.28125 27.484375 
Q 23.390625 27.484375 19.1875 25 
Q 14.984375 22.515625 14.984375 16.5 
Q 14.984375 11.71875 18.140625 8.90625 
Q 21.296875 6.109375 26.703125 6.109375 
Q 34.1875 6.109375 38.703125 11.40625 
Q 43.21875 16.703125 43.21875 25.484375 
L 43.21875 27.484375 
z
M 52.203125 31.203125 
L 52.203125 0 
L 43.21875 0 
L 43.21875 8.296875 
Q 40.140625 3.328125 35.546875 0.953125 
Q 30.953125 -1.421875 24.3125 -1.421875 
Q 15.921875 -1.421875 10.953125 3.296875 
Q 6 8.015625 6 15.921875 
Q 6 25.140625 12.171875 29.828125 
Q 18.359375 34.515625 30.609375 34.515625 
L 43.21875 34.515625 
L 43.21875 35.40625 
Q 43.21875 41.609375 39.140625 45 
Q 35.0625 48.390625 27.6875 48.390625 
Q 23 48.390625 18.546875 47.265625 
Q 14.109375 46.140625 10.015625 43.890625 
L 10.015625 52.203125 
Q 14.9375 54.109375 19.578125 55.046875 
Q 24.21875 56 28.609375 56 
Q 40.484375 56 46.34375 49.84375 
Q 52.203125 43.703125 52.203125 31.203125 
" id="DejaVuSans-61"/>
      <path d="M 9.421875 75.984375 
L 18.40625 75.984375 
L 18.40625 0 
L 9.421875 0 
z
" id="DejaVuSans-6c"/>
      <path d="M 44.28125 53.078125 
L 44.28125 44.578125 
Q 40.484375 46.53125 36.375 47.5 
Q 32.28125 48.484375 27.875 48.484375 
Q 21.1875 48.484375 17.84375 46.4375 
Q 14.5 44.390625 14.5 40.28125 
Q 14.5 37.15625 16.890625 35.375 
Q 19.28125 33.59375 26.515625 31.984375 
L 29.59375 31.296875 
Q 39.15625 29.25 43.1875 25.515625 
Q 47.21875 21.78125 47.21875 15.09375 
Q 47.21875 7.46875 41.1875 3.015625 
Q 35.15625 -1.421875 24.609375 -1.421875 
Q 20.21875 -1.421875 15.453125 -0.5625 
Q 10.6875 0.296875 5.421875 2 
L 5.421875 11.28125 
Q 10.40625 8.6875 15.234375 7.390625 
Q 20.0625 6.109375 24.8125 6.109375 
Q 31.15625 6.109375 34.5625 8.28125 
Q 37.984375 10.453125 37.984375 14.40625 
Q 37.984375 18.0625 35.515625 20.015625 
Q 33.0625 21.96875 24.703125 23.78125 
L 21.578125 24.515625 
Q 13.234375 26.265625 9.515625 29.90625 
Q 5.8125 33.546875 5.8125 39.890625 
Q 5.8125 47.609375 11.28125 51.796875 
Q 16.75 56 26.8125 56 
Q 31.78125 56 36.171875 55.265625 
Q 40.578125 54.546875 44.28125 53.078125 
" id="DejaVuSans-73"/>
      <path d="M 56.203125 29.59375 
L 56.203125 25.203125 
L 14.890625 25.203125 
Q 15.484375 15.921875 20.484375 11.0625 
Q 25.484375 6.203125 34.421875 6.203125 
Q 39.59375 6.203125 44.453125 7.46875 
Q 49.3125 8.734375 54.109375 11.28125 
L 54.109375 2.78125 
Q 49.265625 0.734375 44.1875 -0.34375 
Q 39.109375 -1.421875 33.890625 -1.421875 
Q 20.796875 -1.421875 13.15625 6.1875 
Q 5.515625 13.8125 5.515625 26.8125 
Q 5.515625 40.234375 12.765625 48.109375 
Q 20.015625 56 32.328125 56 
Q 43.359375 56 49.78125 48.890625 
Q 56.203125 41.796875 56.203125 29.59375 
M 47.21875 32.234375 
Q 47.125 39.59375 43.09375 43.984375 
Q 39.0625 48.390625 32.421875 48.390625 
Q 24.90625 48.390625 20.390625 44.140625 
Q 15.875 39.890625 15.1875 32.171875 
z
" id="DejaVuSans-65"/>
      <path id="DejaVuSans-20"/>
      <path d="M 19.671875 64.796875 
L 19.671875 37.40625 
L 32.078125 37.40625 
Q 38.96875 37.40625 42.71875 40.96875 
Q 46.484375 44.53125 46.484375 51.125 
Q 46.484375 57.671875 42.71875 61.234375 
Q 38.96875 64.796875 32.078125 64.796875 
z
M 9.8125 72.90625 
L 32.078125 72.90625 
Q 44.34375 72.90625 50.609375 67.359375 
Q 56.890625 61.8125 56.890625 51.125 
Q 56.890625 40.328125 50.609375 34.8125 
Q 44.34375 29.296875 32.078125 29.296875 
L 19.671875 29.296875 
L 19.671875 0 
L 9.8125 0 
z
" id="DejaVuSans-50"/>
      <path d="M 30.609375 48.390625 
Q 23.390625 48.390625 19.1875 42.75 
Q 14.984375 37.109375 14.984375 27.296875 
Q 14.984375 17.484375 19.15625 11.84375 
Q 23.34375 6.203125 30.609375 6.203125 
Q 37.796875 6.203125 41.984375 11.859375 
Q 46.1875 17.53125 46.1875 27.296875 
Q 46.1875 37.015625 41.984375 42.703125 
Q 37.796875 48.390625 30.609375 48.390625 
M 30.609375 56 
Q 42.328125 56 49.015625 48.375 
Q 55.71875 40.765625 55.71875 27.296875 
Q 55.71875 13.875 49.015625 6.21875 
Q 42.328125 -1.421875 30.609375 -1.421875 
Q 18.84375 -1.421875 12.171875 6.21875 
Q 5.515625 13.875 5.515625 27.296875 
Q 5.515625 40.765625 12.171875 48.375 
Q 18.84375 56 30.609375 56 
" id="DejaVuSans-6f"/>
      <path d="M 9.421875 54.6875 
L 18.40625 54.6875 
L 18.40625 0 
L 9.421875 0 
z
M 9.421875 75.984375 
L 18.40625 75.984375 
L 18.40625 64.59375 
L 9.421875 64.59375 
z
" id="DejaVuSans-69"/>
      <path d="M 18.3125 70.21875 
L 18.3125 54.6875 
L 36.8125 54.6875 
L 36.8125 47.703125 
L 18.3125 47.703125 
L 18.3125 18.015625 
Q 18.3125 11.328125 20.140625 9.421875 
Q 21.96875 7.515625 27.59375 7.515625 
L 36.8125 7.515625 
L 36.8125 0 
L 27.59375 0 
Q 17.1875 0 13.234375 3.875 
Q 9.28125 7.765625 9.28125 18.015625 
L 9.28125 47.703125 
L 2.6875 47.703125 
L 2.6875 54.6875 
L 9.28125 54.6875 
L 9.28125 70.21875 
z
" id="DejaVuSans-74"/>
      <path d="M 2.984375 54.6875 
L 12.5 54.6875 
L 29.59375 8.796875 
L 46.6875 54.6875 
L 56.203125 54.6875 
L 35.6875 0 
L 23.484375 0 
z
" id="DejaVuSans-76"/>
      <path d="M 44.390625 34.1875 
Q 47.5625 33.109375 50.5625 29.59375 
Q 53.5625 26.078125 56.59375 19.921875 
L 66.609375 0 
L 56 0 
L 46.6875 18.703125 
Q 43.0625 26.03125 39.671875 28.421875 
Q 36.28125 30.8125 30.421875 30.8125 
L 19.671875 30.8125 
L 19.671875 0 
L 9.8125 0 
L 9.8125 72.90625 
L 32.078125 72.90625 
Q 44.578125 72.90625 50.734375 67.671875 
Q 56.890625 62.453125 56.890625 51.90625 
Q 56.890625 45.015625 53.6875 40.46875 
Q 50.484375 35.9375 44.390625 34.1875 
M 19.671875 64.796875 
L 19.671875 38.921875 
L 32.078125 38.921875 
Q 39.203125 38.921875 42.84375 42.21875 
Q 46.484375 45.515625 46.484375 51.90625 
Q 46.484375 58.296875 42.84375 61.546875 
Q 39.203125 64.796875 32.078125 64.796875 
z
" id="DejaVuSans-52"/>
     </defs>
     <g transform="translate(175.135781 330.144062)scale(0.1 -0.1)">
      <use xlink:href="#DejaVuSans-46"/>
      <use x="57.378906" xlink:href="#DejaVuSans-61"/>
      <use x="118.658203" xlink:href="#DejaVuSans-6c"/>
      <use x="146.441406" xlink:href="#DejaVuSans-73"/>
      <use x="198.541016" xlink:href="#DejaVuSans-65"/>
      <use x="260.064453" xlink:href="#DejaVuSans-20"/>
      <use x="291.851562" xlink:href="#DejaVuSans-50"/>
      <use x="352.107422" xlink:href="#DejaVuSans-6f"/>
      <use x="413.289062" xlink:href="#DejaVuSans-73"/>
      <use x="465.388672" xlink:href="#DejaVuSans-69"/>
      <use x="493.171875" xlink:href="#DejaVuSans-74"/>
      <use x="532.380859" xlink:href="#DejaVuSans-69"/>
      <use x="560.164062" xlink:href="#DejaVuSans-76"/>
      <use x="619.34375" xlink:href="#DejaVuSans-65"/>
      <use x="680.867188" xlink:href="#DejaVuSans-20"/>
      <use x="712.654297" xlink:href="#DejaVuSans-52"/>
      <use x="782.105469" xlink:href="#DejaVuSans-61"/>
      <use x="843.384766" xlink:href="#DejaVuSans-74"/>
      <use x="882.59375" xlink:href="#DejaVuSans-65"/>
     </g>
    </g>
   </g>
   <g id="matplotlib.axis_2">
    <g id="ytick_1">
     <g id="line2d_7">
      <defs>
       <path d="M 0 0 
L -3.5 0 
" id="m4730ea282a" style="stroke:#000000;stroke-width:0.8;"/>
      </defs>
      <g>
       <use style="stroke:#000000;stroke-width:0.8;" x="43.78125" xlink:href="#m4730ea282a" y="301.8675"/>
      </g>
     </g>
     <g id="text_8">
      <!-- 0.0 -->
      <g transform="translate(20.878125 305.666719)scale(0.1 -0.1)">
       <use xlink:href="#DejaVuSans-30"/>
       <use x="63.623047" xlink:href="#DejaVuSans-2e"/>
       <use x="95.410156" xlink:href="#DejaVuSans-30"/>
      </g>
     </g>
    </g>
    <g id="ytick_2">
     <g id="line2d_8">
      <g>
       <use style="stroke:#000000;stroke-width:0.8;" x="43.78125" xlink:href="#m4730ea282a" y="251.1795"/>
      </g>
     </g>
     <g id="text_9">
      <!-- 0.2 -->
      <g transform="translate(20.878125 254.978719)scale(0.1 -0.1)">
       <use xlink:href="#DejaVuSans-30"/>
       <use x="63.623047" xlink:href="#DejaVuSans-2e"/>
       <use x="95.410156" xlink:href="#DejaVuSans-32"/>
      </g>
     </g>
    </g>
    <g id="ytick_3">
     <g id="line2d_9">
      <g>
       <use style="stroke:#000000;stroke-width:0.8;" x="43.78125" xlink:href="#m4730ea282a" y="200.4915"/>
      </g>
     </g>
     <g id="text_10">
      <!-- 0.4 -->
      <g transform="translate(20.878125 204.290719)scale(0.1 -0.1)">
       <use xlink:href="#DejaVuSans-30"/>
       <use x="63.623047" xlink:href="#DejaVuSans-2e"/>
       <use x="95.410156" xlink:href="#DejaVuSans-34"/>
      </g>
     </g>
    </g>
    <g id="ytick_4">
     <g id="line2d_10">
      <g>
       <use style="stroke:#000000;stroke-width:0.8;" x="43.78125" xlink:href="#m4730ea282a" y="149.8035"/>
      </g>
     </g>
     <g id="text_11">
      <!-- 0.6 -->
      <g transform="translate(20.878125 153.602719)scale(0.1 -0.1)">
       <use xlink:href="#DejaVuSans-30"/>
       <use x="63.623047" xlink:href="#DejaVuSans-2e"/>
       <use x="95.410156" xlink:href="#DejaVuSans-36"/>
      </g>
     </g>
    </g>
    <g id="ytick_5">
     <g id="line2d_11">
      <g>
       <use style="stroke:#000000;stroke-width:0.8;" x="43.78125" xlink:href="#m4730ea282a" y="99.1155"/>
      </g>
     </g>
     <g id="text_12">
      <!-- 0.8 -->
      <g transform="translate(20.878125 102.914719)scale(0.1 -0.1)">
       <use xlink:href="#DejaVuSans-30"/>
       <use x="63.623047" xlink:href="#DejaVuSans-2e"/>
       <use x="95.410156" xlink:href="#DejaVuSans-38"/>
      </g>
     </g>
    </g>
    <g id="ytick_6">
     <g id="line2d_12">
      <g>
       <use style="stroke:#000000;stroke-width:0.8;" x="43.78125" xlink:href="#m4730ea282a" y="48.4275"/>
      </g>
     </g>
     <g id="text_13">
      <!-- 1.0 -->
      <g transform="translate(20.878125 52.226719)scale(0.1 -0.1)">
       <use xlink:href="#DejaVuSans-31"/>
       <use x="63.623047" xlink:href="#DejaVuSans-2e"/>
       <use x="95.410156" xlink:href="#DejaVuSans-30"/>
      </g>
     </g>
    </g>
    <g id="text_14">
     <!-- True Positive Rate -->
     <defs>
      <path d="M -0.296875 72.90625 
L 61.375 72.90625 
L 61.375 64.59375 
L 35.5 64.59375 
L 35.5 0 
L 25.59375 0 
L 25.59375 64.59375 
L -0.296875 64.59375 
z
" id="DejaVuSans-54"/>
      <path d="M 41.109375 46.296875 
Q 39.59375 47.171875 37.8125 47.578125 
Q 36.03125 48 33.890625 48 
Q 26.265625 48 22.1875 43.046875 
Q 18.109375 38.09375 18.109375 28.8125 
L 18.109375 0 
L 9.078125 0 
L 9.078125 54.6875 
L 18.109375 54.6875 
L 18.109375 46.1875 
Q 20.953125 51.171875 25.484375 53.578125 
Q 30.03125 56 36.53125 56 
Q 37.453125 56 38.578125 55.875 
Q 39.703125 55.765625 41.0625 55.515625 
z
" id="DejaVuSans-72"/>
      <path d="M 8.5 21.578125 
L 8.5 54.6875 
L 17.484375 54.6875 
L 17.484375 21.921875 
Q 17.484375 14.15625 20.5 10.265625 
Q 23.53125 6.390625 29.59375 6.390625 
Q 36.859375 6.390625 41.078125 11.03125 
Q 45.3125 15.671875 45.3125 23.6875 
L 45.3125 54.6875 
L 54.296875 54.6875 
L 54.296875 0 
L 45.3125 0 
L 45.3125 8.40625 
Q 42.046875 3.421875 37.71875 1 
Q 33.40625 -1.421875 27.6875 -1.421875 
Q 18.265625 -1.421875 13.375 4.4375 
Q 8.5 10.296875 8.5 21.578125 
M 31.109375 56 
z
" id="DejaVuSans-75"/>
     </defs>
     <g transform="translate(14.798438 214.357594)rotate(-90)scale(0.1 -0.1)">
      <use xlink:href="#DejaVuSans-54"/>
      <use x="60.865234" xlink:href="#DejaVuSans-72"/>
      <use x="101.978516" xlink:href="#DejaVuSans-75"/>
      <use x="165.357422" xlink:href="#DejaVuSans-65"/>
      <use x="226.880859" xlink:href="#DejaVuSans-20"/>
      <use x="258.667969" xlink:href="#DejaVuSans-50"/>
      <use x="318.923828" xlink:href="#DejaVuSans-6f"/>
      <use x="380.105469" xlink:href="#DejaVuSans-73"/>
      <use x="432.205078" xlink:href="#DejaVuSans-69"/>
      <use x="459.988281" xlink:href="#DejaVuSans-74"/>
      <use x="499.197266" xlink:href="#DejaVuSans-69"/>
      <use x="526.980469" xlink:href="#DejaVuSans-76"/>
      <use x="586.160156" xlink:href="#DejaVuSans-65"/>
      <use x="647.683594" xlink:href="#DejaVuSans-20"/>
      <use x="679.470703" xlink:href="#DejaVuSans-52"/>
      <use x="748.921875" xlink:href="#DejaVuSans-61"/>
      <use x="810.201172" xlink:href="#DejaVuSans-74"/>
      <use x="849.410156" xlink:href="#DejaVuSans-65"/>
     </g>
    </g>
   </g>
   <g id="line2d_13">
    <path clip-path="url(#p8905eac462)" d="M 43.78125 301.8675 
L 43.955003 301.8675 
L 44.082422 301.386132 
L 44.325676 300.423397 
L 45.252357 300.423397 
L 45.399082 299.94203 
L 45.727282 299.94203 
L 45.789061 298.979295 
L 45.866284 298.979295 
L 45.974397 298.497927 
L 46.05162 298.497927 
L 46.240818 297.053825 
L 46.298736 297.053825 
L 46.391404 296.813141 
L 46.487933 296.813141 
L 46.611491 296.09109 
L 47.094137 296.09109 
L 47.186806 295.850406 
L 47.29878 293.684252 
L 47.491838 293.684252 
L 47.715786 292.24015 
L 47.889539 291.036731 
L 48.063292 289.833312 
L 48.206156 289.111261 
L 48.715831 287.185791 
L 49.005419 287.185791 
L 49.252534 285.741688 
L 49.426287 285.741688 
L 49.735181 284.538269 
L 49.874183 283.575534 
L 49.912795 283.575534 
L 50.055658 282.853483 
L 50.09427 282.853483 
L 50.237133 280.928013 
L 50.410886 280.928013 
L 50.78542 277.317756 
L 51.171537 277.317756 
L 51.785464 269.85656 
L 52.190887 269.85656 
L 52.32989 267.690406 
L 52.391668 266.727671 
L 52.719868 266.727671 
L 52.800953 265.764936 
L 53.036485 264.802201 
L 53.229543 264.802201 
L 53.329934 263.839466 
L 53.623383 259.266474 
L 53.739218 259.266474 
L 54.387895 257.581688 
L 54.484425 257.581688 
L 54.507592 256.137585 
L 54.79718 256.137585 
L 54.858959 255.17485 
L 55.052017 255.17485 
L 55.152408 254.212115 
L 55.384078 254.212115 
L 55.627332 251.32391 
L 55.808808 248.435705 
L 56.465207 248.435705 
L 56.538569 246.510235 
L 56.762518 246.510235 
L 59.839873 207.519466 
L 59.897791 207.519466 
L 59.95957 206.556731 
L 60.832195 201.021004 
L 60.855362 200.058269 
L 61.395927 200.058269 
L 61.484734 199.576902 
L 61.561957 199.576902 
L 61.697098 198.373483 
L 61.774322 198.373483 
L 61.882435 195.485278 
L 62.094799 195.485278 
L 62.125689 195.00391 
L 62.840006 195.00391 
L 62.936535 193.800491 
L 63.187511 193.800491 
L 63.260874 192.356389 
L 63.461655 192.356389 
L 63.677881 190.190235 
L 63.816883 189.2275 
L 66.419314 172.861004 
L 66.708902 172.861004 
L 66.840182 171.416902 
L 66.956017 171.416902 
L 67.083436 170.935534 
L 67.102742 170.935534 
L 67.164521 169.972799 
L 67.666473 169.972799 
L 67.832504 169.491432 
L 68.141398 169.491432 
L 68.334457 167.084594 
L 68.373068 166.603226 
L 68.643351 166.603226 
L 68.67424 166.121859 
L 69.098969 166.121859 
L 69.253416 163.715021 
L 69.349945 163.715021 
L 69.458058 163.233654 
L 69.651117 163.233654 
L 69.782397 161.789551 
L 70.28435 161.789551 
L 70.377018 161.548868 
L 70.782441 161.548868 
L 70.81333 161.0675 
L 70.929166 161.0675 
L 71.014111 160.345449 
L 71.593288 159.14203 
L 71.805652 159.14203 
L 71.867431 158.179295 
L 73.798018 158.179295 
L 73.848213 157.697927 
L 74.562531 157.697927 
L 74.689949 157.21656 
L 74.952509 157.21656 
L 75.176457 154.328355 
L 75.327043 152.884252 
L 77.763444 152.884252 
L 77.925613 150.958782 
L 78.697848 150.958782 
L 78.887046 149.514679 
L 79.060798 149.514679 
L 79.292469 148.311261 
L 79.543445 148.311261 
L 79.721059 147.348526 
L 79.991341 147.348526 
L 80.319541 146.145107 
L 81.767482 146.145107 
L 81.8949 142.053483 
L 82.242406 142.053483 
L 82.493382 139.646645 
L 83.304229 139.646645 
L 83.354424 139.165278 
L 83.470259 139.165278 
L 83.562928 137.721175 
L 83.67104 137.239808 
L 83.80232 135.795705 
L 84.497332 135.795705 
L 84.678807 133.388868 
L 85.026313 133.388868 
L 85.169176 133.148184 
L 85.651823 133.148184 
L 85.713602 132.185449 
L 85.829437 132.185449 
L 85.914383 131.463397 
L 86.435641 131.463397 
L 90.08059 130.019295 
L 90.794907 130.019295 
L 90.848963 128.575192 
L 92.374127 128.575192 
L 92.544019 128.334509 
L 92.644409 127.13109 
L 93.030527 127.13109 
L 93.13864 126.649722 
L 93.737122 126.649722 
L 93.922458 126.168355 
L 94.540246 126.168355 
L 94.671526 125.927671 
L 94.922502 125.927671 
L 94.953391 125.446303 
L 95.841461 125.446303 
L 95.90324 124.483568 
L 96.019075 124.483568 
L 96.06541 123.761517 
L 96.354998 123.761517 
L 96.621419 122.317415 
L 97.347319 122.317415 
L 97.494044 119.429209 
L 98.111832 119.429209 
L 98.301029 117.985107 
L 98.976735 117.985107 
L 99.266323 116.781688 
L 103.374612 116.781688 
L 104.181598 116.541004 
L 105.57162 116.541004 
L 105.644983 116.300321 
L 105.895959 116.300321 
L 106.092879 115.337585 
L 106.826502 115.337585 
L 106.861253 113.893483 
L 108.212664 113.893483 
L 108.297609 113.171432 
L 108.587197 113.171432 
L 108.977176 111.005278 
L 113.637613 111.005278 
L 113.799783 109.079808 
L 114.436876 109.079808 
L 114.54885 107.635705 
L 115.610673 107.635705 
L 115.819177 107.395021 
L 116.649329 107.395021 
L 116.992974 107.154338 
L 117.881044 107.154338 
L 118.03163 105.710235 
L 118.761391 105.469551 
L 120.556837 105.469551 
L 120.684256 104.988184 
L 121.012456 104.988184 
L 121.097402 104.266132 
L 123.838835 104.266132 
L 123.931504 104.025449 
L 124.626515 104.025449 
L 124.97016 98.97109 
L 125.703783 98.97109 
L 128.383437 98.730406 
L 131.916412 98.730406 
L 132.124915 98.489722 
L 132.993679 98.489722 
L 133.040014 97.767671 
L 133.464743 97.767671 
L 133.592161 94.879466 
L 144.909263 94.879466 
L 144.940152 94.398098 
L 145.32627 94.398098 
L 145.68922 94.157415 
L 149.299418 94.157415 
L 149.851566 93.676047 
L 150.256989 93.676047 
L 150.272434 93.435363 
L 150.61994 93.435363 
L 154.573782 93.194679 
L 154.921288 93.194679 
L 155.037123 92.953996 
L 155.16068 92.231944 
L 156.492786 92.231944 
L 156.755345 91.750577 
L 156.948404 91.750577 
L 165.331013 90.065791 
L 166.740342 90.065791 
L 166.906372 87.177585 
L 167.890972 87.177585 
L 168.022252 86.936902 
L 169.740474 86.936902 
L 169.852448 86.696218 
L 170.489542 86.696218 
L 171.153664 86.21485 
L 179.049765 86.21485 
L 179.096099 85.492799 
L 179.617358 85.492799 
L 179.806555 85.252115 
L 183.891678 85.252115 
L 183.957317 84.530064 
L 184.806776 84.530064 
L 184.930333 83.808013 
L 185.316451 83.808013 
L 185.467037 83.567329 
L 190.64101 83.567329 
L 190.77229 82.123226 
L 190.888125 82.123226 
L 195.247391 81.882543 
L 195.417282 81.641859 
L 196.189517 81.641859 
L 196.336242 78.753654 
L 199.000452 78.753654 
L 199.081537 76.5875 
L 199.429042 76.5875 
L 199.541016 75.143397 
L 205.093385 75.143397 
L 208.128268 74.180662 
L 212.819594 74.180662 
L 213.008792 73.939979 
L 214.74632 73.939979 
L 214.896906 72.495876 
L 215.433609 72.495876 
L 215.479943 71.773825 
L 224.596176 71.773825 
L 224.681122 71.051774 
L 230.62733 71.051774 
L 231.063642 70.570406 
L 232.279912 70.570406 
L 232.364858 69.848355 
L 234.797398 69.848355 
L 235.017485 69.126303 
L 300.850505 69.126303 
L 300.904561 67.682201 
L 301.367902 67.682201 
L 301.49146 66.96015 
L 302.070636 66.96015 
L 302.221221 65.516047 
L 302.561005 65.034679 
L 306.460791 65.034679 
L 306.538014 61.424423 
L 307.097884 61.424423 
L 307.240748 60.702372 
L 307.568948 60.702372 
L 307.623004 60.461688 
L 317.550083 60.461688 
L 317.700669 60.221004 
L 317.932339 60.221004 
L 317.986396 59.980321 
L 321.75104 59.980321 
L 321.863015 59.739637 
L 321.88232 56.12938 
L 325.511824 56.12938 
L 325.558158 55.407329 
L 332.855777 55.407329 
L 333.021808 54.925962 
L 340.809796 54.925962 
L 341.0183 54.685278 
L 344.512662 54.685278 
L 344.663248 54.444594 
L 345.26173 54.444594 
L 345.354398 54.20391 
L 346.941341 54.20391 
L 347.061037 53.241175 
L 348.161472 53.241175 
L 348.369975 53.000491 
L 349.115182 53.000491 
L 349.20785 52.759808 
L 350.75232 52.759808 
L 350.995574 52.519124 
L 353.292972 52.519124 
L 353.343168 52.037756 
L 354.598049 52.037756 
L 354.640522 51.075021 
L 361.575191 51.075021 
L 361.625386 50.593654 
L 362.378315 50.593654 
L 362.509595 50.35297 
L 365.888123 50.35297 
L 366.000097 50.112286 
L 370.027301 50.112286 
L 370.15472 49.630919 
L 371.544743 49.630919 
L 371.676023 49.390235 
L 371.946305 49.390235 
L 372.116196 49.149551 
L 379.88874 49.149551 
L 380.039326 48.908868 
L 380.869478 48.908868 
L 381.000758 48.668184 
L 381.989219 48.668184 
L 382.043275 48.4275 
L 400.90125 48.4275 
L 400.90125 48.4275 
" style="fill:none;stroke:#1f77b4;stroke-linecap:square;stroke-width:1.5;"/>
   </g>
   <g id="line2d_14">
    <path clip-path="url(#p8905eac462)" d="M 43.78125 301.8675 
L 43.858474 301.8675 
L 43.966588 301.386132 
L 44.198261 301.386132 
L 44.445379 299.94203 
L 44.792889 299.94203 
L 44.846946 298.497927 
L 45.657801 298.497927 
L 45.696413 296.09109 
L 45.889474 296.09109 
L 46.00531 293.684252 
L 50.252648 293.684252 
L 50.368484 292.480833 
L 50.445709 292.480833 
L 50.538378 291.036731 
L 50.654214 291.036731 
L 50.997863 290.796047 
L 51.190923 290.796047 
L 51.495959 289.351944 
L 52.22959 289.351944 
L 52.476708 286.704423 
L 52.689075 286.704423 
L 52.793328 285.982372 
L 52.909164 285.982372 
L 53.090642 284.056902 
L 53.303008 284.056902 
L 53.565571 283.575534 
L 53.681408 283.575534 
L 53.820411 282.612799 
L 53.955554 282.612799 
L 54.098419 281.890748 
L 54.754826 281.890748 
L 54.777993 280.928013 
L 55.121641 279.48391 
L 55.635183 278.280491 
L 55.751019 275.873654 
L 55.955664 275.392286 
L 56.225949 275.392286 
L 56.256839 274.910919 
L 56.422871 274.429551 
L 56.623654 272.504081 
L 56.947996 272.504081 
L 57.052249 272.022714 
L 57.168086 272.022714 
L 57.349563 270.097244 
L 57.619848 270.097244 
L 57.751129 268.653141 
L 57.828354 268.653141 
L 57.994386 266.968355 
L 58.025276 266.486987 
L 58.314867 266.486987 
L 58.361201 264.561517 
L 58.477038 264.561517 
L 58.708711 262.154679 
L 58.882465 262.154679 
L 59.090971 261.913996 
L 59.388285 259.988526 
L 59.735794 259.266474 
L 59.890243 259.266474 
L 59.91341 258.303739 
L 60.415368 258.303739 
L 60.720404 256.859637 
L 69.740205 202.705791 
L 70.10702 201.502372 
L 70.199689 200.058269 
L 70.508587 200.058269 
L 70.717092 198.614167 
L 70.875402 195.244594 
L 71.056879 194.522543 
L 71.15341 194.522543 
L 71.276969 192.597073 
L 71.354193 192.597073 
L 71.516364 192.115705 
L 71.960404 192.115705 
L 72.141881 191.393654 
L 72.334942 191.393654 
L 72.408305 191.15297 
L 72.462362 189.708868 
L 72.636117 189.708868 
L 72.705619 189.2275 
L 72.929569 186.820662 
L 73.269356 183.932457 
L 73.396776 181.044252 
L 73.667061 181.044252 
L 73.771314 180.322201 
L 74.308023 175.267842 
L 74.501084 175.267842 
L 74.531974 174.786474 
L 74.725034 174.786474 
L 75.026209 172.138953 
L 75.161352 172.138953 
L 75.192242 171.657585 
L 75.34669 171.657585 
L 75.47411 171.176218 
L 75.717367 170.69485 
L 75.825481 170.213483 
L 77.582334 170.213483 
L 77.613224 169.732115 
L 77.72906 169.732115 
L 78.003207 168.76938 
L 78.254186 168.76938 
L 78.474275 164.677756 
L 79.617195 164.677756 
L 79.72917 164.437073 
L 79.814117 162.511603 
L 80.258157 162.511603 
L 80.397161 161.548868 
L 80.879813 161.548868 
L 81.115347 159.382714 
L 81.559387 159.382714 
L 81.825811 157.938611 
L 81.941647 157.938611 
L 82.157875 155.772457 
L 82.632805 154.087671 
L 82.679139 153.36562 
L 83.12704 149.996047 
L 83.609692 149.996047 
L 83.748696 149.033312 
L 83.961063 149.033312 
L 84.123234 148.311261 
L 84.567274 148.311261 
L 84.737167 146.867158 
L 85.115567 146.867158 
L 85.308627 145.904423 
L 85.463076 145.904423 
L 85.60208 144.219637 
L 85.717916 144.219637 
L 85.85692 143.256902 
L 86.378184 143.256902 
L 86.590551 140.850064 
L 86.764306 140.850064 
L 87.065481 140.368697 
L 87.258541 140.368697 
L 87.524965 138.924594 
L 87.640802 138.924594 
L 87.810695 137.480491 
L 88.370572 137.480491 
L 88.598383 136.517756 
L 88.636995 136.517756 
L 99.514041 136.036389 
L 99.614432 135.073654 
L 100.386676 135.073654 
L 100.517957 133.629551 
L 100.84616 133.629551 
L 101.402175 130.019295 
L 101.460094 130.019295 
L 101.626126 128.334509 
L 101.741962 128.334509 
L 101.834631 126.890406 
L 111.723205 124.964936 
L 112.159523 124.483568 
L 113.086215 124.483568 
L 113.252247 121.595363 
L 114.217551 121.595363 
L 114.317943 120.632628 
L 114.742676 120.632628 
L 114.985933 117.744423 
L 115.680952 117.744423 
L 115.711842 117.263056 
L 116.233106 117.263056 
L 116.34122 116.781688 
L 117.924318 116.781688 
L 118.028571 116.059637 
L 118.090351 115.096902 
L 121.565445 115.096902 
L 121.743061 114.134167 
L 124.295325 114.134167 
L 124.403439 113.652799 
L 124.654418 113.652799 
L 124.762532 113.171432 
L 126.770364 113.171432 
L 126.832143 112.208697 
L 126.986592 112.208697 
L 127.349546 111.968013 
L 128.951951 111.968013 
L 129.094816 111.245962 
L 129.924977 111.245962 
L 130.006063 110.283226 
L 131.376795 110.283226 
L 131.48877 109.320491 
L 133.847973 109.320491 
L 134.145286 105.469551 
L 134.431016 104.506816 
L 136.207176 104.506816 
L 136.593297 100.655876 
L 136.670522 100.655876 
L 136.832693 99.933825 
L 137.14159 99.933825 
L 137.17248 99.452457 
L 138.350151 99.452457 
L 138.577962 99.211774 
L 138.732411 99.211774 
L 138.933194 98.249038 
L 139.782662 98.249038 
L 139.852164 97.767671 
L 140.141755 97.767671 
L 140.172644 97.286303 
L 140.713215 97.286303 
L 140.902414 97.04562 
L 151.092163 95.12015 
L 151.594121 95.12015 
L 151.702235 94.638782 
L 151.97252 94.638782 
L 152.042022 94.157415 
L 152.428144 94.157415 
L 152.459034 93.676047 
L 152.632788 93.676047 
L 172.591413 87.658953 
L 173.363657 87.658953 
L 173.676415 84.28938 
L 174.101149 84.28938 
L 174.367573 84.048697 
L 174.583801 83.085962 
L 177.170815 83.085962 
L 177.360015 81.641859 
L 177.726831 81.641859 
L 177.858112 80.197756 
L 179.055089 80.197756 
L 179.221121 79.716389 
L 180.051283 79.716389 
L 180.113062 78.753654 
L 182.398902 78.753654 
L 192.279753 76.346816 
L 193.689097 76.346816 
L 193.843546 73.939979 
L 193.997994 73.939979 
L 194.106109 73.458611 
L 196.538675 73.458611 
L 196.569564 72.977244 
L 199.832292 72.977244 
L 199.940406 72.495876 
L 201.716565 72.495876 
L 201.867153 72.255192 
L 202.079519 72.255192 
L 202.110409 71.773825 
L 202.573755 71.773825 
L 202.774538 69.848355 
L 203.179966 69.848355 
L 203.272635 68.88562 
L 205.875095 68.88562 
L 206.36933 68.404252 
L 206.55853 68.163568 
L 217.250237 68.163568 
L 217.42013 67.922885 
L 221.358571 67.922885 
L 221.42035 66.96015 
L 222.906918 66.96015 
L 233.77238 65.997415 
L 233.880494 65.516047 
L 234.401758 65.516047 
L 235.166279 65.034679 
L 236.47137 65.034679 
L 236.594929 64.312628 
L 237.733987 64.312628 
L 237.845963 62.868526 
L 239.776571 62.868526 
L 239.907852 61.424423 
L 241.529563 61.424423 
L 241.699456 61.183739 
L 241.989047 61.183739 
L 242.101023 59.739637 
L 247.526031 59.739637 
L 247.634145 59.258269 
L 250.472139 59.258269 
L 250.79262 58.776902 
L 253.341022 58.776902 
L 253.452997 58.536218 
L 257.912702 58.536218 
L 257.982204 58.05485 
L 258.966814 58.05485 
L 259.001565 57.814167 
L 261.704416 57.814167 
L 262.3531 57.332799 
L 263.391767 57.332799 
L 263.49602 56.610748 
L 265.642856 56.610748 
L 265.944031 56.12938 
L 270.384429 56.12938 
L 270.531155 55.648013 
L 274.836411 55.648013 
L 275.025611 54.20391 
L 275.141447 54.20391 
L 275.330647 53.963226 
L 275.909829 53.963226 
L 276.172392 53.481859 
L 288.980045 53.481859 
L 289.072714 53.241175 
L 306.533133 53.241175 
L 306.641247 52.759808 
L 335.681452 52.759808 
L 335.816594 51.556389 
L 357.837109 51.556389 
L 357.991557 50.35297 
L 358.261843 50.35297 
L 358.431736 48.908868 
L 363.903079 48.908868 
L 363.991887 48.4275 
L 400.90125 48.4275 
L 400.90125 48.4275 
" style="fill:none;stroke:#ff7f0e;stroke-linecap:square;stroke-width:1.5;"/>
   </g>
   <g id="line2d_15">
    <path clip-path="url(#p8905eac462)" d="M 43.78125 301.8675 
L 44.148066 301.8675 
L 44.325681 300.904765 
L 45.040006 300.904765 
L 45.086341 300.182714 
L 46.090257 300.182714 
L 46.63855 297.053825 
L 47.140508 297.053825 
L 47.56138 291.999466 
L 48.136702 291.999466 
L 48.376097 289.833312 
L 48.596186 289.111261 
L 48.874194 287.185791 
L 48.951418 287.185791 
L 49.132895 286.463739 
L 49.17923 285.741688 
L 49.584658 285.741688 
L 49.615547 285.260321 
L 50.117505 285.260321 
L 50.229481 283.816218 
L 50.750745 283.816218 
L 50.997863 281.168697 
L 51.858914 281.168697 
L 52.094448 280.205962 
L 52.441957 280.205962 
L 52.503737 278.761859 
L 53.005695 278.761859 
L 53.615767 277.077073 
L 53.78566 277.077073 
L 53.84744 276.114338 
L 54.947886 276.114338 
L 55.353314 273.7075 
L 55.623599 273.7075 
L 55.708546 271.78203 
L 56.10239 267.449722 
L 56.54643 267.449722 
L 56.615932 266.968355 
L 56.886217 266.968355 
L 58.07161 259.507158 
L 58.195169 257.341004 
L 58.38823 257.341004 
L 58.411397 256.378269 
L 58.836131 256.378269 
L 58.924939 255.896902 
L 59.08711 255.17485 
L 59.164334 255.17485 
L 59.318783 253.971432 
L 59.492538 253.971432 
L 59.662431 252.527329 
L 59.828463 250.842543 
L 60.091026 247.954338 
L 60.16825 247.954338 
L 60.214585 246.028868 
L 61.538982 241.937244 
L 61.562149 240.974509 
L 62.002328 239.530406 
L 62.272613 239.530406 
L 62.878824 238.567671 
L 63.037134 237.604936 
L 63.423255 237.604936 
L 63.56612 235.679466 
L 66.087494 217.628184 
L 66.184025 217.628184 
L 66.214915 217.146816 
L 66.442726 217.146816 
L 67.145468 216.424765 
L 67.299916 216.424765 
L 67.879099 211.61109 
L 68.064437 211.129722 
L 68.184135 208.963568 
L 69.265275 208.963568 
L 69.392695 208.482201 
L 69.701593 208.482201 
L 69.94871 207.038098 
L 70.025935 207.038098 
L 70.211273 206.556731 
L 70.512448 204.871944 
L 70.755704 201.983739 
L 71.392805 201.983739 
L 71.639923 200.058269 
L 71.717147 200.058269 
L 71.802094 198.132799 
L 72.033767 198.132799 
L 72.358109 196.688697 
L 72.937291 196.688697 
L 73.068573 195.244594 
L 75.450943 181.044252 
L 75.56678 181.044252 
L 75.686477 180.081517 
L 75.783008 180.081517 
L 76.157546 173.101688 
L 76.389219 173.101688 
L 76.420108 172.620321 
L 76.790785 171.176218 
L 77.254131 171.176218 
L 77.60164 168.76938 
L 77.717477 168.76938 
L 77.775395 167.565962 
L 78.408634 165.640491 
L 78.524471 165.640491 
L 78.628724 164.91844 
L 78.783172 164.91844 
L 78.852674 164.437073 
L 79.277408 164.437073 
L 79.655807 163.715021 
L 81.972537 163.715021 
L 82.235099 163.233654 
L 82.601915 163.233654 
L 82.710029 162.752286 
L 82.90309 162.752286 
L 83.273767 161.789551 
L 84.856865 161.789551 
L 85.389713 161.308184 
L 85.482382 159.864081 
L 85.965034 159.864081 
L 86.347294 154.569038 
L 86.988256 154.569038 
L 87.548133 150.958782 
L 88.204539 150.958782 
L 88.517298 147.589209 
L 88.691052 147.589209 
L 88.911142 144.460321 
L 89.4131 144.460321 
L 89.521214 143.978953 
L 89.965254 143.978953 
L 90.108119 143.256902 
L 90.30118 143.256902 
L 90.486518 142.775534 
L 90.664134 139.405962 
L 90.837889 139.405962 
L 90.946003 138.924594 
L 92.799386 138.924594 
L 93.146896 136.517756 
L 93.208675 135.555021 
L 93.594797 135.555021 
L 93.938445 134.110919 
L 95.502237 134.110919 
L 95.621935 133.148184 
L 97.031279 133.148184 
L 97.100781 132.666816 
L 97.178005 132.666816 
L 97.656796 131.222714 
L 97.815106 130.259979 
L 98.066085 130.259979 
L 98.193505 129.778611 
L 98.232117 129.778611 
L 98.293896 128.815876 
L 98.71863 128.815876 
L 98.764965 128.093825 
L 99.355731 125.20562 
L 101.768991 125.20562 
L 101.985219 124.242885 
L 102.444704 122.798782 
L 102.965968 122.798782 
L 102.996857 122.317415 
L 104.425507 122.317415 
L 104.587678 120.391944 
L 108.699873 120.391944 
L 108.919963 119.188526 
L 108.977881 119.188526 
L 109.058966 118.225791 
L 110.120801 118.225791 
L 110.298417 117.263056 
L 110.557118 115.337585 
L 114.012907 115.337585 
L 114.422195 111.968013 
L 114.49942 111.968013 
L 114.545754 111.245962 
L 115.35661 111.245962 
L 116.62695 109.801859 
L 116.877929 109.801859 
L 116.924263 109.079808 
L 118.372219 109.079808 
L 119.322078 108.117073 
L 119.553751 104.506816 
L 122.650447 104.506816 
L 122.858952 103.062714 
L 123.044291 102.581346 
L 123.438135 101.137244 
L 123.64664 99.693141 
L 126.561858 99.693141 
L 126.739474 98.730406 
L 126.855311 98.730406 
L 126.994314 97.767671 
L 128.422964 97.767671 
L 128.492466 97.286303 
L 133.156815 97.286303 
L 133.71283 97.04562 
L 134.15687 97.04562 
L 134.180037 96.082885 
L 134.662689 96.082885 
L 134.859611 93.916731 
L 135.052672 93.916731 
L 135.230288 92.953996 
L 135.906001 92.953996 
L 135.96778 91.991261 
L 136.971696 91.991261 
L 137.574046 89.825107 
L 138.249759 89.825107 
L 138.357873 89.343739 
L 139.149422 89.343739 
L 142.022167 87.899637 
L 144.029999 87.899637 
L 144.099501 87.418269 
L 144.562847 87.418269 
L 145.064805 82.604594 
L 145.180641 82.604594 
L 145.281033 81.641859 
L 146.840964 81.641859 
L 147.454898 80.197756 
L 147.516677 78.753654 
L 149.061164 78.753654 
L 149.200167 77.790919 
L 150.107553 77.790919 
L 150.570899 76.5875 
L 154.914767 76.5875 
L 155.250693 75.865449 
L 155.540284 75.865449 
L 162.637199 74.902714 
L 162.814815 73.939979 
L 166.019624 73.939979 
L 166.286048 72.495876 
L 167.116209 72.495876 
L 167.243629 72.014509 
L 169.996676 72.014509 
L 170.043011 71.292457 
L 170.969703 71.292457 
L 178.286707 70.089038 
L 182.321678 70.089038 
L 195.527036 68.163568 
L 195.947909 66.238098 
L 196.527091 66.238098 
L 196.770348 63.349893 
L 198.700955 63.349893 
L 198.80907 62.868526 
L 200.585229 62.868526 
L 200.851653 61.424423 
L 203.419361 61.424423 
L 203.836373 60.943056 
L 206.55853 60.943056 
L 208.415775 60.461688 
L 209.22663 60.461688 
L 221.0072 59.258269 
L 222.957114 59.258269 
L 223.026616 58.776902 
L 229.555932 58.776902 
L 229.745132 58.536218 
L 229.830078 57.814167 
L 230.679546 57.814167 
L 231.617821 57.332799 
L 232.390064 57.332799 
L 232.478872 56.851432 
L 250.047405 56.851432 
L 250.116907 56.370064 
L 255.696364 56.370064 
L 255.84309 55.888697 
L 256.422272 55.888697 
L 256.800672 55.407329 
L 257.379854 55.407329 
L 257.487968 54.925962 
L 260.538329 54.925962 
L 260.762279 54.444594 
L 270.589074 54.444594 
L 270.867081 53.722543 
L 275.790131 53.722543 
L 275.875078 53.000491 
L 289.342999 53.000491 
L 289.605562 52.519124 
L 294.818204 52.519124 
L 295.150268 51.556389 
L 307.737832 51.556389 
L 307.788028 51.075021 
L 316.33676 51.075021 
L 316.448735 50.834338 
L 316.892775 50.834338 
L 316.966138 50.593654 
L 323.588123 50.593654 
L 324.155722 49.871603 
L 329.947546 49.871603 
L 330.094272 49.390235 
L 344.400077 49.390235 
L 344.678085 48.668184 
L 377.081409 48.668184 
L 377.135466 48.4275 
L 400.90125 48.4275 
L 400.90125 48.4275 
" style="fill:none;stroke:#2ca02c;stroke-linecap:square;stroke-width:1.5;"/>
   </g>
   <g id="line2d_16">
    <path clip-path="url(#p8905eac462)" d="M 43.78125 301.8675 
L 400.90125 48.4275 
" style="fill:none;stroke:#000000;stroke-dasharray:5.6,2.4;stroke-dashoffset:0;stroke-width:1.5;"/>
   </g>
   <g id="patch_3">
    <path d="M 43.78125 301.8675 
L 43.78125 35.7555 
" style="fill:none;stroke:#000000;stroke-linecap:square;stroke-linejoin:miter;stroke-width:0.8;"/>
   </g>
   <g id="patch_4">
    <path d="M 400.90125 301.8675 
L 400.90125 35.7555 
" style="fill:none;stroke:#000000;stroke-linecap:square;stroke-linejoin:miter;stroke-width:0.8;"/>
   </g>
   <g id="patch_5">
    <path d="M 43.78125 301.8675 
L 400.90125 301.8675 
" style="fill:none;stroke:#000000;stroke-linecap:square;stroke-linejoin:miter;stroke-width:0.8;"/>
   </g>
   <g id="patch_6">
    <path d="M 43.78125 35.7555 
L 400.90125 35.7555 
" style="fill:none;stroke:#000000;stroke-linecap:square;stroke-linejoin:miter;stroke-width:0.8;"/>
   </g>
   <g id="text_15">
    <!-- ROC Curve AdaBoost + RandomOverSampler -->
    <defs>
     <path d="M 39.40625 66.21875 
Q 28.65625 66.21875 22.328125 58.203125 
Q 16.015625 50.203125 16.015625 36.375 
Q 16.015625 22.609375 22.328125 14.59375 
Q 28.65625 6.59375 39.40625 6.59375 
Q 50.140625 6.59375 56.421875 14.59375 
Q 62.703125 22.609375 62.703125 36.375 
Q 62.703125 50.203125 56.421875 58.203125 
Q 50.140625 66.21875 39.40625 66.21875 
M 39.40625 74.21875 
Q 54.734375 74.21875 63.90625 63.9375 
Q 73.09375 53.65625 73.09375 36.375 
Q 73.09375 19.140625 63.90625 8.859375 
Q 54.734375 -1.421875 39.40625 -1.421875 
Q 24.03125 -1.421875 14.8125 8.828125 
Q 5.609375 19.09375 5.609375 36.375 
Q 5.609375 53.65625 14.8125 63.9375 
Q 24.03125 74.21875 39.40625 74.21875 
" id="DejaVuSans-4f"/>
     <path d="M 64.40625 67.28125 
L 64.40625 56.890625 
Q 59.421875 61.53125 53.78125 63.8125 
Q 48.140625 66.109375 41.796875 66.109375 
Q 29.296875 66.109375 22.65625 58.46875 
Q 16.015625 50.828125 16.015625 36.375 
Q 16.015625 21.96875 22.65625 14.328125 
Q 29.296875 6.6875 41.796875 6.6875 
Q 48.140625 6.6875 53.78125 8.984375 
Q 59.421875 11.28125 64.40625 15.921875 
L 64.40625 5.609375 
Q 59.234375 2.09375 53.4375 0.328125 
Q 47.65625 -1.421875 41.21875 -1.421875 
Q 24.65625 -1.421875 15.125 8.703125 
Q 5.609375 18.84375 5.609375 36.375 
Q 5.609375 53.953125 15.125 64.078125 
Q 24.65625 74.21875 41.21875 74.21875 
Q 47.75 74.21875 53.53125 72.484375 
Q 59.328125 70.75 64.40625 67.28125 
" id="DejaVuSans-43"/>
     <path d="M 34.1875 63.1875 
L 20.796875 26.90625 
L 47.609375 26.90625 
z
M 28.609375 72.90625 
L 39.796875 72.90625 
L 67.578125 0 
L 57.328125 0 
L 50.6875 18.703125 
L 17.828125 18.703125 
L 11.1875 0 
L 0.78125 0 
z
" id="DejaVuSans-41"/>
     <path d="M 45.40625 46.390625 
L 45.40625 75.984375 
L 54.390625 75.984375 
L 54.390625 0 
L 45.40625 0 
L 45.40625 8.203125 
Q 42.578125 3.328125 38.25 0.953125 
Q 33.9375 -1.421875 27.875 -1.421875 
Q 17.96875 -1.421875 11.734375 6.484375 
Q 5.515625 14.40625 5.515625 27.296875 
Q 5.515625 40.1875 11.734375 48.09375 
Q 17.96875 56 27.875 56 
Q 33.9375 56 38.25 53.625 
Q 42.578125 51.265625 45.40625 46.390625 
M 14.796875 27.296875 
Q 14.796875 17.390625 18.875 11.75 
Q 22.953125 6.109375 30.078125 6.109375 
Q 37.203125 6.109375 41.296875 11.75 
Q 45.40625 17.390625 45.40625 27.296875 
Q 45.40625 37.203125 41.296875 42.84375 
Q 37.203125 48.484375 30.078125 48.484375 
Q 22.953125 48.484375 18.875 42.84375 
Q 14.796875 37.203125 14.796875 27.296875 
" id="DejaVuSans-64"/>
     <path d="M 19.671875 34.8125 
L 19.671875 8.109375 
L 35.5 8.109375 
Q 43.453125 8.109375 47.28125 11.40625 
Q 51.125 14.703125 51.125 21.484375 
Q 51.125 28.328125 47.28125 31.5625 
Q 43.453125 34.8125 35.5 34.8125 
z
M 19.671875 64.796875 
L 19.671875 42.828125 
L 34.28125 42.828125 
Q 41.5 42.828125 45.03125 45.53125 
Q 48.578125 48.25 48.578125 53.8125 
Q 48.578125 59.328125 45.03125 62.0625 
Q 41.5 64.796875 34.28125 64.796875 
z
M 9.8125 72.90625 
L 35.015625 72.90625 
Q 46.296875 72.90625 52.390625 68.21875 
Q 58.5 63.53125 58.5 54.890625 
Q 58.5 48.1875 55.375 44.234375 
Q 52.25 40.28125 46.1875 39.3125 
Q 53.46875 37.75 57.5 32.78125 
Q 61.53125 27.828125 61.53125 20.40625 
Q 61.53125 10.640625 54.890625 5.3125 
Q 48.25 0 35.984375 0 
L 9.8125 0 
z
" id="DejaVuSans-42"/>
     <path d="M 46 62.703125 
L 46 35.5 
L 73.1875 35.5 
L 73.1875 27.203125 
L 46 27.203125 
L 46 0 
L 37.796875 0 
L 37.796875 27.203125 
L 10.59375 27.203125 
L 10.59375 35.5 
L 37.796875 35.5 
L 37.796875 62.703125 
z
" id="DejaVuSans-2b"/>
     <path d="M 54.890625 33.015625 
L 54.890625 0 
L 45.90625 0 
L 45.90625 32.71875 
Q 45.90625 40.484375 42.875 44.328125 
Q 39.84375 48.1875 33.796875 48.1875 
Q 26.515625 48.1875 22.3125 43.546875 
Q 18.109375 38.921875 18.109375 30.90625 
L 18.109375 0 
L 9.078125 0 
L 9.078125 54.6875 
L 18.109375 54.6875 
L 18.109375 46.1875 
Q 21.34375 51.125 25.703125 53.5625 
Q 30.078125 56 35.796875 56 
Q 45.21875 56 50.046875 50.171875 
Q 54.890625 44.34375 54.890625 33.015625 
" id="DejaVuSans-6e"/>
     <path d="M 52 44.1875 
Q 55.375 50.25 60.0625 53.125 
Q 64.75 56 71.09375 56 
Q 79.640625 56 84.28125 50.015625 
Q 88.921875 44.046875 88.921875 33.015625 
L 88.921875 0 
L 79.890625 0 
L 79.890625 32.71875 
Q 79.890625 40.578125 77.09375 44.375 
Q 74.3125 48.1875 68.609375 48.1875 
Q 61.625 48.1875 57.5625 43.546875 
Q 53.515625 38.921875 53.515625 30.90625 
L 53.515625 0 
L 44.484375 0 
L 44.484375 32.71875 
Q 44.484375 40.625 41.703125 44.40625 
Q 38.921875 48.1875 33.109375 48.1875 
Q 26.21875 48.1875 22.15625 43.53125 
Q 18.109375 38.875 18.109375 30.90625 
L 18.109375 0 
L 9.078125 0 
L 9.078125 54.6875 
L 18.109375 54.6875 
L 18.109375 46.1875 
Q 21.1875 51.21875 25.484375 53.609375 
Q 29.78125 56 35.6875 56 
Q 41.65625 56 45.828125 52.96875 
Q 50 49.953125 52 44.1875 
" id="DejaVuSans-6d"/>
     <path d="M 53.515625 70.515625 
L 53.515625 60.890625 
Q 47.90625 63.578125 42.921875 64.890625 
Q 37.9375 66.21875 33.296875 66.21875 
Q 25.25 66.21875 20.875 63.09375 
Q 16.5 59.96875 16.5 54.203125 
Q 16.5 49.359375 19.40625 46.890625 
Q 22.3125 44.4375 30.421875 42.921875 
L 36.375 41.703125 
Q 47.40625 39.59375 52.65625 34.296875 
Q 57.90625 29 57.90625 20.125 
Q 57.90625 9.515625 50.796875 4.046875 
Q 43.703125 -1.421875 29.984375 -1.421875 
Q 24.8125 -1.421875 18.96875 -0.25 
Q 13.140625 0.921875 6.890625 3.21875 
L 6.890625 13.375 
Q 12.890625 10.015625 18.65625 8.296875 
Q 24.421875 6.59375 29.984375 6.59375 
Q 38.421875 6.59375 43.015625 9.90625 
Q 47.609375 13.234375 47.609375 19.390625 
Q 47.609375 24.75 44.3125 27.78125 
Q 41.015625 30.8125 33.5 32.328125 
L 27.484375 33.5 
Q 16.453125 35.6875 11.515625 40.375 
Q 6.59375 45.0625 6.59375 53.421875 
Q 6.59375 63.09375 13.40625 68.65625 
Q 20.21875 74.21875 32.171875 74.21875 
Q 37.3125 74.21875 42.625 73.28125 
Q 47.953125 72.359375 53.515625 70.515625 
" id="DejaVuSans-53"/>
     <path d="M 18.109375 8.203125 
L 18.109375 -20.796875 
L 9.078125 -20.796875 
L 9.078125 54.6875 
L 18.109375 54.6875 
L 18.109375 46.390625 
Q 20.953125 51.265625 25.265625 53.625 
Q 29.59375 56 35.59375 56 
Q 45.5625 56 51.78125 48.09375 
Q 58.015625 40.1875 58.015625 27.296875 
Q 58.015625 14.40625 51.78125 6.484375 
Q 45.5625 -1.421875 35.59375 -1.421875 
Q 29.59375 -1.421875 25.265625 0.953125 
Q 20.953125 3.328125 18.109375 8.203125 
M 48.6875 27.296875 
Q 48.6875 37.203125 44.609375 42.84375 
Q 40.53125 48.484375 33.40625 48.484375 
Q 26.265625 48.484375 22.1875 42.84375 
Q 18.109375 37.203125 18.109375 27.296875 
Q 18.109375 17.390625 22.1875 11.75 
Q 26.265625 6.109375 33.40625 6.109375 
Q 40.53125 6.109375 44.609375 11.75 
Q 48.6875 17.390625 48.6875 27.296875 
" id="DejaVuSans-70"/>
    </defs>
    <g transform="translate(86.007188 16.318125)scale(0.12 -0.12)">
     <use xlink:href="#DejaVuSans-52"/>
     <use x="69.482422" xlink:href="#DejaVuSans-4f"/>
     <use x="148.193359" xlink:href="#DejaVuSans-43"/>
     <use x="218.017578" xlink:href="#DejaVuSans-20"/>
     <use x="249.804688" xlink:href="#DejaVuSans-43"/>
     <use x="319.628906" xlink:href="#DejaVuSans-75"/>
     <use x="383.007812" xlink:href="#DejaVuSans-72"/>
     <use x="424.121094" xlink:href="#DejaVuSans-76"/>
     <use x="483.300781" xlink:href="#DejaVuSans-65"/>
     <use x="544.824219" xlink:href="#DejaVuSans-20"/>
     <use x="576.611328" xlink:href="#DejaVuSans-41"/>
     <use x="645.003906" xlink:href="#DejaVuSans-64"/>
     <use x="708.480469" xlink:href="#DejaVuSans-61"/>
     <use x="769.759766" xlink:href="#DejaVuSans-42"/>
     <use x="838.363281" xlink:href="#DejaVuSans-6f"/>
     <use x="899.544922" xlink:href="#DejaVuSans-6f"/>
     <use x="960.726562" xlink:href="#DejaVuSans-73"/>
     <use x="1012.826172" xlink:href="#DejaVuSans-74"/>
     <use x="1052.035156" xlink:href="#DejaVuSans-20"/>
     <use x="1083.822266" xlink:href="#DejaVuSans-2b"/>
     <use x="1167.611328" xlink:href="#DejaVuSans-20"/>
     <use x="1199.398438" xlink:href="#DejaVuSans-52"/>
     <use x="1268.849609" xlink:href="#DejaVuSans-61"/>
     <use x="1330.128906" xlink:href="#DejaVuSans-6e"/>
     <use x="1393.507812" xlink:href="#DejaVuSans-64"/>
     <use x="1456.984375" xlink:href="#DejaVuSans-6f"/>
     <use x="1518.166016" xlink:href="#DejaVuSans-6d"/>
     <use x="1615.578125" xlink:href="#DejaVuSans-4f"/>
     <use x="1694.289062" xlink:href="#DejaVuSans-76"/>
     <use x="1753.46875" xlink:href="#DejaVuSans-65"/>
     <use x="1814.992188" xlink:href="#DejaVuSans-72"/>
     <use x="1856.105469" xlink:href="#DejaVuSans-53"/>
     <use x="1919.582031" xlink:href="#DejaVuSans-61"/>
     <use x="1980.861328" xlink:href="#DejaVuSans-6d"/>
     <use x="2078.273438" xlink:href="#DejaVuSans-70"/>
     <use x="2141.75" xlink:href="#DejaVuSans-6c"/>
     <use x="2169.533203" xlink:href="#DejaVuSans-65"/>
     <use x="2231.056641" xlink:href="#DejaVuSans-72"/>
    </g>
    <!-- Train: 1   Test: [1, 2, 4, 6, 8, 10, 12] -->
    <defs>
     <path d="M 11.71875 12.40625 
L 22.015625 12.40625 
L 22.015625 0 
L 11.71875 0 
z
M 11.71875 51.703125 
L 22.015625 51.703125 
L 22.015625 39.3125 
L 11.71875 39.3125 
z
" id="DejaVuSans-3a"/>
     <path d="M 8.59375 75.984375 
L 29.296875 75.984375 
L 29.296875 69 
L 17.578125 69 
L 17.578125 -6.203125 
L 29.296875 -6.203125 
L 29.296875 -13.1875 
L 8.59375 -13.1875 
z
" id="DejaVuSans-5b"/>
     <path d="M 11.71875 12.40625 
L 22.015625 12.40625 
L 22.015625 4 
L 14.015625 -11.625 
L 7.71875 -11.625 
L 11.71875 4 
z
" id="DejaVuSans-2c"/>
     <path d="M 30.421875 75.984375 
L 30.421875 -13.1875 
L 9.71875 -13.1875 
L 9.71875 -6.203125 
L 21.390625 -6.203125 
L 21.390625 69 
L 9.71875 69 
L 9.71875 75.984375 
z
" id="DejaVuSans-5d"/>
    </defs>
    <g transform="translate(114.942188 29.7555)scale(0.12 -0.12)">
     <use xlink:href="#DejaVuSans-54"/>
     <use x="60.865234" xlink:href="#DejaVuSans-72"/>
     <use x="101.978516" xlink:href="#DejaVuSans-61"/>
     <use x="163.257812" xlink:href="#DejaVuSans-69"/>
     <use x="191.041016" xlink:href="#DejaVuSans-6e"/>
     <use x="254.419922" xlink:href="#DejaVuSans-3a"/>
     <use x="288.111328" xlink:href="#DejaVuSans-20"/>
     <use x="319.898438" xlink:href="#DejaVuSans-31"/>
     <use x="383.521484" xlink:href="#DejaVuSans-20"/>
     <use x="415.308594" xlink:href="#DejaVuSans-20"/>
     <use x="447.095703" xlink:href="#DejaVuSans-20"/>
     <use x="478.882812" xlink:href="#DejaVuSans-54"/>
     <use x="539.701172" xlink:href="#DejaVuSans-65"/>
     <use x="601.224609" xlink:href="#DejaVuSans-73"/>
     <use x="653.324219" xlink:href="#DejaVuSans-74"/>
     <use x="692.533203" xlink:href="#DejaVuSans-3a"/>
     <use x="726.224609" xlink:href="#DejaVuSans-20"/>
     <use x="758.011719" xlink:href="#DejaVuSans-5b"/>
     <use x="797.025391" xlink:href="#DejaVuSans-31"/>
     <use x="860.648438" xlink:href="#DejaVuSans-2c"/>
     <use x="892.435547" xlink:href="#DejaVuSans-20"/>
     <use x="924.222656" xlink:href="#DejaVuSans-32"/>
     <use x="987.845703" xlink:href="#DejaVuSans-2c"/>
     <use x="1019.632812" xlink:href="#DejaVuSans-20"/>
     <use x="1051.419922" xlink:href="#DejaVuSans-34"/>
     <use x="1115.042969" xlink:href="#DejaVuSans-2c"/>
     <use x="1146.830078" xlink:href="#DejaVuSans-20"/>
     <use x="1178.617188" xlink:href="#DejaVuSans-36"/>
     <use x="1242.240234" xlink:href="#DejaVuSans-2c"/>
     <use x="1274.027344" xlink:href="#DejaVuSans-20"/>
     <use x="1305.814453" xlink:href="#DejaVuSans-38"/>
     <use x="1369.4375" xlink:href="#DejaVuSans-2c"/>
     <use x="1401.224609" xlink:href="#DejaVuSans-20"/>
     <use x="1433.011719" xlink:href="#DejaVuSans-31"/>
     <use x="1496.634766" xlink:href="#DejaVuSans-30"/>
     <use x="1560.257812" xlink:href="#DejaVuSans-2c"/>
     <use x="1592.044922" xlink:href="#DejaVuSans-20"/>
     <use x="1623.832031" xlink:href="#DejaVuSans-31"/>
     <use x="1687.455078" xlink:href="#DejaVuSans-32"/>
     <use x="1751.078125" xlink:href="#DejaVuSans-5d"/>
    </g>
   </g>
   <g id="legend_1">
    <g id="patch_7">
     <path d="M 217.087188 296.8675 
L 393.90125 296.8675 
Q 395.90125 296.8675 395.90125 294.8675 
L 395.90125 251.833125 
Q 395.90125 249.833125 393.90125 249.833125 
L 217.087188 249.833125 
Q 215.087188 249.833125 215.087188 251.833125 
L 215.087188 294.8675 
Q 215.087188 296.8675 217.087188 296.8675 
z
" style="fill:#ffffff;opacity:0.8;stroke:#cccccc;stroke-linejoin:miter;"/>
    </g>
    <g id="line2d_17">
     <path d="M 219.087188 257.931562 
L 239.087188 257.931562 
" style="fill:none;stroke:#1f77b4;stroke-linecap:square;stroke-width:1.5;"/>
    </g>
    <g id="line2d_18"/>
    <g id="text_16">
     <!-- ROC curve - 0 (AUC = 0.835) -->
     <defs>
      <path d="M 48.78125 52.59375 
L 48.78125 44.1875 
Q 44.96875 46.296875 41.140625 47.34375 
Q 37.3125 48.390625 33.40625 48.390625 
Q 24.65625 48.390625 19.8125 42.84375 
Q 14.984375 37.3125 14.984375 27.296875 
Q 14.984375 17.28125 19.8125 11.734375 
Q 24.65625 6.203125 33.40625 6.203125 
Q 37.3125 6.203125 41.140625 7.25 
Q 44.96875 8.296875 48.78125 10.40625 
L 48.78125 2.09375 
Q 45.015625 0.34375 40.984375 -0.53125 
Q 36.96875 -1.421875 32.421875 -1.421875 
Q 20.0625 -1.421875 12.78125 6.34375 
Q 5.515625 14.109375 5.515625 27.296875 
Q 5.515625 40.671875 12.859375 48.328125 
Q 20.21875 56 33.015625 56 
Q 37.15625 56 41.109375 55.140625 
Q 45.0625 54.296875 48.78125 52.59375 
" id="DejaVuSans-63"/>
      <path d="M 4.890625 31.390625 
L 31.203125 31.390625 
L 31.203125 23.390625 
L 4.890625 23.390625 
z
" id="DejaVuSans-2d"/>
      <path d="M 31 75.875 
Q 24.46875 64.65625 21.28125 53.65625 
Q 18.109375 42.671875 18.109375 31.390625 
Q 18.109375 20.125 21.3125 9.0625 
Q 24.515625 -2 31 -13.1875 
L 23.1875 -13.1875 
Q 15.875 -1.703125 12.234375 9.375 
Q 8.59375 20.453125 8.59375 31.390625 
Q 8.59375 42.28125 12.203125 53.3125 
Q 15.828125 64.359375 23.1875 75.875 
z
" id="DejaVuSans-28"/>
      <path d="M 8.6875 72.90625 
L 18.609375 72.90625 
L 18.609375 28.609375 
Q 18.609375 16.890625 22.84375 11.734375 
Q 27.09375 6.59375 36.625 6.59375 
Q 46.09375 6.59375 50.34375 11.734375 
Q 54.59375 16.890625 54.59375 28.609375 
L 54.59375 72.90625 
L 64.5 72.90625 
L 64.5 27.390625 
Q 64.5 13.140625 57.4375 5.859375 
Q 50.390625 -1.421875 36.625 -1.421875 
Q 22.796875 -1.421875 15.734375 5.859375 
Q 8.6875 13.140625 8.6875 27.390625 
z
" id="DejaVuSans-55"/>
      <path d="M 10.59375 45.40625 
L 73.1875 45.40625 
L 73.1875 37.203125 
L 10.59375 37.203125 
z
M 10.59375 25.484375 
L 73.1875 25.484375 
L 73.1875 17.1875 
L 10.59375 17.1875 
z
" id="DejaVuSans-3d"/>
      <path d="M 40.578125 39.3125 
Q 47.65625 37.796875 51.625 33 
Q 55.609375 28.21875 55.609375 21.1875 
Q 55.609375 10.40625 48.1875 4.484375 
Q 40.765625 -1.421875 27.09375 -1.421875 
Q 22.515625 -1.421875 17.65625 -0.515625 
Q 12.796875 0.390625 7.625 2.203125 
L 7.625 11.71875 
Q 11.71875 9.328125 16.59375 8.109375 
Q 21.484375 6.890625 26.8125 6.890625 
Q 36.078125 6.890625 40.9375 10.546875 
Q 45.796875 14.203125 45.796875 21.1875 
Q 45.796875 27.640625 41.28125 31.265625 
Q 36.765625 34.90625 28.71875 34.90625 
L 20.21875 34.90625 
L 20.21875 43.015625 
L 29.109375 43.015625 
Q 36.375 43.015625 40.234375 45.921875 
Q 44.09375 48.828125 44.09375 54.296875 
Q 44.09375 59.90625 40.109375 62.90625 
Q 36.140625 65.921875 28.71875 65.921875 
Q 24.65625 65.921875 20.015625 65.03125 
Q 15.375 64.15625 9.8125 62.3125 
L 9.8125 71.09375 
Q 15.4375 72.65625 20.34375 73.4375 
Q 25.25 74.21875 29.59375 74.21875 
Q 40.828125 74.21875 47.359375 69.109375 
Q 53.90625 64.015625 53.90625 55.328125 
Q 53.90625 49.265625 50.4375 45.09375 
Q 46.96875 40.921875 40.578125 39.3125 
" id="DejaVuSans-33"/>
      <path d="M 10.796875 72.90625 
L 49.515625 72.90625 
L 49.515625 64.59375 
L 19.828125 64.59375 
L 19.828125 46.734375 
Q 21.96875 47.46875 24.109375 47.828125 
Q 26.265625 48.1875 28.421875 48.1875 
Q 40.625 48.1875 47.75 41.5 
Q 54.890625 34.8125 54.890625 23.390625 
Q 54.890625 11.625 47.5625 5.09375 
Q 40.234375 -1.421875 26.90625 -1.421875 
Q 22.3125 -1.421875 17.546875 -0.640625 
Q 12.796875 0.140625 7.71875 1.703125 
L 7.71875 11.625 
Q 12.109375 9.234375 16.796875 8.0625 
Q 21.484375 6.890625 26.703125 6.890625 
Q 35.15625 6.890625 40.078125 11.328125 
Q 45.015625 15.765625 45.015625 23.390625 
Q 45.015625 31 40.078125 35.4375 
Q 35.15625 39.890625 26.703125 39.890625 
Q 22.75 39.890625 18.8125 39.015625 
Q 14.890625 38.140625 10.796875 36.28125 
z
" id="DejaVuSans-35"/>
      <path d="M 8.015625 75.875 
L 15.828125 75.875 
Q 23.140625 64.359375 26.78125 53.3125 
Q 30.421875 42.28125 30.421875 31.390625 
Q 30.421875 20.453125 26.78125 9.375 
Q 23.140625 -1.703125 15.828125 -13.1875 
L 8.015625 -13.1875 
Q 14.5 -2 17.703125 9.0625 
Q 20.90625 20.125 20.90625 31.390625 
Q 20.90625 42.671875 17.703125 53.65625 
Q 14.5 64.65625 8.015625 75.875 
" id="DejaVuSans-29"/>
     </defs>
     <g transform="translate(247.087188 261.431562)scale(0.1 -0.1)">
      <use xlink:href="#DejaVuSans-52"/>
      <use x="69.482422" xlink:href="#DejaVuSans-4f"/>
      <use x="148.193359" xlink:href="#DejaVuSans-43"/>
      <use x="218.017578" xlink:href="#DejaVuSans-20"/>
      <use x="249.804688" xlink:href="#DejaVuSans-63"/>
      <use x="304.785156" xlink:href="#DejaVuSans-75"/>
      <use x="368.164062" xlink:href="#DejaVuSans-72"/>
      <use x="409.277344" xlink:href="#DejaVuSans-76"/>
      <use x="468.457031" xlink:href="#DejaVuSans-65"/>
      <use x="529.980469" xlink:href="#DejaVuSans-20"/>
      <use x="561.767578" xlink:href="#DejaVuSans-2d"/>
      <use x="597.851562" xlink:href="#DejaVuSans-20"/>
      <use x="629.638672" xlink:href="#DejaVuSans-30"/>
      <use x="693.261719" xlink:href="#DejaVuSans-20"/>
      <use x="725.048828" xlink:href="#DejaVuSans-28"/>
      <use x="764.0625" xlink:href="#DejaVuSans-41"/>
      <use x="832.470703" xlink:href="#DejaVuSans-55"/>
      <use x="905.664062" xlink:href="#DejaVuSans-43"/>
      <use x="975.488281" xlink:href="#DejaVuSans-20"/>
      <use x="1007.275391" xlink:href="#DejaVuSans-3d"/>
      <use x="1091.064453" xlink:href="#DejaVuSans-20"/>
      <use x="1122.851562" xlink:href="#DejaVuSans-30"/>
      <use x="1186.474609" xlink:href="#DejaVuSans-2e"/>
      <use x="1218.261719" xlink:href="#DejaVuSans-38"/>
      <use x="1281.884766" xlink:href="#DejaVuSans-33"/>
      <use x="1345.507812" xlink:href="#DejaVuSans-35"/>
      <use x="1409.130859" xlink:href="#DejaVuSans-29"/>
     </g>
    </g>
    <g id="line2d_19">
     <path d="M 219.087188 272.609687 
L 239.087188 272.609687 
" style="fill:none;stroke:#ff7f0e;stroke-linecap:square;stroke-width:1.5;"/>
    </g>
    <g id="line2d_20"/>
    <g id="text_17">
     <!-- ROC curve - 1 (AUC = 0.832) -->
     <g transform="translate(247.087188 276.109687)scale(0.1 -0.1)">
      <use xlink:href="#DejaVuSans-52"/>
      <use x="69.482422" xlink:href="#DejaVuSans-4f"/>
      <use x="148.193359" xlink:href="#DejaVuSans-43"/>
      <use x="218.017578" xlink:href="#DejaVuSans-20"/>
      <use x="249.804688" xlink:href="#DejaVuSans-63"/>
      <use x="304.785156" xlink:href="#DejaVuSans-75"/>
      <use x="368.164062" xlink:href="#DejaVuSans-72"/>
      <use x="409.277344" xlink:href="#DejaVuSans-76"/>
      <use x="468.457031" xlink:href="#DejaVuSans-65"/>
      <use x="529.980469" xlink:href="#DejaVuSans-20"/>
      <use x="561.767578" xlink:href="#DejaVuSans-2d"/>
      <use x="597.851562" xlink:href="#DejaVuSans-20"/>
      <use x="629.638672" xlink:href="#DejaVuSans-31"/>
      <use x="693.261719" xlink:href="#DejaVuSans-20"/>
      <use x="725.048828" xlink:href="#DejaVuSans-28"/>
      <use x="764.0625" xlink:href="#DejaVuSans-41"/>
      <use x="832.470703" xlink:href="#DejaVuSans-55"/>
      <use x="905.664062" xlink:href="#DejaVuSans-43"/>
      <use x="975.488281" xlink:href="#DejaVuSans-20"/>
      <use x="1007.275391" xlink:href="#DejaVuSans-3d"/>
      <use x="1091.064453" xlink:href="#DejaVuSans-20"/>
      <use x="1122.851562" xlink:href="#DejaVuSans-30"/>
      <use x="1186.474609" xlink:href="#DejaVuSans-2e"/>
      <use x="1218.261719" xlink:href="#DejaVuSans-38"/>
      <use x="1281.884766" xlink:href="#DejaVuSans-33"/>
      <use x="1345.507812" xlink:href="#DejaVuSans-32"/>
      <use x="1409.130859" xlink:href="#DejaVuSans-29"/>
     </g>
    </g>
    <g id="line2d_21">
     <path d="M 219.087188 287.287812 
L 239.087188 287.287812 
" style="fill:none;stroke:#2ca02c;stroke-linecap:square;stroke-width:1.5;"/>
    </g>
    <g id="line2d_22"/>
    <g id="text_18">
     <!-- ROC curve - 2 (AUC = 0.850) -->
     <g transform="translate(247.087188 290.787812)scale(0.1 -0.1)">
      <use xlink:href="#DejaVuSans-52"/>
      <use x="69.482422" xlink:href="#DejaVuSans-4f"/>
      <use x="148.193359" xlink:href="#DejaVuSans-43"/>
      <use x="218.017578" xlink:href="#DejaVuSans-20"/>
      <use x="249.804688" xlink:href="#DejaVuSans-63"/>
      <use x="304.785156" xlink:href="#DejaVuSans-75"/>
      <use x="368.164062" xlink:href="#DejaVuSans-72"/>
      <use x="409.277344" xlink:href="#DejaVuSans-76"/>
      <use x="468.457031" xlink:href="#DejaVuSans-65"/>
      <use x="529.980469" xlink:href="#DejaVuSans-20"/>
      <use x="561.767578" xlink:href="#DejaVuSans-2d"/>
      <use x="597.851562" xlink:href="#DejaVuSans-20"/>
      <use x="629.638672" xlink:href="#DejaVuSans-32"/>
      <use x="693.261719" xlink:href="#DejaVuSans-20"/>
      <use x="725.048828" xlink:href="#DejaVuSans-28"/>
      <use x="764.0625" xlink:href="#DejaVuSans-41"/>
      <use x="832.470703" xlink:href="#DejaVuSans-55"/>
      <use x="905.664062" xlink:href="#DejaVuSans-43"/>
      <use x="975.488281" xlink:href="#DejaVuSans-20"/>
      <use x="1007.275391" xlink:href="#DejaVuSans-3d"/>
      <use x="1091.064453" xlink:href="#DejaVuSans-20"/>
      <use x="1122.851562" xlink:href="#DejaVuSans-30"/>
      <use x="1186.474609" xlink:href="#DejaVuSans-2e"/>
      <use x="1218.261719" xlink:href="#DejaVuSans-38"/>
      <use x="1281.884766" xlink:href="#DejaVuSans-35"/>
      <use x="1345.507812" xlink:href="#DejaVuSans-30"/>
      <use x="1409.130859" xlink:href="#DejaVuSans-29"/>
     </g>
    </g>
   </g>
  </g>
 </g>
 <defs>
  <clipPath id="p8905eac462">
   <rect height="266.112" width="357.12" x="43.78125" y="35.7555"/>
  </clipPath>
 </defs>
</svg>
