<?xml version="1.0" encoding="utf-8" standalone="no"?>
<!DOCTYPE svg PUBLIC "-//W3C//DTD SVG 1.1//EN"
  "http://www.w3.org/Graphics/SVG/1.1/DTD/svg11.dtd">
<!-- Created with matplotlib (http://matplotlib.org/) -->
<svg height="424pt" version="1.1" viewBox="0 0 510 424" width="510pt" xmlns="http://www.w3.org/2000/svg" xmlns:xlink="http://www.w3.org/1999/xlink">
 <defs>
  <style type="text/css">
*{stroke-linecap:butt;stroke-linejoin:round;stroke-miterlimit:100000;}
  </style>
 </defs>
 <g id="figure_1">
  <g id="patch_1">
   <path d="M 0 424.2941 
L 510.039375 424.2941 
L 510.039375 0 
L 0 0 
z
" style="fill:#ffffff;"/>
  </g>
  <g id="axes_1">
   <g id="patch_2">
    <path d="M 46.8975 384.8666 
L 493.2975 384.8666 
L 493.2975 39.2666 
L 46.8975 39.2666 
z
" style="fill:#ffffff;"/>
   </g>
   <g id="line2d_1">
    <path clip-path="url(#pcadc0aeb86)" d="M 46.8975 384.8666 
L 47.023469 384.085715 
L 47.093452 382.523946 
L 47.233418 382.523946 
L 47.653315 377.057754 
L 47.793281 377.057754 
L 47.863264 376.276869 
L 48.073213 376.276869 
L 48.325151 371.591562 
L 48.465117 371.591562 
L 48.752047 366.906254 
L 49.017982 361.440062 
L 49.752803 353.631216 
L 53.042 313.025217 
L 53.181965 313.025217 
L 53.307935 312.244333 
L 53.832807 308.33991 
L 53.902789 308.33991 
L 54.10574 306.77814 
L 56.324198 293.11266 
L 56.499156 293.11266 
L 56.695108 289.989122 
L 56.835073 289.989122 
L 56.975039 288.427352 
L 57.184988 288.427352 
L 57.366944 286.084699 
L 57.576892 286.084699 
L 57.737853 282.96116 
L 58.353703 275.933199 
L 58.423686 275.933199 
L 58.836585 271.247891 
L 58.906568 271.247891 
L 59.214492 268.124353 
L 59.445436 263.439045 
L 59.515419 263.439045 
L 59.627392 261.486834 
L 59.697375 260.705949 
L 60.159262 252.116219 
L 60.439193 252.116219 
L 60.999057 245.4787 
L 61.418954 245.4787 
L 61.698886 239.622065 
L 61.838852 239.622065 
L 62.076794 234.155873 
L 62.146776 234.155873 
L 62.314735 231.813219 
L 62.594667 231.813219 
L 63.070551 224.785258 
L 63.140534 224.785258 
L 63.315491 221.661719 
L 63.490448 221.661719 
L 63.658407 219.319066 
L 63.868356 219.319066 
L 64.148288 212.291104 
L 64.288254 212.291104 
L 64.83412 206.044028 
L 65.114052 206.044028 
L 65.170038 205.263143 
L 65.379987 205.263143 
L 65.519953 202.530047 
L 65.659919 202.530047 
L 65.722903 201.749162 
L 65.862869 201.749162 
L 65.932852 200.187393 
L 66.072818 200.187393 
L 66.142801 199.796951 
L 66.282767 199.796951 
L 66.576695 195.502086 
L 66.996592 195.502086 
L 67.136558 193.940316 
L 67.41649 193.940316 
L 67.556456 193.159432 
L 67.696421 193.159432 
L 67.794397 190.816778 
L 67.934363 190.816778 
L 68.060333 189.255009 
L 68.760162 189.255009 
L 68.886131 188.083682 
L 69.09608 188.083682 
L 69.166063 186.912355 
L 69.515977 186.912355 
L 69.795909 183.007932 
L 70.425755 183.007932 
L 70.481741 182.227047 
L 72.161331 182.227047 
L 72.455259 178.322624 
L 73.015123 178.322624 
L 73.085106 177.932182 
L 73.43502 177.932182 
L 73.623974 176.370413 
L 73.76394 176.370413 
L 73.903906 172.46599 
L 74.043872 172.46599 
L 74.085861 170.904221 
L 74.365793 170.904221 
L 74.435776 170.513778 
L 74.645725 170.513778 
L 74.743701 168.171125 
L 75.093615 168.171125 
L 75.163598 167.780682 
L 75.583496 167.780682 
L 75.709465 166.609355 
L 75.779448 166.218913 
L 75.9754 164.266702 
L 76.535263 164.266702 
L 76.661232 163.485817 
L 78.060891 163.485817 
L 78.130874 163.095375 
L 78.410805 163.095375 
L 78.543773 161.533606 
L 79.278593 161.533606 
L 79.33458 159.971836 
L 79.684494 159.971836 
L 79.754477 159.581394 
L 79.894443 159.581394 
L 80.083397 158.019625 
L 80.993175 158.019625 
L 81.021168 155.676971 
L 81.651014 155.676971 
L 81.825971 155.286529 
L 82.875715 155.286529 
L 82.931701 154.505644 
L 84.471325 154.505644 
L 84.541308 153.72476 
L 85.416095 153.72476 
L 85.542064 152.553433 
L 90.090953 152.553433 
L 90.188929 149.429894 
L 93.303169 149.429894 
L 93.359155 148.64901 
L 99.202728 148.64901 
L 99.244718 147.087241 
L 99.594633 147.087241 
L 99.734598 146.696798 
L 100.434428 146.696798 
L 100.490414 145.135029 
L 100.63038 145.135029 
L 100.700363 144.744587 
L 101.400192 144.744587 
L 101.456178 143.963702 
L 103.135768 143.963702 
L 103.198753 143.182818 
L 105.018308 143.182818 
L 105.088291 142.792375 
L 105.508189 142.792375 
L 105.592168 138.107068 
L 106.711895 138.107068 
L 106.900849 134.983529 
L 108.790387 134.983529 
L 108.846374 134.202645 
L 109.546203 134.202645 
L 109.588192 132.640876 
L 109.798141 132.640876 
L 109.861126 132.250433 
L 110.351006 132.250433 
L 110.378999 131.859991 
L 116.117598 131.859991 
L 116.173584 131.079106 
L 117.573243 131.079106 
L 117.699212 129.517337 
L 119.868682 129.517337 
L 119.994651 128.736453 
L 120.274583 128.736453 
L 120.330569 127.174683 
L 126.069168 127.174683 
L 126.125155 126.393799 
L 131.653805 126.393799 
L 131.765777 123.27026 
L 140.023761 123.27026 
L 140.079747 122.489376 
L 141.269457 122.489376 
L 141.451412 120.146722 
L 142.151241 120.146722 
L 142.263214 118.584953 
L 142.333197 118.194511 
L 142.375187 116.632741 
L 143.075016 116.632741 
L 143.228978 113.509203 
L 144.208739 113.509203 
L 144.264725 112.728318 
L 144.964554 112.728318 
L 145.020541 111.556991 
L 145.755361 111.556991 
L 145.818346 111.166549 
L 147.637902 111.166549 
L 147.763871 110.385665 
L 148.253751 110.385665 
L 148.351727 109.60478 
L 152.305762 109.60478 
L 152.445728 109.214338 
L 156.854651 109.214338 
L 156.994617 108.823895 
L 159.898908 108.823895 
L 162.138361 106.871684 
L 164.132874 106.871684 
L 164.202857 106.481242 
L 164.76272 106.481242 
L 164.902686 106.090799 
L 164.958672 105.309915 
L 168.667767 105.309915 
L 168.709756 103.748146 
L 170.039432 103.748146 
L 170.144406 99.843723 
L 170.354355 99.843723 
L 170.410341 99.062838 
L 173.279641 99.062838 
L 173.335627 98.281953 
L 173.615559 98.281953 
L 173.657548 96.720184 
L 175.687053 96.720184 
L 175.743039 95.9393 
L 176.862766 95.9393 
L 176.974738 94.37753 
L 178.094465 94.37753 
L 178.150451 93.596646 
L 185.638623 93.596646 
L 185.701607 92.815761 
L 187.731112 92.815761 
L 187.857081 92.034877 
L 198.214552 92.034877 
L 198.256542 90.473107 
L 202.385534 90.473107 
L 202.44152 89.692223 
L 204.156101 89.692223 
L 204.226084 89.30178 
L 205.135862 89.30178 
L 205.261831 88.130454 
L 207.851199 88.130454 
L 207.914184 87.740011 
L 208.474047 87.740011 
L 208.509038 83.835588 
L 209.138885 83.835588 
L 209.208868 83.445146 
L 210.398577 83.445146 
L 210.461562 83.054704 
L 211.86122 83.054704 
L 211.917206 82.273819 
L 219.384383 82.273819 
L 219.440369 81.492935 
L 229.230979 81.492935 
L 229.286965 80.321608 
L 230.3717 80.321608 
L 230.511666 79.931165 
L 238.265773 79.931165 
L 238.307762 77.588512 
L 240.197301 77.588512 
L 240.330268 77.198069 
L 241.240046 77.198069 
L 241.449995 76.807627 
L 245.019124 76.807627 
L 245.07511 76.026742 
L 253.473059 76.026742 
L 253.536044 75.245858 
L 257.315121 75.245858 
L 257.385104 74.855415 
L 261.199173 74.855415 
L 261.227166 71.341435 
L 265.139211 71.341435 
L 265.202195 70.950992 
L 267.091734 70.950992 
L 267.861546 69.779666 
L 269.331187 69.779666 
L 271.57064 67.827454 
L 281.053325 67.827454 
L 281.207287 66.656127 
L 291.074878 66.656127 
L 291.137862 66.265685 
L 297.506307 66.265685 
L 297.61828 64.703916 
L 304.322643 64.703916 
L 304.455611 64.313473 
L 312.909546 64.313473 
L 313.077505 63.923031 
L 322.980087 63.923031 
L 323.043072 63.532589 
L 327.277038 63.532589 
L 328.466748 63.142147 
L 341.02868 63.142147 
L 341.091665 62.751704 
L 342.841238 62.751704 
L 342.897224 61.580377 
L 359.098268 61.580377 
L 359.161253 61.189935 
L 361.540672 61.189935 
L 364.479954 60.799493 
L 366.439476 60.799493 
L 366.50246 60.40905 
L 379.764222 60.40905 
L 379.827207 60.018608 
L 401.06702 60.018608 
L 401.130005 59.628166 
L 402.809595 59.628166 
L 403.999304 58.847281 
L 417.366041 58.847281 
L 417.429025 58.456839 
L 431.712538 58.456839 
L 431.775522 58.066397 
L 432.405368 58.066397 
L 432.468353 57.675954 
L 456.507483 57.675954 
L 456.633452 56.504627 
L 458.173077 56.504627 
L 458.243059 56.114185 
L 481.477386 56.114185 
L 481.540371 55.723743 
L 493.2975 55.723743 
L 493.2975 55.723743 
" style="fill:none;stroke:#0000ff;stroke-linecap:square;"/>
   </g>
   <g id="line2d_2">
    <path clip-path="url(#pcadc0aeb86)" d="M 46.8975 384.8666 
L 46.967484 384.8666 
L 47.177436 381.739352 
L 47.59734 381.739352 
L 47.723311 380.95754 
L 48.444147 363.757676 
L 48.836057 359.848616 
L 49.185977 359.848616 
L 49.255961 358.284992 
L 49.535897 358.284992 
L 49.647872 356.330462 
L 49.717856 356.330462 
L 52.321261 328.185229 
L 52.531213 323.494357 
L 52.699174 319.585297 
L 52.839142 319.585297 
L 53.119078 315.676237 
L 53.399014 315.676237 
L 53.510989 314.112613 
L 53.650957 314.112613 
L 53.832915 312.548989 
L 54.042867 312.548989 
L 55.421552 299.258185 
L 55.631504 299.258185 
L 55.91144 293.003689 
L 56.121392 293.003689 
L 56.485309 287.531004 
L 56.625277 287.531004 
L 56.681264 286.749192 
L 57.031185 286.749192 
L 57.311121 282.05832 
L 57.381105 282.05832 
L 57.549066 278.931072 
L 57.822004 275.022012 
L 57.884989 274.2402 
L 58.374877 274.2402 
L 58.416868 272.676576 
L 58.556836 272.676576 
L 58.66881 267.203892 
L 58.738794 267.203892 
L 58.927751 265.249362 
L 59.165697 262.903926 
L 59.375649 262.903926 
L 59.585601 258.994866 
L 60.20146 253.131276 
L 60.271444 253.131276 
L 60.593371 250.004028 
L 60.915297 246.87678 
L 61.195233 246.87678 
L 61.25122 246.094968 
L 61.461172 245.313156 
L 61.657128 242.96772 
L 61.797096 242.96772 
L 61.853083 242.185908 
L 61.993051 242.185908 
L 62.370964 236.713224 
L 62.6509 236.713224 
L 62.790868 235.1496 
L 62.986824 234.367788 
L 63.280757 230.458728 
L 63.490709 230.458728 
L 63.560693 229.676916 
L 63.910613 229.676916 
L 63.980597 228.895104 
L 64.400501 228.895104 
L 64.456488 228.113292 
L 65.7162 228.113292 
L 65.884162 225.767856 
L 66.164098 221.858795 
L 66.304066 221.858795 
L 66.570005 217.167923 
L 67.059893 217.167923 
L 67.129877 216.386111 
L 67.269845 216.386111 
L 67.479797 214.040675 
L 67.759733 211.695239 
L 67.829717 211.695239 
L 68.011676 208.567991 
L 68.221628 208.567991 
L 68.291612 207.004367 
L 68.43158 207.004367 
L 68.571548 204.658931 
L 70.601084 204.658931 
L 70.713058 203.095307 
L 70.92301 203.095307 
L 71.216943 199.968059 
L 71.286927 199.968059 
L 71.496879 198.404435 
L 71.916783 198.404435 
L 71.97277 197.622623 
L 72.32269 197.622623 
L 72.378678 196.840811 
L 73.078518 196.840811 
L 73.134505 196.058999 
L 73.554409 196.058999 
L 73.834345 192.149939 
L 74.114281 192.149939 
L 74.170268 191.368127 
L 74.38022 191.368127 
L 74.618166 187.459067 
L 74.828118 187.459067 
L 74.870108 185.895443 
L 75.010076 185.895443 
L 75.276016 185.113631 
L 75.947862 176.122793 
L 76.157814 176.122793 
L 76.549725 170.650109 
L 77.109597 170.650109 
L 77.179581 169.868297 
L 78.019389 169.868297 
L 78.082374 168.304673 
L 78.432294 168.304673 
L 78.558266 167.131955 
L 79.048154 167.131955 
L 79.174125 166.350143 
L 79.803981 166.350143 
L 79.943949 164.786519 
L 80.923725 164.786519 
L 80.965716 163.222895 
L 81.38562 163.222895 
L 81.441607 162.441083 
L 81.651559 162.441083 
L 81.707546 161.659271 
L 81.917498 161.659271 
L 81.959489 160.095646 
L 82.169441 160.095646 
L 82.239425 159.313834 
L 83.219201 159.313834 
L 83.401159 157.75021 
L 84.100999 157.75021 
L 84.170983 156.968398 
L 85.010791 156.968398 
L 85.290727 154.622962 
L 85.500679 154.622962 
L 85.696635 153.059338 
L 85.766619 153.059338 
L 85.899588 152.277526 
L 86.10954 152.277526 
L 86.165527 151.495714 
L 86.305495 151.495714 
L 86.361483 150.713902 
L 88.600971 150.713902 
L 88.810923 149.93209 
L 89.650731 149.93209 
L 89.860683 149.150278 
L 89.91667 148.368466 
L 90.336574 148.368466 
L 90.406558 147.586654 
L 91.806239 147.586654 
L 91.876223 146.804842 
L 94.255679 146.804842 
L 94.311666 146.02303 
L 94.451634 146.02303 
L 94.815551 142.895782 
L 95.585375 142.895782 
L 95.711346 142.11397 
L 96.901074 142.11397 
L 96.971058 141.723064 
L 97.670899 141.723064 
L 97.978828 138.595816 
L 98.5387 138.595816 
L 99.308524 135.468568 
L 99.518476 135.468568 
L 99.58846 133.904944 
L 99.93838 133.904944 
L 99.994368 133.123132 
L 100.974144 133.123132 
L 101.044128 132.732226 
L 101.25408 132.732226 
L 101.324064 131.950414 
L 101.604 131.950414 
L 101.883936 131.559508 
L 102.163872 131.559508 
L 102.43681 129.995884 
L 104.606314 129.995884 
L 104.676298 129.214072 
L 106.005994 129.214072 
L 106.145962 128.823166 
L 106.28593 128.823166 
L 106.355914 127.259542 
L 107.545642 127.259542 
L 107.601629 126.47773 
L 110.121054 126.47773 
L 110.358999 121.005046 
L 112.388536 121.005046 
L 112.45852 120.223234 
L 113.228344 120.223234 
L 113.298328 119.441422 
L 114.837976 119.441422 
L 117.427384 119.050516 
L 117.62334 118.268704 
L 119.093004 118.268704 
L 119.148991 115.923268 
L 125.727488 115.923268 
L 125.797472 115.532362 
L 126.217376 115.532362 
L 126.357344 114.75055 
L 133.845633 114.75055 
L 134.041588 113.968738 
L 135.721204 113.968738 
L 135.791188 113.577832 
L 138.520565 113.577832 
L 138.590549 112.79602 
L 140.130197 112.79602 
L 140.186184 112.014208 
L 144.595177 112.014208 
L 144.658162 111.623302 
L 145.567954 111.623302 
L 146.967635 110.84149 
L 150.921731 110.84149 
L 150.991715 109.277866 
L 151.481603 109.277866 
L 151.691555 108.88696 
L 151.761539 108.496054 
L 155.540676 108.496054 
L 155.582666 107.714242 
L 158.032106 107.714242 
L 158.144081 106.150618 
L 158.284049 106.150618 
L 158.326039 104.586994 
L 161.545304 104.586994 
L 161.685272 104.196088 
L 163.014968 104.196088 
L 163.22492 101.06884 
L 166.794104 101.06884 
L 167.004056 100.287028 
L 170.783193 100.287028 
L 170.83918 99.505216 
L 171.88894 99.505216 
L 171.958924 97.941592 
L 184.556046 97.941592 
L 184.612033 97.15978 
L 188.146225 97.15978 
L 188.202213 96.377967 
L 193.031109 96.377967 
L 193.11509 93.250719 
L 195.074642 93.250719 
L 195.116633 91.687095 
L 198.195929 91.687095 
L 198.251916 90.905283 
L 201.401197 90.905283 
L 201.457184 90.123471 
L 203.83664 90.123471 
L 203.892627 89.341659 
L 206.622004 89.341659 
L 209.022455 88.950753 
L 209.512343 88.950753 
L 209.554334 87.387129 
L 210.324158 87.387129 
L 210.954014 86.996223 
L 211.513886 86.996223 
L 211.576872 86.605317 
L 215.495976 86.605317 
L 215.537967 85.041693 
L 224.076016 82.305351 
L 224.132003 81.523539 
L 233.978753 81.523539 
L 234.041739 81.132633 
L 234.251691 81.132633 
L 234.314676 80.741727 
L 240.333301 80.741727 
L 240.963157 79.959915 
L 243.202645 79.959915 
L 243.265631 79.569009 
L 244.875263 79.569009 
L 244.945247 79.178103 
L 245.575103 79.178103 
L 245.63109 78.396291 
L 248.500435 78.396291 
L 249.130291 78.005385 
L 250.529971 78.005385 
L 250.571961 76.441761 
L 253.091386 76.441761 
L 253.133376 74.878137 
L 253.483296 74.878137 
L 253.539283 74.096325 
L 258.858068 74.096325 
L 258.900059 72.532701 
L 261.279515 72.532701 
L 266.5983 72.141795 
L 266.94822 72.141795 
L 268.487868 70.578171 
L 270.587388 70.578171 
L 270.783343 69.796359 
L 272.602928 69.796359 
L 272.658915 69.014547 
L 273.708675 69.014547 
L 273.834646 68.232735 
L 279.013463 68.232735 
L 279.076448 67.841829 
L 281.455905 67.841829 
L 281.525889 67.450923 
L 285.095073 67.450923 
L 285.137064 65.887299 
L 297.874153 65.887299 
L 297.944137 65.496393 
L 298.364041 65.496393 
L 300.043657 65.105487 
L 303.682826 65.105487 
L 303.738813 64.323675 
L 319.401234 64.323675 
L 320.03109 63.541863 
L 329.6189 63.541863 
L 329.814855 62.760051 
L 334.223847 62.760051 
L 334.853704 61.196427 
L 350.810058 61.196427 
L 350.866045 60.414615 
L 352.741616 60.414615 
L 352.993559 58.850991 
L 355.380013 58.850991 
L 355.436001 58.069179 
L 365.408722 58.069179 
L 368.068114 55.723743 
L 493.2975 55.723743 
L 493.2975 55.723743 
" style="fill:none;stroke:#008000;stroke-linecap:square;"/>
   </g>
   <g id="line2d_3">
    <path clip-path="url(#pcadc0aeb86)" d="M 46.8975 384.8666 
L 46.967484 384.8666 
L 47.037468 384.8666 
L 47.233423 380.175728 
L 47.373391 380.175728 
L 47.646329 375.484856 
L 47.716313 375.484856 
L 47.842284 374.703044 
L 47.912268 373.13942 
L 48.052236 372.748514 
L 48.262188 372.748514 
L 48.458143 369.621266 
L 48.738079 368.057642 
L 48.878047 366.494018 
L 49.004019 361.803146 
L 49.283955 361.803146 
L 50.361708 350.857777 
L 53.797923 314.112613 
L 54.077859 314.112613 
L 54.81969 305.903587 
L 56.56929 291.440065 
L 56.695261 289.094629 
L 57.115165 289.094629 
L 57.465085 287.92191 
L 57.507076 286.358286 
L 57.647044 286.358286 
L 57.829002 285.185568 
L 58.038954 285.185568 
L 58.164925 283.621944 
L 58.304893 283.621944 
L 58.724798 278.931072 
L 58.780785 278.540166 
L 59.130705 278.540166 
L 59.172695 276.976542 
L 59.312663 276.976542 
L 59.354654 275.412918 
L 59.494622 275.412918 
L 59.564606 274.2402 
L 59.98451 274.2402 
L 60.054494 273.458388 
L 60.194462 273.458388 
L 60.264446 272.676576 
L 60.474398 272.676576 
L 60.712343 270.33114 
L 60.782327 270.33114 
L 60.922295 266.42208 
L 61.42618 260.949396 
L 61.566148 260.949396 
L 61.69212 260.167584 
L 61.804094 257.040336 
L 61.944062 257.040336 
L 62.182008 250.394934 
L 62.265988 247.267686 
L 62.405956 247.267686 
L 62.447947 245.704062 
L 62.657899 245.704062 
L 62.811864 242.576814 
L 63.021816 242.576814 
L 63.0918 241.795002 
L 63.301752 241.795002 
L 63.371736 240.231378 
L 63.511704 240.231378 
L 63.574689 239.449566 
L 64.414497 239.449566 
L 64.484481 238.667754 
L 64.834402 238.667754 
L 64.946376 237.10413 
L 65.086344 237.10413 
L 65.128334 235.540506 
L 65.268302 235.540506 
L 65.338286 234.758694 
L 65.401272 232.804164 
L 65.54124 232.804164 
L 65.653214 231.24054 
L 66.003134 231.24054 
L 66.073118 230.458728 
L 66.423039 230.458728 
L 66.604997 228.895104 
L 66.744965 228.895104 
L 67.122879 224.595137 
L 67.332831 224.595137 
L 67.402815 223.813325 
L 67.542783 223.813325 
L 67.682751 222.640607 
L 68.102655 222.640607 
L 68.242623 221.076983 
L 68.382591 221.076983 
L 68.480568 219.122453 
L 68.620536 219.122453 
L 68.69052 217.558829 
L 68.830488 217.558829 
L 68.886476 216.777017 
L 69.096428 216.777017 
L 69.166412 215.213393 
L 69.30638 215.213393 
L 69.362367 214.431581 
L 69.642303 214.431581 
L 69.768274 213.649769 
L 69.978226 213.649769 
L 70.762047 205.831649 
L 70.832031 205.831649 
L 70.944006 204.268025 
L 71.153958 204.268025 
L 71.209945 203.486213 
L 71.559865 203.486213 
L 71.825804 199.577153 
L 73.085516 199.577153 
L 73.197491 197.231717 
L 73.967315 197.231717 
L 74.107283 194.886281 
L 74.247251 194.886281 
L 74.303238 193.322657 
L 74.793126 193.322657 
L 74.9051 192.149939 
L 75.394988 192.149939 
L 75.56295 189.804503 
L 76.402758 189.804503 
L 76.61271 186.677255 
L 76.808665 185.504537 
L 76.850656 183.940913 
L 77.550496 183.940913 
L 77.62048 182.377289 
L 77.760448 182.377289 
L 77.886419 181.595477 
L 78.166355 181.595477 
L 78.222342 181.204571 
L 78.36231 181.204571 
L 78.418298 180.422759 
L 79.398074 180.422759 
L 79.454061 179.640947 
L 79.594029 179.640947 
L 79.761991 177.295511 
L 79.901959 177.295511 
L 79.957946 176.904605 
L 80.139904 173.777357 
L 80.209888 173.777357 
L 80.405844 170.650109 
L 80.755764 170.650109 
L 80.923725 168.304673 
L 81.063693 168.304673 
L 81.203661 167.522861 
L 81.763533 167.522861 
L 81.833517 166.741049 
L 82.463373 166.741049 
L 82.575348 165.959237 
L 84.18498 165.959237 
L 84.254964 165.568331 
L 84.394932 165.568331 
L 84.562894 163.222895 
L 84.84283 163.222895 
L 84.905815 162.831989 
L 85.045783 162.831989 
L 85.255735 161.659271 
L 86.305495 161.659271 
L 86.361483 160.877459 
L 87.551211 160.877459 
L 87.607198 160.095646 
L 88.86691 160.095646 
L 89.006878 158.532022 
L 89.146846 158.532022 
L 89.384792 156.186586 
L 90.084632 156.186586 
L 90.280587 155.013868 
L 92.380107 155.013868 
L 92.436095 154.232056 
L 94.255679 154.232056 
L 94.38165 153.450244 
L 95.501394 153.450244 
L 95.557381 152.668432 
L 96.327206 152.668432 
L 96.467174 151.88662 
L 97.236998 151.88662 
L 97.264991 151.495714 
L 97.404959 151.495714 
L 97.614911 149.150278 
L 98.314751 149.150278 
L 98.454719 148.368466 
L 99.15456 148.368466 
L 99.224544 147.586654 
L 99.714432 147.586654 
L 99.8544 146.02303 
L 100.064352 146.02303 
L 100.20432 145.632124 
L 100.484256 145.632124 
L 100.680211 143.286688 
L 102.989683 143.286688 
L 103.171642 140.941252 
L 103.31161 140.941252 
L 103.39559 137.814004 
L 103.885479 137.814004 
L 104.025447 136.25038 
L 105.145191 136.25038 
L 105.285159 133.123132 
L 105.915015 133.123132 
L 106.054983 132.34132 
L 106.096973 130.777696 
L 106.656845 130.777696 
L 106.726829 129.995884 
L 106.866797 129.995884 
L 106.936781 129.604978 
L 107.216717 129.604978 
L 107.426669 128.823166 
L 107.706605 128.823166 
L 107.902561 126.868636 
L 108.252481 126.868636 
L 108.308468 126.086824 
L 109.21826 126.086824 
L 109.358228 125.305012 
L 109.56818 125.305012 
L 109.638164 123.741388 
L 110.407988 123.741388 
L 110.687924 121.395952 
L 111.457748 121.395952 
L 111.611713 118.268704 
L 113.361313 118.268704 
L 113.431297 117.877798 
L 113.571265 117.877798 
L 113.641249 116.314174 
L 113.921185 116.314174 
L 113.991169 115.532362 
L 114.34109 115.532362 
L 114.411074 115.141456 
L 115.880738 115.141456 
L 115.978715 112.79602 
L 117.168443 112.79602 
L 117.294415 112.014208 
L 117.574351 112.014208 
L 117.644335 111.232396 
L 118.344175 111.232396 
L 118.414159 110.450584 
L 120.513679 110.450584 
L 120.63965 109.668772 
L 124.068867 109.668772 
L 124.138851 108.88696 
L 125.678499 108.88696 
L 125.748483 108.496054 
L 126.518307 108.496054 
L 126.588291 107.714242 
L 127.917987 107.714242 
L 127.987971 106.93243 
L 129.667587 106.93243 
L 129.723575 106.150618 
L 129.863543 106.150618 
L 129.933527 105.368806 
L 135.672215 105.368806 
L 135.798187 104.586994 
L 137.477803 104.586994 
L 137.547787 103.805182 
L 138.667531 103.805182 
L 138.807499 103.414276 
L 139.157419 103.414276 
L 139.227403 102.632464 
L 139.577323 102.632464 
L 139.63331 101.850652 
L 140.33315 101.850652 
L 140.389138 100.287028 
L 143.118514 100.287028 
L 143.174501 99.505216 
L 144.714149 99.505216 
L 144.924101 97.550686 
L 146.11383 97.550686 
L 146.183814 97.15978 
L 151.01271 97.15978 
L 151.068697 96.377967 
L 151.418617 96.377967 
L 151.530592 94.814343 
L 154.12 94.814343 
L 154.189984 94.423437 
L 156.989345 94.423437 
L 157.045332 93.641625 
L 159.004884 93.641625 
L 159.046874 92.078001 
L 163.105947 92.078001 
L 163.245915 91.296189 
L 164.225691 91.296189 
L 164.505627 87.387129 
L 173.183644 87.387129 
L 173.239632 86.605317 
L 174.639312 86.605317 
L 174.82127 85.041693 
L 176.080982 85.041693 
L 176.136969 84.259881 
L 177.326698 84.259881 
L 177.438672 82.696257 
L 177.718608 82.696257 
L 177.858576 81.914445 
L 178.27848 81.914445 
L 178.334467 81.132633 
L 178.894339 81.132633 
L 178.950327 80.350821 
L 184.444071 80.350821 
L 184.584039 79.959915 
L 186.753544 79.959915 
L 186.879515 78.396291 
L 187.089467 78.396291 
L 187.145454 77.614479 
L 190.154766 77.614479 
L 190.210754 76.832667 
L 194.129858 76.832667 
L 194.171849 75.269043 
L 195.221609 75.269043 
L 195.361577 74.878137 
L 202.884858 74.878137 
L 202.947843 74.487231 
L 208.266628 74.487231 
L 208.322615 73.705419 
L 213.571416 73.705419 
L 213.627403 72.923607 
L 218.666252 72.923607 
L 218.792223 72.141795 
L 228.799936 72.141795 
L 228.925907 71.359983 
L 242.117893 71.359983 
L 242.257861 70.578171 
L 250.236038 70.578171 
L 251.775686 70.187265 
L 258.214215 70.187265 
L 264.27483 67.060017 
L 267.144175 67.060017 
L 267.200162 66.669111 
L 273.358755 66.669111 
L 274.128579 66.278205 
L 275.458275 66.278205 
L 275.584246 65.496393 
L 278.593559 65.496393 
L 281.672855 64.714581 
L 283.212503 64.714581 
L 284.752151 63.150957 
L 288.601272 63.150957 
L 289.231128 62.760051 
L 290.910744 62.760051 
L 291.022719 61.196427 
L 293.822079 61.196427 
L 293.878066 60.414615 
L 310.53426 60.414615 
L 310.674228 59.632803 
L 319.142294 59.632803 
L 321.101846 58.460085 
L 323.201366 58.460085 
L 323.257353 57.678273 
L 336.904235 57.678273 
L 336.960222 56.896461 
L 350.957024 56.896461 
L 351.013011 56.114649 
L 353.532436 56.114649 
L 354.582196 55.723743 
L 493.2975 55.723743 
L 493.2975 55.723743 
" style="fill:none;stroke:#ff0000;stroke-linecap:square;"/>
   </g>
   <g id="line2d_4">
    <path clip-path="url(#pcadc0aeb86)" d="M 46.8975 384.8666 
L 493.2975 55.723743 
" style="fill:none;stroke:#000000;stroke-dasharray:6.000000,6.000000;stroke-dashoffset:0.0;"/>
   </g>
   <g id="patch_3">
    <path d="M 46.8975 384.8666 
L 493.2975 384.8666 
" style="fill:none;stroke:#000000;stroke-linecap:square;stroke-linejoin:miter;"/>
   </g>
   <g id="patch_4">
    <path d="M 46.8975 384.8666 
L 46.8975 39.2666 
" style="fill:none;stroke:#000000;stroke-linecap:square;stroke-linejoin:miter;"/>
   </g>
   <g id="patch_5">
    <path d="M 46.8975 39.2666 
L 493.2975 39.2666 
" style="fill:none;stroke:#000000;stroke-linecap:square;stroke-linejoin:miter;"/>
   </g>
   <g id="patch_6">
    <path d="M 493.2975 384.8666 
L 493.2975 39.2666 
" style="fill:none;stroke:#000000;stroke-linecap:square;stroke-linejoin:miter;"/>
   </g>
   <g id="matplotlib.axis_1">
    <g id="xtick_1">
     <g id="line2d_5">
      <defs>
       <path d="M 0 0 
L 0 -4 
" id="m0583e1b1ad" style="stroke:#000000;stroke-width:0.5;"/>
      </defs>
      <g>
       <use style="stroke:#000000;stroke-width:0.5;" x="46.8975" xlink:href="#m0583e1b1ad" y="384.8666"/>
      </g>
     </g>
     <g id="line2d_6">
      <defs>
       <path d="M 0 0 
L 0 4 
" id="m5db9e1ff2b" style="stroke:#000000;stroke-width:0.5;"/>
      </defs>
      <g>
       <use style="stroke:#000000;stroke-width:0.5;" x="46.8975" xlink:href="#m5db9e1ff2b" y="39.2666"/>
      </g>
     </g>
     <g id="text_1">
      <!-- 0.0 -->
      <defs>
       <path d="M 31.78125 66.40625 
Q 24.171875 66.40625 20.328125 58.90625 
Q 16.5 51.421875 16.5 36.375 
Q 16.5 21.390625 20.328125 13.890625 
Q 24.171875 6.390625 31.78125 6.390625 
Q 39.453125 6.390625 43.28125 13.890625 
Q 47.125 21.390625 47.125 36.375 
Q 47.125 51.421875 43.28125 58.90625 
Q 39.453125 66.40625 31.78125 66.40625 
M 31.78125 74.21875 
Q 44.046875 74.21875 50.515625 64.515625 
Q 56.984375 54.828125 56.984375 36.375 
Q 56.984375 17.96875 50.515625 8.265625 
Q 44.046875 -1.421875 31.78125 -1.421875 
Q 19.53125 -1.421875 13.0625 8.265625 
Q 6.59375 17.96875 6.59375 36.375 
Q 6.59375 54.828125 13.0625 64.515625 
Q 19.53125 74.21875 31.78125 74.21875 
" id="BitstreamVeraSans-Roman-30"/>
       <path d="M 10.6875 12.40625 
L 21 12.40625 
L 21 0 
L 10.6875 0 
z
" id="BitstreamVeraSans-Roman-2e"/>
      </defs>
      <g transform="translate(37.355625 397.984725)scale(0.12 -0.12)">
       <use xlink:href="#BitstreamVeraSans-Roman-30"/>
       <use x="63.623046875" xlink:href="#BitstreamVeraSans-Roman-2e"/>
       <use x="95.41015625" xlink:href="#BitstreamVeraSans-Roman-30"/>
      </g>
     </g>
    </g>
    <g id="xtick_2">
     <g id="line2d_7">
      <g>
       <use style="stroke:#000000;stroke-width:0.5;" x="136.1775" xlink:href="#m0583e1b1ad" y="384.8666"/>
      </g>
     </g>
     <g id="line2d_8">
      <g>
       <use style="stroke:#000000;stroke-width:0.5;" x="136.1775" xlink:href="#m5db9e1ff2b" y="39.2666"/>
      </g>
     </g>
     <g id="text_2">
      <!-- 0.2 -->
      <defs>
       <path d="M 19.1875 8.296875 
L 53.609375 8.296875 
L 53.609375 0 
L 7.328125 0 
L 7.328125 8.296875 
Q 12.9375 14.109375 22.625 23.890625 
Q 32.328125 33.6875 34.8125 36.53125 
Q 39.546875 41.84375 41.421875 45.53125 
Q 43.3125 49.21875 43.3125 52.78125 
Q 43.3125 58.59375 39.234375 62.25 
Q 35.15625 65.921875 28.609375 65.921875 
Q 23.96875 65.921875 18.8125 64.3125 
Q 13.671875 62.703125 7.8125 59.421875 
L 7.8125 69.390625 
Q 13.765625 71.78125 18.9375 73 
Q 24.125 74.21875 28.421875 74.21875 
Q 39.75 74.21875 46.484375 68.546875 
Q 53.21875 62.890625 53.21875 53.421875 
Q 53.21875 48.921875 51.53125 44.890625 
Q 49.859375 40.875 45.40625 35.40625 
Q 44.1875 33.984375 37.640625 27.21875 
Q 31.109375 20.453125 19.1875 8.296875 
" id="BitstreamVeraSans-Roman-32"/>
      </defs>
      <g transform="translate(126.635625 397.984725)scale(0.12 -0.12)">
       <use xlink:href="#BitstreamVeraSans-Roman-30"/>
       <use x="63.623046875" xlink:href="#BitstreamVeraSans-Roman-2e"/>
       <use x="95.41015625" xlink:href="#BitstreamVeraSans-Roman-32"/>
      </g>
     </g>
    </g>
    <g id="xtick_3">
     <g id="line2d_9">
      <g>
       <use style="stroke:#000000;stroke-width:0.5;" x="225.4575" xlink:href="#m0583e1b1ad" y="384.8666"/>
      </g>
     </g>
     <g id="line2d_10">
      <g>
       <use style="stroke:#000000;stroke-width:0.5;" x="225.4575" xlink:href="#m5db9e1ff2b" y="39.2666"/>
      </g>
     </g>
     <g id="text_3">
      <!-- 0.4 -->
      <defs>
       <path d="M 37.796875 64.3125 
L 12.890625 25.390625 
L 37.796875 25.390625 
z
M 35.203125 72.90625 
L 47.609375 72.90625 
L 47.609375 25.390625 
L 58.015625 25.390625 
L 58.015625 17.1875 
L 47.609375 17.1875 
L 47.609375 0 
L 37.796875 0 
L 37.796875 17.1875 
L 4.890625 17.1875 
L 4.890625 26.703125 
z
" id="BitstreamVeraSans-Roman-34"/>
      </defs>
      <g transform="translate(215.915625 397.984725)scale(0.12 -0.12)">
       <use xlink:href="#BitstreamVeraSans-Roman-30"/>
       <use x="63.623046875" xlink:href="#BitstreamVeraSans-Roman-2e"/>
       <use x="95.41015625" xlink:href="#BitstreamVeraSans-Roman-34"/>
      </g>
     </g>
    </g>
    <g id="xtick_4">
     <g id="line2d_11">
      <g>
       <use style="stroke:#000000;stroke-width:0.5;" x="314.7375" xlink:href="#m0583e1b1ad" y="384.8666"/>
      </g>
     </g>
     <g id="line2d_12">
      <g>
       <use style="stroke:#000000;stroke-width:0.5;" x="314.7375" xlink:href="#m5db9e1ff2b" y="39.2666"/>
      </g>
     </g>
     <g id="text_4">
      <!-- 0.6 -->
      <defs>
       <path d="M 33.015625 40.375 
Q 26.375 40.375 22.484375 35.828125 
Q 18.609375 31.296875 18.609375 23.390625 
Q 18.609375 15.53125 22.484375 10.953125 
Q 26.375 6.390625 33.015625 6.390625 
Q 39.65625 6.390625 43.53125 10.953125 
Q 47.40625 15.53125 47.40625 23.390625 
Q 47.40625 31.296875 43.53125 35.828125 
Q 39.65625 40.375 33.015625 40.375 
M 52.59375 71.296875 
L 52.59375 62.3125 
Q 48.875 64.0625 45.09375 64.984375 
Q 41.3125 65.921875 37.59375 65.921875 
Q 27.828125 65.921875 22.671875 59.328125 
Q 17.53125 52.734375 16.796875 39.40625 
Q 19.671875 43.65625 24.015625 45.921875 
Q 28.375 48.1875 33.59375 48.1875 
Q 44.578125 48.1875 50.953125 41.515625 
Q 57.328125 34.859375 57.328125 23.390625 
Q 57.328125 12.15625 50.6875 5.359375 
Q 44.046875 -1.421875 33.015625 -1.421875 
Q 20.359375 -1.421875 13.671875 8.265625 
Q 6.984375 17.96875 6.984375 36.375 
Q 6.984375 53.65625 15.1875 63.9375 
Q 23.390625 74.21875 37.203125 74.21875 
Q 40.921875 74.21875 44.703125 73.484375 
Q 48.484375 72.75 52.59375 71.296875 
" id="BitstreamVeraSans-Roman-36"/>
      </defs>
      <g transform="translate(305.195625 397.984725)scale(0.12 -0.12)">
       <use xlink:href="#BitstreamVeraSans-Roman-30"/>
       <use x="63.623046875" xlink:href="#BitstreamVeraSans-Roman-2e"/>
       <use x="95.41015625" xlink:href="#BitstreamVeraSans-Roman-36"/>
      </g>
     </g>
    </g>
    <g id="xtick_5">
     <g id="line2d_13">
      <g>
       <use style="stroke:#000000;stroke-width:0.5;" x="404.0175" xlink:href="#m0583e1b1ad" y="384.8666"/>
      </g>
     </g>
     <g id="line2d_14">
      <g>
       <use style="stroke:#000000;stroke-width:0.5;" x="404.0175" xlink:href="#m5db9e1ff2b" y="39.2666"/>
      </g>
     </g>
     <g id="text_5">
      <!-- 0.8 -->
      <defs>
       <path d="M 31.78125 34.625 
Q 24.75 34.625 20.71875 30.859375 
Q 16.703125 27.09375 16.703125 20.515625 
Q 16.703125 13.921875 20.71875 10.15625 
Q 24.75 6.390625 31.78125 6.390625 
Q 38.8125 6.390625 42.859375 10.171875 
Q 46.921875 13.96875 46.921875 20.515625 
Q 46.921875 27.09375 42.890625 30.859375 
Q 38.875 34.625 31.78125 34.625 
M 21.921875 38.8125 
Q 15.578125 40.375 12.03125 44.71875 
Q 8.5 49.078125 8.5 55.328125 
Q 8.5 64.0625 14.71875 69.140625 
Q 20.953125 74.21875 31.78125 74.21875 
Q 42.671875 74.21875 48.875 69.140625 
Q 55.078125 64.0625 55.078125 55.328125 
Q 55.078125 49.078125 51.53125 44.71875 
Q 48 40.375 41.703125 38.8125 
Q 48.828125 37.15625 52.796875 32.3125 
Q 56.78125 27.484375 56.78125 20.515625 
Q 56.78125 9.90625 50.3125 4.234375 
Q 43.84375 -1.421875 31.78125 -1.421875 
Q 19.734375 -1.421875 13.25 4.234375 
Q 6.78125 9.90625 6.78125 20.515625 
Q 6.78125 27.484375 10.78125 32.3125 
Q 14.796875 37.15625 21.921875 38.8125 
M 18.3125 54.390625 
Q 18.3125 48.734375 21.84375 45.5625 
Q 25.390625 42.390625 31.78125 42.390625 
Q 38.140625 42.390625 41.71875 45.5625 
Q 45.3125 48.734375 45.3125 54.390625 
Q 45.3125 60.0625 41.71875 63.234375 
Q 38.140625 66.40625 31.78125 66.40625 
Q 25.390625 66.40625 21.84375 63.234375 
Q 18.3125 60.0625 18.3125 54.390625 
" id="BitstreamVeraSans-Roman-38"/>
      </defs>
      <g transform="translate(394.475625 397.984725)scale(0.12 -0.12)">
       <use xlink:href="#BitstreamVeraSans-Roman-30"/>
       <use x="63.623046875" xlink:href="#BitstreamVeraSans-Roman-2e"/>
       <use x="95.41015625" xlink:href="#BitstreamVeraSans-Roman-38"/>
      </g>
     </g>
    </g>
    <g id="xtick_6">
     <g id="line2d_15">
      <g>
       <use style="stroke:#000000;stroke-width:0.5;" x="493.2975" xlink:href="#m0583e1b1ad" y="384.8666"/>
      </g>
     </g>
     <g id="line2d_16">
      <g>
       <use style="stroke:#000000;stroke-width:0.5;" x="493.2975" xlink:href="#m5db9e1ff2b" y="39.2666"/>
      </g>
     </g>
     <g id="text_6">
      <!-- 1.0 -->
      <defs>
       <path d="M 12.40625 8.296875 
L 28.515625 8.296875 
L 28.515625 63.921875 
L 10.984375 60.40625 
L 10.984375 69.390625 
L 28.421875 72.90625 
L 38.28125 72.90625 
L 38.28125 8.296875 
L 54.390625 8.296875 
L 54.390625 0 
L 12.40625 0 
z
" id="BitstreamVeraSans-Roman-31"/>
      </defs>
      <g transform="translate(483.755625 397.984725)scale(0.12 -0.12)">
       <use xlink:href="#BitstreamVeraSans-Roman-31"/>
       <use x="63.623046875" xlink:href="#BitstreamVeraSans-Roman-2e"/>
       <use x="95.41015625" xlink:href="#BitstreamVeraSans-Roman-30"/>
      </g>
     </g>
    </g>
    <g id="text_7">
     <!-- False Positive Rate -->
     <defs>
      <path d="M 44.28125 53.078125 
L 44.28125 44.578125 
Q 40.484375 46.53125 36.375 47.5 
Q 32.28125 48.484375 27.875 48.484375 
Q 21.1875 48.484375 17.84375 46.4375 
Q 14.5 44.390625 14.5 40.28125 
Q 14.5 37.15625 16.890625 35.375 
Q 19.28125 33.59375 26.515625 31.984375 
L 29.59375 31.296875 
Q 39.15625 29.25 43.1875 25.515625 
Q 47.21875 21.78125 47.21875 15.09375 
Q 47.21875 7.46875 41.1875 3.015625 
Q 35.15625 -1.421875 24.609375 -1.421875 
Q 20.21875 -1.421875 15.453125 -0.5625 
Q 10.6875 0.296875 5.421875 2 
L 5.421875 11.28125 
Q 10.40625 8.6875 15.234375 7.390625 
Q 20.0625 6.109375 24.8125 6.109375 
Q 31.15625 6.109375 34.5625 8.28125 
Q 37.984375 10.453125 37.984375 14.40625 
Q 37.984375 18.0625 35.515625 20.015625 
Q 33.0625 21.96875 24.703125 23.78125 
L 21.578125 24.515625 
Q 13.234375 26.265625 9.515625 29.90625 
Q 5.8125 33.546875 5.8125 39.890625 
Q 5.8125 47.609375 11.28125 51.796875 
Q 16.75 56 26.8125 56 
Q 31.78125 56 36.171875 55.265625 
Q 40.578125 54.546875 44.28125 53.078125 
" id="BitstreamVeraSans-Roman-73"/>
      <path d="M 34.28125 27.484375 
Q 23.390625 27.484375 19.1875 25 
Q 14.984375 22.515625 14.984375 16.5 
Q 14.984375 11.71875 18.140625 8.90625 
Q 21.296875 6.109375 26.703125 6.109375 
Q 34.1875 6.109375 38.703125 11.40625 
Q 43.21875 16.703125 43.21875 25.484375 
L 43.21875 27.484375 
z
M 52.203125 31.203125 
L 52.203125 0 
L 43.21875 0 
L 43.21875 8.296875 
Q 40.140625 3.328125 35.546875 0.953125 
Q 30.953125 -1.421875 24.3125 -1.421875 
Q 15.921875 -1.421875 10.953125 3.296875 
Q 6 8.015625 6 15.921875 
Q 6 25.140625 12.171875 29.828125 
Q 18.359375 34.515625 30.609375 34.515625 
L 43.21875 34.515625 
L 43.21875 35.40625 
Q 43.21875 41.609375 39.140625 45 
Q 35.0625 48.390625 27.6875 48.390625 
Q 23 48.390625 18.546875 47.265625 
Q 14.109375 46.140625 10.015625 43.890625 
L 10.015625 52.203125 
Q 14.9375 54.109375 19.578125 55.046875 
Q 24.21875 56 28.609375 56 
Q 40.484375 56 46.34375 49.84375 
Q 52.203125 43.703125 52.203125 31.203125 
" id="BitstreamVeraSans-Roman-61"/>
      <path d="M 9.8125 72.90625 
L 51.703125 72.90625 
L 51.703125 64.59375 
L 19.671875 64.59375 
L 19.671875 43.109375 
L 48.578125 43.109375 
L 48.578125 34.8125 
L 19.671875 34.8125 
L 19.671875 0 
L 9.8125 0 
z
" id="BitstreamVeraSans-Roman-46"/>
      <path d="M 44.390625 34.1875 
Q 47.5625 33.109375 50.5625 29.59375 
Q 53.5625 26.078125 56.59375 19.921875 
L 66.609375 0 
L 56 0 
L 46.6875 18.703125 
Q 43.0625 26.03125 39.671875 28.421875 
Q 36.28125 30.8125 30.421875 30.8125 
L 19.671875 30.8125 
L 19.671875 0 
L 9.8125 0 
L 9.8125 72.90625 
L 32.078125 72.90625 
Q 44.578125 72.90625 50.734375 67.671875 
Q 56.890625 62.453125 56.890625 51.90625 
Q 56.890625 45.015625 53.6875 40.46875 
Q 50.484375 35.9375 44.390625 34.1875 
M 19.671875 64.796875 
L 19.671875 38.921875 
L 32.078125 38.921875 
Q 39.203125 38.921875 42.84375 42.21875 
Q 46.484375 45.515625 46.484375 51.90625 
Q 46.484375 58.296875 42.84375 61.546875 
Q 39.203125 64.796875 32.078125 64.796875 
z
" id="BitstreamVeraSans-Roman-52"/>
      <path d="M 56.203125 29.59375 
L 56.203125 25.203125 
L 14.890625 25.203125 
Q 15.484375 15.921875 20.484375 11.0625 
Q 25.484375 6.203125 34.421875 6.203125 
Q 39.59375 6.203125 44.453125 7.46875 
Q 49.3125 8.734375 54.109375 11.28125 
L 54.109375 2.78125 
Q 49.265625 0.734375 44.1875 -0.34375 
Q 39.109375 -1.421875 33.890625 -1.421875 
Q 20.796875 -1.421875 13.15625 6.1875 
Q 5.515625 13.8125 5.515625 26.8125 
Q 5.515625 40.234375 12.765625 48.109375 
Q 20.015625 56 32.328125 56 
Q 43.359375 56 49.78125 48.890625 
Q 56.203125 41.796875 56.203125 29.59375 
M 47.21875 32.234375 
Q 47.125 39.59375 43.09375 43.984375 
Q 39.0625 48.390625 32.421875 48.390625 
Q 24.90625 48.390625 20.390625 44.140625 
Q 15.875 39.890625 15.1875 32.171875 
z
" id="BitstreamVeraSans-Roman-65"/>
      <path d="M 18.3125 70.21875 
L 18.3125 54.6875 
L 36.8125 54.6875 
L 36.8125 47.703125 
L 18.3125 47.703125 
L 18.3125 18.015625 
Q 18.3125 11.328125 20.140625 9.421875 
Q 21.96875 7.515625 27.59375 7.515625 
L 36.8125 7.515625 
L 36.8125 0 
L 27.59375 0 
Q 17.1875 0 13.234375 3.875 
Q 9.28125 7.765625 9.28125 18.015625 
L 9.28125 47.703125 
L 2.6875 47.703125 
L 2.6875 54.6875 
L 9.28125 54.6875 
L 9.28125 70.21875 
z
" id="BitstreamVeraSans-Roman-74"/>
      <path d="M 9.421875 54.6875 
L 18.40625 54.6875 
L 18.40625 0 
L 9.421875 0 
z
M 9.421875 75.984375 
L 18.40625 75.984375 
L 18.40625 64.59375 
L 9.421875 64.59375 
z
" id="BitstreamVeraSans-Roman-69"/>
      <path d="M 30.609375 48.390625 
Q 23.390625 48.390625 19.1875 42.75 
Q 14.984375 37.109375 14.984375 27.296875 
Q 14.984375 17.484375 19.15625 11.84375 
Q 23.34375 6.203125 30.609375 6.203125 
Q 37.796875 6.203125 41.984375 11.859375 
Q 46.1875 17.53125 46.1875 27.296875 
Q 46.1875 37.015625 41.984375 42.703125 
Q 37.796875 48.390625 30.609375 48.390625 
M 30.609375 56 
Q 42.328125 56 49.015625 48.375 
Q 55.71875 40.765625 55.71875 27.296875 
Q 55.71875 13.875 49.015625 6.21875 
Q 42.328125 -1.421875 30.609375 -1.421875 
Q 18.84375 -1.421875 12.171875 6.21875 
Q 5.515625 13.875 5.515625 27.296875 
Q 5.515625 40.765625 12.171875 48.375 
Q 18.84375 56 30.609375 56 
" id="BitstreamVeraSans-Roman-6f"/>
      <path d="M 9.421875 75.984375 
L 18.40625 75.984375 
L 18.40625 0 
L 9.421875 0 
z
" id="BitstreamVeraSans-Roman-6c"/>
      <path id="BitstreamVeraSans-Roman-20"/>
      <path d="M 2.984375 54.6875 
L 12.5 54.6875 
L 29.59375 8.796875 
L 46.6875 54.6875 
L 56.203125 54.6875 
L 35.6875 0 
L 23.484375 0 
z
" id="BitstreamVeraSans-Roman-76"/>
      <path d="M 19.671875 64.796875 
L 19.671875 37.40625 
L 32.078125 37.40625 
Q 38.96875 37.40625 42.71875 40.96875 
Q 46.484375 44.53125 46.484375 51.125 
Q 46.484375 57.671875 42.71875 61.234375 
Q 38.96875 64.796875 32.078125 64.796875 
z
M 9.8125 72.90625 
L 32.078125 72.90625 
Q 44.34375 72.90625 50.609375 67.359375 
Q 56.890625 61.8125 56.890625 51.125 
Q 56.890625 40.328125 50.609375 34.8125 
Q 44.34375 29.296875 32.078125 29.296875 
L 19.671875 29.296875 
L 19.671875 0 
L 9.8125 0 
z
" id="BitstreamVeraSans-Roman-50"/>
     </defs>
     <g transform="translate(213.4509375 414.598475)scale(0.12 -0.12)">
      <use xlink:href="#BitstreamVeraSans-Roman-46"/>
      <use x="57.37890625" xlink:href="#BitstreamVeraSans-Roman-61"/>
      <use x="118.658203125" xlink:href="#BitstreamVeraSans-Roman-6c"/>
      <use x="146.44140625" xlink:href="#BitstreamVeraSans-Roman-73"/>
      <use x="198.541015625" xlink:href="#BitstreamVeraSans-Roman-65"/>
      <use x="260.064453125" xlink:href="#BitstreamVeraSans-Roman-20"/>
      <use x="291.8515625" xlink:href="#BitstreamVeraSans-Roman-50"/>
      <use x="352.107421875" xlink:href="#BitstreamVeraSans-Roman-6f"/>
      <use x="413.2890625" xlink:href="#BitstreamVeraSans-Roman-73"/>
      <use x="465.388671875" xlink:href="#BitstreamVeraSans-Roman-69"/>
      <use x="493.171875" xlink:href="#BitstreamVeraSans-Roman-74"/>
      <use x="532.380859375" xlink:href="#BitstreamVeraSans-Roman-69"/>
      <use x="560.1640625" xlink:href="#BitstreamVeraSans-Roman-76"/>
      <use x="619.34375" xlink:href="#BitstreamVeraSans-Roman-65"/>
      <use x="680.8671875" xlink:href="#BitstreamVeraSans-Roman-20"/>
      <use x="712.654296875" xlink:href="#BitstreamVeraSans-Roman-52"/>
      <use x="782.10546875" xlink:href="#BitstreamVeraSans-Roman-61"/>
      <use x="843.384765625" xlink:href="#BitstreamVeraSans-Roman-74"/>
      <use x="882.59375" xlink:href="#BitstreamVeraSans-Roman-65"/>
     </g>
    </g>
   </g>
   <g id="matplotlib.axis_2">
    <g id="ytick_1">
     <g id="line2d_17">
      <defs>
       <path d="M 0 0 
L 4 0 
" id="m8a619109e2" style="stroke:#000000;stroke-width:0.5;"/>
      </defs>
      <g>
       <use style="stroke:#000000;stroke-width:0.5;" x="46.8975" xlink:href="#m8a619109e2" y="384.8666"/>
      </g>
     </g>
     <g id="line2d_18">
      <defs>
       <path d="M 0 0 
L -4 0 
" id="m23d9d7ca78" style="stroke:#000000;stroke-width:0.5;"/>
      </defs>
      <g>
       <use style="stroke:#000000;stroke-width:0.5;" x="493.2975" xlink:href="#m23d9d7ca78" y="384.8666"/>
      </g>
     </g>
     <g id="text_8">
      <!-- 0.0 -->
      <g transform="translate(23.81375 388.17785)scale(0.12 -0.12)">
       <use xlink:href="#BitstreamVeraSans-Roman-30"/>
       <use x="63.623046875" xlink:href="#BitstreamVeraSans-Roman-2e"/>
       <use x="95.41015625" xlink:href="#BitstreamVeraSans-Roman-30"/>
      </g>
     </g>
    </g>
    <g id="ytick_2">
     <g id="line2d_19">
      <g>
       <use style="stroke:#000000;stroke-width:0.5;" x="46.8975" xlink:href="#m8a619109e2" y="319.038028571"/>
      </g>
     </g>
     <g id="line2d_20">
      <g>
       <use style="stroke:#000000;stroke-width:0.5;" x="493.2975" xlink:href="#m23d9d7ca78" y="319.038028571"/>
      </g>
     </g>
     <g id="text_9">
      <!-- 0.2 -->
      <g transform="translate(23.81375 322.349278571)scale(0.12 -0.12)">
       <use xlink:href="#BitstreamVeraSans-Roman-30"/>
       <use x="63.623046875" xlink:href="#BitstreamVeraSans-Roman-2e"/>
       <use x="95.41015625" xlink:href="#BitstreamVeraSans-Roman-32"/>
      </g>
     </g>
    </g>
    <g id="ytick_3">
     <g id="line2d_21">
      <g>
       <use style="stroke:#000000;stroke-width:0.5;" x="46.8975" xlink:href="#m8a619109e2" y="253.209457143"/>
      </g>
     </g>
     <g id="line2d_22">
      <g>
       <use style="stroke:#000000;stroke-width:0.5;" x="493.2975" xlink:href="#m23d9d7ca78" y="253.209457143"/>
      </g>
     </g>
     <g id="text_10">
      <!-- 0.4 -->
      <g transform="translate(23.81375 256.520707143)scale(0.12 -0.12)">
       <use xlink:href="#BitstreamVeraSans-Roman-30"/>
       <use x="63.623046875" xlink:href="#BitstreamVeraSans-Roman-2e"/>
       <use x="95.41015625" xlink:href="#BitstreamVeraSans-Roman-34"/>
      </g>
     </g>
    </g>
    <g id="ytick_4">
     <g id="line2d_23">
      <g>
       <use style="stroke:#000000;stroke-width:0.5;" x="46.8975" xlink:href="#m8a619109e2" y="187.380885714"/>
      </g>
     </g>
     <g id="line2d_24">
      <g>
       <use style="stroke:#000000;stroke-width:0.5;" x="493.2975" xlink:href="#m23d9d7ca78" y="187.380885714"/>
      </g>
     </g>
     <g id="text_11">
      <!-- 0.6 -->
      <g transform="translate(23.81375 190.692135714)scale(0.12 -0.12)">
       <use xlink:href="#BitstreamVeraSans-Roman-30"/>
       <use x="63.623046875" xlink:href="#BitstreamVeraSans-Roman-2e"/>
       <use x="95.41015625" xlink:href="#BitstreamVeraSans-Roman-36"/>
      </g>
     </g>
    </g>
    <g id="ytick_5">
     <g id="line2d_25">
      <g>
       <use style="stroke:#000000;stroke-width:0.5;" x="46.8975" xlink:href="#m8a619109e2" y="121.552314286"/>
      </g>
     </g>
     <g id="line2d_26">
      <g>
       <use style="stroke:#000000;stroke-width:0.5;" x="493.2975" xlink:href="#m23d9d7ca78" y="121.552314286"/>
      </g>
     </g>
     <g id="text_12">
      <!-- 0.8 -->
      <g transform="translate(23.81375 124.863564286)scale(0.12 -0.12)">
       <use xlink:href="#BitstreamVeraSans-Roman-30"/>
       <use x="63.623046875" xlink:href="#BitstreamVeraSans-Roman-2e"/>
       <use x="95.41015625" xlink:href="#BitstreamVeraSans-Roman-38"/>
      </g>
     </g>
    </g>
    <g id="ytick_6">
     <g id="line2d_27">
      <g>
       <use style="stroke:#000000;stroke-width:0.5;" x="46.8975" xlink:href="#m8a619109e2" y="55.7237428571"/>
      </g>
     </g>
     <g id="line2d_28">
      <g>
       <use style="stroke:#000000;stroke-width:0.5;" x="493.2975" xlink:href="#m23d9d7ca78" y="55.7237428571"/>
      </g>
     </g>
     <g id="text_13">
      <!-- 1.0 -->
      <g transform="translate(23.81375 59.0349928571)scale(0.12 -0.12)">
       <use xlink:href="#BitstreamVeraSans-Roman-31"/>
       <use x="63.623046875" xlink:href="#BitstreamVeraSans-Roman-2e"/>
       <use x="95.41015625" xlink:href="#BitstreamVeraSans-Roman-30"/>
      </g>
     </g>
    </g>
    <g id="text_14">
     <!-- True Positive Rate -->
     <defs>
      <path d="M 41.109375 46.296875 
Q 39.59375 47.171875 37.8125 47.578125 
Q 36.03125 48 33.890625 48 
Q 26.265625 48 22.1875 43.046875 
Q 18.109375 38.09375 18.109375 28.8125 
L 18.109375 0 
L 9.078125 0 
L 9.078125 54.6875 
L 18.109375 54.6875 
L 18.109375 46.1875 
Q 20.953125 51.171875 25.484375 53.578125 
Q 30.03125 56 36.53125 56 
Q 37.453125 56 38.578125 55.875 
Q 39.703125 55.765625 41.0625 55.515625 
z
" id="BitstreamVeraSans-Roman-72"/>
      <path d="M 8.5 21.578125 
L 8.5 54.6875 
L 17.484375 54.6875 
L 17.484375 21.921875 
Q 17.484375 14.15625 20.5 10.265625 
Q 23.53125 6.390625 29.59375 6.390625 
Q 36.859375 6.390625 41.078125 11.03125 
Q 45.3125 15.671875 45.3125 23.6875 
L 45.3125 54.6875 
L 54.296875 54.6875 
L 54.296875 0 
L 45.3125 0 
L 45.3125 8.40625 
Q 42.046875 3.421875 37.71875 1 
Q 33.40625 -1.421875 27.6875 -1.421875 
Q 18.265625 -1.421875 13.375 4.4375 
Q 8.5 10.296875 8.5 21.578125 
" id="BitstreamVeraSans-Roman-75"/>
      <path d="M -0.296875 72.90625 
L 61.375 72.90625 
L 61.375 64.59375 
L 35.5 64.59375 
L 35.5 0 
L 25.59375 0 
L 25.59375 64.59375 
L -0.296875 64.59375 
z
" id="BitstreamVeraSans-Roman-54"/>
     </defs>
     <g transform="translate(16.318125 266.7219125)rotate(-90.0)scale(0.12 -0.12)">
      <use xlink:href="#BitstreamVeraSans-Roman-54"/>
      <use x="60.865234375" xlink:href="#BitstreamVeraSans-Roman-72"/>
      <use x="101.978515625" xlink:href="#BitstreamVeraSans-Roman-75"/>
      <use x="165.357421875" xlink:href="#BitstreamVeraSans-Roman-65"/>
      <use x="226.880859375" xlink:href="#BitstreamVeraSans-Roman-20"/>
      <use x="258.66796875" xlink:href="#BitstreamVeraSans-Roman-50"/>
      <use x="318.923828125" xlink:href="#BitstreamVeraSans-Roman-6f"/>
      <use x="380.10546875" xlink:href="#BitstreamVeraSans-Roman-73"/>
      <use x="432.205078125" xlink:href="#BitstreamVeraSans-Roman-69"/>
      <use x="459.98828125" xlink:href="#BitstreamVeraSans-Roman-74"/>
      <use x="499.197265625" xlink:href="#BitstreamVeraSans-Roman-69"/>
      <use x="526.98046875" xlink:href="#BitstreamVeraSans-Roman-76"/>
      <use x="586.16015625" xlink:href="#BitstreamVeraSans-Roman-65"/>
      <use x="647.68359375" xlink:href="#BitstreamVeraSans-Roman-20"/>
      <use x="679.470703125" xlink:href="#BitstreamVeraSans-Roman-52"/>
      <use x="748.921875" xlink:href="#BitstreamVeraSans-Roman-61"/>
      <use x="810.201171875" xlink:href="#BitstreamVeraSans-Roman-74"/>
      <use x="849.41015625" xlink:href="#BitstreamVeraSans-Roman-65"/>
     </g>
    </g>
   </g>
   <g id="text_15">
    <!-- ROC Curve GradientBoosting + RandomOverSampler -->
    <defs>
     <path d="M 64.40625 67.28125 
L 64.40625 56.890625 
Q 59.421875 61.53125 53.78125 63.8125 
Q 48.140625 66.109375 41.796875 66.109375 
Q 29.296875 66.109375 22.65625 58.46875 
Q 16.015625 50.828125 16.015625 36.375 
Q 16.015625 21.96875 22.65625 14.328125 
Q 29.296875 6.6875 41.796875 6.6875 
Q 48.140625 6.6875 53.78125 8.984375 
Q 59.421875 11.28125 64.40625 15.921875 
L 64.40625 5.609375 
Q 59.234375 2.09375 53.4375 0.328125 
Q 47.65625 -1.421875 41.21875 -1.421875 
Q 24.65625 -1.421875 15.125 8.703125 
Q 5.609375 18.84375 5.609375 36.375 
Q 5.609375 53.953125 15.125 64.078125 
Q 24.65625 74.21875 41.21875 74.21875 
Q 47.75 74.21875 53.53125 72.484375 
Q 59.328125 70.75 64.40625 67.28125 
" id="BitstreamVeraSans-Roman-43"/>
     <path d="M 45.40625 27.984375 
Q 45.40625 37.75 41.375 43.109375 
Q 37.359375 48.484375 30.078125 48.484375 
Q 22.859375 48.484375 18.828125 43.109375 
Q 14.796875 37.75 14.796875 27.984375 
Q 14.796875 18.265625 18.828125 12.890625 
Q 22.859375 7.515625 30.078125 7.515625 
Q 37.359375 7.515625 41.375 12.890625 
Q 45.40625 18.265625 45.40625 27.984375 
M 54.390625 6.78125 
Q 54.390625 -7.171875 48.1875 -13.984375 
Q 42 -20.796875 29.203125 -20.796875 
Q 24.46875 -20.796875 20.265625 -20.09375 
Q 16.0625 -19.390625 12.109375 -17.921875 
L 12.109375 -9.1875 
Q 16.0625 -11.328125 19.921875 -12.34375 
Q 23.78125 -13.375 27.78125 -13.375 
Q 36.625 -13.375 41.015625 -8.765625 
Q 45.40625 -4.15625 45.40625 5.171875 
L 45.40625 9.625 
Q 42.625 4.78125 38.28125 2.390625 
Q 33.9375 0 27.875 0 
Q 17.828125 0 11.671875 7.65625 
Q 5.515625 15.328125 5.515625 27.984375 
Q 5.515625 40.671875 11.671875 48.328125 
Q 17.828125 56 27.875 56 
Q 33.9375 56 38.28125 53.609375 
Q 42.625 51.21875 45.40625 46.390625 
L 45.40625 54.6875 
L 54.390625 54.6875 
z
" id="BitstreamVeraSans-Roman-67"/>
     <path d="M 45.40625 46.390625 
L 45.40625 75.984375 
L 54.390625 75.984375 
L 54.390625 0 
L 45.40625 0 
L 45.40625 8.203125 
Q 42.578125 3.328125 38.25 0.953125 
Q 33.9375 -1.421875 27.875 -1.421875 
Q 17.96875 -1.421875 11.734375 6.484375 
Q 5.515625 14.40625 5.515625 27.296875 
Q 5.515625 40.1875 11.734375 48.09375 
Q 17.96875 56 27.875 56 
Q 33.9375 56 38.25 53.625 
Q 42.578125 51.265625 45.40625 46.390625 
M 14.796875 27.296875 
Q 14.796875 17.390625 18.875 11.75 
Q 22.953125 6.109375 30.078125 6.109375 
Q 37.203125 6.109375 41.296875 11.75 
Q 45.40625 17.390625 45.40625 27.296875 
Q 45.40625 37.203125 41.296875 42.84375 
Q 37.203125 48.484375 30.078125 48.484375 
Q 22.953125 48.484375 18.875 42.84375 
Q 14.796875 37.203125 14.796875 27.296875 
" id="BitstreamVeraSans-Roman-64"/>
     <path d="M 19.671875 34.8125 
L 19.671875 8.109375 
L 35.5 8.109375 
Q 43.453125 8.109375 47.28125 11.40625 
Q 51.125 14.703125 51.125 21.484375 
Q 51.125 28.328125 47.28125 31.5625 
Q 43.453125 34.8125 35.5 34.8125 
z
M 19.671875 64.796875 
L 19.671875 42.828125 
L 34.28125 42.828125 
Q 41.5 42.828125 45.03125 45.53125 
Q 48.578125 48.25 48.578125 53.8125 
Q 48.578125 59.328125 45.03125 62.0625 
Q 41.5 64.796875 34.28125 64.796875 
z
M 9.8125 72.90625 
L 35.015625 72.90625 
Q 46.296875 72.90625 52.390625 68.21875 
Q 58.5 63.53125 58.5 54.890625 
Q 58.5 48.1875 55.375 44.234375 
Q 52.25 40.28125 46.1875 39.3125 
Q 53.46875 37.75 57.5 32.78125 
Q 61.53125 27.828125 61.53125 20.40625 
Q 61.53125 10.640625 54.890625 5.3125 
Q 48.25 0 35.984375 0 
L 9.8125 0 
z
" id="BitstreamVeraSans-Roman-42"/>
     <path d="M 59.515625 10.40625 
L 59.515625 29.984375 
L 43.40625 29.984375 
L 43.40625 38.09375 
L 69.28125 38.09375 
L 69.28125 6.78125 
Q 63.578125 2.734375 56.6875 0.65625 
Q 49.8125 -1.421875 42 -1.421875 
Q 24.90625 -1.421875 15.25 8.5625 
Q 5.609375 18.5625 5.609375 36.375 
Q 5.609375 54.25 15.25 64.234375 
Q 24.90625 74.21875 42 74.21875 
Q 49.125 74.21875 55.546875 72.453125 
Q 61.96875 70.703125 67.390625 67.28125 
L 67.390625 56.78125 
Q 61.921875 61.421875 55.765625 63.765625 
Q 49.609375 66.109375 42.828125 66.109375 
Q 29.4375 66.109375 22.71875 58.640625 
Q 16.015625 51.171875 16.015625 36.375 
Q 16.015625 21.625 22.71875 14.15625 
Q 29.4375 6.6875 42.828125 6.6875 
Q 48.046875 6.6875 52.140625 7.59375 
Q 56.25 8.5 59.515625 10.40625 
" id="BitstreamVeraSans-Roman-47"/>
     <path d="M 53.515625 70.515625 
L 53.515625 60.890625 
Q 47.90625 63.578125 42.921875 64.890625 
Q 37.9375 66.21875 33.296875 66.21875 
Q 25.25 66.21875 20.875 63.09375 
Q 16.5 59.96875 16.5 54.203125 
Q 16.5 49.359375 19.40625 46.890625 
Q 22.3125 44.4375 30.421875 42.921875 
L 36.375 41.703125 
Q 47.40625 39.59375 52.65625 34.296875 
Q 57.90625 29 57.90625 20.125 
Q 57.90625 9.515625 50.796875 4.046875 
Q 43.703125 -1.421875 29.984375 -1.421875 
Q 24.8125 -1.421875 18.96875 -0.25 
Q 13.140625 0.921875 6.890625 3.21875 
L 6.890625 13.375 
Q 12.890625 10.015625 18.65625 8.296875 
Q 24.421875 6.59375 29.984375 6.59375 
Q 38.421875 6.59375 43.015625 9.90625 
Q 47.609375 13.234375 47.609375 19.390625 
Q 47.609375 24.75 44.3125 27.78125 
Q 41.015625 30.8125 33.5 32.328125 
L 27.484375 33.5 
Q 16.453125 35.6875 11.515625 40.375 
Q 6.59375 45.0625 6.59375 53.421875 
Q 6.59375 63.09375 13.40625 68.65625 
Q 20.21875 74.21875 32.171875 74.21875 
Q 37.3125 74.21875 42.625 73.28125 
Q 47.953125 72.359375 53.515625 70.515625 
" id="BitstreamVeraSans-Roman-53"/>
     <path d="M 39.40625 66.21875 
Q 28.65625 66.21875 22.328125 58.203125 
Q 16.015625 50.203125 16.015625 36.375 
Q 16.015625 22.609375 22.328125 14.59375 
Q 28.65625 6.59375 39.40625 6.59375 
Q 50.140625 6.59375 56.421875 14.59375 
Q 62.703125 22.609375 62.703125 36.375 
Q 62.703125 50.203125 56.421875 58.203125 
Q 50.140625 66.21875 39.40625 66.21875 
M 39.40625 74.21875 
Q 54.734375 74.21875 63.90625 63.9375 
Q 73.09375 53.65625 73.09375 36.375 
Q 73.09375 19.140625 63.90625 8.859375 
Q 54.734375 -1.421875 39.40625 -1.421875 
Q 24.03125 -1.421875 14.8125 8.828125 
Q 5.609375 19.09375 5.609375 36.375 
Q 5.609375 53.65625 14.8125 63.9375 
Q 24.03125 74.21875 39.40625 74.21875 
" id="BitstreamVeraSans-Roman-4f"/>
     <path d="M 52 44.1875 
Q 55.375 50.25 60.0625 53.125 
Q 64.75 56 71.09375 56 
Q 79.640625 56 84.28125 50.015625 
Q 88.921875 44.046875 88.921875 33.015625 
L 88.921875 0 
L 79.890625 0 
L 79.890625 32.71875 
Q 79.890625 40.578125 77.09375 44.375 
Q 74.3125 48.1875 68.609375 48.1875 
Q 61.625 48.1875 57.5625 43.546875 
Q 53.515625 38.921875 53.515625 30.90625 
L 53.515625 0 
L 44.484375 0 
L 44.484375 32.71875 
Q 44.484375 40.625 41.703125 44.40625 
Q 38.921875 48.1875 33.109375 48.1875 
Q 26.21875 48.1875 22.15625 43.53125 
Q 18.109375 38.875 18.109375 30.90625 
L 18.109375 0 
L 9.078125 0 
L 9.078125 54.6875 
L 18.109375 54.6875 
L 18.109375 46.1875 
Q 21.1875 51.21875 25.484375 53.609375 
Q 29.78125 56 35.6875 56 
Q 41.65625 56 45.828125 52.96875 
Q 50 49.953125 52 44.1875 
" id="BitstreamVeraSans-Roman-6d"/>
     <path d="M 18.109375 8.203125 
L 18.109375 -20.796875 
L 9.078125 -20.796875 
L 9.078125 54.6875 
L 18.109375 54.6875 
L 18.109375 46.390625 
Q 20.953125 51.265625 25.265625 53.625 
Q 29.59375 56 35.59375 56 
Q 45.5625 56 51.78125 48.09375 
Q 58.015625 40.1875 58.015625 27.296875 
Q 58.015625 14.40625 51.78125 6.484375 
Q 45.5625 -1.421875 35.59375 -1.421875 
Q 29.59375 -1.421875 25.265625 0.953125 
Q 20.953125 3.328125 18.109375 8.203125 
M 48.6875 27.296875 
Q 48.6875 37.203125 44.609375 42.84375 
Q 40.53125 48.484375 33.40625 48.484375 
Q 26.265625 48.484375 22.1875 42.84375 
Q 18.109375 37.203125 18.109375 27.296875 
Q 18.109375 17.390625 22.1875 11.75 
Q 26.265625 6.109375 33.40625 6.109375 
Q 40.53125 6.109375 44.609375 11.75 
Q 48.6875 17.390625 48.6875 27.296875 
" id="BitstreamVeraSans-Roman-70"/>
     <path d="M 54.890625 33.015625 
L 54.890625 0 
L 45.90625 0 
L 45.90625 32.71875 
Q 45.90625 40.484375 42.875 44.328125 
Q 39.84375 48.1875 33.796875 48.1875 
Q 26.515625 48.1875 22.3125 43.546875 
Q 18.109375 38.921875 18.109375 30.90625 
L 18.109375 0 
L 9.078125 0 
L 9.078125 54.6875 
L 18.109375 54.6875 
L 18.109375 46.1875 
Q 21.34375 51.125 25.703125 53.5625 
Q 30.078125 56 35.796875 56 
Q 45.21875 56 50.046875 50.171875 
Q 54.890625 44.34375 54.890625 33.015625 
" id="BitstreamVeraSans-Roman-6e"/>
     <path d="M 46 62.703125 
L 46 35.5 
L 73.1875 35.5 
L 73.1875 27.203125 
L 46 27.203125 
L 46 0 
L 37.796875 0 
L 37.796875 27.203125 
L 10.59375 27.203125 
L 10.59375 35.5 
L 37.796875 35.5 
L 37.796875 62.703125 
z
" id="BitstreamVeraSans-Roman-2b"/>
    </defs>
    <g transform="translate(77.93175 18.14175)scale(0.144 -0.144)">
     <use xlink:href="#BitstreamVeraSans-Roman-52"/>
     <use x="69.482421875" xlink:href="#BitstreamVeraSans-Roman-4f"/>
     <use x="148.193359375" xlink:href="#BitstreamVeraSans-Roman-43"/>
     <use x="218.017578125" xlink:href="#BitstreamVeraSans-Roman-20"/>
     <use x="249.8046875" xlink:href="#BitstreamVeraSans-Roman-43"/>
     <use x="319.62890625" xlink:href="#BitstreamVeraSans-Roman-75"/>
     <use x="383.0078125" xlink:href="#BitstreamVeraSans-Roman-72"/>
     <use x="424.12109375" xlink:href="#BitstreamVeraSans-Roman-76"/>
     <use x="483.30078125" xlink:href="#BitstreamVeraSans-Roman-65"/>
     <use x="544.82421875" xlink:href="#BitstreamVeraSans-Roman-20"/>
     <use x="576.611328125" xlink:href="#BitstreamVeraSans-Roman-47"/>
     <use x="654.1015625" xlink:href="#BitstreamVeraSans-Roman-72"/>
     <use x="695.21484375" xlink:href="#BitstreamVeraSans-Roman-61"/>
     <use x="756.494140625" xlink:href="#BitstreamVeraSans-Roman-64"/>
     <use x="819.970703125" xlink:href="#BitstreamVeraSans-Roman-69"/>
     <use x="847.75390625" xlink:href="#BitstreamVeraSans-Roman-65"/>
     <use x="909.27734375" xlink:href="#BitstreamVeraSans-Roman-6e"/>
     <use x="972.65625" xlink:href="#BitstreamVeraSans-Roman-74"/>
     <use x="1011.865234375" xlink:href="#BitstreamVeraSans-Roman-42"/>
     <use x="1080.46875" xlink:href="#BitstreamVeraSans-Roman-6f"/>
     <use x="1141.650390625" xlink:href="#BitstreamVeraSans-Roman-6f"/>
     <use x="1202.83203125" xlink:href="#BitstreamVeraSans-Roman-73"/>
     <use x="1254.931640625" xlink:href="#BitstreamVeraSans-Roman-74"/>
     <use x="1294.140625" xlink:href="#BitstreamVeraSans-Roman-69"/>
     <use x="1321.923828125" xlink:href="#BitstreamVeraSans-Roman-6e"/>
     <use x="1385.302734375" xlink:href="#BitstreamVeraSans-Roman-67"/>
     <use x="1448.779296875" xlink:href="#BitstreamVeraSans-Roman-20"/>
     <use x="1480.56640625" xlink:href="#BitstreamVeraSans-Roman-2b"/>
     <use x="1564.35546875" xlink:href="#BitstreamVeraSans-Roman-20"/>
     <use x="1596.142578125" xlink:href="#BitstreamVeraSans-Roman-52"/>
     <use x="1665.59375" xlink:href="#BitstreamVeraSans-Roman-61"/>
     <use x="1726.873046875" xlink:href="#BitstreamVeraSans-Roman-6e"/>
     <use x="1790.251953125" xlink:href="#BitstreamVeraSans-Roman-64"/>
     <use x="1853.728515625" xlink:href="#BitstreamVeraSans-Roman-6f"/>
     <use x="1914.91015625" xlink:href="#BitstreamVeraSans-Roman-6d"/>
     <use x="2012.322265625" xlink:href="#BitstreamVeraSans-Roman-4f"/>
     <use x="2091.033203125" xlink:href="#BitstreamVeraSans-Roman-76"/>
     <use x="2150.212890625" xlink:href="#BitstreamVeraSans-Roman-65"/>
     <use x="2211.736328125" xlink:href="#BitstreamVeraSans-Roman-72"/>
     <use x="2252.849609375" xlink:href="#BitstreamVeraSans-Roman-53"/>
     <use x="2316.326171875" xlink:href="#BitstreamVeraSans-Roman-61"/>
     <use x="2377.60546875" xlink:href="#BitstreamVeraSans-Roman-6d"/>
     <use x="2475.017578125" xlink:href="#BitstreamVeraSans-Roman-70"/>
     <use x="2538.494140625" xlink:href="#BitstreamVeraSans-Roman-6c"/>
     <use x="2566.27734375" xlink:href="#BitstreamVeraSans-Roman-65"/>
     <use x="2627.80078125" xlink:href="#BitstreamVeraSans-Roman-72"/>
    </g>
    <!-- Train: 1   Test: [2, 4, 6, 8, 10, 12] -->
    <defs>
     <path d="M 8.59375 75.984375 
L 29.296875 75.984375 
L 29.296875 69 
L 17.578125 69 
L 17.578125 -6.203125 
L 29.296875 -6.203125 
L 29.296875 -13.1875 
L 8.59375 -13.1875 
z
" id="BitstreamVeraSans-Roman-5b"/>
     <path d="M 11.71875 12.40625 
L 22.015625 12.40625 
L 22.015625 4 
L 14.015625 -11.625 
L 7.71875 -11.625 
L 11.71875 4 
z
" id="BitstreamVeraSans-Roman-2c"/>
     <path d="M 11.71875 12.40625 
L 22.015625 12.40625 
L 22.015625 0 
L 11.71875 0 
z
M 11.71875 51.703125 
L 22.015625 51.703125 
L 22.015625 39.3125 
L 11.71875 39.3125 
z
" id="BitstreamVeraSans-Roman-3a"/>
     <path d="M 30.421875 75.984375 
L 30.421875 -13.1875 
L 9.71875 -13.1875 
L 9.71875 -6.203125 
L 21.390625 -6.203125 
L 21.390625 69 
L 9.71875 69 
L 9.71875 75.984375 
z
" id="BitstreamVeraSans-Roman-5d"/>
    </defs>
    <g transform="translate(150.376125 34.2666)scale(0.144 -0.144)">
     <use xlink:href="#BitstreamVeraSans-Roman-54"/>
     <use x="60.865234375" xlink:href="#BitstreamVeraSans-Roman-72"/>
     <use x="101.978515625" xlink:href="#BitstreamVeraSans-Roman-61"/>
     <use x="163.2578125" xlink:href="#BitstreamVeraSans-Roman-69"/>
     <use x="191.041015625" xlink:href="#BitstreamVeraSans-Roman-6e"/>
     <use x="254.419921875" xlink:href="#BitstreamVeraSans-Roman-3a"/>
     <use x="288.111328125" xlink:href="#BitstreamVeraSans-Roman-20"/>
     <use x="319.8984375" xlink:href="#BitstreamVeraSans-Roman-31"/>
     <use x="383.521484375" xlink:href="#BitstreamVeraSans-Roman-20"/>
     <use x="415.30859375" xlink:href="#BitstreamVeraSans-Roman-20"/>
     <use x="447.095703125" xlink:href="#BitstreamVeraSans-Roman-20"/>
     <use x="478.8828125" xlink:href="#BitstreamVeraSans-Roman-54"/>
     <use x="539.701171875" xlink:href="#BitstreamVeraSans-Roman-65"/>
     <use x="601.224609375" xlink:href="#BitstreamVeraSans-Roman-73"/>
     <use x="653.32421875" xlink:href="#BitstreamVeraSans-Roman-74"/>
     <use x="692.533203125" xlink:href="#BitstreamVeraSans-Roman-3a"/>
     <use x="726.224609375" xlink:href="#BitstreamVeraSans-Roman-20"/>
     <use x="758.01171875" xlink:href="#BitstreamVeraSans-Roman-5b"/>
     <use x="797.025390625" xlink:href="#BitstreamVeraSans-Roman-32"/>
     <use x="860.6484375" xlink:href="#BitstreamVeraSans-Roman-2c"/>
     <use x="892.435546875" xlink:href="#BitstreamVeraSans-Roman-20"/>
     <use x="924.22265625" xlink:href="#BitstreamVeraSans-Roman-34"/>
     <use x="987.845703125" xlink:href="#BitstreamVeraSans-Roman-2c"/>
     <use x="1019.6328125" xlink:href="#BitstreamVeraSans-Roman-20"/>
     <use x="1051.419921875" xlink:href="#BitstreamVeraSans-Roman-36"/>
     <use x="1115.04296875" xlink:href="#BitstreamVeraSans-Roman-2c"/>
     <use x="1146.830078125" xlink:href="#BitstreamVeraSans-Roman-20"/>
     <use x="1178.6171875" xlink:href="#BitstreamVeraSans-Roman-38"/>
     <use x="1242.240234375" xlink:href="#BitstreamVeraSans-Roman-2c"/>
     <use x="1274.02734375" xlink:href="#BitstreamVeraSans-Roman-20"/>
     <use x="1305.814453125" xlink:href="#BitstreamVeraSans-Roman-31"/>
     <use x="1369.4375" xlink:href="#BitstreamVeraSans-Roman-30"/>
     <use x="1433.060546875" xlink:href="#BitstreamVeraSans-Roman-2c"/>
     <use x="1464.84765625" xlink:href="#BitstreamVeraSans-Roman-20"/>
     <use x="1496.634765625" xlink:href="#BitstreamVeraSans-Roman-31"/>
     <use x="1560.2578125" xlink:href="#BitstreamVeraSans-Roman-32"/>
     <use x="1623.880859375" xlink:href="#BitstreamVeraSans-Roman-5d"/>
    </g>
   </g>
   <g id="legend_1">
    <g id="patch_7">
     <path d="M 187.14675 377.6666 
L 486.0975 377.6666 
L 486.0975 309.9371 
L 187.14675 309.9371 
z
" style="fill:#ffffff;stroke:#000000;stroke-linejoin:miter;"/>
    </g>
    <g id="line2d_29">
     <path d="M 197.22675 321.59885 
L 217.38675 321.59885 
" style="fill:none;stroke:#0000ff;stroke-linecap:square;"/>
    </g>
    <g id="line2d_30"/>
    <g id="text_16">
     <!-- janusROC curve - 0 (AUC = 0.887) -->
     <defs>
      <path d="M 8.203125 72.90625 
L 55.078125 72.90625 
L 55.078125 68.703125 
L 28.609375 0 
L 18.3125 0 
L 43.21875 64.59375 
L 8.203125 64.59375 
z
" id="BitstreamVeraSans-Roman-37"/>
      <path d="M 31 75.875 
Q 24.46875 64.65625 21.28125 53.65625 
Q 18.109375 42.671875 18.109375 31.390625 
Q 18.109375 20.125 21.3125 9.0625 
Q 24.515625 -2 31 -13.1875 
L 23.1875 -13.1875 
Q 15.875 -1.703125 12.234375 9.375 
Q 8.59375 20.453125 8.59375 31.390625 
Q 8.59375 42.28125 12.203125 53.3125 
Q 15.828125 64.359375 23.1875 75.875 
z
" id="BitstreamVeraSans-Roman-28"/>
      <path d="M 8.015625 75.875 
L 15.828125 75.875 
Q 23.140625 64.359375 26.78125 53.3125 
Q 30.421875 42.28125 30.421875 31.390625 
Q 30.421875 20.453125 26.78125 9.375 
Q 23.140625 -1.703125 15.828125 -13.1875 
L 8.015625 -13.1875 
Q 14.5 -2 17.703125 9.0625 
Q 20.90625 20.125 20.90625 31.390625 
Q 20.90625 42.671875 17.703125 53.65625 
Q 14.5 64.65625 8.015625 75.875 
" id="BitstreamVeraSans-Roman-29"/>
      <path d="M 34.1875 63.1875 
L 20.796875 26.90625 
L 47.609375 26.90625 
z
M 28.609375 72.90625 
L 39.796875 72.90625 
L 67.578125 0 
L 57.328125 0 
L 50.6875 18.703125 
L 17.828125 18.703125 
L 11.1875 0 
L 0.78125 0 
z
" id="BitstreamVeraSans-Roman-41"/>
      <path d="M 8.6875 72.90625 
L 18.609375 72.90625 
L 18.609375 28.609375 
Q 18.609375 16.890625 22.84375 11.734375 
Q 27.09375 6.59375 36.625 6.59375 
Q 46.09375 6.59375 50.34375 11.734375 
Q 54.59375 16.890625 54.59375 28.609375 
L 54.59375 72.90625 
L 64.5 72.90625 
L 64.5 27.390625 
Q 64.5 13.140625 57.4375 5.859375 
Q 50.390625 -1.421875 36.625 -1.421875 
Q 22.796875 -1.421875 15.734375 5.859375 
Q 8.6875 13.140625 8.6875 27.390625 
z
" id="BitstreamVeraSans-Roman-55"/>
      <path d="M 10.59375 45.40625 
L 73.1875 45.40625 
L 73.1875 37.203125 
L 10.59375 37.203125 
z
M 10.59375 25.484375 
L 73.1875 25.484375 
L 73.1875 17.1875 
L 10.59375 17.1875 
z
" id="BitstreamVeraSans-Roman-3d"/>
      <path d="M 9.421875 54.6875 
L 18.40625 54.6875 
L 18.40625 -0.984375 
Q 18.40625 -11.421875 14.421875 -16.109375 
Q 10.453125 -20.796875 1.609375 -20.796875 
L -1.8125 -20.796875 
L -1.8125 -13.1875 
L 0.59375 -13.1875 
Q 5.71875 -13.1875 7.5625 -10.8125 
Q 9.421875 -8.453125 9.421875 -0.984375 
z
M 9.421875 75.984375 
L 18.40625 75.984375 
L 18.40625 64.59375 
L 9.421875 64.59375 
z
" id="BitstreamVeraSans-Roman-6a"/>
      <path d="M 4.890625 31.390625 
L 31.203125 31.390625 
L 31.203125 23.390625 
L 4.890625 23.390625 
z
" id="BitstreamVeraSans-Roman-2d"/>
      <path d="M 48.78125 52.59375 
L 48.78125 44.1875 
Q 44.96875 46.296875 41.140625 47.34375 
Q 37.3125 48.390625 33.40625 48.390625 
Q 24.65625 48.390625 19.8125 42.84375 
Q 14.984375 37.3125 14.984375 27.296875 
Q 14.984375 17.28125 19.8125 11.734375 
Q 24.65625 6.203125 33.40625 6.203125 
Q 37.3125 6.203125 41.140625 7.25 
Q 44.96875 8.296875 48.78125 10.40625 
L 48.78125 2.09375 
Q 45.015625 0.34375 40.984375 -0.53125 
Q 36.96875 -1.421875 32.421875 -1.421875 
Q 20.0625 -1.421875 12.78125 6.34375 
Q 5.515625 14.109375 5.515625 27.296875 
Q 5.515625 40.671875 12.859375 48.328125 
Q 20.21875 56 33.015625 56 
Q 37.15625 56 41.109375 55.140625 
Q 45.0625 54.296875 48.78125 52.59375 
" id="BitstreamVeraSans-Roman-63"/>
     </defs>
     <g transform="translate(233.22675 326.63885)scale(0.144 -0.144)">
      <use xlink:href="#BitstreamVeraSans-Roman-6a"/>
      <use x="27.783203125" xlink:href="#BitstreamVeraSans-Roman-61"/>
      <use x="89.0625" xlink:href="#BitstreamVeraSans-Roman-6e"/>
      <use x="152.44140625" xlink:href="#BitstreamVeraSans-Roman-75"/>
      <use x="215.8203125" xlink:href="#BitstreamVeraSans-Roman-73"/>
      <use x="267.919921875" xlink:href="#BitstreamVeraSans-Roman-52"/>
      <use x="337.40234375" xlink:href="#BitstreamVeraSans-Roman-4f"/>
      <use x="416.11328125" xlink:href="#BitstreamVeraSans-Roman-43"/>
      <use x="485.9375" xlink:href="#BitstreamVeraSans-Roman-20"/>
      <use x="517.724609375" xlink:href="#BitstreamVeraSans-Roman-63"/>
      <use x="572.705078125" xlink:href="#BitstreamVeraSans-Roman-75"/>
      <use x="636.083984375" xlink:href="#BitstreamVeraSans-Roman-72"/>
      <use x="677.197265625" xlink:href="#BitstreamVeraSans-Roman-76"/>
      <use x="736.376953125" xlink:href="#BitstreamVeraSans-Roman-65"/>
      <use x="797.900390625" xlink:href="#BitstreamVeraSans-Roman-20"/>
      <use x="829.6875" xlink:href="#BitstreamVeraSans-Roman-2d"/>
      <use x="865.771484375" xlink:href="#BitstreamVeraSans-Roman-20"/>
      <use x="897.55859375" xlink:href="#BitstreamVeraSans-Roman-30"/>
      <use x="961.181640625" xlink:href="#BitstreamVeraSans-Roman-20"/>
      <use x="992.96875" xlink:href="#BitstreamVeraSans-Roman-28"/>
      <use x="1031.982421875" xlink:href="#BitstreamVeraSans-Roman-41"/>
      <use x="1100.390625" xlink:href="#BitstreamVeraSans-Roman-55"/>
      <use x="1173.583984375" xlink:href="#BitstreamVeraSans-Roman-43"/>
      <use x="1243.408203125" xlink:href="#BitstreamVeraSans-Roman-20"/>
      <use x="1275.1953125" xlink:href="#BitstreamVeraSans-Roman-3d"/>
      <use x="1358.984375" xlink:href="#BitstreamVeraSans-Roman-20"/>
      <use x="1390.771484375" xlink:href="#BitstreamVeraSans-Roman-30"/>
      <use x="1454.39453125" xlink:href="#BitstreamVeraSans-Roman-2e"/>
      <use x="1486.181640625" xlink:href="#BitstreamVeraSans-Roman-38"/>
      <use x="1549.8046875" xlink:href="#BitstreamVeraSans-Roman-38"/>
      <use x="1613.427734375" xlink:href="#BitstreamVeraSans-Roman-37"/>
      <use x="1677.05078125" xlink:href="#BitstreamVeraSans-Roman-29"/>
     </g>
    </g>
    <g id="line2d_31">
     <path d="M 197.22675 342.73535 
L 217.38675 342.73535 
" style="fill:none;stroke:#008000;stroke-linecap:square;"/>
    </g>
    <g id="line2d_32"/>
    <g id="text_17">
     <!-- janusROC curve - 1 (AUC = 0.890) -->
     <defs>
      <path d="M 10.984375 1.515625 
L 10.984375 10.5 
Q 14.703125 8.734375 18.5 7.8125 
Q 22.3125 6.890625 25.984375 6.890625 
Q 35.75 6.890625 40.890625 13.453125 
Q 46.046875 20.015625 46.78125 33.40625 
Q 43.953125 29.203125 39.59375 26.953125 
Q 35.25 24.703125 29.984375 24.703125 
Q 19.046875 24.703125 12.671875 31.3125 
Q 6.296875 37.9375 6.296875 49.421875 
Q 6.296875 60.640625 12.9375 67.421875 
Q 19.578125 74.21875 30.609375 74.21875 
Q 43.265625 74.21875 49.921875 64.515625 
Q 56.59375 54.828125 56.59375 36.375 
Q 56.59375 19.140625 48.40625 8.859375 
Q 40.234375 -1.421875 26.421875 -1.421875 
Q 22.703125 -1.421875 18.890625 -0.6875 
Q 15.09375 0.046875 10.984375 1.515625 
M 30.609375 32.421875 
Q 37.25 32.421875 41.125 36.953125 
Q 45.015625 41.5 45.015625 49.421875 
Q 45.015625 57.28125 41.125 61.84375 
Q 37.25 66.40625 30.609375 66.40625 
Q 23.96875 66.40625 20.09375 61.84375 
Q 16.21875 57.28125 16.21875 49.421875 
Q 16.21875 41.5 20.09375 36.953125 
Q 23.96875 32.421875 30.609375 32.421875 
" id="BitstreamVeraSans-Roman-39"/>
     </defs>
     <g transform="translate(233.22675 347.77535)scale(0.144 -0.144)">
      <use xlink:href="#BitstreamVeraSans-Roman-6a"/>
      <use x="27.783203125" xlink:href="#BitstreamVeraSans-Roman-61"/>
      <use x="89.0625" xlink:href="#BitstreamVeraSans-Roman-6e"/>
      <use x="152.44140625" xlink:href="#BitstreamVeraSans-Roman-75"/>
      <use x="215.8203125" xlink:href="#BitstreamVeraSans-Roman-73"/>
      <use x="267.919921875" xlink:href="#BitstreamVeraSans-Roman-52"/>
      <use x="337.40234375" xlink:href="#BitstreamVeraSans-Roman-4f"/>
      <use x="416.11328125" xlink:href="#BitstreamVeraSans-Roman-43"/>
      <use x="485.9375" xlink:href="#BitstreamVeraSans-Roman-20"/>
      <use x="517.724609375" xlink:href="#BitstreamVeraSans-Roman-63"/>
      <use x="572.705078125" xlink:href="#BitstreamVeraSans-Roman-75"/>
      <use x="636.083984375" xlink:href="#BitstreamVeraSans-Roman-72"/>
      <use x="677.197265625" xlink:href="#BitstreamVeraSans-Roman-76"/>
      <use x="736.376953125" xlink:href="#BitstreamVeraSans-Roman-65"/>
      <use x="797.900390625" xlink:href="#BitstreamVeraSans-Roman-20"/>
      <use x="829.6875" xlink:href="#BitstreamVeraSans-Roman-2d"/>
      <use x="865.771484375" xlink:href="#BitstreamVeraSans-Roman-20"/>
      <use x="897.55859375" xlink:href="#BitstreamVeraSans-Roman-31"/>
      <use x="961.181640625" xlink:href="#BitstreamVeraSans-Roman-20"/>
      <use x="992.96875" xlink:href="#BitstreamVeraSans-Roman-28"/>
      <use x="1031.982421875" xlink:href="#BitstreamVeraSans-Roman-41"/>
      <use x="1100.390625" xlink:href="#BitstreamVeraSans-Roman-55"/>
      <use x="1173.583984375" xlink:href="#BitstreamVeraSans-Roman-43"/>
      <use x="1243.408203125" xlink:href="#BitstreamVeraSans-Roman-20"/>
      <use x="1275.1953125" xlink:href="#BitstreamVeraSans-Roman-3d"/>
      <use x="1358.984375" xlink:href="#BitstreamVeraSans-Roman-20"/>
      <use x="1390.771484375" xlink:href="#BitstreamVeraSans-Roman-30"/>
      <use x="1454.39453125" xlink:href="#BitstreamVeraSans-Roman-2e"/>
      <use x="1486.181640625" xlink:href="#BitstreamVeraSans-Roman-38"/>
      <use x="1549.8046875" xlink:href="#BitstreamVeraSans-Roman-39"/>
      <use x="1613.427734375" xlink:href="#BitstreamVeraSans-Roman-30"/>
      <use x="1677.05078125" xlink:href="#BitstreamVeraSans-Roman-29"/>
     </g>
    </g>
    <g id="line2d_33">
     <path d="M 197.22675 363.87185 
L 217.38675 363.87185 
" style="fill:none;stroke:#ff0000;stroke-linecap:square;"/>
    </g>
    <g id="line2d_34"/>
    <g id="text_18">
     <!-- janusROC curve - 2 (AUC = 0.901) -->
     <g transform="translate(233.22675 368.91185)scale(0.144 -0.144)">
      <use xlink:href="#BitstreamVeraSans-Roman-6a"/>
      <use x="27.783203125" xlink:href="#BitstreamVeraSans-Roman-61"/>
      <use x="89.0625" xlink:href="#BitstreamVeraSans-Roman-6e"/>
      <use x="152.44140625" xlink:href="#BitstreamVeraSans-Roman-75"/>
      <use x="215.8203125" xlink:href="#BitstreamVeraSans-Roman-73"/>
      <use x="267.919921875" xlink:href="#BitstreamVeraSans-Roman-52"/>
      <use x="337.40234375" xlink:href="#BitstreamVeraSans-Roman-4f"/>
      <use x="416.11328125" xlink:href="#BitstreamVeraSans-Roman-43"/>
      <use x="485.9375" xlink:href="#BitstreamVeraSans-Roman-20"/>
      <use x="517.724609375" xlink:href="#BitstreamVeraSans-Roman-63"/>
      <use x="572.705078125" xlink:href="#BitstreamVeraSans-Roman-75"/>
      <use x="636.083984375" xlink:href="#BitstreamVeraSans-Roman-72"/>
      <use x="677.197265625" xlink:href="#BitstreamVeraSans-Roman-76"/>
      <use x="736.376953125" xlink:href="#BitstreamVeraSans-Roman-65"/>
      <use x="797.900390625" xlink:href="#BitstreamVeraSans-Roman-20"/>
      <use x="829.6875" xlink:href="#BitstreamVeraSans-Roman-2d"/>
      <use x="865.771484375" xlink:href="#BitstreamVeraSans-Roman-20"/>
      <use x="897.55859375" xlink:href="#BitstreamVeraSans-Roman-32"/>
      <use x="961.181640625" xlink:href="#BitstreamVeraSans-Roman-20"/>
      <use x="992.96875" xlink:href="#BitstreamVeraSans-Roman-28"/>
      <use x="1031.982421875" xlink:href="#BitstreamVeraSans-Roman-41"/>
      <use x="1100.390625" xlink:href="#BitstreamVeraSans-Roman-55"/>
      <use x="1173.583984375" xlink:href="#BitstreamVeraSans-Roman-43"/>
      <use x="1243.408203125" xlink:href="#BitstreamVeraSans-Roman-20"/>
      <use x="1275.1953125" xlink:href="#BitstreamVeraSans-Roman-3d"/>
      <use x="1358.984375" xlink:href="#BitstreamVeraSans-Roman-20"/>
      <use x="1390.771484375" xlink:href="#BitstreamVeraSans-Roman-30"/>
      <use x="1454.39453125" xlink:href="#BitstreamVeraSans-Roman-2e"/>
      <use x="1486.181640625" xlink:href="#BitstreamVeraSans-Roman-39"/>
      <use x="1549.8046875" xlink:href="#BitstreamVeraSans-Roman-30"/>
      <use x="1613.427734375" xlink:href="#BitstreamVeraSans-Roman-31"/>
      <use x="1677.05078125" xlink:href="#BitstreamVeraSans-Roman-29"/>
     </g>
    </g>
   </g>
  </g>
 </g>
 <defs>
  <clipPath id="pcadc0aeb86">
   <rect height="345.6" width="446.4" x="46.8975" y="39.2666"/>
  </clipPath>
 </defs>
</svg>
