<?xml version="1.0" encoding="utf-8" standalone="no"?>
<!DOCTYPE svg PUBLIC "-//W3C//DTD SVG 1.1//EN"
  "http://www.w3.org/Graphics/SVG/1.1/DTD/svg11.dtd">
<!-- Created with matplotlib (http://matplotlib.org/) -->
<svg height="424pt" version="1.1" viewBox="0 0 510 424" width="510pt" xmlns="http://www.w3.org/2000/svg" xmlns:xlink="http://www.w3.org/1999/xlink">
 <defs>
  <style type="text/css">
*{stroke-linecap:butt;stroke-linejoin:round;stroke-miterlimit:100000;}
  </style>
 </defs>
 <g id="figure_1">
  <g id="patch_1">
   <path d="M 0 424.2941 
L 510.039375 424.2941 
L 510.039375 0 
L 0 0 
z
" style="fill:#ffffff;"/>
  </g>
  <g id="axes_1">
   <g id="patch_2">
    <path d="M 46.8975 384.8666 
L 493.2975 384.8666 
L 493.2975 39.2666 
L 46.8975 39.2666 
z
" style="fill:#ffffff;"/>
   </g>
   <g id="line2d_1">
    <path clip-path="url(#p5d36ae2c4a)" d="M 46.8975 384.8666 
L 47.229934 384.8666 
L 47.510656 382.691647 
L 47.584531 382.691647 
L 47.651017 381.604171 
L 48.1312 376.166789 
L 48.463634 376.166789 
L 48.929042 371.454391 
L 49.542199 369.279438 
L 50.990134 356.954706 
L 51.034459 355.504737 
L 51.256081 355.504737 
L 51.315181 353.329784 
L 55.341328 319.618016 
L 56.279531 315.993095 
L 56.575028 315.993095 
L 56.781876 314.905618 
L 56.951787 311.643189 
L 57.062598 311.643189 
L 57.313771 307.293283 
L 57.60188 300.768425 
L 57.675755 300.768425 
L 57.742242 298.593472 
L 58.37756 295.331043 
L 58.421885 293.881075 
L 59.12369 293.881075 
L 59.300989 292.793598 
L 59.448737 292.793598 
L 59.515224 291.706122 
L 59.736847 291.706122 
L 59.877208 289.531169 
L 59.988019 289.531169 
L 60.261354 288.443693 
L 60.364778 285.543755 
L 60.512526 285.543755 
L 60.630725 283.368803 
L 60.778474 283.368803 
L 60.955772 281.19385 
L 61.014871 280.468866 
L 61.347306 280.468866 
L 61.509829 278.293913 
L 61.672352 273.944007 
L 62.817403 273.944007 
L 62.906052 272.856531 
L 63.312361 272.856531 
L 63.452722 270.681578 
L 65.299579 270.681578 
L 65.60985 266.694165 
L 65.979222 266.694165 
L 66.304268 263.794227 
L 66.488954 263.794227 
L 66.821388 258.356845 
L 66.991299 257.631861 
L 67.065173 257.631861 
L 67.139048 257.269369 
L 67.323733 251.831987 
L 67.656167 251.831987 
L 67.766979 251.469495 
L 67.93689 250.744511 
L 68.786444 250.744511 
L 68.94158 249.294542 
L 69.495637 249.294542 
L 69.695097 246.032113 
L 69.990594 246.032113 
L 70.160505 243.85716 
L 70.345191 243.494668 
L 70.419065 243.494668 
L 70.559426 242.407192 
L 70.781049 242.407192 
L 71.128258 238.057286 
L 71.534566 238.057286 
L 71.734027 235.882333 
L 71.874388 234.794857 
L 71.985199 234.794857 
L 72.044299 233.70738 
L 73.004664 233.70738 
L 73.174575 232.257412 
L 73.654758 232.257412 
L 73.758181 231.169935 
L 74.533861 231.169935 
L 74.62251 230.082459 
L 75.435127 230.082459 
L 75.479452 228.63249 
L 75.693687 227.545014 
L 76.358555 227.545014 
L 76.43243 227.182522 
L 76.498917 226.095046 
L 76.831351 226.095046 
L 77.001262 225.007569 
L 77.222884 225.007569 
L 77.333696 224.645077 
L 77.887753 224.645077 
L 78.065051 222.470124 
L 78.766856 222.470124 
L 78.944155 220.295171 
L 79.224877 218.845203 
L 79.291364 217.757726 
L 79.734609 217.757726 
L 80.052269 216.67025 
L 80.126143 216.67025 
L 80.19263 215.582774 
L 80.968309 215.582774 
L 81.16777 214.495297 
L 81.68489 214.495297 
L 81.995162 211.232868 
L 82.327596 211.232868 
L 82.416245 210.145392 
L 83.598233 210.145392 
L 83.775531 208.695423 
L 84.514274 208.695423 
L 84.765446 207.607947 
L 85.208692 207.607947 
L 85.430315 206.157978 
L 85.87356 206.157978 
L 85.976984 205.070502 
L 86.198607 205.070502 
L 86.346356 204.345518 
L 86.826538 204.345518 
L 87.129423 202.170565 
L 87.351046 201.083088 
L 87.498794 201.083088 
L 87.639155 200.358104 
L 87.779516 199.270628 
L 87.890328 199.270628 
L 87.978977 198.183151 
L 88.348348 198.183151 
L 88.577358 196.370691 
L 90.239529 196.370691 
L 90.402053 195.283214 
L 90.512864 195.283214 
L 90.579351 194.195738 
L 90.911785 194.195738 
L 91.081696 193.108261 
L 91.281156 192.020785 
L 94.19919 192.020785 
L 94.265676 189.845832 
L 94.782796 189.845832 
L 94.88622 188.758356 
L 95.698837 188.758356 
L 95.802261 187.670879 
L 96.245507 187.670879 
L 96.385868 186.583403 
L 96.86605 186.583403 
L 96.976862 185.495927 
L 97.530919 185.495927 
L 97.819028 184.40845 
L 98.557771 184.40845 
L 99.030566 182.233497 
L 99.658498 182.233497 
L 99.761922 181.146021 
L 100.279041 181.146021 
L 100.382465 180.058545 
L 101.084271 180.058545 
L 101.150758 179.33356 
L 104.918345 179.33356 
L 105.184292 176.071131 
L 105.62015 176.071131 
L 105.716187 175.346147 
L 105.900873 174.983655 
L 106.19637 174.983655 
L 106.366281 174.25867 
L 106.846463 174.25867 
L 106.957275 173.896178 
L 108.914943 173.896178 
L 108.988817 173.171194 
L 109.542874 173.171194 
L 109.609361 172.083718 
L 111.123783 172.083718 
L 111.227207 170.996241 
L 111.892075 170.996241 
L 112.076761 169.908765 
L 112.520006 169.908765 
L 112.734242 168.821288 
L 112.955865 168.096304 
L 113.546859 168.096304 
L 113.798031 167.008828 
L 114.20434 167.008828 
L 114.389025 166.283844 
L 114.647585 166.283844 
L 114.706685 164.108891 
L 116.368856 164.108891 
L 116.501829 163.021414 
L 120.971222 163.021414 
L 121.118971 162.29643 
L 121.215007 160.121477 
L 121.842938 160.121477 
L 122.020237 159.034001 
L 122.95844 159.034001 
L 123.143125 158.671509 
L 125.987284 158.671509 
L 126.208907 158.309017 
L 126.799901 158.309017 
L 126.910713 157.946524 
L 127.944952 157.946524 
L 128.040989 157.22154 
L 128.188737 157.22154 
L 128.432522 156.134064 
L 128.617208 156.134064 
L 128.794506 155.046587 
L 129.90262 155.046587 
L 129.991269 153.959111 
L 130.730012 153.959111 
L 130.789111 152.871635 
L 131.232357 152.871635 
L 131.365331 151.784158 
L 133.913993 151.784158 
L 134.010029 151.059174 
L 135.41364 151.059174 
L 135.627875 150.696682 
L 138.878343 150.696682 
L 138.981767 149.246713 
L 139.20339 149.246713 
L 139.314201 148.884221 
L 140.016007 148.884221 
L 140.104656 147.796745 
L 140.658713 147.796745 
L 140.961597 145.621792 
L 141.294031 145.621792 
L 141.545204 143.809331 
L 141.766827 143.809331 
L 141.914575 143.084347 
L 142.025387 143.084347 
L 142.15836 142.359363 
L 145.039456 142.359363 
L 145.17243 141.634378 
L 146.058921 141.634378 
L 146.576041 141.271886 
L 147.758029 141.271886 
L 147.964877 140.546902 
L 148.408123 140.546902 
L 148.570646 138.371949 
L 149.93732 138.371949 
L 150.151555 138.009457 
L 150.447052 138.009457 
L 150.624351 137.646965 
L 151.954087 137.646965 
L 152.101836 136.921981 
L 153.357698 136.921981 
L 153.512834 134.747028 
L 160.715575 134.747028 
L 160.937197 134.384536 
L 161.639003 134.384536 
L 161.853238 134.022044 
L 164.254152 134.022044 
L 164.446225 129.672138 
L 167.585881 129.672138 
L 167.67453 128.584662 
L 168.45021 128.584662 
L 169.078141 128.22217 
L 169.462287 127.134693 
L 170.311841 127.134693 
L 170.489139 124.95974 
L 171.190945 124.95974 
L 171.23527 121.697311 
L 174.374926 121.697311 
L 175.22448 121.334819 
L 178.733507 121.334819 
L 178.910805 120.972327 
L 179.206302 120.972327 
L 184.672998 120.609835 
L 189.91807 120.609835 
L 190.087981 119.88485 
L 191.159158 119.88485 
L 192.599706 118.797374 
L 193.486197 118.797374 
L 193.597008 118.434882 
L 196.847476 118.434882 
L 196.906575 117.709898 
L 200.600288 117.709898 
L 200.659388 116.622421 
L 203.835981 116.622421 
L 203.909855 111.185039 
L 205.608963 111.185039 
L 209.98232 108.647594 
L 210.299979 107.92261 
L 210.373853 107.92261 
L 215.397303 103.210212 
L 219.238765 103.210212 
L 219.408675 102.485228 
L 220.221292 102.485228 
L 220.391203 100.310275 
L 222.23806 100.310275 
L 222.371033 99.585291 
L 222.481845 99.585291 
L 222.777342 98.497815 
L 222.888153 98.497815 
L 223.18365 98.135322 
L 224.107078 98.135322 
L 224.365638 97.410338 
L 225.806187 97.410338 
L 225.887448 95.96037 
L 226.109071 95.96037 
L 226.219882 95.597878 
L 226.308531 94.510401 
L 232.314509 94.510401 
L 232.388383 93.785417 
L 233.97668 93.785417 
L 234.161365 93.422925 
L 239.147878 93.422925 
L 239.812746 92.335448 
L 240.588426 92.335448 
L 240.743562 91.247972 
L 241.999425 91.247972 
L 242.110236 90.88548 
L 246.062509 90.88548 
L 246.128996 88.710527 
L 246.387556 88.710527 
L 251.122896 87.623051 
L 252.194073 87.623051 
L 252.282722 86.535574 
L 253.907956 86.535574 
L 254.122191 86.173082 
L 255.282017 86.173082 
L 255.50364 85.81059 
L 255.909948 85.81059 
L 255.998597 84.723114 
L 257.771579 84.723114 
L 258.022752 82.185669 
L 259.98042 82.185669 
L 260.202043 81.460684 
L 261.494842 81.460684 
L 261.694303 80.373208 
L 268.786232 80.373208 
L 268.852719 80.010716 
L 275.353654 80.010716 
L 275.516177 78.923239 
L 277.193123 78.923239 
L 277.348259 77.473271 
L 278.456373 77.473271 
L 278.545022 76.385794 
L 279.690073 76.385794 
L 279.763947 76.023302 
L 280.281067 76.023302 
L 280.369716 74.935826 
L 287.646331 74.935826 
L 287.73498 73.84835 
L 290.246705 73.84835 
L 290.387066 71.673397 
L 295.151956 71.673397 
L 295.410516 69.860936 
L 316.72324 69.860936 
L 316.922701 68.77346 
L 318.547934 68.77346 
L 318.658746 68.410968 
L 320.02542 68.410968 
L 321.00056 67.323491 
L 330.862774 67.323491 
L 331.121334 66.598507 
L 335.664601 66.598507 
L 335.745862 65.148538 
L 337.777405 65.148538 
L 337.873441 62.973586 
L 345.888799 62.973586 
L 346.147359 62.611093 
L 351.916938 62.611093 
L 352.012975 61.886109 
L 353.785957 61.886109 
L 353.874606 60.798633 
L 359.045805 60.798633 
L 359.252652 60.073648 
L 373.177951 60.073648 
L 373.362636 59.711156 
L 386.918563 59.711156 
L 387.177123 57.898696 
L 387.768117 57.898696 
L 387.827217 57.173711 
L 400.430166 57.173711 
L 400.755213 56.811219 
L 448.145551 56.811219 
L 448.330237 56.448727 
L 472.738293 56.448727 
L 472.908204 55.723743 
L 493.2975 55.723743 
L 493.2975 55.723743 
" style="fill:none;stroke:#0000ff;stroke-linecap:square;"/>
   </g>
   <g id="line2d_2">
    <path clip-path="url(#p5d36ae2c4a)" d="M 46.8975 384.8666 
L 46.971374 383.779124 
L 47.045249 383.779124 
L 47.192997 378.341742 
L 47.680567 374.354328 
L 47.828316 373.266852 
L 49.19499 362.75458 
L 49.527424 360.579627 
L 49.601298 360.579627 
L 49.859858 359.492151 
L 50.014994 352.967292 
L 50.347428 351.879816 
L 51.233919 344.629973 
L 51.344731 344.629973 
L 51.492479 342.45502 
L 52.600593 335.56767 
L 52.822216 335.56767 
L 53.117713 332.305241 
L 53.560958 332.305241 
L 53.819518 329.767796 
L 54.632135 321.792969 
L 54.853758 321.792969 
L 55.814123 314.543126 
L 56.035746 314.543126 
L 56.153945 311.280697 
L 56.552866 305.843315 
L 57.069986 301.855901 
L 57.476294 301.855901 
L 57.683142 299.318457 
L 57.867828 298.593472 
L 58.311073 293.881075 
L 58.60657 293.881075 
L 58.717382 293.15609 
L 58.86513 293.15609 
L 59.271439 292.068614 
L 59.603873 292.068614 
L 59.788559 290.256153 
L 59.965857 288.0812 
L 60.172705 285.906248 
L 60.394328 285.906248 
L 60.505139 284.456279 
L 60.800636 284.456279 
L 60.948385 283.368803 
L 61.059196 283.368803 
L 61.16262 281.918834 
L 61.310368 281.918834 
L 61.531991 280.468866 
L 61.820101 276.481452 
L 62.263346 276.481452 
L 62.521906 274.306499 
L 62.632718 273.581515 
L 62.85434 270.681578 
L 62.965152 270.681578 
L 63.445335 268.144133 
L 63.556146 265.606688 
L 64.073266 265.606688 
L 64.368763 261.981767 
L 64.649485 260.89429 
L 64.944982 260.89429 
L 65.129668 258.719338 
L 65.262641 257.994353 
L 65.484264 257.994353 
L 65.853636 254.369432 
L 65.964447 254.369432 
L 66.259944 249.294542 
L 66.592378 249.294542 
L 66.814001 247.482081 
L 67.146435 247.482081 
L 67.316346 245.669621 
L 67.870403 245.669621 
L 67.981214 244.944637 
L 69.015454 244.944637 
L 69.547349 242.769684 
L 69.621223 242.769684 
L 69.732034 242.044699 
L 70.359965 242.044699 
L 70.670237 239.144762 
L 70.854923 239.144762 
L 71.032221 236.96981 
L 71.283394 235.519841 
L 71.357268 235.519841 
L 71.578891 235.157349 
L 71.652765 235.157349 
L 71.800514 234.069872 
L 71.911325 234.069872 
L 71.992587 231.89492 
L 72.214209 231.89492 
L 72.325021 230.807443 
L 72.657455 230.807443 
L 72.982502 226.457538 
L 73.314936 226.457538 
L 73.484847 225.370061 
L 73.595658 224.645077 
L 73.669532 222.470124 
L 74.112778 222.470124 
L 74.223589 221.74514 
L 75.405578 221.74514 
L 75.575488 220.657664 
L 75.6863 219.570187 
L 77.200722 219.570187 
L 77.289371 218.482711 
L 78.065051 218.482711 
L 78.397485 217.032742 
L 78.508296 217.032742 
L 78.678207 214.857789 
L 79.010641 214.857789 
L 79.232264 214.132805 
L 79.306139 214.132805 
L 79.638573 212.320344 
L 79.860195 212.320344 
L 80.044881 211.59536 
L 80.118755 211.59536 
L 80.229567 210.507884 
L 82.11336 210.507884 
L 82.20201 209.7829 
L 84.048866 209.7829 
L 84.292651 207.970439 
L 84.366525 207.970439 
L 84.551211 207.245455 
L 84.772834 207.245455 
L 84.846708 206.52047 
L 87.13681 206.52047 
L 87.277171 204.345518 
L 87.387983 204.345518 
L 87.609606 203.620533 
L 87.978977 203.620533 
L 88.038076 202.895549 
L 90.032681 202.895549 
L 90.254304 202.170565 
L 91.029984 202.170565 
L 91.140795 201.083088 
L 91.362418 201.083088 
L 91.436292 199.995612 
L 91.657915 199.995612 
L 91.761339 198.908136 
L 92.093773 198.908136 
L 92.182422 197.820659 
L 92.367108 197.820659 
L 92.500082 196.733183 
L 93.497384 196.733183 
L 93.645133 195.283214 
L 94.125315 195.283214 
L 94.310001 193.470754 
L 95.270366 193.470754 
L 95.359016 192.745769 
L 95.580638 192.745769 
L 95.913073 190.570816 
L 96.393255 190.570816 
L 96.614878 188.395864 
L 97.427495 188.395864 
L 97.722992 186.945895 
L 98.757232 186.945895 
L 98.87543 182.59599 
L 100.759224 182.59599 
L 100.921747 181.871005 
L 103.1823 181.871005 
L 103.293111 180.421037 
L 104.622848 180.421037 
L 104.800146 179.33356 
L 105.021769 178.608576 
L 107.533494 178.608576 
L 107.592593 177.5211 
L 107.814216 177.5211 
L 107.925027 176.433623 
L 109.254764 176.433623 
L 109.550261 175.346147 
L 114.167403 175.346147 
L 114.869208 174.25867 
L 115.238579 174.25867 
L 115.349391 173.533686 
L 116.235882 173.533686 
L 116.420568 172.808702 
L 116.716065 172.808702 
L 116.804714 171.721226 
L 117.912828 171.721226 
L 118.112288 170.996241 
L 119.257339 170.996241 
L 119.959145 164.108891 
L 122.323121 164.108891 
L 123.135738 161.571446 
L 123.431235 161.571446 
L 123.608533 159.396493 
L 126.415755 159.396493 
L 126.593053 158.309017 
L 126.703865 158.309017 
L 127.036299 156.859048 
L 131.025509 156.859048 
L 131.188032 155.771572 
L 131.372718 155.771572 
L 131.668215 155.046587 
L 133.1457 155.046587 
L 133.884443 150.696682 
L 135.694362 150.696682 
L 135.915985 149.609205 
L 137.245722 149.609205 
L 137.356533 148.884221 
L 138.021402 148.884221 
L 138.132213 147.796745 
L 139.942132 147.796745 
L 140.141593 146.709268 
L 140.326279 146.709268 
L 140.880335 144.896808 
L 141.175833 144.896808 
L 141.220157 143.446839 
L 141.921963 143.446839 
L 142.143585 141.996871 
L 143.103951 141.996871 
L 143.473322 141.271886 
L 145.135493 141.271886 
L 145.179818 139.821918 
L 147.765417 139.821918 
L 147.935327 139.096934 
L 148.895693 139.096934 
L 149.058216 138.009457 
L 149.575336 135.10952 
L 150.646513 135.10952 
L 150.720387 134.384536 
L 151.015884 134.384536 
L 151.20057 133.297059 
L 153.564546 133.297059 
L 153.786169 132.572075 
L 153.860043 132.572075 
L 154.081666 131.484599 
L 154.21464 130.759614 
L 155.433565 130.759614 
L 155.603476 129.309646 
L 156.046721 129.309646 
L 156.268344 128.22217 
L 158.964755 128.22217 
L 159.962057 125.684725 
L 160.035931 125.684725 
L 160.294491 124.597248 
L 161.882788 124.597248 
L 161.927113 123.14728 
L 162.518107 123.14728 
L 162.65108 122.422295 
L 165.458302 122.422295 
L 165.569114 121.334819 
L 165.716862 121.334819 
L 165.849836 120.609835 
L 168.657058 120.609835 
L 168.841743 119.522358 
L 168.952555 119.522358 
L 169.100303 118.434882 
L 169.543549 118.434882 
L 169.765172 117.347406 
L 171.685903 117.347406 
L 172.018337 115.534945 
L 172.498519 115.534945 
L 172.587169 114.447468 
L 174.914208 114.447468 
L 175.246642 113.722484 
L 175.357453 112.635008 
L 175.985385 112.635008 
L 176.17007 111.910024 
L 177.536744 111.910024 
L 177.72143 111.185039 
L 180.41784 111.185039 
L 180.550814 110.097563 
L 180.772437 110.097563 
L 180.957122 109.372579 
L 181.658928 109.372579 
L 181.880551 108.647594 
L 182.877853 108.647594 
L 182.988665 107.92261 
L 184.576961 107.92261 
L 184.66561 106.835134 
L 185.625976 106.835134 
L 185.803274 104.660181 
L 189.164553 104.660181 
L 189.46005 103.572704 
L 191.824026 103.572704 
L 191.868351 101.397752 
L 192.385471 101.397752 
L 192.806554 98.497815 
L 193.693045 98.497815 
L 193.877731 97.77283 
L 194.616473 97.77283 
L 194.749447 96.685354 
L 196.744052 96.685354 
L 196.928738 95.96037 
L 197.335046 95.96037 
L 197.423695 94.872893 
L 199.787672 94.872893 
L 199.920645 93.785417 
L 200.216142 93.785417 
L 200.437765 93.422925 
L 201.730565 93.422925 
L 201.848764 91.972956 
L 202.181198 91.972956 
L 202.40282 90.88548 
L 205.394728 90.88548 
L 205.483377 89.798003 
L 208.327536 89.798003 
L 208.438348 88.710527 
L 211.24557 88.710527 
L 211.334219 87.985543 
L 213.254949 87.985543 
L 213.432248 85.81059 
L 214.17099 85.81059 
L 214.392613 85.085606 
L 219.009754 85.085606 
L 219.054079 83.635637 
L 221.713552 83.635637 
L 221.772652 82.548161 
L 229.677198 82.548161 
L 229.788009 82.185669 
L 231.745677 82.185669 
L 231.856489 81.460684 
L 234.072716 81.460684 
L 234.183528 80.7357 
L 242.642131 80.7357 
L 242.752942 80.373208 
L 243.388261 80.373208 
L 243.890606 79.285732 
L 246.328456 79.285732 
L 246.394943 77.110779 
L 250.051719 77.110779 
L 250.22163 76.023302 
L 251.920738 76.023302 
L 251.979837 75.298318 
L 256.47878 75.298318 
L 256.663466 74.573334 
L 259.322939 74.573334 
L 259.507625 73.84835 
L 272.775442 73.84835 
L 272.930578 72.398381 
L 276.735102 72.398381 
L 276.897626 71.310905 
L 285.311904 71.310905 
L 285.400553 70.223428 
L 287.616781 70.223428 
L 287.70543 69.135952 
L 307.230398 69.135952 
L 307.378146 68.410968 
L 307.488957 68.410968 
L 307.577607 67.323491 
L 315.51909 67.323491 
L 315.629901 66.598507 
L 318.880369 66.598507 
L 319.028117 65.873523 
L 323.977693 65.873523 
L 324.199315 65.148538 
L 329.850696 65.148538 
L 330.035382 64.061062 
L 331.106559 64.061062 
L 331.195208 62.973586 
L 351.732253 62.973586 
L 351.843064 61.886109 
L 354.4656 61.886109 
L 354.576412 60.798633 
L 381.444481 60.798633 
L 381.680878 58.986172 
L 402.328734 58.986172 
L 402.402609 57.536204 
L 412.161399 57.536204 
L 412.383021 56.448727 
L 456.227396 56.448727 
L 456.286495 55.723743 
L 493.2975 55.723743 
L 493.2975 55.723743 
" style="fill:none;stroke:#008000;stroke-linecap:square;"/>
   </g>
   <g id="line2d_3">
    <path clip-path="url(#p5d36ae2c4a)" d="M 46.8975 384.8666 
L 47.22994 382.689249 
L 47.451566 382.689249 
L 47.673193 381.963466 
L 48.485823 381.963466 
L 48.818263 380.149007 
L 51.14534 366.72201 
L 52.364286 363.093092 
L 52.585912 359.464174 
L 53.029165 356.198148 
L 58.126574 327.529697 
L 58.237387 324.626562 
L 58.754515 323.174995 
L 58.865328 323.174995 
L 59.308581 322.449211 
L 59.530208 320.997644 
L 59.751834 320.997644 
L 60.084274 319.183185 
L 60.195087 319.183185 
L 60.416714 315.917159 
L 60.859966 315.917159 
L 61.192406 312.651133 
L 61.258894 310.473782 
L 61.960711 310.473782 
L 62.182338 308.659323 
L 62.278376 306.481972 
L 62.500002 306.481972 
L 62.610815 305.393297 
L 63.164882 305.393297 
L 63.726335 295.595219 
L 63.837148 295.595219 
L 63.866699 293.417868 
L 64.605454 293.417868 
L 65.174295 287.611599 
L 65.506734 285.434248 
L 65.802236 283.256898 
L 66.023863 283.256898 
L 66.223327 282.168222 
L 66.489278 279.62798 
L 66.821718 279.62798 
L 67.080282 275.999062 
L 67.191095 275.999062 
L 67.590023 271.64436 
L 67.922463 270.555685 
L 68.107151 270.555685 
L 68.181027 269.104118 
L 68.735093 269.104118 
L 68.845906 267.652551 
L 69.067533 267.652551 
L 69.178346 266.563875 
L 69.510786 266.563875 
L 69.621599 265.4752 
L 69.954039 265.4752 
L 70.027914 264.749416 
L 70.471167 264.749416 
L 70.58198 263.660741 
L 71.136046 262.209174 
L 71.209922 262.209174 
L 71.387223 260.031823 
L 71.793538 260.031823 
L 72.162916 257.128689 
L 72.495355 257.128689 
L 72.716982 254.951338 
L 72.938608 253.499771 
L 73.160235 251.32242 
L 73.714301 251.32242 
L 73.921152 249.145069 
L 74.105841 249.145069 
L 74.216654 246.967718 
L 74.549094 246.967718 
L 74.659907 245.879043 
L 74.992347 245.879043 
L 75.10316 244.790368 
L 76.395981 244.790368 
L 76.661933 242.250125 
L 76.883559 242.250125 
L 77.105185 240.798558 
L 77.179061 240.798558 
L 77.4524 237.895423 
L 77.563213 237.895423 
L 77.747902 236.806748 
L 78.080342 236.806748 
L 78.301968 234.992289 
L 79.410101 234.992289 
L 79.520914 233.903614 
L 79.74254 233.903614 
L 79.853353 232.814938 
L 81.072299 232.814938 
L 81.375188 228.097345 
L 81.744566 228.097345 
L 81.855379 227.00867 
L 82.704947 227.00867 
L 82.926574 225.919994 
L 83.739204 225.919994 
L 83.90173 225.194211 
L 84.418858 225.194211 
L 84.588772 223.742643 
L 84.884274 223.742643 
L 85.083738 223.01686 
L 85.268426 223.01686 
L 85.453115 220.839509 
L 85.674742 219.750834 
L 86.154932 219.750834 
L 86.354396 216.484808 
L 86.465209 216.484808 
L 86.576022 214.307457 
L 86.797649 214.307457 
L 87.019275 213.218781 
L 87.462528 213.218781 
L 87.647217 212.130106 
L 87.868843 212.130106 
L 87.979657 211.041431 
L 88.496785 211.041431 
L 88.555885 210.315647 
L 90.402773 210.315647 
L 90.491423 209.589864 
L 93.705007 209.589864 
L 93.793657 208.501188 
L 94.458537 208.501188 
L 94.680163 207.412513 
L 95.345042 207.412513 
L 95.529731 205.960946 
L 95.972984 205.960946 
L 96.061635 204.87227 
L 96.837327 204.87227 
L 97.022016 202.694919 
L 98.09321 202.694919 
L 98.277899 201.606244 
L 98.388712 201.606244 
L 98.573401 200.154677 
L 98.795028 200.154677 
L 98.905841 197.977326 
L 99.127467 197.977326 
L 99.216118 196.888651 
L 99.659371 196.888651 
L 99.858835 194.7113 
L 100.191274 194.7113 
L 100.412901 192.533949 
L 100.634527 190.71949 
L 101.07778 190.71949 
L 101.373282 188.905031 
L 101.89041 188.905031 
L 102.038161 188.179248 
L 103.441796 188.179248 
L 103.552609 187.090572 
L 103.774235 187.090572 
L 103.885048 186.001897 
L 104.771554 186.001897 
L 104.993181 183.824546 
L 105.768873 183.824546 
L 105.968337 182.372979 
L 106.522403 182.372979 
L 106.817905 181.284304 
L 107.667473 181.284304 
L 107.756124 180.195628 
L 110.083202 180.195628 
L 110.363928 179.469845 
L 110.917994 179.469845 
L 111.028808 178.744061 
L 111.582874 178.744061 
L 111.693687 177.655386 
L 112.986508 177.655386 
L 113.318948 174.389359 
L 113.725263 174.389359 
L 113.836076 173.300684 
L 114.611769 173.300684 
L 114.796457 172.212009 
L 115.609088 172.212009 
L 115.808552 171.486225 
L 116.104053 171.486225 
L 116.192704 170.39755 
L 117.854902 170.39755 
L 117.914003 169.671766 
L 120.832084 169.671766 
L 120.987223 168.220199 
L 121.127586 166.042848 
L 122.420407 166.042848 
L 122.486895 164.591281 
L 122.708522 162.41393 
L 123.040961 162.41393 
L 123.462052 159.510796 
L 123.905305 159.510796 
L 124.016118 158.422121 
L 125.419752 158.422121 
L 125.567503 157.696337 
L 129.335153 157.696337 
L 129.445966 156.607662 
L 130.664911 156.607662 
L 130.709237 155.156094 
L 131.115552 155.156094 
L 131.204202 154.067419 
L 131.610518 154.067419 
L 131.684393 153.341635 
L 133.457405 153.341635 
L 133.568218 152.615852 
L 135.48898 152.615852 
L 135.777095 151.164285 
L 135.961784 151.164285 
L 136.072597 150.075609 
L 137.217667 150.075609 
L 137.32848 147.898259 
L 138.030297 147.898259 
L 138.118948 146.809583 
L 138.562201 146.809583 
L 138.783827 144.632232 
L 139.005454 144.632232 
L 139.22708 143.543557 
L 139.411769 143.543557 
L 139.574295 141.729098 
L 140.239174 141.729098 
L 140.386925 141.003314 
L 140.497738 141.003314 
L 140.608552 139.914639 
L 140.904053 139.914639 
L 140.963154 139.188855 
L 142.66229 139.188855 
L 142.920854 138.10018 
L 147.427259 123.584508 
L 148.535391 123.584508 
L 148.867831 121.407158 
L 150.566967 121.407158 
L 152.746294 118.504023 
L 153.374235 118.504023 
L 153.485048 117.77824 
L 154.851745 117.77824 
L 155.738251 115.963781 
L 155.812126 115.963781 
L 155.908164 114.875105 
L 157.12711 114.875105 
L 157.237923 112.697755 
L 158.863184 112.697755 
L 159.08481 111.246187 
L 160.747008 111.246187 
L 160.857822 109.068837 
L 163.591215 109.068837 
L 163.753741 108.343053 
L 171.104351 108.343053 
L 171.28904 107.254378 
L 171.510667 107.254378 
L 171.695355 106.165702 
L 172.212484 106.165702 
L 172.360235 105.80281 
L 173.837744 105.80281 
L 174.00027 104.714135 
L 174.554336 104.714135 
L 174.775963 103.62546 
L 176.844476 103.62546 
L 176.918352 102.899676 
L 177.583231 102.899676 
L 177.671882 101.811001 
L 179.371018 101.811001 
L 179.481831 100.722325 
L 179.740395 100.722325 
L 179.939859 99.63365 
L 180.050672 98.544975 
L 190.577929 98.544975 
L 190.925144 97.819191 
L 196.502743 97.819191 
L 196.687431 97.093407 
L 201.747902 97.093407 
L 201.932591 94.916057 
L 211.167026 94.916057 
L 211.240902 94.553165 
L 211.462528 94.553165 
L 211.573342 93.827381 
L 214.158983 93.827381 
L 214.358447 92.738706 
L 227.249719 92.738706 
L 227.508283 92.012922 
L 229.022731 92.012922 
L 229.185257 91.287139 
L 233.950226 91.287139 
L 234.134914 90.561355 
L 237.496249 90.561355 
L 237.570124 89.835571 
L 247.210875 89.835571 
L 247.432501 88.746896 
L 248.503696 88.746896 
L 248.592347 88.021113 
L 251.030238 88.021113 
L 251.251864 86.932437 
L 257.900658 86.932437 
L 258.048409 86.569545 
L 260.006109 86.569545 
L 260.116922 85.48087 
L 264.881891 85.48087 
L 265.06658 85.117978 
L 270.681116 85.117978 
L 270.769767 84.029303 
L 281.260086 84.029303 
L 281.592525 81.851952 
L 283.956541 81.851952 
L 284.14123 79.674601 
L 285.43405 79.674601 
L 285.544864 78.585926 
L 286.394432 78.585926 
L 286.57912 78.223034 
L 288.204381 78.223034 
L 288.263482 77.49725 
L 298.827676 77.49725 
L 298.938489 76.408575 
L 302.373699 76.408575 
L 302.543613 75.682792 
L 302.728301 75.682792 
L 302.816952 74.594116 
L 303.740395 74.594116 
L 303.851209 74.231224 
L 306.141349 74.231224 
L 306.252162 73.142549 
L 309.908998 73.142549 
L 310.093687 72.779657 
L 315.228033 72.779657 
L 315.316684 71.690982 
L 320.524905 71.690982 
L 320.591393 70.965198 
L 323.391274 70.965198 
L 323.502087 69.876523 
L 341.527706 69.876523 
L 341.690232 69.150739 
L 348.708403 69.150739 
L 348.782278 68.424956 
L 358.127527 68.424956 
L 358.216177 67.33628 
L 358.881057 67.33628 
L 359.065745 65.15893 
L 368.12288 65.15893 
L 368.344506 64.796038 
L 378.8496 64.796038 
L 378.938251 64.070254 
L 409.4045 64.070254 
L 409.537476 63.344471 
L 417.516028 63.344471 
L 417.589904 62.981579 
L 418.550285 62.981579 
L 418.609386 62.255795 
L 433.872061 62.255795 
L 433.982874 61.16712 
L 452.939323 61.16712 
L 453.079686 58.989769 
L 462.166371 58.989769 
L 462.255022 57.901094 
L 465.173103 57.901094 
L 465.446443 56.812418 
L 475.862886 56.812418 
L 476.010637 56.449526 
L 487.941527 56.449526 
L 488.126216 55.723743 
L 493.2975 55.723743 
L 493.2975 55.723743 
" style="fill:none;stroke:#ff0000;stroke-linecap:square;"/>
   </g>
   <g id="line2d_4">
    <path clip-path="url(#p5d36ae2c4a)" d="M 46.8975 384.8666 
L 493.2975 55.723743 
" style="fill:none;stroke:#000000;stroke-dasharray:6.000000,6.000000;stroke-dashoffset:0.0;"/>
   </g>
   <g id="patch_3">
    <path d="M 46.8975 384.8666 
L 46.8975 39.2666 
" style="fill:none;stroke:#000000;stroke-linecap:square;stroke-linejoin:miter;"/>
   </g>
   <g id="patch_4">
    <path d="M 493.2975 384.8666 
L 493.2975 39.2666 
" style="fill:none;stroke:#000000;stroke-linecap:square;stroke-linejoin:miter;"/>
   </g>
   <g id="patch_5">
    <path d="M 46.8975 39.2666 
L 493.2975 39.2666 
" style="fill:none;stroke:#000000;stroke-linecap:square;stroke-linejoin:miter;"/>
   </g>
   <g id="patch_6">
    <path d="M 46.8975 384.8666 
L 493.2975 384.8666 
" style="fill:none;stroke:#000000;stroke-linecap:square;stroke-linejoin:miter;"/>
   </g>
   <g id="matplotlib.axis_1">
    <g id="xtick_1">
     <g id="line2d_5">
      <defs>
       <path d="M 0 0 
L 0 -4 
" id="m465c7f2bd6" style="stroke:#000000;stroke-width:0.5;"/>
      </defs>
      <g>
       <use style="stroke:#000000;stroke-width:0.5;" x="46.8975" xlink:href="#m465c7f2bd6" y="384.8666"/>
      </g>
     </g>
     <g id="line2d_6">
      <defs>
       <path d="M 0 0 
L 0 4 
" id="m97e63f01c6" style="stroke:#000000;stroke-width:0.5;"/>
      </defs>
      <g>
       <use style="stroke:#000000;stroke-width:0.5;" x="46.8975" xlink:href="#m97e63f01c6" y="39.2666"/>
      </g>
     </g>
     <g id="text_1">
      <!-- 0.0 -->
      <defs>
       <path d="M 31.78125 66.40625 
Q 24.171875 66.40625 20.328125 58.90625 
Q 16.5 51.421875 16.5 36.375 
Q 16.5 21.390625 20.328125 13.890625 
Q 24.171875 6.390625 31.78125 6.390625 
Q 39.453125 6.390625 43.28125 13.890625 
Q 47.125 21.390625 47.125 36.375 
Q 47.125 51.421875 43.28125 58.90625 
Q 39.453125 66.40625 31.78125 66.40625 
M 31.78125 74.21875 
Q 44.046875 74.21875 50.515625 64.515625 
Q 56.984375 54.828125 56.984375 36.375 
Q 56.984375 17.96875 50.515625 8.265625 
Q 44.046875 -1.421875 31.78125 -1.421875 
Q 19.53125 -1.421875 13.0625 8.265625 
Q 6.59375 17.96875 6.59375 36.375 
Q 6.59375 54.828125 13.0625 64.515625 
Q 19.53125 74.21875 31.78125 74.21875 
" id="BitstreamVeraSans-Roman-30"/>
       <path d="M 10.6875 12.40625 
L 21 12.40625 
L 21 0 
L 10.6875 0 
z
" id="BitstreamVeraSans-Roman-2e"/>
      </defs>
      <g transform="translate(37.355625 397.984725)scale(0.12 -0.12)">
       <use xlink:href="#BitstreamVeraSans-Roman-30"/>
       <use x="63.623046875" xlink:href="#BitstreamVeraSans-Roman-2e"/>
       <use x="95.41015625" xlink:href="#BitstreamVeraSans-Roman-30"/>
      </g>
     </g>
    </g>
    <g id="xtick_2">
     <g id="line2d_7">
      <g>
       <use style="stroke:#000000;stroke-width:0.5;" x="136.1775" xlink:href="#m465c7f2bd6" y="384.8666"/>
      </g>
     </g>
     <g id="line2d_8">
      <g>
       <use style="stroke:#000000;stroke-width:0.5;" x="136.1775" xlink:href="#m97e63f01c6" y="39.2666"/>
      </g>
     </g>
     <g id="text_2">
      <!-- 0.2 -->
      <defs>
       <path d="M 19.1875 8.296875 
L 53.609375 8.296875 
L 53.609375 0 
L 7.328125 0 
L 7.328125 8.296875 
Q 12.9375 14.109375 22.625 23.890625 
Q 32.328125 33.6875 34.8125 36.53125 
Q 39.546875 41.84375 41.421875 45.53125 
Q 43.3125 49.21875 43.3125 52.78125 
Q 43.3125 58.59375 39.234375 62.25 
Q 35.15625 65.921875 28.609375 65.921875 
Q 23.96875 65.921875 18.8125 64.3125 
Q 13.671875 62.703125 7.8125 59.421875 
L 7.8125 69.390625 
Q 13.765625 71.78125 18.9375 73 
Q 24.125 74.21875 28.421875 74.21875 
Q 39.75 74.21875 46.484375 68.546875 
Q 53.21875 62.890625 53.21875 53.421875 
Q 53.21875 48.921875 51.53125 44.890625 
Q 49.859375 40.875 45.40625 35.40625 
Q 44.1875 33.984375 37.640625 27.21875 
Q 31.109375 20.453125 19.1875 8.296875 
" id="BitstreamVeraSans-Roman-32"/>
      </defs>
      <g transform="translate(126.635625 397.984725)scale(0.12 -0.12)">
       <use xlink:href="#BitstreamVeraSans-Roman-30"/>
       <use x="63.623046875" xlink:href="#BitstreamVeraSans-Roman-2e"/>
       <use x="95.41015625" xlink:href="#BitstreamVeraSans-Roman-32"/>
      </g>
     </g>
    </g>
    <g id="xtick_3">
     <g id="line2d_9">
      <g>
       <use style="stroke:#000000;stroke-width:0.5;" x="225.4575" xlink:href="#m465c7f2bd6" y="384.8666"/>
      </g>
     </g>
     <g id="line2d_10">
      <g>
       <use style="stroke:#000000;stroke-width:0.5;" x="225.4575" xlink:href="#m97e63f01c6" y="39.2666"/>
      </g>
     </g>
     <g id="text_3">
      <!-- 0.4 -->
      <defs>
       <path d="M 37.796875 64.3125 
L 12.890625 25.390625 
L 37.796875 25.390625 
z
M 35.203125 72.90625 
L 47.609375 72.90625 
L 47.609375 25.390625 
L 58.015625 25.390625 
L 58.015625 17.1875 
L 47.609375 17.1875 
L 47.609375 0 
L 37.796875 0 
L 37.796875 17.1875 
L 4.890625 17.1875 
L 4.890625 26.703125 
z
" id="BitstreamVeraSans-Roman-34"/>
      </defs>
      <g transform="translate(215.915625 397.984725)scale(0.12 -0.12)">
       <use xlink:href="#BitstreamVeraSans-Roman-30"/>
       <use x="63.623046875" xlink:href="#BitstreamVeraSans-Roman-2e"/>
       <use x="95.41015625" xlink:href="#BitstreamVeraSans-Roman-34"/>
      </g>
     </g>
    </g>
    <g id="xtick_4">
     <g id="line2d_11">
      <g>
       <use style="stroke:#000000;stroke-width:0.5;" x="314.7375" xlink:href="#m465c7f2bd6" y="384.8666"/>
      </g>
     </g>
     <g id="line2d_12">
      <g>
       <use style="stroke:#000000;stroke-width:0.5;" x="314.7375" xlink:href="#m97e63f01c6" y="39.2666"/>
      </g>
     </g>
     <g id="text_4">
      <!-- 0.6 -->
      <defs>
       <path d="M 33.015625 40.375 
Q 26.375 40.375 22.484375 35.828125 
Q 18.609375 31.296875 18.609375 23.390625 
Q 18.609375 15.53125 22.484375 10.953125 
Q 26.375 6.390625 33.015625 6.390625 
Q 39.65625 6.390625 43.53125 10.953125 
Q 47.40625 15.53125 47.40625 23.390625 
Q 47.40625 31.296875 43.53125 35.828125 
Q 39.65625 40.375 33.015625 40.375 
M 52.59375 71.296875 
L 52.59375 62.3125 
Q 48.875 64.0625 45.09375 64.984375 
Q 41.3125 65.921875 37.59375 65.921875 
Q 27.828125 65.921875 22.671875 59.328125 
Q 17.53125 52.734375 16.796875 39.40625 
Q 19.671875 43.65625 24.015625 45.921875 
Q 28.375 48.1875 33.59375 48.1875 
Q 44.578125 48.1875 50.953125 41.515625 
Q 57.328125 34.859375 57.328125 23.390625 
Q 57.328125 12.15625 50.6875 5.359375 
Q 44.046875 -1.421875 33.015625 -1.421875 
Q 20.359375 -1.421875 13.671875 8.265625 
Q 6.984375 17.96875 6.984375 36.375 
Q 6.984375 53.65625 15.1875 63.9375 
Q 23.390625 74.21875 37.203125 74.21875 
Q 40.921875 74.21875 44.703125 73.484375 
Q 48.484375 72.75 52.59375 71.296875 
" id="BitstreamVeraSans-Roman-36"/>
      </defs>
      <g transform="translate(305.195625 397.984725)scale(0.12 -0.12)">
       <use xlink:href="#BitstreamVeraSans-Roman-30"/>
       <use x="63.623046875" xlink:href="#BitstreamVeraSans-Roman-2e"/>
       <use x="95.41015625" xlink:href="#BitstreamVeraSans-Roman-36"/>
      </g>
     </g>
    </g>
    <g id="xtick_5">
     <g id="line2d_13">
      <g>
       <use style="stroke:#000000;stroke-width:0.5;" x="404.0175" xlink:href="#m465c7f2bd6" y="384.8666"/>
      </g>
     </g>
     <g id="line2d_14">
      <g>
       <use style="stroke:#000000;stroke-width:0.5;" x="404.0175" xlink:href="#m97e63f01c6" y="39.2666"/>
      </g>
     </g>
     <g id="text_5">
      <!-- 0.8 -->
      <defs>
       <path d="M 31.78125 34.625 
Q 24.75 34.625 20.71875 30.859375 
Q 16.703125 27.09375 16.703125 20.515625 
Q 16.703125 13.921875 20.71875 10.15625 
Q 24.75 6.390625 31.78125 6.390625 
Q 38.8125 6.390625 42.859375 10.171875 
Q 46.921875 13.96875 46.921875 20.515625 
Q 46.921875 27.09375 42.890625 30.859375 
Q 38.875 34.625 31.78125 34.625 
M 21.921875 38.8125 
Q 15.578125 40.375 12.03125 44.71875 
Q 8.5 49.078125 8.5 55.328125 
Q 8.5 64.0625 14.71875 69.140625 
Q 20.953125 74.21875 31.78125 74.21875 
Q 42.671875 74.21875 48.875 69.140625 
Q 55.078125 64.0625 55.078125 55.328125 
Q 55.078125 49.078125 51.53125 44.71875 
Q 48 40.375 41.703125 38.8125 
Q 48.828125 37.15625 52.796875 32.3125 
Q 56.78125 27.484375 56.78125 20.515625 
Q 56.78125 9.90625 50.3125 4.234375 
Q 43.84375 -1.421875 31.78125 -1.421875 
Q 19.734375 -1.421875 13.25 4.234375 
Q 6.78125 9.90625 6.78125 20.515625 
Q 6.78125 27.484375 10.78125 32.3125 
Q 14.796875 37.15625 21.921875 38.8125 
M 18.3125 54.390625 
Q 18.3125 48.734375 21.84375 45.5625 
Q 25.390625 42.390625 31.78125 42.390625 
Q 38.140625 42.390625 41.71875 45.5625 
Q 45.3125 48.734375 45.3125 54.390625 
Q 45.3125 60.0625 41.71875 63.234375 
Q 38.140625 66.40625 31.78125 66.40625 
Q 25.390625 66.40625 21.84375 63.234375 
Q 18.3125 60.0625 18.3125 54.390625 
" id="BitstreamVeraSans-Roman-38"/>
      </defs>
      <g transform="translate(394.475625 397.984725)scale(0.12 -0.12)">
       <use xlink:href="#BitstreamVeraSans-Roman-30"/>
       <use x="63.623046875" xlink:href="#BitstreamVeraSans-Roman-2e"/>
       <use x="95.41015625" xlink:href="#BitstreamVeraSans-Roman-38"/>
      </g>
     </g>
    </g>
    <g id="xtick_6">
     <g id="line2d_15">
      <g>
       <use style="stroke:#000000;stroke-width:0.5;" x="493.2975" xlink:href="#m465c7f2bd6" y="384.8666"/>
      </g>
     </g>
     <g id="line2d_16">
      <g>
       <use style="stroke:#000000;stroke-width:0.5;" x="493.2975" xlink:href="#m97e63f01c6" y="39.2666"/>
      </g>
     </g>
     <g id="text_6">
      <!-- 1.0 -->
      <defs>
       <path d="M 12.40625 8.296875 
L 28.515625 8.296875 
L 28.515625 63.921875 
L 10.984375 60.40625 
L 10.984375 69.390625 
L 28.421875 72.90625 
L 38.28125 72.90625 
L 38.28125 8.296875 
L 54.390625 8.296875 
L 54.390625 0 
L 12.40625 0 
z
" id="BitstreamVeraSans-Roman-31"/>
      </defs>
      <g transform="translate(483.755625 397.984725)scale(0.12 -0.12)">
       <use xlink:href="#BitstreamVeraSans-Roman-31"/>
       <use x="63.623046875" xlink:href="#BitstreamVeraSans-Roman-2e"/>
       <use x="95.41015625" xlink:href="#BitstreamVeraSans-Roman-30"/>
      </g>
     </g>
    </g>
    <g id="text_7">
     <!-- False Positive Rate -->
     <defs>
      <path d="M 9.421875 54.6875 
L 18.40625 54.6875 
L 18.40625 0 
L 9.421875 0 
z
M 9.421875 75.984375 
L 18.40625 75.984375 
L 18.40625 64.59375 
L 9.421875 64.59375 
z
" id="BitstreamVeraSans-Roman-69"/>
      <path d="M 44.28125 53.078125 
L 44.28125 44.578125 
Q 40.484375 46.53125 36.375 47.5 
Q 32.28125 48.484375 27.875 48.484375 
Q 21.1875 48.484375 17.84375 46.4375 
Q 14.5 44.390625 14.5 40.28125 
Q 14.5 37.15625 16.890625 35.375 
Q 19.28125 33.59375 26.515625 31.984375 
L 29.59375 31.296875 
Q 39.15625 29.25 43.1875 25.515625 
Q 47.21875 21.78125 47.21875 15.09375 
Q 47.21875 7.46875 41.1875 3.015625 
Q 35.15625 -1.421875 24.609375 -1.421875 
Q 20.21875 -1.421875 15.453125 -0.5625 
Q 10.6875 0.296875 5.421875 2 
L 5.421875 11.28125 
Q 10.40625 8.6875 15.234375 7.390625 
Q 20.0625 6.109375 24.8125 6.109375 
Q 31.15625 6.109375 34.5625 8.28125 
Q 37.984375 10.453125 37.984375 14.40625 
Q 37.984375 18.0625 35.515625 20.015625 
Q 33.0625 21.96875 24.703125 23.78125 
L 21.578125 24.515625 
Q 13.234375 26.265625 9.515625 29.90625 
Q 5.8125 33.546875 5.8125 39.890625 
Q 5.8125 47.609375 11.28125 51.796875 
Q 16.75 56 26.8125 56 
Q 31.78125 56 36.171875 55.265625 
Q 40.578125 54.546875 44.28125 53.078125 
" id="BitstreamVeraSans-Roman-73"/>
      <path id="BitstreamVeraSans-Roman-20"/>
      <path d="M 19.671875 64.796875 
L 19.671875 37.40625 
L 32.078125 37.40625 
Q 38.96875 37.40625 42.71875 40.96875 
Q 46.484375 44.53125 46.484375 51.125 
Q 46.484375 57.671875 42.71875 61.234375 
Q 38.96875 64.796875 32.078125 64.796875 
z
M 9.8125 72.90625 
L 32.078125 72.90625 
Q 44.34375 72.90625 50.609375 67.359375 
Q 56.890625 61.8125 56.890625 51.125 
Q 56.890625 40.328125 50.609375 34.8125 
Q 44.34375 29.296875 32.078125 29.296875 
L 19.671875 29.296875 
L 19.671875 0 
L 9.8125 0 
z
" id="BitstreamVeraSans-Roman-50"/>
      <path d="M 44.390625 34.1875 
Q 47.5625 33.109375 50.5625 29.59375 
Q 53.5625 26.078125 56.59375 19.921875 
L 66.609375 0 
L 56 0 
L 46.6875 18.703125 
Q 43.0625 26.03125 39.671875 28.421875 
Q 36.28125 30.8125 30.421875 30.8125 
L 19.671875 30.8125 
L 19.671875 0 
L 9.8125 0 
L 9.8125 72.90625 
L 32.078125 72.90625 
Q 44.578125 72.90625 50.734375 67.671875 
Q 56.890625 62.453125 56.890625 51.90625 
Q 56.890625 45.015625 53.6875 40.46875 
Q 50.484375 35.9375 44.390625 34.1875 
M 19.671875 64.796875 
L 19.671875 38.921875 
L 32.078125 38.921875 
Q 39.203125 38.921875 42.84375 42.21875 
Q 46.484375 45.515625 46.484375 51.90625 
Q 46.484375 58.296875 42.84375 61.546875 
Q 39.203125 64.796875 32.078125 64.796875 
z
" id="BitstreamVeraSans-Roman-52"/>
      <path d="M 30.609375 48.390625 
Q 23.390625 48.390625 19.1875 42.75 
Q 14.984375 37.109375 14.984375 27.296875 
Q 14.984375 17.484375 19.15625 11.84375 
Q 23.34375 6.203125 30.609375 6.203125 
Q 37.796875 6.203125 41.984375 11.859375 
Q 46.1875 17.53125 46.1875 27.296875 
Q 46.1875 37.015625 41.984375 42.703125 
Q 37.796875 48.390625 30.609375 48.390625 
M 30.609375 56 
Q 42.328125 56 49.015625 48.375 
Q 55.71875 40.765625 55.71875 27.296875 
Q 55.71875 13.875 49.015625 6.21875 
Q 42.328125 -1.421875 30.609375 -1.421875 
Q 18.84375 -1.421875 12.171875 6.21875 
Q 5.515625 13.875 5.515625 27.296875 
Q 5.515625 40.765625 12.171875 48.375 
Q 18.84375 56 30.609375 56 
" id="BitstreamVeraSans-Roman-6f"/>
      <path d="M 9.8125 72.90625 
L 51.703125 72.90625 
L 51.703125 64.59375 
L 19.671875 64.59375 
L 19.671875 43.109375 
L 48.578125 43.109375 
L 48.578125 34.8125 
L 19.671875 34.8125 
L 19.671875 0 
L 9.8125 0 
z
" id="BitstreamVeraSans-Roman-46"/>
      <path d="M 18.3125 70.21875 
L 18.3125 54.6875 
L 36.8125 54.6875 
L 36.8125 47.703125 
L 18.3125 47.703125 
L 18.3125 18.015625 
Q 18.3125 11.328125 20.140625 9.421875 
Q 21.96875 7.515625 27.59375 7.515625 
L 36.8125 7.515625 
L 36.8125 0 
L 27.59375 0 
Q 17.1875 0 13.234375 3.875 
Q 9.28125 7.765625 9.28125 18.015625 
L 9.28125 47.703125 
L 2.6875 47.703125 
L 2.6875 54.6875 
L 9.28125 54.6875 
L 9.28125 70.21875 
z
" id="BitstreamVeraSans-Roman-74"/>
      <path d="M 9.421875 75.984375 
L 18.40625 75.984375 
L 18.40625 0 
L 9.421875 0 
z
" id="BitstreamVeraSans-Roman-6c"/>
      <path d="M 2.984375 54.6875 
L 12.5 54.6875 
L 29.59375 8.796875 
L 46.6875 54.6875 
L 56.203125 54.6875 
L 35.6875 0 
L 23.484375 0 
z
" id="BitstreamVeraSans-Roman-76"/>
      <path d="M 34.28125 27.484375 
Q 23.390625 27.484375 19.1875 25 
Q 14.984375 22.515625 14.984375 16.5 
Q 14.984375 11.71875 18.140625 8.90625 
Q 21.296875 6.109375 26.703125 6.109375 
Q 34.1875 6.109375 38.703125 11.40625 
Q 43.21875 16.703125 43.21875 25.484375 
L 43.21875 27.484375 
z
M 52.203125 31.203125 
L 52.203125 0 
L 43.21875 0 
L 43.21875 8.296875 
Q 40.140625 3.328125 35.546875 0.953125 
Q 30.953125 -1.421875 24.3125 -1.421875 
Q 15.921875 -1.421875 10.953125 3.296875 
Q 6 8.015625 6 15.921875 
Q 6 25.140625 12.171875 29.828125 
Q 18.359375 34.515625 30.609375 34.515625 
L 43.21875 34.515625 
L 43.21875 35.40625 
Q 43.21875 41.609375 39.140625 45 
Q 35.0625 48.390625 27.6875 48.390625 
Q 23 48.390625 18.546875 47.265625 
Q 14.109375 46.140625 10.015625 43.890625 
L 10.015625 52.203125 
Q 14.9375 54.109375 19.578125 55.046875 
Q 24.21875 56 28.609375 56 
Q 40.484375 56 46.34375 49.84375 
Q 52.203125 43.703125 52.203125 31.203125 
" id="BitstreamVeraSans-Roman-61"/>
      <path d="M 56.203125 29.59375 
L 56.203125 25.203125 
L 14.890625 25.203125 
Q 15.484375 15.921875 20.484375 11.0625 
Q 25.484375 6.203125 34.421875 6.203125 
Q 39.59375 6.203125 44.453125 7.46875 
Q 49.3125 8.734375 54.109375 11.28125 
L 54.109375 2.78125 
Q 49.265625 0.734375 44.1875 -0.34375 
Q 39.109375 -1.421875 33.890625 -1.421875 
Q 20.796875 -1.421875 13.15625 6.1875 
Q 5.515625 13.8125 5.515625 26.8125 
Q 5.515625 40.234375 12.765625 48.109375 
Q 20.015625 56 32.328125 56 
Q 43.359375 56 49.78125 48.890625 
Q 56.203125 41.796875 56.203125 29.59375 
M 47.21875 32.234375 
Q 47.125 39.59375 43.09375 43.984375 
Q 39.0625 48.390625 32.421875 48.390625 
Q 24.90625 48.390625 20.390625 44.140625 
Q 15.875 39.890625 15.1875 32.171875 
z
" id="BitstreamVeraSans-Roman-65"/>
     </defs>
     <g transform="translate(213.4509375 414.598475)scale(0.12 -0.12)">
      <use xlink:href="#BitstreamVeraSans-Roman-46"/>
      <use x="57.37890625" xlink:href="#BitstreamVeraSans-Roman-61"/>
      <use x="118.658203125" xlink:href="#BitstreamVeraSans-Roman-6c"/>
      <use x="146.44140625" xlink:href="#BitstreamVeraSans-Roman-73"/>
      <use x="198.541015625" xlink:href="#BitstreamVeraSans-Roman-65"/>
      <use x="260.064453125" xlink:href="#BitstreamVeraSans-Roman-20"/>
      <use x="291.8515625" xlink:href="#BitstreamVeraSans-Roman-50"/>
      <use x="352.107421875" xlink:href="#BitstreamVeraSans-Roman-6f"/>
      <use x="413.2890625" xlink:href="#BitstreamVeraSans-Roman-73"/>
      <use x="465.388671875" xlink:href="#BitstreamVeraSans-Roman-69"/>
      <use x="493.171875" xlink:href="#BitstreamVeraSans-Roman-74"/>
      <use x="532.380859375" xlink:href="#BitstreamVeraSans-Roman-69"/>
      <use x="560.1640625" xlink:href="#BitstreamVeraSans-Roman-76"/>
      <use x="619.34375" xlink:href="#BitstreamVeraSans-Roman-65"/>
      <use x="680.8671875" xlink:href="#BitstreamVeraSans-Roman-20"/>
      <use x="712.654296875" xlink:href="#BitstreamVeraSans-Roman-52"/>
      <use x="782.10546875" xlink:href="#BitstreamVeraSans-Roman-61"/>
      <use x="843.384765625" xlink:href="#BitstreamVeraSans-Roman-74"/>
      <use x="882.59375" xlink:href="#BitstreamVeraSans-Roman-65"/>
     </g>
    </g>
   </g>
   <g id="matplotlib.axis_2">
    <g id="ytick_1">
     <g id="line2d_17">
      <defs>
       <path d="M 0 0 
L 4 0 
" id="me5314d1da5" style="stroke:#000000;stroke-width:0.5;"/>
      </defs>
      <g>
       <use style="stroke:#000000;stroke-width:0.5;" x="46.8975" xlink:href="#me5314d1da5" y="384.8666"/>
      </g>
     </g>
     <g id="line2d_18">
      <defs>
       <path d="M 0 0 
L -4 0 
" id="ma591fcfc50" style="stroke:#000000;stroke-width:0.5;"/>
      </defs>
      <g>
       <use style="stroke:#000000;stroke-width:0.5;" x="493.2975" xlink:href="#ma591fcfc50" y="384.8666"/>
      </g>
     </g>
     <g id="text_8">
      <!-- 0.0 -->
      <g transform="translate(23.81375 388.17785)scale(0.12 -0.12)">
       <use xlink:href="#BitstreamVeraSans-Roman-30"/>
       <use x="63.623046875" xlink:href="#BitstreamVeraSans-Roman-2e"/>
       <use x="95.41015625" xlink:href="#BitstreamVeraSans-Roman-30"/>
      </g>
     </g>
    </g>
    <g id="ytick_2">
     <g id="line2d_19">
      <g>
       <use style="stroke:#000000;stroke-width:0.5;" x="46.8975" xlink:href="#me5314d1da5" y="319.038028571"/>
      </g>
     </g>
     <g id="line2d_20">
      <g>
       <use style="stroke:#000000;stroke-width:0.5;" x="493.2975" xlink:href="#ma591fcfc50" y="319.038028571"/>
      </g>
     </g>
     <g id="text_9">
      <!-- 0.2 -->
      <g transform="translate(23.81375 322.349278571)scale(0.12 -0.12)">
       <use xlink:href="#BitstreamVeraSans-Roman-30"/>
       <use x="63.623046875" xlink:href="#BitstreamVeraSans-Roman-2e"/>
       <use x="95.41015625" xlink:href="#BitstreamVeraSans-Roman-32"/>
      </g>
     </g>
    </g>
    <g id="ytick_3">
     <g id="line2d_21">
      <g>
       <use style="stroke:#000000;stroke-width:0.5;" x="46.8975" xlink:href="#me5314d1da5" y="253.209457143"/>
      </g>
     </g>
     <g id="line2d_22">
      <g>
       <use style="stroke:#000000;stroke-width:0.5;" x="493.2975" xlink:href="#ma591fcfc50" y="253.209457143"/>
      </g>
     </g>
     <g id="text_10">
      <!-- 0.4 -->
      <g transform="translate(23.81375 256.520707143)scale(0.12 -0.12)">
       <use xlink:href="#BitstreamVeraSans-Roman-30"/>
       <use x="63.623046875" xlink:href="#BitstreamVeraSans-Roman-2e"/>
       <use x="95.41015625" xlink:href="#BitstreamVeraSans-Roman-34"/>
      </g>
     </g>
    </g>
    <g id="ytick_4">
     <g id="line2d_23">
      <g>
       <use style="stroke:#000000;stroke-width:0.5;" x="46.8975" xlink:href="#me5314d1da5" y="187.380885714"/>
      </g>
     </g>
     <g id="line2d_24">
      <g>
       <use style="stroke:#000000;stroke-width:0.5;" x="493.2975" xlink:href="#ma591fcfc50" y="187.380885714"/>
      </g>
     </g>
     <g id="text_11">
      <!-- 0.6 -->
      <g transform="translate(23.81375 190.692135714)scale(0.12 -0.12)">
       <use xlink:href="#BitstreamVeraSans-Roman-30"/>
       <use x="63.623046875" xlink:href="#BitstreamVeraSans-Roman-2e"/>
       <use x="95.41015625" xlink:href="#BitstreamVeraSans-Roman-36"/>
      </g>
     </g>
    </g>
    <g id="ytick_5">
     <g id="line2d_25">
      <g>
       <use style="stroke:#000000;stroke-width:0.5;" x="46.8975" xlink:href="#me5314d1da5" y="121.552314286"/>
      </g>
     </g>
     <g id="line2d_26">
      <g>
       <use style="stroke:#000000;stroke-width:0.5;" x="493.2975" xlink:href="#ma591fcfc50" y="121.552314286"/>
      </g>
     </g>
     <g id="text_12">
      <!-- 0.8 -->
      <g transform="translate(23.81375 124.863564286)scale(0.12 -0.12)">
       <use xlink:href="#BitstreamVeraSans-Roman-30"/>
       <use x="63.623046875" xlink:href="#BitstreamVeraSans-Roman-2e"/>
       <use x="95.41015625" xlink:href="#BitstreamVeraSans-Roman-38"/>
      </g>
     </g>
    </g>
    <g id="ytick_6">
     <g id="line2d_27">
      <g>
       <use style="stroke:#000000;stroke-width:0.5;" x="46.8975" xlink:href="#me5314d1da5" y="55.7237428571"/>
      </g>
     </g>
     <g id="line2d_28">
      <g>
       <use style="stroke:#000000;stroke-width:0.5;" x="493.2975" xlink:href="#ma591fcfc50" y="55.7237428571"/>
      </g>
     </g>
     <g id="text_13">
      <!-- 1.0 -->
      <g transform="translate(23.81375 59.0349928571)scale(0.12 -0.12)">
       <use xlink:href="#BitstreamVeraSans-Roman-31"/>
       <use x="63.623046875" xlink:href="#BitstreamVeraSans-Roman-2e"/>
       <use x="95.41015625" xlink:href="#BitstreamVeraSans-Roman-30"/>
      </g>
     </g>
    </g>
    <g id="text_14">
     <!-- True Positive Rate -->
     <defs>
      <path d="M -0.296875 72.90625 
L 61.375 72.90625 
L 61.375 64.59375 
L 35.5 64.59375 
L 35.5 0 
L 25.59375 0 
L 25.59375 64.59375 
L -0.296875 64.59375 
z
" id="BitstreamVeraSans-Roman-54"/>
      <path d="M 41.109375 46.296875 
Q 39.59375 47.171875 37.8125 47.578125 
Q 36.03125 48 33.890625 48 
Q 26.265625 48 22.1875 43.046875 
Q 18.109375 38.09375 18.109375 28.8125 
L 18.109375 0 
L 9.078125 0 
L 9.078125 54.6875 
L 18.109375 54.6875 
L 18.109375 46.1875 
Q 20.953125 51.171875 25.484375 53.578125 
Q 30.03125 56 36.53125 56 
Q 37.453125 56 38.578125 55.875 
Q 39.703125 55.765625 41.0625 55.515625 
z
" id="BitstreamVeraSans-Roman-72"/>
      <path d="M 8.5 21.578125 
L 8.5 54.6875 
L 17.484375 54.6875 
L 17.484375 21.921875 
Q 17.484375 14.15625 20.5 10.265625 
Q 23.53125 6.390625 29.59375 6.390625 
Q 36.859375 6.390625 41.078125 11.03125 
Q 45.3125 15.671875 45.3125 23.6875 
L 45.3125 54.6875 
L 54.296875 54.6875 
L 54.296875 0 
L 45.3125 0 
L 45.3125 8.40625 
Q 42.046875 3.421875 37.71875 1 
Q 33.40625 -1.421875 27.6875 -1.421875 
Q 18.265625 -1.421875 13.375 4.4375 
Q 8.5 10.296875 8.5 21.578125 
" id="BitstreamVeraSans-Roman-75"/>
     </defs>
     <g transform="translate(16.318125 266.7219125)rotate(-90.0)scale(0.12 -0.12)">
      <use xlink:href="#BitstreamVeraSans-Roman-54"/>
      <use x="60.865234375" xlink:href="#BitstreamVeraSans-Roman-72"/>
      <use x="101.978515625" xlink:href="#BitstreamVeraSans-Roman-75"/>
      <use x="165.357421875" xlink:href="#BitstreamVeraSans-Roman-65"/>
      <use x="226.880859375" xlink:href="#BitstreamVeraSans-Roman-20"/>
      <use x="258.66796875" xlink:href="#BitstreamVeraSans-Roman-50"/>
      <use x="318.923828125" xlink:href="#BitstreamVeraSans-Roman-6f"/>
      <use x="380.10546875" xlink:href="#BitstreamVeraSans-Roman-73"/>
      <use x="432.205078125" xlink:href="#BitstreamVeraSans-Roman-69"/>
      <use x="459.98828125" xlink:href="#BitstreamVeraSans-Roman-74"/>
      <use x="499.197265625" xlink:href="#BitstreamVeraSans-Roman-69"/>
      <use x="526.98046875" xlink:href="#BitstreamVeraSans-Roman-76"/>
      <use x="586.16015625" xlink:href="#BitstreamVeraSans-Roman-65"/>
      <use x="647.68359375" xlink:href="#BitstreamVeraSans-Roman-20"/>
      <use x="679.470703125" xlink:href="#BitstreamVeraSans-Roman-52"/>
      <use x="748.921875" xlink:href="#BitstreamVeraSans-Roman-61"/>
      <use x="810.201171875" xlink:href="#BitstreamVeraSans-Roman-74"/>
      <use x="849.41015625" xlink:href="#BitstreamVeraSans-Roman-65"/>
     </g>
    </g>
   </g>
   <g id="text_15">
    <!-- ROC Curve GradientBoosting + SMOTE -->
    <defs>
     <path d="M 64.40625 67.28125 
L 64.40625 56.890625 
Q 59.421875 61.53125 53.78125 63.8125 
Q 48.140625 66.109375 41.796875 66.109375 
Q 29.296875 66.109375 22.65625 58.46875 
Q 16.015625 50.828125 16.015625 36.375 
Q 16.015625 21.96875 22.65625 14.328125 
Q 29.296875 6.6875 41.796875 6.6875 
Q 48.140625 6.6875 53.78125 8.984375 
Q 59.421875 11.28125 64.40625 15.921875 
L 64.40625 5.609375 
Q 59.234375 2.09375 53.4375 0.328125 
Q 47.65625 -1.421875 41.21875 -1.421875 
Q 24.65625 -1.421875 15.125 8.703125 
Q 5.609375 18.84375 5.609375 36.375 
Q 5.609375 53.953125 15.125 64.078125 
Q 24.65625 74.21875 41.21875 74.21875 
Q 47.75 74.21875 53.53125 72.484375 
Q 59.328125 70.75 64.40625 67.28125 
" id="BitstreamVeraSans-Roman-43"/>
     <path d="M 45.40625 46.390625 
L 45.40625 75.984375 
L 54.390625 75.984375 
L 54.390625 0 
L 45.40625 0 
L 45.40625 8.203125 
Q 42.578125 3.328125 38.25 0.953125 
Q 33.9375 -1.421875 27.875 -1.421875 
Q 17.96875 -1.421875 11.734375 6.484375 
Q 5.515625 14.40625 5.515625 27.296875 
Q 5.515625 40.1875 11.734375 48.09375 
Q 17.96875 56 27.875 56 
Q 33.9375 56 38.25 53.625 
Q 42.578125 51.265625 45.40625 46.390625 
M 14.796875 27.296875 
Q 14.796875 17.390625 18.875 11.75 
Q 22.953125 6.109375 30.078125 6.109375 
Q 37.203125 6.109375 41.296875 11.75 
Q 45.40625 17.390625 45.40625 27.296875 
Q 45.40625 37.203125 41.296875 42.84375 
Q 37.203125 48.484375 30.078125 48.484375 
Q 22.953125 48.484375 18.875 42.84375 
Q 14.796875 37.203125 14.796875 27.296875 
" id="BitstreamVeraSans-Roman-64"/>
     <path d="M 9.8125 72.90625 
L 24.515625 72.90625 
L 43.109375 23.296875 
L 61.8125 72.90625 
L 76.515625 72.90625 
L 76.515625 0 
L 66.890625 0 
L 66.890625 64.015625 
L 48.09375 14.015625 
L 38.1875 14.015625 
L 19.390625 64.015625 
L 19.390625 0 
L 9.8125 0 
z
" id="BitstreamVeraSans-Roman-4d"/>
     <path d="M 53.515625 70.515625 
L 53.515625 60.890625 
Q 47.90625 63.578125 42.921875 64.890625 
Q 37.9375 66.21875 33.296875 66.21875 
Q 25.25 66.21875 20.875 63.09375 
Q 16.5 59.96875 16.5 54.203125 
Q 16.5 49.359375 19.40625 46.890625 
Q 22.3125 44.4375 30.421875 42.921875 
L 36.375 41.703125 
Q 47.40625 39.59375 52.65625 34.296875 
Q 57.90625 29 57.90625 20.125 
Q 57.90625 9.515625 50.796875 4.046875 
Q 43.703125 -1.421875 29.984375 -1.421875 
Q 24.8125 -1.421875 18.96875 -0.25 
Q 13.140625 0.921875 6.890625 3.21875 
L 6.890625 13.375 
Q 12.890625 10.015625 18.65625 8.296875 
Q 24.421875 6.59375 29.984375 6.59375 
Q 38.421875 6.59375 43.015625 9.90625 
Q 47.609375 13.234375 47.609375 19.390625 
Q 47.609375 24.75 44.3125 27.78125 
Q 41.015625 30.8125 33.5 32.328125 
L 27.484375 33.5 
Q 16.453125 35.6875 11.515625 40.375 
Q 6.59375 45.0625 6.59375 53.421875 
Q 6.59375 63.09375 13.40625 68.65625 
Q 20.21875 74.21875 32.171875 74.21875 
Q 37.3125 74.21875 42.625 73.28125 
Q 47.953125 72.359375 53.515625 70.515625 
" id="BitstreamVeraSans-Roman-53"/>
     <path d="M 39.40625 66.21875 
Q 28.65625 66.21875 22.328125 58.203125 
Q 16.015625 50.203125 16.015625 36.375 
Q 16.015625 22.609375 22.328125 14.59375 
Q 28.65625 6.59375 39.40625 6.59375 
Q 50.140625 6.59375 56.421875 14.59375 
Q 62.703125 22.609375 62.703125 36.375 
Q 62.703125 50.203125 56.421875 58.203125 
Q 50.140625 66.21875 39.40625 66.21875 
M 39.40625 74.21875 
Q 54.734375 74.21875 63.90625 63.9375 
Q 73.09375 53.65625 73.09375 36.375 
Q 73.09375 19.140625 63.90625 8.859375 
Q 54.734375 -1.421875 39.40625 -1.421875 
Q 24.03125 -1.421875 14.8125 8.828125 
Q 5.609375 19.09375 5.609375 36.375 
Q 5.609375 53.65625 14.8125 63.9375 
Q 24.03125 74.21875 39.40625 74.21875 
" id="BitstreamVeraSans-Roman-4f"/>
     <path d="M 59.515625 10.40625 
L 59.515625 29.984375 
L 43.40625 29.984375 
L 43.40625 38.09375 
L 69.28125 38.09375 
L 69.28125 6.78125 
Q 63.578125 2.734375 56.6875 0.65625 
Q 49.8125 -1.421875 42 -1.421875 
Q 24.90625 -1.421875 15.25 8.5625 
Q 5.609375 18.5625 5.609375 36.375 
Q 5.609375 54.25 15.25 64.234375 
Q 24.90625 74.21875 42 74.21875 
Q 49.125 74.21875 55.546875 72.453125 
Q 61.96875 70.703125 67.390625 67.28125 
L 67.390625 56.78125 
Q 61.921875 61.421875 55.765625 63.765625 
Q 49.609375 66.109375 42.828125 66.109375 
Q 29.4375 66.109375 22.71875 58.640625 
Q 16.015625 51.171875 16.015625 36.375 
Q 16.015625 21.625 22.71875 14.15625 
Q 29.4375 6.6875 42.828125 6.6875 
Q 48.046875 6.6875 52.140625 7.59375 
Q 56.25 8.5 59.515625 10.40625 
" id="BitstreamVeraSans-Roman-47"/>
     <path d="M 45.40625 27.984375 
Q 45.40625 37.75 41.375 43.109375 
Q 37.359375 48.484375 30.078125 48.484375 
Q 22.859375 48.484375 18.828125 43.109375 
Q 14.796875 37.75 14.796875 27.984375 
Q 14.796875 18.265625 18.828125 12.890625 
Q 22.859375 7.515625 30.078125 7.515625 
Q 37.359375 7.515625 41.375 12.890625 
Q 45.40625 18.265625 45.40625 27.984375 
M 54.390625 6.78125 
Q 54.390625 -7.171875 48.1875 -13.984375 
Q 42 -20.796875 29.203125 -20.796875 
Q 24.46875 -20.796875 20.265625 -20.09375 
Q 16.0625 -19.390625 12.109375 -17.921875 
L 12.109375 -9.1875 
Q 16.0625 -11.328125 19.921875 -12.34375 
Q 23.78125 -13.375 27.78125 -13.375 
Q 36.625 -13.375 41.015625 -8.765625 
Q 45.40625 -4.15625 45.40625 5.171875 
L 45.40625 9.625 
Q 42.625 4.78125 38.28125 2.390625 
Q 33.9375 0 27.875 0 
Q 17.828125 0 11.671875 7.65625 
Q 5.515625 15.328125 5.515625 27.984375 
Q 5.515625 40.671875 11.671875 48.328125 
Q 17.828125 56 27.875 56 
Q 33.9375 56 38.28125 53.609375 
Q 42.625 51.21875 45.40625 46.390625 
L 45.40625 54.6875 
L 54.390625 54.6875 
z
" id="BitstreamVeraSans-Roman-67"/>
     <path d="M 9.8125 72.90625 
L 55.90625 72.90625 
L 55.90625 64.59375 
L 19.671875 64.59375 
L 19.671875 43.015625 
L 54.390625 43.015625 
L 54.390625 34.71875 
L 19.671875 34.71875 
L 19.671875 8.296875 
L 56.78125 8.296875 
L 56.78125 0 
L 9.8125 0 
z
" id="BitstreamVeraSans-Roman-45"/>
     <path d="M 46 62.703125 
L 46 35.5 
L 73.1875 35.5 
L 73.1875 27.203125 
L 46 27.203125 
L 46 0 
L 37.796875 0 
L 37.796875 27.203125 
L 10.59375 27.203125 
L 10.59375 35.5 
L 37.796875 35.5 
L 37.796875 62.703125 
z
" id="BitstreamVeraSans-Roman-2b"/>
     <path d="M 19.671875 34.8125 
L 19.671875 8.109375 
L 35.5 8.109375 
Q 43.453125 8.109375 47.28125 11.40625 
Q 51.125 14.703125 51.125 21.484375 
Q 51.125 28.328125 47.28125 31.5625 
Q 43.453125 34.8125 35.5 34.8125 
z
M 19.671875 64.796875 
L 19.671875 42.828125 
L 34.28125 42.828125 
Q 41.5 42.828125 45.03125 45.53125 
Q 48.578125 48.25 48.578125 53.8125 
Q 48.578125 59.328125 45.03125 62.0625 
Q 41.5 64.796875 34.28125 64.796875 
z
M 9.8125 72.90625 
L 35.015625 72.90625 
Q 46.296875 72.90625 52.390625 68.21875 
Q 58.5 63.53125 58.5 54.890625 
Q 58.5 48.1875 55.375 44.234375 
Q 52.25 40.28125 46.1875 39.3125 
Q 53.46875 37.75 57.5 32.78125 
Q 61.53125 27.828125 61.53125 20.40625 
Q 61.53125 10.640625 54.890625 5.3125 
Q 48.25 0 35.984375 0 
L 9.8125 0 
z
" id="BitstreamVeraSans-Roman-42"/>
     <path d="M 54.890625 33.015625 
L 54.890625 0 
L 45.90625 0 
L 45.90625 32.71875 
Q 45.90625 40.484375 42.875 44.328125 
Q 39.84375 48.1875 33.796875 48.1875 
Q 26.515625 48.1875 22.3125 43.546875 
Q 18.109375 38.921875 18.109375 30.90625 
L 18.109375 0 
L 9.078125 0 
L 9.078125 54.6875 
L 18.109375 54.6875 
L 18.109375 46.1875 
Q 21.34375 51.125 25.703125 53.5625 
Q 30.078125 56 35.796875 56 
Q 45.21875 56 50.046875 50.171875 
Q 54.890625 44.34375 54.890625 33.015625 
" id="BitstreamVeraSans-Roman-6e"/>
    </defs>
    <g transform="translate(129.77625 18.14175)scale(0.144 -0.144)">
     <use xlink:href="#BitstreamVeraSans-Roman-52"/>
     <use x="69.482421875" xlink:href="#BitstreamVeraSans-Roman-4f"/>
     <use x="148.193359375" xlink:href="#BitstreamVeraSans-Roman-43"/>
     <use x="218.017578125" xlink:href="#BitstreamVeraSans-Roman-20"/>
     <use x="249.8046875" xlink:href="#BitstreamVeraSans-Roman-43"/>
     <use x="319.62890625" xlink:href="#BitstreamVeraSans-Roman-75"/>
     <use x="383.0078125" xlink:href="#BitstreamVeraSans-Roman-72"/>
     <use x="424.12109375" xlink:href="#BitstreamVeraSans-Roman-76"/>
     <use x="483.30078125" xlink:href="#BitstreamVeraSans-Roman-65"/>
     <use x="544.82421875" xlink:href="#BitstreamVeraSans-Roman-20"/>
     <use x="576.611328125" xlink:href="#BitstreamVeraSans-Roman-47"/>
     <use x="654.1015625" xlink:href="#BitstreamVeraSans-Roman-72"/>
     <use x="695.21484375" xlink:href="#BitstreamVeraSans-Roman-61"/>
     <use x="756.494140625" xlink:href="#BitstreamVeraSans-Roman-64"/>
     <use x="819.970703125" xlink:href="#BitstreamVeraSans-Roman-69"/>
     <use x="847.75390625" xlink:href="#BitstreamVeraSans-Roman-65"/>
     <use x="909.27734375" xlink:href="#BitstreamVeraSans-Roman-6e"/>
     <use x="972.65625" xlink:href="#BitstreamVeraSans-Roman-74"/>
     <use x="1011.865234375" xlink:href="#BitstreamVeraSans-Roman-42"/>
     <use x="1080.46875" xlink:href="#BitstreamVeraSans-Roman-6f"/>
     <use x="1141.650390625" xlink:href="#BitstreamVeraSans-Roman-6f"/>
     <use x="1202.83203125" xlink:href="#BitstreamVeraSans-Roman-73"/>
     <use x="1254.931640625" xlink:href="#BitstreamVeraSans-Roman-74"/>
     <use x="1294.140625" xlink:href="#BitstreamVeraSans-Roman-69"/>
     <use x="1321.923828125" xlink:href="#BitstreamVeraSans-Roman-6e"/>
     <use x="1385.302734375" xlink:href="#BitstreamVeraSans-Roman-67"/>
     <use x="1448.779296875" xlink:href="#BitstreamVeraSans-Roman-20"/>
     <use x="1480.56640625" xlink:href="#BitstreamVeraSans-Roman-2b"/>
     <use x="1564.35546875" xlink:href="#BitstreamVeraSans-Roman-20"/>
     <use x="1596.142578125" xlink:href="#BitstreamVeraSans-Roman-53"/>
     <use x="1659.619140625" xlink:href="#BitstreamVeraSans-Roman-4d"/>
     <use x="1745.8984375" xlink:href="#BitstreamVeraSans-Roman-4f"/>
     <use x="1824.609375" xlink:href="#BitstreamVeraSans-Roman-54"/>
     <use x="1885.693359375" xlink:href="#BitstreamVeraSans-Roman-45"/>
    </g>
    <!-- Train: 1   Test: [1, 4, 8, 12, 16, 20, 24, 28] -->
    <defs>
     <path d="M 30.421875 75.984375 
L 30.421875 -13.1875 
L 9.71875 -13.1875 
L 9.71875 -6.203125 
L 21.390625 -6.203125 
L 21.390625 69 
L 9.71875 69 
L 9.71875 75.984375 
z
" id="BitstreamVeraSans-Roman-5d"/>
     <path d="M 11.71875 12.40625 
L 22.015625 12.40625 
L 22.015625 0 
L 11.71875 0 
z
M 11.71875 51.703125 
L 22.015625 51.703125 
L 22.015625 39.3125 
L 11.71875 39.3125 
z
" id="BitstreamVeraSans-Roman-3a"/>
     <path d="M 8.59375 75.984375 
L 29.296875 75.984375 
L 29.296875 69 
L 17.578125 69 
L 17.578125 -6.203125 
L 29.296875 -6.203125 
L 29.296875 -13.1875 
L 8.59375 -13.1875 
z
" id="BitstreamVeraSans-Roman-5b"/>
     <path d="M 11.71875 12.40625 
L 22.015625 12.40625 
L 22.015625 4 
L 14.015625 -11.625 
L 7.71875 -11.625 
L 11.71875 4 
z
" id="BitstreamVeraSans-Roman-2c"/>
    </defs>
    <g transform="translate(118.318125 34.2666)scale(0.144 -0.144)">
     <use xlink:href="#BitstreamVeraSans-Roman-54"/>
     <use x="60.865234375" xlink:href="#BitstreamVeraSans-Roman-72"/>
     <use x="101.978515625" xlink:href="#BitstreamVeraSans-Roman-61"/>
     <use x="163.2578125" xlink:href="#BitstreamVeraSans-Roman-69"/>
     <use x="191.041015625" xlink:href="#BitstreamVeraSans-Roman-6e"/>
     <use x="254.419921875" xlink:href="#BitstreamVeraSans-Roman-3a"/>
     <use x="288.111328125" xlink:href="#BitstreamVeraSans-Roman-20"/>
     <use x="319.8984375" xlink:href="#BitstreamVeraSans-Roman-31"/>
     <use x="383.521484375" xlink:href="#BitstreamVeraSans-Roman-20"/>
     <use x="415.30859375" xlink:href="#BitstreamVeraSans-Roman-20"/>
     <use x="447.095703125" xlink:href="#BitstreamVeraSans-Roman-20"/>
     <use x="478.8828125" xlink:href="#BitstreamVeraSans-Roman-54"/>
     <use x="539.701171875" xlink:href="#BitstreamVeraSans-Roman-65"/>
     <use x="601.224609375" xlink:href="#BitstreamVeraSans-Roman-73"/>
     <use x="653.32421875" xlink:href="#BitstreamVeraSans-Roman-74"/>
     <use x="692.533203125" xlink:href="#BitstreamVeraSans-Roman-3a"/>
     <use x="726.224609375" xlink:href="#BitstreamVeraSans-Roman-20"/>
     <use x="758.01171875" xlink:href="#BitstreamVeraSans-Roman-5b"/>
     <use x="797.025390625" xlink:href="#BitstreamVeraSans-Roman-31"/>
     <use x="860.6484375" xlink:href="#BitstreamVeraSans-Roman-2c"/>
     <use x="892.435546875" xlink:href="#BitstreamVeraSans-Roman-20"/>
     <use x="924.22265625" xlink:href="#BitstreamVeraSans-Roman-34"/>
     <use x="987.845703125" xlink:href="#BitstreamVeraSans-Roman-2c"/>
     <use x="1019.6328125" xlink:href="#BitstreamVeraSans-Roman-20"/>
     <use x="1051.419921875" xlink:href="#BitstreamVeraSans-Roman-38"/>
     <use x="1115.04296875" xlink:href="#BitstreamVeraSans-Roman-2c"/>
     <use x="1146.830078125" xlink:href="#BitstreamVeraSans-Roman-20"/>
     <use x="1178.6171875" xlink:href="#BitstreamVeraSans-Roman-31"/>
     <use x="1242.240234375" xlink:href="#BitstreamVeraSans-Roman-32"/>
     <use x="1305.86328125" xlink:href="#BitstreamVeraSans-Roman-2c"/>
     <use x="1337.650390625" xlink:href="#BitstreamVeraSans-Roman-20"/>
     <use x="1369.4375" xlink:href="#BitstreamVeraSans-Roman-31"/>
     <use x="1433.060546875" xlink:href="#BitstreamVeraSans-Roman-36"/>
     <use x="1496.68359375" xlink:href="#BitstreamVeraSans-Roman-2c"/>
     <use x="1528.470703125" xlink:href="#BitstreamVeraSans-Roman-20"/>
     <use x="1560.2578125" xlink:href="#BitstreamVeraSans-Roman-32"/>
     <use x="1623.880859375" xlink:href="#BitstreamVeraSans-Roman-30"/>
     <use x="1687.50390625" xlink:href="#BitstreamVeraSans-Roman-2c"/>
     <use x="1719.291015625" xlink:href="#BitstreamVeraSans-Roman-20"/>
     <use x="1751.078125" xlink:href="#BitstreamVeraSans-Roman-32"/>
     <use x="1814.701171875" xlink:href="#BitstreamVeraSans-Roman-34"/>
     <use x="1878.32421875" xlink:href="#BitstreamVeraSans-Roman-2c"/>
     <use x="1910.111328125" xlink:href="#BitstreamVeraSans-Roman-20"/>
     <use x="1941.8984375" xlink:href="#BitstreamVeraSans-Roman-32"/>
     <use x="2005.521484375" xlink:href="#BitstreamVeraSans-Roman-38"/>
     <use x="2069.14453125" xlink:href="#BitstreamVeraSans-Roman-5d"/>
    </g>
   </g>
   <g id="legend_1">
    <g id="patch_7">
     <path d="M 172.01775 377.6666 
L 486.0975 377.6666 
L 486.0975 309.9371 
L 172.01775 309.9371 
z
" style="fill:#ffffff;stroke:#000000;stroke-linejoin:miter;"/>
    </g>
    <g id="line2d_29">
     <path d="M 182.09775 321.59885 
L 202.25775 321.59885 
" style="fill:none;stroke:#0000ff;stroke-linecap:square;"/>
    </g>
    <g id="line2d_30"/>
    <g id="text_16">
     <!-- bridgesROC curve - 0 (AUC = 0.842) -->
     <defs>
      <path d="M 48.6875 27.296875 
Q 48.6875 37.203125 44.609375 42.84375 
Q 40.53125 48.484375 33.40625 48.484375 
Q 26.265625 48.484375 22.1875 42.84375 
Q 18.109375 37.203125 18.109375 27.296875 
Q 18.109375 17.390625 22.1875 11.75 
Q 26.265625 6.109375 33.40625 6.109375 
Q 40.53125 6.109375 44.609375 11.75 
Q 48.6875 17.390625 48.6875 27.296875 
M 18.109375 46.390625 
Q 20.953125 51.265625 25.265625 53.625 
Q 29.59375 56 35.59375 56 
Q 45.5625 56 51.78125 48.09375 
Q 58.015625 40.1875 58.015625 27.296875 
Q 58.015625 14.40625 51.78125 6.484375 
Q 45.5625 -1.421875 35.59375 -1.421875 
Q 29.59375 -1.421875 25.265625 0.953125 
Q 20.953125 3.328125 18.109375 8.203125 
L 18.109375 0 
L 9.078125 0 
L 9.078125 75.984375 
L 18.109375 75.984375 
z
" id="BitstreamVeraSans-Roman-62"/>
      <path d="M 48.78125 52.59375 
L 48.78125 44.1875 
Q 44.96875 46.296875 41.140625 47.34375 
Q 37.3125 48.390625 33.40625 48.390625 
Q 24.65625 48.390625 19.8125 42.84375 
Q 14.984375 37.3125 14.984375 27.296875 
Q 14.984375 17.28125 19.8125 11.734375 
Q 24.65625 6.203125 33.40625 6.203125 
Q 37.3125 6.203125 41.140625 7.25 
Q 44.96875 8.296875 48.78125 10.40625 
L 48.78125 2.09375 
Q 45.015625 0.34375 40.984375 -0.53125 
Q 36.96875 -1.421875 32.421875 -1.421875 
Q 20.0625 -1.421875 12.78125 6.34375 
Q 5.515625 14.109375 5.515625 27.296875 
Q 5.515625 40.671875 12.859375 48.328125 
Q 20.21875 56 33.015625 56 
Q 37.15625 56 41.109375 55.140625 
Q 45.0625 54.296875 48.78125 52.59375 
" id="BitstreamVeraSans-Roman-63"/>
      <path d="M 8.015625 75.875 
L 15.828125 75.875 
Q 23.140625 64.359375 26.78125 53.3125 
Q 30.421875 42.28125 30.421875 31.390625 
Q 30.421875 20.453125 26.78125 9.375 
Q 23.140625 -1.703125 15.828125 -13.1875 
L 8.015625 -13.1875 
Q 14.5 -2 17.703125 9.0625 
Q 20.90625 20.125 20.90625 31.390625 
Q 20.90625 42.671875 17.703125 53.65625 
Q 14.5 64.65625 8.015625 75.875 
" id="BitstreamVeraSans-Roman-29"/>
      <path d="M 8.6875 72.90625 
L 18.609375 72.90625 
L 18.609375 28.609375 
Q 18.609375 16.890625 22.84375 11.734375 
Q 27.09375 6.59375 36.625 6.59375 
Q 46.09375 6.59375 50.34375 11.734375 
Q 54.59375 16.890625 54.59375 28.609375 
L 54.59375 72.90625 
L 64.5 72.90625 
L 64.5 27.390625 
Q 64.5 13.140625 57.4375 5.859375 
Q 50.390625 -1.421875 36.625 -1.421875 
Q 22.796875 -1.421875 15.734375 5.859375 
Q 8.6875 13.140625 8.6875 27.390625 
z
" id="BitstreamVeraSans-Roman-55"/>
      <path d="M 34.1875 63.1875 
L 20.796875 26.90625 
L 47.609375 26.90625 
z
M 28.609375 72.90625 
L 39.796875 72.90625 
L 67.578125 0 
L 57.328125 0 
L 50.6875 18.703125 
L 17.828125 18.703125 
L 11.1875 0 
L 0.78125 0 
z
" id="BitstreamVeraSans-Roman-41"/>
      <path d="M 31 75.875 
Q 24.46875 64.65625 21.28125 53.65625 
Q 18.109375 42.671875 18.109375 31.390625 
Q 18.109375 20.125 21.3125 9.0625 
Q 24.515625 -2 31 -13.1875 
L 23.1875 -13.1875 
Q 15.875 -1.703125 12.234375 9.375 
Q 8.59375 20.453125 8.59375 31.390625 
Q 8.59375 42.28125 12.203125 53.3125 
Q 15.828125 64.359375 23.1875 75.875 
z
" id="BitstreamVeraSans-Roman-28"/>
      <path d="M 10.59375 45.40625 
L 73.1875 45.40625 
L 73.1875 37.203125 
L 10.59375 37.203125 
z
M 10.59375 25.484375 
L 73.1875 25.484375 
L 73.1875 17.1875 
L 10.59375 17.1875 
z
" id="BitstreamVeraSans-Roman-3d"/>
      <path d="M 4.890625 31.390625 
L 31.203125 31.390625 
L 31.203125 23.390625 
L 4.890625 23.390625 
z
" id="BitstreamVeraSans-Roman-2d"/>
     </defs>
     <g transform="translate(218.09775 326.63885)scale(0.144 -0.144)">
      <use xlink:href="#BitstreamVeraSans-Roman-62"/>
      <use x="63.4765625" xlink:href="#BitstreamVeraSans-Roman-72"/>
      <use x="104.58984375" xlink:href="#BitstreamVeraSans-Roman-69"/>
      <use x="132.373046875" xlink:href="#BitstreamVeraSans-Roman-64"/>
      <use x="195.849609375" xlink:href="#BitstreamVeraSans-Roman-67"/>
      <use x="259.326171875" xlink:href="#BitstreamVeraSans-Roman-65"/>
      <use x="320.849609375" xlink:href="#BitstreamVeraSans-Roman-73"/>
      <use x="372.94921875" xlink:href="#BitstreamVeraSans-Roman-52"/>
      <use x="442.431640625" xlink:href="#BitstreamVeraSans-Roman-4f"/>
      <use x="521.142578125" xlink:href="#BitstreamVeraSans-Roman-43"/>
      <use x="590.966796875" xlink:href="#BitstreamVeraSans-Roman-20"/>
      <use x="622.75390625" xlink:href="#BitstreamVeraSans-Roman-63"/>
      <use x="677.734375" xlink:href="#BitstreamVeraSans-Roman-75"/>
      <use x="741.11328125" xlink:href="#BitstreamVeraSans-Roman-72"/>
      <use x="782.2265625" xlink:href="#BitstreamVeraSans-Roman-76"/>
      <use x="841.40625" xlink:href="#BitstreamVeraSans-Roman-65"/>
      <use x="902.9296875" xlink:href="#BitstreamVeraSans-Roman-20"/>
      <use x="934.716796875" xlink:href="#BitstreamVeraSans-Roman-2d"/>
      <use x="970.80078125" xlink:href="#BitstreamVeraSans-Roman-20"/>
      <use x="1002.587890625" xlink:href="#BitstreamVeraSans-Roman-30"/>
      <use x="1066.2109375" xlink:href="#BitstreamVeraSans-Roman-20"/>
      <use x="1097.998046875" xlink:href="#BitstreamVeraSans-Roman-28"/>
      <use x="1137.01171875" xlink:href="#BitstreamVeraSans-Roman-41"/>
      <use x="1205.419921875" xlink:href="#BitstreamVeraSans-Roman-55"/>
      <use x="1278.61328125" xlink:href="#BitstreamVeraSans-Roman-43"/>
      <use x="1348.4375" xlink:href="#BitstreamVeraSans-Roman-20"/>
      <use x="1380.224609375" xlink:href="#BitstreamVeraSans-Roman-3d"/>
      <use x="1464.013671875" xlink:href="#BitstreamVeraSans-Roman-20"/>
      <use x="1495.80078125" xlink:href="#BitstreamVeraSans-Roman-30"/>
      <use x="1559.423828125" xlink:href="#BitstreamVeraSans-Roman-2e"/>
      <use x="1591.2109375" xlink:href="#BitstreamVeraSans-Roman-38"/>
      <use x="1654.833984375" xlink:href="#BitstreamVeraSans-Roman-34"/>
      <use x="1718.45703125" xlink:href="#BitstreamVeraSans-Roman-32"/>
      <use x="1782.080078125" xlink:href="#BitstreamVeraSans-Roman-29"/>
     </g>
    </g>
    <g id="line2d_31">
     <path d="M 182.09775 342.73535 
L 202.25775 342.73535 
" style="fill:none;stroke:#008000;stroke-linecap:square;"/>
    </g>
    <g id="line2d_32"/>
    <g id="text_17">
     <!-- bridgesROC curve - 1 (AUC = 0.854) -->
     <defs>
      <path d="M 10.796875 72.90625 
L 49.515625 72.90625 
L 49.515625 64.59375 
L 19.828125 64.59375 
L 19.828125 46.734375 
Q 21.96875 47.46875 24.109375 47.828125 
Q 26.265625 48.1875 28.421875 48.1875 
Q 40.625 48.1875 47.75 41.5 
Q 54.890625 34.8125 54.890625 23.390625 
Q 54.890625 11.625 47.5625 5.09375 
Q 40.234375 -1.421875 26.90625 -1.421875 
Q 22.3125 -1.421875 17.546875 -0.640625 
Q 12.796875 0.140625 7.71875 1.703125 
L 7.71875 11.625 
Q 12.109375 9.234375 16.796875 8.0625 
Q 21.484375 6.890625 26.703125 6.890625 
Q 35.15625 6.890625 40.078125 11.328125 
Q 45.015625 15.765625 45.015625 23.390625 
Q 45.015625 31 40.078125 35.4375 
Q 35.15625 39.890625 26.703125 39.890625 
Q 22.75 39.890625 18.8125 39.015625 
Q 14.890625 38.140625 10.796875 36.28125 
z
" id="BitstreamVeraSans-Roman-35"/>
     </defs>
     <g transform="translate(218.09775 347.77535)scale(0.144 -0.144)">
      <use xlink:href="#BitstreamVeraSans-Roman-62"/>
      <use x="63.4765625" xlink:href="#BitstreamVeraSans-Roman-72"/>
      <use x="104.58984375" xlink:href="#BitstreamVeraSans-Roman-69"/>
      <use x="132.373046875" xlink:href="#BitstreamVeraSans-Roman-64"/>
      <use x="195.849609375" xlink:href="#BitstreamVeraSans-Roman-67"/>
      <use x="259.326171875" xlink:href="#BitstreamVeraSans-Roman-65"/>
      <use x="320.849609375" xlink:href="#BitstreamVeraSans-Roman-73"/>
      <use x="372.94921875" xlink:href="#BitstreamVeraSans-Roman-52"/>
      <use x="442.431640625" xlink:href="#BitstreamVeraSans-Roman-4f"/>
      <use x="521.142578125" xlink:href="#BitstreamVeraSans-Roman-43"/>
      <use x="590.966796875" xlink:href="#BitstreamVeraSans-Roman-20"/>
      <use x="622.75390625" xlink:href="#BitstreamVeraSans-Roman-63"/>
      <use x="677.734375" xlink:href="#BitstreamVeraSans-Roman-75"/>
      <use x="741.11328125" xlink:href="#BitstreamVeraSans-Roman-72"/>
      <use x="782.2265625" xlink:href="#BitstreamVeraSans-Roman-76"/>
      <use x="841.40625" xlink:href="#BitstreamVeraSans-Roman-65"/>
      <use x="902.9296875" xlink:href="#BitstreamVeraSans-Roman-20"/>
      <use x="934.716796875" xlink:href="#BitstreamVeraSans-Roman-2d"/>
      <use x="970.80078125" xlink:href="#BitstreamVeraSans-Roman-20"/>
      <use x="1002.587890625" xlink:href="#BitstreamVeraSans-Roman-31"/>
      <use x="1066.2109375" xlink:href="#BitstreamVeraSans-Roman-20"/>
      <use x="1097.998046875" xlink:href="#BitstreamVeraSans-Roman-28"/>
      <use x="1137.01171875" xlink:href="#BitstreamVeraSans-Roman-41"/>
      <use x="1205.419921875" xlink:href="#BitstreamVeraSans-Roman-55"/>
      <use x="1278.61328125" xlink:href="#BitstreamVeraSans-Roman-43"/>
      <use x="1348.4375" xlink:href="#BitstreamVeraSans-Roman-20"/>
      <use x="1380.224609375" xlink:href="#BitstreamVeraSans-Roman-3d"/>
      <use x="1464.013671875" xlink:href="#BitstreamVeraSans-Roman-20"/>
      <use x="1495.80078125" xlink:href="#BitstreamVeraSans-Roman-30"/>
      <use x="1559.423828125" xlink:href="#BitstreamVeraSans-Roman-2e"/>
      <use x="1591.2109375" xlink:href="#BitstreamVeraSans-Roman-38"/>
      <use x="1654.833984375" xlink:href="#BitstreamVeraSans-Roman-35"/>
      <use x="1718.45703125" xlink:href="#BitstreamVeraSans-Roman-34"/>
      <use x="1782.080078125" xlink:href="#BitstreamVeraSans-Roman-29"/>
     </g>
    </g>
    <g id="line2d_33">
     <path d="M 182.09775 363.87185 
L 202.25775 363.87185 
" style="fill:none;stroke:#ff0000;stroke-linecap:square;"/>
    </g>
    <g id="line2d_34"/>
    <g id="text_18">
     <!-- bridgesROC curve - 2 (AUC = 0.838) -->
     <defs>
      <path d="M 40.578125 39.3125 
Q 47.65625 37.796875 51.625 33 
Q 55.609375 28.21875 55.609375 21.1875 
Q 55.609375 10.40625 48.1875 4.484375 
Q 40.765625 -1.421875 27.09375 -1.421875 
Q 22.515625 -1.421875 17.65625 -0.515625 
Q 12.796875 0.390625 7.625 2.203125 
L 7.625 11.71875 
Q 11.71875 9.328125 16.59375 8.109375 
Q 21.484375 6.890625 26.8125 6.890625 
Q 36.078125 6.890625 40.9375 10.546875 
Q 45.796875 14.203125 45.796875 21.1875 
Q 45.796875 27.640625 41.28125 31.265625 
Q 36.765625 34.90625 28.71875 34.90625 
L 20.21875 34.90625 
L 20.21875 43.015625 
L 29.109375 43.015625 
Q 36.375 43.015625 40.234375 45.921875 
Q 44.09375 48.828125 44.09375 54.296875 
Q 44.09375 59.90625 40.109375 62.90625 
Q 36.140625 65.921875 28.71875 65.921875 
Q 24.65625 65.921875 20.015625 65.03125 
Q 15.375 64.15625 9.8125 62.3125 
L 9.8125 71.09375 
Q 15.4375 72.65625 20.34375 73.4375 
Q 25.25 74.21875 29.59375 74.21875 
Q 40.828125 74.21875 47.359375 69.109375 
Q 53.90625 64.015625 53.90625 55.328125 
Q 53.90625 49.265625 50.4375 45.09375 
Q 46.96875 40.921875 40.578125 39.3125 
" id="BitstreamVeraSans-Roman-33"/>
     </defs>
     <g transform="translate(218.09775 368.91185)scale(0.144 -0.144)">
      <use xlink:href="#BitstreamVeraSans-Roman-62"/>
      <use x="63.4765625" xlink:href="#BitstreamVeraSans-Roman-72"/>
      <use x="104.58984375" xlink:href="#BitstreamVeraSans-Roman-69"/>
      <use x="132.373046875" xlink:href="#BitstreamVeraSans-Roman-64"/>
      <use x="195.849609375" xlink:href="#BitstreamVeraSans-Roman-67"/>
      <use x="259.326171875" xlink:href="#BitstreamVeraSans-Roman-65"/>
      <use x="320.849609375" xlink:href="#BitstreamVeraSans-Roman-73"/>
      <use x="372.94921875" xlink:href="#BitstreamVeraSans-Roman-52"/>
      <use x="442.431640625" xlink:href="#BitstreamVeraSans-Roman-4f"/>
      <use x="521.142578125" xlink:href="#BitstreamVeraSans-Roman-43"/>
      <use x="590.966796875" xlink:href="#BitstreamVeraSans-Roman-20"/>
      <use x="622.75390625" xlink:href="#BitstreamVeraSans-Roman-63"/>
      <use x="677.734375" xlink:href="#BitstreamVeraSans-Roman-75"/>
      <use x="741.11328125" xlink:href="#BitstreamVeraSans-Roman-72"/>
      <use x="782.2265625" xlink:href="#BitstreamVeraSans-Roman-76"/>
      <use x="841.40625" xlink:href="#BitstreamVeraSans-Roman-65"/>
      <use x="902.9296875" xlink:href="#BitstreamVeraSans-Roman-20"/>
      <use x="934.716796875" xlink:href="#BitstreamVeraSans-Roman-2d"/>
      <use x="970.80078125" xlink:href="#BitstreamVeraSans-Roman-20"/>
      <use x="1002.587890625" xlink:href="#BitstreamVeraSans-Roman-32"/>
      <use x="1066.2109375" xlink:href="#BitstreamVeraSans-Roman-20"/>
      <use x="1097.998046875" xlink:href="#BitstreamVeraSans-Roman-28"/>
      <use x="1137.01171875" xlink:href="#BitstreamVeraSans-Roman-41"/>
      <use x="1205.419921875" xlink:href="#BitstreamVeraSans-Roman-55"/>
      <use x="1278.61328125" xlink:href="#BitstreamVeraSans-Roman-43"/>
      <use x="1348.4375" xlink:href="#BitstreamVeraSans-Roman-20"/>
      <use x="1380.224609375" xlink:href="#BitstreamVeraSans-Roman-3d"/>
      <use x="1464.013671875" xlink:href="#BitstreamVeraSans-Roman-20"/>
      <use x="1495.80078125" xlink:href="#BitstreamVeraSans-Roman-30"/>
      <use x="1559.423828125" xlink:href="#BitstreamVeraSans-Roman-2e"/>
      <use x="1591.2109375" xlink:href="#BitstreamVeraSans-Roman-38"/>
      <use x="1654.833984375" xlink:href="#BitstreamVeraSans-Roman-33"/>
      <use x="1718.45703125" xlink:href="#BitstreamVeraSans-Roman-38"/>
      <use x="1782.080078125" xlink:href="#BitstreamVeraSans-Roman-29"/>
     </g>
    </g>
   </g>
  </g>
 </g>
 <defs>
  <clipPath id="p5d36ae2c4a">
   <rect height="345.6" width="446.4" x="46.8975" y="39.2666"/>
  </clipPath>
 </defs>
</svg>
