<?xml version="1.0" encoding="utf-8" standalone="no"?>
<!DOCTYPE svg PUBLIC "-//W3C//DTD SVG 1.1//EN"
  "http://www.w3.org/Graphics/SVG/1.1/DTD/svg11.dtd">
<!-- Created with matplotlib (http://matplotlib.org/) -->
<svg height="424pt" version="1.1" viewBox="0 0 510 424" width="510pt" xmlns="http://www.w3.org/2000/svg" xmlns:xlink="http://www.w3.org/1999/xlink">
 <defs>
  <style type="text/css">
*{stroke-linecap:butt;stroke-linejoin:round;stroke-miterlimit:100000;}
  </style>
 </defs>
 <g id="figure_1">
  <g id="patch_1">
   <path d="M 0 424.2941 
L 510.039375 424.2941 
L 510.039375 0 
L 0 0 
z
" style="fill:#ffffff;"/>
  </g>
  <g id="axes_1">
   <g id="patch_2">
    <path d="M 46.8975 384.8666 
L 493.2975 384.8666 
L 493.2975 39.2666 
L 46.8975 39.2666 
z
" style="fill:#ffffff;"/>
   </g>
   <g id="line2d_1">
    <path clip-path="url(#pc4e85a5483)" d="M 46.8975 384.8666 
L 47.599305 384.8666 
L 47.835703 381.604171 
L 47.946515 381.604171 
L 48.116425 379.429218 
L 48.227237 377.979249 
L 48.485797 377.979249 
L 48.663095 373.629344 
L 48.810843 373.629344 
L 49.017691 371.454391 
L 49.128503 371.454391 
L 49.231927 368.554454 
L 49.638235 368.554454 
L 50.037156 362.392088 
L 50.214454 360.217135 
L 50.532114 359.129659 
L 50.716799 355.504737 
L 50.982747 351.517324 
L 51.14527 348.254895 
L 51.256081 348.254895 
L 51.455542 345.354957 
L 51.529416 345.354957 
L 52.039149 338.830099 
L 52.851765 330.130288 
L 53.745644 321.430477 
L 57.845666 287.718708 
L 58.030351 287.718708 
L 58.237199 285.543755 
L 58.303686 283.368803 
L 58.776481 282.281326 
L 58.887293 282.281326 
L 58.990717 280.106373 
L 59.212339 280.106373 
L 59.271439 279.018897 
L 59.906757 275.756468 
L 60.697212 269.956594 
L 61.339918 267.781641 
L 61.531991 263.431735 
L 61.923525 258.719338 
L 62.10821 258.719338 
L 62.285509 256.544385 
L 62.462807 255.456908 
L 62.536681 255.456908 
L 63.090738 247.482081 
L 63.386235 247.482081 
L 63.511821 245.307129 
L 63.733444 245.307129 
L 64.021554 240.957223 
L 64.37615 238.78227 
L 64.486962 238.78227 
L 64.834171 235.882333 
L 65.166605 235.882333 
L 65.624625 231.532428 
L 65.846248 231.532428 
L 65.942285 229.357475 
L 66.163907 229.357475 
L 66.252557 228.269998 
L 66.695802 228.269998 
L 66.858325 227.182522 
L 66.969137 227.182522 
L 67.175985 223.920093 
L 67.286796 223.920093 
L 67.811303 217.032742 
L 68.217612 217.032742 
L 68.350586 214.857789 
L 68.572208 214.857789 
L 68.801219 212.682837 
L 68.948967 212.682837 
L 69.104103 210.507884 
L 69.303564 209.420407 
L 69.517799 208.332931 
L 69.702485 208.332931 
L 69.813296 207.970439 
L 70.14573 207.970439 
L 70.389515 205.795486 
L 70.463389 205.795486 
L 70.552039 203.620533 
L 71.069158 203.620533 
L 71.202132 202.895549 
L 71.312943 202.895549 
L 71.549341 201.44558 
L 71.734027 201.44558 
L 71.793126 200.720596 
L 72.162497 200.720596 
L 72.465382 198.545643 
L 72.753492 196.370691 
L 74.19404 196.370691 
L 74.319626 194.920722 
L 74.430437 194.920722 
L 74.607735 193.833246 
L 74.829358 193.833246 
L 75.050981 192.383277 
L 75.605038 192.383277 
L 75.664137 191.295801 
L 76.070446 191.295801 
L 76.159095 190.208324 
L 76.491529 190.208324 
L 76.550629 189.120848 
L 76.883063 189.120848 
L 76.942162 186.945895 
L 77.274596 186.945895 
L 77.444507 184.045958 
L 77.66613 184.045958 
L 77.86559 181.508513 
L 79.047579 181.508513 
L 79.357851 180.421037 
L 79.527761 178.246084 
L 79.727222 177.158608 
L 80.39209 177.158608 
L 80.554614 174.983655 
L 80.813173 174.983655 
L 81.005247 173.533686 
L 81.300744 173.533686 
L 81.404168 172.44621 
L 81.88435 172.44621 
L 82.253722 169.183781 
L 82.327596 169.183781 
L 82.394083 168.821288 
L 82.652643 168.821288 
L 82.763454 168.458796 
L 83.317511 168.458796 
L 83.450485 167.733812 
L 83.561296 167.733812 
L 83.66472 166.283844 
L 85.031394 166.283844 
L 85.238242 165.196367 
L 85.64455 165.196367 
L 85.718424 164.471383 
L 85.940047 164.471383 
L 86.124733 164.108891 
L 86.42023 164.108891 
L 86.656628 162.29643 
L 89.242227 162.29643 
L 89.316101 161.571446 
L 89.537724 161.571446 
L 89.715022 160.483969 
L 92.411433 160.483969 
L 92.485307 159.758985 
L 93.962792 159.758985 
L 94.036666 159.396493 
L 94.442975 159.396493 
L 94.642435 158.309017 
L 94.864058 157.946524 
L 95.787486 157.946524 
L 95.89091 156.859048 
L 97.479207 156.859048 
L 97.663893 156.496556 
L 98.181012 156.496556 
L 98.365698 155.771572 
L 98.624258 155.771572 
L 98.735069 155.40908 
L 98.845881 154.321603 
L 99.178315 154.321603 
L 99.266964 153.234127 
L 100.338141 153.234127 
L 100.515439 152.871635 
L 101.069496 152.871635 
L 101.158145 151.784158 
L 102.672567 151.784158 
L 102.746442 151.421666 
L 106.986824 151.421666 
L 107.164123 150.33419 
L 109.269539 150.33419 
L 109.417288 149.609205 
L 112.187572 149.609205 
L 112.667755 148.159237 
L 113.997492 148.159237 
L 114.108303 147.796745 
L 114.736234 147.796745 
L 114.943082 143.446839 
L 115.755699 143.446839 
L 115.940385 142.721855 
L 116.014259 142.721855 
L 116.110296 140.546902 
L 117.403095 140.546902 
L 117.506519 139.459426 
L 120.609238 139.459426 
L 120.786536 138.371949 
L 124.664935 138.371949 
L 124.738809 138.009457 
L 126.327106 138.009457 
L 126.482242 136.559489 
L 126.62999 136.559489 
L 126.910713 134.384536 
L 127.871078 134.384536 
L 128.055764 134.022044 
L 128.499009 134.022044 
L 128.646758 133.297059 
L 130.382803 133.297059 
L 130.493614 132.209583 
L 131.749477 132.209583 
L 131.926775 131.122107 
L 133.256512 131.122107 
L 133.441197 130.759614 
L 133.958317 130.759614 
L 134.135615 128.584662 
L 136.868963 128.584662 
L 137.038874 127.859677 
L 138.664108 127.859677 
L 138.752757 126.772201 
L 141.005922 126.772201 
L 141.116733 126.409709 
L 141.486104 126.409709 
L 141.67079 126.047217 
L 141.818539 126.047217 
L 142.017999 124.95974 
L 149.072991 124.95974 
L 149.257677 124.234756 
L 149.627048 124.234756 
L 149.826509 123.14728 
L 150.823811 123.14728 
L 151.045434 122.784788 
L 152.781479 122.784788 
L 152.870128 121.697311 
L 153.830494 121.697311 
L 154.044729 121.334819 
L 156.416093 121.334819 
L 156.563841 120.609835 
L 157.450332 120.609835 
L 157.635018 120.247343 
L 158.964755 120.247343 
L 159.075566 119.88485 
L 160.996297 119.88485 
L 161.173595 119.522358 
L 167.970027 119.522358 
L 168.154713 119.159866 
L 168.893455 119.159866 
L 168.982105 118.07239 
L 171.272207 118.07239 
L 171.43473 116.984913 
L 172.72753 116.984913 
L 172.845728 113.359992 
L 175.985385 113.359992 
L 176.133133 107.92261 
L 176.834939 107.92261 
L 176.94575 107.197626 
L 178.349361 107.197626 
L 178.755669 106.835134 
L 180.122343 106.835134 
L 184.480925 104.297689 
L 189.762934 103.935197 
L 189.851583 102.84772 
L 192.400245 102.84772 
L 192.555381 98.497815 
L 197.630543 98.497815 
L 197.69703 96.322862 
L 199.359201 96.322862 
L 200.024069 95.597878 
L 200.688938 95.597878 
L 200.799749 95.235385 
L 208.002489 95.235385 
L 208.113301 94.510401 
L 211.179083 94.510401 
L 211.393318 94.147909 
L 214.532974 94.147909 
L 214.614236 92.69794 
L 220.22868 92.69794 
L 220.450303 92.335448 
L 224.070141 92.335448 
L 224.180953 91.972956 
L 224.276989 91.247972 
L 225.052669 91.247972 
L 225.148706 89.073019 
L 244.392951 89.073019 
L 245.094756 88.710527 
L 245.235117 86.535574 
L 247.894591 86.535574 
L 248.965767 86.173082 
L 249.926133 86.173082 
L 250.022169 85.448098 
L 258.074464 85.448098 
L 258.236987 84.360621 
L 260.083844 84.360621 
L 260.785649 82.910653 
L 261.118084 82.910653 
L 261.524392 82.548161 
L 262.300072 82.548161 
L 266.658653 78.560747 
L 267.153611 78.560747 
L 267.227485 78.198255 
L 272.819767 78.198255 
L 272.915803 77.473271 
L 275.944648 77.473271 
L 276.107171 76.385794 
L 276.550417 76.385794 
L 277.104474 75.298318 
L 278.914393 75.298318 
L 279.01043 74.573334 
L 283.664508 74.573334 
L 283.834419 73.84835 
L 291.443468 73.84835 
L 291.620766 71.673397 
L 296.053222 71.673397 
L 296.252682 70.58592 
L 299.059904 70.58592 
L 299.266752 69.860936 
L 301.039734 69.860936 
L 301.239195 68.77346 
L 327.501495 68.77346 
L 327.590144 67.685983 
L 328.587447 67.685983 
L 328.735195 67.323491 
L 332.576657 67.323491 
L 332.672693 66.598507 
L 333.48531 66.598507 
L 333.647833 65.51103 
L 338.782095 65.51103 
L 338.885519 65.148538 
L 343.50266 65.148538 
L 348.304487 64.061062 
L 351.924326 64.061062 
L 352.012975 62.973586 
L 364.940971 62.973586 
L 365.044395 62.611093 
L 374.130929 62.611093 
L 374.389489 60.798633 
L 426.987963 60.798633 
L 427.172649 58.986172 
L 429.869059 58.986172 
L 429.950321 57.536204 
L 456.803615 57.536204 
L 457.084337 56.811219 
L 457.712268 56.811219 
L 457.911729 55.723743 
L 493.2975 55.723743 
L 493.2975 55.723743 
" style="fill:none;stroke:#0000ff;stroke-linecap:square;"/>
   </g>
   <g id="line2d_2">
    <path clip-path="url(#pc4e85a5483)" d="M 46.8975 384.8666 
L 46.971374 384.8666 
L 47.303808 380.879187 
L 47.377683 380.879187 
L 47.525431 375.441805 
L 47.747054 373.266852 
L 48.042551 373.266852 
L 48.227237 370.729407 
L 48.338048 370.729407 
L 48.530121 367.466978 
L 50.251391 353.329784 
L 50.576438 345.71745 
L 51.241307 341.005052 
L 51.684552 341.005052 
L 52.164735 337.742623 
L 52.423295 334.480193 
L 52.534106 334.480193 
L 53.162037 331.942749 
L 53.309786 331.942749 
L 53.634833 329.767796 
L 55.961872 309.830728 
L 56.183495 309.830728 
L 56.442055 308.018268 
L 56.62674 303.668362 
L 56.700615 303.668362 
L 56.922237 302.218394 
L 57.254671 302.218394 
L 57.476294 298.23098 
L 57.587106 298.23098 
L 58.015576 294.968551 
L 58.119 293.881075 
L 58.525309 293.881075 
L 58.709994 292.068614 
L 58.820806 292.068614 
L 60.93361 273.581515 
L 61.110908 270.319086 
L 61.399018 266.694165 
L 61.509829 266.694165 
L 61.62064 265.96918 
L 61.797939 263.794227 
L 61.945687 263.794227 
L 62.115598 262.706751 
L 62.189472 262.706751 
L 62.411095 260.531798 
L 62.521906 259.08183 
L 62.743529 259.08183 
L 62.846953 258.356845 
L 63.179387 258.356845 
L 63.40101 257.631861 
L 63.770381 257.631861 
L 63.940292 255.819401 
L 64.43525 250.744511 
L 64.546061 250.744511 
L 64.590386 248.569558 
L 64.812008 248.569558 
L 65.107505 245.669621 
L 65.43994 240.232239 
L 65.772374 239.507254 
L 65.846248 239.507254 
L 65.920122 238.419778 
L 66.252557 238.419778 
L 67.065173 235.157349 
L 67.13166 232.982396 
L 67.279409 232.257412 
L 68.42446 232.257412 
L 68.867705 229.719967 
L 68.978517 229.719967 
L 69.067166 228.63249 
L 69.288789 228.63249 
L 69.42915 226.457538 
L 69.606448 224.645077 
L 69.717259 224.645077 
L 69.828071 223.920093 
L 70.049694 223.920093 
L 70.182667 222.832616 
L 70.293479 222.832616 
L 71.12087 217.757726 
L 71.416367 217.757726 
L 71.748802 217.032742 
L 71.89655 217.032742 
L 72.339796 215.220282 
L 72.650068 213.045329 
L 72.945565 213.045329 
L 73.056376 212.320344 
L 73.351873 212.320344 
L 73.484847 211.232868 
L 73.780344 207.970439 
L 74.334401 207.970439 
L 74.445212 206.882962 
L 74.519086 204.70801 
L 74.666835 204.70801 
L 74.755484 203.620533 
L 75.826661 203.620533 
L 76.048284 201.44558 
L 76.491529 201.44558 
L 76.750089 198.545643 
L 77.193335 198.545643 
L 77.392795 197.458167 
L 77.540544 196.370691 
L 77.762166 196.370691 
L 77.92469 195.283214 
L 78.146313 195.283214 
L 78.589558 194.55823 
L 79.025416 194.55823 
L 79.247039 193.470754 
L 79.64596 190.570816 
L 80.310828 190.570816 
L 80.458577 189.845832 
L 80.717137 189.845832 
L 80.93876 188.395864 
L 81.160382 188.395864 
L 81.382005 187.308387 
L 81.825251 187.308387 
L 82.024711 185.495927 
L 82.357146 185.495927 
L 82.416245 184.40845 
L 82.859491 184.40845 
L 82.94814 183.683466 
L 83.723819 183.683466 
L 83.871568 182.233497 
L 84.314813 182.233497 
L 84.499499 180.783529 
L 85.164367 180.783529 
L 85.275179 180.058545 
L 85.533739 180.058545 
L 85.962209 177.883592 
L 87.107261 177.883592 
L 87.240234 176.796115 
L 88.237537 176.796115 
L 88.488709 174.621163 
L 88.710332 174.621163 
L 88.821143 173.171194 
L 89.89232 173.171194 
L 89.95142 172.083718 
L 90.985659 172.083718 
L 91.391968 171.358733 
L 91.539716 171.358733 
L 91.628365 170.271257 
L 92.182422 170.271257 
L 92.293234 169.908765 
L 92.847291 169.908765 
L 93.024589 167.733812 
L 93.39396 165.921351 
L 93.948017 165.921351 
L 94.132703 165.196367 
L 94.797571 165.196367 
L 94.982257 164.471383 
L 96.348931 164.471383 
L 96.548391 163.383906 
L 97.139385 163.383906 
L 97.250197 162.658922 
L 98.025876 162.658922 
L 98.41741 160.846462 
L 98.491284 158.671509 
L 99.340838 158.671509 
L 99.429487 157.584032 
L 100.094356 157.584032 
L 100.389853 156.859048 
L 100.500664 156.859048 
L 100.589313 155.771572 
L 103.655095 155.771572 
L 103.987529 154.684095 
L 104.984832 154.684095 
L 105.058706 153.596619 
L 106.573128 153.596619 
L 106.772589 152.509142 
L 108.914943 152.509142 
L 109.136565 151.784158 
L 111.943787 151.784158 
L 112.128473 151.059174 
L 113.162713 151.059174 
L 113.421272 148.884221 
L 114.640198 148.884221 
L 114.935695 147.796745 
L 117.151923 147.796745 
L 117.292284 145.621792 
L 119.065266 145.621792 
L 119.124365 144.896808 
L 119.493737 144.896808 
L 119.604548 143.809331 
L 121.599153 143.809331 
L 121.709965 143.084347 
L 124.184752 143.084347 
L 124.406375 141.996871 
L 124.886558 141.996871 
L 125.049081 140.909394 
L 125.861698 140.909394 
L 126.046384 140.18441 
L 126.859001 140.18441 
L 127.028911 139.096934 
L 128.728019 139.096934 
L 128.949642 136.921981 
L 129.245139 136.196996 
L 129.355951 136.196996 
L 129.4446 135.10952 
L 133.913993 135.10952 
L 134.098678 134.384536 
L 134.948232 134.384536 
L 135.125531 133.659552 
L 137.858878 133.659552 
L 138.080501 132.934567 
L 139.668798 132.934567 
L 139.713122 130.759614 
L 140.599613 130.759614 
L 140.821236 129.672138 
L 147.174423 129.672138 
L 147.322171 128.584662 
L 153.453735 128.584662 
L 153.527609 126.772201 
L 156.187082 123.509772 
L 156.962762 123.509772 
L 157.206547 122.059803 
L 158.351598 122.059803 
L 158.521509 121.334819 
L 162.695405 121.334819 
L 163.323336 120.247343 
L 168.620121 120.247343 
L 168.841743 119.522358 
L 171.759777 119.522358 
L 171.914913 118.07239 
L 171.988787 118.07239 
L 172.099598 116.984913 
L 172.653655 116.984913 
L 172.712755 116.259929 
L 174.374926 116.259929 
L 174.41925 114.809961 
L 177.743592 114.809961 
L 177.876566 114.084976 
L 178.504497 114.084976 
L 180.018919 112.272516 
L 180.277479 112.272516 
L 180.388291 111.547531 
L 181.902713 111.547531 
L 182.102173 110.460055 
L 182.508482 110.460055 
L 183.727407 109.372579 
L 184.022904 109.372579 
L 186.955712 97.047846 
L 188.248512 97.047846 
L 188.529234 94.872893 
L 188.676983 93.785417 
L 189.895908 93.785417 
L 189.955007 93.060433 
L 193.833406 93.060433 
L 195.089269 91.247972 
L 199.041542 91.247972 
L 203.067689 83.635637 
L 205.727162 83.635637 
L 205.837974 83.273145 
L 206.170408 83.273145 
L 206.244282 82.548161 
L 207.204647 82.548161 
L 207.374558 81.823176 
L 207.670055 81.823176 
L 207.891678 81.460684 
L 210.144843 81.460684 
L 210.292592 80.373208 
L 213.949368 80.373208 
L 214.178378 78.923239 
L 214.695498 78.923239 
L 214.739822 77.473271 
L 216.032622 77.473271 
L 216.254245 76.385794 
L 217.842541 76.385794 
L 218.064164 75.66081 
L 219.763272 75.66081 
L 219.962732 74.573334 
L 221.772652 74.573334 
L 222.068149 73.84835 
L 228.421335 73.84835 
L 228.554309 73.123365 
L 231.583154 73.123365 
L 231.878651 72.035889 
L 232.802079 72.035889 
L 232.91289 71.310905 
L 235.055244 71.310905 
L 235.387678 70.58592 
L 244.548087 70.58592 
L 244.769709 69.860936 
L 248.906668 69.860936 
L 249.076579 68.77346 
L 250.554064 68.77346 
L 250.812624 68.048475 
L 263.555934 68.048475 
L 263.629808 67.323491 
L 268.727132 67.323491 
L 268.771457 65.873523 
L 273.905718 65.873523 
L 274.01653 65.51103 
L 281.256207 65.51103 
L 281.47783 64.423554 
L 289.035167 64.423554 
L 289.145978 63.69857 
L 289.478413 63.69857 
L 289.700035 62.611093 
L 297.900078 62.611093 
L 298.018277 61.886109 
L 313.162501 61.886109 
L 313.206825 60.436141 
L 314.314939 60.436141 
L 314.388813 59.711156 
L 323.482735 59.711156 
L 323.815169 58.986172 
L 354.317852 58.986172 
L 354.502537 57.536204 
L 380.328979 57.536204 
L 380.461953 56.448727 
L 484.668986 56.448727 
L 484.80196 55.723743 
L 493.2975 55.723743 
L 493.2975 55.723743 
" style="fill:none;stroke:#008000;stroke-linecap:square;"/>
   </g>
   <g id="line2d_3">
    <path clip-path="url(#pc4e85a5483)" d="M 46.8975 384.8666 
L 47.008313 383.777925 
L 47.119126 383.777925 
L 47.414628 382.326357 
L 47.636255 382.326357 
L 47.747068 381.600574 
L 47.968695 381.600574 
L 48.522761 378.334548 
L 48.929076 378.334548 
L 49.150702 374.70563 
L 49.483142 368.536469 
L 49.593955 368.536469 
L 49.704768 367.084902 
L 49.926395 367.084902 
L 50.037208 365.996227 
L 50.066758 363.818876 
L 50.36226 363.818876 
L 53.686657 346.037178 
L 54.144685 342.40826 
L 54.366311 342.40826 
L 54.698751 338.053559 
L 54.920378 333.698857 
L 55.585257 330.795723 
L 55.806883 330.795723 
L 56.02851 329.344156 
L 56.139323 328.618372 
L 56.36095 328.618372 
L 56.789427 324.26367 
L 57.011054 324.26367 
L 57.764584 319.546077 
L 62.972805 291.240517 
L 63.091006 289.78895 
L 63.445608 285.79714 
L 63.74111 279.990872 
L 64.184363 279.990872 
L 64.250851 277.813521 
L 64.694104 277.813521 
L 64.982218 275.63617 
L 65.181682 274.910386 
L 65.255558 274.184603 
L 65.698811 274.184603 
L 65.772686 273.458819 
L 66.252877 273.458819 
L 66.39324 271.281468 
L 66.577929 271.281468 
L 66.762618 269.104118 
L 66.910369 269.104118 
L 67.242808 266.926767 
L 67.678674 261.48339 
L 67.863362 261.48339 
L 68.158864 259.306039 
L 68.23274 259.306039 
L 68.439591 257.128689 
L 68.513467 255.677121 
L 69.178346 255.677121 
L 69.363035 254.951338 
L 69.695474 254.951338 
L 69.850613 253.499771 
L 70.035302 252.773987 
L 70.700181 252.773987 
L 70.929195 248.782177 
L 71.150821 248.782177 
L 71.372448 247.693502 
L 71.594074 245.879043 
L 72.48058 245.879043 
L 72.569231 244.790368 
L 73.751238 244.790368 
L 73.921152 244.064584 
L 74.105841 243.3388 
L 74.216654 242.613017 
L 74.43828 242.613017 
L 74.696845 240.798558 
L 74.77072 240.798558 
L 74.859371 239.709882 
L 75.080997 239.709882 
L 75.154873 238.984099 
L 75.782814 238.984099 
L 75.871465 238.258315 
L 76.203905 237.16964 
L 76.536344 237.16964 
L 76.624995 236.443856 
L 77.03131 236.443856 
L 77.164286 233.903614 
L 77.718352 233.903614 
L 77.888266 232.452047 
L 78.220705 232.452047 
L 78.553145 230.274696 
L 78.737834 230.274696 
L 78.826484 229.18602 
L 79.048111 229.18602 
L 79.121986 228.460237 
L 79.343613 228.460237 
L 79.528301 225.557102 
L 79.639115 225.557102 
L 79.749928 224.468427 
L 80.931936 224.468427 
L 81.153562 222.653968 
L 81.707628 222.653968 
L 81.818441 221.565293 
L 82.298632 221.565293 
L 82.483321 220.476617 
L 82.668009 220.476617 
L 82.75666 219.750834 
L 83.0891 219.750834 
L 83.199913 218.662158 
L 83.643166 218.662158 
L 83.864792 216.484808 
L 84.012543 216.484808 
L 84.123356 214.670349 
L 85.563928 214.670349 
L 85.623029 213.944565 
L 86.25097 213.944565 
L 86.347008 212.85589 
L 86.901075 212.85589 
L 87.211352 211.041431 
L 88.54111 211.041431 
L 88.762737 208.86408 
L 89.021301 208.86408 
L 89.065626 207.412513 
L 89.287253 207.412513 
L 89.730506 204.146487 
L 90.447098 200.154677 
L 90.779538 200.154677 
L 91.001164 199.066001 
L 91.850732 199.066001 
L 91.924608 198.340218 
L 92.7003 198.340218 
L 92.811113 197.251543 
L 93.069678 197.251543 
L 93.291304 195.074192 
L 93.771495 195.074192 
L 93.882308 193.985516 
L 95.101253 193.985516 
L 95.285942 191.808166 
L 95.507569 191.808166 
L 95.633157 189.630815 
L 95.928659 189.630815 
L 96.017309 188.905031 
L 96.940753 188.905031 
L 97.118054 188.179248 
L 97.228867 187.090572 
L 97.67212 187.090572 
L 97.893747 183.824546 
L 98.410875 183.824546 
L 98.595564 183.098763 
L 99.629821 183.098763 
L 99.96226 182.010087 
L 101.033455 182.010087 
L 101.10733 181.284304 
L 101.328957 181.284304 
L 101.388057 180.55852 
L 102.16375 180.55852 
L 102.363213 179.832736 
L 102.437089 179.832736 
L 102.525739 179.106953 
L 103.153681 179.106953 
L 103.264494 178.018277 
L 103.633872 178.018277 
L 103.707747 177.292494 
L 103.929374 177.292494 
L 104.239651 175.478035 
L 109.891125 175.478035 
L 110.001938 174.389359 
L 110.29744 173.663576 
L 111.811888 173.663576 
L 112.144328 172.574901 
L 113.666162 172.574901 
L 113.776976 170.39755 
L 115.956303 170.39755 
L 116.288742 166.042848 
L 116.362618 166.042848 
L 116.451268 165.317065 
L 116.672895 165.317065 
L 116.872359 164.591281 
L 118.091304 164.591281 
L 118.202117 162.41393 
L 120.233693 162.41393 
L 120.455319 160.23658 
L 120.640008 159.147904 
L 121.378763 159.147904 
L 121.467414 158.059229 
L 123.831429 158.059229 
L 123.942242 155.881878 
L 125.272001 155.881878 
L 125.382814 153.704527 
L 126.527884 153.704527 
L 126.638697 152.978744 
L 128.818024 152.978744 
L 128.928838 151.890068 
L 129.778406 151.890068 
L 130.000032 150.801393 
L 130.443285 150.801393 
L 130.48761 149.349826 
L 132.334497 149.349826 
L 132.445311 148.26115 
L 135.141766 148.26115 
L 135.252579 147.172475 
L 136.471524 147.172475 
L 136.582338 144.995124 
L 137.099466 144.995124 
L 137.173342 144.269341 
L 140.276112 144.269341 
L 140.438638 143.180665 
L 141.214331 143.180665 
L 141.325144 142.09199 
L 142.617965 142.09199 
L 142.817429 141.003314 
L 142.891304 141.003314 
L 143.075993 139.914639 
L 144.405751 139.914639 
L 144.494402 138.825964 
L 144.716028 138.825964 
L 144.915492 137.011505 
L 145.543434 137.011505 
L 145.728123 135.922829 
L 146.651566 135.922829 
L 146.740217 134.834154 
L 150.101551 134.834154 
L 150.28624 133.745479 
L 150.507866 133.745479 
L 150.61868 131.568128 
L 151.135808 131.568128 
L 151.209683 131.205236 
L 151.43131 129.027885 
L 154.349392 129.027885 
L 154.497143 128.302102 
L 154.792644 128.302102 
L 154.86652 127.576318 
L 155.088146 127.576318 
L 155.272835 126.850534 
L 155.789964 126.850534 
L 156.122403 125.036076 
L 158.375605 125.036076 
L 158.560294 124.673184 
L 159.11436 124.673184 
L 159.203011 123.584508 
L 160.421956 123.584508 
L 160.510607 122.495833 
L 162.09893 122.495833 
L 162.209743 121.407158 
L 163.798066 121.407158 
L 163.908879 120.318482 
L 164.72151 120.318482 
L 164.906198 119.95559 
L 167.01165 119.95559 
L 167.196338 119.229807 
L 167.639591 119.229807 
L 167.861218 118.141131 
L 172.663124 118.141131 
L 172.773937 115.963781 
L 173.919007 115.963781 
L 174.081533 115.237997 
L 176.150047 115.237997 
L 176.349511 114.149322 
L 178.344149 114.149322 
L 178.432799 113.060646 
L 179.208492 113.060646 
L 179.430118 111.971971 
L 179.503994 111.609079 
L 179.984185 111.609079 
L 180.146711 110.520404 
L 180.589964 110.520404 
L 180.774652 109.431728 
L 181.550345 109.431728 
L 181.683321 108.705945 
L 183.419395 108.705945 
L 183.567146 107.980161 
L 189.070869 107.980161 
L 189.15952 106.891486 
L 194.21999 106.891486 
L 194.330804 105.80281 
L 195.217309 105.80281 
L 195.416773 104.714135 
L 197.92854 104.714135 
L 198.039353 103.62546 
L 198.482606 103.62546 
L 198.778108 102.536784 
L 206.608909 102.536784 
L 206.793598 101.448109 
L 214.77215 101.448109 
L 214.956839 100.722325 
L 219.056928 100.722325 
L 219.367205 99.63365 
L 221.066341 99.63365 
L 221.177154 98.544975 
L 229.303458 98.544975 
L 229.414271 96.367624 
L 230.189964 96.367624 
L 230.263839 96.004732 
L 232.849481 96.004732 
L 236.063064 91.287139 
L 245.740753 91.287139 
L 245.814628 90.924247 
L 246.553383 90.924247 
L 246.848885 89.835571 
L 247.58764 89.835571 
L 247.698453 88.746896 
L 250.985912 88.746896 
L 251.185376 87.658221 
L 257.693806 87.658221 
L 257.915433 86.569545 
L 267.105543 86.569545 
L 267.194193 85.48087 
L 271.368158 85.48087 
L 272.143851 84.029303 
L 286.180193 84.029303 
L 291.277601 66.973388 
L 303.836434 66.973388 
L 303.947247 65.884713 
L 313.735748 65.884713 
L 313.868724 65.15893 
L 315.878137 65.15893 
L 315.988951 64.796038 
L 329.101849 64.796038 
L 329.434289 62.618687 
L 382.624637 62.618687 
L 382.698513 61.892903 
L 393.181444 61.892903 
L 393.247932 59.715553 
L 404.521331 59.715553 
L 404.595206 59.352661 
L 442.087014 59.352661 
L 442.16089 58.989769 
L 466.983053 58.989769 
L 467.145579 57.901094 
L 474.422314 57.901094 
L 474.607003 56.812418 
L 490.748796 56.812418 
L 490.896547 56.449526 
L 493.223625 56.449526 
L 493.2975 55.723743 
L 493.2975 55.723743 
" style="fill:none;stroke:#ff0000;stroke-linecap:square;"/>
   </g>
   <g id="line2d_4">
    <path clip-path="url(#pc4e85a5483)" d="M 46.8975 384.8666 
L 493.2975 55.723743 
" style="fill:none;stroke:#000000;stroke-dasharray:6.000000,6.000000;stroke-dashoffset:0.0;"/>
   </g>
   <g id="patch_3">
    <path d="M 46.8975 384.8666 
L 46.8975 39.2666 
" style="fill:none;stroke:#000000;stroke-linecap:square;stroke-linejoin:miter;"/>
   </g>
   <g id="patch_4">
    <path d="M 493.2975 384.8666 
L 493.2975 39.2666 
" style="fill:none;stroke:#000000;stroke-linecap:square;stroke-linejoin:miter;"/>
   </g>
   <g id="patch_5">
    <path d="M 46.8975 39.2666 
L 493.2975 39.2666 
" style="fill:none;stroke:#000000;stroke-linecap:square;stroke-linejoin:miter;"/>
   </g>
   <g id="patch_6">
    <path d="M 46.8975 384.8666 
L 493.2975 384.8666 
" style="fill:none;stroke:#000000;stroke-linecap:square;stroke-linejoin:miter;"/>
   </g>
   <g id="matplotlib.axis_1">
    <g id="xtick_1">
     <g id="line2d_5">
      <defs>
       <path d="M 0 0 
L 0 -4 
" id="m45e5c004a6" style="stroke:#000000;stroke-width:0.5;"/>
      </defs>
      <g>
       <use style="stroke:#000000;stroke-width:0.5;" x="46.8975" xlink:href="#m45e5c004a6" y="384.8666"/>
      </g>
     </g>
     <g id="line2d_6">
      <defs>
       <path d="M 0 0 
L 0 4 
" id="m294f49b9a0" style="stroke:#000000;stroke-width:0.5;"/>
      </defs>
      <g>
       <use style="stroke:#000000;stroke-width:0.5;" x="46.8975" xlink:href="#m294f49b9a0" y="39.2666"/>
      </g>
     </g>
     <g id="text_1">
      <!-- 0.0 -->
      <defs>
       <path d="M 31.78125 66.40625 
Q 24.171875 66.40625 20.328125 58.90625 
Q 16.5 51.421875 16.5 36.375 
Q 16.5 21.390625 20.328125 13.890625 
Q 24.171875 6.390625 31.78125 6.390625 
Q 39.453125 6.390625 43.28125 13.890625 
Q 47.125 21.390625 47.125 36.375 
Q 47.125 51.421875 43.28125 58.90625 
Q 39.453125 66.40625 31.78125 66.40625 
M 31.78125 74.21875 
Q 44.046875 74.21875 50.515625 64.515625 
Q 56.984375 54.828125 56.984375 36.375 
Q 56.984375 17.96875 50.515625 8.265625 
Q 44.046875 -1.421875 31.78125 -1.421875 
Q 19.53125 -1.421875 13.0625 8.265625 
Q 6.59375 17.96875 6.59375 36.375 
Q 6.59375 54.828125 13.0625 64.515625 
Q 19.53125 74.21875 31.78125 74.21875 
" id="BitstreamVeraSans-Roman-30"/>
       <path d="M 10.6875 12.40625 
L 21 12.40625 
L 21 0 
L 10.6875 0 
z
" id="BitstreamVeraSans-Roman-2e"/>
      </defs>
      <g transform="translate(37.355625 397.984725)scale(0.12 -0.12)">
       <use xlink:href="#BitstreamVeraSans-Roman-30"/>
       <use x="63.623046875" xlink:href="#BitstreamVeraSans-Roman-2e"/>
       <use x="95.41015625" xlink:href="#BitstreamVeraSans-Roman-30"/>
      </g>
     </g>
    </g>
    <g id="xtick_2">
     <g id="line2d_7">
      <g>
       <use style="stroke:#000000;stroke-width:0.5;" x="136.1775" xlink:href="#m45e5c004a6" y="384.8666"/>
      </g>
     </g>
     <g id="line2d_8">
      <g>
       <use style="stroke:#000000;stroke-width:0.5;" x="136.1775" xlink:href="#m294f49b9a0" y="39.2666"/>
      </g>
     </g>
     <g id="text_2">
      <!-- 0.2 -->
      <defs>
       <path d="M 19.1875 8.296875 
L 53.609375 8.296875 
L 53.609375 0 
L 7.328125 0 
L 7.328125 8.296875 
Q 12.9375 14.109375 22.625 23.890625 
Q 32.328125 33.6875 34.8125 36.53125 
Q 39.546875 41.84375 41.421875 45.53125 
Q 43.3125 49.21875 43.3125 52.78125 
Q 43.3125 58.59375 39.234375 62.25 
Q 35.15625 65.921875 28.609375 65.921875 
Q 23.96875 65.921875 18.8125 64.3125 
Q 13.671875 62.703125 7.8125 59.421875 
L 7.8125 69.390625 
Q 13.765625 71.78125 18.9375 73 
Q 24.125 74.21875 28.421875 74.21875 
Q 39.75 74.21875 46.484375 68.546875 
Q 53.21875 62.890625 53.21875 53.421875 
Q 53.21875 48.921875 51.53125 44.890625 
Q 49.859375 40.875 45.40625 35.40625 
Q 44.1875 33.984375 37.640625 27.21875 
Q 31.109375 20.453125 19.1875 8.296875 
" id="BitstreamVeraSans-Roman-32"/>
      </defs>
      <g transform="translate(126.635625 397.984725)scale(0.12 -0.12)">
       <use xlink:href="#BitstreamVeraSans-Roman-30"/>
       <use x="63.623046875" xlink:href="#BitstreamVeraSans-Roman-2e"/>
       <use x="95.41015625" xlink:href="#BitstreamVeraSans-Roman-32"/>
      </g>
     </g>
    </g>
    <g id="xtick_3">
     <g id="line2d_9">
      <g>
       <use style="stroke:#000000;stroke-width:0.5;" x="225.4575" xlink:href="#m45e5c004a6" y="384.8666"/>
      </g>
     </g>
     <g id="line2d_10">
      <g>
       <use style="stroke:#000000;stroke-width:0.5;" x="225.4575" xlink:href="#m294f49b9a0" y="39.2666"/>
      </g>
     </g>
     <g id="text_3">
      <!-- 0.4 -->
      <defs>
       <path d="M 37.796875 64.3125 
L 12.890625 25.390625 
L 37.796875 25.390625 
z
M 35.203125 72.90625 
L 47.609375 72.90625 
L 47.609375 25.390625 
L 58.015625 25.390625 
L 58.015625 17.1875 
L 47.609375 17.1875 
L 47.609375 0 
L 37.796875 0 
L 37.796875 17.1875 
L 4.890625 17.1875 
L 4.890625 26.703125 
z
" id="BitstreamVeraSans-Roman-34"/>
      </defs>
      <g transform="translate(215.915625 397.984725)scale(0.12 -0.12)">
       <use xlink:href="#BitstreamVeraSans-Roman-30"/>
       <use x="63.623046875" xlink:href="#BitstreamVeraSans-Roman-2e"/>
       <use x="95.41015625" xlink:href="#BitstreamVeraSans-Roman-34"/>
      </g>
     </g>
    </g>
    <g id="xtick_4">
     <g id="line2d_11">
      <g>
       <use style="stroke:#000000;stroke-width:0.5;" x="314.7375" xlink:href="#m45e5c004a6" y="384.8666"/>
      </g>
     </g>
     <g id="line2d_12">
      <g>
       <use style="stroke:#000000;stroke-width:0.5;" x="314.7375" xlink:href="#m294f49b9a0" y="39.2666"/>
      </g>
     </g>
     <g id="text_4">
      <!-- 0.6 -->
      <defs>
       <path d="M 33.015625 40.375 
Q 26.375 40.375 22.484375 35.828125 
Q 18.609375 31.296875 18.609375 23.390625 
Q 18.609375 15.53125 22.484375 10.953125 
Q 26.375 6.390625 33.015625 6.390625 
Q 39.65625 6.390625 43.53125 10.953125 
Q 47.40625 15.53125 47.40625 23.390625 
Q 47.40625 31.296875 43.53125 35.828125 
Q 39.65625 40.375 33.015625 40.375 
M 52.59375 71.296875 
L 52.59375 62.3125 
Q 48.875 64.0625 45.09375 64.984375 
Q 41.3125 65.921875 37.59375 65.921875 
Q 27.828125 65.921875 22.671875 59.328125 
Q 17.53125 52.734375 16.796875 39.40625 
Q 19.671875 43.65625 24.015625 45.921875 
Q 28.375 48.1875 33.59375 48.1875 
Q 44.578125 48.1875 50.953125 41.515625 
Q 57.328125 34.859375 57.328125 23.390625 
Q 57.328125 12.15625 50.6875 5.359375 
Q 44.046875 -1.421875 33.015625 -1.421875 
Q 20.359375 -1.421875 13.671875 8.265625 
Q 6.984375 17.96875 6.984375 36.375 
Q 6.984375 53.65625 15.1875 63.9375 
Q 23.390625 74.21875 37.203125 74.21875 
Q 40.921875 74.21875 44.703125 73.484375 
Q 48.484375 72.75 52.59375 71.296875 
" id="BitstreamVeraSans-Roman-36"/>
      </defs>
      <g transform="translate(305.195625 397.984725)scale(0.12 -0.12)">
       <use xlink:href="#BitstreamVeraSans-Roman-30"/>
       <use x="63.623046875" xlink:href="#BitstreamVeraSans-Roman-2e"/>
       <use x="95.41015625" xlink:href="#BitstreamVeraSans-Roman-36"/>
      </g>
     </g>
    </g>
    <g id="xtick_5">
     <g id="line2d_13">
      <g>
       <use style="stroke:#000000;stroke-width:0.5;" x="404.0175" xlink:href="#m45e5c004a6" y="384.8666"/>
      </g>
     </g>
     <g id="line2d_14">
      <g>
       <use style="stroke:#000000;stroke-width:0.5;" x="404.0175" xlink:href="#m294f49b9a0" y="39.2666"/>
      </g>
     </g>
     <g id="text_5">
      <!-- 0.8 -->
      <defs>
       <path d="M 31.78125 34.625 
Q 24.75 34.625 20.71875 30.859375 
Q 16.703125 27.09375 16.703125 20.515625 
Q 16.703125 13.921875 20.71875 10.15625 
Q 24.75 6.390625 31.78125 6.390625 
Q 38.8125 6.390625 42.859375 10.171875 
Q 46.921875 13.96875 46.921875 20.515625 
Q 46.921875 27.09375 42.890625 30.859375 
Q 38.875 34.625 31.78125 34.625 
M 21.921875 38.8125 
Q 15.578125 40.375 12.03125 44.71875 
Q 8.5 49.078125 8.5 55.328125 
Q 8.5 64.0625 14.71875 69.140625 
Q 20.953125 74.21875 31.78125 74.21875 
Q 42.671875 74.21875 48.875 69.140625 
Q 55.078125 64.0625 55.078125 55.328125 
Q 55.078125 49.078125 51.53125 44.71875 
Q 48 40.375 41.703125 38.8125 
Q 48.828125 37.15625 52.796875 32.3125 
Q 56.78125 27.484375 56.78125 20.515625 
Q 56.78125 9.90625 50.3125 4.234375 
Q 43.84375 -1.421875 31.78125 -1.421875 
Q 19.734375 -1.421875 13.25 4.234375 
Q 6.78125 9.90625 6.78125 20.515625 
Q 6.78125 27.484375 10.78125 32.3125 
Q 14.796875 37.15625 21.921875 38.8125 
M 18.3125 54.390625 
Q 18.3125 48.734375 21.84375 45.5625 
Q 25.390625 42.390625 31.78125 42.390625 
Q 38.140625 42.390625 41.71875 45.5625 
Q 45.3125 48.734375 45.3125 54.390625 
Q 45.3125 60.0625 41.71875 63.234375 
Q 38.140625 66.40625 31.78125 66.40625 
Q 25.390625 66.40625 21.84375 63.234375 
Q 18.3125 60.0625 18.3125 54.390625 
" id="BitstreamVeraSans-Roman-38"/>
      </defs>
      <g transform="translate(394.475625 397.984725)scale(0.12 -0.12)">
       <use xlink:href="#BitstreamVeraSans-Roman-30"/>
       <use x="63.623046875" xlink:href="#BitstreamVeraSans-Roman-2e"/>
       <use x="95.41015625" xlink:href="#BitstreamVeraSans-Roman-38"/>
      </g>
     </g>
    </g>
    <g id="xtick_6">
     <g id="line2d_15">
      <g>
       <use style="stroke:#000000;stroke-width:0.5;" x="493.2975" xlink:href="#m45e5c004a6" y="384.8666"/>
      </g>
     </g>
     <g id="line2d_16">
      <g>
       <use style="stroke:#000000;stroke-width:0.5;" x="493.2975" xlink:href="#m294f49b9a0" y="39.2666"/>
      </g>
     </g>
     <g id="text_6">
      <!-- 1.0 -->
      <defs>
       <path d="M 12.40625 8.296875 
L 28.515625 8.296875 
L 28.515625 63.921875 
L 10.984375 60.40625 
L 10.984375 69.390625 
L 28.421875 72.90625 
L 38.28125 72.90625 
L 38.28125 8.296875 
L 54.390625 8.296875 
L 54.390625 0 
L 12.40625 0 
z
" id="BitstreamVeraSans-Roman-31"/>
      </defs>
      <g transform="translate(483.755625 397.984725)scale(0.12 -0.12)">
       <use xlink:href="#BitstreamVeraSans-Roman-31"/>
       <use x="63.623046875" xlink:href="#BitstreamVeraSans-Roman-2e"/>
       <use x="95.41015625" xlink:href="#BitstreamVeraSans-Roman-30"/>
      </g>
     </g>
    </g>
    <g id="text_7">
     <!-- False Positive Rate -->
     <defs>
      <path d="M 9.421875 54.6875 
L 18.40625 54.6875 
L 18.40625 0 
L 9.421875 0 
z
M 9.421875 75.984375 
L 18.40625 75.984375 
L 18.40625 64.59375 
L 9.421875 64.59375 
z
" id="BitstreamVeraSans-Roman-69"/>
      <path d="M 44.28125 53.078125 
L 44.28125 44.578125 
Q 40.484375 46.53125 36.375 47.5 
Q 32.28125 48.484375 27.875 48.484375 
Q 21.1875 48.484375 17.84375 46.4375 
Q 14.5 44.390625 14.5 40.28125 
Q 14.5 37.15625 16.890625 35.375 
Q 19.28125 33.59375 26.515625 31.984375 
L 29.59375 31.296875 
Q 39.15625 29.25 43.1875 25.515625 
Q 47.21875 21.78125 47.21875 15.09375 
Q 47.21875 7.46875 41.1875 3.015625 
Q 35.15625 -1.421875 24.609375 -1.421875 
Q 20.21875 -1.421875 15.453125 -0.5625 
Q 10.6875 0.296875 5.421875 2 
L 5.421875 11.28125 
Q 10.40625 8.6875 15.234375 7.390625 
Q 20.0625 6.109375 24.8125 6.109375 
Q 31.15625 6.109375 34.5625 8.28125 
Q 37.984375 10.453125 37.984375 14.40625 
Q 37.984375 18.0625 35.515625 20.015625 
Q 33.0625 21.96875 24.703125 23.78125 
L 21.578125 24.515625 
Q 13.234375 26.265625 9.515625 29.90625 
Q 5.8125 33.546875 5.8125 39.890625 
Q 5.8125 47.609375 11.28125 51.796875 
Q 16.75 56 26.8125 56 
Q 31.78125 56 36.171875 55.265625 
Q 40.578125 54.546875 44.28125 53.078125 
" id="BitstreamVeraSans-Roman-73"/>
      <path id="BitstreamVeraSans-Roman-20"/>
      <path d="M 19.671875 64.796875 
L 19.671875 37.40625 
L 32.078125 37.40625 
Q 38.96875 37.40625 42.71875 40.96875 
Q 46.484375 44.53125 46.484375 51.125 
Q 46.484375 57.671875 42.71875 61.234375 
Q 38.96875 64.796875 32.078125 64.796875 
z
M 9.8125 72.90625 
L 32.078125 72.90625 
Q 44.34375 72.90625 50.609375 67.359375 
Q 56.890625 61.8125 56.890625 51.125 
Q 56.890625 40.328125 50.609375 34.8125 
Q 44.34375 29.296875 32.078125 29.296875 
L 19.671875 29.296875 
L 19.671875 0 
L 9.8125 0 
z
" id="BitstreamVeraSans-Roman-50"/>
      <path d="M 44.390625 34.1875 
Q 47.5625 33.109375 50.5625 29.59375 
Q 53.5625 26.078125 56.59375 19.921875 
L 66.609375 0 
L 56 0 
L 46.6875 18.703125 
Q 43.0625 26.03125 39.671875 28.421875 
Q 36.28125 30.8125 30.421875 30.8125 
L 19.671875 30.8125 
L 19.671875 0 
L 9.8125 0 
L 9.8125 72.90625 
L 32.078125 72.90625 
Q 44.578125 72.90625 50.734375 67.671875 
Q 56.890625 62.453125 56.890625 51.90625 
Q 56.890625 45.015625 53.6875 40.46875 
Q 50.484375 35.9375 44.390625 34.1875 
M 19.671875 64.796875 
L 19.671875 38.921875 
L 32.078125 38.921875 
Q 39.203125 38.921875 42.84375 42.21875 
Q 46.484375 45.515625 46.484375 51.90625 
Q 46.484375 58.296875 42.84375 61.546875 
Q 39.203125 64.796875 32.078125 64.796875 
z
" id="BitstreamVeraSans-Roman-52"/>
      <path d="M 30.609375 48.390625 
Q 23.390625 48.390625 19.1875 42.75 
Q 14.984375 37.109375 14.984375 27.296875 
Q 14.984375 17.484375 19.15625 11.84375 
Q 23.34375 6.203125 30.609375 6.203125 
Q 37.796875 6.203125 41.984375 11.859375 
Q 46.1875 17.53125 46.1875 27.296875 
Q 46.1875 37.015625 41.984375 42.703125 
Q 37.796875 48.390625 30.609375 48.390625 
M 30.609375 56 
Q 42.328125 56 49.015625 48.375 
Q 55.71875 40.765625 55.71875 27.296875 
Q 55.71875 13.875 49.015625 6.21875 
Q 42.328125 -1.421875 30.609375 -1.421875 
Q 18.84375 -1.421875 12.171875 6.21875 
Q 5.515625 13.875 5.515625 27.296875 
Q 5.515625 40.765625 12.171875 48.375 
Q 18.84375 56 30.609375 56 
" id="BitstreamVeraSans-Roman-6f"/>
      <path d="M 9.8125 72.90625 
L 51.703125 72.90625 
L 51.703125 64.59375 
L 19.671875 64.59375 
L 19.671875 43.109375 
L 48.578125 43.109375 
L 48.578125 34.8125 
L 19.671875 34.8125 
L 19.671875 0 
L 9.8125 0 
z
" id="BitstreamVeraSans-Roman-46"/>
      <path d="M 18.3125 70.21875 
L 18.3125 54.6875 
L 36.8125 54.6875 
L 36.8125 47.703125 
L 18.3125 47.703125 
L 18.3125 18.015625 
Q 18.3125 11.328125 20.140625 9.421875 
Q 21.96875 7.515625 27.59375 7.515625 
L 36.8125 7.515625 
L 36.8125 0 
L 27.59375 0 
Q 17.1875 0 13.234375 3.875 
Q 9.28125 7.765625 9.28125 18.015625 
L 9.28125 47.703125 
L 2.6875 47.703125 
L 2.6875 54.6875 
L 9.28125 54.6875 
L 9.28125 70.21875 
z
" id="BitstreamVeraSans-Roman-74"/>
      <path d="M 9.421875 75.984375 
L 18.40625 75.984375 
L 18.40625 0 
L 9.421875 0 
z
" id="BitstreamVeraSans-Roman-6c"/>
      <path d="M 2.984375 54.6875 
L 12.5 54.6875 
L 29.59375 8.796875 
L 46.6875 54.6875 
L 56.203125 54.6875 
L 35.6875 0 
L 23.484375 0 
z
" id="BitstreamVeraSans-Roman-76"/>
      <path d="M 34.28125 27.484375 
Q 23.390625 27.484375 19.1875 25 
Q 14.984375 22.515625 14.984375 16.5 
Q 14.984375 11.71875 18.140625 8.90625 
Q 21.296875 6.109375 26.703125 6.109375 
Q 34.1875 6.109375 38.703125 11.40625 
Q 43.21875 16.703125 43.21875 25.484375 
L 43.21875 27.484375 
z
M 52.203125 31.203125 
L 52.203125 0 
L 43.21875 0 
L 43.21875 8.296875 
Q 40.140625 3.328125 35.546875 0.953125 
Q 30.953125 -1.421875 24.3125 -1.421875 
Q 15.921875 -1.421875 10.953125 3.296875 
Q 6 8.015625 6 15.921875 
Q 6 25.140625 12.171875 29.828125 
Q 18.359375 34.515625 30.609375 34.515625 
L 43.21875 34.515625 
L 43.21875 35.40625 
Q 43.21875 41.609375 39.140625 45 
Q 35.0625 48.390625 27.6875 48.390625 
Q 23 48.390625 18.546875 47.265625 
Q 14.109375 46.140625 10.015625 43.890625 
L 10.015625 52.203125 
Q 14.9375 54.109375 19.578125 55.046875 
Q 24.21875 56 28.609375 56 
Q 40.484375 56 46.34375 49.84375 
Q 52.203125 43.703125 52.203125 31.203125 
" id="BitstreamVeraSans-Roman-61"/>
      <path d="M 56.203125 29.59375 
L 56.203125 25.203125 
L 14.890625 25.203125 
Q 15.484375 15.921875 20.484375 11.0625 
Q 25.484375 6.203125 34.421875 6.203125 
Q 39.59375 6.203125 44.453125 7.46875 
Q 49.3125 8.734375 54.109375 11.28125 
L 54.109375 2.78125 
Q 49.265625 0.734375 44.1875 -0.34375 
Q 39.109375 -1.421875 33.890625 -1.421875 
Q 20.796875 -1.421875 13.15625 6.1875 
Q 5.515625 13.8125 5.515625 26.8125 
Q 5.515625 40.234375 12.765625 48.109375 
Q 20.015625 56 32.328125 56 
Q 43.359375 56 49.78125 48.890625 
Q 56.203125 41.796875 56.203125 29.59375 
M 47.21875 32.234375 
Q 47.125 39.59375 43.09375 43.984375 
Q 39.0625 48.390625 32.421875 48.390625 
Q 24.90625 48.390625 20.390625 44.140625 
Q 15.875 39.890625 15.1875 32.171875 
z
" id="BitstreamVeraSans-Roman-65"/>
     </defs>
     <g transform="translate(213.4509375 414.598475)scale(0.12 -0.12)">
      <use xlink:href="#BitstreamVeraSans-Roman-46"/>
      <use x="57.37890625" xlink:href="#BitstreamVeraSans-Roman-61"/>
      <use x="118.658203125" xlink:href="#BitstreamVeraSans-Roman-6c"/>
      <use x="146.44140625" xlink:href="#BitstreamVeraSans-Roman-73"/>
      <use x="198.541015625" xlink:href="#BitstreamVeraSans-Roman-65"/>
      <use x="260.064453125" xlink:href="#BitstreamVeraSans-Roman-20"/>
      <use x="291.8515625" xlink:href="#BitstreamVeraSans-Roman-50"/>
      <use x="352.107421875" xlink:href="#BitstreamVeraSans-Roman-6f"/>
      <use x="413.2890625" xlink:href="#BitstreamVeraSans-Roman-73"/>
      <use x="465.388671875" xlink:href="#BitstreamVeraSans-Roman-69"/>
      <use x="493.171875" xlink:href="#BitstreamVeraSans-Roman-74"/>
      <use x="532.380859375" xlink:href="#BitstreamVeraSans-Roman-69"/>
      <use x="560.1640625" xlink:href="#BitstreamVeraSans-Roman-76"/>
      <use x="619.34375" xlink:href="#BitstreamVeraSans-Roman-65"/>
      <use x="680.8671875" xlink:href="#BitstreamVeraSans-Roman-20"/>
      <use x="712.654296875" xlink:href="#BitstreamVeraSans-Roman-52"/>
      <use x="782.10546875" xlink:href="#BitstreamVeraSans-Roman-61"/>
      <use x="843.384765625" xlink:href="#BitstreamVeraSans-Roman-74"/>
      <use x="882.59375" xlink:href="#BitstreamVeraSans-Roman-65"/>
     </g>
    </g>
   </g>
   <g id="matplotlib.axis_2">
    <g id="ytick_1">
     <g id="line2d_17">
      <defs>
       <path d="M 0 0 
L 4 0 
" id="ma2a443b2b8" style="stroke:#000000;stroke-width:0.5;"/>
      </defs>
      <g>
       <use style="stroke:#000000;stroke-width:0.5;" x="46.8975" xlink:href="#ma2a443b2b8" y="384.8666"/>
      </g>
     </g>
     <g id="line2d_18">
      <defs>
       <path d="M 0 0 
L -4 0 
" id="mdec3e55e5a" style="stroke:#000000;stroke-width:0.5;"/>
      </defs>
      <g>
       <use style="stroke:#000000;stroke-width:0.5;" x="493.2975" xlink:href="#mdec3e55e5a" y="384.8666"/>
      </g>
     </g>
     <g id="text_8">
      <!-- 0.0 -->
      <g transform="translate(23.81375 388.17785)scale(0.12 -0.12)">
       <use xlink:href="#BitstreamVeraSans-Roman-30"/>
       <use x="63.623046875" xlink:href="#BitstreamVeraSans-Roman-2e"/>
       <use x="95.41015625" xlink:href="#BitstreamVeraSans-Roman-30"/>
      </g>
     </g>
    </g>
    <g id="ytick_2">
     <g id="line2d_19">
      <g>
       <use style="stroke:#000000;stroke-width:0.5;" x="46.8975" xlink:href="#ma2a443b2b8" y="319.038028571"/>
      </g>
     </g>
     <g id="line2d_20">
      <g>
       <use style="stroke:#000000;stroke-width:0.5;" x="493.2975" xlink:href="#mdec3e55e5a" y="319.038028571"/>
      </g>
     </g>
     <g id="text_9">
      <!-- 0.2 -->
      <g transform="translate(23.81375 322.349278571)scale(0.12 -0.12)">
       <use xlink:href="#BitstreamVeraSans-Roman-30"/>
       <use x="63.623046875" xlink:href="#BitstreamVeraSans-Roman-2e"/>
       <use x="95.41015625" xlink:href="#BitstreamVeraSans-Roman-32"/>
      </g>
     </g>
    </g>
    <g id="ytick_3">
     <g id="line2d_21">
      <g>
       <use style="stroke:#000000;stroke-width:0.5;" x="46.8975" xlink:href="#ma2a443b2b8" y="253.209457143"/>
      </g>
     </g>
     <g id="line2d_22">
      <g>
       <use style="stroke:#000000;stroke-width:0.5;" x="493.2975" xlink:href="#mdec3e55e5a" y="253.209457143"/>
      </g>
     </g>
     <g id="text_10">
      <!-- 0.4 -->
      <g transform="translate(23.81375 256.520707143)scale(0.12 -0.12)">
       <use xlink:href="#BitstreamVeraSans-Roman-30"/>
       <use x="63.623046875" xlink:href="#BitstreamVeraSans-Roman-2e"/>
       <use x="95.41015625" xlink:href="#BitstreamVeraSans-Roman-34"/>
      </g>
     </g>
    </g>
    <g id="ytick_4">
     <g id="line2d_23">
      <g>
       <use style="stroke:#000000;stroke-width:0.5;" x="46.8975" xlink:href="#ma2a443b2b8" y="187.380885714"/>
      </g>
     </g>
     <g id="line2d_24">
      <g>
       <use style="stroke:#000000;stroke-width:0.5;" x="493.2975" xlink:href="#mdec3e55e5a" y="187.380885714"/>
      </g>
     </g>
     <g id="text_11">
      <!-- 0.6 -->
      <g transform="translate(23.81375 190.692135714)scale(0.12 -0.12)">
       <use xlink:href="#BitstreamVeraSans-Roman-30"/>
       <use x="63.623046875" xlink:href="#BitstreamVeraSans-Roman-2e"/>
       <use x="95.41015625" xlink:href="#BitstreamVeraSans-Roman-36"/>
      </g>
     </g>
    </g>
    <g id="ytick_5">
     <g id="line2d_25">
      <g>
       <use style="stroke:#000000;stroke-width:0.5;" x="46.8975" xlink:href="#ma2a443b2b8" y="121.552314286"/>
      </g>
     </g>
     <g id="line2d_26">
      <g>
       <use style="stroke:#000000;stroke-width:0.5;" x="493.2975" xlink:href="#mdec3e55e5a" y="121.552314286"/>
      </g>
     </g>
     <g id="text_12">
      <!-- 0.8 -->
      <g transform="translate(23.81375 124.863564286)scale(0.12 -0.12)">
       <use xlink:href="#BitstreamVeraSans-Roman-30"/>
       <use x="63.623046875" xlink:href="#BitstreamVeraSans-Roman-2e"/>
       <use x="95.41015625" xlink:href="#BitstreamVeraSans-Roman-38"/>
      </g>
     </g>
    </g>
    <g id="ytick_6">
     <g id="line2d_27">
      <g>
       <use style="stroke:#000000;stroke-width:0.5;" x="46.8975" xlink:href="#ma2a443b2b8" y="55.7237428571"/>
      </g>
     </g>
     <g id="line2d_28">
      <g>
       <use style="stroke:#000000;stroke-width:0.5;" x="493.2975" xlink:href="#mdec3e55e5a" y="55.7237428571"/>
      </g>
     </g>
     <g id="text_13">
      <!-- 1.0 -->
      <g transform="translate(23.81375 59.0349928571)scale(0.12 -0.12)">
       <use xlink:href="#BitstreamVeraSans-Roman-31"/>
       <use x="63.623046875" xlink:href="#BitstreamVeraSans-Roman-2e"/>
       <use x="95.41015625" xlink:href="#BitstreamVeraSans-Roman-30"/>
      </g>
     </g>
    </g>
    <g id="text_14">
     <!-- True Positive Rate -->
     <defs>
      <path d="M -0.296875 72.90625 
L 61.375 72.90625 
L 61.375 64.59375 
L 35.5 64.59375 
L 35.5 0 
L 25.59375 0 
L 25.59375 64.59375 
L -0.296875 64.59375 
z
" id="BitstreamVeraSans-Roman-54"/>
      <path d="M 41.109375 46.296875 
Q 39.59375 47.171875 37.8125 47.578125 
Q 36.03125 48 33.890625 48 
Q 26.265625 48 22.1875 43.046875 
Q 18.109375 38.09375 18.109375 28.8125 
L 18.109375 0 
L 9.078125 0 
L 9.078125 54.6875 
L 18.109375 54.6875 
L 18.109375 46.1875 
Q 20.953125 51.171875 25.484375 53.578125 
Q 30.03125 56 36.53125 56 
Q 37.453125 56 38.578125 55.875 
Q 39.703125 55.765625 41.0625 55.515625 
z
" id="BitstreamVeraSans-Roman-72"/>
      <path d="M 8.5 21.578125 
L 8.5 54.6875 
L 17.484375 54.6875 
L 17.484375 21.921875 
Q 17.484375 14.15625 20.5 10.265625 
Q 23.53125 6.390625 29.59375 6.390625 
Q 36.859375 6.390625 41.078125 11.03125 
Q 45.3125 15.671875 45.3125 23.6875 
L 45.3125 54.6875 
L 54.296875 54.6875 
L 54.296875 0 
L 45.3125 0 
L 45.3125 8.40625 
Q 42.046875 3.421875 37.71875 1 
Q 33.40625 -1.421875 27.6875 -1.421875 
Q 18.265625 -1.421875 13.375 4.4375 
Q 8.5 10.296875 8.5 21.578125 
" id="BitstreamVeraSans-Roman-75"/>
     </defs>
     <g transform="translate(16.318125 266.7219125)rotate(-90.0)scale(0.12 -0.12)">
      <use xlink:href="#BitstreamVeraSans-Roman-54"/>
      <use x="60.865234375" xlink:href="#BitstreamVeraSans-Roman-72"/>
      <use x="101.978515625" xlink:href="#BitstreamVeraSans-Roman-75"/>
      <use x="165.357421875" xlink:href="#BitstreamVeraSans-Roman-65"/>
      <use x="226.880859375" xlink:href="#BitstreamVeraSans-Roman-20"/>
      <use x="258.66796875" xlink:href="#BitstreamVeraSans-Roman-50"/>
      <use x="318.923828125" xlink:href="#BitstreamVeraSans-Roman-6f"/>
      <use x="380.10546875" xlink:href="#BitstreamVeraSans-Roman-73"/>
      <use x="432.205078125" xlink:href="#BitstreamVeraSans-Roman-69"/>
      <use x="459.98828125" xlink:href="#BitstreamVeraSans-Roman-74"/>
      <use x="499.197265625" xlink:href="#BitstreamVeraSans-Roman-69"/>
      <use x="526.98046875" xlink:href="#BitstreamVeraSans-Roman-76"/>
      <use x="586.16015625" xlink:href="#BitstreamVeraSans-Roman-65"/>
      <use x="647.68359375" xlink:href="#BitstreamVeraSans-Roman-20"/>
      <use x="679.470703125" xlink:href="#BitstreamVeraSans-Roman-52"/>
      <use x="748.921875" xlink:href="#BitstreamVeraSans-Roman-61"/>
      <use x="810.201171875" xlink:href="#BitstreamVeraSans-Roman-74"/>
      <use x="849.41015625" xlink:href="#BitstreamVeraSans-Roman-65"/>
     </g>
    </g>
   </g>
   <g id="text_15">
    <!-- ROC Curve GradientBoosting + RandomOverSampler -->
    <defs>
     <path d="M 64.40625 67.28125 
L 64.40625 56.890625 
Q 59.421875 61.53125 53.78125 63.8125 
Q 48.140625 66.109375 41.796875 66.109375 
Q 29.296875 66.109375 22.65625 58.46875 
Q 16.015625 50.828125 16.015625 36.375 
Q 16.015625 21.96875 22.65625 14.328125 
Q 29.296875 6.6875 41.796875 6.6875 
Q 48.140625 6.6875 53.78125 8.984375 
Q 59.421875 11.28125 64.40625 15.921875 
L 64.40625 5.609375 
Q 59.234375 2.09375 53.4375 0.328125 
Q 47.65625 -1.421875 41.21875 -1.421875 
Q 24.65625 -1.421875 15.125 8.703125 
Q 5.609375 18.84375 5.609375 36.375 
Q 5.609375 53.953125 15.125 64.078125 
Q 24.65625 74.21875 41.21875 74.21875 
Q 47.75 74.21875 53.53125 72.484375 
Q 59.328125 70.75 64.40625 67.28125 
" id="BitstreamVeraSans-Roman-43"/>
     <path d="M 45.40625 46.390625 
L 45.40625 75.984375 
L 54.390625 75.984375 
L 54.390625 0 
L 45.40625 0 
L 45.40625 8.203125 
Q 42.578125 3.328125 38.25 0.953125 
Q 33.9375 -1.421875 27.875 -1.421875 
Q 17.96875 -1.421875 11.734375 6.484375 
Q 5.515625 14.40625 5.515625 27.296875 
Q 5.515625 40.1875 11.734375 48.09375 
Q 17.96875 56 27.875 56 
Q 33.9375 56 38.25 53.625 
Q 42.578125 51.265625 45.40625 46.390625 
M 14.796875 27.296875 
Q 14.796875 17.390625 18.875 11.75 
Q 22.953125 6.109375 30.078125 6.109375 
Q 37.203125 6.109375 41.296875 11.75 
Q 45.40625 17.390625 45.40625 27.296875 
Q 45.40625 37.203125 41.296875 42.84375 
Q 37.203125 48.484375 30.078125 48.484375 
Q 22.953125 48.484375 18.875 42.84375 
Q 14.796875 37.203125 14.796875 27.296875 
" id="BitstreamVeraSans-Roman-64"/>
     <path d="M 52 44.1875 
Q 55.375 50.25 60.0625 53.125 
Q 64.75 56 71.09375 56 
Q 79.640625 56 84.28125 50.015625 
Q 88.921875 44.046875 88.921875 33.015625 
L 88.921875 0 
L 79.890625 0 
L 79.890625 32.71875 
Q 79.890625 40.578125 77.09375 44.375 
Q 74.3125 48.1875 68.609375 48.1875 
Q 61.625 48.1875 57.5625 43.546875 
Q 53.515625 38.921875 53.515625 30.90625 
L 53.515625 0 
L 44.484375 0 
L 44.484375 32.71875 
Q 44.484375 40.625 41.703125 44.40625 
Q 38.921875 48.1875 33.109375 48.1875 
Q 26.21875 48.1875 22.15625 43.53125 
Q 18.109375 38.875 18.109375 30.90625 
L 18.109375 0 
L 9.078125 0 
L 9.078125 54.6875 
L 18.109375 54.6875 
L 18.109375 46.1875 
Q 21.1875 51.21875 25.484375 53.609375 
Q 29.78125 56 35.6875 56 
Q 41.65625 56 45.828125 52.96875 
Q 50 49.953125 52 44.1875 
" id="BitstreamVeraSans-Roman-6d"/>
     <path d="M 18.109375 8.203125 
L 18.109375 -20.796875 
L 9.078125 -20.796875 
L 9.078125 54.6875 
L 18.109375 54.6875 
L 18.109375 46.390625 
Q 20.953125 51.265625 25.265625 53.625 
Q 29.59375 56 35.59375 56 
Q 45.5625 56 51.78125 48.09375 
Q 58.015625 40.1875 58.015625 27.296875 
Q 58.015625 14.40625 51.78125 6.484375 
Q 45.5625 -1.421875 35.59375 -1.421875 
Q 29.59375 -1.421875 25.265625 0.953125 
Q 20.953125 3.328125 18.109375 8.203125 
M 48.6875 27.296875 
Q 48.6875 37.203125 44.609375 42.84375 
Q 40.53125 48.484375 33.40625 48.484375 
Q 26.265625 48.484375 22.1875 42.84375 
Q 18.109375 37.203125 18.109375 27.296875 
Q 18.109375 17.390625 22.1875 11.75 
Q 26.265625 6.109375 33.40625 6.109375 
Q 40.53125 6.109375 44.609375 11.75 
Q 48.6875 17.390625 48.6875 27.296875 
" id="BitstreamVeraSans-Roman-70"/>
     <path d="M 53.515625 70.515625 
L 53.515625 60.890625 
Q 47.90625 63.578125 42.921875 64.890625 
Q 37.9375 66.21875 33.296875 66.21875 
Q 25.25 66.21875 20.875 63.09375 
Q 16.5 59.96875 16.5 54.203125 
Q 16.5 49.359375 19.40625 46.890625 
Q 22.3125 44.4375 30.421875 42.921875 
L 36.375 41.703125 
Q 47.40625 39.59375 52.65625 34.296875 
Q 57.90625 29 57.90625 20.125 
Q 57.90625 9.515625 50.796875 4.046875 
Q 43.703125 -1.421875 29.984375 -1.421875 
Q 24.8125 -1.421875 18.96875 -0.25 
Q 13.140625 0.921875 6.890625 3.21875 
L 6.890625 13.375 
Q 12.890625 10.015625 18.65625 8.296875 
Q 24.421875 6.59375 29.984375 6.59375 
Q 38.421875 6.59375 43.015625 9.90625 
Q 47.609375 13.234375 47.609375 19.390625 
Q 47.609375 24.75 44.3125 27.78125 
Q 41.015625 30.8125 33.5 32.328125 
L 27.484375 33.5 
Q 16.453125 35.6875 11.515625 40.375 
Q 6.59375 45.0625 6.59375 53.421875 
Q 6.59375 63.09375 13.40625 68.65625 
Q 20.21875 74.21875 32.171875 74.21875 
Q 37.3125 74.21875 42.625 73.28125 
Q 47.953125 72.359375 53.515625 70.515625 
" id="BitstreamVeraSans-Roman-53"/>
     <path d="M 39.40625 66.21875 
Q 28.65625 66.21875 22.328125 58.203125 
Q 16.015625 50.203125 16.015625 36.375 
Q 16.015625 22.609375 22.328125 14.59375 
Q 28.65625 6.59375 39.40625 6.59375 
Q 50.140625 6.59375 56.421875 14.59375 
Q 62.703125 22.609375 62.703125 36.375 
Q 62.703125 50.203125 56.421875 58.203125 
Q 50.140625 66.21875 39.40625 66.21875 
M 39.40625 74.21875 
Q 54.734375 74.21875 63.90625 63.9375 
Q 73.09375 53.65625 73.09375 36.375 
Q 73.09375 19.140625 63.90625 8.859375 
Q 54.734375 -1.421875 39.40625 -1.421875 
Q 24.03125 -1.421875 14.8125 8.828125 
Q 5.609375 19.09375 5.609375 36.375 
Q 5.609375 53.65625 14.8125 63.9375 
Q 24.03125 74.21875 39.40625 74.21875 
" id="BitstreamVeraSans-Roman-4f"/>
     <path d="M 59.515625 10.40625 
L 59.515625 29.984375 
L 43.40625 29.984375 
L 43.40625 38.09375 
L 69.28125 38.09375 
L 69.28125 6.78125 
Q 63.578125 2.734375 56.6875 0.65625 
Q 49.8125 -1.421875 42 -1.421875 
Q 24.90625 -1.421875 15.25 8.5625 
Q 5.609375 18.5625 5.609375 36.375 
Q 5.609375 54.25 15.25 64.234375 
Q 24.90625 74.21875 42 74.21875 
Q 49.125 74.21875 55.546875 72.453125 
Q 61.96875 70.703125 67.390625 67.28125 
L 67.390625 56.78125 
Q 61.921875 61.421875 55.765625 63.765625 
Q 49.609375 66.109375 42.828125 66.109375 
Q 29.4375 66.109375 22.71875 58.640625 
Q 16.015625 51.171875 16.015625 36.375 
Q 16.015625 21.625 22.71875 14.15625 
Q 29.4375 6.6875 42.828125 6.6875 
Q 48.046875 6.6875 52.140625 7.59375 
Q 56.25 8.5 59.515625 10.40625 
" id="BitstreamVeraSans-Roman-47"/>
     <path d="M 45.40625 27.984375 
Q 45.40625 37.75 41.375 43.109375 
Q 37.359375 48.484375 30.078125 48.484375 
Q 22.859375 48.484375 18.828125 43.109375 
Q 14.796875 37.75 14.796875 27.984375 
Q 14.796875 18.265625 18.828125 12.890625 
Q 22.859375 7.515625 30.078125 7.515625 
Q 37.359375 7.515625 41.375 12.890625 
Q 45.40625 18.265625 45.40625 27.984375 
M 54.390625 6.78125 
Q 54.390625 -7.171875 48.1875 -13.984375 
Q 42 -20.796875 29.203125 -20.796875 
Q 24.46875 -20.796875 20.265625 -20.09375 
Q 16.0625 -19.390625 12.109375 -17.921875 
L 12.109375 -9.1875 
Q 16.0625 -11.328125 19.921875 -12.34375 
Q 23.78125 -13.375 27.78125 -13.375 
Q 36.625 -13.375 41.015625 -8.765625 
Q 45.40625 -4.15625 45.40625 5.171875 
L 45.40625 9.625 
Q 42.625 4.78125 38.28125 2.390625 
Q 33.9375 0 27.875 0 
Q 17.828125 0 11.671875 7.65625 
Q 5.515625 15.328125 5.515625 27.984375 
Q 5.515625 40.671875 11.671875 48.328125 
Q 17.828125 56 27.875 56 
Q 33.9375 56 38.28125 53.609375 
Q 42.625 51.21875 45.40625 46.390625 
L 45.40625 54.6875 
L 54.390625 54.6875 
z
" id="BitstreamVeraSans-Roman-67"/>
     <path d="M 46 62.703125 
L 46 35.5 
L 73.1875 35.5 
L 73.1875 27.203125 
L 46 27.203125 
L 46 0 
L 37.796875 0 
L 37.796875 27.203125 
L 10.59375 27.203125 
L 10.59375 35.5 
L 37.796875 35.5 
L 37.796875 62.703125 
z
" id="BitstreamVeraSans-Roman-2b"/>
     <path d="M 19.671875 34.8125 
L 19.671875 8.109375 
L 35.5 8.109375 
Q 43.453125 8.109375 47.28125 11.40625 
Q 51.125 14.703125 51.125 21.484375 
Q 51.125 28.328125 47.28125 31.5625 
Q 43.453125 34.8125 35.5 34.8125 
z
M 19.671875 64.796875 
L 19.671875 42.828125 
L 34.28125 42.828125 
Q 41.5 42.828125 45.03125 45.53125 
Q 48.578125 48.25 48.578125 53.8125 
Q 48.578125 59.328125 45.03125 62.0625 
Q 41.5 64.796875 34.28125 64.796875 
z
M 9.8125 72.90625 
L 35.015625 72.90625 
Q 46.296875 72.90625 52.390625 68.21875 
Q 58.5 63.53125 58.5 54.890625 
Q 58.5 48.1875 55.375 44.234375 
Q 52.25 40.28125 46.1875 39.3125 
Q 53.46875 37.75 57.5 32.78125 
Q 61.53125 27.828125 61.53125 20.40625 
Q 61.53125 10.640625 54.890625 5.3125 
Q 48.25 0 35.984375 0 
L 9.8125 0 
z
" id="BitstreamVeraSans-Roman-42"/>
     <path d="M 54.890625 33.015625 
L 54.890625 0 
L 45.90625 0 
L 45.90625 32.71875 
Q 45.90625 40.484375 42.875 44.328125 
Q 39.84375 48.1875 33.796875 48.1875 
Q 26.515625 48.1875 22.3125 43.546875 
Q 18.109375 38.921875 18.109375 30.90625 
L 18.109375 0 
L 9.078125 0 
L 9.078125 54.6875 
L 18.109375 54.6875 
L 18.109375 46.1875 
Q 21.34375 51.125 25.703125 53.5625 
Q 30.078125 56 35.796875 56 
Q 45.21875 56 50.046875 50.171875 
Q 54.890625 44.34375 54.890625 33.015625 
" id="BitstreamVeraSans-Roman-6e"/>
    </defs>
    <g transform="translate(77.93175 18.14175)scale(0.144 -0.144)">
     <use xlink:href="#BitstreamVeraSans-Roman-52"/>
     <use x="69.482421875" xlink:href="#BitstreamVeraSans-Roman-4f"/>
     <use x="148.193359375" xlink:href="#BitstreamVeraSans-Roman-43"/>
     <use x="218.017578125" xlink:href="#BitstreamVeraSans-Roman-20"/>
     <use x="249.8046875" xlink:href="#BitstreamVeraSans-Roman-43"/>
     <use x="319.62890625" xlink:href="#BitstreamVeraSans-Roman-75"/>
     <use x="383.0078125" xlink:href="#BitstreamVeraSans-Roman-72"/>
     <use x="424.12109375" xlink:href="#BitstreamVeraSans-Roman-76"/>
     <use x="483.30078125" xlink:href="#BitstreamVeraSans-Roman-65"/>
     <use x="544.82421875" xlink:href="#BitstreamVeraSans-Roman-20"/>
     <use x="576.611328125" xlink:href="#BitstreamVeraSans-Roman-47"/>
     <use x="654.1015625" xlink:href="#BitstreamVeraSans-Roman-72"/>
     <use x="695.21484375" xlink:href="#BitstreamVeraSans-Roman-61"/>
     <use x="756.494140625" xlink:href="#BitstreamVeraSans-Roman-64"/>
     <use x="819.970703125" xlink:href="#BitstreamVeraSans-Roman-69"/>
     <use x="847.75390625" xlink:href="#BitstreamVeraSans-Roman-65"/>
     <use x="909.27734375" xlink:href="#BitstreamVeraSans-Roman-6e"/>
     <use x="972.65625" xlink:href="#BitstreamVeraSans-Roman-74"/>
     <use x="1011.865234375" xlink:href="#BitstreamVeraSans-Roman-42"/>
     <use x="1080.46875" xlink:href="#BitstreamVeraSans-Roman-6f"/>
     <use x="1141.650390625" xlink:href="#BitstreamVeraSans-Roman-6f"/>
     <use x="1202.83203125" xlink:href="#BitstreamVeraSans-Roman-73"/>
     <use x="1254.931640625" xlink:href="#BitstreamVeraSans-Roman-74"/>
     <use x="1294.140625" xlink:href="#BitstreamVeraSans-Roman-69"/>
     <use x="1321.923828125" xlink:href="#BitstreamVeraSans-Roman-6e"/>
     <use x="1385.302734375" xlink:href="#BitstreamVeraSans-Roman-67"/>
     <use x="1448.779296875" xlink:href="#BitstreamVeraSans-Roman-20"/>
     <use x="1480.56640625" xlink:href="#BitstreamVeraSans-Roman-2b"/>
     <use x="1564.35546875" xlink:href="#BitstreamVeraSans-Roman-20"/>
     <use x="1596.142578125" xlink:href="#BitstreamVeraSans-Roman-52"/>
     <use x="1665.59375" xlink:href="#BitstreamVeraSans-Roman-61"/>
     <use x="1726.873046875" xlink:href="#BitstreamVeraSans-Roman-6e"/>
     <use x="1790.251953125" xlink:href="#BitstreamVeraSans-Roman-64"/>
     <use x="1853.728515625" xlink:href="#BitstreamVeraSans-Roman-6f"/>
     <use x="1914.91015625" xlink:href="#BitstreamVeraSans-Roman-6d"/>
     <use x="2012.322265625" xlink:href="#BitstreamVeraSans-Roman-4f"/>
     <use x="2091.033203125" xlink:href="#BitstreamVeraSans-Roman-76"/>
     <use x="2150.212890625" xlink:href="#BitstreamVeraSans-Roman-65"/>
     <use x="2211.736328125" xlink:href="#BitstreamVeraSans-Roman-72"/>
     <use x="2252.849609375" xlink:href="#BitstreamVeraSans-Roman-53"/>
     <use x="2316.326171875" xlink:href="#BitstreamVeraSans-Roman-61"/>
     <use x="2377.60546875" xlink:href="#BitstreamVeraSans-Roman-6d"/>
     <use x="2475.017578125" xlink:href="#BitstreamVeraSans-Roman-70"/>
     <use x="2538.494140625" xlink:href="#BitstreamVeraSans-Roman-6c"/>
     <use x="2566.27734375" xlink:href="#BitstreamVeraSans-Roman-65"/>
     <use x="2627.80078125" xlink:href="#BitstreamVeraSans-Roman-72"/>
    </g>
    <!-- Train: 1   Test: [1, 4, 8, 12, 16, 20, 24, 28] -->
    <defs>
     <path d="M 30.421875 75.984375 
L 30.421875 -13.1875 
L 9.71875 -13.1875 
L 9.71875 -6.203125 
L 21.390625 -6.203125 
L 21.390625 69 
L 9.71875 69 
L 9.71875 75.984375 
z
" id="BitstreamVeraSans-Roman-5d"/>
     <path d="M 11.71875 12.40625 
L 22.015625 12.40625 
L 22.015625 0 
L 11.71875 0 
z
M 11.71875 51.703125 
L 22.015625 51.703125 
L 22.015625 39.3125 
L 11.71875 39.3125 
z
" id="BitstreamVeraSans-Roman-3a"/>
     <path d="M 8.59375 75.984375 
L 29.296875 75.984375 
L 29.296875 69 
L 17.578125 69 
L 17.578125 -6.203125 
L 29.296875 -6.203125 
L 29.296875 -13.1875 
L 8.59375 -13.1875 
z
" id="BitstreamVeraSans-Roman-5b"/>
     <path d="M 11.71875 12.40625 
L 22.015625 12.40625 
L 22.015625 4 
L 14.015625 -11.625 
L 7.71875 -11.625 
L 11.71875 4 
z
" id="BitstreamVeraSans-Roman-2c"/>
    </defs>
    <g transform="translate(118.318125 34.2666)scale(0.144 -0.144)">
     <use xlink:href="#BitstreamVeraSans-Roman-54"/>
     <use x="60.865234375" xlink:href="#BitstreamVeraSans-Roman-72"/>
     <use x="101.978515625" xlink:href="#BitstreamVeraSans-Roman-61"/>
     <use x="163.2578125" xlink:href="#BitstreamVeraSans-Roman-69"/>
     <use x="191.041015625" xlink:href="#BitstreamVeraSans-Roman-6e"/>
     <use x="254.419921875" xlink:href="#BitstreamVeraSans-Roman-3a"/>
     <use x="288.111328125" xlink:href="#BitstreamVeraSans-Roman-20"/>
     <use x="319.8984375" xlink:href="#BitstreamVeraSans-Roman-31"/>
     <use x="383.521484375" xlink:href="#BitstreamVeraSans-Roman-20"/>
     <use x="415.30859375" xlink:href="#BitstreamVeraSans-Roman-20"/>
     <use x="447.095703125" xlink:href="#BitstreamVeraSans-Roman-20"/>
     <use x="478.8828125" xlink:href="#BitstreamVeraSans-Roman-54"/>
     <use x="539.701171875" xlink:href="#BitstreamVeraSans-Roman-65"/>
     <use x="601.224609375" xlink:href="#BitstreamVeraSans-Roman-73"/>
     <use x="653.32421875" xlink:href="#BitstreamVeraSans-Roman-74"/>
     <use x="692.533203125" xlink:href="#BitstreamVeraSans-Roman-3a"/>
     <use x="726.224609375" xlink:href="#BitstreamVeraSans-Roman-20"/>
     <use x="758.01171875" xlink:href="#BitstreamVeraSans-Roman-5b"/>
     <use x="797.025390625" xlink:href="#BitstreamVeraSans-Roman-31"/>
     <use x="860.6484375" xlink:href="#BitstreamVeraSans-Roman-2c"/>
     <use x="892.435546875" xlink:href="#BitstreamVeraSans-Roman-20"/>
     <use x="924.22265625" xlink:href="#BitstreamVeraSans-Roman-34"/>
     <use x="987.845703125" xlink:href="#BitstreamVeraSans-Roman-2c"/>
     <use x="1019.6328125" xlink:href="#BitstreamVeraSans-Roman-20"/>
     <use x="1051.419921875" xlink:href="#BitstreamVeraSans-Roman-38"/>
     <use x="1115.04296875" xlink:href="#BitstreamVeraSans-Roman-2c"/>
     <use x="1146.830078125" xlink:href="#BitstreamVeraSans-Roman-20"/>
     <use x="1178.6171875" xlink:href="#BitstreamVeraSans-Roman-31"/>
     <use x="1242.240234375" xlink:href="#BitstreamVeraSans-Roman-32"/>
     <use x="1305.86328125" xlink:href="#BitstreamVeraSans-Roman-2c"/>
     <use x="1337.650390625" xlink:href="#BitstreamVeraSans-Roman-20"/>
     <use x="1369.4375" xlink:href="#BitstreamVeraSans-Roman-31"/>
     <use x="1433.060546875" xlink:href="#BitstreamVeraSans-Roman-36"/>
     <use x="1496.68359375" xlink:href="#BitstreamVeraSans-Roman-2c"/>
     <use x="1528.470703125" xlink:href="#BitstreamVeraSans-Roman-20"/>
     <use x="1560.2578125" xlink:href="#BitstreamVeraSans-Roman-32"/>
     <use x="1623.880859375" xlink:href="#BitstreamVeraSans-Roman-30"/>
     <use x="1687.50390625" xlink:href="#BitstreamVeraSans-Roman-2c"/>
     <use x="1719.291015625" xlink:href="#BitstreamVeraSans-Roman-20"/>
     <use x="1751.078125" xlink:href="#BitstreamVeraSans-Roman-32"/>
     <use x="1814.701171875" xlink:href="#BitstreamVeraSans-Roman-34"/>
     <use x="1878.32421875" xlink:href="#BitstreamVeraSans-Roman-2c"/>
     <use x="1910.111328125" xlink:href="#BitstreamVeraSans-Roman-20"/>
     <use x="1941.8984375" xlink:href="#BitstreamVeraSans-Roman-32"/>
     <use x="2005.521484375" xlink:href="#BitstreamVeraSans-Roman-38"/>
     <use x="2069.14453125" xlink:href="#BitstreamVeraSans-Roman-5d"/>
    </g>
   </g>
   <g id="legend_1">
    <g id="patch_7">
     <path d="M 172.01775 377.6666 
L 486.0975 377.6666 
L 486.0975 309.9371 
L 172.01775 309.9371 
z
" style="fill:#ffffff;stroke:#000000;stroke-linejoin:miter;"/>
    </g>
    <g id="line2d_29">
     <path d="M 182.09775 321.59885 
L 202.25775 321.59885 
" style="fill:none;stroke:#0000ff;stroke-linecap:square;"/>
    </g>
    <g id="line2d_30"/>
    <g id="text_16">
     <!-- bridgesROC curve - 0 (AUC = 0.866) -->
     <defs>
      <path d="M 48.6875 27.296875 
Q 48.6875 37.203125 44.609375 42.84375 
Q 40.53125 48.484375 33.40625 48.484375 
Q 26.265625 48.484375 22.1875 42.84375 
Q 18.109375 37.203125 18.109375 27.296875 
Q 18.109375 17.390625 22.1875 11.75 
Q 26.265625 6.109375 33.40625 6.109375 
Q 40.53125 6.109375 44.609375 11.75 
Q 48.6875 17.390625 48.6875 27.296875 
M 18.109375 46.390625 
Q 20.953125 51.265625 25.265625 53.625 
Q 29.59375 56 35.59375 56 
Q 45.5625 56 51.78125 48.09375 
Q 58.015625 40.1875 58.015625 27.296875 
Q 58.015625 14.40625 51.78125 6.484375 
Q 45.5625 -1.421875 35.59375 -1.421875 
Q 29.59375 -1.421875 25.265625 0.953125 
Q 20.953125 3.328125 18.109375 8.203125 
L 18.109375 0 
L 9.078125 0 
L 9.078125 75.984375 
L 18.109375 75.984375 
z
" id="BitstreamVeraSans-Roman-62"/>
      <path d="M 48.78125 52.59375 
L 48.78125 44.1875 
Q 44.96875 46.296875 41.140625 47.34375 
Q 37.3125 48.390625 33.40625 48.390625 
Q 24.65625 48.390625 19.8125 42.84375 
Q 14.984375 37.3125 14.984375 27.296875 
Q 14.984375 17.28125 19.8125 11.734375 
Q 24.65625 6.203125 33.40625 6.203125 
Q 37.3125 6.203125 41.140625 7.25 
Q 44.96875 8.296875 48.78125 10.40625 
L 48.78125 2.09375 
Q 45.015625 0.34375 40.984375 -0.53125 
Q 36.96875 -1.421875 32.421875 -1.421875 
Q 20.0625 -1.421875 12.78125 6.34375 
Q 5.515625 14.109375 5.515625 27.296875 
Q 5.515625 40.671875 12.859375 48.328125 
Q 20.21875 56 33.015625 56 
Q 37.15625 56 41.109375 55.140625 
Q 45.0625 54.296875 48.78125 52.59375 
" id="BitstreamVeraSans-Roman-63"/>
      <path d="M 8.015625 75.875 
L 15.828125 75.875 
Q 23.140625 64.359375 26.78125 53.3125 
Q 30.421875 42.28125 30.421875 31.390625 
Q 30.421875 20.453125 26.78125 9.375 
Q 23.140625 -1.703125 15.828125 -13.1875 
L 8.015625 -13.1875 
Q 14.5 -2 17.703125 9.0625 
Q 20.90625 20.125 20.90625 31.390625 
Q 20.90625 42.671875 17.703125 53.65625 
Q 14.5 64.65625 8.015625 75.875 
" id="BitstreamVeraSans-Roman-29"/>
      <path d="M 8.6875 72.90625 
L 18.609375 72.90625 
L 18.609375 28.609375 
Q 18.609375 16.890625 22.84375 11.734375 
Q 27.09375 6.59375 36.625 6.59375 
Q 46.09375 6.59375 50.34375 11.734375 
Q 54.59375 16.890625 54.59375 28.609375 
L 54.59375 72.90625 
L 64.5 72.90625 
L 64.5 27.390625 
Q 64.5 13.140625 57.4375 5.859375 
Q 50.390625 -1.421875 36.625 -1.421875 
Q 22.796875 -1.421875 15.734375 5.859375 
Q 8.6875 13.140625 8.6875 27.390625 
z
" id="BitstreamVeraSans-Roman-55"/>
      <path d="M 34.1875 63.1875 
L 20.796875 26.90625 
L 47.609375 26.90625 
z
M 28.609375 72.90625 
L 39.796875 72.90625 
L 67.578125 0 
L 57.328125 0 
L 50.6875 18.703125 
L 17.828125 18.703125 
L 11.1875 0 
L 0.78125 0 
z
" id="BitstreamVeraSans-Roman-41"/>
      <path d="M 31 75.875 
Q 24.46875 64.65625 21.28125 53.65625 
Q 18.109375 42.671875 18.109375 31.390625 
Q 18.109375 20.125 21.3125 9.0625 
Q 24.515625 -2 31 -13.1875 
L 23.1875 -13.1875 
Q 15.875 -1.703125 12.234375 9.375 
Q 8.59375 20.453125 8.59375 31.390625 
Q 8.59375 42.28125 12.203125 53.3125 
Q 15.828125 64.359375 23.1875 75.875 
z
" id="BitstreamVeraSans-Roman-28"/>
      <path d="M 10.59375 45.40625 
L 73.1875 45.40625 
L 73.1875 37.203125 
L 10.59375 37.203125 
z
M 10.59375 25.484375 
L 73.1875 25.484375 
L 73.1875 17.1875 
L 10.59375 17.1875 
z
" id="BitstreamVeraSans-Roman-3d"/>
      <path d="M 4.890625 31.390625 
L 31.203125 31.390625 
L 31.203125 23.390625 
L 4.890625 23.390625 
z
" id="BitstreamVeraSans-Roman-2d"/>
     </defs>
     <g transform="translate(218.09775 326.63885)scale(0.144 -0.144)">
      <use xlink:href="#BitstreamVeraSans-Roman-62"/>
      <use x="63.4765625" xlink:href="#BitstreamVeraSans-Roman-72"/>
      <use x="104.58984375" xlink:href="#BitstreamVeraSans-Roman-69"/>
      <use x="132.373046875" xlink:href="#BitstreamVeraSans-Roman-64"/>
      <use x="195.849609375" xlink:href="#BitstreamVeraSans-Roman-67"/>
      <use x="259.326171875" xlink:href="#BitstreamVeraSans-Roman-65"/>
      <use x="320.849609375" xlink:href="#BitstreamVeraSans-Roman-73"/>
      <use x="372.94921875" xlink:href="#BitstreamVeraSans-Roman-52"/>
      <use x="442.431640625" xlink:href="#BitstreamVeraSans-Roman-4f"/>
      <use x="521.142578125" xlink:href="#BitstreamVeraSans-Roman-43"/>
      <use x="590.966796875" xlink:href="#BitstreamVeraSans-Roman-20"/>
      <use x="622.75390625" xlink:href="#BitstreamVeraSans-Roman-63"/>
      <use x="677.734375" xlink:href="#BitstreamVeraSans-Roman-75"/>
      <use x="741.11328125" xlink:href="#BitstreamVeraSans-Roman-72"/>
      <use x="782.2265625" xlink:href="#BitstreamVeraSans-Roman-76"/>
      <use x="841.40625" xlink:href="#BitstreamVeraSans-Roman-65"/>
      <use x="902.9296875" xlink:href="#BitstreamVeraSans-Roman-20"/>
      <use x="934.716796875" xlink:href="#BitstreamVeraSans-Roman-2d"/>
      <use x="970.80078125" xlink:href="#BitstreamVeraSans-Roman-20"/>
      <use x="1002.587890625" xlink:href="#BitstreamVeraSans-Roman-30"/>
      <use x="1066.2109375" xlink:href="#BitstreamVeraSans-Roman-20"/>
      <use x="1097.998046875" xlink:href="#BitstreamVeraSans-Roman-28"/>
      <use x="1137.01171875" xlink:href="#BitstreamVeraSans-Roman-41"/>
      <use x="1205.419921875" xlink:href="#BitstreamVeraSans-Roman-55"/>
      <use x="1278.61328125" xlink:href="#BitstreamVeraSans-Roman-43"/>
      <use x="1348.4375" xlink:href="#BitstreamVeraSans-Roman-20"/>
      <use x="1380.224609375" xlink:href="#BitstreamVeraSans-Roman-3d"/>
      <use x="1464.013671875" xlink:href="#BitstreamVeraSans-Roman-20"/>
      <use x="1495.80078125" xlink:href="#BitstreamVeraSans-Roman-30"/>
      <use x="1559.423828125" xlink:href="#BitstreamVeraSans-Roman-2e"/>
      <use x="1591.2109375" xlink:href="#BitstreamVeraSans-Roman-38"/>
      <use x="1654.833984375" xlink:href="#BitstreamVeraSans-Roman-36"/>
      <use x="1718.45703125" xlink:href="#BitstreamVeraSans-Roman-36"/>
      <use x="1782.080078125" xlink:href="#BitstreamVeraSans-Roman-29"/>
     </g>
    </g>
    <g id="line2d_31">
     <path d="M 182.09775 342.73535 
L 202.25775 342.73535 
" style="fill:none;stroke:#008000;stroke-linecap:square;"/>
    </g>
    <g id="line2d_32"/>
    <g id="text_17">
     <!-- bridgesROC curve - 1 (AUC = 0.876) -->
     <defs>
      <path d="M 8.203125 72.90625 
L 55.078125 72.90625 
L 55.078125 68.703125 
L 28.609375 0 
L 18.3125 0 
L 43.21875 64.59375 
L 8.203125 64.59375 
z
" id="BitstreamVeraSans-Roman-37"/>
     </defs>
     <g transform="translate(218.09775 347.77535)scale(0.144 -0.144)">
      <use xlink:href="#BitstreamVeraSans-Roman-62"/>
      <use x="63.4765625" xlink:href="#BitstreamVeraSans-Roman-72"/>
      <use x="104.58984375" xlink:href="#BitstreamVeraSans-Roman-69"/>
      <use x="132.373046875" xlink:href="#BitstreamVeraSans-Roman-64"/>
      <use x="195.849609375" xlink:href="#BitstreamVeraSans-Roman-67"/>
      <use x="259.326171875" xlink:href="#BitstreamVeraSans-Roman-65"/>
      <use x="320.849609375" xlink:href="#BitstreamVeraSans-Roman-73"/>
      <use x="372.94921875" xlink:href="#BitstreamVeraSans-Roman-52"/>
      <use x="442.431640625" xlink:href="#BitstreamVeraSans-Roman-4f"/>
      <use x="521.142578125" xlink:href="#BitstreamVeraSans-Roman-43"/>
      <use x="590.966796875" xlink:href="#BitstreamVeraSans-Roman-20"/>
      <use x="622.75390625" xlink:href="#BitstreamVeraSans-Roman-63"/>
      <use x="677.734375" xlink:href="#BitstreamVeraSans-Roman-75"/>
      <use x="741.11328125" xlink:href="#BitstreamVeraSans-Roman-72"/>
      <use x="782.2265625" xlink:href="#BitstreamVeraSans-Roman-76"/>
      <use x="841.40625" xlink:href="#BitstreamVeraSans-Roman-65"/>
      <use x="902.9296875" xlink:href="#BitstreamVeraSans-Roman-20"/>
      <use x="934.716796875" xlink:href="#BitstreamVeraSans-Roman-2d"/>
      <use x="970.80078125" xlink:href="#BitstreamVeraSans-Roman-20"/>
      <use x="1002.587890625" xlink:href="#BitstreamVeraSans-Roman-31"/>
      <use x="1066.2109375" xlink:href="#BitstreamVeraSans-Roman-20"/>
      <use x="1097.998046875" xlink:href="#BitstreamVeraSans-Roman-28"/>
      <use x="1137.01171875" xlink:href="#BitstreamVeraSans-Roman-41"/>
      <use x="1205.419921875" xlink:href="#BitstreamVeraSans-Roman-55"/>
      <use x="1278.61328125" xlink:href="#BitstreamVeraSans-Roman-43"/>
      <use x="1348.4375" xlink:href="#BitstreamVeraSans-Roman-20"/>
      <use x="1380.224609375" xlink:href="#BitstreamVeraSans-Roman-3d"/>
      <use x="1464.013671875" xlink:href="#BitstreamVeraSans-Roman-20"/>
      <use x="1495.80078125" xlink:href="#BitstreamVeraSans-Roman-30"/>
      <use x="1559.423828125" xlink:href="#BitstreamVeraSans-Roman-2e"/>
      <use x="1591.2109375" xlink:href="#BitstreamVeraSans-Roman-38"/>
      <use x="1654.833984375" xlink:href="#BitstreamVeraSans-Roman-37"/>
      <use x="1718.45703125" xlink:href="#BitstreamVeraSans-Roman-36"/>
      <use x="1782.080078125" xlink:href="#BitstreamVeraSans-Roman-29"/>
     </g>
    </g>
    <g id="line2d_33">
     <path d="M 182.09775 363.87185 
L 202.25775 363.87185 
" style="fill:none;stroke:#ff0000;stroke-linecap:square;"/>
    </g>
    <g id="line2d_34"/>
    <g id="text_18">
     <!-- bridgesROC curve - 2 (AUC = 0.842) -->
     <g transform="translate(218.09775 368.91185)scale(0.144 -0.144)">
      <use xlink:href="#BitstreamVeraSans-Roman-62"/>
      <use x="63.4765625" xlink:href="#BitstreamVeraSans-Roman-72"/>
      <use x="104.58984375" xlink:href="#BitstreamVeraSans-Roman-69"/>
      <use x="132.373046875" xlink:href="#BitstreamVeraSans-Roman-64"/>
      <use x="195.849609375" xlink:href="#BitstreamVeraSans-Roman-67"/>
      <use x="259.326171875" xlink:href="#BitstreamVeraSans-Roman-65"/>
      <use x="320.849609375" xlink:href="#BitstreamVeraSans-Roman-73"/>
      <use x="372.94921875" xlink:href="#BitstreamVeraSans-Roman-52"/>
      <use x="442.431640625" xlink:href="#BitstreamVeraSans-Roman-4f"/>
      <use x="521.142578125" xlink:href="#BitstreamVeraSans-Roman-43"/>
      <use x="590.966796875" xlink:href="#BitstreamVeraSans-Roman-20"/>
      <use x="622.75390625" xlink:href="#BitstreamVeraSans-Roman-63"/>
      <use x="677.734375" xlink:href="#BitstreamVeraSans-Roman-75"/>
      <use x="741.11328125" xlink:href="#BitstreamVeraSans-Roman-72"/>
      <use x="782.2265625" xlink:href="#BitstreamVeraSans-Roman-76"/>
      <use x="841.40625" xlink:href="#BitstreamVeraSans-Roman-65"/>
      <use x="902.9296875" xlink:href="#BitstreamVeraSans-Roman-20"/>
      <use x="934.716796875" xlink:href="#BitstreamVeraSans-Roman-2d"/>
      <use x="970.80078125" xlink:href="#BitstreamVeraSans-Roman-20"/>
      <use x="1002.587890625" xlink:href="#BitstreamVeraSans-Roman-32"/>
      <use x="1066.2109375" xlink:href="#BitstreamVeraSans-Roman-20"/>
      <use x="1097.998046875" xlink:href="#BitstreamVeraSans-Roman-28"/>
      <use x="1137.01171875" xlink:href="#BitstreamVeraSans-Roman-41"/>
      <use x="1205.419921875" xlink:href="#BitstreamVeraSans-Roman-55"/>
      <use x="1278.61328125" xlink:href="#BitstreamVeraSans-Roman-43"/>
      <use x="1348.4375" xlink:href="#BitstreamVeraSans-Roman-20"/>
      <use x="1380.224609375" xlink:href="#BitstreamVeraSans-Roman-3d"/>
      <use x="1464.013671875" xlink:href="#BitstreamVeraSans-Roman-20"/>
      <use x="1495.80078125" xlink:href="#BitstreamVeraSans-Roman-30"/>
      <use x="1559.423828125" xlink:href="#BitstreamVeraSans-Roman-2e"/>
      <use x="1591.2109375" xlink:href="#BitstreamVeraSans-Roman-38"/>
      <use x="1654.833984375" xlink:href="#BitstreamVeraSans-Roman-34"/>
      <use x="1718.45703125" xlink:href="#BitstreamVeraSans-Roman-32"/>
      <use x="1782.080078125" xlink:href="#BitstreamVeraSans-Roman-29"/>
     </g>
    </g>
   </g>
  </g>
 </g>
 <defs>
  <clipPath id="pc4e85a5483">
   <rect height="345.6" width="446.4" x="46.8975" y="39.2666"/>
  </clipPath>
 </defs>
</svg>
