<?xml version="1.0" encoding="utf-8" standalone="no"?>
<!DOCTYPE svg PUBLIC "-//W3C//DTD SVG 1.1//EN"
  "http://www.w3.org/Graphics/SVG/1.1/DTD/svg11.dtd">
<!-- Created with matplotlib (http://matplotlib.org/) -->
<svg height="424pt" version="1.1" viewBox="0 0 510 424" width="510pt" xmlns="http://www.w3.org/2000/svg" xmlns:xlink="http://www.w3.org/1999/xlink">
 <defs>
  <style type="text/css">
*{stroke-linecap:butt;stroke-linejoin:round;stroke-miterlimit:100000;}
  </style>
 </defs>
 <g id="figure_1">
  <g id="patch_1">
   <path d="M 0 424.2941 
L 510.039375 424.2941 
L 510.039375 0 
L 0 0 
z
" style="fill:#ffffff;"/>
  </g>
  <g id="axes_1">
   <g id="patch_2">
    <path d="M 46.8975 384.8666 
L 493.2975 384.8666 
L 493.2975 39.2666 
L 46.8975 39.2666 
z
" style="fill:#ffffff;"/>
   </g>
   <g id="line2d_1">
    <path clip-path="url(#p8063091a0e)" d="M 46.8975 384.8666 
L 47.319229 384.8666 
L 47.403575 384.057895 
L 47.656612 384.057895 
L 48.162687 379.205666 
L 48.668761 379.205666 
L 48.753107 378.396962 
L 49.174836 375.970847 
L 49.427873 375.970847 
L 50.912359 358.988046 
L 51.671471 355.348874 
L 52.008854 351.30535 
L 55.677895 318.957158 
L 55.762241 318.957158 
L 55.930932 316.126691 
L 56.18397 314.913634 
L 56.428572 312.48752 
L 56.808128 312.48752 
L 57.246726 306.017881 
L 57.331072 306.017881 
L 57.432287 302.783062 
L 57.811843 302.783062 
L 58.06488 299.952595 
L 58.149226 299.952595 
L 58.233572 299.14389 
L 58.992684 299.14389 
L 59.068595 297.930833 
L 59.321632 297.930833 
L 59.389109 295.909071 
L 60.021702 295.909071 
L 60.190394 295.100366 
L 60.822987 295.100366 
L 60.95794 293.482957 
L 61.16037 289.439433 
L 61.582099 289.439433 
L 61.649576 288.630728 
L 62.619552 288.630728 
L 63.032846 284.587204 
L 63.496748 284.587204 
L 63.707612 282.161089 
L 64.298033 282.161089 
L 64.365509 281.352384 
L 65.166794 281.352384 
L 65.335486 280.54368 
L 65.462004 280.54368 
L 65.681303 276.500156 
L 65.807822 276.500156 
L 66.221116 271.647927 
L 66.347635 271.647927 
L 66.482588 270.030517 
L 66.988663 270.030517 
L 67.05614 269.221812 
L 67.182658 269.221812 
L 67.250135 268.413108 
L 67.503172 268.413108 
L 67.55378 266.795698 
L 68.692448 266.795698 
L 68.945485 263.965231 
L 69.325041 263.965231 
L 69.392517 263.156526 
L 70.151629 263.156526 
L 70.303452 262.347821 
L 70.640835 262.347821 
L 70.809526 261.539117 
L 71.399947 261.539117 
L 71.661419 257.09124 
L 71.83011 255.473831 
L 72.083148 254.260773 
L 72.294012 253.047716 
L 72.631395 251.025954 
L 72.682003 249.408545 
L 73.567633 249.408545 
L 73.651979 247.791135 
L 73.989362 247.791135 
L 74.141184 246.578078 
L 74.394222 246.578078 
L 74.647259 244.960668 
L 75.026815 244.960668 
L 75.153334 244.556316 
L 75.42324 242.130201 
L 75.929315 242.130201 
L 76.098006 241.321496 
L 76.224525 241.321496 
L 76.32574 238.895382 
L 76.747469 238.895382 
L 76.831815 236.87362 
L 77.337889 236.87362 
L 77.506581 236.064915 
L 77.633099 236.064915 
L 77.700576 235.25621 
L 79.851393 235.25621 
L 79.935739 234.447506 
L 80.779197 234.447506 
L 80.905715 233.234448 
L 81.285271 233.234448 
L 81.673262 229.190924 
L 83.064967 229.190924 
L 83.132444 228.38222 
L 83.638518 228.38222 
L 83.89999 225.956105 
L 84.237373 225.956105 
L 84.30485 225.1474 
L 84.431369 225.1474 
L 84.60006 224.338695 
L 85.063962 224.338695 
L 85.148308 223.529991 
L 86.750877 223.529991 
L 86.911134 222.721286 
L 87.501555 222.721286 
L 87.737723 221.103876 
L 89.129428 221.103876 
L 89.222209 218.677762 
L 89.433073 218.677762 
L 89.517419 217.464705 
L 90.487395 217.464705 
L 90.706694 213.421181 
L 91.170596 213.421181 
L 91.271811 212.208123 
L 91.820058 212.208123 
L 91.946577 210.995066 
L 92.241787 210.995066 
L 92.326133 210.186361 
L 93.211764 210.186361 
L 93.287675 209.377657 
L 93.751577 209.377657 
L 94.004614 208.164599 
L 94.341997 208.164599 
L 94.552861 206.951542 
L 95.185455 206.951542 
L 95.2698 206.142837 
L 95.649356 206.142837 
L 95.733702 204.121075 
L 96.492814 204.121075 
L 96.57716 203.716723 
L 97.083235 203.716723 
L 97.16758 203.31237 
L 97.589309 203.31237 
L 97.66522 202.099313 
L 98.67737 202.099313 
L 98.803888 201.694961 
L 100.786014 201.694961 
L 100.87036 200.886256 
L 101.502953 200.886256 
L 101.713817 199.673199 
L 102.262065 199.673199 
L 102.515102 198.864494 
L 102.641621 198.864494 
L 102.709098 198.055789 
L 103.889938 198.055789 
L 104.067064 194.416618 
L 105.205732 194.416618 
L 105.357555 192.799208 
L 106.074494 192.799208 
L 106.327531 191.990503 
L 107.381853 191.990503 
L 107.466199 191.181798 
L 107.972274 191.181798 
L 108.05662 190.777446 
L 111.050894 190.777446 
L 111.219586 189.968741 
L 112.147389 189.968741 
L 112.214866 189.160036 
L 113.353534 189.160036 
L 113.522226 188.351331 
L 113.73309 188.351331 
L 113.817436 187.542627 
L 114.703066 187.542627 
L 114.863323 186.733922 
L 117.520215 186.733922 
L 117.604561 185.925217 
L 118.279327 185.925217 
L 118.363673 185.520865 
L 118.827575 185.520865 
L 119.038439 185.116512 
L 119.164958 185.116512 
L 119.240869 184.307807 
L 119.789116 184.307807 
L 119.856593 183.499103 
L 122.555658 183.499103 
L 122.682176 182.286045 
L 124.832994 182.286045 
L 125.001685 181.477341 
L 126.140353 181.477341 
L 126.216264 180.668636 
L 130.011824 180.668636 
L 130.281731 178.242521 
L 130.534768 178.242521 
L 130.661286 177.029464 
L 130.787805 174.60335 
L 132.474721 174.60335 
L 132.643412 173.794645 
L 132.727758 173.390293 
L 132.837407 172.177235 
L 133.216963 172.177235 
L 133.385655 171.772883 
L 133.638692 171.772883 
L 133.706169 170.559826 
L 134.085725 170.559826 
L 134.170071 169.751121 
L 134.338762 169.751121 
L 134.490585 168.942416 
L 137.737897 168.942416 
L 137.822243 168.538064 
L 139.256121 168.538064 
L 139.357336 167.325006 
L 142.942031 167.325006 
L 143.093853 166.516302 
L 148.281118 166.516302 
L 148.702847 166.111949 
L 150.34759 166.111949 
L 150.499412 164.898892 
L 154.252799 164.898892 
L 154.337145 163.685835 
L 155.13843 163.685835 
L 155.222775 163.281482 
L 155.349294 163.281482 
L 155.416771 162.472778 
L 156.72413 162.472778 
L 156.892822 161.25972 
L 157.694107 161.25972 
L 157.862798 160.451016 
L 161.531839 160.451016 
L 161.683662 159.642311 
L 161.894526 159.642311 
L 161.962003 158.429254 
L 162.299386 158.429254 
L 162.468077 158.024901 
L 164.914105 158.024901 
L 165.082796 157.216196 
L 167.444478 157.216196 
L 167.495085 153.577025 
L 172.38714 153.577025 
L 172.555832 152.76832 
L 172.724523 152.76832 
L 172.893215 152.363967 
L 173.98971 152.363967 
L 177.279195 151.959615 
L 177.346671 151.15091 
L 179.328797 151.15091 
L 179.497489 150.342205 
L 180.593984 150.342205 
L 180.703633 149.129148 
L 183.950945 149.129148 
L 184.035291 144.276919 
L 184.288329 144.276919 
L 184.414847 143.872567 
L 184.75223 143.872567 
L 184.836576 143.468215 
L 184.963095 143.468215 
L 185.216132 143.063862 
L 186.94522 143.063862 
L 190.825126 139.829043 
L 191.752929 139.829043 
L 192.005967 138.211633 
L 192.722906 138.211633 
L 192.849424 136.998576 
L 193.018116 136.998576 
L 193.186808 136.189871 
L 195.168933 136.189871 
L 195.23641 135.381167 
L 196.037695 135.381167 
L 196.189517 134.572462 
L 197.960778 134.572462 
L 198.028255 133.359404 
L 202.751618 133.359404 
L 202.852833 132.146347 
L 206.564047 132.146347 
L 207.534023 131.741995 
L 208.040098 131.741995 
L 208.107575 130.93329 
L 209.246243 130.93329 
L 209.667971 130.528938 
L 209.836663 130.528938 
L 209.912574 128.102823 
L 213.834653 128.102823 
L 213.961171 126.889766 
L 214.172036 126.889766 
L 214.239512 125.676709 
L 214.914278 125.676709 
L 215.08297 123.250594 
L 216.263811 123.250594 
L 216.331287 122.44189 
L 218.819488 122.44189 
L 218.979745 120.015775 
L 223.407898 120.015775 
L 223.576589 119.20707 
L 223.703108 118.398366 
L 228.046915 118.398366 
L 229.14341 116.780956 
L 229.312102 116.780956 
L 229.362709 114.354841 
L 231.294227 114.354841 
L 234.583713 105.054736 
L 235.638035 105.054736 
L 235.806726 104.650384 
L 237.62016 104.650384 
L 237.788852 103.841679 
L 241.247029 103.841679 
L 241.41572 103.032974 
L 242.596561 103.032974 
L 242.933944 102.224269 
L 244.823289 102.224269 
L 244.991981 96.158983 
L 245.202845 96.158983 
L 245.540228 94.541574 
L 246.721069 94.541574 
L 246.771677 92.115459 
L 247.362097 92.115459 
L 247.556092 90.902402 
L 253.671161 90.902402 
L 257.213683 89.689345 
L 260.17422 89.689345 
L 260.258566 89.284992 
L 264.096298 89.284992 
L 264.197513 88.071935 
L 266.559195 88.071935 
L 266.719452 85.645821 
L 267.225526 85.645821 
L 267.352045 84.432764 
L 267.647255 84.432764 
L 267.74847 83.219706 
L 269.561904 83.219706 
L 269.629381 82.006649 
L 286.447928 82.006649 
L 286.608185 79.580535 
L 290.024189 79.580535 
L 290.260357 77.558773 
L 290.555567 77.558773 
L 290.707389 76.345715 
L 290.876081 76.345715 
L 290.943558 75.132658 
L 292.29309 75.132658 
L 292.461782 74.323953 
L 299.757691 74.323953 
L 299.825167 73.110896 
L 304.801568 73.110896 
L 304.902783 71.897839 
L 310.933506 71.897839 
L 311.000982 71.089134 
L 315.597827 71.089134 
L 316.255724 69.876077 
L 318.026985 69.876077 
L 318.187242 67.449963 
L 320.042849 67.449963 
L 320.127195 67.04561 
L 320.194671 65.832553 
L 332.213944 65.832553 
L 332.29829 63.406439 
L 332.424808 63.406439 
L 332.492285 62.597734 
L 335.022658 62.597734 
L 335.107004 62.193381 
L 351.807467 62.193381 
L 351.908682 60.980324 
L 352.035201 60.980324 
L 352.119546 60.575972 
L 377.718488 60.575972 
L 377.870311 59.767267 
L 386.05185 59.767267 
L 386.203673 58.55421 
L 417.841772 58.55421 
L 418.499669 57.341152 
L 430.738241 57.341152 
L 430.822586 56.9368 
L 482.484372 56.9368 
L 482.585587 55.723743 
L 493.2975 55.723743 
L 493.2975 55.723743 
" style="fill:none;stroke:#0000ff;stroke-linecap:square;"/>
   </g>
   <g id="line2d_2">
    <path clip-path="url(#p8063091a0e)" d="M 46.8975 384.8666 
L 47.024019 384.8666 
L 47.150537 384.057895 
L 47.403575 379.205666 
L 50.608714 363.03157 
L 51.958246 358.583694 
L 52.379975 356.561932 
L 52.506494 353.327112 
L 53.139087 348.879236 
L 53.392124 348.070531 
L 53.518643 348.070531 
L 57.229857 327.852911 
L 57.356376 327.448559 
L 57.761235 323.405035 
L 57.9721 323.405035 
L 58.039577 321.787625 
L 58.166095 321.787625 
L 58.663735 317.744101 
L 58.916773 317.744101 
L 59.043291 316.935396 
L 59.16981 316.935396 
L 59.254156 316.126691 
L 60.392824 309.657053 
L 60.561515 306.826586 
L 60.730207 306.826586 
L 60.814552 305.209176 
L 60.983244 305.209176 
L 61.312192 298.335185 
L 61.480884 298.335185 
L 61.776094 297.526481 
L 62.15565 297.526481 
L 62.408688 294.291661 
L 62.872589 294.291661 
L 63.041281 292.674252 
L 63.378664 292.674252 
L 63.547355 290.248137 
L 63.969084 290.248137 
L 64.475159 284.991556 
L 64.64385 284.991556 
L 64.812542 283.374147 
L 64.939061 283.374147 
L 65.107752 281.756737 
L 66.077729 281.756737 
L 66.288593 280.948032 
L 66.625976 280.948032 
L 66.836841 279.734975 
L 66.963359 279.734975 
L 67.081443 278.521918 
L 67.207962 278.521918 
L 67.292308 276.904508 
L 67.503172 276.904508 
L 67.663429 274.478394 
L 67.789948 274.478394 
L 68.127331 271.243574 
L 68.608102 270.43487 
L 68.776793 270.43487 
L 68.861139 268.81746 
L 69.831115 268.81746 
L 70.151629 263.560879 
L 70.44684 263.560879 
L 71.028825 257.495593 
L 71.703592 257.495593 
L 72.108451 253.452069 
L 72.361489 251.025954 
L 72.445834 250.217249 
L 72.614526 250.217249 
L 72.84226 247.386783 
L 73.13747 247.386783 
L 73.204946 245.769373 
L 73.331465 245.769373 
L 73.415811 244.960668 
L 73.584502 244.960668 
L 73.668848 242.534554 
L 73.921885 242.534554 
L 74.217096 240.512792 
L 74.301441 240.512792 
L 74.470133 239.299734 
L 74.891862 236.064915 
L 75.397936 236.064915 
L 75.752189 234.851858 
L 76.553474 234.851858 
L 76.654688 233.638801 
L 76.781207 233.638801 
L 76.91616 232.021391 
L 79.235669 232.021391 
L 79.724875 229.999629 
L 80.146603 229.999629 
L 80.230949 229.190924 
L 81.327444 229.190924 
L 81.462397 227.169162 
L 81.588916 226.76481 
L 82.137164 226.76481 
L 82.432374 225.1474 
L 82.558893 225.1474 
L 82.870972 221.103876 
L 83.208355 221.103876 
L 83.444523 218.273409 
L 83.69756 218.273409 
L 83.748168 216.656 
L 83.874687 216.656 
L 83.959032 215.847295 
L 84.760317 215.847295 
L 84.861532 215.03859 
L 85.494125 215.03859 
L 85.59534 214.229885 
L 86.017069 214.229885 
L 86.20263 213.421181 
L 87.636508 213.421181 
L 87.8052 212.612476 
L 88.522139 212.612476 
L 88.606484 211.803771 
L 89.112559 211.803771 
L 89.29812 210.590714 
L 92.123703 210.590714 
L 92.250222 209.782009 
L 93.178025 209.782009 
L 93.38889 208.568952 
L 94.696249 208.568952 
L 94.864941 206.142837 
L 95.455361 206.142837 
L 95.607184 205.334132 
L 95.733702 205.334132 
L 95.902394 204.525428 
L 96.197604 204.525428 
L 96.357861 202.099313 
L 97.243491 202.099313 
L 97.327837 201.290608 
L 97.378445 199.673199 
L 98.390594 199.673199 
L 98.601458 196.034027 
L 102.692228 196.034027 
L 102.793443 194.82097 
L 103.679074 194.82097 
L 103.805593 193.20356 
L 105.534681 193.20356 
L 105.703372 192.394856 
L 106.25162 192.394856 
L 106.335966 191.586151 
L 108.571129 191.586151 
L 108.73982 189.968741 
L 108.992858 189.968741 
L 109.203722 187.542627 
L 109.414586 187.542627 
L 109.667624 185.116512 
L 110.426736 185.116512 
L 110.502647 182.690398 
L 110.671338 182.690398 
L 110.755684 181.881693 
L 111.388278 181.881693 
L 111.556969 180.264283 
L 115.605566 180.264283 
L 115.673043 179.455579 
L 119.637294 179.455579 
L 119.789116 178.646874 
L 120.084327 178.646874 
L 120.185542 177.433817 
L 120.438579 177.433817 
L 121.366382 176.220759 
L 121.830284 176.220759 
L 121.931499 175.412055 
L 122.100191 175.412055 
L 122.268882 173.794645 
L 126.739208 173.794645 
L 126.823554 172.98594 
L 127.287456 172.98594 
L 127.371801 172.177235 
L 129.438273 172.177235 
L 129.539488 170.964178 
L 130.88902 170.964178 
L 130.956497 170.155473 
L 135.131612 170.155473 
L 138.16806 160.046663 
L 140.571915 160.046663 
L 140.647826 157.620549 
L 142.714297 157.620549 
L 142.798643 156.811844 
L 146.55203 156.811844 
L 147.479833 154.38573 
L 147.901562 152.363967 
L 150.6428 152.363967 
L 150.710277 151.555263 
L 151.300697 151.555263 
L 151.469389 149.533501 
L 153.451514 149.533501 
L 153.53586 148.724796 
L 154.927565 148.724796 
L 155.011911 147.916091 
L 155.349294 147.916091 
L 155.43364 146.703034 
L 156.02406 146.703034 
L 156.656654 145.085624 
L 158.807471 145.085624 
L 160.620905 140.233395 
L 162.476512 140.233395 
L 162.71268 138.211633 
L 163.345273 138.211633 
L 164.990016 134.168109 
L 165.706955 134.168109 
L 165.959992 131.741995 
L 171.48464 131.741995 
L 171.585855 130.528938 
L 174.031883 130.528938 
L 174.183705 129.720233 
L 174.352397 129.720233 
L 174.563261 128.507176 
L 177.304499 128.507176 
L 177.953961 127.698471 
L 178.029872 126.081061 
L 179.379405 126.081061 
L 179.564965 125.272356 
L 181.67361 125.272356 
L 181.85917 122.846242 
L 186.456015 122.846242 
L 186.540361 122.037537 
L 188.185103 122.037537 
L 188.25258 121.228832 
L 188.885173 121.228832 
L 189.096038 120.420128 
L 192.259004 120.420128 
L 192.309611 118.802718 
L 196.358209 118.802718 
L 196.5269 117.994013 
L 196.948629 117.994013 
L 197.032975 117.185308 
L 197.749914 117.185308 
L 197.825825 114.759194 
L 201.030964 114.759194 
L 201.216525 113.546137 
L 204.716875 113.546137 
L 204.80122 112.737432 
L 205.138603 112.737432 
L 205.214515 110.311317 
L 206.353183 107.885203 
L 208.20879 107.885203 
L 208.293135 107.076498 
L 208.883556 107.076498 
L 208.967902 106.267793 
L 209.38963 106.267793 
L 209.473976 105.459089 
L 216.938577 105.459089 
L 217.107269 104.246031 
L 217.908553 104.246031 
L 217.97603 103.437327 
L 218.229067 103.437327 
L 218.313413 102.224269 
L 221.349861 102.224269 
L 221.518552 100.60686 
L 222.994603 100.60686 
L 223.070515 98.180745 
L 224.630911 98.180745 
L 224.799603 97.372041 
L 228.046915 97.372041 
L 228.198738 96.563336 
L 228.451775 96.563336 
L 228.536121 95.350278 
L 228.831331 95.350278 
L 228.898808 94.541574 
L 229.700092 94.541574 
L 229.95313 92.924164 
L 230.670069 92.924164 
L 230.889368 91.306754 
L 232.281073 91.306754 
L 232.449765 90.902402 
L 232.829321 90.902402 
L 232.913666 89.689345 
L 234.052334 89.689345 
L 234.13668 88.88064 
L 236.414016 88.88064 
L 236.464623 87.26323 
L 237.223735 87.26323 
L 237.308081 86.454526 
L 240.985557 86.454526 
L 241.069902 85.241468 
L 243.305065 85.241468 
L 243.456888 84.432764 
L 245.565532 84.432764 
L 245.649878 83.624059 
L 245.860742 83.624059 
L 245.961957 82.815354 
L 249.251442 82.815354 
L 249.335788 82.006649 
L 251.866161 82.006649 
L 251.950507 80.793592 
L 269.620946 80.793592 
L 269.84868 79.984887 
L 282.753583 79.984887 
L 282.854798 78.77183 
L 286.734704 78.77183 
L 286.819049 77.963125 
L 301.250611 77.963125 
L 301.351826 77.15442 
L 320.861003 77.15442 
L 321.029695 76.345715 
L 324.251703 76.345715 
L 324.31918 75.537011 
L 326.006095 75.537011 
L 326.082006 73.110896 
L 327.558057 73.110896 
L 327.625534 72.302191 
L 329.312449 72.302191 
L 329.379926 71.493487 
L 334.811794 71.493487 
L 335.005789 70.684782 
L 338.042237 70.684782 
L 338.126583 69.471725 
L 347.725132 69.471725 
L 347.85165 68.258667 
L 358.479218 68.258667 
L 358.563563 67.449963 
L 363.877347 67.449963 
L 364.029169 66.641258 
L 364.872627 66.641258 
L 364.999146 65.428201 
L 365.420875 65.428201 
L 365.50522 63.002086 
L 377.735357 63.002086 
L 377.819703 62.193381 
L 381.446571 62.193381 
L 381.615263 60.980324 
L 381.699609 60.171619 
L 396.3336 60.171619 
L 396.417946 58.958562 
L 405.400771 58.958562 
L 405.485116 57.745505 
L 429.304363 57.745505 
L 429.388708 56.9368 
L 469.705987 56.9368 
L 469.891548 55.723743 
L 493.2975 55.723743 
L 493.2975 55.723743 
" style="fill:none;stroke:#008000;stroke-linecap:square;"/>
   </g>
   <g id="line2d_3">
    <path clip-path="url(#p8063091a0e)" d="M 46.8975 384.8666 
L 47.024021 384.0569 
L 47.445758 384.0569 
L 47.740974 382.032652 
L 47.825321 382.032652 
L 47.909668 377.984154 
L 48.204884 377.984154 
L 48.289232 377.174455 
L 48.415753 377.174455 
L 51.157042 360.980464 
L 51.325737 357.741666 
L 51.831821 355.717417 
L 51.916168 355.717417 
L 56.428752 325.758535 
L 57.187879 325.758535 
L 57.483094 323.329436 
L 57.567442 323.329436 
L 57.702398 321.710037 
L 58.714566 317.25669 
L 58.925434 317.25669 
L 59.389345 315.637291 
L 59.515866 315.637291 
L 59.979776 310.779093 
L 60.013515 308.349995 
L 60.140036 308.349995 
L 60.266558 307.135446 
L 60.5196 307.135446 
L 60.654555 305.516046 
L 61.034119 299.84815 
L 61.244987 299.84815 
L 61.329334 299.03845 
L 61.498029 299.03845 
L 61.759506 296.204502 
L 61.970374 292.156004 
L 62.139069 292.156004 
L 62.189677 290.536605 
L 62.611414 290.536605 
L 62.780109 288.917206 
L 62.90663 288.917206 
L 62.990977 287.297807 
L 63.117498 287.297807 
L 63.24402 284.868709 
L 63.497062 283.654159 
L 63.623583 283.654159 
L 63.918798 279.605662 
L 64.340535 279.605662 
L 64.534534 277.581413 
L 64.703229 277.581413 
L 65.184009 273.128065 
L 65.437051 273.128065 
L 65.572007 269.889267 
L 65.825049 269.889267 
L 66.035917 269.079568 
L 66.373307 268.269868 
L 66.499828 268.269868 
L 66.685392 267.460169 
L 67.444518 267.460169 
L 67.807212 264.62622 
L 68.060254 264.62622 
L 68.144602 263.816521 
L 68.397644 263.816521 
L 68.566338 261.387422 
L 68.777207 261.387422 
L 69.367638 256.529225 
L 70.084591 256.529225 
L 70.211112 254.100127 
L 70.42198 254.100127 
L 70.632849 252.480728 
L 70.75937 250.051629 
L 71.012412 250.051629 
L 71.181107 248.43223 
L 71.307628 247.62253 
L 71.56067 247.62253 
L 71.771538 246.812831 
L 71.872755 245.598282 
L 72.463187 245.598282 
L 72.547534 244.788582 
L 72.884923 244.788582 
L 73.011445 243.574033 
L 73.264487 243.574033 
L 73.391008 242.764333 
L 73.728397 242.764333 
L 73.897092 241.144934 
L 75.120129 241.144934 
L 75.457518 239.930385 
L 75.879255 239.930385 
L 76.005776 238.715836 
L 76.132297 238.715836 
L 76.182905 237.096437 
L 76.520295 237.096437 
L 76.646816 235.881887 
L 77.321595 235.881887 
L 77.49029 234.262488 
L 77.827679 234.262488 
L 78.165069 228.999441 
L 78.375937 228.999441 
L 78.586805 228.189742 
L 78.966369 228.189742 
L 79.050716 226.570343 
L 79.303758 226.570343 
L 79.523061 224.950944 
L 84.330861 224.950944 
L 84.499556 224.141244 
L 86.734761 224.141244 
L 86.802239 222.521845 
L 87.519191 222.521845 
L 87.839711 220.902446 
L 88.472317 220.902446 
L 88.641011 220.092747 
L 88.978401 220.092747 
L 89.130226 219.283047 
L 90.479784 219.283047 
L 90.61474 217.663648 
L 90.994303 217.663648 
L 91.07865 216.044249 
L 93.904287 216.044249 
L 94.030808 215.234549 
L 94.241677 212.400601 
L 94.916455 212.400601 
L 95.000803 211.590902 
L 96.350361 211.590902 
L 96.645576 209.971502 
L 96.898619 209.971502 
L 96.966096 209.161803 
L 97.092618 209.161803 
L 97.219139 208.352103 
L 97.34566 208.352103 
L 97.514354 207.542404 
L 97.725223 207.542404 
L 97.936091 205.113305 
L 98.315654 205.113305 
L 98.484349 203.493906 
L 98.61087 203.493906 
L 98.737391 202.279357 
L 99.454344 202.279357 
L 99.521822 201.469657 
L 99.648343 201.469657 
L 99.774864 199.850258 
L 100.280948 199.850258 
L 100.365295 199.040559 
L 100.744858 199.040559 
L 100.829206 198.230859 
L 100.955727 198.230859 
L 101.040074 197.42116 
L 101.461811 197.42116 
L 101.588332 196.206611 
L 102.516153 196.206611 
L 102.566762 194.587211 
L 103.283714 194.587211 
L 103.351192 193.777512 
L 103.772929 193.777512 
L 103.840407 192.967812 
L 105.991265 192.967812 
L 106.117786 191.753263 
L 106.919086 191.753263 
L 107.197432 188.514465 
L 107.323953 188.514465 
L 107.872211 184.061118 
L 108.125253 184.061118 
L 108.310817 182.846568 
L 108.774728 182.846568 
L 108.842206 182.036869 
L 110.023069 182.036869 
L 110.233937 180.82232 
L 110.740021 180.82232 
L 110.866542 178.798071 
L 111.541321 178.798071 
L 111.89558 175.559273 
L 112.443838 175.559273 
L 112.654707 173.939874 
L 115.142954 173.939874 
L 115.244171 173.130174 
L 115.876776 173.130174 
L 115.944254 172.320475 
L 116.281643 172.320475 
L 116.576859 171.510775 
L 116.70338 171.510775 
L 116.753989 169.891376 
L 117.977025 169.891376 
L 118.103546 168.676827 
L 118.314415 168.676827 
L 118.440936 167.867127 
L 120.54962 167.867127 
L 120.887009 165.842878 
L 125.062204 165.842878 
L 125.188725 164.223479 
L 126.833499 164.223479 
L 126.934716 163.00893 
L 127.061237 163.00893 
L 127.128715 162.19923 
L 127.634799 162.19923 
L 127.719146 161.389531 
L 130.62913 161.389531 
L 130.94965 160.579831 
L 131.033998 159.770132 
L 132.172687 159.770132 
L 132.324512 158.960432 
L 134.854933 158.960432 
L 134.95615 157.745883 
L 136.010492 157.745883 
L 136.137013 156.936184 
L 136.853966 156.936184 
L 136.938313 156.126484 
L 138.920476 156.126484 
L 139.089171 155.316785 
L 139.215692 155.316785 
L 139.316909 154.102235 
L 141.130377 154.102235 
L 141.299072 153.292536 
L 144.504272 153.292536 
L 144.630793 150.863437 
L 145.305572 150.863437 
L 145.474267 149.244038 
L 145.85383 149.244038 
L 145.904438 147.624639 
L 147.422691 147.624639 
L 147.549212 145.19554 
L 147.717907 145.19554 
L 147.844428 142.766442 
L 152.736575 142.766442 
L 152.863096 141.551893 
L 153.537875 141.551893 
L 153.664396 140.337343 
L 154.929606 140.337343 
L 154.997084 139.527644 
L 156.388816 139.527644 
L 156.439424 137.908245 
L 157.240724 137.908245 
L 157.367245 135.479146 
L 158.379414 135.479146 
L 158.505935 134.669447 
L 160.614619 134.669447 
L 160.682097 133.859747 
L 161.989481 133.859747 
L 162.242523 132.240348 
L 164.013818 132.240348 
L 164.258425 130.620949 
L 165.818851 130.620949 
L 165.987546 129.811249 
L 174.169241 129.811249 
L 174.236719 129.00155 
L 175.291061 129.00155 
L 175.392277 127.787001 
L 175.518798 127.787001 
L 179.904861 110.783311 
L 180.031383 110.783311 
L 180.11573 109.973611 
L 185.682656 109.973611 
L 186.020046 109.163912 
L 189.520461 109.163912 
L 189.604809 108.354212 
L 191.544798 108.354212 
L 191.79784 105.925113 
L 192.59914 105.925113 
L 195.045214 101.876616 
L 198.840845 101.876616 
L 199.093887 101.066916 
L 200.148229 101.066916 
L 200.359098 100.257217 
L 202.67865 100.257217 
L 202.762998 99.447517 
L 202.973866 98.637818 
L 203.859513 98.637818 
L 204.112556 97.423268 
L 204.534292 97.423268 
L 204.871682 96.613569 
L 211.999034 96.613569 
L 212.783465 95.803869 
L 213.120854 95.803869 
L 213.222071 94.58932 
L 213.685982 94.58932 
L 213.837807 93.779621 
L 214.343891 93.779621 
L 214.655976 91.350522 
L 216.427271 91.350522 
L 216.553792 88.921423 
L 223.006366 88.921423 
L 223.073843 88.111724 
L 245.13068 88.111724 
L 245.299374 87.706874 
L 262.0845 87.706874 
L 262.211021 86.492325 
L 266.723605 86.492325 
L 266.807953 86.087475 
L 270.392716 86.087475 
L 270.460194 85.277776 
L 271.556709 85.277776 
L 271.657926 84.063226 
L 272.037489 84.063226 
L 272.16401 82.848677 
L 274.146174 82.848677 
L 274.24739 81.634128 
L 274.837822 81.634128 
L 274.922169 81.229278 
L 278.127369 81.229278 
L 278.380411 79.609879 
L 284.748637 79.609879 
L 284.959506 78.39533 
L 285.634285 78.39533 
L 285.735502 77.18078 
L 299.399775 77.18078 
L 299.526296 75.966231 
L 313.342395 75.966231 
L 313.409872 75.156531 
L 316.53916 75.156531 
L 316.750028 72.727433 
L 320.672181 72.727433 
L 320.798702 71.917733 
L 324.003902 71.917733 
L 324.164162 70.298334 
L 329.267177 70.298334 
L 329.351525 69.893485 
L 331.122819 69.893485 
L 331.190297 69.083785 
L 337.474176 69.083785 
L 337.626001 68.274086 
L 363.351948 68.274086 
L 363.436295 67.464386 
L 364.743679 67.464386 
L 364.844896 66.249837 
L 365.941412 66.249837 
L 366.126976 65.035287 
L 375.244926 65.035287 
L 375.413621 64.630438 
L 383.004884 64.630438 
L 383.072362 63.820738 
L 385.602783 63.820738 
L 385.813651 62.606189 
L 402.303562 62.606189 
L 402.455387 61.796489 
L 422.918058 61.796489 
L 423.086753 61.39164 
L 456.530483 61.39164 
L 456.606396 58.962541 
L 459.221164 58.962541 
L 459.288642 58.152841 
L 469.621194 58.152841 
L 469.722411 56.938292 
L 481.910606 56.938292 
L 482.0793 56.533442 
L 489.670563 56.533442 
L 489.754911 55.723743 
L 493.2975 55.723743 
L 493.2975 55.723743 
" style="fill:none;stroke:#ff0000;stroke-linecap:square;"/>
   </g>
   <g id="line2d_4">
    <path clip-path="url(#p8063091a0e)" d="M 46.8975 384.8666 
L 493.2975 55.723743 
" style="fill:none;stroke:#000000;stroke-dasharray:6.000000,6.000000;stroke-dashoffset:0.0;"/>
   </g>
   <g id="patch_3">
    <path d="M 46.8975 384.8666 
L 46.8975 39.2666 
" style="fill:none;stroke:#000000;stroke-linecap:square;stroke-linejoin:miter;"/>
   </g>
   <g id="patch_4">
    <path d="M 493.2975 384.8666 
L 493.2975 39.2666 
" style="fill:none;stroke:#000000;stroke-linecap:square;stroke-linejoin:miter;"/>
   </g>
   <g id="patch_5">
    <path d="M 46.8975 39.2666 
L 493.2975 39.2666 
" style="fill:none;stroke:#000000;stroke-linecap:square;stroke-linejoin:miter;"/>
   </g>
   <g id="patch_6">
    <path d="M 46.8975 384.8666 
L 493.2975 384.8666 
" style="fill:none;stroke:#000000;stroke-linecap:square;stroke-linejoin:miter;"/>
   </g>
   <g id="matplotlib.axis_1">
    <g id="xtick_1">
     <g id="line2d_5">
      <defs>
       <path d="M 0 0 
L 0 -4 
" id="m8e7f4e864a" style="stroke:#000000;stroke-width:0.5;"/>
      </defs>
      <g>
       <use style="stroke:#000000;stroke-width:0.5;" x="46.8975" xlink:href="#m8e7f4e864a" y="384.8666"/>
      </g>
     </g>
     <g id="line2d_6">
      <defs>
       <path d="M 0 0 
L 0 4 
" id="m847e649c77" style="stroke:#000000;stroke-width:0.5;"/>
      </defs>
      <g>
       <use style="stroke:#000000;stroke-width:0.5;" x="46.8975" xlink:href="#m847e649c77" y="39.2666"/>
      </g>
     </g>
     <g id="text_1">
      <!-- 0.0 -->
      <defs>
       <path d="M 31.78125 66.40625 
Q 24.171875 66.40625 20.328125 58.90625 
Q 16.5 51.421875 16.5 36.375 
Q 16.5 21.390625 20.328125 13.890625 
Q 24.171875 6.390625 31.78125 6.390625 
Q 39.453125 6.390625 43.28125 13.890625 
Q 47.125 21.390625 47.125 36.375 
Q 47.125 51.421875 43.28125 58.90625 
Q 39.453125 66.40625 31.78125 66.40625 
M 31.78125 74.21875 
Q 44.046875 74.21875 50.515625 64.515625 
Q 56.984375 54.828125 56.984375 36.375 
Q 56.984375 17.96875 50.515625 8.265625 
Q 44.046875 -1.421875 31.78125 -1.421875 
Q 19.53125 -1.421875 13.0625 8.265625 
Q 6.59375 17.96875 6.59375 36.375 
Q 6.59375 54.828125 13.0625 64.515625 
Q 19.53125 74.21875 31.78125 74.21875 
" id="BitstreamVeraSans-Roman-30"/>
       <path d="M 10.6875 12.40625 
L 21 12.40625 
L 21 0 
L 10.6875 0 
z
" id="BitstreamVeraSans-Roman-2e"/>
      </defs>
      <g transform="translate(37.355625 397.984725)scale(0.12 -0.12)">
       <use xlink:href="#BitstreamVeraSans-Roman-30"/>
       <use x="63.623046875" xlink:href="#BitstreamVeraSans-Roman-2e"/>
       <use x="95.41015625" xlink:href="#BitstreamVeraSans-Roman-30"/>
      </g>
     </g>
    </g>
    <g id="xtick_2">
     <g id="line2d_7">
      <g>
       <use style="stroke:#000000;stroke-width:0.5;" x="136.1775" xlink:href="#m8e7f4e864a" y="384.8666"/>
      </g>
     </g>
     <g id="line2d_8">
      <g>
       <use style="stroke:#000000;stroke-width:0.5;" x="136.1775" xlink:href="#m847e649c77" y="39.2666"/>
      </g>
     </g>
     <g id="text_2">
      <!-- 0.2 -->
      <defs>
       <path d="M 19.1875 8.296875 
L 53.609375 8.296875 
L 53.609375 0 
L 7.328125 0 
L 7.328125 8.296875 
Q 12.9375 14.109375 22.625 23.890625 
Q 32.328125 33.6875 34.8125 36.53125 
Q 39.546875 41.84375 41.421875 45.53125 
Q 43.3125 49.21875 43.3125 52.78125 
Q 43.3125 58.59375 39.234375 62.25 
Q 35.15625 65.921875 28.609375 65.921875 
Q 23.96875 65.921875 18.8125 64.3125 
Q 13.671875 62.703125 7.8125 59.421875 
L 7.8125 69.390625 
Q 13.765625 71.78125 18.9375 73 
Q 24.125 74.21875 28.421875 74.21875 
Q 39.75 74.21875 46.484375 68.546875 
Q 53.21875 62.890625 53.21875 53.421875 
Q 53.21875 48.921875 51.53125 44.890625 
Q 49.859375 40.875 45.40625 35.40625 
Q 44.1875 33.984375 37.640625 27.21875 
Q 31.109375 20.453125 19.1875 8.296875 
" id="BitstreamVeraSans-Roman-32"/>
      </defs>
      <g transform="translate(126.635625 397.984725)scale(0.12 -0.12)">
       <use xlink:href="#BitstreamVeraSans-Roman-30"/>
       <use x="63.623046875" xlink:href="#BitstreamVeraSans-Roman-2e"/>
       <use x="95.41015625" xlink:href="#BitstreamVeraSans-Roman-32"/>
      </g>
     </g>
    </g>
    <g id="xtick_3">
     <g id="line2d_9">
      <g>
       <use style="stroke:#000000;stroke-width:0.5;" x="225.4575" xlink:href="#m8e7f4e864a" y="384.8666"/>
      </g>
     </g>
     <g id="line2d_10">
      <g>
       <use style="stroke:#000000;stroke-width:0.5;" x="225.4575" xlink:href="#m847e649c77" y="39.2666"/>
      </g>
     </g>
     <g id="text_3">
      <!-- 0.4 -->
      <defs>
       <path d="M 37.796875 64.3125 
L 12.890625 25.390625 
L 37.796875 25.390625 
z
M 35.203125 72.90625 
L 47.609375 72.90625 
L 47.609375 25.390625 
L 58.015625 25.390625 
L 58.015625 17.1875 
L 47.609375 17.1875 
L 47.609375 0 
L 37.796875 0 
L 37.796875 17.1875 
L 4.890625 17.1875 
L 4.890625 26.703125 
z
" id="BitstreamVeraSans-Roman-34"/>
      </defs>
      <g transform="translate(215.915625 397.984725)scale(0.12 -0.12)">
       <use xlink:href="#BitstreamVeraSans-Roman-30"/>
       <use x="63.623046875" xlink:href="#BitstreamVeraSans-Roman-2e"/>
       <use x="95.41015625" xlink:href="#BitstreamVeraSans-Roman-34"/>
      </g>
     </g>
    </g>
    <g id="xtick_4">
     <g id="line2d_11">
      <g>
       <use style="stroke:#000000;stroke-width:0.5;" x="314.7375" xlink:href="#m8e7f4e864a" y="384.8666"/>
      </g>
     </g>
     <g id="line2d_12">
      <g>
       <use style="stroke:#000000;stroke-width:0.5;" x="314.7375" xlink:href="#m847e649c77" y="39.2666"/>
      </g>
     </g>
     <g id="text_4">
      <!-- 0.6 -->
      <defs>
       <path d="M 33.015625 40.375 
Q 26.375 40.375 22.484375 35.828125 
Q 18.609375 31.296875 18.609375 23.390625 
Q 18.609375 15.53125 22.484375 10.953125 
Q 26.375 6.390625 33.015625 6.390625 
Q 39.65625 6.390625 43.53125 10.953125 
Q 47.40625 15.53125 47.40625 23.390625 
Q 47.40625 31.296875 43.53125 35.828125 
Q 39.65625 40.375 33.015625 40.375 
M 52.59375 71.296875 
L 52.59375 62.3125 
Q 48.875 64.0625 45.09375 64.984375 
Q 41.3125 65.921875 37.59375 65.921875 
Q 27.828125 65.921875 22.671875 59.328125 
Q 17.53125 52.734375 16.796875 39.40625 
Q 19.671875 43.65625 24.015625 45.921875 
Q 28.375 48.1875 33.59375 48.1875 
Q 44.578125 48.1875 50.953125 41.515625 
Q 57.328125 34.859375 57.328125 23.390625 
Q 57.328125 12.15625 50.6875 5.359375 
Q 44.046875 -1.421875 33.015625 -1.421875 
Q 20.359375 -1.421875 13.671875 8.265625 
Q 6.984375 17.96875 6.984375 36.375 
Q 6.984375 53.65625 15.1875 63.9375 
Q 23.390625 74.21875 37.203125 74.21875 
Q 40.921875 74.21875 44.703125 73.484375 
Q 48.484375 72.75 52.59375 71.296875 
" id="BitstreamVeraSans-Roman-36"/>
      </defs>
      <g transform="translate(305.195625 397.984725)scale(0.12 -0.12)">
       <use xlink:href="#BitstreamVeraSans-Roman-30"/>
       <use x="63.623046875" xlink:href="#BitstreamVeraSans-Roman-2e"/>
       <use x="95.41015625" xlink:href="#BitstreamVeraSans-Roman-36"/>
      </g>
     </g>
    </g>
    <g id="xtick_5">
     <g id="line2d_13">
      <g>
       <use style="stroke:#000000;stroke-width:0.5;" x="404.0175" xlink:href="#m8e7f4e864a" y="384.8666"/>
      </g>
     </g>
     <g id="line2d_14">
      <g>
       <use style="stroke:#000000;stroke-width:0.5;" x="404.0175" xlink:href="#m847e649c77" y="39.2666"/>
      </g>
     </g>
     <g id="text_5">
      <!-- 0.8 -->
      <defs>
       <path d="M 31.78125 34.625 
Q 24.75 34.625 20.71875 30.859375 
Q 16.703125 27.09375 16.703125 20.515625 
Q 16.703125 13.921875 20.71875 10.15625 
Q 24.75 6.390625 31.78125 6.390625 
Q 38.8125 6.390625 42.859375 10.171875 
Q 46.921875 13.96875 46.921875 20.515625 
Q 46.921875 27.09375 42.890625 30.859375 
Q 38.875 34.625 31.78125 34.625 
M 21.921875 38.8125 
Q 15.578125 40.375 12.03125 44.71875 
Q 8.5 49.078125 8.5 55.328125 
Q 8.5 64.0625 14.71875 69.140625 
Q 20.953125 74.21875 31.78125 74.21875 
Q 42.671875 74.21875 48.875 69.140625 
Q 55.078125 64.0625 55.078125 55.328125 
Q 55.078125 49.078125 51.53125 44.71875 
Q 48 40.375 41.703125 38.8125 
Q 48.828125 37.15625 52.796875 32.3125 
Q 56.78125 27.484375 56.78125 20.515625 
Q 56.78125 9.90625 50.3125 4.234375 
Q 43.84375 -1.421875 31.78125 -1.421875 
Q 19.734375 -1.421875 13.25 4.234375 
Q 6.78125 9.90625 6.78125 20.515625 
Q 6.78125 27.484375 10.78125 32.3125 
Q 14.796875 37.15625 21.921875 38.8125 
M 18.3125 54.390625 
Q 18.3125 48.734375 21.84375 45.5625 
Q 25.390625 42.390625 31.78125 42.390625 
Q 38.140625 42.390625 41.71875 45.5625 
Q 45.3125 48.734375 45.3125 54.390625 
Q 45.3125 60.0625 41.71875 63.234375 
Q 38.140625 66.40625 31.78125 66.40625 
Q 25.390625 66.40625 21.84375 63.234375 
Q 18.3125 60.0625 18.3125 54.390625 
" id="BitstreamVeraSans-Roman-38"/>
      </defs>
      <g transform="translate(394.475625 397.984725)scale(0.12 -0.12)">
       <use xlink:href="#BitstreamVeraSans-Roman-30"/>
       <use x="63.623046875" xlink:href="#BitstreamVeraSans-Roman-2e"/>
       <use x="95.41015625" xlink:href="#BitstreamVeraSans-Roman-38"/>
      </g>
     </g>
    </g>
    <g id="xtick_6">
     <g id="line2d_15">
      <g>
       <use style="stroke:#000000;stroke-width:0.5;" x="493.2975" xlink:href="#m8e7f4e864a" y="384.8666"/>
      </g>
     </g>
     <g id="line2d_16">
      <g>
       <use style="stroke:#000000;stroke-width:0.5;" x="493.2975" xlink:href="#m847e649c77" y="39.2666"/>
      </g>
     </g>
     <g id="text_6">
      <!-- 1.0 -->
      <defs>
       <path d="M 12.40625 8.296875 
L 28.515625 8.296875 
L 28.515625 63.921875 
L 10.984375 60.40625 
L 10.984375 69.390625 
L 28.421875 72.90625 
L 38.28125 72.90625 
L 38.28125 8.296875 
L 54.390625 8.296875 
L 54.390625 0 
L 12.40625 0 
z
" id="BitstreamVeraSans-Roman-31"/>
      </defs>
      <g transform="translate(483.755625 397.984725)scale(0.12 -0.12)">
       <use xlink:href="#BitstreamVeraSans-Roman-31"/>
       <use x="63.623046875" xlink:href="#BitstreamVeraSans-Roman-2e"/>
       <use x="95.41015625" xlink:href="#BitstreamVeraSans-Roman-30"/>
      </g>
     </g>
    </g>
    <g id="text_7">
     <!-- False Positive Rate -->
     <defs>
      <path d="M 9.421875 54.6875 
L 18.40625 54.6875 
L 18.40625 0 
L 9.421875 0 
z
M 9.421875 75.984375 
L 18.40625 75.984375 
L 18.40625 64.59375 
L 9.421875 64.59375 
z
" id="BitstreamVeraSans-Roman-69"/>
      <path d="M 44.28125 53.078125 
L 44.28125 44.578125 
Q 40.484375 46.53125 36.375 47.5 
Q 32.28125 48.484375 27.875 48.484375 
Q 21.1875 48.484375 17.84375 46.4375 
Q 14.5 44.390625 14.5 40.28125 
Q 14.5 37.15625 16.890625 35.375 
Q 19.28125 33.59375 26.515625 31.984375 
L 29.59375 31.296875 
Q 39.15625 29.25 43.1875 25.515625 
Q 47.21875 21.78125 47.21875 15.09375 
Q 47.21875 7.46875 41.1875 3.015625 
Q 35.15625 -1.421875 24.609375 -1.421875 
Q 20.21875 -1.421875 15.453125 -0.5625 
Q 10.6875 0.296875 5.421875 2 
L 5.421875 11.28125 
Q 10.40625 8.6875 15.234375 7.390625 
Q 20.0625 6.109375 24.8125 6.109375 
Q 31.15625 6.109375 34.5625 8.28125 
Q 37.984375 10.453125 37.984375 14.40625 
Q 37.984375 18.0625 35.515625 20.015625 
Q 33.0625 21.96875 24.703125 23.78125 
L 21.578125 24.515625 
Q 13.234375 26.265625 9.515625 29.90625 
Q 5.8125 33.546875 5.8125 39.890625 
Q 5.8125 47.609375 11.28125 51.796875 
Q 16.75 56 26.8125 56 
Q 31.78125 56 36.171875 55.265625 
Q 40.578125 54.546875 44.28125 53.078125 
" id="BitstreamVeraSans-Roman-73"/>
      <path id="BitstreamVeraSans-Roman-20"/>
      <path d="M 19.671875 64.796875 
L 19.671875 37.40625 
L 32.078125 37.40625 
Q 38.96875 37.40625 42.71875 40.96875 
Q 46.484375 44.53125 46.484375 51.125 
Q 46.484375 57.671875 42.71875 61.234375 
Q 38.96875 64.796875 32.078125 64.796875 
z
M 9.8125 72.90625 
L 32.078125 72.90625 
Q 44.34375 72.90625 50.609375 67.359375 
Q 56.890625 61.8125 56.890625 51.125 
Q 56.890625 40.328125 50.609375 34.8125 
Q 44.34375 29.296875 32.078125 29.296875 
L 19.671875 29.296875 
L 19.671875 0 
L 9.8125 0 
z
" id="BitstreamVeraSans-Roman-50"/>
      <path d="M 44.390625 34.1875 
Q 47.5625 33.109375 50.5625 29.59375 
Q 53.5625 26.078125 56.59375 19.921875 
L 66.609375 0 
L 56 0 
L 46.6875 18.703125 
Q 43.0625 26.03125 39.671875 28.421875 
Q 36.28125 30.8125 30.421875 30.8125 
L 19.671875 30.8125 
L 19.671875 0 
L 9.8125 0 
L 9.8125 72.90625 
L 32.078125 72.90625 
Q 44.578125 72.90625 50.734375 67.671875 
Q 56.890625 62.453125 56.890625 51.90625 
Q 56.890625 45.015625 53.6875 40.46875 
Q 50.484375 35.9375 44.390625 34.1875 
M 19.671875 64.796875 
L 19.671875 38.921875 
L 32.078125 38.921875 
Q 39.203125 38.921875 42.84375 42.21875 
Q 46.484375 45.515625 46.484375 51.90625 
Q 46.484375 58.296875 42.84375 61.546875 
Q 39.203125 64.796875 32.078125 64.796875 
z
" id="BitstreamVeraSans-Roman-52"/>
      <path d="M 30.609375 48.390625 
Q 23.390625 48.390625 19.1875 42.75 
Q 14.984375 37.109375 14.984375 27.296875 
Q 14.984375 17.484375 19.15625 11.84375 
Q 23.34375 6.203125 30.609375 6.203125 
Q 37.796875 6.203125 41.984375 11.859375 
Q 46.1875 17.53125 46.1875 27.296875 
Q 46.1875 37.015625 41.984375 42.703125 
Q 37.796875 48.390625 30.609375 48.390625 
M 30.609375 56 
Q 42.328125 56 49.015625 48.375 
Q 55.71875 40.765625 55.71875 27.296875 
Q 55.71875 13.875 49.015625 6.21875 
Q 42.328125 -1.421875 30.609375 -1.421875 
Q 18.84375 -1.421875 12.171875 6.21875 
Q 5.515625 13.875 5.515625 27.296875 
Q 5.515625 40.765625 12.171875 48.375 
Q 18.84375 56 30.609375 56 
" id="BitstreamVeraSans-Roman-6f"/>
      <path d="M 9.8125 72.90625 
L 51.703125 72.90625 
L 51.703125 64.59375 
L 19.671875 64.59375 
L 19.671875 43.109375 
L 48.578125 43.109375 
L 48.578125 34.8125 
L 19.671875 34.8125 
L 19.671875 0 
L 9.8125 0 
z
" id="BitstreamVeraSans-Roman-46"/>
      <path d="M 18.3125 70.21875 
L 18.3125 54.6875 
L 36.8125 54.6875 
L 36.8125 47.703125 
L 18.3125 47.703125 
L 18.3125 18.015625 
Q 18.3125 11.328125 20.140625 9.421875 
Q 21.96875 7.515625 27.59375 7.515625 
L 36.8125 7.515625 
L 36.8125 0 
L 27.59375 0 
Q 17.1875 0 13.234375 3.875 
Q 9.28125 7.765625 9.28125 18.015625 
L 9.28125 47.703125 
L 2.6875 47.703125 
L 2.6875 54.6875 
L 9.28125 54.6875 
L 9.28125 70.21875 
z
" id="BitstreamVeraSans-Roman-74"/>
      <path d="M 9.421875 75.984375 
L 18.40625 75.984375 
L 18.40625 0 
L 9.421875 0 
z
" id="BitstreamVeraSans-Roman-6c"/>
      <path d="M 2.984375 54.6875 
L 12.5 54.6875 
L 29.59375 8.796875 
L 46.6875 54.6875 
L 56.203125 54.6875 
L 35.6875 0 
L 23.484375 0 
z
" id="BitstreamVeraSans-Roman-76"/>
      <path d="M 34.28125 27.484375 
Q 23.390625 27.484375 19.1875 25 
Q 14.984375 22.515625 14.984375 16.5 
Q 14.984375 11.71875 18.140625 8.90625 
Q 21.296875 6.109375 26.703125 6.109375 
Q 34.1875 6.109375 38.703125 11.40625 
Q 43.21875 16.703125 43.21875 25.484375 
L 43.21875 27.484375 
z
M 52.203125 31.203125 
L 52.203125 0 
L 43.21875 0 
L 43.21875 8.296875 
Q 40.140625 3.328125 35.546875 0.953125 
Q 30.953125 -1.421875 24.3125 -1.421875 
Q 15.921875 -1.421875 10.953125 3.296875 
Q 6 8.015625 6 15.921875 
Q 6 25.140625 12.171875 29.828125 
Q 18.359375 34.515625 30.609375 34.515625 
L 43.21875 34.515625 
L 43.21875 35.40625 
Q 43.21875 41.609375 39.140625 45 
Q 35.0625 48.390625 27.6875 48.390625 
Q 23 48.390625 18.546875 47.265625 
Q 14.109375 46.140625 10.015625 43.890625 
L 10.015625 52.203125 
Q 14.9375 54.109375 19.578125 55.046875 
Q 24.21875 56 28.609375 56 
Q 40.484375 56 46.34375 49.84375 
Q 52.203125 43.703125 52.203125 31.203125 
" id="BitstreamVeraSans-Roman-61"/>
      <path d="M 56.203125 29.59375 
L 56.203125 25.203125 
L 14.890625 25.203125 
Q 15.484375 15.921875 20.484375 11.0625 
Q 25.484375 6.203125 34.421875 6.203125 
Q 39.59375 6.203125 44.453125 7.46875 
Q 49.3125 8.734375 54.109375 11.28125 
L 54.109375 2.78125 
Q 49.265625 0.734375 44.1875 -0.34375 
Q 39.109375 -1.421875 33.890625 -1.421875 
Q 20.796875 -1.421875 13.15625 6.1875 
Q 5.515625 13.8125 5.515625 26.8125 
Q 5.515625 40.234375 12.765625 48.109375 
Q 20.015625 56 32.328125 56 
Q 43.359375 56 49.78125 48.890625 
Q 56.203125 41.796875 56.203125 29.59375 
M 47.21875 32.234375 
Q 47.125 39.59375 43.09375 43.984375 
Q 39.0625 48.390625 32.421875 48.390625 
Q 24.90625 48.390625 20.390625 44.140625 
Q 15.875 39.890625 15.1875 32.171875 
z
" id="BitstreamVeraSans-Roman-65"/>
     </defs>
     <g transform="translate(213.4509375 414.598475)scale(0.12 -0.12)">
      <use xlink:href="#BitstreamVeraSans-Roman-46"/>
      <use x="57.37890625" xlink:href="#BitstreamVeraSans-Roman-61"/>
      <use x="118.658203125" xlink:href="#BitstreamVeraSans-Roman-6c"/>
      <use x="146.44140625" xlink:href="#BitstreamVeraSans-Roman-73"/>
      <use x="198.541015625" xlink:href="#BitstreamVeraSans-Roman-65"/>
      <use x="260.064453125" xlink:href="#BitstreamVeraSans-Roman-20"/>
      <use x="291.8515625" xlink:href="#BitstreamVeraSans-Roman-50"/>
      <use x="352.107421875" xlink:href="#BitstreamVeraSans-Roman-6f"/>
      <use x="413.2890625" xlink:href="#BitstreamVeraSans-Roman-73"/>
      <use x="465.388671875" xlink:href="#BitstreamVeraSans-Roman-69"/>
      <use x="493.171875" xlink:href="#BitstreamVeraSans-Roman-74"/>
      <use x="532.380859375" xlink:href="#BitstreamVeraSans-Roman-69"/>
      <use x="560.1640625" xlink:href="#BitstreamVeraSans-Roman-76"/>
      <use x="619.34375" xlink:href="#BitstreamVeraSans-Roman-65"/>
      <use x="680.8671875" xlink:href="#BitstreamVeraSans-Roman-20"/>
      <use x="712.654296875" xlink:href="#BitstreamVeraSans-Roman-52"/>
      <use x="782.10546875" xlink:href="#BitstreamVeraSans-Roman-61"/>
      <use x="843.384765625" xlink:href="#BitstreamVeraSans-Roman-74"/>
      <use x="882.59375" xlink:href="#BitstreamVeraSans-Roman-65"/>
     </g>
    </g>
   </g>
   <g id="matplotlib.axis_2">
    <g id="ytick_1">
     <g id="line2d_17">
      <defs>
       <path d="M 0 0 
L 4 0 
" id="m9d35c7f362" style="stroke:#000000;stroke-width:0.5;"/>
      </defs>
      <g>
       <use style="stroke:#000000;stroke-width:0.5;" x="46.8975" xlink:href="#m9d35c7f362" y="384.8666"/>
      </g>
     </g>
     <g id="line2d_18">
      <defs>
       <path d="M 0 0 
L -4 0 
" id="mfc34511f8f" style="stroke:#000000;stroke-width:0.5;"/>
      </defs>
      <g>
       <use style="stroke:#000000;stroke-width:0.5;" x="493.2975" xlink:href="#mfc34511f8f" y="384.8666"/>
      </g>
     </g>
     <g id="text_8">
      <!-- 0.0 -->
      <g transform="translate(23.81375 388.17785)scale(0.12 -0.12)">
       <use xlink:href="#BitstreamVeraSans-Roman-30"/>
       <use x="63.623046875" xlink:href="#BitstreamVeraSans-Roman-2e"/>
       <use x="95.41015625" xlink:href="#BitstreamVeraSans-Roman-30"/>
      </g>
     </g>
    </g>
    <g id="ytick_2">
     <g id="line2d_19">
      <g>
       <use style="stroke:#000000;stroke-width:0.5;" x="46.8975" xlink:href="#m9d35c7f362" y="319.038028571"/>
      </g>
     </g>
     <g id="line2d_20">
      <g>
       <use style="stroke:#000000;stroke-width:0.5;" x="493.2975" xlink:href="#mfc34511f8f" y="319.038028571"/>
      </g>
     </g>
     <g id="text_9">
      <!-- 0.2 -->
      <g transform="translate(23.81375 322.349278571)scale(0.12 -0.12)">
       <use xlink:href="#BitstreamVeraSans-Roman-30"/>
       <use x="63.623046875" xlink:href="#BitstreamVeraSans-Roman-2e"/>
       <use x="95.41015625" xlink:href="#BitstreamVeraSans-Roman-32"/>
      </g>
     </g>
    </g>
    <g id="ytick_3">
     <g id="line2d_21">
      <g>
       <use style="stroke:#000000;stroke-width:0.5;" x="46.8975" xlink:href="#m9d35c7f362" y="253.209457143"/>
      </g>
     </g>
     <g id="line2d_22">
      <g>
       <use style="stroke:#000000;stroke-width:0.5;" x="493.2975" xlink:href="#mfc34511f8f" y="253.209457143"/>
      </g>
     </g>
     <g id="text_10">
      <!-- 0.4 -->
      <g transform="translate(23.81375 256.520707143)scale(0.12 -0.12)">
       <use xlink:href="#BitstreamVeraSans-Roman-30"/>
       <use x="63.623046875" xlink:href="#BitstreamVeraSans-Roman-2e"/>
       <use x="95.41015625" xlink:href="#BitstreamVeraSans-Roman-34"/>
      </g>
     </g>
    </g>
    <g id="ytick_4">
     <g id="line2d_23">
      <g>
       <use style="stroke:#000000;stroke-width:0.5;" x="46.8975" xlink:href="#m9d35c7f362" y="187.380885714"/>
      </g>
     </g>
     <g id="line2d_24">
      <g>
       <use style="stroke:#000000;stroke-width:0.5;" x="493.2975" xlink:href="#mfc34511f8f" y="187.380885714"/>
      </g>
     </g>
     <g id="text_11">
      <!-- 0.6 -->
      <g transform="translate(23.81375 190.692135714)scale(0.12 -0.12)">
       <use xlink:href="#BitstreamVeraSans-Roman-30"/>
       <use x="63.623046875" xlink:href="#BitstreamVeraSans-Roman-2e"/>
       <use x="95.41015625" xlink:href="#BitstreamVeraSans-Roman-36"/>
      </g>
     </g>
    </g>
    <g id="ytick_5">
     <g id="line2d_25">
      <g>
       <use style="stroke:#000000;stroke-width:0.5;" x="46.8975" xlink:href="#m9d35c7f362" y="121.552314286"/>
      </g>
     </g>
     <g id="line2d_26">
      <g>
       <use style="stroke:#000000;stroke-width:0.5;" x="493.2975" xlink:href="#mfc34511f8f" y="121.552314286"/>
      </g>
     </g>
     <g id="text_12">
      <!-- 0.8 -->
      <g transform="translate(23.81375 124.863564286)scale(0.12 -0.12)">
       <use xlink:href="#BitstreamVeraSans-Roman-30"/>
       <use x="63.623046875" xlink:href="#BitstreamVeraSans-Roman-2e"/>
       <use x="95.41015625" xlink:href="#BitstreamVeraSans-Roman-38"/>
      </g>
     </g>
    </g>
    <g id="ytick_6">
     <g id="line2d_27">
      <g>
       <use style="stroke:#000000;stroke-width:0.5;" x="46.8975" xlink:href="#m9d35c7f362" y="55.7237428571"/>
      </g>
     </g>
     <g id="line2d_28">
      <g>
       <use style="stroke:#000000;stroke-width:0.5;" x="493.2975" xlink:href="#mfc34511f8f" y="55.7237428571"/>
      </g>
     </g>
     <g id="text_13">
      <!-- 1.0 -->
      <g transform="translate(23.81375 59.0349928571)scale(0.12 -0.12)">
       <use xlink:href="#BitstreamVeraSans-Roman-31"/>
       <use x="63.623046875" xlink:href="#BitstreamVeraSans-Roman-2e"/>
       <use x="95.41015625" xlink:href="#BitstreamVeraSans-Roman-30"/>
      </g>
     </g>
    </g>
    <g id="text_14">
     <!-- True Positive Rate -->
     <defs>
      <path d="M -0.296875 72.90625 
L 61.375 72.90625 
L 61.375 64.59375 
L 35.5 64.59375 
L 35.5 0 
L 25.59375 0 
L 25.59375 64.59375 
L -0.296875 64.59375 
z
" id="BitstreamVeraSans-Roman-54"/>
      <path d="M 41.109375 46.296875 
Q 39.59375 47.171875 37.8125 47.578125 
Q 36.03125 48 33.890625 48 
Q 26.265625 48 22.1875 43.046875 
Q 18.109375 38.09375 18.109375 28.8125 
L 18.109375 0 
L 9.078125 0 
L 9.078125 54.6875 
L 18.109375 54.6875 
L 18.109375 46.1875 
Q 20.953125 51.171875 25.484375 53.578125 
Q 30.03125 56 36.53125 56 
Q 37.453125 56 38.578125 55.875 
Q 39.703125 55.765625 41.0625 55.515625 
z
" id="BitstreamVeraSans-Roman-72"/>
      <path d="M 8.5 21.578125 
L 8.5 54.6875 
L 17.484375 54.6875 
L 17.484375 21.921875 
Q 17.484375 14.15625 20.5 10.265625 
Q 23.53125 6.390625 29.59375 6.390625 
Q 36.859375 6.390625 41.078125 11.03125 
Q 45.3125 15.671875 45.3125 23.6875 
L 45.3125 54.6875 
L 54.296875 54.6875 
L 54.296875 0 
L 45.3125 0 
L 45.3125 8.40625 
Q 42.046875 3.421875 37.71875 1 
Q 33.40625 -1.421875 27.6875 -1.421875 
Q 18.265625 -1.421875 13.375 4.4375 
Q 8.5 10.296875 8.5 21.578125 
" id="BitstreamVeraSans-Roman-75"/>
     </defs>
     <g transform="translate(16.318125 266.7219125)rotate(-90.0)scale(0.12 -0.12)">
      <use xlink:href="#BitstreamVeraSans-Roman-54"/>
      <use x="60.865234375" xlink:href="#BitstreamVeraSans-Roman-72"/>
      <use x="101.978515625" xlink:href="#BitstreamVeraSans-Roman-75"/>
      <use x="165.357421875" xlink:href="#BitstreamVeraSans-Roman-65"/>
      <use x="226.880859375" xlink:href="#BitstreamVeraSans-Roman-20"/>
      <use x="258.66796875" xlink:href="#BitstreamVeraSans-Roman-50"/>
      <use x="318.923828125" xlink:href="#BitstreamVeraSans-Roman-6f"/>
      <use x="380.10546875" xlink:href="#BitstreamVeraSans-Roman-73"/>
      <use x="432.205078125" xlink:href="#BitstreamVeraSans-Roman-69"/>
      <use x="459.98828125" xlink:href="#BitstreamVeraSans-Roman-74"/>
      <use x="499.197265625" xlink:href="#BitstreamVeraSans-Roman-69"/>
      <use x="526.98046875" xlink:href="#BitstreamVeraSans-Roman-76"/>
      <use x="586.16015625" xlink:href="#BitstreamVeraSans-Roman-65"/>
      <use x="647.68359375" xlink:href="#BitstreamVeraSans-Roman-20"/>
      <use x="679.470703125" xlink:href="#BitstreamVeraSans-Roman-52"/>
      <use x="748.921875" xlink:href="#BitstreamVeraSans-Roman-61"/>
      <use x="810.201171875" xlink:href="#BitstreamVeraSans-Roman-74"/>
      <use x="849.41015625" xlink:href="#BitstreamVeraSans-Roman-65"/>
     </g>
    </g>
   </g>
   <g id="text_15">
    <!-- ROC Curve GradientBoosting + SMOTE -->
    <defs>
     <path d="M 64.40625 67.28125 
L 64.40625 56.890625 
Q 59.421875 61.53125 53.78125 63.8125 
Q 48.140625 66.109375 41.796875 66.109375 
Q 29.296875 66.109375 22.65625 58.46875 
Q 16.015625 50.828125 16.015625 36.375 
Q 16.015625 21.96875 22.65625 14.328125 
Q 29.296875 6.6875 41.796875 6.6875 
Q 48.140625 6.6875 53.78125 8.984375 
Q 59.421875 11.28125 64.40625 15.921875 
L 64.40625 5.609375 
Q 59.234375 2.09375 53.4375 0.328125 
Q 47.65625 -1.421875 41.21875 -1.421875 
Q 24.65625 -1.421875 15.125 8.703125 
Q 5.609375 18.84375 5.609375 36.375 
Q 5.609375 53.953125 15.125 64.078125 
Q 24.65625 74.21875 41.21875 74.21875 
Q 47.75 74.21875 53.53125 72.484375 
Q 59.328125 70.75 64.40625 67.28125 
" id="BitstreamVeraSans-Roman-43"/>
     <path d="M 45.40625 46.390625 
L 45.40625 75.984375 
L 54.390625 75.984375 
L 54.390625 0 
L 45.40625 0 
L 45.40625 8.203125 
Q 42.578125 3.328125 38.25 0.953125 
Q 33.9375 -1.421875 27.875 -1.421875 
Q 17.96875 -1.421875 11.734375 6.484375 
Q 5.515625 14.40625 5.515625 27.296875 
Q 5.515625 40.1875 11.734375 48.09375 
Q 17.96875 56 27.875 56 
Q 33.9375 56 38.25 53.625 
Q 42.578125 51.265625 45.40625 46.390625 
M 14.796875 27.296875 
Q 14.796875 17.390625 18.875 11.75 
Q 22.953125 6.109375 30.078125 6.109375 
Q 37.203125 6.109375 41.296875 11.75 
Q 45.40625 17.390625 45.40625 27.296875 
Q 45.40625 37.203125 41.296875 42.84375 
Q 37.203125 48.484375 30.078125 48.484375 
Q 22.953125 48.484375 18.875 42.84375 
Q 14.796875 37.203125 14.796875 27.296875 
" id="BitstreamVeraSans-Roman-64"/>
     <path d="M 9.8125 72.90625 
L 24.515625 72.90625 
L 43.109375 23.296875 
L 61.8125 72.90625 
L 76.515625 72.90625 
L 76.515625 0 
L 66.890625 0 
L 66.890625 64.015625 
L 48.09375 14.015625 
L 38.1875 14.015625 
L 19.390625 64.015625 
L 19.390625 0 
L 9.8125 0 
z
" id="BitstreamVeraSans-Roman-4d"/>
     <path d="M 53.515625 70.515625 
L 53.515625 60.890625 
Q 47.90625 63.578125 42.921875 64.890625 
Q 37.9375 66.21875 33.296875 66.21875 
Q 25.25 66.21875 20.875 63.09375 
Q 16.5 59.96875 16.5 54.203125 
Q 16.5 49.359375 19.40625 46.890625 
Q 22.3125 44.4375 30.421875 42.921875 
L 36.375 41.703125 
Q 47.40625 39.59375 52.65625 34.296875 
Q 57.90625 29 57.90625 20.125 
Q 57.90625 9.515625 50.796875 4.046875 
Q 43.703125 -1.421875 29.984375 -1.421875 
Q 24.8125 -1.421875 18.96875 -0.25 
Q 13.140625 0.921875 6.890625 3.21875 
L 6.890625 13.375 
Q 12.890625 10.015625 18.65625 8.296875 
Q 24.421875 6.59375 29.984375 6.59375 
Q 38.421875 6.59375 43.015625 9.90625 
Q 47.609375 13.234375 47.609375 19.390625 
Q 47.609375 24.75 44.3125 27.78125 
Q 41.015625 30.8125 33.5 32.328125 
L 27.484375 33.5 
Q 16.453125 35.6875 11.515625 40.375 
Q 6.59375 45.0625 6.59375 53.421875 
Q 6.59375 63.09375 13.40625 68.65625 
Q 20.21875 74.21875 32.171875 74.21875 
Q 37.3125 74.21875 42.625 73.28125 
Q 47.953125 72.359375 53.515625 70.515625 
" id="BitstreamVeraSans-Roman-53"/>
     <path d="M 39.40625 66.21875 
Q 28.65625 66.21875 22.328125 58.203125 
Q 16.015625 50.203125 16.015625 36.375 
Q 16.015625 22.609375 22.328125 14.59375 
Q 28.65625 6.59375 39.40625 6.59375 
Q 50.140625 6.59375 56.421875 14.59375 
Q 62.703125 22.609375 62.703125 36.375 
Q 62.703125 50.203125 56.421875 58.203125 
Q 50.140625 66.21875 39.40625 66.21875 
M 39.40625 74.21875 
Q 54.734375 74.21875 63.90625 63.9375 
Q 73.09375 53.65625 73.09375 36.375 
Q 73.09375 19.140625 63.90625 8.859375 
Q 54.734375 -1.421875 39.40625 -1.421875 
Q 24.03125 -1.421875 14.8125 8.828125 
Q 5.609375 19.09375 5.609375 36.375 
Q 5.609375 53.65625 14.8125 63.9375 
Q 24.03125 74.21875 39.40625 74.21875 
" id="BitstreamVeraSans-Roman-4f"/>
     <path d="M 59.515625 10.40625 
L 59.515625 29.984375 
L 43.40625 29.984375 
L 43.40625 38.09375 
L 69.28125 38.09375 
L 69.28125 6.78125 
Q 63.578125 2.734375 56.6875 0.65625 
Q 49.8125 -1.421875 42 -1.421875 
Q 24.90625 -1.421875 15.25 8.5625 
Q 5.609375 18.5625 5.609375 36.375 
Q 5.609375 54.25 15.25 64.234375 
Q 24.90625 74.21875 42 74.21875 
Q 49.125 74.21875 55.546875 72.453125 
Q 61.96875 70.703125 67.390625 67.28125 
L 67.390625 56.78125 
Q 61.921875 61.421875 55.765625 63.765625 
Q 49.609375 66.109375 42.828125 66.109375 
Q 29.4375 66.109375 22.71875 58.640625 
Q 16.015625 51.171875 16.015625 36.375 
Q 16.015625 21.625 22.71875 14.15625 
Q 29.4375 6.6875 42.828125 6.6875 
Q 48.046875 6.6875 52.140625 7.59375 
Q 56.25 8.5 59.515625 10.40625 
" id="BitstreamVeraSans-Roman-47"/>
     <path d="M 45.40625 27.984375 
Q 45.40625 37.75 41.375 43.109375 
Q 37.359375 48.484375 30.078125 48.484375 
Q 22.859375 48.484375 18.828125 43.109375 
Q 14.796875 37.75 14.796875 27.984375 
Q 14.796875 18.265625 18.828125 12.890625 
Q 22.859375 7.515625 30.078125 7.515625 
Q 37.359375 7.515625 41.375 12.890625 
Q 45.40625 18.265625 45.40625 27.984375 
M 54.390625 6.78125 
Q 54.390625 -7.171875 48.1875 -13.984375 
Q 42 -20.796875 29.203125 -20.796875 
Q 24.46875 -20.796875 20.265625 -20.09375 
Q 16.0625 -19.390625 12.109375 -17.921875 
L 12.109375 -9.1875 
Q 16.0625 -11.328125 19.921875 -12.34375 
Q 23.78125 -13.375 27.78125 -13.375 
Q 36.625 -13.375 41.015625 -8.765625 
Q 45.40625 -4.15625 45.40625 5.171875 
L 45.40625 9.625 
Q 42.625 4.78125 38.28125 2.390625 
Q 33.9375 0 27.875 0 
Q 17.828125 0 11.671875 7.65625 
Q 5.515625 15.328125 5.515625 27.984375 
Q 5.515625 40.671875 11.671875 48.328125 
Q 17.828125 56 27.875 56 
Q 33.9375 56 38.28125 53.609375 
Q 42.625 51.21875 45.40625 46.390625 
L 45.40625 54.6875 
L 54.390625 54.6875 
z
" id="BitstreamVeraSans-Roman-67"/>
     <path d="M 9.8125 72.90625 
L 55.90625 72.90625 
L 55.90625 64.59375 
L 19.671875 64.59375 
L 19.671875 43.015625 
L 54.390625 43.015625 
L 54.390625 34.71875 
L 19.671875 34.71875 
L 19.671875 8.296875 
L 56.78125 8.296875 
L 56.78125 0 
L 9.8125 0 
z
" id="BitstreamVeraSans-Roman-45"/>
     <path d="M 46 62.703125 
L 46 35.5 
L 73.1875 35.5 
L 73.1875 27.203125 
L 46 27.203125 
L 46 0 
L 37.796875 0 
L 37.796875 27.203125 
L 10.59375 27.203125 
L 10.59375 35.5 
L 37.796875 35.5 
L 37.796875 62.703125 
z
" id="BitstreamVeraSans-Roman-2b"/>
     <path d="M 19.671875 34.8125 
L 19.671875 8.109375 
L 35.5 8.109375 
Q 43.453125 8.109375 47.28125 11.40625 
Q 51.125 14.703125 51.125 21.484375 
Q 51.125 28.328125 47.28125 31.5625 
Q 43.453125 34.8125 35.5 34.8125 
z
M 19.671875 64.796875 
L 19.671875 42.828125 
L 34.28125 42.828125 
Q 41.5 42.828125 45.03125 45.53125 
Q 48.578125 48.25 48.578125 53.8125 
Q 48.578125 59.328125 45.03125 62.0625 
Q 41.5 64.796875 34.28125 64.796875 
z
M 9.8125 72.90625 
L 35.015625 72.90625 
Q 46.296875 72.90625 52.390625 68.21875 
Q 58.5 63.53125 58.5 54.890625 
Q 58.5 48.1875 55.375 44.234375 
Q 52.25 40.28125 46.1875 39.3125 
Q 53.46875 37.75 57.5 32.78125 
Q 61.53125 27.828125 61.53125 20.40625 
Q 61.53125 10.640625 54.890625 5.3125 
Q 48.25 0 35.984375 0 
L 9.8125 0 
z
" id="BitstreamVeraSans-Roman-42"/>
     <path d="M 54.890625 33.015625 
L 54.890625 0 
L 45.90625 0 
L 45.90625 32.71875 
Q 45.90625 40.484375 42.875 44.328125 
Q 39.84375 48.1875 33.796875 48.1875 
Q 26.515625 48.1875 22.3125 43.546875 
Q 18.109375 38.921875 18.109375 30.90625 
L 18.109375 0 
L 9.078125 0 
L 9.078125 54.6875 
L 18.109375 54.6875 
L 18.109375 46.1875 
Q 21.34375 51.125 25.703125 53.5625 
Q 30.078125 56 35.796875 56 
Q 45.21875 56 50.046875 50.171875 
Q 54.890625 44.34375 54.890625 33.015625 
" id="BitstreamVeraSans-Roman-6e"/>
    </defs>
    <g transform="translate(129.77625 18.14175)scale(0.144 -0.144)">
     <use xlink:href="#BitstreamVeraSans-Roman-52"/>
     <use x="69.482421875" xlink:href="#BitstreamVeraSans-Roman-4f"/>
     <use x="148.193359375" xlink:href="#BitstreamVeraSans-Roman-43"/>
     <use x="218.017578125" xlink:href="#BitstreamVeraSans-Roman-20"/>
     <use x="249.8046875" xlink:href="#BitstreamVeraSans-Roman-43"/>
     <use x="319.62890625" xlink:href="#BitstreamVeraSans-Roman-75"/>
     <use x="383.0078125" xlink:href="#BitstreamVeraSans-Roman-72"/>
     <use x="424.12109375" xlink:href="#BitstreamVeraSans-Roman-76"/>
     <use x="483.30078125" xlink:href="#BitstreamVeraSans-Roman-65"/>
     <use x="544.82421875" xlink:href="#BitstreamVeraSans-Roman-20"/>
     <use x="576.611328125" xlink:href="#BitstreamVeraSans-Roman-47"/>
     <use x="654.1015625" xlink:href="#BitstreamVeraSans-Roman-72"/>
     <use x="695.21484375" xlink:href="#BitstreamVeraSans-Roman-61"/>
     <use x="756.494140625" xlink:href="#BitstreamVeraSans-Roman-64"/>
     <use x="819.970703125" xlink:href="#BitstreamVeraSans-Roman-69"/>
     <use x="847.75390625" xlink:href="#BitstreamVeraSans-Roman-65"/>
     <use x="909.27734375" xlink:href="#BitstreamVeraSans-Roman-6e"/>
     <use x="972.65625" xlink:href="#BitstreamVeraSans-Roman-74"/>
     <use x="1011.865234375" xlink:href="#BitstreamVeraSans-Roman-42"/>
     <use x="1080.46875" xlink:href="#BitstreamVeraSans-Roman-6f"/>
     <use x="1141.650390625" xlink:href="#BitstreamVeraSans-Roman-6f"/>
     <use x="1202.83203125" xlink:href="#BitstreamVeraSans-Roman-73"/>
     <use x="1254.931640625" xlink:href="#BitstreamVeraSans-Roman-74"/>
     <use x="1294.140625" xlink:href="#BitstreamVeraSans-Roman-69"/>
     <use x="1321.923828125" xlink:href="#BitstreamVeraSans-Roman-6e"/>
     <use x="1385.302734375" xlink:href="#BitstreamVeraSans-Roman-67"/>
     <use x="1448.779296875" xlink:href="#BitstreamVeraSans-Roman-20"/>
     <use x="1480.56640625" xlink:href="#BitstreamVeraSans-Roman-2b"/>
     <use x="1564.35546875" xlink:href="#BitstreamVeraSans-Roman-20"/>
     <use x="1596.142578125" xlink:href="#BitstreamVeraSans-Roman-53"/>
     <use x="1659.619140625" xlink:href="#BitstreamVeraSans-Roman-4d"/>
     <use x="1745.8984375" xlink:href="#BitstreamVeraSans-Roman-4f"/>
     <use x="1824.609375" xlink:href="#BitstreamVeraSans-Roman-54"/>
     <use x="1885.693359375" xlink:href="#BitstreamVeraSans-Roman-45"/>
    </g>
    <!-- Train: 1   Test: [4, 8, 12, 16, 20, 24, 28] -->
    <defs>
     <path d="M 30.421875 75.984375 
L 30.421875 -13.1875 
L 9.71875 -13.1875 
L 9.71875 -6.203125 
L 21.390625 -6.203125 
L 21.390625 69 
L 9.71875 69 
L 9.71875 75.984375 
z
" id="BitstreamVeraSans-Roman-5d"/>
     <path d="M 11.71875 12.40625 
L 22.015625 12.40625 
L 22.015625 0 
L 11.71875 0 
z
M 11.71875 51.703125 
L 22.015625 51.703125 
L 22.015625 39.3125 
L 11.71875 39.3125 
z
" id="BitstreamVeraSans-Roman-3a"/>
     <path d="M 8.59375 75.984375 
L 29.296875 75.984375 
L 29.296875 69 
L 17.578125 69 
L 17.578125 -6.203125 
L 29.296875 -6.203125 
L 29.296875 -13.1875 
L 8.59375 -13.1875 
z
" id="BitstreamVeraSans-Roman-5b"/>
     <path d="M 11.71875 12.40625 
L 22.015625 12.40625 
L 22.015625 4 
L 14.015625 -11.625 
L 7.71875 -11.625 
L 11.71875 4 
z
" id="BitstreamVeraSans-Roman-2c"/>
    </defs>
    <g transform="translate(127.475625 34.2666)scale(0.144 -0.144)">
     <use xlink:href="#BitstreamVeraSans-Roman-54"/>
     <use x="60.865234375" xlink:href="#BitstreamVeraSans-Roman-72"/>
     <use x="101.978515625" xlink:href="#BitstreamVeraSans-Roman-61"/>
     <use x="163.2578125" xlink:href="#BitstreamVeraSans-Roman-69"/>
     <use x="191.041015625" xlink:href="#BitstreamVeraSans-Roman-6e"/>
     <use x="254.419921875" xlink:href="#BitstreamVeraSans-Roman-3a"/>
     <use x="288.111328125" xlink:href="#BitstreamVeraSans-Roman-20"/>
     <use x="319.8984375" xlink:href="#BitstreamVeraSans-Roman-31"/>
     <use x="383.521484375" xlink:href="#BitstreamVeraSans-Roman-20"/>
     <use x="415.30859375" xlink:href="#BitstreamVeraSans-Roman-20"/>
     <use x="447.095703125" xlink:href="#BitstreamVeraSans-Roman-20"/>
     <use x="478.8828125" xlink:href="#BitstreamVeraSans-Roman-54"/>
     <use x="539.701171875" xlink:href="#BitstreamVeraSans-Roman-65"/>
     <use x="601.224609375" xlink:href="#BitstreamVeraSans-Roman-73"/>
     <use x="653.32421875" xlink:href="#BitstreamVeraSans-Roman-74"/>
     <use x="692.533203125" xlink:href="#BitstreamVeraSans-Roman-3a"/>
     <use x="726.224609375" xlink:href="#BitstreamVeraSans-Roman-20"/>
     <use x="758.01171875" xlink:href="#BitstreamVeraSans-Roman-5b"/>
     <use x="797.025390625" xlink:href="#BitstreamVeraSans-Roman-34"/>
     <use x="860.6484375" xlink:href="#BitstreamVeraSans-Roman-2c"/>
     <use x="892.435546875" xlink:href="#BitstreamVeraSans-Roman-20"/>
     <use x="924.22265625" xlink:href="#BitstreamVeraSans-Roman-38"/>
     <use x="987.845703125" xlink:href="#BitstreamVeraSans-Roman-2c"/>
     <use x="1019.6328125" xlink:href="#BitstreamVeraSans-Roman-20"/>
     <use x="1051.419921875" xlink:href="#BitstreamVeraSans-Roman-31"/>
     <use x="1115.04296875" xlink:href="#BitstreamVeraSans-Roman-32"/>
     <use x="1178.666015625" xlink:href="#BitstreamVeraSans-Roman-2c"/>
     <use x="1210.453125" xlink:href="#BitstreamVeraSans-Roman-20"/>
     <use x="1242.240234375" xlink:href="#BitstreamVeraSans-Roman-31"/>
     <use x="1305.86328125" xlink:href="#BitstreamVeraSans-Roman-36"/>
     <use x="1369.486328125" xlink:href="#BitstreamVeraSans-Roman-2c"/>
     <use x="1401.2734375" xlink:href="#BitstreamVeraSans-Roman-20"/>
     <use x="1433.060546875" xlink:href="#BitstreamVeraSans-Roman-32"/>
     <use x="1496.68359375" xlink:href="#BitstreamVeraSans-Roman-30"/>
     <use x="1560.306640625" xlink:href="#BitstreamVeraSans-Roman-2c"/>
     <use x="1592.09375" xlink:href="#BitstreamVeraSans-Roman-20"/>
     <use x="1623.880859375" xlink:href="#BitstreamVeraSans-Roman-32"/>
     <use x="1687.50390625" xlink:href="#BitstreamVeraSans-Roman-34"/>
     <use x="1751.126953125" xlink:href="#BitstreamVeraSans-Roman-2c"/>
     <use x="1782.9140625" xlink:href="#BitstreamVeraSans-Roman-20"/>
     <use x="1814.701171875" xlink:href="#BitstreamVeraSans-Roman-32"/>
     <use x="1878.32421875" xlink:href="#BitstreamVeraSans-Roman-38"/>
     <use x="1941.947265625" xlink:href="#BitstreamVeraSans-Roman-5d"/>
    </g>
   </g>
   <g id="legend_1">
    <g id="patch_7">
     <path d="M 172.01775 377.6666 
L 486.0975 377.6666 
L 486.0975 309.9371 
L 172.01775 309.9371 
z
" style="fill:#ffffff;stroke:#000000;stroke-linejoin:miter;"/>
    </g>
    <g id="line2d_29">
     <path d="M 182.09775 321.59885 
L 202.25775 321.59885 
" style="fill:none;stroke:#0000ff;stroke-linecap:square;"/>
    </g>
    <g id="line2d_30"/>
    <g id="text_16">
     <!-- bridgesROC curve - 0 (AUC = 0.814) -->
     <defs>
      <path d="M 48.6875 27.296875 
Q 48.6875 37.203125 44.609375 42.84375 
Q 40.53125 48.484375 33.40625 48.484375 
Q 26.265625 48.484375 22.1875 42.84375 
Q 18.109375 37.203125 18.109375 27.296875 
Q 18.109375 17.390625 22.1875 11.75 
Q 26.265625 6.109375 33.40625 6.109375 
Q 40.53125 6.109375 44.609375 11.75 
Q 48.6875 17.390625 48.6875 27.296875 
M 18.109375 46.390625 
Q 20.953125 51.265625 25.265625 53.625 
Q 29.59375 56 35.59375 56 
Q 45.5625 56 51.78125 48.09375 
Q 58.015625 40.1875 58.015625 27.296875 
Q 58.015625 14.40625 51.78125 6.484375 
Q 45.5625 -1.421875 35.59375 -1.421875 
Q 29.59375 -1.421875 25.265625 0.953125 
Q 20.953125 3.328125 18.109375 8.203125 
L 18.109375 0 
L 9.078125 0 
L 9.078125 75.984375 
L 18.109375 75.984375 
z
" id="BitstreamVeraSans-Roman-62"/>
      <path d="M 48.78125 52.59375 
L 48.78125 44.1875 
Q 44.96875 46.296875 41.140625 47.34375 
Q 37.3125 48.390625 33.40625 48.390625 
Q 24.65625 48.390625 19.8125 42.84375 
Q 14.984375 37.3125 14.984375 27.296875 
Q 14.984375 17.28125 19.8125 11.734375 
Q 24.65625 6.203125 33.40625 6.203125 
Q 37.3125 6.203125 41.140625 7.25 
Q 44.96875 8.296875 48.78125 10.40625 
L 48.78125 2.09375 
Q 45.015625 0.34375 40.984375 -0.53125 
Q 36.96875 -1.421875 32.421875 -1.421875 
Q 20.0625 -1.421875 12.78125 6.34375 
Q 5.515625 14.109375 5.515625 27.296875 
Q 5.515625 40.671875 12.859375 48.328125 
Q 20.21875 56 33.015625 56 
Q 37.15625 56 41.109375 55.140625 
Q 45.0625 54.296875 48.78125 52.59375 
" id="BitstreamVeraSans-Roman-63"/>
      <path d="M 8.015625 75.875 
L 15.828125 75.875 
Q 23.140625 64.359375 26.78125 53.3125 
Q 30.421875 42.28125 30.421875 31.390625 
Q 30.421875 20.453125 26.78125 9.375 
Q 23.140625 -1.703125 15.828125 -13.1875 
L 8.015625 -13.1875 
Q 14.5 -2 17.703125 9.0625 
Q 20.90625 20.125 20.90625 31.390625 
Q 20.90625 42.671875 17.703125 53.65625 
Q 14.5 64.65625 8.015625 75.875 
" id="BitstreamVeraSans-Roman-29"/>
      <path d="M 8.6875 72.90625 
L 18.609375 72.90625 
L 18.609375 28.609375 
Q 18.609375 16.890625 22.84375 11.734375 
Q 27.09375 6.59375 36.625 6.59375 
Q 46.09375 6.59375 50.34375 11.734375 
Q 54.59375 16.890625 54.59375 28.609375 
L 54.59375 72.90625 
L 64.5 72.90625 
L 64.5 27.390625 
Q 64.5 13.140625 57.4375 5.859375 
Q 50.390625 -1.421875 36.625 -1.421875 
Q 22.796875 -1.421875 15.734375 5.859375 
Q 8.6875 13.140625 8.6875 27.390625 
z
" id="BitstreamVeraSans-Roman-55"/>
      <path d="M 34.1875 63.1875 
L 20.796875 26.90625 
L 47.609375 26.90625 
z
M 28.609375 72.90625 
L 39.796875 72.90625 
L 67.578125 0 
L 57.328125 0 
L 50.6875 18.703125 
L 17.828125 18.703125 
L 11.1875 0 
L 0.78125 0 
z
" id="BitstreamVeraSans-Roman-41"/>
      <path d="M 31 75.875 
Q 24.46875 64.65625 21.28125 53.65625 
Q 18.109375 42.671875 18.109375 31.390625 
Q 18.109375 20.125 21.3125 9.0625 
Q 24.515625 -2 31 -13.1875 
L 23.1875 -13.1875 
Q 15.875 -1.703125 12.234375 9.375 
Q 8.59375 20.453125 8.59375 31.390625 
Q 8.59375 42.28125 12.203125 53.3125 
Q 15.828125 64.359375 23.1875 75.875 
z
" id="BitstreamVeraSans-Roman-28"/>
      <path d="M 10.59375 45.40625 
L 73.1875 45.40625 
L 73.1875 37.203125 
L 10.59375 37.203125 
z
M 10.59375 25.484375 
L 73.1875 25.484375 
L 73.1875 17.1875 
L 10.59375 17.1875 
z
" id="BitstreamVeraSans-Roman-3d"/>
      <path d="M 4.890625 31.390625 
L 31.203125 31.390625 
L 31.203125 23.390625 
L 4.890625 23.390625 
z
" id="BitstreamVeraSans-Roman-2d"/>
     </defs>
     <g transform="translate(218.09775 326.63885)scale(0.144 -0.144)">
      <use xlink:href="#BitstreamVeraSans-Roman-62"/>
      <use x="63.4765625" xlink:href="#BitstreamVeraSans-Roman-72"/>
      <use x="104.58984375" xlink:href="#BitstreamVeraSans-Roman-69"/>
      <use x="132.373046875" xlink:href="#BitstreamVeraSans-Roman-64"/>
      <use x="195.849609375" xlink:href="#BitstreamVeraSans-Roman-67"/>
      <use x="259.326171875" xlink:href="#BitstreamVeraSans-Roman-65"/>
      <use x="320.849609375" xlink:href="#BitstreamVeraSans-Roman-73"/>
      <use x="372.94921875" xlink:href="#BitstreamVeraSans-Roman-52"/>
      <use x="442.431640625" xlink:href="#BitstreamVeraSans-Roman-4f"/>
      <use x="521.142578125" xlink:href="#BitstreamVeraSans-Roman-43"/>
      <use x="590.966796875" xlink:href="#BitstreamVeraSans-Roman-20"/>
      <use x="622.75390625" xlink:href="#BitstreamVeraSans-Roman-63"/>
      <use x="677.734375" xlink:href="#BitstreamVeraSans-Roman-75"/>
      <use x="741.11328125" xlink:href="#BitstreamVeraSans-Roman-72"/>
      <use x="782.2265625" xlink:href="#BitstreamVeraSans-Roman-76"/>
      <use x="841.40625" xlink:href="#BitstreamVeraSans-Roman-65"/>
      <use x="902.9296875" xlink:href="#BitstreamVeraSans-Roman-20"/>
      <use x="934.716796875" xlink:href="#BitstreamVeraSans-Roman-2d"/>
      <use x="970.80078125" xlink:href="#BitstreamVeraSans-Roman-20"/>
      <use x="1002.587890625" xlink:href="#BitstreamVeraSans-Roman-30"/>
      <use x="1066.2109375" xlink:href="#BitstreamVeraSans-Roman-20"/>
      <use x="1097.998046875" xlink:href="#BitstreamVeraSans-Roman-28"/>
      <use x="1137.01171875" xlink:href="#BitstreamVeraSans-Roman-41"/>
      <use x="1205.419921875" xlink:href="#BitstreamVeraSans-Roman-55"/>
      <use x="1278.61328125" xlink:href="#BitstreamVeraSans-Roman-43"/>
      <use x="1348.4375" xlink:href="#BitstreamVeraSans-Roman-20"/>
      <use x="1380.224609375" xlink:href="#BitstreamVeraSans-Roman-3d"/>
      <use x="1464.013671875" xlink:href="#BitstreamVeraSans-Roman-20"/>
      <use x="1495.80078125" xlink:href="#BitstreamVeraSans-Roman-30"/>
      <use x="1559.423828125" xlink:href="#BitstreamVeraSans-Roman-2e"/>
      <use x="1591.2109375" xlink:href="#BitstreamVeraSans-Roman-38"/>
      <use x="1654.833984375" xlink:href="#BitstreamVeraSans-Roman-31"/>
      <use x="1718.45703125" xlink:href="#BitstreamVeraSans-Roman-34"/>
      <use x="1782.080078125" xlink:href="#BitstreamVeraSans-Roman-29"/>
     </g>
    </g>
    <g id="line2d_31">
     <path d="M 182.09775 342.73535 
L 202.25775 342.73535 
" style="fill:none;stroke:#008000;stroke-linecap:square;"/>
    </g>
    <g id="line2d_32"/>
    <g id="text_17">
     <!-- bridgesROC curve - 1 (AUC = 0.827) -->
     <defs>
      <path d="M 8.203125 72.90625 
L 55.078125 72.90625 
L 55.078125 68.703125 
L 28.609375 0 
L 18.3125 0 
L 43.21875 64.59375 
L 8.203125 64.59375 
z
" id="BitstreamVeraSans-Roman-37"/>
     </defs>
     <g transform="translate(218.09775 347.77535)scale(0.144 -0.144)">
      <use xlink:href="#BitstreamVeraSans-Roman-62"/>
      <use x="63.4765625" xlink:href="#BitstreamVeraSans-Roman-72"/>
      <use x="104.58984375" xlink:href="#BitstreamVeraSans-Roman-69"/>
      <use x="132.373046875" xlink:href="#BitstreamVeraSans-Roman-64"/>
      <use x="195.849609375" xlink:href="#BitstreamVeraSans-Roman-67"/>
      <use x="259.326171875" xlink:href="#BitstreamVeraSans-Roman-65"/>
      <use x="320.849609375" xlink:href="#BitstreamVeraSans-Roman-73"/>
      <use x="372.94921875" xlink:href="#BitstreamVeraSans-Roman-52"/>
      <use x="442.431640625" xlink:href="#BitstreamVeraSans-Roman-4f"/>
      <use x="521.142578125" xlink:href="#BitstreamVeraSans-Roman-43"/>
      <use x="590.966796875" xlink:href="#BitstreamVeraSans-Roman-20"/>
      <use x="622.75390625" xlink:href="#BitstreamVeraSans-Roman-63"/>
      <use x="677.734375" xlink:href="#BitstreamVeraSans-Roman-75"/>
      <use x="741.11328125" xlink:href="#BitstreamVeraSans-Roman-72"/>
      <use x="782.2265625" xlink:href="#BitstreamVeraSans-Roman-76"/>
      <use x="841.40625" xlink:href="#BitstreamVeraSans-Roman-65"/>
      <use x="902.9296875" xlink:href="#BitstreamVeraSans-Roman-20"/>
      <use x="934.716796875" xlink:href="#BitstreamVeraSans-Roman-2d"/>
      <use x="970.80078125" xlink:href="#BitstreamVeraSans-Roman-20"/>
      <use x="1002.587890625" xlink:href="#BitstreamVeraSans-Roman-31"/>
      <use x="1066.2109375" xlink:href="#BitstreamVeraSans-Roman-20"/>
      <use x="1097.998046875" xlink:href="#BitstreamVeraSans-Roman-28"/>
      <use x="1137.01171875" xlink:href="#BitstreamVeraSans-Roman-41"/>
      <use x="1205.419921875" xlink:href="#BitstreamVeraSans-Roman-55"/>
      <use x="1278.61328125" xlink:href="#BitstreamVeraSans-Roman-43"/>
      <use x="1348.4375" xlink:href="#BitstreamVeraSans-Roman-20"/>
      <use x="1380.224609375" xlink:href="#BitstreamVeraSans-Roman-3d"/>
      <use x="1464.013671875" xlink:href="#BitstreamVeraSans-Roman-20"/>
      <use x="1495.80078125" xlink:href="#BitstreamVeraSans-Roman-30"/>
      <use x="1559.423828125" xlink:href="#BitstreamVeraSans-Roman-2e"/>
      <use x="1591.2109375" xlink:href="#BitstreamVeraSans-Roman-38"/>
      <use x="1654.833984375" xlink:href="#BitstreamVeraSans-Roman-32"/>
      <use x="1718.45703125" xlink:href="#BitstreamVeraSans-Roman-37"/>
      <use x="1782.080078125" xlink:href="#BitstreamVeraSans-Roman-29"/>
     </g>
    </g>
    <g id="line2d_33">
     <path d="M 182.09775 363.87185 
L 202.25775 363.87185 
" style="fill:none;stroke:#ff0000;stroke-linecap:square;"/>
    </g>
    <g id="line2d_34"/>
    <g id="text_18">
     <!-- bridgesROC curve - 2 (AUC = 0.832) -->
     <defs>
      <path d="M 40.578125 39.3125 
Q 47.65625 37.796875 51.625 33 
Q 55.609375 28.21875 55.609375 21.1875 
Q 55.609375 10.40625 48.1875 4.484375 
Q 40.765625 -1.421875 27.09375 -1.421875 
Q 22.515625 -1.421875 17.65625 -0.515625 
Q 12.796875 0.390625 7.625 2.203125 
L 7.625 11.71875 
Q 11.71875 9.328125 16.59375 8.109375 
Q 21.484375 6.890625 26.8125 6.890625 
Q 36.078125 6.890625 40.9375 10.546875 
Q 45.796875 14.203125 45.796875 21.1875 
Q 45.796875 27.640625 41.28125 31.265625 
Q 36.765625 34.90625 28.71875 34.90625 
L 20.21875 34.90625 
L 20.21875 43.015625 
L 29.109375 43.015625 
Q 36.375 43.015625 40.234375 45.921875 
Q 44.09375 48.828125 44.09375 54.296875 
Q 44.09375 59.90625 40.109375 62.90625 
Q 36.140625 65.921875 28.71875 65.921875 
Q 24.65625 65.921875 20.015625 65.03125 
Q 15.375 64.15625 9.8125 62.3125 
L 9.8125 71.09375 
Q 15.4375 72.65625 20.34375 73.4375 
Q 25.25 74.21875 29.59375 74.21875 
Q 40.828125 74.21875 47.359375 69.109375 
Q 53.90625 64.015625 53.90625 55.328125 
Q 53.90625 49.265625 50.4375 45.09375 
Q 46.96875 40.921875 40.578125 39.3125 
" id="BitstreamVeraSans-Roman-33"/>
     </defs>
     <g transform="translate(218.09775 368.91185)scale(0.144 -0.144)">
      <use xlink:href="#BitstreamVeraSans-Roman-62"/>
      <use x="63.4765625" xlink:href="#BitstreamVeraSans-Roman-72"/>
      <use x="104.58984375" xlink:href="#BitstreamVeraSans-Roman-69"/>
      <use x="132.373046875" xlink:href="#BitstreamVeraSans-Roman-64"/>
      <use x="195.849609375" xlink:href="#BitstreamVeraSans-Roman-67"/>
      <use x="259.326171875" xlink:href="#BitstreamVeraSans-Roman-65"/>
      <use x="320.849609375" xlink:href="#BitstreamVeraSans-Roman-73"/>
      <use x="372.94921875" xlink:href="#BitstreamVeraSans-Roman-52"/>
      <use x="442.431640625" xlink:href="#BitstreamVeraSans-Roman-4f"/>
      <use x="521.142578125" xlink:href="#BitstreamVeraSans-Roman-43"/>
      <use x="590.966796875" xlink:href="#BitstreamVeraSans-Roman-20"/>
      <use x="622.75390625" xlink:href="#BitstreamVeraSans-Roman-63"/>
      <use x="677.734375" xlink:href="#BitstreamVeraSans-Roman-75"/>
      <use x="741.11328125" xlink:href="#BitstreamVeraSans-Roman-72"/>
      <use x="782.2265625" xlink:href="#BitstreamVeraSans-Roman-76"/>
      <use x="841.40625" xlink:href="#BitstreamVeraSans-Roman-65"/>
      <use x="902.9296875" xlink:href="#BitstreamVeraSans-Roman-20"/>
      <use x="934.716796875" xlink:href="#BitstreamVeraSans-Roman-2d"/>
      <use x="970.80078125" xlink:href="#BitstreamVeraSans-Roman-20"/>
      <use x="1002.587890625" xlink:href="#BitstreamVeraSans-Roman-32"/>
      <use x="1066.2109375" xlink:href="#BitstreamVeraSans-Roman-20"/>
      <use x="1097.998046875" xlink:href="#BitstreamVeraSans-Roman-28"/>
      <use x="1137.01171875" xlink:href="#BitstreamVeraSans-Roman-41"/>
      <use x="1205.419921875" xlink:href="#BitstreamVeraSans-Roman-55"/>
      <use x="1278.61328125" xlink:href="#BitstreamVeraSans-Roman-43"/>
      <use x="1348.4375" xlink:href="#BitstreamVeraSans-Roman-20"/>
      <use x="1380.224609375" xlink:href="#BitstreamVeraSans-Roman-3d"/>
      <use x="1464.013671875" xlink:href="#BitstreamVeraSans-Roman-20"/>
      <use x="1495.80078125" xlink:href="#BitstreamVeraSans-Roman-30"/>
      <use x="1559.423828125" xlink:href="#BitstreamVeraSans-Roman-2e"/>
      <use x="1591.2109375" xlink:href="#BitstreamVeraSans-Roman-38"/>
      <use x="1654.833984375" xlink:href="#BitstreamVeraSans-Roman-33"/>
      <use x="1718.45703125" xlink:href="#BitstreamVeraSans-Roman-32"/>
      <use x="1782.080078125" xlink:href="#BitstreamVeraSans-Roman-29"/>
     </g>
    </g>
   </g>
  </g>
 </g>
 <defs>
  <clipPath id="p8063091a0e">
   <rect height="345.6" width="446.4" x="46.8975" y="39.2666"/>
  </clipPath>
 </defs>
</svg>
