<?xml version="1.0" encoding="utf-8" standalone="no"?>
<!DOCTYPE svg PUBLIC "-//W3C//DTD SVG 1.1//EN"
  "http://www.w3.org/Graphics/SVG/1.1/DTD/svg11.dtd">
<!-- Created with matplotlib (http://matplotlib.org/) -->
<svg height="424pt" version="1.1" viewBox="0 0 510 424" width="510pt" xmlns="http://www.w3.org/2000/svg" xmlns:xlink="http://www.w3.org/1999/xlink">
 <defs>
  <style type="text/css">
*{stroke-linecap:butt;stroke-linejoin:round;stroke-miterlimit:100000;}
  </style>
 </defs>
 <g id="figure_1">
  <g id="patch_1">
   <path d="M 0 424.2941 
L 510.039375 424.2941 
L 510.039375 0 
L 0 0 
z
" style="fill:#ffffff;"/>
  </g>
  <g id="axes_1">
   <g id="patch_2">
    <path d="M 46.8975 384.8666 
L 493.2975 384.8666 
L 493.2975 39.2666 
L 46.8975 39.2666 
z
" style="fill:#ffffff;"/>
   </g>
   <g id="line2d_1">
    <path clip-path="url(#p0cbcd511dc)" d="M 46.8975 384.8666 
L 46.96506 383.195824 
L 47.032619 381.525048 
L 47.201518 381.525048 
L 47.277523 380.68966 
L 47.446422 380.68966 
L 47.674435 377.765802 
L 47.885559 377.765802 
L 48.189577 374.006556 
L 48.5696 374.006556 
L 48.772279 368.994229 
L 49.067852 368.994229 
L 49.135411 367.323453 
L 49.262086 367.323453 
L 49.312755 365.652677 
L 49.481654 365.652677 
L 49.532324 363.146513 
L 49.827897 363.146513 
L 49.979906 361.475737 
L 50.148805 361.475737 
L 50.469713 359.387267 
L 50.689282 356.881103 
L 51.02708 356.881103 
L 51.508442 351.033388 
L 51.592892 351.033388 
L 51.81246 343.097202 
L 52.065809 343.097202 
L 52.141813 341.84412 
L 52.927194 333.49024 
L 53.307216 333.49024 
L 53.357886 331.819464 
L 53.822358 331.819464 
L 54.016592 330.984076 
L 54.40506 327.224831 
L 58.847103 281.278493 
L 59.058226 281.278493 
L 59.987171 269.583061 
L 60.07162 269.583061 
L 60.451643 266.241509 
L 60.578317 266.241509 
L 60.780996 262.06457 
L 60.94145 260.811488 
L 61.110349 260.811488 
L 61.465037 255.79916 
L 61.515707 254.128384 
L 62.149078 254.128384 
L 62.258862 251.62222 
L 62.554435 251.62222 
L 62.774004 249.53375 
L 63.111802 249.53375 
L 63.474935 246.192198 
L 64.150531 246.192198 
L 64.378544 244.521422 
L 64.462994 244.521422 
L 64.741677 241.597564 
L 64.910576 241.597564 
L 65.062585 240.762177 
L 65.189259 240.762177 
L 65.442608 239.926789 
L 65.645287 237.838319 
L 65.898635 237.838319 
L 66.135094 235.749849 
L 66.557341 234.496767 
L 66.7938 232.408297 
L 67.047148 232.408297 
L 67.131598 231.990603 
L 67.258272 231.990603 
L 67.427171 231.572909 
L 67.59607 229.484439 
L 67.849418 229.484439 
L 68.009872 228.231357 
L 68.111212 224.889805 
L 68.575684 224.889805 
L 68.651688 224.054417 
L 69.048601 221.965947 
L 69.259725 221.965947 
L 69.479293 217.789008 
L 70.07044 217.789008 
L 70.222449 216.118232 
L 70.475797 216.118232 
L 70.678476 214.86515 
L 71.142948 214.86515 
L 71.311847 214.447456 
L 71.438522 214.447456 
L 71.590531 212.77668 
L 71.75943 212.77668 
L 74.884061 207.764352 
L 75.01918 206.093576 
L 75.356978 205.258188 
L 75.737001 205.258188 
L 76.100133 204.005106 
L 76.184583 204.005106 
L 76.336592 202.33433 
L 76.437931 201.081248 
L 77.451325 201.081248 
L 78.126921 200.663554 
L 78.194481 199.828166 
L 78.616728 199.828166 
L 78.760292 198.15739 
L 79.351439 198.15739 
L 79.503448 196.486615 
L 79.88347 196.486615 
L 79.95103 195.651227 
L 80.922199 195.651227 
L 81.048873 195.233533 
L 82.315616 195.233533 
L 82.39162 192.727369 
L 82.856093 192.727369 
L 83.008102 191.474287 
L 83.599248 191.474287 
L 83.675253 190.638899 
L 84.0975 190.638899 
L 84.300179 189.385817 
L 84.975775 188.550429 
L 85.229123 188.132735 
L 85.305128 185.626571 
L 85.431802 185.626571 
L 85.499362 184.791183 
L 86.470531 184.791183 
L 86.690099 183.120407 
L 86.816774 183.120407 
L 86.977228 182.285019 
L 87.230576 182.285019 
L 87.306581 181.449631 
L 88.151075 181.449631 
L 88.303085 180.614243 
L 88.894231 180.614243 
L 88.970236 179.778855 
L 90.068079 179.778855 
L 90.220088 178.943467 
L 91.655729 178.943467 
L 91.740179 178.525773 
L 92.204651 178.525773 
L 92.40733 176.854997 
L 92.491779 176.854997 
L 92.635343 174.766527 
L 94.704356 174.766527 
L 94.890145 172.260364 
L 95.059044 172.260364 
L 95.126603 171.424976 
L 95.971098 171.424976 
L 96.055548 170.171894 
L 96.477795 169.7542 
L 96.731144 169.7542 
L 97.111166 167.66573 
L 97.178726 166.412648 
L 97.3054 166.412648 
L 97.38985 165.994954 
L 97.727648 165.57726 
L 97.854322 165.57726 
L 97.930326 163.906484 
L 98.082335 163.071096 
L 100.278022 163.071096 
L 100.354027 162.235708 
L 100.6496 162.235708 
L 100.725604 161.40032 
L 100.894503 161.40032 
L 101.375865 159.31185 
L 101.586989 159.31185 
L 101.654549 158.476462 
L 103.765786 158.476462 
L 104.01069 157.22338 
L 104.264038 157.22338 
L 104.373822 154.717216 
L 104.736955 151.375665 
L 104.880519 148.869501 
L 105.218317 148.869501 
L 105.370326 148.034113 
L 105.834799 148.034113 
L 106.105037 145.945643 
L 106.48506 145.945643 
L 106.645514 145.110255 
L 108.334503 145.110255 
L 108.402063 144.274867 
L 108.950985 144.274867 
L 109.271893 141.768703 
L 109.989713 141.768703 
L 110.057273 140.933315 
L 111.535139 140.933315 
L 111.602699 140.097927 
L 114.262858 140.097927 
L 114.338862 138.844845 
L 114.465536 138.844845 
L 114.701995 137.591763 
L 116.602108 137.591763 
L 116.830122 136.338681 
L 117.927965 136.338681 
L 118.079974 135.503293 
L 119.72674 135.503293 
L 119.802744 135.085599 
L 121.913981 135.085599 
L 122.015321 133.832517 
L 122.690917 133.832517 
L 122.817591 132.997129 
L 126.744492 132.997129 
L 126.820497 132.579435 
L 128.256138 132.579435 
L 128.357477 131.326353 
L 131.14431 131.326353 
L 131.21187 130.073272 
L 132.436388 130.073272 
L 132.512392 128.82019 
L 133.187988 128.82019 
L 133.263993 126.314026 
L 143.862404 126.314026 
L 144.149532 123.390168 
L 145.500724 123.390168 
L 145.585173 122.972474 
L 146.345219 122.972474 
L 146.556342 122.55478 
L 151.327738 122.55478 
L 151.462858 117.542452 
L 162.990213 117.542452 
L 163.226671 115.036288 
L 168.166967 115.036288 
L 168.293641 113.783206 
L 168.631439 113.783206 
L 168.791893 113.365512 
L 178.714708 113.365512 
L 178.790712 110.859348 
L 184.279929 110.859348 
L 184.491053 104.593939 
L 189.684696 104.593939 
L 189.870485 103.340857 
L 193.29069 102.087775 
L 194.050735 102.087775 
L 194.152074 100.834693 
L 203.357069 100.834693 
L 207.495094 98.746223 
L 209.015184 98.746223 
L 209.082744 96.240059 
L 211.151757 96.240059 
L 211.303766 94.986977 
L 216.548079 94.986977 
L 216.928102 94.569283 
L 225.009918 94.569283 
L 225.077477 93.733895 
L 229.5533 93.733895 
L 229.629305 93.316201 
L 232.96506 93.316201 
L 233.074844 92.480813 
L 233.792665 92.480813 
L 233.970009 89.974649 
L 243.951938 89.974649 
L 244.070167 89.556955 
L 246.519203 89.556955 
L 246.628987 88.721567 
L 249.204696 88.721567 
L 249.36515 86.215403 
L 252.405332 86.215403 
L 252.481337 85.380016 
L 253.705854 85.380016 
L 257.041609 84.126934 
L 278.086422 84.126934 
L 278.153981 82.873852 
L 280.459452 82.873852 
L 280.535457 82.038464 
L 283.195616 82.038464 
L 283.263175 80.785382 
L 286.658045 80.785382 
L 286.708715 77.026136 
L 289.833346 77.026136 
L 289.934685 75.773054 
L 302.813232 75.773054 
L 302.914572 74.519972 
L 303.843516 74.519972 
L 303.91952 74.102278 
L 314.053459 74.102278 
L 314.112574 72.013808 
L 315.041518 72.013808 
L 315.193527 70.760726 
L 321.865037 70.760726 
L 321.974821 69.925338 
L 326.661768 69.925338 
L 326.906671 69.08995 
L 333.958204 69.08995 
L 334.051098 67.419174 
L 334.557795 67.419174 
L 334.659135 66.166092 
L 346.524288 66.166092 
L 346.701632 64.495316 
L 348.390621 64.495316 
L 348.542631 63.242235 
L 351.793936 63.242235 
L 351.86994 60.736071 
L 365.044061 60.736071 
L 365.1454 59.482989 
L 380.219634 59.482989 
L 380.498317 58.229907 
L 441.031711 58.229907 
L 441.141495 57.394519 
L 457.440247 57.394519 
L 457.558476 56.976825 
L 475.081745 56.976825 
L 475.225309 55.723743 
L 493.2975 55.723743 
L 493.2975 55.723743 
" style="fill:none;stroke:#0000ff;stroke-linecap:square;"/>
   </g>
   <g id="line2d_2">
    <path clip-path="url(#p0cbcd511dc)" d="M 46.8975 384.8666 
L 47.024177 383.195824 
L 47.27753 383.195824 
L 47.404207 382.360436 
L 47.530883 378.183496 
L 47.65756 378.183496 
L 47.910913 377.348108 
L 48.122041 377.348108 
L 48.282498 374.42425 
L 48.662528 374.006556 
L 48.789204 373.171169 
L 48.915881 373.171169 
L 49.21146 366.070371 
L 50.647128 359.387267 
L 51.153835 357.716491 
L 51.280511 357.716491 
L 51.407188 356.881103 
L 52.082797 353.957245 
L 52.33615 353.957245 
L 52.403711 352.286469 
L 52.572613 352.286469 
L 53.628252 346.438754 
L 53.92383 346.438754 
L 54.025172 345.603366 
L 54.531878 345.603366 
L 55.165261 344.767978 
L 55.334164 344.767978 
L 58.163275 328.895607 
L 58.416628 328.895607 
L 59.852297 323.883279 
L 62.681408 317.200175 
L 62.808085 317.200175 
L 62.976987 315.947093 
L 63.188115 313.440929 
L 63.568145 313.440929 
L 63.95662 309.263989 
L 64.083296 309.263989 
L 64.167747 308.428601 
L 64.302869 306.757826 
L 64.556222 306.757826 
L 64.708234 305.922438 
L 64.919362 303.416274 
L 65.003813 303.416274 
L 65.172715 300.074722 
L 65.299392 300.074722 
L 65.856769 295.480088 
L 66.025671 295.480088 
L 66.253689 294.6447 
L 66.35503 291.303148 
L 66.650609 289.632372 
L 67.241767 288.796984 
L 67.410669 288.796984 
L 67.579571 287.126208 
L 69.564172 275.848471 
L 69.690848 275.848471 
L 70.020208 271.671531 
L 70.146884 271.671531 
L 70.400237 270.836143 
L 70.535359 266.659203 
L 71.506547 266.659203 
L 73.491147 262.899958 
L 73.660049 261.229182 
L 73.828952 261.229182 
L 73.997854 258.723018 
L 74.45389 255.79916 
L 74.960596 255.79916 
L 75.762881 251.204526 
L 75.889558 250.786832 
L 76.185137 250.786832 
L 76.480716 248.280668 
L 76.607392 248.280668 
L 76.860746 242.850646 
L 77.029648 241.597564 
L 77.16477 239.926789 
L 77.291446 239.091401 
L 77.587025 239.091401 
L 78.00928 234.079073 
L 78.363975 232.408297 
L 78.439981 231.572909 
L 78.820011 231.572909 
L 78.946687 229.902133 
L 79.537845 227.813663 
L 79.960101 227.813663 
L 80.044552 226.560581 
L 80.551258 226.560581 
L 80.813056 223.636723 
L 81.024184 221.965947 
L 81.277537 221.965947 
L 82.164274 218.206702 
L 82.248725 216.95362 
L 82.502078 216.95362 
L 82.67098 216.118232 
L 82.966559 216.118232 
L 83.135461 215.282844 
L 83.262138 215.282844 
L 83.726619 214.447456 
L 83.979972 214.447456 
L 84.317777 213.612068 
L 84.613355 213.612068 
L 85.052501 208.59974 
L 85.136952 207.764352 
L 85.390305 207.764352 
L 85.559208 206.093576 
L 85.643659 206.093576 
L 85.812561 205.258188 
L 86.065914 205.258188 
L 86.217926 204.005106 
L 86.640181 204.005106 
L 86.724633 203.587412 
L 86.977986 203.587412 
L 87.104662 202.752024 
L 87.442467 202.752024 
L 87.670485 201.916636 
L 87.923838 201.916636 
L 88.008289 201.081248 
L 88.219417 197.739696 
L 88.388319 197.739696 
L 88.45588 196.486615 
L 89.004812 196.486615 
L 89.24972 194.398145 
L 89.460848 194.398145 
L 89.722646 191.056593 
L 89.891548 191.056593 
L 90.237798 188.132735 
L 90.322249 187.297347 
L 90.533377 187.297347 
L 90.702279 186.461959 
L 90.871181 184.791183 
L 91.251211 181.031937 
L 92.264624 181.031937 
L 92.433526 179.778855 
L 92.517977 179.361161 
L 92.940233 179.361161 
L 93.109135 178.108079 
L 93.489165 178.108079 
L 93.658067 177.272691 
L 94.375901 177.272691 
L 94.544803 175.601915 
L 94.967059 175.601915 
L 95.220412 173.93114 
L 95.304863 173.93114 
L 95.372424 173.095752 
L 95.752454 173.095752 
L 96.064923 172.260364 
L 96.529404 172.260364 
L 96.689861 171.424976 
L 96.943214 166.830342 
L 97.027665 165.994954 
L 97.36547 165.994954 
L 97.872176 163.906484 
L 98.125529 163.906484 
L 98.294431 162.653402 
L 98.505559 162.653402 
L 98.59001 160.982626 
L 98.716687 160.982626 
L 98.801138 159.31185 
L 99.307845 159.31185 
L 99.476747 157.641074 
L 100.067904 157.641074 
L 100.219916 156.387992 
L 100.515495 156.387992 
L 100.616836 155.552604 
L 100.785739 155.552604 
L 100.861744 153.04644 
L 101.030647 151.793359 
L 101.182659 149.287195 
L 101.393786 149.287195 
L 101.64714 147.616419 
L 102.322748 147.616419 
L 102.719668 145.110255 
L 103.310826 145.110255 
L 103.496618 144.274867 
L 103.834423 142.604091 
L 104.003325 142.604091 
L 104.172227 141.768703 
L 104.40869 140.515621 
L 105.126524 140.515621 
L 105.379878 139.680233 
L 105.802133 139.680233 
L 106.224389 138.009457 
L 106.562193 138.009457 
L 106.815546 136.338681 
L 107.15335 136.338681 
L 107.322253 135.503293 
L 107.997861 135.503293 
L 108.082312 134.667905 
L 108.67347 134.667905 
L 108.741031 133.832517 
L 108.909933 133.832517 
L 108.994384 132.997129 
L 109.289963 132.997129 
L 109.517981 132.161741 
L 109.686883 132.161741 
L 109.838895 131.326353 
L 110.64118 131.326353 
L 110.860753 128.402496 
L 111.198558 128.402496 
L 111.283009 127.149414 
L 112.000843 127.149414 
L 112.127519 125.896332 
L 112.254196 125.896332 
L 112.321757 125.060944 
L 112.490659 125.060944 
L 112.617336 123.807862 
L 113.504072 123.807862 
L 113.672974 122.972474 
L 113.799651 122.972474 
L 114.027669 122.137086 
L 115.758916 122.137086 
L 115.843367 121.719392 
L 117.363487 121.719392 
L 117.515499 120.884004 
L 117.827968 119.213228 
L 119.981471 119.213228 
L 120.260159 116.707064 
L 121.146896 116.707064 
L 121.214456 115.871676 
L 122.312321 115.871676 
L 122.396772 115.036288 
L 123.156831 115.036288 
L 123.4693 114.2009 
L 123.595977 114.2009 
L 123.722654 111.694736 
L 124.567165 111.694736 
L 124.719177 110.859348 
L 124.888079 109.606266 
L 125.901492 109.606266 
L 126.18018 107.100103 
L 126.517985 107.100103 
L 126.669997 106.264715 
L 126.796673 106.264715 
L 127.050027 105.429327 
L 128.781274 105.429327 
L 129.068408 102.923163 
L 129.912918 102.923163 
L 130.081821 102.505469 
L 133.839894 102.505469 
L 133.907455 101.670081 
L 134.498612 101.670081 
L 134.659069 98.746223 
L 140.697322 98.746223 
L 140.823999 97.910835 
L 144.539847 97.910835 
L 144.708749 97.075447 
L 146.608898 97.075447 
L 146.752465 93.733895 
L 146.853806 92.898507 
L 147.444964 92.898507 
L 147.512525 92.063119 
L 155.746506 92.063119 
L 155.873182 91.645425 
L 156.253212 91.645425 
L 156.379889 90.810037 
L 156.84437 90.810037 
L 157.030162 89.556955 
L 160.492657 89.556955 
L 160.703785 88.721567 
L 163.152866 88.721567 
L 163.220427 87.886179 
L 170.440995 87.886179 
L 170.609897 87.468485 
L 179.274579 87.468485 
L 179.426591 86.633097 
L 182.171251 86.633097 
L 182.272592 85.380016 
L 188.268619 85.380016 
L 188.35307 84.126934 
L 189.662062 84.126934 
L 189.89008 82.873852 
L 190.861268 82.873852 
L 191.04706 81.62077 
L 201.518995 81.62077 
L 201.687897 81.203076 
L 204.136979 81.203076 
L 207.261669 80.785382 
L 207.413681 79.949994 
L 211.256205 79.949994 
L 211.416662 78.279218 
L 211.881143 78.279218 
L 211.965594 77.44383 
L 214.161323 77.44383 
L 214.262664 76.608442 
L 216.627294 76.608442 
L 216.779306 75.773054 
L 224.548806 75.773054 
L 224.650148 74.519972 
L 227.94374 74.519972 
L 228.028191 74.102278 
L 232.377422 74.102278 
L 233.053031 72.013808 
L 236.980006 72.013808 
L 237.081348 71.17842 
L 242.73957 71.17842 
L 242.824022 70.760726 
L 257.687413 70.760726 
L 257.763419 68.254562 
L 258.312351 68.254562 
L 258.388357 66.583786 
L 259.486221 66.583786 
L 259.655123 66.166092 
L 262.230881 66.166092 
L 262.332223 65.330704 
L 264.992432 65.330704 
L 265.093773 64.077622 
L 267.500629 64.077622 
L 267.661086 62.824541 
L 284.171274 62.824541 
L 284.340176 62.406847 
L 288.013798 62.406847 
L 288.115139 61.571459 
L 304.709778 61.571459 
L 305.022247 60.736071 
L 310.342665 60.736071 
L 310.545348 59.065295 
L 356.655641 59.065295 
L 356.748538 56.559131 
L 482.850901 56.559131 
L 483.416723 55.723743 
L 493.2975 55.723743 
L 493.2975 55.723743 
" style="fill:none;stroke:#008000;stroke-linecap:square;"/>
   </g>
   <g id="line2d_3">
    <path clip-path="url(#p0cbcd511dc)" d="M 46.8975 384.8666 
L 47.142408 384.8666 
L 47.649115 383.193701 
L 47.885578 379.011454 
L 48.05448 374.829207 
L 48.350059 373.156308 
L 48.645637 371.901634 
L 48.898991 371.901634 
L 49.152344 371.065184 
L 49.287466 367.719386 
L 49.540819 366.464712 
L 49.836398 365.628263 
L 49.920849 364.791813 
L 50.258653 364.791813 
L 50.512007 363.118914 
L 50.680909 363.118914 
L 50.908927 361.86424 
L 51.16228 361.86424 
L 51.331182 361.027791 
L 51.584535 358.936667 
L 51.837889 358.936667 
L 52.175693 358.100218 
L 52.209473 355.590869 
L 52.631729 353.499746 
L 52.800631 348.481049 
L 52.969533 347.6446 
L 53.138435 347.6446 
L 53.307337 346.80815 
L 53.543801 343.462352 
L 53.839379 342.625903 
L 54.092733 342.625903 
L 54.177184 340.953004 
L 54.726116 340.953004 
L 54.776786 339.280105 
L 54.987914 338.443656 
L 55.182152 336.352532 
L 55.435505 336.352532 
L 55.85776 334.679633 
L 55.942211 333.843184 
L 56.068888 331.333835 
L 56.23779 330.497386 
L 56.364467 330.497386 
L 56.575595 328.406262 
L 56.626265 326.733363 
L 59.286474 310.004375 
L 59.793181 310.004375 
L 60.021199 307.495026 
L 60.190101 306.658577 
L 60.325223 304.149228 
L 60.451899 304.149228 
L 65.307837 271.945925 
L 65.434514 271.945925 
L 65.56119 271.109475 
L 65.687867 271.109475 
L 65.856769 270.273026 
L 66.194573 266.927228 
L 66.532378 265.254329 
L 66.659054 263.58143 
L 67.08131 262.744981 
L 67.925821 262.744981 
L 72.781758 244.343093 
L 75.441967 239.324396 
L 75.737546 238.069722 
L 76.244253 238.069722 
L 76.514496 235.560374 
L 76.810075 235.560374 
L 77.316781 234.3057 
L 77.443458 234.3057 
L 77.696811 233.46925 
L 77.764372 232.632801 
L 78.144402 232.632801 
L 78.228853 231.796351 
L 78.439981 231.796351 
L 78.73556 230.959902 
L 79.284492 230.959902 
L 79.537845 229.287003 
L 79.664522 227.614104 
L 79.791198 227.614104 
L 79.960101 225.941205 
L 80.213454 225.941205 
L 80.382356 225.104756 
L 80.635709 225.104756 
L 80.804611 224.268306 
L 81.353543 224.268306 
L 81.505555 221.758958 
L 81.758909 221.758958 
L 82.012262 219.24961 
L 82.062933 217.576711 
L 82.400737 217.576711 
L 82.569639 217.158486 
L 82.738541 216.322037 
L 82.865218 216.322037 
L 83.160797 214.649138 
L 83.498601 211.30334 
L 83.751954 211.30334 
L 83.836405 210.46689 
L 84.300886 210.46689 
L 84.385337 208.793992 
L 84.55424 208.793992 
L 84.638691 207.121093 
L 84.765367 207.121093 
L 84.93427 206.284643 
L 85.060946 205.029969 
L 85.187623 205.029969 
L 85.356525 203.35707 
L 85.609878 202.102396 
L 86.581066 202.102396 
L 86.733078 201.265947 
L 86.859754 201.265947 
L 87.113108 199.593048 
L 87.366461 199.593048 
L 87.611369 195.4108 
L 87.69582 195.4108 
L 87.864722 194.574351 
L 88.033624 194.574351 
L 88.202527 193.737902 
L 88.329203 193.737902 
L 88.582556 192.065003 
L 89.173714 192.065003 
L 89.384842 191.228553 
L 89.891548 191.228553 
L 90.00978 188.719205 
L 90.220908 187.882755 
L 90.727614 187.882755 
L 90.938742 185.791632 
L 91.192095 185.791632 
L 91.428558 184.118733 
L 91.681911 184.118733 
L 91.850814 183.282283 
L 92.315295 183.282283 
L 92.382855 182.445834 
L 92.551758 182.445834 
L 92.636209 181.609385 
L 92.889562 181.609385 
L 92.940233 179.936486 
L 93.489165 179.936486 
L 93.953646 177.845362 
L 94.587029 177.845362 
L 94.713705 176.590688 
L 95.05151 176.590688 
L 95.220412 175.754238 
L 95.769344 175.754238 
L 95.836905 174.917789 
L 96.343611 174.917789 
L 96.495623 174.08134 
L 96.875653 174.08134 
L 96.960104 173.24489 
L 97.213458 173.24489 
L 97.36547 171.571991 
L 97.914402 171.571991 
L 98.083304 171.153766 
L 98.632236 171.153766 
L 98.758912 169.899092 
L 99.138942 169.899092 
L 99.223393 169.062643 
L 99.392296 169.062643 
L 99.544308 168.226193 
L 100.473269 168.226193 
L 100.557721 167.389744 
L 101.106653 167.389744 
L 101.191104 165.716845 
L 101.908938 165.716845 
L 102.120066 164.043946 
L 102.246742 164.043946 
L 102.415644 161.952823 
L 104.315794 161.952823 
L 104.619818 156.934126 
L 105.084299 156.934126 
L 105.422103 153.170103 
L 105.506554 152.751879 
L 106.182163 152.751879 
L 106.266614 151.915429 
L 106.393291 151.915429 
L 106.545303 151.07898 
L 106.671979 151.07898 
L 106.73954 150.24253 
L 107.795179 150.24253 
L 107.845849 148.569631 
L 108.437007 148.569631 
L 108.800147 147.314957 
L 109.391304 147.314957 
L 109.517981 146.060283 
L 109.771334 146.060283 
L 109.898011 144.387384 
L 110.404717 144.387384 
L 110.742522 143.550935 
L 111.333679 143.550935 
L 111.460356 142.714485 
L 111.882611 142.714485 
L 111.950172 141.878036 
L 112.076849 141.878036 
L 112.52444 136.859339 
L 112.862244 136.859339 
L 113.014256 136.02289 
L 114.238797 136.02289 
L 114.306358 135.18644 
L 114.559711 135.18644 
L 114.644162 134.768216 
L 114.813064 134.768216 
L 114.981966 133.931766 
L 115.404222 133.931766 
L 115.530898 131.422418 
L 116.797665 131.422418 
L 117.008792 130.585968 
L 117.388822 130.585968 
L 117.59995 129.331294 
L 118.275559 129.331294 
L 118.427571 128.494845 
L 119.314307 128.494845 
L 119.381868 127.658395 
L 119.9308 127.658395 
L 120.082812 126.821946 
L 120.462842 126.821946 
L 120.530403 125.985496 
L 120.868207 125.985496 
L 120.994884 124.730822 
L 121.332688 124.730822 
L 121.526925 122.221474 
L 123.047045 122.221474 
L 123.114606 121.385024 
L 124.043568 121.385024 
L 124.111129 120.548575 
L 124.744512 120.548575 
L 124.896524 119.712126 
L 125.952162 119.712126 
L 126.104174 118.875676 
L 126.357528 118.457451 
L 126.54332 117.202777 
L 128.021214 117.202777 
L 128.147891 114.693429 
L 128.739048 114.693429 
L 128.992402 111.347631 
L 131.821513 111.347631 
L 132.328219 106.328934 
L 133.003828 106.328934 
L 133.15584 105.492485 
L 133.493644 105.492485 
L 133.704772 102.983137 
L 137.251718 102.983137 
L 137.319279 102.146687 
L 140.14839 102.146687 
L 140.232841 101.728462 
L 140.570646 101.728462 
L 140.697322 100.892013 
L 142.259667 100.892013 
L 142.386344 99.637339 
L 142.850825 99.637339 
L 143.104178 98.800889 
L 144.03314 98.800889 
L 144.100701 97.96444 
L 144.649633 97.96444 
L 144.801645 97.12799 
L 145.266126 97.12799 
L 145.435028 96.709766 
L 147.039599 96.709766 
L 147.10716 95.873316 
L 148.162798 95.873316 
L 148.26414 95.036867 
L 148.517493 95.036867 
L 148.644169 94.200417 
L 149.530906 94.200417 
L 149.657582 93.363968 
L 150.164289 93.363968 
L 150.392307 91.272844 
L 151.701299 91.272844 
L 151.827975 88.763496 
L 154.614861 88.763496 
L 154.682422 87.927047 
L 155.526933 87.927047 
L 155.628274 87.090597 
L 160.526437 87.090597 
L 160.610888 86.672372 
L 160.948693 86.672372 
L 161.159821 85.835923 
L 161.91988 85.835923 
L 162.004331 85.417698 
L 162.806617 85.417698 
L 163.017744 84.581249 
L 165.129022 84.581249 
L 165.213473 83.744799 
L 165.973532 83.744799 
L 166.074874 82.490125 
L 167.510542 82.490125 
L 167.763896 79.980777 
L 171.859773 79.980777 
L 171.961115 79.144327 
L 173.979495 79.144327 
L 174.080837 77.889653 
L 175.980986 77.889653 
L 176.166779 76.634979 
L 177.433545 76.634979 
L 177.686898 75.79853 
L 178.109154 75.79853 
L 178.23583 74.96208 
L 179.122567 74.96208 
L 179.249243 73.707406 
L 179.713724 73.707406 
L 179.967078 72.870957 
L 186.892067 72.870957 
L 187.018743 72.034507 
L 189.13002 72.034507 
L 189.315813 70.779833 
L 192.026693 70.779833 
L 192.23782 68.688709 
L 217.699823 68.688709 
L 217.953176 67.85226 
L 238.432565 67.85226 
L 238.829485 65.761136 
L 250.568186 65.761136 
L 250.669527 64.506462 
L 267.990445 64.506462 
L 268.176238 63.251788 
L 274.045588 63.251788 
L 274.256716 61.997114 
L 290.175746 61.997114 
L 290.277087 60.74244 
L 294.541867 60.74244 
L 294.769885 59.487765 
L 410.383423 59.487765 
L 410.459429 56.978417 
L 463.131572 56.978417 
L 463.317364 55.723743 
L 493.2975 55.723743 
L 493.2975 55.723743 
" style="fill:none;stroke:#ff0000;stroke-linecap:square;"/>
   </g>
   <g id="line2d_4">
    <path clip-path="url(#p0cbcd511dc)" d="M 46.8975 384.8666 
L 493.2975 55.723743 
" style="fill:none;stroke:#000000;stroke-dasharray:6.000000,6.000000;stroke-dashoffset:0.0;"/>
   </g>
   <g id="patch_3">
    <path d="M 46.8975 384.8666 
L 46.8975 39.2666 
" style="fill:none;stroke:#000000;stroke-linecap:square;stroke-linejoin:miter;"/>
   </g>
   <g id="patch_4">
    <path d="M 493.2975 384.8666 
L 493.2975 39.2666 
" style="fill:none;stroke:#000000;stroke-linecap:square;stroke-linejoin:miter;"/>
   </g>
   <g id="patch_5">
    <path d="M 46.8975 39.2666 
L 493.2975 39.2666 
" style="fill:none;stroke:#000000;stroke-linecap:square;stroke-linejoin:miter;"/>
   </g>
   <g id="patch_6">
    <path d="M 46.8975 384.8666 
L 493.2975 384.8666 
" style="fill:none;stroke:#000000;stroke-linecap:square;stroke-linejoin:miter;"/>
   </g>
   <g id="matplotlib.axis_1">
    <g id="xtick_1">
     <g id="line2d_5">
      <defs>
       <path d="M 0 0 
L 0 -4 
" id="m30f4ebcecf" style="stroke:#000000;stroke-width:0.5;"/>
      </defs>
      <g>
       <use style="stroke:#000000;stroke-width:0.5;" x="46.8975" xlink:href="#m30f4ebcecf" y="384.8666"/>
      </g>
     </g>
     <g id="line2d_6">
      <defs>
       <path d="M 0 0 
L 0 4 
" id="mf7266a72f7" style="stroke:#000000;stroke-width:0.5;"/>
      </defs>
      <g>
       <use style="stroke:#000000;stroke-width:0.5;" x="46.8975" xlink:href="#mf7266a72f7" y="39.2666"/>
      </g>
     </g>
     <g id="text_1">
      <!-- 0.0 -->
      <defs>
       <path d="M 31.78125 66.40625 
Q 24.171875 66.40625 20.328125 58.90625 
Q 16.5 51.421875 16.5 36.375 
Q 16.5 21.390625 20.328125 13.890625 
Q 24.171875 6.390625 31.78125 6.390625 
Q 39.453125 6.390625 43.28125 13.890625 
Q 47.125 21.390625 47.125 36.375 
Q 47.125 51.421875 43.28125 58.90625 
Q 39.453125 66.40625 31.78125 66.40625 
M 31.78125 74.21875 
Q 44.046875 74.21875 50.515625 64.515625 
Q 56.984375 54.828125 56.984375 36.375 
Q 56.984375 17.96875 50.515625 8.265625 
Q 44.046875 -1.421875 31.78125 -1.421875 
Q 19.53125 -1.421875 13.0625 8.265625 
Q 6.59375 17.96875 6.59375 36.375 
Q 6.59375 54.828125 13.0625 64.515625 
Q 19.53125 74.21875 31.78125 74.21875 
" id="BitstreamVeraSans-Roman-30"/>
       <path d="M 10.6875 12.40625 
L 21 12.40625 
L 21 0 
L 10.6875 0 
z
" id="BitstreamVeraSans-Roman-2e"/>
      </defs>
      <g transform="translate(37.355625 397.984725)scale(0.12 -0.12)">
       <use xlink:href="#BitstreamVeraSans-Roman-30"/>
       <use x="63.623046875" xlink:href="#BitstreamVeraSans-Roman-2e"/>
       <use x="95.41015625" xlink:href="#BitstreamVeraSans-Roman-30"/>
      </g>
     </g>
    </g>
    <g id="xtick_2">
     <g id="line2d_7">
      <g>
       <use style="stroke:#000000;stroke-width:0.5;" x="136.1775" xlink:href="#m30f4ebcecf" y="384.8666"/>
      </g>
     </g>
     <g id="line2d_8">
      <g>
       <use style="stroke:#000000;stroke-width:0.5;" x="136.1775" xlink:href="#mf7266a72f7" y="39.2666"/>
      </g>
     </g>
     <g id="text_2">
      <!-- 0.2 -->
      <defs>
       <path d="M 19.1875 8.296875 
L 53.609375 8.296875 
L 53.609375 0 
L 7.328125 0 
L 7.328125 8.296875 
Q 12.9375 14.109375 22.625 23.890625 
Q 32.328125 33.6875 34.8125 36.53125 
Q 39.546875 41.84375 41.421875 45.53125 
Q 43.3125 49.21875 43.3125 52.78125 
Q 43.3125 58.59375 39.234375 62.25 
Q 35.15625 65.921875 28.609375 65.921875 
Q 23.96875 65.921875 18.8125 64.3125 
Q 13.671875 62.703125 7.8125 59.421875 
L 7.8125 69.390625 
Q 13.765625 71.78125 18.9375 73 
Q 24.125 74.21875 28.421875 74.21875 
Q 39.75 74.21875 46.484375 68.546875 
Q 53.21875 62.890625 53.21875 53.421875 
Q 53.21875 48.921875 51.53125 44.890625 
Q 49.859375 40.875 45.40625 35.40625 
Q 44.1875 33.984375 37.640625 27.21875 
Q 31.109375 20.453125 19.1875 8.296875 
" id="BitstreamVeraSans-Roman-32"/>
      </defs>
      <g transform="translate(126.635625 397.984725)scale(0.12 -0.12)">
       <use xlink:href="#BitstreamVeraSans-Roman-30"/>
       <use x="63.623046875" xlink:href="#BitstreamVeraSans-Roman-2e"/>
       <use x="95.41015625" xlink:href="#BitstreamVeraSans-Roman-32"/>
      </g>
     </g>
    </g>
    <g id="xtick_3">
     <g id="line2d_9">
      <g>
       <use style="stroke:#000000;stroke-width:0.5;" x="225.4575" xlink:href="#m30f4ebcecf" y="384.8666"/>
      </g>
     </g>
     <g id="line2d_10">
      <g>
       <use style="stroke:#000000;stroke-width:0.5;" x="225.4575" xlink:href="#mf7266a72f7" y="39.2666"/>
      </g>
     </g>
     <g id="text_3">
      <!-- 0.4 -->
      <defs>
       <path d="M 37.796875 64.3125 
L 12.890625 25.390625 
L 37.796875 25.390625 
z
M 35.203125 72.90625 
L 47.609375 72.90625 
L 47.609375 25.390625 
L 58.015625 25.390625 
L 58.015625 17.1875 
L 47.609375 17.1875 
L 47.609375 0 
L 37.796875 0 
L 37.796875 17.1875 
L 4.890625 17.1875 
L 4.890625 26.703125 
z
" id="BitstreamVeraSans-Roman-34"/>
      </defs>
      <g transform="translate(215.915625 397.984725)scale(0.12 -0.12)">
       <use xlink:href="#BitstreamVeraSans-Roman-30"/>
       <use x="63.623046875" xlink:href="#BitstreamVeraSans-Roman-2e"/>
       <use x="95.41015625" xlink:href="#BitstreamVeraSans-Roman-34"/>
      </g>
     </g>
    </g>
    <g id="xtick_4">
     <g id="line2d_11">
      <g>
       <use style="stroke:#000000;stroke-width:0.5;" x="314.7375" xlink:href="#m30f4ebcecf" y="384.8666"/>
      </g>
     </g>
     <g id="line2d_12">
      <g>
       <use style="stroke:#000000;stroke-width:0.5;" x="314.7375" xlink:href="#mf7266a72f7" y="39.2666"/>
      </g>
     </g>
     <g id="text_4">
      <!-- 0.6 -->
      <defs>
       <path d="M 33.015625 40.375 
Q 26.375 40.375 22.484375 35.828125 
Q 18.609375 31.296875 18.609375 23.390625 
Q 18.609375 15.53125 22.484375 10.953125 
Q 26.375 6.390625 33.015625 6.390625 
Q 39.65625 6.390625 43.53125 10.953125 
Q 47.40625 15.53125 47.40625 23.390625 
Q 47.40625 31.296875 43.53125 35.828125 
Q 39.65625 40.375 33.015625 40.375 
M 52.59375 71.296875 
L 52.59375 62.3125 
Q 48.875 64.0625 45.09375 64.984375 
Q 41.3125 65.921875 37.59375 65.921875 
Q 27.828125 65.921875 22.671875 59.328125 
Q 17.53125 52.734375 16.796875 39.40625 
Q 19.671875 43.65625 24.015625 45.921875 
Q 28.375 48.1875 33.59375 48.1875 
Q 44.578125 48.1875 50.953125 41.515625 
Q 57.328125 34.859375 57.328125 23.390625 
Q 57.328125 12.15625 50.6875 5.359375 
Q 44.046875 -1.421875 33.015625 -1.421875 
Q 20.359375 -1.421875 13.671875 8.265625 
Q 6.984375 17.96875 6.984375 36.375 
Q 6.984375 53.65625 15.1875 63.9375 
Q 23.390625 74.21875 37.203125 74.21875 
Q 40.921875 74.21875 44.703125 73.484375 
Q 48.484375 72.75 52.59375 71.296875 
" id="BitstreamVeraSans-Roman-36"/>
      </defs>
      <g transform="translate(305.195625 397.984725)scale(0.12 -0.12)">
       <use xlink:href="#BitstreamVeraSans-Roman-30"/>
       <use x="63.623046875" xlink:href="#BitstreamVeraSans-Roman-2e"/>
       <use x="95.41015625" xlink:href="#BitstreamVeraSans-Roman-36"/>
      </g>
     </g>
    </g>
    <g id="xtick_5">
     <g id="line2d_13">
      <g>
       <use style="stroke:#000000;stroke-width:0.5;" x="404.0175" xlink:href="#m30f4ebcecf" y="384.8666"/>
      </g>
     </g>
     <g id="line2d_14">
      <g>
       <use style="stroke:#000000;stroke-width:0.5;" x="404.0175" xlink:href="#mf7266a72f7" y="39.2666"/>
      </g>
     </g>
     <g id="text_5">
      <!-- 0.8 -->
      <defs>
       <path d="M 31.78125 34.625 
Q 24.75 34.625 20.71875 30.859375 
Q 16.703125 27.09375 16.703125 20.515625 
Q 16.703125 13.921875 20.71875 10.15625 
Q 24.75 6.390625 31.78125 6.390625 
Q 38.8125 6.390625 42.859375 10.171875 
Q 46.921875 13.96875 46.921875 20.515625 
Q 46.921875 27.09375 42.890625 30.859375 
Q 38.875 34.625 31.78125 34.625 
M 21.921875 38.8125 
Q 15.578125 40.375 12.03125 44.71875 
Q 8.5 49.078125 8.5 55.328125 
Q 8.5 64.0625 14.71875 69.140625 
Q 20.953125 74.21875 31.78125 74.21875 
Q 42.671875 74.21875 48.875 69.140625 
Q 55.078125 64.0625 55.078125 55.328125 
Q 55.078125 49.078125 51.53125 44.71875 
Q 48 40.375 41.703125 38.8125 
Q 48.828125 37.15625 52.796875 32.3125 
Q 56.78125 27.484375 56.78125 20.515625 
Q 56.78125 9.90625 50.3125 4.234375 
Q 43.84375 -1.421875 31.78125 -1.421875 
Q 19.734375 -1.421875 13.25 4.234375 
Q 6.78125 9.90625 6.78125 20.515625 
Q 6.78125 27.484375 10.78125 32.3125 
Q 14.796875 37.15625 21.921875 38.8125 
M 18.3125 54.390625 
Q 18.3125 48.734375 21.84375 45.5625 
Q 25.390625 42.390625 31.78125 42.390625 
Q 38.140625 42.390625 41.71875 45.5625 
Q 45.3125 48.734375 45.3125 54.390625 
Q 45.3125 60.0625 41.71875 63.234375 
Q 38.140625 66.40625 31.78125 66.40625 
Q 25.390625 66.40625 21.84375 63.234375 
Q 18.3125 60.0625 18.3125 54.390625 
" id="BitstreamVeraSans-Roman-38"/>
      </defs>
      <g transform="translate(394.475625 397.984725)scale(0.12 -0.12)">
       <use xlink:href="#BitstreamVeraSans-Roman-30"/>
       <use x="63.623046875" xlink:href="#BitstreamVeraSans-Roman-2e"/>
       <use x="95.41015625" xlink:href="#BitstreamVeraSans-Roman-38"/>
      </g>
     </g>
    </g>
    <g id="xtick_6">
     <g id="line2d_15">
      <g>
       <use style="stroke:#000000;stroke-width:0.5;" x="493.2975" xlink:href="#m30f4ebcecf" y="384.8666"/>
      </g>
     </g>
     <g id="line2d_16">
      <g>
       <use style="stroke:#000000;stroke-width:0.5;" x="493.2975" xlink:href="#mf7266a72f7" y="39.2666"/>
      </g>
     </g>
     <g id="text_6">
      <!-- 1.0 -->
      <defs>
       <path d="M 12.40625 8.296875 
L 28.515625 8.296875 
L 28.515625 63.921875 
L 10.984375 60.40625 
L 10.984375 69.390625 
L 28.421875 72.90625 
L 38.28125 72.90625 
L 38.28125 8.296875 
L 54.390625 8.296875 
L 54.390625 0 
L 12.40625 0 
z
" id="BitstreamVeraSans-Roman-31"/>
      </defs>
      <g transform="translate(483.755625 397.984725)scale(0.12 -0.12)">
       <use xlink:href="#BitstreamVeraSans-Roman-31"/>
       <use x="63.623046875" xlink:href="#BitstreamVeraSans-Roman-2e"/>
       <use x="95.41015625" xlink:href="#BitstreamVeraSans-Roman-30"/>
      </g>
     </g>
    </g>
    <g id="text_7">
     <!-- False Positive Rate -->
     <defs>
      <path d="M 9.421875 54.6875 
L 18.40625 54.6875 
L 18.40625 0 
L 9.421875 0 
z
M 9.421875 75.984375 
L 18.40625 75.984375 
L 18.40625 64.59375 
L 9.421875 64.59375 
z
" id="BitstreamVeraSans-Roman-69"/>
      <path d="M 44.28125 53.078125 
L 44.28125 44.578125 
Q 40.484375 46.53125 36.375 47.5 
Q 32.28125 48.484375 27.875 48.484375 
Q 21.1875 48.484375 17.84375 46.4375 
Q 14.5 44.390625 14.5 40.28125 
Q 14.5 37.15625 16.890625 35.375 
Q 19.28125 33.59375 26.515625 31.984375 
L 29.59375 31.296875 
Q 39.15625 29.25 43.1875 25.515625 
Q 47.21875 21.78125 47.21875 15.09375 
Q 47.21875 7.46875 41.1875 3.015625 
Q 35.15625 -1.421875 24.609375 -1.421875 
Q 20.21875 -1.421875 15.453125 -0.5625 
Q 10.6875 0.296875 5.421875 2 
L 5.421875 11.28125 
Q 10.40625 8.6875 15.234375 7.390625 
Q 20.0625 6.109375 24.8125 6.109375 
Q 31.15625 6.109375 34.5625 8.28125 
Q 37.984375 10.453125 37.984375 14.40625 
Q 37.984375 18.0625 35.515625 20.015625 
Q 33.0625 21.96875 24.703125 23.78125 
L 21.578125 24.515625 
Q 13.234375 26.265625 9.515625 29.90625 
Q 5.8125 33.546875 5.8125 39.890625 
Q 5.8125 47.609375 11.28125 51.796875 
Q 16.75 56 26.8125 56 
Q 31.78125 56 36.171875 55.265625 
Q 40.578125 54.546875 44.28125 53.078125 
" id="BitstreamVeraSans-Roman-73"/>
      <path id="BitstreamVeraSans-Roman-20"/>
      <path d="M 19.671875 64.796875 
L 19.671875 37.40625 
L 32.078125 37.40625 
Q 38.96875 37.40625 42.71875 40.96875 
Q 46.484375 44.53125 46.484375 51.125 
Q 46.484375 57.671875 42.71875 61.234375 
Q 38.96875 64.796875 32.078125 64.796875 
z
M 9.8125 72.90625 
L 32.078125 72.90625 
Q 44.34375 72.90625 50.609375 67.359375 
Q 56.890625 61.8125 56.890625 51.125 
Q 56.890625 40.328125 50.609375 34.8125 
Q 44.34375 29.296875 32.078125 29.296875 
L 19.671875 29.296875 
L 19.671875 0 
L 9.8125 0 
z
" id="BitstreamVeraSans-Roman-50"/>
      <path d="M 44.390625 34.1875 
Q 47.5625 33.109375 50.5625 29.59375 
Q 53.5625 26.078125 56.59375 19.921875 
L 66.609375 0 
L 56 0 
L 46.6875 18.703125 
Q 43.0625 26.03125 39.671875 28.421875 
Q 36.28125 30.8125 30.421875 30.8125 
L 19.671875 30.8125 
L 19.671875 0 
L 9.8125 0 
L 9.8125 72.90625 
L 32.078125 72.90625 
Q 44.578125 72.90625 50.734375 67.671875 
Q 56.890625 62.453125 56.890625 51.90625 
Q 56.890625 45.015625 53.6875 40.46875 
Q 50.484375 35.9375 44.390625 34.1875 
M 19.671875 64.796875 
L 19.671875 38.921875 
L 32.078125 38.921875 
Q 39.203125 38.921875 42.84375 42.21875 
Q 46.484375 45.515625 46.484375 51.90625 
Q 46.484375 58.296875 42.84375 61.546875 
Q 39.203125 64.796875 32.078125 64.796875 
z
" id="BitstreamVeraSans-Roman-52"/>
      <path d="M 30.609375 48.390625 
Q 23.390625 48.390625 19.1875 42.75 
Q 14.984375 37.109375 14.984375 27.296875 
Q 14.984375 17.484375 19.15625 11.84375 
Q 23.34375 6.203125 30.609375 6.203125 
Q 37.796875 6.203125 41.984375 11.859375 
Q 46.1875 17.53125 46.1875 27.296875 
Q 46.1875 37.015625 41.984375 42.703125 
Q 37.796875 48.390625 30.609375 48.390625 
M 30.609375 56 
Q 42.328125 56 49.015625 48.375 
Q 55.71875 40.765625 55.71875 27.296875 
Q 55.71875 13.875 49.015625 6.21875 
Q 42.328125 -1.421875 30.609375 -1.421875 
Q 18.84375 -1.421875 12.171875 6.21875 
Q 5.515625 13.875 5.515625 27.296875 
Q 5.515625 40.765625 12.171875 48.375 
Q 18.84375 56 30.609375 56 
" id="BitstreamVeraSans-Roman-6f"/>
      <path d="M 9.8125 72.90625 
L 51.703125 72.90625 
L 51.703125 64.59375 
L 19.671875 64.59375 
L 19.671875 43.109375 
L 48.578125 43.109375 
L 48.578125 34.8125 
L 19.671875 34.8125 
L 19.671875 0 
L 9.8125 0 
z
" id="BitstreamVeraSans-Roman-46"/>
      <path d="M 18.3125 70.21875 
L 18.3125 54.6875 
L 36.8125 54.6875 
L 36.8125 47.703125 
L 18.3125 47.703125 
L 18.3125 18.015625 
Q 18.3125 11.328125 20.140625 9.421875 
Q 21.96875 7.515625 27.59375 7.515625 
L 36.8125 7.515625 
L 36.8125 0 
L 27.59375 0 
Q 17.1875 0 13.234375 3.875 
Q 9.28125 7.765625 9.28125 18.015625 
L 9.28125 47.703125 
L 2.6875 47.703125 
L 2.6875 54.6875 
L 9.28125 54.6875 
L 9.28125 70.21875 
z
" id="BitstreamVeraSans-Roman-74"/>
      <path d="M 9.421875 75.984375 
L 18.40625 75.984375 
L 18.40625 0 
L 9.421875 0 
z
" id="BitstreamVeraSans-Roman-6c"/>
      <path d="M 2.984375 54.6875 
L 12.5 54.6875 
L 29.59375 8.796875 
L 46.6875 54.6875 
L 56.203125 54.6875 
L 35.6875 0 
L 23.484375 0 
z
" id="BitstreamVeraSans-Roman-76"/>
      <path d="M 34.28125 27.484375 
Q 23.390625 27.484375 19.1875 25 
Q 14.984375 22.515625 14.984375 16.5 
Q 14.984375 11.71875 18.140625 8.90625 
Q 21.296875 6.109375 26.703125 6.109375 
Q 34.1875 6.109375 38.703125 11.40625 
Q 43.21875 16.703125 43.21875 25.484375 
L 43.21875 27.484375 
z
M 52.203125 31.203125 
L 52.203125 0 
L 43.21875 0 
L 43.21875 8.296875 
Q 40.140625 3.328125 35.546875 0.953125 
Q 30.953125 -1.421875 24.3125 -1.421875 
Q 15.921875 -1.421875 10.953125 3.296875 
Q 6 8.015625 6 15.921875 
Q 6 25.140625 12.171875 29.828125 
Q 18.359375 34.515625 30.609375 34.515625 
L 43.21875 34.515625 
L 43.21875 35.40625 
Q 43.21875 41.609375 39.140625 45 
Q 35.0625 48.390625 27.6875 48.390625 
Q 23 48.390625 18.546875 47.265625 
Q 14.109375 46.140625 10.015625 43.890625 
L 10.015625 52.203125 
Q 14.9375 54.109375 19.578125 55.046875 
Q 24.21875 56 28.609375 56 
Q 40.484375 56 46.34375 49.84375 
Q 52.203125 43.703125 52.203125 31.203125 
" id="BitstreamVeraSans-Roman-61"/>
      <path d="M 56.203125 29.59375 
L 56.203125 25.203125 
L 14.890625 25.203125 
Q 15.484375 15.921875 20.484375 11.0625 
Q 25.484375 6.203125 34.421875 6.203125 
Q 39.59375 6.203125 44.453125 7.46875 
Q 49.3125 8.734375 54.109375 11.28125 
L 54.109375 2.78125 
Q 49.265625 0.734375 44.1875 -0.34375 
Q 39.109375 -1.421875 33.890625 -1.421875 
Q 20.796875 -1.421875 13.15625 6.1875 
Q 5.515625 13.8125 5.515625 26.8125 
Q 5.515625 40.234375 12.765625 48.109375 
Q 20.015625 56 32.328125 56 
Q 43.359375 56 49.78125 48.890625 
Q 56.203125 41.796875 56.203125 29.59375 
M 47.21875 32.234375 
Q 47.125 39.59375 43.09375 43.984375 
Q 39.0625 48.390625 32.421875 48.390625 
Q 24.90625 48.390625 20.390625 44.140625 
Q 15.875 39.890625 15.1875 32.171875 
z
" id="BitstreamVeraSans-Roman-65"/>
     </defs>
     <g transform="translate(213.4509375 414.598475)scale(0.12 -0.12)">
      <use xlink:href="#BitstreamVeraSans-Roman-46"/>
      <use x="57.37890625" xlink:href="#BitstreamVeraSans-Roman-61"/>
      <use x="118.658203125" xlink:href="#BitstreamVeraSans-Roman-6c"/>
      <use x="146.44140625" xlink:href="#BitstreamVeraSans-Roman-73"/>
      <use x="198.541015625" xlink:href="#BitstreamVeraSans-Roman-65"/>
      <use x="260.064453125" xlink:href="#BitstreamVeraSans-Roman-20"/>
      <use x="291.8515625" xlink:href="#BitstreamVeraSans-Roman-50"/>
      <use x="352.107421875" xlink:href="#BitstreamVeraSans-Roman-6f"/>
      <use x="413.2890625" xlink:href="#BitstreamVeraSans-Roman-73"/>
      <use x="465.388671875" xlink:href="#BitstreamVeraSans-Roman-69"/>
      <use x="493.171875" xlink:href="#BitstreamVeraSans-Roman-74"/>
      <use x="532.380859375" xlink:href="#BitstreamVeraSans-Roman-69"/>
      <use x="560.1640625" xlink:href="#BitstreamVeraSans-Roman-76"/>
      <use x="619.34375" xlink:href="#BitstreamVeraSans-Roman-65"/>
      <use x="680.8671875" xlink:href="#BitstreamVeraSans-Roman-20"/>
      <use x="712.654296875" xlink:href="#BitstreamVeraSans-Roman-52"/>
      <use x="782.10546875" xlink:href="#BitstreamVeraSans-Roman-61"/>
      <use x="843.384765625" xlink:href="#BitstreamVeraSans-Roman-74"/>
      <use x="882.59375" xlink:href="#BitstreamVeraSans-Roman-65"/>
     </g>
    </g>
   </g>
   <g id="matplotlib.axis_2">
    <g id="ytick_1">
     <g id="line2d_17">
      <defs>
       <path d="M 0 0 
L 4 0 
" id="mcf7bfc7fc9" style="stroke:#000000;stroke-width:0.5;"/>
      </defs>
      <g>
       <use style="stroke:#000000;stroke-width:0.5;" x="46.8975" xlink:href="#mcf7bfc7fc9" y="384.8666"/>
      </g>
     </g>
     <g id="line2d_18">
      <defs>
       <path d="M 0 0 
L -4 0 
" id="m23251bccee" style="stroke:#000000;stroke-width:0.5;"/>
      </defs>
      <g>
       <use style="stroke:#000000;stroke-width:0.5;" x="493.2975" xlink:href="#m23251bccee" y="384.8666"/>
      </g>
     </g>
     <g id="text_8">
      <!-- 0.0 -->
      <g transform="translate(23.81375 388.17785)scale(0.12 -0.12)">
       <use xlink:href="#BitstreamVeraSans-Roman-30"/>
       <use x="63.623046875" xlink:href="#BitstreamVeraSans-Roman-2e"/>
       <use x="95.41015625" xlink:href="#BitstreamVeraSans-Roman-30"/>
      </g>
     </g>
    </g>
    <g id="ytick_2">
     <g id="line2d_19">
      <g>
       <use style="stroke:#000000;stroke-width:0.5;" x="46.8975" xlink:href="#mcf7bfc7fc9" y="319.038028571"/>
      </g>
     </g>
     <g id="line2d_20">
      <g>
       <use style="stroke:#000000;stroke-width:0.5;" x="493.2975" xlink:href="#m23251bccee" y="319.038028571"/>
      </g>
     </g>
     <g id="text_9">
      <!-- 0.2 -->
      <g transform="translate(23.81375 322.349278571)scale(0.12 -0.12)">
       <use xlink:href="#BitstreamVeraSans-Roman-30"/>
       <use x="63.623046875" xlink:href="#BitstreamVeraSans-Roman-2e"/>
       <use x="95.41015625" xlink:href="#BitstreamVeraSans-Roman-32"/>
      </g>
     </g>
    </g>
    <g id="ytick_3">
     <g id="line2d_21">
      <g>
       <use style="stroke:#000000;stroke-width:0.5;" x="46.8975" xlink:href="#mcf7bfc7fc9" y="253.209457143"/>
      </g>
     </g>
     <g id="line2d_22">
      <g>
       <use style="stroke:#000000;stroke-width:0.5;" x="493.2975" xlink:href="#m23251bccee" y="253.209457143"/>
      </g>
     </g>
     <g id="text_10">
      <!-- 0.4 -->
      <g transform="translate(23.81375 256.520707143)scale(0.12 -0.12)">
       <use xlink:href="#BitstreamVeraSans-Roman-30"/>
       <use x="63.623046875" xlink:href="#BitstreamVeraSans-Roman-2e"/>
       <use x="95.41015625" xlink:href="#BitstreamVeraSans-Roman-34"/>
      </g>
     </g>
    </g>
    <g id="ytick_4">
     <g id="line2d_23">
      <g>
       <use style="stroke:#000000;stroke-width:0.5;" x="46.8975" xlink:href="#mcf7bfc7fc9" y="187.380885714"/>
      </g>
     </g>
     <g id="line2d_24">
      <g>
       <use style="stroke:#000000;stroke-width:0.5;" x="493.2975" xlink:href="#m23251bccee" y="187.380885714"/>
      </g>
     </g>
     <g id="text_11">
      <!-- 0.6 -->
      <g transform="translate(23.81375 190.692135714)scale(0.12 -0.12)">
       <use xlink:href="#BitstreamVeraSans-Roman-30"/>
       <use x="63.623046875" xlink:href="#BitstreamVeraSans-Roman-2e"/>
       <use x="95.41015625" xlink:href="#BitstreamVeraSans-Roman-36"/>
      </g>
     </g>
    </g>
    <g id="ytick_5">
     <g id="line2d_25">
      <g>
       <use style="stroke:#000000;stroke-width:0.5;" x="46.8975" xlink:href="#mcf7bfc7fc9" y="121.552314286"/>
      </g>
     </g>
     <g id="line2d_26">
      <g>
       <use style="stroke:#000000;stroke-width:0.5;" x="493.2975" xlink:href="#m23251bccee" y="121.552314286"/>
      </g>
     </g>
     <g id="text_12">
      <!-- 0.8 -->
      <g transform="translate(23.81375 124.863564286)scale(0.12 -0.12)">
       <use xlink:href="#BitstreamVeraSans-Roman-30"/>
       <use x="63.623046875" xlink:href="#BitstreamVeraSans-Roman-2e"/>
       <use x="95.41015625" xlink:href="#BitstreamVeraSans-Roman-38"/>
      </g>
     </g>
    </g>
    <g id="ytick_6">
     <g id="line2d_27">
      <g>
       <use style="stroke:#000000;stroke-width:0.5;" x="46.8975" xlink:href="#mcf7bfc7fc9" y="55.7237428571"/>
      </g>
     </g>
     <g id="line2d_28">
      <g>
       <use style="stroke:#000000;stroke-width:0.5;" x="493.2975" xlink:href="#m23251bccee" y="55.7237428571"/>
      </g>
     </g>
     <g id="text_13">
      <!-- 1.0 -->
      <g transform="translate(23.81375 59.0349928571)scale(0.12 -0.12)">
       <use xlink:href="#BitstreamVeraSans-Roman-31"/>
       <use x="63.623046875" xlink:href="#BitstreamVeraSans-Roman-2e"/>
       <use x="95.41015625" xlink:href="#BitstreamVeraSans-Roman-30"/>
      </g>
     </g>
    </g>
    <g id="text_14">
     <!-- True Positive Rate -->
     <defs>
      <path d="M -0.296875 72.90625 
L 61.375 72.90625 
L 61.375 64.59375 
L 35.5 64.59375 
L 35.5 0 
L 25.59375 0 
L 25.59375 64.59375 
L -0.296875 64.59375 
z
" id="BitstreamVeraSans-Roman-54"/>
      <path d="M 41.109375 46.296875 
Q 39.59375 47.171875 37.8125 47.578125 
Q 36.03125 48 33.890625 48 
Q 26.265625 48 22.1875 43.046875 
Q 18.109375 38.09375 18.109375 28.8125 
L 18.109375 0 
L 9.078125 0 
L 9.078125 54.6875 
L 18.109375 54.6875 
L 18.109375 46.1875 
Q 20.953125 51.171875 25.484375 53.578125 
Q 30.03125 56 36.53125 56 
Q 37.453125 56 38.578125 55.875 
Q 39.703125 55.765625 41.0625 55.515625 
z
" id="BitstreamVeraSans-Roman-72"/>
      <path d="M 8.5 21.578125 
L 8.5 54.6875 
L 17.484375 54.6875 
L 17.484375 21.921875 
Q 17.484375 14.15625 20.5 10.265625 
Q 23.53125 6.390625 29.59375 6.390625 
Q 36.859375 6.390625 41.078125 11.03125 
Q 45.3125 15.671875 45.3125 23.6875 
L 45.3125 54.6875 
L 54.296875 54.6875 
L 54.296875 0 
L 45.3125 0 
L 45.3125 8.40625 
Q 42.046875 3.421875 37.71875 1 
Q 33.40625 -1.421875 27.6875 -1.421875 
Q 18.265625 -1.421875 13.375 4.4375 
Q 8.5 10.296875 8.5 21.578125 
" id="BitstreamVeraSans-Roman-75"/>
     </defs>
     <g transform="translate(16.318125 266.7219125)rotate(-90.0)scale(0.12 -0.12)">
      <use xlink:href="#BitstreamVeraSans-Roman-54"/>
      <use x="60.865234375" xlink:href="#BitstreamVeraSans-Roman-72"/>
      <use x="101.978515625" xlink:href="#BitstreamVeraSans-Roman-75"/>
      <use x="165.357421875" xlink:href="#BitstreamVeraSans-Roman-65"/>
      <use x="226.880859375" xlink:href="#BitstreamVeraSans-Roman-20"/>
      <use x="258.66796875" xlink:href="#BitstreamVeraSans-Roman-50"/>
      <use x="318.923828125" xlink:href="#BitstreamVeraSans-Roman-6f"/>
      <use x="380.10546875" xlink:href="#BitstreamVeraSans-Roman-73"/>
      <use x="432.205078125" xlink:href="#BitstreamVeraSans-Roman-69"/>
      <use x="459.98828125" xlink:href="#BitstreamVeraSans-Roman-74"/>
      <use x="499.197265625" xlink:href="#BitstreamVeraSans-Roman-69"/>
      <use x="526.98046875" xlink:href="#BitstreamVeraSans-Roman-76"/>
      <use x="586.16015625" xlink:href="#BitstreamVeraSans-Roman-65"/>
      <use x="647.68359375" xlink:href="#BitstreamVeraSans-Roman-20"/>
      <use x="679.470703125" xlink:href="#BitstreamVeraSans-Roman-52"/>
      <use x="748.921875" xlink:href="#BitstreamVeraSans-Roman-61"/>
      <use x="810.201171875" xlink:href="#BitstreamVeraSans-Roman-74"/>
      <use x="849.41015625" xlink:href="#BitstreamVeraSans-Roman-65"/>
     </g>
    </g>
   </g>
   <g id="text_15">
    <!-- ROC Curve GradientBoosting + RandomOverSampler -->
    <defs>
     <path d="M 64.40625 67.28125 
L 64.40625 56.890625 
Q 59.421875 61.53125 53.78125 63.8125 
Q 48.140625 66.109375 41.796875 66.109375 
Q 29.296875 66.109375 22.65625 58.46875 
Q 16.015625 50.828125 16.015625 36.375 
Q 16.015625 21.96875 22.65625 14.328125 
Q 29.296875 6.6875 41.796875 6.6875 
Q 48.140625 6.6875 53.78125 8.984375 
Q 59.421875 11.28125 64.40625 15.921875 
L 64.40625 5.609375 
Q 59.234375 2.09375 53.4375 0.328125 
Q 47.65625 -1.421875 41.21875 -1.421875 
Q 24.65625 -1.421875 15.125 8.703125 
Q 5.609375 18.84375 5.609375 36.375 
Q 5.609375 53.953125 15.125 64.078125 
Q 24.65625 74.21875 41.21875 74.21875 
Q 47.75 74.21875 53.53125 72.484375 
Q 59.328125 70.75 64.40625 67.28125 
" id="BitstreamVeraSans-Roman-43"/>
     <path d="M 45.40625 46.390625 
L 45.40625 75.984375 
L 54.390625 75.984375 
L 54.390625 0 
L 45.40625 0 
L 45.40625 8.203125 
Q 42.578125 3.328125 38.25 0.953125 
Q 33.9375 -1.421875 27.875 -1.421875 
Q 17.96875 -1.421875 11.734375 6.484375 
Q 5.515625 14.40625 5.515625 27.296875 
Q 5.515625 40.1875 11.734375 48.09375 
Q 17.96875 56 27.875 56 
Q 33.9375 56 38.25 53.625 
Q 42.578125 51.265625 45.40625 46.390625 
M 14.796875 27.296875 
Q 14.796875 17.390625 18.875 11.75 
Q 22.953125 6.109375 30.078125 6.109375 
Q 37.203125 6.109375 41.296875 11.75 
Q 45.40625 17.390625 45.40625 27.296875 
Q 45.40625 37.203125 41.296875 42.84375 
Q 37.203125 48.484375 30.078125 48.484375 
Q 22.953125 48.484375 18.875 42.84375 
Q 14.796875 37.203125 14.796875 27.296875 
" id="BitstreamVeraSans-Roman-64"/>
     <path d="M 52 44.1875 
Q 55.375 50.25 60.0625 53.125 
Q 64.75 56 71.09375 56 
Q 79.640625 56 84.28125 50.015625 
Q 88.921875 44.046875 88.921875 33.015625 
L 88.921875 0 
L 79.890625 0 
L 79.890625 32.71875 
Q 79.890625 40.578125 77.09375 44.375 
Q 74.3125 48.1875 68.609375 48.1875 
Q 61.625 48.1875 57.5625 43.546875 
Q 53.515625 38.921875 53.515625 30.90625 
L 53.515625 0 
L 44.484375 0 
L 44.484375 32.71875 
Q 44.484375 40.625 41.703125 44.40625 
Q 38.921875 48.1875 33.109375 48.1875 
Q 26.21875 48.1875 22.15625 43.53125 
Q 18.109375 38.875 18.109375 30.90625 
L 18.109375 0 
L 9.078125 0 
L 9.078125 54.6875 
L 18.109375 54.6875 
L 18.109375 46.1875 
Q 21.1875 51.21875 25.484375 53.609375 
Q 29.78125 56 35.6875 56 
Q 41.65625 56 45.828125 52.96875 
Q 50 49.953125 52 44.1875 
" id="BitstreamVeraSans-Roman-6d"/>
     <path d="M 18.109375 8.203125 
L 18.109375 -20.796875 
L 9.078125 -20.796875 
L 9.078125 54.6875 
L 18.109375 54.6875 
L 18.109375 46.390625 
Q 20.953125 51.265625 25.265625 53.625 
Q 29.59375 56 35.59375 56 
Q 45.5625 56 51.78125 48.09375 
Q 58.015625 40.1875 58.015625 27.296875 
Q 58.015625 14.40625 51.78125 6.484375 
Q 45.5625 -1.421875 35.59375 -1.421875 
Q 29.59375 -1.421875 25.265625 0.953125 
Q 20.953125 3.328125 18.109375 8.203125 
M 48.6875 27.296875 
Q 48.6875 37.203125 44.609375 42.84375 
Q 40.53125 48.484375 33.40625 48.484375 
Q 26.265625 48.484375 22.1875 42.84375 
Q 18.109375 37.203125 18.109375 27.296875 
Q 18.109375 17.390625 22.1875 11.75 
Q 26.265625 6.109375 33.40625 6.109375 
Q 40.53125 6.109375 44.609375 11.75 
Q 48.6875 17.390625 48.6875 27.296875 
" id="BitstreamVeraSans-Roman-70"/>
     <path d="M 53.515625 70.515625 
L 53.515625 60.890625 
Q 47.90625 63.578125 42.921875 64.890625 
Q 37.9375 66.21875 33.296875 66.21875 
Q 25.25 66.21875 20.875 63.09375 
Q 16.5 59.96875 16.5 54.203125 
Q 16.5 49.359375 19.40625 46.890625 
Q 22.3125 44.4375 30.421875 42.921875 
L 36.375 41.703125 
Q 47.40625 39.59375 52.65625 34.296875 
Q 57.90625 29 57.90625 20.125 
Q 57.90625 9.515625 50.796875 4.046875 
Q 43.703125 -1.421875 29.984375 -1.421875 
Q 24.8125 -1.421875 18.96875 -0.25 
Q 13.140625 0.921875 6.890625 3.21875 
L 6.890625 13.375 
Q 12.890625 10.015625 18.65625 8.296875 
Q 24.421875 6.59375 29.984375 6.59375 
Q 38.421875 6.59375 43.015625 9.90625 
Q 47.609375 13.234375 47.609375 19.390625 
Q 47.609375 24.75 44.3125 27.78125 
Q 41.015625 30.8125 33.5 32.328125 
L 27.484375 33.5 
Q 16.453125 35.6875 11.515625 40.375 
Q 6.59375 45.0625 6.59375 53.421875 
Q 6.59375 63.09375 13.40625 68.65625 
Q 20.21875 74.21875 32.171875 74.21875 
Q 37.3125 74.21875 42.625 73.28125 
Q 47.953125 72.359375 53.515625 70.515625 
" id="BitstreamVeraSans-Roman-53"/>
     <path d="M 39.40625 66.21875 
Q 28.65625 66.21875 22.328125 58.203125 
Q 16.015625 50.203125 16.015625 36.375 
Q 16.015625 22.609375 22.328125 14.59375 
Q 28.65625 6.59375 39.40625 6.59375 
Q 50.140625 6.59375 56.421875 14.59375 
Q 62.703125 22.609375 62.703125 36.375 
Q 62.703125 50.203125 56.421875 58.203125 
Q 50.140625 66.21875 39.40625 66.21875 
M 39.40625 74.21875 
Q 54.734375 74.21875 63.90625 63.9375 
Q 73.09375 53.65625 73.09375 36.375 
Q 73.09375 19.140625 63.90625 8.859375 
Q 54.734375 -1.421875 39.40625 -1.421875 
Q 24.03125 -1.421875 14.8125 8.828125 
Q 5.609375 19.09375 5.609375 36.375 
Q 5.609375 53.65625 14.8125 63.9375 
Q 24.03125 74.21875 39.40625 74.21875 
" id="BitstreamVeraSans-Roman-4f"/>
     <path d="M 59.515625 10.40625 
L 59.515625 29.984375 
L 43.40625 29.984375 
L 43.40625 38.09375 
L 69.28125 38.09375 
L 69.28125 6.78125 
Q 63.578125 2.734375 56.6875 0.65625 
Q 49.8125 -1.421875 42 -1.421875 
Q 24.90625 -1.421875 15.25 8.5625 
Q 5.609375 18.5625 5.609375 36.375 
Q 5.609375 54.25 15.25 64.234375 
Q 24.90625 74.21875 42 74.21875 
Q 49.125 74.21875 55.546875 72.453125 
Q 61.96875 70.703125 67.390625 67.28125 
L 67.390625 56.78125 
Q 61.921875 61.421875 55.765625 63.765625 
Q 49.609375 66.109375 42.828125 66.109375 
Q 29.4375 66.109375 22.71875 58.640625 
Q 16.015625 51.171875 16.015625 36.375 
Q 16.015625 21.625 22.71875 14.15625 
Q 29.4375 6.6875 42.828125 6.6875 
Q 48.046875 6.6875 52.140625 7.59375 
Q 56.25 8.5 59.515625 10.40625 
" id="BitstreamVeraSans-Roman-47"/>
     <path d="M 45.40625 27.984375 
Q 45.40625 37.75 41.375 43.109375 
Q 37.359375 48.484375 30.078125 48.484375 
Q 22.859375 48.484375 18.828125 43.109375 
Q 14.796875 37.75 14.796875 27.984375 
Q 14.796875 18.265625 18.828125 12.890625 
Q 22.859375 7.515625 30.078125 7.515625 
Q 37.359375 7.515625 41.375 12.890625 
Q 45.40625 18.265625 45.40625 27.984375 
M 54.390625 6.78125 
Q 54.390625 -7.171875 48.1875 -13.984375 
Q 42 -20.796875 29.203125 -20.796875 
Q 24.46875 -20.796875 20.265625 -20.09375 
Q 16.0625 -19.390625 12.109375 -17.921875 
L 12.109375 -9.1875 
Q 16.0625 -11.328125 19.921875 -12.34375 
Q 23.78125 -13.375 27.78125 -13.375 
Q 36.625 -13.375 41.015625 -8.765625 
Q 45.40625 -4.15625 45.40625 5.171875 
L 45.40625 9.625 
Q 42.625 4.78125 38.28125 2.390625 
Q 33.9375 0 27.875 0 
Q 17.828125 0 11.671875 7.65625 
Q 5.515625 15.328125 5.515625 27.984375 
Q 5.515625 40.671875 11.671875 48.328125 
Q 17.828125 56 27.875 56 
Q 33.9375 56 38.28125 53.609375 
Q 42.625 51.21875 45.40625 46.390625 
L 45.40625 54.6875 
L 54.390625 54.6875 
z
" id="BitstreamVeraSans-Roman-67"/>
     <path d="M 46 62.703125 
L 46 35.5 
L 73.1875 35.5 
L 73.1875 27.203125 
L 46 27.203125 
L 46 0 
L 37.796875 0 
L 37.796875 27.203125 
L 10.59375 27.203125 
L 10.59375 35.5 
L 37.796875 35.5 
L 37.796875 62.703125 
z
" id="BitstreamVeraSans-Roman-2b"/>
     <path d="M 19.671875 34.8125 
L 19.671875 8.109375 
L 35.5 8.109375 
Q 43.453125 8.109375 47.28125 11.40625 
Q 51.125 14.703125 51.125 21.484375 
Q 51.125 28.328125 47.28125 31.5625 
Q 43.453125 34.8125 35.5 34.8125 
z
M 19.671875 64.796875 
L 19.671875 42.828125 
L 34.28125 42.828125 
Q 41.5 42.828125 45.03125 45.53125 
Q 48.578125 48.25 48.578125 53.8125 
Q 48.578125 59.328125 45.03125 62.0625 
Q 41.5 64.796875 34.28125 64.796875 
z
M 9.8125 72.90625 
L 35.015625 72.90625 
Q 46.296875 72.90625 52.390625 68.21875 
Q 58.5 63.53125 58.5 54.890625 
Q 58.5 48.1875 55.375 44.234375 
Q 52.25 40.28125 46.1875 39.3125 
Q 53.46875 37.75 57.5 32.78125 
Q 61.53125 27.828125 61.53125 20.40625 
Q 61.53125 10.640625 54.890625 5.3125 
Q 48.25 0 35.984375 0 
L 9.8125 0 
z
" id="BitstreamVeraSans-Roman-42"/>
     <path d="M 54.890625 33.015625 
L 54.890625 0 
L 45.90625 0 
L 45.90625 32.71875 
Q 45.90625 40.484375 42.875 44.328125 
Q 39.84375 48.1875 33.796875 48.1875 
Q 26.515625 48.1875 22.3125 43.546875 
Q 18.109375 38.921875 18.109375 30.90625 
L 18.109375 0 
L 9.078125 0 
L 9.078125 54.6875 
L 18.109375 54.6875 
L 18.109375 46.1875 
Q 21.34375 51.125 25.703125 53.5625 
Q 30.078125 56 35.796875 56 
Q 45.21875 56 50.046875 50.171875 
Q 54.890625 44.34375 54.890625 33.015625 
" id="BitstreamVeraSans-Roman-6e"/>
    </defs>
    <g transform="translate(77.93175 18.14175)scale(0.144 -0.144)">
     <use xlink:href="#BitstreamVeraSans-Roman-52"/>
     <use x="69.482421875" xlink:href="#BitstreamVeraSans-Roman-4f"/>
     <use x="148.193359375" xlink:href="#BitstreamVeraSans-Roman-43"/>
     <use x="218.017578125" xlink:href="#BitstreamVeraSans-Roman-20"/>
     <use x="249.8046875" xlink:href="#BitstreamVeraSans-Roman-43"/>
     <use x="319.62890625" xlink:href="#BitstreamVeraSans-Roman-75"/>
     <use x="383.0078125" xlink:href="#BitstreamVeraSans-Roman-72"/>
     <use x="424.12109375" xlink:href="#BitstreamVeraSans-Roman-76"/>
     <use x="483.30078125" xlink:href="#BitstreamVeraSans-Roman-65"/>
     <use x="544.82421875" xlink:href="#BitstreamVeraSans-Roman-20"/>
     <use x="576.611328125" xlink:href="#BitstreamVeraSans-Roman-47"/>
     <use x="654.1015625" xlink:href="#BitstreamVeraSans-Roman-72"/>
     <use x="695.21484375" xlink:href="#BitstreamVeraSans-Roman-61"/>
     <use x="756.494140625" xlink:href="#BitstreamVeraSans-Roman-64"/>
     <use x="819.970703125" xlink:href="#BitstreamVeraSans-Roman-69"/>
     <use x="847.75390625" xlink:href="#BitstreamVeraSans-Roman-65"/>
     <use x="909.27734375" xlink:href="#BitstreamVeraSans-Roman-6e"/>
     <use x="972.65625" xlink:href="#BitstreamVeraSans-Roman-74"/>
     <use x="1011.865234375" xlink:href="#BitstreamVeraSans-Roman-42"/>
     <use x="1080.46875" xlink:href="#BitstreamVeraSans-Roman-6f"/>
     <use x="1141.650390625" xlink:href="#BitstreamVeraSans-Roman-6f"/>
     <use x="1202.83203125" xlink:href="#BitstreamVeraSans-Roman-73"/>
     <use x="1254.931640625" xlink:href="#BitstreamVeraSans-Roman-74"/>
     <use x="1294.140625" xlink:href="#BitstreamVeraSans-Roman-69"/>
     <use x="1321.923828125" xlink:href="#BitstreamVeraSans-Roman-6e"/>
     <use x="1385.302734375" xlink:href="#BitstreamVeraSans-Roman-67"/>
     <use x="1448.779296875" xlink:href="#BitstreamVeraSans-Roman-20"/>
     <use x="1480.56640625" xlink:href="#BitstreamVeraSans-Roman-2b"/>
     <use x="1564.35546875" xlink:href="#BitstreamVeraSans-Roman-20"/>
     <use x="1596.142578125" xlink:href="#BitstreamVeraSans-Roman-52"/>
     <use x="1665.59375" xlink:href="#BitstreamVeraSans-Roman-61"/>
     <use x="1726.873046875" xlink:href="#BitstreamVeraSans-Roman-6e"/>
     <use x="1790.251953125" xlink:href="#BitstreamVeraSans-Roman-64"/>
     <use x="1853.728515625" xlink:href="#BitstreamVeraSans-Roman-6f"/>
     <use x="1914.91015625" xlink:href="#BitstreamVeraSans-Roman-6d"/>
     <use x="2012.322265625" xlink:href="#BitstreamVeraSans-Roman-4f"/>
     <use x="2091.033203125" xlink:href="#BitstreamVeraSans-Roman-76"/>
     <use x="2150.212890625" xlink:href="#BitstreamVeraSans-Roman-65"/>
     <use x="2211.736328125" xlink:href="#BitstreamVeraSans-Roman-72"/>
     <use x="2252.849609375" xlink:href="#BitstreamVeraSans-Roman-53"/>
     <use x="2316.326171875" xlink:href="#BitstreamVeraSans-Roman-61"/>
     <use x="2377.60546875" xlink:href="#BitstreamVeraSans-Roman-6d"/>
     <use x="2475.017578125" xlink:href="#BitstreamVeraSans-Roman-70"/>
     <use x="2538.494140625" xlink:href="#BitstreamVeraSans-Roman-6c"/>
     <use x="2566.27734375" xlink:href="#BitstreamVeraSans-Roman-65"/>
     <use x="2627.80078125" xlink:href="#BitstreamVeraSans-Roman-72"/>
    </g>
    <!-- Train: 28   Test: [1, 4, 8, 12, 16, 20, 24] -->
    <defs>
     <path d="M 30.421875 75.984375 
L 30.421875 -13.1875 
L 9.71875 -13.1875 
L 9.71875 -6.203125 
L 21.390625 -6.203125 
L 21.390625 69 
L 9.71875 69 
L 9.71875 75.984375 
z
" id="BitstreamVeraSans-Roman-5d"/>
     <path d="M 11.71875 12.40625 
L 22.015625 12.40625 
L 22.015625 0 
L 11.71875 0 
z
M 11.71875 51.703125 
L 22.015625 51.703125 
L 22.015625 39.3125 
L 11.71875 39.3125 
z
" id="BitstreamVeraSans-Roman-3a"/>
     <path d="M 8.59375 75.984375 
L 29.296875 75.984375 
L 29.296875 69 
L 17.578125 69 
L 17.578125 -6.203125 
L 29.296875 -6.203125 
L 29.296875 -13.1875 
L 8.59375 -13.1875 
z
" id="BitstreamVeraSans-Roman-5b"/>
     <path d="M 11.71875 12.40625 
L 22.015625 12.40625 
L 22.015625 4 
L 14.015625 -11.625 
L 7.71875 -11.625 
L 11.71875 4 
z
" id="BitstreamVeraSans-Roman-2c"/>
    </defs>
    <g transform="translate(127.475625 34.2666)scale(0.144 -0.144)">
     <use xlink:href="#BitstreamVeraSans-Roman-54"/>
     <use x="60.865234375" xlink:href="#BitstreamVeraSans-Roman-72"/>
     <use x="101.978515625" xlink:href="#BitstreamVeraSans-Roman-61"/>
     <use x="163.2578125" xlink:href="#BitstreamVeraSans-Roman-69"/>
     <use x="191.041015625" xlink:href="#BitstreamVeraSans-Roman-6e"/>
     <use x="254.419921875" xlink:href="#BitstreamVeraSans-Roman-3a"/>
     <use x="288.111328125" xlink:href="#BitstreamVeraSans-Roman-20"/>
     <use x="319.8984375" xlink:href="#BitstreamVeraSans-Roman-32"/>
     <use x="383.521484375" xlink:href="#BitstreamVeraSans-Roman-38"/>
     <use x="447.14453125" xlink:href="#BitstreamVeraSans-Roman-20"/>
     <use x="478.931640625" xlink:href="#BitstreamVeraSans-Roman-20"/>
     <use x="510.71875" xlink:href="#BitstreamVeraSans-Roman-20"/>
     <use x="542.505859375" xlink:href="#BitstreamVeraSans-Roman-54"/>
     <use x="603.32421875" xlink:href="#BitstreamVeraSans-Roman-65"/>
     <use x="664.84765625" xlink:href="#BitstreamVeraSans-Roman-73"/>
     <use x="716.947265625" xlink:href="#BitstreamVeraSans-Roman-74"/>
     <use x="756.15625" xlink:href="#BitstreamVeraSans-Roman-3a"/>
     <use x="789.84765625" xlink:href="#BitstreamVeraSans-Roman-20"/>
     <use x="821.634765625" xlink:href="#BitstreamVeraSans-Roman-5b"/>
     <use x="860.6484375" xlink:href="#BitstreamVeraSans-Roman-31"/>
     <use x="924.271484375" xlink:href="#BitstreamVeraSans-Roman-2c"/>
     <use x="956.05859375" xlink:href="#BitstreamVeraSans-Roman-20"/>
     <use x="987.845703125" xlink:href="#BitstreamVeraSans-Roman-34"/>
     <use x="1051.46875" xlink:href="#BitstreamVeraSans-Roman-2c"/>
     <use x="1083.255859375" xlink:href="#BitstreamVeraSans-Roman-20"/>
     <use x="1115.04296875" xlink:href="#BitstreamVeraSans-Roman-38"/>
     <use x="1178.666015625" xlink:href="#BitstreamVeraSans-Roman-2c"/>
     <use x="1210.453125" xlink:href="#BitstreamVeraSans-Roman-20"/>
     <use x="1242.240234375" xlink:href="#BitstreamVeraSans-Roman-31"/>
     <use x="1305.86328125" xlink:href="#BitstreamVeraSans-Roman-32"/>
     <use x="1369.486328125" xlink:href="#BitstreamVeraSans-Roman-2c"/>
     <use x="1401.2734375" xlink:href="#BitstreamVeraSans-Roman-20"/>
     <use x="1433.060546875" xlink:href="#BitstreamVeraSans-Roman-31"/>
     <use x="1496.68359375" xlink:href="#BitstreamVeraSans-Roman-36"/>
     <use x="1560.306640625" xlink:href="#BitstreamVeraSans-Roman-2c"/>
     <use x="1592.09375" xlink:href="#BitstreamVeraSans-Roman-20"/>
     <use x="1623.880859375" xlink:href="#BitstreamVeraSans-Roman-32"/>
     <use x="1687.50390625" xlink:href="#BitstreamVeraSans-Roman-30"/>
     <use x="1751.126953125" xlink:href="#BitstreamVeraSans-Roman-2c"/>
     <use x="1782.9140625" xlink:href="#BitstreamVeraSans-Roman-20"/>
     <use x="1814.701171875" xlink:href="#BitstreamVeraSans-Roman-32"/>
     <use x="1878.32421875" xlink:href="#BitstreamVeraSans-Roman-34"/>
     <use x="1941.947265625" xlink:href="#BitstreamVeraSans-Roman-5d"/>
    </g>
   </g>
   <g id="legend_1">
    <g id="patch_7">
     <path d="M 172.01775 377.6666 
L 486.0975 377.6666 
L 486.0975 309.9371 
L 172.01775 309.9371 
z
" style="fill:#ffffff;stroke:#000000;stroke-linejoin:miter;"/>
    </g>
    <g id="line2d_29">
     <path d="M 182.09775 321.59885 
L 202.25775 321.59885 
" style="fill:none;stroke:#0000ff;stroke-linecap:square;"/>
    </g>
    <g id="line2d_30"/>
    <g id="text_16">
     <!-- bridgesROC curve - 0 (AUC = 0.861) -->
     <defs>
      <path d="M 48.6875 27.296875 
Q 48.6875 37.203125 44.609375 42.84375 
Q 40.53125 48.484375 33.40625 48.484375 
Q 26.265625 48.484375 22.1875 42.84375 
Q 18.109375 37.203125 18.109375 27.296875 
Q 18.109375 17.390625 22.1875 11.75 
Q 26.265625 6.109375 33.40625 6.109375 
Q 40.53125 6.109375 44.609375 11.75 
Q 48.6875 17.390625 48.6875 27.296875 
M 18.109375 46.390625 
Q 20.953125 51.265625 25.265625 53.625 
Q 29.59375 56 35.59375 56 
Q 45.5625 56 51.78125 48.09375 
Q 58.015625 40.1875 58.015625 27.296875 
Q 58.015625 14.40625 51.78125 6.484375 
Q 45.5625 -1.421875 35.59375 -1.421875 
Q 29.59375 -1.421875 25.265625 0.953125 
Q 20.953125 3.328125 18.109375 8.203125 
L 18.109375 0 
L 9.078125 0 
L 9.078125 75.984375 
L 18.109375 75.984375 
z
" id="BitstreamVeraSans-Roman-62"/>
      <path d="M 48.78125 52.59375 
L 48.78125 44.1875 
Q 44.96875 46.296875 41.140625 47.34375 
Q 37.3125 48.390625 33.40625 48.390625 
Q 24.65625 48.390625 19.8125 42.84375 
Q 14.984375 37.3125 14.984375 27.296875 
Q 14.984375 17.28125 19.8125 11.734375 
Q 24.65625 6.203125 33.40625 6.203125 
Q 37.3125 6.203125 41.140625 7.25 
Q 44.96875 8.296875 48.78125 10.40625 
L 48.78125 2.09375 
Q 45.015625 0.34375 40.984375 -0.53125 
Q 36.96875 -1.421875 32.421875 -1.421875 
Q 20.0625 -1.421875 12.78125 6.34375 
Q 5.515625 14.109375 5.515625 27.296875 
Q 5.515625 40.671875 12.859375 48.328125 
Q 20.21875 56 33.015625 56 
Q 37.15625 56 41.109375 55.140625 
Q 45.0625 54.296875 48.78125 52.59375 
" id="BitstreamVeraSans-Roman-63"/>
      <path d="M 8.015625 75.875 
L 15.828125 75.875 
Q 23.140625 64.359375 26.78125 53.3125 
Q 30.421875 42.28125 30.421875 31.390625 
Q 30.421875 20.453125 26.78125 9.375 
Q 23.140625 -1.703125 15.828125 -13.1875 
L 8.015625 -13.1875 
Q 14.5 -2 17.703125 9.0625 
Q 20.90625 20.125 20.90625 31.390625 
Q 20.90625 42.671875 17.703125 53.65625 
Q 14.5 64.65625 8.015625 75.875 
" id="BitstreamVeraSans-Roman-29"/>
      <path d="M 8.6875 72.90625 
L 18.609375 72.90625 
L 18.609375 28.609375 
Q 18.609375 16.890625 22.84375 11.734375 
Q 27.09375 6.59375 36.625 6.59375 
Q 46.09375 6.59375 50.34375 11.734375 
Q 54.59375 16.890625 54.59375 28.609375 
L 54.59375 72.90625 
L 64.5 72.90625 
L 64.5 27.390625 
Q 64.5 13.140625 57.4375 5.859375 
Q 50.390625 -1.421875 36.625 -1.421875 
Q 22.796875 -1.421875 15.734375 5.859375 
Q 8.6875 13.140625 8.6875 27.390625 
z
" id="BitstreamVeraSans-Roman-55"/>
      <path d="M 34.1875 63.1875 
L 20.796875 26.90625 
L 47.609375 26.90625 
z
M 28.609375 72.90625 
L 39.796875 72.90625 
L 67.578125 0 
L 57.328125 0 
L 50.6875 18.703125 
L 17.828125 18.703125 
L 11.1875 0 
L 0.78125 0 
z
" id="BitstreamVeraSans-Roman-41"/>
      <path d="M 31 75.875 
Q 24.46875 64.65625 21.28125 53.65625 
Q 18.109375 42.671875 18.109375 31.390625 
Q 18.109375 20.125 21.3125 9.0625 
Q 24.515625 -2 31 -13.1875 
L 23.1875 -13.1875 
Q 15.875 -1.703125 12.234375 9.375 
Q 8.59375 20.453125 8.59375 31.390625 
Q 8.59375 42.28125 12.203125 53.3125 
Q 15.828125 64.359375 23.1875 75.875 
z
" id="BitstreamVeraSans-Roman-28"/>
      <path d="M 10.59375 45.40625 
L 73.1875 45.40625 
L 73.1875 37.203125 
L 10.59375 37.203125 
z
M 10.59375 25.484375 
L 73.1875 25.484375 
L 73.1875 17.1875 
L 10.59375 17.1875 
z
" id="BitstreamVeraSans-Roman-3d"/>
      <path d="M 4.890625 31.390625 
L 31.203125 31.390625 
L 31.203125 23.390625 
L 4.890625 23.390625 
z
" id="BitstreamVeraSans-Roman-2d"/>
     </defs>
     <g transform="translate(218.09775 326.63885)scale(0.144 -0.144)">
      <use xlink:href="#BitstreamVeraSans-Roman-62"/>
      <use x="63.4765625" xlink:href="#BitstreamVeraSans-Roman-72"/>
      <use x="104.58984375" xlink:href="#BitstreamVeraSans-Roman-69"/>
      <use x="132.373046875" xlink:href="#BitstreamVeraSans-Roman-64"/>
      <use x="195.849609375" xlink:href="#BitstreamVeraSans-Roman-67"/>
      <use x="259.326171875" xlink:href="#BitstreamVeraSans-Roman-65"/>
      <use x="320.849609375" xlink:href="#BitstreamVeraSans-Roman-73"/>
      <use x="372.94921875" xlink:href="#BitstreamVeraSans-Roman-52"/>
      <use x="442.431640625" xlink:href="#BitstreamVeraSans-Roman-4f"/>
      <use x="521.142578125" xlink:href="#BitstreamVeraSans-Roman-43"/>
      <use x="590.966796875" xlink:href="#BitstreamVeraSans-Roman-20"/>
      <use x="622.75390625" xlink:href="#BitstreamVeraSans-Roman-63"/>
      <use x="677.734375" xlink:href="#BitstreamVeraSans-Roman-75"/>
      <use x="741.11328125" xlink:href="#BitstreamVeraSans-Roman-72"/>
      <use x="782.2265625" xlink:href="#BitstreamVeraSans-Roman-76"/>
      <use x="841.40625" xlink:href="#BitstreamVeraSans-Roman-65"/>
      <use x="902.9296875" xlink:href="#BitstreamVeraSans-Roman-20"/>
      <use x="934.716796875" xlink:href="#BitstreamVeraSans-Roman-2d"/>
      <use x="970.80078125" xlink:href="#BitstreamVeraSans-Roman-20"/>
      <use x="1002.587890625" xlink:href="#BitstreamVeraSans-Roman-30"/>
      <use x="1066.2109375" xlink:href="#BitstreamVeraSans-Roman-20"/>
      <use x="1097.998046875" xlink:href="#BitstreamVeraSans-Roman-28"/>
      <use x="1137.01171875" xlink:href="#BitstreamVeraSans-Roman-41"/>
      <use x="1205.419921875" xlink:href="#BitstreamVeraSans-Roman-55"/>
      <use x="1278.61328125" xlink:href="#BitstreamVeraSans-Roman-43"/>
      <use x="1348.4375" xlink:href="#BitstreamVeraSans-Roman-20"/>
      <use x="1380.224609375" xlink:href="#BitstreamVeraSans-Roman-3d"/>
      <use x="1464.013671875" xlink:href="#BitstreamVeraSans-Roman-20"/>
      <use x="1495.80078125" xlink:href="#BitstreamVeraSans-Roman-30"/>
      <use x="1559.423828125" xlink:href="#BitstreamVeraSans-Roman-2e"/>
      <use x="1591.2109375" xlink:href="#BitstreamVeraSans-Roman-38"/>
      <use x="1654.833984375" xlink:href="#BitstreamVeraSans-Roman-36"/>
      <use x="1718.45703125" xlink:href="#BitstreamVeraSans-Roman-31"/>
      <use x="1782.080078125" xlink:href="#BitstreamVeraSans-Roman-29"/>
     </g>
    </g>
    <g id="line2d_31">
     <path d="M 182.09775 342.73535 
L 202.25775 342.73535 
" style="fill:none;stroke:#008000;stroke-linecap:square;"/>
    </g>
    <g id="line2d_32"/>
    <g id="text_17">
     <!-- bridgesROC curve - 1 (AUC = 0.883) -->
     <defs>
      <path d="M 40.578125 39.3125 
Q 47.65625 37.796875 51.625 33 
Q 55.609375 28.21875 55.609375 21.1875 
Q 55.609375 10.40625 48.1875 4.484375 
Q 40.765625 -1.421875 27.09375 -1.421875 
Q 22.515625 -1.421875 17.65625 -0.515625 
Q 12.796875 0.390625 7.625 2.203125 
L 7.625 11.71875 
Q 11.71875 9.328125 16.59375 8.109375 
Q 21.484375 6.890625 26.8125 6.890625 
Q 36.078125 6.890625 40.9375 10.546875 
Q 45.796875 14.203125 45.796875 21.1875 
Q 45.796875 27.640625 41.28125 31.265625 
Q 36.765625 34.90625 28.71875 34.90625 
L 20.21875 34.90625 
L 20.21875 43.015625 
L 29.109375 43.015625 
Q 36.375 43.015625 40.234375 45.921875 
Q 44.09375 48.828125 44.09375 54.296875 
Q 44.09375 59.90625 40.109375 62.90625 
Q 36.140625 65.921875 28.71875 65.921875 
Q 24.65625 65.921875 20.015625 65.03125 
Q 15.375 64.15625 9.8125 62.3125 
L 9.8125 71.09375 
Q 15.4375 72.65625 20.34375 73.4375 
Q 25.25 74.21875 29.59375 74.21875 
Q 40.828125 74.21875 47.359375 69.109375 
Q 53.90625 64.015625 53.90625 55.328125 
Q 53.90625 49.265625 50.4375 45.09375 
Q 46.96875 40.921875 40.578125 39.3125 
" id="BitstreamVeraSans-Roman-33"/>
     </defs>
     <g transform="translate(218.09775 347.77535)scale(0.144 -0.144)">
      <use xlink:href="#BitstreamVeraSans-Roman-62"/>
      <use x="63.4765625" xlink:href="#BitstreamVeraSans-Roman-72"/>
      <use x="104.58984375" xlink:href="#BitstreamVeraSans-Roman-69"/>
      <use x="132.373046875" xlink:href="#BitstreamVeraSans-Roman-64"/>
      <use x="195.849609375" xlink:href="#BitstreamVeraSans-Roman-67"/>
      <use x="259.326171875" xlink:href="#BitstreamVeraSans-Roman-65"/>
      <use x="320.849609375" xlink:href="#BitstreamVeraSans-Roman-73"/>
      <use x="372.94921875" xlink:href="#BitstreamVeraSans-Roman-52"/>
      <use x="442.431640625" xlink:href="#BitstreamVeraSans-Roman-4f"/>
      <use x="521.142578125" xlink:href="#BitstreamVeraSans-Roman-43"/>
      <use x="590.966796875" xlink:href="#BitstreamVeraSans-Roman-20"/>
      <use x="622.75390625" xlink:href="#BitstreamVeraSans-Roman-63"/>
      <use x="677.734375" xlink:href="#BitstreamVeraSans-Roman-75"/>
      <use x="741.11328125" xlink:href="#BitstreamVeraSans-Roman-72"/>
      <use x="782.2265625" xlink:href="#BitstreamVeraSans-Roman-76"/>
      <use x="841.40625" xlink:href="#BitstreamVeraSans-Roman-65"/>
      <use x="902.9296875" xlink:href="#BitstreamVeraSans-Roman-20"/>
      <use x="934.716796875" xlink:href="#BitstreamVeraSans-Roman-2d"/>
      <use x="970.80078125" xlink:href="#BitstreamVeraSans-Roman-20"/>
      <use x="1002.587890625" xlink:href="#BitstreamVeraSans-Roman-31"/>
      <use x="1066.2109375" xlink:href="#BitstreamVeraSans-Roman-20"/>
      <use x="1097.998046875" xlink:href="#BitstreamVeraSans-Roman-28"/>
      <use x="1137.01171875" xlink:href="#BitstreamVeraSans-Roman-41"/>
      <use x="1205.419921875" xlink:href="#BitstreamVeraSans-Roman-55"/>
      <use x="1278.61328125" xlink:href="#BitstreamVeraSans-Roman-43"/>
      <use x="1348.4375" xlink:href="#BitstreamVeraSans-Roman-20"/>
      <use x="1380.224609375" xlink:href="#BitstreamVeraSans-Roman-3d"/>
      <use x="1464.013671875" xlink:href="#BitstreamVeraSans-Roman-20"/>
      <use x="1495.80078125" xlink:href="#BitstreamVeraSans-Roman-30"/>
      <use x="1559.423828125" xlink:href="#BitstreamVeraSans-Roman-2e"/>
      <use x="1591.2109375" xlink:href="#BitstreamVeraSans-Roman-38"/>
      <use x="1654.833984375" xlink:href="#BitstreamVeraSans-Roman-38"/>
      <use x="1718.45703125" xlink:href="#BitstreamVeraSans-Roman-33"/>
      <use x="1782.080078125" xlink:href="#BitstreamVeraSans-Roman-29"/>
     </g>
    </g>
    <g id="line2d_33">
     <path d="M 182.09775 363.87185 
L 202.25775 363.87185 
" style="fill:none;stroke:#ff0000;stroke-linecap:square;"/>
    </g>
    <g id="line2d_34"/>
    <g id="text_18">
     <!-- bridgesROC curve - 2 (AUC = 0.888) -->
     <g transform="translate(218.09775 368.91185)scale(0.144 -0.144)">
      <use xlink:href="#BitstreamVeraSans-Roman-62"/>
      <use x="63.4765625" xlink:href="#BitstreamVeraSans-Roman-72"/>
      <use x="104.58984375" xlink:href="#BitstreamVeraSans-Roman-69"/>
      <use x="132.373046875" xlink:href="#BitstreamVeraSans-Roman-64"/>
      <use x="195.849609375" xlink:href="#BitstreamVeraSans-Roman-67"/>
      <use x="259.326171875" xlink:href="#BitstreamVeraSans-Roman-65"/>
      <use x="320.849609375" xlink:href="#BitstreamVeraSans-Roman-73"/>
      <use x="372.94921875" xlink:href="#BitstreamVeraSans-Roman-52"/>
      <use x="442.431640625" xlink:href="#BitstreamVeraSans-Roman-4f"/>
      <use x="521.142578125" xlink:href="#BitstreamVeraSans-Roman-43"/>
      <use x="590.966796875" xlink:href="#BitstreamVeraSans-Roman-20"/>
      <use x="622.75390625" xlink:href="#BitstreamVeraSans-Roman-63"/>
      <use x="677.734375" xlink:href="#BitstreamVeraSans-Roman-75"/>
      <use x="741.11328125" xlink:href="#BitstreamVeraSans-Roman-72"/>
      <use x="782.2265625" xlink:href="#BitstreamVeraSans-Roman-76"/>
      <use x="841.40625" xlink:href="#BitstreamVeraSans-Roman-65"/>
      <use x="902.9296875" xlink:href="#BitstreamVeraSans-Roman-20"/>
      <use x="934.716796875" xlink:href="#BitstreamVeraSans-Roman-2d"/>
      <use x="970.80078125" xlink:href="#BitstreamVeraSans-Roman-20"/>
      <use x="1002.587890625" xlink:href="#BitstreamVeraSans-Roman-32"/>
      <use x="1066.2109375" xlink:href="#BitstreamVeraSans-Roman-20"/>
      <use x="1097.998046875" xlink:href="#BitstreamVeraSans-Roman-28"/>
      <use x="1137.01171875" xlink:href="#BitstreamVeraSans-Roman-41"/>
      <use x="1205.419921875" xlink:href="#BitstreamVeraSans-Roman-55"/>
      <use x="1278.61328125" xlink:href="#BitstreamVeraSans-Roman-43"/>
      <use x="1348.4375" xlink:href="#BitstreamVeraSans-Roman-20"/>
      <use x="1380.224609375" xlink:href="#BitstreamVeraSans-Roman-3d"/>
      <use x="1464.013671875" xlink:href="#BitstreamVeraSans-Roman-20"/>
      <use x="1495.80078125" xlink:href="#BitstreamVeraSans-Roman-30"/>
      <use x="1559.423828125" xlink:href="#BitstreamVeraSans-Roman-2e"/>
      <use x="1591.2109375" xlink:href="#BitstreamVeraSans-Roman-38"/>
      <use x="1654.833984375" xlink:href="#BitstreamVeraSans-Roman-38"/>
      <use x="1718.45703125" xlink:href="#BitstreamVeraSans-Roman-38"/>
      <use x="1782.080078125" xlink:href="#BitstreamVeraSans-Roman-29"/>
     </g>
    </g>
   </g>
  </g>
 </g>
 <defs>
  <clipPath id="p0cbcd511dc">
   <rect height="345.6" width="446.4" x="46.8975" y="39.2666"/>
  </clipPath>
 </defs>
</svg>
