<?xml version="1.0" encoding="utf-8" standalone="no"?>
<!DOCTYPE svg PUBLIC "-//W3C//DTD SVG 1.1//EN"
  "http://www.w3.org/Graphics/SVG/1.1/DTD/svg11.dtd">
<!-- Created with matplotlib (http://matplotlib.org/) -->
<svg height="339pt" version="1.1" viewBox="0 0 416 339" width="416pt" xmlns="http://www.w3.org/2000/svg" xmlns:xlink="http://www.w3.org/1999/xlink">
 <defs>
  <style type="text/css">
*{stroke-linecap:butt;stroke-linejoin:round;}
  </style>
 </defs>
 <g id="figure_1">
  <g id="patch_1">
   <path d="M 0 339.42375 
L 416.052813 339.42375 
L 416.052813 0 
L 0 0 
z
" style="fill:#ffffff;"/>
  </g>
  <g id="axes_1">
   <g id="patch_2">
    <path d="M 43.78125 301.8675 
L 400.90125 301.8675 
L 400.90125 35.7555 
L 43.78125 35.7555 
z
" style="fill:#ffffff;"/>
   </g>
   <g id="matplotlib.axis_1">
    <g id="xtick_1">
     <g id="line2d_1">
      <defs>
       <path d="M 0 0 
L 0 3.5 
" id="maf9ba1a8c5" style="stroke:#000000;stroke-width:0.8;"/>
      </defs>
      <g>
       <use style="stroke:#000000;stroke-width:0.8;" x="43.78125" xlink:href="#maf9ba1a8c5" y="301.8675"/>
      </g>
     </g>
     <g id="text_1">
      <!-- 0.0 -->
      <defs>
       <path d="M 31.78125 66.40625 
Q 24.171875 66.40625 20.328125 58.90625 
Q 16.5 51.421875 16.5 36.375 
Q 16.5 21.390625 20.328125 13.890625 
Q 24.171875 6.390625 31.78125 6.390625 
Q 39.453125 6.390625 43.28125 13.890625 
Q 47.125 21.390625 47.125 36.375 
Q 47.125 51.421875 43.28125 58.90625 
Q 39.453125 66.40625 31.78125 66.40625 
M 31.78125 74.21875 
Q 44.046875 74.21875 50.515625 64.515625 
Q 56.984375 54.828125 56.984375 36.375 
Q 56.984375 17.96875 50.515625 8.265625 
Q 44.046875 -1.421875 31.78125 -1.421875 
Q 19.53125 -1.421875 13.0625 8.265625 
Q 6.59375 17.96875 6.59375 36.375 
Q 6.59375 54.828125 13.0625 64.515625 
Q 19.53125 74.21875 31.78125 74.21875 
" id="DejaVuSans-30"/>
       <path d="M 10.6875 12.40625 
L 21 12.40625 
L 21 0 
L 10.6875 0 
z
" id="DejaVuSans-2e"/>
      </defs>
      <g transform="translate(35.829688 316.465937)scale(0.1 -0.1)">
       <use xlink:href="#DejaVuSans-30"/>
       <use x="63.623047" xlink:href="#DejaVuSans-2e"/>
       <use x="95.410156" xlink:href="#DejaVuSans-30"/>
      </g>
     </g>
    </g>
    <g id="xtick_2">
     <g id="line2d_2">
      <g>
       <use style="stroke:#000000;stroke-width:0.8;" x="115.20525" xlink:href="#maf9ba1a8c5" y="301.8675"/>
      </g>
     </g>
     <g id="text_2">
      <!-- 0.2 -->
      <defs>
       <path d="M 19.1875 8.296875 
L 53.609375 8.296875 
L 53.609375 0 
L 7.328125 0 
L 7.328125 8.296875 
Q 12.9375 14.109375 22.625 23.890625 
Q 32.328125 33.6875 34.8125 36.53125 
Q 39.546875 41.84375 41.421875 45.53125 
Q 43.3125 49.21875 43.3125 52.78125 
Q 43.3125 58.59375 39.234375 62.25 
Q 35.15625 65.921875 28.609375 65.921875 
Q 23.96875 65.921875 18.8125 64.3125 
Q 13.671875 62.703125 7.8125 59.421875 
L 7.8125 69.390625 
Q 13.765625 71.78125 18.9375 73 
Q 24.125 74.21875 28.421875 74.21875 
Q 39.75 74.21875 46.484375 68.546875 
Q 53.21875 62.890625 53.21875 53.421875 
Q 53.21875 48.921875 51.53125 44.890625 
Q 49.859375 40.875 45.40625 35.40625 
Q 44.1875 33.984375 37.640625 27.21875 
Q 31.109375 20.453125 19.1875 8.296875 
" id="DejaVuSans-32"/>
      </defs>
      <g transform="translate(107.253688 316.465937)scale(0.1 -0.1)">
       <use xlink:href="#DejaVuSans-30"/>
       <use x="63.623047" xlink:href="#DejaVuSans-2e"/>
       <use x="95.410156" xlink:href="#DejaVuSans-32"/>
      </g>
     </g>
    </g>
    <g id="xtick_3">
     <g id="line2d_3">
      <g>
       <use style="stroke:#000000;stroke-width:0.8;" x="186.62925" xlink:href="#maf9ba1a8c5" y="301.8675"/>
      </g>
     </g>
     <g id="text_3">
      <!-- 0.4 -->
      <defs>
       <path d="M 37.796875 64.3125 
L 12.890625 25.390625 
L 37.796875 25.390625 
z
M 35.203125 72.90625 
L 47.609375 72.90625 
L 47.609375 25.390625 
L 58.015625 25.390625 
L 58.015625 17.1875 
L 47.609375 17.1875 
L 47.609375 0 
L 37.796875 0 
L 37.796875 17.1875 
L 4.890625 17.1875 
L 4.890625 26.703125 
z
" id="DejaVuSans-34"/>
      </defs>
      <g transform="translate(178.677688 316.465937)scale(0.1 -0.1)">
       <use xlink:href="#DejaVuSans-30"/>
       <use x="63.623047" xlink:href="#DejaVuSans-2e"/>
       <use x="95.410156" xlink:href="#DejaVuSans-34"/>
      </g>
     </g>
    </g>
    <g id="xtick_4">
     <g id="line2d_4">
      <g>
       <use style="stroke:#000000;stroke-width:0.8;" x="258.05325" xlink:href="#maf9ba1a8c5" y="301.8675"/>
      </g>
     </g>
     <g id="text_4">
      <!-- 0.6 -->
      <defs>
       <path d="M 33.015625 40.375 
Q 26.375 40.375 22.484375 35.828125 
Q 18.609375 31.296875 18.609375 23.390625 
Q 18.609375 15.53125 22.484375 10.953125 
Q 26.375 6.390625 33.015625 6.390625 
Q 39.65625 6.390625 43.53125 10.953125 
Q 47.40625 15.53125 47.40625 23.390625 
Q 47.40625 31.296875 43.53125 35.828125 
Q 39.65625 40.375 33.015625 40.375 
M 52.59375 71.296875 
L 52.59375 62.3125 
Q 48.875 64.0625 45.09375 64.984375 
Q 41.3125 65.921875 37.59375 65.921875 
Q 27.828125 65.921875 22.671875 59.328125 
Q 17.53125 52.734375 16.796875 39.40625 
Q 19.671875 43.65625 24.015625 45.921875 
Q 28.375 48.1875 33.59375 48.1875 
Q 44.578125 48.1875 50.953125 41.515625 
Q 57.328125 34.859375 57.328125 23.390625 
Q 57.328125 12.15625 50.6875 5.359375 
Q 44.046875 -1.421875 33.015625 -1.421875 
Q 20.359375 -1.421875 13.671875 8.265625 
Q 6.984375 17.96875 6.984375 36.375 
Q 6.984375 53.65625 15.1875 63.9375 
Q 23.390625 74.21875 37.203125 74.21875 
Q 40.921875 74.21875 44.703125 73.484375 
Q 48.484375 72.75 52.59375 71.296875 
" id="DejaVuSans-36"/>
      </defs>
      <g transform="translate(250.101688 316.465937)scale(0.1 -0.1)">
       <use xlink:href="#DejaVuSans-30"/>
       <use x="63.623047" xlink:href="#DejaVuSans-2e"/>
       <use x="95.410156" xlink:href="#DejaVuSans-36"/>
      </g>
     </g>
    </g>
    <g id="xtick_5">
     <g id="line2d_5">
      <g>
       <use style="stroke:#000000;stroke-width:0.8;" x="329.47725" xlink:href="#maf9ba1a8c5" y="301.8675"/>
      </g>
     </g>
     <g id="text_5">
      <!-- 0.8 -->
      <defs>
       <path d="M 31.78125 34.625 
Q 24.75 34.625 20.71875 30.859375 
Q 16.703125 27.09375 16.703125 20.515625 
Q 16.703125 13.921875 20.71875 10.15625 
Q 24.75 6.390625 31.78125 6.390625 
Q 38.8125 6.390625 42.859375 10.171875 
Q 46.921875 13.96875 46.921875 20.515625 
Q 46.921875 27.09375 42.890625 30.859375 
Q 38.875 34.625 31.78125 34.625 
M 21.921875 38.8125 
Q 15.578125 40.375 12.03125 44.71875 
Q 8.5 49.078125 8.5 55.328125 
Q 8.5 64.0625 14.71875 69.140625 
Q 20.953125 74.21875 31.78125 74.21875 
Q 42.671875 74.21875 48.875 69.140625 
Q 55.078125 64.0625 55.078125 55.328125 
Q 55.078125 49.078125 51.53125 44.71875 
Q 48 40.375 41.703125 38.8125 
Q 48.828125 37.15625 52.796875 32.3125 
Q 56.78125 27.484375 56.78125 20.515625 
Q 56.78125 9.90625 50.3125 4.234375 
Q 43.84375 -1.421875 31.78125 -1.421875 
Q 19.734375 -1.421875 13.25 4.234375 
Q 6.78125 9.90625 6.78125 20.515625 
Q 6.78125 27.484375 10.78125 32.3125 
Q 14.796875 37.15625 21.921875 38.8125 
M 18.3125 54.390625 
Q 18.3125 48.734375 21.84375 45.5625 
Q 25.390625 42.390625 31.78125 42.390625 
Q 38.140625 42.390625 41.71875 45.5625 
Q 45.3125 48.734375 45.3125 54.390625 
Q 45.3125 60.0625 41.71875 63.234375 
Q 38.140625 66.40625 31.78125 66.40625 
Q 25.390625 66.40625 21.84375 63.234375 
Q 18.3125 60.0625 18.3125 54.390625 
" id="DejaVuSans-38"/>
      </defs>
      <g transform="translate(321.525688 316.465937)scale(0.1 -0.1)">
       <use xlink:href="#DejaVuSans-30"/>
       <use x="63.623047" xlink:href="#DejaVuSans-2e"/>
       <use x="95.410156" xlink:href="#DejaVuSans-38"/>
      </g>
     </g>
    </g>
    <g id="xtick_6">
     <g id="line2d_6">
      <g>
       <use style="stroke:#000000;stroke-width:0.8;" x="400.90125" xlink:href="#maf9ba1a8c5" y="301.8675"/>
      </g>
     </g>
     <g id="text_6">
      <!-- 1.0 -->
      <defs>
       <path d="M 12.40625 8.296875 
L 28.515625 8.296875 
L 28.515625 63.921875 
L 10.984375 60.40625 
L 10.984375 69.390625 
L 28.421875 72.90625 
L 38.28125 72.90625 
L 38.28125 8.296875 
L 54.390625 8.296875 
L 54.390625 0 
L 12.40625 0 
z
" id="DejaVuSans-31"/>
      </defs>
      <g transform="translate(392.949688 316.465937)scale(0.1 -0.1)">
       <use xlink:href="#DejaVuSans-31"/>
       <use x="63.623047" xlink:href="#DejaVuSans-2e"/>
       <use x="95.410156" xlink:href="#DejaVuSans-30"/>
      </g>
     </g>
    </g>
    <g id="text_7">
     <!-- False Positive Rate -->
     <defs>
      <path d="M 9.8125 72.90625 
L 51.703125 72.90625 
L 51.703125 64.59375 
L 19.671875 64.59375 
L 19.671875 43.109375 
L 48.578125 43.109375 
L 48.578125 34.8125 
L 19.671875 34.8125 
L 19.671875 0 
L 9.8125 0 
z
" id="DejaVuSans-46"/>
      <path d="M 34.28125 27.484375 
Q 23.390625 27.484375 19.1875 25 
Q 14.984375 22.515625 14.984375 16.5 
Q 14.984375 11.71875 18.140625 8.90625 
Q 21.296875 6.109375 26.703125 6.109375 
Q 34.1875 6.109375 38.703125 11.40625 
Q 43.21875 16.703125 43.21875 25.484375 
L 43.21875 27.484375 
z
M 52.203125 31.203125 
L 52.203125 0 
L 43.21875 0 
L 43.21875 8.296875 
Q 40.140625 3.328125 35.546875 0.953125 
Q 30.953125 -1.421875 24.3125 -1.421875 
Q 15.921875 -1.421875 10.953125 3.296875 
Q 6 8.015625 6 15.921875 
Q 6 25.140625 12.171875 29.828125 
Q 18.359375 34.515625 30.609375 34.515625 
L 43.21875 34.515625 
L 43.21875 35.40625 
Q 43.21875 41.609375 39.140625 45 
Q 35.0625 48.390625 27.6875 48.390625 
Q 23 48.390625 18.546875 47.265625 
Q 14.109375 46.140625 10.015625 43.890625 
L 10.015625 52.203125 
Q 14.9375 54.109375 19.578125 55.046875 
Q 24.21875 56 28.609375 56 
Q 40.484375 56 46.34375 49.84375 
Q 52.203125 43.703125 52.203125 31.203125 
" id="DejaVuSans-61"/>
      <path d="M 9.421875 75.984375 
L 18.40625 75.984375 
L 18.40625 0 
L 9.421875 0 
z
" id="DejaVuSans-6c"/>
      <path d="M 44.28125 53.078125 
L 44.28125 44.578125 
Q 40.484375 46.53125 36.375 47.5 
Q 32.28125 48.484375 27.875 48.484375 
Q 21.1875 48.484375 17.84375 46.4375 
Q 14.5 44.390625 14.5 40.28125 
Q 14.5 37.15625 16.890625 35.375 
Q 19.28125 33.59375 26.515625 31.984375 
L 29.59375 31.296875 
Q 39.15625 29.25 43.1875 25.515625 
Q 47.21875 21.78125 47.21875 15.09375 
Q 47.21875 7.46875 41.1875 3.015625 
Q 35.15625 -1.421875 24.609375 -1.421875 
Q 20.21875 -1.421875 15.453125 -0.5625 
Q 10.6875 0.296875 5.421875 2 
L 5.421875 11.28125 
Q 10.40625 8.6875 15.234375 7.390625 
Q 20.0625 6.109375 24.8125 6.109375 
Q 31.15625 6.109375 34.5625 8.28125 
Q 37.984375 10.453125 37.984375 14.40625 
Q 37.984375 18.0625 35.515625 20.015625 
Q 33.0625 21.96875 24.703125 23.78125 
L 21.578125 24.515625 
Q 13.234375 26.265625 9.515625 29.90625 
Q 5.8125 33.546875 5.8125 39.890625 
Q 5.8125 47.609375 11.28125 51.796875 
Q 16.75 56 26.8125 56 
Q 31.78125 56 36.171875 55.265625 
Q 40.578125 54.546875 44.28125 53.078125 
" id="DejaVuSans-73"/>
      <path d="M 56.203125 29.59375 
L 56.203125 25.203125 
L 14.890625 25.203125 
Q 15.484375 15.921875 20.484375 11.0625 
Q 25.484375 6.203125 34.421875 6.203125 
Q 39.59375 6.203125 44.453125 7.46875 
Q 49.3125 8.734375 54.109375 11.28125 
L 54.109375 2.78125 
Q 49.265625 0.734375 44.1875 -0.34375 
Q 39.109375 -1.421875 33.890625 -1.421875 
Q 20.796875 -1.421875 13.15625 6.1875 
Q 5.515625 13.8125 5.515625 26.8125 
Q 5.515625 40.234375 12.765625 48.109375 
Q 20.015625 56 32.328125 56 
Q 43.359375 56 49.78125 48.890625 
Q 56.203125 41.796875 56.203125 29.59375 
M 47.21875 32.234375 
Q 47.125 39.59375 43.09375 43.984375 
Q 39.0625 48.390625 32.421875 48.390625 
Q 24.90625 48.390625 20.390625 44.140625 
Q 15.875 39.890625 15.1875 32.171875 
z
" id="DejaVuSans-65"/>
      <path id="DejaVuSans-20"/>
      <path d="M 19.671875 64.796875 
L 19.671875 37.40625 
L 32.078125 37.40625 
Q 38.96875 37.40625 42.71875 40.96875 
Q 46.484375 44.53125 46.484375 51.125 
Q 46.484375 57.671875 42.71875 61.234375 
Q 38.96875 64.796875 32.078125 64.796875 
z
M 9.8125 72.90625 
L 32.078125 72.90625 
Q 44.34375 72.90625 50.609375 67.359375 
Q 56.890625 61.8125 56.890625 51.125 
Q 56.890625 40.328125 50.609375 34.8125 
Q 44.34375 29.296875 32.078125 29.296875 
L 19.671875 29.296875 
L 19.671875 0 
L 9.8125 0 
z
" id="DejaVuSans-50"/>
      <path d="M 30.609375 48.390625 
Q 23.390625 48.390625 19.1875 42.75 
Q 14.984375 37.109375 14.984375 27.296875 
Q 14.984375 17.484375 19.15625 11.84375 
Q 23.34375 6.203125 30.609375 6.203125 
Q 37.796875 6.203125 41.984375 11.859375 
Q 46.1875 17.53125 46.1875 27.296875 
Q 46.1875 37.015625 41.984375 42.703125 
Q 37.796875 48.390625 30.609375 48.390625 
M 30.609375 56 
Q 42.328125 56 49.015625 48.375 
Q 55.71875 40.765625 55.71875 27.296875 
Q 55.71875 13.875 49.015625 6.21875 
Q 42.328125 -1.421875 30.609375 -1.421875 
Q 18.84375 -1.421875 12.171875 6.21875 
Q 5.515625 13.875 5.515625 27.296875 
Q 5.515625 40.765625 12.171875 48.375 
Q 18.84375 56 30.609375 56 
" id="DejaVuSans-6f"/>
      <path d="M 9.421875 54.6875 
L 18.40625 54.6875 
L 18.40625 0 
L 9.421875 0 
z
M 9.421875 75.984375 
L 18.40625 75.984375 
L 18.40625 64.59375 
L 9.421875 64.59375 
z
" id="DejaVuSans-69"/>
      <path d="M 18.3125 70.21875 
L 18.3125 54.6875 
L 36.8125 54.6875 
L 36.8125 47.703125 
L 18.3125 47.703125 
L 18.3125 18.015625 
Q 18.3125 11.328125 20.140625 9.421875 
Q 21.96875 7.515625 27.59375 7.515625 
L 36.8125 7.515625 
L 36.8125 0 
L 27.59375 0 
Q 17.1875 0 13.234375 3.875 
Q 9.28125 7.765625 9.28125 18.015625 
L 9.28125 47.703125 
L 2.6875 47.703125 
L 2.6875 54.6875 
L 9.28125 54.6875 
L 9.28125 70.21875 
z
" id="DejaVuSans-74"/>
      <path d="M 2.984375 54.6875 
L 12.5 54.6875 
L 29.59375 8.796875 
L 46.6875 54.6875 
L 56.203125 54.6875 
L 35.6875 0 
L 23.484375 0 
z
" id="DejaVuSans-76"/>
      <path d="M 44.390625 34.1875 
Q 47.5625 33.109375 50.5625 29.59375 
Q 53.5625 26.078125 56.59375 19.921875 
L 66.609375 0 
L 56 0 
L 46.6875 18.703125 
Q 43.0625 26.03125 39.671875 28.421875 
Q 36.28125 30.8125 30.421875 30.8125 
L 19.671875 30.8125 
L 19.671875 0 
L 9.8125 0 
L 9.8125 72.90625 
L 32.078125 72.90625 
Q 44.578125 72.90625 50.734375 67.671875 
Q 56.890625 62.453125 56.890625 51.90625 
Q 56.890625 45.015625 53.6875 40.46875 
Q 50.484375 35.9375 44.390625 34.1875 
M 19.671875 64.796875 
L 19.671875 38.921875 
L 32.078125 38.921875 
Q 39.203125 38.921875 42.84375 42.21875 
Q 46.484375 45.515625 46.484375 51.90625 
Q 46.484375 58.296875 42.84375 61.546875 
Q 39.203125 64.796875 32.078125 64.796875 
z
" id="DejaVuSans-52"/>
     </defs>
     <g transform="translate(175.135781 330.144062)scale(0.1 -0.1)">
      <use xlink:href="#DejaVuSans-46"/>
      <use x="57.378906" xlink:href="#DejaVuSans-61"/>
      <use x="118.658203" xlink:href="#DejaVuSans-6c"/>
      <use x="146.441406" xlink:href="#DejaVuSans-73"/>
      <use x="198.541016" xlink:href="#DejaVuSans-65"/>
      <use x="260.064453" xlink:href="#DejaVuSans-20"/>
      <use x="291.851562" xlink:href="#DejaVuSans-50"/>
      <use x="352.107422" xlink:href="#DejaVuSans-6f"/>
      <use x="413.289062" xlink:href="#DejaVuSans-73"/>
      <use x="465.388672" xlink:href="#DejaVuSans-69"/>
      <use x="493.171875" xlink:href="#DejaVuSans-74"/>
      <use x="532.380859" xlink:href="#DejaVuSans-69"/>
      <use x="560.164062" xlink:href="#DejaVuSans-76"/>
      <use x="619.34375" xlink:href="#DejaVuSans-65"/>
      <use x="680.867188" xlink:href="#DejaVuSans-20"/>
      <use x="712.654297" xlink:href="#DejaVuSans-52"/>
      <use x="782.105469" xlink:href="#DejaVuSans-61"/>
      <use x="843.384766" xlink:href="#DejaVuSans-74"/>
      <use x="882.59375" xlink:href="#DejaVuSans-65"/>
     </g>
    </g>
   </g>
   <g id="matplotlib.axis_2">
    <g id="ytick_1">
     <g id="line2d_7">
      <defs>
       <path d="M 0 0 
L -3.5 0 
" id="mb2d6ddfb19" style="stroke:#000000;stroke-width:0.8;"/>
      </defs>
      <g>
       <use style="stroke:#000000;stroke-width:0.8;" x="43.78125" xlink:href="#mb2d6ddfb19" y="301.8675"/>
      </g>
     </g>
     <g id="text_8">
      <!-- 0.0 -->
      <g transform="translate(20.878125 305.666719)scale(0.1 -0.1)">
       <use xlink:href="#DejaVuSans-30"/>
       <use x="63.623047" xlink:href="#DejaVuSans-2e"/>
       <use x="95.410156" xlink:href="#DejaVuSans-30"/>
      </g>
     </g>
    </g>
    <g id="ytick_2">
     <g id="line2d_8">
      <g>
       <use style="stroke:#000000;stroke-width:0.8;" x="43.78125" xlink:href="#mb2d6ddfb19" y="251.1795"/>
      </g>
     </g>
     <g id="text_9">
      <!-- 0.2 -->
      <g transform="translate(20.878125 254.978719)scale(0.1 -0.1)">
       <use xlink:href="#DejaVuSans-30"/>
       <use x="63.623047" xlink:href="#DejaVuSans-2e"/>
       <use x="95.410156" xlink:href="#DejaVuSans-32"/>
      </g>
     </g>
    </g>
    <g id="ytick_3">
     <g id="line2d_9">
      <g>
       <use style="stroke:#000000;stroke-width:0.8;" x="43.78125" xlink:href="#mb2d6ddfb19" y="200.4915"/>
      </g>
     </g>
     <g id="text_10">
      <!-- 0.4 -->
      <g transform="translate(20.878125 204.290719)scale(0.1 -0.1)">
       <use xlink:href="#DejaVuSans-30"/>
       <use x="63.623047" xlink:href="#DejaVuSans-2e"/>
       <use x="95.410156" xlink:href="#DejaVuSans-34"/>
      </g>
     </g>
    </g>
    <g id="ytick_4">
     <g id="line2d_10">
      <g>
       <use style="stroke:#000000;stroke-width:0.8;" x="43.78125" xlink:href="#mb2d6ddfb19" y="149.8035"/>
      </g>
     </g>
     <g id="text_11">
      <!-- 0.6 -->
      <g transform="translate(20.878125 153.602719)scale(0.1 -0.1)">
       <use xlink:href="#DejaVuSans-30"/>
       <use x="63.623047" xlink:href="#DejaVuSans-2e"/>
       <use x="95.410156" xlink:href="#DejaVuSans-36"/>
      </g>
     </g>
    </g>
    <g id="ytick_5">
     <g id="line2d_11">
      <g>
       <use style="stroke:#000000;stroke-width:0.8;" x="43.78125" xlink:href="#mb2d6ddfb19" y="99.1155"/>
      </g>
     </g>
     <g id="text_12">
      <!-- 0.8 -->
      <g transform="translate(20.878125 102.914719)scale(0.1 -0.1)">
       <use xlink:href="#DejaVuSans-30"/>
       <use x="63.623047" xlink:href="#DejaVuSans-2e"/>
       <use x="95.410156" xlink:href="#DejaVuSans-38"/>
      </g>
     </g>
    </g>
    <g id="ytick_6">
     <g id="line2d_12">
      <g>
       <use style="stroke:#000000;stroke-width:0.8;" x="43.78125" xlink:href="#mb2d6ddfb19" y="48.4275"/>
      </g>
     </g>
     <g id="text_13">
      <!-- 1.0 -->
      <g transform="translate(20.878125 52.226719)scale(0.1 -0.1)">
       <use xlink:href="#DejaVuSans-31"/>
       <use x="63.623047" xlink:href="#DejaVuSans-2e"/>
       <use x="95.410156" xlink:href="#DejaVuSans-30"/>
      </g>
     </g>
    </g>
    <g id="text_14">
     <!-- True Positive Rate -->
     <defs>
      <path d="M -0.296875 72.90625 
L 61.375 72.90625 
L 61.375 64.59375 
L 35.5 64.59375 
L 35.5 0 
L 25.59375 0 
L 25.59375 64.59375 
L -0.296875 64.59375 
z
" id="DejaVuSans-54"/>
      <path d="M 41.109375 46.296875 
Q 39.59375 47.171875 37.8125 47.578125 
Q 36.03125 48 33.890625 48 
Q 26.265625 48 22.1875 43.046875 
Q 18.109375 38.09375 18.109375 28.8125 
L 18.109375 0 
L 9.078125 0 
L 9.078125 54.6875 
L 18.109375 54.6875 
L 18.109375 46.1875 
Q 20.953125 51.171875 25.484375 53.578125 
Q 30.03125 56 36.53125 56 
Q 37.453125 56 38.578125 55.875 
Q 39.703125 55.765625 41.0625 55.515625 
z
" id="DejaVuSans-72"/>
      <path d="M 8.5 21.578125 
L 8.5 54.6875 
L 17.484375 54.6875 
L 17.484375 21.921875 
Q 17.484375 14.15625 20.5 10.265625 
Q 23.53125 6.390625 29.59375 6.390625 
Q 36.859375 6.390625 41.078125 11.03125 
Q 45.3125 15.671875 45.3125 23.6875 
L 45.3125 54.6875 
L 54.296875 54.6875 
L 54.296875 0 
L 45.3125 0 
L 45.3125 8.40625 
Q 42.046875 3.421875 37.71875 1 
Q 33.40625 -1.421875 27.6875 -1.421875 
Q 18.265625 -1.421875 13.375 4.4375 
Q 8.5 10.296875 8.5 21.578125 
M 31.109375 56 
z
" id="DejaVuSans-75"/>
     </defs>
     <g transform="translate(14.798438 214.357594)rotate(-90)scale(0.1 -0.1)">
      <use xlink:href="#DejaVuSans-54"/>
      <use x="60.865234" xlink:href="#DejaVuSans-72"/>
      <use x="101.978516" xlink:href="#DejaVuSans-75"/>
      <use x="165.357422" xlink:href="#DejaVuSans-65"/>
      <use x="226.880859" xlink:href="#DejaVuSans-20"/>
      <use x="258.667969" xlink:href="#DejaVuSans-50"/>
      <use x="318.923828" xlink:href="#DejaVuSans-6f"/>
      <use x="380.105469" xlink:href="#DejaVuSans-73"/>
      <use x="432.205078" xlink:href="#DejaVuSans-69"/>
      <use x="459.988281" xlink:href="#DejaVuSans-74"/>
      <use x="499.197266" xlink:href="#DejaVuSans-69"/>
      <use x="526.980469" xlink:href="#DejaVuSans-76"/>
      <use x="586.160156" xlink:href="#DejaVuSans-65"/>
      <use x="647.683594" xlink:href="#DejaVuSans-20"/>
      <use x="679.470703" xlink:href="#DejaVuSans-52"/>
      <use x="748.921875" xlink:href="#DejaVuSans-61"/>
      <use x="810.201172" xlink:href="#DejaVuSans-74"/>
      <use x="849.410156" xlink:href="#DejaVuSans-65"/>
     </g>
    </g>
   </g>
   <g id="line2d_13">
    <path clip-path="url(#pbc45a9fedf)" d="M 43.78125 301.8675 
L 44.254549 301.8675 
L 44.380762 299.990167 
L 44.696295 299.990167 
L 44.822508 298.112833 
L 45.138041 298.112833 
L 45.138041 277.462167 
L 45.264254 275.584833 
L 45.579787 275.584833 
L 45.579787 266.198167 
L 46.526385 266.198167 
L 46.652598 264.320833 
L 48.072496 264.320833 
L 48.324922 260.566167 
L 49.27152 260.566167 
L 49.523947 256.8115 
L 49.839479 256.8115 
L 49.965692 254.934167 
L 50.596758 254.934167 
L 50.691418 251.1795 
L 52.742381 251.1795 
L 52.837041 247.424833 
L 53.152574 247.424833 
L 53.405 243.670167 
L 53.405 241.792833 
L 53.720533 241.792833 
L 53.720533 236.160833 
L 54.351598 236.160833 
L 54.477811 234.2835 
L 54.635578 234.2835 
L 54.824897 226.774167 
L 57.664692 226.774167 
L 57.759352 223.0195 
L 58.863717 223.0195 
L 58.98993 221.142167 
L 64.196221 221.142167 
L 64.417094 215.510167 
L 65.679225 215.510167 
L 65.868545 208.000833 
L 69.181639 208.000833 
L 69.370958 200.4915 
L 70.317557 200.4915 
L 70.317557 196.736833 
L 71.895221 196.736833 
L 72.021434 194.8595 
L 78.332089 194.8595 
L 78.458302 192.982167 
L 80.509266 192.982167 
L 80.730138 187.350167 
L 81.361204 187.350167 
L 81.550524 179.840833 
L 87.703413 179.840833 
L 87.829626 177.9635 
L 92.878151 177.9635 
L 93.004364 176.086167 
L 93.477663 176.086167 
L 93.477663 172.3315 
L 94.424261 172.3315 
L 94.518921 168.576833 
L 94.676687 168.576833 
L 94.676687 166.6995 
L 94.8029 164.822167 
L 100.324724 164.822167 
L 100.324724 161.0675 
L 101.113556 161.0675 
L 101.239769 159.190167 
L 101.555302 159.190167 
L 101.555302 157.312833 
L 102.5019 157.312833 
L 102.5019 153.558167 
L 107.077126 153.558167 
L 107.203339 151.680833 
L 110.043134 151.680833 
L 110.169347 149.8035 
L 111.431478 149.8035 
L 111.683904 146.048833 
L 115.78583 146.048833 
L 115.88049 142.294167 
L 117.931453 142.294167 
L 118.152326 136.662167 
L 118.783392 136.662167 
L 118.878052 132.9075 
L 119.035818 132.9075 
L 119.035818 129.152833 
L 120.771248 129.152833 
L 120.897461 127.2755 
L 123.106191 127.2755 
L 123.200851 123.520833 
L 123.67415 123.520833 
L 123.67415 121.6435 
L 123.800363 119.766167 
L 126.797924 119.766167 
L 126.797924 110.3795 
L 132.004215 110.3795 
L 132.256641 106.624833 
L 133.361006 106.624833 
L 133.550326 99.1155 
L 136.705654 99.1155 
L 136.800313 95.360833 
L 145.161932 95.360833 
L 145.161932 93.4835 
L 147.686194 93.4835 
L 147.686194 91.606167 
L 162.516235 91.606167 
L 162.642448 89.728833 
L 178.73462 89.728833 
L 178.73462 80.342167 
L 181.101116 80.342167 
L 181.227329 78.464833 
L 182.962759 78.464833 
L 182.962759 76.5875 
L 190.693312 76.5875 
L 190.819525 74.710167 
L 216.75632 74.710167 
L 216.882533 72.832833 
L 224.297553 72.832833 
L 224.392213 69.078167 
L 231.049955 69.078167 
L 231.113061 63.446167 
L 243.261073 63.446167 
L 243.450393 61.568833 
L 265.379921 61.568833 
L 265.474581 57.814167 
L 271.154171 57.814167 
L 271.280384 55.936833 
L 330.285014 55.936833 
L 330.285014 54.0595 
L 351.583477 54.0595 
L 351.70969 52.182167 
L 356.915981 52.182167 
L 356.915981 50.304833 
L 386.418295 50.304833 
L 386.544509 48.4275 
L 400.90125 48.4275 
L 400.90125 48.4275 
" style="fill:none;stroke:#1f77b4;stroke-linecap:square;stroke-width:1.5;"/>
   </g>
   <g id="line2d_14">
    <path clip-path="url(#pbc45a9fedf)" d="M 43.78125 301.8675 
L 44.50704 301.8675 
L 44.791044 299.976157 
L 47.78887 299.976157 
L 52.269832 248.909888 
L 55.867223 218.648396 
L 56.025004 218.648396 
L 56.151228 216.757052 
L 57.476583 201.626306 
L 57.760587 199.734963 
L 58.391709 199.734963 
L 58.517933 195.952276 
L 58.770381 194.060933 
L 60.442853 194.060933 
L 61.010862 186.49556 
L 61.484203 186.49556 
L 61.610427 184.604216 
L 63.03045 184.604216 
L 63.125119 180.82153 
L 63.440679 180.82153 
L 63.882464 178.930187 
L 64.198025 178.930187 
L 64.482029 177.038843 
L 66.280725 177.038843 
L 66.280725 175.1475 
L 67.826972 175.1475 
L 67.921641 169.47347 
L 68.237201 169.47347 
L 68.237201 167.582127 
L 68.363425 167.582127 
L 68.363425 165.690784 
L 69.152327 165.690784 
L 69.436332 163.79944 
L 69.594112 163.79944 
L 69.720336 161.908097 
L 70.951023 161.908097 
L 71.045691 158.12541 
L 75.14798 158.12541 
L 75.747545 154.342724 
L 78.11425 154.342724 
L 78.366698 150.560037 
L 78.682259 150.560037 
L 78.808483 148.668694 
L 85.593038 148.668694 
L 85.719262 146.777351 
L 87.928186 146.777351 
L 88.433084 139.211978 
L 90.768232 139.211978 
L 90.894457 137.320634 
L 91.210017 137.320634 
L 91.304686 133.537948 
L 96.826997 133.537948 
L 96.826997 131.646604 
L 105.662696 131.646604 
L 105.852032 124.081231 
L 110.112101 124.081231 
L 110.206769 120.298545 
L 131.948899 120.298545 
L 132.075123 118.407201 
L 133.495146 118.407201 
L 134.094711 116.515858 
L 134.220935 114.624515 
L 146.05446 114.624515 
L 146.149128 110.841828 
L 154.353706 110.841828 
L 154.448374 107.059142 
L 157.60398 107.059142 
L 157.60398 103.276455 
L 157.793317 95.711082 
L 171.993547 95.711082 
L 172.088215 91.928396 
L 176.032723 91.928396 
L 176.032723 88.145709 
L 195.755264 88.145709 
L 195.944601 80.580336 
L 227.027326 80.580336 
L 227.027326 78.688993 
L 227.658447 78.688993 
L 227.658447 74.906306 
L 231.287395 74.906306 
L 231.508287 69.232276 
L 234.821674 69.232276 
L 234.916342 65.44959 
L 263.001241 65.44959 
L 263.127465 63.558246 
L 266.756413 63.558246 
L 267.324422 59.77556 
L 323.588888 59.77556 
L 323.715112 57.884216 
L 328.764083 57.884216 
L 328.890307 55.992873 
L 387.174361 55.992873 
L 387.174361 54.10153 
L 399.165666 54.10153 
L 399.165666 48.4275 
L 400.90125 48.4275 
L 400.90125 48.4275 
" style="fill:none;stroke:#ff7f0e;stroke-linecap:square;stroke-width:1.5;"/>
   </g>
   <g id="line2d_15">
    <path clip-path="url(#pbc45a9fedf)" d="M 43.78125 301.8675 
L 43.875918 301.8675 
L 43.970586 301.8675 
L 44.096811 299.976157 
L 44.854156 299.976157 
L 44.980381 298.084813 
L 45.264385 296.19347 
L 45.832394 296.19347 
L 45.958619 294.302127 
L 46.43196 294.302127 
L 46.526628 290.51944 
L 47.315529 290.51944 
L 47.567978 286.736754 
L 48.009763 286.736754 
L 48.135987 284.84541 
L 48.293767 284.84541 
L 49.966239 267.823321 
L 55.109878 267.823321 
L 55.236102 265.931978 
L 56.025004 265.931978 
L 56.119672 262.149291 
L 57.350358 262.149291 
L 57.445027 258.366604 
L 58.549489 258.366604 
L 58.801937 254.583918 
L 59.275278 254.583918 
L 59.401503 252.692575 
L 61.294867 252.692575 
L 61.389535 248.909888 
L 62.967338 248.909888 
L 63.093562 247.018545 
L 63.566903 247.018545 
L 63.693128 245.127201 
L 64.79759 245.127201 
L 64.892258 241.344515 
L 65.207819 241.344515 
L 65.302487 237.561828 
L 67.038071 237.561828 
L 67.164295 235.670485 
L 67.953197 235.670485 
L 68.205645 231.887799 
L 70.73013 231.887799 
L 71.014135 229.996455 
L 72.118597 229.996455 
L 72.307934 222.431082 
L 73.412396 222.431082 
L 73.664845 218.648396 
L 73.759513 214.865709 
L 74.075073 214.865709 
L 74.327522 211.083022 
L 74.643083 211.083022 
L 74.832419 203.517649 
L 75.30576 203.517649 
L 75.431984 201.626306 
L 75.589765 201.626306 
L 75.715989 199.734963 
L 76.34711 199.734963 
L 76.473334 197.843619 
L 77.893357 197.843619 
L 78.145806 194.060933 
L 78.429811 192.16959 
L 78.903152 192.16959 
L 78.99782 188.386903 
L 79.786721 188.386903 
L 80.070726 186.49556 
L 81.80631 186.49556 
L 82.027202 180.82153 
L 82.500543 180.82153 
L 82.784548 178.930187 
L 84.204571 178.930187 
L 84.330795 177.038843 
L 86.85528 177.038843 
L 87.107729 173.256157 
L 88.369971 173.256157 
L 88.559308 165.690784 
L 89.979331 165.690784 
L 90.263335 163.79944 
L 90.736676 163.79944 
L 90.831345 160.016754 
L 90.989125 160.016754 
L 91.241573 156.234067 
L 91.872695 156.234067 
L 91.998919 154.342724 
L 93.103381 154.342724 
L 93.35583 150.560037 
L 94.144731 150.560037 
L 94.270956 148.668694 
L 96.3221 148.668694 
L 96.448324 146.777351 
L 97.710567 146.777351 
L 97.836791 144.886007 
L 104.463565 144.886007 
L 104.589789 142.994664 
L 109.79654 142.994664 
L 109.891208 139.211978 
L 111.469012 139.211978 
L 111.56368 135.429291 
L 113.299264 135.429291 
L 113.551712 131.646604 
L 117.969561 131.646604 
L 118.095786 129.755261 
L 119.358028 129.755261 
L 119.610477 125.972575 
L 124.501667 125.972575 
L 124.627891 124.081231 
L 124.785672 124.081231 
L 124.88034 120.298545 
L 125.984802 120.298545 
L 126.111026 118.407201 
L 126.899928 118.407201 
L 127.026152 116.515858 
L 131.128441 116.515858 
L 131.317777 108.950485 
L 131.791118 108.950485 
L 131.917343 107.059142 
L 138.070775 107.059142 
L 138.165444 103.276455 
L 144.634437 103.276455 
L 144.918442 101.385112 
L 146.496245 101.385112 
L 146.622469 99.493769 
L 152.460342 99.493769 
L 152.649678 91.928396 
L 153.43858 91.928396 
L 153.564804 90.037052 
L 156.56263 90.037052 
L 156.846635 88.145709 
L 157.319976 88.145709 
L 157.540868 82.471679 
L 167.007688 82.471679 
L 167.133912 80.580336 
L 169.658398 80.580336 
L 169.784622 78.688993 
L 176.253615 78.688993 
L 176.53762 76.797649 
L 179.693227 76.797649 
L 179.819451 74.906306 
L 181.712815 74.906306 
L 181.839039 73.014963 
L 190.485401 73.014963 
L 190.611626 71.123619 
L 192.50499 71.123619 
L 192.757438 67.340933 
L 197.333068 67.340933 
L 197.585516 63.558246 
L 199.952221 63.558246 
L 200.078445 61.666903 
L 204.654075 61.666903 
L 204.780299 59.77556 
L 216.613824 59.77556 
L 216.740048 57.884216 
L 220.211216 57.884216 
L 220.33744 55.992873 
L 221.126341 55.992873 
L 221.252566 54.10153 
L 228.510461 54.10153 
L 228.636685 52.210187 
L 239.207967 52.210187 
L 239.334192 50.318843 
L 260.161195 50.318843 
L 260.287419 48.4275 
L 400.90125 48.4275 
L 400.90125 48.4275 
" style="fill:none;stroke:#2ca02c;stroke-linecap:square;stroke-width:1.5;"/>
   </g>
   <g id="line2d_16">
    <path clip-path="url(#pbc45a9fedf)" d="M 43.78125 301.8675 
L 400.90125 48.4275 
" style="fill:none;stroke:#000000;stroke-dasharray:5.6,2.4;stroke-dashoffset:0;stroke-width:1.5;"/>
   </g>
   <g id="patch_3">
    <path d="M 43.78125 301.8675 
L 43.78125 35.7555 
" style="fill:none;stroke:#000000;stroke-linecap:square;stroke-linejoin:miter;stroke-width:0.8;"/>
   </g>
   <g id="patch_4">
    <path d="M 400.90125 301.8675 
L 400.90125 35.7555 
" style="fill:none;stroke:#000000;stroke-linecap:square;stroke-linejoin:miter;stroke-width:0.8;"/>
   </g>
   <g id="patch_5">
    <path d="M 43.78125 301.8675 
L 400.90125 301.8675 
" style="fill:none;stroke:#000000;stroke-linecap:square;stroke-linejoin:miter;stroke-width:0.8;"/>
   </g>
   <g id="patch_6">
    <path d="M 43.78125 35.7555 
L 400.90125 35.7555 
" style="fill:none;stroke:#000000;stroke-linecap:square;stroke-linejoin:miter;stroke-width:0.8;"/>
   </g>
   <g id="text_15">
    <!-- ROC Curve GradientBoosting + RandomOverSampler -->
    <defs>
     <path d="M 39.40625 66.21875 
Q 28.65625 66.21875 22.328125 58.203125 
Q 16.015625 50.203125 16.015625 36.375 
Q 16.015625 22.609375 22.328125 14.59375 
Q 28.65625 6.59375 39.40625 6.59375 
Q 50.140625 6.59375 56.421875 14.59375 
Q 62.703125 22.609375 62.703125 36.375 
Q 62.703125 50.203125 56.421875 58.203125 
Q 50.140625 66.21875 39.40625 66.21875 
M 39.40625 74.21875 
Q 54.734375 74.21875 63.90625 63.9375 
Q 73.09375 53.65625 73.09375 36.375 
Q 73.09375 19.140625 63.90625 8.859375 
Q 54.734375 -1.421875 39.40625 -1.421875 
Q 24.03125 -1.421875 14.8125 8.828125 
Q 5.609375 19.09375 5.609375 36.375 
Q 5.609375 53.65625 14.8125 63.9375 
Q 24.03125 74.21875 39.40625 74.21875 
" id="DejaVuSans-4f"/>
     <path d="M 64.40625 67.28125 
L 64.40625 56.890625 
Q 59.421875 61.53125 53.78125 63.8125 
Q 48.140625 66.109375 41.796875 66.109375 
Q 29.296875 66.109375 22.65625 58.46875 
Q 16.015625 50.828125 16.015625 36.375 
Q 16.015625 21.96875 22.65625 14.328125 
Q 29.296875 6.6875 41.796875 6.6875 
Q 48.140625 6.6875 53.78125 8.984375 
Q 59.421875 11.28125 64.40625 15.921875 
L 64.40625 5.609375 
Q 59.234375 2.09375 53.4375 0.328125 
Q 47.65625 -1.421875 41.21875 -1.421875 
Q 24.65625 -1.421875 15.125 8.703125 
Q 5.609375 18.84375 5.609375 36.375 
Q 5.609375 53.953125 15.125 64.078125 
Q 24.65625 74.21875 41.21875 74.21875 
Q 47.75 74.21875 53.53125 72.484375 
Q 59.328125 70.75 64.40625 67.28125 
" id="DejaVuSans-43"/>
     <path d="M 59.515625 10.40625 
L 59.515625 29.984375 
L 43.40625 29.984375 
L 43.40625 38.09375 
L 69.28125 38.09375 
L 69.28125 6.78125 
Q 63.578125 2.734375 56.6875 0.65625 
Q 49.8125 -1.421875 42 -1.421875 
Q 24.90625 -1.421875 15.25 8.5625 
Q 5.609375 18.5625 5.609375 36.375 
Q 5.609375 54.25 15.25 64.234375 
Q 24.90625 74.21875 42 74.21875 
Q 49.125 74.21875 55.546875 72.453125 
Q 61.96875 70.703125 67.390625 67.28125 
L 67.390625 56.78125 
Q 61.921875 61.421875 55.765625 63.765625 
Q 49.609375 66.109375 42.828125 66.109375 
Q 29.4375 66.109375 22.71875 58.640625 
Q 16.015625 51.171875 16.015625 36.375 
Q 16.015625 21.625 22.71875 14.15625 
Q 29.4375 6.6875 42.828125 6.6875 
Q 48.046875 6.6875 52.140625 7.59375 
Q 56.25 8.5 59.515625 10.40625 
" id="DejaVuSans-47"/>
     <path d="M 45.40625 46.390625 
L 45.40625 75.984375 
L 54.390625 75.984375 
L 54.390625 0 
L 45.40625 0 
L 45.40625 8.203125 
Q 42.578125 3.328125 38.25 0.953125 
Q 33.9375 -1.421875 27.875 -1.421875 
Q 17.96875 -1.421875 11.734375 6.484375 
Q 5.515625 14.40625 5.515625 27.296875 
Q 5.515625 40.1875 11.734375 48.09375 
Q 17.96875 56 27.875 56 
Q 33.9375 56 38.25 53.625 
Q 42.578125 51.265625 45.40625 46.390625 
M 14.796875 27.296875 
Q 14.796875 17.390625 18.875 11.75 
Q 22.953125 6.109375 30.078125 6.109375 
Q 37.203125 6.109375 41.296875 11.75 
Q 45.40625 17.390625 45.40625 27.296875 
Q 45.40625 37.203125 41.296875 42.84375 
Q 37.203125 48.484375 30.078125 48.484375 
Q 22.953125 48.484375 18.875 42.84375 
Q 14.796875 37.203125 14.796875 27.296875 
" id="DejaVuSans-64"/>
     <path d="M 54.890625 33.015625 
L 54.890625 0 
L 45.90625 0 
L 45.90625 32.71875 
Q 45.90625 40.484375 42.875 44.328125 
Q 39.84375 48.1875 33.796875 48.1875 
Q 26.515625 48.1875 22.3125 43.546875 
Q 18.109375 38.921875 18.109375 30.90625 
L 18.109375 0 
L 9.078125 0 
L 9.078125 54.6875 
L 18.109375 54.6875 
L 18.109375 46.1875 
Q 21.34375 51.125 25.703125 53.5625 
Q 30.078125 56 35.796875 56 
Q 45.21875 56 50.046875 50.171875 
Q 54.890625 44.34375 54.890625 33.015625 
" id="DejaVuSans-6e"/>
     <path d="M 19.671875 34.8125 
L 19.671875 8.109375 
L 35.5 8.109375 
Q 43.453125 8.109375 47.28125 11.40625 
Q 51.125 14.703125 51.125 21.484375 
Q 51.125 28.328125 47.28125 31.5625 
Q 43.453125 34.8125 35.5 34.8125 
z
M 19.671875 64.796875 
L 19.671875 42.828125 
L 34.28125 42.828125 
Q 41.5 42.828125 45.03125 45.53125 
Q 48.578125 48.25 48.578125 53.8125 
Q 48.578125 59.328125 45.03125 62.0625 
Q 41.5 64.796875 34.28125 64.796875 
z
M 9.8125 72.90625 
L 35.015625 72.90625 
Q 46.296875 72.90625 52.390625 68.21875 
Q 58.5 63.53125 58.5 54.890625 
Q 58.5 48.1875 55.375 44.234375 
Q 52.25 40.28125 46.1875 39.3125 
Q 53.46875 37.75 57.5 32.78125 
Q 61.53125 27.828125 61.53125 20.40625 
Q 61.53125 10.640625 54.890625 5.3125 
Q 48.25 0 35.984375 0 
L 9.8125 0 
z
" id="DejaVuSans-42"/>
     <path d="M 45.40625 27.984375 
Q 45.40625 37.75 41.375 43.109375 
Q 37.359375 48.484375 30.078125 48.484375 
Q 22.859375 48.484375 18.828125 43.109375 
Q 14.796875 37.75 14.796875 27.984375 
Q 14.796875 18.265625 18.828125 12.890625 
Q 22.859375 7.515625 30.078125 7.515625 
Q 37.359375 7.515625 41.375 12.890625 
Q 45.40625 18.265625 45.40625 27.984375 
M 54.390625 6.78125 
Q 54.390625 -7.171875 48.1875 -13.984375 
Q 42 -20.796875 29.203125 -20.796875 
Q 24.46875 -20.796875 20.265625 -20.09375 
Q 16.0625 -19.390625 12.109375 -17.921875 
L 12.109375 -9.1875 
Q 16.0625 -11.328125 19.921875 -12.34375 
Q 23.78125 -13.375 27.78125 -13.375 
Q 36.625 -13.375 41.015625 -8.765625 
Q 45.40625 -4.15625 45.40625 5.171875 
L 45.40625 9.625 
Q 42.625 4.78125 38.28125 2.390625 
Q 33.9375 0 27.875 0 
Q 17.828125 0 11.671875 7.65625 
Q 5.515625 15.328125 5.515625 27.984375 
Q 5.515625 40.671875 11.671875 48.328125 
Q 17.828125 56 27.875 56 
Q 33.9375 56 38.28125 53.609375 
Q 42.625 51.21875 45.40625 46.390625 
L 45.40625 54.6875 
L 54.390625 54.6875 
z
" id="DejaVuSans-67"/>
     <path d="M 46 62.703125 
L 46 35.5 
L 73.1875 35.5 
L 73.1875 27.203125 
L 46 27.203125 
L 46 0 
L 37.796875 0 
L 37.796875 27.203125 
L 10.59375 27.203125 
L 10.59375 35.5 
L 37.796875 35.5 
L 37.796875 62.703125 
z
" id="DejaVuSans-2b"/>
     <path d="M 52 44.1875 
Q 55.375 50.25 60.0625 53.125 
Q 64.75 56 71.09375 56 
Q 79.640625 56 84.28125 50.015625 
Q 88.921875 44.046875 88.921875 33.015625 
L 88.921875 0 
L 79.890625 0 
L 79.890625 32.71875 
Q 79.890625 40.578125 77.09375 44.375 
Q 74.3125 48.1875 68.609375 48.1875 
Q 61.625 48.1875 57.5625 43.546875 
Q 53.515625 38.921875 53.515625 30.90625 
L 53.515625 0 
L 44.484375 0 
L 44.484375 32.71875 
Q 44.484375 40.625 41.703125 44.40625 
Q 38.921875 48.1875 33.109375 48.1875 
Q 26.21875 48.1875 22.15625 43.53125 
Q 18.109375 38.875 18.109375 30.90625 
L 18.109375 0 
L 9.078125 0 
L 9.078125 54.6875 
L 18.109375 54.6875 
L 18.109375 46.1875 
Q 21.1875 51.21875 25.484375 53.609375 
Q 29.78125 56 35.6875 56 
Q 41.65625 56 45.828125 52.96875 
Q 50 49.953125 52 44.1875 
" id="DejaVuSans-6d"/>
     <path d="M 53.515625 70.515625 
L 53.515625 60.890625 
Q 47.90625 63.578125 42.921875 64.890625 
Q 37.9375 66.21875 33.296875 66.21875 
Q 25.25 66.21875 20.875 63.09375 
Q 16.5 59.96875 16.5 54.203125 
Q 16.5 49.359375 19.40625 46.890625 
Q 22.3125 44.4375 30.421875 42.921875 
L 36.375 41.703125 
Q 47.40625 39.59375 52.65625 34.296875 
Q 57.90625 29 57.90625 20.125 
Q 57.90625 9.515625 50.796875 4.046875 
Q 43.703125 -1.421875 29.984375 -1.421875 
Q 24.8125 -1.421875 18.96875 -0.25 
Q 13.140625 0.921875 6.890625 3.21875 
L 6.890625 13.375 
Q 12.890625 10.015625 18.65625 8.296875 
Q 24.421875 6.59375 29.984375 6.59375 
Q 38.421875 6.59375 43.015625 9.90625 
Q 47.609375 13.234375 47.609375 19.390625 
Q 47.609375 24.75 44.3125 27.78125 
Q 41.015625 30.8125 33.5 32.328125 
L 27.484375 33.5 
Q 16.453125 35.6875 11.515625 40.375 
Q 6.59375 45.0625 6.59375 53.421875 
Q 6.59375 63.09375 13.40625 68.65625 
Q 20.21875 74.21875 32.171875 74.21875 
Q 37.3125 74.21875 42.625 73.28125 
Q 47.953125 72.359375 53.515625 70.515625 
" id="DejaVuSans-53"/>
     <path d="M 18.109375 8.203125 
L 18.109375 -20.796875 
L 9.078125 -20.796875 
L 9.078125 54.6875 
L 18.109375 54.6875 
L 18.109375 46.390625 
Q 20.953125 51.265625 25.265625 53.625 
Q 29.59375 56 35.59375 56 
Q 45.5625 56 51.78125 48.09375 
Q 58.015625 40.1875 58.015625 27.296875 
Q 58.015625 14.40625 51.78125 6.484375 
Q 45.5625 -1.421875 35.59375 -1.421875 
Q 29.59375 -1.421875 25.265625 0.953125 
Q 20.953125 3.328125 18.109375 8.203125 
M 48.6875 27.296875 
Q 48.6875 37.203125 44.609375 42.84375 
Q 40.53125 48.484375 33.40625 48.484375 
Q 26.265625 48.484375 22.1875 42.84375 
Q 18.109375 37.203125 18.109375 27.296875 
Q 18.109375 17.390625 22.1875 11.75 
Q 26.265625 6.109375 33.40625 6.109375 
Q 40.53125 6.109375 44.609375 11.75 
Q 48.6875 17.390625 48.6875 27.296875 
" id="DejaVuSans-70"/>
    </defs>
    <g transform="translate(62.203125 16.318125)scale(0.12 -0.12)">
     <use xlink:href="#DejaVuSans-52"/>
     <use x="69.482422" xlink:href="#DejaVuSans-4f"/>
     <use x="148.193359" xlink:href="#DejaVuSans-43"/>
     <use x="218.017578" xlink:href="#DejaVuSans-20"/>
     <use x="249.804688" xlink:href="#DejaVuSans-43"/>
     <use x="319.628906" xlink:href="#DejaVuSans-75"/>
     <use x="383.007812" xlink:href="#DejaVuSans-72"/>
     <use x="424.121094" xlink:href="#DejaVuSans-76"/>
     <use x="483.300781" xlink:href="#DejaVuSans-65"/>
     <use x="544.824219" xlink:href="#DejaVuSans-20"/>
     <use x="576.611328" xlink:href="#DejaVuSans-47"/>
     <use x="654.101562" xlink:href="#DejaVuSans-72"/>
     <use x="695.214844" xlink:href="#DejaVuSans-61"/>
     <use x="756.494141" xlink:href="#DejaVuSans-64"/>
     <use x="819.970703" xlink:href="#DejaVuSans-69"/>
     <use x="847.753906" xlink:href="#DejaVuSans-65"/>
     <use x="909.277344" xlink:href="#DejaVuSans-6e"/>
     <use x="972.65625" xlink:href="#DejaVuSans-74"/>
     <use x="1011.865234" xlink:href="#DejaVuSans-42"/>
     <use x="1080.46875" xlink:href="#DejaVuSans-6f"/>
     <use x="1141.650391" xlink:href="#DejaVuSans-6f"/>
     <use x="1202.832031" xlink:href="#DejaVuSans-73"/>
     <use x="1254.931641" xlink:href="#DejaVuSans-74"/>
     <use x="1294.140625" xlink:href="#DejaVuSans-69"/>
     <use x="1321.923828" xlink:href="#DejaVuSans-6e"/>
     <use x="1385.302734" xlink:href="#DejaVuSans-67"/>
     <use x="1448.779297" xlink:href="#DejaVuSans-20"/>
     <use x="1480.566406" xlink:href="#DejaVuSans-2b"/>
     <use x="1564.355469" xlink:href="#DejaVuSans-20"/>
     <use x="1596.142578" xlink:href="#DejaVuSans-52"/>
     <use x="1665.59375" xlink:href="#DejaVuSans-61"/>
     <use x="1726.873047" xlink:href="#DejaVuSans-6e"/>
     <use x="1790.251953" xlink:href="#DejaVuSans-64"/>
     <use x="1853.728516" xlink:href="#DejaVuSans-6f"/>
     <use x="1914.910156" xlink:href="#DejaVuSans-6d"/>
     <use x="2012.322266" xlink:href="#DejaVuSans-4f"/>
     <use x="2091.033203" xlink:href="#DejaVuSans-76"/>
     <use x="2150.212891" xlink:href="#DejaVuSans-65"/>
     <use x="2211.736328" xlink:href="#DejaVuSans-72"/>
     <use x="2252.849609" xlink:href="#DejaVuSans-53"/>
     <use x="2316.326172" xlink:href="#DejaVuSans-61"/>
     <use x="2377.605469" xlink:href="#DejaVuSans-6d"/>
     <use x="2475.017578" xlink:href="#DejaVuSans-70"/>
     <use x="2538.494141" xlink:href="#DejaVuSans-6c"/>
     <use x="2566.277344" xlink:href="#DejaVuSans-65"/>
     <use x="2627.800781" xlink:href="#DejaVuSans-72"/>
    </g>
    <!-- Train: 1   Test: 1 -->
    <defs>
     <path d="M 11.71875 12.40625 
L 22.015625 12.40625 
L 22.015625 0 
L 11.71875 0 
z
M 11.71875 51.703125 
L 22.015625 51.703125 
L 22.015625 39.3125 
L 11.71875 39.3125 
z
" id="DejaVuSans-3a"/>
    </defs>
    <g transform="translate(173.046563 29.7555)scale(0.12 -0.12)">
     <use xlink:href="#DejaVuSans-54"/>
     <use x="60.865234" xlink:href="#DejaVuSans-72"/>
     <use x="101.978516" xlink:href="#DejaVuSans-61"/>
     <use x="163.257812" xlink:href="#DejaVuSans-69"/>
     <use x="191.041016" xlink:href="#DejaVuSans-6e"/>
     <use x="254.419922" xlink:href="#DejaVuSans-3a"/>
     <use x="288.111328" xlink:href="#DejaVuSans-20"/>
     <use x="319.898438" xlink:href="#DejaVuSans-31"/>
     <use x="383.521484" xlink:href="#DejaVuSans-20"/>
     <use x="415.308594" xlink:href="#DejaVuSans-20"/>
     <use x="447.095703" xlink:href="#DejaVuSans-20"/>
     <use x="478.882812" xlink:href="#DejaVuSans-54"/>
     <use x="539.701172" xlink:href="#DejaVuSans-65"/>
     <use x="601.224609" xlink:href="#DejaVuSans-73"/>
     <use x="653.324219" xlink:href="#DejaVuSans-74"/>
     <use x="692.533203" xlink:href="#DejaVuSans-3a"/>
     <use x="726.224609" xlink:href="#DejaVuSans-20"/>
     <use x="758.011719" xlink:href="#DejaVuSans-31"/>
    </g>
   </g>
   <g id="legend_1">
    <g id="patch_7">
     <path d="M 217.087188 296.8675 
L 393.90125 296.8675 
Q 395.90125 296.8675 395.90125 294.8675 
L 395.90125 251.833125 
Q 395.90125 249.833125 393.90125 249.833125 
L 217.087188 249.833125 
Q 215.087188 249.833125 215.087188 251.833125 
L 215.087188 294.8675 
Q 215.087188 296.8675 217.087188 296.8675 
z
" style="fill:#ffffff;opacity:0.8;stroke:#cccccc;stroke-linejoin:miter;"/>
    </g>
    <g id="line2d_17">
     <path d="M 219.087188 257.931562 
L 239.087188 257.931562 
" style="fill:none;stroke:#1f77b4;stroke-linecap:square;stroke-width:1.5;"/>
    </g>
    <g id="line2d_18"/>
    <g id="text_16">
     <!-- ROC curve - 0 (AUC = 0.819) -->
     <defs>
      <path d="M 48.78125 52.59375 
L 48.78125 44.1875 
Q 44.96875 46.296875 41.140625 47.34375 
Q 37.3125 48.390625 33.40625 48.390625 
Q 24.65625 48.390625 19.8125 42.84375 
Q 14.984375 37.3125 14.984375 27.296875 
Q 14.984375 17.28125 19.8125 11.734375 
Q 24.65625 6.203125 33.40625 6.203125 
Q 37.3125 6.203125 41.140625 7.25 
Q 44.96875 8.296875 48.78125 10.40625 
L 48.78125 2.09375 
Q 45.015625 0.34375 40.984375 -0.53125 
Q 36.96875 -1.421875 32.421875 -1.421875 
Q 20.0625 -1.421875 12.78125 6.34375 
Q 5.515625 14.109375 5.515625 27.296875 
Q 5.515625 40.671875 12.859375 48.328125 
Q 20.21875 56 33.015625 56 
Q 37.15625 56 41.109375 55.140625 
Q 45.0625 54.296875 48.78125 52.59375 
" id="DejaVuSans-63"/>
      <path d="M 4.890625 31.390625 
L 31.203125 31.390625 
L 31.203125 23.390625 
L 4.890625 23.390625 
z
" id="DejaVuSans-2d"/>
      <path d="M 31 75.875 
Q 24.46875 64.65625 21.28125 53.65625 
Q 18.109375 42.671875 18.109375 31.390625 
Q 18.109375 20.125 21.3125 9.0625 
Q 24.515625 -2 31 -13.1875 
L 23.1875 -13.1875 
Q 15.875 -1.703125 12.234375 9.375 
Q 8.59375 20.453125 8.59375 31.390625 
Q 8.59375 42.28125 12.203125 53.3125 
Q 15.828125 64.359375 23.1875 75.875 
z
" id="DejaVuSans-28"/>
      <path d="M 34.1875 63.1875 
L 20.796875 26.90625 
L 47.609375 26.90625 
z
M 28.609375 72.90625 
L 39.796875 72.90625 
L 67.578125 0 
L 57.328125 0 
L 50.6875 18.703125 
L 17.828125 18.703125 
L 11.1875 0 
L 0.78125 0 
z
" id="DejaVuSans-41"/>
      <path d="M 8.6875 72.90625 
L 18.609375 72.90625 
L 18.609375 28.609375 
Q 18.609375 16.890625 22.84375 11.734375 
Q 27.09375 6.59375 36.625 6.59375 
Q 46.09375 6.59375 50.34375 11.734375 
Q 54.59375 16.890625 54.59375 28.609375 
L 54.59375 72.90625 
L 64.5 72.90625 
L 64.5 27.390625 
Q 64.5 13.140625 57.4375 5.859375 
Q 50.390625 -1.421875 36.625 -1.421875 
Q 22.796875 -1.421875 15.734375 5.859375 
Q 8.6875 13.140625 8.6875 27.390625 
z
" id="DejaVuSans-55"/>
      <path d="M 10.59375 45.40625 
L 73.1875 45.40625 
L 73.1875 37.203125 
L 10.59375 37.203125 
z
M 10.59375 25.484375 
L 73.1875 25.484375 
L 73.1875 17.1875 
L 10.59375 17.1875 
z
" id="DejaVuSans-3d"/>
      <path d="M 10.984375 1.515625 
L 10.984375 10.5 
Q 14.703125 8.734375 18.5 7.8125 
Q 22.3125 6.890625 25.984375 6.890625 
Q 35.75 6.890625 40.890625 13.453125 
Q 46.046875 20.015625 46.78125 33.40625 
Q 43.953125 29.203125 39.59375 26.953125 
Q 35.25 24.703125 29.984375 24.703125 
Q 19.046875 24.703125 12.671875 31.3125 
Q 6.296875 37.9375 6.296875 49.421875 
Q 6.296875 60.640625 12.9375 67.421875 
Q 19.578125 74.21875 30.609375 74.21875 
Q 43.265625 74.21875 49.921875 64.515625 
Q 56.59375 54.828125 56.59375 36.375 
Q 56.59375 19.140625 48.40625 8.859375 
Q 40.234375 -1.421875 26.421875 -1.421875 
Q 22.703125 -1.421875 18.890625 -0.6875 
Q 15.09375 0.046875 10.984375 1.515625 
M 30.609375 32.421875 
Q 37.25 32.421875 41.125 36.953125 
Q 45.015625 41.5 45.015625 49.421875 
Q 45.015625 57.28125 41.125 61.84375 
Q 37.25 66.40625 30.609375 66.40625 
Q 23.96875 66.40625 20.09375 61.84375 
Q 16.21875 57.28125 16.21875 49.421875 
Q 16.21875 41.5 20.09375 36.953125 
Q 23.96875 32.421875 30.609375 32.421875 
" id="DejaVuSans-39"/>
      <path d="M 8.015625 75.875 
L 15.828125 75.875 
Q 23.140625 64.359375 26.78125 53.3125 
Q 30.421875 42.28125 30.421875 31.390625 
Q 30.421875 20.453125 26.78125 9.375 
Q 23.140625 -1.703125 15.828125 -13.1875 
L 8.015625 -13.1875 
Q 14.5 -2 17.703125 9.0625 
Q 20.90625 20.125 20.90625 31.390625 
Q 20.90625 42.671875 17.703125 53.65625 
Q 14.5 64.65625 8.015625 75.875 
" id="DejaVuSans-29"/>
     </defs>
     <g transform="translate(247.087188 261.431562)scale(0.1 -0.1)">
      <use xlink:href="#DejaVuSans-52"/>
      <use x="69.482422" xlink:href="#DejaVuSans-4f"/>
      <use x="148.193359" xlink:href="#DejaVuSans-43"/>
      <use x="218.017578" xlink:href="#DejaVuSans-20"/>
      <use x="249.804688" xlink:href="#DejaVuSans-63"/>
      <use x="304.785156" xlink:href="#DejaVuSans-75"/>
      <use x="368.164062" xlink:href="#DejaVuSans-72"/>
      <use x="409.277344" xlink:href="#DejaVuSans-76"/>
      <use x="468.457031" xlink:href="#DejaVuSans-65"/>
      <use x="529.980469" xlink:href="#DejaVuSans-20"/>
      <use x="561.767578" xlink:href="#DejaVuSans-2d"/>
      <use x="597.851562" xlink:href="#DejaVuSans-20"/>
      <use x="629.638672" xlink:href="#DejaVuSans-30"/>
      <use x="693.261719" xlink:href="#DejaVuSans-20"/>
      <use x="725.048828" xlink:href="#DejaVuSans-28"/>
      <use x="764.0625" xlink:href="#DejaVuSans-41"/>
      <use x="832.470703" xlink:href="#DejaVuSans-55"/>
      <use x="905.664062" xlink:href="#DejaVuSans-43"/>
      <use x="975.488281" xlink:href="#DejaVuSans-20"/>
      <use x="1007.275391" xlink:href="#DejaVuSans-3d"/>
      <use x="1091.064453" xlink:href="#DejaVuSans-20"/>
      <use x="1122.851562" xlink:href="#DejaVuSans-30"/>
      <use x="1186.474609" xlink:href="#DejaVuSans-2e"/>
      <use x="1218.261719" xlink:href="#DejaVuSans-38"/>
      <use x="1281.884766" xlink:href="#DejaVuSans-31"/>
      <use x="1345.507812" xlink:href="#DejaVuSans-39"/>
      <use x="1409.130859" xlink:href="#DejaVuSans-29"/>
     </g>
    </g>
    <g id="line2d_19">
     <path d="M 219.087188 272.609687 
L 239.087188 272.609687 
" style="fill:none;stroke:#ff7f0e;stroke-linecap:square;stroke-width:1.5;"/>
    </g>
    <g id="line2d_20"/>
    <g id="text_17">
     <!-- ROC curve - 1 (AUC = 0.822) -->
     <g transform="translate(247.087188 276.109687)scale(0.1 -0.1)">
      <use xlink:href="#DejaVuSans-52"/>
      <use x="69.482422" xlink:href="#DejaVuSans-4f"/>
      <use x="148.193359" xlink:href="#DejaVuSans-43"/>
      <use x="218.017578" xlink:href="#DejaVuSans-20"/>
      <use x="249.804688" xlink:href="#DejaVuSans-63"/>
      <use x="304.785156" xlink:href="#DejaVuSans-75"/>
      <use x="368.164062" xlink:href="#DejaVuSans-72"/>
      <use x="409.277344" xlink:href="#DejaVuSans-76"/>
      <use x="468.457031" xlink:href="#DejaVuSans-65"/>
      <use x="529.980469" xlink:href="#DejaVuSans-20"/>
      <use x="561.767578" xlink:href="#DejaVuSans-2d"/>
      <use x="597.851562" xlink:href="#DejaVuSans-20"/>
      <use x="629.638672" xlink:href="#DejaVuSans-31"/>
      <use x="693.261719" xlink:href="#DejaVuSans-20"/>
      <use x="725.048828" xlink:href="#DejaVuSans-28"/>
      <use x="764.0625" xlink:href="#DejaVuSans-41"/>
      <use x="832.470703" xlink:href="#DejaVuSans-55"/>
      <use x="905.664062" xlink:href="#DejaVuSans-43"/>
      <use x="975.488281" xlink:href="#DejaVuSans-20"/>
      <use x="1007.275391" xlink:href="#DejaVuSans-3d"/>
      <use x="1091.064453" xlink:href="#DejaVuSans-20"/>
      <use x="1122.851562" xlink:href="#DejaVuSans-30"/>
      <use x="1186.474609" xlink:href="#DejaVuSans-2e"/>
      <use x="1218.261719" xlink:href="#DejaVuSans-38"/>
      <use x="1281.884766" xlink:href="#DejaVuSans-32"/>
      <use x="1345.507812" xlink:href="#DejaVuSans-32"/>
      <use x="1409.130859" xlink:href="#DejaVuSans-29"/>
     </g>
    </g>
    <g id="line2d_21">
     <path d="M 219.087188 287.287812 
L 239.087188 287.287812 
" style="fill:none;stroke:#2ca02c;stroke-linecap:square;stroke-width:1.5;"/>
    </g>
    <g id="line2d_22"/>
    <g id="text_18">
     <!-- ROC curve - 2 (AUC = 0.834) -->
     <defs>
      <path d="M 40.578125 39.3125 
Q 47.65625 37.796875 51.625 33 
Q 55.609375 28.21875 55.609375 21.1875 
Q 55.609375 10.40625 48.1875 4.484375 
Q 40.765625 -1.421875 27.09375 -1.421875 
Q 22.515625 -1.421875 17.65625 -0.515625 
Q 12.796875 0.390625 7.625 2.203125 
L 7.625 11.71875 
Q 11.71875 9.328125 16.59375 8.109375 
Q 21.484375 6.890625 26.8125 6.890625 
Q 36.078125 6.890625 40.9375 10.546875 
Q 45.796875 14.203125 45.796875 21.1875 
Q 45.796875 27.640625 41.28125 31.265625 
Q 36.765625 34.90625 28.71875 34.90625 
L 20.21875 34.90625 
L 20.21875 43.015625 
L 29.109375 43.015625 
Q 36.375 43.015625 40.234375 45.921875 
Q 44.09375 48.828125 44.09375 54.296875 
Q 44.09375 59.90625 40.109375 62.90625 
Q 36.140625 65.921875 28.71875 65.921875 
Q 24.65625 65.921875 20.015625 65.03125 
Q 15.375 64.15625 9.8125 62.3125 
L 9.8125 71.09375 
Q 15.4375 72.65625 20.34375 73.4375 
Q 25.25 74.21875 29.59375 74.21875 
Q 40.828125 74.21875 47.359375 69.109375 
Q 53.90625 64.015625 53.90625 55.328125 
Q 53.90625 49.265625 50.4375 45.09375 
Q 46.96875 40.921875 40.578125 39.3125 
" id="DejaVuSans-33"/>
     </defs>
     <g transform="translate(247.087188 290.787812)scale(0.1 -0.1)">
      <use xlink:href="#DejaVuSans-52"/>
      <use x="69.482422" xlink:href="#DejaVuSans-4f"/>
      <use x="148.193359" xlink:href="#DejaVuSans-43"/>
      <use x="218.017578" xlink:href="#DejaVuSans-20"/>
      <use x="249.804688" xlink:href="#DejaVuSans-63"/>
      <use x="304.785156" xlink:href="#DejaVuSans-75"/>
      <use x="368.164062" xlink:href="#DejaVuSans-72"/>
      <use x="409.277344" xlink:href="#DejaVuSans-76"/>
      <use x="468.457031" xlink:href="#DejaVuSans-65"/>
      <use x="529.980469" xlink:href="#DejaVuSans-20"/>
      <use x="561.767578" xlink:href="#DejaVuSans-2d"/>
      <use x="597.851562" xlink:href="#DejaVuSans-20"/>
      <use x="629.638672" xlink:href="#DejaVuSans-32"/>
      <use x="693.261719" xlink:href="#DejaVuSans-20"/>
      <use x="725.048828" xlink:href="#DejaVuSans-28"/>
      <use x="764.0625" xlink:href="#DejaVuSans-41"/>
      <use x="832.470703" xlink:href="#DejaVuSans-55"/>
      <use x="905.664062" xlink:href="#DejaVuSans-43"/>
      <use x="975.488281" xlink:href="#DejaVuSans-20"/>
      <use x="1007.275391" xlink:href="#DejaVuSans-3d"/>
      <use x="1091.064453" xlink:href="#DejaVuSans-20"/>
      <use x="1122.851562" xlink:href="#DejaVuSans-30"/>
      <use x="1186.474609" xlink:href="#DejaVuSans-2e"/>
      <use x="1218.261719" xlink:href="#DejaVuSans-38"/>
      <use x="1281.884766" xlink:href="#DejaVuSans-33"/>
      <use x="1345.507812" xlink:href="#DejaVuSans-34"/>
      <use x="1409.130859" xlink:href="#DejaVuSans-29"/>
     </g>
    </g>
   </g>
  </g>
 </g>
 <defs>
  <clipPath id="pbc45a9fedf">
   <rect height="266.112" width="357.12" x="43.78125" y="35.7555"/>
  </clipPath>
 </defs>
</svg>
