<?xml version="1.0" encoding="utf-8" standalone="no"?>
<!DOCTYPE svg PUBLIC "-//W3C//DTD SVG 1.1//EN"
  "http://www.w3.org/Graphics/SVG/1.1/DTD/svg11.dtd">
<!-- Created with matplotlib (http://matplotlib.org/) -->
<svg height="339pt" version="1.1" viewBox="0 0 416 339" width="416pt" xmlns="http://www.w3.org/2000/svg" xmlns:xlink="http://www.w3.org/1999/xlink">
 <defs>
  <style type="text/css">
*{stroke-linecap:butt;stroke-linejoin:round;}
  </style>
 </defs>
 <g id="figure_1">
  <g id="patch_1">
   <path d="M 0 339.42375 
L 416.052813 339.42375 
L 416.052813 0 
L 0 0 
z
" style="fill:#ffffff;"/>
  </g>
  <g id="axes_1">
   <g id="patch_2">
    <path d="M 43.78125 301.8675 
L 400.90125 301.8675 
L 400.90125 35.7555 
L 43.78125 35.7555 
z
" style="fill:#ffffff;"/>
   </g>
   <g id="matplotlib.axis_1">
    <g id="xtick_1">
     <g id="line2d_1">
      <defs>
       <path d="M 0 0 
L 0 3.5 
" id="m2e86362960" style="stroke:#000000;stroke-width:0.8;"/>
      </defs>
      <g>
       <use style="stroke:#000000;stroke-width:0.8;" x="43.78125" xlink:href="#m2e86362960" y="301.8675"/>
      </g>
     </g>
     <g id="text_1">
      <!-- 0.0 -->
      <defs>
       <path d="M 31.78125 66.40625 
Q 24.171875 66.40625 20.328125 58.90625 
Q 16.5 51.421875 16.5 36.375 
Q 16.5 21.390625 20.328125 13.890625 
Q 24.171875 6.390625 31.78125 6.390625 
Q 39.453125 6.390625 43.28125 13.890625 
Q 47.125 21.390625 47.125 36.375 
Q 47.125 51.421875 43.28125 58.90625 
Q 39.453125 66.40625 31.78125 66.40625 
M 31.78125 74.21875 
Q 44.046875 74.21875 50.515625 64.515625 
Q 56.984375 54.828125 56.984375 36.375 
Q 56.984375 17.96875 50.515625 8.265625 
Q 44.046875 -1.421875 31.78125 -1.421875 
Q 19.53125 -1.421875 13.0625 8.265625 
Q 6.59375 17.96875 6.59375 36.375 
Q 6.59375 54.828125 13.0625 64.515625 
Q 19.53125 74.21875 31.78125 74.21875 
" id="DejaVuSans-30"/>
       <path d="M 10.6875 12.40625 
L 21 12.40625 
L 21 0 
L 10.6875 0 
z
" id="DejaVuSans-2e"/>
      </defs>
      <g transform="translate(35.829688 316.465937)scale(0.1 -0.1)">
       <use xlink:href="#DejaVuSans-30"/>
       <use x="63.623047" xlink:href="#DejaVuSans-2e"/>
       <use x="95.410156" xlink:href="#DejaVuSans-30"/>
      </g>
     </g>
    </g>
    <g id="xtick_2">
     <g id="line2d_2">
      <g>
       <use style="stroke:#000000;stroke-width:0.8;" x="115.20525" xlink:href="#m2e86362960" y="301.8675"/>
      </g>
     </g>
     <g id="text_2">
      <!-- 0.2 -->
      <defs>
       <path d="M 19.1875 8.296875 
L 53.609375 8.296875 
L 53.609375 0 
L 7.328125 0 
L 7.328125 8.296875 
Q 12.9375 14.109375 22.625 23.890625 
Q 32.328125 33.6875 34.8125 36.53125 
Q 39.546875 41.84375 41.421875 45.53125 
Q 43.3125 49.21875 43.3125 52.78125 
Q 43.3125 58.59375 39.234375 62.25 
Q 35.15625 65.921875 28.609375 65.921875 
Q 23.96875 65.921875 18.8125 64.3125 
Q 13.671875 62.703125 7.8125 59.421875 
L 7.8125 69.390625 
Q 13.765625 71.78125 18.9375 73 
Q 24.125 74.21875 28.421875 74.21875 
Q 39.75 74.21875 46.484375 68.546875 
Q 53.21875 62.890625 53.21875 53.421875 
Q 53.21875 48.921875 51.53125 44.890625 
Q 49.859375 40.875 45.40625 35.40625 
Q 44.1875 33.984375 37.640625 27.21875 
Q 31.109375 20.453125 19.1875 8.296875 
" id="DejaVuSans-32"/>
      </defs>
      <g transform="translate(107.253688 316.465937)scale(0.1 -0.1)">
       <use xlink:href="#DejaVuSans-30"/>
       <use x="63.623047" xlink:href="#DejaVuSans-2e"/>
       <use x="95.410156" xlink:href="#DejaVuSans-32"/>
      </g>
     </g>
    </g>
    <g id="xtick_3">
     <g id="line2d_3">
      <g>
       <use style="stroke:#000000;stroke-width:0.8;" x="186.62925" xlink:href="#m2e86362960" y="301.8675"/>
      </g>
     </g>
     <g id="text_3">
      <!-- 0.4 -->
      <defs>
       <path d="M 37.796875 64.3125 
L 12.890625 25.390625 
L 37.796875 25.390625 
z
M 35.203125 72.90625 
L 47.609375 72.90625 
L 47.609375 25.390625 
L 58.015625 25.390625 
L 58.015625 17.1875 
L 47.609375 17.1875 
L 47.609375 0 
L 37.796875 0 
L 37.796875 17.1875 
L 4.890625 17.1875 
L 4.890625 26.703125 
z
" id="DejaVuSans-34"/>
      </defs>
      <g transform="translate(178.677688 316.465937)scale(0.1 -0.1)">
       <use xlink:href="#DejaVuSans-30"/>
       <use x="63.623047" xlink:href="#DejaVuSans-2e"/>
       <use x="95.410156" xlink:href="#DejaVuSans-34"/>
      </g>
     </g>
    </g>
    <g id="xtick_4">
     <g id="line2d_4">
      <g>
       <use style="stroke:#000000;stroke-width:0.8;" x="258.05325" xlink:href="#m2e86362960" y="301.8675"/>
      </g>
     </g>
     <g id="text_4">
      <!-- 0.6 -->
      <defs>
       <path d="M 33.015625 40.375 
Q 26.375 40.375 22.484375 35.828125 
Q 18.609375 31.296875 18.609375 23.390625 
Q 18.609375 15.53125 22.484375 10.953125 
Q 26.375 6.390625 33.015625 6.390625 
Q 39.65625 6.390625 43.53125 10.953125 
Q 47.40625 15.53125 47.40625 23.390625 
Q 47.40625 31.296875 43.53125 35.828125 
Q 39.65625 40.375 33.015625 40.375 
M 52.59375 71.296875 
L 52.59375 62.3125 
Q 48.875 64.0625 45.09375 64.984375 
Q 41.3125 65.921875 37.59375 65.921875 
Q 27.828125 65.921875 22.671875 59.328125 
Q 17.53125 52.734375 16.796875 39.40625 
Q 19.671875 43.65625 24.015625 45.921875 
Q 28.375 48.1875 33.59375 48.1875 
Q 44.578125 48.1875 50.953125 41.515625 
Q 57.328125 34.859375 57.328125 23.390625 
Q 57.328125 12.15625 50.6875 5.359375 
Q 44.046875 -1.421875 33.015625 -1.421875 
Q 20.359375 -1.421875 13.671875 8.265625 
Q 6.984375 17.96875 6.984375 36.375 
Q 6.984375 53.65625 15.1875 63.9375 
Q 23.390625 74.21875 37.203125 74.21875 
Q 40.921875 74.21875 44.703125 73.484375 
Q 48.484375 72.75 52.59375 71.296875 
" id="DejaVuSans-36"/>
      </defs>
      <g transform="translate(250.101688 316.465937)scale(0.1 -0.1)">
       <use xlink:href="#DejaVuSans-30"/>
       <use x="63.623047" xlink:href="#DejaVuSans-2e"/>
       <use x="95.410156" xlink:href="#DejaVuSans-36"/>
      </g>
     </g>
    </g>
    <g id="xtick_5">
     <g id="line2d_5">
      <g>
       <use style="stroke:#000000;stroke-width:0.8;" x="329.47725" xlink:href="#m2e86362960" y="301.8675"/>
      </g>
     </g>
     <g id="text_5">
      <!-- 0.8 -->
      <defs>
       <path d="M 31.78125 34.625 
Q 24.75 34.625 20.71875 30.859375 
Q 16.703125 27.09375 16.703125 20.515625 
Q 16.703125 13.921875 20.71875 10.15625 
Q 24.75 6.390625 31.78125 6.390625 
Q 38.8125 6.390625 42.859375 10.171875 
Q 46.921875 13.96875 46.921875 20.515625 
Q 46.921875 27.09375 42.890625 30.859375 
Q 38.875 34.625 31.78125 34.625 
M 21.921875 38.8125 
Q 15.578125 40.375 12.03125 44.71875 
Q 8.5 49.078125 8.5 55.328125 
Q 8.5 64.0625 14.71875 69.140625 
Q 20.953125 74.21875 31.78125 74.21875 
Q 42.671875 74.21875 48.875 69.140625 
Q 55.078125 64.0625 55.078125 55.328125 
Q 55.078125 49.078125 51.53125 44.71875 
Q 48 40.375 41.703125 38.8125 
Q 48.828125 37.15625 52.796875 32.3125 
Q 56.78125 27.484375 56.78125 20.515625 
Q 56.78125 9.90625 50.3125 4.234375 
Q 43.84375 -1.421875 31.78125 -1.421875 
Q 19.734375 -1.421875 13.25 4.234375 
Q 6.78125 9.90625 6.78125 20.515625 
Q 6.78125 27.484375 10.78125 32.3125 
Q 14.796875 37.15625 21.921875 38.8125 
M 18.3125 54.390625 
Q 18.3125 48.734375 21.84375 45.5625 
Q 25.390625 42.390625 31.78125 42.390625 
Q 38.140625 42.390625 41.71875 45.5625 
Q 45.3125 48.734375 45.3125 54.390625 
Q 45.3125 60.0625 41.71875 63.234375 
Q 38.140625 66.40625 31.78125 66.40625 
Q 25.390625 66.40625 21.84375 63.234375 
Q 18.3125 60.0625 18.3125 54.390625 
" id="DejaVuSans-38"/>
      </defs>
      <g transform="translate(321.525688 316.465937)scale(0.1 -0.1)">
       <use xlink:href="#DejaVuSans-30"/>
       <use x="63.623047" xlink:href="#DejaVuSans-2e"/>
       <use x="95.410156" xlink:href="#DejaVuSans-38"/>
      </g>
     </g>
    </g>
    <g id="xtick_6">
     <g id="line2d_6">
      <g>
       <use style="stroke:#000000;stroke-width:0.8;" x="400.90125" xlink:href="#m2e86362960" y="301.8675"/>
      </g>
     </g>
     <g id="text_6">
      <!-- 1.0 -->
      <defs>
       <path d="M 12.40625 8.296875 
L 28.515625 8.296875 
L 28.515625 63.921875 
L 10.984375 60.40625 
L 10.984375 69.390625 
L 28.421875 72.90625 
L 38.28125 72.90625 
L 38.28125 8.296875 
L 54.390625 8.296875 
L 54.390625 0 
L 12.40625 0 
z
" id="DejaVuSans-31"/>
      </defs>
      <g transform="translate(392.949688 316.465937)scale(0.1 -0.1)">
       <use xlink:href="#DejaVuSans-31"/>
       <use x="63.623047" xlink:href="#DejaVuSans-2e"/>
       <use x="95.410156" xlink:href="#DejaVuSans-30"/>
      </g>
     </g>
    </g>
    <g id="text_7">
     <!-- False Positive Rate -->
     <defs>
      <path d="M 9.8125 72.90625 
L 51.703125 72.90625 
L 51.703125 64.59375 
L 19.671875 64.59375 
L 19.671875 43.109375 
L 48.578125 43.109375 
L 48.578125 34.8125 
L 19.671875 34.8125 
L 19.671875 0 
L 9.8125 0 
z
" id="DejaVuSans-46"/>
      <path d="M 34.28125 27.484375 
Q 23.390625 27.484375 19.1875 25 
Q 14.984375 22.515625 14.984375 16.5 
Q 14.984375 11.71875 18.140625 8.90625 
Q 21.296875 6.109375 26.703125 6.109375 
Q 34.1875 6.109375 38.703125 11.40625 
Q 43.21875 16.703125 43.21875 25.484375 
L 43.21875 27.484375 
z
M 52.203125 31.203125 
L 52.203125 0 
L 43.21875 0 
L 43.21875 8.296875 
Q 40.140625 3.328125 35.546875 0.953125 
Q 30.953125 -1.421875 24.3125 -1.421875 
Q 15.921875 -1.421875 10.953125 3.296875 
Q 6 8.015625 6 15.921875 
Q 6 25.140625 12.171875 29.828125 
Q 18.359375 34.515625 30.609375 34.515625 
L 43.21875 34.515625 
L 43.21875 35.40625 
Q 43.21875 41.609375 39.140625 45 
Q 35.0625 48.390625 27.6875 48.390625 
Q 23 48.390625 18.546875 47.265625 
Q 14.109375 46.140625 10.015625 43.890625 
L 10.015625 52.203125 
Q 14.9375 54.109375 19.578125 55.046875 
Q 24.21875 56 28.609375 56 
Q 40.484375 56 46.34375 49.84375 
Q 52.203125 43.703125 52.203125 31.203125 
" id="DejaVuSans-61"/>
      <path d="M 9.421875 75.984375 
L 18.40625 75.984375 
L 18.40625 0 
L 9.421875 0 
z
" id="DejaVuSans-6c"/>
      <path d="M 44.28125 53.078125 
L 44.28125 44.578125 
Q 40.484375 46.53125 36.375 47.5 
Q 32.28125 48.484375 27.875 48.484375 
Q 21.1875 48.484375 17.84375 46.4375 
Q 14.5 44.390625 14.5 40.28125 
Q 14.5 37.15625 16.890625 35.375 
Q 19.28125 33.59375 26.515625 31.984375 
L 29.59375 31.296875 
Q 39.15625 29.25 43.1875 25.515625 
Q 47.21875 21.78125 47.21875 15.09375 
Q 47.21875 7.46875 41.1875 3.015625 
Q 35.15625 -1.421875 24.609375 -1.421875 
Q 20.21875 -1.421875 15.453125 -0.5625 
Q 10.6875 0.296875 5.421875 2 
L 5.421875 11.28125 
Q 10.40625 8.6875 15.234375 7.390625 
Q 20.0625 6.109375 24.8125 6.109375 
Q 31.15625 6.109375 34.5625 8.28125 
Q 37.984375 10.453125 37.984375 14.40625 
Q 37.984375 18.0625 35.515625 20.015625 
Q 33.0625 21.96875 24.703125 23.78125 
L 21.578125 24.515625 
Q 13.234375 26.265625 9.515625 29.90625 
Q 5.8125 33.546875 5.8125 39.890625 
Q 5.8125 47.609375 11.28125 51.796875 
Q 16.75 56 26.8125 56 
Q 31.78125 56 36.171875 55.265625 
Q 40.578125 54.546875 44.28125 53.078125 
" id="DejaVuSans-73"/>
      <path d="M 56.203125 29.59375 
L 56.203125 25.203125 
L 14.890625 25.203125 
Q 15.484375 15.921875 20.484375 11.0625 
Q 25.484375 6.203125 34.421875 6.203125 
Q 39.59375 6.203125 44.453125 7.46875 
Q 49.3125 8.734375 54.109375 11.28125 
L 54.109375 2.78125 
Q 49.265625 0.734375 44.1875 -0.34375 
Q 39.109375 -1.421875 33.890625 -1.421875 
Q 20.796875 -1.421875 13.15625 6.1875 
Q 5.515625 13.8125 5.515625 26.8125 
Q 5.515625 40.234375 12.765625 48.109375 
Q 20.015625 56 32.328125 56 
Q 43.359375 56 49.78125 48.890625 
Q 56.203125 41.796875 56.203125 29.59375 
M 47.21875 32.234375 
Q 47.125 39.59375 43.09375 43.984375 
Q 39.0625 48.390625 32.421875 48.390625 
Q 24.90625 48.390625 20.390625 44.140625 
Q 15.875 39.890625 15.1875 32.171875 
z
" id="DejaVuSans-65"/>
      <path id="DejaVuSans-20"/>
      <path d="M 19.671875 64.796875 
L 19.671875 37.40625 
L 32.078125 37.40625 
Q 38.96875 37.40625 42.71875 40.96875 
Q 46.484375 44.53125 46.484375 51.125 
Q 46.484375 57.671875 42.71875 61.234375 
Q 38.96875 64.796875 32.078125 64.796875 
z
M 9.8125 72.90625 
L 32.078125 72.90625 
Q 44.34375 72.90625 50.609375 67.359375 
Q 56.890625 61.8125 56.890625 51.125 
Q 56.890625 40.328125 50.609375 34.8125 
Q 44.34375 29.296875 32.078125 29.296875 
L 19.671875 29.296875 
L 19.671875 0 
L 9.8125 0 
z
" id="DejaVuSans-50"/>
      <path d="M 30.609375 48.390625 
Q 23.390625 48.390625 19.1875 42.75 
Q 14.984375 37.109375 14.984375 27.296875 
Q 14.984375 17.484375 19.15625 11.84375 
Q 23.34375 6.203125 30.609375 6.203125 
Q 37.796875 6.203125 41.984375 11.859375 
Q 46.1875 17.53125 46.1875 27.296875 
Q 46.1875 37.015625 41.984375 42.703125 
Q 37.796875 48.390625 30.609375 48.390625 
M 30.609375 56 
Q 42.328125 56 49.015625 48.375 
Q 55.71875 40.765625 55.71875 27.296875 
Q 55.71875 13.875 49.015625 6.21875 
Q 42.328125 -1.421875 30.609375 -1.421875 
Q 18.84375 -1.421875 12.171875 6.21875 
Q 5.515625 13.875 5.515625 27.296875 
Q 5.515625 40.765625 12.171875 48.375 
Q 18.84375 56 30.609375 56 
" id="DejaVuSans-6f"/>
      <path d="M 9.421875 54.6875 
L 18.40625 54.6875 
L 18.40625 0 
L 9.421875 0 
z
M 9.421875 75.984375 
L 18.40625 75.984375 
L 18.40625 64.59375 
L 9.421875 64.59375 
z
" id="DejaVuSans-69"/>
      <path d="M 18.3125 70.21875 
L 18.3125 54.6875 
L 36.8125 54.6875 
L 36.8125 47.703125 
L 18.3125 47.703125 
L 18.3125 18.015625 
Q 18.3125 11.328125 20.140625 9.421875 
Q 21.96875 7.515625 27.59375 7.515625 
L 36.8125 7.515625 
L 36.8125 0 
L 27.59375 0 
Q 17.1875 0 13.234375 3.875 
Q 9.28125 7.765625 9.28125 18.015625 
L 9.28125 47.703125 
L 2.6875 47.703125 
L 2.6875 54.6875 
L 9.28125 54.6875 
L 9.28125 70.21875 
z
" id="DejaVuSans-74"/>
      <path d="M 2.984375 54.6875 
L 12.5 54.6875 
L 29.59375 8.796875 
L 46.6875 54.6875 
L 56.203125 54.6875 
L 35.6875 0 
L 23.484375 0 
z
" id="DejaVuSans-76"/>
      <path d="M 44.390625 34.1875 
Q 47.5625 33.109375 50.5625 29.59375 
Q 53.5625 26.078125 56.59375 19.921875 
L 66.609375 0 
L 56 0 
L 46.6875 18.703125 
Q 43.0625 26.03125 39.671875 28.421875 
Q 36.28125 30.8125 30.421875 30.8125 
L 19.671875 30.8125 
L 19.671875 0 
L 9.8125 0 
L 9.8125 72.90625 
L 32.078125 72.90625 
Q 44.578125 72.90625 50.734375 67.671875 
Q 56.890625 62.453125 56.890625 51.90625 
Q 56.890625 45.015625 53.6875 40.46875 
Q 50.484375 35.9375 44.390625 34.1875 
M 19.671875 64.796875 
L 19.671875 38.921875 
L 32.078125 38.921875 
Q 39.203125 38.921875 42.84375 42.21875 
Q 46.484375 45.515625 46.484375 51.90625 
Q 46.484375 58.296875 42.84375 61.546875 
Q 39.203125 64.796875 32.078125 64.796875 
z
" id="DejaVuSans-52"/>
     </defs>
     <g transform="translate(175.135781 330.144062)scale(0.1 -0.1)">
      <use xlink:href="#DejaVuSans-46"/>
      <use x="57.378906" xlink:href="#DejaVuSans-61"/>
      <use x="118.658203" xlink:href="#DejaVuSans-6c"/>
      <use x="146.441406" xlink:href="#DejaVuSans-73"/>
      <use x="198.541016" xlink:href="#DejaVuSans-65"/>
      <use x="260.064453" xlink:href="#DejaVuSans-20"/>
      <use x="291.851562" xlink:href="#DejaVuSans-50"/>
      <use x="352.107422" xlink:href="#DejaVuSans-6f"/>
      <use x="413.289062" xlink:href="#DejaVuSans-73"/>
      <use x="465.388672" xlink:href="#DejaVuSans-69"/>
      <use x="493.171875" xlink:href="#DejaVuSans-74"/>
      <use x="532.380859" xlink:href="#DejaVuSans-69"/>
      <use x="560.164062" xlink:href="#DejaVuSans-76"/>
      <use x="619.34375" xlink:href="#DejaVuSans-65"/>
      <use x="680.867188" xlink:href="#DejaVuSans-20"/>
      <use x="712.654297" xlink:href="#DejaVuSans-52"/>
      <use x="782.105469" xlink:href="#DejaVuSans-61"/>
      <use x="843.384766" xlink:href="#DejaVuSans-74"/>
      <use x="882.59375" xlink:href="#DejaVuSans-65"/>
     </g>
    </g>
   </g>
   <g id="matplotlib.axis_2">
    <g id="ytick_1">
     <g id="line2d_7">
      <defs>
       <path d="M 0 0 
L -3.5 0 
" id="m0235c943fa" style="stroke:#000000;stroke-width:0.8;"/>
      </defs>
      <g>
       <use style="stroke:#000000;stroke-width:0.8;" x="43.78125" xlink:href="#m0235c943fa" y="301.8675"/>
      </g>
     </g>
     <g id="text_8">
      <!-- 0.0 -->
      <g transform="translate(20.878125 305.666719)scale(0.1 -0.1)">
       <use xlink:href="#DejaVuSans-30"/>
       <use x="63.623047" xlink:href="#DejaVuSans-2e"/>
       <use x="95.410156" xlink:href="#DejaVuSans-30"/>
      </g>
     </g>
    </g>
    <g id="ytick_2">
     <g id="line2d_8">
      <g>
       <use style="stroke:#000000;stroke-width:0.8;" x="43.78125" xlink:href="#m0235c943fa" y="251.1795"/>
      </g>
     </g>
     <g id="text_9">
      <!-- 0.2 -->
      <g transform="translate(20.878125 254.978719)scale(0.1 -0.1)">
       <use xlink:href="#DejaVuSans-30"/>
       <use x="63.623047" xlink:href="#DejaVuSans-2e"/>
       <use x="95.410156" xlink:href="#DejaVuSans-32"/>
      </g>
     </g>
    </g>
    <g id="ytick_3">
     <g id="line2d_9">
      <g>
       <use style="stroke:#000000;stroke-width:0.8;" x="43.78125" xlink:href="#m0235c943fa" y="200.4915"/>
      </g>
     </g>
     <g id="text_10">
      <!-- 0.4 -->
      <g transform="translate(20.878125 204.290719)scale(0.1 -0.1)">
       <use xlink:href="#DejaVuSans-30"/>
       <use x="63.623047" xlink:href="#DejaVuSans-2e"/>
       <use x="95.410156" xlink:href="#DejaVuSans-34"/>
      </g>
     </g>
    </g>
    <g id="ytick_4">
     <g id="line2d_10">
      <g>
       <use style="stroke:#000000;stroke-width:0.8;" x="43.78125" xlink:href="#m0235c943fa" y="149.8035"/>
      </g>
     </g>
     <g id="text_11">
      <!-- 0.6 -->
      <g transform="translate(20.878125 153.602719)scale(0.1 -0.1)">
       <use xlink:href="#DejaVuSans-30"/>
       <use x="63.623047" xlink:href="#DejaVuSans-2e"/>
       <use x="95.410156" xlink:href="#DejaVuSans-36"/>
      </g>
     </g>
    </g>
    <g id="ytick_5">
     <g id="line2d_11">
      <g>
       <use style="stroke:#000000;stroke-width:0.8;" x="43.78125" xlink:href="#m0235c943fa" y="99.1155"/>
      </g>
     </g>
     <g id="text_12">
      <!-- 0.8 -->
      <g transform="translate(20.878125 102.914719)scale(0.1 -0.1)">
       <use xlink:href="#DejaVuSans-30"/>
       <use x="63.623047" xlink:href="#DejaVuSans-2e"/>
       <use x="95.410156" xlink:href="#DejaVuSans-38"/>
      </g>
     </g>
    </g>
    <g id="ytick_6">
     <g id="line2d_12">
      <g>
       <use style="stroke:#000000;stroke-width:0.8;" x="43.78125" xlink:href="#m0235c943fa" y="48.4275"/>
      </g>
     </g>
     <g id="text_13">
      <!-- 1.0 -->
      <g transform="translate(20.878125 52.226719)scale(0.1 -0.1)">
       <use xlink:href="#DejaVuSans-31"/>
       <use x="63.623047" xlink:href="#DejaVuSans-2e"/>
       <use x="95.410156" xlink:href="#DejaVuSans-30"/>
      </g>
     </g>
    </g>
    <g id="text_14">
     <!-- True Positive Rate -->
     <defs>
      <path d="M -0.296875 72.90625 
L 61.375 72.90625 
L 61.375 64.59375 
L 35.5 64.59375 
L 35.5 0 
L 25.59375 0 
L 25.59375 64.59375 
L -0.296875 64.59375 
z
" id="DejaVuSans-54"/>
      <path d="M 41.109375 46.296875 
Q 39.59375 47.171875 37.8125 47.578125 
Q 36.03125 48 33.890625 48 
Q 26.265625 48 22.1875 43.046875 
Q 18.109375 38.09375 18.109375 28.8125 
L 18.109375 0 
L 9.078125 0 
L 9.078125 54.6875 
L 18.109375 54.6875 
L 18.109375 46.1875 
Q 20.953125 51.171875 25.484375 53.578125 
Q 30.03125 56 36.53125 56 
Q 37.453125 56 38.578125 55.875 
Q 39.703125 55.765625 41.0625 55.515625 
z
" id="DejaVuSans-72"/>
      <path d="M 8.5 21.578125 
L 8.5 54.6875 
L 17.484375 54.6875 
L 17.484375 21.921875 
Q 17.484375 14.15625 20.5 10.265625 
Q 23.53125 6.390625 29.59375 6.390625 
Q 36.859375 6.390625 41.078125 11.03125 
Q 45.3125 15.671875 45.3125 23.6875 
L 45.3125 54.6875 
L 54.296875 54.6875 
L 54.296875 0 
L 45.3125 0 
L 45.3125 8.40625 
Q 42.046875 3.421875 37.71875 1 
Q 33.40625 -1.421875 27.6875 -1.421875 
Q 18.265625 -1.421875 13.375 4.4375 
Q 8.5 10.296875 8.5 21.578125 
M 31.109375 56 
z
" id="DejaVuSans-75"/>
     </defs>
     <g transform="translate(14.798438 214.357594)rotate(-90)scale(0.1 -0.1)">
      <use xlink:href="#DejaVuSans-54"/>
      <use x="60.865234" xlink:href="#DejaVuSans-72"/>
      <use x="101.978516" xlink:href="#DejaVuSans-75"/>
      <use x="165.357422" xlink:href="#DejaVuSans-65"/>
      <use x="226.880859" xlink:href="#DejaVuSans-20"/>
      <use x="258.667969" xlink:href="#DejaVuSans-50"/>
      <use x="318.923828" xlink:href="#DejaVuSans-6f"/>
      <use x="380.105469" xlink:href="#DejaVuSans-73"/>
      <use x="432.205078" xlink:href="#DejaVuSans-69"/>
      <use x="459.988281" xlink:href="#DejaVuSans-74"/>
      <use x="499.197266" xlink:href="#DejaVuSans-69"/>
      <use x="526.980469" xlink:href="#DejaVuSans-76"/>
      <use x="586.160156" xlink:href="#DejaVuSans-65"/>
      <use x="647.683594" xlink:href="#DejaVuSans-20"/>
      <use x="679.470703" xlink:href="#DejaVuSans-52"/>
      <use x="748.921875" xlink:href="#DejaVuSans-61"/>
      <use x="810.201172" xlink:href="#DejaVuSans-74"/>
      <use x="849.410156" xlink:href="#DejaVuSans-65"/>
     </g>
    </g>
   </g>
   <g id="line2d_13">
    <path clip-path="url(#pbd46db1f59)" d="M 43.78125 301.8675 
L 43.829294 301.8675 
L 44.002252 300.557055 
L 44.059905 298.460344 
L 44.564366 298.460344 
L 44.737324 296.363632 
L 45.741442 283.259186 
L 45.813507 283.259186 
L 46.010487 280.114118 
L 46.058531 280.114118 
L 48.302182 244.207934 
L 48.431901 243.159579 
L 48.897927 237.131533 
L 48.94597 237.131533 
L 50.007741 232.413932 
L 50.310418 229.530954 
L 50.478571 229.530954 
L 50.517006 229.006776 
L 50.661138 229.006776 
L 51.612408 217.212774 
L 51.756539 217.212774 
L 52.039998 213.019351 
L 52.208152 209.874284 
L 52.357088 208.30175 
L 52.405132 208.30175 
L 53.130595 199.128638 
L 53.226683 199.128638 
L 53.317966 198.60446 
L 53.390032 198.60446 
L 53.490924 197.556104 
L 53.538968 197.556104 
L 54.019407 193.100592 
L 54.307671 193.100592 
L 55.215701 181.830768 
L 55.383855 181.830768 
L 55.479942 179.209878 
L 55.624074 179.209878 
L 55.941164 176.3269 
L 56.128535 175.540633 
L 56.368755 175.540633 
L 56.623387 172.919744 
L 56.695453 172.919744 
L 57.137457 168.202143 
L 57.257567 167.940054 
L 57.449743 167.940054 
L 57.574657 166.891699 
L 57.646723 166.891699 
L 57.685158 166.367521 
L 57.877334 166.367521 
L 58.035878 162.174098 
L 58.155988 162.174098 
L 58.328946 161.125742 
L 58.761341 161.125742 
L 58.847821 160.077386 
L 59.424347 160.077386 
L 59.626132 157.718586 
L 59.842329 157.718586 
L 59.986461 157.456497 
L 60.250703 157.456497 
L 60.471705 155.621874 
L 60.832034 155.621874 
L 60.971361 155.097696 
L 61.125102 154.31143 
L 61.173146 152.738896 
L 61.413365 152.738896 
L 61.504649 152.476807 
L 61.648781 152.476807 
L 61.73526 151.952629 
L 62.215699 151.952629 
L 62.398266 148.283384 
L 62.830661 148.283384 
L 62.965184 147.759206 
L 63.03725 147.759206 
L 63.11412 146.710851 
L 63.570537 146.710851 
L 63.78193 143.827872 
L 63.926062 143.827872 
L 64.09902 141.206983 
L 64.579459 141.206983 
L 64.675547 140.682805 
L 64.742808 138.324005 
L 65.103138 138.324005 
L 65.155986 136.751471 
L 65.396206 136.751471 
L 65.52112 135.178937 
L 65.881449 135.178937 
L 66.136082 134.392671 
L 66.784675 134.392671 
L 66.895176 133.606404 
L 66.991263 133.606404 
L 67.082547 133.344315 
L 67.683096 133.344315 
L 67.769575 132.820137 
L 67.96175 132.820137 
L 68.019403 132.03387 
L 68.451798 132.03387 
L 68.586321 131.247603 
L 70.243836 131.247603 
L 70.426403 128.364625 
L 70.527295 126.792092 
L 70.983712 126.792092 
L 71.031756 126.267914 
L 73.554062 126.267914 
L 73.68378 124.69538 
L 73.875956 124.69538 
L 73.904782 123.122846 
L 74.529353 123.122846 
L 74.615832 122.33658 
L 75.024205 122.33658 
L 75.067445 120.764046 
L 76.821048 120.764046 
L 76.974788 119.977779 
L 77.142942 119.977779 
L 77.224617 118.405246 
L 79.074307 118.405246 
L 79.228048 117.618979 
L 79.708487 117.618979 
L 79.828596 117.35689 
L 80.765453 117.35689 
L 80.851932 116.832712 
L 81.716722 116.832712 
L 81.764766 116.570623 
L 82.821732 116.570623 
L 82.908211 116.046445 
L 86.607592 116.046445 
L 86.665245 115.260178 
L 87.578079 115.260178 
L 87.803886 110.542578 
L 87.948017 110.542578 
L 88.044105 110.280489 
L 89.485423 110.280489 
L 89.543075 109.494222 
L 90.551997 109.494222 
L 90.65289 107.921688 
L 91.085285 107.921688 
L 91.224612 106.349155 
L 92.161468 106.349155 
L 92.180686 106.087066 
L 95.808001 106.087066 
L 95.904089 105.824977 
L 96.552682 105.824977 
L 96.692009 105.562888 
L 98.805941 105.562888 
L 98.906834 103.990354 
L 99.747602 103.990354 
L 99.834081 100.845287 
L 103.461396 100.845287 
L 103.591115 100.05902 
L 103.807313 100.05902 
L 103.913009 96.913953 
L 104.057141 96.913953 
L 104.191664 96.127686 
L 111.085965 96.127686 
L 111.148422 95.341419 
L 113.958991 95.341419 
L 114.050274 95.07933 
L 115.707789 95.07933 
L 115.707789 91.147996 
L 121.665234 91.147996 
L 121.708474 90.885907 
L 122.140869 90.885907 
L 122.256174 89.313374 
L 123.601404 89.313374 
L 123.707101 88.527107 
L 124.619935 88.527107 
L 124.619935 84.595773 
L 124.692001 84.595773 
L 125.244506 84.595773 
L 125.335789 83.023239 
L 127.305589 83.023239 
L 127.449721 82.76115 
L 131.965849 82.76115 
L 131.994675 81.188617 
L 133.53208 81.188617 
L 134.156651 80.926528 
L 134.300783 80.926528 
L 134.416088 79.353994 
L 134.728374 79.353994 
L 135.929471 78.567728 
L 138.667974 78.567728 
L 138.86015 78.305639 
L 139.244501 78.305639 
L 139.282936 77.519372 
L 139.427068 77.519372 
L 139.566396 77.257283 
L 140.022813 77.257283 
L 140.114096 76.995194 
L 141.50737 76.995194 
L 141.617871 76.208927 
L 146.326174 76.208927 
L 146.417457 75.946838 
L 147.330292 75.946838 
L 147.469619 74.374305 
L 149.847793 74.374305 
L 150.001533 73.588038 
L 151.611004 73.588038 
L 151.750331 72.015504 
L 154.512856 72.015504 
L 154.628162 71.753415 
L 157.318621 71.753415 
L 157.4051 70.967148 
L 157.957605 70.967148 
L 158.020062 70.442971 
L 158.260281 70.442971 
L 158.423631 70.180882 
L 158.90407 70.180882 
L 158.961722 69.394615 
L 159.946623 69.394615 
L 160.133994 68.870437 
L 165.846415 68.870437 
L 165.966525 68.608348 
L 166.350876 68.608348 
L 166.413333 68.08417 
L 166.557465 68.08417 
L 166.706401 67.035814 
L 168.181349 67.035814 
L 168.325481 66.773725 
L 181.796993 66.773725 
L 181.941125 66.511637 
L 187.456566 66.511637 
L 187.600698 66.249548 
L 189.762674 66.249548 
L 189.892392 65.463281 
L 191.165556 65.463281 
L 191.295275 64.677014 
L 200.803165 64.677014 
L 200.870426 64.414925 
L 208.341254 64.414925 
L 208.403711 63.628658 
L 208.619909 63.628658 
L 208.783258 63.366569 
L 210.15251 63.366569 
L 210.267815 63.10448 
L 211.276737 63.10448 
L 212.573923 61.794036 
L 212.766099 61.794036 
L 212.891013 59.435235 
L 213.020731 58.648968 
L 213.669324 58.648968 
L 213.981609 58.38688 
L 220.803845 58.38688 
L 220.91915 58.124791 
L 221.15937 58.124791 
L 221.735897 57.862702 
L 222.840907 57.862702 
L 223.201236 57.600613 
L 223.32615 56.552257 
L 232.022098 56.552257 
L 232.074946 55.503901 
L 232.651473 54.979723 
L 232.742757 54.717634 
L 250.389285 54.717634 
L 250.504591 54.455546 
L 251.153183 54.455546 
L 251.292511 54.193457 
L 253.022092 54.193457 
L 253.127788 53.40719 
L 256.46684 53.40719 
L 257.043367 53.145101 
L 257.105824 52.620923 
L 264.94659 52.620923 
L 267.180632 52.358834 
L 287.98845 52.358834 
L 288.103756 52.096745 
L 289.785292 52.096745 
L 290.361819 51.834656 
L 298.457218 51.834656 
L 298.505262 51.572567 
L 301.459963 51.572567 
L 301.623312 51.310478 
L 301.767444 51.310478 
L 301.810683 51.048389 
L 304.405055 51.048389 
L 304.568404 50.7863 
L 309.709102 50.7863 
L 309.824408 50.524211 
L 310.328869 50.524211 
L 310.376913 50.262123 
L 326.591733 50.262123 
L 326.759886 50.000034 
L 338.487405 50.000034 
L 338.597906 49.475856 
L 339.078345 49.475856 
L 339.145607 49.213767 
L 352.021375 49.213767 
L 352.151093 48.4275 
L 400.90125 48.4275 
L 400.90125 48.4275 
" style="fill:none;stroke:#1f77b4;stroke-linecap:square;stroke-width:1.5;"/>
   </g>
   <g id="line2d_14">
    <path clip-path="url(#pbd46db1f59)" d="M 43.78125 301.8675 
L 44.069513 301.8675 
L 44.189623 300.294966 
L 44.405821 300.294966 
L 44.607605 299.246611 
L 44.737324 298.722433 
L 44.867042 295.577366 
L 45.092849 291.383943 
L 45.236981 290.859765 
L 45.381112 288.238875 
L 45.429156 288.238875 
L 45.678984 284.307541 
L 45.75105 284.307541 
L 45.924008 282.21083 
L 46.212272 282.21083 
L 48.331008 262.55416 
L 48.388661 260.457448 
L 48.806643 257.312381 
L 49.022841 257.312381 
L 49.10932 256.788203 
L 49.181386 256.788203 
L 49.469649 252.856869 
L 49.541715 252.856869 
L 49.618585 251.284336 
L 49.834783 251.284336 
L 51.07912 241.587045 
L 51.223252 239.752422 
L 51.367384 239.752422 
L 51.857431 235.558999 
L 52.241783 235.558999 
L 52.433958 232.676021 
L 52.57809 232.676021 
L 52.770266 227.696331 
L 52.81831 227.696331 
L 53.351597 220.095752 
L 53.423663 220.095752 
L 53.721535 215.116063 
L 53.769579 215.116063 
L 54.144322 210.136373 
L 54.312475 205.94295 
L 54.672805 205.94295 
L 54.86498 204.632505 
L 54.913024 204.632505 
L 55.186874 202.273705 
L 55.234918 202.273705 
L 55.321397 200.96326 
L 55.503964 198.080282 
L 55.552008 198.080282 
L 55.69614 197.031926 
L 55.840272 197.031926 
L 56.195797 193.62477 
L 56.339928 193.62477 
L 56.460038 192.576414 
L 56.508082 192.576414 
L 56.623387 191.003881 
L 56.743497 191.003881 
L 57.075 187.596724 
L 57.699571 187.596724 
L 57.90616 186.024191 
L 58.146379 186.024191 
L 58.295316 183.927479 
L 58.463469 183.403301 
L 58.679667 183.403301 
L 59.289825 177.899434 
L 59.409934 177.899434 
L 59.457978 177.375256 
L 60.394834 177.375256 
L 60.43327 176.851078 
L 60.577401 176.851078 
L 60.697511 176.3269 
L 60.889687 176.3269 
L 61.096276 175.278544 
L 61.144319 175.278544 
L 61.389343 173.443922 
L 61.653585 173.443922 
L 61.821739 172.395566 
L 61.941848 172.395566 
L 62.124415 170.823033 
L 62.316591 170.823033 
L 62.547202 169.512588 
L 62.691333 169.512588 
L 62.777812 168.464232 
L 62.921944 168.464232 
L 63.018032 167.940054 
L 63.373557 160.077386 
L 63.757908 160.077386 
L 64.02215 158.242764 
L 64.118238 158.242764 
L 64.324826 156.67023 
L 64.757222 156.67023 
L 64.843701 153.000985 
L 65.516315 153.000985 
L 65.64123 151.952629 
L 65.833405 151.952629 
L 65.953515 151.428451 
L 66.083234 150.642185 
L 66.371497 150.642185 
L 66.438758 149.069651 
L 66.703 149.069651 
L 66.789479 148.021295 
L 67.077742 148.021295 
L 67.17383 147.235028 
L 67.245896 147.235028 
L 67.37081 146.186673 
L 67.659074 146.186673 
L 67.697509 145.662495 
L 68.033816 145.662495 
L 68.20197 144.089961 
L 68.32208 144.089961 
L 68.446994 143.041605 
L 68.523864 141.99325 
L 69.484742 141.99325 
L 69.571221 141.206983 
L 69.643287 141.206983 
L 69.681722 140.682805 
L 70.258249 140.682805 
L 70.48886 139.110271 
L 71.257563 139.110271 
L 72.069505 133.082226 
L 72.357768 133.082226 
L 72.564357 132.295959 
L 74.918509 132.295959 
L 74.956944 131.771781 
L 75.605537 131.771781 
L 75.725646 129.937159 
L 75.869778 129.937159 
L 75.989888 129.67507 
L 76.182064 129.67507 
L 76.40787 129.150892 
L 76.960375 129.150892 
L 77.056463 128.626714 
L 77.320704 128.626714 
L 77.407183 128.102536 
L 77.671425 128.102536 
L 77.998123 125.481647 
L 78.454541 125.481647 
L 79.045481 123.384935 
L 79.477876 123.384935 
L 79.670052 121.288224 
L 79.838205 121.288224 
L 80.164904 119.71569 
L 80.909584 119.71569 
L 80.938411 118.667335 
L 82.64397 118.667335 
L 82.898602 117.881068 
L 83.835459 117.881068 
L 84.003612 117.094801 
L 84.484051 117.094801 
L 84.541704 116.308534 
L 84.685836 116.308534 
L 84.829968 116.046445 
L 85.046165 116.046445 
L 85.420908 113.949734 
L 86.405808 113.949734 
L 87.054401 112.3772 
L 87.871147 112.3772 
L 88.024888 111.590933 
L 88.096954 111.590933 
L 88.193041 110.542578 
L 90.643281 110.542578 
L 90.681716 110.0184 
L 91.210199 110.0184 
L 91.282265 109.494222 
L 91.618572 109.494222 
L 91.690638 108.445866 
L 92.603472 108.445866 
L 92.843692 107.659599 
L 95.486107 107.659599 
L 95.606217 106.611244 
L 95.822415 106.611244 
L 98.921247 106.349155 
L 99.786037 106.349155 
L 99.834081 105.562888 
L 101.29942 105.562888 
L 101.395508 104.514532 
L 101.683772 104.514532 
L 101.842317 103.990354 
L 102.01047 103.990354 
L 102.183428 100.321109 
L 102.375604 100.321109 
L 102.481301 99.534842 
L 104.878692 99.534842 
L 105.037237 97.962309 
L 105.109303 97.962309 
L 105.20539 97.438131 
L 105.685829 97.438131 
L 105.829961 96.651864 
L 109.048903 96.651864 
L 109.106556 96.127686 
L 118.436683 96.127686 
L 118.676903 92.982619 
L 118.845057 92.982619 
L 118.883492 92.196352 
L 119.628172 92.196352 
L 119.72426 91.934263 
L 119.84437 91.934263 
L 119.959675 91.410085 
L 120.151851 91.410085 
L 120.247939 91.147996 
L 121.97752 91.147996 
L 123.370793 90.36173 
L 129.376282 90.36173 
L 129.424326 89.575463 
L 130.625424 89.575463 
L 130.702294 88.527107 
L 137.836815 88.527107 
L 137.980946 88.265018 
L 138.173122 88.265018 
L 138.365298 88.002929 
L 138.773671 88.002929 
L 139.158022 87.74084 
L 145.259599 87.74084 
L 145.307643 87.216662 
L 145.64395 87.216662 
L 145.691994 86.954573 
L 147.061246 86.954573 
L 147.229399 85.906218 
L 149.391375 85.906218 
L 149.434615 84.333684 
L 152.653557 84.333684 
L 152.807297 83.809506 
L 154.753076 83.809506 
L 154.868381 82.236973 
L 154.964469 82.236973 
L 155.156645 81.712795 
L 159.110659 81.712795 
L 159.278812 80.664439 
L 160.72013 80.664439 
L 160.777782 79.878172 
L 163.876615 79.878172 
L 163.99192 78.829816 
L 164.592469 78.829816 
L 165.505303 78.567728 
L 165.96172 78.567728 
L 165.990547 77.519372 
L 167.873868 77.519372 
L 169.171054 77.257283 
L 169.358425 75.160571 
L 171.352247 75.160571 
L 171.505988 74.636393 
L 173.307634 74.636393 
L 173.42294 73.06386 
L 175.416762 73.06386 
L 175.488828 72.801771 
L 179.81278 72.801771 
L 179.923281 72.277593 
L 184.295277 72.277593 
L 184.449017 71.491326 
L 186.707081 71.491326 
L 186.822387 69.918793 
L 192.563634 68.08417 
L 193.788754 68.08417 
L 193.904059 67.822081 
L 199.044758 67.822081 
L 199.160063 66.773725 
L 200.193007 66.773725 
L 201.129863 66.511637 
L 202.114763 66.511637 
L 202.354983 65.987459 
L 202.955532 65.987459 
L 203.070837 65.72537 
L 203.59932 65.72537 
L 204.82444 64.414925 
L 208.283602 64.414925 
L 208.341254 63.890747 
L 210.094857 63.890747 
L 213.529997 63.628658 
L 216.100346 63.628658 
L 216.220456 63.366569 
L 217.301444 63.366569 
L 217.359096 62.842391 
L 218.536172 62.842391 
L 218.651478 62.580302 
L 219.396158 62.580302 
L 219.434593 62.056125 
L 224.407138 62.056125 
L 224.536857 61.531947 
L 224.680988 61.531947 
L 224.724228 59.959413 
L 228.495675 59.959413 
L 228.61098 58.38688 
L 235.12093 58.38688 
L 235.255453 57.862702 
L 241.669315 57.862702 
L 241.760599 57.600613 
L 242.048862 57.600613 
L 243.754421 57.338524 
L 244.715299 57.338524 
L 244.859431 57.076435 
L 250.912964 57.076435 
L 251.033074 56.814346 
L 253.286333 56.814346 
L 253.396834 56.028079 
L 270.380357 56.028079 
L 271.101015 55.76599 
L 274.175826 55.76599 
L 274.291131 54.717634 
L 280.53684 54.717634 
L 280.801081 53.669279 
L 281.641849 53.669279 
L 281.75235 52.883012 
L 284.106502 52.883012 
L 284.495658 52.620923 
L 289.035807 52.620923 
L 289.208765 51.048389 
L 292.691949 51.048389 
L 293.268476 50.524211 
L 297.520362 50.524211 
L 297.606841 50.000034 
L 297.96717 50.000034 
L 299.360444 49.737945 
L 310.924613 49.737945 
L 311.212877 49.213767 
L 315.945202 49.213767 
L 316.031681 48.689589 
L 316.295923 48.689589 
L 317.040603 48.4275 
L 400.90125 48.4275 
L 400.90125 48.4275 
" style="fill:none;stroke:#ff7f0e;stroke-linecap:square;stroke-width:1.5;"/>
   </g>
   <g id="line2d_15">
    <path clip-path="url(#pbd46db1f59)" d="M 43.78125 301.8675 
L 43.829294 301.8675 
L 43.877338 301.8675 
L 43.992643 298.984522 
L 44.165601 297.411988 
L 44.357777 297.411988 
L 44.746933 293.218565 
L 44.891064 293.218565 
L 45.035196 291.90812 
L 45.164915 290.859765 
L 45.381112 290.859765 
L 45.472396 288.763053 
L 45.736637 287.19052 
L 45.880769 284.045452 
L 45.952835 284.045452 
L 46.169032 283.259186 
L 46.313164 283.259186 
L 46.457296 282.735008 
L 46.601428 282.735008 
L 46.639863 282.21083 
L 46.783994 282.21083 
L 46.908909 281.162474 
L 49.733891 251.808513 
L 49.825174 250.23598 
L 50.002936 248.401357 
L 50.147068 248.401357 
L 50.305613 246.042557 
L 50.449745 246.042557 
L 51.698887 236.869444 
L 51.900671 234.772733 
L 51.948715 234.772733 
L 52.265805 232.413932 
L 52.313849 232.413932 
L 52.429154 228.744687 
L 52.861549 228.744687 
L 53.04892 227.696331 
L 53.28914 227.696331 
L 53.447685 226.385887 
L 53.711926 226.385887 
L 53.822427 225.861709 
L 53.947342 224.289175 
L 54.004994 223.764997 
L 54.221192 223.764997 
L 54.595934 220.095752 
L 54.643978 220.095752 
L 54.716044 219.571574 
L 54.860176 219.571574 
L 55.06196 217.474863 
L 55.134026 217.474863 
L 55.278158 216.688596 
L 55.398268 216.688596 
L 55.566421 215.64024 
L 55.724966 212.495173 
L 55.797032 211.708906 
L 55.941164 211.708906 
L 56.027643 211.184729 
L 56.60417 211.184729 
L 56.72428 209.612195 
L 57.132653 204.894594 
L 57.199914 201.487438 
L 57.560244 201.487438 
L 57.685158 200.439082 
L 58.093531 200.439082 
L 58.122357 199.390726 
L 58.266489 199.390726 
L 58.386599 197.031926 
L 58.843016 197.031926 
L 59.025583 195.459392 
L 59.169715 195.459392 
L 59.299433 192.838503 
L 59.443565 192.838503 
L 59.472391 191.790147 
L 59.688589 191.790147 
L 59.784677 190.479703 
L 59.928809 190.479703 
L 60.111375 188.64508 
L 60.255507 188.64508 
L 60.423661 187.072547 
L 60.577401 184.975835 
L 61.033818 184.975835 
L 61.17795 182.879124 
L 62.018719 182.879124 
L 62.047545 181.830768 
L 62.263743 181.830768 
L 62.383852 181.044501 
L 62.47994 181.044501 
L 62.662507 179.996145 
L 63.142946 179.996145 
L 63.253447 179.471967 
L 63.733886 179.471967 
L 64.190303 175.278544 
L 64.262369 175.278544 
L 64.377675 172.657655 
L 64.545828 172.657655 
L 64.584264 172.133477 
L 64.968615 172.133477 
L 65.064703 171.609299 
L 65.208834 171.609299 
L 65.425032 170.036766 
L 65.545142 170.036766 
L 65.665252 168.98841 
L 66.337866 168.98841 
L 66.481998 167.415876 
L 67.130591 167.415876 
L 67.269918 165.843343 
L 67.366006 165.843343 
L 67.630247 162.960365 
L 68.422972 162.960365 
L 68.509451 161.912009 
L 68.653583 161.912009 
L 68.802519 159.553208 
L 68.946651 159.553208 
L 69.057152 159.029031 
L 69.441503 159.029031 
L 69.600048 157.718586 
L 69.792223 157.718586 
L 69.869094 156.67023 
L 70.037247 156.67023 
L 70.123726 156.146052 
L 70.195792 156.146052 
L 70.738689 153.263074 
L 70.954886 150.118007 
L 71.00293 150.118007 
L 71.147062 149.855918 
L 71.939786 149.855918 
L 71.978221 149.33174 
L 72.530726 149.33174 
L 72.602792 149.069651 
L 72.991948 144.614139 
L 73.256189 144.614139 
L 73.424343 143.303694 
L 73.928804 143.303694 
L 74.096958 142.255339 
L 74.24109 142.255339 
L 74.639854 139.896538 
L 75.312469 139.896538 
L 75.341295 138.848183 
L 77.383161 138.848183 
L 77.527293 137.799827 
L 78.824479 137.799827 
L 79.093525 135.441026 
L 79.213634 135.441026 
L 79.348157 134.916849 
L 79.444245 134.916849 
L 79.612399 134.65476 
L 79.756531 134.65476 
L 80.044794 132.558048 
L 81.269914 132.558048 
L 81.327567 131.771781 
L 81.687896 131.771781 
L 81.85605 131.509692 
L 82.456598 131.509692 
L 82.60073 130.723426 
L 84.450421 130.723426 
L 84.541704 129.67507 
L 85.142253 129.67507 
L 85.382473 128.102536 
L 85.550626 128.102536 
L 85.656323 127.316269 
L 86.857421 127.316269 
L 87.039988 126.267914 
L 87.68858 126.267914 
L 87.746233 125.481647 
L 88.635045 125.481647 
L 88.779177 124.171202 
L 89.091463 124.171202 
L 89.177942 121.026135 
L 89.850556 121.026135 
L 89.908209 120.239868 
L 90.148429 120.239868 
L 90.316582 119.977779 
L 90.41267 119.977779 
L 90.893109 118.405246 
L 91.253439 118.405246 
L 91.301482 117.881068 
L 91.661812 117.881068 
L 91.748291 115.784356 
L 92.10862 115.784356 
L 92.353644 111.590933 
L 92.497776 111.328844 
L 92.978215 111.328844 
L 93.146369 110.804666 
L 93.626808 110.804666 
L 93.746918 109.494222 
L 95.188235 109.494222 
L 95.481303 107.921688 
L 97.643279 107.921688 
L 97.763389 107.135421 
L 98.26785 107.135421 
L 98.311089 105.562888 
L 99.656319 105.562888 
L 99.776428 105.03871 
L 100.280889 105.03871 
L 100.376977 104.514532 
L 100.785351 104.514532 
L 100.881438 103.466176 
L 101.02557 103.466176 
L 101.169702 100.321109 
L 102.3708 100.321109 
L 102.476496 99.534842 
L 102.64465 99.534842 
L 102.750346 98.748575 
L 105.657003 98.748575 
L 105.729069 97.962309 
L 106.065376 97.962309 
L 106.281574 96.127686 
L 106.521794 96.127686 
L 106.641903 95.865597 
L 106.978211 95.865597 
L 107.09832 95.341419 
L 108.155286 95.341419 
L 108.227352 94.555153 
L 108.827901 94.555153 
L 108.996055 94.293064 
L 109.068121 94.293064 
L 109.23147 93.506797 
L 109.880063 93.506797 
L 110.014586 92.982619 
L 110.495025 92.982619 
L 110.591113 92.72053 
L 111.239706 92.72053 
L 111.311771 92.196352 
L 112.873199 92.196352 
L 113.099005 91.410085 
L 113.243137 91.410085 
L 113.291181 91.147996 
L 114.179993 91.147996 
L 114.324125 90.099641 
L 119.488845 90.099641 
L 119.748282 88.002929 
L 120.228721 88.002929 
L 120.35844 86.692484 
L 122.063999 86.692484 
L 122.136065 86.430396 
L 125.427073 86.430396 
L 125.484725 85.644129 
L 131.201951 85.644129 
L 131.403735 84.333684 
L 132.172438 84.333684 
L 132.263721 82.76115 
L 134.95418 82.76115 
L 135.069485 81.188617 
L 142.770924 81.188617 
L 142.88623 80.926528 
L 143.174493 80.926528 
L 143.304212 80.140261 
L 144.096936 80.140261 
L 144.241068 79.878172 
L 145.514232 79.878172 
L 145.740038 79.091905 
L 147.373531 79.091905 
L 147.469619 77.781461 
L 149.127134 77.781461 
L 149.31931 77.257283 
L 150.015946 77.257283 
L 150.376276 73.588038 
L 151.313132 73.588038 
L 151.524525 72.015504 
L 152.869755 72.015504 
L 152.946625 70.967148 
L 154.075657 70.967148 
L 154.267832 70.442971 
L 155.516974 70.442971 
L 155.574627 69.656704 
L 155.934956 69.656704 
L 155.978196 69.394615 
L 163.569134 69.394615 
L 163.71807 67.822081 
L 167.009078 67.822081 
L 167.095557 67.297903 
L 168.296654 67.297903 
L 168.464808 67.035814 
L 169.281555 67.035814 
L 169.47373 66.511637 
L 171.443531 66.511637 
L 171.549227 65.72537 
L 172.750325 65.72537 
L 172.894457 65.463281 
L 173.158698 65.463281 
L 173.221155 64.939103 
L 175.719439 64.939103 
L 175.748265 63.890747 
L 176.372836 63.890747 
L 176.478532 63.10448 
L 178.232135 63.10448 
L 178.39068 62.056125 
L 182.258215 62.056125 
L 182.363912 61.269858 
L 199.61648 61.269858 
L 199.770221 60.483591 
L 201.619911 60.483591 
L 201.773652 59.697324 
L 205.016616 59.697324 
L 205.136725 59.173146 
L 207.298701 59.173146 
L 207.433224 58.648968 
L 217.066029 58.648968 
L 222.711188 56.290168 
L 223.864242 56.290168 
L 223.993961 55.503901 
L 227.044749 55.503901 
L 230.143581 54.717634 
L 237.278102 54.717634 
L 238.647353 53.669279 
L 241.529988 53.669279 
L 242.178581 53.40719 
L 248.400267 53.40719 
L 248.563617 53.145101 
L 257.475762 53.145101 
L 258.724904 52.358834 
L 258.91708 51.834656 
L 263.457229 51.834656 
L 263.543708 51.310478 
L 268.227989 51.310478 
L 268.266425 50.7863 
L 280.181315 50.7863 
L 280.238967 50.000034 
L 285.177881 50.000034 
L 285.288382 49.475856 
L 289.996686 49.475856 
L 290.837454 49.213767 
L 353.640455 49.213767 
L 353.698107 48.4275 
L 400.90125 48.4275 
L 400.90125 48.4275 
" style="fill:none;stroke:#2ca02c;stroke-linecap:square;stroke-width:1.5;"/>
   </g>
   <g id="line2d_16">
    <path clip-path="url(#pbd46db1f59)" d="M 43.78125 301.8675 
L 400.90125 48.4275 
" style="fill:none;stroke:#000000;stroke-dasharray:5.6,2.4;stroke-dashoffset:0;stroke-width:1.5;"/>
   </g>
   <g id="patch_3">
    <path d="M 43.78125 301.8675 
L 43.78125 35.7555 
" style="fill:none;stroke:#000000;stroke-linecap:square;stroke-linejoin:miter;stroke-width:0.8;"/>
   </g>
   <g id="patch_4">
    <path d="M 400.90125 301.8675 
L 400.90125 35.7555 
" style="fill:none;stroke:#000000;stroke-linecap:square;stroke-linejoin:miter;stroke-width:0.8;"/>
   </g>
   <g id="patch_5">
    <path d="M 43.78125 301.8675 
L 400.90125 301.8675 
" style="fill:none;stroke:#000000;stroke-linecap:square;stroke-linejoin:miter;stroke-width:0.8;"/>
   </g>
   <g id="patch_6">
    <path d="M 43.78125 35.7555 
L 400.90125 35.7555 
" style="fill:none;stroke:#000000;stroke-linecap:square;stroke-linejoin:miter;stroke-width:0.8;"/>
   </g>
   <g id="text_15">
    <!-- ROC Curve GradientBoosting + RandomOverSampler -->
    <defs>
     <path d="M 39.40625 66.21875 
Q 28.65625 66.21875 22.328125 58.203125 
Q 16.015625 50.203125 16.015625 36.375 
Q 16.015625 22.609375 22.328125 14.59375 
Q 28.65625 6.59375 39.40625 6.59375 
Q 50.140625 6.59375 56.421875 14.59375 
Q 62.703125 22.609375 62.703125 36.375 
Q 62.703125 50.203125 56.421875 58.203125 
Q 50.140625 66.21875 39.40625 66.21875 
M 39.40625 74.21875 
Q 54.734375 74.21875 63.90625 63.9375 
Q 73.09375 53.65625 73.09375 36.375 
Q 73.09375 19.140625 63.90625 8.859375 
Q 54.734375 -1.421875 39.40625 -1.421875 
Q 24.03125 -1.421875 14.8125 8.828125 
Q 5.609375 19.09375 5.609375 36.375 
Q 5.609375 53.65625 14.8125 63.9375 
Q 24.03125 74.21875 39.40625 74.21875 
" id="DejaVuSans-4f"/>
     <path d="M 64.40625 67.28125 
L 64.40625 56.890625 
Q 59.421875 61.53125 53.78125 63.8125 
Q 48.140625 66.109375 41.796875 66.109375 
Q 29.296875 66.109375 22.65625 58.46875 
Q 16.015625 50.828125 16.015625 36.375 
Q 16.015625 21.96875 22.65625 14.328125 
Q 29.296875 6.6875 41.796875 6.6875 
Q 48.140625 6.6875 53.78125 8.984375 
Q 59.421875 11.28125 64.40625 15.921875 
L 64.40625 5.609375 
Q 59.234375 2.09375 53.4375 0.328125 
Q 47.65625 -1.421875 41.21875 -1.421875 
Q 24.65625 -1.421875 15.125 8.703125 
Q 5.609375 18.84375 5.609375 36.375 
Q 5.609375 53.953125 15.125 64.078125 
Q 24.65625 74.21875 41.21875 74.21875 
Q 47.75 74.21875 53.53125 72.484375 
Q 59.328125 70.75 64.40625 67.28125 
" id="DejaVuSans-43"/>
     <path d="M 59.515625 10.40625 
L 59.515625 29.984375 
L 43.40625 29.984375 
L 43.40625 38.09375 
L 69.28125 38.09375 
L 69.28125 6.78125 
Q 63.578125 2.734375 56.6875 0.65625 
Q 49.8125 -1.421875 42 -1.421875 
Q 24.90625 -1.421875 15.25 8.5625 
Q 5.609375 18.5625 5.609375 36.375 
Q 5.609375 54.25 15.25 64.234375 
Q 24.90625 74.21875 42 74.21875 
Q 49.125 74.21875 55.546875 72.453125 
Q 61.96875 70.703125 67.390625 67.28125 
L 67.390625 56.78125 
Q 61.921875 61.421875 55.765625 63.765625 
Q 49.609375 66.109375 42.828125 66.109375 
Q 29.4375 66.109375 22.71875 58.640625 
Q 16.015625 51.171875 16.015625 36.375 
Q 16.015625 21.625 22.71875 14.15625 
Q 29.4375 6.6875 42.828125 6.6875 
Q 48.046875 6.6875 52.140625 7.59375 
Q 56.25 8.5 59.515625 10.40625 
" id="DejaVuSans-47"/>
     <path d="M 45.40625 46.390625 
L 45.40625 75.984375 
L 54.390625 75.984375 
L 54.390625 0 
L 45.40625 0 
L 45.40625 8.203125 
Q 42.578125 3.328125 38.25 0.953125 
Q 33.9375 -1.421875 27.875 -1.421875 
Q 17.96875 -1.421875 11.734375 6.484375 
Q 5.515625 14.40625 5.515625 27.296875 
Q 5.515625 40.1875 11.734375 48.09375 
Q 17.96875 56 27.875 56 
Q 33.9375 56 38.25 53.625 
Q 42.578125 51.265625 45.40625 46.390625 
M 14.796875 27.296875 
Q 14.796875 17.390625 18.875 11.75 
Q 22.953125 6.109375 30.078125 6.109375 
Q 37.203125 6.109375 41.296875 11.75 
Q 45.40625 17.390625 45.40625 27.296875 
Q 45.40625 37.203125 41.296875 42.84375 
Q 37.203125 48.484375 30.078125 48.484375 
Q 22.953125 48.484375 18.875 42.84375 
Q 14.796875 37.203125 14.796875 27.296875 
" id="DejaVuSans-64"/>
     <path d="M 54.890625 33.015625 
L 54.890625 0 
L 45.90625 0 
L 45.90625 32.71875 
Q 45.90625 40.484375 42.875 44.328125 
Q 39.84375 48.1875 33.796875 48.1875 
Q 26.515625 48.1875 22.3125 43.546875 
Q 18.109375 38.921875 18.109375 30.90625 
L 18.109375 0 
L 9.078125 0 
L 9.078125 54.6875 
L 18.109375 54.6875 
L 18.109375 46.1875 
Q 21.34375 51.125 25.703125 53.5625 
Q 30.078125 56 35.796875 56 
Q 45.21875 56 50.046875 50.171875 
Q 54.890625 44.34375 54.890625 33.015625 
" id="DejaVuSans-6e"/>
     <path d="M 19.671875 34.8125 
L 19.671875 8.109375 
L 35.5 8.109375 
Q 43.453125 8.109375 47.28125 11.40625 
Q 51.125 14.703125 51.125 21.484375 
Q 51.125 28.328125 47.28125 31.5625 
Q 43.453125 34.8125 35.5 34.8125 
z
M 19.671875 64.796875 
L 19.671875 42.828125 
L 34.28125 42.828125 
Q 41.5 42.828125 45.03125 45.53125 
Q 48.578125 48.25 48.578125 53.8125 
Q 48.578125 59.328125 45.03125 62.0625 
Q 41.5 64.796875 34.28125 64.796875 
z
M 9.8125 72.90625 
L 35.015625 72.90625 
Q 46.296875 72.90625 52.390625 68.21875 
Q 58.5 63.53125 58.5 54.890625 
Q 58.5 48.1875 55.375 44.234375 
Q 52.25 40.28125 46.1875 39.3125 
Q 53.46875 37.75 57.5 32.78125 
Q 61.53125 27.828125 61.53125 20.40625 
Q 61.53125 10.640625 54.890625 5.3125 
Q 48.25 0 35.984375 0 
L 9.8125 0 
z
" id="DejaVuSans-42"/>
     <path d="M 45.40625 27.984375 
Q 45.40625 37.75 41.375 43.109375 
Q 37.359375 48.484375 30.078125 48.484375 
Q 22.859375 48.484375 18.828125 43.109375 
Q 14.796875 37.75 14.796875 27.984375 
Q 14.796875 18.265625 18.828125 12.890625 
Q 22.859375 7.515625 30.078125 7.515625 
Q 37.359375 7.515625 41.375 12.890625 
Q 45.40625 18.265625 45.40625 27.984375 
M 54.390625 6.78125 
Q 54.390625 -7.171875 48.1875 -13.984375 
Q 42 -20.796875 29.203125 -20.796875 
Q 24.46875 -20.796875 20.265625 -20.09375 
Q 16.0625 -19.390625 12.109375 -17.921875 
L 12.109375 -9.1875 
Q 16.0625 -11.328125 19.921875 -12.34375 
Q 23.78125 -13.375 27.78125 -13.375 
Q 36.625 -13.375 41.015625 -8.765625 
Q 45.40625 -4.15625 45.40625 5.171875 
L 45.40625 9.625 
Q 42.625 4.78125 38.28125 2.390625 
Q 33.9375 0 27.875 0 
Q 17.828125 0 11.671875 7.65625 
Q 5.515625 15.328125 5.515625 27.984375 
Q 5.515625 40.671875 11.671875 48.328125 
Q 17.828125 56 27.875 56 
Q 33.9375 56 38.28125 53.609375 
Q 42.625 51.21875 45.40625 46.390625 
L 45.40625 54.6875 
L 54.390625 54.6875 
z
" id="DejaVuSans-67"/>
     <path d="M 46 62.703125 
L 46 35.5 
L 73.1875 35.5 
L 73.1875 27.203125 
L 46 27.203125 
L 46 0 
L 37.796875 0 
L 37.796875 27.203125 
L 10.59375 27.203125 
L 10.59375 35.5 
L 37.796875 35.5 
L 37.796875 62.703125 
z
" id="DejaVuSans-2b"/>
     <path d="M 52 44.1875 
Q 55.375 50.25 60.0625 53.125 
Q 64.75 56 71.09375 56 
Q 79.640625 56 84.28125 50.015625 
Q 88.921875 44.046875 88.921875 33.015625 
L 88.921875 0 
L 79.890625 0 
L 79.890625 32.71875 
Q 79.890625 40.578125 77.09375 44.375 
Q 74.3125 48.1875 68.609375 48.1875 
Q 61.625 48.1875 57.5625 43.546875 
Q 53.515625 38.921875 53.515625 30.90625 
L 53.515625 0 
L 44.484375 0 
L 44.484375 32.71875 
Q 44.484375 40.625 41.703125 44.40625 
Q 38.921875 48.1875 33.109375 48.1875 
Q 26.21875 48.1875 22.15625 43.53125 
Q 18.109375 38.875 18.109375 30.90625 
L 18.109375 0 
L 9.078125 0 
L 9.078125 54.6875 
L 18.109375 54.6875 
L 18.109375 46.1875 
Q 21.1875 51.21875 25.484375 53.609375 
Q 29.78125 56 35.6875 56 
Q 41.65625 56 45.828125 52.96875 
Q 50 49.953125 52 44.1875 
" id="DejaVuSans-6d"/>
     <path d="M 53.515625 70.515625 
L 53.515625 60.890625 
Q 47.90625 63.578125 42.921875 64.890625 
Q 37.9375 66.21875 33.296875 66.21875 
Q 25.25 66.21875 20.875 63.09375 
Q 16.5 59.96875 16.5 54.203125 
Q 16.5 49.359375 19.40625 46.890625 
Q 22.3125 44.4375 30.421875 42.921875 
L 36.375 41.703125 
Q 47.40625 39.59375 52.65625 34.296875 
Q 57.90625 29 57.90625 20.125 
Q 57.90625 9.515625 50.796875 4.046875 
Q 43.703125 -1.421875 29.984375 -1.421875 
Q 24.8125 -1.421875 18.96875 -0.25 
Q 13.140625 0.921875 6.890625 3.21875 
L 6.890625 13.375 
Q 12.890625 10.015625 18.65625 8.296875 
Q 24.421875 6.59375 29.984375 6.59375 
Q 38.421875 6.59375 43.015625 9.90625 
Q 47.609375 13.234375 47.609375 19.390625 
Q 47.609375 24.75 44.3125 27.78125 
Q 41.015625 30.8125 33.5 32.328125 
L 27.484375 33.5 
Q 16.453125 35.6875 11.515625 40.375 
Q 6.59375 45.0625 6.59375 53.421875 
Q 6.59375 63.09375 13.40625 68.65625 
Q 20.21875 74.21875 32.171875 74.21875 
Q 37.3125 74.21875 42.625 73.28125 
Q 47.953125 72.359375 53.515625 70.515625 
" id="DejaVuSans-53"/>
     <path d="M 18.109375 8.203125 
L 18.109375 -20.796875 
L 9.078125 -20.796875 
L 9.078125 54.6875 
L 18.109375 54.6875 
L 18.109375 46.390625 
Q 20.953125 51.265625 25.265625 53.625 
Q 29.59375 56 35.59375 56 
Q 45.5625 56 51.78125 48.09375 
Q 58.015625 40.1875 58.015625 27.296875 
Q 58.015625 14.40625 51.78125 6.484375 
Q 45.5625 -1.421875 35.59375 -1.421875 
Q 29.59375 -1.421875 25.265625 0.953125 
Q 20.953125 3.328125 18.109375 8.203125 
M 48.6875 27.296875 
Q 48.6875 37.203125 44.609375 42.84375 
Q 40.53125 48.484375 33.40625 48.484375 
Q 26.265625 48.484375 22.1875 42.84375 
Q 18.109375 37.203125 18.109375 27.296875 
Q 18.109375 17.390625 22.1875 11.75 
Q 26.265625 6.109375 33.40625 6.109375 
Q 40.53125 6.109375 44.609375 11.75 
Q 48.6875 17.390625 48.6875 27.296875 
" id="DejaVuSans-70"/>
    </defs>
    <g transform="translate(62.203125 16.318125)scale(0.12 -0.12)">
     <use xlink:href="#DejaVuSans-52"/>
     <use x="69.482422" xlink:href="#DejaVuSans-4f"/>
     <use x="148.193359" xlink:href="#DejaVuSans-43"/>
     <use x="218.017578" xlink:href="#DejaVuSans-20"/>
     <use x="249.804688" xlink:href="#DejaVuSans-43"/>
     <use x="319.628906" xlink:href="#DejaVuSans-75"/>
     <use x="383.007812" xlink:href="#DejaVuSans-72"/>
     <use x="424.121094" xlink:href="#DejaVuSans-76"/>
     <use x="483.300781" xlink:href="#DejaVuSans-65"/>
     <use x="544.824219" xlink:href="#DejaVuSans-20"/>
     <use x="576.611328" xlink:href="#DejaVuSans-47"/>
     <use x="654.101562" xlink:href="#DejaVuSans-72"/>
     <use x="695.214844" xlink:href="#DejaVuSans-61"/>
     <use x="756.494141" xlink:href="#DejaVuSans-64"/>
     <use x="819.970703" xlink:href="#DejaVuSans-69"/>
     <use x="847.753906" xlink:href="#DejaVuSans-65"/>
     <use x="909.277344" xlink:href="#DejaVuSans-6e"/>
     <use x="972.65625" xlink:href="#DejaVuSans-74"/>
     <use x="1011.865234" xlink:href="#DejaVuSans-42"/>
     <use x="1080.46875" xlink:href="#DejaVuSans-6f"/>
     <use x="1141.650391" xlink:href="#DejaVuSans-6f"/>
     <use x="1202.832031" xlink:href="#DejaVuSans-73"/>
     <use x="1254.931641" xlink:href="#DejaVuSans-74"/>
     <use x="1294.140625" xlink:href="#DejaVuSans-69"/>
     <use x="1321.923828" xlink:href="#DejaVuSans-6e"/>
     <use x="1385.302734" xlink:href="#DejaVuSans-67"/>
     <use x="1448.779297" xlink:href="#DejaVuSans-20"/>
     <use x="1480.566406" xlink:href="#DejaVuSans-2b"/>
     <use x="1564.355469" xlink:href="#DejaVuSans-20"/>
     <use x="1596.142578" xlink:href="#DejaVuSans-52"/>
     <use x="1665.59375" xlink:href="#DejaVuSans-61"/>
     <use x="1726.873047" xlink:href="#DejaVuSans-6e"/>
     <use x="1790.251953" xlink:href="#DejaVuSans-64"/>
     <use x="1853.728516" xlink:href="#DejaVuSans-6f"/>
     <use x="1914.910156" xlink:href="#DejaVuSans-6d"/>
     <use x="2012.322266" xlink:href="#DejaVuSans-4f"/>
     <use x="2091.033203" xlink:href="#DejaVuSans-76"/>
     <use x="2150.212891" xlink:href="#DejaVuSans-65"/>
     <use x="2211.736328" xlink:href="#DejaVuSans-72"/>
     <use x="2252.849609" xlink:href="#DejaVuSans-53"/>
     <use x="2316.326172" xlink:href="#DejaVuSans-61"/>
     <use x="2377.605469" xlink:href="#DejaVuSans-6d"/>
     <use x="2475.017578" xlink:href="#DejaVuSans-70"/>
     <use x="2538.494141" xlink:href="#DejaVuSans-6c"/>
     <use x="2566.277344" xlink:href="#DejaVuSans-65"/>
     <use x="2627.800781" xlink:href="#DejaVuSans-72"/>
    </g>
    <!-- Train: 1   Test: [1, 2, 4, 6, 8, 10, 12] -->
    <defs>
     <path d="M 11.71875 12.40625 
L 22.015625 12.40625 
L 22.015625 0 
L 11.71875 0 
z
M 11.71875 51.703125 
L 22.015625 51.703125 
L 22.015625 39.3125 
L 11.71875 39.3125 
z
" id="DejaVuSans-3a"/>
     <path d="M 8.59375 75.984375 
L 29.296875 75.984375 
L 29.296875 69 
L 17.578125 69 
L 17.578125 -6.203125 
L 29.296875 -6.203125 
L 29.296875 -13.1875 
L 8.59375 -13.1875 
z
" id="DejaVuSans-5b"/>
     <path d="M 11.71875 12.40625 
L 22.015625 12.40625 
L 22.015625 4 
L 14.015625 -11.625 
L 7.71875 -11.625 
L 11.71875 4 
z
" id="DejaVuSans-2c"/>
     <path d="M 30.421875 75.984375 
L 30.421875 -13.1875 
L 9.71875 -13.1875 
L 9.71875 -6.203125 
L 21.390625 -6.203125 
L 21.390625 69 
L 9.71875 69 
L 9.71875 75.984375 
z
" id="DejaVuSans-5d"/>
    </defs>
    <g transform="translate(114.942188 29.7555)scale(0.12 -0.12)">
     <use xlink:href="#DejaVuSans-54"/>
     <use x="60.865234" xlink:href="#DejaVuSans-72"/>
     <use x="101.978516" xlink:href="#DejaVuSans-61"/>
     <use x="163.257812" xlink:href="#DejaVuSans-69"/>
     <use x="191.041016" xlink:href="#DejaVuSans-6e"/>
     <use x="254.419922" xlink:href="#DejaVuSans-3a"/>
     <use x="288.111328" xlink:href="#DejaVuSans-20"/>
     <use x="319.898438" xlink:href="#DejaVuSans-31"/>
     <use x="383.521484" xlink:href="#DejaVuSans-20"/>
     <use x="415.308594" xlink:href="#DejaVuSans-20"/>
     <use x="447.095703" xlink:href="#DejaVuSans-20"/>
     <use x="478.882812" xlink:href="#DejaVuSans-54"/>
     <use x="539.701172" xlink:href="#DejaVuSans-65"/>
     <use x="601.224609" xlink:href="#DejaVuSans-73"/>
     <use x="653.324219" xlink:href="#DejaVuSans-74"/>
     <use x="692.533203" xlink:href="#DejaVuSans-3a"/>
     <use x="726.224609" xlink:href="#DejaVuSans-20"/>
     <use x="758.011719" xlink:href="#DejaVuSans-5b"/>
     <use x="797.025391" xlink:href="#DejaVuSans-31"/>
     <use x="860.648438" xlink:href="#DejaVuSans-2c"/>
     <use x="892.435547" xlink:href="#DejaVuSans-20"/>
     <use x="924.222656" xlink:href="#DejaVuSans-32"/>
     <use x="987.845703" xlink:href="#DejaVuSans-2c"/>
     <use x="1019.632812" xlink:href="#DejaVuSans-20"/>
     <use x="1051.419922" xlink:href="#DejaVuSans-34"/>
     <use x="1115.042969" xlink:href="#DejaVuSans-2c"/>
     <use x="1146.830078" xlink:href="#DejaVuSans-20"/>
     <use x="1178.617188" xlink:href="#DejaVuSans-36"/>
     <use x="1242.240234" xlink:href="#DejaVuSans-2c"/>
     <use x="1274.027344" xlink:href="#DejaVuSans-20"/>
     <use x="1305.814453" xlink:href="#DejaVuSans-38"/>
     <use x="1369.4375" xlink:href="#DejaVuSans-2c"/>
     <use x="1401.224609" xlink:href="#DejaVuSans-20"/>
     <use x="1433.011719" xlink:href="#DejaVuSans-31"/>
     <use x="1496.634766" xlink:href="#DejaVuSans-30"/>
     <use x="1560.257812" xlink:href="#DejaVuSans-2c"/>
     <use x="1592.044922" xlink:href="#DejaVuSans-20"/>
     <use x="1623.832031" xlink:href="#DejaVuSans-31"/>
     <use x="1687.455078" xlink:href="#DejaVuSans-32"/>
     <use x="1751.078125" xlink:href="#DejaVuSans-5d"/>
    </g>
   </g>
   <g id="legend_1">
    <g id="patch_7">
     <path d="M 217.087188 296.8675 
L 393.90125 296.8675 
Q 395.90125 296.8675 395.90125 294.8675 
L 395.90125 251.833125 
Q 395.90125 249.833125 393.90125 249.833125 
L 217.087188 249.833125 
Q 215.087188 249.833125 215.087188 251.833125 
L 215.087188 294.8675 
Q 215.087188 296.8675 217.087188 296.8675 
z
" style="fill:#ffffff;opacity:0.8;stroke:#cccccc;stroke-linejoin:miter;"/>
    </g>
    <g id="line2d_17">
     <path d="M 219.087188 257.931562 
L 239.087188 257.931562 
" style="fill:none;stroke:#1f77b4;stroke-linecap:square;stroke-width:1.5;"/>
    </g>
    <g id="line2d_18"/>
    <g id="text_16">
     <!-- ROC curve - 0 (AUC = 0.897) -->
     <defs>
      <path d="M 48.78125 52.59375 
L 48.78125 44.1875 
Q 44.96875 46.296875 41.140625 47.34375 
Q 37.3125 48.390625 33.40625 48.390625 
Q 24.65625 48.390625 19.8125 42.84375 
Q 14.984375 37.3125 14.984375 27.296875 
Q 14.984375 17.28125 19.8125 11.734375 
Q 24.65625 6.203125 33.40625 6.203125 
Q 37.3125 6.203125 41.140625 7.25 
Q 44.96875 8.296875 48.78125 10.40625 
L 48.78125 2.09375 
Q 45.015625 0.34375 40.984375 -0.53125 
Q 36.96875 -1.421875 32.421875 -1.421875 
Q 20.0625 -1.421875 12.78125 6.34375 
Q 5.515625 14.109375 5.515625 27.296875 
Q 5.515625 40.671875 12.859375 48.328125 
Q 20.21875 56 33.015625 56 
Q 37.15625 56 41.109375 55.140625 
Q 45.0625 54.296875 48.78125 52.59375 
" id="DejaVuSans-63"/>
      <path d="M 4.890625 31.390625 
L 31.203125 31.390625 
L 31.203125 23.390625 
L 4.890625 23.390625 
z
" id="DejaVuSans-2d"/>
      <path d="M 31 75.875 
Q 24.46875 64.65625 21.28125 53.65625 
Q 18.109375 42.671875 18.109375 31.390625 
Q 18.109375 20.125 21.3125 9.0625 
Q 24.515625 -2 31 -13.1875 
L 23.1875 -13.1875 
Q 15.875 -1.703125 12.234375 9.375 
Q 8.59375 20.453125 8.59375 31.390625 
Q 8.59375 42.28125 12.203125 53.3125 
Q 15.828125 64.359375 23.1875 75.875 
z
" id="DejaVuSans-28"/>
      <path d="M 34.1875 63.1875 
L 20.796875 26.90625 
L 47.609375 26.90625 
z
M 28.609375 72.90625 
L 39.796875 72.90625 
L 67.578125 0 
L 57.328125 0 
L 50.6875 18.703125 
L 17.828125 18.703125 
L 11.1875 0 
L 0.78125 0 
z
" id="DejaVuSans-41"/>
      <path d="M 8.6875 72.90625 
L 18.609375 72.90625 
L 18.609375 28.609375 
Q 18.609375 16.890625 22.84375 11.734375 
Q 27.09375 6.59375 36.625 6.59375 
Q 46.09375 6.59375 50.34375 11.734375 
Q 54.59375 16.890625 54.59375 28.609375 
L 54.59375 72.90625 
L 64.5 72.90625 
L 64.5 27.390625 
Q 64.5 13.140625 57.4375 5.859375 
Q 50.390625 -1.421875 36.625 -1.421875 
Q 22.796875 -1.421875 15.734375 5.859375 
Q 8.6875 13.140625 8.6875 27.390625 
z
" id="DejaVuSans-55"/>
      <path d="M 10.59375 45.40625 
L 73.1875 45.40625 
L 73.1875 37.203125 
L 10.59375 37.203125 
z
M 10.59375 25.484375 
L 73.1875 25.484375 
L 73.1875 17.1875 
L 10.59375 17.1875 
z
" id="DejaVuSans-3d"/>
      <path d="M 10.984375 1.515625 
L 10.984375 10.5 
Q 14.703125 8.734375 18.5 7.8125 
Q 22.3125 6.890625 25.984375 6.890625 
Q 35.75 6.890625 40.890625 13.453125 
Q 46.046875 20.015625 46.78125 33.40625 
Q 43.953125 29.203125 39.59375 26.953125 
Q 35.25 24.703125 29.984375 24.703125 
Q 19.046875 24.703125 12.671875 31.3125 
Q 6.296875 37.9375 6.296875 49.421875 
Q 6.296875 60.640625 12.9375 67.421875 
Q 19.578125 74.21875 30.609375 74.21875 
Q 43.265625 74.21875 49.921875 64.515625 
Q 56.59375 54.828125 56.59375 36.375 
Q 56.59375 19.140625 48.40625 8.859375 
Q 40.234375 -1.421875 26.421875 -1.421875 
Q 22.703125 -1.421875 18.890625 -0.6875 
Q 15.09375 0.046875 10.984375 1.515625 
M 30.609375 32.421875 
Q 37.25 32.421875 41.125 36.953125 
Q 45.015625 41.5 45.015625 49.421875 
Q 45.015625 57.28125 41.125 61.84375 
Q 37.25 66.40625 30.609375 66.40625 
Q 23.96875 66.40625 20.09375 61.84375 
Q 16.21875 57.28125 16.21875 49.421875 
Q 16.21875 41.5 20.09375 36.953125 
Q 23.96875 32.421875 30.609375 32.421875 
" id="DejaVuSans-39"/>
      <path d="M 8.203125 72.90625 
L 55.078125 72.90625 
L 55.078125 68.703125 
L 28.609375 0 
L 18.3125 0 
L 43.21875 64.59375 
L 8.203125 64.59375 
z
" id="DejaVuSans-37"/>
      <path d="M 8.015625 75.875 
L 15.828125 75.875 
Q 23.140625 64.359375 26.78125 53.3125 
Q 30.421875 42.28125 30.421875 31.390625 
Q 30.421875 20.453125 26.78125 9.375 
Q 23.140625 -1.703125 15.828125 -13.1875 
L 8.015625 -13.1875 
Q 14.5 -2 17.703125 9.0625 
Q 20.90625 20.125 20.90625 31.390625 
Q 20.90625 42.671875 17.703125 53.65625 
Q 14.5 64.65625 8.015625 75.875 
" id="DejaVuSans-29"/>
     </defs>
     <g transform="translate(247.087188 261.431562)scale(0.1 -0.1)">
      <use xlink:href="#DejaVuSans-52"/>
      <use x="69.482422" xlink:href="#DejaVuSans-4f"/>
      <use x="148.193359" xlink:href="#DejaVuSans-43"/>
      <use x="218.017578" xlink:href="#DejaVuSans-20"/>
      <use x="249.804688" xlink:href="#DejaVuSans-63"/>
      <use x="304.785156" xlink:href="#DejaVuSans-75"/>
      <use x="368.164062" xlink:href="#DejaVuSans-72"/>
      <use x="409.277344" xlink:href="#DejaVuSans-76"/>
      <use x="468.457031" xlink:href="#DejaVuSans-65"/>
      <use x="529.980469" xlink:href="#DejaVuSans-20"/>
      <use x="561.767578" xlink:href="#DejaVuSans-2d"/>
      <use x="597.851562" xlink:href="#DejaVuSans-20"/>
      <use x="629.638672" xlink:href="#DejaVuSans-30"/>
      <use x="693.261719" xlink:href="#DejaVuSans-20"/>
      <use x="725.048828" xlink:href="#DejaVuSans-28"/>
      <use x="764.0625" xlink:href="#DejaVuSans-41"/>
      <use x="832.470703" xlink:href="#DejaVuSans-55"/>
      <use x="905.664062" xlink:href="#DejaVuSans-43"/>
      <use x="975.488281" xlink:href="#DejaVuSans-20"/>
      <use x="1007.275391" xlink:href="#DejaVuSans-3d"/>
      <use x="1091.064453" xlink:href="#DejaVuSans-20"/>
      <use x="1122.851562" xlink:href="#DejaVuSans-30"/>
      <use x="1186.474609" xlink:href="#DejaVuSans-2e"/>
      <use x="1218.261719" xlink:href="#DejaVuSans-38"/>
      <use x="1281.884766" xlink:href="#DejaVuSans-39"/>
      <use x="1345.507812" xlink:href="#DejaVuSans-37"/>
      <use x="1409.130859" xlink:href="#DejaVuSans-29"/>
     </g>
    </g>
    <g id="line2d_19">
     <path d="M 219.087188 272.609687 
L 239.087188 272.609687 
" style="fill:none;stroke:#ff7f0e;stroke-linecap:square;stroke-width:1.5;"/>
    </g>
    <g id="line2d_20"/>
    <g id="text_17">
     <!-- ROC curve - 1 (AUC = 0.883) -->
     <defs>
      <path d="M 40.578125 39.3125 
Q 47.65625 37.796875 51.625 33 
Q 55.609375 28.21875 55.609375 21.1875 
Q 55.609375 10.40625 48.1875 4.484375 
Q 40.765625 -1.421875 27.09375 -1.421875 
Q 22.515625 -1.421875 17.65625 -0.515625 
Q 12.796875 0.390625 7.625 2.203125 
L 7.625 11.71875 
Q 11.71875 9.328125 16.59375 8.109375 
Q 21.484375 6.890625 26.8125 6.890625 
Q 36.078125 6.890625 40.9375 10.546875 
Q 45.796875 14.203125 45.796875 21.1875 
Q 45.796875 27.640625 41.28125 31.265625 
Q 36.765625 34.90625 28.71875 34.90625 
L 20.21875 34.90625 
L 20.21875 43.015625 
L 29.109375 43.015625 
Q 36.375 43.015625 40.234375 45.921875 
Q 44.09375 48.828125 44.09375 54.296875 
Q 44.09375 59.90625 40.109375 62.90625 
Q 36.140625 65.921875 28.71875 65.921875 
Q 24.65625 65.921875 20.015625 65.03125 
Q 15.375 64.15625 9.8125 62.3125 
L 9.8125 71.09375 
Q 15.4375 72.65625 20.34375 73.4375 
Q 25.25 74.21875 29.59375 74.21875 
Q 40.828125 74.21875 47.359375 69.109375 
Q 53.90625 64.015625 53.90625 55.328125 
Q 53.90625 49.265625 50.4375 45.09375 
Q 46.96875 40.921875 40.578125 39.3125 
" id="DejaVuSans-33"/>
     </defs>
     <g transform="translate(247.087188 276.109687)scale(0.1 -0.1)">
      <use xlink:href="#DejaVuSans-52"/>
      <use x="69.482422" xlink:href="#DejaVuSans-4f"/>
      <use x="148.193359" xlink:href="#DejaVuSans-43"/>
      <use x="218.017578" xlink:href="#DejaVuSans-20"/>
      <use x="249.804688" xlink:href="#DejaVuSans-63"/>
      <use x="304.785156" xlink:href="#DejaVuSans-75"/>
      <use x="368.164062" xlink:href="#DejaVuSans-72"/>
      <use x="409.277344" xlink:href="#DejaVuSans-76"/>
      <use x="468.457031" xlink:href="#DejaVuSans-65"/>
      <use x="529.980469" xlink:href="#DejaVuSans-20"/>
      <use x="561.767578" xlink:href="#DejaVuSans-2d"/>
      <use x="597.851562" xlink:href="#DejaVuSans-20"/>
      <use x="629.638672" xlink:href="#DejaVuSans-31"/>
      <use x="693.261719" xlink:href="#DejaVuSans-20"/>
      <use x="725.048828" xlink:href="#DejaVuSans-28"/>
      <use x="764.0625" xlink:href="#DejaVuSans-41"/>
      <use x="832.470703" xlink:href="#DejaVuSans-55"/>
      <use x="905.664062" xlink:href="#DejaVuSans-43"/>
      <use x="975.488281" xlink:href="#DejaVuSans-20"/>
      <use x="1007.275391" xlink:href="#DejaVuSans-3d"/>
      <use x="1091.064453" xlink:href="#DejaVuSans-20"/>
      <use x="1122.851562" xlink:href="#DejaVuSans-30"/>
      <use x="1186.474609" xlink:href="#DejaVuSans-2e"/>
      <use x="1218.261719" xlink:href="#DejaVuSans-38"/>
      <use x="1281.884766" xlink:href="#DejaVuSans-38"/>
      <use x="1345.507812" xlink:href="#DejaVuSans-33"/>
      <use x="1409.130859" xlink:href="#DejaVuSans-29"/>
     </g>
    </g>
    <g id="line2d_21">
     <path d="M 219.087188 287.287812 
L 239.087188 287.287812 
" style="fill:none;stroke:#2ca02c;stroke-linecap:square;stroke-width:1.5;"/>
    </g>
    <g id="line2d_22"/>
    <g id="text_18">
     <!-- ROC curve - 2 (AUC = 0.889) -->
     <g transform="translate(247.087188 290.787812)scale(0.1 -0.1)">
      <use xlink:href="#DejaVuSans-52"/>
      <use x="69.482422" xlink:href="#DejaVuSans-4f"/>
      <use x="148.193359" xlink:href="#DejaVuSans-43"/>
      <use x="218.017578" xlink:href="#DejaVuSans-20"/>
      <use x="249.804688" xlink:href="#DejaVuSans-63"/>
      <use x="304.785156" xlink:href="#DejaVuSans-75"/>
      <use x="368.164062" xlink:href="#DejaVuSans-72"/>
      <use x="409.277344" xlink:href="#DejaVuSans-76"/>
      <use x="468.457031" xlink:href="#DejaVuSans-65"/>
      <use x="529.980469" xlink:href="#DejaVuSans-20"/>
      <use x="561.767578" xlink:href="#DejaVuSans-2d"/>
      <use x="597.851562" xlink:href="#DejaVuSans-20"/>
      <use x="629.638672" xlink:href="#DejaVuSans-32"/>
      <use x="693.261719" xlink:href="#DejaVuSans-20"/>
      <use x="725.048828" xlink:href="#DejaVuSans-28"/>
      <use x="764.0625" xlink:href="#DejaVuSans-41"/>
      <use x="832.470703" xlink:href="#DejaVuSans-55"/>
      <use x="905.664062" xlink:href="#DejaVuSans-43"/>
      <use x="975.488281" xlink:href="#DejaVuSans-20"/>
      <use x="1007.275391" xlink:href="#DejaVuSans-3d"/>
      <use x="1091.064453" xlink:href="#DejaVuSans-20"/>
      <use x="1122.851562" xlink:href="#DejaVuSans-30"/>
      <use x="1186.474609" xlink:href="#DejaVuSans-2e"/>
      <use x="1218.261719" xlink:href="#DejaVuSans-38"/>
      <use x="1281.884766" xlink:href="#DejaVuSans-38"/>
      <use x="1345.507812" xlink:href="#DejaVuSans-39"/>
      <use x="1409.130859" xlink:href="#DejaVuSans-29"/>
     </g>
    </g>
   </g>
  </g>
 </g>
 <defs>
  <clipPath id="pbd46db1f59">
   <rect height="266.112" width="357.12" x="43.78125" y="35.7555"/>
  </clipPath>
 </defs>
</svg>
