<?xml version="1.0" encoding="utf-8" standalone="no"?>
<!DOCTYPE svg PUBLIC "-//W3C//DTD SVG 1.1//EN"
  "http://www.w3.org/Graphics/SVG/1.1/DTD/svg11.dtd">
<!-- Created with matplotlib (http://matplotlib.org/) -->
<svg height="424pt" version="1.1" viewBox="0 0 510 424" width="510pt" xmlns="http://www.w3.org/2000/svg" xmlns:xlink="http://www.w3.org/1999/xlink">
 <defs>
  <style type="text/css">
*{stroke-linecap:butt;stroke-linejoin:round;stroke-miterlimit:100000;}
  </style>
 </defs>
 <g id="figure_1">
  <g id="patch_1">
   <path d="M 0 424.2941 
L 510.039375 424.2941 
L 510.039375 0 
L 0 0 
z
" style="fill:#ffffff;"/>
  </g>
  <g id="axes_1">
   <g id="patch_2">
    <path d="M 46.8975 384.8666 
L 493.2975 384.8666 
L 493.2975 39.2666 
L 46.8975 39.2666 
z
" style="fill:#ffffff;"/>
   </g>
   <g id="line2d_1">
    <path clip-path="url(#pcec2873e52)" d="M 46.8975 384.8666 
L 47.053643 378.059095 
L 47.8824 350.148326 
L 47.930444 349.467575 
L 48.819256 318.833803 
L 49.455838 308.622546 
L 49.756113 303.176542 
L 51.119359 282.754028 
L 51.56977 274.585022 
L 55.509371 217.401982 
L 56.193997 206.509974 
L 56.806557 198.681344 
L 57.647325 198.681344 
L 57.803468 196.639092 
L 58.043687 196.639092 
L 58.097737 194.596841 
L 58.428039 194.596841 
L 58.518121 194.256466 
L 59.509027 194.256466 
L 59.623131 193.23534 
L 59.713213 193.23534 
L 59.785279 192.214214 
L 60.415855 192.214214 
L 60.578004 190.171963 
L 60.698113 188.129711 
L 60.752163 186.08746 
L 61.472822 186.08746 
L 61.598937 183.024083 
L 61.664997 180.981831 
L 62.115409 180.981831 
L 62.511771 176.556953 
L 65.124159 176.556953 
L 65.178208 174.514702 
L 65.478483 174.514702 
L 65.556554 173.493576 
L 65.826801 173.493576 
L 66.313246 170.430199 
L 67.574398 170.430199 
L 67.622442 169.409073 
L 70.294885 169.409073 
L 70.348934 167.366822 
L 70.709263 167.366822 
L 70.769318 166.686071 
L 70.949483 166.686071 
L 73.183525 165.664945 
L 73.237574 163.622694 
L 73.405728 162.941943 
L 74.546771 162.941943 
L 74.708919 161.920818 
L 74.889084 161.920818 
L 75.26743 157.836315 
L 77.189186 157.836315 
L 77.261252 156.815189 
L 78.432322 156.815189 
L 78.59447 155.794063 
L 80.185925 155.794063 
L 80.257991 154.772938 
L 80.528238 154.772938 
L 80.636337 153.751812 
L 81.086748 153.751812 
L 81.170825 152.730686 
L 82.852362 152.730686 
L 83.06856 149.326934 
L 83.518971 149.326934 
L 83.663103 147.284682 
L 85.734997 147.284682 
L 493.2975 55.723743 
L 493.2975 55.723743 
" style="fill:none;stroke:#0000ff;stroke-linecap:square;"/>
   </g>
   <g id="line2d_2">
    <path clip-path="url(#pcec2873e52)" d="M 46.8975 384.8666 
L 51.161397 347.084948 
L 51.251479 347.084948 
L 51.371589 342.319695 
L 51.461672 341.638945 
L 51.846023 331.427687 
L 52.092248 323.599057 
L 52.560676 309.984047 
L 52.620731 309.984047 
L 53.305357 287.519281 
L 53.557587 279.350276 
L 53.701719 276.627274 
L 53.761774 276.627274 
L 53.917917 273.904272 
L 54.152131 271.18127 
L 54.248218 269.819769 
L 54.566509 268.117893 
L 54.986894 261.991138 
L 55.467333 255.864384 
L 55.977799 250.078005 
L 57.557243 231.357367 
L 57.719391 228.634365 
L 57.779446 228.634365 
L 59.226769 209.573351 
L 60.505938 194.256466 
L 60.722135 190.171963 
L 60.83624 189.491212 
L 61.628964 185.747085 
L 61.899211 185.747085 
L 62.337612 184.385584 
L 62.667914 184.385584 
L 63.550721 183.704833 
L 63.820968 183.704833 
L 64.001132 183.364458 
L 65.826801 183.024083 
L 66.367295 183.024083 
L 66.517432 182.343332 
L 69.219902 182.343332 
L 71.922372 181.322206 
L 72.793168 181.322206 
L 72.9373 179.62033 
L 73.117464 179.62033 
L 73.207547 178.93958 
L 73.297629 176.556953 
L 74.498727 176.556953 
L 74.678892 175.195452 
L 74.829029 175.195452 
L 78.240147 173.493576 
L 79.591382 173.493576 
L 79.75353 172.812825 
L 81.555176 172.812825 
L 81.735341 171.7917 
L 91.464233 166.345696 
L 91.824562 166.345696 
L 91.992716 164.303444 
L 92.953594 164.303444 
L 93.031666 162.261193 
L 93.482077 162.261193 
L 93.554143 161.240067 
L 94.06461 161.240067 
L 94.136676 160.218942 
L 95.127581 160.218942 
L 95.265708 158.17669 
L 96.496833 158.17669 
L 96.586915 156.134439 
L 96.857162 156.134439 
L 96.947244 154.092187 
L 97.397656 154.092187 
L 125.293152 145.582806 
L 129.256775 145.582806 
L 129.454956 143.20018 
L 129.545038 143.20018 
L 129.63512 141.157928 
L 132.157426 141.157928 
L 132.361612 139.115677 
L 134.103204 139.115677 
L 134.253341 138.094551 
L 137.43625 138.094551 
L 151.849424 136.0523 
L 493.2975 55.723743 
L 493.2975 55.723743 
" style="fill:none;stroke:#008000;stroke-linecap:square;"/>
   </g>
   <g id="line2d_3">
    <path clip-path="url(#pcec2873e52)" d="M 46.8975 384.8666 
L 48.909339 359.678832 
L 49.053471 354.232828 
L 49.257657 347.084948 
L 49.353745 344.361946 
L 49.443827 344.361946 
L 50.58487 316.451177 
L 50.861123 309.643672 
L 51.395611 299.432415 
L 52.248391 288.540407 
L 58.355973 220.124984 
L 58.836412 220.124984 
L 58.956522 219.444233 
L 59.406933 219.444233 
L 59.478999 218.763483 
L 60.349795 218.763483 
L 60.439877 217.742357 
L 60.710124 217.742357 
L 60.944339 216.380856 
L 61.39475 216.380856 
L 61.466816 215.35973 
L 61.646981 215.35973 
L 61.719047 214.338605 
L 61.989294 214.338605 
L 62.079376 213.317479 
L 62.529788 213.317479 
L 62.800035 211.615603 
L 64.631709 211.615603 
L 64.974022 208.892601 
L 65.334351 208.892601 
L 65.50851 207.871475 
L 66.571482 206.850349 
L 66.841729 205.488848 
L 68.072854 205.488848 
L 68.162936 204.467723 
L 68.883595 204.467723 
L 69.153842 200.38322 
L 69.334006 200.38322 
L 69.406072 199.362094 
L 71.207719 199.362094 
L 71.874328 194.937216 
L 72.144575 194.937216 
L 74.216469 193.23534 
L 74.288535 192.214214 
L 74.558782 192.214214 
L 74.738946 191.193088 
L 75.009193 191.193088 
L 75.099276 189.831587 
L 75.699825 189.831587 
L 75.753874 187.789336 
L 76.204286 187.789336 
L 76.258335 186.427835 
L 76.618665 186.427835 
L 76.708747 186.08746 
L 77.069076 186.08746 
L 77.249241 185.066334 
L 77.429406 185.066334 
L 77.519488 184.725959 
L 77.699653 184.725959 
L 77.963894 180.641456 
L 78.053976 180.641456 
L 78.180092 177.578079 
L 78.600476 177.578079 
L 78.744608 173.493576 
L 79.285102 173.493576 
L 79.357167 172.47245 
L 79.717497 172.47245 
L 79.951711 170.770574 
L 80.131876 170.770574 
L 80.185925 168.728323 
L 81.717325 168.728323 
L 90.797624 165.32457 
L 90.887706 164.64382 
L 91.758502 164.64382 
L 91.830568 163.622694 
L 92.821474 163.622694 
L 93.253869 161.580443 
L 93.428028 161.240067 
L 93.51811 159.197816 
L 94.478988 159.197816 
L 94.719208 157.49594 
L 94.899373 154.772938 
L 95.079537 154.772938 
L 95.349784 151.709561 
L 96.731047 151.709561 
L 97.13942 148.305808 
L 97.860079 148.305808 
L 98.130326 147.284682 
L 99.151259 147.284682 
L 99.295391 145.582806 
L 102.898684 145.582806 
L 103.078849 145.242431 
L 104.340001 145.242431 
L 128.722286 130.26592 
L 128.974517 129.244795 
L 130.505916 129.244795 
L 130.746136 128.223669 
L 133.178359 128.223669 
L 133.286458 124.139166 
L 133.826952 124.139166 
L 134.007116 122.777665 
L 134.259347 121.756539 
L 134.511577 120.735414 
L 134.577638 118.693162 
L 137.460272 118.693162 
L 138.343079 117.672037 
L 139.063738 117.672037 
L 140.054644 117.331661 
L 140.505055 117.331661 
L 141.093593 116.650911 
L 143.495789 116.650911 
L 143.675953 115.28941 
L 145.988067 115.28941 
L 146.042116 114.949035 
L 146.222281 114.949035 
L 493.2975 55.723743 
L 493.2975 55.723743 
" style="fill:none;stroke:#ff0000;stroke-linecap:square;"/>
   </g>
   <g id="line2d_4">
    <path clip-path="url(#pcec2873e52)" d="M 46.8975 384.8666 
L 493.2975 55.723743 
" style="fill:none;stroke:#000000;stroke-dasharray:6.000000,6.000000;stroke-dashoffset:0.0;"/>
   </g>
   <g id="patch_3">
    <path d="M 46.8975 384.8666 
L 493.2975 384.8666 
" style="fill:none;stroke:#000000;stroke-linecap:square;stroke-linejoin:miter;"/>
   </g>
   <g id="patch_4">
    <path d="M 46.8975 384.8666 
L 46.8975 39.2666 
" style="fill:none;stroke:#000000;stroke-linecap:square;stroke-linejoin:miter;"/>
   </g>
   <g id="patch_5">
    <path d="M 46.8975 39.2666 
L 493.2975 39.2666 
" style="fill:none;stroke:#000000;stroke-linecap:square;stroke-linejoin:miter;"/>
   </g>
   <g id="patch_6">
    <path d="M 493.2975 384.8666 
L 493.2975 39.2666 
" style="fill:none;stroke:#000000;stroke-linecap:square;stroke-linejoin:miter;"/>
   </g>
   <g id="matplotlib.axis_1">
    <g id="xtick_1">
     <g id="line2d_5">
      <defs>
       <path d="M 0 0 
L 0 -4 
" id="md388c58848" style="stroke:#000000;stroke-width:0.5;"/>
      </defs>
      <g>
       <use style="stroke:#000000;stroke-width:0.5;" x="46.8975" xlink:href="#md388c58848" y="384.8666"/>
      </g>
     </g>
     <g id="line2d_6">
      <defs>
       <path d="M 0 0 
L 0 4 
" id="me5fb014776" style="stroke:#000000;stroke-width:0.5;"/>
      </defs>
      <g>
       <use style="stroke:#000000;stroke-width:0.5;" x="46.8975" xlink:href="#me5fb014776" y="39.2666"/>
      </g>
     </g>
     <g id="text_1">
      <!-- 0.0 -->
      <defs>
       <path d="M 31.78125 66.40625 
Q 24.171875 66.40625 20.328125 58.90625 
Q 16.5 51.421875 16.5 36.375 
Q 16.5 21.390625 20.328125 13.890625 
Q 24.171875 6.390625 31.78125 6.390625 
Q 39.453125 6.390625 43.28125 13.890625 
Q 47.125 21.390625 47.125 36.375 
Q 47.125 51.421875 43.28125 58.90625 
Q 39.453125 66.40625 31.78125 66.40625 
M 31.78125 74.21875 
Q 44.046875 74.21875 50.515625 64.515625 
Q 56.984375 54.828125 56.984375 36.375 
Q 56.984375 17.96875 50.515625 8.265625 
Q 44.046875 -1.421875 31.78125 -1.421875 
Q 19.53125 -1.421875 13.0625 8.265625 
Q 6.59375 17.96875 6.59375 36.375 
Q 6.59375 54.828125 13.0625 64.515625 
Q 19.53125 74.21875 31.78125 74.21875 
" id="BitstreamVeraSans-Roman-30"/>
       <path d="M 10.6875 12.40625 
L 21 12.40625 
L 21 0 
L 10.6875 0 
z
" id="BitstreamVeraSans-Roman-2e"/>
      </defs>
      <g transform="translate(37.355625 397.984725)scale(0.12 -0.12)">
       <use xlink:href="#BitstreamVeraSans-Roman-30"/>
       <use x="63.623046875" xlink:href="#BitstreamVeraSans-Roman-2e"/>
       <use x="95.41015625" xlink:href="#BitstreamVeraSans-Roman-30"/>
      </g>
     </g>
    </g>
    <g id="xtick_2">
     <g id="line2d_7">
      <g>
       <use style="stroke:#000000;stroke-width:0.5;" x="136.1775" xlink:href="#md388c58848" y="384.8666"/>
      </g>
     </g>
     <g id="line2d_8">
      <g>
       <use style="stroke:#000000;stroke-width:0.5;" x="136.1775" xlink:href="#me5fb014776" y="39.2666"/>
      </g>
     </g>
     <g id="text_2">
      <!-- 0.2 -->
      <defs>
       <path d="M 19.1875 8.296875 
L 53.609375 8.296875 
L 53.609375 0 
L 7.328125 0 
L 7.328125 8.296875 
Q 12.9375 14.109375 22.625 23.890625 
Q 32.328125 33.6875 34.8125 36.53125 
Q 39.546875 41.84375 41.421875 45.53125 
Q 43.3125 49.21875 43.3125 52.78125 
Q 43.3125 58.59375 39.234375 62.25 
Q 35.15625 65.921875 28.609375 65.921875 
Q 23.96875 65.921875 18.8125 64.3125 
Q 13.671875 62.703125 7.8125 59.421875 
L 7.8125 69.390625 
Q 13.765625 71.78125 18.9375 73 
Q 24.125 74.21875 28.421875 74.21875 
Q 39.75 74.21875 46.484375 68.546875 
Q 53.21875 62.890625 53.21875 53.421875 
Q 53.21875 48.921875 51.53125 44.890625 
Q 49.859375 40.875 45.40625 35.40625 
Q 44.1875 33.984375 37.640625 27.21875 
Q 31.109375 20.453125 19.1875 8.296875 
" id="BitstreamVeraSans-Roman-32"/>
      </defs>
      <g transform="translate(126.635625 397.984725)scale(0.12 -0.12)">
       <use xlink:href="#BitstreamVeraSans-Roman-30"/>
       <use x="63.623046875" xlink:href="#BitstreamVeraSans-Roman-2e"/>
       <use x="95.41015625" xlink:href="#BitstreamVeraSans-Roman-32"/>
      </g>
     </g>
    </g>
    <g id="xtick_3">
     <g id="line2d_9">
      <g>
       <use style="stroke:#000000;stroke-width:0.5;" x="225.4575" xlink:href="#md388c58848" y="384.8666"/>
      </g>
     </g>
     <g id="line2d_10">
      <g>
       <use style="stroke:#000000;stroke-width:0.5;" x="225.4575" xlink:href="#me5fb014776" y="39.2666"/>
      </g>
     </g>
     <g id="text_3">
      <!-- 0.4 -->
      <defs>
       <path d="M 37.796875 64.3125 
L 12.890625 25.390625 
L 37.796875 25.390625 
z
M 35.203125 72.90625 
L 47.609375 72.90625 
L 47.609375 25.390625 
L 58.015625 25.390625 
L 58.015625 17.1875 
L 47.609375 17.1875 
L 47.609375 0 
L 37.796875 0 
L 37.796875 17.1875 
L 4.890625 17.1875 
L 4.890625 26.703125 
z
" id="BitstreamVeraSans-Roman-34"/>
      </defs>
      <g transform="translate(215.915625 397.984725)scale(0.12 -0.12)">
       <use xlink:href="#BitstreamVeraSans-Roman-30"/>
       <use x="63.623046875" xlink:href="#BitstreamVeraSans-Roman-2e"/>
       <use x="95.41015625" xlink:href="#BitstreamVeraSans-Roman-34"/>
      </g>
     </g>
    </g>
    <g id="xtick_4">
     <g id="line2d_11">
      <g>
       <use style="stroke:#000000;stroke-width:0.5;" x="314.7375" xlink:href="#md388c58848" y="384.8666"/>
      </g>
     </g>
     <g id="line2d_12">
      <g>
       <use style="stroke:#000000;stroke-width:0.5;" x="314.7375" xlink:href="#me5fb014776" y="39.2666"/>
      </g>
     </g>
     <g id="text_4">
      <!-- 0.6 -->
      <defs>
       <path d="M 33.015625 40.375 
Q 26.375 40.375 22.484375 35.828125 
Q 18.609375 31.296875 18.609375 23.390625 
Q 18.609375 15.53125 22.484375 10.953125 
Q 26.375 6.390625 33.015625 6.390625 
Q 39.65625 6.390625 43.53125 10.953125 
Q 47.40625 15.53125 47.40625 23.390625 
Q 47.40625 31.296875 43.53125 35.828125 
Q 39.65625 40.375 33.015625 40.375 
M 52.59375 71.296875 
L 52.59375 62.3125 
Q 48.875 64.0625 45.09375 64.984375 
Q 41.3125 65.921875 37.59375 65.921875 
Q 27.828125 65.921875 22.671875 59.328125 
Q 17.53125 52.734375 16.796875 39.40625 
Q 19.671875 43.65625 24.015625 45.921875 
Q 28.375 48.1875 33.59375 48.1875 
Q 44.578125 48.1875 50.953125 41.515625 
Q 57.328125 34.859375 57.328125 23.390625 
Q 57.328125 12.15625 50.6875 5.359375 
Q 44.046875 -1.421875 33.015625 -1.421875 
Q 20.359375 -1.421875 13.671875 8.265625 
Q 6.984375 17.96875 6.984375 36.375 
Q 6.984375 53.65625 15.1875 63.9375 
Q 23.390625 74.21875 37.203125 74.21875 
Q 40.921875 74.21875 44.703125 73.484375 
Q 48.484375 72.75 52.59375 71.296875 
" id="BitstreamVeraSans-Roman-36"/>
      </defs>
      <g transform="translate(305.195625 397.984725)scale(0.12 -0.12)">
       <use xlink:href="#BitstreamVeraSans-Roman-30"/>
       <use x="63.623046875" xlink:href="#BitstreamVeraSans-Roman-2e"/>
       <use x="95.41015625" xlink:href="#BitstreamVeraSans-Roman-36"/>
      </g>
     </g>
    </g>
    <g id="xtick_5">
     <g id="line2d_13">
      <g>
       <use style="stroke:#000000;stroke-width:0.5;" x="404.0175" xlink:href="#md388c58848" y="384.8666"/>
      </g>
     </g>
     <g id="line2d_14">
      <g>
       <use style="stroke:#000000;stroke-width:0.5;" x="404.0175" xlink:href="#me5fb014776" y="39.2666"/>
      </g>
     </g>
     <g id="text_5">
      <!-- 0.8 -->
      <defs>
       <path d="M 31.78125 34.625 
Q 24.75 34.625 20.71875 30.859375 
Q 16.703125 27.09375 16.703125 20.515625 
Q 16.703125 13.921875 20.71875 10.15625 
Q 24.75 6.390625 31.78125 6.390625 
Q 38.8125 6.390625 42.859375 10.171875 
Q 46.921875 13.96875 46.921875 20.515625 
Q 46.921875 27.09375 42.890625 30.859375 
Q 38.875 34.625 31.78125 34.625 
M 21.921875 38.8125 
Q 15.578125 40.375 12.03125 44.71875 
Q 8.5 49.078125 8.5 55.328125 
Q 8.5 64.0625 14.71875 69.140625 
Q 20.953125 74.21875 31.78125 74.21875 
Q 42.671875 74.21875 48.875 69.140625 
Q 55.078125 64.0625 55.078125 55.328125 
Q 55.078125 49.078125 51.53125 44.71875 
Q 48 40.375 41.703125 38.8125 
Q 48.828125 37.15625 52.796875 32.3125 
Q 56.78125 27.484375 56.78125 20.515625 
Q 56.78125 9.90625 50.3125 4.234375 
Q 43.84375 -1.421875 31.78125 -1.421875 
Q 19.734375 -1.421875 13.25 4.234375 
Q 6.78125 9.90625 6.78125 20.515625 
Q 6.78125 27.484375 10.78125 32.3125 
Q 14.796875 37.15625 21.921875 38.8125 
M 18.3125 54.390625 
Q 18.3125 48.734375 21.84375 45.5625 
Q 25.390625 42.390625 31.78125 42.390625 
Q 38.140625 42.390625 41.71875 45.5625 
Q 45.3125 48.734375 45.3125 54.390625 
Q 45.3125 60.0625 41.71875 63.234375 
Q 38.140625 66.40625 31.78125 66.40625 
Q 25.390625 66.40625 21.84375 63.234375 
Q 18.3125 60.0625 18.3125 54.390625 
" id="BitstreamVeraSans-Roman-38"/>
      </defs>
      <g transform="translate(394.475625 397.984725)scale(0.12 -0.12)">
       <use xlink:href="#BitstreamVeraSans-Roman-30"/>
       <use x="63.623046875" xlink:href="#BitstreamVeraSans-Roman-2e"/>
       <use x="95.41015625" xlink:href="#BitstreamVeraSans-Roman-38"/>
      </g>
     </g>
    </g>
    <g id="xtick_6">
     <g id="line2d_15">
      <g>
       <use style="stroke:#000000;stroke-width:0.5;" x="493.2975" xlink:href="#md388c58848" y="384.8666"/>
      </g>
     </g>
     <g id="line2d_16">
      <g>
       <use style="stroke:#000000;stroke-width:0.5;" x="493.2975" xlink:href="#me5fb014776" y="39.2666"/>
      </g>
     </g>
     <g id="text_6">
      <!-- 1.0 -->
      <defs>
       <path d="M 12.40625 8.296875 
L 28.515625 8.296875 
L 28.515625 63.921875 
L 10.984375 60.40625 
L 10.984375 69.390625 
L 28.421875 72.90625 
L 38.28125 72.90625 
L 38.28125 8.296875 
L 54.390625 8.296875 
L 54.390625 0 
L 12.40625 0 
z
" id="BitstreamVeraSans-Roman-31"/>
      </defs>
      <g transform="translate(483.755625 397.984725)scale(0.12 -0.12)">
       <use xlink:href="#BitstreamVeraSans-Roman-31"/>
       <use x="63.623046875" xlink:href="#BitstreamVeraSans-Roman-2e"/>
       <use x="95.41015625" xlink:href="#BitstreamVeraSans-Roman-30"/>
      </g>
     </g>
    </g>
    <g id="text_7">
     <!-- False Positive Rate -->
     <defs>
      <path d="M 44.28125 53.078125 
L 44.28125 44.578125 
Q 40.484375 46.53125 36.375 47.5 
Q 32.28125 48.484375 27.875 48.484375 
Q 21.1875 48.484375 17.84375 46.4375 
Q 14.5 44.390625 14.5 40.28125 
Q 14.5 37.15625 16.890625 35.375 
Q 19.28125 33.59375 26.515625 31.984375 
L 29.59375 31.296875 
Q 39.15625 29.25 43.1875 25.515625 
Q 47.21875 21.78125 47.21875 15.09375 
Q 47.21875 7.46875 41.1875 3.015625 
Q 35.15625 -1.421875 24.609375 -1.421875 
Q 20.21875 -1.421875 15.453125 -0.5625 
Q 10.6875 0.296875 5.421875 2 
L 5.421875 11.28125 
Q 10.40625 8.6875 15.234375 7.390625 
Q 20.0625 6.109375 24.8125 6.109375 
Q 31.15625 6.109375 34.5625 8.28125 
Q 37.984375 10.453125 37.984375 14.40625 
Q 37.984375 18.0625 35.515625 20.015625 
Q 33.0625 21.96875 24.703125 23.78125 
L 21.578125 24.515625 
Q 13.234375 26.265625 9.515625 29.90625 
Q 5.8125 33.546875 5.8125 39.890625 
Q 5.8125 47.609375 11.28125 51.796875 
Q 16.75 56 26.8125 56 
Q 31.78125 56 36.171875 55.265625 
Q 40.578125 54.546875 44.28125 53.078125 
" id="BitstreamVeraSans-Roman-73"/>
      <path d="M 34.28125 27.484375 
Q 23.390625 27.484375 19.1875 25 
Q 14.984375 22.515625 14.984375 16.5 
Q 14.984375 11.71875 18.140625 8.90625 
Q 21.296875 6.109375 26.703125 6.109375 
Q 34.1875 6.109375 38.703125 11.40625 
Q 43.21875 16.703125 43.21875 25.484375 
L 43.21875 27.484375 
z
M 52.203125 31.203125 
L 52.203125 0 
L 43.21875 0 
L 43.21875 8.296875 
Q 40.140625 3.328125 35.546875 0.953125 
Q 30.953125 -1.421875 24.3125 -1.421875 
Q 15.921875 -1.421875 10.953125 3.296875 
Q 6 8.015625 6 15.921875 
Q 6 25.140625 12.171875 29.828125 
Q 18.359375 34.515625 30.609375 34.515625 
L 43.21875 34.515625 
L 43.21875 35.40625 
Q 43.21875 41.609375 39.140625 45 
Q 35.0625 48.390625 27.6875 48.390625 
Q 23 48.390625 18.546875 47.265625 
Q 14.109375 46.140625 10.015625 43.890625 
L 10.015625 52.203125 
Q 14.9375 54.109375 19.578125 55.046875 
Q 24.21875 56 28.609375 56 
Q 40.484375 56 46.34375 49.84375 
Q 52.203125 43.703125 52.203125 31.203125 
" id="BitstreamVeraSans-Roman-61"/>
      <path d="M 9.8125 72.90625 
L 51.703125 72.90625 
L 51.703125 64.59375 
L 19.671875 64.59375 
L 19.671875 43.109375 
L 48.578125 43.109375 
L 48.578125 34.8125 
L 19.671875 34.8125 
L 19.671875 0 
L 9.8125 0 
z
" id="BitstreamVeraSans-Roman-46"/>
      <path d="M 44.390625 34.1875 
Q 47.5625 33.109375 50.5625 29.59375 
Q 53.5625 26.078125 56.59375 19.921875 
L 66.609375 0 
L 56 0 
L 46.6875 18.703125 
Q 43.0625 26.03125 39.671875 28.421875 
Q 36.28125 30.8125 30.421875 30.8125 
L 19.671875 30.8125 
L 19.671875 0 
L 9.8125 0 
L 9.8125 72.90625 
L 32.078125 72.90625 
Q 44.578125 72.90625 50.734375 67.671875 
Q 56.890625 62.453125 56.890625 51.90625 
Q 56.890625 45.015625 53.6875 40.46875 
Q 50.484375 35.9375 44.390625 34.1875 
M 19.671875 64.796875 
L 19.671875 38.921875 
L 32.078125 38.921875 
Q 39.203125 38.921875 42.84375 42.21875 
Q 46.484375 45.515625 46.484375 51.90625 
Q 46.484375 58.296875 42.84375 61.546875 
Q 39.203125 64.796875 32.078125 64.796875 
z
" id="BitstreamVeraSans-Roman-52"/>
      <path d="M 56.203125 29.59375 
L 56.203125 25.203125 
L 14.890625 25.203125 
Q 15.484375 15.921875 20.484375 11.0625 
Q 25.484375 6.203125 34.421875 6.203125 
Q 39.59375 6.203125 44.453125 7.46875 
Q 49.3125 8.734375 54.109375 11.28125 
L 54.109375 2.78125 
Q 49.265625 0.734375 44.1875 -0.34375 
Q 39.109375 -1.421875 33.890625 -1.421875 
Q 20.796875 -1.421875 13.15625 6.1875 
Q 5.515625 13.8125 5.515625 26.8125 
Q 5.515625 40.234375 12.765625 48.109375 
Q 20.015625 56 32.328125 56 
Q 43.359375 56 49.78125 48.890625 
Q 56.203125 41.796875 56.203125 29.59375 
M 47.21875 32.234375 
Q 47.125 39.59375 43.09375 43.984375 
Q 39.0625 48.390625 32.421875 48.390625 
Q 24.90625 48.390625 20.390625 44.140625 
Q 15.875 39.890625 15.1875 32.171875 
z
" id="BitstreamVeraSans-Roman-65"/>
      <path d="M 18.3125 70.21875 
L 18.3125 54.6875 
L 36.8125 54.6875 
L 36.8125 47.703125 
L 18.3125 47.703125 
L 18.3125 18.015625 
Q 18.3125 11.328125 20.140625 9.421875 
Q 21.96875 7.515625 27.59375 7.515625 
L 36.8125 7.515625 
L 36.8125 0 
L 27.59375 0 
Q 17.1875 0 13.234375 3.875 
Q 9.28125 7.765625 9.28125 18.015625 
L 9.28125 47.703125 
L 2.6875 47.703125 
L 2.6875 54.6875 
L 9.28125 54.6875 
L 9.28125 70.21875 
z
" id="BitstreamVeraSans-Roman-74"/>
      <path d="M 9.421875 54.6875 
L 18.40625 54.6875 
L 18.40625 0 
L 9.421875 0 
z
M 9.421875 75.984375 
L 18.40625 75.984375 
L 18.40625 64.59375 
L 9.421875 64.59375 
z
" id="BitstreamVeraSans-Roman-69"/>
      <path d="M 30.609375 48.390625 
Q 23.390625 48.390625 19.1875 42.75 
Q 14.984375 37.109375 14.984375 27.296875 
Q 14.984375 17.484375 19.15625 11.84375 
Q 23.34375 6.203125 30.609375 6.203125 
Q 37.796875 6.203125 41.984375 11.859375 
Q 46.1875 17.53125 46.1875 27.296875 
Q 46.1875 37.015625 41.984375 42.703125 
Q 37.796875 48.390625 30.609375 48.390625 
M 30.609375 56 
Q 42.328125 56 49.015625 48.375 
Q 55.71875 40.765625 55.71875 27.296875 
Q 55.71875 13.875 49.015625 6.21875 
Q 42.328125 -1.421875 30.609375 -1.421875 
Q 18.84375 -1.421875 12.171875 6.21875 
Q 5.515625 13.875 5.515625 27.296875 
Q 5.515625 40.765625 12.171875 48.375 
Q 18.84375 56 30.609375 56 
" id="BitstreamVeraSans-Roman-6f"/>
      <path d="M 9.421875 75.984375 
L 18.40625 75.984375 
L 18.40625 0 
L 9.421875 0 
z
" id="BitstreamVeraSans-Roman-6c"/>
      <path id="BitstreamVeraSans-Roman-20"/>
      <path d="M 2.984375 54.6875 
L 12.5 54.6875 
L 29.59375 8.796875 
L 46.6875 54.6875 
L 56.203125 54.6875 
L 35.6875 0 
L 23.484375 0 
z
" id="BitstreamVeraSans-Roman-76"/>
      <path d="M 19.671875 64.796875 
L 19.671875 37.40625 
L 32.078125 37.40625 
Q 38.96875 37.40625 42.71875 40.96875 
Q 46.484375 44.53125 46.484375 51.125 
Q 46.484375 57.671875 42.71875 61.234375 
Q 38.96875 64.796875 32.078125 64.796875 
z
M 9.8125 72.90625 
L 32.078125 72.90625 
Q 44.34375 72.90625 50.609375 67.359375 
Q 56.890625 61.8125 56.890625 51.125 
Q 56.890625 40.328125 50.609375 34.8125 
Q 44.34375 29.296875 32.078125 29.296875 
L 19.671875 29.296875 
L 19.671875 0 
L 9.8125 0 
z
" id="BitstreamVeraSans-Roman-50"/>
     </defs>
     <g transform="translate(213.4509375 414.598475)scale(0.12 -0.12)">
      <use xlink:href="#BitstreamVeraSans-Roman-46"/>
      <use x="57.37890625" xlink:href="#BitstreamVeraSans-Roman-61"/>
      <use x="118.658203125" xlink:href="#BitstreamVeraSans-Roman-6c"/>
      <use x="146.44140625" xlink:href="#BitstreamVeraSans-Roman-73"/>
      <use x="198.541015625" xlink:href="#BitstreamVeraSans-Roman-65"/>
      <use x="260.064453125" xlink:href="#BitstreamVeraSans-Roman-20"/>
      <use x="291.8515625" xlink:href="#BitstreamVeraSans-Roman-50"/>
      <use x="352.107421875" xlink:href="#BitstreamVeraSans-Roman-6f"/>
      <use x="413.2890625" xlink:href="#BitstreamVeraSans-Roman-73"/>
      <use x="465.388671875" xlink:href="#BitstreamVeraSans-Roman-69"/>
      <use x="493.171875" xlink:href="#BitstreamVeraSans-Roman-74"/>
      <use x="532.380859375" xlink:href="#BitstreamVeraSans-Roman-69"/>
      <use x="560.1640625" xlink:href="#BitstreamVeraSans-Roman-76"/>
      <use x="619.34375" xlink:href="#BitstreamVeraSans-Roman-65"/>
      <use x="680.8671875" xlink:href="#BitstreamVeraSans-Roman-20"/>
      <use x="712.654296875" xlink:href="#BitstreamVeraSans-Roman-52"/>
      <use x="782.10546875" xlink:href="#BitstreamVeraSans-Roman-61"/>
      <use x="843.384765625" xlink:href="#BitstreamVeraSans-Roman-74"/>
      <use x="882.59375" xlink:href="#BitstreamVeraSans-Roman-65"/>
     </g>
    </g>
   </g>
   <g id="matplotlib.axis_2">
    <g id="ytick_1">
     <g id="line2d_17">
      <defs>
       <path d="M 0 0 
L 4 0 
" id="m21cdd20d3e" style="stroke:#000000;stroke-width:0.5;"/>
      </defs>
      <g>
       <use style="stroke:#000000;stroke-width:0.5;" x="46.8975" xlink:href="#m21cdd20d3e" y="384.8666"/>
      </g>
     </g>
     <g id="line2d_18">
      <defs>
       <path d="M 0 0 
L -4 0 
" id="m16e8d9bd00" style="stroke:#000000;stroke-width:0.5;"/>
      </defs>
      <g>
       <use style="stroke:#000000;stroke-width:0.5;" x="493.2975" xlink:href="#m16e8d9bd00" y="384.8666"/>
      </g>
     </g>
     <g id="text_8">
      <!-- 0.0 -->
      <g transform="translate(23.81375 388.17785)scale(0.12 -0.12)">
       <use xlink:href="#BitstreamVeraSans-Roman-30"/>
       <use x="63.623046875" xlink:href="#BitstreamVeraSans-Roman-2e"/>
       <use x="95.41015625" xlink:href="#BitstreamVeraSans-Roman-30"/>
      </g>
     </g>
    </g>
    <g id="ytick_2">
     <g id="line2d_19">
      <g>
       <use style="stroke:#000000;stroke-width:0.5;" x="46.8975" xlink:href="#m21cdd20d3e" y="319.038028571"/>
      </g>
     </g>
     <g id="line2d_20">
      <g>
       <use style="stroke:#000000;stroke-width:0.5;" x="493.2975" xlink:href="#m16e8d9bd00" y="319.038028571"/>
      </g>
     </g>
     <g id="text_9">
      <!-- 0.2 -->
      <g transform="translate(23.81375 322.349278571)scale(0.12 -0.12)">
       <use xlink:href="#BitstreamVeraSans-Roman-30"/>
       <use x="63.623046875" xlink:href="#BitstreamVeraSans-Roman-2e"/>
       <use x="95.41015625" xlink:href="#BitstreamVeraSans-Roman-32"/>
      </g>
     </g>
    </g>
    <g id="ytick_3">
     <g id="line2d_21">
      <g>
       <use style="stroke:#000000;stroke-width:0.5;" x="46.8975" xlink:href="#m21cdd20d3e" y="253.209457143"/>
      </g>
     </g>
     <g id="line2d_22">
      <g>
       <use style="stroke:#000000;stroke-width:0.5;" x="493.2975" xlink:href="#m16e8d9bd00" y="253.209457143"/>
      </g>
     </g>
     <g id="text_10">
      <!-- 0.4 -->
      <g transform="translate(23.81375 256.520707143)scale(0.12 -0.12)">
       <use xlink:href="#BitstreamVeraSans-Roman-30"/>
       <use x="63.623046875" xlink:href="#BitstreamVeraSans-Roman-2e"/>
       <use x="95.41015625" xlink:href="#BitstreamVeraSans-Roman-34"/>
      </g>
     </g>
    </g>
    <g id="ytick_4">
     <g id="line2d_23">
      <g>
       <use style="stroke:#000000;stroke-width:0.5;" x="46.8975" xlink:href="#m21cdd20d3e" y="187.380885714"/>
      </g>
     </g>
     <g id="line2d_24">
      <g>
       <use style="stroke:#000000;stroke-width:0.5;" x="493.2975" xlink:href="#m16e8d9bd00" y="187.380885714"/>
      </g>
     </g>
     <g id="text_11">
      <!-- 0.6 -->
      <g transform="translate(23.81375 190.692135714)scale(0.12 -0.12)">
       <use xlink:href="#BitstreamVeraSans-Roman-30"/>
       <use x="63.623046875" xlink:href="#BitstreamVeraSans-Roman-2e"/>
       <use x="95.41015625" xlink:href="#BitstreamVeraSans-Roman-36"/>
      </g>
     </g>
    </g>
    <g id="ytick_5">
     <g id="line2d_25">
      <g>
       <use style="stroke:#000000;stroke-width:0.5;" x="46.8975" xlink:href="#m21cdd20d3e" y="121.552314286"/>
      </g>
     </g>
     <g id="line2d_26">
      <g>
       <use style="stroke:#000000;stroke-width:0.5;" x="493.2975" xlink:href="#m16e8d9bd00" y="121.552314286"/>
      </g>
     </g>
     <g id="text_12">
      <!-- 0.8 -->
      <g transform="translate(23.81375 124.863564286)scale(0.12 -0.12)">
       <use xlink:href="#BitstreamVeraSans-Roman-30"/>
       <use x="63.623046875" xlink:href="#BitstreamVeraSans-Roman-2e"/>
       <use x="95.41015625" xlink:href="#BitstreamVeraSans-Roman-38"/>
      </g>
     </g>
    </g>
    <g id="ytick_6">
     <g id="line2d_27">
      <g>
       <use style="stroke:#000000;stroke-width:0.5;" x="46.8975" xlink:href="#m21cdd20d3e" y="55.7237428571"/>
      </g>
     </g>
     <g id="line2d_28">
      <g>
       <use style="stroke:#000000;stroke-width:0.5;" x="493.2975" xlink:href="#m16e8d9bd00" y="55.7237428571"/>
      </g>
     </g>
     <g id="text_13">
      <!-- 1.0 -->
      <g transform="translate(23.81375 59.0349928571)scale(0.12 -0.12)">
       <use xlink:href="#BitstreamVeraSans-Roman-31"/>
       <use x="63.623046875" xlink:href="#BitstreamVeraSans-Roman-2e"/>
       <use x="95.41015625" xlink:href="#BitstreamVeraSans-Roman-30"/>
      </g>
     </g>
    </g>
    <g id="text_14">
     <!-- True Positive Rate -->
     <defs>
      <path d="M 41.109375 46.296875 
Q 39.59375 47.171875 37.8125 47.578125 
Q 36.03125 48 33.890625 48 
Q 26.265625 48 22.1875 43.046875 
Q 18.109375 38.09375 18.109375 28.8125 
L 18.109375 0 
L 9.078125 0 
L 9.078125 54.6875 
L 18.109375 54.6875 
L 18.109375 46.1875 
Q 20.953125 51.171875 25.484375 53.578125 
Q 30.03125 56 36.53125 56 
Q 37.453125 56 38.578125 55.875 
Q 39.703125 55.765625 41.0625 55.515625 
z
" id="BitstreamVeraSans-Roman-72"/>
      <path d="M 8.5 21.578125 
L 8.5 54.6875 
L 17.484375 54.6875 
L 17.484375 21.921875 
Q 17.484375 14.15625 20.5 10.265625 
Q 23.53125 6.390625 29.59375 6.390625 
Q 36.859375 6.390625 41.078125 11.03125 
Q 45.3125 15.671875 45.3125 23.6875 
L 45.3125 54.6875 
L 54.296875 54.6875 
L 54.296875 0 
L 45.3125 0 
L 45.3125 8.40625 
Q 42.046875 3.421875 37.71875 1 
Q 33.40625 -1.421875 27.6875 -1.421875 
Q 18.265625 -1.421875 13.375 4.4375 
Q 8.5 10.296875 8.5 21.578125 
" id="BitstreamVeraSans-Roman-75"/>
      <path d="M -0.296875 72.90625 
L 61.375 72.90625 
L 61.375 64.59375 
L 35.5 64.59375 
L 35.5 0 
L 25.59375 0 
L 25.59375 64.59375 
L -0.296875 64.59375 
z
" id="BitstreamVeraSans-Roman-54"/>
     </defs>
     <g transform="translate(16.318125 266.7219125)rotate(-90.0)scale(0.12 -0.12)">
      <use xlink:href="#BitstreamVeraSans-Roman-54"/>
      <use x="60.865234375" xlink:href="#BitstreamVeraSans-Roman-72"/>
      <use x="101.978515625" xlink:href="#BitstreamVeraSans-Roman-75"/>
      <use x="165.357421875" xlink:href="#BitstreamVeraSans-Roman-65"/>
      <use x="226.880859375" xlink:href="#BitstreamVeraSans-Roman-20"/>
      <use x="258.66796875" xlink:href="#BitstreamVeraSans-Roman-50"/>
      <use x="318.923828125" xlink:href="#BitstreamVeraSans-Roman-6f"/>
      <use x="380.10546875" xlink:href="#BitstreamVeraSans-Roman-73"/>
      <use x="432.205078125" xlink:href="#BitstreamVeraSans-Roman-69"/>
      <use x="459.98828125" xlink:href="#BitstreamVeraSans-Roman-74"/>
      <use x="499.197265625" xlink:href="#BitstreamVeraSans-Roman-69"/>
      <use x="526.98046875" xlink:href="#BitstreamVeraSans-Roman-76"/>
      <use x="586.16015625" xlink:href="#BitstreamVeraSans-Roman-65"/>
      <use x="647.68359375" xlink:href="#BitstreamVeraSans-Roman-20"/>
      <use x="679.470703125" xlink:href="#BitstreamVeraSans-Roman-52"/>
      <use x="748.921875" xlink:href="#BitstreamVeraSans-Roman-61"/>
      <use x="810.201171875" xlink:href="#BitstreamVeraSans-Roman-74"/>
      <use x="849.41015625" xlink:href="#BitstreamVeraSans-Roman-65"/>
     </g>
    </g>
   </g>
   <g id="text_15">
    <!-- ROC Curve RandomForest + RandomOverSampler -->
    <defs>
     <path d="M 64.40625 67.28125 
L 64.40625 56.890625 
Q 59.421875 61.53125 53.78125 63.8125 
Q 48.140625 66.109375 41.796875 66.109375 
Q 29.296875 66.109375 22.65625 58.46875 
Q 16.015625 50.828125 16.015625 36.375 
Q 16.015625 21.96875 22.65625 14.328125 
Q 29.296875 6.6875 41.796875 6.6875 
Q 48.140625 6.6875 53.78125 8.984375 
Q 59.421875 11.28125 64.40625 15.921875 
L 64.40625 5.609375 
Q 59.234375 2.09375 53.4375 0.328125 
Q 47.65625 -1.421875 41.21875 -1.421875 
Q 24.65625 -1.421875 15.125 8.703125 
Q 5.609375 18.84375 5.609375 36.375 
Q 5.609375 53.953125 15.125 64.078125 
Q 24.65625 74.21875 41.21875 74.21875 
Q 47.75 74.21875 53.53125 72.484375 
Q 59.328125 70.75 64.40625 67.28125 
" id="BitstreamVeraSans-Roman-43"/>
     <path d="M 45.40625 46.390625 
L 45.40625 75.984375 
L 54.390625 75.984375 
L 54.390625 0 
L 45.40625 0 
L 45.40625 8.203125 
Q 42.578125 3.328125 38.25 0.953125 
Q 33.9375 -1.421875 27.875 -1.421875 
Q 17.96875 -1.421875 11.734375 6.484375 
Q 5.515625 14.40625 5.515625 27.296875 
Q 5.515625 40.1875 11.734375 48.09375 
Q 17.96875 56 27.875 56 
Q 33.9375 56 38.25 53.625 
Q 42.578125 51.265625 45.40625 46.390625 
M 14.796875 27.296875 
Q 14.796875 17.390625 18.875 11.75 
Q 22.953125 6.109375 30.078125 6.109375 
Q 37.203125 6.109375 41.296875 11.75 
Q 45.40625 17.390625 45.40625 27.296875 
Q 45.40625 37.203125 41.296875 42.84375 
Q 37.203125 48.484375 30.078125 48.484375 
Q 22.953125 48.484375 18.875 42.84375 
Q 14.796875 37.203125 14.796875 27.296875 
" id="BitstreamVeraSans-Roman-64"/>
     <path d="M 53.515625 70.515625 
L 53.515625 60.890625 
Q 47.90625 63.578125 42.921875 64.890625 
Q 37.9375 66.21875 33.296875 66.21875 
Q 25.25 66.21875 20.875 63.09375 
Q 16.5 59.96875 16.5 54.203125 
Q 16.5 49.359375 19.40625 46.890625 
Q 22.3125 44.4375 30.421875 42.921875 
L 36.375 41.703125 
Q 47.40625 39.59375 52.65625 34.296875 
Q 57.90625 29 57.90625 20.125 
Q 57.90625 9.515625 50.796875 4.046875 
Q 43.703125 -1.421875 29.984375 -1.421875 
Q 24.8125 -1.421875 18.96875 -0.25 
Q 13.140625 0.921875 6.890625 3.21875 
L 6.890625 13.375 
Q 12.890625 10.015625 18.65625 8.296875 
Q 24.421875 6.59375 29.984375 6.59375 
Q 38.421875 6.59375 43.015625 9.90625 
Q 47.609375 13.234375 47.609375 19.390625 
Q 47.609375 24.75 44.3125 27.78125 
Q 41.015625 30.8125 33.5 32.328125 
L 27.484375 33.5 
Q 16.453125 35.6875 11.515625 40.375 
Q 6.59375 45.0625 6.59375 53.421875 
Q 6.59375 63.09375 13.40625 68.65625 
Q 20.21875 74.21875 32.171875 74.21875 
Q 37.3125 74.21875 42.625 73.28125 
Q 47.953125 72.359375 53.515625 70.515625 
" id="BitstreamVeraSans-Roman-53"/>
     <path d="M 39.40625 66.21875 
Q 28.65625 66.21875 22.328125 58.203125 
Q 16.015625 50.203125 16.015625 36.375 
Q 16.015625 22.609375 22.328125 14.59375 
Q 28.65625 6.59375 39.40625 6.59375 
Q 50.140625 6.59375 56.421875 14.59375 
Q 62.703125 22.609375 62.703125 36.375 
Q 62.703125 50.203125 56.421875 58.203125 
Q 50.140625 66.21875 39.40625 66.21875 
M 39.40625 74.21875 
Q 54.734375 74.21875 63.90625 63.9375 
Q 73.09375 53.65625 73.09375 36.375 
Q 73.09375 19.140625 63.90625 8.859375 
Q 54.734375 -1.421875 39.40625 -1.421875 
Q 24.03125 -1.421875 14.8125 8.828125 
Q 5.609375 19.09375 5.609375 36.375 
Q 5.609375 53.65625 14.8125 63.9375 
Q 24.03125 74.21875 39.40625 74.21875 
" id="BitstreamVeraSans-Roman-4f"/>
     <path d="M 52 44.1875 
Q 55.375 50.25 60.0625 53.125 
Q 64.75 56 71.09375 56 
Q 79.640625 56 84.28125 50.015625 
Q 88.921875 44.046875 88.921875 33.015625 
L 88.921875 0 
L 79.890625 0 
L 79.890625 32.71875 
Q 79.890625 40.578125 77.09375 44.375 
Q 74.3125 48.1875 68.609375 48.1875 
Q 61.625 48.1875 57.5625 43.546875 
Q 53.515625 38.921875 53.515625 30.90625 
L 53.515625 0 
L 44.484375 0 
L 44.484375 32.71875 
Q 44.484375 40.625 41.703125 44.40625 
Q 38.921875 48.1875 33.109375 48.1875 
Q 26.21875 48.1875 22.15625 43.53125 
Q 18.109375 38.875 18.109375 30.90625 
L 18.109375 0 
L 9.078125 0 
L 9.078125 54.6875 
L 18.109375 54.6875 
L 18.109375 46.1875 
Q 21.1875 51.21875 25.484375 53.609375 
Q 29.78125 56 35.6875 56 
Q 41.65625 56 45.828125 52.96875 
Q 50 49.953125 52 44.1875 
" id="BitstreamVeraSans-Roman-6d"/>
     <path d="M 18.109375 8.203125 
L 18.109375 -20.796875 
L 9.078125 -20.796875 
L 9.078125 54.6875 
L 18.109375 54.6875 
L 18.109375 46.390625 
Q 20.953125 51.265625 25.265625 53.625 
Q 29.59375 56 35.59375 56 
Q 45.5625 56 51.78125 48.09375 
Q 58.015625 40.1875 58.015625 27.296875 
Q 58.015625 14.40625 51.78125 6.484375 
Q 45.5625 -1.421875 35.59375 -1.421875 
Q 29.59375 -1.421875 25.265625 0.953125 
Q 20.953125 3.328125 18.109375 8.203125 
M 48.6875 27.296875 
Q 48.6875 37.203125 44.609375 42.84375 
Q 40.53125 48.484375 33.40625 48.484375 
Q 26.265625 48.484375 22.1875 42.84375 
Q 18.109375 37.203125 18.109375 27.296875 
Q 18.109375 17.390625 22.1875 11.75 
Q 26.265625 6.109375 33.40625 6.109375 
Q 40.53125 6.109375 44.609375 11.75 
Q 48.6875 17.390625 48.6875 27.296875 
" id="BitstreamVeraSans-Roman-70"/>
     <path d="M 54.890625 33.015625 
L 54.890625 0 
L 45.90625 0 
L 45.90625 32.71875 
Q 45.90625 40.484375 42.875 44.328125 
Q 39.84375 48.1875 33.796875 48.1875 
Q 26.515625 48.1875 22.3125 43.546875 
Q 18.109375 38.921875 18.109375 30.90625 
L 18.109375 0 
L 9.078125 0 
L 9.078125 54.6875 
L 18.109375 54.6875 
L 18.109375 46.1875 
Q 21.34375 51.125 25.703125 53.5625 
Q 30.078125 56 35.796875 56 
Q 45.21875 56 50.046875 50.171875 
Q 54.890625 44.34375 54.890625 33.015625 
" id="BitstreamVeraSans-Roman-6e"/>
     <path d="M 46 62.703125 
L 46 35.5 
L 73.1875 35.5 
L 73.1875 27.203125 
L 46 27.203125 
L 46 0 
L 37.796875 0 
L 37.796875 27.203125 
L 10.59375 27.203125 
L 10.59375 35.5 
L 37.796875 35.5 
L 37.796875 62.703125 
z
" id="BitstreamVeraSans-Roman-2b"/>
    </defs>
    <g transform="translate(88.258125 18.14175)scale(0.144 -0.144)">
     <use xlink:href="#BitstreamVeraSans-Roman-52"/>
     <use x="69.482421875" xlink:href="#BitstreamVeraSans-Roman-4f"/>
     <use x="148.193359375" xlink:href="#BitstreamVeraSans-Roman-43"/>
     <use x="218.017578125" xlink:href="#BitstreamVeraSans-Roman-20"/>
     <use x="249.8046875" xlink:href="#BitstreamVeraSans-Roman-43"/>
     <use x="319.62890625" xlink:href="#BitstreamVeraSans-Roman-75"/>
     <use x="383.0078125" xlink:href="#BitstreamVeraSans-Roman-72"/>
     <use x="424.12109375" xlink:href="#BitstreamVeraSans-Roman-76"/>
     <use x="483.30078125" xlink:href="#BitstreamVeraSans-Roman-65"/>
     <use x="544.82421875" xlink:href="#BitstreamVeraSans-Roman-20"/>
     <use x="576.611328125" xlink:href="#BitstreamVeraSans-Roman-52"/>
     <use x="646.0625" xlink:href="#BitstreamVeraSans-Roman-61"/>
     <use x="707.341796875" xlink:href="#BitstreamVeraSans-Roman-6e"/>
     <use x="770.720703125" xlink:href="#BitstreamVeraSans-Roman-64"/>
     <use x="834.197265625" xlink:href="#BitstreamVeraSans-Roman-6f"/>
     <use x="895.37890625" xlink:href="#BitstreamVeraSans-Roman-6d"/>
     <use x="992.791015625" xlink:href="#BitstreamVeraSans-Roman-46"/>
     <use x="1050.263671875" xlink:href="#BitstreamVeraSans-Roman-6f"/>
     <use x="1111.4453125" xlink:href="#BitstreamVeraSans-Roman-72"/>
     <use x="1152.52734375" xlink:href="#BitstreamVeraSans-Roman-65"/>
     <use x="1214.05078125" xlink:href="#BitstreamVeraSans-Roman-73"/>
     <use x="1266.150390625" xlink:href="#BitstreamVeraSans-Roman-74"/>
     <use x="1305.359375" xlink:href="#BitstreamVeraSans-Roman-20"/>
     <use x="1337.146484375" xlink:href="#BitstreamVeraSans-Roman-2b"/>
     <use x="1420.935546875" xlink:href="#BitstreamVeraSans-Roman-20"/>
     <use x="1452.72265625" xlink:href="#BitstreamVeraSans-Roman-52"/>
     <use x="1522.173828125" xlink:href="#BitstreamVeraSans-Roman-61"/>
     <use x="1583.453125" xlink:href="#BitstreamVeraSans-Roman-6e"/>
     <use x="1646.83203125" xlink:href="#BitstreamVeraSans-Roman-64"/>
     <use x="1710.30859375" xlink:href="#BitstreamVeraSans-Roman-6f"/>
     <use x="1771.490234375" xlink:href="#BitstreamVeraSans-Roman-6d"/>
     <use x="1868.90234375" xlink:href="#BitstreamVeraSans-Roman-4f"/>
     <use x="1947.61328125" xlink:href="#BitstreamVeraSans-Roman-76"/>
     <use x="2006.79296875" xlink:href="#BitstreamVeraSans-Roman-65"/>
     <use x="2068.31640625" xlink:href="#BitstreamVeraSans-Roman-72"/>
     <use x="2109.4296875" xlink:href="#BitstreamVeraSans-Roman-53"/>
     <use x="2172.90625" xlink:href="#BitstreamVeraSans-Roman-61"/>
     <use x="2234.185546875" xlink:href="#BitstreamVeraSans-Roman-6d"/>
     <use x="2331.59765625" xlink:href="#BitstreamVeraSans-Roman-70"/>
     <use x="2395.07421875" xlink:href="#BitstreamVeraSans-Roman-6c"/>
     <use x="2422.857421875" xlink:href="#BitstreamVeraSans-Roman-65"/>
     <use x="2484.380859375" xlink:href="#BitstreamVeraSans-Roman-72"/>
    </g>
    <!-- Train: 1   Test: [1, 2, 4, 6, 8, 10, 12] -->
    <defs>
     <path d="M 8.59375 75.984375 
L 29.296875 75.984375 
L 29.296875 69 
L 17.578125 69 
L 17.578125 -6.203125 
L 29.296875 -6.203125 
L 29.296875 -13.1875 
L 8.59375 -13.1875 
z
" id="BitstreamVeraSans-Roman-5b"/>
     <path d="M 11.71875 12.40625 
L 22.015625 12.40625 
L 22.015625 4 
L 14.015625 -11.625 
L 7.71875 -11.625 
L 11.71875 4 
z
" id="BitstreamVeraSans-Roman-2c"/>
     <path d="M 11.71875 12.40625 
L 22.015625 12.40625 
L 22.015625 0 
L 11.71875 0 
z
M 11.71875 51.703125 
L 22.015625 51.703125 
L 22.015625 39.3125 
L 11.71875 39.3125 
z
" id="BitstreamVeraSans-Roman-3a"/>
     <path d="M 30.421875 75.984375 
L 30.421875 -13.1875 
L 9.71875 -13.1875 
L 9.71875 -6.203125 
L 21.390625 -6.203125 
L 21.390625 69 
L 9.71875 69 
L 9.71875 75.984375 
z
" id="BitstreamVeraSans-Roman-5d"/>
    </defs>
    <g transform="translate(141.218625 34.2666)scale(0.144 -0.144)">
     <use xlink:href="#BitstreamVeraSans-Roman-54"/>
     <use x="60.865234375" xlink:href="#BitstreamVeraSans-Roman-72"/>
     <use x="101.978515625" xlink:href="#BitstreamVeraSans-Roman-61"/>
     <use x="163.2578125" xlink:href="#BitstreamVeraSans-Roman-69"/>
     <use x="191.041015625" xlink:href="#BitstreamVeraSans-Roman-6e"/>
     <use x="254.419921875" xlink:href="#BitstreamVeraSans-Roman-3a"/>
     <use x="288.111328125" xlink:href="#BitstreamVeraSans-Roman-20"/>
     <use x="319.8984375" xlink:href="#BitstreamVeraSans-Roman-31"/>
     <use x="383.521484375" xlink:href="#BitstreamVeraSans-Roman-20"/>
     <use x="415.30859375" xlink:href="#BitstreamVeraSans-Roman-20"/>
     <use x="447.095703125" xlink:href="#BitstreamVeraSans-Roman-20"/>
     <use x="478.8828125" xlink:href="#BitstreamVeraSans-Roman-54"/>
     <use x="539.701171875" xlink:href="#BitstreamVeraSans-Roman-65"/>
     <use x="601.224609375" xlink:href="#BitstreamVeraSans-Roman-73"/>
     <use x="653.32421875" xlink:href="#BitstreamVeraSans-Roman-74"/>
     <use x="692.533203125" xlink:href="#BitstreamVeraSans-Roman-3a"/>
     <use x="726.224609375" xlink:href="#BitstreamVeraSans-Roman-20"/>
     <use x="758.01171875" xlink:href="#BitstreamVeraSans-Roman-5b"/>
     <use x="797.025390625" xlink:href="#BitstreamVeraSans-Roman-31"/>
     <use x="860.6484375" xlink:href="#BitstreamVeraSans-Roman-2c"/>
     <use x="892.435546875" xlink:href="#BitstreamVeraSans-Roman-20"/>
     <use x="924.22265625" xlink:href="#BitstreamVeraSans-Roman-32"/>
     <use x="987.845703125" xlink:href="#BitstreamVeraSans-Roman-2c"/>
     <use x="1019.6328125" xlink:href="#BitstreamVeraSans-Roman-20"/>
     <use x="1051.419921875" xlink:href="#BitstreamVeraSans-Roman-34"/>
     <use x="1115.04296875" xlink:href="#BitstreamVeraSans-Roman-2c"/>
     <use x="1146.830078125" xlink:href="#BitstreamVeraSans-Roman-20"/>
     <use x="1178.6171875" xlink:href="#BitstreamVeraSans-Roman-36"/>
     <use x="1242.240234375" xlink:href="#BitstreamVeraSans-Roman-2c"/>
     <use x="1274.02734375" xlink:href="#BitstreamVeraSans-Roman-20"/>
     <use x="1305.814453125" xlink:href="#BitstreamVeraSans-Roman-38"/>
     <use x="1369.4375" xlink:href="#BitstreamVeraSans-Roman-2c"/>
     <use x="1401.224609375" xlink:href="#BitstreamVeraSans-Roman-20"/>
     <use x="1433.01171875" xlink:href="#BitstreamVeraSans-Roman-31"/>
     <use x="1496.634765625" xlink:href="#BitstreamVeraSans-Roman-30"/>
     <use x="1560.2578125" xlink:href="#BitstreamVeraSans-Roman-2c"/>
     <use x="1592.044921875" xlink:href="#BitstreamVeraSans-Roman-20"/>
     <use x="1623.83203125" xlink:href="#BitstreamVeraSans-Roman-31"/>
     <use x="1687.455078125" xlink:href="#BitstreamVeraSans-Roman-32"/>
     <use x="1751.078125" xlink:href="#BitstreamVeraSans-Roman-5d"/>
    </g>
   </g>
   <g id="legend_1">
    <g id="patch_7">
     <path d="M 187.14675 377.6666 
L 486.0975 377.6666 
L 486.0975 309.9371 
L 187.14675 309.9371 
z
" style="fill:#ffffff;stroke:#000000;stroke-linejoin:miter;"/>
    </g>
    <g id="line2d_29">
     <path d="M 197.22675 321.59885 
L 217.38675 321.59885 
" style="fill:none;stroke:#0000ff;stroke-linecap:square;"/>
    </g>
    <g id="line2d_30"/>
    <g id="text_16">
     <!-- janusROC curve - 0 (AUC = 0.836) -->
     <defs>
      <path d="M 8.015625 75.875 
L 15.828125 75.875 
Q 23.140625 64.359375 26.78125 53.3125 
Q 30.421875 42.28125 30.421875 31.390625 
Q 30.421875 20.453125 26.78125 9.375 
Q 23.140625 -1.703125 15.828125 -13.1875 
L 8.015625 -13.1875 
Q 14.5 -2 17.703125 9.0625 
Q 20.90625 20.125 20.90625 31.390625 
Q 20.90625 42.671875 17.703125 53.65625 
Q 14.5 64.65625 8.015625 75.875 
" id="BitstreamVeraSans-Roman-29"/>
      <path d="M 31 75.875 
Q 24.46875 64.65625 21.28125 53.65625 
Q 18.109375 42.671875 18.109375 31.390625 
Q 18.109375 20.125 21.3125 9.0625 
Q 24.515625 -2 31 -13.1875 
L 23.1875 -13.1875 
Q 15.875 -1.703125 12.234375 9.375 
Q 8.59375 20.453125 8.59375 31.390625 
Q 8.59375 42.28125 12.203125 53.3125 
Q 15.828125 64.359375 23.1875 75.875 
z
" id="BitstreamVeraSans-Roman-28"/>
      <path d="M 34.1875 63.1875 
L 20.796875 26.90625 
L 47.609375 26.90625 
z
M 28.609375 72.90625 
L 39.796875 72.90625 
L 67.578125 0 
L 57.328125 0 
L 50.6875 18.703125 
L 17.828125 18.703125 
L 11.1875 0 
L 0.78125 0 
z
" id="BitstreamVeraSans-Roman-41"/>
      <path d="M 40.578125 39.3125 
Q 47.65625 37.796875 51.625 33 
Q 55.609375 28.21875 55.609375 21.1875 
Q 55.609375 10.40625 48.1875 4.484375 
Q 40.765625 -1.421875 27.09375 -1.421875 
Q 22.515625 -1.421875 17.65625 -0.515625 
Q 12.796875 0.390625 7.625 2.203125 
L 7.625 11.71875 
Q 11.71875 9.328125 16.59375 8.109375 
Q 21.484375 6.890625 26.8125 6.890625 
Q 36.078125 6.890625 40.9375 10.546875 
Q 45.796875 14.203125 45.796875 21.1875 
Q 45.796875 27.640625 41.28125 31.265625 
Q 36.765625 34.90625 28.71875 34.90625 
L 20.21875 34.90625 
L 20.21875 43.015625 
L 29.109375 43.015625 
Q 36.375 43.015625 40.234375 45.921875 
Q 44.09375 48.828125 44.09375 54.296875 
Q 44.09375 59.90625 40.109375 62.90625 
Q 36.140625 65.921875 28.71875 65.921875 
Q 24.65625 65.921875 20.015625 65.03125 
Q 15.375 64.15625 9.8125 62.3125 
L 9.8125 71.09375 
Q 15.4375 72.65625 20.34375 73.4375 
Q 25.25 74.21875 29.59375 74.21875 
Q 40.828125 74.21875 47.359375 69.109375 
Q 53.90625 64.015625 53.90625 55.328125 
Q 53.90625 49.265625 50.4375 45.09375 
Q 46.96875 40.921875 40.578125 39.3125 
" id="BitstreamVeraSans-Roman-33"/>
      <path d="M 8.6875 72.90625 
L 18.609375 72.90625 
L 18.609375 28.609375 
Q 18.609375 16.890625 22.84375 11.734375 
Q 27.09375 6.59375 36.625 6.59375 
Q 46.09375 6.59375 50.34375 11.734375 
Q 54.59375 16.890625 54.59375 28.609375 
L 54.59375 72.90625 
L 64.5 72.90625 
L 64.5 27.390625 
Q 64.5 13.140625 57.4375 5.859375 
Q 50.390625 -1.421875 36.625 -1.421875 
Q 22.796875 -1.421875 15.734375 5.859375 
Q 8.6875 13.140625 8.6875 27.390625 
z
" id="BitstreamVeraSans-Roman-55"/>
      <path d="M 10.59375 45.40625 
L 73.1875 45.40625 
L 73.1875 37.203125 
L 10.59375 37.203125 
z
M 10.59375 25.484375 
L 73.1875 25.484375 
L 73.1875 17.1875 
L 10.59375 17.1875 
z
" id="BitstreamVeraSans-Roman-3d"/>
      <path d="M 9.421875 54.6875 
L 18.40625 54.6875 
L 18.40625 -0.984375 
Q 18.40625 -11.421875 14.421875 -16.109375 
Q 10.453125 -20.796875 1.609375 -20.796875 
L -1.8125 -20.796875 
L -1.8125 -13.1875 
L 0.59375 -13.1875 
Q 5.71875 -13.1875 7.5625 -10.8125 
Q 9.421875 -8.453125 9.421875 -0.984375 
z
M 9.421875 75.984375 
L 18.40625 75.984375 
L 18.40625 64.59375 
L 9.421875 64.59375 
z
" id="BitstreamVeraSans-Roman-6a"/>
      <path d="M 4.890625 31.390625 
L 31.203125 31.390625 
L 31.203125 23.390625 
L 4.890625 23.390625 
z
" id="BitstreamVeraSans-Roman-2d"/>
      <path d="M 48.78125 52.59375 
L 48.78125 44.1875 
Q 44.96875 46.296875 41.140625 47.34375 
Q 37.3125 48.390625 33.40625 48.390625 
Q 24.65625 48.390625 19.8125 42.84375 
Q 14.984375 37.3125 14.984375 27.296875 
Q 14.984375 17.28125 19.8125 11.734375 
Q 24.65625 6.203125 33.40625 6.203125 
Q 37.3125 6.203125 41.140625 7.25 
Q 44.96875 8.296875 48.78125 10.40625 
L 48.78125 2.09375 
Q 45.015625 0.34375 40.984375 -0.53125 
Q 36.96875 -1.421875 32.421875 -1.421875 
Q 20.0625 -1.421875 12.78125 6.34375 
Q 5.515625 14.109375 5.515625 27.296875 
Q 5.515625 40.671875 12.859375 48.328125 
Q 20.21875 56 33.015625 56 
Q 37.15625 56 41.109375 55.140625 
Q 45.0625 54.296875 48.78125 52.59375 
" id="BitstreamVeraSans-Roman-63"/>
     </defs>
     <g transform="translate(233.22675 326.63885)scale(0.144 -0.144)">
      <use xlink:href="#BitstreamVeraSans-Roman-6a"/>
      <use x="27.783203125" xlink:href="#BitstreamVeraSans-Roman-61"/>
      <use x="89.0625" xlink:href="#BitstreamVeraSans-Roman-6e"/>
      <use x="152.44140625" xlink:href="#BitstreamVeraSans-Roman-75"/>
      <use x="215.8203125" xlink:href="#BitstreamVeraSans-Roman-73"/>
      <use x="267.919921875" xlink:href="#BitstreamVeraSans-Roman-52"/>
      <use x="337.40234375" xlink:href="#BitstreamVeraSans-Roman-4f"/>
      <use x="416.11328125" xlink:href="#BitstreamVeraSans-Roman-43"/>
      <use x="485.9375" xlink:href="#BitstreamVeraSans-Roman-20"/>
      <use x="517.724609375" xlink:href="#BitstreamVeraSans-Roman-63"/>
      <use x="572.705078125" xlink:href="#BitstreamVeraSans-Roman-75"/>
      <use x="636.083984375" xlink:href="#BitstreamVeraSans-Roman-72"/>
      <use x="677.197265625" xlink:href="#BitstreamVeraSans-Roman-76"/>
      <use x="736.376953125" xlink:href="#BitstreamVeraSans-Roman-65"/>
      <use x="797.900390625" xlink:href="#BitstreamVeraSans-Roman-20"/>
      <use x="829.6875" xlink:href="#BitstreamVeraSans-Roman-2d"/>
      <use x="865.771484375" xlink:href="#BitstreamVeraSans-Roman-20"/>
      <use x="897.55859375" xlink:href="#BitstreamVeraSans-Roman-30"/>
      <use x="961.181640625" xlink:href="#BitstreamVeraSans-Roman-20"/>
      <use x="992.96875" xlink:href="#BitstreamVeraSans-Roman-28"/>
      <use x="1031.982421875" xlink:href="#BitstreamVeraSans-Roman-41"/>
      <use x="1100.390625" xlink:href="#BitstreamVeraSans-Roman-55"/>
      <use x="1173.583984375" xlink:href="#BitstreamVeraSans-Roman-43"/>
      <use x="1243.408203125" xlink:href="#BitstreamVeraSans-Roman-20"/>
      <use x="1275.1953125" xlink:href="#BitstreamVeraSans-Roman-3d"/>
      <use x="1358.984375" xlink:href="#BitstreamVeraSans-Roman-20"/>
      <use x="1390.771484375" xlink:href="#BitstreamVeraSans-Roman-30"/>
      <use x="1454.39453125" xlink:href="#BitstreamVeraSans-Roman-2e"/>
      <use x="1486.181640625" xlink:href="#BitstreamVeraSans-Roman-38"/>
      <use x="1549.8046875" xlink:href="#BitstreamVeraSans-Roman-33"/>
      <use x="1613.427734375" xlink:href="#BitstreamVeraSans-Roman-36"/>
      <use x="1677.05078125" xlink:href="#BitstreamVeraSans-Roman-29"/>
     </g>
    </g>
    <g id="line2d_31">
     <path d="M 197.22675 342.73535 
L 217.38675 342.73535 
" style="fill:none;stroke:#008000;stroke-linecap:square;"/>
    </g>
    <g id="line2d_32"/>
    <g id="text_17">
     <!-- janusROC curve - 1 (AUC = 0.822) -->
     <g transform="translate(233.22675 347.77535)scale(0.144 -0.144)">
      <use xlink:href="#BitstreamVeraSans-Roman-6a"/>
      <use x="27.783203125" xlink:href="#BitstreamVeraSans-Roman-61"/>
      <use x="89.0625" xlink:href="#BitstreamVeraSans-Roman-6e"/>
      <use x="152.44140625" xlink:href="#BitstreamVeraSans-Roman-75"/>
      <use x="215.8203125" xlink:href="#BitstreamVeraSans-Roman-73"/>
      <use x="267.919921875" xlink:href="#BitstreamVeraSans-Roman-52"/>
      <use x="337.40234375" xlink:href="#BitstreamVeraSans-Roman-4f"/>
      <use x="416.11328125" xlink:href="#BitstreamVeraSans-Roman-43"/>
      <use x="485.9375" xlink:href="#BitstreamVeraSans-Roman-20"/>
      <use x="517.724609375" xlink:href="#BitstreamVeraSans-Roman-63"/>
      <use x="572.705078125" xlink:href="#BitstreamVeraSans-Roman-75"/>
      <use x="636.083984375" xlink:href="#BitstreamVeraSans-Roman-72"/>
      <use x="677.197265625" xlink:href="#BitstreamVeraSans-Roman-76"/>
      <use x="736.376953125" xlink:href="#BitstreamVeraSans-Roman-65"/>
      <use x="797.900390625" xlink:href="#BitstreamVeraSans-Roman-20"/>
      <use x="829.6875" xlink:href="#BitstreamVeraSans-Roman-2d"/>
      <use x="865.771484375" xlink:href="#BitstreamVeraSans-Roman-20"/>
      <use x="897.55859375" xlink:href="#BitstreamVeraSans-Roman-31"/>
      <use x="961.181640625" xlink:href="#BitstreamVeraSans-Roman-20"/>
      <use x="992.96875" xlink:href="#BitstreamVeraSans-Roman-28"/>
      <use x="1031.982421875" xlink:href="#BitstreamVeraSans-Roman-41"/>
      <use x="1100.390625" xlink:href="#BitstreamVeraSans-Roman-55"/>
      <use x="1173.583984375" xlink:href="#BitstreamVeraSans-Roman-43"/>
      <use x="1243.408203125" xlink:href="#BitstreamVeraSans-Roman-20"/>
      <use x="1275.1953125" xlink:href="#BitstreamVeraSans-Roman-3d"/>
      <use x="1358.984375" xlink:href="#BitstreamVeraSans-Roman-20"/>
      <use x="1390.771484375" xlink:href="#BitstreamVeraSans-Roman-30"/>
      <use x="1454.39453125" xlink:href="#BitstreamVeraSans-Roman-2e"/>
      <use x="1486.181640625" xlink:href="#BitstreamVeraSans-Roman-38"/>
      <use x="1549.8046875" xlink:href="#BitstreamVeraSans-Roman-32"/>
      <use x="1613.427734375" xlink:href="#BitstreamVeraSans-Roman-32"/>
      <use x="1677.05078125" xlink:href="#BitstreamVeraSans-Roman-29"/>
     </g>
    </g>
    <g id="line2d_33">
     <path d="M 197.22675 363.87185 
L 217.38675 363.87185 
" style="fill:none;stroke:#ff0000;stroke-linecap:square;"/>
    </g>
    <g id="line2d_34"/>
    <g id="text_18">
     <!-- janusROC curve - 2 (AUC = 0.852) -->
     <defs>
      <path d="M 10.796875 72.90625 
L 49.515625 72.90625 
L 49.515625 64.59375 
L 19.828125 64.59375 
L 19.828125 46.734375 
Q 21.96875 47.46875 24.109375 47.828125 
Q 26.265625 48.1875 28.421875 48.1875 
Q 40.625 48.1875 47.75 41.5 
Q 54.890625 34.8125 54.890625 23.390625 
Q 54.890625 11.625 47.5625 5.09375 
Q 40.234375 -1.421875 26.90625 -1.421875 
Q 22.3125 -1.421875 17.546875 -0.640625 
Q 12.796875 0.140625 7.71875 1.703125 
L 7.71875 11.625 
Q 12.109375 9.234375 16.796875 8.0625 
Q 21.484375 6.890625 26.703125 6.890625 
Q 35.15625 6.890625 40.078125 11.328125 
Q 45.015625 15.765625 45.015625 23.390625 
Q 45.015625 31 40.078125 35.4375 
Q 35.15625 39.890625 26.703125 39.890625 
Q 22.75 39.890625 18.8125 39.015625 
Q 14.890625 38.140625 10.796875 36.28125 
z
" id="BitstreamVeraSans-Roman-35"/>
     </defs>
     <g transform="translate(233.22675 368.91185)scale(0.144 -0.144)">
      <use xlink:href="#BitstreamVeraSans-Roman-6a"/>
      <use x="27.783203125" xlink:href="#BitstreamVeraSans-Roman-61"/>
      <use x="89.0625" xlink:href="#BitstreamVeraSans-Roman-6e"/>
      <use x="152.44140625" xlink:href="#BitstreamVeraSans-Roman-75"/>
      <use x="215.8203125" xlink:href="#BitstreamVeraSans-Roman-73"/>
      <use x="267.919921875" xlink:href="#BitstreamVeraSans-Roman-52"/>
      <use x="337.40234375" xlink:href="#BitstreamVeraSans-Roman-4f"/>
      <use x="416.11328125" xlink:href="#BitstreamVeraSans-Roman-43"/>
      <use x="485.9375" xlink:href="#BitstreamVeraSans-Roman-20"/>
      <use x="517.724609375" xlink:href="#BitstreamVeraSans-Roman-63"/>
      <use x="572.705078125" xlink:href="#BitstreamVeraSans-Roman-75"/>
      <use x="636.083984375" xlink:href="#BitstreamVeraSans-Roman-72"/>
      <use x="677.197265625" xlink:href="#BitstreamVeraSans-Roman-76"/>
      <use x="736.376953125" xlink:href="#BitstreamVeraSans-Roman-65"/>
      <use x="797.900390625" xlink:href="#BitstreamVeraSans-Roman-20"/>
      <use x="829.6875" xlink:href="#BitstreamVeraSans-Roman-2d"/>
      <use x="865.771484375" xlink:href="#BitstreamVeraSans-Roman-20"/>
      <use x="897.55859375" xlink:href="#BitstreamVeraSans-Roman-32"/>
      <use x="961.181640625" xlink:href="#BitstreamVeraSans-Roman-20"/>
      <use x="992.96875" xlink:href="#BitstreamVeraSans-Roman-28"/>
      <use x="1031.982421875" xlink:href="#BitstreamVeraSans-Roman-41"/>
      <use x="1100.390625" xlink:href="#BitstreamVeraSans-Roman-55"/>
      <use x="1173.583984375" xlink:href="#BitstreamVeraSans-Roman-43"/>
      <use x="1243.408203125" xlink:href="#BitstreamVeraSans-Roman-20"/>
      <use x="1275.1953125" xlink:href="#BitstreamVeraSans-Roman-3d"/>
      <use x="1358.984375" xlink:href="#BitstreamVeraSans-Roman-20"/>
      <use x="1390.771484375" xlink:href="#BitstreamVeraSans-Roman-30"/>
      <use x="1454.39453125" xlink:href="#BitstreamVeraSans-Roman-2e"/>
      <use x="1486.181640625" xlink:href="#BitstreamVeraSans-Roman-38"/>
      <use x="1549.8046875" xlink:href="#BitstreamVeraSans-Roman-35"/>
      <use x="1613.427734375" xlink:href="#BitstreamVeraSans-Roman-32"/>
      <use x="1677.05078125" xlink:href="#BitstreamVeraSans-Roman-29"/>
     </g>
    </g>
   </g>
  </g>
 </g>
 <defs>
  <clipPath id="pcec2873e52">
   <rect height="345.6" width="446.4" x="46.8975" y="39.2666"/>
  </clipPath>
 </defs>
</svg>
