<?xml version="1.0" encoding="utf-8" standalone="no"?>
<!DOCTYPE svg PUBLIC "-//W3C//DTD SVG 1.1//EN"
  "http://www.w3.org/Graphics/SVG/1.1/DTD/svg11.dtd">
<!-- Created with matplotlib (http://matplotlib.org/) -->
<svg height="339pt" version="1.1" viewBox="0 0 416 339" width="416pt" xmlns="http://www.w3.org/2000/svg" xmlns:xlink="http://www.w3.org/1999/xlink">
 <defs>
  <style type="text/css">
*{stroke-linecap:butt;stroke-linejoin:round;}
  </style>
 </defs>
 <g id="figure_1">
  <g id="patch_1">
   <path d="M 0 339.42375 
L 416.052813 339.42375 
L 416.052813 0 
L 0 0 
z
" style="fill:#ffffff;"/>
  </g>
  <g id="axes_1">
   <g id="patch_2">
    <path d="M 43.78125 301.8675 
L 400.90125 301.8675 
L 400.90125 35.7555 
L 43.78125 35.7555 
z
" style="fill:#ffffff;"/>
   </g>
   <g id="matplotlib.axis_1">
    <g id="xtick_1">
     <g id="line2d_1">
      <defs>
       <path d="M 0 0 
L 0 3.5 
" id="m46e3ea3562" style="stroke:#000000;stroke-width:0.8;"/>
      </defs>
      <g>
       <use style="stroke:#000000;stroke-width:0.8;" x="43.78125" xlink:href="#m46e3ea3562" y="301.8675"/>
      </g>
     </g>
     <g id="text_1">
      <!-- 0.0 -->
      <defs>
       <path d="M 31.78125 66.40625 
Q 24.171875 66.40625 20.328125 58.90625 
Q 16.5 51.421875 16.5 36.375 
Q 16.5 21.390625 20.328125 13.890625 
Q 24.171875 6.390625 31.78125 6.390625 
Q 39.453125 6.390625 43.28125 13.890625 
Q 47.125 21.390625 47.125 36.375 
Q 47.125 51.421875 43.28125 58.90625 
Q 39.453125 66.40625 31.78125 66.40625 
M 31.78125 74.21875 
Q 44.046875 74.21875 50.515625 64.515625 
Q 56.984375 54.828125 56.984375 36.375 
Q 56.984375 17.96875 50.515625 8.265625 
Q 44.046875 -1.421875 31.78125 -1.421875 
Q 19.53125 -1.421875 13.0625 8.265625 
Q 6.59375 17.96875 6.59375 36.375 
Q 6.59375 54.828125 13.0625 64.515625 
Q 19.53125 74.21875 31.78125 74.21875 
" id="DejaVuSans-30"/>
       <path d="M 10.6875 12.40625 
L 21 12.40625 
L 21 0 
L 10.6875 0 
z
" id="DejaVuSans-2e"/>
      </defs>
      <g transform="translate(35.829688 316.465937)scale(0.1 -0.1)">
       <use xlink:href="#DejaVuSans-30"/>
       <use x="63.623047" xlink:href="#DejaVuSans-2e"/>
       <use x="95.410156" xlink:href="#DejaVuSans-30"/>
      </g>
     </g>
    </g>
    <g id="xtick_2">
     <g id="line2d_2">
      <g>
       <use style="stroke:#000000;stroke-width:0.8;" x="115.20525" xlink:href="#m46e3ea3562" y="301.8675"/>
      </g>
     </g>
     <g id="text_2">
      <!-- 0.2 -->
      <defs>
       <path d="M 19.1875 8.296875 
L 53.609375 8.296875 
L 53.609375 0 
L 7.328125 0 
L 7.328125 8.296875 
Q 12.9375 14.109375 22.625 23.890625 
Q 32.328125 33.6875 34.8125 36.53125 
Q 39.546875 41.84375 41.421875 45.53125 
Q 43.3125 49.21875 43.3125 52.78125 
Q 43.3125 58.59375 39.234375 62.25 
Q 35.15625 65.921875 28.609375 65.921875 
Q 23.96875 65.921875 18.8125 64.3125 
Q 13.671875 62.703125 7.8125 59.421875 
L 7.8125 69.390625 
Q 13.765625 71.78125 18.9375 73 
Q 24.125 74.21875 28.421875 74.21875 
Q 39.75 74.21875 46.484375 68.546875 
Q 53.21875 62.890625 53.21875 53.421875 
Q 53.21875 48.921875 51.53125 44.890625 
Q 49.859375 40.875 45.40625 35.40625 
Q 44.1875 33.984375 37.640625 27.21875 
Q 31.109375 20.453125 19.1875 8.296875 
" id="DejaVuSans-32"/>
      </defs>
      <g transform="translate(107.253688 316.465937)scale(0.1 -0.1)">
       <use xlink:href="#DejaVuSans-30"/>
       <use x="63.623047" xlink:href="#DejaVuSans-2e"/>
       <use x="95.410156" xlink:href="#DejaVuSans-32"/>
      </g>
     </g>
    </g>
    <g id="xtick_3">
     <g id="line2d_3">
      <g>
       <use style="stroke:#000000;stroke-width:0.8;" x="186.62925" xlink:href="#m46e3ea3562" y="301.8675"/>
      </g>
     </g>
     <g id="text_3">
      <!-- 0.4 -->
      <defs>
       <path d="M 37.796875 64.3125 
L 12.890625 25.390625 
L 37.796875 25.390625 
z
M 35.203125 72.90625 
L 47.609375 72.90625 
L 47.609375 25.390625 
L 58.015625 25.390625 
L 58.015625 17.1875 
L 47.609375 17.1875 
L 47.609375 0 
L 37.796875 0 
L 37.796875 17.1875 
L 4.890625 17.1875 
L 4.890625 26.703125 
z
" id="DejaVuSans-34"/>
      </defs>
      <g transform="translate(178.677688 316.465937)scale(0.1 -0.1)">
       <use xlink:href="#DejaVuSans-30"/>
       <use x="63.623047" xlink:href="#DejaVuSans-2e"/>
       <use x="95.410156" xlink:href="#DejaVuSans-34"/>
      </g>
     </g>
    </g>
    <g id="xtick_4">
     <g id="line2d_4">
      <g>
       <use style="stroke:#000000;stroke-width:0.8;" x="258.05325" xlink:href="#m46e3ea3562" y="301.8675"/>
      </g>
     </g>
     <g id="text_4">
      <!-- 0.6 -->
      <defs>
       <path d="M 33.015625 40.375 
Q 26.375 40.375 22.484375 35.828125 
Q 18.609375 31.296875 18.609375 23.390625 
Q 18.609375 15.53125 22.484375 10.953125 
Q 26.375 6.390625 33.015625 6.390625 
Q 39.65625 6.390625 43.53125 10.953125 
Q 47.40625 15.53125 47.40625 23.390625 
Q 47.40625 31.296875 43.53125 35.828125 
Q 39.65625 40.375 33.015625 40.375 
M 52.59375 71.296875 
L 52.59375 62.3125 
Q 48.875 64.0625 45.09375 64.984375 
Q 41.3125 65.921875 37.59375 65.921875 
Q 27.828125 65.921875 22.671875 59.328125 
Q 17.53125 52.734375 16.796875 39.40625 
Q 19.671875 43.65625 24.015625 45.921875 
Q 28.375 48.1875 33.59375 48.1875 
Q 44.578125 48.1875 50.953125 41.515625 
Q 57.328125 34.859375 57.328125 23.390625 
Q 57.328125 12.15625 50.6875 5.359375 
Q 44.046875 -1.421875 33.015625 -1.421875 
Q 20.359375 -1.421875 13.671875 8.265625 
Q 6.984375 17.96875 6.984375 36.375 
Q 6.984375 53.65625 15.1875 63.9375 
Q 23.390625 74.21875 37.203125 74.21875 
Q 40.921875 74.21875 44.703125 73.484375 
Q 48.484375 72.75 52.59375 71.296875 
" id="DejaVuSans-36"/>
      </defs>
      <g transform="translate(250.101688 316.465937)scale(0.1 -0.1)">
       <use xlink:href="#DejaVuSans-30"/>
       <use x="63.623047" xlink:href="#DejaVuSans-2e"/>
       <use x="95.410156" xlink:href="#DejaVuSans-36"/>
      </g>
     </g>
    </g>
    <g id="xtick_5">
     <g id="line2d_5">
      <g>
       <use style="stroke:#000000;stroke-width:0.8;" x="329.47725" xlink:href="#m46e3ea3562" y="301.8675"/>
      </g>
     </g>
     <g id="text_5">
      <!-- 0.8 -->
      <defs>
       <path d="M 31.78125 34.625 
Q 24.75 34.625 20.71875 30.859375 
Q 16.703125 27.09375 16.703125 20.515625 
Q 16.703125 13.921875 20.71875 10.15625 
Q 24.75 6.390625 31.78125 6.390625 
Q 38.8125 6.390625 42.859375 10.171875 
Q 46.921875 13.96875 46.921875 20.515625 
Q 46.921875 27.09375 42.890625 30.859375 
Q 38.875 34.625 31.78125 34.625 
M 21.921875 38.8125 
Q 15.578125 40.375 12.03125 44.71875 
Q 8.5 49.078125 8.5 55.328125 
Q 8.5 64.0625 14.71875 69.140625 
Q 20.953125 74.21875 31.78125 74.21875 
Q 42.671875 74.21875 48.875 69.140625 
Q 55.078125 64.0625 55.078125 55.328125 
Q 55.078125 49.078125 51.53125 44.71875 
Q 48 40.375 41.703125 38.8125 
Q 48.828125 37.15625 52.796875 32.3125 
Q 56.78125 27.484375 56.78125 20.515625 
Q 56.78125 9.90625 50.3125 4.234375 
Q 43.84375 -1.421875 31.78125 -1.421875 
Q 19.734375 -1.421875 13.25 4.234375 
Q 6.78125 9.90625 6.78125 20.515625 
Q 6.78125 27.484375 10.78125 32.3125 
Q 14.796875 37.15625 21.921875 38.8125 
M 18.3125 54.390625 
Q 18.3125 48.734375 21.84375 45.5625 
Q 25.390625 42.390625 31.78125 42.390625 
Q 38.140625 42.390625 41.71875 45.5625 
Q 45.3125 48.734375 45.3125 54.390625 
Q 45.3125 60.0625 41.71875 63.234375 
Q 38.140625 66.40625 31.78125 66.40625 
Q 25.390625 66.40625 21.84375 63.234375 
Q 18.3125 60.0625 18.3125 54.390625 
" id="DejaVuSans-38"/>
      </defs>
      <g transform="translate(321.525688 316.465937)scale(0.1 -0.1)">
       <use xlink:href="#DejaVuSans-30"/>
       <use x="63.623047" xlink:href="#DejaVuSans-2e"/>
       <use x="95.410156" xlink:href="#DejaVuSans-38"/>
      </g>
     </g>
    </g>
    <g id="xtick_6">
     <g id="line2d_6">
      <g>
       <use style="stroke:#000000;stroke-width:0.8;" x="400.90125" xlink:href="#m46e3ea3562" y="301.8675"/>
      </g>
     </g>
     <g id="text_6">
      <!-- 1.0 -->
      <defs>
       <path d="M 12.40625 8.296875 
L 28.515625 8.296875 
L 28.515625 63.921875 
L 10.984375 60.40625 
L 10.984375 69.390625 
L 28.421875 72.90625 
L 38.28125 72.90625 
L 38.28125 8.296875 
L 54.390625 8.296875 
L 54.390625 0 
L 12.40625 0 
z
" id="DejaVuSans-31"/>
      </defs>
      <g transform="translate(392.949688 316.465937)scale(0.1 -0.1)">
       <use xlink:href="#DejaVuSans-31"/>
       <use x="63.623047" xlink:href="#DejaVuSans-2e"/>
       <use x="95.410156" xlink:href="#DejaVuSans-30"/>
      </g>
     </g>
    </g>
    <g id="text_7">
     <!-- False Positive Rate -->
     <defs>
      <path d="M 9.8125 72.90625 
L 51.703125 72.90625 
L 51.703125 64.59375 
L 19.671875 64.59375 
L 19.671875 43.109375 
L 48.578125 43.109375 
L 48.578125 34.8125 
L 19.671875 34.8125 
L 19.671875 0 
L 9.8125 0 
z
" id="DejaVuSans-46"/>
      <path d="M 34.28125 27.484375 
Q 23.390625 27.484375 19.1875 25 
Q 14.984375 22.515625 14.984375 16.5 
Q 14.984375 11.71875 18.140625 8.90625 
Q 21.296875 6.109375 26.703125 6.109375 
Q 34.1875 6.109375 38.703125 11.40625 
Q 43.21875 16.703125 43.21875 25.484375 
L 43.21875 27.484375 
z
M 52.203125 31.203125 
L 52.203125 0 
L 43.21875 0 
L 43.21875 8.296875 
Q 40.140625 3.328125 35.546875 0.953125 
Q 30.953125 -1.421875 24.3125 -1.421875 
Q 15.921875 -1.421875 10.953125 3.296875 
Q 6 8.015625 6 15.921875 
Q 6 25.140625 12.171875 29.828125 
Q 18.359375 34.515625 30.609375 34.515625 
L 43.21875 34.515625 
L 43.21875 35.40625 
Q 43.21875 41.609375 39.140625 45 
Q 35.0625 48.390625 27.6875 48.390625 
Q 23 48.390625 18.546875 47.265625 
Q 14.109375 46.140625 10.015625 43.890625 
L 10.015625 52.203125 
Q 14.9375 54.109375 19.578125 55.046875 
Q 24.21875 56 28.609375 56 
Q 40.484375 56 46.34375 49.84375 
Q 52.203125 43.703125 52.203125 31.203125 
" id="DejaVuSans-61"/>
      <path d="M 9.421875 75.984375 
L 18.40625 75.984375 
L 18.40625 0 
L 9.421875 0 
z
" id="DejaVuSans-6c"/>
      <path d="M 44.28125 53.078125 
L 44.28125 44.578125 
Q 40.484375 46.53125 36.375 47.5 
Q 32.28125 48.484375 27.875 48.484375 
Q 21.1875 48.484375 17.84375 46.4375 
Q 14.5 44.390625 14.5 40.28125 
Q 14.5 37.15625 16.890625 35.375 
Q 19.28125 33.59375 26.515625 31.984375 
L 29.59375 31.296875 
Q 39.15625 29.25 43.1875 25.515625 
Q 47.21875 21.78125 47.21875 15.09375 
Q 47.21875 7.46875 41.1875 3.015625 
Q 35.15625 -1.421875 24.609375 -1.421875 
Q 20.21875 -1.421875 15.453125 -0.5625 
Q 10.6875 0.296875 5.421875 2 
L 5.421875 11.28125 
Q 10.40625 8.6875 15.234375 7.390625 
Q 20.0625 6.109375 24.8125 6.109375 
Q 31.15625 6.109375 34.5625 8.28125 
Q 37.984375 10.453125 37.984375 14.40625 
Q 37.984375 18.0625 35.515625 20.015625 
Q 33.0625 21.96875 24.703125 23.78125 
L 21.578125 24.515625 
Q 13.234375 26.265625 9.515625 29.90625 
Q 5.8125 33.546875 5.8125 39.890625 
Q 5.8125 47.609375 11.28125 51.796875 
Q 16.75 56 26.8125 56 
Q 31.78125 56 36.171875 55.265625 
Q 40.578125 54.546875 44.28125 53.078125 
" id="DejaVuSans-73"/>
      <path d="M 56.203125 29.59375 
L 56.203125 25.203125 
L 14.890625 25.203125 
Q 15.484375 15.921875 20.484375 11.0625 
Q 25.484375 6.203125 34.421875 6.203125 
Q 39.59375 6.203125 44.453125 7.46875 
Q 49.3125 8.734375 54.109375 11.28125 
L 54.109375 2.78125 
Q 49.265625 0.734375 44.1875 -0.34375 
Q 39.109375 -1.421875 33.890625 -1.421875 
Q 20.796875 -1.421875 13.15625 6.1875 
Q 5.515625 13.8125 5.515625 26.8125 
Q 5.515625 40.234375 12.765625 48.109375 
Q 20.015625 56 32.328125 56 
Q 43.359375 56 49.78125 48.890625 
Q 56.203125 41.796875 56.203125 29.59375 
M 47.21875 32.234375 
Q 47.125 39.59375 43.09375 43.984375 
Q 39.0625 48.390625 32.421875 48.390625 
Q 24.90625 48.390625 20.390625 44.140625 
Q 15.875 39.890625 15.1875 32.171875 
z
" id="DejaVuSans-65"/>
      <path id="DejaVuSans-20"/>
      <path d="M 19.671875 64.796875 
L 19.671875 37.40625 
L 32.078125 37.40625 
Q 38.96875 37.40625 42.71875 40.96875 
Q 46.484375 44.53125 46.484375 51.125 
Q 46.484375 57.671875 42.71875 61.234375 
Q 38.96875 64.796875 32.078125 64.796875 
z
M 9.8125 72.90625 
L 32.078125 72.90625 
Q 44.34375 72.90625 50.609375 67.359375 
Q 56.890625 61.8125 56.890625 51.125 
Q 56.890625 40.328125 50.609375 34.8125 
Q 44.34375 29.296875 32.078125 29.296875 
L 19.671875 29.296875 
L 19.671875 0 
L 9.8125 0 
z
" id="DejaVuSans-50"/>
      <path d="M 30.609375 48.390625 
Q 23.390625 48.390625 19.1875 42.75 
Q 14.984375 37.109375 14.984375 27.296875 
Q 14.984375 17.484375 19.15625 11.84375 
Q 23.34375 6.203125 30.609375 6.203125 
Q 37.796875 6.203125 41.984375 11.859375 
Q 46.1875 17.53125 46.1875 27.296875 
Q 46.1875 37.015625 41.984375 42.703125 
Q 37.796875 48.390625 30.609375 48.390625 
M 30.609375 56 
Q 42.328125 56 49.015625 48.375 
Q 55.71875 40.765625 55.71875 27.296875 
Q 55.71875 13.875 49.015625 6.21875 
Q 42.328125 -1.421875 30.609375 -1.421875 
Q 18.84375 -1.421875 12.171875 6.21875 
Q 5.515625 13.875 5.515625 27.296875 
Q 5.515625 40.765625 12.171875 48.375 
Q 18.84375 56 30.609375 56 
" id="DejaVuSans-6f"/>
      <path d="M 9.421875 54.6875 
L 18.40625 54.6875 
L 18.40625 0 
L 9.421875 0 
z
M 9.421875 75.984375 
L 18.40625 75.984375 
L 18.40625 64.59375 
L 9.421875 64.59375 
z
" id="DejaVuSans-69"/>
      <path d="M 18.3125 70.21875 
L 18.3125 54.6875 
L 36.8125 54.6875 
L 36.8125 47.703125 
L 18.3125 47.703125 
L 18.3125 18.015625 
Q 18.3125 11.328125 20.140625 9.421875 
Q 21.96875 7.515625 27.59375 7.515625 
L 36.8125 7.515625 
L 36.8125 0 
L 27.59375 0 
Q 17.1875 0 13.234375 3.875 
Q 9.28125 7.765625 9.28125 18.015625 
L 9.28125 47.703125 
L 2.6875 47.703125 
L 2.6875 54.6875 
L 9.28125 54.6875 
L 9.28125 70.21875 
z
" id="DejaVuSans-74"/>
      <path d="M 2.984375 54.6875 
L 12.5 54.6875 
L 29.59375 8.796875 
L 46.6875 54.6875 
L 56.203125 54.6875 
L 35.6875 0 
L 23.484375 0 
z
" id="DejaVuSans-76"/>
      <path d="M 44.390625 34.1875 
Q 47.5625 33.109375 50.5625 29.59375 
Q 53.5625 26.078125 56.59375 19.921875 
L 66.609375 0 
L 56 0 
L 46.6875 18.703125 
Q 43.0625 26.03125 39.671875 28.421875 
Q 36.28125 30.8125 30.421875 30.8125 
L 19.671875 30.8125 
L 19.671875 0 
L 9.8125 0 
L 9.8125 72.90625 
L 32.078125 72.90625 
Q 44.578125 72.90625 50.734375 67.671875 
Q 56.890625 62.453125 56.890625 51.90625 
Q 56.890625 45.015625 53.6875 40.46875 
Q 50.484375 35.9375 44.390625 34.1875 
M 19.671875 64.796875 
L 19.671875 38.921875 
L 32.078125 38.921875 
Q 39.203125 38.921875 42.84375 42.21875 
Q 46.484375 45.515625 46.484375 51.90625 
Q 46.484375 58.296875 42.84375 61.546875 
Q 39.203125 64.796875 32.078125 64.796875 
z
" id="DejaVuSans-52"/>
     </defs>
     <g transform="translate(175.135781 330.144062)scale(0.1 -0.1)">
      <use xlink:href="#DejaVuSans-46"/>
      <use x="57.378906" xlink:href="#DejaVuSans-61"/>
      <use x="118.658203" xlink:href="#DejaVuSans-6c"/>
      <use x="146.441406" xlink:href="#DejaVuSans-73"/>
      <use x="198.541016" xlink:href="#DejaVuSans-65"/>
      <use x="260.064453" xlink:href="#DejaVuSans-20"/>
      <use x="291.851562" xlink:href="#DejaVuSans-50"/>
      <use x="352.107422" xlink:href="#DejaVuSans-6f"/>
      <use x="413.289062" xlink:href="#DejaVuSans-73"/>
      <use x="465.388672" xlink:href="#DejaVuSans-69"/>
      <use x="493.171875" xlink:href="#DejaVuSans-74"/>
      <use x="532.380859" xlink:href="#DejaVuSans-69"/>
      <use x="560.164062" xlink:href="#DejaVuSans-76"/>
      <use x="619.34375" xlink:href="#DejaVuSans-65"/>
      <use x="680.867188" xlink:href="#DejaVuSans-20"/>
      <use x="712.654297" xlink:href="#DejaVuSans-52"/>
      <use x="782.105469" xlink:href="#DejaVuSans-61"/>
      <use x="843.384766" xlink:href="#DejaVuSans-74"/>
      <use x="882.59375" xlink:href="#DejaVuSans-65"/>
     </g>
    </g>
   </g>
   <g id="matplotlib.axis_2">
    <g id="ytick_1">
     <g id="line2d_7">
      <defs>
       <path d="M 0 0 
L -3.5 0 
" id="m76d97aecb6" style="stroke:#000000;stroke-width:0.8;"/>
      </defs>
      <g>
       <use style="stroke:#000000;stroke-width:0.8;" x="43.78125" xlink:href="#m76d97aecb6" y="301.8675"/>
      </g>
     </g>
     <g id="text_8">
      <!-- 0.0 -->
      <g transform="translate(20.878125 305.666719)scale(0.1 -0.1)">
       <use xlink:href="#DejaVuSans-30"/>
       <use x="63.623047" xlink:href="#DejaVuSans-2e"/>
       <use x="95.410156" xlink:href="#DejaVuSans-30"/>
      </g>
     </g>
    </g>
    <g id="ytick_2">
     <g id="line2d_8">
      <g>
       <use style="stroke:#000000;stroke-width:0.8;" x="43.78125" xlink:href="#m76d97aecb6" y="251.1795"/>
      </g>
     </g>
     <g id="text_9">
      <!-- 0.2 -->
      <g transform="translate(20.878125 254.978719)scale(0.1 -0.1)">
       <use xlink:href="#DejaVuSans-30"/>
       <use x="63.623047" xlink:href="#DejaVuSans-2e"/>
       <use x="95.410156" xlink:href="#DejaVuSans-32"/>
      </g>
     </g>
    </g>
    <g id="ytick_3">
     <g id="line2d_9">
      <g>
       <use style="stroke:#000000;stroke-width:0.8;" x="43.78125" xlink:href="#m76d97aecb6" y="200.4915"/>
      </g>
     </g>
     <g id="text_10">
      <!-- 0.4 -->
      <g transform="translate(20.878125 204.290719)scale(0.1 -0.1)">
       <use xlink:href="#DejaVuSans-30"/>
       <use x="63.623047" xlink:href="#DejaVuSans-2e"/>
       <use x="95.410156" xlink:href="#DejaVuSans-34"/>
      </g>
     </g>
    </g>
    <g id="ytick_4">
     <g id="line2d_10">
      <g>
       <use style="stroke:#000000;stroke-width:0.8;" x="43.78125" xlink:href="#m76d97aecb6" y="149.8035"/>
      </g>
     </g>
     <g id="text_11">
      <!-- 0.6 -->
      <g transform="translate(20.878125 153.602719)scale(0.1 -0.1)">
       <use xlink:href="#DejaVuSans-30"/>
       <use x="63.623047" xlink:href="#DejaVuSans-2e"/>
       <use x="95.410156" xlink:href="#DejaVuSans-36"/>
      </g>
     </g>
    </g>
    <g id="ytick_5">
     <g id="line2d_11">
      <g>
       <use style="stroke:#000000;stroke-width:0.8;" x="43.78125" xlink:href="#m76d97aecb6" y="99.1155"/>
      </g>
     </g>
     <g id="text_12">
      <!-- 0.8 -->
      <g transform="translate(20.878125 102.914719)scale(0.1 -0.1)">
       <use xlink:href="#DejaVuSans-30"/>
       <use x="63.623047" xlink:href="#DejaVuSans-2e"/>
       <use x="95.410156" xlink:href="#DejaVuSans-38"/>
      </g>
     </g>
    </g>
    <g id="ytick_6">
     <g id="line2d_12">
      <g>
       <use style="stroke:#000000;stroke-width:0.8;" x="43.78125" xlink:href="#m76d97aecb6" y="48.4275"/>
      </g>
     </g>
     <g id="text_13">
      <!-- 1.0 -->
      <g transform="translate(20.878125 52.226719)scale(0.1 -0.1)">
       <use xlink:href="#DejaVuSans-31"/>
       <use x="63.623047" xlink:href="#DejaVuSans-2e"/>
       <use x="95.410156" xlink:href="#DejaVuSans-30"/>
      </g>
     </g>
    </g>
    <g id="text_14">
     <!-- True Positive Rate -->
     <defs>
      <path d="M -0.296875 72.90625 
L 61.375 72.90625 
L 61.375 64.59375 
L 35.5 64.59375 
L 35.5 0 
L 25.59375 0 
L 25.59375 64.59375 
L -0.296875 64.59375 
z
" id="DejaVuSans-54"/>
      <path d="M 41.109375 46.296875 
Q 39.59375 47.171875 37.8125 47.578125 
Q 36.03125 48 33.890625 48 
Q 26.265625 48 22.1875 43.046875 
Q 18.109375 38.09375 18.109375 28.8125 
L 18.109375 0 
L 9.078125 0 
L 9.078125 54.6875 
L 18.109375 54.6875 
L 18.109375 46.1875 
Q 20.953125 51.171875 25.484375 53.578125 
Q 30.03125 56 36.53125 56 
Q 37.453125 56 38.578125 55.875 
Q 39.703125 55.765625 41.0625 55.515625 
z
" id="DejaVuSans-72"/>
      <path d="M 8.5 21.578125 
L 8.5 54.6875 
L 17.484375 54.6875 
L 17.484375 21.921875 
Q 17.484375 14.15625 20.5 10.265625 
Q 23.53125 6.390625 29.59375 6.390625 
Q 36.859375 6.390625 41.078125 11.03125 
Q 45.3125 15.671875 45.3125 23.6875 
L 45.3125 54.6875 
L 54.296875 54.6875 
L 54.296875 0 
L 45.3125 0 
L 45.3125 8.40625 
Q 42.046875 3.421875 37.71875 1 
Q 33.40625 -1.421875 27.6875 -1.421875 
Q 18.265625 -1.421875 13.375 4.4375 
Q 8.5 10.296875 8.5 21.578125 
M 31.109375 56 
z
" id="DejaVuSans-75"/>
     </defs>
     <g transform="translate(14.798438 214.357594)rotate(-90)scale(0.1 -0.1)">
      <use xlink:href="#DejaVuSans-54"/>
      <use x="60.865234" xlink:href="#DejaVuSans-72"/>
      <use x="101.978516" xlink:href="#DejaVuSans-75"/>
      <use x="165.357422" xlink:href="#DejaVuSans-65"/>
      <use x="226.880859" xlink:href="#DejaVuSans-20"/>
      <use x="258.667969" xlink:href="#DejaVuSans-50"/>
      <use x="318.923828" xlink:href="#DejaVuSans-6f"/>
      <use x="380.105469" xlink:href="#DejaVuSans-73"/>
      <use x="432.205078" xlink:href="#DejaVuSans-69"/>
      <use x="459.988281" xlink:href="#DejaVuSans-74"/>
      <use x="499.197266" xlink:href="#DejaVuSans-69"/>
      <use x="526.980469" xlink:href="#DejaVuSans-76"/>
      <use x="586.160156" xlink:href="#DejaVuSans-65"/>
      <use x="647.683594" xlink:href="#DejaVuSans-20"/>
      <use x="679.470703" xlink:href="#DejaVuSans-52"/>
      <use x="748.921875" xlink:href="#DejaVuSans-61"/>
      <use x="810.201172" xlink:href="#DejaVuSans-74"/>
      <use x="849.410156" xlink:href="#DejaVuSans-65"/>
     </g>
    </g>
   </g>
   <g id="line2d_13">
    <path clip-path="url(#p316980f414)" d="M 43.78125 301.8675 
L 43.869899 301.8675 
L 43.958548 301.8675 
L 44.112207 298.518073 
L 44.200856 298.518073 
L 44.856859 292.098337 
L 47.356764 271.164416 
L 47.534062 271.164416 
L 47.652261 270.885297 
L 47.900479 269.210584 
L 48.077777 269.210584 
L 48.79288 265.861156 
L 49.442973 261.395253 
L 49.76802 261.395253 
L 49.82121 259.72054 
L 50.418114 254.696399 
L 50.577682 251.905209 
L 50.908639 249.393139 
L 51.085937 249.393139 
L 51.174586 248.555782 
L 51.913329 245.206355 
L 52.013798 241.856927 
L 52.191096 241.856927 
L 52.238375 240.182214 
L 52.415674 240.182214 
L 52.468863 239.344857 
L 52.699351 238.5075 
L 52.847099 238.5075 
L 53.201696 233.20424 
L 53.438093 233.20424 
L 53.473553 231.808645 
L 53.698131 230.133932 
L 53.964078 230.133932 
L 54.105917 229.296575 
L 54.224116 229.296575 
L 54.419144 225.947148 
L 55.010138 225.947148 
L 57.846909 223.155958 
L 57.965108 223.155958 
L 58.106947 222.039482 
L 58.550192 222.039482 
L 58.632932 219.806531 
L 58.869329 219.806531 
L 59.324395 215.619747 
L 59.413044 215.340628 
L 59.554882 214.503271 
L 59.909479 214.503271 
L 60.021768 213.665914 
L 60.228616 213.665914 
L 60.346814 213.386795 
L 60.565482 210.595606 
L 60.654131 210.595606 
L 60.74869 208.083535 
L 60.866889 208.083535 
L 61.091467 205.571465 
L 61.357414 205.571465 
L 61.428334 204.734108 
L 61.605632 204.734108 
L 61.658821 203.896751 
L 62.102067 203.896751 
L 62.279365 203.617632 
L 62.421204 201.942919 
L 62.687151 201.942919 
L 62.734431 201.105562 
L 62.852629 201.105562 
L 63.532273 200.547324 
L 63.662291 199.709967 
L 63.957788 199.709967 
L 64.182366 198.035253 
L 64.330115 197.756134 
L 64.655161 197.756134 
L 64.714261 197.197896 
L 65.157506 197.197896 
L 65.204786 195.523183 
L 65.470733 195.523183 
L 65.701221 194.127588 
L 65.937619 194.127588 
L 66.091277 192.173756 
L 66.315855 190.778161 
L 66.445873 188.824328 
L 66.534523 188.824328 
L 66.605442 187.986971 
L 67.137337 187.428733 
L 67.231896 186.312258 
L 67.403284 185.474901 
L 68.171576 185.474901 
L 68.337055 183.800187 
L 68.396154 183.800187 
L 68.614822 182.404593 
L 68.880769 182.404593 
L 69.052157 181.288117 
L 69.347654 181.288117 
L 69.613602 181.008998 
L 69.879549 181.008998 
L 69.980018 179.334284 
L 70.600562 178.496927 
L 70.76604 176.822214 
L 70.854689 176.822214 
L 70.984708 175.984857 
L 71.102907 175.984857 
L 71.221106 175.426619 
L 71.309755 175.426619 
L 71.457503 175.1475 
L 71.546152 175.1475 
L 71.977578 173.472786 
L 72.539023 173.472786 
L 72.633582 172.077192 
L 72.81088 172.077192 
L 72.864069 171.239835 
L 73.212756 171.239835 
L 73.384144 169.565121 
L 73.443243 169.565121 
L 74.122887 169.286002 
L 74.74343 169.286002 
L 74.81435 168.448645 
L 75.878139 168.448645 
L 75.984518 166.773932 
L 76.545962 166.773932 
L 76.634612 166.494813 
L 76.81191 166.494813 
L 77.024668 164.820099 
L 77.379264 164.820099 
L 77.550652 163.982742 
L 77.8166 163.982742 
L 77.982078 162.587148 
L 78.277575 162.587148 
L 78.419414 161.191553 
L 78.81538 158.121244 
L 79.376824 158.121244 
L 79.648681 156.446531 
L 80.269225 156.446531 
L 80.671101 154.492698 
L 80.848399 154.492698 
L 80.895679 153.93446 
L 81.486673 153.93446 
L 81.598962 153.097104 
L 81.687611 153.097104 
L 81.75853 152.259747 
L 83.472413 152.259747 
L 83.543333 151.42239 
L 83.897929 151.42239 
L 84.211156 148.072963 
L 84.595302 148.072963 
L 84.707591 147.235606 
L 85.150836 147.235606 
L 85.339955 145.840011 
L 85.517253 145.840011 
L 85.641362 144.165297 
L 86.232356 144.165297 
L 86.368284 143.607059 
L 86.75243 143.607059 
L 87.130667 139.420275 
L 87.219316 139.420275 
L 87.591642 137.187324 
L 88.330385 137.187324 
L 88.596332 136.908205 
L 89.896519 136.908205 
L 90.032448 135.233491 
L 90.534793 135.233491 
L 90.623442 134.954372 
L 91.214436 134.954372 
L 91.332635 134.396134 
L 92.189576 134.396134 
L 92.266405 132.721421 
L 92.532353 132.721421 
L 92.957868 128.534637 
L 93.253365 128.534637 
L 93.306555 126.859923 
L 96.084227 126.859923 
L 96.226066 126.022566 
L 96.84661 126.022566 
L 97.183476 124.90609 
L 97.685821 124.90609 
L 97.863119 124.347852 
L 97.928129 120.998425 
L 98.164526 120.998425 
L 98.270905 120.161068 
L 98.714151 120.161068 
L 98.850079 119.323711 
L 100.623062 119.323711 
L 100.676251 118.486355 
L 102.212836 118.486355 
L 102.336945 116.811641 
L 105.942009 116.811641 
L 106.012928 115.974284 
L 106.278875 115.974284 
L 106.337975 115.695165 
L 109.499793 115.695165 
L 109.700731 113.183095 
L 111.651012 113.183095 
L 111.81649 112.066619 
L 112.437034 112.066619 
L 112.525683 111.7875 
L 113.057577 111.7875 
L 113.169866 110.950143 
L 113.465363 110.950143 
L 113.719491 110.112786 
L 114.517333 110.112786 
L 114.659171 109.27543 
L 114.80692 109.27543 
L 114.871929 108.158954 
L 115.137877 108.158954 
L 115.214706 107.600716 
L 116.633092 107.600716 
L 116.739471 107.042478 
L 117.478213 107.042478 
L 117.549133 106.205121 
L 118.199226 106.205121 
L 118.346975 105.926002 
L 119.026618 105.926002 
L 119.156636 105.088645 
L 120.102227 105.088645 
L 120.190876 104.809526 
L 121.550163 104.809526 
L 121.686091 103.97217 
L 121.892939 103.97217 
L 122.034778 103.134813 
L 122.212076 103.134813 
L 122.294815 102.855694 
L 127.377364 102.855694 
L 127.460103 102.576575 
L 127.873799 102.576575 
L 127.962448 102.297456 
L 129.558133 102.297456 
L 129.694061 101.739218 
L 131.585242 101.739218 
L 131.721171 100.064504 
L 133.050908 100.064504 
L 133.222296 99.227148 
L 133.281395 99.227148 
L 133.458694 98.948029 
L 133.511883 97.273315 
L 134.457474 97.273315 
L 137.471543 96.156839 
L 138.151187 96.156839 
L 141.697151 95.87772 
L 141.8449 95.598601 
L 142.82004 95.598601 
L 142.932329 93.923888 
L 143.730171 93.923888 
L 143.84837 93.644769 
L 144.025668 93.644769 
L 144.191146 93.086531 
L 149.185046 93.086531 
L 149.539643 92.528293 
L 151.283075 92.528293 
L 151.353995 91.690936 
L 153.84799 91.690936 
L 153.924819 91.132698 
L 154.574912 91.132698 
L 154.710841 90.295341 
L 155.82191 90.295341 
L 155.981478 89.457985 
L 160.79808 89.457985 
L 161.501363 88.06239 
L 161.767311 88.06239 
L 162.683351 87.783271 
L 166.583912 87.783271 
L 166.654832 86.945914 
L 167.393574 86.945914 
L 167.470404 86.387676 
L 167.677251 86.387676 
L 167.759991 86.108557 
L 170.77406 86.108557 
L 170.951359 85.550319 
L 172.694791 85.550319 
L 175.767961 84.712963 
L 177.984188 84.712963 
L 178.055108 83.875606 
L 179.621242 83.875606 
L 180.359985 83.317368 
L 181.896569 83.317368 
L 181.973399 82.75913 
L 187.912889 82.75913 
L 188.060638 78.572346 
L 188.385684 78.572346 
L 188.545253 77.734989 
L 188.693001 77.734989 
L 188.769831 77.176751 
L 189.922269 77.176751 
L 189.981368 76.618513 
L 190.483713 76.618513 
L 190.755571 75.502037 
L 191.110167 75.502037 
L 191.157447 74.9438 
L 192.014388 74.9438 
L 192.061668 74.385562 
L 196.228176 74.385562 
L 196.358195 73.548205 
L 196.482304 71.036134 
L 198.343935 71.036134 
L 198.432584 70.757015 
L 199.998718 70.757015 
L 200.045998 70.198778 
L 200.991588 70.198778 
L 201.127517 69.64054 
L 201.895809 69.64054 
L 202.161757 69.361421 
L 207.675732 69.361421 
L 207.728921 68.803183 
L 207.994868 68.803183 
L 208.059878 67.686707 
L 210.335205 67.686707 
L 210.494773 66.84935 
L 214.359875 66.84935 
L 214.472164 65.174637 
L 215.122257 65.174637 
L 215.181357 64.895518 
L 222.893829 64.895518 
L 223.029758 63.220804 
L 223.561653 63.220804 
L 223.650302 62.383447 
L 225.127787 62.383447 
L 225.287356 61.54609 
L 225.730601 61.54609 
L 225.87244 61.266971 
L 230.689042 61.266971 
L 230.86043 60.987852 
L 240.428624 60.987852 
L 240.493634 59.871377 
L 240.995979 59.871377 
L 241.066898 59.03402 
L 245.972149 59.03402 
L 246.048978 58.475782 
L 251.456574 58.475782 
L 251.586593 57.638425 
L 252.000289 57.638425 
L 252.130307 56.801068 
L 257.597003 56.801068 
L 257.685652 56.521949 
L 262.650002 56.521949 
L 262.81548 55.963711 
L 263.081428 55.963711 
L 263.152347 55.126355 
L 268.447654 55.126355 
L 268.524483 54.568117 
L 275.261816 54.568117 
L 275.421384 53.73076 
L 276.071478 53.73076 
L 276.219226 52.335165 
L 289.427944 52.335165 
L 289.682072 51.776927 
L 303.984129 51.776927 
L 304.131877 51.497808 
L 306.082158 51.497808 
L 306.241726 50.660452 
L 315.260296 50.660452 
L 315.402135 50.381333 
L 318.061608 50.381333 
L 318.108888 49.823095 
L 327.712542 49.823095 
L 327.84256 48.985738 
L 353.284856 48.985738 
L 353.361685 48.4275 
L 400.90125 48.4275 
L 400.90125 48.4275 
" style="fill:none;stroke:#1f77b4;stroke-linecap:square;stroke-width:1.5;"/>
   </g>
   <g id="line2d_14">
    <path clip-path="url(#p316980f414)" d="M 43.78125 301.8675 
L 43.840349 301.8675 
L 44.017648 300.192786 
L 44.076747 296.006002 
L 44.194946 296.006002 
L 44.372244 290.144504 
L 46.263425 277.305033 
L 49.147476 252.742566 
L 49.383874 252.742566 
L 49.531623 252.184328 
L 49.590722 251.346971 
L 51.422804 240.461333 
L 51.600102 240.461333 
L 52.191096 237.949262 
L 52.79982 230.413051 
L 52.947568 230.413051 
L 53.952258 226.784504 
L 54.070457 226.784504 
L 54.425054 224.830672 
L 54.543252 224.830672 
L 54.838749 222.876839 
L 55.051507 220.364769 
L 55.110607 220.364769 
L 55.347004 218.690055 
L 55.524303 218.690055 
L 55.642501 218.131817 
L 55.878899 218.131817 
L 56.085747 215.619747 
L 56.381244 215.061509 
L 56.706291 215.061509 
L 57.356384 209.758249 
L 57.681431 209.758249 
L 57.858729 209.200011 
L 58.83387 205.292346 
L 58.869329 203.617632 
L 59.460323 200.547324 
L 59.696721 198.593491 
L 60.110417 198.593491 
L 60.323175 197.756134 
L 60.411824 197.756134 
L 60.589122 197.197896 
L 60.671861 196.36054 
L 60.878709 196.36054 
L 61.026458 194.685826 
L 61.292405 193.011112 
L 61.735651 193.011112 
L 61.883399 191.894637 
L 61.972048 191.894637 
L 62.119797 190.219923 
L 62.267545 190.219923 
L 62.415294 187.428733 
L 62.592592 187.428733 
L 62.911729 184.079306 
L 62.970828 184.079306 
L 63.118577 181.846355 
L 63.266325 180.45076 
L 63.354974 180.45076 
L 63.443623 179.892522 
L 63.567732 178.776046 
L 63.951878 178.776046 
L 63.987338 176.263976 
L 64.312385 176.263976 
L 64.401034 175.705738 
L 64.578332 175.705738 
L 64.77927 174.589262 
L 65.281615 174.589262 
L 65.370264 173.751905 
L 66.197656 173.751905 
L 66.374954 173.193667 
L 66.700001 173.193667 
L 66.8182 172.356311 
L 66.995498 172.356311 
L 67.054597 171.798073 
L 67.586492 171.798073 
L 67.75788 171.239835 
L 67.81698 171.239835 
L 67.994278 170.681597 
L 68.407974 170.681597 
L 68.496623 170.123359 
L 68.969418 170.123359 
L 69.146716 168.448645 
L 69.76726 168.448645 
L 70.358254 167.890407 
L 70.446903 166.773932 
L 70.624202 166.773932 
L 70.76013 165.936575 
L 71.055627 163.703623 
L 71.617072 163.703623 
L 71.682081 162.02891 
L 71.80028 162.02891 
L 72.113507 159.795958 
L 72.438554 158.400363 
L 72.7636 158.400363 
L 72.911349 156.72565 
L 73.088647 156.72565 
L 73.265945 156.446531 
L 73.443243 156.446531 
L 73.620542 155.888293 
L 73.679641 154.213579 
L 74.152436 154.213579 
L 74.300185 153.655341 
L 74.625232 153.655341 
L 74.76707 151.980628 
L 75.044837 148.6312 
L 75.488083 148.6312 
L 75.75403 145.560892 
L 75.990428 143.607059 
L 76.345024 143.607059 
L 76.658251 142.211465 
L 77.190146 142.211465 
L 77.580202 139.978513 
L 77.846149 139.978513 
L 77.917069 138.3038 
L 78.183016 138.3038 
L 78.242116 136.908205 
L 81.137987 136.908205 
L 81.344834 136.070848 
L 81.492583 136.070848 
L 81.581232 135.791729 
L 82.142677 135.791729 
L 82.290425 135.233491 
L 84.270255 135.233491 
L 84.358904 134.675253 
L 84.624852 134.675253 
L 84.713501 134.396134 
L 84.76669 132.721421 
L 85.948678 132.721421 
L 86.155526 132.163183 
L 86.480573 132.163183 
L 86.74652 130.767588 
L 88.046707 130.767588 
L 88.224006 130.20935 
L 89.494643 130.20935 
L 89.565562 129.651112 
L 90.688451 129.651112 
L 90.77119 128.813756 
L 91.569032 128.813756 
L 91.79361 127.976399 
L 92.502803 127.976399 
L 92.591452 126.859923 
L 93.182446 126.859923 
L 93.336105 125.464328 
L 95.670531 125.464328 
L 95.717811 124.90609 
L 96.072407 124.90609 
L 96.161056 124.068733 
L 96.692951 124.068733 
L 96.8407 122.952258 
L 97.136197 122.952258 
L 97.207116 122.114901 
L 97.384414 122.114901 
L 97.561712 121.556663 
L 97.620812 121.556663 
L 97.679911 120.719306 
L 100.102987 120.719306 
L 100.191636 119.881949 
L 100.309835 119.881949 
L 100.416214 119.044593 
L 100.504863 119.044593 
L 100.628972 117.369879 
L 101.692761 117.369879 
L 101.958708 116.253403 
L 102.017808 116.253403 
L 102.224656 114.29957 
L 103.081597 114.29957 
L 103.170246 113.462214 
L 103.731691 113.462214 
L 103.82034 112.345738 
L 103.997638 112.345738 
L 104.044918 111.7875 
L 104.222216 111.7875 
L 104.369964 111.229262 
L 104.724561 111.229262 
L 104.84867 108.996311 
L 104.907769 108.996311 
L 105.014148 108.158954 
L 105.339195 108.158954 
L 105.557862 107.042478 
L 107.419494 107.042478 
L 107.567242 106.48424 
L 109.458423 106.48424 
L 109.547073 105.926002 
L 111.497353 105.926002 
L 111.621462 104.809526 
L 111.857859 104.809526 
L 111.916959 104.251289 
L 112.153357 104.251289 
L 112.312925 103.693051 
L 112.874369 103.693051 
L 112.963018 102.855694 
L 113.79041 102.855694 
L 113.879059 102.297456 
L 114.351855 102.297456 
L 114.523243 101.460099 
L 115.587032 101.460099 
L 115.746601 100.622742 
L 115.923899 100.622742 
L 116.101197 100.064504 
L 116.278495 99.785385 
L 116.420334 98.110672 
L 116.981778 98.110672 
L 117.040878 96.994196 
L 120.173146 96.994196 
L 120.344535 96.156839 
L 121.053728 96.156839 
L 121.142377 95.598601 
L 121.467423 95.598601 
L 121.556073 94.761244 
L 122.678961 94.761244 
L 122.927179 93.36565 
L 123.074927 93.36565 
L 123.163576 92.807412 
L 125.527553 92.807412 
L 125.622112 91.690936 
L 128.311135 91.690936 
L 128.506163 90.016222 
L 128.671641 88.899747 
L 129.026238 88.899747 
L 129.203536 88.341509 
L 129.262635 88.341509 
L 129.374924 86.666795 
L 130.734211 86.666795 
L 130.85832 85.550319 
L 133.961039 85.550319 
L 134.049688 84.712963 
L 134.492933 84.712963 
L 134.640682 83.875606 
L 134.81798 83.875606 
L 134.995278 83.038249 
L 141.969008 83.038249 
L 142.016288 82.480011 
L 142.400434 82.480011 
L 142.435894 81.363535 
L 142.613192 81.363535 
L 142.684111 80.526178 
L 143.954749 80.526178 
L 144.132047 79.967941 
L 146.318725 79.967941 
L 146.389644 79.409703 
L 146.507843 79.409703 
L 146.667411 78.572346 
L 149.238236 78.572346 
L 149.326885 77.734989 
L 149.79968 77.734989 
L 149.888329 76.897632 
L 150.390674 76.897632 
L 150.497053 76.339394 
L 150.763001 76.339394 
L 150.85165 75.781156 
L 152.890579 75.781156 
L 153.067878 75.222919 
L 153.274725 75.222919 
L 153.629322 74.385562 
L 153.80662 74.385562 
L 153.877539 73.548205 
L 155.473223 73.548205 
L 155.544143 72.710848 
L 159.474253 72.710848 
L 159.633822 71.873491 
L 160.431664 71.873491 
L 160.567593 71.036134 
L 163.404364 71.036134 
L 163.563933 70.198778 
L 165.189166 70.198778 
L 165.236446 69.64054 
L 171.648732 69.64054 
L 171.766931 67.965826 
L 173.569463 67.965826 
L 173.705391 67.128469 
L 176.098917 67.128469 
L 176.187566 66.291112 
L 183.634092 66.291112 
L 183.681371 65.453756 
L 185.129307 65.453756 
L 185.383434 62.941685 
L 185.531183 62.941685 
L 185.619832 62.104328 
L 188.8112 62.104328 
L 188.958949 61.266971 
L 190.525083 61.266971 
L 190.631462 60.429615 
L 193.024988 60.429615 
L 193.202286 59.592258 
L 193.763731 59.592258 
L 193.83465 58.754901 
L 195.341685 58.754901 
L 195.483523 57.080187 
L 202.368605 57.080187 
L 202.545903 56.521949 
L 209.549183 56.521949 
L 209.696931 55.684593 
L 212.238206 55.684593 
L 212.326855 55.405474 
L 223.053398 55.405474 
L 223.124317 54.568117 
L 235.233786 54.568117 
L 235.393355 53.73076 
L 238.171027 53.73076 
L 238.330595 52.893403 
L 240.133127 52.893403 
L 240.180407 52.335165 
L 260.693812 52.335165 
L 260.81201 51.218689 
L 270.83527 51.218689 
L 270.941649 50.381333 
L 315.467144 50.381333 
L 315.538063 49.543976 
L 316.188157 49.543976 
L 316.235436 48.985738 
L 342.688332 48.985738 
L 342.747431 48.4275 
L 400.90125 48.4275 
L 400.90125 48.4275 
" style="fill:none;stroke:#ff7f0e;stroke-linecap:square;stroke-width:1.5;"/>
   </g>
   <g id="line2d_15">
    <path clip-path="url(#p316980f414)" d="M 43.78125 301.8675 
L 43.869901 301.8675 
L 43.958551 301.308647 
L 44.579105 301.308647 
L 44.756406 299.35266 
L 45.022358 299.35266 
L 45.111009 296.558393 
L 45.28831 296.558393 
L 49.366237 272.807125 
L 49.543538 271.409992 
L 51.641602 264.424325 
L 51.878003 264.424325 
L 52.002114 263.306618 
L 52.593118 259.674071 
L 52.770419 257.438658 
L 52.859069 256.600378 
L 53.302322 254.923818 
L 53.467803 253.247257 
L 53.645105 252.129551 
L 54.088358 252.129551 
L 54.49615 247.93815 
L 54.673451 247.93815 
L 54.732552 247.379297 
L 54.909853 247.379297 
L 55.116704 246.26159 
L 55.471307 246.26159 
L 55.559957 245.702737 
L 56.623764 241.790764 
L 56.801065 241.790764 
L 57.067017 240.952483 
L 57.598921 238.71707 
L 59.194631 234.246243 
L 59.247821 232.569683 
L 59.425123 232.569683 
L 59.838825 229.49599 
L 60.370729 228.378283 
L 60.54803 228.378283 
L 60.725331 226.701723 
L 60.902632 226.142869 
L 60.985373 224.466309 
L 61.133124 224.466309 
L 61.399075 223.069176 
L 62.13783 223.069176 
L 63.112987 221.392616 
L 63.467589 218.318922 
L 63.64489 218.318922 
L 63.698081 216.642362 
L 64.407285 216.642362 
L 64.702787 214.406949 
L 64.939189 214.406949 
L 65.027839 213.848095 
L 65.530193 213.848095 
L 65.677943 213.289242 
L 66.002996 212.730389 
L 66.517169 208.538988 
L 66.753571 207.141855 
L 67.108173 203.509308 
L 67.462775 203.509308 
L 67.728727 199.597335 
L 67.994679 199.597335 
L 68.615233 196.523641 
L 68.881184 196.523641 
L 68.969835 195.685361 
L 69.235787 195.685361 
L 69.531289 192.052814 
L 69.79724 192.052814 
L 69.885891 191.214534 
L 70.151843 191.214534 
L 70.299594 190.096827 
L 70.388244 190.096827 
L 70.535995 188.140841 
L 71.333851 188.140841 
L 71.422501 187.581987 
L 71.836204 187.581987 
L 72.013505 186.743707 
L 72.988661 186.743707 
L 73.047762 185.626001 
L 73.225063 185.626001 
L 73.455554 181.993454 
L 73.810157 181.993454 
L 73.886987 180.316894 
L 74.30069 180.316894 
L 75.009895 178.91976 
L 75.128095 178.91976 
L 75.187196 177.802053 
L 75.689549 177.802053 
L 75.8373 176.40492 
L 76.191902 176.40492 
L 76.428304 173.89008 
L 77.226159 173.89008 
L 77.31481 172.772373 
L 77.669412 172.772373 
L 78.006284 169.419253 
L 78.774589 169.419253 
L 78.86324 168.8604 
L 79.040541 168.8604 
L 79.619725 164.110146 
L 80.299379 164.110146 
L 80.41758 163.551293 
L 80.535781 161.874733 
L 80.624431 161.874733 
L 80.961304 159.639319 
L 81.197705 159.639319 
L 81.268626 158.801039 
L 81.593678 158.801039 
L 81.753249 157.962759 
L 82.255602 157.962759 
L 82.610204 155.447919 
L 83.053457 155.447919 
L 83.124378 154.889066 
L 83.360779 154.889066 
L 83.538081 153.491932 
L 83.715382 153.491932 
L 83.892683 152.094799 
L 84.247285 152.094799 
L 84.406856 151.256519 
L 84.554607 151.256519 
L 84.702358 150.418239 
L 84.791009 150.418239 
L 84.850109 149.859385 
L 85.116061 149.859385 
L 85.186981 149.021105 
L 85.364282 149.021105 
L 85.630234 147.344545 
L 86.250788 147.344545 
L 86.386719 146.226838 
L 86.56402 145.388558 
L 87.480076 145.388558 
L 87.657377 144.550278 
L 88.366582 144.550278 
L 88.490693 143.432572 
L 88.727095 141.476585 
L 89.258998 141.476585 
L 89.353559 140.358878 
L 89.944562 140.358878 
L 90.121864 138.682318 
L 90.476466 138.682318 
L 90.565117 137.005758 
L 91.983526 137.005758 
L 92.018986 135.888051 
L 92.491789 135.888051 
L 92.63954 135.049771 
L 92.905492 135.049771 
L 93.141893 134.211491 
L 94.294351 134.211491 
L 94.383002 133.373211 
L 94.648953 133.373211 
L 94.708054 133.093784 
L 94.944455 133.093784 
L 95.033106 132.255504 
L 95.299058 132.255504 
L 95.369978 131.417224 
L 95.547279 131.417224 
L 95.70685 129.740664 
L 96.238754 129.740664 
L 96.504705 125.549264 
L 97.509412 125.549264 
L 97.728083 124.152131 
L 97.816734 124.152131 
L 97.905385 123.313851 
L 98.437288 123.313851 
L 98.65596 122.196144 
L 98.921911 122.196144 
L 99.051932 121.637291 
L 99.967988 121.637291 
L 100.056639 120.79901 
L 100.558992 120.79901 
L 100.647643 119.96073 
L 101.002245 119.96073 
L 101.049525 119.401877 
L 102.172433 119.401877 
L 102.320184 118.843024 
L 103.206689 118.843024 
L 103.29534 117.166464 
L 104.388697 117.166464 
L 104.435977 116.60761 
L 105.795286 116.60761 
L 105.943037 115.76933 
L 106.32719 115.76933 
L 106.41584 114.93105 
L 106.593142 114.93105 
L 106.752713 114.372197 
L 107.84607 114.372197 
L 108.153392 111.857357 
L 108.389793 111.857357 
L 108.584825 110.73965 
L 109.116728 110.73965 
L 109.264479 109.621943 
L 110.623788 109.621943 
L 110.753809 108.783663 
L 111.463013 108.783663 
L 111.522114 108.22481 
L 113.058724 108.22481 
L 113.129644 107.665956 
L 114.459403 107.665956 
L 114.530324 107.107103 
L 116.273785 107.107103 
L 116.451086 106.268823 
L 116.687488 106.268823 
L 116.758408 105.430543 
L 117.822215 105.430543 
L 117.969966 104.87169 
L 118.088167 104.312836 
L 118.679171 104.312836 
L 118.738271 104.03341 
L 119.506576 104.03341 
L 119.748888 101.239143 
L 119.837538 101.239143 
L 120.10349 97.886023 
L 120.174411 97.047743 
L 120.824515 97.047743 
L 120.913165 96.209463 
L 121.474619 96.209463 
L 121.527809 95.091756 
L 127.171896 95.091756 
L 127.349198 94.253476 
L 127.910651 94.253476 
L 127.999302 93.415196 
L 128.235703 93.415196 
L 128.353904 92.856342 
L 128.649406 92.856342 
L 128.779427 92.018062 
L 129.015828 92.018062 
L 129.104479 91.179782 
L 129.725033 91.179782 
L 130.061905 90.620929 
L 133.016925 90.620929 
L 133.194226 89.782649 
L 134.405784 89.782649 
L 134.494434 88.944369 
L 134.967237 88.944369 
L 135.055888 88.106089 
L 135.233189 88.106089 
L 135.29229 87.826662 
L 136.710699 87.826662 
L 136.8289 87.547235 
L 138.838313 87.547235 
L 138.897413 86.988382 
L 142.97534 86.988382 
L 143.093541 86.708955 
L 143.802745 86.708955 
L 143.962316 86.150102 
L 144.021417 86.150102 
L 144.110067 84.473542 
L 144.46467 84.473542 
L 144.55332 83.635262 
L 145.262525 83.635262 
L 145.333445 83.076408 
L 146.722305 83.076408 
L 146.840505 82.517555 
L 148.909019 82.517555 
L 149.04495 81.958702 
L 150.67021 81.958702 
L 150.800231 81.120422 
L 150.977532 81.120422 
L 151.125283 79.443862 
L 157.744527 79.443862 
L 157.815447 78.605582 
L 170.52203 78.605582 
L 170.610681 77.767302 
L 170.876633 77.767302 
L 170.935733 77.487875 
L 177.554977 77.487875 
L 177.791378 76.649595 
L 177.880029 76.649595 
L 177.950949 76.090741 
L 179.103407 76.090741 
L 179.351628 74.414181 
L 179.794881 74.414181 
L 179.954452 73.575901 
L 180.131753 71.899341 
L 180.604557 71.899341 
L 180.693207 71.619915 
L 181.757014 71.619915 
L 181.845665 69.943354 
L 182.259367 69.943354 
L 182.318468 69.384501 
L 183.293624 69.384501 
L 183.352725 68.825648 
L 184.475632 68.825648 
L 184.522912 68.266794 
L 184.700213 68.266794 
L 184.771134 67.428514 
L 185.77584 67.428514 
L 185.846761 66.590234 
L 186.940118 66.590234 
L 187.18834 66.031381 
L 187.838444 66.031381 
L 187.915274 65.193101 
L 197.134935 65.193101 
L 197.223585 64.354821 
L 198.760195 64.354821 
L 198.819296 63.795967 
L 199.262549 63.795967 
L 199.351199 62.119407 
L 203.783728 62.119407 
L 203.913749 61.281127 
L 210.621643 61.281127 
L 210.781214 60.722274 
L 218.966618 60.722274 
L 219.114369 60.442847 
L 225.674512 60.442847 
L 225.822263 60.163421 
L 234.716871 60.163421 
L 235.112844 59.604567 
L 237.270008 59.604567 
L 237.435489 59.045714 
L 238.647047 59.045714 
L 238.717967 58.207434 
L 238.895268 58.207434 
L 238.954369 57.928007 
L 273.758587 57.928007 
L 273.935888 57.089727 
L 284.455757 57.089727 
L 284.585778 56.251447 
L 288.929656 56.251447 
L 288.982847 55.692594 
L 290.99226 55.692594 
L 291.122281 54.854314 
L 307.457628 54.854314 
L 307.593559 54.29546 
L 312.894863 54.29546 
L 313.119445 53.736607 
L 331.145063 53.736607 
L 331.292814 52.898327 
L 334.425134 52.898327 
L 334.543335 52.339474 
L 337.646106 52.339474 
L 337.876597 50.94234 
L 372.468054 50.94234 
L 372.521244 49.26578 
L 391.078766 49.26578 
L 391.149686 48.4275 
L 400.90125 48.4275 
L 400.90125 48.4275 
" style="fill:none;stroke:#2ca02c;stroke-linecap:square;stroke-width:1.5;"/>
   </g>
   <g id="line2d_16">
    <path clip-path="url(#p316980f414)" d="M 43.78125 301.8675 
L 400.90125 48.4275 
" style="fill:none;stroke:#000000;stroke-dasharray:5.6,2.4;stroke-dashoffset:0;stroke-width:1.5;"/>
   </g>
   <g id="patch_3">
    <path d="M 43.78125 301.8675 
L 43.78125 35.7555 
" style="fill:none;stroke:#000000;stroke-linecap:square;stroke-linejoin:miter;stroke-width:0.8;"/>
   </g>
   <g id="patch_4">
    <path d="M 400.90125 301.8675 
L 400.90125 35.7555 
" style="fill:none;stroke:#000000;stroke-linecap:square;stroke-linejoin:miter;stroke-width:0.8;"/>
   </g>
   <g id="patch_5">
    <path d="M 43.78125 301.8675 
L 400.90125 301.8675 
" style="fill:none;stroke:#000000;stroke-linecap:square;stroke-linejoin:miter;stroke-width:0.8;"/>
   </g>
   <g id="patch_6">
    <path d="M 43.78125 35.7555 
L 400.90125 35.7555 
" style="fill:none;stroke:#000000;stroke-linecap:square;stroke-linejoin:miter;stroke-width:0.8;"/>
   </g>
   <g id="text_15">
    <!-- ROC Curve GradientBoosting + SMOTE -->
    <defs>
     <path d="M 39.40625 66.21875 
Q 28.65625 66.21875 22.328125 58.203125 
Q 16.015625 50.203125 16.015625 36.375 
Q 16.015625 22.609375 22.328125 14.59375 
Q 28.65625 6.59375 39.40625 6.59375 
Q 50.140625 6.59375 56.421875 14.59375 
Q 62.703125 22.609375 62.703125 36.375 
Q 62.703125 50.203125 56.421875 58.203125 
Q 50.140625 66.21875 39.40625 66.21875 
M 39.40625 74.21875 
Q 54.734375 74.21875 63.90625 63.9375 
Q 73.09375 53.65625 73.09375 36.375 
Q 73.09375 19.140625 63.90625 8.859375 
Q 54.734375 -1.421875 39.40625 -1.421875 
Q 24.03125 -1.421875 14.8125 8.828125 
Q 5.609375 19.09375 5.609375 36.375 
Q 5.609375 53.65625 14.8125 63.9375 
Q 24.03125 74.21875 39.40625 74.21875 
" id="DejaVuSans-4f"/>
     <path d="M 64.40625 67.28125 
L 64.40625 56.890625 
Q 59.421875 61.53125 53.78125 63.8125 
Q 48.140625 66.109375 41.796875 66.109375 
Q 29.296875 66.109375 22.65625 58.46875 
Q 16.015625 50.828125 16.015625 36.375 
Q 16.015625 21.96875 22.65625 14.328125 
Q 29.296875 6.6875 41.796875 6.6875 
Q 48.140625 6.6875 53.78125 8.984375 
Q 59.421875 11.28125 64.40625 15.921875 
L 64.40625 5.609375 
Q 59.234375 2.09375 53.4375 0.328125 
Q 47.65625 -1.421875 41.21875 -1.421875 
Q 24.65625 -1.421875 15.125 8.703125 
Q 5.609375 18.84375 5.609375 36.375 
Q 5.609375 53.953125 15.125 64.078125 
Q 24.65625 74.21875 41.21875 74.21875 
Q 47.75 74.21875 53.53125 72.484375 
Q 59.328125 70.75 64.40625 67.28125 
" id="DejaVuSans-43"/>
     <path d="M 59.515625 10.40625 
L 59.515625 29.984375 
L 43.40625 29.984375 
L 43.40625 38.09375 
L 69.28125 38.09375 
L 69.28125 6.78125 
Q 63.578125 2.734375 56.6875 0.65625 
Q 49.8125 -1.421875 42 -1.421875 
Q 24.90625 -1.421875 15.25 8.5625 
Q 5.609375 18.5625 5.609375 36.375 
Q 5.609375 54.25 15.25 64.234375 
Q 24.90625 74.21875 42 74.21875 
Q 49.125 74.21875 55.546875 72.453125 
Q 61.96875 70.703125 67.390625 67.28125 
L 67.390625 56.78125 
Q 61.921875 61.421875 55.765625 63.765625 
Q 49.609375 66.109375 42.828125 66.109375 
Q 29.4375 66.109375 22.71875 58.640625 
Q 16.015625 51.171875 16.015625 36.375 
Q 16.015625 21.625 22.71875 14.15625 
Q 29.4375 6.6875 42.828125 6.6875 
Q 48.046875 6.6875 52.140625 7.59375 
Q 56.25 8.5 59.515625 10.40625 
" id="DejaVuSans-47"/>
     <path d="M 45.40625 46.390625 
L 45.40625 75.984375 
L 54.390625 75.984375 
L 54.390625 0 
L 45.40625 0 
L 45.40625 8.203125 
Q 42.578125 3.328125 38.25 0.953125 
Q 33.9375 -1.421875 27.875 -1.421875 
Q 17.96875 -1.421875 11.734375 6.484375 
Q 5.515625 14.40625 5.515625 27.296875 
Q 5.515625 40.1875 11.734375 48.09375 
Q 17.96875 56 27.875 56 
Q 33.9375 56 38.25 53.625 
Q 42.578125 51.265625 45.40625 46.390625 
M 14.796875 27.296875 
Q 14.796875 17.390625 18.875 11.75 
Q 22.953125 6.109375 30.078125 6.109375 
Q 37.203125 6.109375 41.296875 11.75 
Q 45.40625 17.390625 45.40625 27.296875 
Q 45.40625 37.203125 41.296875 42.84375 
Q 37.203125 48.484375 30.078125 48.484375 
Q 22.953125 48.484375 18.875 42.84375 
Q 14.796875 37.203125 14.796875 27.296875 
" id="DejaVuSans-64"/>
     <path d="M 54.890625 33.015625 
L 54.890625 0 
L 45.90625 0 
L 45.90625 32.71875 
Q 45.90625 40.484375 42.875 44.328125 
Q 39.84375 48.1875 33.796875 48.1875 
Q 26.515625 48.1875 22.3125 43.546875 
Q 18.109375 38.921875 18.109375 30.90625 
L 18.109375 0 
L 9.078125 0 
L 9.078125 54.6875 
L 18.109375 54.6875 
L 18.109375 46.1875 
Q 21.34375 51.125 25.703125 53.5625 
Q 30.078125 56 35.796875 56 
Q 45.21875 56 50.046875 50.171875 
Q 54.890625 44.34375 54.890625 33.015625 
" id="DejaVuSans-6e"/>
     <path d="M 19.671875 34.8125 
L 19.671875 8.109375 
L 35.5 8.109375 
Q 43.453125 8.109375 47.28125 11.40625 
Q 51.125 14.703125 51.125 21.484375 
Q 51.125 28.328125 47.28125 31.5625 
Q 43.453125 34.8125 35.5 34.8125 
z
M 19.671875 64.796875 
L 19.671875 42.828125 
L 34.28125 42.828125 
Q 41.5 42.828125 45.03125 45.53125 
Q 48.578125 48.25 48.578125 53.8125 
Q 48.578125 59.328125 45.03125 62.0625 
Q 41.5 64.796875 34.28125 64.796875 
z
M 9.8125 72.90625 
L 35.015625 72.90625 
Q 46.296875 72.90625 52.390625 68.21875 
Q 58.5 63.53125 58.5 54.890625 
Q 58.5 48.1875 55.375 44.234375 
Q 52.25 40.28125 46.1875 39.3125 
Q 53.46875 37.75 57.5 32.78125 
Q 61.53125 27.828125 61.53125 20.40625 
Q 61.53125 10.640625 54.890625 5.3125 
Q 48.25 0 35.984375 0 
L 9.8125 0 
z
" id="DejaVuSans-42"/>
     <path d="M 45.40625 27.984375 
Q 45.40625 37.75 41.375 43.109375 
Q 37.359375 48.484375 30.078125 48.484375 
Q 22.859375 48.484375 18.828125 43.109375 
Q 14.796875 37.75 14.796875 27.984375 
Q 14.796875 18.265625 18.828125 12.890625 
Q 22.859375 7.515625 30.078125 7.515625 
Q 37.359375 7.515625 41.375 12.890625 
Q 45.40625 18.265625 45.40625 27.984375 
M 54.390625 6.78125 
Q 54.390625 -7.171875 48.1875 -13.984375 
Q 42 -20.796875 29.203125 -20.796875 
Q 24.46875 -20.796875 20.265625 -20.09375 
Q 16.0625 -19.390625 12.109375 -17.921875 
L 12.109375 -9.1875 
Q 16.0625 -11.328125 19.921875 -12.34375 
Q 23.78125 -13.375 27.78125 -13.375 
Q 36.625 -13.375 41.015625 -8.765625 
Q 45.40625 -4.15625 45.40625 5.171875 
L 45.40625 9.625 
Q 42.625 4.78125 38.28125 2.390625 
Q 33.9375 0 27.875 0 
Q 17.828125 0 11.671875 7.65625 
Q 5.515625 15.328125 5.515625 27.984375 
Q 5.515625 40.671875 11.671875 48.328125 
Q 17.828125 56 27.875 56 
Q 33.9375 56 38.28125 53.609375 
Q 42.625 51.21875 45.40625 46.390625 
L 45.40625 54.6875 
L 54.390625 54.6875 
z
" id="DejaVuSans-67"/>
     <path d="M 46 62.703125 
L 46 35.5 
L 73.1875 35.5 
L 73.1875 27.203125 
L 46 27.203125 
L 46 0 
L 37.796875 0 
L 37.796875 27.203125 
L 10.59375 27.203125 
L 10.59375 35.5 
L 37.796875 35.5 
L 37.796875 62.703125 
z
" id="DejaVuSans-2b"/>
     <path d="M 53.515625 70.515625 
L 53.515625 60.890625 
Q 47.90625 63.578125 42.921875 64.890625 
Q 37.9375 66.21875 33.296875 66.21875 
Q 25.25 66.21875 20.875 63.09375 
Q 16.5 59.96875 16.5 54.203125 
Q 16.5 49.359375 19.40625 46.890625 
Q 22.3125 44.4375 30.421875 42.921875 
L 36.375 41.703125 
Q 47.40625 39.59375 52.65625 34.296875 
Q 57.90625 29 57.90625 20.125 
Q 57.90625 9.515625 50.796875 4.046875 
Q 43.703125 -1.421875 29.984375 -1.421875 
Q 24.8125 -1.421875 18.96875 -0.25 
Q 13.140625 0.921875 6.890625 3.21875 
L 6.890625 13.375 
Q 12.890625 10.015625 18.65625 8.296875 
Q 24.421875 6.59375 29.984375 6.59375 
Q 38.421875 6.59375 43.015625 9.90625 
Q 47.609375 13.234375 47.609375 19.390625 
Q 47.609375 24.75 44.3125 27.78125 
Q 41.015625 30.8125 33.5 32.328125 
L 27.484375 33.5 
Q 16.453125 35.6875 11.515625 40.375 
Q 6.59375 45.0625 6.59375 53.421875 
Q 6.59375 63.09375 13.40625 68.65625 
Q 20.21875 74.21875 32.171875 74.21875 
Q 37.3125 74.21875 42.625 73.28125 
Q 47.953125 72.359375 53.515625 70.515625 
" id="DejaVuSans-53"/>
     <path d="M 9.8125 72.90625 
L 24.515625 72.90625 
L 43.109375 23.296875 
L 61.8125 72.90625 
L 76.515625 72.90625 
L 76.515625 0 
L 66.890625 0 
L 66.890625 64.015625 
L 48.09375 14.015625 
L 38.1875 14.015625 
L 19.390625 64.015625 
L 19.390625 0 
L 9.8125 0 
z
" id="DejaVuSans-4d"/>
     <path d="M 9.8125 72.90625 
L 55.90625 72.90625 
L 55.90625 64.59375 
L 19.671875 64.59375 
L 19.671875 43.015625 
L 54.390625 43.015625 
L 54.390625 34.71875 
L 19.671875 34.71875 
L 19.671875 8.296875 
L 56.78125 8.296875 
L 56.78125 0 
L 9.8125 0 
z
" id="DejaVuSans-45"/>
    </defs>
    <g transform="translate(105.406875 16.318125)scale(0.12 -0.12)">
     <use xlink:href="#DejaVuSans-52"/>
     <use x="69.482422" xlink:href="#DejaVuSans-4f"/>
     <use x="148.193359" xlink:href="#DejaVuSans-43"/>
     <use x="218.017578" xlink:href="#DejaVuSans-20"/>
     <use x="249.804688" xlink:href="#DejaVuSans-43"/>
     <use x="319.628906" xlink:href="#DejaVuSans-75"/>
     <use x="383.007812" xlink:href="#DejaVuSans-72"/>
     <use x="424.121094" xlink:href="#DejaVuSans-76"/>
     <use x="483.300781" xlink:href="#DejaVuSans-65"/>
     <use x="544.824219" xlink:href="#DejaVuSans-20"/>
     <use x="576.611328" xlink:href="#DejaVuSans-47"/>
     <use x="654.101562" xlink:href="#DejaVuSans-72"/>
     <use x="695.214844" xlink:href="#DejaVuSans-61"/>
     <use x="756.494141" xlink:href="#DejaVuSans-64"/>
     <use x="819.970703" xlink:href="#DejaVuSans-69"/>
     <use x="847.753906" xlink:href="#DejaVuSans-65"/>
     <use x="909.277344" xlink:href="#DejaVuSans-6e"/>
     <use x="972.65625" xlink:href="#DejaVuSans-74"/>
     <use x="1011.865234" xlink:href="#DejaVuSans-42"/>
     <use x="1080.46875" xlink:href="#DejaVuSans-6f"/>
     <use x="1141.650391" xlink:href="#DejaVuSans-6f"/>
     <use x="1202.832031" xlink:href="#DejaVuSans-73"/>
     <use x="1254.931641" xlink:href="#DejaVuSans-74"/>
     <use x="1294.140625" xlink:href="#DejaVuSans-69"/>
     <use x="1321.923828" xlink:href="#DejaVuSans-6e"/>
     <use x="1385.302734" xlink:href="#DejaVuSans-67"/>
     <use x="1448.779297" xlink:href="#DejaVuSans-20"/>
     <use x="1480.566406" xlink:href="#DejaVuSans-2b"/>
     <use x="1564.355469" xlink:href="#DejaVuSans-20"/>
     <use x="1596.142578" xlink:href="#DejaVuSans-53"/>
     <use x="1659.619141" xlink:href="#DejaVuSans-4d"/>
     <use x="1745.898438" xlink:href="#DejaVuSans-4f"/>
     <use x="1824.609375" xlink:href="#DejaVuSans-54"/>
     <use x="1885.693359" xlink:href="#DejaVuSans-45"/>
    </g>
    <!-- Train: 28   Test: [1, 4, 8, 12, 16, 20, 24, 28] -->
    <defs>
     <path d="M 11.71875 12.40625 
L 22.015625 12.40625 
L 22.015625 0 
L 11.71875 0 
z
M 11.71875 51.703125 
L 22.015625 51.703125 
L 22.015625 39.3125 
L 11.71875 39.3125 
z
" id="DejaVuSans-3a"/>
     <path d="M 8.59375 75.984375 
L 29.296875 75.984375 
L 29.296875 69 
L 17.578125 69 
L 17.578125 -6.203125 
L 29.296875 -6.203125 
L 29.296875 -13.1875 
L 8.59375 -13.1875 
z
" id="DejaVuSans-5b"/>
     <path d="M 11.71875 12.40625 
L 22.015625 12.40625 
L 22.015625 4 
L 14.015625 -11.625 
L 7.71875 -11.625 
L 11.71875 4 
z
" id="DejaVuSans-2c"/>
     <path d="M 30.421875 75.984375 
L 30.421875 -13.1875 
L 9.71875 -13.1875 
L 9.71875 -6.203125 
L 21.390625 -6.203125 
L 21.390625 69 
L 9.71875 69 
L 9.71875 75.984375 
z
" id="DejaVuSans-5d"/>
    </defs>
    <g transform="translate(92.040938 29.7555)scale(0.12 -0.12)">
     <use xlink:href="#DejaVuSans-54"/>
     <use x="60.865234" xlink:href="#DejaVuSans-72"/>
     <use x="101.978516" xlink:href="#DejaVuSans-61"/>
     <use x="163.257812" xlink:href="#DejaVuSans-69"/>
     <use x="191.041016" xlink:href="#DejaVuSans-6e"/>
     <use x="254.419922" xlink:href="#DejaVuSans-3a"/>
     <use x="288.111328" xlink:href="#DejaVuSans-20"/>
     <use x="319.898438" xlink:href="#DejaVuSans-32"/>
     <use x="383.521484" xlink:href="#DejaVuSans-38"/>
     <use x="447.144531" xlink:href="#DejaVuSans-20"/>
     <use x="478.931641" xlink:href="#DejaVuSans-20"/>
     <use x="510.71875" xlink:href="#DejaVuSans-20"/>
     <use x="542.505859" xlink:href="#DejaVuSans-54"/>
     <use x="603.324219" xlink:href="#DejaVuSans-65"/>
     <use x="664.847656" xlink:href="#DejaVuSans-73"/>
     <use x="716.947266" xlink:href="#DejaVuSans-74"/>
     <use x="756.15625" xlink:href="#DejaVuSans-3a"/>
     <use x="789.847656" xlink:href="#DejaVuSans-20"/>
     <use x="821.634766" xlink:href="#DejaVuSans-5b"/>
     <use x="860.648438" xlink:href="#DejaVuSans-31"/>
     <use x="924.271484" xlink:href="#DejaVuSans-2c"/>
     <use x="956.058594" xlink:href="#DejaVuSans-20"/>
     <use x="987.845703" xlink:href="#DejaVuSans-34"/>
     <use x="1051.46875" xlink:href="#DejaVuSans-2c"/>
     <use x="1083.255859" xlink:href="#DejaVuSans-20"/>
     <use x="1115.042969" xlink:href="#DejaVuSans-38"/>
     <use x="1178.666016" xlink:href="#DejaVuSans-2c"/>
     <use x="1210.453125" xlink:href="#DejaVuSans-20"/>
     <use x="1242.240234" xlink:href="#DejaVuSans-31"/>
     <use x="1305.863281" xlink:href="#DejaVuSans-32"/>
     <use x="1369.486328" xlink:href="#DejaVuSans-2c"/>
     <use x="1401.273438" xlink:href="#DejaVuSans-20"/>
     <use x="1433.060547" xlink:href="#DejaVuSans-31"/>
     <use x="1496.683594" xlink:href="#DejaVuSans-36"/>
     <use x="1560.306641" xlink:href="#DejaVuSans-2c"/>
     <use x="1592.09375" xlink:href="#DejaVuSans-20"/>
     <use x="1623.880859" xlink:href="#DejaVuSans-32"/>
     <use x="1687.503906" xlink:href="#DejaVuSans-30"/>
     <use x="1751.126953" xlink:href="#DejaVuSans-2c"/>
     <use x="1782.914062" xlink:href="#DejaVuSans-20"/>
     <use x="1814.701172" xlink:href="#DejaVuSans-32"/>
     <use x="1878.324219" xlink:href="#DejaVuSans-34"/>
     <use x="1941.947266" xlink:href="#DejaVuSans-2c"/>
     <use x="1973.734375" xlink:href="#DejaVuSans-20"/>
     <use x="2005.521484" xlink:href="#DejaVuSans-32"/>
     <use x="2069.144531" xlink:href="#DejaVuSans-38"/>
     <use x="2132.767578" xlink:href="#DejaVuSans-5d"/>
    </g>
   </g>
   <g id="legend_1">
    <g id="patch_7">
     <path d="M 217.087188 296.8675 
L 393.90125 296.8675 
Q 395.90125 296.8675 395.90125 294.8675 
L 395.90125 251.833125 
Q 395.90125 249.833125 393.90125 249.833125 
L 217.087188 249.833125 
Q 215.087188 249.833125 215.087188 251.833125 
L 215.087188 294.8675 
Q 215.087188 296.8675 217.087188 296.8675 
z
" style="fill:#ffffff;opacity:0.8;stroke:#cccccc;stroke-linejoin:miter;"/>
    </g>
    <g id="line2d_17">
     <path d="M 219.087188 257.931562 
L 239.087188 257.931562 
" style="fill:none;stroke:#1f77b4;stroke-linecap:square;stroke-width:1.5;"/>
    </g>
    <g id="line2d_18"/>
    <g id="text_16">
     <!-- ROC curve - 0 (AUC = 0.853) -->
     <defs>
      <path d="M 48.78125 52.59375 
L 48.78125 44.1875 
Q 44.96875 46.296875 41.140625 47.34375 
Q 37.3125 48.390625 33.40625 48.390625 
Q 24.65625 48.390625 19.8125 42.84375 
Q 14.984375 37.3125 14.984375 27.296875 
Q 14.984375 17.28125 19.8125 11.734375 
Q 24.65625 6.203125 33.40625 6.203125 
Q 37.3125 6.203125 41.140625 7.25 
Q 44.96875 8.296875 48.78125 10.40625 
L 48.78125 2.09375 
Q 45.015625 0.34375 40.984375 -0.53125 
Q 36.96875 -1.421875 32.421875 -1.421875 
Q 20.0625 -1.421875 12.78125 6.34375 
Q 5.515625 14.109375 5.515625 27.296875 
Q 5.515625 40.671875 12.859375 48.328125 
Q 20.21875 56 33.015625 56 
Q 37.15625 56 41.109375 55.140625 
Q 45.0625 54.296875 48.78125 52.59375 
" id="DejaVuSans-63"/>
      <path d="M 4.890625 31.390625 
L 31.203125 31.390625 
L 31.203125 23.390625 
L 4.890625 23.390625 
z
" id="DejaVuSans-2d"/>
      <path d="M 31 75.875 
Q 24.46875 64.65625 21.28125 53.65625 
Q 18.109375 42.671875 18.109375 31.390625 
Q 18.109375 20.125 21.3125 9.0625 
Q 24.515625 -2 31 -13.1875 
L 23.1875 -13.1875 
Q 15.875 -1.703125 12.234375 9.375 
Q 8.59375 20.453125 8.59375 31.390625 
Q 8.59375 42.28125 12.203125 53.3125 
Q 15.828125 64.359375 23.1875 75.875 
z
" id="DejaVuSans-28"/>
      <path d="M 34.1875 63.1875 
L 20.796875 26.90625 
L 47.609375 26.90625 
z
M 28.609375 72.90625 
L 39.796875 72.90625 
L 67.578125 0 
L 57.328125 0 
L 50.6875 18.703125 
L 17.828125 18.703125 
L 11.1875 0 
L 0.78125 0 
z
" id="DejaVuSans-41"/>
      <path d="M 8.6875 72.90625 
L 18.609375 72.90625 
L 18.609375 28.609375 
Q 18.609375 16.890625 22.84375 11.734375 
Q 27.09375 6.59375 36.625 6.59375 
Q 46.09375 6.59375 50.34375 11.734375 
Q 54.59375 16.890625 54.59375 28.609375 
L 54.59375 72.90625 
L 64.5 72.90625 
L 64.5 27.390625 
Q 64.5 13.140625 57.4375 5.859375 
Q 50.390625 -1.421875 36.625 -1.421875 
Q 22.796875 -1.421875 15.734375 5.859375 
Q 8.6875 13.140625 8.6875 27.390625 
z
" id="DejaVuSans-55"/>
      <path d="M 10.59375 45.40625 
L 73.1875 45.40625 
L 73.1875 37.203125 
L 10.59375 37.203125 
z
M 10.59375 25.484375 
L 73.1875 25.484375 
L 73.1875 17.1875 
L 10.59375 17.1875 
z
" id="DejaVuSans-3d"/>
      <path d="M 10.796875 72.90625 
L 49.515625 72.90625 
L 49.515625 64.59375 
L 19.828125 64.59375 
L 19.828125 46.734375 
Q 21.96875 47.46875 24.109375 47.828125 
Q 26.265625 48.1875 28.421875 48.1875 
Q 40.625 48.1875 47.75 41.5 
Q 54.890625 34.8125 54.890625 23.390625 
Q 54.890625 11.625 47.5625 5.09375 
Q 40.234375 -1.421875 26.90625 -1.421875 
Q 22.3125 -1.421875 17.546875 -0.640625 
Q 12.796875 0.140625 7.71875 1.703125 
L 7.71875 11.625 
Q 12.109375 9.234375 16.796875 8.0625 
Q 21.484375 6.890625 26.703125 6.890625 
Q 35.15625 6.890625 40.078125 11.328125 
Q 45.015625 15.765625 45.015625 23.390625 
Q 45.015625 31 40.078125 35.4375 
Q 35.15625 39.890625 26.703125 39.890625 
Q 22.75 39.890625 18.8125 39.015625 
Q 14.890625 38.140625 10.796875 36.28125 
z
" id="DejaVuSans-35"/>
      <path d="M 40.578125 39.3125 
Q 47.65625 37.796875 51.625 33 
Q 55.609375 28.21875 55.609375 21.1875 
Q 55.609375 10.40625 48.1875 4.484375 
Q 40.765625 -1.421875 27.09375 -1.421875 
Q 22.515625 -1.421875 17.65625 -0.515625 
Q 12.796875 0.390625 7.625 2.203125 
L 7.625 11.71875 
Q 11.71875 9.328125 16.59375 8.109375 
Q 21.484375 6.890625 26.8125 6.890625 
Q 36.078125 6.890625 40.9375 10.546875 
Q 45.796875 14.203125 45.796875 21.1875 
Q 45.796875 27.640625 41.28125 31.265625 
Q 36.765625 34.90625 28.71875 34.90625 
L 20.21875 34.90625 
L 20.21875 43.015625 
L 29.109375 43.015625 
Q 36.375 43.015625 40.234375 45.921875 
Q 44.09375 48.828125 44.09375 54.296875 
Q 44.09375 59.90625 40.109375 62.90625 
Q 36.140625 65.921875 28.71875 65.921875 
Q 24.65625 65.921875 20.015625 65.03125 
Q 15.375 64.15625 9.8125 62.3125 
L 9.8125 71.09375 
Q 15.4375 72.65625 20.34375 73.4375 
Q 25.25 74.21875 29.59375 74.21875 
Q 40.828125 74.21875 47.359375 69.109375 
Q 53.90625 64.015625 53.90625 55.328125 
Q 53.90625 49.265625 50.4375 45.09375 
Q 46.96875 40.921875 40.578125 39.3125 
" id="DejaVuSans-33"/>
      <path d="M 8.015625 75.875 
L 15.828125 75.875 
Q 23.140625 64.359375 26.78125 53.3125 
Q 30.421875 42.28125 30.421875 31.390625 
Q 30.421875 20.453125 26.78125 9.375 
Q 23.140625 -1.703125 15.828125 -13.1875 
L 8.015625 -13.1875 
Q 14.5 -2 17.703125 9.0625 
Q 20.90625 20.125 20.90625 31.390625 
Q 20.90625 42.671875 17.703125 53.65625 
Q 14.5 64.65625 8.015625 75.875 
" id="DejaVuSans-29"/>
     </defs>
     <g transform="translate(247.087188 261.431562)scale(0.1 -0.1)">
      <use xlink:href="#DejaVuSans-52"/>
      <use x="69.482422" xlink:href="#DejaVuSans-4f"/>
      <use x="148.193359" xlink:href="#DejaVuSans-43"/>
      <use x="218.017578" xlink:href="#DejaVuSans-20"/>
      <use x="249.804688" xlink:href="#DejaVuSans-63"/>
      <use x="304.785156" xlink:href="#DejaVuSans-75"/>
      <use x="368.164062" xlink:href="#DejaVuSans-72"/>
      <use x="409.277344" xlink:href="#DejaVuSans-76"/>
      <use x="468.457031" xlink:href="#DejaVuSans-65"/>
      <use x="529.980469" xlink:href="#DejaVuSans-20"/>
      <use x="561.767578" xlink:href="#DejaVuSans-2d"/>
      <use x="597.851562" xlink:href="#DejaVuSans-20"/>
      <use x="629.638672" xlink:href="#DejaVuSans-30"/>
      <use x="693.261719" xlink:href="#DejaVuSans-20"/>
      <use x="725.048828" xlink:href="#DejaVuSans-28"/>
      <use x="764.0625" xlink:href="#DejaVuSans-41"/>
      <use x="832.470703" xlink:href="#DejaVuSans-55"/>
      <use x="905.664062" xlink:href="#DejaVuSans-43"/>
      <use x="975.488281" xlink:href="#DejaVuSans-20"/>
      <use x="1007.275391" xlink:href="#DejaVuSans-3d"/>
      <use x="1091.064453" xlink:href="#DejaVuSans-20"/>
      <use x="1122.851562" xlink:href="#DejaVuSans-30"/>
      <use x="1186.474609" xlink:href="#DejaVuSans-2e"/>
      <use x="1218.261719" xlink:href="#DejaVuSans-38"/>
      <use x="1281.884766" xlink:href="#DejaVuSans-35"/>
      <use x="1345.507812" xlink:href="#DejaVuSans-33"/>
      <use x="1409.130859" xlink:href="#DejaVuSans-29"/>
     </g>
    </g>
    <g id="line2d_19">
     <path d="M 219.087188 272.609687 
L 239.087188 272.609687 
" style="fill:none;stroke:#ff7f0e;stroke-linecap:square;stroke-width:1.5;"/>
    </g>
    <g id="line2d_20"/>
    <g id="text_17">
     <!-- ROC curve - 1 (AUC = 0.881) -->
     <g transform="translate(247.087188 276.109687)scale(0.1 -0.1)">
      <use xlink:href="#DejaVuSans-52"/>
      <use x="69.482422" xlink:href="#DejaVuSans-4f"/>
      <use x="148.193359" xlink:href="#DejaVuSans-43"/>
      <use x="218.017578" xlink:href="#DejaVuSans-20"/>
      <use x="249.804688" xlink:href="#DejaVuSans-63"/>
      <use x="304.785156" xlink:href="#DejaVuSans-75"/>
      <use x="368.164062" xlink:href="#DejaVuSans-72"/>
      <use x="409.277344" xlink:href="#DejaVuSans-76"/>
      <use x="468.457031" xlink:href="#DejaVuSans-65"/>
      <use x="529.980469" xlink:href="#DejaVuSans-20"/>
      <use x="561.767578" xlink:href="#DejaVuSans-2d"/>
      <use x="597.851562" xlink:href="#DejaVuSans-20"/>
      <use x="629.638672" xlink:href="#DejaVuSans-31"/>
      <use x="693.261719" xlink:href="#DejaVuSans-20"/>
      <use x="725.048828" xlink:href="#DejaVuSans-28"/>
      <use x="764.0625" xlink:href="#DejaVuSans-41"/>
      <use x="832.470703" xlink:href="#DejaVuSans-55"/>
      <use x="905.664062" xlink:href="#DejaVuSans-43"/>
      <use x="975.488281" xlink:href="#DejaVuSans-20"/>
      <use x="1007.275391" xlink:href="#DejaVuSans-3d"/>
      <use x="1091.064453" xlink:href="#DejaVuSans-20"/>
      <use x="1122.851562" xlink:href="#DejaVuSans-30"/>
      <use x="1186.474609" xlink:href="#DejaVuSans-2e"/>
      <use x="1218.261719" xlink:href="#DejaVuSans-38"/>
      <use x="1281.884766" xlink:href="#DejaVuSans-38"/>
      <use x="1345.507812" xlink:href="#DejaVuSans-31"/>
      <use x="1409.130859" xlink:href="#DejaVuSans-29"/>
     </g>
    </g>
    <g id="line2d_21">
     <path d="M 219.087188 287.287812 
L 239.087188 287.287812 
" style="fill:none;stroke:#2ca02c;stroke-linecap:square;stroke-width:1.5;"/>
    </g>
    <g id="line2d_22"/>
    <g id="text_18">
     <!-- ROC curve - 2 (AUC = 0.853) -->
     <g transform="translate(247.087188 290.787812)scale(0.1 -0.1)">
      <use xlink:href="#DejaVuSans-52"/>
      <use x="69.482422" xlink:href="#DejaVuSans-4f"/>
      <use x="148.193359" xlink:href="#DejaVuSans-43"/>
      <use x="218.017578" xlink:href="#DejaVuSans-20"/>
      <use x="249.804688" xlink:href="#DejaVuSans-63"/>
      <use x="304.785156" xlink:href="#DejaVuSans-75"/>
      <use x="368.164062" xlink:href="#DejaVuSans-72"/>
      <use x="409.277344" xlink:href="#DejaVuSans-76"/>
      <use x="468.457031" xlink:href="#DejaVuSans-65"/>
      <use x="529.980469" xlink:href="#DejaVuSans-20"/>
      <use x="561.767578" xlink:href="#DejaVuSans-2d"/>
      <use x="597.851562" xlink:href="#DejaVuSans-20"/>
      <use x="629.638672" xlink:href="#DejaVuSans-32"/>
      <use x="693.261719" xlink:href="#DejaVuSans-20"/>
      <use x="725.048828" xlink:href="#DejaVuSans-28"/>
      <use x="764.0625" xlink:href="#DejaVuSans-41"/>
      <use x="832.470703" xlink:href="#DejaVuSans-55"/>
      <use x="905.664062" xlink:href="#DejaVuSans-43"/>
      <use x="975.488281" xlink:href="#DejaVuSans-20"/>
      <use x="1007.275391" xlink:href="#DejaVuSans-3d"/>
      <use x="1091.064453" xlink:href="#DejaVuSans-20"/>
      <use x="1122.851562" xlink:href="#DejaVuSans-30"/>
      <use x="1186.474609" xlink:href="#DejaVuSans-2e"/>
      <use x="1218.261719" xlink:href="#DejaVuSans-38"/>
      <use x="1281.884766" xlink:href="#DejaVuSans-35"/>
      <use x="1345.507812" xlink:href="#DejaVuSans-33"/>
      <use x="1409.130859" xlink:href="#DejaVuSans-29"/>
     </g>
    </g>
   </g>
  </g>
 </g>
 <defs>
  <clipPath id="p316980f414">
   <rect height="266.112" width="357.12" x="43.78125" y="35.7555"/>
  </clipPath>
 </defs>
</svg>
