<?xml version="1.0" encoding="utf-8" standalone="no"?>
<!DOCTYPE svg PUBLIC "-//W3C//DTD SVG 1.1//EN"
  "http://www.w3.org/Graphics/SVG/1.1/DTD/svg11.dtd">
<!-- Created with matplotlib (http://matplotlib.org/) -->
<svg height="339pt" version="1.1" viewBox="0 0 416 339" width="416pt" xmlns="http://www.w3.org/2000/svg" xmlns:xlink="http://www.w3.org/1999/xlink">
 <defs>
  <style type="text/css">
*{stroke-linecap:butt;stroke-linejoin:round;}
  </style>
 </defs>
 <g id="figure_1">
  <g id="patch_1">
   <path d="M 0 339.42375 
L 416.052813 339.42375 
L 416.052813 0 
L 0 0 
z
" style="fill:#ffffff;"/>
  </g>
  <g id="axes_1">
   <g id="patch_2">
    <path d="M 43.78125 301.8675 
L 400.90125 301.8675 
L 400.90125 35.7555 
L 43.78125 35.7555 
z
" style="fill:#ffffff;"/>
   </g>
   <g id="matplotlib.axis_1">
    <g id="xtick_1">
     <g id="line2d_1">
      <defs>
       <path d="M 0 0 
L 0 3.5 
" id="mb7cd9f6204" style="stroke:#000000;stroke-width:0.8;"/>
      </defs>
      <g>
       <use style="stroke:#000000;stroke-width:0.8;" x="43.78125" xlink:href="#mb7cd9f6204" y="301.8675"/>
      </g>
     </g>
     <g id="text_1">
      <!-- 0.0 -->
      <defs>
       <path d="M 31.78125 66.40625 
Q 24.171875 66.40625 20.328125 58.90625 
Q 16.5 51.421875 16.5 36.375 
Q 16.5 21.390625 20.328125 13.890625 
Q 24.171875 6.390625 31.78125 6.390625 
Q 39.453125 6.390625 43.28125 13.890625 
Q 47.125 21.390625 47.125 36.375 
Q 47.125 51.421875 43.28125 58.90625 
Q 39.453125 66.40625 31.78125 66.40625 
M 31.78125 74.21875 
Q 44.046875 74.21875 50.515625 64.515625 
Q 56.984375 54.828125 56.984375 36.375 
Q 56.984375 17.96875 50.515625 8.265625 
Q 44.046875 -1.421875 31.78125 -1.421875 
Q 19.53125 -1.421875 13.0625 8.265625 
Q 6.59375 17.96875 6.59375 36.375 
Q 6.59375 54.828125 13.0625 64.515625 
Q 19.53125 74.21875 31.78125 74.21875 
" id="DejaVuSans-30"/>
       <path d="M 10.6875 12.40625 
L 21 12.40625 
L 21 0 
L 10.6875 0 
z
" id="DejaVuSans-2e"/>
      </defs>
      <g transform="translate(35.829688 316.465937)scale(0.1 -0.1)">
       <use xlink:href="#DejaVuSans-30"/>
       <use x="63.623047" xlink:href="#DejaVuSans-2e"/>
       <use x="95.410156" xlink:href="#DejaVuSans-30"/>
      </g>
     </g>
    </g>
    <g id="xtick_2">
     <g id="line2d_2">
      <g>
       <use style="stroke:#000000;stroke-width:0.8;" x="115.20525" xlink:href="#mb7cd9f6204" y="301.8675"/>
      </g>
     </g>
     <g id="text_2">
      <!-- 0.2 -->
      <defs>
       <path d="M 19.1875 8.296875 
L 53.609375 8.296875 
L 53.609375 0 
L 7.328125 0 
L 7.328125 8.296875 
Q 12.9375 14.109375 22.625 23.890625 
Q 32.328125 33.6875 34.8125 36.53125 
Q 39.546875 41.84375 41.421875 45.53125 
Q 43.3125 49.21875 43.3125 52.78125 
Q 43.3125 58.59375 39.234375 62.25 
Q 35.15625 65.921875 28.609375 65.921875 
Q 23.96875 65.921875 18.8125 64.3125 
Q 13.671875 62.703125 7.8125 59.421875 
L 7.8125 69.390625 
Q 13.765625 71.78125 18.9375 73 
Q 24.125 74.21875 28.421875 74.21875 
Q 39.75 74.21875 46.484375 68.546875 
Q 53.21875 62.890625 53.21875 53.421875 
Q 53.21875 48.921875 51.53125 44.890625 
Q 49.859375 40.875 45.40625 35.40625 
Q 44.1875 33.984375 37.640625 27.21875 
Q 31.109375 20.453125 19.1875 8.296875 
" id="DejaVuSans-32"/>
      </defs>
      <g transform="translate(107.253688 316.465937)scale(0.1 -0.1)">
       <use xlink:href="#DejaVuSans-30"/>
       <use x="63.623047" xlink:href="#DejaVuSans-2e"/>
       <use x="95.410156" xlink:href="#DejaVuSans-32"/>
      </g>
     </g>
    </g>
    <g id="xtick_3">
     <g id="line2d_3">
      <g>
       <use style="stroke:#000000;stroke-width:0.8;" x="186.62925" xlink:href="#mb7cd9f6204" y="301.8675"/>
      </g>
     </g>
     <g id="text_3">
      <!-- 0.4 -->
      <defs>
       <path d="M 37.796875 64.3125 
L 12.890625 25.390625 
L 37.796875 25.390625 
z
M 35.203125 72.90625 
L 47.609375 72.90625 
L 47.609375 25.390625 
L 58.015625 25.390625 
L 58.015625 17.1875 
L 47.609375 17.1875 
L 47.609375 0 
L 37.796875 0 
L 37.796875 17.1875 
L 4.890625 17.1875 
L 4.890625 26.703125 
z
" id="DejaVuSans-34"/>
      </defs>
      <g transform="translate(178.677688 316.465937)scale(0.1 -0.1)">
       <use xlink:href="#DejaVuSans-30"/>
       <use x="63.623047" xlink:href="#DejaVuSans-2e"/>
       <use x="95.410156" xlink:href="#DejaVuSans-34"/>
      </g>
     </g>
    </g>
    <g id="xtick_4">
     <g id="line2d_4">
      <g>
       <use style="stroke:#000000;stroke-width:0.8;" x="258.05325" xlink:href="#mb7cd9f6204" y="301.8675"/>
      </g>
     </g>
     <g id="text_4">
      <!-- 0.6 -->
      <defs>
       <path d="M 33.015625 40.375 
Q 26.375 40.375 22.484375 35.828125 
Q 18.609375 31.296875 18.609375 23.390625 
Q 18.609375 15.53125 22.484375 10.953125 
Q 26.375 6.390625 33.015625 6.390625 
Q 39.65625 6.390625 43.53125 10.953125 
Q 47.40625 15.53125 47.40625 23.390625 
Q 47.40625 31.296875 43.53125 35.828125 
Q 39.65625 40.375 33.015625 40.375 
M 52.59375 71.296875 
L 52.59375 62.3125 
Q 48.875 64.0625 45.09375 64.984375 
Q 41.3125 65.921875 37.59375 65.921875 
Q 27.828125 65.921875 22.671875 59.328125 
Q 17.53125 52.734375 16.796875 39.40625 
Q 19.671875 43.65625 24.015625 45.921875 
Q 28.375 48.1875 33.59375 48.1875 
Q 44.578125 48.1875 50.953125 41.515625 
Q 57.328125 34.859375 57.328125 23.390625 
Q 57.328125 12.15625 50.6875 5.359375 
Q 44.046875 -1.421875 33.015625 -1.421875 
Q 20.359375 -1.421875 13.671875 8.265625 
Q 6.984375 17.96875 6.984375 36.375 
Q 6.984375 53.65625 15.1875 63.9375 
Q 23.390625 74.21875 37.203125 74.21875 
Q 40.921875 74.21875 44.703125 73.484375 
Q 48.484375 72.75 52.59375 71.296875 
" id="DejaVuSans-36"/>
      </defs>
      <g transform="translate(250.101688 316.465937)scale(0.1 -0.1)">
       <use xlink:href="#DejaVuSans-30"/>
       <use x="63.623047" xlink:href="#DejaVuSans-2e"/>
       <use x="95.410156" xlink:href="#DejaVuSans-36"/>
      </g>
     </g>
    </g>
    <g id="xtick_5">
     <g id="line2d_5">
      <g>
       <use style="stroke:#000000;stroke-width:0.8;" x="329.47725" xlink:href="#mb7cd9f6204" y="301.8675"/>
      </g>
     </g>
     <g id="text_5">
      <!-- 0.8 -->
      <defs>
       <path d="M 31.78125 34.625 
Q 24.75 34.625 20.71875 30.859375 
Q 16.703125 27.09375 16.703125 20.515625 
Q 16.703125 13.921875 20.71875 10.15625 
Q 24.75 6.390625 31.78125 6.390625 
Q 38.8125 6.390625 42.859375 10.171875 
Q 46.921875 13.96875 46.921875 20.515625 
Q 46.921875 27.09375 42.890625 30.859375 
Q 38.875 34.625 31.78125 34.625 
M 21.921875 38.8125 
Q 15.578125 40.375 12.03125 44.71875 
Q 8.5 49.078125 8.5 55.328125 
Q 8.5 64.0625 14.71875 69.140625 
Q 20.953125 74.21875 31.78125 74.21875 
Q 42.671875 74.21875 48.875 69.140625 
Q 55.078125 64.0625 55.078125 55.328125 
Q 55.078125 49.078125 51.53125 44.71875 
Q 48 40.375 41.703125 38.8125 
Q 48.828125 37.15625 52.796875 32.3125 
Q 56.78125 27.484375 56.78125 20.515625 
Q 56.78125 9.90625 50.3125 4.234375 
Q 43.84375 -1.421875 31.78125 -1.421875 
Q 19.734375 -1.421875 13.25 4.234375 
Q 6.78125 9.90625 6.78125 20.515625 
Q 6.78125 27.484375 10.78125 32.3125 
Q 14.796875 37.15625 21.921875 38.8125 
M 18.3125 54.390625 
Q 18.3125 48.734375 21.84375 45.5625 
Q 25.390625 42.390625 31.78125 42.390625 
Q 38.140625 42.390625 41.71875 45.5625 
Q 45.3125 48.734375 45.3125 54.390625 
Q 45.3125 60.0625 41.71875 63.234375 
Q 38.140625 66.40625 31.78125 66.40625 
Q 25.390625 66.40625 21.84375 63.234375 
Q 18.3125 60.0625 18.3125 54.390625 
" id="DejaVuSans-38"/>
      </defs>
      <g transform="translate(321.525688 316.465937)scale(0.1 -0.1)">
       <use xlink:href="#DejaVuSans-30"/>
       <use x="63.623047" xlink:href="#DejaVuSans-2e"/>
       <use x="95.410156" xlink:href="#DejaVuSans-38"/>
      </g>
     </g>
    </g>
    <g id="xtick_6">
     <g id="line2d_6">
      <g>
       <use style="stroke:#000000;stroke-width:0.8;" x="400.90125" xlink:href="#mb7cd9f6204" y="301.8675"/>
      </g>
     </g>
     <g id="text_6">
      <!-- 1.0 -->
      <defs>
       <path d="M 12.40625 8.296875 
L 28.515625 8.296875 
L 28.515625 63.921875 
L 10.984375 60.40625 
L 10.984375 69.390625 
L 28.421875 72.90625 
L 38.28125 72.90625 
L 38.28125 8.296875 
L 54.390625 8.296875 
L 54.390625 0 
L 12.40625 0 
z
" id="DejaVuSans-31"/>
      </defs>
      <g transform="translate(392.949688 316.465937)scale(0.1 -0.1)">
       <use xlink:href="#DejaVuSans-31"/>
       <use x="63.623047" xlink:href="#DejaVuSans-2e"/>
       <use x="95.410156" xlink:href="#DejaVuSans-30"/>
      </g>
     </g>
    </g>
    <g id="text_7">
     <!-- False Positive Rate -->
     <defs>
      <path d="M 9.8125 72.90625 
L 51.703125 72.90625 
L 51.703125 64.59375 
L 19.671875 64.59375 
L 19.671875 43.109375 
L 48.578125 43.109375 
L 48.578125 34.8125 
L 19.671875 34.8125 
L 19.671875 0 
L 9.8125 0 
z
" id="DejaVuSans-46"/>
      <path d="M 34.28125 27.484375 
Q 23.390625 27.484375 19.1875 25 
Q 14.984375 22.515625 14.984375 16.5 
Q 14.984375 11.71875 18.140625 8.90625 
Q 21.296875 6.109375 26.703125 6.109375 
Q 34.1875 6.109375 38.703125 11.40625 
Q 43.21875 16.703125 43.21875 25.484375 
L 43.21875 27.484375 
z
M 52.203125 31.203125 
L 52.203125 0 
L 43.21875 0 
L 43.21875 8.296875 
Q 40.140625 3.328125 35.546875 0.953125 
Q 30.953125 -1.421875 24.3125 -1.421875 
Q 15.921875 -1.421875 10.953125 3.296875 
Q 6 8.015625 6 15.921875 
Q 6 25.140625 12.171875 29.828125 
Q 18.359375 34.515625 30.609375 34.515625 
L 43.21875 34.515625 
L 43.21875 35.40625 
Q 43.21875 41.609375 39.140625 45 
Q 35.0625 48.390625 27.6875 48.390625 
Q 23 48.390625 18.546875 47.265625 
Q 14.109375 46.140625 10.015625 43.890625 
L 10.015625 52.203125 
Q 14.9375 54.109375 19.578125 55.046875 
Q 24.21875 56 28.609375 56 
Q 40.484375 56 46.34375 49.84375 
Q 52.203125 43.703125 52.203125 31.203125 
" id="DejaVuSans-61"/>
      <path d="M 9.421875 75.984375 
L 18.40625 75.984375 
L 18.40625 0 
L 9.421875 0 
z
" id="DejaVuSans-6c"/>
      <path d="M 44.28125 53.078125 
L 44.28125 44.578125 
Q 40.484375 46.53125 36.375 47.5 
Q 32.28125 48.484375 27.875 48.484375 
Q 21.1875 48.484375 17.84375 46.4375 
Q 14.5 44.390625 14.5 40.28125 
Q 14.5 37.15625 16.890625 35.375 
Q 19.28125 33.59375 26.515625 31.984375 
L 29.59375 31.296875 
Q 39.15625 29.25 43.1875 25.515625 
Q 47.21875 21.78125 47.21875 15.09375 
Q 47.21875 7.46875 41.1875 3.015625 
Q 35.15625 -1.421875 24.609375 -1.421875 
Q 20.21875 -1.421875 15.453125 -0.5625 
Q 10.6875 0.296875 5.421875 2 
L 5.421875 11.28125 
Q 10.40625 8.6875 15.234375 7.390625 
Q 20.0625 6.109375 24.8125 6.109375 
Q 31.15625 6.109375 34.5625 8.28125 
Q 37.984375 10.453125 37.984375 14.40625 
Q 37.984375 18.0625 35.515625 20.015625 
Q 33.0625 21.96875 24.703125 23.78125 
L 21.578125 24.515625 
Q 13.234375 26.265625 9.515625 29.90625 
Q 5.8125 33.546875 5.8125 39.890625 
Q 5.8125 47.609375 11.28125 51.796875 
Q 16.75 56 26.8125 56 
Q 31.78125 56 36.171875 55.265625 
Q 40.578125 54.546875 44.28125 53.078125 
" id="DejaVuSans-73"/>
      <path d="M 56.203125 29.59375 
L 56.203125 25.203125 
L 14.890625 25.203125 
Q 15.484375 15.921875 20.484375 11.0625 
Q 25.484375 6.203125 34.421875 6.203125 
Q 39.59375 6.203125 44.453125 7.46875 
Q 49.3125 8.734375 54.109375 11.28125 
L 54.109375 2.78125 
Q 49.265625 0.734375 44.1875 -0.34375 
Q 39.109375 -1.421875 33.890625 -1.421875 
Q 20.796875 -1.421875 13.15625 6.1875 
Q 5.515625 13.8125 5.515625 26.8125 
Q 5.515625 40.234375 12.765625 48.109375 
Q 20.015625 56 32.328125 56 
Q 43.359375 56 49.78125 48.890625 
Q 56.203125 41.796875 56.203125 29.59375 
M 47.21875 32.234375 
Q 47.125 39.59375 43.09375 43.984375 
Q 39.0625 48.390625 32.421875 48.390625 
Q 24.90625 48.390625 20.390625 44.140625 
Q 15.875 39.890625 15.1875 32.171875 
z
" id="DejaVuSans-65"/>
      <path id="DejaVuSans-20"/>
      <path d="M 19.671875 64.796875 
L 19.671875 37.40625 
L 32.078125 37.40625 
Q 38.96875 37.40625 42.71875 40.96875 
Q 46.484375 44.53125 46.484375 51.125 
Q 46.484375 57.671875 42.71875 61.234375 
Q 38.96875 64.796875 32.078125 64.796875 
z
M 9.8125 72.90625 
L 32.078125 72.90625 
Q 44.34375 72.90625 50.609375 67.359375 
Q 56.890625 61.8125 56.890625 51.125 
Q 56.890625 40.328125 50.609375 34.8125 
Q 44.34375 29.296875 32.078125 29.296875 
L 19.671875 29.296875 
L 19.671875 0 
L 9.8125 0 
z
" id="DejaVuSans-50"/>
      <path d="M 30.609375 48.390625 
Q 23.390625 48.390625 19.1875 42.75 
Q 14.984375 37.109375 14.984375 27.296875 
Q 14.984375 17.484375 19.15625 11.84375 
Q 23.34375 6.203125 30.609375 6.203125 
Q 37.796875 6.203125 41.984375 11.859375 
Q 46.1875 17.53125 46.1875 27.296875 
Q 46.1875 37.015625 41.984375 42.703125 
Q 37.796875 48.390625 30.609375 48.390625 
M 30.609375 56 
Q 42.328125 56 49.015625 48.375 
Q 55.71875 40.765625 55.71875 27.296875 
Q 55.71875 13.875 49.015625 6.21875 
Q 42.328125 -1.421875 30.609375 -1.421875 
Q 18.84375 -1.421875 12.171875 6.21875 
Q 5.515625 13.875 5.515625 27.296875 
Q 5.515625 40.765625 12.171875 48.375 
Q 18.84375 56 30.609375 56 
" id="DejaVuSans-6f"/>
      <path d="M 9.421875 54.6875 
L 18.40625 54.6875 
L 18.40625 0 
L 9.421875 0 
z
M 9.421875 75.984375 
L 18.40625 75.984375 
L 18.40625 64.59375 
L 9.421875 64.59375 
z
" id="DejaVuSans-69"/>
      <path d="M 18.3125 70.21875 
L 18.3125 54.6875 
L 36.8125 54.6875 
L 36.8125 47.703125 
L 18.3125 47.703125 
L 18.3125 18.015625 
Q 18.3125 11.328125 20.140625 9.421875 
Q 21.96875 7.515625 27.59375 7.515625 
L 36.8125 7.515625 
L 36.8125 0 
L 27.59375 0 
Q 17.1875 0 13.234375 3.875 
Q 9.28125 7.765625 9.28125 18.015625 
L 9.28125 47.703125 
L 2.6875 47.703125 
L 2.6875 54.6875 
L 9.28125 54.6875 
L 9.28125 70.21875 
z
" id="DejaVuSans-74"/>
      <path d="M 2.984375 54.6875 
L 12.5 54.6875 
L 29.59375 8.796875 
L 46.6875 54.6875 
L 56.203125 54.6875 
L 35.6875 0 
L 23.484375 0 
z
" id="DejaVuSans-76"/>
      <path d="M 44.390625 34.1875 
Q 47.5625 33.109375 50.5625 29.59375 
Q 53.5625 26.078125 56.59375 19.921875 
L 66.609375 0 
L 56 0 
L 46.6875 18.703125 
Q 43.0625 26.03125 39.671875 28.421875 
Q 36.28125 30.8125 30.421875 30.8125 
L 19.671875 30.8125 
L 19.671875 0 
L 9.8125 0 
L 9.8125 72.90625 
L 32.078125 72.90625 
Q 44.578125 72.90625 50.734375 67.671875 
Q 56.890625 62.453125 56.890625 51.90625 
Q 56.890625 45.015625 53.6875 40.46875 
Q 50.484375 35.9375 44.390625 34.1875 
M 19.671875 64.796875 
L 19.671875 38.921875 
L 32.078125 38.921875 
Q 39.203125 38.921875 42.84375 42.21875 
Q 46.484375 45.515625 46.484375 51.90625 
Q 46.484375 58.296875 42.84375 61.546875 
Q 39.203125 64.796875 32.078125 64.796875 
z
" id="DejaVuSans-52"/>
     </defs>
     <g transform="translate(175.135781 330.144062)scale(0.1 -0.1)">
      <use xlink:href="#DejaVuSans-46"/>
      <use x="57.378906" xlink:href="#DejaVuSans-61"/>
      <use x="118.658203" xlink:href="#DejaVuSans-6c"/>
      <use x="146.441406" xlink:href="#DejaVuSans-73"/>
      <use x="198.541016" xlink:href="#DejaVuSans-65"/>
      <use x="260.064453" xlink:href="#DejaVuSans-20"/>
      <use x="291.851562" xlink:href="#DejaVuSans-50"/>
      <use x="352.107422" xlink:href="#DejaVuSans-6f"/>
      <use x="413.289062" xlink:href="#DejaVuSans-73"/>
      <use x="465.388672" xlink:href="#DejaVuSans-69"/>
      <use x="493.171875" xlink:href="#DejaVuSans-74"/>
      <use x="532.380859" xlink:href="#DejaVuSans-69"/>
      <use x="560.164062" xlink:href="#DejaVuSans-76"/>
      <use x="619.34375" xlink:href="#DejaVuSans-65"/>
      <use x="680.867188" xlink:href="#DejaVuSans-20"/>
      <use x="712.654297" xlink:href="#DejaVuSans-52"/>
      <use x="782.105469" xlink:href="#DejaVuSans-61"/>
      <use x="843.384766" xlink:href="#DejaVuSans-74"/>
      <use x="882.59375" xlink:href="#DejaVuSans-65"/>
     </g>
    </g>
   </g>
   <g id="matplotlib.axis_2">
    <g id="ytick_1">
     <g id="line2d_7">
      <defs>
       <path d="M 0 0 
L -3.5 0 
" id="m5d78517bd1" style="stroke:#000000;stroke-width:0.8;"/>
      </defs>
      <g>
       <use style="stroke:#000000;stroke-width:0.8;" x="43.78125" xlink:href="#m5d78517bd1" y="301.8675"/>
      </g>
     </g>
     <g id="text_8">
      <!-- 0.0 -->
      <g transform="translate(20.878125 305.666719)scale(0.1 -0.1)">
       <use xlink:href="#DejaVuSans-30"/>
       <use x="63.623047" xlink:href="#DejaVuSans-2e"/>
       <use x="95.410156" xlink:href="#DejaVuSans-30"/>
      </g>
     </g>
    </g>
    <g id="ytick_2">
     <g id="line2d_8">
      <g>
       <use style="stroke:#000000;stroke-width:0.8;" x="43.78125" xlink:href="#m5d78517bd1" y="251.1795"/>
      </g>
     </g>
     <g id="text_9">
      <!-- 0.2 -->
      <g transform="translate(20.878125 254.978719)scale(0.1 -0.1)">
       <use xlink:href="#DejaVuSans-30"/>
       <use x="63.623047" xlink:href="#DejaVuSans-2e"/>
       <use x="95.410156" xlink:href="#DejaVuSans-32"/>
      </g>
     </g>
    </g>
    <g id="ytick_3">
     <g id="line2d_9">
      <g>
       <use style="stroke:#000000;stroke-width:0.8;" x="43.78125" xlink:href="#m5d78517bd1" y="200.4915"/>
      </g>
     </g>
     <g id="text_10">
      <!-- 0.4 -->
      <g transform="translate(20.878125 204.290719)scale(0.1 -0.1)">
       <use xlink:href="#DejaVuSans-30"/>
       <use x="63.623047" xlink:href="#DejaVuSans-2e"/>
       <use x="95.410156" xlink:href="#DejaVuSans-34"/>
      </g>
     </g>
    </g>
    <g id="ytick_4">
     <g id="line2d_10">
      <g>
       <use style="stroke:#000000;stroke-width:0.8;" x="43.78125" xlink:href="#m5d78517bd1" y="149.8035"/>
      </g>
     </g>
     <g id="text_11">
      <!-- 0.6 -->
      <g transform="translate(20.878125 153.602719)scale(0.1 -0.1)">
       <use xlink:href="#DejaVuSans-30"/>
       <use x="63.623047" xlink:href="#DejaVuSans-2e"/>
       <use x="95.410156" xlink:href="#DejaVuSans-36"/>
      </g>
     </g>
    </g>
    <g id="ytick_5">
     <g id="line2d_11">
      <g>
       <use style="stroke:#000000;stroke-width:0.8;" x="43.78125" xlink:href="#m5d78517bd1" y="99.1155"/>
      </g>
     </g>
     <g id="text_12">
      <!-- 0.8 -->
      <g transform="translate(20.878125 102.914719)scale(0.1 -0.1)">
       <use xlink:href="#DejaVuSans-30"/>
       <use x="63.623047" xlink:href="#DejaVuSans-2e"/>
       <use x="95.410156" xlink:href="#DejaVuSans-38"/>
      </g>
     </g>
    </g>
    <g id="ytick_6">
     <g id="line2d_12">
      <g>
       <use style="stroke:#000000;stroke-width:0.8;" x="43.78125" xlink:href="#m5d78517bd1" y="48.4275"/>
      </g>
     </g>
     <g id="text_13">
      <!-- 1.0 -->
      <g transform="translate(20.878125 52.226719)scale(0.1 -0.1)">
       <use xlink:href="#DejaVuSans-31"/>
       <use x="63.623047" xlink:href="#DejaVuSans-2e"/>
       <use x="95.410156" xlink:href="#DejaVuSans-30"/>
      </g>
     </g>
    </g>
    <g id="text_14">
     <!-- True Positive Rate -->
     <defs>
      <path d="M -0.296875 72.90625 
L 61.375 72.90625 
L 61.375 64.59375 
L 35.5 64.59375 
L 35.5 0 
L 25.59375 0 
L 25.59375 64.59375 
L -0.296875 64.59375 
z
" id="DejaVuSans-54"/>
      <path d="M 41.109375 46.296875 
Q 39.59375 47.171875 37.8125 47.578125 
Q 36.03125 48 33.890625 48 
Q 26.265625 48 22.1875 43.046875 
Q 18.109375 38.09375 18.109375 28.8125 
L 18.109375 0 
L 9.078125 0 
L 9.078125 54.6875 
L 18.109375 54.6875 
L 18.109375 46.1875 
Q 20.953125 51.171875 25.484375 53.578125 
Q 30.03125 56 36.53125 56 
Q 37.453125 56 38.578125 55.875 
Q 39.703125 55.765625 41.0625 55.515625 
z
" id="DejaVuSans-72"/>
      <path d="M 8.5 21.578125 
L 8.5 54.6875 
L 17.484375 54.6875 
L 17.484375 21.921875 
Q 17.484375 14.15625 20.5 10.265625 
Q 23.53125 6.390625 29.59375 6.390625 
Q 36.859375 6.390625 41.078125 11.03125 
Q 45.3125 15.671875 45.3125 23.6875 
L 45.3125 54.6875 
L 54.296875 54.6875 
L 54.296875 0 
L 45.3125 0 
L 45.3125 8.40625 
Q 42.046875 3.421875 37.71875 1 
Q 33.40625 -1.421875 27.6875 -1.421875 
Q 18.265625 -1.421875 13.375 4.4375 
Q 8.5 10.296875 8.5 21.578125 
M 31.109375 56 
z
" id="DejaVuSans-75"/>
     </defs>
     <g transform="translate(14.798438 214.357594)rotate(-90)scale(0.1 -0.1)">
      <use xlink:href="#DejaVuSans-54"/>
      <use x="60.865234" xlink:href="#DejaVuSans-72"/>
      <use x="101.978516" xlink:href="#DejaVuSans-75"/>
      <use x="165.357422" xlink:href="#DejaVuSans-65"/>
      <use x="226.880859" xlink:href="#DejaVuSans-20"/>
      <use x="258.667969" xlink:href="#DejaVuSans-50"/>
      <use x="318.923828" xlink:href="#DejaVuSans-6f"/>
      <use x="380.105469" xlink:href="#DejaVuSans-73"/>
      <use x="432.205078" xlink:href="#DejaVuSans-69"/>
      <use x="459.988281" xlink:href="#DejaVuSans-74"/>
      <use x="499.197266" xlink:href="#DejaVuSans-69"/>
      <use x="526.980469" xlink:href="#DejaVuSans-76"/>
      <use x="586.160156" xlink:href="#DejaVuSans-65"/>
      <use x="647.683594" xlink:href="#DejaVuSans-20"/>
      <use x="679.470703" xlink:href="#DejaVuSans-52"/>
      <use x="748.921875" xlink:href="#DejaVuSans-61"/>
      <use x="810.201172" xlink:href="#DejaVuSans-74"/>
      <use x="849.410156" xlink:href="#DejaVuSans-65"/>
     </g>
    </g>
   </g>
   <g id="line2d_13">
    <path clip-path="url(#p7339d82125)" d="M 43.78125 301.8675 
L 43.839168 301.8675 
L 43.958864 300.423397 
L 44.904852 300.423397 
L 45.043854 299.460662 
L 45.151967 298.979295 
L 45.306414 298.979295 
L 45.437694 296.813141 
L 45.958952 296.813141 
L 46.005286 296.09109 
L 46.352792 296.09109 
L 46.569018 295.128355 
L 46.688714 291.758782 
L 46.727326 291.758782 
L 46.881773 289.351944 
L 47.179083 287.667158 
L 47.43006 287.667158 
L 47.553617 284.778953 
L 47.72737 284.778953 
L 47.820038 283.33485 
L 48.128932 283.33485 
L 48.256351 282.853483 
L 48.68108 282.853483 
L 48.854833 281.650064 
L 49.163727 281.650064 
L 49.283423 280.205962 
L 49.924378 275.63297 
L 50.040213 275.63297 
L 50.109714 275.151603 
L 50.341385 275.151603 
L 50.990062 269.375192 
L 51.086592 269.375192 
L 51.217871 267.93109 
L 51.488154 267.93109 
L 51.631017 267.209038 
L 51.785464 267.209038 
L 52.156137 265.042885 
L 52.600172 265.042885 
L 52.650367 264.561517 
L 52.939955 264.561517 
L 53.048068 264.08015 
L 53.279738 264.08015 
L 53.341517 263.117415 
L 53.553882 263.117415 
L 53.661995 261.432628 
L 53.835748 261.432628 
L 54.079002 259.747842 
L 54.291366 259.747842 
L 54.372451 258.785107 
L 54.607982 256.618953 
L 54.743123 256.618953 
L 55.079046 254.693483 
L 55.407245 254.693483 
L 55.526942 253.730748 
L 55.642777 253.730748 
L 55.75089 253.24938 
L 55.951671 251.32391 
L 56.615793 240.493141 
L 56.731628 240.493141 
L 56.96716 234.957415 
L 57.29536 234.957415 
L 57.388028 233.513312 
L 57.542475 233.513312 
L 57.739395 232.550577 
L 58.260653 232.550577 
L 58.399655 231.587842 
L 58.747161 231.587842 
L 58.955665 228.940321 
L 59.110111 228.940321 
L 59.260697 227.496218 
L 59.832151 225.811432 
L 62.256968 210.407671 
L 62.450027 210.407671 
L 62.592891 208.482201 
L 62.863173 208.482201 
L 63.272457 206.316047 
L 63.326514 204.871944 
L 64.581395 204.871944 
L 64.801482 202.946474 
L 65.148988 202.946474 
L 65.527383 201.261688 
L 65.55055 200.298953 
L 65.81311 199.817585 
L 65.928945 199.817585 
L 66.060225 199.576902 
L 66.137449 199.576902 
L 66.33823 197.651432 
L 66.454065 197.651432 
L 67.303523 195.244594 
L 67.488859 193.559808 
L 67.759142 193.559808 
L 67.905866 193.07844 
L 68.079619 193.07844 
L 68.141398 192.115705 
L 68.41168 192.115705 
L 68.736019 190.671603 
L 70.809469 165.399808 
L 71.407951 165.399808 
L 71.655066 162.752286 
L 71.886737 162.752286 
L 71.975544 162.270919 
L 72.129991 162.270919 
L 72.303744 161.0675 
L 72.940837 161.0675 
L 73.110729 159.623397 
L 73.3424 159.623397 
L 73.462096 158.660662 
L 74.118496 158.660662 
L 74.218886 157.697927 
L 74.508474 157.697927 
L 74.577975 154.809722 
L 74.69381 154.809722 
L 74.913897 154.087671 
L 74.971815 154.087671 
L 75.041316 153.606303 
L 75.272987 153.606303 
L 75.296154 152.643568 
L 75.894636 152.643568 
L 76.018193 151.921517 
L 76.50084 151.921517 
L 76.531729 151.44015 
L 77.014376 151.44015 
L 77.153378 150.477415 
L 77.674637 150.477415 
L 78.269258 149.033312 
L 78.574291 148.792628 
L 78.67082 148.792628 
L 78.979714 146.385791 
L 79.249996 146.385791 
L 79.485528 145.423056 
L 80.31568 145.423056 
L 80.338847 144.460321 
L 81.362058 144.460321 
L 81.447004 143.738269 
L 82.744359 143.738269 
L 83.064836 143.016218 
L 83.14206 143.016218 
L 83.281062 142.053483 
L 83.358285 142.053483 
L 83.508871 140.60938 
L 83.586095 140.60938 
L 83.655596 140.128013 
L 85.528265 140.128013 
L 85.60935 139.165278 
L 85.87191 138.68391 
L 86.188526 136.75844 
L 86.26575 136.75844 
L 86.373862 136.277073 
L 86.412474 136.277073 
L 86.493559 135.314338 
L 87.053429 135.314338 
L 87.084318 134.83297 
L 87.315989 134.83297 
L 87.346878 134.351603 
L 88.389395 134.351603 
L 88.443452 134.110919 
L 90.462846 134.110919 
L 90.547792 132.185449 
L 90.721545 132.185449 
L 91.130829 130.019295 
L 92.733216 130.019295 
L 92.899247 129.537927 
L 94.231352 129.537927 
L 94.32402 128.093825 
L 94.532523 126.890406 
L 94.68697 126.409038 
L 95.34337 126.409038 
L 97.968968 124.964936 
L 98.123415 123.761517 
L 99.301074 123.761517 
L 99.370575 120.873312 
L 99.911139 120.873312 
L 100.019252 120.391944 
L 100.193005 120.391944 
L 100.822376 119.910577 
L 100.918906 119.910577 
L 101.351357 117.985107 
L 101.969145 117.985107 
L 102.100425 116.541004 
L 104.108235 116.541004 
L 104.200904 116.300321 
L 104.548409 116.300321 
L 104.660383 116.059637 
L 105.177781 115.818953 
L 112.73796 115.818953 
L 112.946463 114.37485 
L 114.104815 114.37485 
L 114.212928 113.893483 
L 119.850243 113.893483 
L 120.097358 112.44938 
L 122.317533 112.44938 
L 122.363867 111.727329 
L 124.757795 111.727329 
L 124.850463 110.283226 
L 125.043522 110.283226 
L 125.383305 109.801859 
L 125.846646 109.801859 
L 127.580313 109.561175 
L 127.653676 109.320491 
L 128.059099 109.320491 
L 128.182656 108.59844 
L 136.229343 107.154338 
L 136.41468 104.266132 
L 136.569127 104.266132 
L 136.789214 103.544081 
L 137.60006 103.544081 
L 137.824008 102.581346 
L 138.654161 102.581346 
L 138.746829 101.137244 
L 138.862664 101.137244 
L 138.951471 100.655876 
L 142.445834 100.655876 
L 142.538502 99.211774 
L 143.310737 99.211774 
L 144.021193 98.97109 
L 144.233557 98.97109 
L 146.932518 98.730406 
L 146.978852 98.008355 
L 147.152605 98.008355 
L 147.187356 96.564252 
L 147.303191 96.564252 
L 147.461499 94.398098 
L 148.330263 94.398098 
L 151.006057 93.676047 
L 151.295645 93.676047 
L 151.380591 92.953996 
L 152.616167 92.953996 
L 160.933136 92.713312 
L 160.97947 91.991261 
L 163.952574 91.991261 
L 169.215354 90.787842 
L 169.36594 89.343739 
L 169.470192 88.621688 
L 170.589932 88.621688 
L 171.717395 87.899637 
L 171.848675 87.658953 
L 178.026554 87.658953 
L 178.196446 87.418269 
L 183.196666 87.418269 
L 183.366558 87.177585 
L 188.583004 87.177585 
L 188.706562 86.455534 
L 192.027172 86.455534 
L 192.266564 85.733483 
L 196.224268 85.733483 
L 196.32852 85.011432 
L 198.278413 85.011432 
L 198.498499 84.28938 
L 199.560322 84.28938 
L 199.691602 82.845278 
L 203.313384 82.845278 
L 203.348134 81.401175 
L 207.730567 81.401175 
L 207.834819 80.679124 
L 208.220936 80.679124 
L 208.274992 80.43844 
L 239.175969 80.43844 
L 239.21072 78.994338 
L 240.871025 78.994338 
L 240.95211 76.828184 
L 251.203527 76.828184 
L 251.31164 73.939979 
L 252.991251 73.939979 
L 253.273116 73.458611 
L 256.419973 73.458611 
L 256.582143 72.73656 
L 260.983881 72.73656 
L 261.030215 72.014509 
L 264.736943 72.014509 
L 264.937724 71.292457 
L 298.99328 71.292457 
L 299.047336 69.848355 
L 299.279007 69.848355 
L 299.325341 69.126303 
L 300.07827 69.126303 
L 300.30994 65.516047 
L 302.008857 65.516047 
L 302.159443 60.461688 
L 303.086124 60.461688 
L 303.209682 59.739637 
L 304.445258 59.739637 
L 304.669206 59.258269 
L 304.727123 59.258269 
L 304.935627 59.017585 
L 305.225215 59.017585 
L 305.337189 58.776902 
L 306.225259 58.776902 
L 306.271593 58.05485 
L 306.387428 58.05485 
L 306.49168 57.332799 
L 310.430078 57.332799 
L 310.657887 57.092115 
L 316.214117 57.092115 
L 316.376286 56.370064 
L 319.889955 56.370064 
L 320.10618 56.12938 
L 321.476897 56.12938 
L 321.619761 55.407329 
L 331.299724 55.407329 
L 331.45031 55.166645 
L 332.917556 55.166645 
L 333.396342 54.925962 
L 339.477691 54.925962 
L 339.759557 54.685278 
L 342.26932 54.685278 
L 342.377433 54.20391 
L 345.562902 54.20391 
L 345.616958 53.963226 
L 347.566851 53.963226 
L 347.883467 53.241175 
L 349.007069 53.241175 
L 349.146071 52.27844 
L 353.316139 52.27844 
L 353.41653 51.315705 
L 356.107768 51.315705 
L 357.107812 51.075021 
L 360.775928 51.075021 
L 361.100267 50.834338 
L 364.779966 50.834338 
L 364.830161 50.35297 
L 368.054241 50.35297 
L 368.146909 50.112286 
L 372.896154 50.112286 
L 373.162575 49.871603 
L 373.857586 49.871603 
L 373.907781 49.390235 
L 374.552597 49.390235 
L 374.780407 49.149551 
L 380.159022 49.149551 
L 380.309608 48.908868 
L 382.630174 48.908868 
L 382.78076 48.668184 
L 385.209438 48.668184 
L 385.321412 48.4275 
L 400.90125 48.4275 
L 400.90125 48.4275 
" style="fill:none;stroke:#1f77b4;stroke-linecap:square;stroke-width:1.5;"/>
   </g>
   <g id="line2d_14">
    <path clip-path="url(#p7339d82125)" d="M 43.78125 301.8675 
L 43.858474 301.8675 
L 43.935699 301.8675 
L 44.252318 299.94203 
L 44.445379 299.94203 
L 45.263957 293.202885 
L 45.418406 293.202885 
L 45.565132 291.518098 
L 45.796805 291.518098 
L 46.009172 290.314679 
L 46.723497 290.314679 
L 46.823888 289.351944 
L 46.939725 289.351944 
L 47.125063 288.870577 
L 47.43396 288.870577 
L 47.84711 288.148526 
L 48.059477 288.148526 
L 48.198481 287.667158 
L 48.275705 287.667158 
L 48.573019 285.741688 
L 48.781525 284.297585 
L 49.125173 280.446645 
L 49.241009 280.446645 
L 49.453376 279.48391 
L 49.897416 279.48391 
L 50.040281 277.55844 
L 50.233342 277.55844 
L 50.422541 276.114338 
L 50.495904 274.670235 
L 50.963112 274.670235 
L 51.133005 274.429551 
L 51.391707 272.022714 
L 51.488237 272.022714 
L 51.534572 270.097244 
L 51.90911 266.968355 
L 52.218007 266.968355 
L 52.476708 266.246303 
L 52.580961 265.524252 
L 52.692936 264.08015 
L 52.754716 263.117415 
L 52.947777 263.117415 
L 53.079058 261.673312 
L 53.194894 261.673312 
L 53.53082 261.191944 
L 54.032778 261.191944 
L 54.094558 260.229209 
L 54.287619 260.229209 
L 54.368704 258.544423 
L 54.561765 258.544423 
L 54.70463 257.822372 
L 54.820466 257.822372 
L 54.947886 257.341004 
L 55.27609 257.341004 
L 55.600432 256.137585 
L 56.00586 256.137585 
L 56.036749 255.656218 
L 56.268422 255.656218 
L 56.438316 254.212115 
L 56.534846 254.212115 
L 56.92869 251.083226 
L 57.098584 249.639124 
L 57.735684 249.639124 
L 57.820631 247.713654 
L 58.921078 247.713654 
L 59.021469 246.750919 
L 59.114138 245.306816 
L 59.206808 243.862714 
L 59.565901 243.862714 
L 60.446258 239.289722 
L 60.998412 237.84562 
L 61.230085 237.84562 
L 61.454035 237.364252 
L 62.083414 237.364252 
L 62.396172 233.994679 
L 62.917436 233.994679 
L 63.021689 233.272628 
L 63.102775 232.309893 
L 63.971548 232.309893 
L 64.060356 231.828526 
L 64.736069 231.828526 
L 65.458116 229.903056 
L 65.516034 229.903056 
L 65.759291 227.01485 
L 66.014131 226.052115 
L 66.153135 224.126645 
L 66.307584 224.126645 
L 66.543118 221.23844 
L 66.774791 221.23844 
L 67.102994 218.831603 
L 67.160912 218.831603 
L 67.18408 217.868868 
L 67.435059 217.868868 
L 67.496838 216.906132 
L 67.940878 216.906132 
L 68.002658 215.943397 
L 68.292249 214.739979 
L 69.747927 214.739979 
L 69.825151 213.53656 
L 72.516419 188.024081 
L 72.670868 188.024081 
L 72.890957 187.30203 
L 73.585976 182.969722 
L 74.555141 178.637415 
L 74.825426 178.637415 
L 77.369967 163.474338 
L 77.814007 163.474338 
L 77.914399 162.511603 
L 78.358439 162.511603 
L 78.651891 161.548868 
L 79.25038 161.548868 
L 79.319881 161.0675 
L 79.879758 161.0675 
L 80.319936 159.864081 
L 80.899119 159.864081 
L 81.065151 159.382714 
L 81.528497 159.382714 
L 81.659778 157.938611 
L 83.181097 157.938611 
L 83.520884 155.050406 
L 83.636721 155.050406 
L 83.725529 154.569038 
L 84.146401 154.328355 
L 84.277683 152.884252 
L 84.335601 152.884252 
L 84.613608 150.958782 
L 84.99973 147.107842 
L 85.675443 147.107842 
L 85.737222 146.145107 
L 86.818363 146.145107 
L 86.957367 145.182372 
L 87.111815 145.182372 
L 87.397545 143.738269 
L 87.999895 143.738269 
L 88.358988 142.053483 
L 88.93817 140.850064 
L 89.355182 137.961859 
L 89.664079 137.961859 
L 89.833972 137.721175 
L 94.139228 137.721175 
L 94.340011 135.795705 
L 94.919194 135.795705 
L 96.027363 135.073654 
L 99.375037 135.073654 
L 99.405927 134.592286 
L 99.521763 134.592286 
L 99.695518 133.388868 
L 100.062333 133.388868 
L 100.270839 131.944765 
L 100.869328 131.944765 
L 100.900217 131.463397 
L 101.711073 131.463397 
L 102.355896 129.537927 
L 102.915772 129.537927 
L 102.946662 129.05656 
L 103.216947 129.05656 
L 103.286449 128.575192 
L 104.08572 128.575192 
L 104.24403 127.612457 
L 104.610846 127.612457 
L 105.591595 125.446303 
L 106.05494 125.446303 
L 106.178499 123.520833 
L 106.410172 123.520833 
L 106.479674 123.039466 
L 107.000938 123.039466 
L 107.649623 118.947842 
L 110.75404 118.707158 
L 110.989574 116.541004 
L 111.588063 116.541004 
L 112.568812 116.300321 
L 112.603563 114.856218 
L 113.028296 114.856218 
L 113.306304 113.893483 
L 117.781453 113.893483 
L 117.920457 112.930748 
L 118.113518 112.930748 
L 118.167575 111.486645 
L 119.418609 110.042543 
L 119.80473 110.042543 
L 119.970763 109.561175 
L 120.993985 109.561175 
L 121.140711 109.079808 
L 122.72381 109.079808 
L 122.808756 107.154338 
L 123.268241 104.506816 
L 124.584916 104.506816 
L 124.770254 104.025449 
L 125.349436 104.025449 
L 125.573387 103.544081 
L 126.519385 103.544081 
L 126.816699 103.062714 
L 127.141041 101.618611 
L 127.295489 101.618611 
L 127.33024 100.174509 
L 129.245403 100.174509 
L 129.577468 99.211774 
L 130.040814 99.211774 
L 130.179818 98.249038 
L 130.990673 98.249038 
L 131.226207 97.286303 
L 134.373098 97.286303 
L 134.419433 96.564252 
L 135.384737 96.564252 
L 135.546908 95.12015 
L 138.790329 95.12015 
L 139.180312 92.953996 
L 139.489209 92.953996 
L 139.944833 92.472628 
L 139.979584 91.028526 
L 140.134032 91.028526 
L 140.164922 90.547158 
L 140.466097 90.065791 
L 141.342593 90.065791 
L 142.110975 87.418269 
L 142.670851 87.418269 
L 145.292617 87.177585 
L 145.593792 86.696218 
L 154.358752 86.696218 
L 156.478559 85.492799 
L 156.772012 84.530064 
L 162.644921 84.28938 
L 163.336079 84.048697 
L 163.953873 84.048697 
L 164.32455 83.085962 
L 164.76859 83.085962 
L 164.915316 82.604594 
L 166.286048 82.604594 
L 167.981122 82.36391 
L 169.100874 82.36391 
L 169.216711 81.160491 
L 169.988954 81.160491 
L 170.432994 79.235021 
L 171.205237 79.235021 
L 171.471661 78.994338 
L 172.398353 78.994338 
L 172.506467 78.51297 
L 173.143567 78.51297 
L 173.460187 77.790919 
L 173.711166 77.790919 
L 173.861753 77.550235 
L 177.163093 77.550235 
L 177.309819 77.068868 
L 177.59941 77.068868 
L 177.668912 76.5875 
L 178.537686 76.5875 
L 191.928383 74.902714 
L 192.121444 72.495876 
L 192.275892 72.495876 
L 196.785792 72.255192 
L 208.311522 70.329722 
L 208.346273 70.089038 
L 209.581862 70.089038 
L 209.728588 69.607671 
L 209.848286 68.644936 
L 209.995012 68.163568 
L 210.574194 68.163568 
L 210.713198 67.200833 
L 213.06854 67.200833 
L 213.331103 66.719466 
L 214.740446 66.719466 
L 215.045483 66.478782 
L 215.423882 65.997415 
L 218.898976 65.997415 
L 218.991645 64.553312 
L 221.698358 64.553312 
L 221.733108 64.312628 
L 222.273679 64.312628 
L 222.304568 63.831261 
L 228.868636 63.831261 
L 228.934276 61.905791 
L 229.436234 61.905791 
L 229.505736 61.424423 
L 236.842046 61.424423 
L 236.91541 61.183739 
L 242.653176 61.183739 
L 242.765152 59.739637 
L 243.672537 59.739637 
L 248.649645 57.332799 
L 260.831781 57.332799 
L 260.916728 56.610748 
L 261.244931 56.610748 
L 261.372351 56.12938 
L 264.248957 56.12938 
L 264.349349 55.166645 
L 269.461599 55.166645 
L 272.620073 54.685278 
L 272.693436 54.444594 
L 274.353759 54.444594 
L 274.693546 53.963226 
L 275.234116 53.963226 
L 275.461928 53.722543 
L 278.26131 53.722543 
L 278.353979 52.27844 
L 278.855937 52.27844 
L 279.736294 51.797073 
L 287.478032 51.797073 
L 288.049492 51.315705 
L 288.99549 51.315705 
L 289.223302 51.075021 
L 297.405218 51.075021 
L 297.551944 50.593654 
L 303.034871 50.593654 
L 303.216348 49.871603 
L 316.556849 49.871603 
L 316.765355 48.4275 
L 400.90125 48.4275 
L 400.90125 48.4275 
" style="fill:none;stroke:#ff7f0e;stroke-linecap:square;stroke-width:1.5;"/>
   </g>
   <g id="line2d_15">
    <path clip-path="url(#p7339d82125)" d="M 43.78125 301.8675 
L 43.839168 301.8675 
L 43.947282 301.386132 
L 44.391322 301.386132 
L 44.588244 300.423397 
L 44.839223 300.423397 
L 44.92417 299.701346 
L 45.194455 299.701346 
L 45.333459 298.738611 
L 45.52652 298.738611 
L 45.700274 297.535192 
L 45.893335 297.535192 
L 45.962837 297.053825 
L 47.140508 297.053825 
L 47.445544 294.887671 
L 47.522768 294.887671 
L 47.59227 294.406303 
L 48.055616 294.406303 
L 48.19462 292.24015 
L 49.032504 292.24015 
L 49.102006 291.758782 
L 49.295066 291.758782 
L 49.43407 290.796047 
L 49.603964 289.351944 
L 49.661882 289.351944 
L 49.731384 288.870577 
L 50.001669 288.870577 
L 50.090477 288.389209 
L 50.723716 288.389209 
L 50.754606 287.907842 
L 50.966973 287.907842 
L 51.125283 286.945107 
L 51.299037 286.945107 
L 51.793273 281.650064 
L 52.017224 281.168697 
L 52.156227 280.205962 
L 52.329982 278.761859 
L 52.580961 276.355021 
L 52.909164 276.355021 
L 53.052029 274.429551 
L 53.129254 274.429551 
L 53.160143 273.948184 
L 53.449735 273.948184 
L 53.523098 272.504081 
L 53.708436 271.78203 
L 53.998027 271.78203 
L 54.221978 268.893825 
L 54.511569 268.893825 
L 55.025111 267.209038 
L 55.156392 265.764936 
L 55.195004 265.764936 
L 55.322424 265.283568 
L 55.426677 264.561517 
L 55.890023 264.561517 
L 56.117835 260.229209 
L 56.310896 260.229209 
L 56.334063 259.025791 
L 56.449899 259.025791 
L 57.094723 249.639124 
L 57.376591 249.157756 
L 57.546485 247.713654 
L 57.963496 244.825449 
L 58.094777 243.381346 
L 58.442287 243.381346 
L 58.477038 243.140662 
L 58.689405 243.140662 
L 59.307199 237.123568 
L 59.50026 237.123568 
L 59.805296 230.625107 
L 60.735849 227.977585 
L 61.033163 224.848697 
L 61.071775 224.848697 
L 61.195334 222.923226 
L 61.233946 222.923226 
L 61.361366 222.441859 
L 61.399978 222.441859 
L 61.527398 219.553654 
L 62.647151 219.553654 
L 62.832489 217.868868 
L 63.044856 217.868868 
L 63.28039 216.906132 
L 63.357615 216.906132 
L 63.430978 215.46203 
L 63.832544 215.46203 
L 64.017883 214.739979 
L 64.249556 214.739979 
L 64.29589 212.814509 
L 64.728346 211.370406 
L 64.882795 211.370406 
L 64.905962 210.407671 
L 65.137635 210.407671 
L 65.257333 209.444936 
L 65.643455 209.444936 
L 66.029576 207.038098 
L 66.35778 207.038098 
L 66.705289 204.631261 
L 70.064547 183.932457 
L 70.759566 183.932457 
L 70.829068 183.45109 
L 71.099353 183.45109 
L 74.736618 165.640491 
L 74.937401 163.715021 
L 75.728951 163.715021 
L 75.879538 162.270919 
L 75.995374 162.270919 
L 76.601585 161.308184 
L 76.891177 161.308184 
L 77.037903 160.826816 
L 77.288882 160.826816 
L 77.412441 158.901346 
L 78.358439 158.901346 
L 78.485859 158.419979 
L 78.563083 158.419979 
L 79.319881 152.643568 
L 79.783227 152.643568 
L 80.065096 152.162201 
L 80.14232 152.162201 
L 80.281324 151.199466 
L 80.319936 151.199466 
L 80.77556 150.718098 
L 81.702252 150.718098 
L 81.872145 149.273996 
L 83.378019 149.273996 
L 83.544052 148.792628 
L 84.49005 148.792628 
L 84.61747 148.070577 
L 84.937951 147.589209 
L 85.015175 147.589209 
L 85.497827 145.182372 
L 86.868559 145.182372 
L 87.15815 142.775534 
L 87.351211 142.775534 
L 87.606051 141.812799 
L 87.845446 139.887329 
L 88.038507 139.887329 
L 88.123454 137.961859 
L 88.548187 137.961859 
L 88.830056 137.480491 
L 88.907281 137.480491 
L 88.953615 135.555021 
L 89.822389 135.555021 
L 89.930503 135.073654 
L 90.471073 135.073654 
L 90.834027 133.629551 
L 91.212426 132.9075 
L 91.63716 132.9075 
L 91.741413 132.185449 
L 91.861111 131.222714 
L 93.969335 131.222714 
L 94.633464 130.500662 
L 95.019585 128.093825 
L 95.251258 128.093825 
L 95.428874 127.13109 
L 95.621935 125.927671 
L 96.204979 125.927671 
L 96.382595 124.964936 
L 97.19345 124.964936 
L 97.730159 124.724252 
L 97.981138 124.724252 
L 98.135587 123.520833 
L 98.618239 123.520833 
L 98.784271 121.836047 
L 99.046834 121.354679 
L 99.471567 118.947842 
L 99.587404 118.947842 
L 99.76502 117.985107 
L 99.919468 117.985107 
L 100.112529 116.781688 
L 109.912295 116.781688 
L 110.001103 116.059637 
L 111.468365 116.059637 
L 111.499255 115.578269 
L 111.885377 115.578269 
L 112.1518 114.134167 
L 112.460698 114.134167 
L 112.580395 113.171432 
L 112.734844 113.171432 
L 112.835236 112.208697 
L 113.259969 112.208697 
L 113.368083 111.727329 
L 113.61134 111.245962 
L 113.920237 111.245962 
L 114.290914 110.283226 
L 114.908709 110.283226 
L 115.252357 108.839124 
L 122.048097 108.839124 
L 122.078987 108.357756 
L 129.685582 108.357756 
L 129.813002 107.876389 
L 131.936671 107.876389 
L 132.133593 106.913654 
L 133.002366 106.913654 
L 133.071868 106.432286 
L 136.064311 106.432286 
L 138.894582 105.950919 
L 140.207395 105.950919 
L 140.859941 104.506816 
L 144.663239 104.506816 
L 144.694128 104.025449 
L 144.848577 104.025449 
L 144.929662 103.062714 
L 145.199948 103.062714 
L 148.00319 102.581346 
L 148.620985 102.581346 
L 148.655736 101.137244 
L 150.451201 101.137244 
L 151.825794 100.174509 
L 155.358807 100.174509 
L 155.729483 99.211774 
L 157.980572 99.211774 
L 158.053935 98.489722 
L 159.192994 98.489722 
L 159.37061 97.526987 
L 160.413138 97.526987 
L 160.714313 97.04562 
L 160.92668 97.04562 
L 160.973015 96.323568 
L 161.532891 96.323568 
L 161.68734 95.12015 
L 162.845704 95.12015 
L 163.359246 94.638782 
L 163.648837 94.638782 
L 163.81487 94.157415 
L 164.200991 94.157415 
L 164.760867 89.343739 
L 165.571723 89.343739 
L 184.159616 85.492799 
L 187.152059 85.492799 
L 187.260173 85.011432 
L 206.929207 82.123226 
L 206.952374 81.160491 
L 212.280852 81.160491 
L 212.342631 80.197756 
L 229.447818 80.197756 
L 229.478708 79.716389 
L 233.069638 79.716389 
L 233.490511 77.790919 
L 233.702878 77.790919 
L 234.228003 76.828184 
L 235.154695 76.828184 
L 235.239642 76.106132 
L 235.818824 76.106132 
L 235.853575 75.865449 
L 237.069858 75.865449 
L 237.347866 75.143397 
L 237.61429 74.902714 
L 240.023688 74.902714 
L 240.290112 73.458611 
L 241.950435 73.458611 
L 242.054688 72.73656 
L 244.545172 72.73656 
L 244.788429 72.255192 
L 245.406223 72.255192 
L 245.591562 71.773825 
L 246.209356 71.773825 
L 246.510531 68.88562 
L 247.939181 68.88562 
L 248.047295 68.404252 
L 289.817929 68.404252 
L 289.891292 68.163568 
L 299.100292 68.163568 
L 299.150488 67.682201 
L 317.780855 67.682201 
L 318.387066 66.96015 
L 326.958965 66.96015 
L 327.236973 66.238098 
L 351.184234 66.238098 
L 351.296209 65.997415 
L 375.336139 65.997415 
L 375.459698 65.275363 
L 375.575535 65.275363 
L 375.795624 64.553312 
L 376.015713 62.627842 
L 376.749344 62.627842 
L 376.795679 61.905791 
L 377.062103 61.905791 
L 377.293776 58.295534 
L 377.652869 58.295534 
L 378.112354 56.851432 
L 378.691536 56.851432 
L 379.363388 55.407329 
L 379.537142 55.407329 
L 380.807482 53.963226 
L 381.019849 53.963226 
L 381.066184 53.241175 
L 381.857733 53.241175 
L 382.031488 52.037756 
L 387.888952 52.037756 
L 388.499024 49.149551 
L 391.086039 49.149551 
L 391.441271 48.4275 
L 400.90125 48.4275 
L 400.90125 48.4275 
" style="fill:none;stroke:#2ca02c;stroke-linecap:square;stroke-width:1.5;"/>
   </g>
   <g id="line2d_16">
    <path clip-path="url(#p7339d82125)" d="M 43.78125 301.8675 
L 400.90125 48.4275 
" style="fill:none;stroke:#000000;stroke-dasharray:5.6,2.4;stroke-dashoffset:0;stroke-width:1.5;"/>
   </g>
   <g id="patch_3">
    <path d="M 43.78125 301.8675 
L 43.78125 35.7555 
" style="fill:none;stroke:#000000;stroke-linecap:square;stroke-linejoin:miter;stroke-width:0.8;"/>
   </g>
   <g id="patch_4">
    <path d="M 400.90125 301.8675 
L 400.90125 35.7555 
" style="fill:none;stroke:#000000;stroke-linecap:square;stroke-linejoin:miter;stroke-width:0.8;"/>
   </g>
   <g id="patch_5">
    <path d="M 43.78125 301.8675 
L 400.90125 301.8675 
" style="fill:none;stroke:#000000;stroke-linecap:square;stroke-linejoin:miter;stroke-width:0.8;"/>
   </g>
   <g id="patch_6">
    <path d="M 43.78125 35.7555 
L 400.90125 35.7555 
" style="fill:none;stroke:#000000;stroke-linecap:square;stroke-linejoin:miter;stroke-width:0.8;"/>
   </g>
   <g id="text_15">
    <!-- ROC Curve AdaBoost + RandomOverSampler -->
    <defs>
     <path d="M 39.40625 66.21875 
Q 28.65625 66.21875 22.328125 58.203125 
Q 16.015625 50.203125 16.015625 36.375 
Q 16.015625 22.609375 22.328125 14.59375 
Q 28.65625 6.59375 39.40625 6.59375 
Q 50.140625 6.59375 56.421875 14.59375 
Q 62.703125 22.609375 62.703125 36.375 
Q 62.703125 50.203125 56.421875 58.203125 
Q 50.140625 66.21875 39.40625 66.21875 
M 39.40625 74.21875 
Q 54.734375 74.21875 63.90625 63.9375 
Q 73.09375 53.65625 73.09375 36.375 
Q 73.09375 19.140625 63.90625 8.859375 
Q 54.734375 -1.421875 39.40625 -1.421875 
Q 24.03125 -1.421875 14.8125 8.828125 
Q 5.609375 19.09375 5.609375 36.375 
Q 5.609375 53.65625 14.8125 63.9375 
Q 24.03125 74.21875 39.40625 74.21875 
" id="DejaVuSans-4f"/>
     <path d="M 64.40625 67.28125 
L 64.40625 56.890625 
Q 59.421875 61.53125 53.78125 63.8125 
Q 48.140625 66.109375 41.796875 66.109375 
Q 29.296875 66.109375 22.65625 58.46875 
Q 16.015625 50.828125 16.015625 36.375 
Q 16.015625 21.96875 22.65625 14.328125 
Q 29.296875 6.6875 41.796875 6.6875 
Q 48.140625 6.6875 53.78125 8.984375 
Q 59.421875 11.28125 64.40625 15.921875 
L 64.40625 5.609375 
Q 59.234375 2.09375 53.4375 0.328125 
Q 47.65625 -1.421875 41.21875 -1.421875 
Q 24.65625 -1.421875 15.125 8.703125 
Q 5.609375 18.84375 5.609375 36.375 
Q 5.609375 53.953125 15.125 64.078125 
Q 24.65625 74.21875 41.21875 74.21875 
Q 47.75 74.21875 53.53125 72.484375 
Q 59.328125 70.75 64.40625 67.28125 
" id="DejaVuSans-43"/>
     <path d="M 34.1875 63.1875 
L 20.796875 26.90625 
L 47.609375 26.90625 
z
M 28.609375 72.90625 
L 39.796875 72.90625 
L 67.578125 0 
L 57.328125 0 
L 50.6875 18.703125 
L 17.828125 18.703125 
L 11.1875 0 
L 0.78125 0 
z
" id="DejaVuSans-41"/>
     <path d="M 45.40625 46.390625 
L 45.40625 75.984375 
L 54.390625 75.984375 
L 54.390625 0 
L 45.40625 0 
L 45.40625 8.203125 
Q 42.578125 3.328125 38.25 0.953125 
Q 33.9375 -1.421875 27.875 -1.421875 
Q 17.96875 -1.421875 11.734375 6.484375 
Q 5.515625 14.40625 5.515625 27.296875 
Q 5.515625 40.1875 11.734375 48.09375 
Q 17.96875 56 27.875 56 
Q 33.9375 56 38.25 53.625 
Q 42.578125 51.265625 45.40625 46.390625 
M 14.796875 27.296875 
Q 14.796875 17.390625 18.875 11.75 
Q 22.953125 6.109375 30.078125 6.109375 
Q 37.203125 6.109375 41.296875 11.75 
Q 45.40625 17.390625 45.40625 27.296875 
Q 45.40625 37.203125 41.296875 42.84375 
Q 37.203125 48.484375 30.078125 48.484375 
Q 22.953125 48.484375 18.875 42.84375 
Q 14.796875 37.203125 14.796875 27.296875 
" id="DejaVuSans-64"/>
     <path d="M 19.671875 34.8125 
L 19.671875 8.109375 
L 35.5 8.109375 
Q 43.453125 8.109375 47.28125 11.40625 
Q 51.125 14.703125 51.125 21.484375 
Q 51.125 28.328125 47.28125 31.5625 
Q 43.453125 34.8125 35.5 34.8125 
z
M 19.671875 64.796875 
L 19.671875 42.828125 
L 34.28125 42.828125 
Q 41.5 42.828125 45.03125 45.53125 
Q 48.578125 48.25 48.578125 53.8125 
Q 48.578125 59.328125 45.03125 62.0625 
Q 41.5 64.796875 34.28125 64.796875 
z
M 9.8125 72.90625 
L 35.015625 72.90625 
Q 46.296875 72.90625 52.390625 68.21875 
Q 58.5 63.53125 58.5 54.890625 
Q 58.5 48.1875 55.375 44.234375 
Q 52.25 40.28125 46.1875 39.3125 
Q 53.46875 37.75 57.5 32.78125 
Q 61.53125 27.828125 61.53125 20.40625 
Q 61.53125 10.640625 54.890625 5.3125 
Q 48.25 0 35.984375 0 
L 9.8125 0 
z
" id="DejaVuSans-42"/>
     <path d="M 46 62.703125 
L 46 35.5 
L 73.1875 35.5 
L 73.1875 27.203125 
L 46 27.203125 
L 46 0 
L 37.796875 0 
L 37.796875 27.203125 
L 10.59375 27.203125 
L 10.59375 35.5 
L 37.796875 35.5 
L 37.796875 62.703125 
z
" id="DejaVuSans-2b"/>
     <path d="M 54.890625 33.015625 
L 54.890625 0 
L 45.90625 0 
L 45.90625 32.71875 
Q 45.90625 40.484375 42.875 44.328125 
Q 39.84375 48.1875 33.796875 48.1875 
Q 26.515625 48.1875 22.3125 43.546875 
Q 18.109375 38.921875 18.109375 30.90625 
L 18.109375 0 
L 9.078125 0 
L 9.078125 54.6875 
L 18.109375 54.6875 
L 18.109375 46.1875 
Q 21.34375 51.125 25.703125 53.5625 
Q 30.078125 56 35.796875 56 
Q 45.21875 56 50.046875 50.171875 
Q 54.890625 44.34375 54.890625 33.015625 
" id="DejaVuSans-6e"/>
     <path d="M 52 44.1875 
Q 55.375 50.25 60.0625 53.125 
Q 64.75 56 71.09375 56 
Q 79.640625 56 84.28125 50.015625 
Q 88.921875 44.046875 88.921875 33.015625 
L 88.921875 0 
L 79.890625 0 
L 79.890625 32.71875 
Q 79.890625 40.578125 77.09375 44.375 
Q 74.3125 48.1875 68.609375 48.1875 
Q 61.625 48.1875 57.5625 43.546875 
Q 53.515625 38.921875 53.515625 30.90625 
L 53.515625 0 
L 44.484375 0 
L 44.484375 32.71875 
Q 44.484375 40.625 41.703125 44.40625 
Q 38.921875 48.1875 33.109375 48.1875 
Q 26.21875 48.1875 22.15625 43.53125 
Q 18.109375 38.875 18.109375 30.90625 
L 18.109375 0 
L 9.078125 0 
L 9.078125 54.6875 
L 18.109375 54.6875 
L 18.109375 46.1875 
Q 21.1875 51.21875 25.484375 53.609375 
Q 29.78125 56 35.6875 56 
Q 41.65625 56 45.828125 52.96875 
Q 50 49.953125 52 44.1875 
" id="DejaVuSans-6d"/>
     <path d="M 53.515625 70.515625 
L 53.515625 60.890625 
Q 47.90625 63.578125 42.921875 64.890625 
Q 37.9375 66.21875 33.296875 66.21875 
Q 25.25 66.21875 20.875 63.09375 
Q 16.5 59.96875 16.5 54.203125 
Q 16.5 49.359375 19.40625 46.890625 
Q 22.3125 44.4375 30.421875 42.921875 
L 36.375 41.703125 
Q 47.40625 39.59375 52.65625 34.296875 
Q 57.90625 29 57.90625 20.125 
Q 57.90625 9.515625 50.796875 4.046875 
Q 43.703125 -1.421875 29.984375 -1.421875 
Q 24.8125 -1.421875 18.96875 -0.25 
Q 13.140625 0.921875 6.890625 3.21875 
L 6.890625 13.375 
Q 12.890625 10.015625 18.65625 8.296875 
Q 24.421875 6.59375 29.984375 6.59375 
Q 38.421875 6.59375 43.015625 9.90625 
Q 47.609375 13.234375 47.609375 19.390625 
Q 47.609375 24.75 44.3125 27.78125 
Q 41.015625 30.8125 33.5 32.328125 
L 27.484375 33.5 
Q 16.453125 35.6875 11.515625 40.375 
Q 6.59375 45.0625 6.59375 53.421875 
Q 6.59375 63.09375 13.40625 68.65625 
Q 20.21875 74.21875 32.171875 74.21875 
Q 37.3125 74.21875 42.625 73.28125 
Q 47.953125 72.359375 53.515625 70.515625 
" id="DejaVuSans-53"/>
     <path d="M 18.109375 8.203125 
L 18.109375 -20.796875 
L 9.078125 -20.796875 
L 9.078125 54.6875 
L 18.109375 54.6875 
L 18.109375 46.390625 
Q 20.953125 51.265625 25.265625 53.625 
Q 29.59375 56 35.59375 56 
Q 45.5625 56 51.78125 48.09375 
Q 58.015625 40.1875 58.015625 27.296875 
Q 58.015625 14.40625 51.78125 6.484375 
Q 45.5625 -1.421875 35.59375 -1.421875 
Q 29.59375 -1.421875 25.265625 0.953125 
Q 20.953125 3.328125 18.109375 8.203125 
M 48.6875 27.296875 
Q 48.6875 37.203125 44.609375 42.84375 
Q 40.53125 48.484375 33.40625 48.484375 
Q 26.265625 48.484375 22.1875 42.84375 
Q 18.109375 37.203125 18.109375 27.296875 
Q 18.109375 17.390625 22.1875 11.75 
Q 26.265625 6.109375 33.40625 6.109375 
Q 40.53125 6.109375 44.609375 11.75 
Q 48.6875 17.390625 48.6875 27.296875 
" id="DejaVuSans-70"/>
    </defs>
    <g transform="translate(86.007188 16.318125)scale(0.12 -0.12)">
     <use xlink:href="#DejaVuSans-52"/>
     <use x="69.482422" xlink:href="#DejaVuSans-4f"/>
     <use x="148.193359" xlink:href="#DejaVuSans-43"/>
     <use x="218.017578" xlink:href="#DejaVuSans-20"/>
     <use x="249.804688" xlink:href="#DejaVuSans-43"/>
     <use x="319.628906" xlink:href="#DejaVuSans-75"/>
     <use x="383.007812" xlink:href="#DejaVuSans-72"/>
     <use x="424.121094" xlink:href="#DejaVuSans-76"/>
     <use x="483.300781" xlink:href="#DejaVuSans-65"/>
     <use x="544.824219" xlink:href="#DejaVuSans-20"/>
     <use x="576.611328" xlink:href="#DejaVuSans-41"/>
     <use x="645.003906" xlink:href="#DejaVuSans-64"/>
     <use x="708.480469" xlink:href="#DejaVuSans-61"/>
     <use x="769.759766" xlink:href="#DejaVuSans-42"/>
     <use x="838.363281" xlink:href="#DejaVuSans-6f"/>
     <use x="899.544922" xlink:href="#DejaVuSans-6f"/>
     <use x="960.726562" xlink:href="#DejaVuSans-73"/>
     <use x="1012.826172" xlink:href="#DejaVuSans-74"/>
     <use x="1052.035156" xlink:href="#DejaVuSans-20"/>
     <use x="1083.822266" xlink:href="#DejaVuSans-2b"/>
     <use x="1167.611328" xlink:href="#DejaVuSans-20"/>
     <use x="1199.398438" xlink:href="#DejaVuSans-52"/>
     <use x="1268.849609" xlink:href="#DejaVuSans-61"/>
     <use x="1330.128906" xlink:href="#DejaVuSans-6e"/>
     <use x="1393.507812" xlink:href="#DejaVuSans-64"/>
     <use x="1456.984375" xlink:href="#DejaVuSans-6f"/>
     <use x="1518.166016" xlink:href="#DejaVuSans-6d"/>
     <use x="1615.578125" xlink:href="#DejaVuSans-4f"/>
     <use x="1694.289062" xlink:href="#DejaVuSans-76"/>
     <use x="1753.46875" xlink:href="#DejaVuSans-65"/>
     <use x="1814.992188" xlink:href="#DejaVuSans-72"/>
     <use x="1856.105469" xlink:href="#DejaVuSans-53"/>
     <use x="1919.582031" xlink:href="#DejaVuSans-61"/>
     <use x="1980.861328" xlink:href="#DejaVuSans-6d"/>
     <use x="2078.273438" xlink:href="#DejaVuSans-70"/>
     <use x="2141.75" xlink:href="#DejaVuSans-6c"/>
     <use x="2169.533203" xlink:href="#DejaVuSans-65"/>
     <use x="2231.056641" xlink:href="#DejaVuSans-72"/>
    </g>
    <!-- Train: 12   Test: [1, 2, 4, 6, 8, 10, 12] -->
    <defs>
     <path d="M 11.71875 12.40625 
L 22.015625 12.40625 
L 22.015625 0 
L 11.71875 0 
z
M 11.71875 51.703125 
L 22.015625 51.703125 
L 22.015625 39.3125 
L 11.71875 39.3125 
z
" id="DejaVuSans-3a"/>
     <path d="M 8.59375 75.984375 
L 29.296875 75.984375 
L 29.296875 69 
L 17.578125 69 
L 17.578125 -6.203125 
L 29.296875 -6.203125 
L 29.296875 -13.1875 
L 8.59375 -13.1875 
z
" id="DejaVuSans-5b"/>
     <path d="M 11.71875 12.40625 
L 22.015625 12.40625 
L 22.015625 4 
L 14.015625 -11.625 
L 7.71875 -11.625 
L 11.71875 4 
z
" id="DejaVuSans-2c"/>
     <path d="M 30.421875 75.984375 
L 30.421875 -13.1875 
L 9.71875 -13.1875 
L 9.71875 -6.203125 
L 21.390625 -6.203125 
L 21.390625 69 
L 9.71875 69 
L 9.71875 75.984375 
z
" id="DejaVuSans-5d"/>
    </defs>
    <g transform="translate(111.124688 29.7555)scale(0.12 -0.12)">
     <use xlink:href="#DejaVuSans-54"/>
     <use x="60.865234" xlink:href="#DejaVuSans-72"/>
     <use x="101.978516" xlink:href="#DejaVuSans-61"/>
     <use x="163.257812" xlink:href="#DejaVuSans-69"/>
     <use x="191.041016" xlink:href="#DejaVuSans-6e"/>
     <use x="254.419922" xlink:href="#DejaVuSans-3a"/>
     <use x="288.111328" xlink:href="#DejaVuSans-20"/>
     <use x="319.898438" xlink:href="#DejaVuSans-31"/>
     <use x="383.521484" xlink:href="#DejaVuSans-32"/>
     <use x="447.144531" xlink:href="#DejaVuSans-20"/>
     <use x="478.931641" xlink:href="#DejaVuSans-20"/>
     <use x="510.71875" xlink:href="#DejaVuSans-20"/>
     <use x="542.505859" xlink:href="#DejaVuSans-54"/>
     <use x="603.324219" xlink:href="#DejaVuSans-65"/>
     <use x="664.847656" xlink:href="#DejaVuSans-73"/>
     <use x="716.947266" xlink:href="#DejaVuSans-74"/>
     <use x="756.15625" xlink:href="#DejaVuSans-3a"/>
     <use x="789.847656" xlink:href="#DejaVuSans-20"/>
     <use x="821.634766" xlink:href="#DejaVuSans-5b"/>
     <use x="860.648438" xlink:href="#DejaVuSans-31"/>
     <use x="924.271484" xlink:href="#DejaVuSans-2c"/>
     <use x="956.058594" xlink:href="#DejaVuSans-20"/>
     <use x="987.845703" xlink:href="#DejaVuSans-32"/>
     <use x="1051.46875" xlink:href="#DejaVuSans-2c"/>
     <use x="1083.255859" xlink:href="#DejaVuSans-20"/>
     <use x="1115.042969" xlink:href="#DejaVuSans-34"/>
     <use x="1178.666016" xlink:href="#DejaVuSans-2c"/>
     <use x="1210.453125" xlink:href="#DejaVuSans-20"/>
     <use x="1242.240234" xlink:href="#DejaVuSans-36"/>
     <use x="1305.863281" xlink:href="#DejaVuSans-2c"/>
     <use x="1337.650391" xlink:href="#DejaVuSans-20"/>
     <use x="1369.4375" xlink:href="#DejaVuSans-38"/>
     <use x="1433.060547" xlink:href="#DejaVuSans-2c"/>
     <use x="1464.847656" xlink:href="#DejaVuSans-20"/>
     <use x="1496.634766" xlink:href="#DejaVuSans-31"/>
     <use x="1560.257812" xlink:href="#DejaVuSans-30"/>
     <use x="1623.880859" xlink:href="#DejaVuSans-2c"/>
     <use x="1655.667969" xlink:href="#DejaVuSans-20"/>
     <use x="1687.455078" xlink:href="#DejaVuSans-31"/>
     <use x="1751.078125" xlink:href="#DejaVuSans-32"/>
     <use x="1814.701172" xlink:href="#DejaVuSans-5d"/>
    </g>
   </g>
   <g id="legend_1">
    <g id="patch_7">
     <path d="M 217.087188 296.8675 
L 393.90125 296.8675 
Q 395.90125 296.8675 395.90125 294.8675 
L 395.90125 251.833125 
Q 395.90125 249.833125 393.90125 249.833125 
L 217.087188 249.833125 
Q 215.087188 249.833125 215.087188 251.833125 
L 215.087188 294.8675 
Q 215.087188 296.8675 217.087188 296.8675 
z
" style="fill:#ffffff;opacity:0.8;stroke:#cccccc;stroke-linejoin:miter;"/>
    </g>
    <g id="line2d_17">
     <path d="M 219.087188 257.931562 
L 239.087188 257.931562 
" style="fill:none;stroke:#1f77b4;stroke-linecap:square;stroke-width:1.5;"/>
    </g>
    <g id="line2d_18"/>
    <g id="text_16">
     <!-- ROC curve - 0 (AUC = 0.822) -->
     <defs>
      <path d="M 48.78125 52.59375 
L 48.78125 44.1875 
Q 44.96875 46.296875 41.140625 47.34375 
Q 37.3125 48.390625 33.40625 48.390625 
Q 24.65625 48.390625 19.8125 42.84375 
Q 14.984375 37.3125 14.984375 27.296875 
Q 14.984375 17.28125 19.8125 11.734375 
Q 24.65625 6.203125 33.40625 6.203125 
Q 37.3125 6.203125 41.140625 7.25 
Q 44.96875 8.296875 48.78125 10.40625 
L 48.78125 2.09375 
Q 45.015625 0.34375 40.984375 -0.53125 
Q 36.96875 -1.421875 32.421875 -1.421875 
Q 20.0625 -1.421875 12.78125 6.34375 
Q 5.515625 14.109375 5.515625 27.296875 
Q 5.515625 40.671875 12.859375 48.328125 
Q 20.21875 56 33.015625 56 
Q 37.15625 56 41.109375 55.140625 
Q 45.0625 54.296875 48.78125 52.59375 
" id="DejaVuSans-63"/>
      <path d="M 4.890625 31.390625 
L 31.203125 31.390625 
L 31.203125 23.390625 
L 4.890625 23.390625 
z
" id="DejaVuSans-2d"/>
      <path d="M 31 75.875 
Q 24.46875 64.65625 21.28125 53.65625 
Q 18.109375 42.671875 18.109375 31.390625 
Q 18.109375 20.125 21.3125 9.0625 
Q 24.515625 -2 31 -13.1875 
L 23.1875 -13.1875 
Q 15.875 -1.703125 12.234375 9.375 
Q 8.59375 20.453125 8.59375 31.390625 
Q 8.59375 42.28125 12.203125 53.3125 
Q 15.828125 64.359375 23.1875 75.875 
z
" id="DejaVuSans-28"/>
      <path d="M 8.6875 72.90625 
L 18.609375 72.90625 
L 18.609375 28.609375 
Q 18.609375 16.890625 22.84375 11.734375 
Q 27.09375 6.59375 36.625 6.59375 
Q 46.09375 6.59375 50.34375 11.734375 
Q 54.59375 16.890625 54.59375 28.609375 
L 54.59375 72.90625 
L 64.5 72.90625 
L 64.5 27.390625 
Q 64.5 13.140625 57.4375 5.859375 
Q 50.390625 -1.421875 36.625 -1.421875 
Q 22.796875 -1.421875 15.734375 5.859375 
Q 8.6875 13.140625 8.6875 27.390625 
z
" id="DejaVuSans-55"/>
      <path d="M 10.59375 45.40625 
L 73.1875 45.40625 
L 73.1875 37.203125 
L 10.59375 37.203125 
z
M 10.59375 25.484375 
L 73.1875 25.484375 
L 73.1875 17.1875 
L 10.59375 17.1875 
z
" id="DejaVuSans-3d"/>
      <path d="M 8.015625 75.875 
L 15.828125 75.875 
Q 23.140625 64.359375 26.78125 53.3125 
Q 30.421875 42.28125 30.421875 31.390625 
Q 30.421875 20.453125 26.78125 9.375 
Q 23.140625 -1.703125 15.828125 -13.1875 
L 8.015625 -13.1875 
Q 14.5 -2 17.703125 9.0625 
Q 20.90625 20.125 20.90625 31.390625 
Q 20.90625 42.671875 17.703125 53.65625 
Q 14.5 64.65625 8.015625 75.875 
" id="DejaVuSans-29"/>
     </defs>
     <g transform="translate(247.087188 261.431562)scale(0.1 -0.1)">
      <use xlink:href="#DejaVuSans-52"/>
      <use x="69.482422" xlink:href="#DejaVuSans-4f"/>
      <use x="148.193359" xlink:href="#DejaVuSans-43"/>
      <use x="218.017578" xlink:href="#DejaVuSans-20"/>
      <use x="249.804688" xlink:href="#DejaVuSans-63"/>
      <use x="304.785156" xlink:href="#DejaVuSans-75"/>
      <use x="368.164062" xlink:href="#DejaVuSans-72"/>
      <use x="409.277344" xlink:href="#DejaVuSans-76"/>
      <use x="468.457031" xlink:href="#DejaVuSans-65"/>
      <use x="529.980469" xlink:href="#DejaVuSans-20"/>
      <use x="561.767578" xlink:href="#DejaVuSans-2d"/>
      <use x="597.851562" xlink:href="#DejaVuSans-20"/>
      <use x="629.638672" xlink:href="#DejaVuSans-30"/>
      <use x="693.261719" xlink:href="#DejaVuSans-20"/>
      <use x="725.048828" xlink:href="#DejaVuSans-28"/>
      <use x="764.0625" xlink:href="#DejaVuSans-41"/>
      <use x="832.470703" xlink:href="#DejaVuSans-55"/>
      <use x="905.664062" xlink:href="#DejaVuSans-43"/>
      <use x="975.488281" xlink:href="#DejaVuSans-20"/>
      <use x="1007.275391" xlink:href="#DejaVuSans-3d"/>
      <use x="1091.064453" xlink:href="#DejaVuSans-20"/>
      <use x="1122.851562" xlink:href="#DejaVuSans-30"/>
      <use x="1186.474609" xlink:href="#DejaVuSans-2e"/>
      <use x="1218.261719" xlink:href="#DejaVuSans-38"/>
      <use x="1281.884766" xlink:href="#DejaVuSans-32"/>
      <use x="1345.507812" xlink:href="#DejaVuSans-32"/>
      <use x="1409.130859" xlink:href="#DejaVuSans-29"/>
     </g>
    </g>
    <g id="line2d_19">
     <path d="M 219.087188 272.609687 
L 239.087188 272.609687 
" style="fill:none;stroke:#ff7f0e;stroke-linecap:square;stroke-width:1.5;"/>
    </g>
    <g id="line2d_20"/>
    <g id="text_17">
     <!-- ROC curve - 1 (AUC = 0.845) -->
     <defs>
      <path d="M 10.796875 72.90625 
L 49.515625 72.90625 
L 49.515625 64.59375 
L 19.828125 64.59375 
L 19.828125 46.734375 
Q 21.96875 47.46875 24.109375 47.828125 
Q 26.265625 48.1875 28.421875 48.1875 
Q 40.625 48.1875 47.75 41.5 
Q 54.890625 34.8125 54.890625 23.390625 
Q 54.890625 11.625 47.5625 5.09375 
Q 40.234375 -1.421875 26.90625 -1.421875 
Q 22.3125 -1.421875 17.546875 -0.640625 
Q 12.796875 0.140625 7.71875 1.703125 
L 7.71875 11.625 
Q 12.109375 9.234375 16.796875 8.0625 
Q 21.484375 6.890625 26.703125 6.890625 
Q 35.15625 6.890625 40.078125 11.328125 
Q 45.015625 15.765625 45.015625 23.390625 
Q 45.015625 31 40.078125 35.4375 
Q 35.15625 39.890625 26.703125 39.890625 
Q 22.75 39.890625 18.8125 39.015625 
Q 14.890625 38.140625 10.796875 36.28125 
z
" id="DejaVuSans-35"/>
     </defs>
     <g transform="translate(247.087188 276.109687)scale(0.1 -0.1)">
      <use xlink:href="#DejaVuSans-52"/>
      <use x="69.482422" xlink:href="#DejaVuSans-4f"/>
      <use x="148.193359" xlink:href="#DejaVuSans-43"/>
      <use x="218.017578" xlink:href="#DejaVuSans-20"/>
      <use x="249.804688" xlink:href="#DejaVuSans-63"/>
      <use x="304.785156" xlink:href="#DejaVuSans-75"/>
      <use x="368.164062" xlink:href="#DejaVuSans-72"/>
      <use x="409.277344" xlink:href="#DejaVuSans-76"/>
      <use x="468.457031" xlink:href="#DejaVuSans-65"/>
      <use x="529.980469" xlink:href="#DejaVuSans-20"/>
      <use x="561.767578" xlink:href="#DejaVuSans-2d"/>
      <use x="597.851562" xlink:href="#DejaVuSans-20"/>
      <use x="629.638672" xlink:href="#DejaVuSans-31"/>
      <use x="693.261719" xlink:href="#DejaVuSans-20"/>
      <use x="725.048828" xlink:href="#DejaVuSans-28"/>
      <use x="764.0625" xlink:href="#DejaVuSans-41"/>
      <use x="832.470703" xlink:href="#DejaVuSans-55"/>
      <use x="905.664062" xlink:href="#DejaVuSans-43"/>
      <use x="975.488281" xlink:href="#DejaVuSans-20"/>
      <use x="1007.275391" xlink:href="#DejaVuSans-3d"/>
      <use x="1091.064453" xlink:href="#DejaVuSans-20"/>
      <use x="1122.851562" xlink:href="#DejaVuSans-30"/>
      <use x="1186.474609" xlink:href="#DejaVuSans-2e"/>
      <use x="1218.261719" xlink:href="#DejaVuSans-38"/>
      <use x="1281.884766" xlink:href="#DejaVuSans-34"/>
      <use x="1345.507812" xlink:href="#DejaVuSans-35"/>
      <use x="1409.130859" xlink:href="#DejaVuSans-29"/>
     </g>
    </g>
    <g id="line2d_21">
     <path d="M 219.087188 287.287812 
L 239.087188 287.287812 
" style="fill:none;stroke:#2ca02c;stroke-linecap:square;stroke-width:1.5;"/>
    </g>
    <g id="line2d_22"/>
    <g id="text_18">
     <!-- ROC curve - 2 (AUC = 0.809) -->
     <defs>
      <path d="M 10.984375 1.515625 
L 10.984375 10.5 
Q 14.703125 8.734375 18.5 7.8125 
Q 22.3125 6.890625 25.984375 6.890625 
Q 35.75 6.890625 40.890625 13.453125 
Q 46.046875 20.015625 46.78125 33.40625 
Q 43.953125 29.203125 39.59375 26.953125 
Q 35.25 24.703125 29.984375 24.703125 
Q 19.046875 24.703125 12.671875 31.3125 
Q 6.296875 37.9375 6.296875 49.421875 
Q 6.296875 60.640625 12.9375 67.421875 
Q 19.578125 74.21875 30.609375 74.21875 
Q 43.265625 74.21875 49.921875 64.515625 
Q 56.59375 54.828125 56.59375 36.375 
Q 56.59375 19.140625 48.40625 8.859375 
Q 40.234375 -1.421875 26.421875 -1.421875 
Q 22.703125 -1.421875 18.890625 -0.6875 
Q 15.09375 0.046875 10.984375 1.515625 
M 30.609375 32.421875 
Q 37.25 32.421875 41.125 36.953125 
Q 45.015625 41.5 45.015625 49.421875 
Q 45.015625 57.28125 41.125 61.84375 
Q 37.25 66.40625 30.609375 66.40625 
Q 23.96875 66.40625 20.09375 61.84375 
Q 16.21875 57.28125 16.21875 49.421875 
Q 16.21875 41.5 20.09375 36.953125 
Q 23.96875 32.421875 30.609375 32.421875 
" id="DejaVuSans-39"/>
     </defs>
     <g transform="translate(247.087188 290.787812)scale(0.1 -0.1)">
      <use xlink:href="#DejaVuSans-52"/>
      <use x="69.482422" xlink:href="#DejaVuSans-4f"/>
      <use x="148.193359" xlink:href="#DejaVuSans-43"/>
      <use x="218.017578" xlink:href="#DejaVuSans-20"/>
      <use x="249.804688" xlink:href="#DejaVuSans-63"/>
      <use x="304.785156" xlink:href="#DejaVuSans-75"/>
      <use x="368.164062" xlink:href="#DejaVuSans-72"/>
      <use x="409.277344" xlink:href="#DejaVuSans-76"/>
      <use x="468.457031" xlink:href="#DejaVuSans-65"/>
      <use x="529.980469" xlink:href="#DejaVuSans-20"/>
      <use x="561.767578" xlink:href="#DejaVuSans-2d"/>
      <use x="597.851562" xlink:href="#DejaVuSans-20"/>
      <use x="629.638672" xlink:href="#DejaVuSans-32"/>
      <use x="693.261719" xlink:href="#DejaVuSans-20"/>
      <use x="725.048828" xlink:href="#DejaVuSans-28"/>
      <use x="764.0625" xlink:href="#DejaVuSans-41"/>
      <use x="832.470703" xlink:href="#DejaVuSans-55"/>
      <use x="905.664062" xlink:href="#DejaVuSans-43"/>
      <use x="975.488281" xlink:href="#DejaVuSans-20"/>
      <use x="1007.275391" xlink:href="#DejaVuSans-3d"/>
      <use x="1091.064453" xlink:href="#DejaVuSans-20"/>
      <use x="1122.851562" xlink:href="#DejaVuSans-30"/>
      <use x="1186.474609" xlink:href="#DejaVuSans-2e"/>
      <use x="1218.261719" xlink:href="#DejaVuSans-38"/>
      <use x="1281.884766" xlink:href="#DejaVuSans-30"/>
      <use x="1345.507812" xlink:href="#DejaVuSans-39"/>
      <use x="1409.130859" xlink:href="#DejaVuSans-29"/>
     </g>
    </g>
   </g>
  </g>
 </g>
 <defs>
  <clipPath id="p7339d82125">
   <rect height="266.112" width="357.12" x="43.78125" y="35.7555"/>
  </clipPath>
 </defs>
</svg>
