<?xml version="1.0" encoding="utf-8" standalone="no"?>
<!DOCTYPE svg PUBLIC "-//W3C//DTD SVG 1.1//EN"
  "http://www.w3.org/Graphics/SVG/1.1/DTD/svg11.dtd">
<!-- Created with matplotlib (http://matplotlib.org/) -->
<svg height="339pt" version="1.1" viewBox="0 0 416 339" width="416pt" xmlns="http://www.w3.org/2000/svg" xmlns:xlink="http://www.w3.org/1999/xlink">
 <defs>
  <style type="text/css">
*{stroke-linecap:butt;stroke-linejoin:round;}
  </style>
 </defs>
 <g id="figure_1">
  <g id="patch_1">
   <path d="M 0 339.42375 
L 416.052813 339.42375 
L 416.052813 0 
L 0 0 
z
" style="fill:#ffffff;"/>
  </g>
  <g id="axes_1">
   <g id="patch_2">
    <path d="M 43.78125 301.8675 
L 400.90125 301.8675 
L 400.90125 35.7555 
L 43.78125 35.7555 
z
" style="fill:#ffffff;"/>
   </g>
   <g id="matplotlib.axis_1">
    <g id="xtick_1">
     <g id="line2d_1">
      <defs>
       <path d="M 0 0 
L 0 3.5 
" id="mc52dd4718a" style="stroke:#000000;stroke-width:0.8;"/>
      </defs>
      <g>
       <use style="stroke:#000000;stroke-width:0.8;" x="43.78125" xlink:href="#mc52dd4718a" y="301.8675"/>
      </g>
     </g>
     <g id="text_1">
      <!-- 0.0 -->
      <defs>
       <path d="M 31.78125 66.40625 
Q 24.171875 66.40625 20.328125 58.90625 
Q 16.5 51.421875 16.5 36.375 
Q 16.5 21.390625 20.328125 13.890625 
Q 24.171875 6.390625 31.78125 6.390625 
Q 39.453125 6.390625 43.28125 13.890625 
Q 47.125 21.390625 47.125 36.375 
Q 47.125 51.421875 43.28125 58.90625 
Q 39.453125 66.40625 31.78125 66.40625 
M 31.78125 74.21875 
Q 44.046875 74.21875 50.515625 64.515625 
Q 56.984375 54.828125 56.984375 36.375 
Q 56.984375 17.96875 50.515625 8.265625 
Q 44.046875 -1.421875 31.78125 -1.421875 
Q 19.53125 -1.421875 13.0625 8.265625 
Q 6.59375 17.96875 6.59375 36.375 
Q 6.59375 54.828125 13.0625 64.515625 
Q 19.53125 74.21875 31.78125 74.21875 
" id="DejaVuSans-30"/>
       <path d="M 10.6875 12.40625 
L 21 12.40625 
L 21 0 
L 10.6875 0 
z
" id="DejaVuSans-2e"/>
      </defs>
      <g transform="translate(35.829688 316.465937)scale(0.1 -0.1)">
       <use xlink:href="#DejaVuSans-30"/>
       <use x="63.623047" xlink:href="#DejaVuSans-2e"/>
       <use x="95.410156" xlink:href="#DejaVuSans-30"/>
      </g>
     </g>
    </g>
    <g id="xtick_2">
     <g id="line2d_2">
      <g>
       <use style="stroke:#000000;stroke-width:0.8;" x="115.20525" xlink:href="#mc52dd4718a" y="301.8675"/>
      </g>
     </g>
     <g id="text_2">
      <!-- 0.2 -->
      <defs>
       <path d="M 19.1875 8.296875 
L 53.609375 8.296875 
L 53.609375 0 
L 7.328125 0 
L 7.328125 8.296875 
Q 12.9375 14.109375 22.625 23.890625 
Q 32.328125 33.6875 34.8125 36.53125 
Q 39.546875 41.84375 41.421875 45.53125 
Q 43.3125 49.21875 43.3125 52.78125 
Q 43.3125 58.59375 39.234375 62.25 
Q 35.15625 65.921875 28.609375 65.921875 
Q 23.96875 65.921875 18.8125 64.3125 
Q 13.671875 62.703125 7.8125 59.421875 
L 7.8125 69.390625 
Q 13.765625 71.78125 18.9375 73 
Q 24.125 74.21875 28.421875 74.21875 
Q 39.75 74.21875 46.484375 68.546875 
Q 53.21875 62.890625 53.21875 53.421875 
Q 53.21875 48.921875 51.53125 44.890625 
Q 49.859375 40.875 45.40625 35.40625 
Q 44.1875 33.984375 37.640625 27.21875 
Q 31.109375 20.453125 19.1875 8.296875 
" id="DejaVuSans-32"/>
      </defs>
      <g transform="translate(107.253688 316.465937)scale(0.1 -0.1)">
       <use xlink:href="#DejaVuSans-30"/>
       <use x="63.623047" xlink:href="#DejaVuSans-2e"/>
       <use x="95.410156" xlink:href="#DejaVuSans-32"/>
      </g>
     </g>
    </g>
    <g id="xtick_3">
     <g id="line2d_3">
      <g>
       <use style="stroke:#000000;stroke-width:0.8;" x="186.62925" xlink:href="#mc52dd4718a" y="301.8675"/>
      </g>
     </g>
     <g id="text_3">
      <!-- 0.4 -->
      <defs>
       <path d="M 37.796875 64.3125 
L 12.890625 25.390625 
L 37.796875 25.390625 
z
M 35.203125 72.90625 
L 47.609375 72.90625 
L 47.609375 25.390625 
L 58.015625 25.390625 
L 58.015625 17.1875 
L 47.609375 17.1875 
L 47.609375 0 
L 37.796875 0 
L 37.796875 17.1875 
L 4.890625 17.1875 
L 4.890625 26.703125 
z
" id="DejaVuSans-34"/>
      </defs>
      <g transform="translate(178.677688 316.465937)scale(0.1 -0.1)">
       <use xlink:href="#DejaVuSans-30"/>
       <use x="63.623047" xlink:href="#DejaVuSans-2e"/>
       <use x="95.410156" xlink:href="#DejaVuSans-34"/>
      </g>
     </g>
    </g>
    <g id="xtick_4">
     <g id="line2d_4">
      <g>
       <use style="stroke:#000000;stroke-width:0.8;" x="258.05325" xlink:href="#mc52dd4718a" y="301.8675"/>
      </g>
     </g>
     <g id="text_4">
      <!-- 0.6 -->
      <defs>
       <path d="M 33.015625 40.375 
Q 26.375 40.375 22.484375 35.828125 
Q 18.609375 31.296875 18.609375 23.390625 
Q 18.609375 15.53125 22.484375 10.953125 
Q 26.375 6.390625 33.015625 6.390625 
Q 39.65625 6.390625 43.53125 10.953125 
Q 47.40625 15.53125 47.40625 23.390625 
Q 47.40625 31.296875 43.53125 35.828125 
Q 39.65625 40.375 33.015625 40.375 
M 52.59375 71.296875 
L 52.59375 62.3125 
Q 48.875 64.0625 45.09375 64.984375 
Q 41.3125 65.921875 37.59375 65.921875 
Q 27.828125 65.921875 22.671875 59.328125 
Q 17.53125 52.734375 16.796875 39.40625 
Q 19.671875 43.65625 24.015625 45.921875 
Q 28.375 48.1875 33.59375 48.1875 
Q 44.578125 48.1875 50.953125 41.515625 
Q 57.328125 34.859375 57.328125 23.390625 
Q 57.328125 12.15625 50.6875 5.359375 
Q 44.046875 -1.421875 33.015625 -1.421875 
Q 20.359375 -1.421875 13.671875 8.265625 
Q 6.984375 17.96875 6.984375 36.375 
Q 6.984375 53.65625 15.1875 63.9375 
Q 23.390625 74.21875 37.203125 74.21875 
Q 40.921875 74.21875 44.703125 73.484375 
Q 48.484375 72.75 52.59375 71.296875 
" id="DejaVuSans-36"/>
      </defs>
      <g transform="translate(250.101688 316.465937)scale(0.1 -0.1)">
       <use xlink:href="#DejaVuSans-30"/>
       <use x="63.623047" xlink:href="#DejaVuSans-2e"/>
       <use x="95.410156" xlink:href="#DejaVuSans-36"/>
      </g>
     </g>
    </g>
    <g id="xtick_5">
     <g id="line2d_5">
      <g>
       <use style="stroke:#000000;stroke-width:0.8;" x="329.47725" xlink:href="#mc52dd4718a" y="301.8675"/>
      </g>
     </g>
     <g id="text_5">
      <!-- 0.8 -->
      <defs>
       <path d="M 31.78125 34.625 
Q 24.75 34.625 20.71875 30.859375 
Q 16.703125 27.09375 16.703125 20.515625 
Q 16.703125 13.921875 20.71875 10.15625 
Q 24.75 6.390625 31.78125 6.390625 
Q 38.8125 6.390625 42.859375 10.171875 
Q 46.921875 13.96875 46.921875 20.515625 
Q 46.921875 27.09375 42.890625 30.859375 
Q 38.875 34.625 31.78125 34.625 
M 21.921875 38.8125 
Q 15.578125 40.375 12.03125 44.71875 
Q 8.5 49.078125 8.5 55.328125 
Q 8.5 64.0625 14.71875 69.140625 
Q 20.953125 74.21875 31.78125 74.21875 
Q 42.671875 74.21875 48.875 69.140625 
Q 55.078125 64.0625 55.078125 55.328125 
Q 55.078125 49.078125 51.53125 44.71875 
Q 48 40.375 41.703125 38.8125 
Q 48.828125 37.15625 52.796875 32.3125 
Q 56.78125 27.484375 56.78125 20.515625 
Q 56.78125 9.90625 50.3125 4.234375 
Q 43.84375 -1.421875 31.78125 -1.421875 
Q 19.734375 -1.421875 13.25 4.234375 
Q 6.78125 9.90625 6.78125 20.515625 
Q 6.78125 27.484375 10.78125 32.3125 
Q 14.796875 37.15625 21.921875 38.8125 
M 18.3125 54.390625 
Q 18.3125 48.734375 21.84375 45.5625 
Q 25.390625 42.390625 31.78125 42.390625 
Q 38.140625 42.390625 41.71875 45.5625 
Q 45.3125 48.734375 45.3125 54.390625 
Q 45.3125 60.0625 41.71875 63.234375 
Q 38.140625 66.40625 31.78125 66.40625 
Q 25.390625 66.40625 21.84375 63.234375 
Q 18.3125 60.0625 18.3125 54.390625 
" id="DejaVuSans-38"/>
      </defs>
      <g transform="translate(321.525688 316.465937)scale(0.1 -0.1)">
       <use xlink:href="#DejaVuSans-30"/>
       <use x="63.623047" xlink:href="#DejaVuSans-2e"/>
       <use x="95.410156" xlink:href="#DejaVuSans-38"/>
      </g>
     </g>
    </g>
    <g id="xtick_6">
     <g id="line2d_6">
      <g>
       <use style="stroke:#000000;stroke-width:0.8;" x="400.90125" xlink:href="#mc52dd4718a" y="301.8675"/>
      </g>
     </g>
     <g id="text_6">
      <!-- 1.0 -->
      <defs>
       <path d="M 12.40625 8.296875 
L 28.515625 8.296875 
L 28.515625 63.921875 
L 10.984375 60.40625 
L 10.984375 69.390625 
L 28.421875 72.90625 
L 38.28125 72.90625 
L 38.28125 8.296875 
L 54.390625 8.296875 
L 54.390625 0 
L 12.40625 0 
z
" id="DejaVuSans-31"/>
      </defs>
      <g transform="translate(392.949688 316.465937)scale(0.1 -0.1)">
       <use xlink:href="#DejaVuSans-31"/>
       <use x="63.623047" xlink:href="#DejaVuSans-2e"/>
       <use x="95.410156" xlink:href="#DejaVuSans-30"/>
      </g>
     </g>
    </g>
    <g id="text_7">
     <!-- False Positive Rate -->
     <defs>
      <path d="M 9.8125 72.90625 
L 51.703125 72.90625 
L 51.703125 64.59375 
L 19.671875 64.59375 
L 19.671875 43.109375 
L 48.578125 43.109375 
L 48.578125 34.8125 
L 19.671875 34.8125 
L 19.671875 0 
L 9.8125 0 
z
" id="DejaVuSans-46"/>
      <path d="M 34.28125 27.484375 
Q 23.390625 27.484375 19.1875 25 
Q 14.984375 22.515625 14.984375 16.5 
Q 14.984375 11.71875 18.140625 8.90625 
Q 21.296875 6.109375 26.703125 6.109375 
Q 34.1875 6.109375 38.703125 11.40625 
Q 43.21875 16.703125 43.21875 25.484375 
L 43.21875 27.484375 
z
M 52.203125 31.203125 
L 52.203125 0 
L 43.21875 0 
L 43.21875 8.296875 
Q 40.140625 3.328125 35.546875 0.953125 
Q 30.953125 -1.421875 24.3125 -1.421875 
Q 15.921875 -1.421875 10.953125 3.296875 
Q 6 8.015625 6 15.921875 
Q 6 25.140625 12.171875 29.828125 
Q 18.359375 34.515625 30.609375 34.515625 
L 43.21875 34.515625 
L 43.21875 35.40625 
Q 43.21875 41.609375 39.140625 45 
Q 35.0625 48.390625 27.6875 48.390625 
Q 23 48.390625 18.546875 47.265625 
Q 14.109375 46.140625 10.015625 43.890625 
L 10.015625 52.203125 
Q 14.9375 54.109375 19.578125 55.046875 
Q 24.21875 56 28.609375 56 
Q 40.484375 56 46.34375 49.84375 
Q 52.203125 43.703125 52.203125 31.203125 
" id="DejaVuSans-61"/>
      <path d="M 9.421875 75.984375 
L 18.40625 75.984375 
L 18.40625 0 
L 9.421875 0 
z
" id="DejaVuSans-6c"/>
      <path d="M 44.28125 53.078125 
L 44.28125 44.578125 
Q 40.484375 46.53125 36.375 47.5 
Q 32.28125 48.484375 27.875 48.484375 
Q 21.1875 48.484375 17.84375 46.4375 
Q 14.5 44.390625 14.5 40.28125 
Q 14.5 37.15625 16.890625 35.375 
Q 19.28125 33.59375 26.515625 31.984375 
L 29.59375 31.296875 
Q 39.15625 29.25 43.1875 25.515625 
Q 47.21875 21.78125 47.21875 15.09375 
Q 47.21875 7.46875 41.1875 3.015625 
Q 35.15625 -1.421875 24.609375 -1.421875 
Q 20.21875 -1.421875 15.453125 -0.5625 
Q 10.6875 0.296875 5.421875 2 
L 5.421875 11.28125 
Q 10.40625 8.6875 15.234375 7.390625 
Q 20.0625 6.109375 24.8125 6.109375 
Q 31.15625 6.109375 34.5625 8.28125 
Q 37.984375 10.453125 37.984375 14.40625 
Q 37.984375 18.0625 35.515625 20.015625 
Q 33.0625 21.96875 24.703125 23.78125 
L 21.578125 24.515625 
Q 13.234375 26.265625 9.515625 29.90625 
Q 5.8125 33.546875 5.8125 39.890625 
Q 5.8125 47.609375 11.28125 51.796875 
Q 16.75 56 26.8125 56 
Q 31.78125 56 36.171875 55.265625 
Q 40.578125 54.546875 44.28125 53.078125 
" id="DejaVuSans-73"/>
      <path d="M 56.203125 29.59375 
L 56.203125 25.203125 
L 14.890625 25.203125 
Q 15.484375 15.921875 20.484375 11.0625 
Q 25.484375 6.203125 34.421875 6.203125 
Q 39.59375 6.203125 44.453125 7.46875 
Q 49.3125 8.734375 54.109375 11.28125 
L 54.109375 2.78125 
Q 49.265625 0.734375 44.1875 -0.34375 
Q 39.109375 -1.421875 33.890625 -1.421875 
Q 20.796875 -1.421875 13.15625 6.1875 
Q 5.515625 13.8125 5.515625 26.8125 
Q 5.515625 40.234375 12.765625 48.109375 
Q 20.015625 56 32.328125 56 
Q 43.359375 56 49.78125 48.890625 
Q 56.203125 41.796875 56.203125 29.59375 
M 47.21875 32.234375 
Q 47.125 39.59375 43.09375 43.984375 
Q 39.0625 48.390625 32.421875 48.390625 
Q 24.90625 48.390625 20.390625 44.140625 
Q 15.875 39.890625 15.1875 32.171875 
z
" id="DejaVuSans-65"/>
      <path id="DejaVuSans-20"/>
      <path d="M 19.671875 64.796875 
L 19.671875 37.40625 
L 32.078125 37.40625 
Q 38.96875 37.40625 42.71875 40.96875 
Q 46.484375 44.53125 46.484375 51.125 
Q 46.484375 57.671875 42.71875 61.234375 
Q 38.96875 64.796875 32.078125 64.796875 
z
M 9.8125 72.90625 
L 32.078125 72.90625 
Q 44.34375 72.90625 50.609375 67.359375 
Q 56.890625 61.8125 56.890625 51.125 
Q 56.890625 40.328125 50.609375 34.8125 
Q 44.34375 29.296875 32.078125 29.296875 
L 19.671875 29.296875 
L 19.671875 0 
L 9.8125 0 
z
" id="DejaVuSans-50"/>
      <path d="M 30.609375 48.390625 
Q 23.390625 48.390625 19.1875 42.75 
Q 14.984375 37.109375 14.984375 27.296875 
Q 14.984375 17.484375 19.15625 11.84375 
Q 23.34375 6.203125 30.609375 6.203125 
Q 37.796875 6.203125 41.984375 11.859375 
Q 46.1875 17.53125 46.1875 27.296875 
Q 46.1875 37.015625 41.984375 42.703125 
Q 37.796875 48.390625 30.609375 48.390625 
M 30.609375 56 
Q 42.328125 56 49.015625 48.375 
Q 55.71875 40.765625 55.71875 27.296875 
Q 55.71875 13.875 49.015625 6.21875 
Q 42.328125 -1.421875 30.609375 -1.421875 
Q 18.84375 -1.421875 12.171875 6.21875 
Q 5.515625 13.875 5.515625 27.296875 
Q 5.515625 40.765625 12.171875 48.375 
Q 18.84375 56 30.609375 56 
" id="DejaVuSans-6f"/>
      <path d="M 9.421875 54.6875 
L 18.40625 54.6875 
L 18.40625 0 
L 9.421875 0 
z
M 9.421875 75.984375 
L 18.40625 75.984375 
L 18.40625 64.59375 
L 9.421875 64.59375 
z
" id="DejaVuSans-69"/>
      <path d="M 18.3125 70.21875 
L 18.3125 54.6875 
L 36.8125 54.6875 
L 36.8125 47.703125 
L 18.3125 47.703125 
L 18.3125 18.015625 
Q 18.3125 11.328125 20.140625 9.421875 
Q 21.96875 7.515625 27.59375 7.515625 
L 36.8125 7.515625 
L 36.8125 0 
L 27.59375 0 
Q 17.1875 0 13.234375 3.875 
Q 9.28125 7.765625 9.28125 18.015625 
L 9.28125 47.703125 
L 2.6875 47.703125 
L 2.6875 54.6875 
L 9.28125 54.6875 
L 9.28125 70.21875 
z
" id="DejaVuSans-74"/>
      <path d="M 2.984375 54.6875 
L 12.5 54.6875 
L 29.59375 8.796875 
L 46.6875 54.6875 
L 56.203125 54.6875 
L 35.6875 0 
L 23.484375 0 
z
" id="DejaVuSans-76"/>
      <path d="M 44.390625 34.1875 
Q 47.5625 33.109375 50.5625 29.59375 
Q 53.5625 26.078125 56.59375 19.921875 
L 66.609375 0 
L 56 0 
L 46.6875 18.703125 
Q 43.0625 26.03125 39.671875 28.421875 
Q 36.28125 30.8125 30.421875 30.8125 
L 19.671875 30.8125 
L 19.671875 0 
L 9.8125 0 
L 9.8125 72.90625 
L 32.078125 72.90625 
Q 44.578125 72.90625 50.734375 67.671875 
Q 56.890625 62.453125 56.890625 51.90625 
Q 56.890625 45.015625 53.6875 40.46875 
Q 50.484375 35.9375 44.390625 34.1875 
M 19.671875 64.796875 
L 19.671875 38.921875 
L 32.078125 38.921875 
Q 39.203125 38.921875 42.84375 42.21875 
Q 46.484375 45.515625 46.484375 51.90625 
Q 46.484375 58.296875 42.84375 61.546875 
Q 39.203125 64.796875 32.078125 64.796875 
z
" id="DejaVuSans-52"/>
     </defs>
     <g transform="translate(175.135781 330.144062)scale(0.1 -0.1)">
      <use xlink:href="#DejaVuSans-46"/>
      <use x="57.378906" xlink:href="#DejaVuSans-61"/>
      <use x="118.658203" xlink:href="#DejaVuSans-6c"/>
      <use x="146.441406" xlink:href="#DejaVuSans-73"/>
      <use x="198.541016" xlink:href="#DejaVuSans-65"/>
      <use x="260.064453" xlink:href="#DejaVuSans-20"/>
      <use x="291.851562" xlink:href="#DejaVuSans-50"/>
      <use x="352.107422" xlink:href="#DejaVuSans-6f"/>
      <use x="413.289062" xlink:href="#DejaVuSans-73"/>
      <use x="465.388672" xlink:href="#DejaVuSans-69"/>
      <use x="493.171875" xlink:href="#DejaVuSans-74"/>
      <use x="532.380859" xlink:href="#DejaVuSans-69"/>
      <use x="560.164062" xlink:href="#DejaVuSans-76"/>
      <use x="619.34375" xlink:href="#DejaVuSans-65"/>
      <use x="680.867188" xlink:href="#DejaVuSans-20"/>
      <use x="712.654297" xlink:href="#DejaVuSans-52"/>
      <use x="782.105469" xlink:href="#DejaVuSans-61"/>
      <use x="843.384766" xlink:href="#DejaVuSans-74"/>
      <use x="882.59375" xlink:href="#DejaVuSans-65"/>
     </g>
    </g>
   </g>
   <g id="matplotlib.axis_2">
    <g id="ytick_1">
     <g id="line2d_7">
      <defs>
       <path d="M 0 0 
L -3.5 0 
" id="mab82ce8613" style="stroke:#000000;stroke-width:0.8;"/>
      </defs>
      <g>
       <use style="stroke:#000000;stroke-width:0.8;" x="43.78125" xlink:href="#mab82ce8613" y="301.8675"/>
      </g>
     </g>
     <g id="text_8">
      <!-- 0.0 -->
      <g transform="translate(20.878125 305.666719)scale(0.1 -0.1)">
       <use xlink:href="#DejaVuSans-30"/>
       <use x="63.623047" xlink:href="#DejaVuSans-2e"/>
       <use x="95.410156" xlink:href="#DejaVuSans-30"/>
      </g>
     </g>
    </g>
    <g id="ytick_2">
     <g id="line2d_8">
      <g>
       <use style="stroke:#000000;stroke-width:0.8;" x="43.78125" xlink:href="#mab82ce8613" y="251.1795"/>
      </g>
     </g>
     <g id="text_9">
      <!-- 0.2 -->
      <g transform="translate(20.878125 254.978719)scale(0.1 -0.1)">
       <use xlink:href="#DejaVuSans-30"/>
       <use x="63.623047" xlink:href="#DejaVuSans-2e"/>
       <use x="95.410156" xlink:href="#DejaVuSans-32"/>
      </g>
     </g>
    </g>
    <g id="ytick_3">
     <g id="line2d_9">
      <g>
       <use style="stroke:#000000;stroke-width:0.8;" x="43.78125" xlink:href="#mab82ce8613" y="200.4915"/>
      </g>
     </g>
     <g id="text_10">
      <!-- 0.4 -->
      <g transform="translate(20.878125 204.290719)scale(0.1 -0.1)">
       <use xlink:href="#DejaVuSans-30"/>
       <use x="63.623047" xlink:href="#DejaVuSans-2e"/>
       <use x="95.410156" xlink:href="#DejaVuSans-34"/>
      </g>
     </g>
    </g>
    <g id="ytick_4">
     <g id="line2d_10">
      <g>
       <use style="stroke:#000000;stroke-width:0.8;" x="43.78125" xlink:href="#mab82ce8613" y="149.8035"/>
      </g>
     </g>
     <g id="text_11">
      <!-- 0.6 -->
      <g transform="translate(20.878125 153.602719)scale(0.1 -0.1)">
       <use xlink:href="#DejaVuSans-30"/>
       <use x="63.623047" xlink:href="#DejaVuSans-2e"/>
       <use x="95.410156" xlink:href="#DejaVuSans-36"/>
      </g>
     </g>
    </g>
    <g id="ytick_5">
     <g id="line2d_11">
      <g>
       <use style="stroke:#000000;stroke-width:0.8;" x="43.78125" xlink:href="#mab82ce8613" y="99.1155"/>
      </g>
     </g>
     <g id="text_12">
      <!-- 0.8 -->
      <g transform="translate(20.878125 102.914719)scale(0.1 -0.1)">
       <use xlink:href="#DejaVuSans-30"/>
       <use x="63.623047" xlink:href="#DejaVuSans-2e"/>
       <use x="95.410156" xlink:href="#DejaVuSans-38"/>
      </g>
     </g>
    </g>
    <g id="ytick_6">
     <g id="line2d_12">
      <g>
       <use style="stroke:#000000;stroke-width:0.8;" x="43.78125" xlink:href="#mab82ce8613" y="48.4275"/>
      </g>
     </g>
     <g id="text_13">
      <!-- 1.0 -->
      <g transform="translate(20.878125 52.226719)scale(0.1 -0.1)">
       <use xlink:href="#DejaVuSans-31"/>
       <use x="63.623047" xlink:href="#DejaVuSans-2e"/>
       <use x="95.410156" xlink:href="#DejaVuSans-30"/>
      </g>
     </g>
    </g>
    <g id="text_14">
     <!-- True Positive Rate -->
     <defs>
      <path d="M -0.296875 72.90625 
L 61.375 72.90625 
L 61.375 64.59375 
L 35.5 64.59375 
L 35.5 0 
L 25.59375 0 
L 25.59375 64.59375 
L -0.296875 64.59375 
z
" id="DejaVuSans-54"/>
      <path d="M 41.109375 46.296875 
Q 39.59375 47.171875 37.8125 47.578125 
Q 36.03125 48 33.890625 48 
Q 26.265625 48 22.1875 43.046875 
Q 18.109375 38.09375 18.109375 28.8125 
L 18.109375 0 
L 9.078125 0 
L 9.078125 54.6875 
L 18.109375 54.6875 
L 18.109375 46.1875 
Q 20.953125 51.171875 25.484375 53.578125 
Q 30.03125 56 36.53125 56 
Q 37.453125 56 38.578125 55.875 
Q 39.703125 55.765625 41.0625 55.515625 
z
" id="DejaVuSans-72"/>
      <path d="M 8.5 21.578125 
L 8.5 54.6875 
L 17.484375 54.6875 
L 17.484375 21.921875 
Q 17.484375 14.15625 20.5 10.265625 
Q 23.53125 6.390625 29.59375 6.390625 
Q 36.859375 6.390625 41.078125 11.03125 
Q 45.3125 15.671875 45.3125 23.6875 
L 45.3125 54.6875 
L 54.296875 54.6875 
L 54.296875 0 
L 45.3125 0 
L 45.3125 8.40625 
Q 42.046875 3.421875 37.71875 1 
Q 33.40625 -1.421875 27.6875 -1.421875 
Q 18.265625 -1.421875 13.375 4.4375 
Q 8.5 10.296875 8.5 21.578125 
M 31.109375 56 
z
" id="DejaVuSans-75"/>
     </defs>
     <g transform="translate(14.798438 214.357594)rotate(-90)scale(0.1 -0.1)">
      <use xlink:href="#DejaVuSans-54"/>
      <use x="60.865234" xlink:href="#DejaVuSans-72"/>
      <use x="101.978516" xlink:href="#DejaVuSans-75"/>
      <use x="165.357422" xlink:href="#DejaVuSans-65"/>
      <use x="226.880859" xlink:href="#DejaVuSans-20"/>
      <use x="258.667969" xlink:href="#DejaVuSans-50"/>
      <use x="318.923828" xlink:href="#DejaVuSans-6f"/>
      <use x="380.105469" xlink:href="#DejaVuSans-73"/>
      <use x="432.205078" xlink:href="#DejaVuSans-69"/>
      <use x="459.988281" xlink:href="#DejaVuSans-74"/>
      <use x="499.197266" xlink:href="#DejaVuSans-69"/>
      <use x="526.980469" xlink:href="#DejaVuSans-76"/>
      <use x="586.160156" xlink:href="#DejaVuSans-65"/>
      <use x="647.683594" xlink:href="#DejaVuSans-20"/>
      <use x="679.470703" xlink:href="#DejaVuSans-52"/>
      <use x="748.921875" xlink:href="#DejaVuSans-61"/>
      <use x="810.201172" xlink:href="#DejaVuSans-74"/>
      <use x="849.410156" xlink:href="#DejaVuSans-65"/>
     </g>
    </g>
   </g>
   <g id="line2d_13">
    <path clip-path="url(#p4c1958d1ee)" d="M 43.78125 301.8675 
L 44.202118 296.813141 
L 44.356565 296.813141 
L 44.650014 292.962201 
L 44.773572 290.555363 
L 44.831489 290.555363 
L 44.951186 289.111261 
L 45.067021 289.111261 
L 45.186717 288.148526 
L 45.939646 278.039808 
L 45.993703 277.799124 
L 46.094093 276.836389 
L 46.198345 276.355021 
L 46.260124 275.392286 
L 46.433877 275.392286 
L 46.584462 272.744765 
L 46.700298 272.744765 
L 46.827716 272.263397 
L 46.982163 269.85656 
L 48.148238 253.008697 
L 48.464854 251.083226 
L 48.665635 246.750919 
L 48.839388 246.750919 
L 48.870278 246.269551 
L 51.785464 219.31297 
L 51.928328 214.980662 
L 52.044163 214.980662 
L 52.194749 213.53656 
L 52.345334 211.61109 
L 53.368545 201.502372 
L 53.465075 201.502372 
L 53.526854 200.539637 
L 53.642689 200.539637 
L 54.218004 195.485278 
L 54.353145 195.485278 
L 54.635011 192.597073 
L 54.743123 192.115705 
L 54.89757 192.115705 
L 55.140824 191.634338 
L 55.515358 186.820662 
L 55.835836 186.339295 
L 55.932365 186.339295 
L 56.017311 184.413825 
L 56.133146 184.413825 
L 56.480652 183.210406 
L 56.994188 182.729038 
L 57.052106 182.729038 
L 57.472974 178.878098 
L 57.781868 178.878098 
L 57.92087 177.915363 
L 58.171846 177.915363 
L 58.237486 175.989893 
L 58.391933 175.989893 
L 58.936359 170.213483 
L 59.0715 170.213483 
L 59.210502 169.250748 
L 59.577314 169.250748 
L 59.608203 168.76938 
L 59.76265 168.76938 
L 59.785817 167.806645 
L 60.017487 167.806645 
L 60.15649 166.84391 
L 60.195101 166.84391 
L 60.349548 164.437073 
L 60.507857 163.474338 
L 60.604386 163.474338 
L 60.673887 162.99297 
L 60.789722 162.99297 
L 60.820612 162.511603 
L 61.090894 162.511603 
L 61.17584 161.789551 
L 61.619875 161.789551 
L 61.770461 161.548868 
L 61.982825 161.548868 
L 62.013714 161.0675 
L 62.206773 161.0675 
L 62.283997 159.864081 
L 62.438444 159.864081 
L 62.507945 159.382714 
L 62.604474 159.382714 
L 62.805255 157.457244 
L 62.863173 157.457244 
L 62.917229 156.013141 
L 63.843911 156.013141 
L 63.944302 155.050406 
L 64.098749 155.050406 
L 64.237751 154.087671 
L 64.500311 154.087671 
L 64.600701 153.124936 
L 64.658619 153.124936 
L 64.704953 152.402885 
L 64.820788 152.402885 
L 64.855539 150.958782 
L 65.299574 150.958782 
L 65.322741 149.996047 
L 65.670246 149.996047 
L 65.778359 149.514679 
L 65.990724 149.514679 
L 66.195366 145.423056 
L 66.446342 145.423056 
L 66.623956 143.256902 
L 66.797709 143.256902 
L 66.8981 142.294167 
L 66.994629 142.294167 
L 67.040963 141.572115 
L 67.349857 141.572115 
L 67.492721 140.850064 
L 67.550638 140.850064 
L 67.739836 140.60938 
L 68.627906 140.60938 
L 68.797798 139.887329 
L 71.550815 139.887329 
L 71.631899 137.721175 
L 71.921487 137.721175 
L 72.068212 137.239808 
L 72.975588 137.239808 
L 73.060534 136.517756 
L 73.176369 136.517756 
L 73.222703 135.795705 
L 73.338538 135.795705 
L 73.411901 135.314338 
L 73.875242 135.314338 
L 73.906131 134.83297 
L 74.157107 134.83297 
L 74.203441 134.110919 
L 74.473724 134.110919 
L 74.678366 133.629551 
L 74.832813 133.629551 
L 75.006566 132.426132 
L 75.296154 132.426132 
L 75.466045 132.185449 
L 75.987304 132.185449 
L 76.114723 131.704081 
L 76.790428 131.704081 
L 76.821317 131.222714 
L 76.937153 131.222714 
L 77.103183 128.334509 
L 77.778889 128.334509 
L 77.944919 125.446303 
L 78.601319 125.446303 
L 78.728738 124.964936 
L 79.134161 124.964936 
L 79.300191 124.483568 
L 79.609085 124.483568 
L 79.763532 123.28015 
L 80.825355 123.28015 
L 80.871689 122.558098 
L 81.026136 122.558098 
L 81.242362 121.113996 
L 82.014597 121.113996 
L 82.045486 120.391944 
L 83.281062 120.391944 
L 83.385314 119.669893 
L 83.501149 119.669893 
L 83.613123 119.429209 
L 83.786876 119.429209 
L 83.918156 119.188526 
L 85.250261 119.188526 
L 85.342929 117.744423 
L 85.497376 117.744423 
L 85.647962 117.263056 
L 85.744491 117.263056 
L 85.779242 117.022372 
L 86.725229 117.022372 
L 87.030262 115.578269 
L 89.964754 115.578269 
L 90.038117 114.134167 
L 91.717727 114.134167 
L 91.972565 113.412115 
L 93.671482 113.412115 
L 93.756427 112.690064 
L 94.864584 112.690064 
L 94.94953 111.968013 
L 97.94194 111.968013 
L 98.026886 111.245962 
L 98.219945 111.245962 
L 98.254695 109.801859 
L 99.5868 109.801859 
L 99.621551 109.561175 
L 99.737386 109.561175 
L 99.868666 108.117073 
L 100.019252 106.67297 
L 102.953744 106.67297 
L 103.085024 105.228868 
L 104.783941 105.228868 
L 104.895915 103.784765 
L 105.861208 103.784765 
L 105.980905 101.618611 
L 106.772446 101.618611 
L 107.679822 101.377927 
L 107.87288 101.377927 
L 107.946243 99.933825 
L 109.703077 99.933825 
L 109.776439 99.693141 
L 109.907719 98.249038 
L 111.104683 98.249038 
L 111.243685 97.286303 
L 111.301603 97.286303 
L 114.440738 97.04562 
L 115.174361 97.04562 
L 115.278612 96.323568 
L 120.773063 96.323568 
L 120.788508 96.082885 
L 125.26747 96.082885 
L 125.391027 95.360833 
L 127.514673 95.360833 
L 127.638231 94.638782 
L 129.5109 94.638782 
L 133.596023 94.157415 
L 136.202315 94.157415 
L 136.294983 93.916731 
L 137.376112 93.916731 
L 137.777674 93.676047 
L 141.136896 93.676047 
L 142.484446 93.435363 
L 144.086833 93.435363 
L 144.662148 93.194679 
L 145.1641 93.194679 
L 146.557984 92.713312 
L 146.612041 92.472628 
L 151.535038 92.472628 
L 152.426969 92.231944 
L 152.948228 92.231944 
L 153.156731 91.991261 
L 154.6317 91.991261 
L 154.735951 91.269209 
L 155.604715 91.269209 
L 155.71669 91.028526 
L 156.855736 91.028526 
L 156.890486 90.787842 
L 159.438861 90.787842 
L 161.852095 90.065791 
L 163.801988 90.065791 
L 163.90624 89.343739 
L 165.103204 89.343739 
L 169.470192 89.103056 
L 170.107286 89.103056 
L 170.972189 88.862372 
L 172.207764 88.862372 
L 172.261821 88.621688 
L 173.709761 88.621688 
L 174.223297 88.381004 
L 176.250414 88.381004 
L 176.497529 88.140321 
L 176.551585 87.899637 
L 176.918397 87.899637 
L 177.084427 87.418269 
L 181.910895 87.418269 
L 182.408987 87.177585 
L 185.343479 87.177585 
L 185.397535 85.733483 
L 190.266476 85.733483 
L 190.301227 84.28938 
L 190.417062 84.28938 
L 190.521314 83.567329 
L 190.656455 83.567329 
L 191.598581 83.326645 
L 192.718322 83.326645 
L 192.830296 81.882543 
L 194.741577 81.882543 
L 194.845829 81.160491 
L 196.467522 81.160491 
L 196.618108 79.716389 
L 203.26705 79.716389 
L 203.3018 78.272286 
L 207.491174 78.272286 
L 207.637899 75.384081 
L 216.974218 75.384081 
L 217.028274 75.143397 
L 217.171138 74.421346 
L 217.827537 74.421346 
L 217.920206 74.180662 
L 217.96654 73.458611 
L 219.839209 73.458611 
L 219.885543 72.73656 
L 221.874048 72.73656 
L 222.04394 72.495876 
L 222.700339 72.495876 
L 222.850925 72.255192 
L 223.06329 72.255192 
L 223.175264 72.014509 
L 223.599993 72.014509 
L 223.673355 71.773825 
L 228.364682 71.773825 
L 228.445766 69.607671 
L 234.944123 69.607671 
L 234.990457 68.88562 
L 237.125686 68.88562 
L 237.36894 68.404252 
L 237.446163 68.404252 
L 237.504081 64.793996 
L 237.658528 64.793996 
L 237.677834 61.183739 
L 240.187597 61.183739 
L 240.299571 60.943056 
L 244.871201 60.943056 
L 245.021787 60.702372 
L 245.774716 60.702372 
L 245.913718 59.739637 
L 246.002525 59.258269 
L 252.257628 59.258269 
L 252.369602 59.017585 
L 256.114941 59.017585 
L 256.219192 58.295534 
L 257.447046 58.295534 
L 257.589909 57.573483 
L 259.346743 57.573483 
L 259.470301 56.851432 
L 262.512906 56.851432 
L 262.678937 56.610748 
L 267.899244 56.610748 
L 267.953301 56.370064 
L 268.764147 56.370064 
L 268.914733 56.12938 
L 272.872437 56.12938 
L 272.926493 55.888697 
L 281.961641 55.888697 
L 282.15856 54.925962 
L 287.239866 54.925962 
L 287.2862 54.20391 
L 289.39054 54.20391 
L 289.444596 53.963226 
L 289.907937 53.963226 
L 290.058523 53.722543 
L 308.939665 53.722543 
L 309.082528 53.000491 
L 313.32982 53.000491 
L 313.434071 52.27844 
L 325.357377 52.27844 
L 325.488657 52.037756 
L 329.427055 52.037756 
L 329.654864 51.797073 
L 336.91001 51.797073 
L 337.04129 51.556389 
L 338.354089 51.556389 
L 338.477647 50.834338 
L 358.652282 50.834338 
L 358.741089 50.35297 
L 358.818313 50.35297 
L 358.918703 49.390235 
L 363.397665 49.390235 
L 363.486472 48.908868 
L 399.383809 48.908868 
L 399.549839 48.4275 
L 400.90125 48.4275 
L 400.90125 48.4275 
" style="fill:none;stroke:#1f77b4;stroke-linecap:square;stroke-width:1.5;"/>
   </g>
   <g id="line2d_14">
    <path clip-path="url(#p4c1958d1ee)" d="M 43.78125 301.8675 
L 43.858474 301.8675 
L 43.935699 301.8675 
L 44.314098 296.572457 
L 44.545771 296.572457 
L 44.711803 296.09109 
L 44.943476 296.09109 
L 45.055451 293.443568 
L 45.202177 292.962201 
L 45.457018 289.592628 
L 45.59216 289.592628 
L 45.924225 285.982372 
L 46.155898 285.982372 
L 46.2254 285.501004 
L 46.341236 285.501004 
L 46.588354 281.650064 
L 46.877945 281.650064 
L 47.418515 274.429551 
L 47.762164 272.263397 
L 47.862555 270.097244 
L 48.044032 269.615876 
L 48.159869 269.615876 
L 48.387681 264.561517 
L 48.669549 263.117415 
L 48.746774 263.117415 
L 48.851027 262.636047 
L 49.206258 258.303739 
L 49.349123 257.581688 
L 49.68891 252.286645 
L 49.804747 252.286645 
L 49.835637 251.805278 
L 50.465015 248.435705 
L 50.901332 243.140662 
L 50.978556 243.140662 
L 51.090532 242.899979 
L 51.171617 240.733825 
L 51.507543 240.011774 
L 52.457402 227.736902 
L 53.013417 223.885962 
L 53.133115 222.201175 
L 53.364788 222.201175 
L 53.692991 219.31297 
L 53.766354 219.072286 
L 54.955609 211.61109 
L 55.090751 209.204252 
L 55.225894 209.204252 
L 55.326286 208.241517 
L 56.70474 198.132799 
L 56.890078 197.651432 
L 56.951858 196.688697 
L 57.125612 196.688697 
L 57.395897 193.319124 
L 57.538762 192.837756 
L 57.693211 192.837756 
L 57.843798 190.190235 
L 58.22992 190.190235 
L 58.689405 186.339295 
L 58.982857 183.45109 
L 59.542733 179.359466 
L 59.728072 178.878098 
L 59.836186 178.396731 
L 59.894104 178.396731 
L 60.508037 174.545791 
L 60.585262 174.545791 
L 60.743572 173.583056 
L 60.820796 173.583056 
L 63.013967 161.308184 
L 63.149109 161.308184 
L 63.288113 160.345449 
L 63.886601 160.345449 
L 64.110552 159.864081 
L 64.508257 159.864081 
L 64.662706 158.660662 
L 64.855767 158.660662 
L 64.925268 158.179295 
L 65.041105 158.179295 
L 65.160803 157.21656 
L 65.334557 157.21656 
L 65.562369 155.772457 
L 65.794042 155.772457 
L 66.241943 149.996047 
L 66.338473 149.996047 
L 66.504506 149.514679 
L 66.601036 149.514679 
L 66.96399 147.589209 
L 67.253582 147.589209 
L 67.454365 146.867158 
L 67.570201 146.867158 
L 67.921572 144.460321 
L 67.991074 143.978953 
L 68.114633 142.053483 
L 68.419669 140.60938 
L 68.574117 140.60938 
L 68.825097 139.405962 
L 68.883015 139.405962 
L 68.913904 138.924594 
L 69.28072 138.924594 
L 69.75565 137.721175 
L 70.180383 137.721175 
L 70.249885 137.239808 
L 70.500864 137.239808 
L 70.767288 136.277073 
L 70.948765 134.351603 
L 71.161132 134.351603 
L 71.192022 133.870235 
L 71.481613 133.870235 
L 71.589727 133.388868 
L 71.97971 132.426132 
L 72.42375 131.222714 
L 72.601366 130.259979 
L 72.929569 130.259979 
L 73.037683 127.371774 
L 73.257772 126.890406 
L 74.068628 126.890406 
L 74.188325 125.927671 
L 74.497223 125.927671 
L 74.643949 125.446303 
L 74.875622 125.446303 
L 75.362135 123.28015 
L 75.520445 123.28015 
L 75.551335 122.798782 
L 75.898844 122.798782 
L 75.976068 121.595363 
L 76.883454 121.595363 
L 77.049486 121.113996 
L 77.416302 121.113996 
L 77.536 120.151261 
L 77.806285 120.151261 
L 77.987762 119.429209 
L 78.605556 119.429209 
L 79.09207 116.059637 
L 79.536109 116.059637 
L 79.667391 114.615534 
L 80.227267 114.615534 
L 80.335381 114.134167 
L 80.497552 113.412115 
L 80.574777 113.412115 
L 81.003372 111.245962 
L 81.794921 111.245962 
L 81.864423 110.764594 
L 82.482217 110.764594 
L 82.737058 107.876389 
L 82.887645 107.635705 
L 82.957147 107.154338 
L 83.941757 107.154338 
L 83.972647 106.67297 
L 86.17354 106.67297 
L 86.3666 102.82203 
L 86.470853 102.099979 
L 86.856975 102.099979 
L 86.976673 101.137244 
L 87.420712 101.137244 
L 87.830001 100.174509 
L 88.042368 100.174509 
L 88.386016 99.933825 
L 88.772138 99.933825 
L 88.918864 99.452457 
L 88.996089 99.452457 
L 89.277957 97.767671 
L 89.471018 97.767671 
L 89.617744 97.286303 
L 89.926642 97.286303 
L 90.069507 96.804936 
L 90.281873 96.804936 
L 90.532852 95.601517 
L 91.853388 95.601517 
L 92.069616 94.638782 
L 92.243371 94.638782 
L 92.370791 94.157415 
L 92.563852 94.157415 
L 92.671966 93.676047 
L 93.03492 93.435363 
L 95.25512 93.435363 
L 95.286009 92.953996 
L 95.517682 92.953996 
L 95.621935 92.231944 
L 96.316954 92.231944 
L 96.533182 91.269209 
L 97.150977 91.269209 
L 97.4174 91.028526 
L 102.240059 91.028526 
L 102.440842 90.065791 
L 103.502677 90.065791 
L 103.761378 89.343739 
L 104.726682 89.343739 
L 104.989245 86.455534 
L 105.510509 86.455534 
L 105.618623 85.974167 
L 105.73446 85.974167 
L 105.807823 85.733483 
L 106.078108 85.733483 
L 106.112859 85.492799 
L 108.680567 85.492799 
L 108.850461 84.048697 
L 110.109217 84.048697 
L 110.356335 83.808013 
L 113.144133 83.808013 
L 113.317888 82.604594 
L 114.88168 82.604594 
L 115.148104 82.36391 
L 119.704339 82.36391 
L 120.12135 81.882543 
L 120.777757 81.882543 
L 120.866565 81.401175 
L 121.901371 81.401175 
L 122.082848 80.679124 
L 122.275909 80.679124 
L 122.414912 79.716389 
L 122.762422 79.716389 
L 122.990234 79.475705 
L 127.546468 79.475705 
L 127.61597 78.994338 
L 128.986702 78.994338 
L 129.017592 78.51297 
L 130.832363 78.51297 
L 130.921171 78.031603 
L 132.716636 78.031603 
L 132.751387 77.790919 
L 134.979309 77.790919 
L 135.010199 77.309551 
L 135.357708 77.309551 
L 135.469683 77.068868 
L 140.431346 77.068868 
L 140.543321 75.624765 
L 140.659158 75.624765 
L 140.859941 74.902714 
L 142.53957 74.902714 
L 142.651545 73.458611 
L 145.122723 73.458611 
L 145.273311 73.217927 
L 145.350535 73.217927 
L 145.570624 72.495876 
L 145.663293 71.051774 
L 151.860545 71.051774 
L 152.16172 70.570406 
L 161.830205 70.570406 
L 163.235687 70.329722 
L 163.382413 69.848355 
L 166.645141 69.848355 
L 168.575749 69.366987 
L 170.641499 69.366987 
L 174.471826 68.644936 
L 175.993145 68.644936 
L 180.267511 68.404252 
L 188.341313 68.404252 
L 188.464872 67.682201 
L 189.758379 67.682201 
L 189.986191 67.441517 
L 190.874271 67.441517 
L 195.183388 66.238098 
L 201.376778 66.238098 
L 201.488753 65.997415 
L 202.68573 65.997415 
L 202.708898 65.034679 
L 208.574085 65.034679 
L 208.956345 64.553312 
L 223.053644 64.553312 
L 224.517045 64.312628 
L 225.057615 64.312628 
L 228.860913 64.071944 
L 231.127447 64.071944 
L 231.664156 63.831261 
L 238.317031 63.831261 
L 238.4097 62.868526 
L 240.900184 62.868526 
L 241.243833 62.627842 
L 243.595313 62.627842 
L 243.668676 62.387158 
L 247.04724 62.387158 
L 247.232578 61.905791 
L 250.155519 61.905791 
L 250.267494 61.665107 
L 251.464471 61.665107 
L 251.64981 61.183739 
L 252.074543 61.183739 
L 252.186519 59.739637 
L 261.221764 59.739637 
L 261.256515 58.295534 
L 261.681248 58.295534 
L 261.78164 57.332799 
L 266.025116 57.332799 
L 267.407432 56.851432 
L 272.195339 56.851432 
L 272.689575 56.370064 
L 274.083474 56.370064 
L 274.620183 56.12938 
L 275.025611 56.12938 
L 275.14917 55.407329 
L 276.172392 55.407329 
L 276.207143 54.444594 
L 286.655593 54.444594 
L 287.172996 53.241175 
L 289.933765 53.241175 
L 290.39325 53.000491 
L 299.212267 53.000491 
L 299.243157 52.519124 
L 313.143534 52.519124 
L 313.216897 51.075021 
L 317.958471 51.075021 
L 318.109058 50.834338 
L 321.661377 50.834338 
L 321.773352 50.593654 
L 335.619672 50.593654 
L 335.801149 49.871603 
L 343.909703 49.871603 
L 344.110486 48.4275 
L 400.90125 48.4275 
L 400.90125 48.4275 
" style="fill:none;stroke:#ff7f0e;stroke-linecap:square;stroke-width:1.5;"/>
   </g>
   <g id="line2d_15">
    <path clip-path="url(#p4c1958d1ee)" d="M 43.78125 301.8675 
L 43.87778 301.8675 
L 44.016784 299.701346 
L 44.182816 298.01656 
L 44.236873 296.572457 
L 44.468546 296.572457 
L 44.700219 294.16562 
L 45.124953 291.758782 
L 45.341181 290.796047 
L 45.518797 287.426474 
L 45.557409 287.426474 
L 45.642356 285.501004 
L 45.758193 285.501004 
L 46.144314 279.48391 
L 46.333514 274.429551 
L 46.526575 274.429551 
L 46.79686 272.022714 
L 46.881806 270.097244 
L 46.947447 270.097244 
L 47.016949 269.615876 
L 47.673356 262.395363 
L 48.159869 255.17485 
L 49.905138 244.103397 
L 50.001669 244.103397 
L 50.306705 240.011774 
L 50.731439 237.604936 
L 50.808663 237.604936 
L 51.017169 236.160833 
L 51.063503 234.235363 
L 51.353094 233.513312 
L 51.696743 229.662372 
L 51.812579 229.662372 
L 52.136921 228.218269 
L 52.167811 227.736902 
L 52.399484 227.736902 
L 52.909164 225.811432 
L 52.986389 225.811432 
L 55.110058 212.333141 
L 55.195004 210.407671 
L 55.778048 208.241517 
L 55.808938 207.76015 
L 55.963386 207.76015 
L 56.152586 205.112628 
L 56.430593 201.983739 
L 56.700878 201.983739 
L 57.002053 201.502372 
L 57.40362 196.448013 
L 57.573513 195.00391 
L 57.650738 195.00391 
L 57.81677 194.522543 
L 57.932606 194.522543 
L 58.036859 193.800491 
L 58.519511 193.800491 
L 58.600597 192.837756 
L 58.677821 192.837756 
L 59.229975 189.708868 
L 59.886382 189.708868 
L 60.094887 188.024081 
L 60.287948 188.024081 
L 60.396062 187.542714 
L 60.550511 187.542714 
L 60.689515 186.579979 
L 60.782184 185.135876 
L 61.160583 182.969722 
L 61.392256 182.969722 
L 61.515815 181.044252 
L 61.708876 181.044252 
L 61.820851 179.359466 
L 62.264891 179.359466 
L 62.585372 176.471261 
L 62.732098 173.583056 
L 63.044856 172.620321 
L 63.191582 172.138953 
L 63.291974 171.176218 
L 63.330586 171.176218 
L 63.485035 168.76938 
L 63.515925 168.288013 
L 63.670373 168.288013 
L 63.739875 167.806645 
L 64.473506 167.806645 
L 64.620232 167.325278 
L 64.697457 167.325278 
L 64.86735 165.881175 
L 64.905962 165.881175 
L 64.967742 164.91844 
L 65.442671 159.623397 
L 65.790181 159.623397 
L 65.890572 158.660662 
L 65.960074 158.179295 
L 66.083633 156.253825 
L 66.315306 156.253825 
L 66.492922 152.884252 
L 66.70915 152.884252 
L 66.925378 151.921517 
L 67.118439 151.921517 
L 67.265165 151.44015 
L 68.384918 151.44015 
L 68.531644 150.958782 
L 68.724705 150.958782 
L 68.825097 149.996047 
L 69.307749 149.996047 
L 69.338638 149.514679 
L 69.608923 149.514679 
L 69.701593 148.070577 
L 69.832874 146.626474 
L 70.103159 146.626474 
L 70.319387 144.460321 
L 70.408195 144.460321 
L 70.608978 142.53485 
L 70.917876 142.53485 
L 71.076185 141.572115 
L 71.307858 141.572115 
L 71.489336 140.850064 
L 71.794372 140.850064 
L 71.863873 140.368697 
L 71.97971 140.368697 
L 72.246134 139.165278 
L 72.767398 139.165278 
L 72.875512 138.68391 
L 73.161242 138.68391 
L 73.25005 138.202543 
L 73.43925 137.961859 
L 73.63231 135.555021 
L 74.308023 135.555021 
L 74.416137 135.073654 
L 74.64781 135.073654 
L 74.6787 134.592286 
L 74.833148 134.592286 
L 74.99532 132.666816 
L 75.18838 132.666816 
L 75.273327 131.944765 
L 75.350551 131.944765 
L 75.458665 131.463397 
L 75.960624 131.463397 
L 76.103489 130.741346 
L 76.952956 130.741346 
L 76.976123 129.778611 
L 77.246408 129.778611 
L 77.381551 128.575192 
L 77.767673 128.575192 
L 77.94915 127.853141 
L 78.312104 126.409038 
L 78.389328 126.409038 
L 78.493581 125.686987 
L 78.609418 125.686987 
L 78.810201 123.761517 
L 79.196322 123.761517 
L 79.258102 122.317415 
L 79.528387 122.317415 
L 79.678974 120.873312 
L 79.852729 120.873312 
L 80.119153 120.632628 
L 80.33152 120.632628 
L 80.377855 119.910577 
L 80.74467 119.910577 
L 80.845062 118.947842 
L 80.960898 118.947842 
L 81.069012 118.466474 
L 81.686807 118.466474 
L 81.794921 117.985107 
L 83.242877 117.985107 
L 83.273767 117.503739 
L 83.795031 117.503739 
L 83.895422 116.541004 
L 84.157985 116.059637 
L 84.737167 116.059637 
L 84.768057 115.578269 
L 85.134873 115.578269 
L 85.242987 115.096902 
L 85.397435 115.096902 
L 85.88781 113.171432 
L 86.795195 113.171432 
L 87.293292 111.727329 
L 88.68333 111.727329 
L 88.880252 111.005278 
L 88.93817 111.005278 
L 88.96906 110.52391 
L 89.316569 110.52391 
L 89.833972 109.079808 
L 91.069561 109.079808 
L 91.208565 108.117073 
L 92.173869 108.117073 
L 92.20862 106.67297 
L 92.826415 106.67297 
L 92.973141 106.191603 
L 93.343818 105.950919 
L 93.729939 105.950919 
L 93.830331 104.988184 
L 94.390207 104.988184 
L 94.575546 104.506816 
L 96.23973 104.506816 
L 96.355566 103.303397 
L 97.011973 103.303397 
L 97.154838 101.377927 
L 99.046834 101.377927 
L 99.243756 99.211774 
L 99.629877 99.211774 
L 99.737991 98.730406 
L 99.888579 98.489722 
L 100.487067 98.489722 
L 100.599042 98.249038 
L 101.101 98.249038 
L 101.205253 97.526987 
L 101.996803 97.526987 
L 102.151251 96.323568 
L 103.147445 96.323568 
L 103.579901 94.879466 
L 104.579956 94.879466 
L 104.803907 94.398098 
L 105.267252 94.398098 
L 105.726737 93.194679 
L 107.058857 93.194679 
L 107.205583 92.713312 
L 107.804071 92.713312 
L 108.109107 92.472628 
L 108.178609 91.991261 
L 110.765624 91.991261 
L 111.074521 90.547158 
L 111.225109 90.306474 
L 112.113188 90.306474 
L 112.221302 89.825107 
L 114.924153 89.825107 
L 115.074741 89.584423 
L 115.789066 89.584423 
L 115.874013 88.862372 
L 116.935847 88.862372 
L 117.240883 88.621688 
L 117.472556 88.621688 
L 117.630866 87.658953 
L 122.044236 87.658953 
L 122.187101 86.936902 
L 123.480608 86.936902 
L 123.743171 86.455534 
L 123.878313 86.455534 
L 124.028901 86.21485 
L 124.453634 86.21485 
L 125.218155 84.530064 
L 126.975008 84.530064 
L 127.102429 84.048697 
L 129.322628 84.048697 
L 129.511827 82.604594 
L 131.04473 82.604594 
L 133.20315 82.36391 
L 133.508186 82.123226 
L 133.546798 82.123226 
L 133.64719 81.160491 
L 135.597104 81.160491 
L 135.747691 80.919808 
L 137.639687 80.919808 
L 137.882943 79.235021 
L 138.056698 79.235021 
L 138.438958 78.994338 
L 140.369566 78.994338 
L 140.690047 76.828184 
L 144.6671 76.828184 
L 145.551318 76.5875 
L 146.169113 76.5875 
L 146.339006 75.143397 
L 146.705822 75.143397 
L 146.728989 74.180662 
L 146.941356 74.180662 
L 151.041967 73.217927 
L 152.316169 73.217927 
L 152.424283 72.73656 
L 153.061383 72.73656 
L 153.204248 72.014509 
L 153.725512 72.014509 
L 153.810459 71.292457 
L 156.061548 71.292457 
L 156.208274 70.570406 
L 156.420641 70.570406 
L 156.559645 69.607671 
L 157.853152 69.607671 
L 157.957405 68.88562 
L 158.594506 68.88562 
L 158.914987 68.163568 
L 159.14666 68.163568 
L 159.447834 67.682201 
L 161.436361 67.682201 
L 161.679617 67.200833 
L 164.536917 67.200833 
L 164.803341 66.96015 
L 166.448219 66.96015 
L 166.629696 65.997415 
L 166.70692 65.997415 
L 166.818896 65.756731 
L 169.035234 65.756731 
L 169.066123 65.034679 
L 169.490857 65.034679 
L 169.718669 64.793996 
L 173.155151 64.793996 
L 173.305738 64.553312 
L 175.413962 64.553312 
L 175.556827 63.831261 
L 175.742166 63.349893 
L 183.781217 63.349893 
L 183.924082 61.424423 
L 194.774099 61.424423 
L 194.882213 60.702372 
L 199.12955 60.702372 
L 199.187469 59.017585 
L 206.921484 59.017585 
L 206.967819 58.295534 
L 212.713308 58.295534 
L 212.821422 57.814167 
L 216.006925 57.814167 
L 216.196125 57.573483 
L 217.335184 57.573483 
L 217.381518 56.851432 
L 220.586327 56.851432 
L 220.709886 56.12938 
L 226.115589 56.12938 
L 226.258454 55.407329 
L 233.922967 55.407329 
L 234.150779 53.963226 
L 239.961909 53.963226 
L 240.008243 53.241175 
L 242.614564 53.241175 
L 242.830792 52.27844 
L 246.170744 52.27844 
L 246.533698 52.037756 
L 280.821296 52.037756 
L 281.002773 51.315705 
L 297.598279 51.315705 
L 297.721838 50.593654 
L 312.87711 50.593654 
L 312.981363 49.871603 
L 323.850686 49.871603 
L 323.954939 49.149551 
L 329.901212 49.149551 
L 329.993881 48.908868 
L 342.813118 48.908868 
L 342.863313 48.4275 
L 400.90125 48.4275 
L 400.90125 48.4275 
" style="fill:none;stroke:#2ca02c;stroke-linecap:square;stroke-width:1.5;"/>
   </g>
   <g id="line2d_16">
    <path clip-path="url(#p4c1958d1ee)" d="M 43.78125 301.8675 
L 400.90125 48.4275 
" style="fill:none;stroke:#000000;stroke-dasharray:5.6,2.4;stroke-dashoffset:0;stroke-width:1.5;"/>
   </g>
   <g id="patch_3">
    <path d="M 43.78125 301.8675 
L 43.78125 35.7555 
" style="fill:none;stroke:#000000;stroke-linecap:square;stroke-linejoin:miter;stroke-width:0.8;"/>
   </g>
   <g id="patch_4">
    <path d="M 400.90125 301.8675 
L 400.90125 35.7555 
" style="fill:none;stroke:#000000;stroke-linecap:square;stroke-linejoin:miter;stroke-width:0.8;"/>
   </g>
   <g id="patch_5">
    <path d="M 43.78125 301.8675 
L 400.90125 301.8675 
" style="fill:none;stroke:#000000;stroke-linecap:square;stroke-linejoin:miter;stroke-width:0.8;"/>
   </g>
   <g id="patch_6">
    <path d="M 43.78125 35.7555 
L 400.90125 35.7555 
" style="fill:none;stroke:#000000;stroke-linecap:square;stroke-linejoin:miter;stroke-width:0.8;"/>
   </g>
   <g id="text_15">
    <!-- ROC Curve GradientBoosting + RandomOverSampler -->
    <defs>
     <path d="M 39.40625 66.21875 
Q 28.65625 66.21875 22.328125 58.203125 
Q 16.015625 50.203125 16.015625 36.375 
Q 16.015625 22.609375 22.328125 14.59375 
Q 28.65625 6.59375 39.40625 6.59375 
Q 50.140625 6.59375 56.421875 14.59375 
Q 62.703125 22.609375 62.703125 36.375 
Q 62.703125 50.203125 56.421875 58.203125 
Q 50.140625 66.21875 39.40625 66.21875 
M 39.40625 74.21875 
Q 54.734375 74.21875 63.90625 63.9375 
Q 73.09375 53.65625 73.09375 36.375 
Q 73.09375 19.140625 63.90625 8.859375 
Q 54.734375 -1.421875 39.40625 -1.421875 
Q 24.03125 -1.421875 14.8125 8.828125 
Q 5.609375 19.09375 5.609375 36.375 
Q 5.609375 53.65625 14.8125 63.9375 
Q 24.03125 74.21875 39.40625 74.21875 
" id="DejaVuSans-4f"/>
     <path d="M 64.40625 67.28125 
L 64.40625 56.890625 
Q 59.421875 61.53125 53.78125 63.8125 
Q 48.140625 66.109375 41.796875 66.109375 
Q 29.296875 66.109375 22.65625 58.46875 
Q 16.015625 50.828125 16.015625 36.375 
Q 16.015625 21.96875 22.65625 14.328125 
Q 29.296875 6.6875 41.796875 6.6875 
Q 48.140625 6.6875 53.78125 8.984375 
Q 59.421875 11.28125 64.40625 15.921875 
L 64.40625 5.609375 
Q 59.234375 2.09375 53.4375 0.328125 
Q 47.65625 -1.421875 41.21875 -1.421875 
Q 24.65625 -1.421875 15.125 8.703125 
Q 5.609375 18.84375 5.609375 36.375 
Q 5.609375 53.953125 15.125 64.078125 
Q 24.65625 74.21875 41.21875 74.21875 
Q 47.75 74.21875 53.53125 72.484375 
Q 59.328125 70.75 64.40625 67.28125 
" id="DejaVuSans-43"/>
     <path d="M 59.515625 10.40625 
L 59.515625 29.984375 
L 43.40625 29.984375 
L 43.40625 38.09375 
L 69.28125 38.09375 
L 69.28125 6.78125 
Q 63.578125 2.734375 56.6875 0.65625 
Q 49.8125 -1.421875 42 -1.421875 
Q 24.90625 -1.421875 15.25 8.5625 
Q 5.609375 18.5625 5.609375 36.375 
Q 5.609375 54.25 15.25 64.234375 
Q 24.90625 74.21875 42 74.21875 
Q 49.125 74.21875 55.546875 72.453125 
Q 61.96875 70.703125 67.390625 67.28125 
L 67.390625 56.78125 
Q 61.921875 61.421875 55.765625 63.765625 
Q 49.609375 66.109375 42.828125 66.109375 
Q 29.4375 66.109375 22.71875 58.640625 
Q 16.015625 51.171875 16.015625 36.375 
Q 16.015625 21.625 22.71875 14.15625 
Q 29.4375 6.6875 42.828125 6.6875 
Q 48.046875 6.6875 52.140625 7.59375 
Q 56.25 8.5 59.515625 10.40625 
" id="DejaVuSans-47"/>
     <path d="M 45.40625 46.390625 
L 45.40625 75.984375 
L 54.390625 75.984375 
L 54.390625 0 
L 45.40625 0 
L 45.40625 8.203125 
Q 42.578125 3.328125 38.25 0.953125 
Q 33.9375 -1.421875 27.875 -1.421875 
Q 17.96875 -1.421875 11.734375 6.484375 
Q 5.515625 14.40625 5.515625 27.296875 
Q 5.515625 40.1875 11.734375 48.09375 
Q 17.96875 56 27.875 56 
Q 33.9375 56 38.25 53.625 
Q 42.578125 51.265625 45.40625 46.390625 
M 14.796875 27.296875 
Q 14.796875 17.390625 18.875 11.75 
Q 22.953125 6.109375 30.078125 6.109375 
Q 37.203125 6.109375 41.296875 11.75 
Q 45.40625 17.390625 45.40625 27.296875 
Q 45.40625 37.203125 41.296875 42.84375 
Q 37.203125 48.484375 30.078125 48.484375 
Q 22.953125 48.484375 18.875 42.84375 
Q 14.796875 37.203125 14.796875 27.296875 
" id="DejaVuSans-64"/>
     <path d="M 54.890625 33.015625 
L 54.890625 0 
L 45.90625 0 
L 45.90625 32.71875 
Q 45.90625 40.484375 42.875 44.328125 
Q 39.84375 48.1875 33.796875 48.1875 
Q 26.515625 48.1875 22.3125 43.546875 
Q 18.109375 38.921875 18.109375 30.90625 
L 18.109375 0 
L 9.078125 0 
L 9.078125 54.6875 
L 18.109375 54.6875 
L 18.109375 46.1875 
Q 21.34375 51.125 25.703125 53.5625 
Q 30.078125 56 35.796875 56 
Q 45.21875 56 50.046875 50.171875 
Q 54.890625 44.34375 54.890625 33.015625 
" id="DejaVuSans-6e"/>
     <path d="M 19.671875 34.8125 
L 19.671875 8.109375 
L 35.5 8.109375 
Q 43.453125 8.109375 47.28125 11.40625 
Q 51.125 14.703125 51.125 21.484375 
Q 51.125 28.328125 47.28125 31.5625 
Q 43.453125 34.8125 35.5 34.8125 
z
M 19.671875 64.796875 
L 19.671875 42.828125 
L 34.28125 42.828125 
Q 41.5 42.828125 45.03125 45.53125 
Q 48.578125 48.25 48.578125 53.8125 
Q 48.578125 59.328125 45.03125 62.0625 
Q 41.5 64.796875 34.28125 64.796875 
z
M 9.8125 72.90625 
L 35.015625 72.90625 
Q 46.296875 72.90625 52.390625 68.21875 
Q 58.5 63.53125 58.5 54.890625 
Q 58.5 48.1875 55.375 44.234375 
Q 52.25 40.28125 46.1875 39.3125 
Q 53.46875 37.75 57.5 32.78125 
Q 61.53125 27.828125 61.53125 20.40625 
Q 61.53125 10.640625 54.890625 5.3125 
Q 48.25 0 35.984375 0 
L 9.8125 0 
z
" id="DejaVuSans-42"/>
     <path d="M 45.40625 27.984375 
Q 45.40625 37.75 41.375 43.109375 
Q 37.359375 48.484375 30.078125 48.484375 
Q 22.859375 48.484375 18.828125 43.109375 
Q 14.796875 37.75 14.796875 27.984375 
Q 14.796875 18.265625 18.828125 12.890625 
Q 22.859375 7.515625 30.078125 7.515625 
Q 37.359375 7.515625 41.375 12.890625 
Q 45.40625 18.265625 45.40625 27.984375 
M 54.390625 6.78125 
Q 54.390625 -7.171875 48.1875 -13.984375 
Q 42 -20.796875 29.203125 -20.796875 
Q 24.46875 -20.796875 20.265625 -20.09375 
Q 16.0625 -19.390625 12.109375 -17.921875 
L 12.109375 -9.1875 
Q 16.0625 -11.328125 19.921875 -12.34375 
Q 23.78125 -13.375 27.78125 -13.375 
Q 36.625 -13.375 41.015625 -8.765625 
Q 45.40625 -4.15625 45.40625 5.171875 
L 45.40625 9.625 
Q 42.625 4.78125 38.28125 2.390625 
Q 33.9375 0 27.875 0 
Q 17.828125 0 11.671875 7.65625 
Q 5.515625 15.328125 5.515625 27.984375 
Q 5.515625 40.671875 11.671875 48.328125 
Q 17.828125 56 27.875 56 
Q 33.9375 56 38.28125 53.609375 
Q 42.625 51.21875 45.40625 46.390625 
L 45.40625 54.6875 
L 54.390625 54.6875 
z
" id="DejaVuSans-67"/>
     <path d="M 46 62.703125 
L 46 35.5 
L 73.1875 35.5 
L 73.1875 27.203125 
L 46 27.203125 
L 46 0 
L 37.796875 0 
L 37.796875 27.203125 
L 10.59375 27.203125 
L 10.59375 35.5 
L 37.796875 35.5 
L 37.796875 62.703125 
z
" id="DejaVuSans-2b"/>
     <path d="M 52 44.1875 
Q 55.375 50.25 60.0625 53.125 
Q 64.75 56 71.09375 56 
Q 79.640625 56 84.28125 50.015625 
Q 88.921875 44.046875 88.921875 33.015625 
L 88.921875 0 
L 79.890625 0 
L 79.890625 32.71875 
Q 79.890625 40.578125 77.09375 44.375 
Q 74.3125 48.1875 68.609375 48.1875 
Q 61.625 48.1875 57.5625 43.546875 
Q 53.515625 38.921875 53.515625 30.90625 
L 53.515625 0 
L 44.484375 0 
L 44.484375 32.71875 
Q 44.484375 40.625 41.703125 44.40625 
Q 38.921875 48.1875 33.109375 48.1875 
Q 26.21875 48.1875 22.15625 43.53125 
Q 18.109375 38.875 18.109375 30.90625 
L 18.109375 0 
L 9.078125 0 
L 9.078125 54.6875 
L 18.109375 54.6875 
L 18.109375 46.1875 
Q 21.1875 51.21875 25.484375 53.609375 
Q 29.78125 56 35.6875 56 
Q 41.65625 56 45.828125 52.96875 
Q 50 49.953125 52 44.1875 
" id="DejaVuSans-6d"/>
     <path d="M 53.515625 70.515625 
L 53.515625 60.890625 
Q 47.90625 63.578125 42.921875 64.890625 
Q 37.9375 66.21875 33.296875 66.21875 
Q 25.25 66.21875 20.875 63.09375 
Q 16.5 59.96875 16.5 54.203125 
Q 16.5 49.359375 19.40625 46.890625 
Q 22.3125 44.4375 30.421875 42.921875 
L 36.375 41.703125 
Q 47.40625 39.59375 52.65625 34.296875 
Q 57.90625 29 57.90625 20.125 
Q 57.90625 9.515625 50.796875 4.046875 
Q 43.703125 -1.421875 29.984375 -1.421875 
Q 24.8125 -1.421875 18.96875 -0.25 
Q 13.140625 0.921875 6.890625 3.21875 
L 6.890625 13.375 
Q 12.890625 10.015625 18.65625 8.296875 
Q 24.421875 6.59375 29.984375 6.59375 
Q 38.421875 6.59375 43.015625 9.90625 
Q 47.609375 13.234375 47.609375 19.390625 
Q 47.609375 24.75 44.3125 27.78125 
Q 41.015625 30.8125 33.5 32.328125 
L 27.484375 33.5 
Q 16.453125 35.6875 11.515625 40.375 
Q 6.59375 45.0625 6.59375 53.421875 
Q 6.59375 63.09375 13.40625 68.65625 
Q 20.21875 74.21875 32.171875 74.21875 
Q 37.3125 74.21875 42.625 73.28125 
Q 47.953125 72.359375 53.515625 70.515625 
" id="DejaVuSans-53"/>
     <path d="M 18.109375 8.203125 
L 18.109375 -20.796875 
L 9.078125 -20.796875 
L 9.078125 54.6875 
L 18.109375 54.6875 
L 18.109375 46.390625 
Q 20.953125 51.265625 25.265625 53.625 
Q 29.59375 56 35.59375 56 
Q 45.5625 56 51.78125 48.09375 
Q 58.015625 40.1875 58.015625 27.296875 
Q 58.015625 14.40625 51.78125 6.484375 
Q 45.5625 -1.421875 35.59375 -1.421875 
Q 29.59375 -1.421875 25.265625 0.953125 
Q 20.953125 3.328125 18.109375 8.203125 
M 48.6875 27.296875 
Q 48.6875 37.203125 44.609375 42.84375 
Q 40.53125 48.484375 33.40625 48.484375 
Q 26.265625 48.484375 22.1875 42.84375 
Q 18.109375 37.203125 18.109375 27.296875 
Q 18.109375 17.390625 22.1875 11.75 
Q 26.265625 6.109375 33.40625 6.109375 
Q 40.53125 6.109375 44.609375 11.75 
Q 48.6875 17.390625 48.6875 27.296875 
" id="DejaVuSans-70"/>
    </defs>
    <g transform="translate(62.203125 16.318125)scale(0.12 -0.12)">
     <use xlink:href="#DejaVuSans-52"/>
     <use x="69.482422" xlink:href="#DejaVuSans-4f"/>
     <use x="148.193359" xlink:href="#DejaVuSans-43"/>
     <use x="218.017578" xlink:href="#DejaVuSans-20"/>
     <use x="249.804688" xlink:href="#DejaVuSans-43"/>
     <use x="319.628906" xlink:href="#DejaVuSans-75"/>
     <use x="383.007812" xlink:href="#DejaVuSans-72"/>
     <use x="424.121094" xlink:href="#DejaVuSans-76"/>
     <use x="483.300781" xlink:href="#DejaVuSans-65"/>
     <use x="544.824219" xlink:href="#DejaVuSans-20"/>
     <use x="576.611328" xlink:href="#DejaVuSans-47"/>
     <use x="654.101562" xlink:href="#DejaVuSans-72"/>
     <use x="695.214844" xlink:href="#DejaVuSans-61"/>
     <use x="756.494141" xlink:href="#DejaVuSans-64"/>
     <use x="819.970703" xlink:href="#DejaVuSans-69"/>
     <use x="847.753906" xlink:href="#DejaVuSans-65"/>
     <use x="909.277344" xlink:href="#DejaVuSans-6e"/>
     <use x="972.65625" xlink:href="#DejaVuSans-74"/>
     <use x="1011.865234" xlink:href="#DejaVuSans-42"/>
     <use x="1080.46875" xlink:href="#DejaVuSans-6f"/>
     <use x="1141.650391" xlink:href="#DejaVuSans-6f"/>
     <use x="1202.832031" xlink:href="#DejaVuSans-73"/>
     <use x="1254.931641" xlink:href="#DejaVuSans-74"/>
     <use x="1294.140625" xlink:href="#DejaVuSans-69"/>
     <use x="1321.923828" xlink:href="#DejaVuSans-6e"/>
     <use x="1385.302734" xlink:href="#DejaVuSans-67"/>
     <use x="1448.779297" xlink:href="#DejaVuSans-20"/>
     <use x="1480.566406" xlink:href="#DejaVuSans-2b"/>
     <use x="1564.355469" xlink:href="#DejaVuSans-20"/>
     <use x="1596.142578" xlink:href="#DejaVuSans-52"/>
     <use x="1665.59375" xlink:href="#DejaVuSans-61"/>
     <use x="1726.873047" xlink:href="#DejaVuSans-6e"/>
     <use x="1790.251953" xlink:href="#DejaVuSans-64"/>
     <use x="1853.728516" xlink:href="#DejaVuSans-6f"/>
     <use x="1914.910156" xlink:href="#DejaVuSans-6d"/>
     <use x="2012.322266" xlink:href="#DejaVuSans-4f"/>
     <use x="2091.033203" xlink:href="#DejaVuSans-76"/>
     <use x="2150.212891" xlink:href="#DejaVuSans-65"/>
     <use x="2211.736328" xlink:href="#DejaVuSans-72"/>
     <use x="2252.849609" xlink:href="#DejaVuSans-53"/>
     <use x="2316.326172" xlink:href="#DejaVuSans-61"/>
     <use x="2377.605469" xlink:href="#DejaVuSans-6d"/>
     <use x="2475.017578" xlink:href="#DejaVuSans-70"/>
     <use x="2538.494141" xlink:href="#DejaVuSans-6c"/>
     <use x="2566.277344" xlink:href="#DejaVuSans-65"/>
     <use x="2627.800781" xlink:href="#DejaVuSans-72"/>
    </g>
    <!-- Train: 12   Test: [1, 2, 4, 6, 8, 10, 12] -->
    <defs>
     <path d="M 11.71875 12.40625 
L 22.015625 12.40625 
L 22.015625 0 
L 11.71875 0 
z
M 11.71875 51.703125 
L 22.015625 51.703125 
L 22.015625 39.3125 
L 11.71875 39.3125 
z
" id="DejaVuSans-3a"/>
     <path d="M 8.59375 75.984375 
L 29.296875 75.984375 
L 29.296875 69 
L 17.578125 69 
L 17.578125 -6.203125 
L 29.296875 -6.203125 
L 29.296875 -13.1875 
L 8.59375 -13.1875 
z
" id="DejaVuSans-5b"/>
     <path d="M 11.71875 12.40625 
L 22.015625 12.40625 
L 22.015625 4 
L 14.015625 -11.625 
L 7.71875 -11.625 
L 11.71875 4 
z
" id="DejaVuSans-2c"/>
     <path d="M 30.421875 75.984375 
L 30.421875 -13.1875 
L 9.71875 -13.1875 
L 9.71875 -6.203125 
L 21.390625 -6.203125 
L 21.390625 69 
L 9.71875 69 
L 9.71875 75.984375 
z
" id="DejaVuSans-5d"/>
    </defs>
    <g transform="translate(111.124688 29.7555)scale(0.12 -0.12)">
     <use xlink:href="#DejaVuSans-54"/>
     <use x="60.865234" xlink:href="#DejaVuSans-72"/>
     <use x="101.978516" xlink:href="#DejaVuSans-61"/>
     <use x="163.257812" xlink:href="#DejaVuSans-69"/>
     <use x="191.041016" xlink:href="#DejaVuSans-6e"/>
     <use x="254.419922" xlink:href="#DejaVuSans-3a"/>
     <use x="288.111328" xlink:href="#DejaVuSans-20"/>
     <use x="319.898438" xlink:href="#DejaVuSans-31"/>
     <use x="383.521484" xlink:href="#DejaVuSans-32"/>
     <use x="447.144531" xlink:href="#DejaVuSans-20"/>
     <use x="478.931641" xlink:href="#DejaVuSans-20"/>
     <use x="510.71875" xlink:href="#DejaVuSans-20"/>
     <use x="542.505859" xlink:href="#DejaVuSans-54"/>
     <use x="603.324219" xlink:href="#DejaVuSans-65"/>
     <use x="664.847656" xlink:href="#DejaVuSans-73"/>
     <use x="716.947266" xlink:href="#DejaVuSans-74"/>
     <use x="756.15625" xlink:href="#DejaVuSans-3a"/>
     <use x="789.847656" xlink:href="#DejaVuSans-20"/>
     <use x="821.634766" xlink:href="#DejaVuSans-5b"/>
     <use x="860.648438" xlink:href="#DejaVuSans-31"/>
     <use x="924.271484" xlink:href="#DejaVuSans-2c"/>
     <use x="956.058594" xlink:href="#DejaVuSans-20"/>
     <use x="987.845703" xlink:href="#DejaVuSans-32"/>
     <use x="1051.46875" xlink:href="#DejaVuSans-2c"/>
     <use x="1083.255859" xlink:href="#DejaVuSans-20"/>
     <use x="1115.042969" xlink:href="#DejaVuSans-34"/>
     <use x="1178.666016" xlink:href="#DejaVuSans-2c"/>
     <use x="1210.453125" xlink:href="#DejaVuSans-20"/>
     <use x="1242.240234" xlink:href="#DejaVuSans-36"/>
     <use x="1305.863281" xlink:href="#DejaVuSans-2c"/>
     <use x="1337.650391" xlink:href="#DejaVuSans-20"/>
     <use x="1369.4375" xlink:href="#DejaVuSans-38"/>
     <use x="1433.060547" xlink:href="#DejaVuSans-2c"/>
     <use x="1464.847656" xlink:href="#DejaVuSans-20"/>
     <use x="1496.634766" xlink:href="#DejaVuSans-31"/>
     <use x="1560.257812" xlink:href="#DejaVuSans-30"/>
     <use x="1623.880859" xlink:href="#DejaVuSans-2c"/>
     <use x="1655.667969" xlink:href="#DejaVuSans-20"/>
     <use x="1687.455078" xlink:href="#DejaVuSans-31"/>
     <use x="1751.078125" xlink:href="#DejaVuSans-32"/>
     <use x="1814.701172" xlink:href="#DejaVuSans-5d"/>
    </g>
   </g>
   <g id="legend_1">
    <g id="patch_7">
     <path d="M 217.087188 296.8675 
L 393.90125 296.8675 
Q 395.90125 296.8675 395.90125 294.8675 
L 395.90125 251.833125 
Q 395.90125 249.833125 393.90125 249.833125 
L 217.087188 249.833125 
Q 215.087188 249.833125 215.087188 251.833125 
L 215.087188 294.8675 
Q 215.087188 296.8675 217.087188 296.8675 
z
" style="fill:#ffffff;opacity:0.8;stroke:#cccccc;stroke-linejoin:miter;"/>
    </g>
    <g id="line2d_17">
     <path d="M 219.087188 257.931562 
L 239.087188 257.931562 
" style="fill:none;stroke:#1f77b4;stroke-linecap:square;stroke-width:1.5;"/>
    </g>
    <g id="line2d_18"/>
    <g id="text_16">
     <!-- ROC curve - 0 (AUC = 0.866) -->
     <defs>
      <path d="M 48.78125 52.59375 
L 48.78125 44.1875 
Q 44.96875 46.296875 41.140625 47.34375 
Q 37.3125 48.390625 33.40625 48.390625 
Q 24.65625 48.390625 19.8125 42.84375 
Q 14.984375 37.3125 14.984375 27.296875 
Q 14.984375 17.28125 19.8125 11.734375 
Q 24.65625 6.203125 33.40625 6.203125 
Q 37.3125 6.203125 41.140625 7.25 
Q 44.96875 8.296875 48.78125 10.40625 
L 48.78125 2.09375 
Q 45.015625 0.34375 40.984375 -0.53125 
Q 36.96875 -1.421875 32.421875 -1.421875 
Q 20.0625 -1.421875 12.78125 6.34375 
Q 5.515625 14.109375 5.515625 27.296875 
Q 5.515625 40.671875 12.859375 48.328125 
Q 20.21875 56 33.015625 56 
Q 37.15625 56 41.109375 55.140625 
Q 45.0625 54.296875 48.78125 52.59375 
" id="DejaVuSans-63"/>
      <path d="M 4.890625 31.390625 
L 31.203125 31.390625 
L 31.203125 23.390625 
L 4.890625 23.390625 
z
" id="DejaVuSans-2d"/>
      <path d="M 31 75.875 
Q 24.46875 64.65625 21.28125 53.65625 
Q 18.109375 42.671875 18.109375 31.390625 
Q 18.109375 20.125 21.3125 9.0625 
Q 24.515625 -2 31 -13.1875 
L 23.1875 -13.1875 
Q 15.875 -1.703125 12.234375 9.375 
Q 8.59375 20.453125 8.59375 31.390625 
Q 8.59375 42.28125 12.203125 53.3125 
Q 15.828125 64.359375 23.1875 75.875 
z
" id="DejaVuSans-28"/>
      <path d="M 34.1875 63.1875 
L 20.796875 26.90625 
L 47.609375 26.90625 
z
M 28.609375 72.90625 
L 39.796875 72.90625 
L 67.578125 0 
L 57.328125 0 
L 50.6875 18.703125 
L 17.828125 18.703125 
L 11.1875 0 
L 0.78125 0 
z
" id="DejaVuSans-41"/>
      <path d="M 8.6875 72.90625 
L 18.609375 72.90625 
L 18.609375 28.609375 
Q 18.609375 16.890625 22.84375 11.734375 
Q 27.09375 6.59375 36.625 6.59375 
Q 46.09375 6.59375 50.34375 11.734375 
Q 54.59375 16.890625 54.59375 28.609375 
L 54.59375 72.90625 
L 64.5 72.90625 
L 64.5 27.390625 
Q 64.5 13.140625 57.4375 5.859375 
Q 50.390625 -1.421875 36.625 -1.421875 
Q 22.796875 -1.421875 15.734375 5.859375 
Q 8.6875 13.140625 8.6875 27.390625 
z
" id="DejaVuSans-55"/>
      <path d="M 10.59375 45.40625 
L 73.1875 45.40625 
L 73.1875 37.203125 
L 10.59375 37.203125 
z
M 10.59375 25.484375 
L 73.1875 25.484375 
L 73.1875 17.1875 
L 10.59375 17.1875 
z
" id="DejaVuSans-3d"/>
      <path d="M 8.015625 75.875 
L 15.828125 75.875 
Q 23.140625 64.359375 26.78125 53.3125 
Q 30.421875 42.28125 30.421875 31.390625 
Q 30.421875 20.453125 26.78125 9.375 
Q 23.140625 -1.703125 15.828125 -13.1875 
L 8.015625 -13.1875 
Q 14.5 -2 17.703125 9.0625 
Q 20.90625 20.125 20.90625 31.390625 
Q 20.90625 42.671875 17.703125 53.65625 
Q 14.5 64.65625 8.015625 75.875 
" id="DejaVuSans-29"/>
     </defs>
     <g transform="translate(247.087188 261.431562)scale(0.1 -0.1)">
      <use xlink:href="#DejaVuSans-52"/>
      <use x="69.482422" xlink:href="#DejaVuSans-4f"/>
      <use x="148.193359" xlink:href="#DejaVuSans-43"/>
      <use x="218.017578" xlink:href="#DejaVuSans-20"/>
      <use x="249.804688" xlink:href="#DejaVuSans-63"/>
      <use x="304.785156" xlink:href="#DejaVuSans-75"/>
      <use x="368.164062" xlink:href="#DejaVuSans-72"/>
      <use x="409.277344" xlink:href="#DejaVuSans-76"/>
      <use x="468.457031" xlink:href="#DejaVuSans-65"/>
      <use x="529.980469" xlink:href="#DejaVuSans-20"/>
      <use x="561.767578" xlink:href="#DejaVuSans-2d"/>
      <use x="597.851562" xlink:href="#DejaVuSans-20"/>
      <use x="629.638672" xlink:href="#DejaVuSans-30"/>
      <use x="693.261719" xlink:href="#DejaVuSans-20"/>
      <use x="725.048828" xlink:href="#DejaVuSans-28"/>
      <use x="764.0625" xlink:href="#DejaVuSans-41"/>
      <use x="832.470703" xlink:href="#DejaVuSans-55"/>
      <use x="905.664062" xlink:href="#DejaVuSans-43"/>
      <use x="975.488281" xlink:href="#DejaVuSans-20"/>
      <use x="1007.275391" xlink:href="#DejaVuSans-3d"/>
      <use x="1091.064453" xlink:href="#DejaVuSans-20"/>
      <use x="1122.851562" xlink:href="#DejaVuSans-30"/>
      <use x="1186.474609" xlink:href="#DejaVuSans-2e"/>
      <use x="1218.261719" xlink:href="#DejaVuSans-38"/>
      <use x="1281.884766" xlink:href="#DejaVuSans-36"/>
      <use x="1345.507812" xlink:href="#DejaVuSans-36"/>
      <use x="1409.130859" xlink:href="#DejaVuSans-29"/>
     </g>
    </g>
    <g id="line2d_19">
     <path d="M 219.087188 272.609687 
L 239.087188 272.609687 
" style="fill:none;stroke:#ff7f0e;stroke-linecap:square;stroke-width:1.5;"/>
    </g>
    <g id="line2d_20"/>
    <g id="text_17">
     <!-- ROC curve - 1 (AUC = 0.892) -->
     <defs>
      <path d="M 10.984375 1.515625 
L 10.984375 10.5 
Q 14.703125 8.734375 18.5 7.8125 
Q 22.3125 6.890625 25.984375 6.890625 
Q 35.75 6.890625 40.890625 13.453125 
Q 46.046875 20.015625 46.78125 33.40625 
Q 43.953125 29.203125 39.59375 26.953125 
Q 35.25 24.703125 29.984375 24.703125 
Q 19.046875 24.703125 12.671875 31.3125 
Q 6.296875 37.9375 6.296875 49.421875 
Q 6.296875 60.640625 12.9375 67.421875 
Q 19.578125 74.21875 30.609375 74.21875 
Q 43.265625 74.21875 49.921875 64.515625 
Q 56.59375 54.828125 56.59375 36.375 
Q 56.59375 19.140625 48.40625 8.859375 
Q 40.234375 -1.421875 26.421875 -1.421875 
Q 22.703125 -1.421875 18.890625 -0.6875 
Q 15.09375 0.046875 10.984375 1.515625 
M 30.609375 32.421875 
Q 37.25 32.421875 41.125 36.953125 
Q 45.015625 41.5 45.015625 49.421875 
Q 45.015625 57.28125 41.125 61.84375 
Q 37.25 66.40625 30.609375 66.40625 
Q 23.96875 66.40625 20.09375 61.84375 
Q 16.21875 57.28125 16.21875 49.421875 
Q 16.21875 41.5 20.09375 36.953125 
Q 23.96875 32.421875 30.609375 32.421875 
" id="DejaVuSans-39"/>
     </defs>
     <g transform="translate(247.087188 276.109687)scale(0.1 -0.1)">
      <use xlink:href="#DejaVuSans-52"/>
      <use x="69.482422" xlink:href="#DejaVuSans-4f"/>
      <use x="148.193359" xlink:href="#DejaVuSans-43"/>
      <use x="218.017578" xlink:href="#DejaVuSans-20"/>
      <use x="249.804688" xlink:href="#DejaVuSans-63"/>
      <use x="304.785156" xlink:href="#DejaVuSans-75"/>
      <use x="368.164062" xlink:href="#DejaVuSans-72"/>
      <use x="409.277344" xlink:href="#DejaVuSans-76"/>
      <use x="468.457031" xlink:href="#DejaVuSans-65"/>
      <use x="529.980469" xlink:href="#DejaVuSans-20"/>
      <use x="561.767578" xlink:href="#DejaVuSans-2d"/>
      <use x="597.851562" xlink:href="#DejaVuSans-20"/>
      <use x="629.638672" xlink:href="#DejaVuSans-31"/>
      <use x="693.261719" xlink:href="#DejaVuSans-20"/>
      <use x="725.048828" xlink:href="#DejaVuSans-28"/>
      <use x="764.0625" xlink:href="#DejaVuSans-41"/>
      <use x="832.470703" xlink:href="#DejaVuSans-55"/>
      <use x="905.664062" xlink:href="#DejaVuSans-43"/>
      <use x="975.488281" xlink:href="#DejaVuSans-20"/>
      <use x="1007.275391" xlink:href="#DejaVuSans-3d"/>
      <use x="1091.064453" xlink:href="#DejaVuSans-20"/>
      <use x="1122.851562" xlink:href="#DejaVuSans-30"/>
      <use x="1186.474609" xlink:href="#DejaVuSans-2e"/>
      <use x="1218.261719" xlink:href="#DejaVuSans-38"/>
      <use x="1281.884766" xlink:href="#DejaVuSans-39"/>
      <use x="1345.507812" xlink:href="#DejaVuSans-32"/>
      <use x="1409.130859" xlink:href="#DejaVuSans-29"/>
     </g>
    </g>
    <g id="line2d_21">
     <path d="M 219.087188 287.287812 
L 239.087188 287.287812 
" style="fill:none;stroke:#2ca02c;stroke-linecap:square;stroke-width:1.5;"/>
    </g>
    <g id="line2d_22"/>
    <g id="text_18">
     <!-- ROC curve - 2 (AUC = 0.895) -->
     <defs>
      <path d="M 10.796875 72.90625 
L 49.515625 72.90625 
L 49.515625 64.59375 
L 19.828125 64.59375 
L 19.828125 46.734375 
Q 21.96875 47.46875 24.109375 47.828125 
Q 26.265625 48.1875 28.421875 48.1875 
Q 40.625 48.1875 47.75 41.5 
Q 54.890625 34.8125 54.890625 23.390625 
Q 54.890625 11.625 47.5625 5.09375 
Q 40.234375 -1.421875 26.90625 -1.421875 
Q 22.3125 -1.421875 17.546875 -0.640625 
Q 12.796875 0.140625 7.71875 1.703125 
L 7.71875 11.625 
Q 12.109375 9.234375 16.796875 8.0625 
Q 21.484375 6.890625 26.703125 6.890625 
Q 35.15625 6.890625 40.078125 11.328125 
Q 45.015625 15.765625 45.015625 23.390625 
Q 45.015625 31 40.078125 35.4375 
Q 35.15625 39.890625 26.703125 39.890625 
Q 22.75 39.890625 18.8125 39.015625 
Q 14.890625 38.140625 10.796875 36.28125 
z
" id="DejaVuSans-35"/>
     </defs>
     <g transform="translate(247.087188 290.787812)scale(0.1 -0.1)">
      <use xlink:href="#DejaVuSans-52"/>
      <use x="69.482422" xlink:href="#DejaVuSans-4f"/>
      <use x="148.193359" xlink:href="#DejaVuSans-43"/>
      <use x="218.017578" xlink:href="#DejaVuSans-20"/>
      <use x="249.804688" xlink:href="#DejaVuSans-63"/>
      <use x="304.785156" xlink:href="#DejaVuSans-75"/>
      <use x="368.164062" xlink:href="#DejaVuSans-72"/>
      <use x="409.277344" xlink:href="#DejaVuSans-76"/>
      <use x="468.457031" xlink:href="#DejaVuSans-65"/>
      <use x="529.980469" xlink:href="#DejaVuSans-20"/>
      <use x="561.767578" xlink:href="#DejaVuSans-2d"/>
      <use x="597.851562" xlink:href="#DejaVuSans-20"/>
      <use x="629.638672" xlink:href="#DejaVuSans-32"/>
      <use x="693.261719" xlink:href="#DejaVuSans-20"/>
      <use x="725.048828" xlink:href="#DejaVuSans-28"/>
      <use x="764.0625" xlink:href="#DejaVuSans-41"/>
      <use x="832.470703" xlink:href="#DejaVuSans-55"/>
      <use x="905.664062" xlink:href="#DejaVuSans-43"/>
      <use x="975.488281" xlink:href="#DejaVuSans-20"/>
      <use x="1007.275391" xlink:href="#DejaVuSans-3d"/>
      <use x="1091.064453" xlink:href="#DejaVuSans-20"/>
      <use x="1122.851562" xlink:href="#DejaVuSans-30"/>
      <use x="1186.474609" xlink:href="#DejaVuSans-2e"/>
      <use x="1218.261719" xlink:href="#DejaVuSans-38"/>
      <use x="1281.884766" xlink:href="#DejaVuSans-39"/>
      <use x="1345.507812" xlink:href="#DejaVuSans-35"/>
      <use x="1409.130859" xlink:href="#DejaVuSans-29"/>
     </g>
    </g>
   </g>
  </g>
 </g>
 <defs>
  <clipPath id="p4c1958d1ee">
   <rect height="266.112" width="357.12" x="43.78125" y="35.7555"/>
  </clipPath>
 </defs>
</svg>
