<?xml version="1.0" encoding="utf-8" standalone="no"?>
<!DOCTYPE svg PUBLIC "-//W3C//DTD SVG 1.1//EN"
  "http://www.w3.org/Graphics/SVG/1.1/DTD/svg11.dtd">
<!-- Created with matplotlib (http://matplotlib.org/) -->
<svg height="339pt" version="1.1" viewBox="0 0 416 339" width="416pt" xmlns="http://www.w3.org/2000/svg" xmlns:xlink="http://www.w3.org/1999/xlink">
 <defs>
  <style type="text/css">
*{stroke-linecap:butt;stroke-linejoin:round;}
  </style>
 </defs>
 <g id="figure_1">
  <g id="patch_1">
   <path d="M 0 339.42375 
L 416.052813 339.42375 
L 416.052813 0 
L 0 0 
z
" style="fill:#ffffff;"/>
  </g>
  <g id="axes_1">
   <g id="patch_2">
    <path d="M 43.78125 301.8675 
L 400.90125 301.8675 
L 400.90125 35.7555 
L 43.78125 35.7555 
z
" style="fill:#ffffff;"/>
   </g>
   <g id="matplotlib.axis_1">
    <g id="xtick_1">
     <g id="line2d_1">
      <defs>
       <path d="M 0 0 
L 0 3.5 
" id="mf1dd74e973" style="stroke:#000000;stroke-width:0.8;"/>
      </defs>
      <g>
       <use style="stroke:#000000;stroke-width:0.8;" x="43.78125" xlink:href="#mf1dd74e973" y="301.8675"/>
      </g>
     </g>
     <g id="text_1">
      <!-- 0.0 -->
      <defs>
       <path d="M 31.78125 66.40625 
Q 24.171875 66.40625 20.328125 58.90625 
Q 16.5 51.421875 16.5 36.375 
Q 16.5 21.390625 20.328125 13.890625 
Q 24.171875 6.390625 31.78125 6.390625 
Q 39.453125 6.390625 43.28125 13.890625 
Q 47.125 21.390625 47.125 36.375 
Q 47.125 51.421875 43.28125 58.90625 
Q 39.453125 66.40625 31.78125 66.40625 
M 31.78125 74.21875 
Q 44.046875 74.21875 50.515625 64.515625 
Q 56.984375 54.828125 56.984375 36.375 
Q 56.984375 17.96875 50.515625 8.265625 
Q 44.046875 -1.421875 31.78125 -1.421875 
Q 19.53125 -1.421875 13.0625 8.265625 
Q 6.59375 17.96875 6.59375 36.375 
Q 6.59375 54.828125 13.0625 64.515625 
Q 19.53125 74.21875 31.78125 74.21875 
" id="DejaVuSans-30"/>
       <path d="M 10.6875 12.40625 
L 21 12.40625 
L 21 0 
L 10.6875 0 
z
" id="DejaVuSans-2e"/>
      </defs>
      <g transform="translate(35.829688 316.465937)scale(0.1 -0.1)">
       <use xlink:href="#DejaVuSans-30"/>
       <use x="63.623047" xlink:href="#DejaVuSans-2e"/>
       <use x="95.410156" xlink:href="#DejaVuSans-30"/>
      </g>
     </g>
    </g>
    <g id="xtick_2">
     <g id="line2d_2">
      <g>
       <use style="stroke:#000000;stroke-width:0.8;" x="115.20525" xlink:href="#mf1dd74e973" y="301.8675"/>
      </g>
     </g>
     <g id="text_2">
      <!-- 0.2 -->
      <defs>
       <path d="M 19.1875 8.296875 
L 53.609375 8.296875 
L 53.609375 0 
L 7.328125 0 
L 7.328125 8.296875 
Q 12.9375 14.109375 22.625 23.890625 
Q 32.328125 33.6875 34.8125 36.53125 
Q 39.546875 41.84375 41.421875 45.53125 
Q 43.3125 49.21875 43.3125 52.78125 
Q 43.3125 58.59375 39.234375 62.25 
Q 35.15625 65.921875 28.609375 65.921875 
Q 23.96875 65.921875 18.8125 64.3125 
Q 13.671875 62.703125 7.8125 59.421875 
L 7.8125 69.390625 
Q 13.765625 71.78125 18.9375 73 
Q 24.125 74.21875 28.421875 74.21875 
Q 39.75 74.21875 46.484375 68.546875 
Q 53.21875 62.890625 53.21875 53.421875 
Q 53.21875 48.921875 51.53125 44.890625 
Q 49.859375 40.875 45.40625 35.40625 
Q 44.1875 33.984375 37.640625 27.21875 
Q 31.109375 20.453125 19.1875 8.296875 
" id="DejaVuSans-32"/>
      </defs>
      <g transform="translate(107.253688 316.465937)scale(0.1 -0.1)">
       <use xlink:href="#DejaVuSans-30"/>
       <use x="63.623047" xlink:href="#DejaVuSans-2e"/>
       <use x="95.410156" xlink:href="#DejaVuSans-32"/>
      </g>
     </g>
    </g>
    <g id="xtick_3">
     <g id="line2d_3">
      <g>
       <use style="stroke:#000000;stroke-width:0.8;" x="186.62925" xlink:href="#mf1dd74e973" y="301.8675"/>
      </g>
     </g>
     <g id="text_3">
      <!-- 0.4 -->
      <defs>
       <path d="M 37.796875 64.3125 
L 12.890625 25.390625 
L 37.796875 25.390625 
z
M 35.203125 72.90625 
L 47.609375 72.90625 
L 47.609375 25.390625 
L 58.015625 25.390625 
L 58.015625 17.1875 
L 47.609375 17.1875 
L 47.609375 0 
L 37.796875 0 
L 37.796875 17.1875 
L 4.890625 17.1875 
L 4.890625 26.703125 
z
" id="DejaVuSans-34"/>
      </defs>
      <g transform="translate(178.677688 316.465937)scale(0.1 -0.1)">
       <use xlink:href="#DejaVuSans-30"/>
       <use x="63.623047" xlink:href="#DejaVuSans-2e"/>
       <use x="95.410156" xlink:href="#DejaVuSans-34"/>
      </g>
     </g>
    </g>
    <g id="xtick_4">
     <g id="line2d_4">
      <g>
       <use style="stroke:#000000;stroke-width:0.8;" x="258.05325" xlink:href="#mf1dd74e973" y="301.8675"/>
      </g>
     </g>
     <g id="text_4">
      <!-- 0.6 -->
      <defs>
       <path d="M 33.015625 40.375 
Q 26.375 40.375 22.484375 35.828125 
Q 18.609375 31.296875 18.609375 23.390625 
Q 18.609375 15.53125 22.484375 10.953125 
Q 26.375 6.390625 33.015625 6.390625 
Q 39.65625 6.390625 43.53125 10.953125 
Q 47.40625 15.53125 47.40625 23.390625 
Q 47.40625 31.296875 43.53125 35.828125 
Q 39.65625 40.375 33.015625 40.375 
M 52.59375 71.296875 
L 52.59375 62.3125 
Q 48.875 64.0625 45.09375 64.984375 
Q 41.3125 65.921875 37.59375 65.921875 
Q 27.828125 65.921875 22.671875 59.328125 
Q 17.53125 52.734375 16.796875 39.40625 
Q 19.671875 43.65625 24.015625 45.921875 
Q 28.375 48.1875 33.59375 48.1875 
Q 44.578125 48.1875 50.953125 41.515625 
Q 57.328125 34.859375 57.328125 23.390625 
Q 57.328125 12.15625 50.6875 5.359375 
Q 44.046875 -1.421875 33.015625 -1.421875 
Q 20.359375 -1.421875 13.671875 8.265625 
Q 6.984375 17.96875 6.984375 36.375 
Q 6.984375 53.65625 15.1875 63.9375 
Q 23.390625 74.21875 37.203125 74.21875 
Q 40.921875 74.21875 44.703125 73.484375 
Q 48.484375 72.75 52.59375 71.296875 
" id="DejaVuSans-36"/>
      </defs>
      <g transform="translate(250.101688 316.465937)scale(0.1 -0.1)">
       <use xlink:href="#DejaVuSans-30"/>
       <use x="63.623047" xlink:href="#DejaVuSans-2e"/>
       <use x="95.410156" xlink:href="#DejaVuSans-36"/>
      </g>
     </g>
    </g>
    <g id="xtick_5">
     <g id="line2d_5">
      <g>
       <use style="stroke:#000000;stroke-width:0.8;" x="329.47725" xlink:href="#mf1dd74e973" y="301.8675"/>
      </g>
     </g>
     <g id="text_5">
      <!-- 0.8 -->
      <defs>
       <path d="M 31.78125 34.625 
Q 24.75 34.625 20.71875 30.859375 
Q 16.703125 27.09375 16.703125 20.515625 
Q 16.703125 13.921875 20.71875 10.15625 
Q 24.75 6.390625 31.78125 6.390625 
Q 38.8125 6.390625 42.859375 10.171875 
Q 46.921875 13.96875 46.921875 20.515625 
Q 46.921875 27.09375 42.890625 30.859375 
Q 38.875 34.625 31.78125 34.625 
M 21.921875 38.8125 
Q 15.578125 40.375 12.03125 44.71875 
Q 8.5 49.078125 8.5 55.328125 
Q 8.5 64.0625 14.71875 69.140625 
Q 20.953125 74.21875 31.78125 74.21875 
Q 42.671875 74.21875 48.875 69.140625 
Q 55.078125 64.0625 55.078125 55.328125 
Q 55.078125 49.078125 51.53125 44.71875 
Q 48 40.375 41.703125 38.8125 
Q 48.828125 37.15625 52.796875 32.3125 
Q 56.78125 27.484375 56.78125 20.515625 
Q 56.78125 9.90625 50.3125 4.234375 
Q 43.84375 -1.421875 31.78125 -1.421875 
Q 19.734375 -1.421875 13.25 4.234375 
Q 6.78125 9.90625 6.78125 20.515625 
Q 6.78125 27.484375 10.78125 32.3125 
Q 14.796875 37.15625 21.921875 38.8125 
M 18.3125 54.390625 
Q 18.3125 48.734375 21.84375 45.5625 
Q 25.390625 42.390625 31.78125 42.390625 
Q 38.140625 42.390625 41.71875 45.5625 
Q 45.3125 48.734375 45.3125 54.390625 
Q 45.3125 60.0625 41.71875 63.234375 
Q 38.140625 66.40625 31.78125 66.40625 
Q 25.390625 66.40625 21.84375 63.234375 
Q 18.3125 60.0625 18.3125 54.390625 
" id="DejaVuSans-38"/>
      </defs>
      <g transform="translate(321.525688 316.465937)scale(0.1 -0.1)">
       <use xlink:href="#DejaVuSans-30"/>
       <use x="63.623047" xlink:href="#DejaVuSans-2e"/>
       <use x="95.410156" xlink:href="#DejaVuSans-38"/>
      </g>
     </g>
    </g>
    <g id="xtick_6">
     <g id="line2d_6">
      <g>
       <use style="stroke:#000000;stroke-width:0.8;" x="400.90125" xlink:href="#mf1dd74e973" y="301.8675"/>
      </g>
     </g>
     <g id="text_6">
      <!-- 1.0 -->
      <defs>
       <path d="M 12.40625 8.296875 
L 28.515625 8.296875 
L 28.515625 63.921875 
L 10.984375 60.40625 
L 10.984375 69.390625 
L 28.421875 72.90625 
L 38.28125 72.90625 
L 38.28125 8.296875 
L 54.390625 8.296875 
L 54.390625 0 
L 12.40625 0 
z
" id="DejaVuSans-31"/>
      </defs>
      <g transform="translate(392.949688 316.465937)scale(0.1 -0.1)">
       <use xlink:href="#DejaVuSans-31"/>
       <use x="63.623047" xlink:href="#DejaVuSans-2e"/>
       <use x="95.410156" xlink:href="#DejaVuSans-30"/>
      </g>
     </g>
    </g>
    <g id="text_7">
     <!-- False Positive Rate -->
     <defs>
      <path d="M 9.8125 72.90625 
L 51.703125 72.90625 
L 51.703125 64.59375 
L 19.671875 64.59375 
L 19.671875 43.109375 
L 48.578125 43.109375 
L 48.578125 34.8125 
L 19.671875 34.8125 
L 19.671875 0 
L 9.8125 0 
z
" id="DejaVuSans-46"/>
      <path d="M 34.28125 27.484375 
Q 23.390625 27.484375 19.1875 25 
Q 14.984375 22.515625 14.984375 16.5 
Q 14.984375 11.71875 18.140625 8.90625 
Q 21.296875 6.109375 26.703125 6.109375 
Q 34.1875 6.109375 38.703125 11.40625 
Q 43.21875 16.703125 43.21875 25.484375 
L 43.21875 27.484375 
z
M 52.203125 31.203125 
L 52.203125 0 
L 43.21875 0 
L 43.21875 8.296875 
Q 40.140625 3.328125 35.546875 0.953125 
Q 30.953125 -1.421875 24.3125 -1.421875 
Q 15.921875 -1.421875 10.953125 3.296875 
Q 6 8.015625 6 15.921875 
Q 6 25.140625 12.171875 29.828125 
Q 18.359375 34.515625 30.609375 34.515625 
L 43.21875 34.515625 
L 43.21875 35.40625 
Q 43.21875 41.609375 39.140625 45 
Q 35.0625 48.390625 27.6875 48.390625 
Q 23 48.390625 18.546875 47.265625 
Q 14.109375 46.140625 10.015625 43.890625 
L 10.015625 52.203125 
Q 14.9375 54.109375 19.578125 55.046875 
Q 24.21875 56 28.609375 56 
Q 40.484375 56 46.34375 49.84375 
Q 52.203125 43.703125 52.203125 31.203125 
" id="DejaVuSans-61"/>
      <path d="M 9.421875 75.984375 
L 18.40625 75.984375 
L 18.40625 0 
L 9.421875 0 
z
" id="DejaVuSans-6c"/>
      <path d="M 44.28125 53.078125 
L 44.28125 44.578125 
Q 40.484375 46.53125 36.375 47.5 
Q 32.28125 48.484375 27.875 48.484375 
Q 21.1875 48.484375 17.84375 46.4375 
Q 14.5 44.390625 14.5 40.28125 
Q 14.5 37.15625 16.890625 35.375 
Q 19.28125 33.59375 26.515625 31.984375 
L 29.59375 31.296875 
Q 39.15625 29.25 43.1875 25.515625 
Q 47.21875 21.78125 47.21875 15.09375 
Q 47.21875 7.46875 41.1875 3.015625 
Q 35.15625 -1.421875 24.609375 -1.421875 
Q 20.21875 -1.421875 15.453125 -0.5625 
Q 10.6875 0.296875 5.421875 2 
L 5.421875 11.28125 
Q 10.40625 8.6875 15.234375 7.390625 
Q 20.0625 6.109375 24.8125 6.109375 
Q 31.15625 6.109375 34.5625 8.28125 
Q 37.984375 10.453125 37.984375 14.40625 
Q 37.984375 18.0625 35.515625 20.015625 
Q 33.0625 21.96875 24.703125 23.78125 
L 21.578125 24.515625 
Q 13.234375 26.265625 9.515625 29.90625 
Q 5.8125 33.546875 5.8125 39.890625 
Q 5.8125 47.609375 11.28125 51.796875 
Q 16.75 56 26.8125 56 
Q 31.78125 56 36.171875 55.265625 
Q 40.578125 54.546875 44.28125 53.078125 
" id="DejaVuSans-73"/>
      <path d="M 56.203125 29.59375 
L 56.203125 25.203125 
L 14.890625 25.203125 
Q 15.484375 15.921875 20.484375 11.0625 
Q 25.484375 6.203125 34.421875 6.203125 
Q 39.59375 6.203125 44.453125 7.46875 
Q 49.3125 8.734375 54.109375 11.28125 
L 54.109375 2.78125 
Q 49.265625 0.734375 44.1875 -0.34375 
Q 39.109375 -1.421875 33.890625 -1.421875 
Q 20.796875 -1.421875 13.15625 6.1875 
Q 5.515625 13.8125 5.515625 26.8125 
Q 5.515625 40.234375 12.765625 48.109375 
Q 20.015625 56 32.328125 56 
Q 43.359375 56 49.78125 48.890625 
Q 56.203125 41.796875 56.203125 29.59375 
M 47.21875 32.234375 
Q 47.125 39.59375 43.09375 43.984375 
Q 39.0625 48.390625 32.421875 48.390625 
Q 24.90625 48.390625 20.390625 44.140625 
Q 15.875 39.890625 15.1875 32.171875 
z
" id="DejaVuSans-65"/>
      <path id="DejaVuSans-20"/>
      <path d="M 19.671875 64.796875 
L 19.671875 37.40625 
L 32.078125 37.40625 
Q 38.96875 37.40625 42.71875 40.96875 
Q 46.484375 44.53125 46.484375 51.125 
Q 46.484375 57.671875 42.71875 61.234375 
Q 38.96875 64.796875 32.078125 64.796875 
z
M 9.8125 72.90625 
L 32.078125 72.90625 
Q 44.34375 72.90625 50.609375 67.359375 
Q 56.890625 61.8125 56.890625 51.125 
Q 56.890625 40.328125 50.609375 34.8125 
Q 44.34375 29.296875 32.078125 29.296875 
L 19.671875 29.296875 
L 19.671875 0 
L 9.8125 0 
z
" id="DejaVuSans-50"/>
      <path d="M 30.609375 48.390625 
Q 23.390625 48.390625 19.1875 42.75 
Q 14.984375 37.109375 14.984375 27.296875 
Q 14.984375 17.484375 19.15625 11.84375 
Q 23.34375 6.203125 30.609375 6.203125 
Q 37.796875 6.203125 41.984375 11.859375 
Q 46.1875 17.53125 46.1875 27.296875 
Q 46.1875 37.015625 41.984375 42.703125 
Q 37.796875 48.390625 30.609375 48.390625 
M 30.609375 56 
Q 42.328125 56 49.015625 48.375 
Q 55.71875 40.765625 55.71875 27.296875 
Q 55.71875 13.875 49.015625 6.21875 
Q 42.328125 -1.421875 30.609375 -1.421875 
Q 18.84375 -1.421875 12.171875 6.21875 
Q 5.515625 13.875 5.515625 27.296875 
Q 5.515625 40.765625 12.171875 48.375 
Q 18.84375 56 30.609375 56 
" id="DejaVuSans-6f"/>
      <path d="M 9.421875 54.6875 
L 18.40625 54.6875 
L 18.40625 0 
L 9.421875 0 
z
M 9.421875 75.984375 
L 18.40625 75.984375 
L 18.40625 64.59375 
L 9.421875 64.59375 
z
" id="DejaVuSans-69"/>
      <path d="M 18.3125 70.21875 
L 18.3125 54.6875 
L 36.8125 54.6875 
L 36.8125 47.703125 
L 18.3125 47.703125 
L 18.3125 18.015625 
Q 18.3125 11.328125 20.140625 9.421875 
Q 21.96875 7.515625 27.59375 7.515625 
L 36.8125 7.515625 
L 36.8125 0 
L 27.59375 0 
Q 17.1875 0 13.234375 3.875 
Q 9.28125 7.765625 9.28125 18.015625 
L 9.28125 47.703125 
L 2.6875 47.703125 
L 2.6875 54.6875 
L 9.28125 54.6875 
L 9.28125 70.21875 
z
" id="DejaVuSans-74"/>
      <path d="M 2.984375 54.6875 
L 12.5 54.6875 
L 29.59375 8.796875 
L 46.6875 54.6875 
L 56.203125 54.6875 
L 35.6875 0 
L 23.484375 0 
z
" id="DejaVuSans-76"/>
      <path d="M 44.390625 34.1875 
Q 47.5625 33.109375 50.5625 29.59375 
Q 53.5625 26.078125 56.59375 19.921875 
L 66.609375 0 
L 56 0 
L 46.6875 18.703125 
Q 43.0625 26.03125 39.671875 28.421875 
Q 36.28125 30.8125 30.421875 30.8125 
L 19.671875 30.8125 
L 19.671875 0 
L 9.8125 0 
L 9.8125 72.90625 
L 32.078125 72.90625 
Q 44.578125 72.90625 50.734375 67.671875 
Q 56.890625 62.453125 56.890625 51.90625 
Q 56.890625 45.015625 53.6875 40.46875 
Q 50.484375 35.9375 44.390625 34.1875 
M 19.671875 64.796875 
L 19.671875 38.921875 
L 32.078125 38.921875 
Q 39.203125 38.921875 42.84375 42.21875 
Q 46.484375 45.515625 46.484375 51.90625 
Q 46.484375 58.296875 42.84375 61.546875 
Q 39.203125 64.796875 32.078125 64.796875 
z
" id="DejaVuSans-52"/>
     </defs>
     <g transform="translate(175.135781 330.144062)scale(0.1 -0.1)">
      <use xlink:href="#DejaVuSans-46"/>
      <use x="57.378906" xlink:href="#DejaVuSans-61"/>
      <use x="118.658203" xlink:href="#DejaVuSans-6c"/>
      <use x="146.441406" xlink:href="#DejaVuSans-73"/>
      <use x="198.541016" xlink:href="#DejaVuSans-65"/>
      <use x="260.064453" xlink:href="#DejaVuSans-20"/>
      <use x="291.851562" xlink:href="#DejaVuSans-50"/>
      <use x="352.107422" xlink:href="#DejaVuSans-6f"/>
      <use x="413.289062" xlink:href="#DejaVuSans-73"/>
      <use x="465.388672" xlink:href="#DejaVuSans-69"/>
      <use x="493.171875" xlink:href="#DejaVuSans-74"/>
      <use x="532.380859" xlink:href="#DejaVuSans-69"/>
      <use x="560.164062" xlink:href="#DejaVuSans-76"/>
      <use x="619.34375" xlink:href="#DejaVuSans-65"/>
      <use x="680.867188" xlink:href="#DejaVuSans-20"/>
      <use x="712.654297" xlink:href="#DejaVuSans-52"/>
      <use x="782.105469" xlink:href="#DejaVuSans-61"/>
      <use x="843.384766" xlink:href="#DejaVuSans-74"/>
      <use x="882.59375" xlink:href="#DejaVuSans-65"/>
     </g>
    </g>
   </g>
   <g id="matplotlib.axis_2">
    <g id="ytick_1">
     <g id="line2d_7">
      <defs>
       <path d="M 0 0 
L -3.5 0 
" id="mec7d6b7b61" style="stroke:#000000;stroke-width:0.8;"/>
      </defs>
      <g>
       <use style="stroke:#000000;stroke-width:0.8;" x="43.78125" xlink:href="#mec7d6b7b61" y="301.8675"/>
      </g>
     </g>
     <g id="text_8">
      <!-- 0.0 -->
      <g transform="translate(20.878125 305.666719)scale(0.1 -0.1)">
       <use xlink:href="#DejaVuSans-30"/>
       <use x="63.623047" xlink:href="#DejaVuSans-2e"/>
       <use x="95.410156" xlink:href="#DejaVuSans-30"/>
      </g>
     </g>
    </g>
    <g id="ytick_2">
     <g id="line2d_8">
      <g>
       <use style="stroke:#000000;stroke-width:0.8;" x="43.78125" xlink:href="#mec7d6b7b61" y="251.1795"/>
      </g>
     </g>
     <g id="text_9">
      <!-- 0.2 -->
      <g transform="translate(20.878125 254.978719)scale(0.1 -0.1)">
       <use xlink:href="#DejaVuSans-30"/>
       <use x="63.623047" xlink:href="#DejaVuSans-2e"/>
       <use x="95.410156" xlink:href="#DejaVuSans-32"/>
      </g>
     </g>
    </g>
    <g id="ytick_3">
     <g id="line2d_9">
      <g>
       <use style="stroke:#000000;stroke-width:0.8;" x="43.78125" xlink:href="#mec7d6b7b61" y="200.4915"/>
      </g>
     </g>
     <g id="text_10">
      <!-- 0.4 -->
      <g transform="translate(20.878125 204.290719)scale(0.1 -0.1)">
       <use xlink:href="#DejaVuSans-30"/>
       <use x="63.623047" xlink:href="#DejaVuSans-2e"/>
       <use x="95.410156" xlink:href="#DejaVuSans-34"/>
      </g>
     </g>
    </g>
    <g id="ytick_4">
     <g id="line2d_10">
      <g>
       <use style="stroke:#000000;stroke-width:0.8;" x="43.78125" xlink:href="#mec7d6b7b61" y="149.8035"/>
      </g>
     </g>
     <g id="text_11">
      <!-- 0.6 -->
      <g transform="translate(20.878125 153.602719)scale(0.1 -0.1)">
       <use xlink:href="#DejaVuSans-30"/>
       <use x="63.623047" xlink:href="#DejaVuSans-2e"/>
       <use x="95.410156" xlink:href="#DejaVuSans-36"/>
      </g>
     </g>
    </g>
    <g id="ytick_5">
     <g id="line2d_11">
      <g>
       <use style="stroke:#000000;stroke-width:0.8;" x="43.78125" xlink:href="#mec7d6b7b61" y="99.1155"/>
      </g>
     </g>
     <g id="text_12">
      <!-- 0.8 -->
      <g transform="translate(20.878125 102.914719)scale(0.1 -0.1)">
       <use xlink:href="#DejaVuSans-30"/>
       <use x="63.623047" xlink:href="#DejaVuSans-2e"/>
       <use x="95.410156" xlink:href="#DejaVuSans-38"/>
      </g>
     </g>
    </g>
    <g id="ytick_6">
     <g id="line2d_12">
      <g>
       <use style="stroke:#000000;stroke-width:0.8;" x="43.78125" xlink:href="#mec7d6b7b61" y="48.4275"/>
      </g>
     </g>
     <g id="text_13">
      <!-- 1.0 -->
      <g transform="translate(20.878125 52.226719)scale(0.1 -0.1)">
       <use xlink:href="#DejaVuSans-31"/>
       <use x="63.623047" xlink:href="#DejaVuSans-2e"/>
       <use x="95.410156" xlink:href="#DejaVuSans-30"/>
      </g>
     </g>
    </g>
    <g id="text_14">
     <!-- True Positive Rate -->
     <defs>
      <path d="M -0.296875 72.90625 
L 61.375 72.90625 
L 61.375 64.59375 
L 35.5 64.59375 
L 35.5 0 
L 25.59375 0 
L 25.59375 64.59375 
L -0.296875 64.59375 
z
" id="DejaVuSans-54"/>
      <path d="M 41.109375 46.296875 
Q 39.59375 47.171875 37.8125 47.578125 
Q 36.03125 48 33.890625 48 
Q 26.265625 48 22.1875 43.046875 
Q 18.109375 38.09375 18.109375 28.8125 
L 18.109375 0 
L 9.078125 0 
L 9.078125 54.6875 
L 18.109375 54.6875 
L 18.109375 46.1875 
Q 20.953125 51.171875 25.484375 53.578125 
Q 30.03125 56 36.53125 56 
Q 37.453125 56 38.578125 55.875 
Q 39.703125 55.765625 41.0625 55.515625 
z
" id="DejaVuSans-72"/>
      <path d="M 8.5 21.578125 
L 8.5 54.6875 
L 17.484375 54.6875 
L 17.484375 21.921875 
Q 17.484375 14.15625 20.5 10.265625 
Q 23.53125 6.390625 29.59375 6.390625 
Q 36.859375 6.390625 41.078125 11.03125 
Q 45.3125 15.671875 45.3125 23.6875 
L 45.3125 54.6875 
L 54.296875 54.6875 
L 54.296875 0 
L 45.3125 0 
L 45.3125 8.40625 
Q 42.046875 3.421875 37.71875 1 
Q 33.40625 -1.421875 27.6875 -1.421875 
Q 18.265625 -1.421875 13.375 4.4375 
Q 8.5 10.296875 8.5 21.578125 
M 31.109375 56 
z
" id="DejaVuSans-75"/>
     </defs>
     <g transform="translate(14.798438 214.357594)rotate(-90)scale(0.1 -0.1)">
      <use xlink:href="#DejaVuSans-54"/>
      <use x="60.865234" xlink:href="#DejaVuSans-72"/>
      <use x="101.978516" xlink:href="#DejaVuSans-75"/>
      <use x="165.357422" xlink:href="#DejaVuSans-65"/>
      <use x="226.880859" xlink:href="#DejaVuSans-20"/>
      <use x="258.667969" xlink:href="#DejaVuSans-50"/>
      <use x="318.923828" xlink:href="#DejaVuSans-6f"/>
      <use x="380.105469" xlink:href="#DejaVuSans-73"/>
      <use x="432.205078" xlink:href="#DejaVuSans-69"/>
      <use x="459.988281" xlink:href="#DejaVuSans-74"/>
      <use x="499.197266" xlink:href="#DejaVuSans-69"/>
      <use x="526.980469" xlink:href="#DejaVuSans-76"/>
      <use x="586.160156" xlink:href="#DejaVuSans-65"/>
      <use x="647.683594" xlink:href="#DejaVuSans-20"/>
      <use x="679.470703" xlink:href="#DejaVuSans-52"/>
      <use x="748.921875" xlink:href="#DejaVuSans-61"/>
      <use x="810.201172" xlink:href="#DejaVuSans-74"/>
      <use x="849.410156" xlink:href="#DejaVuSans-65"/>
     </g>
    </g>
   </g>
   <g id="line2d_13">
    <path clip-path="url(#p45d48e5136)" d="M 43.78125 301.8675 
L 43.829645 300.764388 
L 43.952832 300.212832 
L 44.018826 300.212832 
L 44.102417 299.937054 
L 44.300397 299.937054 
L 44.405986 298.282386 
L 44.859139 294.97305 
L 45.079116 294.97305 
L 45.281495 293.869937 
L 45.637859 291.663713 
L 45.769845 291.663713 
L 47.912424 263.534355 
L 48.04881 262.431243 
L 48.519562 260.500797 
L 48.620751 259.949241 
L 48.708742 259.949241 
L 48.73514 258.846129 
L 51.194486 245.333006 
L 51.238482 245.333006 
L 51.63884 244.229894 
L 52.21958 242.02367 
L 52.285574 242.02367 
L 52.399962 240.920558 
L 52.531948 240.920558 
L 52.690332 238.438555 
L 52.760725 237.335443 
L 53.046695 237.335443 
L 53.147885 235.404997 
L 53.323867 235.404997 
L 53.543844 232.647217 
L 53.807817 232.647217 
L 53.983799 229.889437 
L 54.115785 229.889437 
L 54.194977 229.337881 
L 54.309365 228.234769 
L 55.101284 228.234769 
L 55.448848 226.580101 
L 55.580834 226.580101 
L 55.704021 226.028545 
L 55.880003 226.028545 
L 56.091182 224.098098 
L 56.324357 222.167652 
L 56.58833 219.409872 
L 56.676321 219.409872 
L 56.812707 218.30676 
L 56.900698 218.30676 
L 57.081079 217.203648 
L 57.204267 216.652092 
L 57.336253 216.652092 
L 57.477039 214.445868 
L 57.714614 212.7912 
L 57.978587 212.7912 
L 58.158968 211.688088 
L 58.268957 211.688088 
L 58.295354 210.584976 
L 58.581325 210.584976 
L 58.735309 207.827195 
L 59.043277 207.827195 
L 59.21046 204.517859 
L 59.386442 204.517859 
L 59.654814 202.035857 
L 59.786801 202.035857 
L 59.940785 200.656967 
L 60.138764 200.656967 
L 60.27955 198.174965 
L 60.455532 198.174965 
L 60.618315 195.96874 
L 60.706306 195.96874 
L 60.7679 195.692962 
L 60.930683 193.486738 
L 61.018674 193.486738 
L 61.476227 189.07429 
L 61.806193 189.07429 
L 61.907382 187.143844 
L 61.968976 186.868066 
L 62.562915 186.868066 
L 62.747696 184.661842 
L 62.90168 184.661842 
L 63.126057 183.55873 
L 63.346034 183.55873 
L 63.561612 181.904061 
L 63.737594 181.904061 
L 63.825584 180.525171 
L 64.331532 180.525171 
L 64.494316 176.940057 
L 64.626302 176.940057 
L 64.907873 175.285389 
L 65.369825 175.285389 
L 65.589803 172.527609 
L 65.80978 172.527609 
L 66.166143 170.045607 
L 66.474112 170.045607 
L 66.632495 168.942495 
L 67.292427 168.942495 
L 67.327624 168.390939 
L 67.591596 168.390939 
L 67.626793 167.839382 
L 67.758779 167.839382 
L 67.886366 166.184714 
L 67.952359 166.184714 
L 67.978757 165.081602 
L 68.198734 165.081602 
L 68.357118 163.426934 
L 68.533099 163.426934 
L 69.153435 159.84182 
L 69.197431 159.84182 
L 69.364614 157.911374 
L 69.672582 157.911374 
L 70.17853 155.153594 
L 70.442503 155.153594 
L 70.609685 154.602038 
L 70.785667 154.602038 
L 70.864859 154.050482 
L 70.935252 154.050482 
L 70.992446 153.498925 
L 71.168428 153.498925 
L 71.375207 151.292701 
L 71.740369 151.292701 
L 71.854757 150.189589 
L 72.052737 150.189589 
L 72.303511 146.604475 
L 72.347506 146.604475 
L 72.453095 144.949807 
L 73.179021 144.949807 
L 73.363802 142.743583 
L 73.627774 142.743583 
L 73.711366 142.467805 
L 73.909345 139.710024 
L 74.217314 139.710024 
L 74.419693 138.606912 
L 74.83765 138.606912 
L 74.969636 137.228022 
L 75.409591 137.228022 
L 75.528379 136.400688 
L 76.716256 136.400688 
L 76.742653 135.297576 
L 77.072619 135.297576 
L 77.16501 134.194464 
L 77.340992 134.194464 
L 77.433382 133.091352 
L 77.521373 133.091352 
L 77.55657 132.539796 
L 78.282495 132.539796 
L 78.383684 131.98824 
L 78.647657 131.98824 
L 78.819239 130.333572 
L 78.863235 130.333572 
L 78.964424 129.782016 
L 79.052415 129.782016 
L 79.180002 129.506238 
L 79.531966 129.506238 
L 79.633156 128.954682 
L 79.985119 128.954682 
L 80.121505 127.85157 
L 80.209496 127.85157 
L 80.293088 127.575792 
L 81.348979 127.575792 
L 81.608552 127.300014 
L 81.652547 127.300014 
L 81.797733 126.47268 
L 82.237687 126.47268 
L 82.352075 125.369567 
L 84.111894 125.369567 
L 84.129492 125.093789 
L 84.305474 125.093789 
L 84.406664 124.542233 
L 84.53865 124.542233 
L 84.622241 124.266455 
L 86.074092 124.266455 
L 86.166482 123.163343 
L 87.662328 123.163343 
L 87.798714 122.060231 
L 88.32666 122.060231 
L 88.388253 120.405563 
L 88.982192 120.405563 
L 89.131777 120.129785 
L 89.461743 120.129785 
L 89.540935 119.578229 
L 89.628926 119.578229 
L 89.787309 118.475117 
L 90.592426 118.475117 
L 90.808004 116.820449 
L 91.665916 116.820449 
L 91.789103 116.268893 
L 92.427037 116.268893 
L 92.488631 115.993115 
L 93.896486 115.993115 
L 94.041671 115.441559 
L 94.569616 115.441559 
L 94.653208 115.165781 
L 95.203151 115.165781 
L 95.229548 114.062669 
L 97.605304 114.062669 
L 97.728491 113.511113 
L 99.131946 113.511113 
L 99.277131 112.959557 
L 101.586893 112.959557 
L 101.727679 110.753332 
L 102.58559 110.753332 
L 102.708778 110.201776 
L 105.062535 110.201776 
L 105.198921 109.098664 
L 106.870749 109.098664 
L 106.905945 108.547108 
L 108.423789 108.547108 
L 108.560175 107.443996 
L 108.736157 107.443996 
L 108.806549 104.961994 
L 110.698354 104.961994 
L 110.777546 104.410438 
L 111.846636 104.410438 
L 111.996221 104.13466 
L 112.898128 104.13466 
L 112.96852 103.031548 
L 117.764026 103.031548 
L 117.790424 101.928436 
L 118.318369 101.928436 
L 118.441557 101.37688 
L 118.639536 101.37688 
L 118.70113 101.101102 
L 118.877112 101.101102 
L 118.956303 100.549546 
L 119.198279 100.549546 
L 119.317066 99.722212 
L 119.757021 99.722212 
L 119.818615 99.446434 
L 120.082587 99.446434 
L 120.166179 97.791766 
L 121.112081 97.791766 
L 121.182474 96.688653 
L 121.886402 96.688653 
L 121.921598 96.137097 
L 124.561326 96.137097 
L 124.627319 95.585541 
L 125.617217 95.585541 
L 125.652413 95.033985 
L 126.158361 95.033985 
L 126.285948 93.379317 
L 127.693803 93.379317 
L 127.750997 92.827761 
L 136.396106 92.827761 
L 136.497296 92.276205 
L 136.629282 92.276205 
L 136.74807 91.448871 
L 138.573882 91.448871 
L 138.710268 90.345759 
L 141.816348 90.345759 
L 141.869142 89.518425 
L 143.496975 89.518425 
L 143.536571 89.242647 
L 144.240498 89.242647 
L 144.341688 88.691091 
L 144.539667 88.691091 
L 144.662854 88.139535 
L 148.059305 88.139535 
L 148.173693 87.036423 
L 148.481661 87.036423 
L 148.600449 86.209089 
L 150.206283 86.209089 
L 150.320671 85.105977 
L 154.654225 85.105977 
L 154.680622 84.002865 
L 156.286457 84.002865 
L 156.431642 83.451308 
L 158.675411 83.451308 
L 161.508719 83.17553 
L 161.636305 82.899752 
L 163.000165 82.899752 
L 163.743688 82.623974 
L 163.968065 82.623974 
L 164.047257 82.072418 
L 164.883171 82.072418 
L 164.909568 80.969306 
L 165.855471 80.969306 
L 165.895067 80.693528 
L 166.115044 80.693528 
L 166.264629 80.41775 
L 166.682585 80.41775 
L 166.83657 77.65997 
L 168.750372 77.65997 
L 168.811966 77.384192 
L 173.515081 77.384192 
L 173.554677 75.729524 
L 174.01663 75.729524 
L 174.166214 75.453746 
L 175.090119 75.453746 
L 175.261701 75.177968 
L 175.613665 75.177968 
L 175.692857 74.626412 
L 177.980621 74.626412 
L 178.139005 73.5233 
L 181.68064 73.5233 
L 182.0722 73.247522 
L 191.157263 73.247522 
L 191.280451 72.695966 
L 191.720405 72.695966 
L 191.887588 72.14441 
L 191.931584 72.14441 
L 192.010775 71.592854 
L 200.149937 71.592854 
L 203.753165 71.317076 
L 204.721066 71.317076 
L 207.840344 70.76552 
L 209.556167 70.76552 
L 209.595763 70.489742 
L 210.717648 70.489742 
L 211.232395 69.662408 
L 213.388173 69.662408 
L 213.484963 68.835073 
L 216.335869 68.559295 
L 217.536945 68.007739 
L 221.597727 68.007739 
L 221.65932 67.731961 
L 226.661605 67.731961 
L 228.021065 67.456183 
L 232.134641 67.456183 
L 232.187435 66.628849 
L 234.497197 66.628849 
L 234.655581 65.801515 
L 236.547386 65.801515 
L 236.626578 65.249959 
L 238.364399 65.249959 
L 238.430392 62.492179 
L 247.687038 62.492179 
L 247.722235 61.940623 
L 248.439361 61.940623 
L 248.461358 59.182843 
L 253.608828 59.182843 
L 253.714417 58.907065 
L 265.175236 58.907065 
L 265.302823 58.631287 
L 267.194628 58.631287 
L 267.234224 58.355509 
L 267.652181 58.355509 
L 267.823763 58.079731 
L 268.483695 58.079731 
L 269.526388 57.252397 
L 271.009035 57.252397 
L 271.114624 56.976619 
L 273.2924 56.976619 
L 273.371591 56.425063 
L 287.256561 56.425063 
L 287.335753 55.873507 
L 296.605597 55.873507 
L 296.724385 55.046172 
L 300.745571 55.046172 
L 300.785167 54.770394 
L 304.964736 54.770394 
L 307.811243 53.391504 
L 309.901027 53.391504 
L 310.046212 52.839948 
L 315.083693 52.839948 
L 316.429954 52.56417 
L 323.051272 52.56417 
L 323.178859 52.288392 
L 325.752594 52.288392 
L 325.880181 52.012614 
L 327.354029 52.012614 
L 327.43762 51.736836 
L 332.791868 51.736836 
L 332.919455 51.461058 
L 341.533768 51.461058 
L 341.573364 51.18528 
L 341.70535 51.18528 
L 341.832937 50.909502 
L 342.655652 50.909502 
L 342.739243 50.633724 
L 345.906917 50.633724 
L 345.990508 50.357946 
L 348.476252 50.357946 
L 348.603839 50.082168 
L 365.102139 50.082168 
L 365.141735 49.80639 
L 368.661372 49.80639 
L 368.744964 49.530612 
L 377.588052 49.530612 
L 377.61445 48.4275 
L 400.90125 48.4275 
L 400.90125 48.4275 
" style="fill:none;stroke:#1f77b4;stroke-linecap:square;stroke-width:1.5;"/>
   </g>
   <g id="line2d_14">
    <path clip-path="url(#p45d48e5136)" d="M 43.78125 301.8675 
L 43.825245 299.10972 
L 43.895638 298.006608 
L 44.115616 298.006608 
L 44.2652 296.35194 
L 44.309196 296.35194 
L 44.436782 293.318381 
L 44.612764 293.318381 
L 45.017523 288.354377 
L 45.681854 281.735705 
L 45.857836 281.735705 
L 48.673546 260.776575 
L 48.691144 259.121907 
L 48.972715 254.709459 
L 51.656438 239.541668 
L 51.920411 239.541668 
L 52.259176 238.714334 
L 52.303172 238.714334 
L 52.531948 233.750329 
L 52.663935 233.750329 
L 53.367862 229.337881 
L 54.06739 226.304323 
L 54.340162 224.098098 
L 54.832911 216.376314 
L 55.184875 216.376314 
L 55.299263 215.273202 
L 55.360857 213.618534 
L 55.475245 212.515422 
L 55.589633 211.41231 
L 55.748017 210.309197 
L 55.880003 210.309197 
L 55.906401 209.206085 
L 56.082382 209.206085 
L 56.416748 205.345193 
L 56.504739 205.345193 
L 56.583931 204.793637 
L 56.759913 204.793637 
L 56.909497 203.138969 
L 57.393447 203.138969 
L 57.446242 200.932745 
L 57.578228 200.932745 
L 57.833402 197.623409 
L 58.000585 197.071853 
L 58.14137 194.865628 
L 58.471336 194.865628 
L 58.761706 191.004736 
L 58.849697 191.004736 
L 58.999282 189.350068 
L 59.263255 189.350068 
L 59.333647 188.522734 
L 59.59762 188.522734 
L 59.962783 183.834508 
L 60.094769 183.834508 
L 60.200358 182.179839 
L 60.992276 182.179839 
L 61.111064 181.352505 
L 61.683005 181.352505 
L 62.043768 179.146281 
L 62.307741 179.146281 
L 62.430928 178.594725 
L 62.672903 178.594725 
L 62.928077 178.043169 
L 62.980872 175.836945 
L 63.156853 175.836945 
L 63.280041 175.285389 
L 63.939973 175.285389 
L 64.06316 174.733833 
L 64.146751 174.458055 
L 64.674697 174.458055 
L 64.753889 173.906499 
L 64.885875 173.906499 
L 65.12785 172.527609 
L 65.215841 172.527609 
L 65.299433 172.251831 
L 65.563405 172.251831 
L 65.71299 170.597163 
L 65.800981 170.597163 
L 65.924168 170.045607 
L 66.126547 170.045607 
L 66.284931 168.942495 
L 66.504908 168.942495 
L 66.619297 168.115161 
L 66.689689 167.012048 
L 66.953662 167.012048 
L 67.323224 162.5996 
L 67.569599 161.496488 
L 67.613594 161.496488 
L 67.983156 157.08404 
L 68.775074 157.08404 
L 68.871864 154.877816 
L 69.047846 154.877816 
L 69.153435 153.774703 
L 69.285422 153.774703 
L 69.408609 153.223147 
L 69.848564 153.223147 
L 69.88376 152.671591 
L 70.323715 152.671591 
L 70.596487 150.465367 
L 70.772469 150.465367 
L 70.895656 149.913811 
L 70.939651 149.913811 
L 71.208024 147.431809 
L 71.34001 147.431809 
L 71.375207 146.880253 
L 72.387102 146.880253 
L 72.615879 144.674029 
L 72.835856 144.674029 
L 72.959043 144.122473 
L 73.09103 141.364693 
L 73.267012 141.364693 
L 73.390199 140.813137 
L 73.522185 140.813137 
L 73.715765 139.158468 
L 76.241105 139.158468 
L 76.399489 138.055356 
L 76.751453 138.055356 
L 76.909836 136.952244 
L 77.085818 136.952244 
L 77.16501 136.400688 
L 77.253001 136.400688 
L 77.288197 135.849132 
L 77.684156 135.849132 
L 77.930531 134.74602 
L 78.678454 134.74602 
L 78.872034 133.091352 
L 78.916029 133.091352 
L 78.951226 132.539796 
L 79.127208 132.539796 
L 79.443975 127.575792 
L 80.191898 127.575792 
L 80.227094 127.024236 
L 81.291785 127.024236 
L 81.406173 125.921124 
L 81.538159 125.921124 
L 81.661347 125.369567 
L 82.184893 125.369567 
L 82.352075 124.818011 
L 82.484062 124.818011 
L 82.563254 124.266455 
L 82.739236 124.266455 
L 82.818427 123.714899 
L 83.698337 123.714899 
L 83.812725 122.611787 
L 84.032702 122.611787 
L 84.14709 121.508675 
L 84.270278 120.957119 
L 84.798223 120.957119 
L 84.965406 120.405563 
L 85.185383 120.405563 
L 85.308571 120.129785 
L 85.581343 118.475117 
L 86.197279 118.475117 
L 86.399658 117.372005 
L 86.839613 117.372005 
L 86.980398 115.165781 
L 87.508344 115.165781 
L 87.710723 114.614225 
L 87.974696 114.614225 
L 88.141879 114.062669 
L 88.273865 114.062669 
L 88.353057 113.511113 
L 88.968994 113.511113 
L 89.048185 112.959557 
L 90.148072 112.959557 
L 90.183268 112.408001 
L 90.579228 112.408001 
L 90.724413 111.856445 
L 92.066274 111.856445 
L 92.189462 111.304888 
L 93.157362 111.304888 
L 93.192558 110.753332 
L 93.720504 110.753332 
L 93.843691 110.201776 
L 94.15166 110.201776 
L 94.274847 109.65022 
L 94.582815 109.65022 
L 94.706002 109.098664 
L 95.849885 109.098664 
L 96.017067 108.547108 
L 96.457022 108.547108 
L 96.527415 107.995552 
L 97.407324 107.995552 
L 97.44252 107.443996 
L 99.620296 107.443996 
L 99.743483 106.89244 
L 103.131134 106.89244 
L 103.166331 106.340884 
L 103.650281 106.340884 
L 103.808664 105.237772 
L 104.512592 105.237772 
L 104.706172 103.583104 
L 105.146127 103.583104 
L 105.172524 102.479992 
L 107.966236 101.928436 
L 109.528075 101.928436 
L 109.651262 101.652658 
L 109.937233 101.652658 
L 110.051621 100.549546 
L 110.729151 100.549546 
L 110.764348 99.99799 
L 111.556266 99.99799 
L 111.591462 99.446434 
L 114.380775 99.446434 
L 117.500054 99.170656 
L 119.994596 98.343322 
L 120.117784 97.791766 
L 120.513743 97.791766 
L 120.698524 95.585541 
L 122.986288 95.585541 
L 123.109475 95.033985 
L 123.571428 95.033985 
L 123.606624 94.482429 
L 123.914593 94.482429 
L 123.949789 93.930873 
L 127.117462 93.930873 
L 127.24065 93.379317 
L 127.592614 93.379317 
L 127.764196 93.103539 
L 129.040064 93.103539 
L 129.154453 92.000427 
L 129.286439 92.000427 
L 129.409626 91.448871 
L 129.915574 91.448871 
L 130.038761 90.897315 
L 133.699184 90.897315 
L 133.826771 90.621537 
L 135.058644 90.621537 
L 135.212628 89.242647 
L 136.75247 89.242647 
L 136.831661 88.691091 
L 137.095634 88.691091 
L 137.614781 88.139535 
L 138.274713 88.139535 
L 138.3979 87.587979 
L 138.661873 87.587979 
L 138.776261 86.484867 
L 140.360098 86.484867 
L 143.63776 86.209089 
L 145.740743 86.209089 
L 146.097107 85.657533 
L 146.317084 85.657533 
L 149.673938 85.381755 
L 150.905811 85.381755 
L 150.985003 84.830199 
L 154.350656 84.830199 
L 154.421049 83.727087 
L 162.736192 83.727087 
L 162.863779 83.451308 
L 163.479715 83.451308 
L 163.602903 82.899752 
L 165.120746 82.899752 
L 165.287929 82.348196 
L 167.047748 82.348196 
L 167.206131 81.245084 
L 168.218027 81.245084 
L 168.332415 80.693528 
L 168.411607 80.141972 
L 169.678677 80.141972 
L 169.705074 79.03886 
L 170.62018 78.487304 
L 171.372502 78.487304 
L 174.355395 77.935748 
L 177.465874 77.108414 
L 177.729847 77.108414 
L 177.765043 76.556858 
L 180.690742 76.556858 
L 180.769934 76.005302 
L 181.473861 76.005302 
L 181.544254 74.90219 
L 185.024295 74.90219 
L 185.226675 73.799078 
L 185.842611 73.799078 
L 185.965798 73.247522 
L 191.993177 73.247522 
L 192.019575 72.14441 
L 194.844083 72.14441 
L 194.97167 71.868632 
L 199.217233 71.868632 
L 199.34042 71.317076 
L 200.088343 71.317076 
L 200.123539 70.76552 
L 201.57539 70.76552 
L 201.654582 70.213964 
L 204.734264 70.213964 
L 207.954732 69.938186 
L 208.55747 69.110851 
L 210.273294 69.110851 
L 210.876031 68.283517 
L 212.261889 68.283517 
L 212.34548 68.007739 
L 215.909113 68.007739 
L 216.608641 67.731961 
L 217.752523 67.731961 
L 217.836114 67.456183 
L 221.905695 67.456183 
L 221.932092 66.353071 
L 223.075974 66.353071 
L 223.146367 65.249959 
L 226.490022 65.249959 
L 226.560415 64.146847 
L 226.890381 64.146847 
L 226.960774 63.043735 
L 232.284225 63.043735 
L 232.455808 62.767957 
L 236.380203 62.767957 
L 236.890551 61.664845 
L 237.418496 61.664845 
L 237.532885 60.561733 
L 246.287982 60.561733 
L 246.459565 60.285955 
L 246.635547 60.285955 
L 246.758734 59.734399 
L 255.293854 59.734399 
L 255.421441 59.458621 
L 257.489228 59.458621 
L 257.56842 58.907065 
L 262.737887 58.907065 
L 262.861075 58.355509 
L 269.873952 58.355509 
L 269.957543 58.079731 
L 275.399782 58.079731 
L 275.52297 57.528175 
L 277.823933 57.528175 
L 277.85033 56.425063 
L 278.81823 56.425063 
L 278.897422 55.873507 
L 282.672233 55.873507 
L 282.707429 55.32195 
L 283.47735 55.32195 
L 283.538944 55.046172 
L 285.12718 55.046172 
L 285.206372 54.494616 
L 299.39491 54.494616 
L 299.562093 53.94306 
L 301.453898 53.94306 
L 301.577085 53.391504 
L 316.297968 53.391504 
L 316.333164 52.839948 
L 316.641133 52.839948 
L 316.76432 52.288392 
L 327.648798 52.288392 
L 327.683995 51.736836 
L 329.135845 51.736836 
L 329.307427 51.461058 
L 331.573194 51.461058 
L 331.652386 50.909502 
L 335.457994 50.909502 
L 335.49319 50.357946 
L 344.622249 50.357946 
L 344.705841 50.082168 
L 346.0697 50.082168 
L 346.192888 49.530612 
L 355.471531 49.530612 
L 355.506728 48.979056 
L 371.433087 48.979056 
L 371.468283 48.4275 
L 400.90125 48.4275 
L 400.90125 48.4275 
" style="fill:none;stroke:#ff7f0e;stroke-linecap:square;stroke-width:1.5;"/>
   </g>
   <g id="line2d_15">
    <path clip-path="url(#p45d48e5136)" d="M 43.78125 301.8675 
L 44.419184 301.8675 
L 44.454381 301.315343 
L 44.709554 300.763186 
L 44.823943 299.658873 
L 45.52347 295.241618 
L 49.399471 264.87299 
L 49.487462 264.87299 
L 49.747035 264.596912 
L 49.914218 264.044755 
L 50.019807 262.388284 
L 53.623036 243.891029 
L 53.755022 241.130245 
L 53.87821 240.578088 
L 53.9662 240.578088 
L 54.07179 238.921618 
L 54.423753 238.921618 
L 54.626132 236.436912 
L 54.714123 236.436912 
L 54.828512 235.332598 
L 55.180475 235.332598 
L 55.391654 233.400049 
L 55.435649 233.400049 
L 55.488444 231.191422 
L 56.148376 231.191422 
L 56.231967 230.915343 
L 56.407949 230.915343 
L 56.671922 228.154559 
L 56.715917 228.154559 
L 56.821506 226.498088 
L 57.032684 225.945931 
L 57.261461 223.737304 
L 57.349452 223.737304 
L 57.525434 220.97652 
L 57.604626 220.424363 
L 57.719014 219.320049 
L 57.824603 217.663578 
L 58.000585 217.663578 
L 58.075377 216.835343 
L 58.202964 213.79848 
L 58.246959 213.79848 
L 58.352548 212.14201 
L 58.52853 212.14201 
L 58.572526 209.381225 
L 59.100471 209.381225 
L 59.223659 206.068284 
L 59.729607 206.068284 
L 59.874792 204.135735 
L 59.918787 204.135735 
L 59.953983 203.583578 
L 60.481929 203.583578 
L 60.675509 200.546716 
L 60.851491 200.546716 
L 61.018674 199.994559 
L 61.062669 199.994559 
L 61.190256 198.338088 
L 61.278247 198.338088 
L 61.507023 196.129461 
L 62.149357 196.129461 
L 62.254946 194.47299 
L 62.650906 194.47299 
L 62.972072 192.81652 
L 63.280041 192.81652 
L 63.350433 191.712206 
L 63.790388 191.712206 
L 64.344731 184.258088 
L 64.916672 184.258088 
L 65.198243 182.601618 
L 65.286234 182.601618 
L 65.347828 180.945147 
L 65.765785 180.945147 
L 65.998961 179.012598 
L 66.19694 179.012598 
L 66.443315 177.908284 
L 66.663292 177.908284 
L 66.764482 177.356127 
L 67.050452 177.356127 
L 67.120845 176.251814 
L 67.208836 176.251814 
L 67.301226 175.1475 
L 67.65319 175.1475 
L 67.688386 174.595343 
L 68.436309 174.595343 
L 68.563896 172.938873 
L 68.955456 172.938873 
L 69.034648 172.386716 
L 69.298621 172.386716 
L 69.439406 170.178088 
L 69.483401 170.178088 
L 69.641785 169.073775 
L 69.729776 169.073775 
L 69.852963 168.521618 
L 70.182929 168.521618 
L 70.301717 166.589069 
L 70.521694 166.589069 
L 70.636083 165.484755 
L 70.706475 164.380441 
L 70.794466 164.380441 
L 70.917654 163.828284 
L 71.04964 163.828284 
L 71.177227 162.171814 
L 71.573186 162.171814 
L 71.678775 161.895735 
L 72.338707 161.895735 
L 72.497091 160.791422 
L 72.717068 160.791422 
L 72.849055 159.411029 
L 73.025037 159.411029 
L 73.28021 156.098088 
L 73.544183 156.098088 
L 73.623375 155.545931 
L 73.755361 154.165539 
L 73.931343 154.165539 
L 74.177718 153.061225 
L 74.63967 151.404755 
L 74.83325 149.748284 
L 75.955135 149.748284 
L 76.073922 148.643971 
L 76.799848 148.643971 
L 77.033024 146.711422 
L 77.428983 146.711422 
L 77.604965 143.950637 
L 77.692956 143.950637 
L 77.785346 142.846324 
L 78.555267 142.846324 
L 78.590463 142.294167 
L 78.766445 142.294167 
L 78.845637 141.74201 
L 79.065614 141.74201 
L 79.180002 140.637696 
L 79.347185 140.085539 
L 79.523167 140.085539 
L 79.646354 139.533382 
L 79.826736 139.533382 
L 79.897128 138.429069 
L 80.799035 138.429069 
L 80.904625 137.876912 
L 81.036611 137.876912 
L 81.115803 137.324755 
L 81.291785 137.324755 
L 81.406173 136.220441 
L 81.670146 136.220441 
L 81.793333 135.668284 
L 82.01331 135.668284 
L 82.127699 134.563971 
L 82.215689 134.563971 
L 82.382872 134.011814 
L 82.875621 134.011814 
L 83.034005 132.9075 
L 83.236384 131.803186 
L 83.742332 131.803186 
L 83.944711 130.698873 
L 83.988707 129.31848 
L 84.516652 129.31848 
L 84.631041 128.214167 
L 84.763027 128.214167 
L 84.895013 126.833775 
L 84.983004 126.833775 
L 85.141388 125.729461 
L 85.625338 125.729461 
L 85.950905 124.07299 
L 86.742823 124.07299 
L 86.901207 122.968676 
L 88.001093 122.968676 
L 88.13308 121.588284 
L 88.968994 121.588284 
L 89.092181 121.036127 
L 89.840104 121.036127 
L 90.051282 120.483971 
L 90.711214 120.483971 
L 90.816803 120.207892 
L 92.444635 120.207892 
L 92.554624 118.8275 
L 93.258552 118.8275 
L 93.320145 118.551422 
L 93.716104 118.551422 
L 93.918484 117.447108 
L 94.05047 117.447108 
L 94.213253 116.618873 
L 95.50232 116.618873 
L 95.726697 114.134167 
L 95.902679 114.134167 
L 96.017067 113.029853 
L 96.237045 113.029853 
L 96.272241 112.477696 
L 98.252037 112.477696 
L 98.51161 110.821225 
L 98.731588 110.821225 
L 98.793181 110.545147 
L 99.145145 110.545147 
L 99.180341 109.99299 
L 99.444314 109.99299 
L 99.593899 108.33652 
L 100.975356 108.33652 
L 101.124941 106.680049 
L 102.418408 106.680049 
L 102.58999 106.403971 
L 104.292615 106.403971 
L 104.4378 105.851814 
L 104.609382 105.575735 
L 105.049337 105.575735 
L 105.163725 104.471422 
L 106.08763 104.471422 
L 106.158022 103.367108 
L 107.389895 103.367108 
L 107.561478 103.091029 
L 107.913441 103.091029 
L 108.080624 102.538873 
L 108.300602 102.538873 
L 108.379793 101.986716 
L 109.303698 101.986716 
L 109.462082 100.882402 
L 110.759948 100.882402 
L 110.83914 99.778088 
L 111.015122 99.778088 
L 111.050318 99.225931 
L 117.649638 99.225931 
L 117.92241 98.397696 
L 120.078188 98.397696 
L 120.179377 97.845539 
L 120.760118 97.845539 
L 120.883305 97.293382 
L 122.502338 97.293382 
L 122.599128 97.017304 
L 123.039083 97.017304 
L 123.184268 96.465147 
L 123.492236 96.465147 
L 123.659419 95.91299 
L 124.275355 95.91299 
L 124.385344 94.25652 
L 124.935287 94.25652 
L 125.058475 93.704363 
L 125.718407 93.704363 
L 125.797598 93.152206 
L 127.755397 93.152206 
L 127.878584 92.600049 
L 127.992972 91.495735 
L 128.608909 91.495735 
L 128.644105 90.943578 
L 128.820087 90.943578 
L 128.899279 90.391422 
L 129.581209 90.391422 
L 129.739592 89.287108 
L 130.289536 89.287108 
L 130.478716 88.734951 
L 131.842576 88.734951 
L 131.912968 87.630637 
L 134.024751 87.630637 
L 134.169936 87.354559 
L 138.811457 87.354559 
L 138.934645 86.802402 
L 139.132624 86.802402 
L 139.291008 85.698088 
L 139.422994 85.698088 
L 139.581378 84.593775 
L 139.933342 84.593775 
L 140.012534 84.041618 
L 140.782454 84.041618 
L 140.817651 83.489461 
L 140.949637 83.489461 
L 140.976034 82.385147 
L 141.811948 82.385147 
L 141.983531 82.109069 
L 142.37949 82.109069 
L 142.537873 81.004755 
L 147.223391 81.004755 
L 147.390573 80.452598 
L 147.940517 80.452598 
L 148.024108 80.17652 
L 150.179886 80.17652 
L 150.325071 79.624363 
L 152.982397 79.624363 
L 153.14958 79.072206 
L 153.875505 79.072206 
L 154.60143 78.796127 
L 155.613326 78.796127 
L 155.683719 77.691814 
L 156.035683 77.691814 
L 156.114874 77.139657 
L 157.412741 77.139657 
L 157.496332 76.863578 
L 162.239043 76.863578 
L 162.36663 76.5875 
L 162.872578 76.5875 
L 162.907774 76.035343 
L 163.523711 76.035343 
L 163.624901 75.483186 
L 170.558586 75.483186 
L 170.703771 74.931029 
L 172.46359 74.931029 
L 173.207113 74.654951 
L 174.175013 74.654951 
L 174.430187 74.102794 
L 174.760153 74.102794 
L 174.795349 73.550637 
L 175.103318 73.550637 
L 175.18251 72.99848 
L 177.31629 72.99848 
L 177.439477 72.446324 
L 179.485266 72.446324 
L 179.520463 71.894167 
L 180.686342 71.894167 
L 182.683737 71.618088 
L 182.872917 71.065931 
L 183.312872 71.065931 
L 183.339269 69.961618 
L 184.527147 69.961618 
L 184.650334 69.409461 
L 187.360455 69.409461 
L 187.620028 69.133382 
L 192.573917 69.133382 
L 192.653109 68.581225 
L 196.766685 68.581225 
L 199.292025 67.75299 
L 200.444706 67.75299 
L 200.479903 67.200833 
L 201.513796 67.200833 
L 203.51119 66.924755 
L 206.890042 66.924755 
L 207.070424 65.820441 
L 208.918233 65.820441 
L 208.957829 65.544363 
L 213.181394 65.544363 
L 213.304581 64.992206 
L 214.756432 64.992206 
L 214.835623 64.440049 
L 215.011605 64.440049 
L 215.090797 63.887892 
L 217.998897 63.887892 
L 220.405449 62.783578 
L 233.221329 62.783578 
L 233.432507 61.679265 
L 242.979523 61.679265 
L 243.256695 61.127108 
L 244.576559 61.127108 
L 244.677748 60.574951 
L 244.941721 60.574951 
L 247.76623 60.298873 
L 248.118194 60.298873 
L 248.245781 60.022794 
L 249.499651 60.022794 
L 253.428447 58.090245 
L 255.012283 58.090245 
L 255.091475 57.538088 
L 255.267457 57.538088 
L 255.390644 56.985931 
L 266.191531 56.985931 
L 270.309507 55.881618 
L 273.38919 55.881618 
L 273.556372 55.329461 
L 279.935715 55.329461 
L 279.970911 54.777304 
L 281.466757 54.777304 
L 281.501954 54.225147 
L 282.667834 54.225147 
L 282.70303 53.67299 
L 284.788415 53.67299 
L 284.823611 53.120833 
L 290.08107 53.120833 
L 290.164661 52.844755 
L 291.792493 52.844755 
L 291.82769 52.292598 
L 295.963264 52.292598 
L 295.99846 51.740441 
L 301.695873 51.740441 
L 301.841058 51.188284 
L 312.070004 51.188284 
L 312.171193 50.636127 
L 312.30318 50.636127 
L 312.382372 50.083971 
L 314.780124 50.083971 
L 314.815321 49.531814 
L 332.061544 49.531814 
L 332.184731 48.979657 
L 339.303197 48.979657 
L 339.47038 48.4275 
L 400.90125 48.4275 
L 400.90125 48.4275 
" style="fill:none;stroke:#2ca02c;stroke-linecap:square;stroke-width:1.5;"/>
   </g>
   <g id="line2d_16">
    <path clip-path="url(#p45d48e5136)" d="M 43.78125 301.8675 
L 400.90125 48.4275 
" style="fill:none;stroke:#000000;stroke-dasharray:5.6,2.4;stroke-dashoffset:0;stroke-width:1.5;"/>
   </g>
   <g id="patch_3">
    <path d="M 43.78125 301.8675 
L 43.78125 35.7555 
" style="fill:none;stroke:#000000;stroke-linecap:square;stroke-linejoin:miter;stroke-width:0.8;"/>
   </g>
   <g id="patch_4">
    <path d="M 400.90125 301.8675 
L 400.90125 35.7555 
" style="fill:none;stroke:#000000;stroke-linecap:square;stroke-linejoin:miter;stroke-width:0.8;"/>
   </g>
   <g id="patch_5">
    <path d="M 43.78125 301.8675 
L 400.90125 301.8675 
" style="fill:none;stroke:#000000;stroke-linecap:square;stroke-linejoin:miter;stroke-width:0.8;"/>
   </g>
   <g id="patch_6">
    <path d="M 43.78125 35.7555 
L 400.90125 35.7555 
" style="fill:none;stroke:#000000;stroke-linecap:square;stroke-linejoin:miter;stroke-width:0.8;"/>
   </g>
   <g id="text_15">
    <!-- ROC Curve GradientBoosting + SMOTEENN -->
    <defs>
     <path d="M 39.40625 66.21875 
Q 28.65625 66.21875 22.328125 58.203125 
Q 16.015625 50.203125 16.015625 36.375 
Q 16.015625 22.609375 22.328125 14.59375 
Q 28.65625 6.59375 39.40625 6.59375 
Q 50.140625 6.59375 56.421875 14.59375 
Q 62.703125 22.609375 62.703125 36.375 
Q 62.703125 50.203125 56.421875 58.203125 
Q 50.140625 66.21875 39.40625 66.21875 
M 39.40625 74.21875 
Q 54.734375 74.21875 63.90625 63.9375 
Q 73.09375 53.65625 73.09375 36.375 
Q 73.09375 19.140625 63.90625 8.859375 
Q 54.734375 -1.421875 39.40625 -1.421875 
Q 24.03125 -1.421875 14.8125 8.828125 
Q 5.609375 19.09375 5.609375 36.375 
Q 5.609375 53.65625 14.8125 63.9375 
Q 24.03125 74.21875 39.40625 74.21875 
" id="DejaVuSans-4f"/>
     <path d="M 64.40625 67.28125 
L 64.40625 56.890625 
Q 59.421875 61.53125 53.78125 63.8125 
Q 48.140625 66.109375 41.796875 66.109375 
Q 29.296875 66.109375 22.65625 58.46875 
Q 16.015625 50.828125 16.015625 36.375 
Q 16.015625 21.96875 22.65625 14.328125 
Q 29.296875 6.6875 41.796875 6.6875 
Q 48.140625 6.6875 53.78125 8.984375 
Q 59.421875 11.28125 64.40625 15.921875 
L 64.40625 5.609375 
Q 59.234375 2.09375 53.4375 0.328125 
Q 47.65625 -1.421875 41.21875 -1.421875 
Q 24.65625 -1.421875 15.125 8.703125 
Q 5.609375 18.84375 5.609375 36.375 
Q 5.609375 53.953125 15.125 64.078125 
Q 24.65625 74.21875 41.21875 74.21875 
Q 47.75 74.21875 53.53125 72.484375 
Q 59.328125 70.75 64.40625 67.28125 
" id="DejaVuSans-43"/>
     <path d="M 59.515625 10.40625 
L 59.515625 29.984375 
L 43.40625 29.984375 
L 43.40625 38.09375 
L 69.28125 38.09375 
L 69.28125 6.78125 
Q 63.578125 2.734375 56.6875 0.65625 
Q 49.8125 -1.421875 42 -1.421875 
Q 24.90625 -1.421875 15.25 8.5625 
Q 5.609375 18.5625 5.609375 36.375 
Q 5.609375 54.25 15.25 64.234375 
Q 24.90625 74.21875 42 74.21875 
Q 49.125 74.21875 55.546875 72.453125 
Q 61.96875 70.703125 67.390625 67.28125 
L 67.390625 56.78125 
Q 61.921875 61.421875 55.765625 63.765625 
Q 49.609375 66.109375 42.828125 66.109375 
Q 29.4375 66.109375 22.71875 58.640625 
Q 16.015625 51.171875 16.015625 36.375 
Q 16.015625 21.625 22.71875 14.15625 
Q 29.4375 6.6875 42.828125 6.6875 
Q 48.046875 6.6875 52.140625 7.59375 
Q 56.25 8.5 59.515625 10.40625 
" id="DejaVuSans-47"/>
     <path d="M 45.40625 46.390625 
L 45.40625 75.984375 
L 54.390625 75.984375 
L 54.390625 0 
L 45.40625 0 
L 45.40625 8.203125 
Q 42.578125 3.328125 38.25 0.953125 
Q 33.9375 -1.421875 27.875 -1.421875 
Q 17.96875 -1.421875 11.734375 6.484375 
Q 5.515625 14.40625 5.515625 27.296875 
Q 5.515625 40.1875 11.734375 48.09375 
Q 17.96875 56 27.875 56 
Q 33.9375 56 38.25 53.625 
Q 42.578125 51.265625 45.40625 46.390625 
M 14.796875 27.296875 
Q 14.796875 17.390625 18.875 11.75 
Q 22.953125 6.109375 30.078125 6.109375 
Q 37.203125 6.109375 41.296875 11.75 
Q 45.40625 17.390625 45.40625 27.296875 
Q 45.40625 37.203125 41.296875 42.84375 
Q 37.203125 48.484375 30.078125 48.484375 
Q 22.953125 48.484375 18.875 42.84375 
Q 14.796875 37.203125 14.796875 27.296875 
" id="DejaVuSans-64"/>
     <path d="M 54.890625 33.015625 
L 54.890625 0 
L 45.90625 0 
L 45.90625 32.71875 
Q 45.90625 40.484375 42.875 44.328125 
Q 39.84375 48.1875 33.796875 48.1875 
Q 26.515625 48.1875 22.3125 43.546875 
Q 18.109375 38.921875 18.109375 30.90625 
L 18.109375 0 
L 9.078125 0 
L 9.078125 54.6875 
L 18.109375 54.6875 
L 18.109375 46.1875 
Q 21.34375 51.125 25.703125 53.5625 
Q 30.078125 56 35.796875 56 
Q 45.21875 56 50.046875 50.171875 
Q 54.890625 44.34375 54.890625 33.015625 
" id="DejaVuSans-6e"/>
     <path d="M 19.671875 34.8125 
L 19.671875 8.109375 
L 35.5 8.109375 
Q 43.453125 8.109375 47.28125 11.40625 
Q 51.125 14.703125 51.125 21.484375 
Q 51.125 28.328125 47.28125 31.5625 
Q 43.453125 34.8125 35.5 34.8125 
z
M 19.671875 64.796875 
L 19.671875 42.828125 
L 34.28125 42.828125 
Q 41.5 42.828125 45.03125 45.53125 
Q 48.578125 48.25 48.578125 53.8125 
Q 48.578125 59.328125 45.03125 62.0625 
Q 41.5 64.796875 34.28125 64.796875 
z
M 9.8125 72.90625 
L 35.015625 72.90625 
Q 46.296875 72.90625 52.390625 68.21875 
Q 58.5 63.53125 58.5 54.890625 
Q 58.5 48.1875 55.375 44.234375 
Q 52.25 40.28125 46.1875 39.3125 
Q 53.46875 37.75 57.5 32.78125 
Q 61.53125 27.828125 61.53125 20.40625 
Q 61.53125 10.640625 54.890625 5.3125 
Q 48.25 0 35.984375 0 
L 9.8125 0 
z
" id="DejaVuSans-42"/>
     <path d="M 45.40625 27.984375 
Q 45.40625 37.75 41.375 43.109375 
Q 37.359375 48.484375 30.078125 48.484375 
Q 22.859375 48.484375 18.828125 43.109375 
Q 14.796875 37.75 14.796875 27.984375 
Q 14.796875 18.265625 18.828125 12.890625 
Q 22.859375 7.515625 30.078125 7.515625 
Q 37.359375 7.515625 41.375 12.890625 
Q 45.40625 18.265625 45.40625 27.984375 
M 54.390625 6.78125 
Q 54.390625 -7.171875 48.1875 -13.984375 
Q 42 -20.796875 29.203125 -20.796875 
Q 24.46875 -20.796875 20.265625 -20.09375 
Q 16.0625 -19.390625 12.109375 -17.921875 
L 12.109375 -9.1875 
Q 16.0625 -11.328125 19.921875 -12.34375 
Q 23.78125 -13.375 27.78125 -13.375 
Q 36.625 -13.375 41.015625 -8.765625 
Q 45.40625 -4.15625 45.40625 5.171875 
L 45.40625 9.625 
Q 42.625 4.78125 38.28125 2.390625 
Q 33.9375 0 27.875 0 
Q 17.828125 0 11.671875 7.65625 
Q 5.515625 15.328125 5.515625 27.984375 
Q 5.515625 40.671875 11.671875 48.328125 
Q 17.828125 56 27.875 56 
Q 33.9375 56 38.28125 53.609375 
Q 42.625 51.21875 45.40625 46.390625 
L 45.40625 54.6875 
L 54.390625 54.6875 
z
" id="DejaVuSans-67"/>
     <path d="M 46 62.703125 
L 46 35.5 
L 73.1875 35.5 
L 73.1875 27.203125 
L 46 27.203125 
L 46 0 
L 37.796875 0 
L 37.796875 27.203125 
L 10.59375 27.203125 
L 10.59375 35.5 
L 37.796875 35.5 
L 37.796875 62.703125 
z
" id="DejaVuSans-2b"/>
     <path d="M 53.515625 70.515625 
L 53.515625 60.890625 
Q 47.90625 63.578125 42.921875 64.890625 
Q 37.9375 66.21875 33.296875 66.21875 
Q 25.25 66.21875 20.875 63.09375 
Q 16.5 59.96875 16.5 54.203125 
Q 16.5 49.359375 19.40625 46.890625 
Q 22.3125 44.4375 30.421875 42.921875 
L 36.375 41.703125 
Q 47.40625 39.59375 52.65625 34.296875 
Q 57.90625 29 57.90625 20.125 
Q 57.90625 9.515625 50.796875 4.046875 
Q 43.703125 -1.421875 29.984375 -1.421875 
Q 24.8125 -1.421875 18.96875 -0.25 
Q 13.140625 0.921875 6.890625 3.21875 
L 6.890625 13.375 
Q 12.890625 10.015625 18.65625 8.296875 
Q 24.421875 6.59375 29.984375 6.59375 
Q 38.421875 6.59375 43.015625 9.90625 
Q 47.609375 13.234375 47.609375 19.390625 
Q 47.609375 24.75 44.3125 27.78125 
Q 41.015625 30.8125 33.5 32.328125 
L 27.484375 33.5 
Q 16.453125 35.6875 11.515625 40.375 
Q 6.59375 45.0625 6.59375 53.421875 
Q 6.59375 63.09375 13.40625 68.65625 
Q 20.21875 74.21875 32.171875 74.21875 
Q 37.3125 74.21875 42.625 73.28125 
Q 47.953125 72.359375 53.515625 70.515625 
" id="DejaVuSans-53"/>
     <path d="M 9.8125 72.90625 
L 24.515625 72.90625 
L 43.109375 23.296875 
L 61.8125 72.90625 
L 76.515625 72.90625 
L 76.515625 0 
L 66.890625 0 
L 66.890625 64.015625 
L 48.09375 14.015625 
L 38.1875 14.015625 
L 19.390625 64.015625 
L 19.390625 0 
L 9.8125 0 
z
" id="DejaVuSans-4d"/>
     <path d="M 9.8125 72.90625 
L 55.90625 72.90625 
L 55.90625 64.59375 
L 19.671875 64.59375 
L 19.671875 43.015625 
L 54.390625 43.015625 
L 54.390625 34.71875 
L 19.671875 34.71875 
L 19.671875 8.296875 
L 56.78125 8.296875 
L 56.78125 0 
L 9.8125 0 
z
" id="DejaVuSans-45"/>
     <path d="M 9.8125 72.90625 
L 23.09375 72.90625 
L 55.421875 11.921875 
L 55.421875 72.90625 
L 64.984375 72.90625 
L 64.984375 0 
L 51.703125 0 
L 19.390625 60.984375 
L 19.390625 0 
L 9.8125 0 
z
" id="DejaVuSans-4e"/>
    </defs>
    <g transform="translate(92.638125 16.318125)scale(0.12 -0.12)">
     <use xlink:href="#DejaVuSans-52"/>
     <use x="69.482422" xlink:href="#DejaVuSans-4f"/>
     <use x="148.193359" xlink:href="#DejaVuSans-43"/>
     <use x="218.017578" xlink:href="#DejaVuSans-20"/>
     <use x="249.804688" xlink:href="#DejaVuSans-43"/>
     <use x="319.628906" xlink:href="#DejaVuSans-75"/>
     <use x="383.007812" xlink:href="#DejaVuSans-72"/>
     <use x="424.121094" xlink:href="#DejaVuSans-76"/>
     <use x="483.300781" xlink:href="#DejaVuSans-65"/>
     <use x="544.824219" xlink:href="#DejaVuSans-20"/>
     <use x="576.611328" xlink:href="#DejaVuSans-47"/>
     <use x="654.101562" xlink:href="#DejaVuSans-72"/>
     <use x="695.214844" xlink:href="#DejaVuSans-61"/>
     <use x="756.494141" xlink:href="#DejaVuSans-64"/>
     <use x="819.970703" xlink:href="#DejaVuSans-69"/>
     <use x="847.753906" xlink:href="#DejaVuSans-65"/>
     <use x="909.277344" xlink:href="#DejaVuSans-6e"/>
     <use x="972.65625" xlink:href="#DejaVuSans-74"/>
     <use x="1011.865234" xlink:href="#DejaVuSans-42"/>
     <use x="1080.46875" xlink:href="#DejaVuSans-6f"/>
     <use x="1141.650391" xlink:href="#DejaVuSans-6f"/>
     <use x="1202.832031" xlink:href="#DejaVuSans-73"/>
     <use x="1254.931641" xlink:href="#DejaVuSans-74"/>
     <use x="1294.140625" xlink:href="#DejaVuSans-69"/>
     <use x="1321.923828" xlink:href="#DejaVuSans-6e"/>
     <use x="1385.302734" xlink:href="#DejaVuSans-67"/>
     <use x="1448.779297" xlink:href="#DejaVuSans-20"/>
     <use x="1480.566406" xlink:href="#DejaVuSans-2b"/>
     <use x="1564.355469" xlink:href="#DejaVuSans-20"/>
     <use x="1596.142578" xlink:href="#DejaVuSans-53"/>
     <use x="1659.619141" xlink:href="#DejaVuSans-4d"/>
     <use x="1745.898438" xlink:href="#DejaVuSans-4f"/>
     <use x="1824.609375" xlink:href="#DejaVuSans-54"/>
     <use x="1885.693359" xlink:href="#DejaVuSans-45"/>
     <use x="1948.876953" xlink:href="#DejaVuSans-45"/>
     <use x="2012.060547" xlink:href="#DejaVuSans-4e"/>
     <use x="2086.865234" xlink:href="#DejaVuSans-4e"/>
    </g>
    <!-- Train: 1   Test: [2, 4, 6, 8, 10, 12] -->
    <defs>
     <path d="M 11.71875 12.40625 
L 22.015625 12.40625 
L 22.015625 0 
L 11.71875 0 
z
M 11.71875 51.703125 
L 22.015625 51.703125 
L 22.015625 39.3125 
L 11.71875 39.3125 
z
" id="DejaVuSans-3a"/>
     <path d="M 8.59375 75.984375 
L 29.296875 75.984375 
L 29.296875 69 
L 17.578125 69 
L 17.578125 -6.203125 
L 29.296875 -6.203125 
L 29.296875 -13.1875 
L 8.59375 -13.1875 
z
" id="DejaVuSans-5b"/>
     <path d="M 11.71875 12.40625 
L 22.015625 12.40625 
L 22.015625 4 
L 14.015625 -11.625 
L 7.71875 -11.625 
L 11.71875 4 
z
" id="DejaVuSans-2c"/>
     <path d="M 30.421875 75.984375 
L 30.421875 -13.1875 
L 9.71875 -13.1875 
L 9.71875 -6.203125 
L 21.390625 -6.203125 
L 21.390625 69 
L 9.71875 69 
L 9.71875 75.984375 
z
" id="DejaVuSans-5d"/>
    </defs>
    <g transform="translate(122.573438 29.7555)scale(0.12 -0.12)">
     <use xlink:href="#DejaVuSans-54"/>
     <use x="60.865234" xlink:href="#DejaVuSans-72"/>
     <use x="101.978516" xlink:href="#DejaVuSans-61"/>
     <use x="163.257812" xlink:href="#DejaVuSans-69"/>
     <use x="191.041016" xlink:href="#DejaVuSans-6e"/>
     <use x="254.419922" xlink:href="#DejaVuSans-3a"/>
     <use x="288.111328" xlink:href="#DejaVuSans-20"/>
     <use x="319.898438" xlink:href="#DejaVuSans-31"/>
     <use x="383.521484" xlink:href="#DejaVuSans-20"/>
     <use x="415.308594" xlink:href="#DejaVuSans-20"/>
     <use x="447.095703" xlink:href="#DejaVuSans-20"/>
     <use x="478.882812" xlink:href="#DejaVuSans-54"/>
     <use x="539.701172" xlink:href="#DejaVuSans-65"/>
     <use x="601.224609" xlink:href="#DejaVuSans-73"/>
     <use x="653.324219" xlink:href="#DejaVuSans-74"/>
     <use x="692.533203" xlink:href="#DejaVuSans-3a"/>
     <use x="726.224609" xlink:href="#DejaVuSans-20"/>
     <use x="758.011719" xlink:href="#DejaVuSans-5b"/>
     <use x="797.025391" xlink:href="#DejaVuSans-32"/>
     <use x="860.648438" xlink:href="#DejaVuSans-2c"/>
     <use x="892.435547" xlink:href="#DejaVuSans-20"/>
     <use x="924.222656" xlink:href="#DejaVuSans-34"/>
     <use x="987.845703" xlink:href="#DejaVuSans-2c"/>
     <use x="1019.632812" xlink:href="#DejaVuSans-20"/>
     <use x="1051.419922" xlink:href="#DejaVuSans-36"/>
     <use x="1115.042969" xlink:href="#DejaVuSans-2c"/>
     <use x="1146.830078" xlink:href="#DejaVuSans-20"/>
     <use x="1178.617188" xlink:href="#DejaVuSans-38"/>
     <use x="1242.240234" xlink:href="#DejaVuSans-2c"/>
     <use x="1274.027344" xlink:href="#DejaVuSans-20"/>
     <use x="1305.814453" xlink:href="#DejaVuSans-31"/>
     <use x="1369.4375" xlink:href="#DejaVuSans-30"/>
     <use x="1433.060547" xlink:href="#DejaVuSans-2c"/>
     <use x="1464.847656" xlink:href="#DejaVuSans-20"/>
     <use x="1496.634766" xlink:href="#DejaVuSans-31"/>
     <use x="1560.257812" xlink:href="#DejaVuSans-32"/>
     <use x="1623.880859" xlink:href="#DejaVuSans-5d"/>
    </g>
   </g>
   <g id="legend_1">
    <g id="patch_7">
     <path d="M 217.087188 296.8675 
L 393.90125 296.8675 
Q 395.90125 296.8675 395.90125 294.8675 
L 395.90125 251.833125 
Q 395.90125 249.833125 393.90125 249.833125 
L 217.087188 249.833125 
Q 215.087188 249.833125 215.087188 251.833125 
L 215.087188 294.8675 
Q 215.087188 296.8675 217.087188 296.8675 
z
" style="fill:#ffffff;opacity:0.8;stroke:#cccccc;stroke-linejoin:miter;"/>
    </g>
    <g id="line2d_17">
     <path d="M 219.087188 257.931562 
L 239.087188 257.931562 
" style="fill:none;stroke:#1f77b4;stroke-linecap:square;stroke-width:1.5;"/>
    </g>
    <g id="line2d_18"/>
    <g id="text_16">
     <!-- ROC curve - 0 (AUC = 0.864) -->
     <defs>
      <path d="M 48.78125 52.59375 
L 48.78125 44.1875 
Q 44.96875 46.296875 41.140625 47.34375 
Q 37.3125 48.390625 33.40625 48.390625 
Q 24.65625 48.390625 19.8125 42.84375 
Q 14.984375 37.3125 14.984375 27.296875 
Q 14.984375 17.28125 19.8125 11.734375 
Q 24.65625 6.203125 33.40625 6.203125 
Q 37.3125 6.203125 41.140625 7.25 
Q 44.96875 8.296875 48.78125 10.40625 
L 48.78125 2.09375 
Q 45.015625 0.34375 40.984375 -0.53125 
Q 36.96875 -1.421875 32.421875 -1.421875 
Q 20.0625 -1.421875 12.78125 6.34375 
Q 5.515625 14.109375 5.515625 27.296875 
Q 5.515625 40.671875 12.859375 48.328125 
Q 20.21875 56 33.015625 56 
Q 37.15625 56 41.109375 55.140625 
Q 45.0625 54.296875 48.78125 52.59375 
" id="DejaVuSans-63"/>
      <path d="M 4.890625 31.390625 
L 31.203125 31.390625 
L 31.203125 23.390625 
L 4.890625 23.390625 
z
" id="DejaVuSans-2d"/>
      <path d="M 31 75.875 
Q 24.46875 64.65625 21.28125 53.65625 
Q 18.109375 42.671875 18.109375 31.390625 
Q 18.109375 20.125 21.3125 9.0625 
Q 24.515625 -2 31 -13.1875 
L 23.1875 -13.1875 
Q 15.875 -1.703125 12.234375 9.375 
Q 8.59375 20.453125 8.59375 31.390625 
Q 8.59375 42.28125 12.203125 53.3125 
Q 15.828125 64.359375 23.1875 75.875 
z
" id="DejaVuSans-28"/>
      <path d="M 34.1875 63.1875 
L 20.796875 26.90625 
L 47.609375 26.90625 
z
M 28.609375 72.90625 
L 39.796875 72.90625 
L 67.578125 0 
L 57.328125 0 
L 50.6875 18.703125 
L 17.828125 18.703125 
L 11.1875 0 
L 0.78125 0 
z
" id="DejaVuSans-41"/>
      <path d="M 8.6875 72.90625 
L 18.609375 72.90625 
L 18.609375 28.609375 
Q 18.609375 16.890625 22.84375 11.734375 
Q 27.09375 6.59375 36.625 6.59375 
Q 46.09375 6.59375 50.34375 11.734375 
Q 54.59375 16.890625 54.59375 28.609375 
L 54.59375 72.90625 
L 64.5 72.90625 
L 64.5 27.390625 
Q 64.5 13.140625 57.4375 5.859375 
Q 50.390625 -1.421875 36.625 -1.421875 
Q 22.796875 -1.421875 15.734375 5.859375 
Q 8.6875 13.140625 8.6875 27.390625 
z
" id="DejaVuSans-55"/>
      <path d="M 10.59375 45.40625 
L 73.1875 45.40625 
L 73.1875 37.203125 
L 10.59375 37.203125 
z
M 10.59375 25.484375 
L 73.1875 25.484375 
L 73.1875 17.1875 
L 10.59375 17.1875 
z
" id="DejaVuSans-3d"/>
      <path d="M 8.015625 75.875 
L 15.828125 75.875 
Q 23.140625 64.359375 26.78125 53.3125 
Q 30.421875 42.28125 30.421875 31.390625 
Q 30.421875 20.453125 26.78125 9.375 
Q 23.140625 -1.703125 15.828125 -13.1875 
L 8.015625 -13.1875 
Q 14.5 -2 17.703125 9.0625 
Q 20.90625 20.125 20.90625 31.390625 
Q 20.90625 42.671875 17.703125 53.65625 
Q 14.5 64.65625 8.015625 75.875 
" id="DejaVuSans-29"/>
     </defs>
     <g transform="translate(247.087188 261.431562)scale(0.1 -0.1)">
      <use xlink:href="#DejaVuSans-52"/>
      <use x="69.482422" xlink:href="#DejaVuSans-4f"/>
      <use x="148.193359" xlink:href="#DejaVuSans-43"/>
      <use x="218.017578" xlink:href="#DejaVuSans-20"/>
      <use x="249.804688" xlink:href="#DejaVuSans-63"/>
      <use x="304.785156" xlink:href="#DejaVuSans-75"/>
      <use x="368.164062" xlink:href="#DejaVuSans-72"/>
      <use x="409.277344" xlink:href="#DejaVuSans-76"/>
      <use x="468.457031" xlink:href="#DejaVuSans-65"/>
      <use x="529.980469" xlink:href="#DejaVuSans-20"/>
      <use x="561.767578" xlink:href="#DejaVuSans-2d"/>
      <use x="597.851562" xlink:href="#DejaVuSans-20"/>
      <use x="629.638672" xlink:href="#DejaVuSans-30"/>
      <use x="693.261719" xlink:href="#DejaVuSans-20"/>
      <use x="725.048828" xlink:href="#DejaVuSans-28"/>
      <use x="764.0625" xlink:href="#DejaVuSans-41"/>
      <use x="832.470703" xlink:href="#DejaVuSans-55"/>
      <use x="905.664062" xlink:href="#DejaVuSans-43"/>
      <use x="975.488281" xlink:href="#DejaVuSans-20"/>
      <use x="1007.275391" xlink:href="#DejaVuSans-3d"/>
      <use x="1091.064453" xlink:href="#DejaVuSans-20"/>
      <use x="1122.851562" xlink:href="#DejaVuSans-30"/>
      <use x="1186.474609" xlink:href="#DejaVuSans-2e"/>
      <use x="1218.261719" xlink:href="#DejaVuSans-38"/>
      <use x="1281.884766" xlink:href="#DejaVuSans-36"/>
      <use x="1345.507812" xlink:href="#DejaVuSans-34"/>
      <use x="1409.130859" xlink:href="#DejaVuSans-29"/>
     </g>
    </g>
    <g id="line2d_19">
     <path d="M 219.087188 272.609687 
L 239.087188 272.609687 
" style="fill:none;stroke:#ff7f0e;stroke-linecap:square;stroke-width:1.5;"/>
    </g>
    <g id="line2d_20"/>
    <g id="text_17">
     <!-- ROC curve - 1 (AUC = 0.870) -->
     <defs>
      <path d="M 8.203125 72.90625 
L 55.078125 72.90625 
L 55.078125 68.703125 
L 28.609375 0 
L 18.3125 0 
L 43.21875 64.59375 
L 8.203125 64.59375 
z
" id="DejaVuSans-37"/>
     </defs>
     <g transform="translate(247.087188 276.109687)scale(0.1 -0.1)">
      <use xlink:href="#DejaVuSans-52"/>
      <use x="69.482422" xlink:href="#DejaVuSans-4f"/>
      <use x="148.193359" xlink:href="#DejaVuSans-43"/>
      <use x="218.017578" xlink:href="#DejaVuSans-20"/>
      <use x="249.804688" xlink:href="#DejaVuSans-63"/>
      <use x="304.785156" xlink:href="#DejaVuSans-75"/>
      <use x="368.164062" xlink:href="#DejaVuSans-72"/>
      <use x="409.277344" xlink:href="#DejaVuSans-76"/>
      <use x="468.457031" xlink:href="#DejaVuSans-65"/>
      <use x="529.980469" xlink:href="#DejaVuSans-20"/>
      <use x="561.767578" xlink:href="#DejaVuSans-2d"/>
      <use x="597.851562" xlink:href="#DejaVuSans-20"/>
      <use x="629.638672" xlink:href="#DejaVuSans-31"/>
      <use x="693.261719" xlink:href="#DejaVuSans-20"/>
      <use x="725.048828" xlink:href="#DejaVuSans-28"/>
      <use x="764.0625" xlink:href="#DejaVuSans-41"/>
      <use x="832.470703" xlink:href="#DejaVuSans-55"/>
      <use x="905.664062" xlink:href="#DejaVuSans-43"/>
      <use x="975.488281" xlink:href="#DejaVuSans-20"/>
      <use x="1007.275391" xlink:href="#DejaVuSans-3d"/>
      <use x="1091.064453" xlink:href="#DejaVuSans-20"/>
      <use x="1122.851562" xlink:href="#DejaVuSans-30"/>
      <use x="1186.474609" xlink:href="#DejaVuSans-2e"/>
      <use x="1218.261719" xlink:href="#DejaVuSans-38"/>
      <use x="1281.884766" xlink:href="#DejaVuSans-37"/>
      <use x="1345.507812" xlink:href="#DejaVuSans-30"/>
      <use x="1409.130859" xlink:href="#DejaVuSans-29"/>
     </g>
    </g>
    <g id="line2d_21">
     <path d="M 219.087188 287.287812 
L 239.087188 287.287812 
" style="fill:none;stroke:#2ca02c;stroke-linecap:square;stroke-width:1.5;"/>
    </g>
    <g id="line2d_22"/>
    <g id="text_18">
     <!-- ROC curve - 2 (AUC = 0.869) -->
     <defs>
      <path d="M 10.984375 1.515625 
L 10.984375 10.5 
Q 14.703125 8.734375 18.5 7.8125 
Q 22.3125 6.890625 25.984375 6.890625 
Q 35.75 6.890625 40.890625 13.453125 
Q 46.046875 20.015625 46.78125 33.40625 
Q 43.953125 29.203125 39.59375 26.953125 
Q 35.25 24.703125 29.984375 24.703125 
Q 19.046875 24.703125 12.671875 31.3125 
Q 6.296875 37.9375 6.296875 49.421875 
Q 6.296875 60.640625 12.9375 67.421875 
Q 19.578125 74.21875 30.609375 74.21875 
Q 43.265625 74.21875 49.921875 64.515625 
Q 56.59375 54.828125 56.59375 36.375 
Q 56.59375 19.140625 48.40625 8.859375 
Q 40.234375 -1.421875 26.421875 -1.421875 
Q 22.703125 -1.421875 18.890625 -0.6875 
Q 15.09375 0.046875 10.984375 1.515625 
M 30.609375 32.421875 
Q 37.25 32.421875 41.125 36.953125 
Q 45.015625 41.5 45.015625 49.421875 
Q 45.015625 57.28125 41.125 61.84375 
Q 37.25 66.40625 30.609375 66.40625 
Q 23.96875 66.40625 20.09375 61.84375 
Q 16.21875 57.28125 16.21875 49.421875 
Q 16.21875 41.5 20.09375 36.953125 
Q 23.96875 32.421875 30.609375 32.421875 
" id="DejaVuSans-39"/>
     </defs>
     <g transform="translate(247.087188 290.787812)scale(0.1 -0.1)">
      <use xlink:href="#DejaVuSans-52"/>
      <use x="69.482422" xlink:href="#DejaVuSans-4f"/>
      <use x="148.193359" xlink:href="#DejaVuSans-43"/>
      <use x="218.017578" xlink:href="#DejaVuSans-20"/>
      <use x="249.804688" xlink:href="#DejaVuSans-63"/>
      <use x="304.785156" xlink:href="#DejaVuSans-75"/>
      <use x="368.164062" xlink:href="#DejaVuSans-72"/>
      <use x="409.277344" xlink:href="#DejaVuSans-76"/>
      <use x="468.457031" xlink:href="#DejaVuSans-65"/>
      <use x="529.980469" xlink:href="#DejaVuSans-20"/>
      <use x="561.767578" xlink:href="#DejaVuSans-2d"/>
      <use x="597.851562" xlink:href="#DejaVuSans-20"/>
      <use x="629.638672" xlink:href="#DejaVuSans-32"/>
      <use x="693.261719" xlink:href="#DejaVuSans-20"/>
      <use x="725.048828" xlink:href="#DejaVuSans-28"/>
      <use x="764.0625" xlink:href="#DejaVuSans-41"/>
      <use x="832.470703" xlink:href="#DejaVuSans-55"/>
      <use x="905.664062" xlink:href="#DejaVuSans-43"/>
      <use x="975.488281" xlink:href="#DejaVuSans-20"/>
      <use x="1007.275391" xlink:href="#DejaVuSans-3d"/>
      <use x="1091.064453" xlink:href="#DejaVuSans-20"/>
      <use x="1122.851562" xlink:href="#DejaVuSans-30"/>
      <use x="1186.474609" xlink:href="#DejaVuSans-2e"/>
      <use x="1218.261719" xlink:href="#DejaVuSans-38"/>
      <use x="1281.884766" xlink:href="#DejaVuSans-36"/>
      <use x="1345.507812" xlink:href="#DejaVuSans-39"/>
      <use x="1409.130859" xlink:href="#DejaVuSans-29"/>
     </g>
    </g>
   </g>
  </g>
 </g>
 <defs>
  <clipPath id="p45d48e5136">
   <rect height="266.112" width="357.12" x="43.78125" y="35.7555"/>
  </clipPath>
 </defs>
</svg>
