<?xml version="1.0" encoding="utf-8" standalone="no"?>
<!DOCTYPE svg PUBLIC "-//W3C//DTD SVG 1.1//EN"
  "http://www.w3.org/Graphics/SVG/1.1/DTD/svg11.dtd">
<!-- Created with matplotlib (http://matplotlib.org/) -->
<svg height="339pt" version="1.1" viewBox="0 0 416 339" width="416pt" xmlns="http://www.w3.org/2000/svg" xmlns:xlink="http://www.w3.org/1999/xlink">
 <defs>
  <style type="text/css">
*{stroke-linecap:butt;stroke-linejoin:round;}
  </style>
 </defs>
 <g id="figure_1">
  <g id="patch_1">
   <path d="M 0 339.42375 
L 416.052813 339.42375 
L 416.052813 0 
L 0 0 
z
" style="fill:#ffffff;"/>
  </g>
  <g id="axes_1">
   <g id="patch_2">
    <path d="M 43.78125 301.8675 
L 400.90125 301.8675 
L 400.90125 35.7555 
L 43.78125 35.7555 
z
" style="fill:#ffffff;"/>
   </g>
   <g id="matplotlib.axis_1">
    <g id="xtick_1">
     <g id="line2d_1">
      <defs>
       <path d="M 0 0 
L 0 3.5 
" id="m85da37ff3e" style="stroke:#000000;stroke-width:0.8;"/>
      </defs>
      <g>
       <use style="stroke:#000000;stroke-width:0.8;" x="43.78125" xlink:href="#m85da37ff3e" y="301.8675"/>
      </g>
     </g>
     <g id="text_1">
      <!-- 0.0 -->
      <defs>
       <path d="M 31.78125 66.40625 
Q 24.171875 66.40625 20.328125 58.90625 
Q 16.5 51.421875 16.5 36.375 
Q 16.5 21.390625 20.328125 13.890625 
Q 24.171875 6.390625 31.78125 6.390625 
Q 39.453125 6.390625 43.28125 13.890625 
Q 47.125 21.390625 47.125 36.375 
Q 47.125 51.421875 43.28125 58.90625 
Q 39.453125 66.40625 31.78125 66.40625 
M 31.78125 74.21875 
Q 44.046875 74.21875 50.515625 64.515625 
Q 56.984375 54.828125 56.984375 36.375 
Q 56.984375 17.96875 50.515625 8.265625 
Q 44.046875 -1.421875 31.78125 -1.421875 
Q 19.53125 -1.421875 13.0625 8.265625 
Q 6.59375 17.96875 6.59375 36.375 
Q 6.59375 54.828125 13.0625 64.515625 
Q 19.53125 74.21875 31.78125 74.21875 
" id="DejaVuSans-30"/>
       <path d="M 10.6875 12.40625 
L 21 12.40625 
L 21 0 
L 10.6875 0 
z
" id="DejaVuSans-2e"/>
      </defs>
      <g transform="translate(35.829688 316.465937)scale(0.1 -0.1)">
       <use xlink:href="#DejaVuSans-30"/>
       <use x="63.623047" xlink:href="#DejaVuSans-2e"/>
       <use x="95.410156" xlink:href="#DejaVuSans-30"/>
      </g>
     </g>
    </g>
    <g id="xtick_2">
     <g id="line2d_2">
      <g>
       <use style="stroke:#000000;stroke-width:0.8;" x="115.20525" xlink:href="#m85da37ff3e" y="301.8675"/>
      </g>
     </g>
     <g id="text_2">
      <!-- 0.2 -->
      <defs>
       <path d="M 19.1875 8.296875 
L 53.609375 8.296875 
L 53.609375 0 
L 7.328125 0 
L 7.328125 8.296875 
Q 12.9375 14.109375 22.625 23.890625 
Q 32.328125 33.6875 34.8125 36.53125 
Q 39.546875 41.84375 41.421875 45.53125 
Q 43.3125 49.21875 43.3125 52.78125 
Q 43.3125 58.59375 39.234375 62.25 
Q 35.15625 65.921875 28.609375 65.921875 
Q 23.96875 65.921875 18.8125 64.3125 
Q 13.671875 62.703125 7.8125 59.421875 
L 7.8125 69.390625 
Q 13.765625 71.78125 18.9375 73 
Q 24.125 74.21875 28.421875 74.21875 
Q 39.75 74.21875 46.484375 68.546875 
Q 53.21875 62.890625 53.21875 53.421875 
Q 53.21875 48.921875 51.53125 44.890625 
Q 49.859375 40.875 45.40625 35.40625 
Q 44.1875 33.984375 37.640625 27.21875 
Q 31.109375 20.453125 19.1875 8.296875 
" id="DejaVuSans-32"/>
      </defs>
      <g transform="translate(107.253688 316.465937)scale(0.1 -0.1)">
       <use xlink:href="#DejaVuSans-30"/>
       <use x="63.623047" xlink:href="#DejaVuSans-2e"/>
       <use x="95.410156" xlink:href="#DejaVuSans-32"/>
      </g>
     </g>
    </g>
    <g id="xtick_3">
     <g id="line2d_3">
      <g>
       <use style="stroke:#000000;stroke-width:0.8;" x="186.62925" xlink:href="#m85da37ff3e" y="301.8675"/>
      </g>
     </g>
     <g id="text_3">
      <!-- 0.4 -->
      <defs>
       <path d="M 37.796875 64.3125 
L 12.890625 25.390625 
L 37.796875 25.390625 
z
M 35.203125 72.90625 
L 47.609375 72.90625 
L 47.609375 25.390625 
L 58.015625 25.390625 
L 58.015625 17.1875 
L 47.609375 17.1875 
L 47.609375 0 
L 37.796875 0 
L 37.796875 17.1875 
L 4.890625 17.1875 
L 4.890625 26.703125 
z
" id="DejaVuSans-34"/>
      </defs>
      <g transform="translate(178.677688 316.465937)scale(0.1 -0.1)">
       <use xlink:href="#DejaVuSans-30"/>
       <use x="63.623047" xlink:href="#DejaVuSans-2e"/>
       <use x="95.410156" xlink:href="#DejaVuSans-34"/>
      </g>
     </g>
    </g>
    <g id="xtick_4">
     <g id="line2d_4">
      <g>
       <use style="stroke:#000000;stroke-width:0.8;" x="258.05325" xlink:href="#m85da37ff3e" y="301.8675"/>
      </g>
     </g>
     <g id="text_4">
      <!-- 0.6 -->
      <defs>
       <path d="M 33.015625 40.375 
Q 26.375 40.375 22.484375 35.828125 
Q 18.609375 31.296875 18.609375 23.390625 
Q 18.609375 15.53125 22.484375 10.953125 
Q 26.375 6.390625 33.015625 6.390625 
Q 39.65625 6.390625 43.53125 10.953125 
Q 47.40625 15.53125 47.40625 23.390625 
Q 47.40625 31.296875 43.53125 35.828125 
Q 39.65625 40.375 33.015625 40.375 
M 52.59375 71.296875 
L 52.59375 62.3125 
Q 48.875 64.0625 45.09375 64.984375 
Q 41.3125 65.921875 37.59375 65.921875 
Q 27.828125 65.921875 22.671875 59.328125 
Q 17.53125 52.734375 16.796875 39.40625 
Q 19.671875 43.65625 24.015625 45.921875 
Q 28.375 48.1875 33.59375 48.1875 
Q 44.578125 48.1875 50.953125 41.515625 
Q 57.328125 34.859375 57.328125 23.390625 
Q 57.328125 12.15625 50.6875 5.359375 
Q 44.046875 -1.421875 33.015625 -1.421875 
Q 20.359375 -1.421875 13.671875 8.265625 
Q 6.984375 17.96875 6.984375 36.375 
Q 6.984375 53.65625 15.1875 63.9375 
Q 23.390625 74.21875 37.203125 74.21875 
Q 40.921875 74.21875 44.703125 73.484375 
Q 48.484375 72.75 52.59375 71.296875 
" id="DejaVuSans-36"/>
      </defs>
      <g transform="translate(250.101688 316.465937)scale(0.1 -0.1)">
       <use xlink:href="#DejaVuSans-30"/>
       <use x="63.623047" xlink:href="#DejaVuSans-2e"/>
       <use x="95.410156" xlink:href="#DejaVuSans-36"/>
      </g>
     </g>
    </g>
    <g id="xtick_5">
     <g id="line2d_5">
      <g>
       <use style="stroke:#000000;stroke-width:0.8;" x="329.47725" xlink:href="#m85da37ff3e" y="301.8675"/>
      </g>
     </g>
     <g id="text_5">
      <!-- 0.8 -->
      <defs>
       <path d="M 31.78125 34.625 
Q 24.75 34.625 20.71875 30.859375 
Q 16.703125 27.09375 16.703125 20.515625 
Q 16.703125 13.921875 20.71875 10.15625 
Q 24.75 6.390625 31.78125 6.390625 
Q 38.8125 6.390625 42.859375 10.171875 
Q 46.921875 13.96875 46.921875 20.515625 
Q 46.921875 27.09375 42.890625 30.859375 
Q 38.875 34.625 31.78125 34.625 
M 21.921875 38.8125 
Q 15.578125 40.375 12.03125 44.71875 
Q 8.5 49.078125 8.5 55.328125 
Q 8.5 64.0625 14.71875 69.140625 
Q 20.953125 74.21875 31.78125 74.21875 
Q 42.671875 74.21875 48.875 69.140625 
Q 55.078125 64.0625 55.078125 55.328125 
Q 55.078125 49.078125 51.53125 44.71875 
Q 48 40.375 41.703125 38.8125 
Q 48.828125 37.15625 52.796875 32.3125 
Q 56.78125 27.484375 56.78125 20.515625 
Q 56.78125 9.90625 50.3125 4.234375 
Q 43.84375 -1.421875 31.78125 -1.421875 
Q 19.734375 -1.421875 13.25 4.234375 
Q 6.78125 9.90625 6.78125 20.515625 
Q 6.78125 27.484375 10.78125 32.3125 
Q 14.796875 37.15625 21.921875 38.8125 
M 18.3125 54.390625 
Q 18.3125 48.734375 21.84375 45.5625 
Q 25.390625 42.390625 31.78125 42.390625 
Q 38.140625 42.390625 41.71875 45.5625 
Q 45.3125 48.734375 45.3125 54.390625 
Q 45.3125 60.0625 41.71875 63.234375 
Q 38.140625 66.40625 31.78125 66.40625 
Q 25.390625 66.40625 21.84375 63.234375 
Q 18.3125 60.0625 18.3125 54.390625 
" id="DejaVuSans-38"/>
      </defs>
      <g transform="translate(321.525688 316.465937)scale(0.1 -0.1)">
       <use xlink:href="#DejaVuSans-30"/>
       <use x="63.623047" xlink:href="#DejaVuSans-2e"/>
       <use x="95.410156" xlink:href="#DejaVuSans-38"/>
      </g>
     </g>
    </g>
    <g id="xtick_6">
     <g id="line2d_6">
      <g>
       <use style="stroke:#000000;stroke-width:0.8;" x="400.90125" xlink:href="#m85da37ff3e" y="301.8675"/>
      </g>
     </g>
     <g id="text_6">
      <!-- 1.0 -->
      <defs>
       <path d="M 12.40625 8.296875 
L 28.515625 8.296875 
L 28.515625 63.921875 
L 10.984375 60.40625 
L 10.984375 69.390625 
L 28.421875 72.90625 
L 38.28125 72.90625 
L 38.28125 8.296875 
L 54.390625 8.296875 
L 54.390625 0 
L 12.40625 0 
z
" id="DejaVuSans-31"/>
      </defs>
      <g transform="translate(392.949688 316.465937)scale(0.1 -0.1)">
       <use xlink:href="#DejaVuSans-31"/>
       <use x="63.623047" xlink:href="#DejaVuSans-2e"/>
       <use x="95.410156" xlink:href="#DejaVuSans-30"/>
      </g>
     </g>
    </g>
    <g id="text_7">
     <!-- False Positive Rate -->
     <defs>
      <path d="M 9.8125 72.90625 
L 51.703125 72.90625 
L 51.703125 64.59375 
L 19.671875 64.59375 
L 19.671875 43.109375 
L 48.578125 43.109375 
L 48.578125 34.8125 
L 19.671875 34.8125 
L 19.671875 0 
L 9.8125 0 
z
" id="DejaVuSans-46"/>
      <path d="M 34.28125 27.484375 
Q 23.390625 27.484375 19.1875 25 
Q 14.984375 22.515625 14.984375 16.5 
Q 14.984375 11.71875 18.140625 8.90625 
Q 21.296875 6.109375 26.703125 6.109375 
Q 34.1875 6.109375 38.703125 11.40625 
Q 43.21875 16.703125 43.21875 25.484375 
L 43.21875 27.484375 
z
M 52.203125 31.203125 
L 52.203125 0 
L 43.21875 0 
L 43.21875 8.296875 
Q 40.140625 3.328125 35.546875 0.953125 
Q 30.953125 -1.421875 24.3125 -1.421875 
Q 15.921875 -1.421875 10.953125 3.296875 
Q 6 8.015625 6 15.921875 
Q 6 25.140625 12.171875 29.828125 
Q 18.359375 34.515625 30.609375 34.515625 
L 43.21875 34.515625 
L 43.21875 35.40625 
Q 43.21875 41.609375 39.140625 45 
Q 35.0625 48.390625 27.6875 48.390625 
Q 23 48.390625 18.546875 47.265625 
Q 14.109375 46.140625 10.015625 43.890625 
L 10.015625 52.203125 
Q 14.9375 54.109375 19.578125 55.046875 
Q 24.21875 56 28.609375 56 
Q 40.484375 56 46.34375 49.84375 
Q 52.203125 43.703125 52.203125 31.203125 
" id="DejaVuSans-61"/>
      <path d="M 9.421875 75.984375 
L 18.40625 75.984375 
L 18.40625 0 
L 9.421875 0 
z
" id="DejaVuSans-6c"/>
      <path d="M 44.28125 53.078125 
L 44.28125 44.578125 
Q 40.484375 46.53125 36.375 47.5 
Q 32.28125 48.484375 27.875 48.484375 
Q 21.1875 48.484375 17.84375 46.4375 
Q 14.5 44.390625 14.5 40.28125 
Q 14.5 37.15625 16.890625 35.375 
Q 19.28125 33.59375 26.515625 31.984375 
L 29.59375 31.296875 
Q 39.15625 29.25 43.1875 25.515625 
Q 47.21875 21.78125 47.21875 15.09375 
Q 47.21875 7.46875 41.1875 3.015625 
Q 35.15625 -1.421875 24.609375 -1.421875 
Q 20.21875 -1.421875 15.453125 -0.5625 
Q 10.6875 0.296875 5.421875 2 
L 5.421875 11.28125 
Q 10.40625 8.6875 15.234375 7.390625 
Q 20.0625 6.109375 24.8125 6.109375 
Q 31.15625 6.109375 34.5625 8.28125 
Q 37.984375 10.453125 37.984375 14.40625 
Q 37.984375 18.0625 35.515625 20.015625 
Q 33.0625 21.96875 24.703125 23.78125 
L 21.578125 24.515625 
Q 13.234375 26.265625 9.515625 29.90625 
Q 5.8125 33.546875 5.8125 39.890625 
Q 5.8125 47.609375 11.28125 51.796875 
Q 16.75 56 26.8125 56 
Q 31.78125 56 36.171875 55.265625 
Q 40.578125 54.546875 44.28125 53.078125 
" id="DejaVuSans-73"/>
      <path d="M 56.203125 29.59375 
L 56.203125 25.203125 
L 14.890625 25.203125 
Q 15.484375 15.921875 20.484375 11.0625 
Q 25.484375 6.203125 34.421875 6.203125 
Q 39.59375 6.203125 44.453125 7.46875 
Q 49.3125 8.734375 54.109375 11.28125 
L 54.109375 2.78125 
Q 49.265625 0.734375 44.1875 -0.34375 
Q 39.109375 -1.421875 33.890625 -1.421875 
Q 20.796875 -1.421875 13.15625 6.1875 
Q 5.515625 13.8125 5.515625 26.8125 
Q 5.515625 40.234375 12.765625 48.109375 
Q 20.015625 56 32.328125 56 
Q 43.359375 56 49.78125 48.890625 
Q 56.203125 41.796875 56.203125 29.59375 
M 47.21875 32.234375 
Q 47.125 39.59375 43.09375 43.984375 
Q 39.0625 48.390625 32.421875 48.390625 
Q 24.90625 48.390625 20.390625 44.140625 
Q 15.875 39.890625 15.1875 32.171875 
z
" id="DejaVuSans-65"/>
      <path id="DejaVuSans-20"/>
      <path d="M 19.671875 64.796875 
L 19.671875 37.40625 
L 32.078125 37.40625 
Q 38.96875 37.40625 42.71875 40.96875 
Q 46.484375 44.53125 46.484375 51.125 
Q 46.484375 57.671875 42.71875 61.234375 
Q 38.96875 64.796875 32.078125 64.796875 
z
M 9.8125 72.90625 
L 32.078125 72.90625 
Q 44.34375 72.90625 50.609375 67.359375 
Q 56.890625 61.8125 56.890625 51.125 
Q 56.890625 40.328125 50.609375 34.8125 
Q 44.34375 29.296875 32.078125 29.296875 
L 19.671875 29.296875 
L 19.671875 0 
L 9.8125 0 
z
" id="DejaVuSans-50"/>
      <path d="M 30.609375 48.390625 
Q 23.390625 48.390625 19.1875 42.75 
Q 14.984375 37.109375 14.984375 27.296875 
Q 14.984375 17.484375 19.15625 11.84375 
Q 23.34375 6.203125 30.609375 6.203125 
Q 37.796875 6.203125 41.984375 11.859375 
Q 46.1875 17.53125 46.1875 27.296875 
Q 46.1875 37.015625 41.984375 42.703125 
Q 37.796875 48.390625 30.609375 48.390625 
M 30.609375 56 
Q 42.328125 56 49.015625 48.375 
Q 55.71875 40.765625 55.71875 27.296875 
Q 55.71875 13.875 49.015625 6.21875 
Q 42.328125 -1.421875 30.609375 -1.421875 
Q 18.84375 -1.421875 12.171875 6.21875 
Q 5.515625 13.875 5.515625 27.296875 
Q 5.515625 40.765625 12.171875 48.375 
Q 18.84375 56 30.609375 56 
" id="DejaVuSans-6f"/>
      <path d="M 9.421875 54.6875 
L 18.40625 54.6875 
L 18.40625 0 
L 9.421875 0 
z
M 9.421875 75.984375 
L 18.40625 75.984375 
L 18.40625 64.59375 
L 9.421875 64.59375 
z
" id="DejaVuSans-69"/>
      <path d="M 18.3125 70.21875 
L 18.3125 54.6875 
L 36.8125 54.6875 
L 36.8125 47.703125 
L 18.3125 47.703125 
L 18.3125 18.015625 
Q 18.3125 11.328125 20.140625 9.421875 
Q 21.96875 7.515625 27.59375 7.515625 
L 36.8125 7.515625 
L 36.8125 0 
L 27.59375 0 
Q 17.1875 0 13.234375 3.875 
Q 9.28125 7.765625 9.28125 18.015625 
L 9.28125 47.703125 
L 2.6875 47.703125 
L 2.6875 54.6875 
L 9.28125 54.6875 
L 9.28125 70.21875 
z
" id="DejaVuSans-74"/>
      <path d="M 2.984375 54.6875 
L 12.5 54.6875 
L 29.59375 8.796875 
L 46.6875 54.6875 
L 56.203125 54.6875 
L 35.6875 0 
L 23.484375 0 
z
" id="DejaVuSans-76"/>
      <path d="M 44.390625 34.1875 
Q 47.5625 33.109375 50.5625 29.59375 
Q 53.5625 26.078125 56.59375 19.921875 
L 66.609375 0 
L 56 0 
L 46.6875 18.703125 
Q 43.0625 26.03125 39.671875 28.421875 
Q 36.28125 30.8125 30.421875 30.8125 
L 19.671875 30.8125 
L 19.671875 0 
L 9.8125 0 
L 9.8125 72.90625 
L 32.078125 72.90625 
Q 44.578125 72.90625 50.734375 67.671875 
Q 56.890625 62.453125 56.890625 51.90625 
Q 56.890625 45.015625 53.6875 40.46875 
Q 50.484375 35.9375 44.390625 34.1875 
M 19.671875 64.796875 
L 19.671875 38.921875 
L 32.078125 38.921875 
Q 39.203125 38.921875 42.84375 42.21875 
Q 46.484375 45.515625 46.484375 51.90625 
Q 46.484375 58.296875 42.84375 61.546875 
Q 39.203125 64.796875 32.078125 64.796875 
z
" id="DejaVuSans-52"/>
     </defs>
     <g transform="translate(175.135781 330.144062)scale(0.1 -0.1)">
      <use xlink:href="#DejaVuSans-46"/>
      <use x="57.378906" xlink:href="#DejaVuSans-61"/>
      <use x="118.658203" xlink:href="#DejaVuSans-6c"/>
      <use x="146.441406" xlink:href="#DejaVuSans-73"/>
      <use x="198.541016" xlink:href="#DejaVuSans-65"/>
      <use x="260.064453" xlink:href="#DejaVuSans-20"/>
      <use x="291.851562" xlink:href="#DejaVuSans-50"/>
      <use x="352.107422" xlink:href="#DejaVuSans-6f"/>
      <use x="413.289062" xlink:href="#DejaVuSans-73"/>
      <use x="465.388672" xlink:href="#DejaVuSans-69"/>
      <use x="493.171875" xlink:href="#DejaVuSans-74"/>
      <use x="532.380859" xlink:href="#DejaVuSans-69"/>
      <use x="560.164062" xlink:href="#DejaVuSans-76"/>
      <use x="619.34375" xlink:href="#DejaVuSans-65"/>
      <use x="680.867188" xlink:href="#DejaVuSans-20"/>
      <use x="712.654297" xlink:href="#DejaVuSans-52"/>
      <use x="782.105469" xlink:href="#DejaVuSans-61"/>
      <use x="843.384766" xlink:href="#DejaVuSans-74"/>
      <use x="882.59375" xlink:href="#DejaVuSans-65"/>
     </g>
    </g>
   </g>
   <g id="matplotlib.axis_2">
    <g id="ytick_1">
     <g id="line2d_7">
      <defs>
       <path d="M 0 0 
L -3.5 0 
" id="m4470abedee" style="stroke:#000000;stroke-width:0.8;"/>
      </defs>
      <g>
       <use style="stroke:#000000;stroke-width:0.8;" x="43.78125" xlink:href="#m4470abedee" y="301.8675"/>
      </g>
     </g>
     <g id="text_8">
      <!-- 0.0 -->
      <g transform="translate(20.878125 305.666719)scale(0.1 -0.1)">
       <use xlink:href="#DejaVuSans-30"/>
       <use x="63.623047" xlink:href="#DejaVuSans-2e"/>
       <use x="95.410156" xlink:href="#DejaVuSans-30"/>
      </g>
     </g>
    </g>
    <g id="ytick_2">
     <g id="line2d_8">
      <g>
       <use style="stroke:#000000;stroke-width:0.8;" x="43.78125" xlink:href="#m4470abedee" y="251.1795"/>
      </g>
     </g>
     <g id="text_9">
      <!-- 0.2 -->
      <g transform="translate(20.878125 254.978719)scale(0.1 -0.1)">
       <use xlink:href="#DejaVuSans-30"/>
       <use x="63.623047" xlink:href="#DejaVuSans-2e"/>
       <use x="95.410156" xlink:href="#DejaVuSans-32"/>
      </g>
     </g>
    </g>
    <g id="ytick_3">
     <g id="line2d_9">
      <g>
       <use style="stroke:#000000;stroke-width:0.8;" x="43.78125" xlink:href="#m4470abedee" y="200.4915"/>
      </g>
     </g>
     <g id="text_10">
      <!-- 0.4 -->
      <g transform="translate(20.878125 204.290719)scale(0.1 -0.1)">
       <use xlink:href="#DejaVuSans-30"/>
       <use x="63.623047" xlink:href="#DejaVuSans-2e"/>
       <use x="95.410156" xlink:href="#DejaVuSans-34"/>
      </g>
     </g>
    </g>
    <g id="ytick_4">
     <g id="line2d_10">
      <g>
       <use style="stroke:#000000;stroke-width:0.8;" x="43.78125" xlink:href="#m4470abedee" y="149.8035"/>
      </g>
     </g>
     <g id="text_11">
      <!-- 0.6 -->
      <g transform="translate(20.878125 153.602719)scale(0.1 -0.1)">
       <use xlink:href="#DejaVuSans-30"/>
       <use x="63.623047" xlink:href="#DejaVuSans-2e"/>
       <use x="95.410156" xlink:href="#DejaVuSans-36"/>
      </g>
     </g>
    </g>
    <g id="ytick_5">
     <g id="line2d_11">
      <g>
       <use style="stroke:#000000;stroke-width:0.8;" x="43.78125" xlink:href="#m4470abedee" y="99.1155"/>
      </g>
     </g>
     <g id="text_12">
      <!-- 0.8 -->
      <g transform="translate(20.878125 102.914719)scale(0.1 -0.1)">
       <use xlink:href="#DejaVuSans-30"/>
       <use x="63.623047" xlink:href="#DejaVuSans-2e"/>
       <use x="95.410156" xlink:href="#DejaVuSans-38"/>
      </g>
     </g>
    </g>
    <g id="ytick_6">
     <g id="line2d_12">
      <g>
       <use style="stroke:#000000;stroke-width:0.8;" x="43.78125" xlink:href="#m4470abedee" y="48.4275"/>
      </g>
     </g>
     <g id="text_13">
      <!-- 1.0 -->
      <g transform="translate(20.878125 52.226719)scale(0.1 -0.1)">
       <use xlink:href="#DejaVuSans-31"/>
       <use x="63.623047" xlink:href="#DejaVuSans-2e"/>
       <use x="95.410156" xlink:href="#DejaVuSans-30"/>
      </g>
     </g>
    </g>
    <g id="text_14">
     <!-- True Positive Rate -->
     <defs>
      <path d="M -0.296875 72.90625 
L 61.375 72.90625 
L 61.375 64.59375 
L 35.5 64.59375 
L 35.5 0 
L 25.59375 0 
L 25.59375 64.59375 
L -0.296875 64.59375 
z
" id="DejaVuSans-54"/>
      <path d="M 41.109375 46.296875 
Q 39.59375 47.171875 37.8125 47.578125 
Q 36.03125 48 33.890625 48 
Q 26.265625 48 22.1875 43.046875 
Q 18.109375 38.09375 18.109375 28.8125 
L 18.109375 0 
L 9.078125 0 
L 9.078125 54.6875 
L 18.109375 54.6875 
L 18.109375 46.1875 
Q 20.953125 51.171875 25.484375 53.578125 
Q 30.03125 56 36.53125 56 
Q 37.453125 56 38.578125 55.875 
Q 39.703125 55.765625 41.0625 55.515625 
z
" id="DejaVuSans-72"/>
      <path d="M 8.5 21.578125 
L 8.5 54.6875 
L 17.484375 54.6875 
L 17.484375 21.921875 
Q 17.484375 14.15625 20.5 10.265625 
Q 23.53125 6.390625 29.59375 6.390625 
Q 36.859375 6.390625 41.078125 11.03125 
Q 45.3125 15.671875 45.3125 23.6875 
L 45.3125 54.6875 
L 54.296875 54.6875 
L 54.296875 0 
L 45.3125 0 
L 45.3125 8.40625 
Q 42.046875 3.421875 37.71875 1 
Q 33.40625 -1.421875 27.6875 -1.421875 
Q 18.265625 -1.421875 13.375 4.4375 
Q 8.5 10.296875 8.5 21.578125 
M 31.109375 56 
z
" id="DejaVuSans-75"/>
     </defs>
     <g transform="translate(14.798438 214.357594)rotate(-90)scale(0.1 -0.1)">
      <use xlink:href="#DejaVuSans-54"/>
      <use x="60.865234" xlink:href="#DejaVuSans-72"/>
      <use x="101.978516" xlink:href="#DejaVuSans-75"/>
      <use x="165.357422" xlink:href="#DejaVuSans-65"/>
      <use x="226.880859" xlink:href="#DejaVuSans-20"/>
      <use x="258.667969" xlink:href="#DejaVuSans-50"/>
      <use x="318.923828" xlink:href="#DejaVuSans-6f"/>
      <use x="380.105469" xlink:href="#DejaVuSans-73"/>
      <use x="432.205078" xlink:href="#DejaVuSans-69"/>
      <use x="459.988281" xlink:href="#DejaVuSans-74"/>
      <use x="499.197266" xlink:href="#DejaVuSans-69"/>
      <use x="526.980469" xlink:href="#DejaVuSans-76"/>
      <use x="586.160156" xlink:href="#DejaVuSans-65"/>
      <use x="647.683594" xlink:href="#DejaVuSans-20"/>
      <use x="679.470703" xlink:href="#DejaVuSans-52"/>
      <use x="748.921875" xlink:href="#DejaVuSans-61"/>
      <use x="810.201172" xlink:href="#DejaVuSans-74"/>
      <use x="849.410156" xlink:href="#DejaVuSans-65"/>
     </g>
    </g>
   </g>
   <g id="line2d_13">
    <path clip-path="url(#p6a18c7d7b0)" d="M 43.78125 301.8675 
L 43.891239 301.8675 
L 44.018826 300.212832 
L 44.238803 300.212832 
L 44.691956 298.282386 
L 44.889936 298.282386 
L 44.94713 297.73083 
L 45.030721 296.076162 
L 45.277096 294.97305 
L 45.321091 294.97305 
L 45.501473 293.869937 
L 46.01622 290.560601 
L 46.350585 286.699709 
L 48.268788 262.431243 
L 48.409573 260.225019 
L 48.475566 260.225019 
L 48.655948 259.121907 
L 48.875925 259.121907 
L 48.955117 258.570351 
L 49.210291 258.018795 
L 49.333478 257.467239 
L 49.377473 257.467239 
L 51.73563 244.505672 
L 51.779626 243.126782 
L 51.911612 243.126782 
L 52.250377 240.920558 
L 53.367862 239.26589 
L 53.535045 237.335443 
L 53.57904 237.335443 
L 53.728625 235.680775 
L 53.913406 233.474551 
L 54.001397 233.474551 
L 54.150981 231.819883 
L 54.480947 231.819883 
L 54.55574 229.613659 
L 54.907703 229.613659 
L 55.03529 227.958991 
L 55.387254 227.958991 
L 55.602832 226.304323 
L 55.748017 225.752767 
L 55.836008 225.752767 
L 55.959195 225.201211 
L 56.20117 225.201211 
L 56.385951 224.373876 
L 56.544335 223.270764 
L 56.654323 221.891874 
L 56.852303 220.512984 
L 57.028285 220.512984 
L 57.415445 216.100536 
L 57.767409 216.100536 
L 57.824603 215.54898 
L 57.956589 215.54898 
L 58.128172 213.894312 
L 58.194165 213.894312 
L 58.444939 211.688088 
L 58.598923 211.688088 
L 59.131268 204.793637 
L 59.30725 204.793637 
L 59.360045 203.966303 
L 59.624017 203.966303 
L 59.69441 202.863191 
L 60.486329 202.863191 
L 60.56552 202.311635 
L 60.653511 202.311635 
L 60.781098 200.656967 
L 60.935082 200.656967 
L 61.071468 199.553855 
L 61.194656 199.002299 
L 61.700603 199.002299 
L 61.858987 197.899187 
L 61.942579 197.623409 
L 62.105362 195.417184 
L 62.193353 195.417184 
L 62.369335 194.038294 
L 62.523319 194.038294 
L 62.690501 191.556292 
L 62.822488 191.556292 
L 62.950075 189.901624 
L 63.152454 188.798512 
L 63.416427 188.798512 
L 63.47802 188.522734 
L 63.610007 188.522734 
L 63.755192 187.971178 
L 63.843183 187.971178 
L 64.071959 187.143844 
L 64.168749 184.93762 
L 64.25674 184.93762 
L 64.318334 181.904061 
L 64.604304 181.904061 
L 64.731891 181.628283 
L 64.863878 181.628283 
L 64.995864 180.249393 
L 65.281834 180.249393 
L 65.42262 178.043169 
L 65.510611 178.043169 
L 65.6162 177.767391 
L 65.831778 176.112723 
L 66.148545 174.182277 
L 66.5885 174.182277 
L 66.768881 173.079165 
L 66.856872 173.079165 
L 67.015256 171.976053 
L 67.129644 171.976053 
L 67.283628 169.218273 
L 67.503605 169.218273 
L 67.908364 165.633158 
L 68.458307 165.633158 
L 68.687084 162.048044 
L 68.863065 162.048044 
L 68.964255 161.496488 
L 69.329417 161.496488 
L 69.465803 160.393376 
L 70.015747 160.393376 
L 70.292918 159.84182 
L 70.314916 159.84182 
L 70.543692 157.635596 
L 70.710875 157.08404 
L 70.776868 157.08404 
L 71.128832 152.947369 
L 71.876755 152.947369 
L 72.175924 152.120035 
L 72.30791 152.120035 
L 72.527888 149.362255 
L 72.615879 149.362255 
L 72.813858 147.983365 
L 73.099829 147.983365 
L 73.324206 146.880253 
L 74.578076 146.880253 
L 74.613273 146.328697 
L 74.745259 146.328697 
L 74.824451 145.777141 
L 74.912442 145.777141 
L 75.141218 143.570917 
L 75.273205 143.570917 
L 75.330399 143.019361 
L 76.298299 143.019361 
L 76.421487 142.467805 
L 76.619466 142.467805 
L 76.804247 140.261581 
L 76.958231 140.261581 
L 77.103416 139.710024 
L 77.468579 139.710024 
L 77.618163 138.055356 
L 77.706154 138.055356 
L 77.890935 135.849132 
L 77.978926 135.849132 
L 78.146109 135.297576 
L 78.872034 135.297576 
L 79.10081 134.470242 
L 79.562763 134.470242 
L 79.681551 132.264018 
L 79.857532 132.264018 
L 80.108307 131.436684 
L 80.94422 131.436684 
L 81.058609 130.333572 
L 81.498563 130.333572 
L 81.621751 129.782016 
L 81.687744 129.782016 
L 81.802132 128.678904 
L 83.649942 128.678904 
L 83.799526 128.403126 
L 84.019504 128.403126 
L 84.182287 127.575792 
L 86.835213 127.575792 
L 86.883608 126.47268 
L 88.137479 126.47268 
L 88.243068 124.818011 
L 89.166973 124.818011 
L 89.29016 124.266455 
L 89.444145 124.266455 
L 89.659722 122.611787 
L 89.857702 122.611787 
L 90.029284 120.957119 
L 90.535232 120.957119 
L 90.680417 120.405563 
L 90.8476 119.854007 
L 91.177566 119.854007 
L 91.388744 119.302451 
L 91.674715 119.302451 
L 91.701112 118.199339 
L 91.833098 118.199339 
L 91.982683 117.923561 
L 93.588518 117.923561 
L 93.694107 116.268893 
L 95.89388 116.268893 
L 96.052264 115.165781 
L 96.6682 115.165781 
L 96.813385 114.614225 
L 97.385326 114.614225 
L 97.455719 113.511113 
L 97.74169 113.511113 
L 97.860477 111.304888 
L 99.642294 111.304888 
L 99.783079 110.477554 
L 100.64979 110.477554 
L 100.764178 109.374442 
L 101.710081 109.374442 
L 101.745277 108.822886 
L 103.676678 108.822886 
L 103.711874 108.27133 
L 104.305813 108.27133 
L 104.420201 107.168218 
L 106.66397 107.168218 
L 106.835552 105.51355 
L 107.891444 105.51355 
L 108.036629 104.961994 
L 108.89454 104.961994 
L 108.986931 102.479992 
L 110.306795 102.479992 
L 110.45198 101.928436 
L 111.507871 101.928436 
L 111.631058 101.37688 
L 113.214895 101.37688 
L 113.298486 101.101102 
L 113.65045 101.101102 
L 113.685647 100.549546 
L 116.259381 100.549546 
L 116.342973 98.894878 
L 116.694936 98.894878 
L 116.831322 97.791766 
L 120.276167 97.791766 
L 120.324562 96.688653 
L 121.666424 96.688653 
L 121.816009 95.033985 
L 126.259551 95.033985 
L 126.294747 94.482429 
L 127.064668 94.482429 
L 127.271447 93.655095 
L 129.251243 93.655095 
L 129.427224 92.276205 
L 133.320823 92.276205 
L 133.461609 91.448871 
L 136.739271 91.448871 
L 137.003244 90.069981 
L 139.027035 90.069981 
L 139.132624 89.794203 
L 142.300298 89.794203 
L 142.445483 89.242647 
L 147.161797 89.242647 
L 147.289384 88.966869 
L 147.531359 88.966869 
L 147.628149 88.139535 
L 150.223881 88.139535 
L 150.351468 87.863757 
L 151.539346 87.863757 
L 151.578942 87.587979 
L 151.952903 87.587979 
L 151.992499 87.312201 
L 153.972295 87.312201 
L 154.113081 86.484867 
L 154.926997 86.484867 
L 154.99739 85.381755 
L 155.305358 85.381755 
L 155.47694 84.554421 
L 158.468632 84.554421 
L 158.816196 84.278643 
L 159.256151 84.278643 
L 159.392537 83.17553 
L 160.492423 83.17553 
L 163.611702 82.899752 
L 166.669387 82.899752 
L 166.752978 82.623974 
L 167.786872 82.623974 
L 168.961551 81.79664 
L 169.106736 81.245084 
L 169.238722 81.245084 
L 169.322313 80.969306 
L 170.008643 80.969306 
L 170.070236 80.693528 
L 176.317593 80.693528 
L 176.352789 80.141972 
L 177.034719 80.141972 
L 177.166705 77.384192 
L 182.296576 77.384192 
L 182.688136 77.108414 
L 183.744027 77.108414 
L 183.867215 76.556858 
L 184.285172 76.556858 
L 184.452354 76.005302 
L 193.867384 76.005302 
L 193.990571 75.453746 
L 195.94837 75.453746 
L 196.075957 75.177968 
L 196.317932 75.177968 
L 196.344329 74.074856 
L 197.004261 74.074856 
L 197.145046 73.247522 
L 197.650994 73.247522 
L 197.743385 72.14441 
L 201.08704 72.14441 
L 201.214627 71.868632 
L 201.412607 71.868632 
L 201.553392 71.041298 
L 204.501088 71.041298 
L 204.553883 68.835073 
L 205.169819 68.835073 
L 205.359 68.283517 
L 215.394366 68.283517 
L 215.44716 67.456183 
L 216.789022 66.628849 
L 217.29497 66.628849 
L 217.316968 63.871069 
L 219.318761 63.871069 
L 222.213663 63.319513 
L 222.587625 63.319513 
L 222.666816 62.767957 
L 223.172764 62.767957 
L 223.251956 62.216401 
L 224.67301 61.664845 
L 235.896253 61.664845 
L 236.02384 61.389067 
L 236.459395 61.389067 
L 236.564984 61.113289 
L 247.251483 61.113289 
L 247.37467 60.561733 
L 251.598235 60.561733 
L 251.677427 60.010177 
L 256.472933 60.010177 
L 256.508129 59.458621 
L 268.936848 59.458621 
L 269.042438 59.182843 
L 273.00203 59.182843 
L 273.173612 58.907065 
L 275.320591 58.907065 
L 275.360187 57.252397 
L 276.534866 57.252397 
L 277.863529 56.425063 
L 291.000575 56.425063 
L 291.123762 55.873507 
L 300.164831 55.873507 
L 302.769362 54.494616 
L 303.715265 54.494616 
L 303.754861 54.218838 
L 306.416586 54.218838 
L 307.850839 53.94306 
L 317.771816 53.94306 
L 317.877405 53.667282 
L 327.393625 53.667282 
L 327.521212 53.391504 
L 329.835373 53.391504 
L 329.976159 52.56417 
L 334.868454 52.56417 
L 334.952046 52.288392 
L 344.719039 52.288392 
L 344.890622 52.012614 
L 349.941301 52.012614 
L 349.994096 51.18528 
L 350.280066 51.18528 
L 350.319662 50.909502 
L 355.519926 50.909502 
L 355.669511 50.633724 
L 357.209352 50.633724 
L 357.248948 50.357946 
L 359.387128 50.357946 
L 359.426724 50.082168 
L 364.89536 50.082168 
L 364.934956 49.80639 
L 375.058313 49.80639 
L 375.172701 48.703278 
L 378.410768 48.703278 
L 378.538354 48.4275 
L 400.90125 48.4275 
L 400.90125 48.4275 
" style="fill:none;stroke:#1f77b4;stroke-linecap:square;stroke-width:1.5;"/>
   </g>
   <g id="line2d_14">
    <path clip-path="url(#p6a18c7d7b0)" d="M 43.78125 301.8675 
L 43.825245 299.10972 
L 43.886839 297.455052 
L 44.062821 297.455052 
L 44.133214 296.35194 
L 44.309196 296.35194 
L 44.467579 292.491047 
L 44.687557 292.491047 
L 44.837141 290.836379 
L 44.925132 290.836379 
L 45.087915 290.009045 
L 45.395884 290.009045 
L 45.558667 289.181711 
L 46.143807 283.114595 
L 47.256892 274.289698 
L 47.432874 274.289698 
L 47.846431 267.11947 
L 47.95202 265.464801 
L 48.031212 264.913245 
L 50.521355 251.400122 
L 52.386763 238.438555 
L 52.562745 238.438555 
L 52.831117 235.956553 
L 53.504248 231.268327 
L 53.627435 230.716771 
L 53.706627 230.165215 
L 53.882609 230.165215 
L 53.953002 229.062103 
L 54.243372 227.958991 
L 54.577737 224.098098 
L 54.797715 224.098098 
L 54.824112 222.994986 
L 55.079286 222.44343 
L 55.42245 217.479426 
L 55.774414 217.479426 
L 55.853606 216.92787 
L 56.10878 216.376314 
L 56.231967 215.824758 
L 56.275962 215.824758 
L 56.30236 214.721646 
L 56.478342 214.721646 
L 56.531136 212.515422 
L 56.707118 212.515422 
L 56.997488 208.654529 
L 57.195468 208.654529 
L 57.375849 203.414747 
L 57.683817 203.414747 
L 57.912594 201.208523 
L 57.956589 201.208523 
L 58.053379 199.278077 
L 58.185366 199.278077 
L 58.264558 198.726521 
L 58.682514 198.726521 
L 58.911291 196.520297 
L 59.316049 191.556292 
L 59.624017 191.556292 
L 59.782401 190.45318 
L 59.861593 189.901624 
L 60.635913 188.798512 
L 60.781098 187.143844 
L 60.825094 187.143844 
L 60.965879 184.93762 
L 61.229852 184.93762 
L 61.353039 184.386064 
L 61.792994 184.386064 
L 61.907382 183.282952 
L 62.083364 183.282952 
L 62.188953 181.628283 
L 62.40893 181.628283 
L 62.567314 180.525171 
L 63.09526 180.525171 
L 63.174452 179.973615 
L 63.394429 179.973615 
L 63.526415 177.215835 
L 63.834384 177.215835 
L 63.992767 176.112723 
L 64.080758 176.112723 
L 64.239142 175.009611 
L 64.283137 175.009611 
L 64.432722 173.906499 
L 64.503115 173.906499 
L 64.74069 172.251831 
L 64.890275 170.597163 
L 65.154248 170.597163 
L 65.312631 169.494051 
L 65.928568 169.494051 
L 66.130947 168.390939 
L 66.306929 168.390939 
L 66.421317 167.287826 
L 66.68529 167.287826 
L 66.720486 166.73627 
L 66.984459 166.73627 
L 67.142843 165.633158 
L 67.450811 165.633158 
L 67.477208 164.530046 
L 67.697186 164.530046 
L 67.921562 162.048044 
L 68.053549 162.048044 
L 68.123942 160.944932 
L 68.739878 160.944932 
L 68.937858 159.566042 
L 69.025849 159.566042 
L 69.10504 159.014486 
L 69.193031 159.014486 
L 69.369013 156.256706 
L 69.544995 156.256706 
L 69.624187 155.70515 
L 70.064142 155.70515 
L 70.147733 155.429372 
L 70.27092 154.877816 
L 70.473299 153.774703 
L 71.133231 153.774703 
L 71.291615 152.671591 
L 71.599583 152.671591 
L 71.72717 152.395813 
L 72.431098 152.395813 
L 72.580682 150.741145 
L 72.844655 150.741145 
L 73.038235 149.086477 
L 73.390199 149.086477 
L 73.610176 146.328697 
L 73.698167 146.328697 
L 73.733364 145.777141 
L 73.953341 145.777141 
L 74.217314 143.019361 
L 74.437291 143.019361 
L 74.560478 142.467805 
L 74.692465 142.467805 
L 74.798054 140.813137 
L 75.018031 140.813137 
L 75.22041 139.710024 
L 75.572374 139.710024 
L 75.695561 139.158468 
L 75.783552 139.158468 
L 75.862744 138.606912 
L 76.302699 138.606912 
L 76.399489 136.400688 
L 77.059421 136.400688 
L 77.200206 134.194464 
L 77.464179 134.194464 
L 77.701755 133.091352 
L 78.185705 133.091352 
L 78.308892 132.539796 
L 82.237687 132.539796 
L 82.396071 131.436684 
L 82.677642 129.782016 
L 83.117597 129.782016 
L 83.143994 128.678904 
L 83.583948 128.678904 
L 83.66314 128.127348 
L 84.103095 128.127348 
L 84.226282 127.575792 
L 84.578246 127.575792 
L 84.692634 126.47268 
L 85.088593 126.47268 
L 85.211781 125.921124 
L 85.255776 125.921124 
L 85.290973 125.369567 
L 85.950905 125.369567 
L 85.986101 124.818011 
L 86.602037 124.818011 
L 86.681229 124.266455 
L 86.923204 124.266455 
L 87.099186 121.508675 
L 87.231173 121.508675 
L 87.35436 120.957119 
L 87.882306 120.957119 
L 87.961497 120.405563 
L 88.269466 120.405563 
L 88.375055 118.750895 
L 88.859005 118.750895 
L 88.894201 118.199339 
L 89.334156 118.199339 
L 89.413348 117.647783 
L 90.491237 117.647783 
L 90.693616 116.820449 
L 91.04558 116.820449 
L 91.203963 115.717337 
L 91.617521 115.717337 
L 91.784703 115.165781 
L 92.092672 115.165781 
L 92.20706 114.062669 
L 93.7557 114.062669 
L 93.834892 113.786891 
L 93.966879 113.786891 
L 94.04607 113.235335 
L 96.025866 113.235335 
L 96.105058 112.683779 
L 96.413026 112.683779 
L 96.580209 112.132223 
L 96.712196 112.132223 
L 96.835383 111.580666 
L 97.231342 111.580666 
L 97.301735 111.02911 
L 97.433721 111.02911 
L 97.54811 110.477554 
L 97.671297 110.201776 
L 97.803283 110.201776 
L 97.83848 109.65022 
L 98.234439 109.65022 
L 98.348827 108.547108 
L 99.888668 108.547108 
L 100.003057 107.719774 
L 100.399016 107.719774 
L 100.588196 107.168218 
L 101.556096 107.168218 
L 101.635288 106.616662 
L 101.81127 106.616662 
L 101.934458 106.065106 
L 102.374412 106.065106 
L 102.444805 104.961994 
L 102.752773 104.961994 
L 102.919956 104.410438 
L 106.307607 104.410438 
L 106.342803 103.858882 
L 108.278604 103.858882 
L 108.357796 103.307326 
L 108.709759 103.307326 
L 108.824148 102.204214 
L 110.473978 102.204214 
L 110.623562 100.549546 
L 110.711553 100.549546 
L 110.825941 99.446434 
L 111.61786 99.446434 
L 111.688252 98.343322 
L 113.07411 98.343322 
L 113.232493 97.240209 
L 117.649638 97.240209 
L 117.816821 96.688653 
L 119.708626 96.688653 
L 119.743822 96.137097 
L 120.051791 96.137097 
L 125.018879 95.309763 
L 127.557417 94.482429 
L 128.261345 94.482429 
L 128.428527 93.930873 
L 128.560514 93.930873 
L 128.639706 93.379317 
L 133.457209 93.379317 
L 133.593595 92.276205 
L 133.725582 92.276205 
L 133.848769 91.724649 
L 135.476601 91.724649 
L 135.511797 91.173093 
L 135.810967 90.621537 
L 135.837364 89.518425 
L 136.409305 89.518425 
L 136.488497 88.966869 
L 137.196824 88.966869 
L 137.271616 88.139535 
L 138.855453 88.139535 
L 138.939044 87.863757 
L 139.422994 87.863757 
L 142.735853 87.587979 
L 142.85904 87.036423 
L 146.35668 87.036423 
L 146.479867 86.484867 
L 147.183795 86.484867 
L 147.306982 85.933311 
L 148.142896 85.933311 
L 148.266083 85.381755 
L 150.993802 85.381755 
L 154.359455 85.105977 
L 159.36174 85.105977 
L 159.432133 84.002865 
L 160.268046 84.002865 
L 161.051166 83.451308 
L 161.121558 82.348196 
L 161.605509 82.348196 
L 163.022163 81.520862 
L 163.72609 81.520862 
L 164.148447 80.41775 
L 166.990554 80.41775 
L 167.016951 79.314638 
L 172.661569 79.314638 
L 172.709964 78.211526 
L 173.977034 78.211526 
L 174.148616 77.935748 
L 175.904035 77.65997 
L 178.27979 77.65997 
L 178.358982 77.108414 
L 182.221784 77.108414 
L 182.305376 76.832636 
L 182.701335 76.832636 
L 182.815723 75.729524 
L 182.947709 75.729524 
L 183.031301 75.453746 
L 184.808718 75.177968 
L 184.923106 74.074856 
L 188.17877 74.074856 
L 190.31255 73.799078 
L 191.19246 73.799078 
L 191.262853 72.695966 
L 192.802694 72.695966 
L 192.930281 71.592854 
L 193.722199 71.592854 
L 193.801391 71.041298 
L 194.241346 71.041298 
L 194.808887 70.76552 
L 199.525201 70.76552 
L 199.551598 69.662408 
L 205.490986 69.662408 
L 205.614174 69.110851 
L 207.242006 69.110851 
L 207.277202 68.559295 
L 207.717157 68.559295 
L 207.796349 68.007739 
L 210.854034 68.007739 
L 211.025616 67.731961 
L 213.357376 67.731961 
L 213.427769 66.628849 
L 215.055601 66.628849 
L 215.834321 65.801515 
L 221.905695 65.801515 
L 222.816401 64.974181 
L 222.860397 64.974181 
L 222.974785 63.871069 
L 223.524728 63.871069 
L 223.779902 63.319513 
L 224.175861 63.319513 
L 224.246254 62.216401 
L 225.7421 62.216401 
L 225.777296 61.664845 
L 228.984565 61.664845 
L 229.763285 60.837511 
L 232.644988 60.837511 
L 232.768176 60.285955 
L 235.856657 60.285955 
L 235.891854 59.734399 
L 236.595781 59.734399 
L 236.784962 59.182843 
L 240.612567 59.182843 
L 240.652163 58.907065 
L 245.53566 58.907065 
L 245.702843 58.355509 
L 261.6424 58.355509 
L 261.668797 57.252397 
L 266.512698 57.252397 
L 266.59629 56.976619 
L 274.207505 56.976619 
L 274.291097 56.700841 
L 279.79053 56.700841 
L 279.913717 56.149285 
L 282.069495 56.149285 
L 282.192683 55.597729 
L 289.381542 55.597729 
L 289.421138 55.32195 
L 294.194646 55.32195 
L 294.317833 54.770394 
L 301.687074 54.770394 
L 301.72227 54.218838 
L 312.817927 54.218838 
L 312.897119 53.667282 
L 313.909014 53.667282 
L 313.992606 53.391504 
L 319.800007 53.391504 
L 319.835204 52.839948 
L 328.779482 52.839948 
L 328.902669 52.288392 
L 334.855256 52.288392 
L 334.890452 51.736836 
L 341.634957 51.736836 
L 341.736147 51.18528 
L 343.957918 51.18528 
L 344.041509 50.909502 
L 345.625346 50.909502 
L 345.748533 50.357946 
L 349.716924 50.357946 
L 349.862109 49.80639 
L 350.566037 49.80639 
L 350.715621 49.530612 
L 355.621116 49.530612 
L 355.744303 48.979056 
L 358.582011 48.979056 
L 358.617207 48.4275 
L 400.90125 48.4275 
L 400.90125 48.4275 
" style="fill:none;stroke:#ff7f0e;stroke-linecap:square;stroke-width:1.5;"/>
   </g>
   <g id="line2d_15">
    <path clip-path="url(#p6a18c7d7b0)" d="M 43.78125 301.8675 
L 44.375189 301.8675 
L 44.630363 301.315343 
L 45.092315 301.315343 
L 45.162708 297.450245 
L 45.321091 296.345931 
L 45.347489 295.241618 
L 45.752247 293.03299 
L 45.923829 292.756912 
L 49.865823 262.388284 
L 53.728625 242.234559 
L 53.953002 239.749853 
L 54.040993 239.749853 
L 54.155381 238.645539 
L 54.595336 238.645539 
L 54.674527 238.093382 
L 55.180475 238.093382 
L 55.338859 234.228284 
L 55.466446 233.952206 
L 55.554437 233.952206 
L 55.954796 227.326324 
L 56.130777 227.326324 
L 56.20117 226.22201 
L 56.377152 226.22201 
L 56.482741 224.565539 
L 56.658723 224.565539 
L 56.799509 222.356912 
L 56.8831 219.320049 
L 57.059082 219.320049 
L 57.142673 219.043971 
L 57.406646 219.043971 
L 57.433043 217.939657 
L 57.851 217.939657 
L 58.009384 216.835343 
L 58.176567 213.522402 
L 58.290955 212.418088 
L 58.550528 212.418088 
L 58.62972 211.865931 
L 58.656117 210.761618 
L 58.8233 210.209461 
L 58.972885 208.55299 
L 59.060875 208.55299 
L 59.258855 207.172598 
L 59.610819 207.172598 
L 59.725207 206.068284 
L 59.857193 206.068284 
L 60.015577 204.963971 
L 60.464331 202.479265 
L 60.552322 202.479265 
L 60.640313 201.098873 
L 60.939482 197.785931 
L 61.555418 197.785931 
L 61.740199 195.577304 
L 61.872186 195.577304 
L 61.907382 195.025147 
L 62.083364 195.025147 
L 62.180154 192.81652 
L 62.7081 192.81652 
L 62.778492 191.712206 
L 63.086461 191.712206 
L 63.205248 189.503578 
L 63.975169 189.503578 
L 64.027964 187.294951 
L 64.35793 187.294951 
L 64.652699 185.362402 
L 64.696695 185.362402 
L 64.767087 184.258088 
L 65.009063 184.258088 
L 65.022261 183.429853 
L 65.462216 183.429853 
L 65.563405 182.325539 
L 65.699791 181.221225 
L 65.875773 181.221225 
L 65.915369 180.945147 
L 66.311328 180.945147 
L 66.372922 179.288676 
L 66.504908 179.288676 
L 66.672091 178.73652 
L 66.804078 178.73652 
L 66.949263 178.184363 
L 67.125244 178.184363 
L 67.160441 177.632206 
L 67.600396 177.632206 
L 67.617994 175.975735 
L 67.74998 175.975735 
L 67.855569 175.699657 
L 68.581494 175.699657 
L 68.739878 171.834559 
L 68.889463 170.178088 
L 68.933458 170.178088 
L 69.056645 169.625931 
L 69.408609 169.625931 
L 69.610988 168.521618 
L 70.17853 168.521618 
L 70.341313 166.31299 
L 70.473299 166.31299 
L 70.499697 165.208676 
L 70.631683 165.208676 
L 70.85166 162.447892 
L 71.076037 162.447892 
L 71.63038 158.582794 
L 71.894353 158.582794 
L 72.008741 157.47848 
L 72.272714 157.47848 
L 72.290312 157.202402 
L 73.302208 157.202402 
L 73.359402 156.650245 
L 73.535384 156.650245 
L 73.627774 155.545931 
L 74.133722 155.545931 
L 74.283307 153.889461 
L 74.305305 153.889461 
L 74.331702 152.785147 
L 74.991634 152.785147 
L 75.207212 151.128676 
L 75.251207 151.128676 
L 75.3216 150.024363 
L 75.497582 150.024363 
L 75.642767 149.472206 
L 75.721959 148.920049 
L 76.2939 148.920049 
L 76.373092 148.367892 
L 76.593069 148.367892 
L 76.865841 146.159265 
L 77.371789 146.159265 
L 77.538971 145.607108 
L 77.780946 145.607108 
L 77.820542 145.331029 
L 78.04052 145.331029 
L 78.198903 144.226716 
L 78.366086 143.674559 
L 78.762045 143.674559 
L 78.929228 143.122402 
L 79.149205 143.122402 
L 79.289991 142.018088 
L 79.421977 142.018088 
L 79.439576 141.74201 
L 79.747544 141.74201 
L 79.773941 140.637696 
L 80.486668 140.637696 
L 80.570259 140.085539 
L 80.746241 140.085539 
L 81.019013 137.876912 
L 81.172997 136.49652 
L 82.215689 136.49652 
L 82.382872 135.944363 
L 82.778831 135.944363 
L 82.89322 134.840049 
L 82.937215 134.840049 
L 83.016407 134.287892 
L 83.368371 134.287892 
L 83.597147 132.079265 
L 83.883118 132.079265 
L 83.931513 130.974951 
L 84.195485 130.974951 
L 84.301075 130.698873 
L 85.027 130.698873 
L 85.062196 130.146716 
L 85.678133 130.146716 
L 85.79692 129.042402 
L 86.544843 129.042402 
L 86.606437 128.766324 
L 86.87041 128.766324 
L 87.05959 128.214167 
L 88.269466 128.214167 
L 88.383854 127.109853 
L 88.555436 126.833775 
L 88.669824 125.729461 
L 89.021788 125.729461 
L 89.039386 125.453382 
L 90.007287 125.453382 
L 90.16567 124.349069 
L 90.605625 124.349069 
L 90.781607 122.968676 
L 91.265557 122.968676 
L 91.459137 121.312206 
L 94.380436 121.312206 
L 94.675206 120.483971 
L 95.612309 120.483971 
L 95.691501 119.931814 
L 95.999469 119.931814 
L 96.034665 119.379657 
L 97.816482 119.379657 
L 97.966066 117.723186 
L 98.472014 117.723186 
L 98.577603 116.066716 
L 99.457513 116.066716 
L 99.527905 114.962402 
L 99.615896 114.962402 
L 99.68189 113.58201 
L 99.813876 113.58201 
L 99.963461 111.925539 
L 100.16144 111.925539 
L 100.196637 111.373382 
L 100.636591 111.373382 
L 100.720183 111.097304 
L 101.402112 111.097304 
L 101.503302 109.99299 
L 101.538498 109.440833 
L 101.846467 109.440833 
L 102.018049 109.164755 
L 102.348015 109.164755 
L 102.550394 108.060441 
L 102.638385 108.060441 
L 102.708778 106.956127 
L 104.53459 106.956127 
L 104.648978 105.851814 
L 105.176923 105.851814 
L 105.300111 105.299657 
L 105.432097 105.299657 
L 105.59928 104.7475 
L 105.634476 104.195343 
L 105.98644 104.195343 
L 106.118426 102.538873 
L 106.206417 102.538873 
L 106.285609 101.986716 
L 107.671466 101.986716 
L 108.344597 100.054167 
L 108.41499 98.949853 
L 108.722958 98.949853 
L 108.890141 98.397696 
L 109.198109 98.397696 
L 109.321296 97.845539 
L 109.453283 97.845539 
L 109.514876 97.569461 
L 109.761251 96.465147 
L 109.937233 96.465147 
L 110.038422 95.91299 
L 111.336289 95.91299 
L 111.437478 95.360833 
L 112.792539 95.360833 
L 112.87173 94.808676 
L 118.591141 94.808676 
L 118.626337 94.25652 
L 119.242274 94.25652 
L 119.321466 93.704363 
L 119.937402 93.704363 
L 120.122183 93.428284 
L 123.025884 93.428284 
L 123.140272 92.323971 
L 124.636118 92.323971 
L 124.671315 91.771814 
L 125.815197 91.771814 
L 125.894389 91.219657 
L 128.512119 91.219657 
L 128.613308 90.6675 
L 128.683701 89.563186 
L 130.091556 89.563186 
L 130.271937 88.458873 
L 131.239838 88.458873 
L 131.939366 88.182794 
L 132.5773 88.182794 
L 132.612496 87.630637 
L 133.206435 87.630637 
L 133.276828 86.526324 
L 133.593595 85.974167 
L 137.33321 85.974167 
L 137.495993 85.145931 
L 137.891952 85.145931 
L 138.072334 84.041618 
L 138.292311 84.041618 
L 138.415498 83.489461 
L 139.317405 83.489461 
L 139.352602 82.937304 
L 139.66057 82.937304 
L 139.730963 81.83299 
L 141.182813 81.83299 
L 141.297201 80.728676 
L 141.70196 80.728676 
L 141.737156 80.17652 
L 143.145011 80.17652 
L 143.312194 79.624363 
L 143.44418 79.624363 
L 143.611363 79.072206 
L 144.354886 78.796127 
L 149.65634 78.796127 
L 149.739931 78.520049 
L 150.355868 78.520049 
L 150.439459 78.243971 
L 150.659437 78.243971 
L 150.782624 77.691814 
L 150.826619 77.691814 
L 150.905811 77.139657 
L 154.139478 77.139657 
L 154.262665 76.5875 
L 163.228941 76.5875 
L 163.352129 76.035343 
L 165.5739 76.035343 
L 165.829073 75.483186 
L 166.64299 75.483186 
L 166.722181 74.931029 
L 166.986154 74.931029 
L 167.157736 74.654951 
L 169.489496 74.654951 
L 169.559889 73.550637 
L 171.97964 73.550637 
L 172.058831 72.99848 
L 173.290704 72.99848 
L 173.466686 72.446324 
L 176.216403 72.446324 
L 178.059813 72.170245 
L 178.763741 72.170245 
L 178.878129 71.065931 
L 179.582056 71.065931 
L 179.727241 70.513775 
L 186.344159 70.513775 
L 186.423351 69.961618 
L 188.684718 69.133382 
L 189.674616 69.133382 
L 189.890194 68.857304 
L 189.92539 68.305147 
L 190.8053 68.305147 
L 192.780696 68.029069 
L 194.408528 68.029069 
L 194.553713 67.476912 
L 195.257641 67.476912 
L 197.730186 66.372598 
L 202.468498 66.372598 
L 202.591685 65.820441 
L 206.13332 65.820441 
L 206.168517 65.268284 
L 209.204204 65.268284 
L 209.362587 64.163971 
L 212.002315 64.163971 
L 212.081507 63.611814 
L 214.158093 63.611814 
L 216.542648 63.335735 
L 216.665835 62.783578 
L 227.955072 62.783578 
L 227.994667 62.5075 
L 228.324633 62.5075 
L 228.447821 61.955343 
L 228.623803 61.955343 
L 228.74699 61.403186 
L 229.120951 61.403186 
L 229.222141 60.851029 
L 231.619894 60.851029 
L 231.875068 60.298873 
L 241.008526 60.298873 
L 241.048122 60.022794 
L 243.665853 60.022794 
L 243.767042 59.470637 
L 250.102389 59.470637 
L 253.943194 57.538088 
L 254.735112 57.538088 
L 254.836301 56.985931 
L 259.966173 56.985931 
L 260.001369 56.433775 
L 267.480599 56.433775 
L 267.55979 55.881618 
L 274.379088 55.881618 
L 278.255088 54.777304 
L 285.426349 54.777304 
L 285.549537 54.225147 
L 288.871194 54.225147 
L 288.906391 53.67299 
L 299.412508 53.67299 
L 299.4917 53.120833 
L 305.527878 53.120833 
L 305.642266 52.01652 
L 310.235393 52.01652 
L 310.35858 51.464363 
L 317.001896 51.464363 
L 317.103085 50.912206 
L 326.210147 50.912206 
L 326.333334 50.360049 
L 328.907069 50.360049 
L 329.030256 49.807892 
L 332.373912 49.807892 
L 332.497099 49.255735 
L 339.030426 49.255735 
L 339.114017 48.979657 
L 359.576308 48.979657 
L 359.743491 48.4275 
L 400.90125 48.4275 
L 400.90125 48.4275 
" style="fill:none;stroke:#2ca02c;stroke-linecap:square;stroke-width:1.5;"/>
   </g>
   <g id="line2d_16">
    <path clip-path="url(#p6a18c7d7b0)" d="M 43.78125 301.8675 
L 400.90125 48.4275 
" style="fill:none;stroke:#000000;stroke-dasharray:5.6,2.4;stroke-dashoffset:0;stroke-width:1.5;"/>
   </g>
   <g id="patch_3">
    <path d="M 43.78125 301.8675 
L 43.78125 35.7555 
" style="fill:none;stroke:#000000;stroke-linecap:square;stroke-linejoin:miter;stroke-width:0.8;"/>
   </g>
   <g id="patch_4">
    <path d="M 400.90125 301.8675 
L 400.90125 35.7555 
" style="fill:none;stroke:#000000;stroke-linecap:square;stroke-linejoin:miter;stroke-width:0.8;"/>
   </g>
   <g id="patch_5">
    <path d="M 43.78125 301.8675 
L 400.90125 301.8675 
" style="fill:none;stroke:#000000;stroke-linecap:square;stroke-linejoin:miter;stroke-width:0.8;"/>
   </g>
   <g id="patch_6">
    <path d="M 43.78125 35.7555 
L 400.90125 35.7555 
" style="fill:none;stroke:#000000;stroke-linecap:square;stroke-linejoin:miter;stroke-width:0.8;"/>
   </g>
   <g id="text_15">
    <!-- ROC Curve GradientBoosting + SMOTE -->
    <defs>
     <path d="M 39.40625 66.21875 
Q 28.65625 66.21875 22.328125 58.203125 
Q 16.015625 50.203125 16.015625 36.375 
Q 16.015625 22.609375 22.328125 14.59375 
Q 28.65625 6.59375 39.40625 6.59375 
Q 50.140625 6.59375 56.421875 14.59375 
Q 62.703125 22.609375 62.703125 36.375 
Q 62.703125 50.203125 56.421875 58.203125 
Q 50.140625 66.21875 39.40625 66.21875 
M 39.40625 74.21875 
Q 54.734375 74.21875 63.90625 63.9375 
Q 73.09375 53.65625 73.09375 36.375 
Q 73.09375 19.140625 63.90625 8.859375 
Q 54.734375 -1.421875 39.40625 -1.421875 
Q 24.03125 -1.421875 14.8125 8.828125 
Q 5.609375 19.09375 5.609375 36.375 
Q 5.609375 53.65625 14.8125 63.9375 
Q 24.03125 74.21875 39.40625 74.21875 
" id="DejaVuSans-4f"/>
     <path d="M 64.40625 67.28125 
L 64.40625 56.890625 
Q 59.421875 61.53125 53.78125 63.8125 
Q 48.140625 66.109375 41.796875 66.109375 
Q 29.296875 66.109375 22.65625 58.46875 
Q 16.015625 50.828125 16.015625 36.375 
Q 16.015625 21.96875 22.65625 14.328125 
Q 29.296875 6.6875 41.796875 6.6875 
Q 48.140625 6.6875 53.78125 8.984375 
Q 59.421875 11.28125 64.40625 15.921875 
L 64.40625 5.609375 
Q 59.234375 2.09375 53.4375 0.328125 
Q 47.65625 -1.421875 41.21875 -1.421875 
Q 24.65625 -1.421875 15.125 8.703125 
Q 5.609375 18.84375 5.609375 36.375 
Q 5.609375 53.953125 15.125 64.078125 
Q 24.65625 74.21875 41.21875 74.21875 
Q 47.75 74.21875 53.53125 72.484375 
Q 59.328125 70.75 64.40625 67.28125 
" id="DejaVuSans-43"/>
     <path d="M 59.515625 10.40625 
L 59.515625 29.984375 
L 43.40625 29.984375 
L 43.40625 38.09375 
L 69.28125 38.09375 
L 69.28125 6.78125 
Q 63.578125 2.734375 56.6875 0.65625 
Q 49.8125 -1.421875 42 -1.421875 
Q 24.90625 -1.421875 15.25 8.5625 
Q 5.609375 18.5625 5.609375 36.375 
Q 5.609375 54.25 15.25 64.234375 
Q 24.90625 74.21875 42 74.21875 
Q 49.125 74.21875 55.546875 72.453125 
Q 61.96875 70.703125 67.390625 67.28125 
L 67.390625 56.78125 
Q 61.921875 61.421875 55.765625 63.765625 
Q 49.609375 66.109375 42.828125 66.109375 
Q 29.4375 66.109375 22.71875 58.640625 
Q 16.015625 51.171875 16.015625 36.375 
Q 16.015625 21.625 22.71875 14.15625 
Q 29.4375 6.6875 42.828125 6.6875 
Q 48.046875 6.6875 52.140625 7.59375 
Q 56.25 8.5 59.515625 10.40625 
" id="DejaVuSans-47"/>
     <path d="M 45.40625 46.390625 
L 45.40625 75.984375 
L 54.390625 75.984375 
L 54.390625 0 
L 45.40625 0 
L 45.40625 8.203125 
Q 42.578125 3.328125 38.25 0.953125 
Q 33.9375 -1.421875 27.875 -1.421875 
Q 17.96875 -1.421875 11.734375 6.484375 
Q 5.515625 14.40625 5.515625 27.296875 
Q 5.515625 40.1875 11.734375 48.09375 
Q 17.96875 56 27.875 56 
Q 33.9375 56 38.25 53.625 
Q 42.578125 51.265625 45.40625 46.390625 
M 14.796875 27.296875 
Q 14.796875 17.390625 18.875 11.75 
Q 22.953125 6.109375 30.078125 6.109375 
Q 37.203125 6.109375 41.296875 11.75 
Q 45.40625 17.390625 45.40625 27.296875 
Q 45.40625 37.203125 41.296875 42.84375 
Q 37.203125 48.484375 30.078125 48.484375 
Q 22.953125 48.484375 18.875 42.84375 
Q 14.796875 37.203125 14.796875 27.296875 
" id="DejaVuSans-64"/>
     <path d="M 54.890625 33.015625 
L 54.890625 0 
L 45.90625 0 
L 45.90625 32.71875 
Q 45.90625 40.484375 42.875 44.328125 
Q 39.84375 48.1875 33.796875 48.1875 
Q 26.515625 48.1875 22.3125 43.546875 
Q 18.109375 38.921875 18.109375 30.90625 
L 18.109375 0 
L 9.078125 0 
L 9.078125 54.6875 
L 18.109375 54.6875 
L 18.109375 46.1875 
Q 21.34375 51.125 25.703125 53.5625 
Q 30.078125 56 35.796875 56 
Q 45.21875 56 50.046875 50.171875 
Q 54.890625 44.34375 54.890625 33.015625 
" id="DejaVuSans-6e"/>
     <path d="M 19.671875 34.8125 
L 19.671875 8.109375 
L 35.5 8.109375 
Q 43.453125 8.109375 47.28125 11.40625 
Q 51.125 14.703125 51.125 21.484375 
Q 51.125 28.328125 47.28125 31.5625 
Q 43.453125 34.8125 35.5 34.8125 
z
M 19.671875 64.796875 
L 19.671875 42.828125 
L 34.28125 42.828125 
Q 41.5 42.828125 45.03125 45.53125 
Q 48.578125 48.25 48.578125 53.8125 
Q 48.578125 59.328125 45.03125 62.0625 
Q 41.5 64.796875 34.28125 64.796875 
z
M 9.8125 72.90625 
L 35.015625 72.90625 
Q 46.296875 72.90625 52.390625 68.21875 
Q 58.5 63.53125 58.5 54.890625 
Q 58.5 48.1875 55.375 44.234375 
Q 52.25 40.28125 46.1875 39.3125 
Q 53.46875 37.75 57.5 32.78125 
Q 61.53125 27.828125 61.53125 20.40625 
Q 61.53125 10.640625 54.890625 5.3125 
Q 48.25 0 35.984375 0 
L 9.8125 0 
z
" id="DejaVuSans-42"/>
     <path d="M 45.40625 27.984375 
Q 45.40625 37.75 41.375 43.109375 
Q 37.359375 48.484375 30.078125 48.484375 
Q 22.859375 48.484375 18.828125 43.109375 
Q 14.796875 37.75 14.796875 27.984375 
Q 14.796875 18.265625 18.828125 12.890625 
Q 22.859375 7.515625 30.078125 7.515625 
Q 37.359375 7.515625 41.375 12.890625 
Q 45.40625 18.265625 45.40625 27.984375 
M 54.390625 6.78125 
Q 54.390625 -7.171875 48.1875 -13.984375 
Q 42 -20.796875 29.203125 -20.796875 
Q 24.46875 -20.796875 20.265625 -20.09375 
Q 16.0625 -19.390625 12.109375 -17.921875 
L 12.109375 -9.1875 
Q 16.0625 -11.328125 19.921875 -12.34375 
Q 23.78125 -13.375 27.78125 -13.375 
Q 36.625 -13.375 41.015625 -8.765625 
Q 45.40625 -4.15625 45.40625 5.171875 
L 45.40625 9.625 
Q 42.625 4.78125 38.28125 2.390625 
Q 33.9375 0 27.875 0 
Q 17.828125 0 11.671875 7.65625 
Q 5.515625 15.328125 5.515625 27.984375 
Q 5.515625 40.671875 11.671875 48.328125 
Q 17.828125 56 27.875 56 
Q 33.9375 56 38.28125 53.609375 
Q 42.625 51.21875 45.40625 46.390625 
L 45.40625 54.6875 
L 54.390625 54.6875 
z
" id="DejaVuSans-67"/>
     <path d="M 46 62.703125 
L 46 35.5 
L 73.1875 35.5 
L 73.1875 27.203125 
L 46 27.203125 
L 46 0 
L 37.796875 0 
L 37.796875 27.203125 
L 10.59375 27.203125 
L 10.59375 35.5 
L 37.796875 35.5 
L 37.796875 62.703125 
z
" id="DejaVuSans-2b"/>
     <path d="M 53.515625 70.515625 
L 53.515625 60.890625 
Q 47.90625 63.578125 42.921875 64.890625 
Q 37.9375 66.21875 33.296875 66.21875 
Q 25.25 66.21875 20.875 63.09375 
Q 16.5 59.96875 16.5 54.203125 
Q 16.5 49.359375 19.40625 46.890625 
Q 22.3125 44.4375 30.421875 42.921875 
L 36.375 41.703125 
Q 47.40625 39.59375 52.65625 34.296875 
Q 57.90625 29 57.90625 20.125 
Q 57.90625 9.515625 50.796875 4.046875 
Q 43.703125 -1.421875 29.984375 -1.421875 
Q 24.8125 -1.421875 18.96875 -0.25 
Q 13.140625 0.921875 6.890625 3.21875 
L 6.890625 13.375 
Q 12.890625 10.015625 18.65625 8.296875 
Q 24.421875 6.59375 29.984375 6.59375 
Q 38.421875 6.59375 43.015625 9.90625 
Q 47.609375 13.234375 47.609375 19.390625 
Q 47.609375 24.75 44.3125 27.78125 
Q 41.015625 30.8125 33.5 32.328125 
L 27.484375 33.5 
Q 16.453125 35.6875 11.515625 40.375 
Q 6.59375 45.0625 6.59375 53.421875 
Q 6.59375 63.09375 13.40625 68.65625 
Q 20.21875 74.21875 32.171875 74.21875 
Q 37.3125 74.21875 42.625 73.28125 
Q 47.953125 72.359375 53.515625 70.515625 
" id="DejaVuSans-53"/>
     <path d="M 9.8125 72.90625 
L 24.515625 72.90625 
L 43.109375 23.296875 
L 61.8125 72.90625 
L 76.515625 72.90625 
L 76.515625 0 
L 66.890625 0 
L 66.890625 64.015625 
L 48.09375 14.015625 
L 38.1875 14.015625 
L 19.390625 64.015625 
L 19.390625 0 
L 9.8125 0 
z
" id="DejaVuSans-4d"/>
     <path d="M 9.8125 72.90625 
L 55.90625 72.90625 
L 55.90625 64.59375 
L 19.671875 64.59375 
L 19.671875 43.015625 
L 54.390625 43.015625 
L 54.390625 34.71875 
L 19.671875 34.71875 
L 19.671875 8.296875 
L 56.78125 8.296875 
L 56.78125 0 
L 9.8125 0 
z
" id="DejaVuSans-45"/>
    </defs>
    <g transform="translate(105.406875 16.318125)scale(0.12 -0.12)">
     <use xlink:href="#DejaVuSans-52"/>
     <use x="69.482422" xlink:href="#DejaVuSans-4f"/>
     <use x="148.193359" xlink:href="#DejaVuSans-43"/>
     <use x="218.017578" xlink:href="#DejaVuSans-20"/>
     <use x="249.804688" xlink:href="#DejaVuSans-43"/>
     <use x="319.628906" xlink:href="#DejaVuSans-75"/>
     <use x="383.007812" xlink:href="#DejaVuSans-72"/>
     <use x="424.121094" xlink:href="#DejaVuSans-76"/>
     <use x="483.300781" xlink:href="#DejaVuSans-65"/>
     <use x="544.824219" xlink:href="#DejaVuSans-20"/>
     <use x="576.611328" xlink:href="#DejaVuSans-47"/>
     <use x="654.101562" xlink:href="#DejaVuSans-72"/>
     <use x="695.214844" xlink:href="#DejaVuSans-61"/>
     <use x="756.494141" xlink:href="#DejaVuSans-64"/>
     <use x="819.970703" xlink:href="#DejaVuSans-69"/>
     <use x="847.753906" xlink:href="#DejaVuSans-65"/>
     <use x="909.277344" xlink:href="#DejaVuSans-6e"/>
     <use x="972.65625" xlink:href="#DejaVuSans-74"/>
     <use x="1011.865234" xlink:href="#DejaVuSans-42"/>
     <use x="1080.46875" xlink:href="#DejaVuSans-6f"/>
     <use x="1141.650391" xlink:href="#DejaVuSans-6f"/>
     <use x="1202.832031" xlink:href="#DejaVuSans-73"/>
     <use x="1254.931641" xlink:href="#DejaVuSans-74"/>
     <use x="1294.140625" xlink:href="#DejaVuSans-69"/>
     <use x="1321.923828" xlink:href="#DejaVuSans-6e"/>
     <use x="1385.302734" xlink:href="#DejaVuSans-67"/>
     <use x="1448.779297" xlink:href="#DejaVuSans-20"/>
     <use x="1480.566406" xlink:href="#DejaVuSans-2b"/>
     <use x="1564.355469" xlink:href="#DejaVuSans-20"/>
     <use x="1596.142578" xlink:href="#DejaVuSans-53"/>
     <use x="1659.619141" xlink:href="#DejaVuSans-4d"/>
     <use x="1745.898438" xlink:href="#DejaVuSans-4f"/>
     <use x="1824.609375" xlink:href="#DejaVuSans-54"/>
     <use x="1885.693359" xlink:href="#DejaVuSans-45"/>
    </g>
    <!-- Train: 1   Test: [2, 4, 6, 8, 10, 12] -->
    <defs>
     <path d="M 11.71875 12.40625 
L 22.015625 12.40625 
L 22.015625 0 
L 11.71875 0 
z
M 11.71875 51.703125 
L 22.015625 51.703125 
L 22.015625 39.3125 
L 11.71875 39.3125 
z
" id="DejaVuSans-3a"/>
     <path d="M 8.59375 75.984375 
L 29.296875 75.984375 
L 29.296875 69 
L 17.578125 69 
L 17.578125 -6.203125 
L 29.296875 -6.203125 
L 29.296875 -13.1875 
L 8.59375 -13.1875 
z
" id="DejaVuSans-5b"/>
     <path d="M 11.71875 12.40625 
L 22.015625 12.40625 
L 22.015625 4 
L 14.015625 -11.625 
L 7.71875 -11.625 
L 11.71875 4 
z
" id="DejaVuSans-2c"/>
     <path d="M 30.421875 75.984375 
L 30.421875 -13.1875 
L 9.71875 -13.1875 
L 9.71875 -6.203125 
L 21.390625 -6.203125 
L 21.390625 69 
L 9.71875 69 
L 9.71875 75.984375 
z
" id="DejaVuSans-5d"/>
    </defs>
    <g transform="translate(122.573438 29.7555)scale(0.12 -0.12)">
     <use xlink:href="#DejaVuSans-54"/>
     <use x="60.865234" xlink:href="#DejaVuSans-72"/>
     <use x="101.978516" xlink:href="#DejaVuSans-61"/>
     <use x="163.257812" xlink:href="#DejaVuSans-69"/>
     <use x="191.041016" xlink:href="#DejaVuSans-6e"/>
     <use x="254.419922" xlink:href="#DejaVuSans-3a"/>
     <use x="288.111328" xlink:href="#DejaVuSans-20"/>
     <use x="319.898438" xlink:href="#DejaVuSans-31"/>
     <use x="383.521484" xlink:href="#DejaVuSans-20"/>
     <use x="415.308594" xlink:href="#DejaVuSans-20"/>
     <use x="447.095703" xlink:href="#DejaVuSans-20"/>
     <use x="478.882812" xlink:href="#DejaVuSans-54"/>
     <use x="539.701172" xlink:href="#DejaVuSans-65"/>
     <use x="601.224609" xlink:href="#DejaVuSans-73"/>
     <use x="653.324219" xlink:href="#DejaVuSans-74"/>
     <use x="692.533203" xlink:href="#DejaVuSans-3a"/>
     <use x="726.224609" xlink:href="#DejaVuSans-20"/>
     <use x="758.011719" xlink:href="#DejaVuSans-5b"/>
     <use x="797.025391" xlink:href="#DejaVuSans-32"/>
     <use x="860.648438" xlink:href="#DejaVuSans-2c"/>
     <use x="892.435547" xlink:href="#DejaVuSans-20"/>
     <use x="924.222656" xlink:href="#DejaVuSans-34"/>
     <use x="987.845703" xlink:href="#DejaVuSans-2c"/>
     <use x="1019.632812" xlink:href="#DejaVuSans-20"/>
     <use x="1051.419922" xlink:href="#DejaVuSans-36"/>
     <use x="1115.042969" xlink:href="#DejaVuSans-2c"/>
     <use x="1146.830078" xlink:href="#DejaVuSans-20"/>
     <use x="1178.617188" xlink:href="#DejaVuSans-38"/>
     <use x="1242.240234" xlink:href="#DejaVuSans-2c"/>
     <use x="1274.027344" xlink:href="#DejaVuSans-20"/>
     <use x="1305.814453" xlink:href="#DejaVuSans-31"/>
     <use x="1369.4375" xlink:href="#DejaVuSans-30"/>
     <use x="1433.060547" xlink:href="#DejaVuSans-2c"/>
     <use x="1464.847656" xlink:href="#DejaVuSans-20"/>
     <use x="1496.634766" xlink:href="#DejaVuSans-31"/>
     <use x="1560.257812" xlink:href="#DejaVuSans-32"/>
     <use x="1623.880859" xlink:href="#DejaVuSans-5d"/>
    </g>
   </g>
   <g id="legend_1">
    <g id="patch_7">
     <path d="M 217.087188 296.8675 
L 393.90125 296.8675 
Q 395.90125 296.8675 395.90125 294.8675 
L 395.90125 251.833125 
Q 395.90125 249.833125 393.90125 249.833125 
L 217.087188 249.833125 
Q 215.087188 249.833125 215.087188 251.833125 
L 215.087188 294.8675 
Q 215.087188 296.8675 217.087188 296.8675 
z
" style="fill:#ffffff;opacity:0.8;stroke:#cccccc;stroke-linejoin:miter;"/>
    </g>
    <g id="line2d_17">
     <path d="M 219.087188 257.931562 
L 239.087188 257.931562 
" style="fill:none;stroke:#1f77b4;stroke-linecap:square;stroke-width:1.5;"/>
    </g>
    <g id="line2d_18"/>
    <g id="text_16">
     <!-- ROC curve - 0 (AUC = 0.862) -->
     <defs>
      <path d="M 48.78125 52.59375 
L 48.78125 44.1875 
Q 44.96875 46.296875 41.140625 47.34375 
Q 37.3125 48.390625 33.40625 48.390625 
Q 24.65625 48.390625 19.8125 42.84375 
Q 14.984375 37.3125 14.984375 27.296875 
Q 14.984375 17.28125 19.8125 11.734375 
Q 24.65625 6.203125 33.40625 6.203125 
Q 37.3125 6.203125 41.140625 7.25 
Q 44.96875 8.296875 48.78125 10.40625 
L 48.78125 2.09375 
Q 45.015625 0.34375 40.984375 -0.53125 
Q 36.96875 -1.421875 32.421875 -1.421875 
Q 20.0625 -1.421875 12.78125 6.34375 
Q 5.515625 14.109375 5.515625 27.296875 
Q 5.515625 40.671875 12.859375 48.328125 
Q 20.21875 56 33.015625 56 
Q 37.15625 56 41.109375 55.140625 
Q 45.0625 54.296875 48.78125 52.59375 
" id="DejaVuSans-63"/>
      <path d="M 4.890625 31.390625 
L 31.203125 31.390625 
L 31.203125 23.390625 
L 4.890625 23.390625 
z
" id="DejaVuSans-2d"/>
      <path d="M 31 75.875 
Q 24.46875 64.65625 21.28125 53.65625 
Q 18.109375 42.671875 18.109375 31.390625 
Q 18.109375 20.125 21.3125 9.0625 
Q 24.515625 -2 31 -13.1875 
L 23.1875 -13.1875 
Q 15.875 -1.703125 12.234375 9.375 
Q 8.59375 20.453125 8.59375 31.390625 
Q 8.59375 42.28125 12.203125 53.3125 
Q 15.828125 64.359375 23.1875 75.875 
z
" id="DejaVuSans-28"/>
      <path d="M 34.1875 63.1875 
L 20.796875 26.90625 
L 47.609375 26.90625 
z
M 28.609375 72.90625 
L 39.796875 72.90625 
L 67.578125 0 
L 57.328125 0 
L 50.6875 18.703125 
L 17.828125 18.703125 
L 11.1875 0 
L 0.78125 0 
z
" id="DejaVuSans-41"/>
      <path d="M 8.6875 72.90625 
L 18.609375 72.90625 
L 18.609375 28.609375 
Q 18.609375 16.890625 22.84375 11.734375 
Q 27.09375 6.59375 36.625 6.59375 
Q 46.09375 6.59375 50.34375 11.734375 
Q 54.59375 16.890625 54.59375 28.609375 
L 54.59375 72.90625 
L 64.5 72.90625 
L 64.5 27.390625 
Q 64.5 13.140625 57.4375 5.859375 
Q 50.390625 -1.421875 36.625 -1.421875 
Q 22.796875 -1.421875 15.734375 5.859375 
Q 8.6875 13.140625 8.6875 27.390625 
z
" id="DejaVuSans-55"/>
      <path d="M 10.59375 45.40625 
L 73.1875 45.40625 
L 73.1875 37.203125 
L 10.59375 37.203125 
z
M 10.59375 25.484375 
L 73.1875 25.484375 
L 73.1875 17.1875 
L 10.59375 17.1875 
z
" id="DejaVuSans-3d"/>
      <path d="M 8.015625 75.875 
L 15.828125 75.875 
Q 23.140625 64.359375 26.78125 53.3125 
Q 30.421875 42.28125 30.421875 31.390625 
Q 30.421875 20.453125 26.78125 9.375 
Q 23.140625 -1.703125 15.828125 -13.1875 
L 8.015625 -13.1875 
Q 14.5 -2 17.703125 9.0625 
Q 20.90625 20.125 20.90625 31.390625 
Q 20.90625 42.671875 17.703125 53.65625 
Q 14.5 64.65625 8.015625 75.875 
" id="DejaVuSans-29"/>
     </defs>
     <g transform="translate(247.087188 261.431562)scale(0.1 -0.1)">
      <use xlink:href="#DejaVuSans-52"/>
      <use x="69.482422" xlink:href="#DejaVuSans-4f"/>
      <use x="148.193359" xlink:href="#DejaVuSans-43"/>
      <use x="218.017578" xlink:href="#DejaVuSans-20"/>
      <use x="249.804688" xlink:href="#DejaVuSans-63"/>
      <use x="304.785156" xlink:href="#DejaVuSans-75"/>
      <use x="368.164062" xlink:href="#DejaVuSans-72"/>
      <use x="409.277344" xlink:href="#DejaVuSans-76"/>
      <use x="468.457031" xlink:href="#DejaVuSans-65"/>
      <use x="529.980469" xlink:href="#DejaVuSans-20"/>
      <use x="561.767578" xlink:href="#DejaVuSans-2d"/>
      <use x="597.851562" xlink:href="#DejaVuSans-20"/>
      <use x="629.638672" xlink:href="#DejaVuSans-30"/>
      <use x="693.261719" xlink:href="#DejaVuSans-20"/>
      <use x="725.048828" xlink:href="#DejaVuSans-28"/>
      <use x="764.0625" xlink:href="#DejaVuSans-41"/>
      <use x="832.470703" xlink:href="#DejaVuSans-55"/>
      <use x="905.664062" xlink:href="#DejaVuSans-43"/>
      <use x="975.488281" xlink:href="#DejaVuSans-20"/>
      <use x="1007.275391" xlink:href="#DejaVuSans-3d"/>
      <use x="1091.064453" xlink:href="#DejaVuSans-20"/>
      <use x="1122.851562" xlink:href="#DejaVuSans-30"/>
      <use x="1186.474609" xlink:href="#DejaVuSans-2e"/>
      <use x="1218.261719" xlink:href="#DejaVuSans-38"/>
      <use x="1281.884766" xlink:href="#DejaVuSans-36"/>
      <use x="1345.507812" xlink:href="#DejaVuSans-32"/>
      <use x="1409.130859" xlink:href="#DejaVuSans-29"/>
     </g>
    </g>
    <g id="line2d_19">
     <path d="M 219.087188 272.609687 
L 239.087188 272.609687 
" style="fill:none;stroke:#ff7f0e;stroke-linecap:square;stroke-width:1.5;"/>
    </g>
    <g id="line2d_20"/>
    <g id="text_17">
     <!-- ROC curve - 1 (AUC = 0.868) -->
     <g transform="translate(247.087188 276.109687)scale(0.1 -0.1)">
      <use xlink:href="#DejaVuSans-52"/>
      <use x="69.482422" xlink:href="#DejaVuSans-4f"/>
      <use x="148.193359" xlink:href="#DejaVuSans-43"/>
      <use x="218.017578" xlink:href="#DejaVuSans-20"/>
      <use x="249.804688" xlink:href="#DejaVuSans-63"/>
      <use x="304.785156" xlink:href="#DejaVuSans-75"/>
      <use x="368.164062" xlink:href="#DejaVuSans-72"/>
      <use x="409.277344" xlink:href="#DejaVuSans-76"/>
      <use x="468.457031" xlink:href="#DejaVuSans-65"/>
      <use x="529.980469" xlink:href="#DejaVuSans-20"/>
      <use x="561.767578" xlink:href="#DejaVuSans-2d"/>
      <use x="597.851562" xlink:href="#DejaVuSans-20"/>
      <use x="629.638672" xlink:href="#DejaVuSans-31"/>
      <use x="693.261719" xlink:href="#DejaVuSans-20"/>
      <use x="725.048828" xlink:href="#DejaVuSans-28"/>
      <use x="764.0625" xlink:href="#DejaVuSans-41"/>
      <use x="832.470703" xlink:href="#DejaVuSans-55"/>
      <use x="905.664062" xlink:href="#DejaVuSans-43"/>
      <use x="975.488281" xlink:href="#DejaVuSans-20"/>
      <use x="1007.275391" xlink:href="#DejaVuSans-3d"/>
      <use x="1091.064453" xlink:href="#DejaVuSans-20"/>
      <use x="1122.851562" xlink:href="#DejaVuSans-30"/>
      <use x="1186.474609" xlink:href="#DejaVuSans-2e"/>
      <use x="1218.261719" xlink:href="#DejaVuSans-38"/>
      <use x="1281.884766" xlink:href="#DejaVuSans-36"/>
      <use x="1345.507812" xlink:href="#DejaVuSans-38"/>
      <use x="1409.130859" xlink:href="#DejaVuSans-29"/>
     </g>
    </g>
    <g id="line2d_21">
     <path d="M 219.087188 287.287812 
L 239.087188 287.287812 
" style="fill:none;stroke:#2ca02c;stroke-linecap:square;stroke-width:1.5;"/>
    </g>
    <g id="line2d_22"/>
    <g id="text_18">
     <!-- ROC curve - 2 (AUC = 0.870) -->
     <defs>
      <path d="M 8.203125 72.90625 
L 55.078125 72.90625 
L 55.078125 68.703125 
L 28.609375 0 
L 18.3125 0 
L 43.21875 64.59375 
L 8.203125 64.59375 
z
" id="DejaVuSans-37"/>
     </defs>
     <g transform="translate(247.087188 290.787812)scale(0.1 -0.1)">
      <use xlink:href="#DejaVuSans-52"/>
      <use x="69.482422" xlink:href="#DejaVuSans-4f"/>
      <use x="148.193359" xlink:href="#DejaVuSans-43"/>
      <use x="218.017578" xlink:href="#DejaVuSans-20"/>
      <use x="249.804688" xlink:href="#DejaVuSans-63"/>
      <use x="304.785156" xlink:href="#DejaVuSans-75"/>
      <use x="368.164062" xlink:href="#DejaVuSans-72"/>
      <use x="409.277344" xlink:href="#DejaVuSans-76"/>
      <use x="468.457031" xlink:href="#DejaVuSans-65"/>
      <use x="529.980469" xlink:href="#DejaVuSans-20"/>
      <use x="561.767578" xlink:href="#DejaVuSans-2d"/>
      <use x="597.851562" xlink:href="#DejaVuSans-20"/>
      <use x="629.638672" xlink:href="#DejaVuSans-32"/>
      <use x="693.261719" xlink:href="#DejaVuSans-20"/>
      <use x="725.048828" xlink:href="#DejaVuSans-28"/>
      <use x="764.0625" xlink:href="#DejaVuSans-41"/>
      <use x="832.470703" xlink:href="#DejaVuSans-55"/>
      <use x="905.664062" xlink:href="#DejaVuSans-43"/>
      <use x="975.488281" xlink:href="#DejaVuSans-20"/>
      <use x="1007.275391" xlink:href="#DejaVuSans-3d"/>
      <use x="1091.064453" xlink:href="#DejaVuSans-20"/>
      <use x="1122.851562" xlink:href="#DejaVuSans-30"/>
      <use x="1186.474609" xlink:href="#DejaVuSans-2e"/>
      <use x="1218.261719" xlink:href="#DejaVuSans-38"/>
      <use x="1281.884766" xlink:href="#DejaVuSans-37"/>
      <use x="1345.507812" xlink:href="#DejaVuSans-30"/>
      <use x="1409.130859" xlink:href="#DejaVuSans-29"/>
     </g>
    </g>
   </g>
  </g>
 </g>
 <defs>
  <clipPath id="p6a18c7d7b0">
   <rect height="266.112" width="357.12" x="43.78125" y="35.7555"/>
  </clipPath>
 </defs>
</svg>
