<?xml version="1.0" encoding="utf-8" standalone="no"?>
<!DOCTYPE svg PUBLIC "-//W3C//DTD SVG 1.1//EN"
  "http://www.w3.org/Graphics/SVG/1.1/DTD/svg11.dtd">
<!-- Created with matplotlib (http://matplotlib.org/) -->
<svg height="339pt" version="1.1" viewBox="0 0 416 339" width="416pt" xmlns="http://www.w3.org/2000/svg" xmlns:xlink="http://www.w3.org/1999/xlink">
 <defs>
  <style type="text/css">
*{stroke-linecap:butt;stroke-linejoin:round;}
  </style>
 </defs>
 <g id="figure_1">
  <g id="patch_1">
   <path d="M 0 339.42375 
L 416.052813 339.42375 
L 416.052813 0 
L 0 0 
z
" style="fill:#ffffff;"/>
  </g>
  <g id="axes_1">
   <g id="patch_2">
    <path d="M 43.78125 301.8675 
L 400.90125 301.8675 
L 400.90125 35.7555 
L 43.78125 35.7555 
z
" style="fill:#ffffff;"/>
   </g>
   <g id="matplotlib.axis_1">
    <g id="xtick_1">
     <g id="line2d_1">
      <defs>
       <path d="M 0 0 
L 0 3.5 
" id="m89e9aaeae5" style="stroke:#000000;stroke-width:0.8;"/>
      </defs>
      <g>
       <use style="stroke:#000000;stroke-width:0.8;" x="43.78125" xlink:href="#m89e9aaeae5" y="301.8675"/>
      </g>
     </g>
     <g id="text_1">
      <!-- 0.0 -->
      <defs>
       <path d="M 31.78125 66.40625 
Q 24.171875 66.40625 20.328125 58.90625 
Q 16.5 51.421875 16.5 36.375 
Q 16.5 21.390625 20.328125 13.890625 
Q 24.171875 6.390625 31.78125 6.390625 
Q 39.453125 6.390625 43.28125 13.890625 
Q 47.125 21.390625 47.125 36.375 
Q 47.125 51.421875 43.28125 58.90625 
Q 39.453125 66.40625 31.78125 66.40625 
M 31.78125 74.21875 
Q 44.046875 74.21875 50.515625 64.515625 
Q 56.984375 54.828125 56.984375 36.375 
Q 56.984375 17.96875 50.515625 8.265625 
Q 44.046875 -1.421875 31.78125 -1.421875 
Q 19.53125 -1.421875 13.0625 8.265625 
Q 6.59375 17.96875 6.59375 36.375 
Q 6.59375 54.828125 13.0625 64.515625 
Q 19.53125 74.21875 31.78125 74.21875 
" id="DejaVuSans-30"/>
       <path d="M 10.6875 12.40625 
L 21 12.40625 
L 21 0 
L 10.6875 0 
z
" id="DejaVuSans-2e"/>
      </defs>
      <g transform="translate(35.829688 316.465937)scale(0.1 -0.1)">
       <use xlink:href="#DejaVuSans-30"/>
       <use x="63.623047" xlink:href="#DejaVuSans-2e"/>
       <use x="95.410156" xlink:href="#DejaVuSans-30"/>
      </g>
     </g>
    </g>
    <g id="xtick_2">
     <g id="line2d_2">
      <g>
       <use style="stroke:#000000;stroke-width:0.8;" x="115.20525" xlink:href="#m89e9aaeae5" y="301.8675"/>
      </g>
     </g>
     <g id="text_2">
      <!-- 0.2 -->
      <defs>
       <path d="M 19.1875 8.296875 
L 53.609375 8.296875 
L 53.609375 0 
L 7.328125 0 
L 7.328125 8.296875 
Q 12.9375 14.109375 22.625 23.890625 
Q 32.328125 33.6875 34.8125 36.53125 
Q 39.546875 41.84375 41.421875 45.53125 
Q 43.3125 49.21875 43.3125 52.78125 
Q 43.3125 58.59375 39.234375 62.25 
Q 35.15625 65.921875 28.609375 65.921875 
Q 23.96875 65.921875 18.8125 64.3125 
Q 13.671875 62.703125 7.8125 59.421875 
L 7.8125 69.390625 
Q 13.765625 71.78125 18.9375 73 
Q 24.125 74.21875 28.421875 74.21875 
Q 39.75 74.21875 46.484375 68.546875 
Q 53.21875 62.890625 53.21875 53.421875 
Q 53.21875 48.921875 51.53125 44.890625 
Q 49.859375 40.875 45.40625 35.40625 
Q 44.1875 33.984375 37.640625 27.21875 
Q 31.109375 20.453125 19.1875 8.296875 
" id="DejaVuSans-32"/>
      </defs>
      <g transform="translate(107.253688 316.465937)scale(0.1 -0.1)">
       <use xlink:href="#DejaVuSans-30"/>
       <use x="63.623047" xlink:href="#DejaVuSans-2e"/>
       <use x="95.410156" xlink:href="#DejaVuSans-32"/>
      </g>
     </g>
    </g>
    <g id="xtick_3">
     <g id="line2d_3">
      <g>
       <use style="stroke:#000000;stroke-width:0.8;" x="186.62925" xlink:href="#m89e9aaeae5" y="301.8675"/>
      </g>
     </g>
     <g id="text_3">
      <!-- 0.4 -->
      <defs>
       <path d="M 37.796875 64.3125 
L 12.890625 25.390625 
L 37.796875 25.390625 
z
M 35.203125 72.90625 
L 47.609375 72.90625 
L 47.609375 25.390625 
L 58.015625 25.390625 
L 58.015625 17.1875 
L 47.609375 17.1875 
L 47.609375 0 
L 37.796875 0 
L 37.796875 17.1875 
L 4.890625 17.1875 
L 4.890625 26.703125 
z
" id="DejaVuSans-34"/>
      </defs>
      <g transform="translate(178.677688 316.465937)scale(0.1 -0.1)">
       <use xlink:href="#DejaVuSans-30"/>
       <use x="63.623047" xlink:href="#DejaVuSans-2e"/>
       <use x="95.410156" xlink:href="#DejaVuSans-34"/>
      </g>
     </g>
    </g>
    <g id="xtick_4">
     <g id="line2d_4">
      <g>
       <use style="stroke:#000000;stroke-width:0.8;" x="258.05325" xlink:href="#m89e9aaeae5" y="301.8675"/>
      </g>
     </g>
     <g id="text_4">
      <!-- 0.6 -->
      <defs>
       <path d="M 33.015625 40.375 
Q 26.375 40.375 22.484375 35.828125 
Q 18.609375 31.296875 18.609375 23.390625 
Q 18.609375 15.53125 22.484375 10.953125 
Q 26.375 6.390625 33.015625 6.390625 
Q 39.65625 6.390625 43.53125 10.953125 
Q 47.40625 15.53125 47.40625 23.390625 
Q 47.40625 31.296875 43.53125 35.828125 
Q 39.65625 40.375 33.015625 40.375 
M 52.59375 71.296875 
L 52.59375 62.3125 
Q 48.875 64.0625 45.09375 64.984375 
Q 41.3125 65.921875 37.59375 65.921875 
Q 27.828125 65.921875 22.671875 59.328125 
Q 17.53125 52.734375 16.796875 39.40625 
Q 19.671875 43.65625 24.015625 45.921875 
Q 28.375 48.1875 33.59375 48.1875 
Q 44.578125 48.1875 50.953125 41.515625 
Q 57.328125 34.859375 57.328125 23.390625 
Q 57.328125 12.15625 50.6875 5.359375 
Q 44.046875 -1.421875 33.015625 -1.421875 
Q 20.359375 -1.421875 13.671875 8.265625 
Q 6.984375 17.96875 6.984375 36.375 
Q 6.984375 53.65625 15.1875 63.9375 
Q 23.390625 74.21875 37.203125 74.21875 
Q 40.921875 74.21875 44.703125 73.484375 
Q 48.484375 72.75 52.59375 71.296875 
" id="DejaVuSans-36"/>
      </defs>
      <g transform="translate(250.101688 316.465937)scale(0.1 -0.1)">
       <use xlink:href="#DejaVuSans-30"/>
       <use x="63.623047" xlink:href="#DejaVuSans-2e"/>
       <use x="95.410156" xlink:href="#DejaVuSans-36"/>
      </g>
     </g>
    </g>
    <g id="xtick_5">
     <g id="line2d_5">
      <g>
       <use style="stroke:#000000;stroke-width:0.8;" x="329.47725" xlink:href="#m89e9aaeae5" y="301.8675"/>
      </g>
     </g>
     <g id="text_5">
      <!-- 0.8 -->
      <defs>
       <path d="M 31.78125 34.625 
Q 24.75 34.625 20.71875 30.859375 
Q 16.703125 27.09375 16.703125 20.515625 
Q 16.703125 13.921875 20.71875 10.15625 
Q 24.75 6.390625 31.78125 6.390625 
Q 38.8125 6.390625 42.859375 10.171875 
Q 46.921875 13.96875 46.921875 20.515625 
Q 46.921875 27.09375 42.890625 30.859375 
Q 38.875 34.625 31.78125 34.625 
M 21.921875 38.8125 
Q 15.578125 40.375 12.03125 44.71875 
Q 8.5 49.078125 8.5 55.328125 
Q 8.5 64.0625 14.71875 69.140625 
Q 20.953125 74.21875 31.78125 74.21875 
Q 42.671875 74.21875 48.875 69.140625 
Q 55.078125 64.0625 55.078125 55.328125 
Q 55.078125 49.078125 51.53125 44.71875 
Q 48 40.375 41.703125 38.8125 
Q 48.828125 37.15625 52.796875 32.3125 
Q 56.78125 27.484375 56.78125 20.515625 
Q 56.78125 9.90625 50.3125 4.234375 
Q 43.84375 -1.421875 31.78125 -1.421875 
Q 19.734375 -1.421875 13.25 4.234375 
Q 6.78125 9.90625 6.78125 20.515625 
Q 6.78125 27.484375 10.78125 32.3125 
Q 14.796875 37.15625 21.921875 38.8125 
M 18.3125 54.390625 
Q 18.3125 48.734375 21.84375 45.5625 
Q 25.390625 42.390625 31.78125 42.390625 
Q 38.140625 42.390625 41.71875 45.5625 
Q 45.3125 48.734375 45.3125 54.390625 
Q 45.3125 60.0625 41.71875 63.234375 
Q 38.140625 66.40625 31.78125 66.40625 
Q 25.390625 66.40625 21.84375 63.234375 
Q 18.3125 60.0625 18.3125 54.390625 
" id="DejaVuSans-38"/>
      </defs>
      <g transform="translate(321.525688 316.465937)scale(0.1 -0.1)">
       <use xlink:href="#DejaVuSans-30"/>
       <use x="63.623047" xlink:href="#DejaVuSans-2e"/>
       <use x="95.410156" xlink:href="#DejaVuSans-38"/>
      </g>
     </g>
    </g>
    <g id="xtick_6">
     <g id="line2d_6">
      <g>
       <use style="stroke:#000000;stroke-width:0.8;" x="400.90125" xlink:href="#m89e9aaeae5" y="301.8675"/>
      </g>
     </g>
     <g id="text_6">
      <!-- 1.0 -->
      <defs>
       <path d="M 12.40625 8.296875 
L 28.515625 8.296875 
L 28.515625 63.921875 
L 10.984375 60.40625 
L 10.984375 69.390625 
L 28.421875 72.90625 
L 38.28125 72.90625 
L 38.28125 8.296875 
L 54.390625 8.296875 
L 54.390625 0 
L 12.40625 0 
z
" id="DejaVuSans-31"/>
      </defs>
      <g transform="translate(392.949688 316.465937)scale(0.1 -0.1)">
       <use xlink:href="#DejaVuSans-31"/>
       <use x="63.623047" xlink:href="#DejaVuSans-2e"/>
       <use x="95.410156" xlink:href="#DejaVuSans-30"/>
      </g>
     </g>
    </g>
    <g id="text_7">
     <!-- False Positive Rate -->
     <defs>
      <path d="M 9.8125 72.90625 
L 51.703125 72.90625 
L 51.703125 64.59375 
L 19.671875 64.59375 
L 19.671875 43.109375 
L 48.578125 43.109375 
L 48.578125 34.8125 
L 19.671875 34.8125 
L 19.671875 0 
L 9.8125 0 
z
" id="DejaVuSans-46"/>
      <path d="M 34.28125 27.484375 
Q 23.390625 27.484375 19.1875 25 
Q 14.984375 22.515625 14.984375 16.5 
Q 14.984375 11.71875 18.140625 8.90625 
Q 21.296875 6.109375 26.703125 6.109375 
Q 34.1875 6.109375 38.703125 11.40625 
Q 43.21875 16.703125 43.21875 25.484375 
L 43.21875 27.484375 
z
M 52.203125 31.203125 
L 52.203125 0 
L 43.21875 0 
L 43.21875 8.296875 
Q 40.140625 3.328125 35.546875 0.953125 
Q 30.953125 -1.421875 24.3125 -1.421875 
Q 15.921875 -1.421875 10.953125 3.296875 
Q 6 8.015625 6 15.921875 
Q 6 25.140625 12.171875 29.828125 
Q 18.359375 34.515625 30.609375 34.515625 
L 43.21875 34.515625 
L 43.21875 35.40625 
Q 43.21875 41.609375 39.140625 45 
Q 35.0625 48.390625 27.6875 48.390625 
Q 23 48.390625 18.546875 47.265625 
Q 14.109375 46.140625 10.015625 43.890625 
L 10.015625 52.203125 
Q 14.9375 54.109375 19.578125 55.046875 
Q 24.21875 56 28.609375 56 
Q 40.484375 56 46.34375 49.84375 
Q 52.203125 43.703125 52.203125 31.203125 
" id="DejaVuSans-61"/>
      <path d="M 9.421875 75.984375 
L 18.40625 75.984375 
L 18.40625 0 
L 9.421875 0 
z
" id="DejaVuSans-6c"/>
      <path d="M 44.28125 53.078125 
L 44.28125 44.578125 
Q 40.484375 46.53125 36.375 47.5 
Q 32.28125 48.484375 27.875 48.484375 
Q 21.1875 48.484375 17.84375 46.4375 
Q 14.5 44.390625 14.5 40.28125 
Q 14.5 37.15625 16.890625 35.375 
Q 19.28125 33.59375 26.515625 31.984375 
L 29.59375 31.296875 
Q 39.15625 29.25 43.1875 25.515625 
Q 47.21875 21.78125 47.21875 15.09375 
Q 47.21875 7.46875 41.1875 3.015625 
Q 35.15625 -1.421875 24.609375 -1.421875 
Q 20.21875 -1.421875 15.453125 -0.5625 
Q 10.6875 0.296875 5.421875 2 
L 5.421875 11.28125 
Q 10.40625 8.6875 15.234375 7.390625 
Q 20.0625 6.109375 24.8125 6.109375 
Q 31.15625 6.109375 34.5625 8.28125 
Q 37.984375 10.453125 37.984375 14.40625 
Q 37.984375 18.0625 35.515625 20.015625 
Q 33.0625 21.96875 24.703125 23.78125 
L 21.578125 24.515625 
Q 13.234375 26.265625 9.515625 29.90625 
Q 5.8125 33.546875 5.8125 39.890625 
Q 5.8125 47.609375 11.28125 51.796875 
Q 16.75 56 26.8125 56 
Q 31.78125 56 36.171875 55.265625 
Q 40.578125 54.546875 44.28125 53.078125 
" id="DejaVuSans-73"/>
      <path d="M 56.203125 29.59375 
L 56.203125 25.203125 
L 14.890625 25.203125 
Q 15.484375 15.921875 20.484375 11.0625 
Q 25.484375 6.203125 34.421875 6.203125 
Q 39.59375 6.203125 44.453125 7.46875 
Q 49.3125 8.734375 54.109375 11.28125 
L 54.109375 2.78125 
Q 49.265625 0.734375 44.1875 -0.34375 
Q 39.109375 -1.421875 33.890625 -1.421875 
Q 20.796875 -1.421875 13.15625 6.1875 
Q 5.515625 13.8125 5.515625 26.8125 
Q 5.515625 40.234375 12.765625 48.109375 
Q 20.015625 56 32.328125 56 
Q 43.359375 56 49.78125 48.890625 
Q 56.203125 41.796875 56.203125 29.59375 
M 47.21875 32.234375 
Q 47.125 39.59375 43.09375 43.984375 
Q 39.0625 48.390625 32.421875 48.390625 
Q 24.90625 48.390625 20.390625 44.140625 
Q 15.875 39.890625 15.1875 32.171875 
z
" id="DejaVuSans-65"/>
      <path id="DejaVuSans-20"/>
      <path d="M 19.671875 64.796875 
L 19.671875 37.40625 
L 32.078125 37.40625 
Q 38.96875 37.40625 42.71875 40.96875 
Q 46.484375 44.53125 46.484375 51.125 
Q 46.484375 57.671875 42.71875 61.234375 
Q 38.96875 64.796875 32.078125 64.796875 
z
M 9.8125 72.90625 
L 32.078125 72.90625 
Q 44.34375 72.90625 50.609375 67.359375 
Q 56.890625 61.8125 56.890625 51.125 
Q 56.890625 40.328125 50.609375 34.8125 
Q 44.34375 29.296875 32.078125 29.296875 
L 19.671875 29.296875 
L 19.671875 0 
L 9.8125 0 
z
" id="DejaVuSans-50"/>
      <path d="M 30.609375 48.390625 
Q 23.390625 48.390625 19.1875 42.75 
Q 14.984375 37.109375 14.984375 27.296875 
Q 14.984375 17.484375 19.15625 11.84375 
Q 23.34375 6.203125 30.609375 6.203125 
Q 37.796875 6.203125 41.984375 11.859375 
Q 46.1875 17.53125 46.1875 27.296875 
Q 46.1875 37.015625 41.984375 42.703125 
Q 37.796875 48.390625 30.609375 48.390625 
M 30.609375 56 
Q 42.328125 56 49.015625 48.375 
Q 55.71875 40.765625 55.71875 27.296875 
Q 55.71875 13.875 49.015625 6.21875 
Q 42.328125 -1.421875 30.609375 -1.421875 
Q 18.84375 -1.421875 12.171875 6.21875 
Q 5.515625 13.875 5.515625 27.296875 
Q 5.515625 40.765625 12.171875 48.375 
Q 18.84375 56 30.609375 56 
" id="DejaVuSans-6f"/>
      <path d="M 9.421875 54.6875 
L 18.40625 54.6875 
L 18.40625 0 
L 9.421875 0 
z
M 9.421875 75.984375 
L 18.40625 75.984375 
L 18.40625 64.59375 
L 9.421875 64.59375 
z
" id="DejaVuSans-69"/>
      <path d="M 18.3125 70.21875 
L 18.3125 54.6875 
L 36.8125 54.6875 
L 36.8125 47.703125 
L 18.3125 47.703125 
L 18.3125 18.015625 
Q 18.3125 11.328125 20.140625 9.421875 
Q 21.96875 7.515625 27.59375 7.515625 
L 36.8125 7.515625 
L 36.8125 0 
L 27.59375 0 
Q 17.1875 0 13.234375 3.875 
Q 9.28125 7.765625 9.28125 18.015625 
L 9.28125 47.703125 
L 2.6875 47.703125 
L 2.6875 54.6875 
L 9.28125 54.6875 
L 9.28125 70.21875 
z
" id="DejaVuSans-74"/>
      <path d="M 2.984375 54.6875 
L 12.5 54.6875 
L 29.59375 8.796875 
L 46.6875 54.6875 
L 56.203125 54.6875 
L 35.6875 0 
L 23.484375 0 
z
" id="DejaVuSans-76"/>
      <path d="M 44.390625 34.1875 
Q 47.5625 33.109375 50.5625 29.59375 
Q 53.5625 26.078125 56.59375 19.921875 
L 66.609375 0 
L 56 0 
L 46.6875 18.703125 
Q 43.0625 26.03125 39.671875 28.421875 
Q 36.28125 30.8125 30.421875 30.8125 
L 19.671875 30.8125 
L 19.671875 0 
L 9.8125 0 
L 9.8125 72.90625 
L 32.078125 72.90625 
Q 44.578125 72.90625 50.734375 67.671875 
Q 56.890625 62.453125 56.890625 51.90625 
Q 56.890625 45.015625 53.6875 40.46875 
Q 50.484375 35.9375 44.390625 34.1875 
M 19.671875 64.796875 
L 19.671875 38.921875 
L 32.078125 38.921875 
Q 39.203125 38.921875 42.84375 42.21875 
Q 46.484375 45.515625 46.484375 51.90625 
Q 46.484375 58.296875 42.84375 61.546875 
Q 39.203125 64.796875 32.078125 64.796875 
z
" id="DejaVuSans-52"/>
     </defs>
     <g transform="translate(175.135781 330.144062)scale(0.1 -0.1)">
      <use xlink:href="#DejaVuSans-46"/>
      <use x="57.378906" xlink:href="#DejaVuSans-61"/>
      <use x="118.658203" xlink:href="#DejaVuSans-6c"/>
      <use x="146.441406" xlink:href="#DejaVuSans-73"/>
      <use x="198.541016" xlink:href="#DejaVuSans-65"/>
      <use x="260.064453" xlink:href="#DejaVuSans-20"/>
      <use x="291.851562" xlink:href="#DejaVuSans-50"/>
      <use x="352.107422" xlink:href="#DejaVuSans-6f"/>
      <use x="413.289062" xlink:href="#DejaVuSans-73"/>
      <use x="465.388672" xlink:href="#DejaVuSans-69"/>
      <use x="493.171875" xlink:href="#DejaVuSans-74"/>
      <use x="532.380859" xlink:href="#DejaVuSans-69"/>
      <use x="560.164062" xlink:href="#DejaVuSans-76"/>
      <use x="619.34375" xlink:href="#DejaVuSans-65"/>
      <use x="680.867188" xlink:href="#DejaVuSans-20"/>
      <use x="712.654297" xlink:href="#DejaVuSans-52"/>
      <use x="782.105469" xlink:href="#DejaVuSans-61"/>
      <use x="843.384766" xlink:href="#DejaVuSans-74"/>
      <use x="882.59375" xlink:href="#DejaVuSans-65"/>
     </g>
    </g>
   </g>
   <g id="matplotlib.axis_2">
    <g id="ytick_1">
     <g id="line2d_7">
      <defs>
       <path d="M 0 0 
L -3.5 0 
" id="md4a3012ab2" style="stroke:#000000;stroke-width:0.8;"/>
      </defs>
      <g>
       <use style="stroke:#000000;stroke-width:0.8;" x="43.78125" xlink:href="#md4a3012ab2" y="301.8675"/>
      </g>
     </g>
     <g id="text_8">
      <!-- 0.0 -->
      <g transform="translate(20.878125 305.666719)scale(0.1 -0.1)">
       <use xlink:href="#DejaVuSans-30"/>
       <use x="63.623047" xlink:href="#DejaVuSans-2e"/>
       <use x="95.410156" xlink:href="#DejaVuSans-30"/>
      </g>
     </g>
    </g>
    <g id="ytick_2">
     <g id="line2d_8">
      <g>
       <use style="stroke:#000000;stroke-width:0.8;" x="43.78125" xlink:href="#md4a3012ab2" y="251.1795"/>
      </g>
     </g>
     <g id="text_9">
      <!-- 0.2 -->
      <g transform="translate(20.878125 254.978719)scale(0.1 -0.1)">
       <use xlink:href="#DejaVuSans-30"/>
       <use x="63.623047" xlink:href="#DejaVuSans-2e"/>
       <use x="95.410156" xlink:href="#DejaVuSans-32"/>
      </g>
     </g>
    </g>
    <g id="ytick_3">
     <g id="line2d_9">
      <g>
       <use style="stroke:#000000;stroke-width:0.8;" x="43.78125" xlink:href="#md4a3012ab2" y="200.4915"/>
      </g>
     </g>
     <g id="text_10">
      <!-- 0.4 -->
      <g transform="translate(20.878125 204.290719)scale(0.1 -0.1)">
       <use xlink:href="#DejaVuSans-30"/>
       <use x="63.623047" xlink:href="#DejaVuSans-2e"/>
       <use x="95.410156" xlink:href="#DejaVuSans-34"/>
      </g>
     </g>
    </g>
    <g id="ytick_4">
     <g id="line2d_10">
      <g>
       <use style="stroke:#000000;stroke-width:0.8;" x="43.78125" xlink:href="#md4a3012ab2" y="149.8035"/>
      </g>
     </g>
     <g id="text_11">
      <!-- 0.6 -->
      <g transform="translate(20.878125 153.602719)scale(0.1 -0.1)">
       <use xlink:href="#DejaVuSans-30"/>
       <use x="63.623047" xlink:href="#DejaVuSans-2e"/>
       <use x="95.410156" xlink:href="#DejaVuSans-36"/>
      </g>
     </g>
    </g>
    <g id="ytick_5">
     <g id="line2d_11">
      <g>
       <use style="stroke:#000000;stroke-width:0.8;" x="43.78125" xlink:href="#md4a3012ab2" y="99.1155"/>
      </g>
     </g>
     <g id="text_12">
      <!-- 0.8 -->
      <g transform="translate(20.878125 102.914719)scale(0.1 -0.1)">
       <use xlink:href="#DejaVuSans-30"/>
       <use x="63.623047" xlink:href="#DejaVuSans-2e"/>
       <use x="95.410156" xlink:href="#DejaVuSans-38"/>
      </g>
     </g>
    </g>
    <g id="ytick_6">
     <g id="line2d_12">
      <g>
       <use style="stroke:#000000;stroke-width:0.8;" x="43.78125" xlink:href="#md4a3012ab2" y="48.4275"/>
      </g>
     </g>
     <g id="text_13">
      <!-- 1.0 -->
      <g transform="translate(20.878125 52.226719)scale(0.1 -0.1)">
       <use xlink:href="#DejaVuSans-31"/>
       <use x="63.623047" xlink:href="#DejaVuSans-2e"/>
       <use x="95.410156" xlink:href="#DejaVuSans-30"/>
      </g>
     </g>
    </g>
    <g id="text_14">
     <!-- True Positive Rate -->
     <defs>
      <path d="M -0.296875 72.90625 
L 61.375 72.90625 
L 61.375 64.59375 
L 35.5 64.59375 
L 35.5 0 
L 25.59375 0 
L 25.59375 64.59375 
L -0.296875 64.59375 
z
" id="DejaVuSans-54"/>
      <path d="M 41.109375 46.296875 
Q 39.59375 47.171875 37.8125 47.578125 
Q 36.03125 48 33.890625 48 
Q 26.265625 48 22.1875 43.046875 
Q 18.109375 38.09375 18.109375 28.8125 
L 18.109375 0 
L 9.078125 0 
L 9.078125 54.6875 
L 18.109375 54.6875 
L 18.109375 46.1875 
Q 20.953125 51.171875 25.484375 53.578125 
Q 30.03125 56 36.53125 56 
Q 37.453125 56 38.578125 55.875 
Q 39.703125 55.765625 41.0625 55.515625 
z
" id="DejaVuSans-72"/>
      <path d="M 8.5 21.578125 
L 8.5 54.6875 
L 17.484375 54.6875 
L 17.484375 21.921875 
Q 17.484375 14.15625 20.5 10.265625 
Q 23.53125 6.390625 29.59375 6.390625 
Q 36.859375 6.390625 41.078125 11.03125 
Q 45.3125 15.671875 45.3125 23.6875 
L 45.3125 54.6875 
L 54.296875 54.6875 
L 54.296875 0 
L 45.3125 0 
L 45.3125 8.40625 
Q 42.046875 3.421875 37.71875 1 
Q 33.40625 -1.421875 27.6875 -1.421875 
Q 18.265625 -1.421875 13.375 4.4375 
Q 8.5 10.296875 8.5 21.578125 
M 31.109375 56 
z
" id="DejaVuSans-75"/>
     </defs>
     <g transform="translate(14.798438 214.357594)rotate(-90)scale(0.1 -0.1)">
      <use xlink:href="#DejaVuSans-54"/>
      <use x="60.865234" xlink:href="#DejaVuSans-72"/>
      <use x="101.978516" xlink:href="#DejaVuSans-75"/>
      <use x="165.357422" xlink:href="#DejaVuSans-65"/>
      <use x="226.880859" xlink:href="#DejaVuSans-20"/>
      <use x="258.667969" xlink:href="#DejaVuSans-50"/>
      <use x="318.923828" xlink:href="#DejaVuSans-6f"/>
      <use x="380.105469" xlink:href="#DejaVuSans-73"/>
      <use x="432.205078" xlink:href="#DejaVuSans-69"/>
      <use x="459.988281" xlink:href="#DejaVuSans-74"/>
      <use x="499.197266" xlink:href="#DejaVuSans-69"/>
      <use x="526.980469" xlink:href="#DejaVuSans-76"/>
      <use x="586.160156" xlink:href="#DejaVuSans-65"/>
      <use x="647.683594" xlink:href="#DejaVuSans-20"/>
      <use x="679.470703" xlink:href="#DejaVuSans-52"/>
      <use x="748.921875" xlink:href="#DejaVuSans-61"/>
      <use x="810.201172" xlink:href="#DejaVuSans-74"/>
      <use x="849.410156" xlink:href="#DejaVuSans-65"/>
     </g>
    </g>
   </g>
   <g id="line2d_13">
    <path clip-path="url(#p3e41a88e31)" d="M 43.78125 301.8675 
L 45.904717 301.8675 
L 45.904717 278.6355 
L 46.376599 278.6355 
L 46.376599 272.2995 
L 47.792244 272.2995 
L 48.028184 268.0755 
L 52.51106 268.0755 
L 52.982941 259.6275 
L 56.050172 259.6275 
L 56.238924 255.4035 
L 59.542096 255.4035 
L 59.778036 251.1795 
L 60.249918 251.1795 
L 60.485859 249.0675 
L 60.95774 246.9555 
L 61.193681 244.8435 
L 62.137445 244.8435 
L 62.373385 242.7315 
L 63.081208 242.7315 
L 63.317149 240.6195 
L 64.260912 240.6195 
L 64.496853 238.5075 
L 68.979728 238.5075 
L 69.215669 236.3955 
L 69.68755 230.0595 
L 72.990721 230.0595 
L 73.226662 225.8355 
L 73.462603 223.7235 
L 76.293893 223.7235 
L 76.293893 221.6115 
L 79.361123 221.6115 
L 79.597064 217.3875 
L 80.304886 217.3875 
L 80.304886 215.2755 
L 83.843998 215.2755 
L 84.032751 213.1635 
L 84.740573 213.1635 
L 84.976514 208.9395 
L 86.864041 208.9395 
L 87.099982 206.8275 
L 94.886028 206.8275 
L 95.121969 204.7155 
L 96.537614 204.7155 
L 96.726366 202.6035 
L 97.434189 202.6035 
L 97.434189 200.4915 
L 100.501419 200.4915 
L 100.973301 196.2675 
L 105.220235 196.2675 
L 105.220235 194.1555 
L 107.343702 194.1555 
L 107.815584 189.9315 
L 109.46717 189.9315 
L 109.46717 187.8195 
L 111.590637 187.8195 
L 111.826578 185.7075 
L 114.893808 185.7075 
L 115.035373 181.4835 
L 115.979136 181.4835 
L 116.215077 179.3715 
L 117.866662 179.3715 
L 117.866662 177.2595 
L 119.990129 177.2595 
L 120.22607 175.1475 
L 124.708946 175.1475 
L 124.944886 173.0355 
L 128.483998 173.0355 
L 128.483998 170.9235 
L 130.135584 170.9235 
L 130.371525 168.8115 
L 131.315288 168.8115 
L 131.315288 160.3635 
L 133.202814 160.3635 
L 133.202814 158.2515 
L 140.75292 158.2515 
L 140.847297 151.9155 
L 149.341165 151.9155 
L 149.341165 149.8035 
L 152.408396 149.8035 
L 152.597149 147.6915 
L 153.776853 147.6915 
L 153.776853 135.0195 
L 156.844083 135.0195 
L 156.844083 132.9075 
L 159.203491 132.9075 
L 159.439432 130.7955 
L 162.506662 130.7955 
L 162.506662 128.6835 
L 165.102011 128.6835 
L 165.102011 118.1235 
L 168.169242 118.1235 
L 168.169242 116.0115 
L 172.180235 116.0115 
L 172.416176 113.8995 
L 177.748438 113.8995 
L 177.984379 111.7875 
L 180.815669 111.7875 
L 180.957233 107.5635 
L 181.900996 107.5635 
L 182.136937 105.4515 
L 185.91199 105.4515 
L 185.91199 101.2275 
L 188.271398 101.2275 
L 188.412962 97.0035 
L 193.60366 97.0035 
L 193.60366 94.8915 
L 202.191905 94.8915 
L 202.191905 92.7795 
L 202.899728 92.7795 
L 202.899728 90.6675 
L 207.146662 90.6675 
L 207.618544 88.5555 
L 211.393597 88.5555 
L 211.535161 84.3315 
L 212.242984 84.3315 
L 212.242984 80.1075 
L 222.624379 80.1075 
L 222.624379 77.9955 
L 228.994781 77.9955 
L 229.183533 75.8835 
L 238.621165 75.8835 
L 238.621165 71.6595 
L 243.811863 71.6595 
L 243.811863 69.5475 
L 247.586916 69.5475 
L 247.775669 67.4355 
L 274.295415 67.4355 
L 274.295415 65.3235 
L 275.003237 65.3235 
L 275.144802 61.0995 
L 275.380743 61.0995 
L 275.569495 58.9875 
L 279.580489 58.9875 
L 279.769242 56.8755 
L 309.497783 56.8755 
L 309.497783 54.7635 
L 330.496514 54.7635 
L 330.496514 52.6515 
L 349.607719 52.6515 
L 349.607719 50.5395 
L 390.331102 50.5395 
L 390.519855 48.4275 
L 400.90125 48.4275 
L 400.90125 48.4275 
" style="fill:none;stroke:#1f77b4;stroke-linecap:square;stroke-width:1.5;"/>
   </g>
   <g id="line2d_14">
    <path clip-path="url(#p3e41a88e31)" d="M 43.78125 301.8675 
L 45.197082 301.8675 
L 50.388466 284.9715 
L 50.624438 282.8595 
L 52.040269 274.4115 
L 52.512213 272.2995 
L 53.456101 272.2995 
L 53.692073 270.1875 
L 56.759709 253.2915 
L 56.995681 253.2915 
L 56.995681 251.1795 
L 57.231653 251.1795 
L 60.063317 238.5075 
L 60.535261 238.5075 
L 60.771233 236.3955 
L 61.007205 236.3955 
L 61.243177 234.2835 
L 62.187065 234.2835 
L 62.423037 232.1715 
L 63.130953 232.1715 
L 63.366925 230.0595 
L 64.310813 230.0595 
L 64.546785 227.9475 
L 64.782757 227.9475 
L 65.726644 217.3875 
L 65.962616 217.3875 
L 66.670532 215.2755 
L 67.378448 215.2755 
L 67.61442 213.1635 
L 68.511114 213.1635 
L 68.747086 211.0515 
L 70.39889 211.0515 
L 70.634862 208.9395 
L 70.870834 204.7155 
L 71.57875 204.7155 
L 71.767527 202.6035 
L 73.419331 202.6035 
L 73.655303 200.4915 
L 74.363219 200.4915 
L 74.599191 196.2675 
L 75.495885 196.2675 
L 75.731857 194.1555 
L 76.439773 194.1555 
L 76.911716 192.0435 
L 78.327548 192.0435 
L 78.56352 189.9315 
L 79.979352 189.9315 
L 80.215324 185.7075 
L 80.451296 183.5955 
L 86.209013 183.5955 
L 86.633762 179.3715 
L 86.869734 179.3715 
L 87.105706 177.2595 
L 88.521538 177.2595 
L 88.710316 175.1475 
L 89.654204 175.1475 
L 89.890176 173.0355 
L 91.777951 173.0355 
L 92.013923 168.8115 
L 93.429755 168.8115 
L 93.901699 166.6995 
L 94.609615 166.6995 
L 94.845587 164.5875 
L 108.909517 164.5875 
L 114.100901 147.6915 
L 122.265532 147.6915 
L 122.973448 145.5795 
L 124.861224 145.5795 
L 125.333168 143.4675 
L 126.984971 143.4675 
L 126.984971 141.3555 
L 127.456915 141.3555 
L 129.816635 137.1315 
L 130.052607 135.0195 
L 140.435374 135.0195 
L 140.671346 132.9075 
L 142.559122 132.9075 
L 142.795094 128.6835 
L 145.86273 124.4595 
L 150.818142 124.4595 
L 150.959725 120.2355 
L 154.263333 120.2355 
L 154.499305 118.1235 
L 155.443193 118.1235 
L 155.679165 116.0115 
L 156.859025 116.0115 
L 157.094997 113.8995 
L 170.073456 113.8995 
L 170.262233 111.7875 
L 177.105421 111.7875 
L 177.341393 109.6755 
L 203.439894 109.6755 
L 204.14781 107.5635 
L 208.631278 107.5635 
L 208.820055 105.4515 
L 219.438795 105.4515 
L 219.438795 103.3395 
L 220.618655 103.3395 
L 220.760238 99.1155 
L 222.883986 99.1155 
L 223.072763 97.0035 
L 224.724567 97.0035 
L 224.724567 94.8915 
L 230.387895 94.8915 
L 230.576672 92.7795 
L 233.88028 92.7795 
L 234.069058 90.6675 
L 234.541002 90.6675 
L 234.776974 86.4435 
L 239.024469 86.4435 
L 239.166052 82.2195 
L 253.513149 82.2195 
L 253.513149 80.1075 
L 260.356337 80.1075 
L 260.49792 75.8835 
L 280.79151 75.8835 
L 280.79151 73.7715 
L 288.295419 73.7715 
L 288.531391 69.5475 
L 327.655546 69.5475 
L 327.702741 67.4355 
L 335.159455 67.4355 
L 335.159455 63.2115 
L 336.811259 63.2115 
L 337.047231 58.9875 
L 351.20555 58.9875 
L 351.20555 56.8755 
L 363.240121 56.8755 
L 363.476093 54.7635 
L 365.127897 54.7635 
L 365.316675 52.6515 
L 371.215974 52.6515 
L 371.215974 50.5395 
L 399.296641 50.5395 
L 399.485418 48.4275 
L 400.90125 48.4275 
L 400.90125 48.4275 
" style="fill:none;stroke:#ff7f0e;stroke-linecap:square;stroke-width:1.5;"/>
   </g>
   <g id="line2d_15">
    <path clip-path="url(#p3e41a88e31)" d="M 43.78125 301.8675 
L 46.848886 301.8675 
L 47.084858 299.7555 
L 47.32083 299.7555 
L 49.68055 287.0835 
L 50.624438 287.0835 
L 50.86041 284.9715 
L 51.096381 280.7475 
L 51.568325 276.5235 
L 52.748185 276.5235 
L 52.984157 272.2995 
L 53.220129 272.2995 
L 53.692073 268.0755 
L 53.928045 268.0755 
L 54.164017 263.8515 
L 54.399989 261.7395 
L 56.051793 261.7395 
L 56.287765 259.6275 
L 56.523737 259.6275 
L 56.759709 257.5155 
L 58.175541 257.5155 
L 58.411513 253.2915 
L 60.771233 253.2915 
L 61.007205 249.0675 
L 64.310813 249.0675 
L 64.546785 244.8435 
L 65.962616 244.8435 
L 66.43456 240.6195 
L 66.670532 240.6195 
L 66.906504 236.3955 
L 68.558308 236.3955 
L 68.79428 234.2835 
L 69.738168 234.2835 
L 69.926946 232.1715 
L 71.342778 232.1715 
L 71.531555 230.0595 
L 71.767527 230.0595 
L 72.239471 227.9475 
L 72.475443 225.8355 
L 72.711415 225.8355 
L 72.900193 223.7235 
L 73.136165 223.7235 
L 73.372137 221.6115 
L 75.259913 221.6115 
L 75.495885 219.4995 
L 77.619632 219.4995 
L 78.091576 217.3875 
L 79.979352 217.3875 
L 80.215324 213.1635 
L 83.518932 213.1635 
L 83.754904 211.0515 
L 85.170736 211.0515 
L 85.406708 206.8275 
L 87.058512 206.8275 
L 87.530456 204.7155 
L 87.766428 202.6035 
L 90.36212 202.6035 
L 90.598092 198.3795 
L 92.485867 198.3795 
L 92.721839 196.2675 
L 92.957811 196.2675 
L 93.193783 194.1555 
L 95.553503 194.1555 
L 95.789475 192.0435 
L 97.205307 192.0435 
L 97.441279 189.9315 
L 97.677251 189.9315 
L 98.149195 185.7075 
L 99.800999 185.7075 
L 100.036971 181.4835 
L 101.216831 181.4835 
L 101.688775 177.2595 
L 103.104607 177.2595 
L 103.340579 175.1475 
L 105.464327 175.1475 
L 105.700299 173.0355 
L 107.824046 173.0355 
L 108.060018 170.9235 
L 108.767934 170.9235 
L 109.003906 168.8115 
L 110.891682 168.8115 
L 111.127654 164.5875 
L 111.363626 164.5875 
L 111.552404 162.4755 
L 114.384067 162.4755 
L 114.620039 158.2515 
L 115.091983 158.2515 
L 115.327955 154.0275 
L 116.035871 154.0275 
L 116.271843 151.9155 
L 116.743787 151.9155 
L 116.932565 149.8035 
L 117.640481 149.8035 
L 117.876453 145.5795 
L 122.595893 145.5795 
L 123.20942 139.2435 
L 127.456915 139.2435 
L 127.692887 137.1315 
L 129.344691 137.1315 
L 129.580663 135.0195 
L 130.760523 135.0195 
L 130.949301 132.9075 
L 132.837077 132.9075 
L 133.073049 128.6835 
L 136.8486 128.6835 
L 137.084572 126.5715 
L 140.38818 126.5715 
L 140.576958 124.4595 
L 142.417539 124.4595 
L 142.653511 120.2355 
L 153.744194 120.2355 
L 153.980166 118.1235 
L 167.855319 118.1235 
L 168.091291 116.0115 
L 169.035179 116.0115 
L 169.271151 111.7875 
L 179.88989 111.7875 
L 182.24961 105.4515 
L 194.284181 105.4515 
L 194.520153 103.3395 
L 196.643901 103.3395 
L 197.210234 97.0035 
L 198.862038 97.0035 
L 199.09801 94.8915 
L 199.805926 94.8915 
L 199.994703 92.7795 
L 209.905526 92.7795 
L 210.094304 90.6675 
L 222.600819 90.6675 
L 222.836791 88.5555 
L 230.623867 88.5555 
L 230.859839 86.4435 
L 236.523166 86.4435 
L 236.99511 84.3315 
L 245.726074 84.3315 
L 245.962046 80.1075 
L 249.501625 80.1075 
L 249.690403 77.9955 
L 254.409843 77.9955 
L 254.645815 75.8835 
L 255.353731 75.8835 
L 255.589702 73.7715 
L 268.33219 73.7715 
L 268.568162 69.5475 
L 278.478985 69.5475 
L 278.714957 67.4355 
L 291.929388 67.4355 
L 292.16536 65.3235 
L 292.637304 65.3235 
L 292.873276 63.2115 
L 299.716463 63.2115 
L 299.905241 61.0995 
L 302.500933 61.0995 
L 302.736905 58.9875 
L 342.097032 58.9875 
L 342.285809 56.8755 
L 371.074391 56.8755 
L 371.310363 54.7635 
L 389.716178 54.7635 
L 389.857761 50.5395 
L 395.757061 50.5395 
L 395.945838 48.4275 
L 400.90125 48.4275 
L 400.90125 48.4275 
" style="fill:none;stroke:#2ca02c;stroke-linecap:square;stroke-width:1.5;"/>
   </g>
   <g id="line2d_16">
    <path clip-path="url(#p3e41a88e31)" d="M 43.78125 301.8675 
L 400.90125 48.4275 
" style="fill:none;stroke:#000000;stroke-dasharray:5.6,2.4;stroke-dashoffset:0;stroke-width:1.5;"/>
   </g>
   <g id="patch_3">
    <path d="M 43.78125 301.8675 
L 43.78125 35.7555 
" style="fill:none;stroke:#000000;stroke-linecap:square;stroke-linejoin:miter;stroke-width:0.8;"/>
   </g>
   <g id="patch_4">
    <path d="M 400.90125 301.8675 
L 400.90125 35.7555 
" style="fill:none;stroke:#000000;stroke-linecap:square;stroke-linejoin:miter;stroke-width:0.8;"/>
   </g>
   <g id="patch_5">
    <path d="M 43.78125 301.8675 
L 400.90125 301.8675 
" style="fill:none;stroke:#000000;stroke-linecap:square;stroke-linejoin:miter;stroke-width:0.8;"/>
   </g>
   <g id="patch_6">
    <path d="M 43.78125 35.7555 
L 400.90125 35.7555 
" style="fill:none;stroke:#000000;stroke-linecap:square;stroke-linejoin:miter;stroke-width:0.8;"/>
   </g>
   <g id="text_15">
    <!-- ROC Curve GradientBoosting + SMOTE -->
    <defs>
     <path d="M 39.40625 66.21875 
Q 28.65625 66.21875 22.328125 58.203125 
Q 16.015625 50.203125 16.015625 36.375 
Q 16.015625 22.609375 22.328125 14.59375 
Q 28.65625 6.59375 39.40625 6.59375 
Q 50.140625 6.59375 56.421875 14.59375 
Q 62.703125 22.609375 62.703125 36.375 
Q 62.703125 50.203125 56.421875 58.203125 
Q 50.140625 66.21875 39.40625 66.21875 
M 39.40625 74.21875 
Q 54.734375 74.21875 63.90625 63.9375 
Q 73.09375 53.65625 73.09375 36.375 
Q 73.09375 19.140625 63.90625 8.859375 
Q 54.734375 -1.421875 39.40625 -1.421875 
Q 24.03125 -1.421875 14.8125 8.828125 
Q 5.609375 19.09375 5.609375 36.375 
Q 5.609375 53.65625 14.8125 63.9375 
Q 24.03125 74.21875 39.40625 74.21875 
" id="DejaVuSans-4f"/>
     <path d="M 64.40625 67.28125 
L 64.40625 56.890625 
Q 59.421875 61.53125 53.78125 63.8125 
Q 48.140625 66.109375 41.796875 66.109375 
Q 29.296875 66.109375 22.65625 58.46875 
Q 16.015625 50.828125 16.015625 36.375 
Q 16.015625 21.96875 22.65625 14.328125 
Q 29.296875 6.6875 41.796875 6.6875 
Q 48.140625 6.6875 53.78125 8.984375 
Q 59.421875 11.28125 64.40625 15.921875 
L 64.40625 5.609375 
Q 59.234375 2.09375 53.4375 0.328125 
Q 47.65625 -1.421875 41.21875 -1.421875 
Q 24.65625 -1.421875 15.125 8.703125 
Q 5.609375 18.84375 5.609375 36.375 
Q 5.609375 53.953125 15.125 64.078125 
Q 24.65625 74.21875 41.21875 74.21875 
Q 47.75 74.21875 53.53125 72.484375 
Q 59.328125 70.75 64.40625 67.28125 
" id="DejaVuSans-43"/>
     <path d="M 59.515625 10.40625 
L 59.515625 29.984375 
L 43.40625 29.984375 
L 43.40625 38.09375 
L 69.28125 38.09375 
L 69.28125 6.78125 
Q 63.578125 2.734375 56.6875 0.65625 
Q 49.8125 -1.421875 42 -1.421875 
Q 24.90625 -1.421875 15.25 8.5625 
Q 5.609375 18.5625 5.609375 36.375 
Q 5.609375 54.25 15.25 64.234375 
Q 24.90625 74.21875 42 74.21875 
Q 49.125 74.21875 55.546875 72.453125 
Q 61.96875 70.703125 67.390625 67.28125 
L 67.390625 56.78125 
Q 61.921875 61.421875 55.765625 63.765625 
Q 49.609375 66.109375 42.828125 66.109375 
Q 29.4375 66.109375 22.71875 58.640625 
Q 16.015625 51.171875 16.015625 36.375 
Q 16.015625 21.625 22.71875 14.15625 
Q 29.4375 6.6875 42.828125 6.6875 
Q 48.046875 6.6875 52.140625 7.59375 
Q 56.25 8.5 59.515625 10.40625 
" id="DejaVuSans-47"/>
     <path d="M 45.40625 46.390625 
L 45.40625 75.984375 
L 54.390625 75.984375 
L 54.390625 0 
L 45.40625 0 
L 45.40625 8.203125 
Q 42.578125 3.328125 38.25 0.953125 
Q 33.9375 -1.421875 27.875 -1.421875 
Q 17.96875 -1.421875 11.734375 6.484375 
Q 5.515625 14.40625 5.515625 27.296875 
Q 5.515625 40.1875 11.734375 48.09375 
Q 17.96875 56 27.875 56 
Q 33.9375 56 38.25 53.625 
Q 42.578125 51.265625 45.40625 46.390625 
M 14.796875 27.296875 
Q 14.796875 17.390625 18.875 11.75 
Q 22.953125 6.109375 30.078125 6.109375 
Q 37.203125 6.109375 41.296875 11.75 
Q 45.40625 17.390625 45.40625 27.296875 
Q 45.40625 37.203125 41.296875 42.84375 
Q 37.203125 48.484375 30.078125 48.484375 
Q 22.953125 48.484375 18.875 42.84375 
Q 14.796875 37.203125 14.796875 27.296875 
" id="DejaVuSans-64"/>
     <path d="M 54.890625 33.015625 
L 54.890625 0 
L 45.90625 0 
L 45.90625 32.71875 
Q 45.90625 40.484375 42.875 44.328125 
Q 39.84375 48.1875 33.796875 48.1875 
Q 26.515625 48.1875 22.3125 43.546875 
Q 18.109375 38.921875 18.109375 30.90625 
L 18.109375 0 
L 9.078125 0 
L 9.078125 54.6875 
L 18.109375 54.6875 
L 18.109375 46.1875 
Q 21.34375 51.125 25.703125 53.5625 
Q 30.078125 56 35.796875 56 
Q 45.21875 56 50.046875 50.171875 
Q 54.890625 44.34375 54.890625 33.015625 
" id="DejaVuSans-6e"/>
     <path d="M 19.671875 34.8125 
L 19.671875 8.109375 
L 35.5 8.109375 
Q 43.453125 8.109375 47.28125 11.40625 
Q 51.125 14.703125 51.125 21.484375 
Q 51.125 28.328125 47.28125 31.5625 
Q 43.453125 34.8125 35.5 34.8125 
z
M 19.671875 64.796875 
L 19.671875 42.828125 
L 34.28125 42.828125 
Q 41.5 42.828125 45.03125 45.53125 
Q 48.578125 48.25 48.578125 53.8125 
Q 48.578125 59.328125 45.03125 62.0625 
Q 41.5 64.796875 34.28125 64.796875 
z
M 9.8125 72.90625 
L 35.015625 72.90625 
Q 46.296875 72.90625 52.390625 68.21875 
Q 58.5 63.53125 58.5 54.890625 
Q 58.5 48.1875 55.375 44.234375 
Q 52.25 40.28125 46.1875 39.3125 
Q 53.46875 37.75 57.5 32.78125 
Q 61.53125 27.828125 61.53125 20.40625 
Q 61.53125 10.640625 54.890625 5.3125 
Q 48.25 0 35.984375 0 
L 9.8125 0 
z
" id="DejaVuSans-42"/>
     <path d="M 45.40625 27.984375 
Q 45.40625 37.75 41.375 43.109375 
Q 37.359375 48.484375 30.078125 48.484375 
Q 22.859375 48.484375 18.828125 43.109375 
Q 14.796875 37.75 14.796875 27.984375 
Q 14.796875 18.265625 18.828125 12.890625 
Q 22.859375 7.515625 30.078125 7.515625 
Q 37.359375 7.515625 41.375 12.890625 
Q 45.40625 18.265625 45.40625 27.984375 
M 54.390625 6.78125 
Q 54.390625 -7.171875 48.1875 -13.984375 
Q 42 -20.796875 29.203125 -20.796875 
Q 24.46875 -20.796875 20.265625 -20.09375 
Q 16.0625 -19.390625 12.109375 -17.921875 
L 12.109375 -9.1875 
Q 16.0625 -11.328125 19.921875 -12.34375 
Q 23.78125 -13.375 27.78125 -13.375 
Q 36.625 -13.375 41.015625 -8.765625 
Q 45.40625 -4.15625 45.40625 5.171875 
L 45.40625 9.625 
Q 42.625 4.78125 38.28125 2.390625 
Q 33.9375 0 27.875 0 
Q 17.828125 0 11.671875 7.65625 
Q 5.515625 15.328125 5.515625 27.984375 
Q 5.515625 40.671875 11.671875 48.328125 
Q 17.828125 56 27.875 56 
Q 33.9375 56 38.28125 53.609375 
Q 42.625 51.21875 45.40625 46.390625 
L 45.40625 54.6875 
L 54.390625 54.6875 
z
" id="DejaVuSans-67"/>
     <path d="M 46 62.703125 
L 46 35.5 
L 73.1875 35.5 
L 73.1875 27.203125 
L 46 27.203125 
L 46 0 
L 37.796875 0 
L 37.796875 27.203125 
L 10.59375 27.203125 
L 10.59375 35.5 
L 37.796875 35.5 
L 37.796875 62.703125 
z
" id="DejaVuSans-2b"/>
     <path d="M 53.515625 70.515625 
L 53.515625 60.890625 
Q 47.90625 63.578125 42.921875 64.890625 
Q 37.9375 66.21875 33.296875 66.21875 
Q 25.25 66.21875 20.875 63.09375 
Q 16.5 59.96875 16.5 54.203125 
Q 16.5 49.359375 19.40625 46.890625 
Q 22.3125 44.4375 30.421875 42.921875 
L 36.375 41.703125 
Q 47.40625 39.59375 52.65625 34.296875 
Q 57.90625 29 57.90625 20.125 
Q 57.90625 9.515625 50.796875 4.046875 
Q 43.703125 -1.421875 29.984375 -1.421875 
Q 24.8125 -1.421875 18.96875 -0.25 
Q 13.140625 0.921875 6.890625 3.21875 
L 6.890625 13.375 
Q 12.890625 10.015625 18.65625 8.296875 
Q 24.421875 6.59375 29.984375 6.59375 
Q 38.421875 6.59375 43.015625 9.90625 
Q 47.609375 13.234375 47.609375 19.390625 
Q 47.609375 24.75 44.3125 27.78125 
Q 41.015625 30.8125 33.5 32.328125 
L 27.484375 33.5 
Q 16.453125 35.6875 11.515625 40.375 
Q 6.59375 45.0625 6.59375 53.421875 
Q 6.59375 63.09375 13.40625 68.65625 
Q 20.21875 74.21875 32.171875 74.21875 
Q 37.3125 74.21875 42.625 73.28125 
Q 47.953125 72.359375 53.515625 70.515625 
" id="DejaVuSans-53"/>
     <path d="M 9.8125 72.90625 
L 24.515625 72.90625 
L 43.109375 23.296875 
L 61.8125 72.90625 
L 76.515625 72.90625 
L 76.515625 0 
L 66.890625 0 
L 66.890625 64.015625 
L 48.09375 14.015625 
L 38.1875 14.015625 
L 19.390625 64.015625 
L 19.390625 0 
L 9.8125 0 
z
" id="DejaVuSans-4d"/>
     <path d="M 9.8125 72.90625 
L 55.90625 72.90625 
L 55.90625 64.59375 
L 19.671875 64.59375 
L 19.671875 43.015625 
L 54.390625 43.015625 
L 54.390625 34.71875 
L 19.671875 34.71875 
L 19.671875 8.296875 
L 56.78125 8.296875 
L 56.78125 0 
L 9.8125 0 
z
" id="DejaVuSans-45"/>
    </defs>
    <g transform="translate(105.406875 16.318125)scale(0.12 -0.12)">
     <use xlink:href="#DejaVuSans-52"/>
     <use x="69.482422" xlink:href="#DejaVuSans-4f"/>
     <use x="148.193359" xlink:href="#DejaVuSans-43"/>
     <use x="218.017578" xlink:href="#DejaVuSans-20"/>
     <use x="249.804688" xlink:href="#DejaVuSans-43"/>
     <use x="319.628906" xlink:href="#DejaVuSans-75"/>
     <use x="383.007812" xlink:href="#DejaVuSans-72"/>
     <use x="424.121094" xlink:href="#DejaVuSans-76"/>
     <use x="483.300781" xlink:href="#DejaVuSans-65"/>
     <use x="544.824219" xlink:href="#DejaVuSans-20"/>
     <use x="576.611328" xlink:href="#DejaVuSans-47"/>
     <use x="654.101562" xlink:href="#DejaVuSans-72"/>
     <use x="695.214844" xlink:href="#DejaVuSans-61"/>
     <use x="756.494141" xlink:href="#DejaVuSans-64"/>
     <use x="819.970703" xlink:href="#DejaVuSans-69"/>
     <use x="847.753906" xlink:href="#DejaVuSans-65"/>
     <use x="909.277344" xlink:href="#DejaVuSans-6e"/>
     <use x="972.65625" xlink:href="#DejaVuSans-74"/>
     <use x="1011.865234" xlink:href="#DejaVuSans-42"/>
     <use x="1080.46875" xlink:href="#DejaVuSans-6f"/>
     <use x="1141.650391" xlink:href="#DejaVuSans-6f"/>
     <use x="1202.832031" xlink:href="#DejaVuSans-73"/>
     <use x="1254.931641" xlink:href="#DejaVuSans-74"/>
     <use x="1294.140625" xlink:href="#DejaVuSans-69"/>
     <use x="1321.923828" xlink:href="#DejaVuSans-6e"/>
     <use x="1385.302734" xlink:href="#DejaVuSans-67"/>
     <use x="1448.779297" xlink:href="#DejaVuSans-20"/>
     <use x="1480.566406" xlink:href="#DejaVuSans-2b"/>
     <use x="1564.355469" xlink:href="#DejaVuSans-20"/>
     <use x="1596.142578" xlink:href="#DejaVuSans-53"/>
     <use x="1659.619141" xlink:href="#DejaVuSans-4d"/>
     <use x="1745.898438" xlink:href="#DejaVuSans-4f"/>
     <use x="1824.609375" xlink:href="#DejaVuSans-54"/>
     <use x="1885.693359" xlink:href="#DejaVuSans-45"/>
    </g>
    <!-- Train: 1   Test: 28 -->
    <defs>
     <path d="M 11.71875 12.40625 
L 22.015625 12.40625 
L 22.015625 0 
L 11.71875 0 
z
M 11.71875 51.703125 
L 22.015625 51.703125 
L 22.015625 39.3125 
L 11.71875 39.3125 
z
" id="DejaVuSans-3a"/>
    </defs>
    <g transform="translate(169.229063 29.7555)scale(0.12 -0.12)">
     <use xlink:href="#DejaVuSans-54"/>
     <use x="60.865234" xlink:href="#DejaVuSans-72"/>
     <use x="101.978516" xlink:href="#DejaVuSans-61"/>
     <use x="163.257812" xlink:href="#DejaVuSans-69"/>
     <use x="191.041016" xlink:href="#DejaVuSans-6e"/>
     <use x="254.419922" xlink:href="#DejaVuSans-3a"/>
     <use x="288.111328" xlink:href="#DejaVuSans-20"/>
     <use x="319.898438" xlink:href="#DejaVuSans-31"/>
     <use x="383.521484" xlink:href="#DejaVuSans-20"/>
     <use x="415.308594" xlink:href="#DejaVuSans-20"/>
     <use x="447.095703" xlink:href="#DejaVuSans-20"/>
     <use x="478.882812" xlink:href="#DejaVuSans-54"/>
     <use x="539.701172" xlink:href="#DejaVuSans-65"/>
     <use x="601.224609" xlink:href="#DejaVuSans-73"/>
     <use x="653.324219" xlink:href="#DejaVuSans-74"/>
     <use x="692.533203" xlink:href="#DejaVuSans-3a"/>
     <use x="726.224609" xlink:href="#DejaVuSans-20"/>
     <use x="758.011719" xlink:href="#DejaVuSans-32"/>
     <use x="821.634766" xlink:href="#DejaVuSans-38"/>
    </g>
   </g>
   <g id="legend_1">
    <g id="patch_7">
     <path d="M 217.087188 296.8675 
L 393.90125 296.8675 
Q 395.90125 296.8675 395.90125 294.8675 
L 395.90125 251.833125 
Q 395.90125 249.833125 393.90125 249.833125 
L 217.087188 249.833125 
Q 215.087188 249.833125 215.087188 251.833125 
L 215.087188 294.8675 
Q 215.087188 296.8675 217.087188 296.8675 
z
" style="fill:#ffffff;opacity:0.8;stroke:#cccccc;stroke-linejoin:miter;"/>
    </g>
    <g id="line2d_17">
     <path d="M 219.087188 257.931562 
L 239.087188 257.931562 
" style="fill:none;stroke:#1f77b4;stroke-linecap:square;stroke-width:1.5;"/>
    </g>
    <g id="line2d_18"/>
    <g id="text_16">
     <!-- ROC curve - 0 (AUC = 0.750) -->
     <defs>
      <path d="M 48.78125 52.59375 
L 48.78125 44.1875 
Q 44.96875 46.296875 41.140625 47.34375 
Q 37.3125 48.390625 33.40625 48.390625 
Q 24.65625 48.390625 19.8125 42.84375 
Q 14.984375 37.3125 14.984375 27.296875 
Q 14.984375 17.28125 19.8125 11.734375 
Q 24.65625 6.203125 33.40625 6.203125 
Q 37.3125 6.203125 41.140625 7.25 
Q 44.96875 8.296875 48.78125 10.40625 
L 48.78125 2.09375 
Q 45.015625 0.34375 40.984375 -0.53125 
Q 36.96875 -1.421875 32.421875 -1.421875 
Q 20.0625 -1.421875 12.78125 6.34375 
Q 5.515625 14.109375 5.515625 27.296875 
Q 5.515625 40.671875 12.859375 48.328125 
Q 20.21875 56 33.015625 56 
Q 37.15625 56 41.109375 55.140625 
Q 45.0625 54.296875 48.78125 52.59375 
" id="DejaVuSans-63"/>
      <path d="M 4.890625 31.390625 
L 31.203125 31.390625 
L 31.203125 23.390625 
L 4.890625 23.390625 
z
" id="DejaVuSans-2d"/>
      <path d="M 31 75.875 
Q 24.46875 64.65625 21.28125 53.65625 
Q 18.109375 42.671875 18.109375 31.390625 
Q 18.109375 20.125 21.3125 9.0625 
Q 24.515625 -2 31 -13.1875 
L 23.1875 -13.1875 
Q 15.875 -1.703125 12.234375 9.375 
Q 8.59375 20.453125 8.59375 31.390625 
Q 8.59375 42.28125 12.203125 53.3125 
Q 15.828125 64.359375 23.1875 75.875 
z
" id="DejaVuSans-28"/>
      <path d="M 34.1875 63.1875 
L 20.796875 26.90625 
L 47.609375 26.90625 
z
M 28.609375 72.90625 
L 39.796875 72.90625 
L 67.578125 0 
L 57.328125 0 
L 50.6875 18.703125 
L 17.828125 18.703125 
L 11.1875 0 
L 0.78125 0 
z
" id="DejaVuSans-41"/>
      <path d="M 8.6875 72.90625 
L 18.609375 72.90625 
L 18.609375 28.609375 
Q 18.609375 16.890625 22.84375 11.734375 
Q 27.09375 6.59375 36.625 6.59375 
Q 46.09375 6.59375 50.34375 11.734375 
Q 54.59375 16.890625 54.59375 28.609375 
L 54.59375 72.90625 
L 64.5 72.90625 
L 64.5 27.390625 
Q 64.5 13.140625 57.4375 5.859375 
Q 50.390625 -1.421875 36.625 -1.421875 
Q 22.796875 -1.421875 15.734375 5.859375 
Q 8.6875 13.140625 8.6875 27.390625 
z
" id="DejaVuSans-55"/>
      <path d="M 10.59375 45.40625 
L 73.1875 45.40625 
L 73.1875 37.203125 
L 10.59375 37.203125 
z
M 10.59375 25.484375 
L 73.1875 25.484375 
L 73.1875 17.1875 
L 10.59375 17.1875 
z
" id="DejaVuSans-3d"/>
      <path d="M 8.203125 72.90625 
L 55.078125 72.90625 
L 55.078125 68.703125 
L 28.609375 0 
L 18.3125 0 
L 43.21875 64.59375 
L 8.203125 64.59375 
z
" id="DejaVuSans-37"/>
      <path d="M 10.796875 72.90625 
L 49.515625 72.90625 
L 49.515625 64.59375 
L 19.828125 64.59375 
L 19.828125 46.734375 
Q 21.96875 47.46875 24.109375 47.828125 
Q 26.265625 48.1875 28.421875 48.1875 
Q 40.625 48.1875 47.75 41.5 
Q 54.890625 34.8125 54.890625 23.390625 
Q 54.890625 11.625 47.5625 5.09375 
Q 40.234375 -1.421875 26.90625 -1.421875 
Q 22.3125 -1.421875 17.546875 -0.640625 
Q 12.796875 0.140625 7.71875 1.703125 
L 7.71875 11.625 
Q 12.109375 9.234375 16.796875 8.0625 
Q 21.484375 6.890625 26.703125 6.890625 
Q 35.15625 6.890625 40.078125 11.328125 
Q 45.015625 15.765625 45.015625 23.390625 
Q 45.015625 31 40.078125 35.4375 
Q 35.15625 39.890625 26.703125 39.890625 
Q 22.75 39.890625 18.8125 39.015625 
Q 14.890625 38.140625 10.796875 36.28125 
z
" id="DejaVuSans-35"/>
      <path d="M 8.015625 75.875 
L 15.828125 75.875 
Q 23.140625 64.359375 26.78125 53.3125 
Q 30.421875 42.28125 30.421875 31.390625 
Q 30.421875 20.453125 26.78125 9.375 
Q 23.140625 -1.703125 15.828125 -13.1875 
L 8.015625 -13.1875 
Q 14.5 -2 17.703125 9.0625 
Q 20.90625 20.125 20.90625 31.390625 
Q 20.90625 42.671875 17.703125 53.65625 
Q 14.5 64.65625 8.015625 75.875 
" id="DejaVuSans-29"/>
     </defs>
     <g transform="translate(247.087188 261.431562)scale(0.1 -0.1)">
      <use xlink:href="#DejaVuSans-52"/>
      <use x="69.482422" xlink:href="#DejaVuSans-4f"/>
      <use x="148.193359" xlink:href="#DejaVuSans-43"/>
      <use x="218.017578" xlink:href="#DejaVuSans-20"/>
      <use x="249.804688" xlink:href="#DejaVuSans-63"/>
      <use x="304.785156" xlink:href="#DejaVuSans-75"/>
      <use x="368.164062" xlink:href="#DejaVuSans-72"/>
      <use x="409.277344" xlink:href="#DejaVuSans-76"/>
      <use x="468.457031" xlink:href="#DejaVuSans-65"/>
      <use x="529.980469" xlink:href="#DejaVuSans-20"/>
      <use x="561.767578" xlink:href="#DejaVuSans-2d"/>
      <use x="597.851562" xlink:href="#DejaVuSans-20"/>
      <use x="629.638672" xlink:href="#DejaVuSans-30"/>
      <use x="693.261719" xlink:href="#DejaVuSans-20"/>
      <use x="725.048828" xlink:href="#DejaVuSans-28"/>
      <use x="764.0625" xlink:href="#DejaVuSans-41"/>
      <use x="832.470703" xlink:href="#DejaVuSans-55"/>
      <use x="905.664062" xlink:href="#DejaVuSans-43"/>
      <use x="975.488281" xlink:href="#DejaVuSans-20"/>
      <use x="1007.275391" xlink:href="#DejaVuSans-3d"/>
      <use x="1091.064453" xlink:href="#DejaVuSans-20"/>
      <use x="1122.851562" xlink:href="#DejaVuSans-30"/>
      <use x="1186.474609" xlink:href="#DejaVuSans-2e"/>
      <use x="1218.261719" xlink:href="#DejaVuSans-37"/>
      <use x="1281.884766" xlink:href="#DejaVuSans-35"/>
      <use x="1345.507812" xlink:href="#DejaVuSans-30"/>
      <use x="1409.130859" xlink:href="#DejaVuSans-29"/>
     </g>
    </g>
    <g id="line2d_19">
     <path d="M 219.087188 272.609687 
L 239.087188 272.609687 
" style="fill:none;stroke:#ff7f0e;stroke-linecap:square;stroke-width:1.5;"/>
    </g>
    <g id="line2d_20"/>
    <g id="text_17">
     <!-- ROC curve - 1 (AUC = 0.754) -->
     <g transform="translate(247.087188 276.109687)scale(0.1 -0.1)">
      <use xlink:href="#DejaVuSans-52"/>
      <use x="69.482422" xlink:href="#DejaVuSans-4f"/>
      <use x="148.193359" xlink:href="#DejaVuSans-43"/>
      <use x="218.017578" xlink:href="#DejaVuSans-20"/>
      <use x="249.804688" xlink:href="#DejaVuSans-63"/>
      <use x="304.785156" xlink:href="#DejaVuSans-75"/>
      <use x="368.164062" xlink:href="#DejaVuSans-72"/>
      <use x="409.277344" xlink:href="#DejaVuSans-76"/>
      <use x="468.457031" xlink:href="#DejaVuSans-65"/>
      <use x="529.980469" xlink:href="#DejaVuSans-20"/>
      <use x="561.767578" xlink:href="#DejaVuSans-2d"/>
      <use x="597.851562" xlink:href="#DejaVuSans-20"/>
      <use x="629.638672" xlink:href="#DejaVuSans-31"/>
      <use x="693.261719" xlink:href="#DejaVuSans-20"/>
      <use x="725.048828" xlink:href="#DejaVuSans-28"/>
      <use x="764.0625" xlink:href="#DejaVuSans-41"/>
      <use x="832.470703" xlink:href="#DejaVuSans-55"/>
      <use x="905.664062" xlink:href="#DejaVuSans-43"/>
      <use x="975.488281" xlink:href="#DejaVuSans-20"/>
      <use x="1007.275391" xlink:href="#DejaVuSans-3d"/>
      <use x="1091.064453" xlink:href="#DejaVuSans-20"/>
      <use x="1122.851562" xlink:href="#DejaVuSans-30"/>
      <use x="1186.474609" xlink:href="#DejaVuSans-2e"/>
      <use x="1218.261719" xlink:href="#DejaVuSans-37"/>
      <use x="1281.884766" xlink:href="#DejaVuSans-35"/>
      <use x="1345.507812" xlink:href="#DejaVuSans-34"/>
      <use x="1409.130859" xlink:href="#DejaVuSans-29"/>
     </g>
    </g>
    <g id="line2d_21">
     <path d="M 219.087188 287.287812 
L 239.087188 287.287812 
" style="fill:none;stroke:#2ca02c;stroke-linecap:square;stroke-width:1.5;"/>
    </g>
    <g id="line2d_22"/>
    <g id="text_18">
     <!-- ROC curve - 2 (AUC = 0.753) -->
     <defs>
      <path d="M 40.578125 39.3125 
Q 47.65625 37.796875 51.625 33 
Q 55.609375 28.21875 55.609375 21.1875 
Q 55.609375 10.40625 48.1875 4.484375 
Q 40.765625 -1.421875 27.09375 -1.421875 
Q 22.515625 -1.421875 17.65625 -0.515625 
Q 12.796875 0.390625 7.625 2.203125 
L 7.625 11.71875 
Q 11.71875 9.328125 16.59375 8.109375 
Q 21.484375 6.890625 26.8125 6.890625 
Q 36.078125 6.890625 40.9375 10.546875 
Q 45.796875 14.203125 45.796875 21.1875 
Q 45.796875 27.640625 41.28125 31.265625 
Q 36.765625 34.90625 28.71875 34.90625 
L 20.21875 34.90625 
L 20.21875 43.015625 
L 29.109375 43.015625 
Q 36.375 43.015625 40.234375 45.921875 
Q 44.09375 48.828125 44.09375 54.296875 
Q 44.09375 59.90625 40.109375 62.90625 
Q 36.140625 65.921875 28.71875 65.921875 
Q 24.65625 65.921875 20.015625 65.03125 
Q 15.375 64.15625 9.8125 62.3125 
L 9.8125 71.09375 
Q 15.4375 72.65625 20.34375 73.4375 
Q 25.25 74.21875 29.59375 74.21875 
Q 40.828125 74.21875 47.359375 69.109375 
Q 53.90625 64.015625 53.90625 55.328125 
Q 53.90625 49.265625 50.4375 45.09375 
Q 46.96875 40.921875 40.578125 39.3125 
" id="DejaVuSans-33"/>
     </defs>
     <g transform="translate(247.087188 290.787812)scale(0.1 -0.1)">
      <use xlink:href="#DejaVuSans-52"/>
      <use x="69.482422" xlink:href="#DejaVuSans-4f"/>
      <use x="148.193359" xlink:href="#DejaVuSans-43"/>
      <use x="218.017578" xlink:href="#DejaVuSans-20"/>
      <use x="249.804688" xlink:href="#DejaVuSans-63"/>
      <use x="304.785156" xlink:href="#DejaVuSans-75"/>
      <use x="368.164062" xlink:href="#DejaVuSans-72"/>
      <use x="409.277344" xlink:href="#DejaVuSans-76"/>
      <use x="468.457031" xlink:href="#DejaVuSans-65"/>
      <use x="529.980469" xlink:href="#DejaVuSans-20"/>
      <use x="561.767578" xlink:href="#DejaVuSans-2d"/>
      <use x="597.851562" xlink:href="#DejaVuSans-20"/>
      <use x="629.638672" xlink:href="#DejaVuSans-32"/>
      <use x="693.261719" xlink:href="#DejaVuSans-20"/>
      <use x="725.048828" xlink:href="#DejaVuSans-28"/>
      <use x="764.0625" xlink:href="#DejaVuSans-41"/>
      <use x="832.470703" xlink:href="#DejaVuSans-55"/>
      <use x="905.664062" xlink:href="#DejaVuSans-43"/>
      <use x="975.488281" xlink:href="#DejaVuSans-20"/>
      <use x="1007.275391" xlink:href="#DejaVuSans-3d"/>
      <use x="1091.064453" xlink:href="#DejaVuSans-20"/>
      <use x="1122.851562" xlink:href="#DejaVuSans-30"/>
      <use x="1186.474609" xlink:href="#DejaVuSans-2e"/>
      <use x="1218.261719" xlink:href="#DejaVuSans-37"/>
      <use x="1281.884766" xlink:href="#DejaVuSans-35"/>
      <use x="1345.507812" xlink:href="#DejaVuSans-33"/>
      <use x="1409.130859" xlink:href="#DejaVuSans-29"/>
     </g>
    </g>
   </g>
  </g>
 </g>
 <defs>
  <clipPath id="p3e41a88e31">
   <rect height="266.112" width="357.12" x="43.78125" y="35.7555"/>
  </clipPath>
 </defs>
</svg>
