<?xml version="1.0" encoding="utf-8" standalone="no"?>
<!DOCTYPE svg PUBLIC "-//W3C//DTD SVG 1.1//EN"
  "http://www.w3.org/Graphics/SVG/1.1/DTD/svg11.dtd">
<!-- Created with matplotlib (http://matplotlib.org/) -->
<svg height="424pt" version="1.1" viewBox="0 0 510 424" width="510pt" xmlns="http://www.w3.org/2000/svg" xmlns:xlink="http://www.w3.org/1999/xlink">
 <defs>
  <style type="text/css">
*{stroke-linecap:butt;stroke-linejoin:round;stroke-miterlimit:100000;}
  </style>
 </defs>
 <g id="figure_1">
  <g id="patch_1">
   <path d="M 0 424.2941 
L 510.039375 424.2941 
L 510.039375 0 
L 0 0 
z
" style="fill:#ffffff;"/>
  </g>
  <g id="axes_1">
   <g id="patch_2">
    <path d="M 46.8975 384.8666 
L 493.2975 384.8666 
L 493.2975 39.2666 
L 46.8975 39.2666 
z
" style="fill:#ffffff;"/>
   </g>
   <g id="line2d_1">
    <path clip-path="url(#p4bfeddcfa1)" d="M 46.8975 384.8666 
L 47.185753 381.930737 
L 47.345894 381.930737 
L 47.417957 381.278323 
L 47.457992 376.385218 
L 47.84233 374.754183 
L 47.986456 373.449355 
L 48.066527 373.123148 
L 48.386808 373.123148 
L 48.594991 371.81832 
L 48.675061 371.81832 
L 48.835202 371.165906 
L 49.035377 371.165906 
L 49.988214 362.03211 
L 50.34853 362.03211 
L 50.500664 361.379696 
L 50.548706 360.074868 
L 50.668812 360.074868 
L 51.125213 355.834178 
L 51.445494 352.898315 
L 51.965951 352.898315 
L 52.038014 352.245901 
L 52.278225 352.245901 
L 52.662563 349.310038 
L 52.742633 349.310038 
L 52.886759 347.352796 
L 52.982844 346.374175 
L 53.26309 346.374175 
L 53.447252 344.416933 
L 53.687463 344.416933 
L 53.815575 343.112105 
L 54.183898 339.850035 
L 54.50418 339.850035 
L 54.648306 339.197621 
L 54.848482 339.197621 
L 54.920545 338.545207 
L 55.112714 331.69486 
L 55.208798 330.716239 
L 55.368939 330.716239 
L 55.505059 328.758997 
L 55.873382 323.865892 
L 55.953452 323.865892 
L 56.017509 323.213478 
L 56.137614 323.213478 
L 56.602022 321.256236 
L 56.802198 321.256236 
L 56.914296 320.277615 
L 57.074437 320.277615 
L 57.194542 318.320373 
L 57.274613 318.320373 
L 57.57888 316.689338 
L 57.819091 316.689338 
L 58.075316 312.448647 
L 58.595773 308.534163 
L 58.755913 308.534163 
L 58.90004 307.229335 
L 59.260356 307.229335 
L 59.484553 304.293472 
L 59.548609 303.641058 
L 59.668715 303.641058 
L 59.828855 301.357609 
L 60.069066 301.357609 
L 60.365327 299.726575 
L 60.445397 299.726575 
L 60.589523 298.09554 
L 60.669594 298.09554 
L 60.885784 295.485884 
L 63.15978 281.132776 
L 63.279886 281.132776 
L 63.407998 279.175534 
L 63.472055 277.870706 
L 63.59216 277.870706 
L 63.840378 276.239671 
L 63.920448 275.913464 
L 64.056568 273.956222 
L 64.176673 273.956222 
L 64.248737 271.99898 
L 67.996027 226.003794 
L 68.196203 226.003794 
L 68.324316 224.698966 
L 68.468442 224.046552 
L 68.708653 224.046552 
L 68.780716 223.394138 
L 69.100998 223.394138 
L 69.165054 222.741724 
L 69.36523 222.741724 
L 69.437293 222.08931 
L 69.797609 222.08931 
L 69.909708 221.110689 
L 70.125898 217.848619 
L 70.246003 217.848619 
L 70.318066 215.891377 
L 70.438172 215.891377 
L 70.582298 215.238963 
L 70.782474 215.238963 
L 70.942615 213.607928 
L 71.463072 213.607928 
L 71.511114 212.3031 
L 71.671255 212.3031 
L 71.735311 211.650686 
L 71.895452 211.650686 
L 72.359859 209.367237 
L 72.680141 209.367237 
L 72.744197 208.714823 
L 72.864302 204.800339 
L 73.024443 204.800339 
L 73.104513 204.474132 
L 73.705041 204.474132 
L 73.857174 201.864476 
L 74.337596 201.864476 
L 74.401652 201.212062 
L 74.842039 201.212062 
L 75.154313 195.014129 
L 75.314454 195.014129 
L 75.466588 194.361715 
L 75.5947 193.056887 
L 75.658756 192.404473 
L 75.818897 192.404473 
L 76.339354 187.837576 
L 76.419424 187.837576 
L 76.555544 185.880334 
L 76.635614 185.880334 
L 76.715684 185.554127 
L 76.963902 182.292057 
L 77.484359 182.292057 
L 77.628486 180.987229 
L 78.188978 180.987229 
L 78.493245 180.008608 
L 78.653386 180.008608 
L 78.757477 173.810675 
L 79.037723 173.810675 
L 79.349998 170.548605 
L 79.470103 170.548605 
L 79.542166 168.591363 
L 80.50301 168.591363 
L 80.919376 165.329293 
L 81.031474 164.350672 
L 81.135566 162.39343 
L 81.375777 162.39343 
L 81.599973 160.436188 
L 82.120431 160.436188 
L 82.192494 160.109981 
L 82.47274 160.109981 
L 82.712951 158.478946 
L 83.113302 158.478946 
L 83.305471 156.521704 
L 83.465612 156.521704 
L 83.513654 155.216876 
L 84.074146 155.216876 
L 84.154216 154.890669 
L 84.354392 154.890669 
L 84.418449 153.912048 
L 84.538554 153.912048 
L 84.730723 151.628599 
L 85.051004 151.628599 
L 85.179116 149.671357 
L 85.243173 149.018943 
L 85.443349 145.104459 
L 85.555447 144.125838 
L 85.715588 144.125838 
L 85.859714 143.473424 
L 86.780523 143.473424 
L 86.828565 142.168596 
L 86.988706 142.168596 
L 87.148846 141.516182 
L 88.069655 141.516182 
L 88.40595 138.580319 
L 88.606126 138.580319 
L 88.798295 136.623077 
L 89.598998 136.623077 
L 89.663054 135.970663 
L 90.063406 135.970663 
L 90.191518 134.665835 
L 90.391694 134.665835 
L 90.760017 132.056179 
L 91.800931 132.056179 
L 92.169255 129.446524 
L 93.170134 129.446524 
L 93.514436 128.467903 
L 93.594506 128.467903 
L 93.658563 127.815489 
L 93.978844 127.815489 
L 94.106956 126.510661 
L 94.267097 126.510661 
L 94.347167 126.184454 
L 95.027765 126.184454 
L 95.340039 125.53204 
L 95.404095 124.553419 
L 95.58025 120.638935 
L 95.916545 118.029279 
L 95.996616 118.029279 
L 96.068679 117.703072 
L 96.348925 117.703072 
L 96.541094 115.74583 
L 97.381832 115.74583 
L 97.429874 114.441002 
L 97.790191 114.441002 
L 97.870261 114.114795 
L 98.190542 114.114795 
L 98.430753 112.48376 
L 99.311527 112.48376 
L 99.59978 107.590655 
L 100.560624 107.590655 
L 100.688736 106.285827 
L 100.888912 106.285827 
L 101.537481 100.414101 
L 102.858642 100.414101 
L 103.130881 98.130652 
L 103.250986 98.130652 
L 103.323049 97.478238 
L 103.443155 97.478238 
L 103.491197 95.520996 
L 104.131759 95.520996 
L 104.203823 94.542375 
L 104.764315 94.542375 
L 105.565018 91.280305 
L 106.365721 91.280305 
L 106.437784 90.954098 
L 106.581911 88.670649 
L 106.661981 88.670649 
L 106.910199 87.039614 
L 109.312309 87.039614 
L 109.408393 86.060993 
L 109.888815 86.060993 
L 109.960878 85.082372 
L 110.161054 85.082372 
L 110.257138 84.103751 
L 111.097877 84.103751 
L 111.25001 83.777544 
L 111.690397 83.777544 
L 111.754453 83.12513 
L 112.074734 83.12513 
L 112.170819 82.146509 
L 112.41103 82.146509 
L 112.523128 81.820302 
L 113.483972 81.820302 
L 113.556035 81.494095 
L 113.876317 81.494095 
L 113.972401 80.515474 
L 114.773104 80.515474 
L 114.853174 79.86306 
L 116.21437 79.86306 
L 116.342482 77.905818 
L 117.903853 77.905818 
L 117.967909 77.253404 
L 119.28907 77.253404 
L 120.249913 75.948576 
L 121.130687 75.948576 
L 121.194743 75.296163 
L 122.756114 75.296163 
L 122.852199 74.317542 
L 125.89487 74.317542 
L 125.990955 73.338921 
L 128.112818 73.338921 
L 128.272959 73.012714 
L 128.633275 73.012714 
L 128.705338 72.686507 
L 135.591385 72.686507 
L 135.663449 72.3603 
L 135.90366 72.3603 
L 136.007751 71.707886 
L 138.24972 71.707886 
L 138.313776 70.729265 
L 141.036167 70.729265 
L 141.140258 70.076851 
L 142.181172 70.076851 
L 142.325299 69.424437 
L 144.567267 69.424437 
L 144.711394 68.772023 
L 145.872413 68.772023 
L 145.944477 68.445816 
L 149.427535 68.445816 
L 149.52362 67.467195 
L 151.00492 67.467195 
L 151.181075 66.488574 
L 151.741567 66.162367 
L 153.663255 66.162367 
L 153.735318 65.509953 
L 157.178342 65.509953 
L 157.242398 64.531332 
L 162.446968 64.531332 
L 162.519031 64.205125 
L 165.801914 64.205125 
L 165.954048 63.552711 
L 173.240446 63.552711 
L 173.352545 63.226504 
L 176.475287 63.226504 
L 176.54735 62.900297 
L 181.912061 62.900297 
L 181.984124 62.57409 
L 188.750066 62.57409 
L 188.822129 62.247883 
L 188.98227 62.247883 
L 189.054333 61.595469 
L 197.701927 61.595469 
L 197.878082 60.616848 
L 206.645781 60.616848 
L 206.805921 60.290641 
L 226.351085 60.290641 
L 226.423148 59.964434 
L 227.343957 59.964434 
L 227.456055 59.638227 
L 228.777215 59.638227 
L 228.961377 58.985813 
L 268.484083 58.985813 
L 268.556146 58.659606 
L 282.408311 58.659606 
L 282.504395 57.680985 
L 314.924865 57.680985 
L 315.245146 57.354778 
L 318.808275 57.354778 
L 318.888345 57.028571 
L 325.133829 57.028571 
L 329.857978 56.376157 
L 366.129829 56.376157 
L 366.450111 56.04995 
L 369.572853 56.04995 
L 375.057669 55.723743 
L 493.2975 55.723743 
L 493.2975 55.723743 
" style="fill:none;stroke:#0000ff;stroke-linecap:square;"/>
   </g>
   <g id="line2d_2">
    <path clip-path="url(#p4bfeddcfa1)" d="M 46.8975 384.8666 
L 47.017608 383.560478 
L 47.137715 383.560478 
L 47.417966 378.009457 
L 47.538074 378.009457 
L 47.738253 376.376804 
L 47.818325 376.376804 
L 47.898397 375.070682 
L 48.018504 375.070682 
L 48.082562 374.41762 
L 48.242705 374.41762 
L 48.402849 373.764559 
L 48.843243 373.764559 
L 49.075452 372.458437 
L 49.315667 372.458437 
L 49.435774 371.478845 
L 50.15642 367.233947 
L 55.833507 330.009457 
L 55.993651 328.050273 
L 56.073722 328.050273 
L 56.474081 326.744151 
L 56.714296 326.744151 
L 57.266791 320.540069 
L 57.386899 320.540069 
L 57.466971 320.213539 
L 57.739215 315.64211 
L 57.97943 314.989049 
L 58.099538 314.989049 
L 58.163595 314.335988 
L 58.379789 309.764559 
L 58.539932 309.764559 
L 58.860219 305.519661 
L 58.97232 303.560478 
L 59.092427 303.560478 
L 59.14047 301.601294 
L 59.300614 301.601294 
L 59.484779 299.31558 
L 59.612894 297.682927 
L 59.813073 297.682927 
L 60.589769 290.825784 
L 60.717884 289.519661 
L 61.318422 283.968641 
L 61.558637 283.968641 
L 61.638709 283.31558 
L 62.119139 283.31558 
L 62.199211 282.662518 
L 65.314002 266.989049 
L 65.474146 266.989049 
L 66.122727 261.111498 
L 66.194791 259.805376 
L 66.435007 259.152314 
L 66.995509 256.8666 
L 67.107609 254.907416 
L 67.227717 254.907416 
L 67.580033 251.64211 
L 67.660104 251.64211 
L 67.964377 249.029865 
L 68.044449 249.029865 
L 68.108506 248.376804 
L 68.308686 248.376804 
L 68.468829 247.070682 
L 68.588937 247.070682 
L 68.669009 246.41762 
L 68.829152 246.41762 
L 68.901217 245.111498 
L 69.501755 245.111498 
L 69.661898 243.805376 
L 69.822042 243.805376 
L 70.046243 239.233947 
L 70.406565 239.233947 
L 70.566709 237.601294 
L 70.686817 235.64211 
L 70.84696 235.64211 
L 70.927032 234.335988 
L 71.327391 233.029865 
L 71.455505 231.723743 
L 71.775792 231.723743 
L 71.83985 230.744151 
L 71.999993 230.744151 
L 72.192165 225.519661 
L 72.592524 225.519661 
L 72.672596 224.8666 
L 72.800711 222.580886 
L 72.960854 222.580886 
L 73.289148 218.989049 
L 73.529364 218.989049 
L 74.033816 215.723743 
L 74.274031 215.723743 
L 74.354103 215.070682 
L 74.514246 215.070682 
L 74.610332 214.41762 
L 74.770476 214.41762 
L 75.178842 210.172722 
L 75.258913 210.172722 
L 75.531157 206.907416 
L 76.011588 206.907416 
L 76.075645 206.254355 
L 76.235789 206.254355 
L 76.395932 204.948233 
L 76.556076 203.64211 
L 76.676183 203.64211 
L 76.99647 200.703335 
L 77.116578 200.703335 
L 77.188643 198.744151 
L 77.30875 198.744151 
L 77.941317 195.478845 
L 78.077439 192.8666 
L 78.902178 187.968641 
L 78.98225 187.968641 
L 79.126379 185.356396 
L 79.366594 185.356396 
L 79.750939 180.458437 
L 79.871046 180.458437 
L 80.127276 178.825784 
L 80.207348 178.825784 
L 80.687778 174.907416 
L 81.008065 174.907416 
L 81.088137 174.254355 
L 81.688675 174.254355 
L 81.768747 173.601294 
L 81.912876 171.31558 
L 82.137077 170.009457 
L 83.498296 170.009457 
L 83.690469 168.703335 
L 83.818583 167.397212 
L 84.018763 167.397212 
L 84.571258 161.519661 
L 84.65133 161.519661 
L 84.699373 160.213539 
L 85.299911 160.213539 
L 85.44404 159.560478 
L 85.684255 159.560478 
L 85.964506 157.927824 
L 86.044578 157.927824 
L 86.172693 156.621702 
L 86.372872 156.621702 
L 86.709174 153.682927 
L 86.853303 151.723743 
L 86.97341 151.723743 
L 87.165583 149.438029 
L 87.245654 149.438029 
L 87.325726 148.784967 
L 87.950286 146.499253 
L 88.190501 146.499253 
L 88.406695 145.519661 
L 88.64691 145.519661 
L 88.791039 142.907416 
L 89.391577 142.907416 
L 89.471649 142.254355 
L 89.992115 142.254355 
L 90.456531 138.335988 
L 90.696747 138.335988 
L 90.824861 137.029865 
L 91.345328 137.029865 
L 91.545507 136.376804 
L 91.785722 136.376804 
L 91.857787 134.41762 
L 92.818648 134.41762 
L 92.882705 133.764559 
L 93.162957 133.764559 
L 93.355129 131.805376 
L 94.235918 131.805376 
L 94.283961 130.499253 
L 94.764391 130.499253 
L 95.340908 129.193131 
L 95.42098 128.213539 
L 96.942343 128.213539 
L 97.070458 126.907416 
L 97.190565 126.907416 
L 97.31868 125.601294 
L 97.478824 125.274763 
L 97.679003 125.274763 
L 97.919218 123.64211 
L 98.079362 122.335988 
L 98.239505 121.682927 
L 98.399649 121.682927 
L 98.559792 121.029865 
L 98.719936 119.070682 
L 98.840043 119.070682 
L 98.904101 118.41762 
L 99.144316 118.41762 
L 99.368517 115.478845 
L 99.648768 115.478845 
L 99.848948 113.846192 
L 100.369414 113.846192 
L 100.5776 112.540069 
L 101.418354 112.540069 
L 101.546469 111.233947 
L 101.82672 110.580886 
L 101.986863 110.580886 
L 102.050921 109.927824 
L 103.251997 109.927824 
L 103.380112 108.621702 
L 103.620327 108.621702 
L 103.684384 107.968641 
L 104.004671 107.968641 
L 104.132786 106.662518 
L 104.413037 106.662518 
L 104.701296 105.356396 
L 105.021583 105.356396 
L 105.08564 104.703335 
L 106.406824 100.131906 
L 106.807183 100.131906 
L 106.98334 98.499253 
L 107.543843 98.499253 
L 107.66395 97.846192 
L 107.856122 95.887008 
L 108.897055 95.887008 
L 109.017163 94.907416 
L 111.1791 94.907416 
L 111.259172 94.254355 
L 111.819674 94.254355 
L 111.883731 93.601294 
L 112.003839 93.601294 
L 112.147968 92.948233 
L 112.428219 92.948233 
L 112.644413 91.968641 
L 113.084808 91.968641 
L 113.228937 90.662518 
L 113.669331 90.662518 
L 113.861504 88.703335 
L 114.38197 88.703335 
L 114.446027 88.050273 
L 114.766314 88.050273 
L 114.966494 87.070682 
L 115.246745 87.070682 
L 115.294788 85.764559 
L 115.454931 85.764559 
L 115.535003 85.111498 
L 116.415792 85.111498 
L 116.559922 84.458437 
L 117.921141 84.458437 
L 118.001213 84.131906 
L 118.3215 84.131906 
L 118.417586 83.152314 
L 118.537694 83.152314 
L 118.657801 82.172722 
L 118.898017 82.172722 
L 118.962074 81.519661 
L 119.68272 81.519661 
L 120.075071 78.907416 
L 122.877583 78.907416 
L 123.005697 76.948233 
L 123.165841 76.948233 
L 123.36602 76.295171 
L 123.806415 76.295171 
L 124.030616 74.989049 
L 124.270831 74.989049 
L 124.487025 74.335988 
L 124.647168 74.335988 
L 124.711226 73.682927 
L 125.311764 73.682927 
L 126.51284 72.376804 
L 126.592912 71.723743 
L 126.953235 71.723743 
L 127.105371 70.41762 
L 136.673945 70.41762 
L 136.994232 69.764559 
L 137.634806 69.764559 
L 137.698863 69.111498 
L 139.580549 69.111498 
L 139.644607 68.458437 
L 140.885719 68.458437 
L 141.101913 67.805376 
L 144.344818 67.805376 
L 144.520976 67.152314 
L 151.76747 67.152314 
L 151.863556 66.499253 
L 154.746139 66.499253 
L 154.810196 65.846192 
L 156.251487 65.846192 
L 156.411631 65.519661 
L 156.571774 65.519661 
L 156.715904 64.8666 
L 158.037087 64.8666 
L 158.101145 64.213539 
L 188.007943 64.213539 
L 188.152072 63.560478 
L 190.874512 63.560478 
L 190.938569 62.907416 
L 195.983089 62.907416 
L 196.26334 62.580886 
L 197.744668 62.580886 
L 197.824739 61.601294 
L 201.468004 61.601294 
L 201.532061 60.948233 
L 202.452887 60.948233 
L 203.493819 59.31558 
L 207.721608 59.31558 
L 212.285697 58.335988 
L 212.349755 57.682927 
L 212.509898 57.682927 
L 212.58997 57.356396 
L 229.76536 57.356396 
L 229.909489 56.703335 
L 232.071426 56.703335 
L 232.28762 55.723743 
L 493.2975 55.723743 
L 493.2975 55.723743 
" style="fill:none;stroke:#008000;stroke-linecap:square;"/>
   </g>
   <g id="line2d_3">
    <path clip-path="url(#p4bfeddcfa1)" d="M 46.8975 384.8666 
L 46.977572 381.601294 
L 47.097679 381.601294 
L 47.217787 380.948233 
L 47.337895 380.948233 
L 47.810318 377.682927 
L 48.210677 372.458437 
L 48.330784 372.458437 
L 48.571 370.499253 
L 48.731143 366.580886 
L 48.851251 365.274763 
L 49.291645 365.274763 
L 49.459796 362.009457 
L 49.740047 362.009457 
L 50.420657 358.41762 
L 50.540765 358.41762 
L 55.945608 316.621702 
L 56.185823 316.621702 
L 56.586182 314.989049 
L 56.746325 312.376804 
L 57.066612 312.376804 
L 57.306827 311.070682 
L 57.571064 308.458437 
L 57.771243 307.805376 
L 58.09153 306.825784 
L 58.259681 304.540069 
L 58.355767 303.560478 
L 58.475875 303.560478 
L 58.555947 302.254355 
L 58.676054 302.254355 
L 58.924277 298.989049 
L 59.164492 298.009457 
L 59.348657 295.397212 
L 59.5088 295.397212 
L 60.069303 290.825784 
L 60.285496 287.887008 
L 60.365568 287.887008 
L 60.44564 287.233947 
L 60.565748 285.274763 
L 60.966106 285.274763 
L 61.86291 277.111498 
L 61.983017 277.111498 
L 62.103125 276.458437 
L 62.183197 273.193131 
L 62.303304 273.193131 
L 62.743699 271.233947 
L 65.402081 258.825784 
L 65.594253 253.601294 
L 65.794433 253.601294 
L 65.970591 250.989049 
L 66.090698 250.335988 
L 66.370949 250.335988 
L 66.571129 248.050273 
L 66.731272 248.050273 
L 67.211703 247.397212 
L 67.427896 243.152314 
L 67.523983 242.499253 
L 67.884305 242.499253 
L 68.004413 240.540069 
L 68.524879 240.540069 
L 68.717052 238.907416 
L 69.157446 238.907416 
L 69.333604 237.274763 
L 69.453712 237.274763 
L 69.533783 235.31558 
L 69.773999 233.356396 
L 69.894106 233.356396 
L 70.246422 230.41762 
L 70.406565 230.41762 
L 70.79091 226.825784 
L 70.951053 226.825784 
L 71.151233 224.8666 
L 71.991986 224.8666 
L 72.112094 223.887008 
L 72.552488 223.887008 
L 72.672596 222.907416 
L 73.513349 222.907416 
L 73.729543 221.274763 
L 73.809615 220.621702 
L 73.929722 220.621702 
L 74.314067 218.009457 
L 74.434174 218.009457 
L 74.594318 216.703335 
L 74.714426 214.744151 
L 74.954641 214.744151 
L 75.018698 214.09109 
L 75.170835 210.825784 
L 75.451086 210.825784 
L 75.499129 209.519661 
L 75.619236 209.519661 
L 75.715322 208.540069 
L 75.83543 208.540069 
L 75.931516 207.887008 
L 76.171731 207.887008 
L 76.540061 205.274763 
L 76.820313 203.64211 
L 77.020492 203.64211 
L 77.260707 202.662518 
L 77.62103 202.662518 
L 77.741138 200.703335 
L 77.861245 200.703335 
L 78.421748 199.397212 
L 78.661963 199.397212 
L 79.062322 196.131906 
L 79.262501 196.131906 
L 79.975139 190.580886 
L 80.295426 190.580886 
L 80.45557 189.274763 
L 80.575678 189.274763 
L 80.623721 187.968641 
L 80.743828 187.968641 
L 80.807886 187.31558 
L 81.408424 187.31558 
L 81.456467 186.009457 
L 81.728711 183.397212 
L 81.848818 183.397212 
L 81.912876 182.744151 
L 82.032983 182.744151 
L 82.193127 181.438029 
L 82.393306 181.438029 
L 82.513414 180.458437 
L 83.194024 180.458437 
L 83.314131 179.478845 
L 83.434239 179.478845 
L 83.554347 178.825784 
L 83.71449 178.825784 
L 84.010756 176.8666 
L 84.130863 176.8666 
L 84.435136 174.254355 
L 84.955602 174.254355 
L 85.051688 173.274763 
L 85.251868 173.274763 
L 85.796356 170.662518 
L 86.156678 170.662518 
L 86.476965 169.682927 
L 86.597073 169.682927 
L 86.693159 168.703335 
L 87.213626 168.703335 
L 87.293697 167.397212 
L 87.573948 167.397212 
L 87.982314 163.478845 
L 88.582852 163.478845 
L 88.630896 162.172722 
L 88.831075 162.172722 
L 89.43962 157.927824 
L 89.519692 157.927824 
L 89.567735 156.621702 
L 89.711864 155.968641 
L 89.912043 155.968641 
L 90.032151 154.989049 
L 90.392474 154.989049 
L 90.456531 154.335988 
L 91.017034 154.335988 
L 91.137141 153.356396 
L 91.5375 153.356396 
L 91.681629 152.703335 
L 92.001916 152.703335 
L 92.073981 150.744151 
L 92.754591 150.744151 
L 93.074878 148.784967 
L 93.715452 148.784967 
L 93.843566 147.478845 
L 93.963674 147.478845 
L 94.027731 146.825784 
L 94.307983 146.825784 
L 94.380047 144.8666 
L 94.780406 143.560478 
L 95.180765 143.560478 
L 95.453009 142.254355 
L 95.573116 142.254355 
L 95.73326 141.601294 
L 95.853367 141.601294 
L 96.029525 138.989049 
L 96.15764 137.682927 
L 96.397855 137.682927 
L 96.598035 136.703335 
L 96.83825 136.703335 
L 97.422774 134.744151 
L 97.743061 132.131906 
L 97.863168 132.131906 
L 98.079362 131.152314 
L 98.207477 129.846192 
L 98.447692 129.846192 
L 98.543778 128.8666 
L 98.984173 128.8666 
L 99.30446 128.213539 
L 99.464603 128.213539 
L 99.704818 126.254355 
L 100.425464 126.254355 
L 100.489522 125.601294 
L 100.585608 122.989049 
L 101.106074 122.989049 
L 101.234189 121.682927 
L 101.354296 121.682927 
L 101.426361 119.723743 
L 101.986863 119.723743 
L 102.315157 117.438029 
L 102.435265 117.438029 
L 102.611423 116.458437 
L 103.772463 116.458437 
L 103.892571 115.805376 
L 104.373001 115.805376 
L 104.501116 114.499253 
L 105.101654 114.499253 
L 105.165712 113.846192 
L 105.726214 113.846192 
L 105.790271 113.193131 
L 106.150594 113.193131 
L 106.222659 111.233947 
L 106.783161 111.233947 
L 106.943304 110.580886 
L 107.543843 110.580886 
L 107.784058 108.948233 
L 107.86413 108.948233 
L 108.056302 106.989049 
L 108.216445 106.989049 
L 108.34456 105.682927 
L 108.784955 105.682927 
L 109.08122 103.723743 
L 109.801866 103.723743 
L 110.362368 101.111498 
L 110.962906 101.111498 
L 111.026964 100.458437 
L 111.387287 100.458437 
L 111.507394 99.805376 
L 111.787645 99.805376 
L 111.91576 98.499253 
L 112.316119 98.499253 
L 112.412205 97.519661 
L 113.012743 97.519661 
L 113.108829 96.540069 
L 113.58926 96.540069 
L 113.869511 95.560478 
L 114.7503 95.560478 
L 115.070587 94.254355 
L 115.510982 94.254355 
L 115.703154 92.295171 
L 116.383764 92.295171 
L 116.447821 91.64211 
L 117.008323 91.64211 
L 117.152452 90.989049 
L 117.392668 90.989049 
L 117.616869 89.682927 
L 118.337514 89.682927 
L 118.457622 89.356396 
L 118.521679 88.703335 
L 119.162253 88.703335 
L 119.434497 87.397212 
L 119.634677 87.397212 
L 120.379344 80.8666 
L 120.539487 80.8666 
L 120.619559 80.213539 
L 122.140922 80.213539 
L 122.220994 79.560478 
L 122.661389 79.560478 
L 122.981676 78.907416 
L 123.42207 78.907416 
L 123.742357 77.927824 
L 123.806415 77.274763 
L 124.406953 77.274763 
L 124.607132 76.621702 
L 125.287742 76.621702 
L 125.487922 75.64211 
L 125.608029 75.64211 
L 125.704115 74.662518 
L 126.304653 74.662518 
L 127.625837 73.356396 
L 128.786878 73.356396 
L 128.906985 72.376804 
L 132.069819 72.376804 
L 132.29402 71.723743 
L 132.4942 71.723743 
L 132.590286 70.744151 
L 138.635703 70.744151 
L 138.795846 70.09109 
L 139.916851 70.09109 
L 140.012937 69.111498 
L 141.294085 69.111498 
L 141.494264 68.784967 
L 144.73717 68.784967 
L 144.881299 68.131906 
L 145.521873 68.131906 
L 145.666002 67.478845 
L 147.827939 67.478845 
L 148.05214 66.825784 
L 154.297737 66.825784 
L 154.417844 66.499253 
L 158.221252 66.499253 
L 158.28531 65.846192 
L 159.64653 65.846192 
L 159.710587 65.193131 
L 165.876112 65.193131 
L 165.940169 64.540069 
L 168.74268 64.540069 
L 168.806738 63.887008 
L 178.935814 63.887008 
L 179.0319 62.907416 
L 194.485748 62.907416 
L 195.646788 60.948233 
L 195.710845 60.295171 
L 196.911922 60.295171 
L 197.088079 59.31558 
L 197.968869 59.31558 
L 198.064955 58.335988 
L 201.243803 58.335988 
L 201.307861 57.682927 
L 207.673565 57.682927 
L 211.717188 57.029865 
L 229.493116 57.029865 
L 229.637245 56.376804 
L 244.290375 56.376804 
L 244.434504 55.723743 
L 493.2975 55.723743 
L 493.2975 55.723743 
" style="fill:none;stroke:#ff0000;stroke-linecap:square;"/>
   </g>
   <g id="line2d_4">
    <path clip-path="url(#p4bfeddcfa1)" d="M 46.8975 384.8666 
L 493.2975 55.723743 
" style="fill:none;stroke:#000000;stroke-dasharray:6.000000,6.000000;stroke-dashoffset:0.0;"/>
   </g>
   <g id="patch_3">
    <path d="M 46.8975 384.8666 
L 46.8975 39.2666 
" style="fill:none;stroke:#000000;stroke-linecap:square;stroke-linejoin:miter;"/>
   </g>
   <g id="patch_4">
    <path d="M 493.2975 384.8666 
L 493.2975 39.2666 
" style="fill:none;stroke:#000000;stroke-linecap:square;stroke-linejoin:miter;"/>
   </g>
   <g id="patch_5">
    <path d="M 46.8975 39.2666 
L 493.2975 39.2666 
" style="fill:none;stroke:#000000;stroke-linecap:square;stroke-linejoin:miter;"/>
   </g>
   <g id="patch_6">
    <path d="M 46.8975 384.8666 
L 493.2975 384.8666 
" style="fill:none;stroke:#000000;stroke-linecap:square;stroke-linejoin:miter;"/>
   </g>
   <g id="matplotlib.axis_1">
    <g id="xtick_1">
     <g id="line2d_5">
      <defs>
       <path d="M 0 0 
L 0 -4 
" id="m6e84248b64" style="stroke:#000000;stroke-width:0.5;"/>
      </defs>
      <g>
       <use style="stroke:#000000;stroke-width:0.5;" x="46.8975" xlink:href="#m6e84248b64" y="384.8666"/>
      </g>
     </g>
     <g id="line2d_6">
      <defs>
       <path d="M 0 0 
L 0 4 
" id="mec50032847" style="stroke:#000000;stroke-width:0.5;"/>
      </defs>
      <g>
       <use style="stroke:#000000;stroke-width:0.5;" x="46.8975" xlink:href="#mec50032847" y="39.2666"/>
      </g>
     </g>
     <g id="text_1">
      <!-- 0.0 -->
      <defs>
       <path d="M 31.78125 66.40625 
Q 24.171875 66.40625 20.328125 58.90625 
Q 16.5 51.421875 16.5 36.375 
Q 16.5 21.390625 20.328125 13.890625 
Q 24.171875 6.390625 31.78125 6.390625 
Q 39.453125 6.390625 43.28125 13.890625 
Q 47.125 21.390625 47.125 36.375 
Q 47.125 51.421875 43.28125 58.90625 
Q 39.453125 66.40625 31.78125 66.40625 
M 31.78125 74.21875 
Q 44.046875 74.21875 50.515625 64.515625 
Q 56.984375 54.828125 56.984375 36.375 
Q 56.984375 17.96875 50.515625 8.265625 
Q 44.046875 -1.421875 31.78125 -1.421875 
Q 19.53125 -1.421875 13.0625 8.265625 
Q 6.59375 17.96875 6.59375 36.375 
Q 6.59375 54.828125 13.0625 64.515625 
Q 19.53125 74.21875 31.78125 74.21875 
" id="BitstreamVeraSans-Roman-30"/>
       <path d="M 10.6875 12.40625 
L 21 12.40625 
L 21 0 
L 10.6875 0 
z
" id="BitstreamVeraSans-Roman-2e"/>
      </defs>
      <g transform="translate(37.355625 397.984725)scale(0.12 -0.12)">
       <use xlink:href="#BitstreamVeraSans-Roman-30"/>
       <use x="63.623046875" xlink:href="#BitstreamVeraSans-Roman-2e"/>
       <use x="95.41015625" xlink:href="#BitstreamVeraSans-Roman-30"/>
      </g>
     </g>
    </g>
    <g id="xtick_2">
     <g id="line2d_7">
      <g>
       <use style="stroke:#000000;stroke-width:0.5;" x="136.1775" xlink:href="#m6e84248b64" y="384.8666"/>
      </g>
     </g>
     <g id="line2d_8">
      <g>
       <use style="stroke:#000000;stroke-width:0.5;" x="136.1775" xlink:href="#mec50032847" y="39.2666"/>
      </g>
     </g>
     <g id="text_2">
      <!-- 0.2 -->
      <defs>
       <path d="M 19.1875 8.296875 
L 53.609375 8.296875 
L 53.609375 0 
L 7.328125 0 
L 7.328125 8.296875 
Q 12.9375 14.109375 22.625 23.890625 
Q 32.328125 33.6875 34.8125 36.53125 
Q 39.546875 41.84375 41.421875 45.53125 
Q 43.3125 49.21875 43.3125 52.78125 
Q 43.3125 58.59375 39.234375 62.25 
Q 35.15625 65.921875 28.609375 65.921875 
Q 23.96875 65.921875 18.8125 64.3125 
Q 13.671875 62.703125 7.8125 59.421875 
L 7.8125 69.390625 
Q 13.765625 71.78125 18.9375 73 
Q 24.125 74.21875 28.421875 74.21875 
Q 39.75 74.21875 46.484375 68.546875 
Q 53.21875 62.890625 53.21875 53.421875 
Q 53.21875 48.921875 51.53125 44.890625 
Q 49.859375 40.875 45.40625 35.40625 
Q 44.1875 33.984375 37.640625 27.21875 
Q 31.109375 20.453125 19.1875 8.296875 
" id="BitstreamVeraSans-Roman-32"/>
      </defs>
      <g transform="translate(126.635625 397.984725)scale(0.12 -0.12)">
       <use xlink:href="#BitstreamVeraSans-Roman-30"/>
       <use x="63.623046875" xlink:href="#BitstreamVeraSans-Roman-2e"/>
       <use x="95.41015625" xlink:href="#BitstreamVeraSans-Roman-32"/>
      </g>
     </g>
    </g>
    <g id="xtick_3">
     <g id="line2d_9">
      <g>
       <use style="stroke:#000000;stroke-width:0.5;" x="225.4575" xlink:href="#m6e84248b64" y="384.8666"/>
      </g>
     </g>
     <g id="line2d_10">
      <g>
       <use style="stroke:#000000;stroke-width:0.5;" x="225.4575" xlink:href="#mec50032847" y="39.2666"/>
      </g>
     </g>
     <g id="text_3">
      <!-- 0.4 -->
      <defs>
       <path d="M 37.796875 64.3125 
L 12.890625 25.390625 
L 37.796875 25.390625 
z
M 35.203125 72.90625 
L 47.609375 72.90625 
L 47.609375 25.390625 
L 58.015625 25.390625 
L 58.015625 17.1875 
L 47.609375 17.1875 
L 47.609375 0 
L 37.796875 0 
L 37.796875 17.1875 
L 4.890625 17.1875 
L 4.890625 26.703125 
z
" id="BitstreamVeraSans-Roman-34"/>
      </defs>
      <g transform="translate(215.915625 397.984725)scale(0.12 -0.12)">
       <use xlink:href="#BitstreamVeraSans-Roman-30"/>
       <use x="63.623046875" xlink:href="#BitstreamVeraSans-Roman-2e"/>
       <use x="95.41015625" xlink:href="#BitstreamVeraSans-Roman-34"/>
      </g>
     </g>
    </g>
    <g id="xtick_4">
     <g id="line2d_11">
      <g>
       <use style="stroke:#000000;stroke-width:0.5;" x="314.7375" xlink:href="#m6e84248b64" y="384.8666"/>
      </g>
     </g>
     <g id="line2d_12">
      <g>
       <use style="stroke:#000000;stroke-width:0.5;" x="314.7375" xlink:href="#mec50032847" y="39.2666"/>
      </g>
     </g>
     <g id="text_4">
      <!-- 0.6 -->
      <defs>
       <path d="M 33.015625 40.375 
Q 26.375 40.375 22.484375 35.828125 
Q 18.609375 31.296875 18.609375 23.390625 
Q 18.609375 15.53125 22.484375 10.953125 
Q 26.375 6.390625 33.015625 6.390625 
Q 39.65625 6.390625 43.53125 10.953125 
Q 47.40625 15.53125 47.40625 23.390625 
Q 47.40625 31.296875 43.53125 35.828125 
Q 39.65625 40.375 33.015625 40.375 
M 52.59375 71.296875 
L 52.59375 62.3125 
Q 48.875 64.0625 45.09375 64.984375 
Q 41.3125 65.921875 37.59375 65.921875 
Q 27.828125 65.921875 22.671875 59.328125 
Q 17.53125 52.734375 16.796875 39.40625 
Q 19.671875 43.65625 24.015625 45.921875 
Q 28.375 48.1875 33.59375 48.1875 
Q 44.578125 48.1875 50.953125 41.515625 
Q 57.328125 34.859375 57.328125 23.390625 
Q 57.328125 12.15625 50.6875 5.359375 
Q 44.046875 -1.421875 33.015625 -1.421875 
Q 20.359375 -1.421875 13.671875 8.265625 
Q 6.984375 17.96875 6.984375 36.375 
Q 6.984375 53.65625 15.1875 63.9375 
Q 23.390625 74.21875 37.203125 74.21875 
Q 40.921875 74.21875 44.703125 73.484375 
Q 48.484375 72.75 52.59375 71.296875 
" id="BitstreamVeraSans-Roman-36"/>
      </defs>
      <g transform="translate(305.195625 397.984725)scale(0.12 -0.12)">
       <use xlink:href="#BitstreamVeraSans-Roman-30"/>
       <use x="63.623046875" xlink:href="#BitstreamVeraSans-Roman-2e"/>
       <use x="95.41015625" xlink:href="#BitstreamVeraSans-Roman-36"/>
      </g>
     </g>
    </g>
    <g id="xtick_5">
     <g id="line2d_13">
      <g>
       <use style="stroke:#000000;stroke-width:0.5;" x="404.0175" xlink:href="#m6e84248b64" y="384.8666"/>
      </g>
     </g>
     <g id="line2d_14">
      <g>
       <use style="stroke:#000000;stroke-width:0.5;" x="404.0175" xlink:href="#mec50032847" y="39.2666"/>
      </g>
     </g>
     <g id="text_5">
      <!-- 0.8 -->
      <defs>
       <path d="M 31.78125 34.625 
Q 24.75 34.625 20.71875 30.859375 
Q 16.703125 27.09375 16.703125 20.515625 
Q 16.703125 13.921875 20.71875 10.15625 
Q 24.75 6.390625 31.78125 6.390625 
Q 38.8125 6.390625 42.859375 10.171875 
Q 46.921875 13.96875 46.921875 20.515625 
Q 46.921875 27.09375 42.890625 30.859375 
Q 38.875 34.625 31.78125 34.625 
M 21.921875 38.8125 
Q 15.578125 40.375 12.03125 44.71875 
Q 8.5 49.078125 8.5 55.328125 
Q 8.5 64.0625 14.71875 69.140625 
Q 20.953125 74.21875 31.78125 74.21875 
Q 42.671875 74.21875 48.875 69.140625 
Q 55.078125 64.0625 55.078125 55.328125 
Q 55.078125 49.078125 51.53125 44.71875 
Q 48 40.375 41.703125 38.8125 
Q 48.828125 37.15625 52.796875 32.3125 
Q 56.78125 27.484375 56.78125 20.515625 
Q 56.78125 9.90625 50.3125 4.234375 
Q 43.84375 -1.421875 31.78125 -1.421875 
Q 19.734375 -1.421875 13.25 4.234375 
Q 6.78125 9.90625 6.78125 20.515625 
Q 6.78125 27.484375 10.78125 32.3125 
Q 14.796875 37.15625 21.921875 38.8125 
M 18.3125 54.390625 
Q 18.3125 48.734375 21.84375 45.5625 
Q 25.390625 42.390625 31.78125 42.390625 
Q 38.140625 42.390625 41.71875 45.5625 
Q 45.3125 48.734375 45.3125 54.390625 
Q 45.3125 60.0625 41.71875 63.234375 
Q 38.140625 66.40625 31.78125 66.40625 
Q 25.390625 66.40625 21.84375 63.234375 
Q 18.3125 60.0625 18.3125 54.390625 
" id="BitstreamVeraSans-Roman-38"/>
      </defs>
      <g transform="translate(394.475625 397.984725)scale(0.12 -0.12)">
       <use xlink:href="#BitstreamVeraSans-Roman-30"/>
       <use x="63.623046875" xlink:href="#BitstreamVeraSans-Roman-2e"/>
       <use x="95.41015625" xlink:href="#BitstreamVeraSans-Roman-38"/>
      </g>
     </g>
    </g>
    <g id="xtick_6">
     <g id="line2d_15">
      <g>
       <use style="stroke:#000000;stroke-width:0.5;" x="493.2975" xlink:href="#m6e84248b64" y="384.8666"/>
      </g>
     </g>
     <g id="line2d_16">
      <g>
       <use style="stroke:#000000;stroke-width:0.5;" x="493.2975" xlink:href="#mec50032847" y="39.2666"/>
      </g>
     </g>
     <g id="text_6">
      <!-- 1.0 -->
      <defs>
       <path d="M 12.40625 8.296875 
L 28.515625 8.296875 
L 28.515625 63.921875 
L 10.984375 60.40625 
L 10.984375 69.390625 
L 28.421875 72.90625 
L 38.28125 72.90625 
L 38.28125 8.296875 
L 54.390625 8.296875 
L 54.390625 0 
L 12.40625 0 
z
" id="BitstreamVeraSans-Roman-31"/>
      </defs>
      <g transform="translate(483.755625 397.984725)scale(0.12 -0.12)">
       <use xlink:href="#BitstreamVeraSans-Roman-31"/>
       <use x="63.623046875" xlink:href="#BitstreamVeraSans-Roman-2e"/>
       <use x="95.41015625" xlink:href="#BitstreamVeraSans-Roman-30"/>
      </g>
     </g>
    </g>
    <g id="text_7">
     <!-- False Positive Rate -->
     <defs>
      <path d="M 18.3125 70.21875 
L 18.3125 54.6875 
L 36.8125 54.6875 
L 36.8125 47.703125 
L 18.3125 47.703125 
L 18.3125 18.015625 
Q 18.3125 11.328125 20.140625 9.421875 
Q 21.96875 7.515625 27.59375 7.515625 
L 36.8125 7.515625 
L 36.8125 0 
L 27.59375 0 
Q 17.1875 0 13.234375 3.875 
Q 9.28125 7.765625 9.28125 18.015625 
L 9.28125 47.703125 
L 2.6875 47.703125 
L 2.6875 54.6875 
L 9.28125 54.6875 
L 9.28125 70.21875 
z
" id="BitstreamVeraSans-Roman-74"/>
      <path d="M 44.390625 34.1875 
Q 47.5625 33.109375 50.5625 29.59375 
Q 53.5625 26.078125 56.59375 19.921875 
L 66.609375 0 
L 56 0 
L 46.6875 18.703125 
Q 43.0625 26.03125 39.671875 28.421875 
Q 36.28125 30.8125 30.421875 30.8125 
L 19.671875 30.8125 
L 19.671875 0 
L 9.8125 0 
L 9.8125 72.90625 
L 32.078125 72.90625 
Q 44.578125 72.90625 50.734375 67.671875 
Q 56.890625 62.453125 56.890625 51.90625 
Q 56.890625 45.015625 53.6875 40.46875 
Q 50.484375 35.9375 44.390625 34.1875 
M 19.671875 64.796875 
L 19.671875 38.921875 
L 32.078125 38.921875 
Q 39.203125 38.921875 42.84375 42.21875 
Q 46.484375 45.515625 46.484375 51.90625 
Q 46.484375 58.296875 42.84375 61.546875 
Q 39.203125 64.796875 32.078125 64.796875 
z
" id="BitstreamVeraSans-Roman-52"/>
      <path d="M 2.984375 54.6875 
L 12.5 54.6875 
L 29.59375 8.796875 
L 46.6875 54.6875 
L 56.203125 54.6875 
L 35.6875 0 
L 23.484375 0 
z
" id="BitstreamVeraSans-Roman-76"/>
      <path d="M 9.8125 72.90625 
L 51.703125 72.90625 
L 51.703125 64.59375 
L 19.671875 64.59375 
L 19.671875 43.109375 
L 48.578125 43.109375 
L 48.578125 34.8125 
L 19.671875 34.8125 
L 19.671875 0 
L 9.8125 0 
z
" id="BitstreamVeraSans-Roman-46"/>
      <path d="M 19.671875 64.796875 
L 19.671875 37.40625 
L 32.078125 37.40625 
Q 38.96875 37.40625 42.71875 40.96875 
Q 46.484375 44.53125 46.484375 51.125 
Q 46.484375 57.671875 42.71875 61.234375 
Q 38.96875 64.796875 32.078125 64.796875 
z
M 9.8125 72.90625 
L 32.078125 72.90625 
Q 44.34375 72.90625 50.609375 67.359375 
Q 56.890625 61.8125 56.890625 51.125 
Q 56.890625 40.328125 50.609375 34.8125 
Q 44.34375 29.296875 32.078125 29.296875 
L 19.671875 29.296875 
L 19.671875 0 
L 9.8125 0 
z
" id="BitstreamVeraSans-Roman-50"/>
      <path d="M 30.609375 48.390625 
Q 23.390625 48.390625 19.1875 42.75 
Q 14.984375 37.109375 14.984375 27.296875 
Q 14.984375 17.484375 19.15625 11.84375 
Q 23.34375 6.203125 30.609375 6.203125 
Q 37.796875 6.203125 41.984375 11.859375 
Q 46.1875 17.53125 46.1875 27.296875 
Q 46.1875 37.015625 41.984375 42.703125 
Q 37.796875 48.390625 30.609375 48.390625 
M 30.609375 56 
Q 42.328125 56 49.015625 48.375 
Q 55.71875 40.765625 55.71875 27.296875 
Q 55.71875 13.875 49.015625 6.21875 
Q 42.328125 -1.421875 30.609375 -1.421875 
Q 18.84375 -1.421875 12.171875 6.21875 
Q 5.515625 13.875 5.515625 27.296875 
Q 5.515625 40.765625 12.171875 48.375 
Q 18.84375 56 30.609375 56 
" id="BitstreamVeraSans-Roman-6f"/>
      <path d="M 44.28125 53.078125 
L 44.28125 44.578125 
Q 40.484375 46.53125 36.375 47.5 
Q 32.28125 48.484375 27.875 48.484375 
Q 21.1875 48.484375 17.84375 46.4375 
Q 14.5 44.390625 14.5 40.28125 
Q 14.5 37.15625 16.890625 35.375 
Q 19.28125 33.59375 26.515625 31.984375 
L 29.59375 31.296875 
Q 39.15625 29.25 43.1875 25.515625 
Q 47.21875 21.78125 47.21875 15.09375 
Q 47.21875 7.46875 41.1875 3.015625 
Q 35.15625 -1.421875 24.609375 -1.421875 
Q 20.21875 -1.421875 15.453125 -0.5625 
Q 10.6875 0.296875 5.421875 2 
L 5.421875 11.28125 
Q 10.40625 8.6875 15.234375 7.390625 
Q 20.0625 6.109375 24.8125 6.109375 
Q 31.15625 6.109375 34.5625 8.28125 
Q 37.984375 10.453125 37.984375 14.40625 
Q 37.984375 18.0625 35.515625 20.015625 
Q 33.0625 21.96875 24.703125 23.78125 
L 21.578125 24.515625 
Q 13.234375 26.265625 9.515625 29.90625 
Q 5.8125 33.546875 5.8125 39.890625 
Q 5.8125 47.609375 11.28125 51.796875 
Q 16.75 56 26.8125 56 
Q 31.78125 56 36.171875 55.265625 
Q 40.578125 54.546875 44.28125 53.078125 
" id="BitstreamVeraSans-Roman-73"/>
      <path id="BitstreamVeraSans-Roman-20"/>
      <path d="M 56.203125 29.59375 
L 56.203125 25.203125 
L 14.890625 25.203125 
Q 15.484375 15.921875 20.484375 11.0625 
Q 25.484375 6.203125 34.421875 6.203125 
Q 39.59375 6.203125 44.453125 7.46875 
Q 49.3125 8.734375 54.109375 11.28125 
L 54.109375 2.78125 
Q 49.265625 0.734375 44.1875 -0.34375 
Q 39.109375 -1.421875 33.890625 -1.421875 
Q 20.796875 -1.421875 13.15625 6.1875 
Q 5.515625 13.8125 5.515625 26.8125 
Q 5.515625 40.234375 12.765625 48.109375 
Q 20.015625 56 32.328125 56 
Q 43.359375 56 49.78125 48.890625 
Q 56.203125 41.796875 56.203125 29.59375 
M 47.21875 32.234375 
Q 47.125 39.59375 43.09375 43.984375 
Q 39.0625 48.390625 32.421875 48.390625 
Q 24.90625 48.390625 20.390625 44.140625 
Q 15.875 39.890625 15.1875 32.171875 
z
" id="BitstreamVeraSans-Roman-65"/>
      <path d="M 9.421875 54.6875 
L 18.40625 54.6875 
L 18.40625 0 
L 9.421875 0 
z
M 9.421875 75.984375 
L 18.40625 75.984375 
L 18.40625 64.59375 
L 9.421875 64.59375 
z
" id="BitstreamVeraSans-Roman-69"/>
      <path d="M 34.28125 27.484375 
Q 23.390625 27.484375 19.1875 25 
Q 14.984375 22.515625 14.984375 16.5 
Q 14.984375 11.71875 18.140625 8.90625 
Q 21.296875 6.109375 26.703125 6.109375 
Q 34.1875 6.109375 38.703125 11.40625 
Q 43.21875 16.703125 43.21875 25.484375 
L 43.21875 27.484375 
z
M 52.203125 31.203125 
L 52.203125 0 
L 43.21875 0 
L 43.21875 8.296875 
Q 40.140625 3.328125 35.546875 0.953125 
Q 30.953125 -1.421875 24.3125 -1.421875 
Q 15.921875 -1.421875 10.953125 3.296875 
Q 6 8.015625 6 15.921875 
Q 6 25.140625 12.171875 29.828125 
Q 18.359375 34.515625 30.609375 34.515625 
L 43.21875 34.515625 
L 43.21875 35.40625 
Q 43.21875 41.609375 39.140625 45 
Q 35.0625 48.390625 27.6875 48.390625 
Q 23 48.390625 18.546875 47.265625 
Q 14.109375 46.140625 10.015625 43.890625 
L 10.015625 52.203125 
Q 14.9375 54.109375 19.578125 55.046875 
Q 24.21875 56 28.609375 56 
Q 40.484375 56 46.34375 49.84375 
Q 52.203125 43.703125 52.203125 31.203125 
" id="BitstreamVeraSans-Roman-61"/>
      <path d="M 9.421875 75.984375 
L 18.40625 75.984375 
L 18.40625 0 
L 9.421875 0 
z
" id="BitstreamVeraSans-Roman-6c"/>
     </defs>
     <g transform="translate(213.4509375 414.598475)scale(0.12 -0.12)">
      <use xlink:href="#BitstreamVeraSans-Roman-46"/>
      <use x="57.37890625" xlink:href="#BitstreamVeraSans-Roman-61"/>
      <use x="118.658203125" xlink:href="#BitstreamVeraSans-Roman-6c"/>
      <use x="146.44140625" xlink:href="#BitstreamVeraSans-Roman-73"/>
      <use x="198.541015625" xlink:href="#BitstreamVeraSans-Roman-65"/>
      <use x="260.064453125" xlink:href="#BitstreamVeraSans-Roman-20"/>
      <use x="291.8515625" xlink:href="#BitstreamVeraSans-Roman-50"/>
      <use x="352.107421875" xlink:href="#BitstreamVeraSans-Roman-6f"/>
      <use x="413.2890625" xlink:href="#BitstreamVeraSans-Roman-73"/>
      <use x="465.388671875" xlink:href="#BitstreamVeraSans-Roman-69"/>
      <use x="493.171875" xlink:href="#BitstreamVeraSans-Roman-74"/>
      <use x="532.380859375" xlink:href="#BitstreamVeraSans-Roman-69"/>
      <use x="560.1640625" xlink:href="#BitstreamVeraSans-Roman-76"/>
      <use x="619.34375" xlink:href="#BitstreamVeraSans-Roman-65"/>
      <use x="680.8671875" xlink:href="#BitstreamVeraSans-Roman-20"/>
      <use x="712.654296875" xlink:href="#BitstreamVeraSans-Roman-52"/>
      <use x="782.10546875" xlink:href="#BitstreamVeraSans-Roman-61"/>
      <use x="843.384765625" xlink:href="#BitstreamVeraSans-Roman-74"/>
      <use x="882.59375" xlink:href="#BitstreamVeraSans-Roman-65"/>
     </g>
    </g>
   </g>
   <g id="matplotlib.axis_2">
    <g id="ytick_1">
     <g id="line2d_17">
      <defs>
       <path d="M 0 0 
L 4 0 
" id="m0c3e1219d0" style="stroke:#000000;stroke-width:0.5;"/>
      </defs>
      <g>
       <use style="stroke:#000000;stroke-width:0.5;" x="46.8975" xlink:href="#m0c3e1219d0" y="384.8666"/>
      </g>
     </g>
     <g id="line2d_18">
      <defs>
       <path d="M 0 0 
L -4 0 
" id="m630aa91f20" style="stroke:#000000;stroke-width:0.5;"/>
      </defs>
      <g>
       <use style="stroke:#000000;stroke-width:0.5;" x="493.2975" xlink:href="#m630aa91f20" y="384.8666"/>
      </g>
     </g>
     <g id="text_8">
      <!-- 0.0 -->
      <g transform="translate(23.81375 388.17785)scale(0.12 -0.12)">
       <use xlink:href="#BitstreamVeraSans-Roman-30"/>
       <use x="63.623046875" xlink:href="#BitstreamVeraSans-Roman-2e"/>
       <use x="95.41015625" xlink:href="#BitstreamVeraSans-Roman-30"/>
      </g>
     </g>
    </g>
    <g id="ytick_2">
     <g id="line2d_19">
      <g>
       <use style="stroke:#000000;stroke-width:0.5;" x="46.8975" xlink:href="#m0c3e1219d0" y="319.038028571"/>
      </g>
     </g>
     <g id="line2d_20">
      <g>
       <use style="stroke:#000000;stroke-width:0.5;" x="493.2975" xlink:href="#m630aa91f20" y="319.038028571"/>
      </g>
     </g>
     <g id="text_9">
      <!-- 0.2 -->
      <g transform="translate(23.81375 322.349278571)scale(0.12 -0.12)">
       <use xlink:href="#BitstreamVeraSans-Roman-30"/>
       <use x="63.623046875" xlink:href="#BitstreamVeraSans-Roman-2e"/>
       <use x="95.41015625" xlink:href="#BitstreamVeraSans-Roman-32"/>
      </g>
     </g>
    </g>
    <g id="ytick_3">
     <g id="line2d_21">
      <g>
       <use style="stroke:#000000;stroke-width:0.5;" x="46.8975" xlink:href="#m0c3e1219d0" y="253.209457143"/>
      </g>
     </g>
     <g id="line2d_22">
      <g>
       <use style="stroke:#000000;stroke-width:0.5;" x="493.2975" xlink:href="#m630aa91f20" y="253.209457143"/>
      </g>
     </g>
     <g id="text_10">
      <!-- 0.4 -->
      <g transform="translate(23.81375 256.520707143)scale(0.12 -0.12)">
       <use xlink:href="#BitstreamVeraSans-Roman-30"/>
       <use x="63.623046875" xlink:href="#BitstreamVeraSans-Roman-2e"/>
       <use x="95.41015625" xlink:href="#BitstreamVeraSans-Roman-34"/>
      </g>
     </g>
    </g>
    <g id="ytick_4">
     <g id="line2d_23">
      <g>
       <use style="stroke:#000000;stroke-width:0.5;" x="46.8975" xlink:href="#m0c3e1219d0" y="187.380885714"/>
      </g>
     </g>
     <g id="line2d_24">
      <g>
       <use style="stroke:#000000;stroke-width:0.5;" x="493.2975" xlink:href="#m630aa91f20" y="187.380885714"/>
      </g>
     </g>
     <g id="text_11">
      <!-- 0.6 -->
      <g transform="translate(23.81375 190.692135714)scale(0.12 -0.12)">
       <use xlink:href="#BitstreamVeraSans-Roman-30"/>
       <use x="63.623046875" xlink:href="#BitstreamVeraSans-Roman-2e"/>
       <use x="95.41015625" xlink:href="#BitstreamVeraSans-Roman-36"/>
      </g>
     </g>
    </g>
    <g id="ytick_5">
     <g id="line2d_25">
      <g>
       <use style="stroke:#000000;stroke-width:0.5;" x="46.8975" xlink:href="#m0c3e1219d0" y="121.552314286"/>
      </g>
     </g>
     <g id="line2d_26">
      <g>
       <use style="stroke:#000000;stroke-width:0.5;" x="493.2975" xlink:href="#m630aa91f20" y="121.552314286"/>
      </g>
     </g>
     <g id="text_12">
      <!-- 0.8 -->
      <g transform="translate(23.81375 124.863564286)scale(0.12 -0.12)">
       <use xlink:href="#BitstreamVeraSans-Roman-30"/>
       <use x="63.623046875" xlink:href="#BitstreamVeraSans-Roman-2e"/>
       <use x="95.41015625" xlink:href="#BitstreamVeraSans-Roman-38"/>
      </g>
     </g>
    </g>
    <g id="ytick_6">
     <g id="line2d_27">
      <g>
       <use style="stroke:#000000;stroke-width:0.5;" x="46.8975" xlink:href="#m0c3e1219d0" y="55.7237428571"/>
      </g>
     </g>
     <g id="line2d_28">
      <g>
       <use style="stroke:#000000;stroke-width:0.5;" x="493.2975" xlink:href="#m630aa91f20" y="55.7237428571"/>
      </g>
     </g>
     <g id="text_13">
      <!-- 1.0 -->
      <g transform="translate(23.81375 59.0349928571)scale(0.12 -0.12)">
       <use xlink:href="#BitstreamVeraSans-Roman-31"/>
       <use x="63.623046875" xlink:href="#BitstreamVeraSans-Roman-2e"/>
       <use x="95.41015625" xlink:href="#BitstreamVeraSans-Roman-30"/>
      </g>
     </g>
    </g>
    <g id="text_14">
     <!-- True Positive Rate -->
     <defs>
      <path d="M -0.296875 72.90625 
L 61.375 72.90625 
L 61.375 64.59375 
L 35.5 64.59375 
L 35.5 0 
L 25.59375 0 
L 25.59375 64.59375 
L -0.296875 64.59375 
z
" id="BitstreamVeraSans-Roman-54"/>
      <path d="M 8.5 21.578125 
L 8.5 54.6875 
L 17.484375 54.6875 
L 17.484375 21.921875 
Q 17.484375 14.15625 20.5 10.265625 
Q 23.53125 6.390625 29.59375 6.390625 
Q 36.859375 6.390625 41.078125 11.03125 
Q 45.3125 15.671875 45.3125 23.6875 
L 45.3125 54.6875 
L 54.296875 54.6875 
L 54.296875 0 
L 45.3125 0 
L 45.3125 8.40625 
Q 42.046875 3.421875 37.71875 1 
Q 33.40625 -1.421875 27.6875 -1.421875 
Q 18.265625 -1.421875 13.375 4.4375 
Q 8.5 10.296875 8.5 21.578125 
" id="BitstreamVeraSans-Roman-75"/>
      <path d="M 41.109375 46.296875 
Q 39.59375 47.171875 37.8125 47.578125 
Q 36.03125 48 33.890625 48 
Q 26.265625 48 22.1875 43.046875 
Q 18.109375 38.09375 18.109375 28.8125 
L 18.109375 0 
L 9.078125 0 
L 9.078125 54.6875 
L 18.109375 54.6875 
L 18.109375 46.1875 
Q 20.953125 51.171875 25.484375 53.578125 
Q 30.03125 56 36.53125 56 
Q 37.453125 56 38.578125 55.875 
Q 39.703125 55.765625 41.0625 55.515625 
z
" id="BitstreamVeraSans-Roman-72"/>
     </defs>
     <g transform="translate(16.318125 266.7219125)rotate(-90.0)scale(0.12 -0.12)">
      <use xlink:href="#BitstreamVeraSans-Roman-54"/>
      <use x="60.865234375" xlink:href="#BitstreamVeraSans-Roman-72"/>
      <use x="101.978515625" xlink:href="#BitstreamVeraSans-Roman-75"/>
      <use x="165.357421875" xlink:href="#BitstreamVeraSans-Roman-65"/>
      <use x="226.880859375" xlink:href="#BitstreamVeraSans-Roman-20"/>
      <use x="258.66796875" xlink:href="#BitstreamVeraSans-Roman-50"/>
      <use x="318.923828125" xlink:href="#BitstreamVeraSans-Roman-6f"/>
      <use x="380.10546875" xlink:href="#BitstreamVeraSans-Roman-73"/>
      <use x="432.205078125" xlink:href="#BitstreamVeraSans-Roman-69"/>
      <use x="459.98828125" xlink:href="#BitstreamVeraSans-Roman-74"/>
      <use x="499.197265625" xlink:href="#BitstreamVeraSans-Roman-69"/>
      <use x="526.98046875" xlink:href="#BitstreamVeraSans-Roman-76"/>
      <use x="586.16015625" xlink:href="#BitstreamVeraSans-Roman-65"/>
      <use x="647.68359375" xlink:href="#BitstreamVeraSans-Roman-20"/>
      <use x="679.470703125" xlink:href="#BitstreamVeraSans-Roman-52"/>
      <use x="748.921875" xlink:href="#BitstreamVeraSans-Roman-61"/>
      <use x="810.201171875" xlink:href="#BitstreamVeraSans-Roman-74"/>
      <use x="849.41015625" xlink:href="#BitstreamVeraSans-Roman-65"/>
     </g>
    </g>
   </g>
   <g id="text_15">
    <!-- ROC Curve GradientBoosting + RandomOverSampler -->
    <defs>
     <path d="M 53.515625 70.515625 
L 53.515625 60.890625 
Q 47.90625 63.578125 42.921875 64.890625 
Q 37.9375 66.21875 33.296875 66.21875 
Q 25.25 66.21875 20.875 63.09375 
Q 16.5 59.96875 16.5 54.203125 
Q 16.5 49.359375 19.40625 46.890625 
Q 22.3125 44.4375 30.421875 42.921875 
L 36.375 41.703125 
Q 47.40625 39.59375 52.65625 34.296875 
Q 57.90625 29 57.90625 20.125 
Q 57.90625 9.515625 50.796875 4.046875 
Q 43.703125 -1.421875 29.984375 -1.421875 
Q 24.8125 -1.421875 18.96875 -0.25 
Q 13.140625 0.921875 6.890625 3.21875 
L 6.890625 13.375 
Q 12.890625 10.015625 18.65625 8.296875 
Q 24.421875 6.59375 29.984375 6.59375 
Q 38.421875 6.59375 43.015625 9.90625 
Q 47.609375 13.234375 47.609375 19.390625 
Q 47.609375 24.75 44.3125 27.78125 
Q 41.015625 30.8125 33.5 32.328125 
L 27.484375 33.5 
Q 16.453125 35.6875 11.515625 40.375 
Q 6.59375 45.0625 6.59375 53.421875 
Q 6.59375 63.09375 13.40625 68.65625 
Q 20.21875 74.21875 32.171875 74.21875 
Q 37.3125 74.21875 42.625 73.28125 
Q 47.953125 72.359375 53.515625 70.515625 
" id="BitstreamVeraSans-Roman-53"/>
     <path d="M 45.40625 46.390625 
L 45.40625 75.984375 
L 54.390625 75.984375 
L 54.390625 0 
L 45.40625 0 
L 45.40625 8.203125 
Q 42.578125 3.328125 38.25 0.953125 
Q 33.9375 -1.421875 27.875 -1.421875 
Q 17.96875 -1.421875 11.734375 6.484375 
Q 5.515625 14.40625 5.515625 27.296875 
Q 5.515625 40.1875 11.734375 48.09375 
Q 17.96875 56 27.875 56 
Q 33.9375 56 38.25 53.625 
Q 42.578125 51.265625 45.40625 46.390625 
M 14.796875 27.296875 
Q 14.796875 17.390625 18.875 11.75 
Q 22.953125 6.109375 30.078125 6.109375 
Q 37.203125 6.109375 41.296875 11.75 
Q 45.40625 17.390625 45.40625 27.296875 
Q 45.40625 37.203125 41.296875 42.84375 
Q 37.203125 48.484375 30.078125 48.484375 
Q 22.953125 48.484375 18.875 42.84375 
Q 14.796875 37.203125 14.796875 27.296875 
" id="BitstreamVeraSans-Roman-64"/>
     <path d="M 18.109375 8.203125 
L 18.109375 -20.796875 
L 9.078125 -20.796875 
L 9.078125 54.6875 
L 18.109375 54.6875 
L 18.109375 46.390625 
Q 20.953125 51.265625 25.265625 53.625 
Q 29.59375 56 35.59375 56 
Q 45.5625 56 51.78125 48.09375 
Q 58.015625 40.1875 58.015625 27.296875 
Q 58.015625 14.40625 51.78125 6.484375 
Q 45.5625 -1.421875 35.59375 -1.421875 
Q 29.59375 -1.421875 25.265625 0.953125 
Q 20.953125 3.328125 18.109375 8.203125 
M 48.6875 27.296875 
Q 48.6875 37.203125 44.609375 42.84375 
Q 40.53125 48.484375 33.40625 48.484375 
Q 26.265625 48.484375 22.1875 42.84375 
Q 18.109375 37.203125 18.109375 27.296875 
Q 18.109375 17.390625 22.1875 11.75 
Q 26.265625 6.109375 33.40625 6.109375 
Q 40.53125 6.109375 44.609375 11.75 
Q 48.6875 17.390625 48.6875 27.296875 
" id="BitstreamVeraSans-Roman-70"/>
     <path d="M 59.515625 10.40625 
L 59.515625 29.984375 
L 43.40625 29.984375 
L 43.40625 38.09375 
L 69.28125 38.09375 
L 69.28125 6.78125 
Q 63.578125 2.734375 56.6875 0.65625 
Q 49.8125 -1.421875 42 -1.421875 
Q 24.90625 -1.421875 15.25 8.5625 
Q 5.609375 18.5625 5.609375 36.375 
Q 5.609375 54.25 15.25 64.234375 
Q 24.90625 74.21875 42 74.21875 
Q 49.125 74.21875 55.546875 72.453125 
Q 61.96875 70.703125 67.390625 67.28125 
L 67.390625 56.78125 
Q 61.921875 61.421875 55.765625 63.765625 
Q 49.609375 66.109375 42.828125 66.109375 
Q 29.4375 66.109375 22.71875 58.640625 
Q 16.015625 51.171875 16.015625 36.375 
Q 16.015625 21.625 22.71875 14.15625 
Q 29.4375 6.6875 42.828125 6.6875 
Q 48.046875 6.6875 52.140625 7.59375 
Q 56.25 8.5 59.515625 10.40625 
" id="BitstreamVeraSans-Roman-47"/>
     <path d="M 52 44.1875 
Q 55.375 50.25 60.0625 53.125 
Q 64.75 56 71.09375 56 
Q 79.640625 56 84.28125 50.015625 
Q 88.921875 44.046875 88.921875 33.015625 
L 88.921875 0 
L 79.890625 0 
L 79.890625 32.71875 
Q 79.890625 40.578125 77.09375 44.375 
Q 74.3125 48.1875 68.609375 48.1875 
Q 61.625 48.1875 57.5625 43.546875 
Q 53.515625 38.921875 53.515625 30.90625 
L 53.515625 0 
L 44.484375 0 
L 44.484375 32.71875 
Q 44.484375 40.625 41.703125 44.40625 
Q 38.921875 48.1875 33.109375 48.1875 
Q 26.21875 48.1875 22.15625 43.53125 
Q 18.109375 38.875 18.109375 30.90625 
L 18.109375 0 
L 9.078125 0 
L 9.078125 54.6875 
L 18.109375 54.6875 
L 18.109375 46.1875 
Q 21.1875 51.21875 25.484375 53.609375 
Q 29.78125 56 35.6875 56 
Q 41.65625 56 45.828125 52.96875 
Q 50 49.953125 52 44.1875 
" id="BitstreamVeraSans-Roman-6d"/>
     <path d="M 19.671875 34.8125 
L 19.671875 8.109375 
L 35.5 8.109375 
Q 43.453125 8.109375 47.28125 11.40625 
Q 51.125 14.703125 51.125 21.484375 
Q 51.125 28.328125 47.28125 31.5625 
Q 43.453125 34.8125 35.5 34.8125 
z
M 19.671875 64.796875 
L 19.671875 42.828125 
L 34.28125 42.828125 
Q 41.5 42.828125 45.03125 45.53125 
Q 48.578125 48.25 48.578125 53.8125 
Q 48.578125 59.328125 45.03125 62.0625 
Q 41.5 64.796875 34.28125 64.796875 
z
M 9.8125 72.90625 
L 35.015625 72.90625 
Q 46.296875 72.90625 52.390625 68.21875 
Q 58.5 63.53125 58.5 54.890625 
Q 58.5 48.1875 55.375 44.234375 
Q 52.25 40.28125 46.1875 39.3125 
Q 53.46875 37.75 57.5 32.78125 
Q 61.53125 27.828125 61.53125 20.40625 
Q 61.53125 10.640625 54.890625 5.3125 
Q 48.25 0 35.984375 0 
L 9.8125 0 
z
" id="BitstreamVeraSans-Roman-42"/>
     <path d="M 54.890625 33.015625 
L 54.890625 0 
L 45.90625 0 
L 45.90625 32.71875 
Q 45.90625 40.484375 42.875 44.328125 
Q 39.84375 48.1875 33.796875 48.1875 
Q 26.515625 48.1875 22.3125 43.546875 
Q 18.109375 38.921875 18.109375 30.90625 
L 18.109375 0 
L 9.078125 0 
L 9.078125 54.6875 
L 18.109375 54.6875 
L 18.109375 46.1875 
Q 21.34375 51.125 25.703125 53.5625 
Q 30.078125 56 35.796875 56 
Q 45.21875 56 50.046875 50.171875 
Q 54.890625 44.34375 54.890625 33.015625 
" id="BitstreamVeraSans-Roman-6e"/>
     <path d="M 64.40625 67.28125 
L 64.40625 56.890625 
Q 59.421875 61.53125 53.78125 63.8125 
Q 48.140625 66.109375 41.796875 66.109375 
Q 29.296875 66.109375 22.65625 58.46875 
Q 16.015625 50.828125 16.015625 36.375 
Q 16.015625 21.96875 22.65625 14.328125 
Q 29.296875 6.6875 41.796875 6.6875 
Q 48.140625 6.6875 53.78125 8.984375 
Q 59.421875 11.28125 64.40625 15.921875 
L 64.40625 5.609375 
Q 59.234375 2.09375 53.4375 0.328125 
Q 47.65625 -1.421875 41.21875 -1.421875 
Q 24.65625 -1.421875 15.125 8.703125 
Q 5.609375 18.84375 5.609375 36.375 
Q 5.609375 53.953125 15.125 64.078125 
Q 24.65625 74.21875 41.21875 74.21875 
Q 47.75 74.21875 53.53125 72.484375 
Q 59.328125 70.75 64.40625 67.28125 
" id="BitstreamVeraSans-Roman-43"/>
     <path d="M 39.40625 66.21875 
Q 28.65625 66.21875 22.328125 58.203125 
Q 16.015625 50.203125 16.015625 36.375 
Q 16.015625 22.609375 22.328125 14.59375 
Q 28.65625 6.59375 39.40625 6.59375 
Q 50.140625 6.59375 56.421875 14.59375 
Q 62.703125 22.609375 62.703125 36.375 
Q 62.703125 50.203125 56.421875 58.203125 
Q 50.140625 66.21875 39.40625 66.21875 
M 39.40625 74.21875 
Q 54.734375 74.21875 63.90625 63.9375 
Q 73.09375 53.65625 73.09375 36.375 
Q 73.09375 19.140625 63.90625 8.859375 
Q 54.734375 -1.421875 39.40625 -1.421875 
Q 24.03125 -1.421875 14.8125 8.828125 
Q 5.609375 19.09375 5.609375 36.375 
Q 5.609375 53.65625 14.8125 63.9375 
Q 24.03125 74.21875 39.40625 74.21875 
" id="BitstreamVeraSans-Roman-4f"/>
     <path d="M 45.40625 27.984375 
Q 45.40625 37.75 41.375 43.109375 
Q 37.359375 48.484375 30.078125 48.484375 
Q 22.859375 48.484375 18.828125 43.109375 
Q 14.796875 37.75 14.796875 27.984375 
Q 14.796875 18.265625 18.828125 12.890625 
Q 22.859375 7.515625 30.078125 7.515625 
Q 37.359375 7.515625 41.375 12.890625 
Q 45.40625 18.265625 45.40625 27.984375 
M 54.390625 6.78125 
Q 54.390625 -7.171875 48.1875 -13.984375 
Q 42 -20.796875 29.203125 -20.796875 
Q 24.46875 -20.796875 20.265625 -20.09375 
Q 16.0625 -19.390625 12.109375 -17.921875 
L 12.109375 -9.1875 
Q 16.0625 -11.328125 19.921875 -12.34375 
Q 23.78125 -13.375 27.78125 -13.375 
Q 36.625 -13.375 41.015625 -8.765625 
Q 45.40625 -4.15625 45.40625 5.171875 
L 45.40625 9.625 
Q 42.625 4.78125 38.28125 2.390625 
Q 33.9375 0 27.875 0 
Q 17.828125 0 11.671875 7.65625 
Q 5.515625 15.328125 5.515625 27.984375 
Q 5.515625 40.671875 11.671875 48.328125 
Q 17.828125 56 27.875 56 
Q 33.9375 56 38.28125 53.609375 
Q 42.625 51.21875 45.40625 46.390625 
L 45.40625 54.6875 
L 54.390625 54.6875 
z
" id="BitstreamVeraSans-Roman-67"/>
     <path d="M 46 62.703125 
L 46 35.5 
L 73.1875 35.5 
L 73.1875 27.203125 
L 46 27.203125 
L 46 0 
L 37.796875 0 
L 37.796875 27.203125 
L 10.59375 27.203125 
L 10.59375 35.5 
L 37.796875 35.5 
L 37.796875 62.703125 
z
" id="BitstreamVeraSans-Roman-2b"/>
    </defs>
    <g transform="translate(77.93175 18.14175)scale(0.144 -0.144)">
     <use xlink:href="#BitstreamVeraSans-Roman-52"/>
     <use x="69.482421875" xlink:href="#BitstreamVeraSans-Roman-4f"/>
     <use x="148.193359375" xlink:href="#BitstreamVeraSans-Roman-43"/>
     <use x="218.017578125" xlink:href="#BitstreamVeraSans-Roman-20"/>
     <use x="249.8046875" xlink:href="#BitstreamVeraSans-Roman-43"/>
     <use x="319.62890625" xlink:href="#BitstreamVeraSans-Roman-75"/>
     <use x="383.0078125" xlink:href="#BitstreamVeraSans-Roman-72"/>
     <use x="424.12109375" xlink:href="#BitstreamVeraSans-Roman-76"/>
     <use x="483.30078125" xlink:href="#BitstreamVeraSans-Roman-65"/>
     <use x="544.82421875" xlink:href="#BitstreamVeraSans-Roman-20"/>
     <use x="576.611328125" xlink:href="#BitstreamVeraSans-Roman-47"/>
     <use x="654.1015625" xlink:href="#BitstreamVeraSans-Roman-72"/>
     <use x="695.21484375" xlink:href="#BitstreamVeraSans-Roman-61"/>
     <use x="756.494140625" xlink:href="#BitstreamVeraSans-Roman-64"/>
     <use x="819.970703125" xlink:href="#BitstreamVeraSans-Roman-69"/>
     <use x="847.75390625" xlink:href="#BitstreamVeraSans-Roman-65"/>
     <use x="909.27734375" xlink:href="#BitstreamVeraSans-Roman-6e"/>
     <use x="972.65625" xlink:href="#BitstreamVeraSans-Roman-74"/>
     <use x="1011.865234375" xlink:href="#BitstreamVeraSans-Roman-42"/>
     <use x="1080.46875" xlink:href="#BitstreamVeraSans-Roman-6f"/>
     <use x="1141.650390625" xlink:href="#BitstreamVeraSans-Roman-6f"/>
     <use x="1202.83203125" xlink:href="#BitstreamVeraSans-Roman-73"/>
     <use x="1254.931640625" xlink:href="#BitstreamVeraSans-Roman-74"/>
     <use x="1294.140625" xlink:href="#BitstreamVeraSans-Roman-69"/>
     <use x="1321.923828125" xlink:href="#BitstreamVeraSans-Roman-6e"/>
     <use x="1385.302734375" xlink:href="#BitstreamVeraSans-Roman-67"/>
     <use x="1448.779296875" xlink:href="#BitstreamVeraSans-Roman-20"/>
     <use x="1480.56640625" xlink:href="#BitstreamVeraSans-Roman-2b"/>
     <use x="1564.35546875" xlink:href="#BitstreamVeraSans-Roman-20"/>
     <use x="1596.142578125" xlink:href="#BitstreamVeraSans-Roman-52"/>
     <use x="1665.59375" xlink:href="#BitstreamVeraSans-Roman-61"/>
     <use x="1726.873046875" xlink:href="#BitstreamVeraSans-Roman-6e"/>
     <use x="1790.251953125" xlink:href="#BitstreamVeraSans-Roman-64"/>
     <use x="1853.728515625" xlink:href="#BitstreamVeraSans-Roman-6f"/>
     <use x="1914.91015625" xlink:href="#BitstreamVeraSans-Roman-6d"/>
     <use x="2012.322265625" xlink:href="#BitstreamVeraSans-Roman-4f"/>
     <use x="2091.033203125" xlink:href="#BitstreamVeraSans-Roman-76"/>
     <use x="2150.212890625" xlink:href="#BitstreamVeraSans-Roman-65"/>
     <use x="2211.736328125" xlink:href="#BitstreamVeraSans-Roman-72"/>
     <use x="2252.849609375" xlink:href="#BitstreamVeraSans-Roman-53"/>
     <use x="2316.326171875" xlink:href="#BitstreamVeraSans-Roman-61"/>
     <use x="2377.60546875" xlink:href="#BitstreamVeraSans-Roman-6d"/>
     <use x="2475.017578125" xlink:href="#BitstreamVeraSans-Roman-70"/>
     <use x="2538.494140625" xlink:href="#BitstreamVeraSans-Roman-6c"/>
     <use x="2566.27734375" xlink:href="#BitstreamVeraSans-Roman-65"/>
     <use x="2627.80078125" xlink:href="#BitstreamVeraSans-Roman-72"/>
    </g>
    <!-- Train: [1, 4, 8, 12, 16, 20, 24]   Test: [1, 4, 8, 12, 16, 20, 24] -->
    <defs>
     <path d="M 8.59375 75.984375 
L 29.296875 75.984375 
L 29.296875 69 
L 17.578125 69 
L 17.578125 -6.203125 
L 29.296875 -6.203125 
L 29.296875 -13.1875 
L 8.59375 -13.1875 
z
" id="BitstreamVeraSans-Roman-5b"/>
     <path d="M 11.71875 12.40625 
L 22.015625 12.40625 
L 22.015625 0 
L 11.71875 0 
z
M 11.71875 51.703125 
L 22.015625 51.703125 
L 22.015625 39.3125 
L 11.71875 39.3125 
z
" id="BitstreamVeraSans-Roman-3a"/>
     <path d="M 11.71875 12.40625 
L 22.015625 12.40625 
L 22.015625 4 
L 14.015625 -11.625 
L 7.71875 -11.625 
L 11.71875 4 
z
" id="BitstreamVeraSans-Roman-2c"/>
     <path d="M 30.421875 75.984375 
L 30.421875 -13.1875 
L 9.71875 -13.1875 
L 9.71875 -6.203125 
L 21.390625 -6.203125 
L 21.390625 69 
L 9.71875 69 
L 9.71875 75.984375 
z
" id="BitstreamVeraSans-Roman-5d"/>
    </defs>
    <g transform="translate(53.169375 34.2666)scale(0.144 -0.144)">
     <use xlink:href="#BitstreamVeraSans-Roman-54"/>
     <use x="60.865234375" xlink:href="#BitstreamVeraSans-Roman-72"/>
     <use x="101.978515625" xlink:href="#BitstreamVeraSans-Roman-61"/>
     <use x="163.2578125" xlink:href="#BitstreamVeraSans-Roman-69"/>
     <use x="191.041015625" xlink:href="#BitstreamVeraSans-Roman-6e"/>
     <use x="254.419921875" xlink:href="#BitstreamVeraSans-Roman-3a"/>
     <use x="288.111328125" xlink:href="#BitstreamVeraSans-Roman-20"/>
     <use x="319.8984375" xlink:href="#BitstreamVeraSans-Roman-5b"/>
     <use x="358.912109375" xlink:href="#BitstreamVeraSans-Roman-31"/>
     <use x="422.53515625" xlink:href="#BitstreamVeraSans-Roman-2c"/>
     <use x="454.322265625" xlink:href="#BitstreamVeraSans-Roman-20"/>
     <use x="486.109375" xlink:href="#BitstreamVeraSans-Roman-34"/>
     <use x="549.732421875" xlink:href="#BitstreamVeraSans-Roman-2c"/>
     <use x="581.51953125" xlink:href="#BitstreamVeraSans-Roman-20"/>
     <use x="613.306640625" xlink:href="#BitstreamVeraSans-Roman-38"/>
     <use x="676.9296875" xlink:href="#BitstreamVeraSans-Roman-2c"/>
     <use x="708.716796875" xlink:href="#BitstreamVeraSans-Roman-20"/>
     <use x="740.50390625" xlink:href="#BitstreamVeraSans-Roman-31"/>
     <use x="804.126953125" xlink:href="#BitstreamVeraSans-Roman-32"/>
     <use x="867.75" xlink:href="#BitstreamVeraSans-Roman-2c"/>
     <use x="899.537109375" xlink:href="#BitstreamVeraSans-Roman-20"/>
     <use x="931.32421875" xlink:href="#BitstreamVeraSans-Roman-31"/>
     <use x="994.947265625" xlink:href="#BitstreamVeraSans-Roman-36"/>
     <use x="1058.5703125" xlink:href="#BitstreamVeraSans-Roman-2c"/>
     <use x="1090.357421875" xlink:href="#BitstreamVeraSans-Roman-20"/>
     <use x="1122.14453125" xlink:href="#BitstreamVeraSans-Roman-32"/>
     <use x="1185.767578125" xlink:href="#BitstreamVeraSans-Roman-30"/>
     <use x="1249.390625" xlink:href="#BitstreamVeraSans-Roman-2c"/>
     <use x="1281.177734375" xlink:href="#BitstreamVeraSans-Roman-20"/>
     <use x="1312.96484375" xlink:href="#BitstreamVeraSans-Roman-32"/>
     <use x="1376.587890625" xlink:href="#BitstreamVeraSans-Roman-34"/>
     <use x="1440.2109375" xlink:href="#BitstreamVeraSans-Roman-5d"/>
     <use x="1479.224609375" xlink:href="#BitstreamVeraSans-Roman-20"/>
     <use x="1511.01171875" xlink:href="#BitstreamVeraSans-Roman-20"/>
     <use x="1542.798828125" xlink:href="#BitstreamVeraSans-Roman-20"/>
     <use x="1574.5859375" xlink:href="#BitstreamVeraSans-Roman-54"/>
     <use x="1635.404296875" xlink:href="#BitstreamVeraSans-Roman-65"/>
     <use x="1696.927734375" xlink:href="#BitstreamVeraSans-Roman-73"/>
     <use x="1749.02734375" xlink:href="#BitstreamVeraSans-Roman-74"/>
     <use x="1788.236328125" xlink:href="#BitstreamVeraSans-Roman-3a"/>
     <use x="1821.927734375" xlink:href="#BitstreamVeraSans-Roman-20"/>
     <use x="1853.71484375" xlink:href="#BitstreamVeraSans-Roman-5b"/>
     <use x="1892.728515625" xlink:href="#BitstreamVeraSans-Roman-31"/>
     <use x="1956.3515625" xlink:href="#BitstreamVeraSans-Roman-2c"/>
     <use x="1988.138671875" xlink:href="#BitstreamVeraSans-Roman-20"/>
     <use x="2019.92578125" xlink:href="#BitstreamVeraSans-Roman-34"/>
     <use x="2083.548828125" xlink:href="#BitstreamVeraSans-Roman-2c"/>
     <use x="2115.3359375" xlink:href="#BitstreamVeraSans-Roman-20"/>
     <use x="2147.123046875" xlink:href="#BitstreamVeraSans-Roman-38"/>
     <use x="2210.74609375" xlink:href="#BitstreamVeraSans-Roman-2c"/>
     <use x="2242.533203125" xlink:href="#BitstreamVeraSans-Roman-20"/>
     <use x="2274.3203125" xlink:href="#BitstreamVeraSans-Roman-31"/>
     <use x="2337.943359375" xlink:href="#BitstreamVeraSans-Roman-32"/>
     <use x="2401.56640625" xlink:href="#BitstreamVeraSans-Roman-2c"/>
     <use x="2433.353515625" xlink:href="#BitstreamVeraSans-Roman-20"/>
     <use x="2465.140625" xlink:href="#BitstreamVeraSans-Roman-31"/>
     <use x="2528.763671875" xlink:href="#BitstreamVeraSans-Roman-36"/>
     <use x="2592.38671875" xlink:href="#BitstreamVeraSans-Roman-2c"/>
     <use x="2624.173828125" xlink:href="#BitstreamVeraSans-Roman-20"/>
     <use x="2655.9609375" xlink:href="#BitstreamVeraSans-Roman-32"/>
     <use x="2719.583984375" xlink:href="#BitstreamVeraSans-Roman-30"/>
     <use x="2783.20703125" xlink:href="#BitstreamVeraSans-Roman-2c"/>
     <use x="2814.994140625" xlink:href="#BitstreamVeraSans-Roman-20"/>
     <use x="2846.78125" xlink:href="#BitstreamVeraSans-Roman-32"/>
     <use x="2910.404296875" xlink:href="#BitstreamVeraSans-Roman-34"/>
     <use x="2974.02734375" xlink:href="#BitstreamVeraSans-Roman-5d"/>
    </g>
   </g>
   <g id="legend_1">
    <g id="patch_7">
     <path d="M 180.46425 377.6666 
L 486.0975 377.6666 
L 486.0975 309.9371 
L 180.46425 309.9371 
z
" style="fill:#ffffff;stroke:#000000;stroke-linejoin:miter;"/>
    </g>
    <g id="line2d_29">
     <path d="M 190.54425 321.59885 
L 210.70425 321.59885 
" style="fill:none;stroke:#0000ff;stroke-linecap:square;"/>
    </g>
    <g id="line2d_30"/>
    <g id="text_16">
     <!-- cometROC curve - 0 (AUC = 0.927) -->
     <defs>
      <path d="M 34.1875 63.1875 
L 20.796875 26.90625 
L 47.609375 26.90625 
z
M 28.609375 72.90625 
L 39.796875 72.90625 
L 67.578125 0 
L 57.328125 0 
L 50.6875 18.703125 
L 17.828125 18.703125 
L 11.1875 0 
L 0.78125 0 
z
" id="BitstreamVeraSans-Roman-41"/>
      <path d="M 8.015625 75.875 
L 15.828125 75.875 
Q 23.140625 64.359375 26.78125 53.3125 
Q 30.421875 42.28125 30.421875 31.390625 
Q 30.421875 20.453125 26.78125 9.375 
Q 23.140625 -1.703125 15.828125 -13.1875 
L 8.015625 -13.1875 
Q 14.5 -2 17.703125 9.0625 
Q 20.90625 20.125 20.90625 31.390625 
Q 20.90625 42.671875 17.703125 53.65625 
Q 14.5 64.65625 8.015625 75.875 
" id="BitstreamVeraSans-Roman-29"/>
      <path d="M 31 75.875 
Q 24.46875 64.65625 21.28125 53.65625 
Q 18.109375 42.671875 18.109375 31.390625 
Q 18.109375 20.125 21.3125 9.0625 
Q 24.515625 -2 31 -13.1875 
L 23.1875 -13.1875 
Q 15.875 -1.703125 12.234375 9.375 
Q 8.59375 20.453125 8.59375 31.390625 
Q 8.59375 42.28125 12.203125 53.3125 
Q 15.828125 64.359375 23.1875 75.875 
z
" id="BitstreamVeraSans-Roman-28"/>
      <path d="M 8.6875 72.90625 
L 18.609375 72.90625 
L 18.609375 28.609375 
Q 18.609375 16.890625 22.84375 11.734375 
Q 27.09375 6.59375 36.625 6.59375 
Q 46.09375 6.59375 50.34375 11.734375 
Q 54.59375 16.890625 54.59375 28.609375 
L 54.59375 72.90625 
L 64.5 72.90625 
L 64.5 27.390625 
Q 64.5 13.140625 57.4375 5.859375 
Q 50.390625 -1.421875 36.625 -1.421875 
Q 22.796875 -1.421875 15.734375 5.859375 
Q 8.6875 13.140625 8.6875 27.390625 
z
" id="BitstreamVeraSans-Roman-55"/>
      <path d="M 48.78125 52.59375 
L 48.78125 44.1875 
Q 44.96875 46.296875 41.140625 47.34375 
Q 37.3125 48.390625 33.40625 48.390625 
Q 24.65625 48.390625 19.8125 42.84375 
Q 14.984375 37.3125 14.984375 27.296875 
Q 14.984375 17.28125 19.8125 11.734375 
Q 24.65625 6.203125 33.40625 6.203125 
Q 37.3125 6.203125 41.140625 7.25 
Q 44.96875 8.296875 48.78125 10.40625 
L 48.78125 2.09375 
Q 45.015625 0.34375 40.984375 -0.53125 
Q 36.96875 -1.421875 32.421875 -1.421875 
Q 20.0625 -1.421875 12.78125 6.34375 
Q 5.515625 14.109375 5.515625 27.296875 
Q 5.515625 40.671875 12.859375 48.328125 
Q 20.21875 56 33.015625 56 
Q 37.15625 56 41.109375 55.140625 
Q 45.0625 54.296875 48.78125 52.59375 
" id="BitstreamVeraSans-Roman-63"/>
      <path d="M 10.984375 1.515625 
L 10.984375 10.5 
Q 14.703125 8.734375 18.5 7.8125 
Q 22.3125 6.890625 25.984375 6.890625 
Q 35.75 6.890625 40.890625 13.453125 
Q 46.046875 20.015625 46.78125 33.40625 
Q 43.953125 29.203125 39.59375 26.953125 
Q 35.25 24.703125 29.984375 24.703125 
Q 19.046875 24.703125 12.671875 31.3125 
Q 6.296875 37.9375 6.296875 49.421875 
Q 6.296875 60.640625 12.9375 67.421875 
Q 19.578125 74.21875 30.609375 74.21875 
Q 43.265625 74.21875 49.921875 64.515625 
Q 56.59375 54.828125 56.59375 36.375 
Q 56.59375 19.140625 48.40625 8.859375 
Q 40.234375 -1.421875 26.421875 -1.421875 
Q 22.703125 -1.421875 18.890625 -0.6875 
Q 15.09375 0.046875 10.984375 1.515625 
M 30.609375 32.421875 
Q 37.25 32.421875 41.125 36.953125 
Q 45.015625 41.5 45.015625 49.421875 
Q 45.015625 57.28125 41.125 61.84375 
Q 37.25 66.40625 30.609375 66.40625 
Q 23.96875 66.40625 20.09375 61.84375 
Q 16.21875 57.28125 16.21875 49.421875 
Q 16.21875 41.5 20.09375 36.953125 
Q 23.96875 32.421875 30.609375 32.421875 
" id="BitstreamVeraSans-Roman-39"/>
      <path d="M 8.203125 72.90625 
L 55.078125 72.90625 
L 55.078125 68.703125 
L 28.609375 0 
L 18.3125 0 
L 43.21875 64.59375 
L 8.203125 64.59375 
z
" id="BitstreamVeraSans-Roman-37"/>
      <path d="M 10.59375 45.40625 
L 73.1875 45.40625 
L 73.1875 37.203125 
L 10.59375 37.203125 
z
M 10.59375 25.484375 
L 73.1875 25.484375 
L 73.1875 17.1875 
L 10.59375 17.1875 
z
" id="BitstreamVeraSans-Roman-3d"/>
      <path d="M 4.890625 31.390625 
L 31.203125 31.390625 
L 31.203125 23.390625 
L 4.890625 23.390625 
z
" id="BitstreamVeraSans-Roman-2d"/>
     </defs>
     <g transform="translate(226.54425 326.63885)scale(0.144 -0.144)">
      <use xlink:href="#BitstreamVeraSans-Roman-63"/>
      <use x="54.98046875" xlink:href="#BitstreamVeraSans-Roman-6f"/>
      <use x="116.162109375" xlink:href="#BitstreamVeraSans-Roman-6d"/>
      <use x="213.57421875" xlink:href="#BitstreamVeraSans-Roman-65"/>
      <use x="275.09765625" xlink:href="#BitstreamVeraSans-Roman-74"/>
      <use x="314.306640625" xlink:href="#BitstreamVeraSans-Roman-52"/>
      <use x="383.7890625" xlink:href="#BitstreamVeraSans-Roman-4f"/>
      <use x="462.5" xlink:href="#BitstreamVeraSans-Roman-43"/>
      <use x="532.32421875" xlink:href="#BitstreamVeraSans-Roman-20"/>
      <use x="564.111328125" xlink:href="#BitstreamVeraSans-Roman-63"/>
      <use x="619.091796875" xlink:href="#BitstreamVeraSans-Roman-75"/>
      <use x="682.470703125" xlink:href="#BitstreamVeraSans-Roman-72"/>
      <use x="723.583984375" xlink:href="#BitstreamVeraSans-Roman-76"/>
      <use x="782.763671875" xlink:href="#BitstreamVeraSans-Roman-65"/>
      <use x="844.287109375" xlink:href="#BitstreamVeraSans-Roman-20"/>
      <use x="876.07421875" xlink:href="#BitstreamVeraSans-Roman-2d"/>
      <use x="912.158203125" xlink:href="#BitstreamVeraSans-Roman-20"/>
      <use x="943.9453125" xlink:href="#BitstreamVeraSans-Roman-30"/>
      <use x="1007.568359375" xlink:href="#BitstreamVeraSans-Roman-20"/>
      <use x="1039.35546875" xlink:href="#BitstreamVeraSans-Roman-28"/>
      <use x="1078.369140625" xlink:href="#BitstreamVeraSans-Roman-41"/>
      <use x="1146.77734375" xlink:href="#BitstreamVeraSans-Roman-55"/>
      <use x="1219.970703125" xlink:href="#BitstreamVeraSans-Roman-43"/>
      <use x="1289.794921875" xlink:href="#BitstreamVeraSans-Roman-20"/>
      <use x="1321.58203125" xlink:href="#BitstreamVeraSans-Roman-3d"/>
      <use x="1405.37109375" xlink:href="#BitstreamVeraSans-Roman-20"/>
      <use x="1437.158203125" xlink:href="#BitstreamVeraSans-Roman-30"/>
      <use x="1500.78125" xlink:href="#BitstreamVeraSans-Roman-2e"/>
      <use x="1532.568359375" xlink:href="#BitstreamVeraSans-Roman-39"/>
      <use x="1596.19140625" xlink:href="#BitstreamVeraSans-Roman-32"/>
      <use x="1659.814453125" xlink:href="#BitstreamVeraSans-Roman-37"/>
      <use x="1723.4375" xlink:href="#BitstreamVeraSans-Roman-29"/>
     </g>
    </g>
    <g id="line2d_31">
     <path d="M 190.54425 342.73535 
L 210.70425 342.73535 
" style="fill:none;stroke:#008000;stroke-linecap:square;"/>
    </g>
    <g id="line2d_32"/>
    <g id="text_17">
     <!-- cometROC curve - 1 (AUC = 0.925) -->
     <defs>
      <path d="M 10.796875 72.90625 
L 49.515625 72.90625 
L 49.515625 64.59375 
L 19.828125 64.59375 
L 19.828125 46.734375 
Q 21.96875 47.46875 24.109375 47.828125 
Q 26.265625 48.1875 28.421875 48.1875 
Q 40.625 48.1875 47.75 41.5 
Q 54.890625 34.8125 54.890625 23.390625 
Q 54.890625 11.625 47.5625 5.09375 
Q 40.234375 -1.421875 26.90625 -1.421875 
Q 22.3125 -1.421875 17.546875 -0.640625 
Q 12.796875 0.140625 7.71875 1.703125 
L 7.71875 11.625 
Q 12.109375 9.234375 16.796875 8.0625 
Q 21.484375 6.890625 26.703125 6.890625 
Q 35.15625 6.890625 40.078125 11.328125 
Q 45.015625 15.765625 45.015625 23.390625 
Q 45.015625 31 40.078125 35.4375 
Q 35.15625 39.890625 26.703125 39.890625 
Q 22.75 39.890625 18.8125 39.015625 
Q 14.890625 38.140625 10.796875 36.28125 
z
" id="BitstreamVeraSans-Roman-35"/>
     </defs>
     <g transform="translate(226.54425 347.77535)scale(0.144 -0.144)">
      <use xlink:href="#BitstreamVeraSans-Roman-63"/>
      <use x="54.98046875" xlink:href="#BitstreamVeraSans-Roman-6f"/>
      <use x="116.162109375" xlink:href="#BitstreamVeraSans-Roman-6d"/>
      <use x="213.57421875" xlink:href="#BitstreamVeraSans-Roman-65"/>
      <use x="275.09765625" xlink:href="#BitstreamVeraSans-Roman-74"/>
      <use x="314.306640625" xlink:href="#BitstreamVeraSans-Roman-52"/>
      <use x="383.7890625" xlink:href="#BitstreamVeraSans-Roman-4f"/>
      <use x="462.5" xlink:href="#BitstreamVeraSans-Roman-43"/>
      <use x="532.32421875" xlink:href="#BitstreamVeraSans-Roman-20"/>
      <use x="564.111328125" xlink:href="#BitstreamVeraSans-Roman-63"/>
      <use x="619.091796875" xlink:href="#BitstreamVeraSans-Roman-75"/>
      <use x="682.470703125" xlink:href="#BitstreamVeraSans-Roman-72"/>
      <use x="723.583984375" xlink:href="#BitstreamVeraSans-Roman-76"/>
      <use x="782.763671875" xlink:href="#BitstreamVeraSans-Roman-65"/>
      <use x="844.287109375" xlink:href="#BitstreamVeraSans-Roman-20"/>
      <use x="876.07421875" xlink:href="#BitstreamVeraSans-Roman-2d"/>
      <use x="912.158203125" xlink:href="#BitstreamVeraSans-Roman-20"/>
      <use x="943.9453125" xlink:href="#BitstreamVeraSans-Roman-31"/>
      <use x="1007.568359375" xlink:href="#BitstreamVeraSans-Roman-20"/>
      <use x="1039.35546875" xlink:href="#BitstreamVeraSans-Roman-28"/>
      <use x="1078.369140625" xlink:href="#BitstreamVeraSans-Roman-41"/>
      <use x="1146.77734375" xlink:href="#BitstreamVeraSans-Roman-55"/>
      <use x="1219.970703125" xlink:href="#BitstreamVeraSans-Roman-43"/>
      <use x="1289.794921875" xlink:href="#BitstreamVeraSans-Roman-20"/>
      <use x="1321.58203125" xlink:href="#BitstreamVeraSans-Roman-3d"/>
      <use x="1405.37109375" xlink:href="#BitstreamVeraSans-Roman-20"/>
      <use x="1437.158203125" xlink:href="#BitstreamVeraSans-Roman-30"/>
      <use x="1500.78125" xlink:href="#BitstreamVeraSans-Roman-2e"/>
      <use x="1532.568359375" xlink:href="#BitstreamVeraSans-Roman-39"/>
      <use x="1596.19140625" xlink:href="#BitstreamVeraSans-Roman-32"/>
      <use x="1659.814453125" xlink:href="#BitstreamVeraSans-Roman-35"/>
      <use x="1723.4375" xlink:href="#BitstreamVeraSans-Roman-29"/>
     </g>
    </g>
    <g id="line2d_33">
     <path d="M 190.54425 363.87185 
L 210.70425 363.87185 
" style="fill:none;stroke:#ff0000;stroke-linecap:square;"/>
    </g>
    <g id="line2d_34"/>
    <g id="text_18">
     <!-- cometROC curve - 2 (AUC = 0.923) -->
     <defs>
      <path d="M 40.578125 39.3125 
Q 47.65625 37.796875 51.625 33 
Q 55.609375 28.21875 55.609375 21.1875 
Q 55.609375 10.40625 48.1875 4.484375 
Q 40.765625 -1.421875 27.09375 -1.421875 
Q 22.515625 -1.421875 17.65625 -0.515625 
Q 12.796875 0.390625 7.625 2.203125 
L 7.625 11.71875 
Q 11.71875 9.328125 16.59375 8.109375 
Q 21.484375 6.890625 26.8125 6.890625 
Q 36.078125 6.890625 40.9375 10.546875 
Q 45.796875 14.203125 45.796875 21.1875 
Q 45.796875 27.640625 41.28125 31.265625 
Q 36.765625 34.90625 28.71875 34.90625 
L 20.21875 34.90625 
L 20.21875 43.015625 
L 29.109375 43.015625 
Q 36.375 43.015625 40.234375 45.921875 
Q 44.09375 48.828125 44.09375 54.296875 
Q 44.09375 59.90625 40.109375 62.90625 
Q 36.140625 65.921875 28.71875 65.921875 
Q 24.65625 65.921875 20.015625 65.03125 
Q 15.375 64.15625 9.8125 62.3125 
L 9.8125 71.09375 
Q 15.4375 72.65625 20.34375 73.4375 
Q 25.25 74.21875 29.59375 74.21875 
Q 40.828125 74.21875 47.359375 69.109375 
Q 53.90625 64.015625 53.90625 55.328125 
Q 53.90625 49.265625 50.4375 45.09375 
Q 46.96875 40.921875 40.578125 39.3125 
" id="BitstreamVeraSans-Roman-33"/>
     </defs>
     <g transform="translate(226.54425 368.91185)scale(0.144 -0.144)">
      <use xlink:href="#BitstreamVeraSans-Roman-63"/>
      <use x="54.98046875" xlink:href="#BitstreamVeraSans-Roman-6f"/>
      <use x="116.162109375" xlink:href="#BitstreamVeraSans-Roman-6d"/>
      <use x="213.57421875" xlink:href="#BitstreamVeraSans-Roman-65"/>
      <use x="275.09765625" xlink:href="#BitstreamVeraSans-Roman-74"/>
      <use x="314.306640625" xlink:href="#BitstreamVeraSans-Roman-52"/>
      <use x="383.7890625" xlink:href="#BitstreamVeraSans-Roman-4f"/>
      <use x="462.5" xlink:href="#BitstreamVeraSans-Roman-43"/>
      <use x="532.32421875" xlink:href="#BitstreamVeraSans-Roman-20"/>
      <use x="564.111328125" xlink:href="#BitstreamVeraSans-Roman-63"/>
      <use x="619.091796875" xlink:href="#BitstreamVeraSans-Roman-75"/>
      <use x="682.470703125" xlink:href="#BitstreamVeraSans-Roman-72"/>
      <use x="723.583984375" xlink:href="#BitstreamVeraSans-Roman-76"/>
      <use x="782.763671875" xlink:href="#BitstreamVeraSans-Roman-65"/>
      <use x="844.287109375" xlink:href="#BitstreamVeraSans-Roman-20"/>
      <use x="876.07421875" xlink:href="#BitstreamVeraSans-Roman-2d"/>
      <use x="912.158203125" xlink:href="#BitstreamVeraSans-Roman-20"/>
      <use x="943.9453125" xlink:href="#BitstreamVeraSans-Roman-32"/>
      <use x="1007.568359375" xlink:href="#BitstreamVeraSans-Roman-20"/>
      <use x="1039.35546875" xlink:href="#BitstreamVeraSans-Roman-28"/>
      <use x="1078.369140625" xlink:href="#BitstreamVeraSans-Roman-41"/>
      <use x="1146.77734375" xlink:href="#BitstreamVeraSans-Roman-55"/>
      <use x="1219.970703125" xlink:href="#BitstreamVeraSans-Roman-43"/>
      <use x="1289.794921875" xlink:href="#BitstreamVeraSans-Roman-20"/>
      <use x="1321.58203125" xlink:href="#BitstreamVeraSans-Roman-3d"/>
      <use x="1405.37109375" xlink:href="#BitstreamVeraSans-Roman-20"/>
      <use x="1437.158203125" xlink:href="#BitstreamVeraSans-Roman-30"/>
      <use x="1500.78125" xlink:href="#BitstreamVeraSans-Roman-2e"/>
      <use x="1532.568359375" xlink:href="#BitstreamVeraSans-Roman-39"/>
      <use x="1596.19140625" xlink:href="#BitstreamVeraSans-Roman-32"/>
      <use x="1659.814453125" xlink:href="#BitstreamVeraSans-Roman-33"/>
      <use x="1723.4375" xlink:href="#BitstreamVeraSans-Roman-29"/>
     </g>
    </g>
   </g>
  </g>
 </g>
 <defs>
  <clipPath id="p4bfeddcfa1">
   <rect height="345.6" width="446.4" x="46.8975" y="39.2666"/>
  </clipPath>
 </defs>
</svg>
