<?xml version="1.0" encoding="utf-8" standalone="no"?>
<!DOCTYPE svg PUBLIC "-//W3C//DTD SVG 1.1//EN"
  "http://www.w3.org/Graphics/SVG/1.1/DTD/svg11.dtd">
<!-- Created with matplotlib (http://matplotlib.org/) -->
<svg height="339pt" version="1.1" viewBox="0 0 416 339" width="416pt" xmlns="http://www.w3.org/2000/svg" xmlns:xlink="http://www.w3.org/1999/xlink">
 <defs>
  <style type="text/css">
*{stroke-linecap:butt;stroke-linejoin:round;}
  </style>
 </defs>
 <g id="figure_1">
  <g id="patch_1">
   <path d="M 0 339.42375 
L 416.052813 339.42375 
L 416.052813 0 
L 0 0 
z
" style="fill:#ffffff;"/>
  </g>
  <g id="axes_1">
   <g id="patch_2">
    <path d="M 43.78125 301.8675 
L 400.90125 301.8675 
L 400.90125 35.7555 
L 43.78125 35.7555 
z
" style="fill:#ffffff;"/>
   </g>
   <g id="matplotlib.axis_1">
    <g id="xtick_1">
     <g id="line2d_1">
      <defs>
       <path d="M 0 0 
L 0 3.5 
" id="m846f1ddc1e" style="stroke:#000000;stroke-width:0.8;"/>
      </defs>
      <g>
       <use style="stroke:#000000;stroke-width:0.8;" x="43.78125" xlink:href="#m846f1ddc1e" y="301.8675"/>
      </g>
     </g>
     <g id="text_1">
      <!-- 0.0 -->
      <defs>
       <path d="M 31.78125 66.40625 
Q 24.171875 66.40625 20.328125 58.90625 
Q 16.5 51.421875 16.5 36.375 
Q 16.5 21.390625 20.328125 13.890625 
Q 24.171875 6.390625 31.78125 6.390625 
Q 39.453125 6.390625 43.28125 13.890625 
Q 47.125 21.390625 47.125 36.375 
Q 47.125 51.421875 43.28125 58.90625 
Q 39.453125 66.40625 31.78125 66.40625 
M 31.78125 74.21875 
Q 44.046875 74.21875 50.515625 64.515625 
Q 56.984375 54.828125 56.984375 36.375 
Q 56.984375 17.96875 50.515625 8.265625 
Q 44.046875 -1.421875 31.78125 -1.421875 
Q 19.53125 -1.421875 13.0625 8.265625 
Q 6.59375 17.96875 6.59375 36.375 
Q 6.59375 54.828125 13.0625 64.515625 
Q 19.53125 74.21875 31.78125 74.21875 
" id="DejaVuSans-30"/>
       <path d="M 10.6875 12.40625 
L 21 12.40625 
L 21 0 
L 10.6875 0 
z
" id="DejaVuSans-2e"/>
      </defs>
      <g transform="translate(35.829688 316.465937)scale(0.1 -0.1)">
       <use xlink:href="#DejaVuSans-30"/>
       <use x="63.623047" xlink:href="#DejaVuSans-2e"/>
       <use x="95.410156" xlink:href="#DejaVuSans-30"/>
      </g>
     </g>
    </g>
    <g id="xtick_2">
     <g id="line2d_2">
      <g>
       <use style="stroke:#000000;stroke-width:0.8;" x="115.20525" xlink:href="#m846f1ddc1e" y="301.8675"/>
      </g>
     </g>
     <g id="text_2">
      <!-- 0.2 -->
      <defs>
       <path d="M 19.1875 8.296875 
L 53.609375 8.296875 
L 53.609375 0 
L 7.328125 0 
L 7.328125 8.296875 
Q 12.9375 14.109375 22.625 23.890625 
Q 32.328125 33.6875 34.8125 36.53125 
Q 39.546875 41.84375 41.421875 45.53125 
Q 43.3125 49.21875 43.3125 52.78125 
Q 43.3125 58.59375 39.234375 62.25 
Q 35.15625 65.921875 28.609375 65.921875 
Q 23.96875 65.921875 18.8125 64.3125 
Q 13.671875 62.703125 7.8125 59.421875 
L 7.8125 69.390625 
Q 13.765625 71.78125 18.9375 73 
Q 24.125 74.21875 28.421875 74.21875 
Q 39.75 74.21875 46.484375 68.546875 
Q 53.21875 62.890625 53.21875 53.421875 
Q 53.21875 48.921875 51.53125 44.890625 
Q 49.859375 40.875 45.40625 35.40625 
Q 44.1875 33.984375 37.640625 27.21875 
Q 31.109375 20.453125 19.1875 8.296875 
" id="DejaVuSans-32"/>
      </defs>
      <g transform="translate(107.253688 316.465937)scale(0.1 -0.1)">
       <use xlink:href="#DejaVuSans-30"/>
       <use x="63.623047" xlink:href="#DejaVuSans-2e"/>
       <use x="95.410156" xlink:href="#DejaVuSans-32"/>
      </g>
     </g>
    </g>
    <g id="xtick_3">
     <g id="line2d_3">
      <g>
       <use style="stroke:#000000;stroke-width:0.8;" x="186.62925" xlink:href="#m846f1ddc1e" y="301.8675"/>
      </g>
     </g>
     <g id="text_3">
      <!-- 0.4 -->
      <defs>
       <path d="M 37.796875 64.3125 
L 12.890625 25.390625 
L 37.796875 25.390625 
z
M 35.203125 72.90625 
L 47.609375 72.90625 
L 47.609375 25.390625 
L 58.015625 25.390625 
L 58.015625 17.1875 
L 47.609375 17.1875 
L 47.609375 0 
L 37.796875 0 
L 37.796875 17.1875 
L 4.890625 17.1875 
L 4.890625 26.703125 
z
" id="DejaVuSans-34"/>
      </defs>
      <g transform="translate(178.677688 316.465937)scale(0.1 -0.1)">
       <use xlink:href="#DejaVuSans-30"/>
       <use x="63.623047" xlink:href="#DejaVuSans-2e"/>
       <use x="95.410156" xlink:href="#DejaVuSans-34"/>
      </g>
     </g>
    </g>
    <g id="xtick_4">
     <g id="line2d_4">
      <g>
       <use style="stroke:#000000;stroke-width:0.8;" x="258.05325" xlink:href="#m846f1ddc1e" y="301.8675"/>
      </g>
     </g>
     <g id="text_4">
      <!-- 0.6 -->
      <defs>
       <path d="M 33.015625 40.375 
Q 26.375 40.375 22.484375 35.828125 
Q 18.609375 31.296875 18.609375 23.390625 
Q 18.609375 15.53125 22.484375 10.953125 
Q 26.375 6.390625 33.015625 6.390625 
Q 39.65625 6.390625 43.53125 10.953125 
Q 47.40625 15.53125 47.40625 23.390625 
Q 47.40625 31.296875 43.53125 35.828125 
Q 39.65625 40.375 33.015625 40.375 
M 52.59375 71.296875 
L 52.59375 62.3125 
Q 48.875 64.0625 45.09375 64.984375 
Q 41.3125 65.921875 37.59375 65.921875 
Q 27.828125 65.921875 22.671875 59.328125 
Q 17.53125 52.734375 16.796875 39.40625 
Q 19.671875 43.65625 24.015625 45.921875 
Q 28.375 48.1875 33.59375 48.1875 
Q 44.578125 48.1875 50.953125 41.515625 
Q 57.328125 34.859375 57.328125 23.390625 
Q 57.328125 12.15625 50.6875 5.359375 
Q 44.046875 -1.421875 33.015625 -1.421875 
Q 20.359375 -1.421875 13.671875 8.265625 
Q 6.984375 17.96875 6.984375 36.375 
Q 6.984375 53.65625 15.1875 63.9375 
Q 23.390625 74.21875 37.203125 74.21875 
Q 40.921875 74.21875 44.703125 73.484375 
Q 48.484375 72.75 52.59375 71.296875 
" id="DejaVuSans-36"/>
      </defs>
      <g transform="translate(250.101688 316.465937)scale(0.1 -0.1)">
       <use xlink:href="#DejaVuSans-30"/>
       <use x="63.623047" xlink:href="#DejaVuSans-2e"/>
       <use x="95.410156" xlink:href="#DejaVuSans-36"/>
      </g>
     </g>
    </g>
    <g id="xtick_5">
     <g id="line2d_5">
      <g>
       <use style="stroke:#000000;stroke-width:0.8;" x="329.47725" xlink:href="#m846f1ddc1e" y="301.8675"/>
      </g>
     </g>
     <g id="text_5">
      <!-- 0.8 -->
      <defs>
       <path d="M 31.78125 34.625 
Q 24.75 34.625 20.71875 30.859375 
Q 16.703125 27.09375 16.703125 20.515625 
Q 16.703125 13.921875 20.71875 10.15625 
Q 24.75 6.390625 31.78125 6.390625 
Q 38.8125 6.390625 42.859375 10.171875 
Q 46.921875 13.96875 46.921875 20.515625 
Q 46.921875 27.09375 42.890625 30.859375 
Q 38.875 34.625 31.78125 34.625 
M 21.921875 38.8125 
Q 15.578125 40.375 12.03125 44.71875 
Q 8.5 49.078125 8.5 55.328125 
Q 8.5 64.0625 14.71875 69.140625 
Q 20.953125 74.21875 31.78125 74.21875 
Q 42.671875 74.21875 48.875 69.140625 
Q 55.078125 64.0625 55.078125 55.328125 
Q 55.078125 49.078125 51.53125 44.71875 
Q 48 40.375 41.703125 38.8125 
Q 48.828125 37.15625 52.796875 32.3125 
Q 56.78125 27.484375 56.78125 20.515625 
Q 56.78125 9.90625 50.3125 4.234375 
Q 43.84375 -1.421875 31.78125 -1.421875 
Q 19.734375 -1.421875 13.25 4.234375 
Q 6.78125 9.90625 6.78125 20.515625 
Q 6.78125 27.484375 10.78125 32.3125 
Q 14.796875 37.15625 21.921875 38.8125 
M 18.3125 54.390625 
Q 18.3125 48.734375 21.84375 45.5625 
Q 25.390625 42.390625 31.78125 42.390625 
Q 38.140625 42.390625 41.71875 45.5625 
Q 45.3125 48.734375 45.3125 54.390625 
Q 45.3125 60.0625 41.71875 63.234375 
Q 38.140625 66.40625 31.78125 66.40625 
Q 25.390625 66.40625 21.84375 63.234375 
Q 18.3125 60.0625 18.3125 54.390625 
" id="DejaVuSans-38"/>
      </defs>
      <g transform="translate(321.525688 316.465937)scale(0.1 -0.1)">
       <use xlink:href="#DejaVuSans-30"/>
       <use x="63.623047" xlink:href="#DejaVuSans-2e"/>
       <use x="95.410156" xlink:href="#DejaVuSans-38"/>
      </g>
     </g>
    </g>
    <g id="xtick_6">
     <g id="line2d_6">
      <g>
       <use style="stroke:#000000;stroke-width:0.8;" x="400.90125" xlink:href="#m846f1ddc1e" y="301.8675"/>
      </g>
     </g>
     <g id="text_6">
      <!-- 1.0 -->
      <defs>
       <path d="M 12.40625 8.296875 
L 28.515625 8.296875 
L 28.515625 63.921875 
L 10.984375 60.40625 
L 10.984375 69.390625 
L 28.421875 72.90625 
L 38.28125 72.90625 
L 38.28125 8.296875 
L 54.390625 8.296875 
L 54.390625 0 
L 12.40625 0 
z
" id="DejaVuSans-31"/>
      </defs>
      <g transform="translate(392.949688 316.465937)scale(0.1 -0.1)">
       <use xlink:href="#DejaVuSans-31"/>
       <use x="63.623047" xlink:href="#DejaVuSans-2e"/>
       <use x="95.410156" xlink:href="#DejaVuSans-30"/>
      </g>
     </g>
    </g>
    <g id="text_7">
     <!-- False Positive Rate -->
     <defs>
      <path d="M 9.8125 72.90625 
L 51.703125 72.90625 
L 51.703125 64.59375 
L 19.671875 64.59375 
L 19.671875 43.109375 
L 48.578125 43.109375 
L 48.578125 34.8125 
L 19.671875 34.8125 
L 19.671875 0 
L 9.8125 0 
z
" id="DejaVuSans-46"/>
      <path d="M 34.28125 27.484375 
Q 23.390625 27.484375 19.1875 25 
Q 14.984375 22.515625 14.984375 16.5 
Q 14.984375 11.71875 18.140625 8.90625 
Q 21.296875 6.109375 26.703125 6.109375 
Q 34.1875 6.109375 38.703125 11.40625 
Q 43.21875 16.703125 43.21875 25.484375 
L 43.21875 27.484375 
z
M 52.203125 31.203125 
L 52.203125 0 
L 43.21875 0 
L 43.21875 8.296875 
Q 40.140625 3.328125 35.546875 0.953125 
Q 30.953125 -1.421875 24.3125 -1.421875 
Q 15.921875 -1.421875 10.953125 3.296875 
Q 6 8.015625 6 15.921875 
Q 6 25.140625 12.171875 29.828125 
Q 18.359375 34.515625 30.609375 34.515625 
L 43.21875 34.515625 
L 43.21875 35.40625 
Q 43.21875 41.609375 39.140625 45 
Q 35.0625 48.390625 27.6875 48.390625 
Q 23 48.390625 18.546875 47.265625 
Q 14.109375 46.140625 10.015625 43.890625 
L 10.015625 52.203125 
Q 14.9375 54.109375 19.578125 55.046875 
Q 24.21875 56 28.609375 56 
Q 40.484375 56 46.34375 49.84375 
Q 52.203125 43.703125 52.203125 31.203125 
" id="DejaVuSans-61"/>
      <path d="M 9.421875 75.984375 
L 18.40625 75.984375 
L 18.40625 0 
L 9.421875 0 
z
" id="DejaVuSans-6c"/>
      <path d="M 44.28125 53.078125 
L 44.28125 44.578125 
Q 40.484375 46.53125 36.375 47.5 
Q 32.28125 48.484375 27.875 48.484375 
Q 21.1875 48.484375 17.84375 46.4375 
Q 14.5 44.390625 14.5 40.28125 
Q 14.5 37.15625 16.890625 35.375 
Q 19.28125 33.59375 26.515625 31.984375 
L 29.59375 31.296875 
Q 39.15625 29.25 43.1875 25.515625 
Q 47.21875 21.78125 47.21875 15.09375 
Q 47.21875 7.46875 41.1875 3.015625 
Q 35.15625 -1.421875 24.609375 -1.421875 
Q 20.21875 -1.421875 15.453125 -0.5625 
Q 10.6875 0.296875 5.421875 2 
L 5.421875 11.28125 
Q 10.40625 8.6875 15.234375 7.390625 
Q 20.0625 6.109375 24.8125 6.109375 
Q 31.15625 6.109375 34.5625 8.28125 
Q 37.984375 10.453125 37.984375 14.40625 
Q 37.984375 18.0625 35.515625 20.015625 
Q 33.0625 21.96875 24.703125 23.78125 
L 21.578125 24.515625 
Q 13.234375 26.265625 9.515625 29.90625 
Q 5.8125 33.546875 5.8125 39.890625 
Q 5.8125 47.609375 11.28125 51.796875 
Q 16.75 56 26.8125 56 
Q 31.78125 56 36.171875 55.265625 
Q 40.578125 54.546875 44.28125 53.078125 
" id="DejaVuSans-73"/>
      <path d="M 56.203125 29.59375 
L 56.203125 25.203125 
L 14.890625 25.203125 
Q 15.484375 15.921875 20.484375 11.0625 
Q 25.484375 6.203125 34.421875 6.203125 
Q 39.59375 6.203125 44.453125 7.46875 
Q 49.3125 8.734375 54.109375 11.28125 
L 54.109375 2.78125 
Q 49.265625 0.734375 44.1875 -0.34375 
Q 39.109375 -1.421875 33.890625 -1.421875 
Q 20.796875 -1.421875 13.15625 6.1875 
Q 5.515625 13.8125 5.515625 26.8125 
Q 5.515625 40.234375 12.765625 48.109375 
Q 20.015625 56 32.328125 56 
Q 43.359375 56 49.78125 48.890625 
Q 56.203125 41.796875 56.203125 29.59375 
M 47.21875 32.234375 
Q 47.125 39.59375 43.09375 43.984375 
Q 39.0625 48.390625 32.421875 48.390625 
Q 24.90625 48.390625 20.390625 44.140625 
Q 15.875 39.890625 15.1875 32.171875 
z
" id="DejaVuSans-65"/>
      <path id="DejaVuSans-20"/>
      <path d="M 19.671875 64.796875 
L 19.671875 37.40625 
L 32.078125 37.40625 
Q 38.96875 37.40625 42.71875 40.96875 
Q 46.484375 44.53125 46.484375 51.125 
Q 46.484375 57.671875 42.71875 61.234375 
Q 38.96875 64.796875 32.078125 64.796875 
z
M 9.8125 72.90625 
L 32.078125 72.90625 
Q 44.34375 72.90625 50.609375 67.359375 
Q 56.890625 61.8125 56.890625 51.125 
Q 56.890625 40.328125 50.609375 34.8125 
Q 44.34375 29.296875 32.078125 29.296875 
L 19.671875 29.296875 
L 19.671875 0 
L 9.8125 0 
z
" id="DejaVuSans-50"/>
      <path d="M 30.609375 48.390625 
Q 23.390625 48.390625 19.1875 42.75 
Q 14.984375 37.109375 14.984375 27.296875 
Q 14.984375 17.484375 19.15625 11.84375 
Q 23.34375 6.203125 30.609375 6.203125 
Q 37.796875 6.203125 41.984375 11.859375 
Q 46.1875 17.53125 46.1875 27.296875 
Q 46.1875 37.015625 41.984375 42.703125 
Q 37.796875 48.390625 30.609375 48.390625 
M 30.609375 56 
Q 42.328125 56 49.015625 48.375 
Q 55.71875 40.765625 55.71875 27.296875 
Q 55.71875 13.875 49.015625 6.21875 
Q 42.328125 -1.421875 30.609375 -1.421875 
Q 18.84375 -1.421875 12.171875 6.21875 
Q 5.515625 13.875 5.515625 27.296875 
Q 5.515625 40.765625 12.171875 48.375 
Q 18.84375 56 30.609375 56 
" id="DejaVuSans-6f"/>
      <path d="M 9.421875 54.6875 
L 18.40625 54.6875 
L 18.40625 0 
L 9.421875 0 
z
M 9.421875 75.984375 
L 18.40625 75.984375 
L 18.40625 64.59375 
L 9.421875 64.59375 
z
" id="DejaVuSans-69"/>
      <path d="M 18.3125 70.21875 
L 18.3125 54.6875 
L 36.8125 54.6875 
L 36.8125 47.703125 
L 18.3125 47.703125 
L 18.3125 18.015625 
Q 18.3125 11.328125 20.140625 9.421875 
Q 21.96875 7.515625 27.59375 7.515625 
L 36.8125 7.515625 
L 36.8125 0 
L 27.59375 0 
Q 17.1875 0 13.234375 3.875 
Q 9.28125 7.765625 9.28125 18.015625 
L 9.28125 47.703125 
L 2.6875 47.703125 
L 2.6875 54.6875 
L 9.28125 54.6875 
L 9.28125 70.21875 
z
" id="DejaVuSans-74"/>
      <path d="M 2.984375 54.6875 
L 12.5 54.6875 
L 29.59375 8.796875 
L 46.6875 54.6875 
L 56.203125 54.6875 
L 35.6875 0 
L 23.484375 0 
z
" id="DejaVuSans-76"/>
      <path d="M 44.390625 34.1875 
Q 47.5625 33.109375 50.5625 29.59375 
Q 53.5625 26.078125 56.59375 19.921875 
L 66.609375 0 
L 56 0 
L 46.6875 18.703125 
Q 43.0625 26.03125 39.671875 28.421875 
Q 36.28125 30.8125 30.421875 30.8125 
L 19.671875 30.8125 
L 19.671875 0 
L 9.8125 0 
L 9.8125 72.90625 
L 32.078125 72.90625 
Q 44.578125 72.90625 50.734375 67.671875 
Q 56.890625 62.453125 56.890625 51.90625 
Q 56.890625 45.015625 53.6875 40.46875 
Q 50.484375 35.9375 44.390625 34.1875 
M 19.671875 64.796875 
L 19.671875 38.921875 
L 32.078125 38.921875 
Q 39.203125 38.921875 42.84375 42.21875 
Q 46.484375 45.515625 46.484375 51.90625 
Q 46.484375 58.296875 42.84375 61.546875 
Q 39.203125 64.796875 32.078125 64.796875 
z
" id="DejaVuSans-52"/>
     </defs>
     <g transform="translate(175.135781 330.144062)scale(0.1 -0.1)">
      <use xlink:href="#DejaVuSans-46"/>
      <use x="57.378906" xlink:href="#DejaVuSans-61"/>
      <use x="118.658203" xlink:href="#DejaVuSans-6c"/>
      <use x="146.441406" xlink:href="#DejaVuSans-73"/>
      <use x="198.541016" xlink:href="#DejaVuSans-65"/>
      <use x="260.064453" xlink:href="#DejaVuSans-20"/>
      <use x="291.851562" xlink:href="#DejaVuSans-50"/>
      <use x="352.107422" xlink:href="#DejaVuSans-6f"/>
      <use x="413.289062" xlink:href="#DejaVuSans-73"/>
      <use x="465.388672" xlink:href="#DejaVuSans-69"/>
      <use x="493.171875" xlink:href="#DejaVuSans-74"/>
      <use x="532.380859" xlink:href="#DejaVuSans-69"/>
      <use x="560.164062" xlink:href="#DejaVuSans-76"/>
      <use x="619.34375" xlink:href="#DejaVuSans-65"/>
      <use x="680.867188" xlink:href="#DejaVuSans-20"/>
      <use x="712.654297" xlink:href="#DejaVuSans-52"/>
      <use x="782.105469" xlink:href="#DejaVuSans-61"/>
      <use x="843.384766" xlink:href="#DejaVuSans-74"/>
      <use x="882.59375" xlink:href="#DejaVuSans-65"/>
     </g>
    </g>
   </g>
   <g id="matplotlib.axis_2">
    <g id="ytick_1">
     <g id="line2d_7">
      <defs>
       <path d="M 0 0 
L -3.5 0 
" id="m3d442c4362" style="stroke:#000000;stroke-width:0.8;"/>
      </defs>
      <g>
       <use style="stroke:#000000;stroke-width:0.8;" x="43.78125" xlink:href="#m3d442c4362" y="301.8675"/>
      </g>
     </g>
     <g id="text_8">
      <!-- 0.0 -->
      <g transform="translate(20.878125 305.666719)scale(0.1 -0.1)">
       <use xlink:href="#DejaVuSans-30"/>
       <use x="63.623047" xlink:href="#DejaVuSans-2e"/>
       <use x="95.410156" xlink:href="#DejaVuSans-30"/>
      </g>
     </g>
    </g>
    <g id="ytick_2">
     <g id="line2d_8">
      <g>
       <use style="stroke:#000000;stroke-width:0.8;" x="43.78125" xlink:href="#m3d442c4362" y="251.1795"/>
      </g>
     </g>
     <g id="text_9">
      <!-- 0.2 -->
      <g transform="translate(20.878125 254.978719)scale(0.1 -0.1)">
       <use xlink:href="#DejaVuSans-30"/>
       <use x="63.623047" xlink:href="#DejaVuSans-2e"/>
       <use x="95.410156" xlink:href="#DejaVuSans-32"/>
      </g>
     </g>
    </g>
    <g id="ytick_3">
     <g id="line2d_9">
      <g>
       <use style="stroke:#000000;stroke-width:0.8;" x="43.78125" xlink:href="#m3d442c4362" y="200.4915"/>
      </g>
     </g>
     <g id="text_10">
      <!-- 0.4 -->
      <g transform="translate(20.878125 204.290719)scale(0.1 -0.1)">
       <use xlink:href="#DejaVuSans-30"/>
       <use x="63.623047" xlink:href="#DejaVuSans-2e"/>
       <use x="95.410156" xlink:href="#DejaVuSans-34"/>
      </g>
     </g>
    </g>
    <g id="ytick_4">
     <g id="line2d_10">
      <g>
       <use style="stroke:#000000;stroke-width:0.8;" x="43.78125" xlink:href="#m3d442c4362" y="149.8035"/>
      </g>
     </g>
     <g id="text_11">
      <!-- 0.6 -->
      <g transform="translate(20.878125 153.602719)scale(0.1 -0.1)">
       <use xlink:href="#DejaVuSans-30"/>
       <use x="63.623047" xlink:href="#DejaVuSans-2e"/>
       <use x="95.410156" xlink:href="#DejaVuSans-36"/>
      </g>
     </g>
    </g>
    <g id="ytick_5">
     <g id="line2d_11">
      <g>
       <use style="stroke:#000000;stroke-width:0.8;" x="43.78125" xlink:href="#m3d442c4362" y="99.1155"/>
      </g>
     </g>
     <g id="text_12">
      <!-- 0.8 -->
      <g transform="translate(20.878125 102.914719)scale(0.1 -0.1)">
       <use xlink:href="#DejaVuSans-30"/>
       <use x="63.623047" xlink:href="#DejaVuSans-2e"/>
       <use x="95.410156" xlink:href="#DejaVuSans-38"/>
      </g>
     </g>
    </g>
    <g id="ytick_6">
     <g id="line2d_12">
      <g>
       <use style="stroke:#000000;stroke-width:0.8;" x="43.78125" xlink:href="#m3d442c4362" y="48.4275"/>
      </g>
     </g>
     <g id="text_13">
      <!-- 1.0 -->
      <g transform="translate(20.878125 52.226719)scale(0.1 -0.1)">
       <use xlink:href="#DejaVuSans-31"/>
       <use x="63.623047" xlink:href="#DejaVuSans-2e"/>
       <use x="95.410156" xlink:href="#DejaVuSans-30"/>
      </g>
     </g>
    </g>
    <g id="text_14">
     <!-- True Positive Rate -->
     <defs>
      <path d="M -0.296875 72.90625 
L 61.375 72.90625 
L 61.375 64.59375 
L 35.5 64.59375 
L 35.5 0 
L 25.59375 0 
L 25.59375 64.59375 
L -0.296875 64.59375 
z
" id="DejaVuSans-54"/>
      <path d="M 41.109375 46.296875 
Q 39.59375 47.171875 37.8125 47.578125 
Q 36.03125 48 33.890625 48 
Q 26.265625 48 22.1875 43.046875 
Q 18.109375 38.09375 18.109375 28.8125 
L 18.109375 0 
L 9.078125 0 
L 9.078125 54.6875 
L 18.109375 54.6875 
L 18.109375 46.1875 
Q 20.953125 51.171875 25.484375 53.578125 
Q 30.03125 56 36.53125 56 
Q 37.453125 56 38.578125 55.875 
Q 39.703125 55.765625 41.0625 55.515625 
z
" id="DejaVuSans-72"/>
      <path d="M 8.5 21.578125 
L 8.5 54.6875 
L 17.484375 54.6875 
L 17.484375 21.921875 
Q 17.484375 14.15625 20.5 10.265625 
Q 23.53125 6.390625 29.59375 6.390625 
Q 36.859375 6.390625 41.078125 11.03125 
Q 45.3125 15.671875 45.3125 23.6875 
L 45.3125 54.6875 
L 54.296875 54.6875 
L 54.296875 0 
L 45.3125 0 
L 45.3125 8.40625 
Q 42.046875 3.421875 37.71875 1 
Q 33.40625 -1.421875 27.6875 -1.421875 
Q 18.265625 -1.421875 13.375 4.4375 
Q 8.5 10.296875 8.5 21.578125 
M 31.109375 56 
z
" id="DejaVuSans-75"/>
     </defs>
     <g transform="translate(14.798438 214.357594)rotate(-90)scale(0.1 -0.1)">
      <use xlink:href="#DejaVuSans-54"/>
      <use x="60.865234" xlink:href="#DejaVuSans-72"/>
      <use x="101.978516" xlink:href="#DejaVuSans-75"/>
      <use x="165.357422" xlink:href="#DejaVuSans-65"/>
      <use x="226.880859" xlink:href="#DejaVuSans-20"/>
      <use x="258.667969" xlink:href="#DejaVuSans-50"/>
      <use x="318.923828" xlink:href="#DejaVuSans-6f"/>
      <use x="380.105469" xlink:href="#DejaVuSans-73"/>
      <use x="432.205078" xlink:href="#DejaVuSans-69"/>
      <use x="459.988281" xlink:href="#DejaVuSans-74"/>
      <use x="499.197266" xlink:href="#DejaVuSans-69"/>
      <use x="526.980469" xlink:href="#DejaVuSans-76"/>
      <use x="586.160156" xlink:href="#DejaVuSans-65"/>
      <use x="647.683594" xlink:href="#DejaVuSans-20"/>
      <use x="679.470703" xlink:href="#DejaVuSans-52"/>
      <use x="748.921875" xlink:href="#DejaVuSans-61"/>
      <use x="810.201172" xlink:href="#DejaVuSans-74"/>
      <use x="849.410156" xlink:href="#DejaVuSans-65"/>
     </g>
    </g>
   </g>
   <g id="line2d_13">
    <path clip-path="url(#p4437072568)" d="M 43.78125 301.8675 
L 43.908331 300.101368 
L 43.938232 298.335235 
L 44.760521 292.448127 
L 45.657563 286.561019 
L 49.462518 255.359347 
L 49.612025 255.359347 
L 49.806384 253.593214 
L 50.165201 246.528685 
L 50.299757 245.645618 
L 50.58382 244.468197 
L 50.628673 243.290775 
L 50.77818 243.290775 
L 50.823032 242.113354 
L 51.047292 242.113354 
L 51.301454 239.75851 
L 51.959285 237.992378 
L 52.116268 235.048824 
L 52.191021 235.048824 
L 52.250824 233.871402 
L 52.624592 233.871402 
L 52.826426 232.693981 
L 52.975933 232.693981 
L 53.103014 230.633493 
L 53.327275 230.633493 
L 53.454356 229.456071 
L 53.678616 229.456071 
L 54.209366 225.04074 
L 54.28412 225.04074 
L 54.680313 220.919765 
L 54.829821 220.919765 
L 55.13631 217.976211 
L 55.360571 217.976211 
L 55.420373 216.798789 
L 55.644634 216.798789 
L 55.771715 215.621368 
L 56.070729 215.621368 
L 56.220236 215.327012 
L 56.369743 215.327012 
L 56.437021 214.738301 
L 56.810789 214.738301 
L 56.945345 214.149591 
L 57.393866 214.149591 
L 57.618127 213.56088 
L 57.842387 213.56088 
L 58.036747 212.383458 
L 58.1115 212.383458 
L 58.246056 211.794747 
L 58.395564 211.206037 
L 58.844085 211.206037 
L 59.045919 210.028615 
L 59.120673 210.028615 
L 59.180476 208.262483 
L 59.47949 208.262483 
L 59.546768 207.673772 
L 59.711226 205.318929 
L 59.845782 204.730218 
L 59.995289 204.730218 
L 60.197123 202.66973 
L 60.271877 202.66973 
L 60.339155 202.081019 
L 60.638169 202.081019 
L 60.780201 201.197953 
L 61.153968 201.197953 
L 61.213771 200.609242 
L 61.961307 200.609242 
L 62.080912 199.431821 
L 62.290222 197.960044 
L 62.439729 197.960044 
L 62.589236 197.665688 
L 62.649039 195.899556 
L 62.948053 195.899556 
L 63.015331 195.310845 
L 64.360895 195.310845 
L 64.495451 194.133423 
L 64.757088 191.189869 
L 64.80194 190.012448 
L 64.951447 190.012448 
L 65.01125 189.423737 
L 65.160757 189.423737 
L 65.325215 186.480183 
L 65.773736 186.480183 
L 65.900817 185.302761 
L 66.349338 185.302761 
L 66.39419 183.536629 
L 66.693204 183.536629 
L 66.932416 180.593075 
L 66.992219 178.826943 
L 67.201528 177.649521 
L 67.373462 175.000322 
L 67.672476 175.000322 
L 67.739754 174.411611 
L 68.636796 174.411611 
L 68.831155 173.23419 
L 69.204923 173.23419 
L 69.339479 172.645479 
L 69.488986 172.645479 
L 69.855278 169.113214 
L 70.004785 169.113214 
L 70.124391 165.580949 
L 70.348652 165.580949 
L 70.842025 163.226106 
L 70.901828 162.34304 
L 71.126088 162.34304 
L 71.193366 161.754329 
L 71.417627 161.754329 
L 71.694215 159.105131 
L 72.21749 159.105131 
L 72.322145 157.338998 
L 73.518201 157.338998 
L 73.578004 156.161577 
L 74.101278 156.161577 
L 74.146131 154.984155 
L 74.445145 154.984155 
L 74.960944 154.395444 
L 75.185205 154.395444 
L 75.334712 153.806733 
L 76.157 153.806733 
L 76.291557 152.629312 
L 76.740078 152.629312 
L 76.926962 150.863179 
L 77.450236 150.863179 
L 77.554891 149.097047 
L 77.779152 149.097047 
L 77.84643 148.508336 
L 78.444458 148.508336 
L 78.593965 148.213981 
L 78.683669 145.859138 
L 79.281698 145.859138 
L 79.401303 144.681716 
L 79.849824 143.79865 
L 79.917102 143.209939 
L 80.06661 143.209939 
L 80.141363 142.915584 
L 80.440377 142.915584 
L 80.582409 142.032517 
L 80.716965 140.855096 
L 80.784243 140.266385 
L 81.008504 140.266385 
L 81.35237 137.911542 
L 81.651384 137.911542 
L 81.860694 136.73412 
L 82.234462 136.73412 
L 82.294264 134.967988 
L 82.443772 134.967988 
L 82.682983 132.024434 
L 83.131504 132.024434 
L 83.198782 131.435723 
L 84.619099 131.435723 
L 84.678902 130.847012 
L 87.594289 130.847012 
L 87.654092 130.258301 
L 88.401627 130.258301 
L 88.446479 129.08088 
L 88.67074 129.08088 
L 88.865099 127.903458 
L 89.014606 127.903458 
L 89.08936 127.609103 
L 90.360169 127.609103 
L 90.502201 126.726037 
L 90.801215 126.726037 
L 90.920821 124.959904 
L 92.341138 124.959904 
L 92.528022 123.193772 
L 93.798831 123.193772 
L 93.858634 122.605061 
L 94.232402 122.605061 
L 94.352008 121.427639 
L 94.651022 121.427639 
L 94.800529 121.133284 
L 95.24905 121.133284 
L 95.308853 120.544573 
L 96.131141 120.544573 
L 96.19842 119.955862 
L 97.394476 119.955862 
L 97.48418 117.012308 
L 98.979251 117.012308 
L 99.046529 116.423598 
L 100.840613 116.423598 
L 100.907891 115.834887 
L 101.132152 115.834887 
L 101.580673 115.246176 
L 107.411448 115.246176 
L 107.471251 114.657465 
L 108.368293 114.657465 
L 108.413145 113.480044 
L 112.823603 113.480044 
L 112.898356 112.302622 
L 113.645892 112.302622 
L 113.690744 111.1252 
L 114.139265 111.1252 
L 114.206543 110.830845 
L 116.449149 110.830845 
L 116.523902 110.53649 
L 116.822916 110.53649 
L 116.957473 109.947779 
L 117.181733 109.947779 
L 117.854515 109.653423 
L 117.929268 109.359068 
L 118.078775 109.359068 
L 118.153529 109.064713 
L 118.452543 109.064713 
L 118.706705 107.29858 
L 118.781458 107.29858 
L 118.841261 106.415514 
L 118.990768 106.415514 
L 119.050571 105.826803 
L 119.499092 105.826803 
L 119.648599 105.532448 
L 120.022367 105.238092 
L 120.769902 105.238092 
L 120.829705 104.649382 
L 121.128719 104.649382 
L 121.188522 104.060671 
L 122.833099 104.060671 
L 122.907853 103.47196 
L 124.701937 103.47196 
L 124.76174 102.883249 
L 125.210261 102.883249 
L 125.270064 102.294538 
L 133.343445 102.294538 
L 133.403247 101.705828 
L 135.272085 101.705828 
L 135.36179 100.822761 
L 138.501438 100.822761 
L 138.875205 100.234051 
L 139.996508 100.234051 
L 140.131064 99.350984 
L 144.840536 99.350984 
L 145.049846 98.467918 
L 145.498367 98.467918 
L 145.685251 96.40743 
L 148.376378 96.40743 
L 148.510934 95.524364 
L 148.64549 94.935653 
L 150.589082 94.935653 
L 150.648885 94.346943 
L 152.293462 94.346943 
L 152.330839 91.403389 
L 152.5551 91.403389 
L 152.614902 90.814678 
L 153.885712 90.814678 
L 153.952991 90.520322 
L 155.597568 90.520322 
L 155.64242 89.342901 
L 158.146663 89.342901 
L 158.281219 88.165479 
L 158.430726 88.165479 
L 158.565283 87.576768 
L 158.789543 87.576768 
L 158.834396 85.810636 
L 160.703234 85.810636 
L 160.763036 85.221925 
L 165.696769 85.221925 
L 165.756572 84.633214 
L 169.793262 84.633214 
L 169.853065 83.750148 
L 171.348135 83.750148 
L 171.422889 83.455793 
L 172.394684 83.455793 
L 172.521765 82.572726 
L 172.820779 82.572726 
L 173.037565 82.278371 
L 173.097367 81.68966 
L 173.844903 81.68966 
L 173.889755 79.923528 
L 174.74942 79.923528 
L 174.809223 79.334817 
L 175.033484 79.334817 
L 175.078336 78.157395 
L 181.432385 78.157395 
L 181.492188 77.568685 
L 182.127593 77.568685 
L 182.172445 76.391263 
L 185.760614 76.391263 
L 185.827892 76.096908 
L 189.677699 76.096908 
L 189.744977 75.802552 
L 190.716773 75.802552 
L 190.754149 72.858998 
L 191.165294 72.858998 
L 191.240047 71.975932 
L 192.137089 71.975932 
L 192.196892 71.387221 
L 197.168002 71.387221 
L 201.952227 70.79851 
L 202.071833 69.621089 
L 202.4456 69.621089 
L 202.475502 66.97189 
L 204.5686 66.97189 
L 204.703157 66.383179 
L 204.919942 65.794469 
L 206.265505 65.794469 
L 206.332783 65.500113 
L 206.781304 65.500113 
L 206.848583 65.205758 
L 213.359614 65.205758 
L 213.426893 64.911402 
L 217.164569 64.911402 
L 217.239322 64.617047 
L 218.211118 64.617047 
L 218.35315 64.322692 
L 220.745262 64.322692 
L 221.11903 64.028336 
L 223.88491 64.028336 
L 223.944713 63.439625 
L 224.243727 63.439625 
L 224.692248 62.850915 
L 226.187319 62.850915 
L 226.232171 61.673493 
L 231.763931 61.673493 
L 231.83121 61.379138 
L 232.204977 61.379138 
L 232.272255 61.084782 
L 239.605576 61.084782 
L 239.747608 60.790427 
L 240.196129 60.790427 
L 240.233505 57.846873 
L 241.055794 57.846873 
L 241.1754 56.669451 
L 241.773428 56.669451 
L 241.833231 56.08074 
L 254.690837 56.08074 
L 254.750639 55.49203 
L 257.51652 55.49203 
L 257.576323 54.608963 
L 258.772379 54.608963 
L 258.914411 54.314608 
L 267.668048 54.314608 
L 267.735326 54.020253 
L 268.632368 54.020253 
L 268.692171 53.137186 
L 273.027875 53.137186 
L 273.095154 52.842831 
L 273.880066 52.842831 
L 273.947344 52.548476 
L 276.41421 52.548476 
L 276.62352 51.959765 
L 286.864752 51.959765 
L 287.006784 51.665409 
L 288.501855 51.665409 
L 288.643886 51.371054 
L 290.811738 51.371054 
L 290.871541 50.782343 
L 291.021048 50.782343 
L 291.088326 50.487988 
L 295.947305 50.487988 
L 296.007108 49.899277 
L 313.312548 49.899277 
L 313.45458 49.604922 
L 315.099158 49.604922 
L 315.241189 49.310566 
L 318.85926 49.310566 
L 318.926538 49.016211 
L 357.753517 49.016211 
L 357.820795 48.721855 
L 371.425936 48.721855 
L 371.493214 48.4275 
L 400.90125 48.4275 
L 400.90125 48.4275 
" style="fill:none;stroke:#1f77b4;stroke-linecap:square;stroke-width:1.5;"/>
   </g>
   <g id="line2d_14">
    <path clip-path="url(#p4437072568)" d="M 43.78125 301.8675 
L 43.856004 301.8675 
L 43.930757 300.690078 
L 44.080264 300.690078 
L 44.155018 297.746524 
L 44.304525 297.746524 
L 44.528785 291.859416 
L 44.603539 291.859416 
L 44.678292 288.915862 
L 45.05206 288.915862 
L 47.429222 270.077117 
L 47.578729 270.077117 
L 49.215831 257.125479 
L 49.260683 255.948057 
L 49.41019 255.948057 
L 49.559697 255.359347 
L 50.008218 252.415793 
L 50.157725 252.415793 
L 50.501592 250.060949 
L 50.651099 250.060949 
L 50.800606 248.294817 
L 50.875359 248.294817 
L 50.994965 247.117395 
L 51.204275 245.351263 
L 52.998359 235.93189 
L 53.147866 234.165758 
L 53.372127 232.988336 
L 53.566486 230.633493 
L 53.64124 230.633493 
L 54.015007 227.689939 
L 54.239268 227.689939 
L 54.343923 225.335096 
L 54.553233 223.568963 
L 54.927 223.568963 
L 55.001754 222.980253 
L 55.226014 222.980253 
L 56.08568 215.621368 
L 56.235187 215.621368 
L 56.302465 214.443946 
L 56.451972 214.443946 
L 56.571578 213.266524 
L 56.646331 212.677814 
L 56.870592 212.677814 
L 57.094852 210.32297 
L 57.169606 210.32297 
L 57.289211 207.968127 
L 57.438718 207.968127 
L 57.588225 206.201995 
L 57.69288 204.435862 
L 57.88724 202.081019 
L 58.1115 202.081019 
L 58.186254 201.492308 
L 60.129845 201.492308 
L 60.473711 197.076977 
L 60.772726 197.076977 
L 60.847479 195.899556 
L 61.520261 195.899556 
L 61.565113 194.722134 
L 62.013634 194.722134 
L 62.058486 193.544713 
L 62.207993 193.544713 
L 62.432254 191.77858 
L 62.581761 191.77858 
L 63.105035 191.189869 
L 63.149888 190.012448 
L 63.448902 190.012448 
L 63.493754 188.835026 
L 63.643261 188.835026 
L 63.718014 188.246315 
L 64.166535 188.246315 
L 64.241289 187.068894 
L 64.390796 187.068894 
L 64.510402 185.891472 
L 64.659909 185.891472 
L 64.734662 185.302761 
L 65.33269 185.302761 
L 65.52705 184.12534 
L 68.442437 184.12534 
L 68.666697 183.536629 
L 68.890958 182.947918 
L 69.010564 180.593075 
L 69.234824 180.593075 
L 69.429183 178.238232 
L 71.148514 178.238232 
L 71.223268 177.649521 
L 71.821296 177.649521 
L 71.866148 176.472099 
L 72.015655 175.883389 
L 72.165162 175.883389 
L 72.314669 174.705967 
L 72.464176 174.117256 
L 72.53893 172.939834 
L 72.688437 172.939834 
L 72.74824 172.351124 
L 73.196761 172.351124 
L 73.346268 170.584991 
L 73.570528 170.584991 
L 73.645282 169.99628 
L 75.065599 164.697883 
L 75.274909 163.520462 
L 75.94769 163.520462 
L 76.007493 162.931751 
L 76.231754 162.931751 
L 76.306507 162.34304 
L 76.456014 162.34304 
L 76.57562 159.988197 
L 76.874634 159.988197 
L 76.949388 159.399486 
L 78.892979 159.399486 
L 79.012585 158.222064 
L 80.059134 158.222064 
L 80.133888 157.633354 
L 80.806669 157.633354 
L 80.866472 157.044643 
L 81.24024 157.044643 
L 81.44955 155.867221 
L 83.542648 155.867221 
L 83.662254 154.6898 
L 83.811761 154.6898 
L 83.886514 154.101089 
L 84.63405 154.101089 
L 84.783557 153.512378 
L 84.933064 153.512378 
L 85.082571 151.746246 
L 86.577641 151.746246 
L 86.622493 150.568824 
L 86.772 150.568824 
L 86.846754 149.980113 
L 87.444782 149.980113 
L 87.504585 149.391402 
L 87.728846 149.391402 
L 87.878353 148.213981 
L 90.644233 148.213981 
L 90.718986 147.62527 
L 90.943247 147.62527 
L 91.062853 145.859138 
L 91.287113 145.859138 
L 91.43662 144.976071 
L 91.735634 144.976071 
L 91.810388 144.387361 
L 96.594613 144.387361 
L 96.669367 143.209939 
L 97.192641 143.209939 
L 97.401951 142.326873 
L 100.093078 142.326873 
L 100.197733 140.56074 
L 101.020022 140.56074 
L 101.229332 139.383319 
L 101.902113 139.383319 
L 102.021719 138.205897 
L 102.245979 138.205897 
L 102.305782 137.617186 
L 103.352332 137.617186 
L 103.501839 137.028476 
L 103.800853 137.028476 
L 103.875606 135.851054 
L 105.22117 135.851054 
L 105.295923 135.262343 
L 105.44543 135.262343 
L 105.505233 134.673632 
L 106.701289 134.673632 
L 106.746141 133.496211 
L 106.970402 133.201855 
L 107.045156 132.613145 
L 107.34417 132.613145 
L 107.478726 131.435723 
L 108.226261 131.435723 
L 108.286064 130.847012 
L 108.435571 130.847012 
L 108.495374 130.258301 
L 108.794388 130.258301 
L 108.854191 129.669591 
L 109.078451 129.669591 
L 109.138254 129.08088 
L 109.362515 129.08088 
L 109.571825 127.903458 
L 109.646578 127.903458 
L 109.69143 126.726037 
L 109.840937 126.726037 
L 109.90074 126.137326 
L 110.050247 126.137326 
L 110.095099 124.959904 
L 110.618374 124.959904 
L 110.693127 124.371193 
L 111.440663 124.371193 
L 111.560268 123.193772 
L 111.620071 122.605061 
L 112.890881 122.605061 
L 113.08524 120.838929 
L 113.459008 120.838929 
L 113.892578 117.895375 
L 113.967332 117.895375 
L 114.266346 114.951821 
L 114.490606 114.951821 
L 114.77467 112.596977 
L 114.924177 112.596977 
L 114.99893 112.302622 
L 116.344494 112.302622 
L 116.464099 111.1252 
L 116.68836 111.1252 
L 116.763113 110.53649 
L 117.585402 110.53649 
L 117.779761 108.770357 
L 118.228282 108.770357 
L 118.288085 108.181646 
L 121.278226 108.181646 
L 121.338029 107.592936 
L 124.776691 107.592936 
L 124.851444 106.415514 
L 125.150459 106.415514 
L 125.225212 105.238092 
L 125.748487 105.238092 
L 125.80829 104.649382 
L 126.107304 104.649382 
L 126.249335 103.47196 
L 126.548349 103.47196 
L 126.608152 102.294538 
L 131.467131 102.294538 
L 131.526934 101.705828 
L 131.676441 101.705828 
L 131.751195 101.117117 
L 131.915652 98.762274 
L 133.78449 98.762274 
L 133.859244 98.173563 
L 135.130054 98.173563 
L 135.174906 96.996141 
L 135.324413 96.996141 
L 135.399166 96.40743 
L 135.772934 96.40743 
L 135.847688 96.113075 
L 136.445716 96.113075 
L 136.505519 95.524364 
L 137.477314 95.524364 
L 137.552068 94.935653 
L 138.299603 94.935653 
L 138.359406 94.346943 
L 138.807927 93.169521 
L 138.957434 93.169521 
L 139.017237 92.58081 
L 140.512307 92.58081 
L 140.587061 91.992099 
L 140.811321 91.992099 
L 140.960828 91.403389 
L 141.185089 91.403389 
L 141.244892 90.814678 
L 142.440948 90.814678 
L 142.500751 90.225967 
L 142.725012 90.225967 
L 142.799765 89.931611 
L 143.248286 89.931611 
L 143.367892 88.165479 
L 144.638702 88.165479 
L 146.881307 86.988057 
L 148.974406 86.988057 
L 149.034209 86.399347 
L 149.48273 86.399347 
L 149.557483 85.810636 
L 151.202061 84.633214 
L 152.173857 84.633214 
L 152.23366 84.044503 
L 152.756934 84.044503 
L 152.816737 83.455793 
L 153.040998 83.455793 
L 153.160603 82.278371 
L 153.31011 82.278371 
L 153.444667 81.68966 
L 153.893188 81.68966 
L 154.012793 80.512239 
L 155.283603 80.512239 
L 155.343406 79.923528 
L 156.016188 79.923528 
L 156.150744 79.334817 
L 156.300251 79.040462 
L 156.823526 79.040462 
L 156.958082 78.157395 
L 158.468103 78.157395 
L 158.587709 76.979974 
L 158.886723 76.979974 
L 158.946526 76.391263 
L 159.170786 76.391263 
L 159.230589 75.802552 
L 160.576153 75.802552 
L 160.635955 75.213841 
L 163.177575 75.213841 
L 163.371934 74.03642 
L 163.969962 74.03642 
L 164.044716 73.447709 
L 165.091265 73.447709 
L 165.166019 72.858998 
L 165.61454 72.858998 
L 165.689293 72.564643 
L 165.913554 72.564643 
L 165.988308 72.270287 
L 168.081406 72.270287 
L 168.230913 71.681577 
L 173.052515 71.681577 
L 173.112318 71.387221 
L 176.251966 71.387221 
L 176.311769 70.79851 
L 177.732086 70.79851 
L 177.791889 70.2098 
L 178.090903 70.2098 
L 178.165656 69.621089 
L 182.351853 69.621089 
L 182.411656 69.032378 
L 184.280494 69.032378 
L 184.340297 68.443667 
L 191.292375 68.443667 
L 191.367128 67.854956 
L 196.151354 67.854956 
L 196.211156 67.266246 
L 199.276051 67.266246 
L 199.440509 64.911402 
L 201.608361 64.911402 
L 201.817671 64.322692 
L 208.39598 64.322692 
L 208.470734 63.733981 
L 209.965804 63.733981 
L 210.025607 63.14527 
L 212.41772 63.14527 
L 212.537326 61.967848 
L 219.100685 61.967848 
L 219.160488 61.379138 
L 220.580805 61.379138 
L 220.730312 61.084782 
L 221.926368 61.084782 
L 222.060924 60.496071 
L 223.705502 60.496071 
L 223.780255 59.907361 
L 227.517931 59.907361 
L 227.562784 58.729939 
L 227.861798 58.729939 
L 227.936551 58.141228 
L 238.484273 58.141228 
L 238.559027 57.552517 
L 239.755083 57.552517 
L 240.039146 56.963807 
L 240.936189 56.963807 
L 240.995991 56.375096 
L 241.145498 56.375096 
L 241.205301 55.786385 
L 243.746921 55.786385 
L 243.806724 55.197674 
L 249.622548 55.197674 
L 249.682351 54.608963 
L 255.064604 54.608963 
L 255.139358 54.314608 
L 255.288865 54.314608 
L 255.348668 53.725897 
L 271.644935 53.725897 
L 271.689787 52.548476 
L 274.0819 52.548476 
L 274.141703 51.959765 
L 279.37445 51.959765 
L 279.509006 51.371054 
L 293.764502 51.371054 
L 293.824305 50.782343 
L 298.982298 50.782343 
L 299.057052 50.193632 
L 338.489535 50.193632 
L 338.549337 49.604922 
L 355.219373 49.604922 
L 355.279176 49.016211 
L 393.216588 49.016211 
L 393.276391 48.4275 
L 400.90125 48.4275 
L 400.90125 48.4275 
" style="fill:none;stroke:#ff7f0e;stroke-linecap:square;stroke-width:1.5;"/>
   </g>
   <g id="line2d_15">
    <path clip-path="url(#p4437072568)" d="M 43.78125 301.8675 
L 43.856004 301.278105 
L 44.005511 301.278105 
L 44.229771 300.099314 
L 44.454032 300.099314 
L 44.528785 298.920523 
L 44.678292 298.920523 
L 44.827799 298.331128 
L 45.05206 293.615965 
L 45.126813 293.615965 
L 45.201567 293.02657 
L 45.351074 293.02657 
L 45.949102 288.900802 
L 46.023856 288.900802 
L 46.248116 287.132616 
L 46.397623 287.132616 
L 46.995651 282.417453 
L 47.444173 282.417453 
L 49.447567 267.093174 
L 49.597074 266.503779 
L 49.746581 266.503779 
L 51.690173 251.1795 
L 51.764926 248.232523 
L 51.989187 248.232523 
L 52.198497 245.285547 
L 52.348004 245.285547 
L 52.497511 243.51736 
L 52.871278 240.570384 
L 53.020785 240.570384 
L 53.140391 238.802198 
L 53.289898 234.67643 
L 53.439405 234.67643 
L 53.798222 231.729453 
L 53.872975 231.729453 
L 54.097236 231.140058 
L 54.441102 227.014291 
L 54.665363 227.014291 
L 54.725166 226.424895 
L 55.696961 223.477919 
L 55.921222 221.120337 
L 56.444497 221.120337 
L 56.653806 220.236244 
L 56.878067 217.878663 
L 57.027574 217.878663 
L 57.14718 216.110477 
L 57.520947 216.110477 
L 57.745208 213.752895 
L 58.044222 213.752895 
L 58.253532 211.395314 
L 58.403039 211.395314 
L 58.657201 207.858942 
L 58.806708 207.858942 
L 59.001067 205.50136 
L 59.225328 203.733174 
L 59.374835 203.733174 
L 59.449588 203.143779 
L 59.599095 203.143779 
L 59.673849 201.964988 
L 60.271877 201.964988 
L 60.481187 200.196802 
L 61.751997 200.196802 
L 61.82675 199.018012 
L 62.051011 199.018012 
L 62.125764 198.428616 
L 62.574285 198.428616 
L 62.723792 197.249826 
L 62.858349 196.071035 
L 63.007856 193.713453 
L 63.30687 193.713453 
L 63.501229 192.239965 
L 63.650736 192.239965 
L 63.800243 191.061174 
L 63.874997 190.471779 
L 64.248764 190.471779 
L 64.398271 188.703593 
L 64.443123 187.524802 
L 64.667384 187.524802 
L 64.861743 185.167221 
L 65.235511 185.167221 
L 65.310264 184.577826 
L 65.609278 184.577826 
L 65.684032 183.98843 
L 65.908292 183.98843 
L 65.953145 182.80964 
L 66.476419 182.80964 
L 66.670778 179.862663 
L 67.1193 179.862663 
L 67.238905 177.505081 
L 67.911687 177.505081 
L 68.061194 176.326291 
L 68.733976 176.326291 
L 69.25725 173.379314 
L 69.705771 173.379314 
L 69.825377 172.200523 
L 70.034687 171.021733 
L 70.3038 168.664151 
L 70.453307 168.664151 
L 70.572912 166.30657 
L 71.021433 166.30657 
L 71.126088 164.538384 
L 71.425102 164.538384 
L 71.544708 162.180802 
L 71.993229 162.180802 
L 72.247391 159.823221 
L 72.471652 159.823221 
L 72.950074 154.518663 
L 73.92187 154.518663 
L 73.966722 153.339872 
L 74.190983 153.339872 
L 74.34049 150.982291 
L 74.714257 150.982291 
L 75.020747 149.214105 
L 75.08055 148.919407 
L 75.200155 147.740616 
L 75.349662 147.740616 
L 75.424416 147.151221 
L 75.648676 147.151221 
L 75.94769 145.383035 
L 76.022444 145.383035 
L 76.14205 143.614849 
L 76.441064 143.614849 
L 76.500867 143.025453 
L 76.725127 143.025453 
L 76.949388 141.846663 
L 77.547416 141.846663 
L 77.667021 140.667872 
L 77.726824 140.078477 
L 77.876331 140.078477 
L 77.936134 139.489081 
L 78.085641 139.489081 
L 78.205247 138.310291 
L 78.504261 138.310291 
L 78.579014 137.720895 
L 79.55081 137.720895 
L 79.745169 135.952709 
L 79.894676 135.952709 
L 79.939529 134.773919 
L 80.163789 134.773919 
L 80.238543 134.184523 
L 80.61231 134.184523 
L 80.746867 132.711035 
L 81.195388 132.711035 
L 81.255191 132.12164 
L 81.479451 132.12164 
L 81.554205 131.532244 
L 81.927972 131.532244 
L 82.032627 129.764058 
L 82.705409 129.764058 
L 82.780162 128.585267 
L 82.929669 128.585267 
L 82.974522 127.406477 
L 83.198782 127.406477 
L 83.348289 126.817081 
L 83.871564 126.817081 
L 83.946317 126.227686 
L 84.84336 126.227686 
L 84.992867 125.638291 
L 85.516141 125.638291 
L 85.665648 125.048895 
L 85.815155 125.048895 
L 85.889909 124.754198 
L 86.114169 124.754198 
L 86.203874 122.396616 
L 86.577641 122.396616 
L 86.652395 121.807221 
L 86.801902 121.807221 
L 87.130817 119.44964 
L 87.579338 119.44964 
L 87.728846 118.270849 
L 88.401627 118.270849 
L 88.551134 117.976151 
L 88.775395 117.976151 
L 88.954803 115.913267 
L 90.15086 115.913267 
L 90.225613 115.323872 
L 91.197409 115.323872 
L 91.242261 114.145081 
L 91.466522 114.145081 
L 91.541275 112.966291 
L 91.840289 112.966291 
L 92.28881 112.376895 
L 92.737331 112.376895 
L 92.812085 111.198105 
L 93.55962 111.198105 
L 93.619423 110.608709 
L 93.843684 110.608709 
L 93.993191 108.840523 
L 95.03974 108.840523 
L 95.189247 107.661733 
L 95.563015 107.661733 
L 95.622817 107.072337 
L 95.921832 107.072337 
L 96.10124 105.304151 
L 96.774022 105.304151 
L 96.983332 104.420058 
L 98.553155 104.420058 
L 98.627909 104.12536 
L 98.85217 104.12536 
L 98.911972 103.535965 
L 99.136233 103.535965 
L 99.315641 101.767779 
L 99.465148 101.767779 
L 99.614655 101.178384 
L 102.380536 101.178384 
L 102.440339 100.588988 
L 104.309177 100.588988 
L 104.443733 99.999593 
L 105.789296 99.999593 
L 105.86405 99.410198 
L 106.013557 99.410198 
L 106.312571 98.231407 
L 106.761092 98.231407 
L 106.805944 97.052616 
L 107.927247 97.052616 
L 108.002001 96.463221 
L 108.375768 96.463221 
L 108.510325 96.168523 
L 110.678177 96.168523 
L 110.73798 95.579128 
L 114.326149 95.579128 
L 114.535458 94.400337 
L 114.909226 94.400337 
L 114.954078 93.221547 
L 117.047177 93.221547 
L 117.10698 92.632151 
L 119.424339 92.632151 
L 119.603747 91.45336 
L 119.678501 90.863965 
L 120.276529 90.863965 
L 120.426036 90.27457 
L 122.593888 90.27457 
L 122.743395 89.685174 
L 123.117163 89.685174 
L 123.191916 89.095779 
L 126.929592 89.095779 
L 127.049198 88.211686 
L 127.348212 88.211686 
L 127.572473 87.032895 
L 129.366557 87.032895 
L 129.42636 86.4435 
L 130.398156 86.4435 
L 130.457959 85.854105 
L 130.607466 85.854105 
L 130.727071 84.675314 
L 131.250346 84.675314 
L 131.325099 84.085919 
L 134.09098 84.085919 
L 134.165733 82.907128 
L 135.511297 82.907128 
L 135.58605 82.317733 
L 137.380135 82.317733 
L 137.439938 81.728337 
L 137.589445 81.728337 
L 137.798754 80.549547 
L 138.097769 80.549547 
L 138.157571 79.960151 
L 138.680846 79.960151 
L 138.7556 78.78136 
L 140.325423 78.78136 
L 140.400177 78.191965 
L 144.212607 78.191965 
L 144.272409 77.60257 
L 146.739276 77.60257 
L 146.888783 77.013174 
L 147.26255 77.013174 
L 148.010086 76.423779 
L 149.206142 76.423779 
L 149.265945 76.129081 
L 151.134783 76.129081 
L 151.433797 74.950291 
L 151.732811 74.950291 
L 151.792614 74.360895 
L 152.016874 74.360895 
L 152.211233 72.592709 
L 160.957396 72.592709 
L 161.002248 71.413919 
L 161.226508 71.413919 
L 161.286311 70.824523 
L 162.482367 70.824523 
L 162.736529 69.351035 
L 163.484065 69.351035 
L 165.053889 68.172244 
L 166.100438 68.172244 
L 166.175191 67.582849 
L 166.77322 67.582849 
L 166.833022 66.993453 
L 168.103832 66.993453 
L 168.133734 66.698756 
L 171.123874 66.698756 
L 171.258431 66.10936 
L 176.580882 66.10936 
L 176.640684 65.519965 
L 176.790191 65.519965 
L 176.849994 64.93057 
L 184.848621 64.93057 
L 184.908424 64.341174 
L 185.431699 64.341174 
L 185.491501 63.751779 
L 186.014776 63.751779 
L 186.074579 63.162384 
L 192.839773 63.162384 
L 192.899575 62.572988 
L 197.609047 62.572988 
L 197.66885 61.983593 
L 202.041931 61.983593 
L 202.101734 61.394198 
L 214.607998 61.394198 
L 214.667801 60.804802 
L 214.892062 60.804802 
L 215.026618 60.215407 
L 215.92366 60.215407 
L 215.983463 59.626012 
L 217.254273 59.626012 
L 217.329026 59.036616 
L 222.188005 59.036616 
L 222.247808 58.447221 
L 231.180854 58.447221 
L 231.255607 57.857826 
L 246.759488 57.857826 
L 246.894044 57.26843 
L 254.33202 57.26843 
L 254.391822 56.679035 
L 257.755731 56.679035 
L 257.815534 56.08964 
L 265.664654 56.08964 
L 265.724456 55.500244 
L 271.405724 55.500244 
L 271.450576 54.321453 
L 276.907583 54.321453 
L 276.982337 53.732058 
L 284.248379 53.732058 
L 284.308182 53.142663 
L 287.746844 53.142663 
L 287.806647 52.553267 
L 298.832791 52.553267 
L 299.415869 51.963872 
L 309.507594 51.963872 
L 309.642151 51.374477 
L 324.966622 51.374477 
L 325.026425 50.785081 
L 365.67739 50.785081 
L 365.737193 50.195686 
L 396.610398 50.195686 
L 396.670201 49.606291 
L 398.539039 49.606291 
L 398.598842 49.016895 
L 400.093912 49.016895 
L 400.153715 48.4275 
L 400.90125 48.4275 
L 400.90125 48.4275 
" style="fill:none;stroke:#2ca02c;stroke-linecap:square;stroke-width:1.5;"/>
   </g>
   <g id="line2d_16">
    <path clip-path="url(#p4437072568)" d="M 43.78125 301.8675 
L 400.90125 48.4275 
" style="fill:none;stroke:#000000;stroke-dasharray:5.6,2.4;stroke-dashoffset:0;stroke-width:1.5;"/>
   </g>
   <g id="patch_3">
    <path d="M 43.78125 301.8675 
L 43.78125 35.7555 
" style="fill:none;stroke:#000000;stroke-linecap:square;stroke-linejoin:miter;stroke-width:0.8;"/>
   </g>
   <g id="patch_4">
    <path d="M 400.90125 301.8675 
L 400.90125 35.7555 
" style="fill:none;stroke:#000000;stroke-linecap:square;stroke-linejoin:miter;stroke-width:0.8;"/>
   </g>
   <g id="patch_5">
    <path d="M 43.78125 301.8675 
L 400.90125 301.8675 
" style="fill:none;stroke:#000000;stroke-linecap:square;stroke-linejoin:miter;stroke-width:0.8;"/>
   </g>
   <g id="patch_6">
    <path d="M 43.78125 35.7555 
L 400.90125 35.7555 
" style="fill:none;stroke:#000000;stroke-linecap:square;stroke-linejoin:miter;stroke-width:0.8;"/>
   </g>
   <g id="text_15">
    <!-- ROC Curve GradientBoosting + SMOTE -->
    <defs>
     <path d="M 39.40625 66.21875 
Q 28.65625 66.21875 22.328125 58.203125 
Q 16.015625 50.203125 16.015625 36.375 
Q 16.015625 22.609375 22.328125 14.59375 
Q 28.65625 6.59375 39.40625 6.59375 
Q 50.140625 6.59375 56.421875 14.59375 
Q 62.703125 22.609375 62.703125 36.375 
Q 62.703125 50.203125 56.421875 58.203125 
Q 50.140625 66.21875 39.40625 66.21875 
M 39.40625 74.21875 
Q 54.734375 74.21875 63.90625 63.9375 
Q 73.09375 53.65625 73.09375 36.375 
Q 73.09375 19.140625 63.90625 8.859375 
Q 54.734375 -1.421875 39.40625 -1.421875 
Q 24.03125 -1.421875 14.8125 8.828125 
Q 5.609375 19.09375 5.609375 36.375 
Q 5.609375 53.65625 14.8125 63.9375 
Q 24.03125 74.21875 39.40625 74.21875 
" id="DejaVuSans-4f"/>
     <path d="M 64.40625 67.28125 
L 64.40625 56.890625 
Q 59.421875 61.53125 53.78125 63.8125 
Q 48.140625 66.109375 41.796875 66.109375 
Q 29.296875 66.109375 22.65625 58.46875 
Q 16.015625 50.828125 16.015625 36.375 
Q 16.015625 21.96875 22.65625 14.328125 
Q 29.296875 6.6875 41.796875 6.6875 
Q 48.140625 6.6875 53.78125 8.984375 
Q 59.421875 11.28125 64.40625 15.921875 
L 64.40625 5.609375 
Q 59.234375 2.09375 53.4375 0.328125 
Q 47.65625 -1.421875 41.21875 -1.421875 
Q 24.65625 -1.421875 15.125 8.703125 
Q 5.609375 18.84375 5.609375 36.375 
Q 5.609375 53.953125 15.125 64.078125 
Q 24.65625 74.21875 41.21875 74.21875 
Q 47.75 74.21875 53.53125 72.484375 
Q 59.328125 70.75 64.40625 67.28125 
" id="DejaVuSans-43"/>
     <path d="M 59.515625 10.40625 
L 59.515625 29.984375 
L 43.40625 29.984375 
L 43.40625 38.09375 
L 69.28125 38.09375 
L 69.28125 6.78125 
Q 63.578125 2.734375 56.6875 0.65625 
Q 49.8125 -1.421875 42 -1.421875 
Q 24.90625 -1.421875 15.25 8.5625 
Q 5.609375 18.5625 5.609375 36.375 
Q 5.609375 54.25 15.25 64.234375 
Q 24.90625 74.21875 42 74.21875 
Q 49.125 74.21875 55.546875 72.453125 
Q 61.96875 70.703125 67.390625 67.28125 
L 67.390625 56.78125 
Q 61.921875 61.421875 55.765625 63.765625 
Q 49.609375 66.109375 42.828125 66.109375 
Q 29.4375 66.109375 22.71875 58.640625 
Q 16.015625 51.171875 16.015625 36.375 
Q 16.015625 21.625 22.71875 14.15625 
Q 29.4375 6.6875 42.828125 6.6875 
Q 48.046875 6.6875 52.140625 7.59375 
Q 56.25 8.5 59.515625 10.40625 
" id="DejaVuSans-47"/>
     <path d="M 45.40625 46.390625 
L 45.40625 75.984375 
L 54.390625 75.984375 
L 54.390625 0 
L 45.40625 0 
L 45.40625 8.203125 
Q 42.578125 3.328125 38.25 0.953125 
Q 33.9375 -1.421875 27.875 -1.421875 
Q 17.96875 -1.421875 11.734375 6.484375 
Q 5.515625 14.40625 5.515625 27.296875 
Q 5.515625 40.1875 11.734375 48.09375 
Q 17.96875 56 27.875 56 
Q 33.9375 56 38.25 53.625 
Q 42.578125 51.265625 45.40625 46.390625 
M 14.796875 27.296875 
Q 14.796875 17.390625 18.875 11.75 
Q 22.953125 6.109375 30.078125 6.109375 
Q 37.203125 6.109375 41.296875 11.75 
Q 45.40625 17.390625 45.40625 27.296875 
Q 45.40625 37.203125 41.296875 42.84375 
Q 37.203125 48.484375 30.078125 48.484375 
Q 22.953125 48.484375 18.875 42.84375 
Q 14.796875 37.203125 14.796875 27.296875 
" id="DejaVuSans-64"/>
     <path d="M 54.890625 33.015625 
L 54.890625 0 
L 45.90625 0 
L 45.90625 32.71875 
Q 45.90625 40.484375 42.875 44.328125 
Q 39.84375 48.1875 33.796875 48.1875 
Q 26.515625 48.1875 22.3125 43.546875 
Q 18.109375 38.921875 18.109375 30.90625 
L 18.109375 0 
L 9.078125 0 
L 9.078125 54.6875 
L 18.109375 54.6875 
L 18.109375 46.1875 
Q 21.34375 51.125 25.703125 53.5625 
Q 30.078125 56 35.796875 56 
Q 45.21875 56 50.046875 50.171875 
Q 54.890625 44.34375 54.890625 33.015625 
" id="DejaVuSans-6e"/>
     <path d="M 19.671875 34.8125 
L 19.671875 8.109375 
L 35.5 8.109375 
Q 43.453125 8.109375 47.28125 11.40625 
Q 51.125 14.703125 51.125 21.484375 
Q 51.125 28.328125 47.28125 31.5625 
Q 43.453125 34.8125 35.5 34.8125 
z
M 19.671875 64.796875 
L 19.671875 42.828125 
L 34.28125 42.828125 
Q 41.5 42.828125 45.03125 45.53125 
Q 48.578125 48.25 48.578125 53.8125 
Q 48.578125 59.328125 45.03125 62.0625 
Q 41.5 64.796875 34.28125 64.796875 
z
M 9.8125 72.90625 
L 35.015625 72.90625 
Q 46.296875 72.90625 52.390625 68.21875 
Q 58.5 63.53125 58.5 54.890625 
Q 58.5 48.1875 55.375 44.234375 
Q 52.25 40.28125 46.1875 39.3125 
Q 53.46875 37.75 57.5 32.78125 
Q 61.53125 27.828125 61.53125 20.40625 
Q 61.53125 10.640625 54.890625 5.3125 
Q 48.25 0 35.984375 0 
L 9.8125 0 
z
" id="DejaVuSans-42"/>
     <path d="M 45.40625 27.984375 
Q 45.40625 37.75 41.375 43.109375 
Q 37.359375 48.484375 30.078125 48.484375 
Q 22.859375 48.484375 18.828125 43.109375 
Q 14.796875 37.75 14.796875 27.984375 
Q 14.796875 18.265625 18.828125 12.890625 
Q 22.859375 7.515625 30.078125 7.515625 
Q 37.359375 7.515625 41.375 12.890625 
Q 45.40625 18.265625 45.40625 27.984375 
M 54.390625 6.78125 
Q 54.390625 -7.171875 48.1875 -13.984375 
Q 42 -20.796875 29.203125 -20.796875 
Q 24.46875 -20.796875 20.265625 -20.09375 
Q 16.0625 -19.390625 12.109375 -17.921875 
L 12.109375 -9.1875 
Q 16.0625 -11.328125 19.921875 -12.34375 
Q 23.78125 -13.375 27.78125 -13.375 
Q 36.625 -13.375 41.015625 -8.765625 
Q 45.40625 -4.15625 45.40625 5.171875 
L 45.40625 9.625 
Q 42.625 4.78125 38.28125 2.390625 
Q 33.9375 0 27.875 0 
Q 17.828125 0 11.671875 7.65625 
Q 5.515625 15.328125 5.515625 27.984375 
Q 5.515625 40.671875 11.671875 48.328125 
Q 17.828125 56 27.875 56 
Q 33.9375 56 38.28125 53.609375 
Q 42.625 51.21875 45.40625 46.390625 
L 45.40625 54.6875 
L 54.390625 54.6875 
z
" id="DejaVuSans-67"/>
     <path d="M 46 62.703125 
L 46 35.5 
L 73.1875 35.5 
L 73.1875 27.203125 
L 46 27.203125 
L 46 0 
L 37.796875 0 
L 37.796875 27.203125 
L 10.59375 27.203125 
L 10.59375 35.5 
L 37.796875 35.5 
L 37.796875 62.703125 
z
" id="DejaVuSans-2b"/>
     <path d="M 53.515625 70.515625 
L 53.515625 60.890625 
Q 47.90625 63.578125 42.921875 64.890625 
Q 37.9375 66.21875 33.296875 66.21875 
Q 25.25 66.21875 20.875 63.09375 
Q 16.5 59.96875 16.5 54.203125 
Q 16.5 49.359375 19.40625 46.890625 
Q 22.3125 44.4375 30.421875 42.921875 
L 36.375 41.703125 
Q 47.40625 39.59375 52.65625 34.296875 
Q 57.90625 29 57.90625 20.125 
Q 57.90625 9.515625 50.796875 4.046875 
Q 43.703125 -1.421875 29.984375 -1.421875 
Q 24.8125 -1.421875 18.96875 -0.25 
Q 13.140625 0.921875 6.890625 3.21875 
L 6.890625 13.375 
Q 12.890625 10.015625 18.65625 8.296875 
Q 24.421875 6.59375 29.984375 6.59375 
Q 38.421875 6.59375 43.015625 9.90625 
Q 47.609375 13.234375 47.609375 19.390625 
Q 47.609375 24.75 44.3125 27.78125 
Q 41.015625 30.8125 33.5 32.328125 
L 27.484375 33.5 
Q 16.453125 35.6875 11.515625 40.375 
Q 6.59375 45.0625 6.59375 53.421875 
Q 6.59375 63.09375 13.40625 68.65625 
Q 20.21875 74.21875 32.171875 74.21875 
Q 37.3125 74.21875 42.625 73.28125 
Q 47.953125 72.359375 53.515625 70.515625 
" id="DejaVuSans-53"/>
     <path d="M 9.8125 72.90625 
L 24.515625 72.90625 
L 43.109375 23.296875 
L 61.8125 72.90625 
L 76.515625 72.90625 
L 76.515625 0 
L 66.890625 0 
L 66.890625 64.015625 
L 48.09375 14.015625 
L 38.1875 14.015625 
L 19.390625 64.015625 
L 19.390625 0 
L 9.8125 0 
z
" id="DejaVuSans-4d"/>
     <path d="M 9.8125 72.90625 
L 55.90625 72.90625 
L 55.90625 64.59375 
L 19.671875 64.59375 
L 19.671875 43.015625 
L 54.390625 43.015625 
L 54.390625 34.71875 
L 19.671875 34.71875 
L 19.671875 8.296875 
L 56.78125 8.296875 
L 56.78125 0 
L 9.8125 0 
z
" id="DejaVuSans-45"/>
    </defs>
    <g transform="translate(105.406875 16.318125)scale(0.12 -0.12)">
     <use xlink:href="#DejaVuSans-52"/>
     <use x="69.482422" xlink:href="#DejaVuSans-4f"/>
     <use x="148.193359" xlink:href="#DejaVuSans-43"/>
     <use x="218.017578" xlink:href="#DejaVuSans-20"/>
     <use x="249.804688" xlink:href="#DejaVuSans-43"/>
     <use x="319.628906" xlink:href="#DejaVuSans-75"/>
     <use x="383.007812" xlink:href="#DejaVuSans-72"/>
     <use x="424.121094" xlink:href="#DejaVuSans-76"/>
     <use x="483.300781" xlink:href="#DejaVuSans-65"/>
     <use x="544.824219" xlink:href="#DejaVuSans-20"/>
     <use x="576.611328" xlink:href="#DejaVuSans-47"/>
     <use x="654.101562" xlink:href="#DejaVuSans-72"/>
     <use x="695.214844" xlink:href="#DejaVuSans-61"/>
     <use x="756.494141" xlink:href="#DejaVuSans-64"/>
     <use x="819.970703" xlink:href="#DejaVuSans-69"/>
     <use x="847.753906" xlink:href="#DejaVuSans-65"/>
     <use x="909.277344" xlink:href="#DejaVuSans-6e"/>
     <use x="972.65625" xlink:href="#DejaVuSans-74"/>
     <use x="1011.865234" xlink:href="#DejaVuSans-42"/>
     <use x="1080.46875" xlink:href="#DejaVuSans-6f"/>
     <use x="1141.650391" xlink:href="#DejaVuSans-6f"/>
     <use x="1202.832031" xlink:href="#DejaVuSans-73"/>
     <use x="1254.931641" xlink:href="#DejaVuSans-74"/>
     <use x="1294.140625" xlink:href="#DejaVuSans-69"/>
     <use x="1321.923828" xlink:href="#DejaVuSans-6e"/>
     <use x="1385.302734" xlink:href="#DejaVuSans-67"/>
     <use x="1448.779297" xlink:href="#DejaVuSans-20"/>
     <use x="1480.566406" xlink:href="#DejaVuSans-2b"/>
     <use x="1564.355469" xlink:href="#DejaVuSans-20"/>
     <use x="1596.142578" xlink:href="#DejaVuSans-53"/>
     <use x="1659.619141" xlink:href="#DejaVuSans-4d"/>
     <use x="1745.898438" xlink:href="#DejaVuSans-4f"/>
     <use x="1824.609375" xlink:href="#DejaVuSans-54"/>
     <use x="1885.693359" xlink:href="#DejaVuSans-45"/>
    </g>
    <!-- Train: 24   Test: [1, 4, 8, 12, 16, 20] -->
    <defs>
     <path d="M 11.71875 12.40625 
L 22.015625 12.40625 
L 22.015625 0 
L 11.71875 0 
z
M 11.71875 51.703125 
L 22.015625 51.703125 
L 22.015625 39.3125 
L 11.71875 39.3125 
z
" id="DejaVuSans-3a"/>
     <path d="M 8.59375 75.984375 
L 29.296875 75.984375 
L 29.296875 69 
L 17.578125 69 
L 17.578125 -6.203125 
L 29.296875 -6.203125 
L 29.296875 -13.1875 
L 8.59375 -13.1875 
z
" id="DejaVuSans-5b"/>
     <path d="M 11.71875 12.40625 
L 22.015625 12.40625 
L 22.015625 4 
L 14.015625 -11.625 
L 7.71875 -11.625 
L 11.71875 4 
z
" id="DejaVuSans-2c"/>
     <path d="M 30.421875 75.984375 
L 30.421875 -13.1875 
L 9.71875 -13.1875 
L 9.71875 -6.203125 
L 21.390625 -6.203125 
L 21.390625 69 
L 9.71875 69 
L 9.71875 75.984375 
z
" id="DejaVuSans-5d"/>
    </defs>
    <g transform="translate(114.938438 29.7555)scale(0.12 -0.12)">
     <use xlink:href="#DejaVuSans-54"/>
     <use x="60.865234" xlink:href="#DejaVuSans-72"/>
     <use x="101.978516" xlink:href="#DejaVuSans-61"/>
     <use x="163.257812" xlink:href="#DejaVuSans-69"/>
     <use x="191.041016" xlink:href="#DejaVuSans-6e"/>
     <use x="254.419922" xlink:href="#DejaVuSans-3a"/>
     <use x="288.111328" xlink:href="#DejaVuSans-20"/>
     <use x="319.898438" xlink:href="#DejaVuSans-32"/>
     <use x="383.521484" xlink:href="#DejaVuSans-34"/>
     <use x="447.144531" xlink:href="#DejaVuSans-20"/>
     <use x="478.931641" xlink:href="#DejaVuSans-20"/>
     <use x="510.71875" xlink:href="#DejaVuSans-20"/>
     <use x="542.505859" xlink:href="#DejaVuSans-54"/>
     <use x="603.324219" xlink:href="#DejaVuSans-65"/>
     <use x="664.847656" xlink:href="#DejaVuSans-73"/>
     <use x="716.947266" xlink:href="#DejaVuSans-74"/>
     <use x="756.15625" xlink:href="#DejaVuSans-3a"/>
     <use x="789.847656" xlink:href="#DejaVuSans-20"/>
     <use x="821.634766" xlink:href="#DejaVuSans-5b"/>
     <use x="860.648438" xlink:href="#DejaVuSans-31"/>
     <use x="924.271484" xlink:href="#DejaVuSans-2c"/>
     <use x="956.058594" xlink:href="#DejaVuSans-20"/>
     <use x="987.845703" xlink:href="#DejaVuSans-34"/>
     <use x="1051.46875" xlink:href="#DejaVuSans-2c"/>
     <use x="1083.255859" xlink:href="#DejaVuSans-20"/>
     <use x="1115.042969" xlink:href="#DejaVuSans-38"/>
     <use x="1178.666016" xlink:href="#DejaVuSans-2c"/>
     <use x="1210.453125" xlink:href="#DejaVuSans-20"/>
     <use x="1242.240234" xlink:href="#DejaVuSans-31"/>
     <use x="1305.863281" xlink:href="#DejaVuSans-32"/>
     <use x="1369.486328" xlink:href="#DejaVuSans-2c"/>
     <use x="1401.273438" xlink:href="#DejaVuSans-20"/>
     <use x="1433.060547" xlink:href="#DejaVuSans-31"/>
     <use x="1496.683594" xlink:href="#DejaVuSans-36"/>
     <use x="1560.306641" xlink:href="#DejaVuSans-2c"/>
     <use x="1592.09375" xlink:href="#DejaVuSans-20"/>
     <use x="1623.880859" xlink:href="#DejaVuSans-32"/>
     <use x="1687.503906" xlink:href="#DejaVuSans-30"/>
     <use x="1751.126953" xlink:href="#DejaVuSans-5d"/>
    </g>
   </g>
   <g id="legend_1">
    <g id="patch_7">
     <path d="M 217.087188 296.8675 
L 393.90125 296.8675 
Q 395.90125 296.8675 395.90125 294.8675 
L 395.90125 251.833125 
Q 395.90125 249.833125 393.90125 249.833125 
L 217.087188 249.833125 
Q 215.087188 249.833125 215.087188 251.833125 
L 215.087188 294.8675 
Q 215.087188 296.8675 217.087188 296.8675 
z
" style="fill:#ffffff;opacity:0.8;stroke:#cccccc;stroke-linejoin:miter;"/>
    </g>
    <g id="line2d_17">
     <path d="M 219.087188 257.931562 
L 239.087188 257.931562 
" style="fill:none;stroke:#1f77b4;stroke-linecap:square;stroke-width:1.5;"/>
    </g>
    <g id="line2d_18"/>
    <g id="text_16">
     <!-- ROC curve - 0 (AUC = 0.860) -->
     <defs>
      <path d="M 48.78125 52.59375 
L 48.78125 44.1875 
Q 44.96875 46.296875 41.140625 47.34375 
Q 37.3125 48.390625 33.40625 48.390625 
Q 24.65625 48.390625 19.8125 42.84375 
Q 14.984375 37.3125 14.984375 27.296875 
Q 14.984375 17.28125 19.8125 11.734375 
Q 24.65625 6.203125 33.40625 6.203125 
Q 37.3125 6.203125 41.140625 7.25 
Q 44.96875 8.296875 48.78125 10.40625 
L 48.78125 2.09375 
Q 45.015625 0.34375 40.984375 -0.53125 
Q 36.96875 -1.421875 32.421875 -1.421875 
Q 20.0625 -1.421875 12.78125 6.34375 
Q 5.515625 14.109375 5.515625 27.296875 
Q 5.515625 40.671875 12.859375 48.328125 
Q 20.21875 56 33.015625 56 
Q 37.15625 56 41.109375 55.140625 
Q 45.0625 54.296875 48.78125 52.59375 
" id="DejaVuSans-63"/>
      <path d="M 4.890625 31.390625 
L 31.203125 31.390625 
L 31.203125 23.390625 
L 4.890625 23.390625 
z
" id="DejaVuSans-2d"/>
      <path d="M 31 75.875 
Q 24.46875 64.65625 21.28125 53.65625 
Q 18.109375 42.671875 18.109375 31.390625 
Q 18.109375 20.125 21.3125 9.0625 
Q 24.515625 -2 31 -13.1875 
L 23.1875 -13.1875 
Q 15.875 -1.703125 12.234375 9.375 
Q 8.59375 20.453125 8.59375 31.390625 
Q 8.59375 42.28125 12.203125 53.3125 
Q 15.828125 64.359375 23.1875 75.875 
z
" id="DejaVuSans-28"/>
      <path d="M 34.1875 63.1875 
L 20.796875 26.90625 
L 47.609375 26.90625 
z
M 28.609375 72.90625 
L 39.796875 72.90625 
L 67.578125 0 
L 57.328125 0 
L 50.6875 18.703125 
L 17.828125 18.703125 
L 11.1875 0 
L 0.78125 0 
z
" id="DejaVuSans-41"/>
      <path d="M 8.6875 72.90625 
L 18.609375 72.90625 
L 18.609375 28.609375 
Q 18.609375 16.890625 22.84375 11.734375 
Q 27.09375 6.59375 36.625 6.59375 
Q 46.09375 6.59375 50.34375 11.734375 
Q 54.59375 16.890625 54.59375 28.609375 
L 54.59375 72.90625 
L 64.5 72.90625 
L 64.5 27.390625 
Q 64.5 13.140625 57.4375 5.859375 
Q 50.390625 -1.421875 36.625 -1.421875 
Q 22.796875 -1.421875 15.734375 5.859375 
Q 8.6875 13.140625 8.6875 27.390625 
z
" id="DejaVuSans-55"/>
      <path d="M 10.59375 45.40625 
L 73.1875 45.40625 
L 73.1875 37.203125 
L 10.59375 37.203125 
z
M 10.59375 25.484375 
L 73.1875 25.484375 
L 73.1875 17.1875 
L 10.59375 17.1875 
z
" id="DejaVuSans-3d"/>
      <path d="M 8.015625 75.875 
L 15.828125 75.875 
Q 23.140625 64.359375 26.78125 53.3125 
Q 30.421875 42.28125 30.421875 31.390625 
Q 30.421875 20.453125 26.78125 9.375 
Q 23.140625 -1.703125 15.828125 -13.1875 
L 8.015625 -13.1875 
Q 14.5 -2 17.703125 9.0625 
Q 20.90625 20.125 20.90625 31.390625 
Q 20.90625 42.671875 17.703125 53.65625 
Q 14.5 64.65625 8.015625 75.875 
" id="DejaVuSans-29"/>
     </defs>
     <g transform="translate(247.087188 261.431562)scale(0.1 -0.1)">
      <use xlink:href="#DejaVuSans-52"/>
      <use x="69.482422" xlink:href="#DejaVuSans-4f"/>
      <use x="148.193359" xlink:href="#DejaVuSans-43"/>
      <use x="218.017578" xlink:href="#DejaVuSans-20"/>
      <use x="249.804688" xlink:href="#DejaVuSans-63"/>
      <use x="304.785156" xlink:href="#DejaVuSans-75"/>
      <use x="368.164062" xlink:href="#DejaVuSans-72"/>
      <use x="409.277344" xlink:href="#DejaVuSans-76"/>
      <use x="468.457031" xlink:href="#DejaVuSans-65"/>
      <use x="529.980469" xlink:href="#DejaVuSans-20"/>
      <use x="561.767578" xlink:href="#DejaVuSans-2d"/>
      <use x="597.851562" xlink:href="#DejaVuSans-20"/>
      <use x="629.638672" xlink:href="#DejaVuSans-30"/>
      <use x="693.261719" xlink:href="#DejaVuSans-20"/>
      <use x="725.048828" xlink:href="#DejaVuSans-28"/>
      <use x="764.0625" xlink:href="#DejaVuSans-41"/>
      <use x="832.470703" xlink:href="#DejaVuSans-55"/>
      <use x="905.664062" xlink:href="#DejaVuSans-43"/>
      <use x="975.488281" xlink:href="#DejaVuSans-20"/>
      <use x="1007.275391" xlink:href="#DejaVuSans-3d"/>
      <use x="1091.064453" xlink:href="#DejaVuSans-20"/>
      <use x="1122.851562" xlink:href="#DejaVuSans-30"/>
      <use x="1186.474609" xlink:href="#DejaVuSans-2e"/>
      <use x="1218.261719" xlink:href="#DejaVuSans-38"/>
      <use x="1281.884766" xlink:href="#DejaVuSans-36"/>
      <use x="1345.507812" xlink:href="#DejaVuSans-30"/>
      <use x="1409.130859" xlink:href="#DejaVuSans-29"/>
     </g>
    </g>
    <g id="line2d_19">
     <path d="M 219.087188 272.609687 
L 239.087188 272.609687 
" style="fill:none;stroke:#ff7f0e;stroke-linecap:square;stroke-width:1.5;"/>
    </g>
    <g id="line2d_20"/>
    <g id="text_17">
     <!-- ROC curve - 1 (AUC = 0.858) -->
     <defs>
      <path d="M 10.796875 72.90625 
L 49.515625 72.90625 
L 49.515625 64.59375 
L 19.828125 64.59375 
L 19.828125 46.734375 
Q 21.96875 47.46875 24.109375 47.828125 
Q 26.265625 48.1875 28.421875 48.1875 
Q 40.625 48.1875 47.75 41.5 
Q 54.890625 34.8125 54.890625 23.390625 
Q 54.890625 11.625 47.5625 5.09375 
Q 40.234375 -1.421875 26.90625 -1.421875 
Q 22.3125 -1.421875 17.546875 -0.640625 
Q 12.796875 0.140625 7.71875 1.703125 
L 7.71875 11.625 
Q 12.109375 9.234375 16.796875 8.0625 
Q 21.484375 6.890625 26.703125 6.890625 
Q 35.15625 6.890625 40.078125 11.328125 
Q 45.015625 15.765625 45.015625 23.390625 
Q 45.015625 31 40.078125 35.4375 
Q 35.15625 39.890625 26.703125 39.890625 
Q 22.75 39.890625 18.8125 39.015625 
Q 14.890625 38.140625 10.796875 36.28125 
z
" id="DejaVuSans-35"/>
     </defs>
     <g transform="translate(247.087188 276.109687)scale(0.1 -0.1)">
      <use xlink:href="#DejaVuSans-52"/>
      <use x="69.482422" xlink:href="#DejaVuSans-4f"/>
      <use x="148.193359" xlink:href="#DejaVuSans-43"/>
      <use x="218.017578" xlink:href="#DejaVuSans-20"/>
      <use x="249.804688" xlink:href="#DejaVuSans-63"/>
      <use x="304.785156" xlink:href="#DejaVuSans-75"/>
      <use x="368.164062" xlink:href="#DejaVuSans-72"/>
      <use x="409.277344" xlink:href="#DejaVuSans-76"/>
      <use x="468.457031" xlink:href="#DejaVuSans-65"/>
      <use x="529.980469" xlink:href="#DejaVuSans-20"/>
      <use x="561.767578" xlink:href="#DejaVuSans-2d"/>
      <use x="597.851562" xlink:href="#DejaVuSans-20"/>
      <use x="629.638672" xlink:href="#DejaVuSans-31"/>
      <use x="693.261719" xlink:href="#DejaVuSans-20"/>
      <use x="725.048828" xlink:href="#DejaVuSans-28"/>
      <use x="764.0625" xlink:href="#DejaVuSans-41"/>
      <use x="832.470703" xlink:href="#DejaVuSans-55"/>
      <use x="905.664062" xlink:href="#DejaVuSans-43"/>
      <use x="975.488281" xlink:href="#DejaVuSans-20"/>
      <use x="1007.275391" xlink:href="#DejaVuSans-3d"/>
      <use x="1091.064453" xlink:href="#DejaVuSans-20"/>
      <use x="1122.851562" xlink:href="#DejaVuSans-30"/>
      <use x="1186.474609" xlink:href="#DejaVuSans-2e"/>
      <use x="1218.261719" xlink:href="#DejaVuSans-38"/>
      <use x="1281.884766" xlink:href="#DejaVuSans-35"/>
      <use x="1345.507812" xlink:href="#DejaVuSans-38"/>
      <use x="1409.130859" xlink:href="#DejaVuSans-29"/>
     </g>
    </g>
    <g id="line2d_21">
     <path d="M 219.087188 287.287812 
L 239.087188 287.287812 
" style="fill:none;stroke:#2ca02c;stroke-linecap:square;stroke-width:1.5;"/>
    </g>
    <g id="line2d_22"/>
    <g id="text_18">
     <!-- ROC curve - 2 (AUC = 0.878) -->
     <defs>
      <path d="M 8.203125 72.90625 
L 55.078125 72.90625 
L 55.078125 68.703125 
L 28.609375 0 
L 18.3125 0 
L 43.21875 64.59375 
L 8.203125 64.59375 
z
" id="DejaVuSans-37"/>
     </defs>
     <g transform="translate(247.087188 290.787812)scale(0.1 -0.1)">
      <use xlink:href="#DejaVuSans-52"/>
      <use x="69.482422" xlink:href="#DejaVuSans-4f"/>
      <use x="148.193359" xlink:href="#DejaVuSans-43"/>
      <use x="218.017578" xlink:href="#DejaVuSans-20"/>
      <use x="249.804688" xlink:href="#DejaVuSans-63"/>
      <use x="304.785156" xlink:href="#DejaVuSans-75"/>
      <use x="368.164062" xlink:href="#DejaVuSans-72"/>
      <use x="409.277344" xlink:href="#DejaVuSans-76"/>
      <use x="468.457031" xlink:href="#DejaVuSans-65"/>
      <use x="529.980469" xlink:href="#DejaVuSans-20"/>
      <use x="561.767578" xlink:href="#DejaVuSans-2d"/>
      <use x="597.851562" xlink:href="#DejaVuSans-20"/>
      <use x="629.638672" xlink:href="#DejaVuSans-32"/>
      <use x="693.261719" xlink:href="#DejaVuSans-20"/>
      <use x="725.048828" xlink:href="#DejaVuSans-28"/>
      <use x="764.0625" xlink:href="#DejaVuSans-41"/>
      <use x="832.470703" xlink:href="#DejaVuSans-55"/>
      <use x="905.664062" xlink:href="#DejaVuSans-43"/>
      <use x="975.488281" xlink:href="#DejaVuSans-20"/>
      <use x="1007.275391" xlink:href="#DejaVuSans-3d"/>
      <use x="1091.064453" xlink:href="#DejaVuSans-20"/>
      <use x="1122.851562" xlink:href="#DejaVuSans-30"/>
      <use x="1186.474609" xlink:href="#DejaVuSans-2e"/>
      <use x="1218.261719" xlink:href="#DejaVuSans-38"/>
      <use x="1281.884766" xlink:href="#DejaVuSans-37"/>
      <use x="1345.507812" xlink:href="#DejaVuSans-38"/>
      <use x="1409.130859" xlink:href="#DejaVuSans-29"/>
     </g>
    </g>
   </g>
  </g>
 </g>
 <defs>
  <clipPath id="p4437072568">
   <rect height="266.112" width="357.12" x="43.78125" y="35.7555"/>
  </clipPath>
 </defs>
</svg>
