<?xml version="1.0" encoding="utf-8" standalone="no"?>
<!DOCTYPE svg PUBLIC "-//W3C//DTD SVG 1.1//EN"
  "http://www.w3.org/Graphics/SVG/1.1/DTD/svg11.dtd">
<!-- Created with matplotlib (http://matplotlib.org/) -->
<svg height="424pt" version="1.1" viewBox="0 0 510 424" width="510pt" xmlns="http://www.w3.org/2000/svg" xmlns:xlink="http://www.w3.org/1999/xlink">
 <defs>
  <style type="text/css">
*{stroke-linecap:butt;stroke-linejoin:round;stroke-miterlimit:100000;}
  </style>
 </defs>
 <g id="figure_1">
  <g id="patch_1">
   <path d="M 0 424.2941 
L 510.039375 424.2941 
L 510.039375 0 
L 0 0 
z
" style="fill:#ffffff;"/>
  </g>
  <g id="axes_1">
   <g id="patch_2">
    <path d="M 46.8975 384.8666 
L 493.2975 384.8666 
L 493.2975 39.2666 
L 46.8975 39.2666 
z
" style="fill:#ffffff;"/>
   </g>
   <g id="line2d_1">
    <path clip-path="url(#p1ac607b4bb)" d="M 46.8975 384.8666 
L 47.109144 384.8666 
L 47.320788 384.8666 
L 47.490104 382.233457 
L 48.971613 382.233457 
L 48.971613 350.635743 
L 50.029835 350.635743 
L 50.19915 348.0026 
L 52.103948 348.0026 
L 52.273263 345.369457 
L 53.754773 345.369457 
L 53.881759 340.103171 
L 55.363269 340.103171 
L 55.532584 337.470029 
L 57.225738 337.470029 
L 57.395054 334.836886 
L 58.453275 334.836886 
L 58.62259 332.203743 
L 62.64383 332.203743 
L 62.770817 326.937457 
L 63.194105 326.937457 
L 63.321092 321.671171 
L 63.74438 321.671171 
L 63.871367 316.404886 
L 64.929588 316.404886 
L 65.098903 313.771743 
L 65.522192 313.771743 
L 65.691507 308.505457 
L 66.32644 308.505457 
L 66.665071 303.239171 
L 73.014397 303.239171 
L 73.141384 297.972886 
L 73.353028 297.972886 
L 73.353028 295.339743 
L 74.199605 295.339743 
L 74.326592 290.073457 
L 76.23139 290.073457 
L 76.400705 287.440314 
L 81.480166 287.440314 
L 81.649482 284.807171 
L 82.07277 284.807171 
L 82.242086 282.174029 
L 82.45373 282.174029 
L 82.45373 276.907743 
L 84.146884 276.907743 
L 84.146884 274.2746 
L 84.358528 274.2746 
L 84.697159 269.008314 
L 85.120447 269.008314 
L 85.120447 263.742029 
L 85.332091 263.742029 
L 85.501407 261.108886 
L 86.771272 261.108886 
L 86.898259 255.8426 
L 90.284566 255.8426 
L 90.284566 250.576314 
L 91.131143 250.576314 
L 91.131143 247.943171 
L 91.766076 247.943171 
L 91.766076 240.043743 
L 92.401008 240.043743 
L 92.401008 234.777457 
L 93.247585 234.777457 
L 93.501558 224.244886 
L 93.713203 224.244886 
L 93.882518 221.611743 
L 94.517451 221.611743 
L 94.686766 218.9786 
L 94.89841 218.9786 
L 95.067726 216.345457 
L 98.242389 216.345457 
L 98.58102 211.079171 
L 98.877322 203.179743 
L 108.189668 203.179743 
L 108.570627 200.5466 
L 108.782271 200.5466 
L 108.909258 195.280314 
L 116.740094 195.280314 
L 116.740094 182.1146 
L 116.951739 182.1146 
L 117.078725 176.848314 
L 117.502014 176.848314 
L 117.671329 174.215171 
L 119.787771 174.215171 
L 119.957087 171.582029 
L 120.380375 171.582029 
L 120.507362 166.315743 
L 123.682025 166.315743 
L 123.682025 153.150029 
L 124.95189 153.150029 
L 125.121206 150.516886 
L 127.660936 150.516886 
L 127.830252 147.883743 
L 128.465184 147.883743 
L 128.465184 145.2506 
L 128.676829 145.2506 
L 128.846144 142.617457 
L 131.174231 142.617457 
L 131.174231 137.351171 
L 140.486576 137.351171 
L 140.655892 134.718029 
L 153.777834 134.718029 
L 153.90482 129.451743 
L 156.444551 129.451743 
L 156.825511 126.8186 
L 157.672088 126.8186 
L 157.799074 121.552314 
L 159.280584 121.552314 
L 159.280584 118.919171 
L 165.418266 118.919171 
L 165.418266 116.286029 
L 184.085287 116.286029 
L 184.466246 113.652886 
L 186.794333 113.652886 
L 186.963648 111.019743 
L 203.895186 111.019743 
L 203.979844 103.120314 
L 206.30793 103.120314 
L 206.477246 100.487171 
L 208.593688 100.487171 
L 208.593688 97.854029 
L 218.540967 97.854029 
L 218.710282 95.220886 
L 225.694542 95.220886 
L 225.863857 92.587743 
L 239.409087 92.587743 
L 239.578403 89.9546 
L 257.779806 89.9546 
L 257.949121 87.321457 
L 266.838179 87.321457 
L 267.219139 84.688314 
L 282.669167 84.688314 
L 282.838482 79.422029 
L 298.500155 79.422029 
L 298.500155 76.788886 
L 298.66947 74.155743 
L 311.368124 74.155743 
L 311.537439 71.5226 
L 324.236093 71.5226 
L 324.363079 66.256314 
L 329.865829 66.256314 
L 329.992816 60.990029 
L 376.131257 60.990029 
L 376.131257 58.356886 
L 452.450165 58.356886 
L 452.450165 55.723743 
L 493.2975 55.723743 
L 493.2975 55.723743 
" style="fill:none;stroke:#0000ff;stroke-linecap:square;"/>
   </g>
   <g id="line2d_2">
    <path clip-path="url(#p1ac607b4bb)" d="M 46.8975 384.8666 
L 47.320788 384.8666 
L 47.532433 384.8666 
L 47.913392 382.233457 
L 51.045727 382.233457 
L 51.384358 376.967171 
L 55.405598 376.967171 
L 55.532584 371.700886 
L 59.596154 371.700886 
L 59.765469 369.067743 
L 60.400402 369.067743 
L 60.739032 363.801457 
L 62.220542 363.801457 
L 66.538084 319.038029 
L 66.961373 319.038029 
L 67.130688 316.404886 
L 67.342332 316.404886 
L 68.061923 311.1386 
L 68.273567 311.1386 
L 68.612198 305.872314 
L 70.263022 305.872314 
L 70.686311 292.7066 
L 71.702203 292.7066 
L 72.040834 287.440314 
L 72.464122 287.440314 
L 72.972069 279.540886 
L 73.395357 279.540886 
L 73.395357 274.2746 
L 77.966872 274.2746 
L 78.136188 271.641457 
L 78.813449 263.742029 
L 87.236889 263.742029 
L 87.363876 258.475743 
L 87.998809 258.475743 
L 88.930043 247.943171 
L 90.623197 247.943171 
L 90.750183 242.676886 
L 92.231693 242.676886 
L 92.485666 232.144314 
L 95.237041 232.144314 
L 95.618001 229.511171 
L 97.311154 229.511171 
L 97.522799 226.878029 
L 100.020201 226.878029 
L 100.274174 216.345457 
L 100.697462 216.345457 
L 100.866777 213.712314 
L 101.078422 213.712314 
L 101.247737 211.079171 
L 103.999112 211.079171 
L 105.18432 192.647171 
L 106.411856 192.647171 
L 106.581172 190.014029 
L 110.602412 190.014029 
L 110.771727 187.380886 
L 111.618304 187.380886 
L 111.787619 184.747743 
L 116.401464 184.747743 
L 116.401464 182.1146 
L 124.824904 182.1146 
L 124.994219 179.481457 
L 129.650392 179.481457 
L 129.819707 176.848314 
L 130.031352 176.848314 
L 130.242996 171.582029 
L 131.089573 171.582029 
L 132.105465 168.948886 
L 134.85684 168.948886 
L 135.026155 166.315743 
L 135.661088 166.315743 
L 136.042048 163.6826 
L 146.624259 163.6826 
L 147.005219 161.049457 
L 155.470988 161.049457 
L 155.470988 158.416314 
L 158.010718 158.416314 
L 158.180034 155.783171 
L 167.49238 155.783171 
L 167.915668 150.516886 
L 183.746656 150.516886 
L 183.746656 145.2506 
L 186.498031 145.2506 
L 186.498031 142.617457 
L 198.350108 142.617457 
L 198.561752 139.984314 
L 212.741915 139.984314 
L 212.741915 137.351171 
L 223.53577 137.351171 
L 223.53577 134.718029 
L 224.382347 134.718029 
L 224.382347 132.084886 
L 250.626231 132.084886 
L 250.795547 129.451743 
L 289.314796 129.451743 
L 289.441782 124.185457 
L 296.637686 124.185457 
L 296.976317 118.919171 
L 300.785913 118.919171 
L 300.912899 113.652886 
L 351.8345 113.652886 
L 351.8345 108.3866 
L 357.972182 108.3866 
L 358.226155 97.854029 
L 364.363838 97.854029 
L 364.363838 92.587743 
L 365.210415 92.587743 
L 366.183978 87.321457 
L 371.051795 87.321457 
L 371.051795 84.688314 
L 379.094276 84.688314 
L 379.390578 76.788886 
L 385.52826 76.788886 
L 385.655247 71.5226 
L 406.81967 71.5226 
L 406.81967 68.889457 
L 424.809429 68.889457 
L 424.809429 63.623171 
L 424.851758 63.623171 
L 426.333267 63.623171 
L 426.333267 60.990029 
L 430.98944 60.990029 
L 430.98944 55.723743 
L 493.2975 55.723743 
L 493.2975 55.723743 
" style="fill:none;stroke:#008000;stroke-linecap:square;"/>
   </g>
   <g id="line2d_3">
    <path clip-path="url(#p1ac607b4bb)" d="M 46.8975 384.8666 
L 47.617159 384.8666 
L 47.78649 382.212222 
L 48.294484 382.212222 
L 48.633147 376.903466 
L 49.056476 376.903466 
L 49.225807 374.249088 
L 49.479804 363.631577 
L 49.987799 363.631577 
L 50.114797 358.322821 
L 51.93511 358.322821 
L 52.993432 347.70531 
L 53.374427 347.70531 
L 53.882422 342.396554 
L 56.464726 342.396554 
L 56.845722 339.742176 
L 61.375338 339.742176 
L 61.544669 337.087798 
L 61.967998 337.087798 
L 62.137329 334.43342 
L 63.830644 334.43342 
L 63.957642 329.124665 
L 69.122251 329.124665 
L 69.291583 326.470287 
L 77.673489 326.470287 
L 77.800487 321.161531 
L 78.647144 321.161531 
L 78.985807 315.852775 
L 79.197472 315.852775 
L 79.366803 313.198397 
L 81.69511 313.198397 
L 81.864442 310.544019 
L 81.99144 305.235264 
L 82.414769 305.235264 
L 82.753432 299.926508 
L 82.965096 299.926508 
L 83.303759 294.617752 
L 83.938752 294.617752 
L 84.319748 291.963374 
L 86.013062 291.963374 
L 86.182393 289.308996 
L 86.394058 289.308996 
L 86.859719 278.691485 
L 88.553033 278.691485 
L 88.722365 276.037107 
L 88.849363 270.728351 
L 89.484356 270.728351 
L 89.865352 268.073973 
L 90.077016 268.073973 
L 90.246348 265.419595 
L 92.362991 265.419595 
L 92.532322 262.765218 
L 92.659321 257.456462 
L 93.082649 257.456462 
L 93.251981 254.802084 
L 93.886974 254.802084 
L 94.394968 246.83895 
L 97.993261 246.83895 
L 98.162592 244.184572 
L 100.279235 244.184572 
L 100.406234 238.875817 
L 103.15787 238.875817 
L 103.538866 236.221439 
L 107.137159 236.221439 
L 107.264157 230.912683 
L 108.110814 230.912683 
L 108.449477 225.603927 
L 108.872806 225.603927 
L 109.042137 222.949549 
L 109.67713 222.949549 
L 109.846462 220.295171 
L 114.079748 220.295171 
L 114.460743 217.640794 
L 114.884072 217.640794 
L 114.968738 209.67766 
L 116.662052 209.67766 
L 117.043048 207.023282 
L 118.313033 207.023282 
L 118.821028 199.060148 
L 119.879349 199.060148 
L 120.048681 196.405771 
L 120.895338 196.405771 
L 121.234001 191.097015 
L 126.906604 191.097015 
L 127.075935 188.442637 
L 127.922592 188.442637 
L 128.091924 185.788259 
L 135.711839 185.788259 
L 136.431497 177.825125 
L 138.124812 177.825125 
L 138.294143 175.170747 
L 138.717472 175.170747 
L 138.886803 172.51637 
L 140.791782 172.51637 
L 140.961113 169.861992 
L 145.829392 169.861992 
L 145.95639 164.553236 
L 151.882991 164.553236 
L 152.475651 161.898858 
L 154.803958 161.898858 
L 155.142621 156.590102 
L 155.989278 156.590102 
L 156.15861 153.935724 
L 156.793602 153.935724 
L 157.301597 145.972591 
L 168.096476 145.972591 
L 168.265807 143.318213 
L 169.535793 143.318213 
L 169.874456 138.009457 
L 174.954399 138.009457 
L 175.081398 132.700701 
L 176.351383 132.700701 
L 176.520715 130.046324 
L 178.002365 130.046324 
L 178.171696 127.391946 
L 197.433147 127.391946 
L 197.602479 124.737568 
L 198.6608 124.737568 
L 198.830132 122.08319 
L 206.661711 122.08319 
L 207.254371 119.428812 
L 212.334314 119.428812 
L 212.461312 114.120056 
L 213.942962 114.120056 
L 214.281625 108.8113 
L 225.076504 108.8113 
L 225.4575 106.156923 
L 240.697329 106.156923 
L 240.866661 103.502545 
L 248.909904 103.502545 
L 249.079235 100.848167 
L 273.843958 100.848167 
L 274.013289 98.193789 
L 279.262564 98.193789 
L 279.431895 95.539411 
L 284.723503 95.539411 
L 284.892834 92.885033 
L 287.64447 92.885033 
L 287.771469 87.576277 
L 288.406462 87.576277 
L 288.787457 84.9219 
L 303.688624 84.9219 
L 303.857955 82.267522 
L 304.408282 76.958766 
L 320.494769 76.958766 
L 321.002763 68.995632 
L 326.506035 68.995632 
L 326.887031 66.341254 
L 347.418467 66.341254 
L 347.587799 63.686876 
L 395.212265 63.686876 
L 395.381597 61.032499 
L 423.956277 61.032499 
L 424.337272 58.378121 
L 478.946661 58.378121 
L 479.115992 55.723743 
L 493.2975 55.723743 
L 493.2975 55.723743 
" style="fill:none;stroke:#ff0000;stroke-linecap:square;"/>
   </g>
   <g id="line2d_4">
    <path clip-path="url(#p1ac607b4bb)" d="M 46.8975 384.8666 
L 493.2975 55.723743 
" style="fill:none;stroke:#000000;stroke-dasharray:6.000000,6.000000;stroke-dashoffset:0.0;"/>
   </g>
   <g id="patch_3">
    <path d="M 46.8975 384.8666 
L 493.2975 384.8666 
" style="fill:none;stroke:#000000;stroke-linecap:square;stroke-linejoin:miter;"/>
   </g>
   <g id="patch_4">
    <path d="M 46.8975 384.8666 
L 46.8975 39.2666 
" style="fill:none;stroke:#000000;stroke-linecap:square;stroke-linejoin:miter;"/>
   </g>
   <g id="patch_5">
    <path d="M 46.8975 39.2666 
L 493.2975 39.2666 
" style="fill:none;stroke:#000000;stroke-linecap:square;stroke-linejoin:miter;"/>
   </g>
   <g id="patch_6">
    <path d="M 493.2975 384.8666 
L 493.2975 39.2666 
" style="fill:none;stroke:#000000;stroke-linecap:square;stroke-linejoin:miter;"/>
   </g>
   <g id="matplotlib.axis_1">
    <g id="xtick_1">
     <g id="line2d_5">
      <defs>
       <path d="M 0 0 
L 0 -4 
" id="mdefbd1a900" style="stroke:#000000;stroke-width:0.5;"/>
      </defs>
      <g>
       <use style="stroke:#000000;stroke-width:0.5;" x="46.8975" xlink:href="#mdefbd1a900" y="384.8666"/>
      </g>
     </g>
     <g id="line2d_6">
      <defs>
       <path d="M 0 0 
L 0 4 
" id="m009169b3d6" style="stroke:#000000;stroke-width:0.5;"/>
      </defs>
      <g>
       <use style="stroke:#000000;stroke-width:0.5;" x="46.8975" xlink:href="#m009169b3d6" y="39.2666"/>
      </g>
     </g>
     <g id="text_1">
      <!-- 0.0 -->
      <defs>
       <path d="M 31.78125 66.40625 
Q 24.171875 66.40625 20.328125 58.90625 
Q 16.5 51.421875 16.5 36.375 
Q 16.5 21.390625 20.328125 13.890625 
Q 24.171875 6.390625 31.78125 6.390625 
Q 39.453125 6.390625 43.28125 13.890625 
Q 47.125 21.390625 47.125 36.375 
Q 47.125 51.421875 43.28125 58.90625 
Q 39.453125 66.40625 31.78125 66.40625 
M 31.78125 74.21875 
Q 44.046875 74.21875 50.515625 64.515625 
Q 56.984375 54.828125 56.984375 36.375 
Q 56.984375 17.96875 50.515625 8.265625 
Q 44.046875 -1.421875 31.78125 -1.421875 
Q 19.53125 -1.421875 13.0625 8.265625 
Q 6.59375 17.96875 6.59375 36.375 
Q 6.59375 54.828125 13.0625 64.515625 
Q 19.53125 74.21875 31.78125 74.21875 
" id="BitstreamVeraSans-Roman-30"/>
       <path d="M 10.6875 12.40625 
L 21 12.40625 
L 21 0 
L 10.6875 0 
z
" id="BitstreamVeraSans-Roman-2e"/>
      </defs>
      <g transform="translate(37.355625 397.984725)scale(0.12 -0.12)">
       <use xlink:href="#BitstreamVeraSans-Roman-30"/>
       <use x="63.623046875" xlink:href="#BitstreamVeraSans-Roman-2e"/>
       <use x="95.41015625" xlink:href="#BitstreamVeraSans-Roman-30"/>
      </g>
     </g>
    </g>
    <g id="xtick_2">
     <g id="line2d_7">
      <g>
       <use style="stroke:#000000;stroke-width:0.5;" x="136.1775" xlink:href="#mdefbd1a900" y="384.8666"/>
      </g>
     </g>
     <g id="line2d_8">
      <g>
       <use style="stroke:#000000;stroke-width:0.5;" x="136.1775" xlink:href="#m009169b3d6" y="39.2666"/>
      </g>
     </g>
     <g id="text_2">
      <!-- 0.2 -->
      <defs>
       <path d="M 19.1875 8.296875 
L 53.609375 8.296875 
L 53.609375 0 
L 7.328125 0 
L 7.328125 8.296875 
Q 12.9375 14.109375 22.625 23.890625 
Q 32.328125 33.6875 34.8125 36.53125 
Q 39.546875 41.84375 41.421875 45.53125 
Q 43.3125 49.21875 43.3125 52.78125 
Q 43.3125 58.59375 39.234375 62.25 
Q 35.15625 65.921875 28.609375 65.921875 
Q 23.96875 65.921875 18.8125 64.3125 
Q 13.671875 62.703125 7.8125 59.421875 
L 7.8125 69.390625 
Q 13.765625 71.78125 18.9375 73 
Q 24.125 74.21875 28.421875 74.21875 
Q 39.75 74.21875 46.484375 68.546875 
Q 53.21875 62.890625 53.21875 53.421875 
Q 53.21875 48.921875 51.53125 44.890625 
Q 49.859375 40.875 45.40625 35.40625 
Q 44.1875 33.984375 37.640625 27.21875 
Q 31.109375 20.453125 19.1875 8.296875 
" id="BitstreamVeraSans-Roman-32"/>
      </defs>
      <g transform="translate(126.635625 397.984725)scale(0.12 -0.12)">
       <use xlink:href="#BitstreamVeraSans-Roman-30"/>
       <use x="63.623046875" xlink:href="#BitstreamVeraSans-Roman-2e"/>
       <use x="95.41015625" xlink:href="#BitstreamVeraSans-Roman-32"/>
      </g>
     </g>
    </g>
    <g id="xtick_3">
     <g id="line2d_9">
      <g>
       <use style="stroke:#000000;stroke-width:0.5;" x="225.4575" xlink:href="#mdefbd1a900" y="384.8666"/>
      </g>
     </g>
     <g id="line2d_10">
      <g>
       <use style="stroke:#000000;stroke-width:0.5;" x="225.4575" xlink:href="#m009169b3d6" y="39.2666"/>
      </g>
     </g>
     <g id="text_3">
      <!-- 0.4 -->
      <defs>
       <path d="M 37.796875 64.3125 
L 12.890625 25.390625 
L 37.796875 25.390625 
z
M 35.203125 72.90625 
L 47.609375 72.90625 
L 47.609375 25.390625 
L 58.015625 25.390625 
L 58.015625 17.1875 
L 47.609375 17.1875 
L 47.609375 0 
L 37.796875 0 
L 37.796875 17.1875 
L 4.890625 17.1875 
L 4.890625 26.703125 
z
" id="BitstreamVeraSans-Roman-34"/>
      </defs>
      <g transform="translate(215.915625 397.984725)scale(0.12 -0.12)">
       <use xlink:href="#BitstreamVeraSans-Roman-30"/>
       <use x="63.623046875" xlink:href="#BitstreamVeraSans-Roman-2e"/>
       <use x="95.41015625" xlink:href="#BitstreamVeraSans-Roman-34"/>
      </g>
     </g>
    </g>
    <g id="xtick_4">
     <g id="line2d_11">
      <g>
       <use style="stroke:#000000;stroke-width:0.5;" x="314.7375" xlink:href="#mdefbd1a900" y="384.8666"/>
      </g>
     </g>
     <g id="line2d_12">
      <g>
       <use style="stroke:#000000;stroke-width:0.5;" x="314.7375" xlink:href="#m009169b3d6" y="39.2666"/>
      </g>
     </g>
     <g id="text_4">
      <!-- 0.6 -->
      <defs>
       <path d="M 33.015625 40.375 
Q 26.375 40.375 22.484375 35.828125 
Q 18.609375 31.296875 18.609375 23.390625 
Q 18.609375 15.53125 22.484375 10.953125 
Q 26.375 6.390625 33.015625 6.390625 
Q 39.65625 6.390625 43.53125 10.953125 
Q 47.40625 15.53125 47.40625 23.390625 
Q 47.40625 31.296875 43.53125 35.828125 
Q 39.65625 40.375 33.015625 40.375 
M 52.59375 71.296875 
L 52.59375 62.3125 
Q 48.875 64.0625 45.09375 64.984375 
Q 41.3125 65.921875 37.59375 65.921875 
Q 27.828125 65.921875 22.671875 59.328125 
Q 17.53125 52.734375 16.796875 39.40625 
Q 19.671875 43.65625 24.015625 45.921875 
Q 28.375 48.1875 33.59375 48.1875 
Q 44.578125 48.1875 50.953125 41.515625 
Q 57.328125 34.859375 57.328125 23.390625 
Q 57.328125 12.15625 50.6875 5.359375 
Q 44.046875 -1.421875 33.015625 -1.421875 
Q 20.359375 -1.421875 13.671875 8.265625 
Q 6.984375 17.96875 6.984375 36.375 
Q 6.984375 53.65625 15.1875 63.9375 
Q 23.390625 74.21875 37.203125 74.21875 
Q 40.921875 74.21875 44.703125 73.484375 
Q 48.484375 72.75 52.59375 71.296875 
" id="BitstreamVeraSans-Roman-36"/>
      </defs>
      <g transform="translate(305.195625 397.984725)scale(0.12 -0.12)">
       <use xlink:href="#BitstreamVeraSans-Roman-30"/>
       <use x="63.623046875" xlink:href="#BitstreamVeraSans-Roman-2e"/>
       <use x="95.41015625" xlink:href="#BitstreamVeraSans-Roman-36"/>
      </g>
     </g>
    </g>
    <g id="xtick_5">
     <g id="line2d_13">
      <g>
       <use style="stroke:#000000;stroke-width:0.5;" x="404.0175" xlink:href="#mdefbd1a900" y="384.8666"/>
      </g>
     </g>
     <g id="line2d_14">
      <g>
       <use style="stroke:#000000;stroke-width:0.5;" x="404.0175" xlink:href="#m009169b3d6" y="39.2666"/>
      </g>
     </g>
     <g id="text_5">
      <!-- 0.8 -->
      <defs>
       <path d="M 31.78125 34.625 
Q 24.75 34.625 20.71875 30.859375 
Q 16.703125 27.09375 16.703125 20.515625 
Q 16.703125 13.921875 20.71875 10.15625 
Q 24.75 6.390625 31.78125 6.390625 
Q 38.8125 6.390625 42.859375 10.171875 
Q 46.921875 13.96875 46.921875 20.515625 
Q 46.921875 27.09375 42.890625 30.859375 
Q 38.875 34.625 31.78125 34.625 
M 21.921875 38.8125 
Q 15.578125 40.375 12.03125 44.71875 
Q 8.5 49.078125 8.5 55.328125 
Q 8.5 64.0625 14.71875 69.140625 
Q 20.953125 74.21875 31.78125 74.21875 
Q 42.671875 74.21875 48.875 69.140625 
Q 55.078125 64.0625 55.078125 55.328125 
Q 55.078125 49.078125 51.53125 44.71875 
Q 48 40.375 41.703125 38.8125 
Q 48.828125 37.15625 52.796875 32.3125 
Q 56.78125 27.484375 56.78125 20.515625 
Q 56.78125 9.90625 50.3125 4.234375 
Q 43.84375 -1.421875 31.78125 -1.421875 
Q 19.734375 -1.421875 13.25 4.234375 
Q 6.78125 9.90625 6.78125 20.515625 
Q 6.78125 27.484375 10.78125 32.3125 
Q 14.796875 37.15625 21.921875 38.8125 
M 18.3125 54.390625 
Q 18.3125 48.734375 21.84375 45.5625 
Q 25.390625 42.390625 31.78125 42.390625 
Q 38.140625 42.390625 41.71875 45.5625 
Q 45.3125 48.734375 45.3125 54.390625 
Q 45.3125 60.0625 41.71875 63.234375 
Q 38.140625 66.40625 31.78125 66.40625 
Q 25.390625 66.40625 21.84375 63.234375 
Q 18.3125 60.0625 18.3125 54.390625 
" id="BitstreamVeraSans-Roman-38"/>
      </defs>
      <g transform="translate(394.475625 397.984725)scale(0.12 -0.12)">
       <use xlink:href="#BitstreamVeraSans-Roman-30"/>
       <use x="63.623046875" xlink:href="#BitstreamVeraSans-Roman-2e"/>
       <use x="95.41015625" xlink:href="#BitstreamVeraSans-Roman-38"/>
      </g>
     </g>
    </g>
    <g id="xtick_6">
     <g id="line2d_15">
      <g>
       <use style="stroke:#000000;stroke-width:0.5;" x="493.2975" xlink:href="#mdefbd1a900" y="384.8666"/>
      </g>
     </g>
     <g id="line2d_16">
      <g>
       <use style="stroke:#000000;stroke-width:0.5;" x="493.2975" xlink:href="#m009169b3d6" y="39.2666"/>
      </g>
     </g>
     <g id="text_6">
      <!-- 1.0 -->
      <defs>
       <path d="M 12.40625 8.296875 
L 28.515625 8.296875 
L 28.515625 63.921875 
L 10.984375 60.40625 
L 10.984375 69.390625 
L 28.421875 72.90625 
L 38.28125 72.90625 
L 38.28125 8.296875 
L 54.390625 8.296875 
L 54.390625 0 
L 12.40625 0 
z
" id="BitstreamVeraSans-Roman-31"/>
      </defs>
      <g transform="translate(483.755625 397.984725)scale(0.12 -0.12)">
       <use xlink:href="#BitstreamVeraSans-Roman-31"/>
       <use x="63.623046875" xlink:href="#BitstreamVeraSans-Roman-2e"/>
       <use x="95.41015625" xlink:href="#BitstreamVeraSans-Roman-30"/>
      </g>
     </g>
    </g>
    <g id="text_7">
     <!-- False Positive Rate -->
     <defs>
      <path d="M 44.28125 53.078125 
L 44.28125 44.578125 
Q 40.484375 46.53125 36.375 47.5 
Q 32.28125 48.484375 27.875 48.484375 
Q 21.1875 48.484375 17.84375 46.4375 
Q 14.5 44.390625 14.5 40.28125 
Q 14.5 37.15625 16.890625 35.375 
Q 19.28125 33.59375 26.515625 31.984375 
L 29.59375 31.296875 
Q 39.15625 29.25 43.1875 25.515625 
Q 47.21875 21.78125 47.21875 15.09375 
Q 47.21875 7.46875 41.1875 3.015625 
Q 35.15625 -1.421875 24.609375 -1.421875 
Q 20.21875 -1.421875 15.453125 -0.5625 
Q 10.6875 0.296875 5.421875 2 
L 5.421875 11.28125 
Q 10.40625 8.6875 15.234375 7.390625 
Q 20.0625 6.109375 24.8125 6.109375 
Q 31.15625 6.109375 34.5625 8.28125 
Q 37.984375 10.453125 37.984375 14.40625 
Q 37.984375 18.0625 35.515625 20.015625 
Q 33.0625 21.96875 24.703125 23.78125 
L 21.578125 24.515625 
Q 13.234375 26.265625 9.515625 29.90625 
Q 5.8125 33.546875 5.8125 39.890625 
Q 5.8125 47.609375 11.28125 51.796875 
Q 16.75 56 26.8125 56 
Q 31.78125 56 36.171875 55.265625 
Q 40.578125 54.546875 44.28125 53.078125 
" id="BitstreamVeraSans-Roman-73"/>
      <path d="M 34.28125 27.484375 
Q 23.390625 27.484375 19.1875 25 
Q 14.984375 22.515625 14.984375 16.5 
Q 14.984375 11.71875 18.140625 8.90625 
Q 21.296875 6.109375 26.703125 6.109375 
Q 34.1875 6.109375 38.703125 11.40625 
Q 43.21875 16.703125 43.21875 25.484375 
L 43.21875 27.484375 
z
M 52.203125 31.203125 
L 52.203125 0 
L 43.21875 0 
L 43.21875 8.296875 
Q 40.140625 3.328125 35.546875 0.953125 
Q 30.953125 -1.421875 24.3125 -1.421875 
Q 15.921875 -1.421875 10.953125 3.296875 
Q 6 8.015625 6 15.921875 
Q 6 25.140625 12.171875 29.828125 
Q 18.359375 34.515625 30.609375 34.515625 
L 43.21875 34.515625 
L 43.21875 35.40625 
Q 43.21875 41.609375 39.140625 45 
Q 35.0625 48.390625 27.6875 48.390625 
Q 23 48.390625 18.546875 47.265625 
Q 14.109375 46.140625 10.015625 43.890625 
L 10.015625 52.203125 
Q 14.9375 54.109375 19.578125 55.046875 
Q 24.21875 56 28.609375 56 
Q 40.484375 56 46.34375 49.84375 
Q 52.203125 43.703125 52.203125 31.203125 
" id="BitstreamVeraSans-Roman-61"/>
      <path d="M 9.8125 72.90625 
L 51.703125 72.90625 
L 51.703125 64.59375 
L 19.671875 64.59375 
L 19.671875 43.109375 
L 48.578125 43.109375 
L 48.578125 34.8125 
L 19.671875 34.8125 
L 19.671875 0 
L 9.8125 0 
z
" id="BitstreamVeraSans-Roman-46"/>
      <path d="M 44.390625 34.1875 
Q 47.5625 33.109375 50.5625 29.59375 
Q 53.5625 26.078125 56.59375 19.921875 
L 66.609375 0 
L 56 0 
L 46.6875 18.703125 
Q 43.0625 26.03125 39.671875 28.421875 
Q 36.28125 30.8125 30.421875 30.8125 
L 19.671875 30.8125 
L 19.671875 0 
L 9.8125 0 
L 9.8125 72.90625 
L 32.078125 72.90625 
Q 44.578125 72.90625 50.734375 67.671875 
Q 56.890625 62.453125 56.890625 51.90625 
Q 56.890625 45.015625 53.6875 40.46875 
Q 50.484375 35.9375 44.390625 34.1875 
M 19.671875 64.796875 
L 19.671875 38.921875 
L 32.078125 38.921875 
Q 39.203125 38.921875 42.84375 42.21875 
Q 46.484375 45.515625 46.484375 51.90625 
Q 46.484375 58.296875 42.84375 61.546875 
Q 39.203125 64.796875 32.078125 64.796875 
z
" id="BitstreamVeraSans-Roman-52"/>
      <path d="M 56.203125 29.59375 
L 56.203125 25.203125 
L 14.890625 25.203125 
Q 15.484375 15.921875 20.484375 11.0625 
Q 25.484375 6.203125 34.421875 6.203125 
Q 39.59375 6.203125 44.453125 7.46875 
Q 49.3125 8.734375 54.109375 11.28125 
L 54.109375 2.78125 
Q 49.265625 0.734375 44.1875 -0.34375 
Q 39.109375 -1.421875 33.890625 -1.421875 
Q 20.796875 -1.421875 13.15625 6.1875 
Q 5.515625 13.8125 5.515625 26.8125 
Q 5.515625 40.234375 12.765625 48.109375 
Q 20.015625 56 32.328125 56 
Q 43.359375 56 49.78125 48.890625 
Q 56.203125 41.796875 56.203125 29.59375 
M 47.21875 32.234375 
Q 47.125 39.59375 43.09375 43.984375 
Q 39.0625 48.390625 32.421875 48.390625 
Q 24.90625 48.390625 20.390625 44.140625 
Q 15.875 39.890625 15.1875 32.171875 
z
" id="BitstreamVeraSans-Roman-65"/>
      <path d="M 18.3125 70.21875 
L 18.3125 54.6875 
L 36.8125 54.6875 
L 36.8125 47.703125 
L 18.3125 47.703125 
L 18.3125 18.015625 
Q 18.3125 11.328125 20.140625 9.421875 
Q 21.96875 7.515625 27.59375 7.515625 
L 36.8125 7.515625 
L 36.8125 0 
L 27.59375 0 
Q 17.1875 0 13.234375 3.875 
Q 9.28125 7.765625 9.28125 18.015625 
L 9.28125 47.703125 
L 2.6875 47.703125 
L 2.6875 54.6875 
L 9.28125 54.6875 
L 9.28125 70.21875 
z
" id="BitstreamVeraSans-Roman-74"/>
      <path d="M 9.421875 54.6875 
L 18.40625 54.6875 
L 18.40625 0 
L 9.421875 0 
z
M 9.421875 75.984375 
L 18.40625 75.984375 
L 18.40625 64.59375 
L 9.421875 64.59375 
z
" id="BitstreamVeraSans-Roman-69"/>
      <path d="M 30.609375 48.390625 
Q 23.390625 48.390625 19.1875 42.75 
Q 14.984375 37.109375 14.984375 27.296875 
Q 14.984375 17.484375 19.15625 11.84375 
Q 23.34375 6.203125 30.609375 6.203125 
Q 37.796875 6.203125 41.984375 11.859375 
Q 46.1875 17.53125 46.1875 27.296875 
Q 46.1875 37.015625 41.984375 42.703125 
Q 37.796875 48.390625 30.609375 48.390625 
M 30.609375 56 
Q 42.328125 56 49.015625 48.375 
Q 55.71875 40.765625 55.71875 27.296875 
Q 55.71875 13.875 49.015625 6.21875 
Q 42.328125 -1.421875 30.609375 -1.421875 
Q 18.84375 -1.421875 12.171875 6.21875 
Q 5.515625 13.875 5.515625 27.296875 
Q 5.515625 40.765625 12.171875 48.375 
Q 18.84375 56 30.609375 56 
" id="BitstreamVeraSans-Roman-6f"/>
      <path d="M 9.421875 75.984375 
L 18.40625 75.984375 
L 18.40625 0 
L 9.421875 0 
z
" id="BitstreamVeraSans-Roman-6c"/>
      <path id="BitstreamVeraSans-Roman-20"/>
      <path d="M 2.984375 54.6875 
L 12.5 54.6875 
L 29.59375 8.796875 
L 46.6875 54.6875 
L 56.203125 54.6875 
L 35.6875 0 
L 23.484375 0 
z
" id="BitstreamVeraSans-Roman-76"/>
      <path d="M 19.671875 64.796875 
L 19.671875 37.40625 
L 32.078125 37.40625 
Q 38.96875 37.40625 42.71875 40.96875 
Q 46.484375 44.53125 46.484375 51.125 
Q 46.484375 57.671875 42.71875 61.234375 
Q 38.96875 64.796875 32.078125 64.796875 
z
M 9.8125 72.90625 
L 32.078125 72.90625 
Q 44.34375 72.90625 50.609375 67.359375 
Q 56.890625 61.8125 56.890625 51.125 
Q 56.890625 40.328125 50.609375 34.8125 
Q 44.34375 29.296875 32.078125 29.296875 
L 19.671875 29.296875 
L 19.671875 0 
L 9.8125 0 
z
" id="BitstreamVeraSans-Roman-50"/>
     </defs>
     <g transform="translate(213.4509375 414.598475)scale(0.12 -0.12)">
      <use xlink:href="#BitstreamVeraSans-Roman-46"/>
      <use x="57.37890625" xlink:href="#BitstreamVeraSans-Roman-61"/>
      <use x="118.658203125" xlink:href="#BitstreamVeraSans-Roman-6c"/>
      <use x="146.44140625" xlink:href="#BitstreamVeraSans-Roman-73"/>
      <use x="198.541015625" xlink:href="#BitstreamVeraSans-Roman-65"/>
      <use x="260.064453125" xlink:href="#BitstreamVeraSans-Roman-20"/>
      <use x="291.8515625" xlink:href="#BitstreamVeraSans-Roman-50"/>
      <use x="352.107421875" xlink:href="#BitstreamVeraSans-Roman-6f"/>
      <use x="413.2890625" xlink:href="#BitstreamVeraSans-Roman-73"/>
      <use x="465.388671875" xlink:href="#BitstreamVeraSans-Roman-69"/>
      <use x="493.171875" xlink:href="#BitstreamVeraSans-Roman-74"/>
      <use x="532.380859375" xlink:href="#BitstreamVeraSans-Roman-69"/>
      <use x="560.1640625" xlink:href="#BitstreamVeraSans-Roman-76"/>
      <use x="619.34375" xlink:href="#BitstreamVeraSans-Roman-65"/>
      <use x="680.8671875" xlink:href="#BitstreamVeraSans-Roman-20"/>
      <use x="712.654296875" xlink:href="#BitstreamVeraSans-Roman-52"/>
      <use x="782.10546875" xlink:href="#BitstreamVeraSans-Roman-61"/>
      <use x="843.384765625" xlink:href="#BitstreamVeraSans-Roman-74"/>
      <use x="882.59375" xlink:href="#BitstreamVeraSans-Roman-65"/>
     </g>
    </g>
   </g>
   <g id="matplotlib.axis_2">
    <g id="ytick_1">
     <g id="line2d_17">
      <defs>
       <path d="M 0 0 
L 4 0 
" id="me6ad3ad758" style="stroke:#000000;stroke-width:0.5;"/>
      </defs>
      <g>
       <use style="stroke:#000000;stroke-width:0.5;" x="46.8975" xlink:href="#me6ad3ad758" y="384.8666"/>
      </g>
     </g>
     <g id="line2d_18">
      <defs>
       <path d="M 0 0 
L -4 0 
" id="m311fdb9eed" style="stroke:#000000;stroke-width:0.5;"/>
      </defs>
      <g>
       <use style="stroke:#000000;stroke-width:0.5;" x="493.2975" xlink:href="#m311fdb9eed" y="384.8666"/>
      </g>
     </g>
     <g id="text_8">
      <!-- 0.0 -->
      <g transform="translate(23.81375 388.17785)scale(0.12 -0.12)">
       <use xlink:href="#BitstreamVeraSans-Roman-30"/>
       <use x="63.623046875" xlink:href="#BitstreamVeraSans-Roman-2e"/>
       <use x="95.41015625" xlink:href="#BitstreamVeraSans-Roman-30"/>
      </g>
     </g>
    </g>
    <g id="ytick_2">
     <g id="line2d_19">
      <g>
       <use style="stroke:#000000;stroke-width:0.5;" x="46.8975" xlink:href="#me6ad3ad758" y="319.038028571"/>
      </g>
     </g>
     <g id="line2d_20">
      <g>
       <use style="stroke:#000000;stroke-width:0.5;" x="493.2975" xlink:href="#m311fdb9eed" y="319.038028571"/>
      </g>
     </g>
     <g id="text_9">
      <!-- 0.2 -->
      <g transform="translate(23.81375 322.349278571)scale(0.12 -0.12)">
       <use xlink:href="#BitstreamVeraSans-Roman-30"/>
       <use x="63.623046875" xlink:href="#BitstreamVeraSans-Roman-2e"/>
       <use x="95.41015625" xlink:href="#BitstreamVeraSans-Roman-32"/>
      </g>
     </g>
    </g>
    <g id="ytick_3">
     <g id="line2d_21">
      <g>
       <use style="stroke:#000000;stroke-width:0.5;" x="46.8975" xlink:href="#me6ad3ad758" y="253.209457143"/>
      </g>
     </g>
     <g id="line2d_22">
      <g>
       <use style="stroke:#000000;stroke-width:0.5;" x="493.2975" xlink:href="#m311fdb9eed" y="253.209457143"/>
      </g>
     </g>
     <g id="text_10">
      <!-- 0.4 -->
      <g transform="translate(23.81375 256.520707143)scale(0.12 -0.12)">
       <use xlink:href="#BitstreamVeraSans-Roman-30"/>
       <use x="63.623046875" xlink:href="#BitstreamVeraSans-Roman-2e"/>
       <use x="95.41015625" xlink:href="#BitstreamVeraSans-Roman-34"/>
      </g>
     </g>
    </g>
    <g id="ytick_4">
     <g id="line2d_23">
      <g>
       <use style="stroke:#000000;stroke-width:0.5;" x="46.8975" xlink:href="#me6ad3ad758" y="187.380885714"/>
      </g>
     </g>
     <g id="line2d_24">
      <g>
       <use style="stroke:#000000;stroke-width:0.5;" x="493.2975" xlink:href="#m311fdb9eed" y="187.380885714"/>
      </g>
     </g>
     <g id="text_11">
      <!-- 0.6 -->
      <g transform="translate(23.81375 190.692135714)scale(0.12 -0.12)">
       <use xlink:href="#BitstreamVeraSans-Roman-30"/>
       <use x="63.623046875" xlink:href="#BitstreamVeraSans-Roman-2e"/>
       <use x="95.41015625" xlink:href="#BitstreamVeraSans-Roman-36"/>
      </g>
     </g>
    </g>
    <g id="ytick_5">
     <g id="line2d_25">
      <g>
       <use style="stroke:#000000;stroke-width:0.5;" x="46.8975" xlink:href="#me6ad3ad758" y="121.552314286"/>
      </g>
     </g>
     <g id="line2d_26">
      <g>
       <use style="stroke:#000000;stroke-width:0.5;" x="493.2975" xlink:href="#m311fdb9eed" y="121.552314286"/>
      </g>
     </g>
     <g id="text_12">
      <!-- 0.8 -->
      <g transform="translate(23.81375 124.863564286)scale(0.12 -0.12)">
       <use xlink:href="#BitstreamVeraSans-Roman-30"/>
       <use x="63.623046875" xlink:href="#BitstreamVeraSans-Roman-2e"/>
       <use x="95.41015625" xlink:href="#BitstreamVeraSans-Roman-38"/>
      </g>
     </g>
    </g>
    <g id="ytick_6">
     <g id="line2d_27">
      <g>
       <use style="stroke:#000000;stroke-width:0.5;" x="46.8975" xlink:href="#me6ad3ad758" y="55.7237428571"/>
      </g>
     </g>
     <g id="line2d_28">
      <g>
       <use style="stroke:#000000;stroke-width:0.5;" x="493.2975" xlink:href="#m311fdb9eed" y="55.7237428571"/>
      </g>
     </g>
     <g id="text_13">
      <!-- 1.0 -->
      <g transform="translate(23.81375 59.0349928571)scale(0.12 -0.12)">
       <use xlink:href="#BitstreamVeraSans-Roman-31"/>
       <use x="63.623046875" xlink:href="#BitstreamVeraSans-Roman-2e"/>
       <use x="95.41015625" xlink:href="#BitstreamVeraSans-Roman-30"/>
      </g>
     </g>
    </g>
    <g id="text_14">
     <!-- True Positive Rate -->
     <defs>
      <path d="M 41.109375 46.296875 
Q 39.59375 47.171875 37.8125 47.578125 
Q 36.03125 48 33.890625 48 
Q 26.265625 48 22.1875 43.046875 
Q 18.109375 38.09375 18.109375 28.8125 
L 18.109375 0 
L 9.078125 0 
L 9.078125 54.6875 
L 18.109375 54.6875 
L 18.109375 46.1875 
Q 20.953125 51.171875 25.484375 53.578125 
Q 30.03125 56 36.53125 56 
Q 37.453125 56 38.578125 55.875 
Q 39.703125 55.765625 41.0625 55.515625 
z
" id="BitstreamVeraSans-Roman-72"/>
      <path d="M 8.5 21.578125 
L 8.5 54.6875 
L 17.484375 54.6875 
L 17.484375 21.921875 
Q 17.484375 14.15625 20.5 10.265625 
Q 23.53125 6.390625 29.59375 6.390625 
Q 36.859375 6.390625 41.078125 11.03125 
Q 45.3125 15.671875 45.3125 23.6875 
L 45.3125 54.6875 
L 54.296875 54.6875 
L 54.296875 0 
L 45.3125 0 
L 45.3125 8.40625 
Q 42.046875 3.421875 37.71875 1 
Q 33.40625 -1.421875 27.6875 -1.421875 
Q 18.265625 -1.421875 13.375 4.4375 
Q 8.5 10.296875 8.5 21.578125 
" id="BitstreamVeraSans-Roman-75"/>
      <path d="M -0.296875 72.90625 
L 61.375 72.90625 
L 61.375 64.59375 
L 35.5 64.59375 
L 35.5 0 
L 25.59375 0 
L 25.59375 64.59375 
L -0.296875 64.59375 
z
" id="BitstreamVeraSans-Roman-54"/>
     </defs>
     <g transform="translate(16.318125 266.7219125)rotate(-90.0)scale(0.12 -0.12)">
      <use xlink:href="#BitstreamVeraSans-Roman-54"/>
      <use x="60.865234375" xlink:href="#BitstreamVeraSans-Roman-72"/>
      <use x="101.978515625" xlink:href="#BitstreamVeraSans-Roman-75"/>
      <use x="165.357421875" xlink:href="#BitstreamVeraSans-Roman-65"/>
      <use x="226.880859375" xlink:href="#BitstreamVeraSans-Roman-20"/>
      <use x="258.66796875" xlink:href="#BitstreamVeraSans-Roman-50"/>
      <use x="318.923828125" xlink:href="#BitstreamVeraSans-Roman-6f"/>
      <use x="380.10546875" xlink:href="#BitstreamVeraSans-Roman-73"/>
      <use x="432.205078125" xlink:href="#BitstreamVeraSans-Roman-69"/>
      <use x="459.98828125" xlink:href="#BitstreamVeraSans-Roman-74"/>
      <use x="499.197265625" xlink:href="#BitstreamVeraSans-Roman-69"/>
      <use x="526.98046875" xlink:href="#BitstreamVeraSans-Roman-76"/>
      <use x="586.16015625" xlink:href="#BitstreamVeraSans-Roman-65"/>
      <use x="647.68359375" xlink:href="#BitstreamVeraSans-Roman-20"/>
      <use x="679.470703125" xlink:href="#BitstreamVeraSans-Roman-52"/>
      <use x="748.921875" xlink:href="#BitstreamVeraSans-Roman-61"/>
      <use x="810.201171875" xlink:href="#BitstreamVeraSans-Roman-74"/>
      <use x="849.41015625" xlink:href="#BitstreamVeraSans-Roman-65"/>
     </g>
    </g>
   </g>
   <g id="text_15">
    <!-- ROC Curve GradientBoosting + RandomOverSampler -->
    <defs>
     <path d="M 64.40625 67.28125 
L 64.40625 56.890625 
Q 59.421875 61.53125 53.78125 63.8125 
Q 48.140625 66.109375 41.796875 66.109375 
Q 29.296875 66.109375 22.65625 58.46875 
Q 16.015625 50.828125 16.015625 36.375 
Q 16.015625 21.96875 22.65625 14.328125 
Q 29.296875 6.6875 41.796875 6.6875 
Q 48.140625 6.6875 53.78125 8.984375 
Q 59.421875 11.28125 64.40625 15.921875 
L 64.40625 5.609375 
Q 59.234375 2.09375 53.4375 0.328125 
Q 47.65625 -1.421875 41.21875 -1.421875 
Q 24.65625 -1.421875 15.125 8.703125 
Q 5.609375 18.84375 5.609375 36.375 
Q 5.609375 53.953125 15.125 64.078125 
Q 24.65625 74.21875 41.21875 74.21875 
Q 47.75 74.21875 53.53125 72.484375 
Q 59.328125 70.75 64.40625 67.28125 
" id="BitstreamVeraSans-Roman-43"/>
     <path d="M 45.40625 27.984375 
Q 45.40625 37.75 41.375 43.109375 
Q 37.359375 48.484375 30.078125 48.484375 
Q 22.859375 48.484375 18.828125 43.109375 
Q 14.796875 37.75 14.796875 27.984375 
Q 14.796875 18.265625 18.828125 12.890625 
Q 22.859375 7.515625 30.078125 7.515625 
Q 37.359375 7.515625 41.375 12.890625 
Q 45.40625 18.265625 45.40625 27.984375 
M 54.390625 6.78125 
Q 54.390625 -7.171875 48.1875 -13.984375 
Q 42 -20.796875 29.203125 -20.796875 
Q 24.46875 -20.796875 20.265625 -20.09375 
Q 16.0625 -19.390625 12.109375 -17.921875 
L 12.109375 -9.1875 
Q 16.0625 -11.328125 19.921875 -12.34375 
Q 23.78125 -13.375 27.78125 -13.375 
Q 36.625 -13.375 41.015625 -8.765625 
Q 45.40625 -4.15625 45.40625 5.171875 
L 45.40625 9.625 
Q 42.625 4.78125 38.28125 2.390625 
Q 33.9375 0 27.875 0 
Q 17.828125 0 11.671875 7.65625 
Q 5.515625 15.328125 5.515625 27.984375 
Q 5.515625 40.671875 11.671875 48.328125 
Q 17.828125 56 27.875 56 
Q 33.9375 56 38.28125 53.609375 
Q 42.625 51.21875 45.40625 46.390625 
L 45.40625 54.6875 
L 54.390625 54.6875 
z
" id="BitstreamVeraSans-Roman-67"/>
     <path d="M 45.40625 46.390625 
L 45.40625 75.984375 
L 54.390625 75.984375 
L 54.390625 0 
L 45.40625 0 
L 45.40625 8.203125 
Q 42.578125 3.328125 38.25 0.953125 
Q 33.9375 -1.421875 27.875 -1.421875 
Q 17.96875 -1.421875 11.734375 6.484375 
Q 5.515625 14.40625 5.515625 27.296875 
Q 5.515625 40.1875 11.734375 48.09375 
Q 17.96875 56 27.875 56 
Q 33.9375 56 38.25 53.625 
Q 42.578125 51.265625 45.40625 46.390625 
M 14.796875 27.296875 
Q 14.796875 17.390625 18.875 11.75 
Q 22.953125 6.109375 30.078125 6.109375 
Q 37.203125 6.109375 41.296875 11.75 
Q 45.40625 17.390625 45.40625 27.296875 
Q 45.40625 37.203125 41.296875 42.84375 
Q 37.203125 48.484375 30.078125 48.484375 
Q 22.953125 48.484375 18.875 42.84375 
Q 14.796875 37.203125 14.796875 27.296875 
" id="BitstreamVeraSans-Roman-64"/>
     <path d="M 19.671875 34.8125 
L 19.671875 8.109375 
L 35.5 8.109375 
Q 43.453125 8.109375 47.28125 11.40625 
Q 51.125 14.703125 51.125 21.484375 
Q 51.125 28.328125 47.28125 31.5625 
Q 43.453125 34.8125 35.5 34.8125 
z
M 19.671875 64.796875 
L 19.671875 42.828125 
L 34.28125 42.828125 
Q 41.5 42.828125 45.03125 45.53125 
Q 48.578125 48.25 48.578125 53.8125 
Q 48.578125 59.328125 45.03125 62.0625 
Q 41.5 64.796875 34.28125 64.796875 
z
M 9.8125 72.90625 
L 35.015625 72.90625 
Q 46.296875 72.90625 52.390625 68.21875 
Q 58.5 63.53125 58.5 54.890625 
Q 58.5 48.1875 55.375 44.234375 
Q 52.25 40.28125 46.1875 39.3125 
Q 53.46875 37.75 57.5 32.78125 
Q 61.53125 27.828125 61.53125 20.40625 
Q 61.53125 10.640625 54.890625 5.3125 
Q 48.25 0 35.984375 0 
L 9.8125 0 
z
" id="BitstreamVeraSans-Roman-42"/>
     <path d="M 59.515625 10.40625 
L 59.515625 29.984375 
L 43.40625 29.984375 
L 43.40625 38.09375 
L 69.28125 38.09375 
L 69.28125 6.78125 
Q 63.578125 2.734375 56.6875 0.65625 
Q 49.8125 -1.421875 42 -1.421875 
Q 24.90625 -1.421875 15.25 8.5625 
Q 5.609375 18.5625 5.609375 36.375 
Q 5.609375 54.25 15.25 64.234375 
Q 24.90625 74.21875 42 74.21875 
Q 49.125 74.21875 55.546875 72.453125 
Q 61.96875 70.703125 67.390625 67.28125 
L 67.390625 56.78125 
Q 61.921875 61.421875 55.765625 63.765625 
Q 49.609375 66.109375 42.828125 66.109375 
Q 29.4375 66.109375 22.71875 58.640625 
Q 16.015625 51.171875 16.015625 36.375 
Q 16.015625 21.625 22.71875 14.15625 
Q 29.4375 6.6875 42.828125 6.6875 
Q 48.046875 6.6875 52.140625 7.59375 
Q 56.25 8.5 59.515625 10.40625 
" id="BitstreamVeraSans-Roman-47"/>
     <path d="M 53.515625 70.515625 
L 53.515625 60.890625 
Q 47.90625 63.578125 42.921875 64.890625 
Q 37.9375 66.21875 33.296875 66.21875 
Q 25.25 66.21875 20.875 63.09375 
Q 16.5 59.96875 16.5 54.203125 
Q 16.5 49.359375 19.40625 46.890625 
Q 22.3125 44.4375 30.421875 42.921875 
L 36.375 41.703125 
Q 47.40625 39.59375 52.65625 34.296875 
Q 57.90625 29 57.90625 20.125 
Q 57.90625 9.515625 50.796875 4.046875 
Q 43.703125 -1.421875 29.984375 -1.421875 
Q 24.8125 -1.421875 18.96875 -0.25 
Q 13.140625 0.921875 6.890625 3.21875 
L 6.890625 13.375 
Q 12.890625 10.015625 18.65625 8.296875 
Q 24.421875 6.59375 29.984375 6.59375 
Q 38.421875 6.59375 43.015625 9.90625 
Q 47.609375 13.234375 47.609375 19.390625 
Q 47.609375 24.75 44.3125 27.78125 
Q 41.015625 30.8125 33.5 32.328125 
L 27.484375 33.5 
Q 16.453125 35.6875 11.515625 40.375 
Q 6.59375 45.0625 6.59375 53.421875 
Q 6.59375 63.09375 13.40625 68.65625 
Q 20.21875 74.21875 32.171875 74.21875 
Q 37.3125 74.21875 42.625 73.28125 
Q 47.953125 72.359375 53.515625 70.515625 
" id="BitstreamVeraSans-Roman-53"/>
     <path d="M 39.40625 66.21875 
Q 28.65625 66.21875 22.328125 58.203125 
Q 16.015625 50.203125 16.015625 36.375 
Q 16.015625 22.609375 22.328125 14.59375 
Q 28.65625 6.59375 39.40625 6.59375 
Q 50.140625 6.59375 56.421875 14.59375 
Q 62.703125 22.609375 62.703125 36.375 
Q 62.703125 50.203125 56.421875 58.203125 
Q 50.140625 66.21875 39.40625 66.21875 
M 39.40625 74.21875 
Q 54.734375 74.21875 63.90625 63.9375 
Q 73.09375 53.65625 73.09375 36.375 
Q 73.09375 19.140625 63.90625 8.859375 
Q 54.734375 -1.421875 39.40625 -1.421875 
Q 24.03125 -1.421875 14.8125 8.828125 
Q 5.609375 19.09375 5.609375 36.375 
Q 5.609375 53.65625 14.8125 63.9375 
Q 24.03125 74.21875 39.40625 74.21875 
" id="BitstreamVeraSans-Roman-4f"/>
     <path d="M 52 44.1875 
Q 55.375 50.25 60.0625 53.125 
Q 64.75 56 71.09375 56 
Q 79.640625 56 84.28125 50.015625 
Q 88.921875 44.046875 88.921875 33.015625 
L 88.921875 0 
L 79.890625 0 
L 79.890625 32.71875 
Q 79.890625 40.578125 77.09375 44.375 
Q 74.3125 48.1875 68.609375 48.1875 
Q 61.625 48.1875 57.5625 43.546875 
Q 53.515625 38.921875 53.515625 30.90625 
L 53.515625 0 
L 44.484375 0 
L 44.484375 32.71875 
Q 44.484375 40.625 41.703125 44.40625 
Q 38.921875 48.1875 33.109375 48.1875 
Q 26.21875 48.1875 22.15625 43.53125 
Q 18.109375 38.875 18.109375 30.90625 
L 18.109375 0 
L 9.078125 0 
L 9.078125 54.6875 
L 18.109375 54.6875 
L 18.109375 46.1875 
Q 21.1875 51.21875 25.484375 53.609375 
Q 29.78125 56 35.6875 56 
Q 41.65625 56 45.828125 52.96875 
Q 50 49.953125 52 44.1875 
" id="BitstreamVeraSans-Roman-6d"/>
     <path d="M 18.109375 8.203125 
L 18.109375 -20.796875 
L 9.078125 -20.796875 
L 9.078125 54.6875 
L 18.109375 54.6875 
L 18.109375 46.390625 
Q 20.953125 51.265625 25.265625 53.625 
Q 29.59375 56 35.59375 56 
Q 45.5625 56 51.78125 48.09375 
Q 58.015625 40.1875 58.015625 27.296875 
Q 58.015625 14.40625 51.78125 6.484375 
Q 45.5625 -1.421875 35.59375 -1.421875 
Q 29.59375 -1.421875 25.265625 0.953125 
Q 20.953125 3.328125 18.109375 8.203125 
M 48.6875 27.296875 
Q 48.6875 37.203125 44.609375 42.84375 
Q 40.53125 48.484375 33.40625 48.484375 
Q 26.265625 48.484375 22.1875 42.84375 
Q 18.109375 37.203125 18.109375 27.296875 
Q 18.109375 17.390625 22.1875 11.75 
Q 26.265625 6.109375 33.40625 6.109375 
Q 40.53125 6.109375 44.609375 11.75 
Q 48.6875 17.390625 48.6875 27.296875 
" id="BitstreamVeraSans-Roman-70"/>
     <path d="M 54.890625 33.015625 
L 54.890625 0 
L 45.90625 0 
L 45.90625 32.71875 
Q 45.90625 40.484375 42.875 44.328125 
Q 39.84375 48.1875 33.796875 48.1875 
Q 26.515625 48.1875 22.3125 43.546875 
Q 18.109375 38.921875 18.109375 30.90625 
L 18.109375 0 
L 9.078125 0 
L 9.078125 54.6875 
L 18.109375 54.6875 
L 18.109375 46.1875 
Q 21.34375 51.125 25.703125 53.5625 
Q 30.078125 56 35.796875 56 
Q 45.21875 56 50.046875 50.171875 
Q 54.890625 44.34375 54.890625 33.015625 
" id="BitstreamVeraSans-Roman-6e"/>
     <path d="M 46 62.703125 
L 46 35.5 
L 73.1875 35.5 
L 73.1875 27.203125 
L 46 27.203125 
L 46 0 
L 37.796875 0 
L 37.796875 27.203125 
L 10.59375 27.203125 
L 10.59375 35.5 
L 37.796875 35.5 
L 37.796875 62.703125 
z
" id="BitstreamVeraSans-Roman-2b"/>
    </defs>
    <g transform="translate(77.93175 18.14175)scale(0.144 -0.144)">
     <use xlink:href="#BitstreamVeraSans-Roman-52"/>
     <use x="69.482421875" xlink:href="#BitstreamVeraSans-Roman-4f"/>
     <use x="148.193359375" xlink:href="#BitstreamVeraSans-Roman-43"/>
     <use x="218.017578125" xlink:href="#BitstreamVeraSans-Roman-20"/>
     <use x="249.8046875" xlink:href="#BitstreamVeraSans-Roman-43"/>
     <use x="319.62890625" xlink:href="#BitstreamVeraSans-Roman-75"/>
     <use x="383.0078125" xlink:href="#BitstreamVeraSans-Roman-72"/>
     <use x="424.12109375" xlink:href="#BitstreamVeraSans-Roman-76"/>
     <use x="483.30078125" xlink:href="#BitstreamVeraSans-Roman-65"/>
     <use x="544.82421875" xlink:href="#BitstreamVeraSans-Roman-20"/>
     <use x="576.611328125" xlink:href="#BitstreamVeraSans-Roman-47"/>
     <use x="654.1015625" xlink:href="#BitstreamVeraSans-Roman-72"/>
     <use x="695.21484375" xlink:href="#BitstreamVeraSans-Roman-61"/>
     <use x="756.494140625" xlink:href="#BitstreamVeraSans-Roman-64"/>
     <use x="819.970703125" xlink:href="#BitstreamVeraSans-Roman-69"/>
     <use x="847.75390625" xlink:href="#BitstreamVeraSans-Roman-65"/>
     <use x="909.27734375" xlink:href="#BitstreamVeraSans-Roman-6e"/>
     <use x="972.65625" xlink:href="#BitstreamVeraSans-Roman-74"/>
     <use x="1011.865234375" xlink:href="#BitstreamVeraSans-Roman-42"/>
     <use x="1080.46875" xlink:href="#BitstreamVeraSans-Roman-6f"/>
     <use x="1141.650390625" xlink:href="#BitstreamVeraSans-Roman-6f"/>
     <use x="1202.83203125" xlink:href="#BitstreamVeraSans-Roman-73"/>
     <use x="1254.931640625" xlink:href="#BitstreamVeraSans-Roman-74"/>
     <use x="1294.140625" xlink:href="#BitstreamVeraSans-Roman-69"/>
     <use x="1321.923828125" xlink:href="#BitstreamVeraSans-Roman-6e"/>
     <use x="1385.302734375" xlink:href="#BitstreamVeraSans-Roman-67"/>
     <use x="1448.779296875" xlink:href="#BitstreamVeraSans-Roman-20"/>
     <use x="1480.56640625" xlink:href="#BitstreamVeraSans-Roman-2b"/>
     <use x="1564.35546875" xlink:href="#BitstreamVeraSans-Roman-20"/>
     <use x="1596.142578125" xlink:href="#BitstreamVeraSans-Roman-52"/>
     <use x="1665.59375" xlink:href="#BitstreamVeraSans-Roman-61"/>
     <use x="1726.873046875" xlink:href="#BitstreamVeraSans-Roman-6e"/>
     <use x="1790.251953125" xlink:href="#BitstreamVeraSans-Roman-64"/>
     <use x="1853.728515625" xlink:href="#BitstreamVeraSans-Roman-6f"/>
     <use x="1914.91015625" xlink:href="#BitstreamVeraSans-Roman-6d"/>
     <use x="2012.322265625" xlink:href="#BitstreamVeraSans-Roman-4f"/>
     <use x="2091.033203125" xlink:href="#BitstreamVeraSans-Roman-76"/>
     <use x="2150.212890625" xlink:href="#BitstreamVeraSans-Roman-65"/>
     <use x="2211.736328125" xlink:href="#BitstreamVeraSans-Roman-72"/>
     <use x="2252.849609375" xlink:href="#BitstreamVeraSans-Roman-53"/>
     <use x="2316.326171875" xlink:href="#BitstreamVeraSans-Roman-61"/>
     <use x="2377.60546875" xlink:href="#BitstreamVeraSans-Roman-6d"/>
     <use x="2475.017578125" xlink:href="#BitstreamVeraSans-Roman-70"/>
     <use x="2538.494140625" xlink:href="#BitstreamVeraSans-Roman-6c"/>
     <use x="2566.27734375" xlink:href="#BitstreamVeraSans-Roman-65"/>
     <use x="2627.80078125" xlink:href="#BitstreamVeraSans-Roman-72"/>
    </g>
    <!-- Train: 12   Test: 1 -->
    <defs>
     <path d="M 11.71875 12.40625 
L 22.015625 12.40625 
L 22.015625 0 
L 11.71875 0 
z
M 11.71875 51.703125 
L 22.015625 51.703125 
L 22.015625 39.3125 
L 11.71875 39.3125 
z
" id="BitstreamVeraSans-Roman-3a"/>
    </defs>
    <g transform="translate(206.362875 34.2666)scale(0.144 -0.144)">
     <use xlink:href="#BitstreamVeraSans-Roman-54"/>
     <use x="60.865234375" xlink:href="#BitstreamVeraSans-Roman-72"/>
     <use x="101.978515625" xlink:href="#BitstreamVeraSans-Roman-61"/>
     <use x="163.2578125" xlink:href="#BitstreamVeraSans-Roman-69"/>
     <use x="191.041015625" xlink:href="#BitstreamVeraSans-Roman-6e"/>
     <use x="254.419921875" xlink:href="#BitstreamVeraSans-Roman-3a"/>
     <use x="288.111328125" xlink:href="#BitstreamVeraSans-Roman-20"/>
     <use x="319.8984375" xlink:href="#BitstreamVeraSans-Roman-31"/>
     <use x="383.521484375" xlink:href="#BitstreamVeraSans-Roman-32"/>
     <use x="447.14453125" xlink:href="#BitstreamVeraSans-Roman-20"/>
     <use x="478.931640625" xlink:href="#BitstreamVeraSans-Roman-20"/>
     <use x="510.71875" xlink:href="#BitstreamVeraSans-Roman-20"/>
     <use x="542.505859375" xlink:href="#BitstreamVeraSans-Roman-54"/>
     <use x="603.32421875" xlink:href="#BitstreamVeraSans-Roman-65"/>
     <use x="664.84765625" xlink:href="#BitstreamVeraSans-Roman-73"/>
     <use x="716.947265625" xlink:href="#BitstreamVeraSans-Roman-74"/>
     <use x="756.15625" xlink:href="#BitstreamVeraSans-Roman-3a"/>
     <use x="789.84765625" xlink:href="#BitstreamVeraSans-Roman-20"/>
     <use x="821.634765625" xlink:href="#BitstreamVeraSans-Roman-31"/>
    </g>
   </g>
   <g id="legend_1">
    <g id="patch_7">
     <path d="M 187.14675 377.6666 
L 486.0975 377.6666 
L 486.0975 309.9371 
L 187.14675 309.9371 
z
" style="fill:#ffffff;stroke:#000000;stroke-linejoin:miter;"/>
    </g>
    <g id="line2d_29">
     <path d="M 197.22675 321.59885 
L 217.38675 321.59885 
" style="fill:none;stroke:#0000ff;stroke-linecap:square;"/>
    </g>
    <g id="line2d_30"/>
    <g id="text_16">
     <!-- janusROC curve - 0 (AUC = 0.827) -->
     <defs>
      <path d="M 8.203125 72.90625 
L 55.078125 72.90625 
L 55.078125 68.703125 
L 28.609375 0 
L 18.3125 0 
L 43.21875 64.59375 
L 8.203125 64.59375 
z
" id="BitstreamVeraSans-Roman-37"/>
      <path d="M 31 75.875 
Q 24.46875 64.65625 21.28125 53.65625 
Q 18.109375 42.671875 18.109375 31.390625 
Q 18.109375 20.125 21.3125 9.0625 
Q 24.515625 -2 31 -13.1875 
L 23.1875 -13.1875 
Q 15.875 -1.703125 12.234375 9.375 
Q 8.59375 20.453125 8.59375 31.390625 
Q 8.59375 42.28125 12.203125 53.3125 
Q 15.828125 64.359375 23.1875 75.875 
z
" id="BitstreamVeraSans-Roman-28"/>
      <path d="M 8.015625 75.875 
L 15.828125 75.875 
Q 23.140625 64.359375 26.78125 53.3125 
Q 30.421875 42.28125 30.421875 31.390625 
Q 30.421875 20.453125 26.78125 9.375 
Q 23.140625 -1.703125 15.828125 -13.1875 
L 8.015625 -13.1875 
Q 14.5 -2 17.703125 9.0625 
Q 20.90625 20.125 20.90625 31.390625 
Q 20.90625 42.671875 17.703125 53.65625 
Q 14.5 64.65625 8.015625 75.875 
" id="BitstreamVeraSans-Roman-29"/>
      <path d="M 34.1875 63.1875 
L 20.796875 26.90625 
L 47.609375 26.90625 
z
M 28.609375 72.90625 
L 39.796875 72.90625 
L 67.578125 0 
L 57.328125 0 
L 50.6875 18.703125 
L 17.828125 18.703125 
L 11.1875 0 
L 0.78125 0 
z
" id="BitstreamVeraSans-Roman-41"/>
      <path d="M 8.6875 72.90625 
L 18.609375 72.90625 
L 18.609375 28.609375 
Q 18.609375 16.890625 22.84375 11.734375 
Q 27.09375 6.59375 36.625 6.59375 
Q 46.09375 6.59375 50.34375 11.734375 
Q 54.59375 16.890625 54.59375 28.609375 
L 54.59375 72.90625 
L 64.5 72.90625 
L 64.5 27.390625 
Q 64.5 13.140625 57.4375 5.859375 
Q 50.390625 -1.421875 36.625 -1.421875 
Q 22.796875 -1.421875 15.734375 5.859375 
Q 8.6875 13.140625 8.6875 27.390625 
z
" id="BitstreamVeraSans-Roman-55"/>
      <path d="M 10.59375 45.40625 
L 73.1875 45.40625 
L 73.1875 37.203125 
L 10.59375 37.203125 
z
M 10.59375 25.484375 
L 73.1875 25.484375 
L 73.1875 17.1875 
L 10.59375 17.1875 
z
" id="BitstreamVeraSans-Roman-3d"/>
      <path d="M 9.421875 54.6875 
L 18.40625 54.6875 
L 18.40625 -0.984375 
Q 18.40625 -11.421875 14.421875 -16.109375 
Q 10.453125 -20.796875 1.609375 -20.796875 
L -1.8125 -20.796875 
L -1.8125 -13.1875 
L 0.59375 -13.1875 
Q 5.71875 -13.1875 7.5625 -10.8125 
Q 9.421875 -8.453125 9.421875 -0.984375 
z
M 9.421875 75.984375 
L 18.40625 75.984375 
L 18.40625 64.59375 
L 9.421875 64.59375 
z
" id="BitstreamVeraSans-Roman-6a"/>
      <path d="M 4.890625 31.390625 
L 31.203125 31.390625 
L 31.203125 23.390625 
L 4.890625 23.390625 
z
" id="BitstreamVeraSans-Roman-2d"/>
      <path d="M 48.78125 52.59375 
L 48.78125 44.1875 
Q 44.96875 46.296875 41.140625 47.34375 
Q 37.3125 48.390625 33.40625 48.390625 
Q 24.65625 48.390625 19.8125 42.84375 
Q 14.984375 37.3125 14.984375 27.296875 
Q 14.984375 17.28125 19.8125 11.734375 
Q 24.65625 6.203125 33.40625 6.203125 
Q 37.3125 6.203125 41.140625 7.25 
Q 44.96875 8.296875 48.78125 10.40625 
L 48.78125 2.09375 
Q 45.015625 0.34375 40.984375 -0.53125 
Q 36.96875 -1.421875 32.421875 -1.421875 
Q 20.0625 -1.421875 12.78125 6.34375 
Q 5.515625 14.109375 5.515625 27.296875 
Q 5.515625 40.671875 12.859375 48.328125 
Q 20.21875 56 33.015625 56 
Q 37.15625 56 41.109375 55.140625 
Q 45.0625 54.296875 48.78125 52.59375 
" id="BitstreamVeraSans-Roman-63"/>
     </defs>
     <g transform="translate(233.22675 326.63885)scale(0.144 -0.144)">
      <use xlink:href="#BitstreamVeraSans-Roman-6a"/>
      <use x="27.783203125" xlink:href="#BitstreamVeraSans-Roman-61"/>
      <use x="89.0625" xlink:href="#BitstreamVeraSans-Roman-6e"/>
      <use x="152.44140625" xlink:href="#BitstreamVeraSans-Roman-75"/>
      <use x="215.8203125" xlink:href="#BitstreamVeraSans-Roman-73"/>
      <use x="267.919921875" xlink:href="#BitstreamVeraSans-Roman-52"/>
      <use x="337.40234375" xlink:href="#BitstreamVeraSans-Roman-4f"/>
      <use x="416.11328125" xlink:href="#BitstreamVeraSans-Roman-43"/>
      <use x="485.9375" xlink:href="#BitstreamVeraSans-Roman-20"/>
      <use x="517.724609375" xlink:href="#BitstreamVeraSans-Roman-63"/>
      <use x="572.705078125" xlink:href="#BitstreamVeraSans-Roman-75"/>
      <use x="636.083984375" xlink:href="#BitstreamVeraSans-Roman-72"/>
      <use x="677.197265625" xlink:href="#BitstreamVeraSans-Roman-76"/>
      <use x="736.376953125" xlink:href="#BitstreamVeraSans-Roman-65"/>
      <use x="797.900390625" xlink:href="#BitstreamVeraSans-Roman-20"/>
      <use x="829.6875" xlink:href="#BitstreamVeraSans-Roman-2d"/>
      <use x="865.771484375" xlink:href="#BitstreamVeraSans-Roman-20"/>
      <use x="897.55859375" xlink:href="#BitstreamVeraSans-Roman-30"/>
      <use x="961.181640625" xlink:href="#BitstreamVeraSans-Roman-20"/>
      <use x="992.96875" xlink:href="#BitstreamVeraSans-Roman-28"/>
      <use x="1031.982421875" xlink:href="#BitstreamVeraSans-Roman-41"/>
      <use x="1100.390625" xlink:href="#BitstreamVeraSans-Roman-55"/>
      <use x="1173.583984375" xlink:href="#BitstreamVeraSans-Roman-43"/>
      <use x="1243.408203125" xlink:href="#BitstreamVeraSans-Roman-20"/>
      <use x="1275.1953125" xlink:href="#BitstreamVeraSans-Roman-3d"/>
      <use x="1358.984375" xlink:href="#BitstreamVeraSans-Roman-20"/>
      <use x="1390.771484375" xlink:href="#BitstreamVeraSans-Roman-30"/>
      <use x="1454.39453125" xlink:href="#BitstreamVeraSans-Roman-2e"/>
      <use x="1486.181640625" xlink:href="#BitstreamVeraSans-Roman-38"/>
      <use x="1549.8046875" xlink:href="#BitstreamVeraSans-Roman-32"/>
      <use x="1613.427734375" xlink:href="#BitstreamVeraSans-Roman-37"/>
      <use x="1677.05078125" xlink:href="#BitstreamVeraSans-Roman-29"/>
     </g>
    </g>
    <g id="line2d_31">
     <path d="M 197.22675 342.73535 
L 217.38675 342.73535 
" style="fill:none;stroke:#008000;stroke-linecap:square;"/>
    </g>
    <g id="line2d_32"/>
    <g id="text_17">
     <!-- janusROC curve - 1 (AUC = 0.752) -->
     <defs>
      <path d="M 10.796875 72.90625 
L 49.515625 72.90625 
L 49.515625 64.59375 
L 19.828125 64.59375 
L 19.828125 46.734375 
Q 21.96875 47.46875 24.109375 47.828125 
Q 26.265625 48.1875 28.421875 48.1875 
Q 40.625 48.1875 47.75 41.5 
Q 54.890625 34.8125 54.890625 23.390625 
Q 54.890625 11.625 47.5625 5.09375 
Q 40.234375 -1.421875 26.90625 -1.421875 
Q 22.3125 -1.421875 17.546875 -0.640625 
Q 12.796875 0.140625 7.71875 1.703125 
L 7.71875 11.625 
Q 12.109375 9.234375 16.796875 8.0625 
Q 21.484375 6.890625 26.703125 6.890625 
Q 35.15625 6.890625 40.078125 11.328125 
Q 45.015625 15.765625 45.015625 23.390625 
Q 45.015625 31 40.078125 35.4375 
Q 35.15625 39.890625 26.703125 39.890625 
Q 22.75 39.890625 18.8125 39.015625 
Q 14.890625 38.140625 10.796875 36.28125 
z
" id="BitstreamVeraSans-Roman-35"/>
     </defs>
     <g transform="translate(233.22675 347.77535)scale(0.144 -0.144)">
      <use xlink:href="#BitstreamVeraSans-Roman-6a"/>
      <use x="27.783203125" xlink:href="#BitstreamVeraSans-Roman-61"/>
      <use x="89.0625" xlink:href="#BitstreamVeraSans-Roman-6e"/>
      <use x="152.44140625" xlink:href="#BitstreamVeraSans-Roman-75"/>
      <use x="215.8203125" xlink:href="#BitstreamVeraSans-Roman-73"/>
      <use x="267.919921875" xlink:href="#BitstreamVeraSans-Roman-52"/>
      <use x="337.40234375" xlink:href="#BitstreamVeraSans-Roman-4f"/>
      <use x="416.11328125" xlink:href="#BitstreamVeraSans-Roman-43"/>
      <use x="485.9375" xlink:href="#BitstreamVeraSans-Roman-20"/>
      <use x="517.724609375" xlink:href="#BitstreamVeraSans-Roman-63"/>
      <use x="572.705078125" xlink:href="#BitstreamVeraSans-Roman-75"/>
      <use x="636.083984375" xlink:href="#BitstreamVeraSans-Roman-72"/>
      <use x="677.197265625" xlink:href="#BitstreamVeraSans-Roman-76"/>
      <use x="736.376953125" xlink:href="#BitstreamVeraSans-Roman-65"/>
      <use x="797.900390625" xlink:href="#BitstreamVeraSans-Roman-20"/>
      <use x="829.6875" xlink:href="#BitstreamVeraSans-Roman-2d"/>
      <use x="865.771484375" xlink:href="#BitstreamVeraSans-Roman-20"/>
      <use x="897.55859375" xlink:href="#BitstreamVeraSans-Roman-31"/>
      <use x="961.181640625" xlink:href="#BitstreamVeraSans-Roman-20"/>
      <use x="992.96875" xlink:href="#BitstreamVeraSans-Roman-28"/>
      <use x="1031.982421875" xlink:href="#BitstreamVeraSans-Roman-41"/>
      <use x="1100.390625" xlink:href="#BitstreamVeraSans-Roman-55"/>
      <use x="1173.583984375" xlink:href="#BitstreamVeraSans-Roman-43"/>
      <use x="1243.408203125" xlink:href="#BitstreamVeraSans-Roman-20"/>
      <use x="1275.1953125" xlink:href="#BitstreamVeraSans-Roman-3d"/>
      <use x="1358.984375" xlink:href="#BitstreamVeraSans-Roman-20"/>
      <use x="1390.771484375" xlink:href="#BitstreamVeraSans-Roman-30"/>
      <use x="1454.39453125" xlink:href="#BitstreamVeraSans-Roman-2e"/>
      <use x="1486.181640625" xlink:href="#BitstreamVeraSans-Roman-37"/>
      <use x="1549.8046875" xlink:href="#BitstreamVeraSans-Roman-35"/>
      <use x="1613.427734375" xlink:href="#BitstreamVeraSans-Roman-32"/>
      <use x="1677.05078125" xlink:href="#BitstreamVeraSans-Roman-29"/>
     </g>
    </g>
    <g id="line2d_33">
     <path d="M 197.22675 363.87185 
L 217.38675 363.87185 
" style="fill:none;stroke:#ff0000;stroke-linecap:square;"/>
    </g>
    <g id="line2d_34"/>
    <g id="text_18">
     <!-- janusROC curve - 2 (AUC = 0.789) -->
     <defs>
      <path d="M 10.984375 1.515625 
L 10.984375 10.5 
Q 14.703125 8.734375 18.5 7.8125 
Q 22.3125 6.890625 25.984375 6.890625 
Q 35.75 6.890625 40.890625 13.453125 
Q 46.046875 20.015625 46.78125 33.40625 
Q 43.953125 29.203125 39.59375 26.953125 
Q 35.25 24.703125 29.984375 24.703125 
Q 19.046875 24.703125 12.671875 31.3125 
Q 6.296875 37.9375 6.296875 49.421875 
Q 6.296875 60.640625 12.9375 67.421875 
Q 19.578125 74.21875 30.609375 74.21875 
Q 43.265625 74.21875 49.921875 64.515625 
Q 56.59375 54.828125 56.59375 36.375 
Q 56.59375 19.140625 48.40625 8.859375 
Q 40.234375 -1.421875 26.421875 -1.421875 
Q 22.703125 -1.421875 18.890625 -0.6875 
Q 15.09375 0.046875 10.984375 1.515625 
M 30.609375 32.421875 
Q 37.25 32.421875 41.125 36.953125 
Q 45.015625 41.5 45.015625 49.421875 
Q 45.015625 57.28125 41.125 61.84375 
Q 37.25 66.40625 30.609375 66.40625 
Q 23.96875 66.40625 20.09375 61.84375 
Q 16.21875 57.28125 16.21875 49.421875 
Q 16.21875 41.5 20.09375 36.953125 
Q 23.96875 32.421875 30.609375 32.421875 
" id="BitstreamVeraSans-Roman-39"/>
     </defs>
     <g transform="translate(233.22675 368.91185)scale(0.144 -0.144)">
      <use xlink:href="#BitstreamVeraSans-Roman-6a"/>
      <use x="27.783203125" xlink:href="#BitstreamVeraSans-Roman-61"/>
      <use x="89.0625" xlink:href="#BitstreamVeraSans-Roman-6e"/>
      <use x="152.44140625" xlink:href="#BitstreamVeraSans-Roman-75"/>
      <use x="215.8203125" xlink:href="#BitstreamVeraSans-Roman-73"/>
      <use x="267.919921875" xlink:href="#BitstreamVeraSans-Roman-52"/>
      <use x="337.40234375" xlink:href="#BitstreamVeraSans-Roman-4f"/>
      <use x="416.11328125" xlink:href="#BitstreamVeraSans-Roman-43"/>
      <use x="485.9375" xlink:href="#BitstreamVeraSans-Roman-20"/>
      <use x="517.724609375" xlink:href="#BitstreamVeraSans-Roman-63"/>
      <use x="572.705078125" xlink:href="#BitstreamVeraSans-Roman-75"/>
      <use x="636.083984375" xlink:href="#BitstreamVeraSans-Roman-72"/>
      <use x="677.197265625" xlink:href="#BitstreamVeraSans-Roman-76"/>
      <use x="736.376953125" xlink:href="#BitstreamVeraSans-Roman-65"/>
      <use x="797.900390625" xlink:href="#BitstreamVeraSans-Roman-20"/>
      <use x="829.6875" xlink:href="#BitstreamVeraSans-Roman-2d"/>
      <use x="865.771484375" xlink:href="#BitstreamVeraSans-Roman-20"/>
      <use x="897.55859375" xlink:href="#BitstreamVeraSans-Roman-32"/>
      <use x="961.181640625" xlink:href="#BitstreamVeraSans-Roman-20"/>
      <use x="992.96875" xlink:href="#BitstreamVeraSans-Roman-28"/>
      <use x="1031.982421875" xlink:href="#BitstreamVeraSans-Roman-41"/>
      <use x="1100.390625" xlink:href="#BitstreamVeraSans-Roman-55"/>
      <use x="1173.583984375" xlink:href="#BitstreamVeraSans-Roman-43"/>
      <use x="1243.408203125" xlink:href="#BitstreamVeraSans-Roman-20"/>
      <use x="1275.1953125" xlink:href="#BitstreamVeraSans-Roman-3d"/>
      <use x="1358.984375" xlink:href="#BitstreamVeraSans-Roman-20"/>
      <use x="1390.771484375" xlink:href="#BitstreamVeraSans-Roman-30"/>
      <use x="1454.39453125" xlink:href="#BitstreamVeraSans-Roman-2e"/>
      <use x="1486.181640625" xlink:href="#BitstreamVeraSans-Roman-37"/>
      <use x="1549.8046875" xlink:href="#BitstreamVeraSans-Roman-38"/>
      <use x="1613.427734375" xlink:href="#BitstreamVeraSans-Roman-39"/>
      <use x="1677.05078125" xlink:href="#BitstreamVeraSans-Roman-29"/>
     </g>
    </g>
   </g>
  </g>
 </g>
 <defs>
  <clipPath id="p1ac607b4bb">
   <rect height="345.6" width="446.4" x="46.8975" y="39.2666"/>
  </clipPath>
 </defs>
</svg>
