<?xml version="1.0" encoding="utf-8" standalone="no"?>
<!DOCTYPE svg PUBLIC "-//W3C//DTD SVG 1.1//EN"
  "http://www.w3.org/Graphics/SVG/1.1/DTD/svg11.dtd">
<!-- Created with matplotlib (http://matplotlib.org/) -->
<svg height="339pt" version="1.1" viewBox="0 0 416 339" width="416pt" xmlns="http://www.w3.org/2000/svg" xmlns:xlink="http://www.w3.org/1999/xlink">
 <defs>
  <style type="text/css">
*{stroke-linecap:butt;stroke-linejoin:round;}
  </style>
 </defs>
 <g id="figure_1">
  <g id="patch_1">
   <path d="M 0 339.42375 
L 416.052813 339.42375 
L 416.052813 0 
L 0 0 
z
" style="fill:#ffffff;"/>
  </g>
  <g id="axes_1">
   <g id="patch_2">
    <path d="M 43.78125 301.8675 
L 400.90125 301.8675 
L 400.90125 35.7555 
L 43.78125 35.7555 
z
" style="fill:#ffffff;"/>
   </g>
   <g id="matplotlib.axis_1">
    <g id="xtick_1">
     <g id="line2d_1">
      <defs>
       <path d="M 0 0 
L 0 3.5 
" id="m9d5013e9fa" style="stroke:#000000;stroke-width:0.8;"/>
      </defs>
      <g>
       <use style="stroke:#000000;stroke-width:0.8;" x="43.78125" xlink:href="#m9d5013e9fa" y="301.8675"/>
      </g>
     </g>
     <g id="text_1">
      <!-- 0.0 -->
      <defs>
       <path d="M 31.78125 66.40625 
Q 24.171875 66.40625 20.328125 58.90625 
Q 16.5 51.421875 16.5 36.375 
Q 16.5 21.390625 20.328125 13.890625 
Q 24.171875 6.390625 31.78125 6.390625 
Q 39.453125 6.390625 43.28125 13.890625 
Q 47.125 21.390625 47.125 36.375 
Q 47.125 51.421875 43.28125 58.90625 
Q 39.453125 66.40625 31.78125 66.40625 
M 31.78125 74.21875 
Q 44.046875 74.21875 50.515625 64.515625 
Q 56.984375 54.828125 56.984375 36.375 
Q 56.984375 17.96875 50.515625 8.265625 
Q 44.046875 -1.421875 31.78125 -1.421875 
Q 19.53125 -1.421875 13.0625 8.265625 
Q 6.59375 17.96875 6.59375 36.375 
Q 6.59375 54.828125 13.0625 64.515625 
Q 19.53125 74.21875 31.78125 74.21875 
" id="DejaVuSans-30"/>
       <path d="M 10.6875 12.40625 
L 21 12.40625 
L 21 0 
L 10.6875 0 
z
" id="DejaVuSans-2e"/>
      </defs>
      <g transform="translate(35.829688 316.465937)scale(0.1 -0.1)">
       <use xlink:href="#DejaVuSans-30"/>
       <use x="63.623047" xlink:href="#DejaVuSans-2e"/>
       <use x="95.410156" xlink:href="#DejaVuSans-30"/>
      </g>
     </g>
    </g>
    <g id="xtick_2">
     <g id="line2d_2">
      <g>
       <use style="stroke:#000000;stroke-width:0.8;" x="115.20525" xlink:href="#m9d5013e9fa" y="301.8675"/>
      </g>
     </g>
     <g id="text_2">
      <!-- 0.2 -->
      <defs>
       <path d="M 19.1875 8.296875 
L 53.609375 8.296875 
L 53.609375 0 
L 7.328125 0 
L 7.328125 8.296875 
Q 12.9375 14.109375 22.625 23.890625 
Q 32.328125 33.6875 34.8125 36.53125 
Q 39.546875 41.84375 41.421875 45.53125 
Q 43.3125 49.21875 43.3125 52.78125 
Q 43.3125 58.59375 39.234375 62.25 
Q 35.15625 65.921875 28.609375 65.921875 
Q 23.96875 65.921875 18.8125 64.3125 
Q 13.671875 62.703125 7.8125 59.421875 
L 7.8125 69.390625 
Q 13.765625 71.78125 18.9375 73 
Q 24.125 74.21875 28.421875 74.21875 
Q 39.75 74.21875 46.484375 68.546875 
Q 53.21875 62.890625 53.21875 53.421875 
Q 53.21875 48.921875 51.53125 44.890625 
Q 49.859375 40.875 45.40625 35.40625 
Q 44.1875 33.984375 37.640625 27.21875 
Q 31.109375 20.453125 19.1875 8.296875 
" id="DejaVuSans-32"/>
      </defs>
      <g transform="translate(107.253688 316.465937)scale(0.1 -0.1)">
       <use xlink:href="#DejaVuSans-30"/>
       <use x="63.623047" xlink:href="#DejaVuSans-2e"/>
       <use x="95.410156" xlink:href="#DejaVuSans-32"/>
      </g>
     </g>
    </g>
    <g id="xtick_3">
     <g id="line2d_3">
      <g>
       <use style="stroke:#000000;stroke-width:0.8;" x="186.62925" xlink:href="#m9d5013e9fa" y="301.8675"/>
      </g>
     </g>
     <g id="text_3">
      <!-- 0.4 -->
      <defs>
       <path d="M 37.796875 64.3125 
L 12.890625 25.390625 
L 37.796875 25.390625 
z
M 35.203125 72.90625 
L 47.609375 72.90625 
L 47.609375 25.390625 
L 58.015625 25.390625 
L 58.015625 17.1875 
L 47.609375 17.1875 
L 47.609375 0 
L 37.796875 0 
L 37.796875 17.1875 
L 4.890625 17.1875 
L 4.890625 26.703125 
z
" id="DejaVuSans-34"/>
      </defs>
      <g transform="translate(178.677688 316.465937)scale(0.1 -0.1)">
       <use xlink:href="#DejaVuSans-30"/>
       <use x="63.623047" xlink:href="#DejaVuSans-2e"/>
       <use x="95.410156" xlink:href="#DejaVuSans-34"/>
      </g>
     </g>
    </g>
    <g id="xtick_4">
     <g id="line2d_4">
      <g>
       <use style="stroke:#000000;stroke-width:0.8;" x="258.05325" xlink:href="#m9d5013e9fa" y="301.8675"/>
      </g>
     </g>
     <g id="text_4">
      <!-- 0.6 -->
      <defs>
       <path d="M 33.015625 40.375 
Q 26.375 40.375 22.484375 35.828125 
Q 18.609375 31.296875 18.609375 23.390625 
Q 18.609375 15.53125 22.484375 10.953125 
Q 26.375 6.390625 33.015625 6.390625 
Q 39.65625 6.390625 43.53125 10.953125 
Q 47.40625 15.53125 47.40625 23.390625 
Q 47.40625 31.296875 43.53125 35.828125 
Q 39.65625 40.375 33.015625 40.375 
M 52.59375 71.296875 
L 52.59375 62.3125 
Q 48.875 64.0625 45.09375 64.984375 
Q 41.3125 65.921875 37.59375 65.921875 
Q 27.828125 65.921875 22.671875 59.328125 
Q 17.53125 52.734375 16.796875 39.40625 
Q 19.671875 43.65625 24.015625 45.921875 
Q 28.375 48.1875 33.59375 48.1875 
Q 44.578125 48.1875 50.953125 41.515625 
Q 57.328125 34.859375 57.328125 23.390625 
Q 57.328125 12.15625 50.6875 5.359375 
Q 44.046875 -1.421875 33.015625 -1.421875 
Q 20.359375 -1.421875 13.671875 8.265625 
Q 6.984375 17.96875 6.984375 36.375 
Q 6.984375 53.65625 15.1875 63.9375 
Q 23.390625 74.21875 37.203125 74.21875 
Q 40.921875 74.21875 44.703125 73.484375 
Q 48.484375 72.75 52.59375 71.296875 
" id="DejaVuSans-36"/>
      </defs>
      <g transform="translate(250.101688 316.465937)scale(0.1 -0.1)">
       <use xlink:href="#DejaVuSans-30"/>
       <use x="63.623047" xlink:href="#DejaVuSans-2e"/>
       <use x="95.410156" xlink:href="#DejaVuSans-36"/>
      </g>
     </g>
    </g>
    <g id="xtick_5">
     <g id="line2d_5">
      <g>
       <use style="stroke:#000000;stroke-width:0.8;" x="329.47725" xlink:href="#m9d5013e9fa" y="301.8675"/>
      </g>
     </g>
     <g id="text_5">
      <!-- 0.8 -->
      <defs>
       <path d="M 31.78125 34.625 
Q 24.75 34.625 20.71875 30.859375 
Q 16.703125 27.09375 16.703125 20.515625 
Q 16.703125 13.921875 20.71875 10.15625 
Q 24.75 6.390625 31.78125 6.390625 
Q 38.8125 6.390625 42.859375 10.171875 
Q 46.921875 13.96875 46.921875 20.515625 
Q 46.921875 27.09375 42.890625 30.859375 
Q 38.875 34.625 31.78125 34.625 
M 21.921875 38.8125 
Q 15.578125 40.375 12.03125 44.71875 
Q 8.5 49.078125 8.5 55.328125 
Q 8.5 64.0625 14.71875 69.140625 
Q 20.953125 74.21875 31.78125 74.21875 
Q 42.671875 74.21875 48.875 69.140625 
Q 55.078125 64.0625 55.078125 55.328125 
Q 55.078125 49.078125 51.53125 44.71875 
Q 48 40.375 41.703125 38.8125 
Q 48.828125 37.15625 52.796875 32.3125 
Q 56.78125 27.484375 56.78125 20.515625 
Q 56.78125 9.90625 50.3125 4.234375 
Q 43.84375 -1.421875 31.78125 -1.421875 
Q 19.734375 -1.421875 13.25 4.234375 
Q 6.78125 9.90625 6.78125 20.515625 
Q 6.78125 27.484375 10.78125 32.3125 
Q 14.796875 37.15625 21.921875 38.8125 
M 18.3125 54.390625 
Q 18.3125 48.734375 21.84375 45.5625 
Q 25.390625 42.390625 31.78125 42.390625 
Q 38.140625 42.390625 41.71875 45.5625 
Q 45.3125 48.734375 45.3125 54.390625 
Q 45.3125 60.0625 41.71875 63.234375 
Q 38.140625 66.40625 31.78125 66.40625 
Q 25.390625 66.40625 21.84375 63.234375 
Q 18.3125 60.0625 18.3125 54.390625 
" id="DejaVuSans-38"/>
      </defs>
      <g transform="translate(321.525688 316.465937)scale(0.1 -0.1)">
       <use xlink:href="#DejaVuSans-30"/>
       <use x="63.623047" xlink:href="#DejaVuSans-2e"/>
       <use x="95.410156" xlink:href="#DejaVuSans-38"/>
      </g>
     </g>
    </g>
    <g id="xtick_6">
     <g id="line2d_6">
      <g>
       <use style="stroke:#000000;stroke-width:0.8;" x="400.90125" xlink:href="#m9d5013e9fa" y="301.8675"/>
      </g>
     </g>
     <g id="text_6">
      <!-- 1.0 -->
      <defs>
       <path d="M 12.40625 8.296875 
L 28.515625 8.296875 
L 28.515625 63.921875 
L 10.984375 60.40625 
L 10.984375 69.390625 
L 28.421875 72.90625 
L 38.28125 72.90625 
L 38.28125 8.296875 
L 54.390625 8.296875 
L 54.390625 0 
L 12.40625 0 
z
" id="DejaVuSans-31"/>
      </defs>
      <g transform="translate(392.949688 316.465937)scale(0.1 -0.1)">
       <use xlink:href="#DejaVuSans-31"/>
       <use x="63.623047" xlink:href="#DejaVuSans-2e"/>
       <use x="95.410156" xlink:href="#DejaVuSans-30"/>
      </g>
     </g>
    </g>
    <g id="text_7">
     <!-- False Positive Rate -->
     <defs>
      <path d="M 9.8125 72.90625 
L 51.703125 72.90625 
L 51.703125 64.59375 
L 19.671875 64.59375 
L 19.671875 43.109375 
L 48.578125 43.109375 
L 48.578125 34.8125 
L 19.671875 34.8125 
L 19.671875 0 
L 9.8125 0 
z
" id="DejaVuSans-46"/>
      <path d="M 34.28125 27.484375 
Q 23.390625 27.484375 19.1875 25 
Q 14.984375 22.515625 14.984375 16.5 
Q 14.984375 11.71875 18.140625 8.90625 
Q 21.296875 6.109375 26.703125 6.109375 
Q 34.1875 6.109375 38.703125 11.40625 
Q 43.21875 16.703125 43.21875 25.484375 
L 43.21875 27.484375 
z
M 52.203125 31.203125 
L 52.203125 0 
L 43.21875 0 
L 43.21875 8.296875 
Q 40.140625 3.328125 35.546875 0.953125 
Q 30.953125 -1.421875 24.3125 -1.421875 
Q 15.921875 -1.421875 10.953125 3.296875 
Q 6 8.015625 6 15.921875 
Q 6 25.140625 12.171875 29.828125 
Q 18.359375 34.515625 30.609375 34.515625 
L 43.21875 34.515625 
L 43.21875 35.40625 
Q 43.21875 41.609375 39.140625 45 
Q 35.0625 48.390625 27.6875 48.390625 
Q 23 48.390625 18.546875 47.265625 
Q 14.109375 46.140625 10.015625 43.890625 
L 10.015625 52.203125 
Q 14.9375 54.109375 19.578125 55.046875 
Q 24.21875 56 28.609375 56 
Q 40.484375 56 46.34375 49.84375 
Q 52.203125 43.703125 52.203125 31.203125 
" id="DejaVuSans-61"/>
      <path d="M 9.421875 75.984375 
L 18.40625 75.984375 
L 18.40625 0 
L 9.421875 0 
z
" id="DejaVuSans-6c"/>
      <path d="M 44.28125 53.078125 
L 44.28125 44.578125 
Q 40.484375 46.53125 36.375 47.5 
Q 32.28125 48.484375 27.875 48.484375 
Q 21.1875 48.484375 17.84375 46.4375 
Q 14.5 44.390625 14.5 40.28125 
Q 14.5 37.15625 16.890625 35.375 
Q 19.28125 33.59375 26.515625 31.984375 
L 29.59375 31.296875 
Q 39.15625 29.25 43.1875 25.515625 
Q 47.21875 21.78125 47.21875 15.09375 
Q 47.21875 7.46875 41.1875 3.015625 
Q 35.15625 -1.421875 24.609375 -1.421875 
Q 20.21875 -1.421875 15.453125 -0.5625 
Q 10.6875 0.296875 5.421875 2 
L 5.421875 11.28125 
Q 10.40625 8.6875 15.234375 7.390625 
Q 20.0625 6.109375 24.8125 6.109375 
Q 31.15625 6.109375 34.5625 8.28125 
Q 37.984375 10.453125 37.984375 14.40625 
Q 37.984375 18.0625 35.515625 20.015625 
Q 33.0625 21.96875 24.703125 23.78125 
L 21.578125 24.515625 
Q 13.234375 26.265625 9.515625 29.90625 
Q 5.8125 33.546875 5.8125 39.890625 
Q 5.8125 47.609375 11.28125 51.796875 
Q 16.75 56 26.8125 56 
Q 31.78125 56 36.171875 55.265625 
Q 40.578125 54.546875 44.28125 53.078125 
" id="DejaVuSans-73"/>
      <path d="M 56.203125 29.59375 
L 56.203125 25.203125 
L 14.890625 25.203125 
Q 15.484375 15.921875 20.484375 11.0625 
Q 25.484375 6.203125 34.421875 6.203125 
Q 39.59375 6.203125 44.453125 7.46875 
Q 49.3125 8.734375 54.109375 11.28125 
L 54.109375 2.78125 
Q 49.265625 0.734375 44.1875 -0.34375 
Q 39.109375 -1.421875 33.890625 -1.421875 
Q 20.796875 -1.421875 13.15625 6.1875 
Q 5.515625 13.8125 5.515625 26.8125 
Q 5.515625 40.234375 12.765625 48.109375 
Q 20.015625 56 32.328125 56 
Q 43.359375 56 49.78125 48.890625 
Q 56.203125 41.796875 56.203125 29.59375 
M 47.21875 32.234375 
Q 47.125 39.59375 43.09375 43.984375 
Q 39.0625 48.390625 32.421875 48.390625 
Q 24.90625 48.390625 20.390625 44.140625 
Q 15.875 39.890625 15.1875 32.171875 
z
" id="DejaVuSans-65"/>
      <path id="DejaVuSans-20"/>
      <path d="M 19.671875 64.796875 
L 19.671875 37.40625 
L 32.078125 37.40625 
Q 38.96875 37.40625 42.71875 40.96875 
Q 46.484375 44.53125 46.484375 51.125 
Q 46.484375 57.671875 42.71875 61.234375 
Q 38.96875 64.796875 32.078125 64.796875 
z
M 9.8125 72.90625 
L 32.078125 72.90625 
Q 44.34375 72.90625 50.609375 67.359375 
Q 56.890625 61.8125 56.890625 51.125 
Q 56.890625 40.328125 50.609375 34.8125 
Q 44.34375 29.296875 32.078125 29.296875 
L 19.671875 29.296875 
L 19.671875 0 
L 9.8125 0 
z
" id="DejaVuSans-50"/>
      <path d="M 30.609375 48.390625 
Q 23.390625 48.390625 19.1875 42.75 
Q 14.984375 37.109375 14.984375 27.296875 
Q 14.984375 17.484375 19.15625 11.84375 
Q 23.34375 6.203125 30.609375 6.203125 
Q 37.796875 6.203125 41.984375 11.859375 
Q 46.1875 17.53125 46.1875 27.296875 
Q 46.1875 37.015625 41.984375 42.703125 
Q 37.796875 48.390625 30.609375 48.390625 
M 30.609375 56 
Q 42.328125 56 49.015625 48.375 
Q 55.71875 40.765625 55.71875 27.296875 
Q 55.71875 13.875 49.015625 6.21875 
Q 42.328125 -1.421875 30.609375 -1.421875 
Q 18.84375 -1.421875 12.171875 6.21875 
Q 5.515625 13.875 5.515625 27.296875 
Q 5.515625 40.765625 12.171875 48.375 
Q 18.84375 56 30.609375 56 
" id="DejaVuSans-6f"/>
      <path d="M 9.421875 54.6875 
L 18.40625 54.6875 
L 18.40625 0 
L 9.421875 0 
z
M 9.421875 75.984375 
L 18.40625 75.984375 
L 18.40625 64.59375 
L 9.421875 64.59375 
z
" id="DejaVuSans-69"/>
      <path d="M 18.3125 70.21875 
L 18.3125 54.6875 
L 36.8125 54.6875 
L 36.8125 47.703125 
L 18.3125 47.703125 
L 18.3125 18.015625 
Q 18.3125 11.328125 20.140625 9.421875 
Q 21.96875 7.515625 27.59375 7.515625 
L 36.8125 7.515625 
L 36.8125 0 
L 27.59375 0 
Q 17.1875 0 13.234375 3.875 
Q 9.28125 7.765625 9.28125 18.015625 
L 9.28125 47.703125 
L 2.6875 47.703125 
L 2.6875 54.6875 
L 9.28125 54.6875 
L 9.28125 70.21875 
z
" id="DejaVuSans-74"/>
      <path d="M 2.984375 54.6875 
L 12.5 54.6875 
L 29.59375 8.796875 
L 46.6875 54.6875 
L 56.203125 54.6875 
L 35.6875 0 
L 23.484375 0 
z
" id="DejaVuSans-76"/>
      <path d="M 44.390625 34.1875 
Q 47.5625 33.109375 50.5625 29.59375 
Q 53.5625 26.078125 56.59375 19.921875 
L 66.609375 0 
L 56 0 
L 46.6875 18.703125 
Q 43.0625 26.03125 39.671875 28.421875 
Q 36.28125 30.8125 30.421875 30.8125 
L 19.671875 30.8125 
L 19.671875 0 
L 9.8125 0 
L 9.8125 72.90625 
L 32.078125 72.90625 
Q 44.578125 72.90625 50.734375 67.671875 
Q 56.890625 62.453125 56.890625 51.90625 
Q 56.890625 45.015625 53.6875 40.46875 
Q 50.484375 35.9375 44.390625 34.1875 
M 19.671875 64.796875 
L 19.671875 38.921875 
L 32.078125 38.921875 
Q 39.203125 38.921875 42.84375 42.21875 
Q 46.484375 45.515625 46.484375 51.90625 
Q 46.484375 58.296875 42.84375 61.546875 
Q 39.203125 64.796875 32.078125 64.796875 
z
" id="DejaVuSans-52"/>
     </defs>
     <g transform="translate(175.135781 330.144062)scale(0.1 -0.1)">
      <use xlink:href="#DejaVuSans-46"/>
      <use x="57.378906" xlink:href="#DejaVuSans-61"/>
      <use x="118.658203" xlink:href="#DejaVuSans-6c"/>
      <use x="146.441406" xlink:href="#DejaVuSans-73"/>
      <use x="198.541016" xlink:href="#DejaVuSans-65"/>
      <use x="260.064453" xlink:href="#DejaVuSans-20"/>
      <use x="291.851562" xlink:href="#DejaVuSans-50"/>
      <use x="352.107422" xlink:href="#DejaVuSans-6f"/>
      <use x="413.289062" xlink:href="#DejaVuSans-73"/>
      <use x="465.388672" xlink:href="#DejaVuSans-69"/>
      <use x="493.171875" xlink:href="#DejaVuSans-74"/>
      <use x="532.380859" xlink:href="#DejaVuSans-69"/>
      <use x="560.164062" xlink:href="#DejaVuSans-76"/>
      <use x="619.34375" xlink:href="#DejaVuSans-65"/>
      <use x="680.867188" xlink:href="#DejaVuSans-20"/>
      <use x="712.654297" xlink:href="#DejaVuSans-52"/>
      <use x="782.105469" xlink:href="#DejaVuSans-61"/>
      <use x="843.384766" xlink:href="#DejaVuSans-74"/>
      <use x="882.59375" xlink:href="#DejaVuSans-65"/>
     </g>
    </g>
   </g>
   <g id="matplotlib.axis_2">
    <g id="ytick_1">
     <g id="line2d_7">
      <defs>
       <path d="M 0 0 
L -3.5 0 
" id="m75e00222bd" style="stroke:#000000;stroke-width:0.8;"/>
      </defs>
      <g>
       <use style="stroke:#000000;stroke-width:0.8;" x="43.78125" xlink:href="#m75e00222bd" y="301.8675"/>
      </g>
     </g>
     <g id="text_8">
      <!-- 0.0 -->
      <g transform="translate(20.878125 305.666719)scale(0.1 -0.1)">
       <use xlink:href="#DejaVuSans-30"/>
       <use x="63.623047" xlink:href="#DejaVuSans-2e"/>
       <use x="95.410156" xlink:href="#DejaVuSans-30"/>
      </g>
     </g>
    </g>
    <g id="ytick_2">
     <g id="line2d_8">
      <g>
       <use style="stroke:#000000;stroke-width:0.8;" x="43.78125" xlink:href="#m75e00222bd" y="251.1795"/>
      </g>
     </g>
     <g id="text_9">
      <!-- 0.2 -->
      <g transform="translate(20.878125 254.978719)scale(0.1 -0.1)">
       <use xlink:href="#DejaVuSans-30"/>
       <use x="63.623047" xlink:href="#DejaVuSans-2e"/>
       <use x="95.410156" xlink:href="#DejaVuSans-32"/>
      </g>
     </g>
    </g>
    <g id="ytick_3">
     <g id="line2d_9">
      <g>
       <use style="stroke:#000000;stroke-width:0.8;" x="43.78125" xlink:href="#m75e00222bd" y="200.4915"/>
      </g>
     </g>
     <g id="text_10">
      <!-- 0.4 -->
      <g transform="translate(20.878125 204.290719)scale(0.1 -0.1)">
       <use xlink:href="#DejaVuSans-30"/>
       <use x="63.623047" xlink:href="#DejaVuSans-2e"/>
       <use x="95.410156" xlink:href="#DejaVuSans-34"/>
      </g>
     </g>
    </g>
    <g id="ytick_4">
     <g id="line2d_10">
      <g>
       <use style="stroke:#000000;stroke-width:0.8;" x="43.78125" xlink:href="#m75e00222bd" y="149.8035"/>
      </g>
     </g>
     <g id="text_11">
      <!-- 0.6 -->
      <g transform="translate(20.878125 153.602719)scale(0.1 -0.1)">
       <use xlink:href="#DejaVuSans-30"/>
       <use x="63.623047" xlink:href="#DejaVuSans-2e"/>
       <use x="95.410156" xlink:href="#DejaVuSans-36"/>
      </g>
     </g>
    </g>
    <g id="ytick_5">
     <g id="line2d_11">
      <g>
       <use style="stroke:#000000;stroke-width:0.8;" x="43.78125" xlink:href="#m75e00222bd" y="99.1155"/>
      </g>
     </g>
     <g id="text_12">
      <!-- 0.8 -->
      <g transform="translate(20.878125 102.914719)scale(0.1 -0.1)">
       <use xlink:href="#DejaVuSans-30"/>
       <use x="63.623047" xlink:href="#DejaVuSans-2e"/>
       <use x="95.410156" xlink:href="#DejaVuSans-38"/>
      </g>
     </g>
    </g>
    <g id="ytick_6">
     <g id="line2d_12">
      <g>
       <use style="stroke:#000000;stroke-width:0.8;" x="43.78125" xlink:href="#m75e00222bd" y="48.4275"/>
      </g>
     </g>
     <g id="text_13">
      <!-- 1.0 -->
      <g transform="translate(20.878125 52.226719)scale(0.1 -0.1)">
       <use xlink:href="#DejaVuSans-31"/>
       <use x="63.623047" xlink:href="#DejaVuSans-2e"/>
       <use x="95.410156" xlink:href="#DejaVuSans-30"/>
      </g>
     </g>
    </g>
    <g id="text_14">
     <!-- True Positive Rate -->
     <defs>
      <path d="M -0.296875 72.90625 
L 61.375 72.90625 
L 61.375 64.59375 
L 35.5 64.59375 
L 35.5 0 
L 25.59375 0 
L 25.59375 64.59375 
L -0.296875 64.59375 
z
" id="DejaVuSans-54"/>
      <path d="M 41.109375 46.296875 
Q 39.59375 47.171875 37.8125 47.578125 
Q 36.03125 48 33.890625 48 
Q 26.265625 48 22.1875 43.046875 
Q 18.109375 38.09375 18.109375 28.8125 
L 18.109375 0 
L 9.078125 0 
L 9.078125 54.6875 
L 18.109375 54.6875 
L 18.109375 46.1875 
Q 20.953125 51.171875 25.484375 53.578125 
Q 30.03125 56 36.53125 56 
Q 37.453125 56 38.578125 55.875 
Q 39.703125 55.765625 41.0625 55.515625 
z
" id="DejaVuSans-72"/>
      <path d="M 8.5 21.578125 
L 8.5 54.6875 
L 17.484375 54.6875 
L 17.484375 21.921875 
Q 17.484375 14.15625 20.5 10.265625 
Q 23.53125 6.390625 29.59375 6.390625 
Q 36.859375 6.390625 41.078125 11.03125 
Q 45.3125 15.671875 45.3125 23.6875 
L 45.3125 54.6875 
L 54.296875 54.6875 
L 54.296875 0 
L 45.3125 0 
L 45.3125 8.40625 
Q 42.046875 3.421875 37.71875 1 
Q 33.40625 -1.421875 27.6875 -1.421875 
Q 18.265625 -1.421875 13.375 4.4375 
Q 8.5 10.296875 8.5 21.578125 
M 31.109375 56 
z
" id="DejaVuSans-75"/>
     </defs>
     <g transform="translate(14.798438 214.357594)rotate(-90)scale(0.1 -0.1)">
      <use xlink:href="#DejaVuSans-54"/>
      <use x="60.865234" xlink:href="#DejaVuSans-72"/>
      <use x="101.978516" xlink:href="#DejaVuSans-75"/>
      <use x="165.357422" xlink:href="#DejaVuSans-65"/>
      <use x="226.880859" xlink:href="#DejaVuSans-20"/>
      <use x="258.667969" xlink:href="#DejaVuSans-50"/>
      <use x="318.923828" xlink:href="#DejaVuSans-6f"/>
      <use x="380.105469" xlink:href="#DejaVuSans-73"/>
      <use x="432.205078" xlink:href="#DejaVuSans-69"/>
      <use x="459.988281" xlink:href="#DejaVuSans-74"/>
      <use x="499.197266" xlink:href="#DejaVuSans-69"/>
      <use x="526.980469" xlink:href="#DejaVuSans-76"/>
      <use x="586.160156" xlink:href="#DejaVuSans-65"/>
      <use x="647.683594" xlink:href="#DejaVuSans-20"/>
      <use x="679.470703" xlink:href="#DejaVuSans-52"/>
      <use x="748.921875" xlink:href="#DejaVuSans-61"/>
      <use x="810.201172" xlink:href="#DejaVuSans-74"/>
      <use x="849.410156" xlink:href="#DejaVuSans-65"/>
     </g>
    </g>
   </g>
   <g id="line2d_13">
    <path clip-path="url(#p3504612552)" d="M 43.78125 301.8675 
L 46.468199 301.8675 
L 46.590333 300.1779 
L 46.712468 300.1779 
L 46.834602 296.7987 
L 48.910881 296.7987 
L 48.910881 295.1091 
L 49.155149 291.7299 
L 49.521551 291.7299 
L 50.254355 290.0403 
L 51.842098 290.0403 
L 51.964232 288.3507 
L 53.674109 288.3507 
L 54.773316 286.6611 
L 55.50612 286.6611 
L 55.50612 284.9715 
L 56.605327 284.9715 
L 56.971729 271.4547 
L 57.215997 271.4547 
L 57.582399 269.7651 
L 57.704533 268.0755 
L 57.826667 268.0755 
L 57.948801 266.3859 
L 58.070935 266.3859 
L 58.80374 259.6275 
L 58.80374 257.9379 
L 58.925874 257.9379 
L 61.612823 251.1795 
L 61.857091 251.1795 
L 61.979225 247.8003 
L 62.71203 247.8003 
L 63.3227 246.1107 
L 63.444834 246.1107 
L 64.177639 241.0419 
L 64.666175 239.3523 
L 67.353124 239.3523 
L 67.475258 237.6627 
L 67.963794 237.6627 
L 67.963794 235.9731 
L 68.208063 235.9731 
L 68.818733 234.2835 
L 69.429403 234.2835 
L 69.429403 232.5939 
L 69.673671 232.5939 
L 69.795805 230.9043 
L 70.040074 230.9043 
L 70.406476 229.2147 
L 71.13928 229.2147 
L 71.505682 220.7667 
L 71.74995 220.7667 
L 71.74995 217.3875 
L 71.872084 215.6979 
L 72.116353 215.6979 
L 72.116353 214.0083 
L 72.849157 214.0083 
L 73.704095 212.3187 
L 74.314766 212.3187 
L 74.314766 210.6291 
L 74.925436 210.6291 
L 75.291838 208.9395 
L 76.635313 208.9395 
L 76.879581 205.5603 
L 77.001715 205.5603 
L 77.001715 203.8707 
L 78.589458 203.8707 
L 83.719089 188.6643 
L 84.574027 188.6643 
L 84.696161 186.9747 
L 84.696161 185.2851 
L 88.115915 185.2851 
L 88.238049 181.9059 
L 88.848719 181.9059 
L 88.848719 176.8371 
L 90.924998 176.8371 
L 91.169266 175.1475 
L 91.779937 175.1475 
L 92.146339 173.4579 
L 93.36768 171.7683 
L 93.36768 170.0787 
L 93.611948 166.6995 
L 93.856216 166.6995 
L 94.222618 161.6307 
L 95.077556 161.6307 
L 95.077556 159.9411 
L 97.153835 159.9411 
L 97.27597 158.2515 
L 98.253042 158.2515 
L 98.375176 156.5619 
L 98.863712 156.5619 
L 99.107981 153.1827 
L 100.085053 153.1827 
L 100.207187 151.4931 
L 102.039198 151.4931 
L 102.039198 148.1139 
L 103.138405 146.4243 
L 103.749075 146.4243 
L 104.848281 141.3555 
L 105.458952 141.3555 
L 106.558158 139.6659 
L 109.122974 139.6659 
L 109.122974 137.9763 
L 110.710716 137.9763 
L 111.565655 132.9075 
L 112.664861 132.9075 
L 112.786996 131.2179 
L 112.786996 129.5283 
L 113.275532 129.5283 
L 114.863275 124.4595 
L 119.260101 124.4595 
L 119.260101 122.7699 
L 120.603576 122.7699 
L 120.603576 117.7011 
L 126.221742 117.7011 
L 126.221742 116.0115 
L 130.374301 116.0115 
L 130.618569 114.3219 
L 130.618569 110.9427 
L 130.984971 110.9427 
L 133.06125 104.1843 
L 134.282591 104.1843 
L 134.282591 102.4947 
L 135.503931 102.4947 
L 135.626065 100.8051 
L 136.481004 100.8051 
L 136.725272 97.4259 
L 137.824478 97.4259 
L 137.824478 94.0467 
L 137.946613 94.0467 
L 138.313015 90.6675 
L 139.534355 90.6675 
L 139.534355 88.9779 
L 140.389294 88.9779 
L 140.633562 87.2883 
L 141.610634 87.2883 
L 142.831975 85.5987 
L 143.076243 82.2195 
L 146.862399 82.2195 
L 147.106667 80.5299 
L 149.30508 80.5299 
L 149.793617 78.8403 
L 153.335504 78.8403 
L 158.098733 77.1507 
L 161.762755 77.1507 
L 161.884889 75.4611 
L 168.968665 75.4611 
L 170.800675 72.0819 
L 173.976161 72.0819 
L 173.976161 70.3923 
L 174.098295 70.3923 
L 174.464697 68.7027 
L 192.662673 68.7027 
L 192.906941 67.0131 
L 200.723521 67.0131 
L 200.723521 65.3235 
L 207.685162 65.3235 
L 208.662235 63.6339 
L 235.898131 63.6339 
L 236.142399 61.9443 
L 255.683849 61.9443 
L 256.050251 58.5651 
L 256.416654 58.5651 
L 256.783056 56.8755 
L 267.042317 56.8755 
L 267.164451 55.1859 
L 308.201496 55.1859 
L 308.201496 53.4963 
L 321.880511 53.4963 
L 322.73545 51.8067 
L 347.284396 51.8067 
L 347.40653 50.1171 
L 372.93255 50.1171 
L 372.93255 48.4275 
L 400.90125 48.4275 
L 400.90125 48.4275 
" style="fill:none;stroke:#1f77b4;stroke-linecap:square;stroke-width:1.5;"/>
   </g>
   <g id="line2d_14">
    <path clip-path="url(#p3504612552)" d="M 43.78125 301.8675 
L 49.033015 301.8675 
L 49.033015 300.1779 
L 50.742892 300.1779 
L 50.742892 298.4883 
L 51.842098 298.4883 
L 52.2085 281.5923 
L 52.941305 281.5923 
L 52.941305 279.9027 
L 54.284779 279.9027 
L 54.284779 278.2131 
L 54.406913 276.5235 
L 55.139718 276.5235 
L 55.261852 274.8339 
L 56.849595 274.8339 
L 56.849595 273.1443 
L 57.093863 273.1443 
L 57.338131 268.0755 
L 57.460265 268.0755 
L 57.704533 266.3859 
L 57.948801 266.3859 
L 57.948801 263.0067 
L 59.292276 263.0067 
L 59.902946 257.9379 
L 60.391483 257.9379 
L 60.391483 256.2483 
L 61.979225 256.2483 
L 61.979225 252.8691 
L 62.956298 252.8691 
L 62.956298 251.1795 
L 63.93337 251.1795 
L 64.421907 242.7315 
L 64.544041 242.7315 
L 64.544041 237.6627 
L 64.666175 235.9731 
L 66.131784 235.9731 
L 66.131784 234.2835 
L 66.742454 234.2835 
L 66.742454 232.5939 
L 66.986722 229.2147 
L 67.23099 229.2147 
L 67.353124 227.5251 
L 68.085929 227.5251 
L 68.208063 225.8355 
L 68.574465 225.8355 
L 69.307269 220.7667 
L 69.429403 220.7667 
L 69.795805 219.0771 
L 69.917939 219.0771 
L 69.917939 215.6979 
L 70.650744 215.6979 
L 70.650744 214.0083 
L 71.627816 214.0083 
L 71.872084 212.3187 
L 71.872084 210.6291 
L 73.581961 202.1811 
L 73.826229 202.1811 
L 73.826229 198.8019 
L 73.948364 198.8019 
L 73.948364 197.1123 
L 74.314766 197.1123 
L 74.314766 195.4227 
L 74.4369 195.4227 
L 74.4369 192.0435 
L 75.536106 192.0435 
L 75.536106 190.3539 
L 78.34519 190.3539 
L 78.34519 188.6643 
L 78.95586 188.6643 
L 79.077994 185.2851 
L 79.200128 185.2851 
L 79.200128 176.8371 
L 79.56653 176.8371 
L 80.421469 173.4579 
L 82.375614 173.4579 
L 82.375614 171.7683 
L 82.497748 171.7683 
L 82.497748 166.6995 
L 82.86415 166.6995 
L 82.86415 163.3203 
L 83.352686 163.3203 
L 83.47482 161.6307 
L 83.841223 161.6307 
L 84.085491 158.2515 
L 85.062563 158.2515 
L 85.062563 156.5619 
L 86.894574 156.5619 
L 86.894574 154.8723 
L 87.016708 154.8723 
L 87.138842 153.1827 
L 87.138842 151.4931 
L 88.115915 151.4931 
L 88.115915 149.8035 
L 88.238049 149.8035 
L 88.238049 148.1139 
L 89.337255 148.1139 
L 89.45939 146.4243 
L 89.581524 146.4243 
L 89.581524 144.7347 
L 90.802864 144.7347 
L 90.802864 143.0451 
L 92.146339 143.0451 
L 92.146339 141.3555 
L 92.757009 141.3555 
L 96.054629 134.5971 
L 96.665299 134.5971 
L 96.665299 132.9075 
L 96.787433 131.2179 
L 97.642372 131.2179 
L 97.642372 127.8387 
L 98.008774 127.8387 
L 98.008774 126.1491 
L 98.375176 126.1491 
L 98.375176 124.4595 
L 99.474383 124.4595 
L 99.474383 122.7699 
L 99.840785 122.7699 
L 100.207187 121.0803 
L 100.451455 119.3907 
L 101.917064 119.3907 
L 102.161332 117.7011 
L 102.527734 117.7011 
L 103.626941 116.0115 
L 103.993343 114.3219 
L 105.70322 114.3219 
L 106.31389 112.6323 
L 106.924561 109.2531 
L 108.756571 109.2531 
L 108.756571 107.5635 
L 110.954985 107.5635 
L 111.199253 104.1843 
L 114.252604 104.1843 
L 114.741141 102.4947 
L 115.718213 102.4947 
L 115.718213 100.8051 
L 118.03876 100.8051 
L 118.160894 99.1155 
L 121.94705 99.1155 
L 122.191318 97.4259 
L 124.023329 97.4259 
L 124.023329 95.7363 
L 126.588145 95.7363 
L 126.710279 94.0467 
L 132.206312 94.0467 
L 132.45058 92.3571 
L 135.748199 92.3571 
L 135.748199 90.6675 
L 141.977037 90.6675 
L 141.977037 88.9779 
L 145.152522 88.9779 
L 145.152522 87.2883 
L 150.892823 87.2883 
L 150.892823 85.5987 
L 156.633124 85.5987 
L 156.877392 83.9091 
L 156.999526 83.9091 
L 156.999526 82.2195 
L 158.098733 82.2195 
L 158.465135 80.5299 
L 160.541414 80.5299 
L 160.663548 78.8403 
L 164.083302 78.8403 
L 164.083302 77.1507 
L 167.747324 77.1507 
L 167.747324 73.7715 
L 168.357994 73.7715 
L 168.357994 70.3923 
L 168.84653 70.3923 
L 169.212933 68.7027 
L 171.411346 68.7027 
L 171.411346 65.3235 
L 201.700593 65.3235 
L 201.822727 63.6339 
L 207.074492 63.6339 
L 207.929431 61.9443 
L 215.623877 61.9443 
L 215.868145 60.2547 
L 216.234547 60.2547 
L 216.845217 58.5651 
L 227.837283 58.5651 
L 227.837283 56.8755 
L 258.004396 56.8755 
L 258.370799 55.1859 
L 270.217803 55.1859 
L 270.217803 53.4963 
L 272.660484 53.4963 
L 273.14902 51.8067 
L 364.993835 51.8067 
L 365.11597 50.1171 
L 374.764561 50.1171 
L 375.008829 48.4275 
L 400.90125 48.4275 
L 400.90125 48.4275 
" style="fill:none;stroke:#ff7f0e;stroke-linecap:square;stroke-width:1.5;"/>
   </g>
   <g id="line2d_15">
    <path clip-path="url(#p3504612552)" d="M 43.78125 301.8675 
L 46.346065 301.8675 
L 47.68954 300.1779 
L 49.521551 300.1779 
L 49.643685 298.4883 
L 50.010087 298.4883 
L 51.719964 296.7987 
L 51.964232 296.7987 
L 52.452768 295.1091 
L 53.063439 291.7299 
L 54.284779 291.7299 
L 55.261852 290.0403 
L 55.628254 288.3507 
L 58.070935 286.6611 
L 58.559472 284.9715 
L 59.048008 284.9715 
L 59.170142 283.2819 
L 60.635751 283.2819 
L 61.734957 259.6275 
L 62.101359 259.6275 
L 62.223494 257.9379 
L 62.834164 254.5587 
L 63.200566 254.5587 
L 63.444834 251.1795 
L 65.398979 251.1795 
L 65.398979 249.4899 
L 66.131784 249.4899 
L 66.376052 246.1107 
L 66.498186 246.1107 
L 66.742454 244.4211 
L 67.108856 244.4211 
L 71.74995 232.5939 
L 71.74995 227.5251 
L 71.872084 227.5251 
L 72.238487 225.8355 
L 72.482755 224.1459 
L 72.604889 224.1459 
L 73.337693 217.3875 
L 73.581961 217.3875 
L 73.948364 215.6979 
L 75.04757 212.3187 
L 75.291838 212.3187 
L 75.291838 210.6291 
L 75.780374 208.9395 
L 76.146777 207.2499 
L 80.177201 207.2499 
L 80.177201 205.5603 
L 81.276407 195.4227 
L 81.764944 195.4227 
L 81.764944 188.6643 
L 81.887078 188.6643 
L 82.009212 181.9059 
L 84.574027 180.2163 
L 85.062563 180.2163 
L 85.184697 178.5267 
L 85.428965 178.5267 
L 85.428965 176.8371 
L 85.5511 175.1475 
L 85.917502 173.4579 
L 86.039636 171.7683 
L 86.894574 171.7683 
L 88.482317 165.0099 
L 88.726585 165.0099 
L 89.092987 163.3203 
L 89.703658 163.3203 
L 90.07006 156.5619 
L 92.390607 153.1827 
L 92.390607 149.8035 
L 93.36768 149.8035 
L 93.36768 148.1139 
L 93.489814 148.1139 
L 93.611948 146.4243 
L 93.856216 146.4243 
L 94.100484 139.6659 
L 96.176763 139.6659 
L 96.665299 136.2867 
L 97.642372 136.2867 
L 97.764506 134.5971 
L 98.375176 134.5971 
L 98.375176 132.9075 
L 99.474383 132.9075 
L 102.649868 126.1491 
L 103.382673 126.1491 
L 103.749075 121.0803 
L 104.237611 121.0803 
L 104.481879 119.3907 
L 105.70322 119.3907 
L 107.901633 117.7011 
L 108.268035 116.0115 
L 108.634437 116.0115 
L 108.878706 114.3219 
L 113.641934 114.3219 
L 113.641934 112.6323 
L 114.863275 112.6323 
L 115.718213 110.9427 
L 116.573152 110.9427 
L 116.573152 109.2531 
L 119.382235 109.2531 
L 119.748637 107.5635 
L 119.870771 107.5635 
L 119.870771 105.8739 
L 120.115039 105.8739 
L 120.115039 104.1843 
L 124.878268 104.1843 
L 126.343877 102.4947 
L 126.832413 102.4947 
L 127.320949 99.1155 
L 134.160457 99.1155 
L 134.160457 97.4259 
L 153.579773 97.4259 
L 154.190443 92.3571 
L 154.923247 92.3571 
L 156.999526 90.6675 
L 157.12166 88.9779 
L 158.220867 88.9779 
L 158.220867 87.2883 
L 166.648117 87.2883 
L 168.357994 85.5987 
L 168.602262 85.5987 
L 168.724396 83.9091 
L 169.945737 83.9091 
L 170.800675 77.1507 
L 173.121223 77.1507 
L 173.121223 75.4611 
L 173.365491 75.4611 
L 173.365491 73.7715 
L 181.914875 73.7715 
L 182.281277 72.0819 
L 186.678104 72.0819 
L 186.678104 70.3923 
L 191.563466 70.3923 
L 192.052002 68.7027 
L 212.936927 68.7027 
L 212.936927 65.3235 
L 213.425463 63.6339 
L 218.677228 63.6339 
L 218.799362 61.9443 
L 231.623439 61.9443 
L 231.989841 60.2547 
L 234.67679 60.2547 
L 234.67679 58.5651 
L 262.03482 58.5651 
L 262.156955 56.8755 
L 267.775121 56.8755 
L 271.561277 55.1859 
L 273.393288 55.1859 
L 273.515422 53.4963 
L 302.094793 53.4963 
L 302.705463 50.1171 
L 322.246913 50.1171 
L 322.369048 48.4275 
L 400.90125 48.4275 
L 400.90125 48.4275 
" style="fill:none;stroke:#2ca02c;stroke-linecap:square;stroke-width:1.5;"/>
   </g>
   <g id="line2d_16">
    <path clip-path="url(#p3504612552)" d="M 43.78125 301.8675 
L 400.90125 48.4275 
" style="fill:none;stroke:#000000;stroke-dasharray:5.6,2.4;stroke-dashoffset:0;stroke-width:1.5;"/>
   </g>
   <g id="patch_3">
    <path d="M 43.78125 301.8675 
L 43.78125 35.7555 
" style="fill:none;stroke:#000000;stroke-linecap:square;stroke-linejoin:miter;stroke-width:0.8;"/>
   </g>
   <g id="patch_4">
    <path d="M 400.90125 301.8675 
L 400.90125 35.7555 
" style="fill:none;stroke:#000000;stroke-linecap:square;stroke-linejoin:miter;stroke-width:0.8;"/>
   </g>
   <g id="patch_5">
    <path d="M 43.78125 301.8675 
L 400.90125 301.8675 
" style="fill:none;stroke:#000000;stroke-linecap:square;stroke-linejoin:miter;stroke-width:0.8;"/>
   </g>
   <g id="patch_6">
    <path d="M 43.78125 35.7555 
L 400.90125 35.7555 
" style="fill:none;stroke:#000000;stroke-linecap:square;stroke-linejoin:miter;stroke-width:0.8;"/>
   </g>
   <g id="text_15">
    <!-- ROC Curve AdaBoost + SMOTEENN -->
    <defs>
     <path d="M 39.40625 66.21875 
Q 28.65625 66.21875 22.328125 58.203125 
Q 16.015625 50.203125 16.015625 36.375 
Q 16.015625 22.609375 22.328125 14.59375 
Q 28.65625 6.59375 39.40625 6.59375 
Q 50.140625 6.59375 56.421875 14.59375 
Q 62.703125 22.609375 62.703125 36.375 
Q 62.703125 50.203125 56.421875 58.203125 
Q 50.140625 66.21875 39.40625 66.21875 
M 39.40625 74.21875 
Q 54.734375 74.21875 63.90625 63.9375 
Q 73.09375 53.65625 73.09375 36.375 
Q 73.09375 19.140625 63.90625 8.859375 
Q 54.734375 -1.421875 39.40625 -1.421875 
Q 24.03125 -1.421875 14.8125 8.828125 
Q 5.609375 19.09375 5.609375 36.375 
Q 5.609375 53.65625 14.8125 63.9375 
Q 24.03125 74.21875 39.40625 74.21875 
" id="DejaVuSans-4f"/>
     <path d="M 64.40625 67.28125 
L 64.40625 56.890625 
Q 59.421875 61.53125 53.78125 63.8125 
Q 48.140625 66.109375 41.796875 66.109375 
Q 29.296875 66.109375 22.65625 58.46875 
Q 16.015625 50.828125 16.015625 36.375 
Q 16.015625 21.96875 22.65625 14.328125 
Q 29.296875 6.6875 41.796875 6.6875 
Q 48.140625 6.6875 53.78125 8.984375 
Q 59.421875 11.28125 64.40625 15.921875 
L 64.40625 5.609375 
Q 59.234375 2.09375 53.4375 0.328125 
Q 47.65625 -1.421875 41.21875 -1.421875 
Q 24.65625 -1.421875 15.125 8.703125 
Q 5.609375 18.84375 5.609375 36.375 
Q 5.609375 53.953125 15.125 64.078125 
Q 24.65625 74.21875 41.21875 74.21875 
Q 47.75 74.21875 53.53125 72.484375 
Q 59.328125 70.75 64.40625 67.28125 
" id="DejaVuSans-43"/>
     <path d="M 34.1875 63.1875 
L 20.796875 26.90625 
L 47.609375 26.90625 
z
M 28.609375 72.90625 
L 39.796875 72.90625 
L 67.578125 0 
L 57.328125 0 
L 50.6875 18.703125 
L 17.828125 18.703125 
L 11.1875 0 
L 0.78125 0 
z
" id="DejaVuSans-41"/>
     <path d="M 45.40625 46.390625 
L 45.40625 75.984375 
L 54.390625 75.984375 
L 54.390625 0 
L 45.40625 0 
L 45.40625 8.203125 
Q 42.578125 3.328125 38.25 0.953125 
Q 33.9375 -1.421875 27.875 -1.421875 
Q 17.96875 -1.421875 11.734375 6.484375 
Q 5.515625 14.40625 5.515625 27.296875 
Q 5.515625 40.1875 11.734375 48.09375 
Q 17.96875 56 27.875 56 
Q 33.9375 56 38.25 53.625 
Q 42.578125 51.265625 45.40625 46.390625 
M 14.796875 27.296875 
Q 14.796875 17.390625 18.875 11.75 
Q 22.953125 6.109375 30.078125 6.109375 
Q 37.203125 6.109375 41.296875 11.75 
Q 45.40625 17.390625 45.40625 27.296875 
Q 45.40625 37.203125 41.296875 42.84375 
Q 37.203125 48.484375 30.078125 48.484375 
Q 22.953125 48.484375 18.875 42.84375 
Q 14.796875 37.203125 14.796875 27.296875 
" id="DejaVuSans-64"/>
     <path d="M 19.671875 34.8125 
L 19.671875 8.109375 
L 35.5 8.109375 
Q 43.453125 8.109375 47.28125 11.40625 
Q 51.125 14.703125 51.125 21.484375 
Q 51.125 28.328125 47.28125 31.5625 
Q 43.453125 34.8125 35.5 34.8125 
z
M 19.671875 64.796875 
L 19.671875 42.828125 
L 34.28125 42.828125 
Q 41.5 42.828125 45.03125 45.53125 
Q 48.578125 48.25 48.578125 53.8125 
Q 48.578125 59.328125 45.03125 62.0625 
Q 41.5 64.796875 34.28125 64.796875 
z
M 9.8125 72.90625 
L 35.015625 72.90625 
Q 46.296875 72.90625 52.390625 68.21875 
Q 58.5 63.53125 58.5 54.890625 
Q 58.5 48.1875 55.375 44.234375 
Q 52.25 40.28125 46.1875 39.3125 
Q 53.46875 37.75 57.5 32.78125 
Q 61.53125 27.828125 61.53125 20.40625 
Q 61.53125 10.640625 54.890625 5.3125 
Q 48.25 0 35.984375 0 
L 9.8125 0 
z
" id="DejaVuSans-42"/>
     <path d="M 46 62.703125 
L 46 35.5 
L 73.1875 35.5 
L 73.1875 27.203125 
L 46 27.203125 
L 46 0 
L 37.796875 0 
L 37.796875 27.203125 
L 10.59375 27.203125 
L 10.59375 35.5 
L 37.796875 35.5 
L 37.796875 62.703125 
z
" id="DejaVuSans-2b"/>
     <path d="M 53.515625 70.515625 
L 53.515625 60.890625 
Q 47.90625 63.578125 42.921875 64.890625 
Q 37.9375 66.21875 33.296875 66.21875 
Q 25.25 66.21875 20.875 63.09375 
Q 16.5 59.96875 16.5 54.203125 
Q 16.5 49.359375 19.40625 46.890625 
Q 22.3125 44.4375 30.421875 42.921875 
L 36.375 41.703125 
Q 47.40625 39.59375 52.65625 34.296875 
Q 57.90625 29 57.90625 20.125 
Q 57.90625 9.515625 50.796875 4.046875 
Q 43.703125 -1.421875 29.984375 -1.421875 
Q 24.8125 -1.421875 18.96875 -0.25 
Q 13.140625 0.921875 6.890625 3.21875 
L 6.890625 13.375 
Q 12.890625 10.015625 18.65625 8.296875 
Q 24.421875 6.59375 29.984375 6.59375 
Q 38.421875 6.59375 43.015625 9.90625 
Q 47.609375 13.234375 47.609375 19.390625 
Q 47.609375 24.75 44.3125 27.78125 
Q 41.015625 30.8125 33.5 32.328125 
L 27.484375 33.5 
Q 16.453125 35.6875 11.515625 40.375 
Q 6.59375 45.0625 6.59375 53.421875 
Q 6.59375 63.09375 13.40625 68.65625 
Q 20.21875 74.21875 32.171875 74.21875 
Q 37.3125 74.21875 42.625 73.28125 
Q 47.953125 72.359375 53.515625 70.515625 
" id="DejaVuSans-53"/>
     <path d="M 9.8125 72.90625 
L 24.515625 72.90625 
L 43.109375 23.296875 
L 61.8125 72.90625 
L 76.515625 72.90625 
L 76.515625 0 
L 66.890625 0 
L 66.890625 64.015625 
L 48.09375 14.015625 
L 38.1875 14.015625 
L 19.390625 64.015625 
L 19.390625 0 
L 9.8125 0 
z
" id="DejaVuSans-4d"/>
     <path d="M 9.8125 72.90625 
L 55.90625 72.90625 
L 55.90625 64.59375 
L 19.671875 64.59375 
L 19.671875 43.015625 
L 54.390625 43.015625 
L 54.390625 34.71875 
L 19.671875 34.71875 
L 19.671875 8.296875 
L 56.78125 8.296875 
L 56.78125 0 
L 9.8125 0 
z
" id="DejaVuSans-45"/>
     <path d="M 9.8125 72.90625 
L 23.09375 72.90625 
L 55.421875 11.921875 
L 55.421875 72.90625 
L 64.984375 72.90625 
L 64.984375 0 
L 51.703125 0 
L 19.390625 60.984375 
L 19.390625 0 
L 9.8125 0 
z
" id="DejaVuSans-4e"/>
    </defs>
    <g transform="translate(116.442188 16.318125)scale(0.12 -0.12)">
     <use xlink:href="#DejaVuSans-52"/>
     <use x="69.482422" xlink:href="#DejaVuSans-4f"/>
     <use x="148.193359" xlink:href="#DejaVuSans-43"/>
     <use x="218.017578" xlink:href="#DejaVuSans-20"/>
     <use x="249.804688" xlink:href="#DejaVuSans-43"/>
     <use x="319.628906" xlink:href="#DejaVuSans-75"/>
     <use x="383.007812" xlink:href="#DejaVuSans-72"/>
     <use x="424.121094" xlink:href="#DejaVuSans-76"/>
     <use x="483.300781" xlink:href="#DejaVuSans-65"/>
     <use x="544.824219" xlink:href="#DejaVuSans-20"/>
     <use x="576.611328" xlink:href="#DejaVuSans-41"/>
     <use x="645.003906" xlink:href="#DejaVuSans-64"/>
     <use x="708.480469" xlink:href="#DejaVuSans-61"/>
     <use x="769.759766" xlink:href="#DejaVuSans-42"/>
     <use x="838.363281" xlink:href="#DejaVuSans-6f"/>
     <use x="899.544922" xlink:href="#DejaVuSans-6f"/>
     <use x="960.726562" xlink:href="#DejaVuSans-73"/>
     <use x="1012.826172" xlink:href="#DejaVuSans-74"/>
     <use x="1052.035156" xlink:href="#DejaVuSans-20"/>
     <use x="1083.822266" xlink:href="#DejaVuSans-2b"/>
     <use x="1167.611328" xlink:href="#DejaVuSans-20"/>
     <use x="1199.398438" xlink:href="#DejaVuSans-53"/>
     <use x="1262.875" xlink:href="#DejaVuSans-4d"/>
     <use x="1349.154297" xlink:href="#DejaVuSans-4f"/>
     <use x="1427.865234" xlink:href="#DejaVuSans-54"/>
     <use x="1488.949219" xlink:href="#DejaVuSans-45"/>
     <use x="1552.132812" xlink:href="#DejaVuSans-45"/>
     <use x="1615.316406" xlink:href="#DejaVuSans-4e"/>
     <use x="1690.121094" xlink:href="#DejaVuSans-4e"/>
    </g>
    <!-- Train: 12   Test: 12 -->
    <defs>
     <path d="M 54.890625 33.015625 
L 54.890625 0 
L 45.90625 0 
L 45.90625 32.71875 
Q 45.90625 40.484375 42.875 44.328125 
Q 39.84375 48.1875 33.796875 48.1875 
Q 26.515625 48.1875 22.3125 43.546875 
Q 18.109375 38.921875 18.109375 30.90625 
L 18.109375 0 
L 9.078125 0 
L 9.078125 54.6875 
L 18.109375 54.6875 
L 18.109375 46.1875 
Q 21.34375 51.125 25.703125 53.5625 
Q 30.078125 56 35.796875 56 
Q 45.21875 56 50.046875 50.171875 
Q 54.890625 44.34375 54.890625 33.015625 
" id="DejaVuSans-6e"/>
     <path d="M 11.71875 12.40625 
L 22.015625 12.40625 
L 22.015625 0 
L 11.71875 0 
z
M 11.71875 51.703125 
L 22.015625 51.703125 
L 22.015625 39.3125 
L 11.71875 39.3125 
z
" id="DejaVuSans-3a"/>
    </defs>
    <g transform="translate(165.411563 29.7555)scale(0.12 -0.12)">
     <use xlink:href="#DejaVuSans-54"/>
     <use x="60.865234" xlink:href="#DejaVuSans-72"/>
     <use x="101.978516" xlink:href="#DejaVuSans-61"/>
     <use x="163.257812" xlink:href="#DejaVuSans-69"/>
     <use x="191.041016" xlink:href="#DejaVuSans-6e"/>
     <use x="254.419922" xlink:href="#DejaVuSans-3a"/>
     <use x="288.111328" xlink:href="#DejaVuSans-20"/>
     <use x="319.898438" xlink:href="#DejaVuSans-31"/>
     <use x="383.521484" xlink:href="#DejaVuSans-32"/>
     <use x="447.144531" xlink:href="#DejaVuSans-20"/>
     <use x="478.931641" xlink:href="#DejaVuSans-20"/>
     <use x="510.71875" xlink:href="#DejaVuSans-20"/>
     <use x="542.505859" xlink:href="#DejaVuSans-54"/>
     <use x="603.324219" xlink:href="#DejaVuSans-65"/>
     <use x="664.847656" xlink:href="#DejaVuSans-73"/>
     <use x="716.947266" xlink:href="#DejaVuSans-74"/>
     <use x="756.15625" xlink:href="#DejaVuSans-3a"/>
     <use x="789.847656" xlink:href="#DejaVuSans-20"/>
     <use x="821.634766" xlink:href="#DejaVuSans-31"/>
     <use x="885.257812" xlink:href="#DejaVuSans-32"/>
    </g>
   </g>
   <g id="legend_1">
    <g id="patch_7">
     <path d="M 217.087188 296.8675 
L 393.90125 296.8675 
Q 395.90125 296.8675 395.90125 294.8675 
L 395.90125 251.833125 
Q 395.90125 249.833125 393.90125 249.833125 
L 217.087188 249.833125 
Q 215.087188 249.833125 215.087188 251.833125 
L 215.087188 294.8675 
Q 215.087188 296.8675 217.087188 296.8675 
z
" style="fill:#ffffff;opacity:0.8;stroke:#cccccc;stroke-linejoin:miter;"/>
    </g>
    <g id="line2d_17">
     <path d="M 219.087188 257.931562 
L 239.087188 257.931562 
" style="fill:none;stroke:#1f77b4;stroke-linecap:square;stroke-width:1.5;"/>
    </g>
    <g id="line2d_18"/>
    <g id="text_16">
     <!-- ROC curve - 0 (AUC = 0.824) -->
     <defs>
      <path d="M 48.78125 52.59375 
L 48.78125 44.1875 
Q 44.96875 46.296875 41.140625 47.34375 
Q 37.3125 48.390625 33.40625 48.390625 
Q 24.65625 48.390625 19.8125 42.84375 
Q 14.984375 37.3125 14.984375 27.296875 
Q 14.984375 17.28125 19.8125 11.734375 
Q 24.65625 6.203125 33.40625 6.203125 
Q 37.3125 6.203125 41.140625 7.25 
Q 44.96875 8.296875 48.78125 10.40625 
L 48.78125 2.09375 
Q 45.015625 0.34375 40.984375 -0.53125 
Q 36.96875 -1.421875 32.421875 -1.421875 
Q 20.0625 -1.421875 12.78125 6.34375 
Q 5.515625 14.109375 5.515625 27.296875 
Q 5.515625 40.671875 12.859375 48.328125 
Q 20.21875 56 33.015625 56 
Q 37.15625 56 41.109375 55.140625 
Q 45.0625 54.296875 48.78125 52.59375 
" id="DejaVuSans-63"/>
      <path d="M 4.890625 31.390625 
L 31.203125 31.390625 
L 31.203125 23.390625 
L 4.890625 23.390625 
z
" id="DejaVuSans-2d"/>
      <path d="M 31 75.875 
Q 24.46875 64.65625 21.28125 53.65625 
Q 18.109375 42.671875 18.109375 31.390625 
Q 18.109375 20.125 21.3125 9.0625 
Q 24.515625 -2 31 -13.1875 
L 23.1875 -13.1875 
Q 15.875 -1.703125 12.234375 9.375 
Q 8.59375 20.453125 8.59375 31.390625 
Q 8.59375 42.28125 12.203125 53.3125 
Q 15.828125 64.359375 23.1875 75.875 
z
" id="DejaVuSans-28"/>
      <path d="M 8.6875 72.90625 
L 18.609375 72.90625 
L 18.609375 28.609375 
Q 18.609375 16.890625 22.84375 11.734375 
Q 27.09375 6.59375 36.625 6.59375 
Q 46.09375 6.59375 50.34375 11.734375 
Q 54.59375 16.890625 54.59375 28.609375 
L 54.59375 72.90625 
L 64.5 72.90625 
L 64.5 27.390625 
Q 64.5 13.140625 57.4375 5.859375 
Q 50.390625 -1.421875 36.625 -1.421875 
Q 22.796875 -1.421875 15.734375 5.859375 
Q 8.6875 13.140625 8.6875 27.390625 
z
" id="DejaVuSans-55"/>
      <path d="M 10.59375 45.40625 
L 73.1875 45.40625 
L 73.1875 37.203125 
L 10.59375 37.203125 
z
M 10.59375 25.484375 
L 73.1875 25.484375 
L 73.1875 17.1875 
L 10.59375 17.1875 
z
" id="DejaVuSans-3d"/>
      <path d="M 8.015625 75.875 
L 15.828125 75.875 
Q 23.140625 64.359375 26.78125 53.3125 
Q 30.421875 42.28125 30.421875 31.390625 
Q 30.421875 20.453125 26.78125 9.375 
Q 23.140625 -1.703125 15.828125 -13.1875 
L 8.015625 -13.1875 
Q 14.5 -2 17.703125 9.0625 
Q 20.90625 20.125 20.90625 31.390625 
Q 20.90625 42.671875 17.703125 53.65625 
Q 14.5 64.65625 8.015625 75.875 
" id="DejaVuSans-29"/>
     </defs>
     <g transform="translate(247.087188 261.431562)scale(0.1 -0.1)">
      <use xlink:href="#DejaVuSans-52"/>
      <use x="69.482422" xlink:href="#DejaVuSans-4f"/>
      <use x="148.193359" xlink:href="#DejaVuSans-43"/>
      <use x="218.017578" xlink:href="#DejaVuSans-20"/>
      <use x="249.804688" xlink:href="#DejaVuSans-63"/>
      <use x="304.785156" xlink:href="#DejaVuSans-75"/>
      <use x="368.164062" xlink:href="#DejaVuSans-72"/>
      <use x="409.277344" xlink:href="#DejaVuSans-76"/>
      <use x="468.457031" xlink:href="#DejaVuSans-65"/>
      <use x="529.980469" xlink:href="#DejaVuSans-20"/>
      <use x="561.767578" xlink:href="#DejaVuSans-2d"/>
      <use x="597.851562" xlink:href="#DejaVuSans-20"/>
      <use x="629.638672" xlink:href="#DejaVuSans-30"/>
      <use x="693.261719" xlink:href="#DejaVuSans-20"/>
      <use x="725.048828" xlink:href="#DejaVuSans-28"/>
      <use x="764.0625" xlink:href="#DejaVuSans-41"/>
      <use x="832.470703" xlink:href="#DejaVuSans-55"/>
      <use x="905.664062" xlink:href="#DejaVuSans-43"/>
      <use x="975.488281" xlink:href="#DejaVuSans-20"/>
      <use x="1007.275391" xlink:href="#DejaVuSans-3d"/>
      <use x="1091.064453" xlink:href="#DejaVuSans-20"/>
      <use x="1122.851562" xlink:href="#DejaVuSans-30"/>
      <use x="1186.474609" xlink:href="#DejaVuSans-2e"/>
      <use x="1218.261719" xlink:href="#DejaVuSans-38"/>
      <use x="1281.884766" xlink:href="#DejaVuSans-32"/>
      <use x="1345.507812" xlink:href="#DejaVuSans-34"/>
      <use x="1409.130859" xlink:href="#DejaVuSans-29"/>
     </g>
    </g>
    <g id="line2d_19">
     <path d="M 219.087188 272.609687 
L 239.087188 272.609687 
" style="fill:none;stroke:#ff7f0e;stroke-linecap:square;stroke-width:1.5;"/>
    </g>
    <g id="line2d_20"/>
    <g id="text_17">
     <!-- ROC curve - 1 (AUC = 0.846) -->
     <g transform="translate(247.087188 276.109687)scale(0.1 -0.1)">
      <use xlink:href="#DejaVuSans-52"/>
      <use x="69.482422" xlink:href="#DejaVuSans-4f"/>
      <use x="148.193359" xlink:href="#DejaVuSans-43"/>
      <use x="218.017578" xlink:href="#DejaVuSans-20"/>
      <use x="249.804688" xlink:href="#DejaVuSans-63"/>
      <use x="304.785156" xlink:href="#DejaVuSans-75"/>
      <use x="368.164062" xlink:href="#DejaVuSans-72"/>
      <use x="409.277344" xlink:href="#DejaVuSans-76"/>
      <use x="468.457031" xlink:href="#DejaVuSans-65"/>
      <use x="529.980469" xlink:href="#DejaVuSans-20"/>
      <use x="561.767578" xlink:href="#DejaVuSans-2d"/>
      <use x="597.851562" xlink:href="#DejaVuSans-20"/>
      <use x="629.638672" xlink:href="#DejaVuSans-31"/>
      <use x="693.261719" xlink:href="#DejaVuSans-20"/>
      <use x="725.048828" xlink:href="#DejaVuSans-28"/>
      <use x="764.0625" xlink:href="#DejaVuSans-41"/>
      <use x="832.470703" xlink:href="#DejaVuSans-55"/>
      <use x="905.664062" xlink:href="#DejaVuSans-43"/>
      <use x="975.488281" xlink:href="#DejaVuSans-20"/>
      <use x="1007.275391" xlink:href="#DejaVuSans-3d"/>
      <use x="1091.064453" xlink:href="#DejaVuSans-20"/>
      <use x="1122.851562" xlink:href="#DejaVuSans-30"/>
      <use x="1186.474609" xlink:href="#DejaVuSans-2e"/>
      <use x="1218.261719" xlink:href="#DejaVuSans-38"/>
      <use x="1281.884766" xlink:href="#DejaVuSans-34"/>
      <use x="1345.507812" xlink:href="#DejaVuSans-36"/>
      <use x="1409.130859" xlink:href="#DejaVuSans-29"/>
     </g>
    </g>
    <g id="line2d_21">
     <path d="M 219.087188 287.287812 
L 239.087188 287.287812 
" style="fill:none;stroke:#2ca02c;stroke-linecap:square;stroke-width:1.5;"/>
    </g>
    <g id="line2d_22"/>
    <g id="text_18">
     <!-- ROC curve - 2 (AUC = 0.829) -->
     <defs>
      <path d="M 10.984375 1.515625 
L 10.984375 10.5 
Q 14.703125 8.734375 18.5 7.8125 
Q 22.3125 6.890625 25.984375 6.890625 
Q 35.75 6.890625 40.890625 13.453125 
Q 46.046875 20.015625 46.78125 33.40625 
Q 43.953125 29.203125 39.59375 26.953125 
Q 35.25 24.703125 29.984375 24.703125 
Q 19.046875 24.703125 12.671875 31.3125 
Q 6.296875 37.9375 6.296875 49.421875 
Q 6.296875 60.640625 12.9375 67.421875 
Q 19.578125 74.21875 30.609375 74.21875 
Q 43.265625 74.21875 49.921875 64.515625 
Q 56.59375 54.828125 56.59375 36.375 
Q 56.59375 19.140625 48.40625 8.859375 
Q 40.234375 -1.421875 26.421875 -1.421875 
Q 22.703125 -1.421875 18.890625 -0.6875 
Q 15.09375 0.046875 10.984375 1.515625 
M 30.609375 32.421875 
Q 37.25 32.421875 41.125 36.953125 
Q 45.015625 41.5 45.015625 49.421875 
Q 45.015625 57.28125 41.125 61.84375 
Q 37.25 66.40625 30.609375 66.40625 
Q 23.96875 66.40625 20.09375 61.84375 
Q 16.21875 57.28125 16.21875 49.421875 
Q 16.21875 41.5 20.09375 36.953125 
Q 23.96875 32.421875 30.609375 32.421875 
" id="DejaVuSans-39"/>
     </defs>
     <g transform="translate(247.087188 290.787812)scale(0.1 -0.1)">
      <use xlink:href="#DejaVuSans-52"/>
      <use x="69.482422" xlink:href="#DejaVuSans-4f"/>
      <use x="148.193359" xlink:href="#DejaVuSans-43"/>
      <use x="218.017578" xlink:href="#DejaVuSans-20"/>
      <use x="249.804688" xlink:href="#DejaVuSans-63"/>
      <use x="304.785156" xlink:href="#DejaVuSans-75"/>
      <use x="368.164062" xlink:href="#DejaVuSans-72"/>
      <use x="409.277344" xlink:href="#DejaVuSans-76"/>
      <use x="468.457031" xlink:href="#DejaVuSans-65"/>
      <use x="529.980469" xlink:href="#DejaVuSans-20"/>
      <use x="561.767578" xlink:href="#DejaVuSans-2d"/>
      <use x="597.851562" xlink:href="#DejaVuSans-20"/>
      <use x="629.638672" xlink:href="#DejaVuSans-32"/>
      <use x="693.261719" xlink:href="#DejaVuSans-20"/>
      <use x="725.048828" xlink:href="#DejaVuSans-28"/>
      <use x="764.0625" xlink:href="#DejaVuSans-41"/>
      <use x="832.470703" xlink:href="#DejaVuSans-55"/>
      <use x="905.664062" xlink:href="#DejaVuSans-43"/>
      <use x="975.488281" xlink:href="#DejaVuSans-20"/>
      <use x="1007.275391" xlink:href="#DejaVuSans-3d"/>
      <use x="1091.064453" xlink:href="#DejaVuSans-20"/>
      <use x="1122.851562" xlink:href="#DejaVuSans-30"/>
      <use x="1186.474609" xlink:href="#DejaVuSans-2e"/>
      <use x="1218.261719" xlink:href="#DejaVuSans-38"/>
      <use x="1281.884766" xlink:href="#DejaVuSans-32"/>
      <use x="1345.507812" xlink:href="#DejaVuSans-39"/>
      <use x="1409.130859" xlink:href="#DejaVuSans-29"/>
     </g>
    </g>
   </g>
  </g>
 </g>
 <defs>
  <clipPath id="p3504612552">
   <rect height="266.112" width="357.12" x="43.78125" y="35.7555"/>
  </clipPath>
 </defs>
</svg>
