<?xml version="1.0" encoding="utf-8" standalone="no"?>
<!DOCTYPE svg PUBLIC "-//W3C//DTD SVG 1.1//EN"
  "http://www.w3.org/Graphics/SVG/1.1/DTD/svg11.dtd">
<!-- Created with matplotlib (http://matplotlib.org/) -->
<svg height="424pt" version="1.1" viewBox="0 0 510 424" width="510pt" xmlns="http://www.w3.org/2000/svg" xmlns:xlink="http://www.w3.org/1999/xlink">
 <defs>
  <style type="text/css">
*{stroke-linecap:butt;stroke-linejoin:round;stroke-miterlimit:100000;}
  </style>
 </defs>
 <g id="figure_1">
  <g id="patch_1">
   <path d="M 0 424.2941 
L 510.039375 424.2941 
L 510.039375 0 
L 0 0 
z
" style="fill:#ffffff;"/>
  </g>
  <g id="axes_1">
   <g id="patch_2">
    <path d="M 46.8975 384.8666 
L 493.2975 384.8666 
L 493.2975 39.2666 
L 46.8975 39.2666 
z
" style="fill:#ffffff;"/>
   </g>
   <g id="line2d_1">
    <path clip-path="url(#pe03ed23688)" d="M 46.8975 384.8666 
L 52.772657 384.8666 
L 52.772657 353.731465 
L 53.891734 353.731465 
L 54.171504 351.507527 
L 54.451273 351.507527 
L 54.675088 349.283588 
L 54.954858 349.283588 
L 55.234627 347.05965 
L 55.234627 344.835712 
L 55.794166 344.835712 
L 55.794166 340.387836 
L 56.073935 340.387836 
L 56.073935 333.716021 
L 57.193013 333.716021 
L 57.640644 329.268144 
L 58.200182 329.268144 
L 58.368044 324.820268 
L 59.487121 324.820268 
L 59.766891 322.59633 
L 60.32643 322.59633 
L 60.830014 315.924515 
L 61.109784 315.924515 
L 61.333599 313.700577 
L 64.131293 313.700577 
L 64.411062 311.476639 
L 66.089678 311.476639 
L 66.369448 307.028762 
L 68.048064 307.028762 
L 68.607603 302.580886 
L 70.286219 302.580886 
L 70.845758 298.133009 
L 71.125527 298.133009 
L 71.685066 295.909071 
L 75.601837 295.909071 
L 75.825652 293.685133 
L 77.224499 293.685133 
L 77.504269 289.237256 
L 78.623346 289.237256 
L 78.903115 287.013318 
L 79.462654 287.013318 
L 79.742424 282.565442 
L 80.861501 282.565442 
L 81.14127 278.117565 
L 81.309132 273.669689 
L 81.812717 271.445751 
L 82.092486 271.445751 
L 82.372256 269.221812 
L 82.931794 269.221812 
L 83.15561 266.997874 
L 83.15561 264.773936 
L 83.435379 260.326059 
L 83.435379 258.102121 
L 83.715149 258.102121 
L 84.16278 253.654245 
L 86.400934 253.654245 
L 86.680704 251.430307 
L 87.240243 251.430307 
L 87.799781 246.98243 
L 87.799781 244.758492 
L 89.478397 244.758492 
L 89.646259 240.310615 
L 91.884414 240.310615 
L 92.10823 238.086677 
L 92.947538 238.086677 
L 93.171353 235.862739 
L 96.248816 235.862739 
L 96.248816 231.414863 
L 96.528585 229.190924 
L 97.367894 229.190924 
L 97.367894 226.966986 
L 98.76674 226.966986 
L 98.76674 224.743048 
L 101.564434 224.743048 
L 101.844203 220.295171 
L 102.123973 220.295171 
L 102.123973 215.847295 
L 102.963281 215.847295 
L 102.963281 211.399419 
L 107.439591 211.399419 
L 107.607452 206.951542 
L 112.083762 206.951542 
L 112.083762 204.727604 
L 113.20284 204.727604 
L 113.20284 202.503666 
L 117.67915 202.503666 
L 117.67915 198.055789 
L 119.637535 198.055789 
L 119.861351 195.831851 
L 132.171203 195.831851 
L 132.171203 191.383975 
L 134.129588 191.383975 
L 134.353404 189.160036 
L 134.912942 189.160036 
L 135.136758 186.936098 
L 136.815374 186.936098 
L 136.983236 182.488222 
L 139.780929 182.488222 
L 140.004745 180.264283 
L 143.361977 180.264283 
L 143.361977 173.592469 
L 162.106525 173.592469 
L 162.106525 171.368531 
L 167.422143 171.368531 
L 167.422143 166.920654 
L 167.701912 166.920654 
L 167.869774 162.472778 
L 173.74493 162.472778 
L 173.74493 160.248839 
L 186.614321 160.248839 
L 186.614321 151.353086 
L 189.691784 151.353086 
L 189.9156 149.129148 
L 192.433524 149.129148 
L 192.65734 146.90521 
L 198.532496 146.90521 
L 198.532496 144.681272 
L 218.396121 144.681272 
L 218.563983 140.233395 
L 224.998678 140.233395 
L 225.390355 133.561581 
L 234.622744 133.561581 
L 234.622744 122.44189 
L 267.915299 122.44189 
L 268.139114 120.217951 
L 270.0975 120.217951 
L 270.265362 115.770075 
L 273.063055 115.770075 
L 273.286871 113.546137 
L 280.840644 113.546137 
L 281.064459 111.322198 
L 294.213619 111.322198 
L 294.437435 109.09826 
L 328.569297 109.09826 
L 328.569297 104.650384 
L 329.968144 104.650384 
L 329.968144 93.530693 
L 330.415775 89.082816 
L 341.886319 89.082816 
L 342.389904 86.858878 
L 351.622293 86.858878 
L 351.622293 84.63494 
L 357.21768 84.63494 
L 357.21768 82.411002 
L 361.69399 82.411002 
L 361.69399 80.187063 
L 361.97376 80.187063 
L 361.97376 69.067372 
L 385.194617 69.067372 
L 385.698202 66.843434 
L 391.293589 66.843434 
L 391.293589 64.619496 
L 410.597675 64.619496 
L 410.597675 62.395558 
L 434.378072 62.395558 
L 434.601887 60.171619 
L 452.507126 60.171619 
L 453.010711 57.947681 
L 469.852827 57.947681 
L 470.076643 55.723743 
L 493.2975 55.723743 
L 493.2975 55.723743 
" style="fill:none;stroke:#0000ff;stroke-linecap:square;"/>
   </g>
   <g id="line2d_2">
    <path clip-path="url(#pe03ed23688)" d="M 46.8975 384.8666 
L 51.206488 384.8666 
L 51.486293 382.642662 
L 52.605511 382.642662 
L 52.885315 380.418724 
L 54.004533 373.746909 
L 54.284337 373.746909 
L 55.12375 369.299032 
L 55.403555 367.075094 
L 56.242968 367.075094 
L 56.522773 364.851156 
L 57.082382 364.851156 
L 57.64199 360.40328 
L 58.705247 360.40328 
L 63.741727 333.716021 
L 64.021532 331.492083 
L 64.301336 331.492083 
L 64.301336 329.268144 
L 65.028828 329.268144 
L 67.267263 311.476639 
L 70.624916 304.804824 
L 72.023939 298.133009 
L 73.087195 298.133009 
L 73.367 295.909071 
L 74.430257 295.909071 
L 74.710061 291.461195 
L 76.109083 282.565442 
L 76.948497 282.565442 
L 77.228301 280.341503 
L 77.508105 280.341503 
L 77.78791 278.117565 
L 78.067714 278.117565 
L 78.347519 275.893627 
L 78.627323 275.893627 
L 78.907128 273.669689 
L 79.746541 273.669689 
L 80.026345 266.997874 
L 81.145563 266.997874 
L 81.705172 264.773936 
L 82.82439 264.773936 
L 83.383999 260.326059 
L 85.846278 260.326059 
L 86.126082 255.878183 
L 87.077417 255.878183 
L 87.077417 253.654245 
L 89.036048 253.654245 
L 89.259892 251.430307 
L 94.80002 251.430307 
L 95.079824 249.206368 
L 99.8365 249.206368 
L 102.35474 240.310615 
L 103.473957 240.310615 
L 104.593175 238.086677 
L 108.230633 238.086677 
L 108.230633 235.862739 
L 110.189264 235.862739 
L 110.189264 233.638801 
L 118.583397 233.638801 
L 119.42281 231.414863 
L 119.982419 226.966986 
L 120.542028 226.966986 
L 120.821832 224.743048 
L 126.417921 224.743048 
L 126.697726 222.51911 
L 128.656357 222.51911 
L 128.936161 220.295171 
L 136.490881 220.295171 
L 136.490881 218.071233 
L 137.889903 218.071233 
L 138.449512 209.17548 
L 138.729316 209.17548 
L 138.729316 206.951542 
L 139.56873 206.951542 
L 139.848534 204.727604 
L 144.549249 204.727604 
L 145.108858 200.279727 
L 145.948271 200.279727 
L 145.948271 198.055789 
L 149.249963 198.055789 
L 149.473807 195.831851 
L 154.510287 195.831851 
L 154.510287 193.607913 
L 157.308331 193.607913 
L 157.308331 189.160036 
L 162.624615 189.160036 
L 162.624615 186.936098 
L 166.821682 186.936098 
L 166.821682 182.488222 
L 167.381291 180.264283 
L 172.697575 180.264283 
L 172.697575 178.040345 
L 172.97738 178.040345 
L 173.257184 175.816407 
L 186.967602 175.816407 
L 186.967602 173.592469 
L 188.086819 173.592469 
L 189.206037 171.368531 
L 191.668316 171.368531 
L 191.948121 169.144592 
L 196.145187 169.144592 
L 196.145187 160.248839 
L 196.424992 160.248839 
L 196.424992 158.024901 
L 210.415213 158.024901 
L 210.862901 153.577025 
L 214.780163 153.577025 
L 214.780163 151.353086 
L 215.89938 151.353086 
L 216.123224 149.129148 
L 216.962637 149.129148 
L 217.242442 146.90521 
L 217.410324 142.457334 
L 220.208369 142.457334 
L 221.327586 140.233395 
L 222.950452 140.233395 
L 222.950452 138.009457 
L 223.230257 138.009457 
L 223.510061 135.785519 
L 227.930971 135.785519 
L 227.930971 133.561581 
L 231.568429 133.561581 
L 231.568429 131.337642 
L 232.016116 126.889766 
L 234.534356 126.889766 
L 234.982043 122.44189 
L 252.889527 122.44189 
L 253.393175 120.217951 
L 254.512393 120.217951 
L 255.183923 113.546137 
L 282.10111 113.546137 
L 287.13759 111.322198 
L 287.305473 106.874322 
L 288.144886 106.874322 
L 288.144886 104.650384 
L 301.855304 104.650384 
L 302.023186 100.202507 
L 304.261622 95.754631 
L 323.791972 95.754631 
L 323.791972 93.530693 
L 324.911189 93.530693 
L 325.079072 89.082816 
L 335.431836 89.082816 
L 335.935484 86.858878 
L 336.495093 86.858878 
L 336.495093 84.63494 
L 345.448835 84.63494 
L 345.672679 82.411002 
L 353.227398 82.411002 
L 353.227398 77.963125 
L 361.901336 77.963125 
L 361.901336 75.739187 
L 364.139772 75.739187 
L 364.587459 71.29131 
L 369.06433 71.29131 
L 369.06433 66.843434 
L 369.623939 66.843434 
L 369.847782 64.619496 
L 383.278395 64.619496 
L 383.782043 62.395558 
L 396.653047 62.395558 
L 396.876891 60.171619 
L 440.526383 60.171619 
L 440.97407 55.723743 
L 493.2975 55.723743 
L 493.2975 55.723743 
" style="fill:none;stroke:#008000;stroke-linecap:square;"/>
   </g>
   <g id="line2d_3">
    <path clip-path="url(#pe03ed23688)" d="M 46.8975 384.8666 
L 49.975349 384.8666 
L 50.255153 380.388466 
L 50.534958 380.388466 
L 51.094567 378.149399 
L 51.31841 375.910332 
L 51.878019 375.910332 
L 52.157823 373.671265 
L 53.668767 373.671265 
L 53.948572 369.193131 
L 54.228376 366.954064 
L 54.787985 366.954064 
L 55.06779 364.714997 
L 55.795281 364.714997 
L 56.075086 360.236862 
L 56.35489 357.997795 
L 57.194303 357.997795 
L 57.474108 353.519661 
L 58.87313 353.519661 
L 59.432739 349.041527 
L 59.992348 349.041527 
L 60.272152 346.80246 
L 63.350001 333.368058 
L 66.42785 333.368058 
L 66.987459 328.889924 
L 68.106676 328.889924 
L 68.386481 326.650857 
L 69.505699 326.650857 
L 70.065307 324.41179 
L 70.345112 322.172722 
L 70.904721 322.172722 
L 71.184525 319.933655 
L 71.744134 319.933655 
L 71.967978 317.694588 
L 73.087195 317.694588 
L 73.311039 315.455521 
L 73.590843 315.455521 
L 74.150452 313.216454 
L 74.6541 313.216454 
L 74.877944 310.977387 
L 75.437553 310.977387 
L 75.605435 306.499253 
L 75.88524 304.260186 
L 77.004458 304.260186 
L 77.284262 302.021119 
L 78.683284 302.021119 
L 79.242893 297.542985 
L 79.802502 297.542985 
L 80.362111 293.064851 
L 80.92172 293.064851 
L 81.481329 288.586717 
L 83.719764 288.586717 
L 83.887647 284.108583 
L 84.11149 281.869515 
L 85.790317 281.869515 
L 86.070121 277.391381 
L 86.349926 277.391381 
L 86.62973 275.152314 
L 86.909535 275.152314 
L 87.469143 270.67418 
L 88.028752 270.67418 
L 88.308557 268.435113 
L 89.14797 268.435113 
L 90.267188 263.956979 
L 90.826797 263.956979 
L 91.330445 259.478845 
L 93.289076 259.478845 
L 93.456958 255.000711 
L 93.736763 255.000711 
L 94.296372 250.522577 
L 97.933829 250.522577 
L 98.493438 241.566308 
L 101.291483 241.566308 
L 101.571287 237.088174 
L 103.529918 237.088174 
L 103.809723 234.849107 
L 104.089527 234.849107 
L 104.313371 232.61004 
L 105.432588 230.370973 
L 107.559102 230.370973 
L 107.838907 228.131906 
L 108.67832 228.131906 
L 109.181968 219.175638 
L 109.741577 219.175638 
L 110.301186 216.936571 
L 110.860794 216.936571 
L 111.420403 212.458437 
L 111.700208 212.458437 
L 112.259817 207.980303 
L 113.09923 207.980303 
L 113.323074 205.741236 
L 115.225744 205.741236 
L 115.449587 203.502169 
L 116.009196 203.502169 
L 116.568805 199.024034 
L 117.688023 199.024034 
L 117.967827 196.784967 
L 118.247632 196.784967 
L 118.527436 194.5459 
L 118.807241 194.5459 
L 119.031084 192.306833 
L 120.709911 192.306833 
L 120.933754 190.067766 
L 122.052972 190.067766 
L 122.332776 185.589632 
L 125.970234 185.589632 
L 126.138117 181.111498 
L 128.096748 181.111498 
L 128.656357 178.872431 
L 129.49577 178.872431 
L 130.055379 176.633364 
L 131.734206 176.633364 
L 132.293814 174.394297 
L 137.330294 174.394297 
L 137.610099 169.916163 
L 138.057786 165.438029 
L 141.415439 165.438029 
L 141.639283 163.198962 
L 142.478696 163.198962 
L 142.702539 160.959894 
L 145.780388 160.959894 
L 146.004232 158.720827 
L 148.522472 158.720827 
L 148.914198 152.003626 
L 150.033416 152.003626 
L 150.593025 149.764559 
L 152.83146 149.764559 
L 153.111265 147.525492 
L 153.950678 147.525492 
L 154.454326 145.286425 
L 154.73413 145.286425 
L 154.957974 143.047358 
L 155.237778 143.047358 
L 155.517583 140.808291 
L 158.315627 140.808291 
L 158.595432 138.569224 
L 163.911716 138.569224 
L 164.19152 136.330157 
L 168.948196 136.330157 
L 169.172039 134.09109 
L 171.690279 134.09109 
L 171.970084 129.612956 
L 174.488324 129.612956 
L 175.047932 125.134822 
L 180.644021 125.134822 
L 180.811904 120.656687 
L 185.568579 120.656687 
L 186.128188 118.41762 
L 200.174371 118.41762 
L 200.342254 113.939486 
L 205.378734 113.939486 
L 205.658538 109.461352 
L 209.295996 109.461352 
L 209.5758 107.222285 
L 214.892084 107.222285 
L 215.171889 104.983218 
L 216.291107 104.983218 
L 216.738794 100.505084 
L 217.018598 100.505084 
L 217.242442 98.266017 
L 223.398139 98.266017 
L 223.621983 96.02695 
L 226.140223 96.02695 
L 226.420027 93.787883 
L 232.016116 93.787883 
L 232.519764 89.309749 
L 240.913897 89.309749 
L 241.193702 87.070682 
L 248.468617 87.070682 
L 248.692461 84.831615 
L 274.714273 84.831615 
L 274.882156 80.35348 
L 284.955116 80.35348 
L 285.178959 78.114413 
L 296.930746 78.114413 
L 297.154589 75.875346 
L 309.465984 75.875346 
L 309.689828 73.636279 
L 316.405134 73.636279 
L 316.908782 71.397212 
L 351.604533 71.397212 
L 351.828376 69.158145 
L 354.626421 69.158145 
L 354.850264 66.919078 
L 391.504646 66.919078 
L 391.728489 64.680011 
L 436.441238 64.680011 
L 436.665082 62.440944 
L 451.774521 62.440944 
L 451.998365 60.201877 
L 459.27328 60.201877 
L 459.497124 57.96281 
L 463.69419 57.96281 
L 463.918034 55.723743 
L 493.2975 55.723743 
L 493.2975 55.723743 
" style="fill:none;stroke:#ff0000;stroke-linecap:square;"/>
   </g>
   <g id="line2d_4">
    <path clip-path="url(#pe03ed23688)" d="M 46.8975 384.8666 
L 493.2975 55.723743 
" style="fill:none;stroke:#000000;stroke-dasharray:6.000000,6.000000;stroke-dashoffset:0.0;"/>
   </g>
   <g id="patch_3">
    <path d="M 46.8975 384.8666 
L 46.8975 39.2666 
" style="fill:none;stroke:#000000;stroke-linecap:square;stroke-linejoin:miter;"/>
   </g>
   <g id="patch_4">
    <path d="M 493.2975 384.8666 
L 493.2975 39.2666 
" style="fill:none;stroke:#000000;stroke-linecap:square;stroke-linejoin:miter;"/>
   </g>
   <g id="patch_5">
    <path d="M 46.8975 39.2666 
L 493.2975 39.2666 
" style="fill:none;stroke:#000000;stroke-linecap:square;stroke-linejoin:miter;"/>
   </g>
   <g id="patch_6">
    <path d="M 46.8975 384.8666 
L 493.2975 384.8666 
" style="fill:none;stroke:#000000;stroke-linecap:square;stroke-linejoin:miter;"/>
   </g>
   <g id="matplotlib.axis_1">
    <g id="xtick_1">
     <g id="line2d_5">
      <defs>
       <path d="M 0 0 
L 0 -4 
" id="mb6843d603a" style="stroke:#000000;stroke-width:0.5;"/>
      </defs>
      <g>
       <use style="stroke:#000000;stroke-width:0.5;" x="46.8975" xlink:href="#mb6843d603a" y="384.8666"/>
      </g>
     </g>
     <g id="line2d_6">
      <defs>
       <path d="M 0 0 
L 0 4 
" id="m4f6523d06e" style="stroke:#000000;stroke-width:0.5;"/>
      </defs>
      <g>
       <use style="stroke:#000000;stroke-width:0.5;" x="46.8975" xlink:href="#m4f6523d06e" y="39.2666"/>
      </g>
     </g>
     <g id="text_1">
      <!-- 0.0 -->
      <defs>
       <path d="M 31.78125 66.40625 
Q 24.171875 66.40625 20.328125 58.90625 
Q 16.5 51.421875 16.5 36.375 
Q 16.5 21.390625 20.328125 13.890625 
Q 24.171875 6.390625 31.78125 6.390625 
Q 39.453125 6.390625 43.28125 13.890625 
Q 47.125 21.390625 47.125 36.375 
Q 47.125 51.421875 43.28125 58.90625 
Q 39.453125 66.40625 31.78125 66.40625 
M 31.78125 74.21875 
Q 44.046875 74.21875 50.515625 64.515625 
Q 56.984375 54.828125 56.984375 36.375 
Q 56.984375 17.96875 50.515625 8.265625 
Q 44.046875 -1.421875 31.78125 -1.421875 
Q 19.53125 -1.421875 13.0625 8.265625 
Q 6.59375 17.96875 6.59375 36.375 
Q 6.59375 54.828125 13.0625 64.515625 
Q 19.53125 74.21875 31.78125 74.21875 
" id="BitstreamVeraSans-Roman-30"/>
       <path d="M 10.6875 12.40625 
L 21 12.40625 
L 21 0 
L 10.6875 0 
z
" id="BitstreamVeraSans-Roman-2e"/>
      </defs>
      <g transform="translate(37.355625 397.984725)scale(0.12 -0.12)">
       <use xlink:href="#BitstreamVeraSans-Roman-30"/>
       <use x="63.623046875" xlink:href="#BitstreamVeraSans-Roman-2e"/>
       <use x="95.41015625" xlink:href="#BitstreamVeraSans-Roman-30"/>
      </g>
     </g>
    </g>
    <g id="xtick_2">
     <g id="line2d_7">
      <g>
       <use style="stroke:#000000;stroke-width:0.5;" x="136.1775" xlink:href="#mb6843d603a" y="384.8666"/>
      </g>
     </g>
     <g id="line2d_8">
      <g>
       <use style="stroke:#000000;stroke-width:0.5;" x="136.1775" xlink:href="#m4f6523d06e" y="39.2666"/>
      </g>
     </g>
     <g id="text_2">
      <!-- 0.2 -->
      <defs>
       <path d="M 19.1875 8.296875 
L 53.609375 8.296875 
L 53.609375 0 
L 7.328125 0 
L 7.328125 8.296875 
Q 12.9375 14.109375 22.625 23.890625 
Q 32.328125 33.6875 34.8125 36.53125 
Q 39.546875 41.84375 41.421875 45.53125 
Q 43.3125 49.21875 43.3125 52.78125 
Q 43.3125 58.59375 39.234375 62.25 
Q 35.15625 65.921875 28.609375 65.921875 
Q 23.96875 65.921875 18.8125 64.3125 
Q 13.671875 62.703125 7.8125 59.421875 
L 7.8125 69.390625 
Q 13.765625 71.78125 18.9375 73 
Q 24.125 74.21875 28.421875 74.21875 
Q 39.75 74.21875 46.484375 68.546875 
Q 53.21875 62.890625 53.21875 53.421875 
Q 53.21875 48.921875 51.53125 44.890625 
Q 49.859375 40.875 45.40625 35.40625 
Q 44.1875 33.984375 37.640625 27.21875 
Q 31.109375 20.453125 19.1875 8.296875 
" id="BitstreamVeraSans-Roman-32"/>
      </defs>
      <g transform="translate(126.635625 397.984725)scale(0.12 -0.12)">
       <use xlink:href="#BitstreamVeraSans-Roman-30"/>
       <use x="63.623046875" xlink:href="#BitstreamVeraSans-Roman-2e"/>
       <use x="95.41015625" xlink:href="#BitstreamVeraSans-Roman-32"/>
      </g>
     </g>
    </g>
    <g id="xtick_3">
     <g id="line2d_9">
      <g>
       <use style="stroke:#000000;stroke-width:0.5;" x="225.4575" xlink:href="#mb6843d603a" y="384.8666"/>
      </g>
     </g>
     <g id="line2d_10">
      <g>
       <use style="stroke:#000000;stroke-width:0.5;" x="225.4575" xlink:href="#m4f6523d06e" y="39.2666"/>
      </g>
     </g>
     <g id="text_3">
      <!-- 0.4 -->
      <defs>
       <path d="M 37.796875 64.3125 
L 12.890625 25.390625 
L 37.796875 25.390625 
z
M 35.203125 72.90625 
L 47.609375 72.90625 
L 47.609375 25.390625 
L 58.015625 25.390625 
L 58.015625 17.1875 
L 47.609375 17.1875 
L 47.609375 0 
L 37.796875 0 
L 37.796875 17.1875 
L 4.890625 17.1875 
L 4.890625 26.703125 
z
" id="BitstreamVeraSans-Roman-34"/>
      </defs>
      <g transform="translate(215.915625 397.984725)scale(0.12 -0.12)">
       <use xlink:href="#BitstreamVeraSans-Roman-30"/>
       <use x="63.623046875" xlink:href="#BitstreamVeraSans-Roman-2e"/>
       <use x="95.41015625" xlink:href="#BitstreamVeraSans-Roman-34"/>
      </g>
     </g>
    </g>
    <g id="xtick_4">
     <g id="line2d_11">
      <g>
       <use style="stroke:#000000;stroke-width:0.5;" x="314.7375" xlink:href="#mb6843d603a" y="384.8666"/>
      </g>
     </g>
     <g id="line2d_12">
      <g>
       <use style="stroke:#000000;stroke-width:0.5;" x="314.7375" xlink:href="#m4f6523d06e" y="39.2666"/>
      </g>
     </g>
     <g id="text_4">
      <!-- 0.6 -->
      <defs>
       <path d="M 33.015625 40.375 
Q 26.375 40.375 22.484375 35.828125 
Q 18.609375 31.296875 18.609375 23.390625 
Q 18.609375 15.53125 22.484375 10.953125 
Q 26.375 6.390625 33.015625 6.390625 
Q 39.65625 6.390625 43.53125 10.953125 
Q 47.40625 15.53125 47.40625 23.390625 
Q 47.40625 31.296875 43.53125 35.828125 
Q 39.65625 40.375 33.015625 40.375 
M 52.59375 71.296875 
L 52.59375 62.3125 
Q 48.875 64.0625 45.09375 64.984375 
Q 41.3125 65.921875 37.59375 65.921875 
Q 27.828125 65.921875 22.671875 59.328125 
Q 17.53125 52.734375 16.796875 39.40625 
Q 19.671875 43.65625 24.015625 45.921875 
Q 28.375 48.1875 33.59375 48.1875 
Q 44.578125 48.1875 50.953125 41.515625 
Q 57.328125 34.859375 57.328125 23.390625 
Q 57.328125 12.15625 50.6875 5.359375 
Q 44.046875 -1.421875 33.015625 -1.421875 
Q 20.359375 -1.421875 13.671875 8.265625 
Q 6.984375 17.96875 6.984375 36.375 
Q 6.984375 53.65625 15.1875 63.9375 
Q 23.390625 74.21875 37.203125 74.21875 
Q 40.921875 74.21875 44.703125 73.484375 
Q 48.484375 72.75 52.59375 71.296875 
" id="BitstreamVeraSans-Roman-36"/>
      </defs>
      <g transform="translate(305.195625 397.984725)scale(0.12 -0.12)">
       <use xlink:href="#BitstreamVeraSans-Roman-30"/>
       <use x="63.623046875" xlink:href="#BitstreamVeraSans-Roman-2e"/>
       <use x="95.41015625" xlink:href="#BitstreamVeraSans-Roman-36"/>
      </g>
     </g>
    </g>
    <g id="xtick_5">
     <g id="line2d_13">
      <g>
       <use style="stroke:#000000;stroke-width:0.5;" x="404.0175" xlink:href="#mb6843d603a" y="384.8666"/>
      </g>
     </g>
     <g id="line2d_14">
      <g>
       <use style="stroke:#000000;stroke-width:0.5;" x="404.0175" xlink:href="#m4f6523d06e" y="39.2666"/>
      </g>
     </g>
     <g id="text_5">
      <!-- 0.8 -->
      <defs>
       <path d="M 31.78125 34.625 
Q 24.75 34.625 20.71875 30.859375 
Q 16.703125 27.09375 16.703125 20.515625 
Q 16.703125 13.921875 20.71875 10.15625 
Q 24.75 6.390625 31.78125 6.390625 
Q 38.8125 6.390625 42.859375 10.171875 
Q 46.921875 13.96875 46.921875 20.515625 
Q 46.921875 27.09375 42.890625 30.859375 
Q 38.875 34.625 31.78125 34.625 
M 21.921875 38.8125 
Q 15.578125 40.375 12.03125 44.71875 
Q 8.5 49.078125 8.5 55.328125 
Q 8.5 64.0625 14.71875 69.140625 
Q 20.953125 74.21875 31.78125 74.21875 
Q 42.671875 74.21875 48.875 69.140625 
Q 55.078125 64.0625 55.078125 55.328125 
Q 55.078125 49.078125 51.53125 44.71875 
Q 48 40.375 41.703125 38.8125 
Q 48.828125 37.15625 52.796875 32.3125 
Q 56.78125 27.484375 56.78125 20.515625 
Q 56.78125 9.90625 50.3125 4.234375 
Q 43.84375 -1.421875 31.78125 -1.421875 
Q 19.734375 -1.421875 13.25 4.234375 
Q 6.78125 9.90625 6.78125 20.515625 
Q 6.78125 27.484375 10.78125 32.3125 
Q 14.796875 37.15625 21.921875 38.8125 
M 18.3125 54.390625 
Q 18.3125 48.734375 21.84375 45.5625 
Q 25.390625 42.390625 31.78125 42.390625 
Q 38.140625 42.390625 41.71875 45.5625 
Q 45.3125 48.734375 45.3125 54.390625 
Q 45.3125 60.0625 41.71875 63.234375 
Q 38.140625 66.40625 31.78125 66.40625 
Q 25.390625 66.40625 21.84375 63.234375 
Q 18.3125 60.0625 18.3125 54.390625 
" id="BitstreamVeraSans-Roman-38"/>
      </defs>
      <g transform="translate(394.475625 397.984725)scale(0.12 -0.12)">
       <use xlink:href="#BitstreamVeraSans-Roman-30"/>
       <use x="63.623046875" xlink:href="#BitstreamVeraSans-Roman-2e"/>
       <use x="95.41015625" xlink:href="#BitstreamVeraSans-Roman-38"/>
      </g>
     </g>
    </g>
    <g id="xtick_6">
     <g id="line2d_15">
      <g>
       <use style="stroke:#000000;stroke-width:0.5;" x="493.2975" xlink:href="#mb6843d603a" y="384.8666"/>
      </g>
     </g>
     <g id="line2d_16">
      <g>
       <use style="stroke:#000000;stroke-width:0.5;" x="493.2975" xlink:href="#m4f6523d06e" y="39.2666"/>
      </g>
     </g>
     <g id="text_6">
      <!-- 1.0 -->
      <defs>
       <path d="M 12.40625 8.296875 
L 28.515625 8.296875 
L 28.515625 63.921875 
L 10.984375 60.40625 
L 10.984375 69.390625 
L 28.421875 72.90625 
L 38.28125 72.90625 
L 38.28125 8.296875 
L 54.390625 8.296875 
L 54.390625 0 
L 12.40625 0 
z
" id="BitstreamVeraSans-Roman-31"/>
      </defs>
      <g transform="translate(483.755625 397.984725)scale(0.12 -0.12)">
       <use xlink:href="#BitstreamVeraSans-Roman-31"/>
       <use x="63.623046875" xlink:href="#BitstreamVeraSans-Roman-2e"/>
       <use x="95.41015625" xlink:href="#BitstreamVeraSans-Roman-30"/>
      </g>
     </g>
    </g>
    <g id="text_7">
     <!-- False Positive Rate -->
     <defs>
      <path d="M 18.3125 70.21875 
L 18.3125 54.6875 
L 36.8125 54.6875 
L 36.8125 47.703125 
L 18.3125 47.703125 
L 18.3125 18.015625 
Q 18.3125 11.328125 20.140625 9.421875 
Q 21.96875 7.515625 27.59375 7.515625 
L 36.8125 7.515625 
L 36.8125 0 
L 27.59375 0 
Q 17.1875 0 13.234375 3.875 
Q 9.28125 7.765625 9.28125 18.015625 
L 9.28125 47.703125 
L 2.6875 47.703125 
L 2.6875 54.6875 
L 9.28125 54.6875 
L 9.28125 70.21875 
z
" id="BitstreamVeraSans-Roman-74"/>
      <path d="M 44.390625 34.1875 
Q 47.5625 33.109375 50.5625 29.59375 
Q 53.5625 26.078125 56.59375 19.921875 
L 66.609375 0 
L 56 0 
L 46.6875 18.703125 
Q 43.0625 26.03125 39.671875 28.421875 
Q 36.28125 30.8125 30.421875 30.8125 
L 19.671875 30.8125 
L 19.671875 0 
L 9.8125 0 
L 9.8125 72.90625 
L 32.078125 72.90625 
Q 44.578125 72.90625 50.734375 67.671875 
Q 56.890625 62.453125 56.890625 51.90625 
Q 56.890625 45.015625 53.6875 40.46875 
Q 50.484375 35.9375 44.390625 34.1875 
M 19.671875 64.796875 
L 19.671875 38.921875 
L 32.078125 38.921875 
Q 39.203125 38.921875 42.84375 42.21875 
Q 46.484375 45.515625 46.484375 51.90625 
Q 46.484375 58.296875 42.84375 61.546875 
Q 39.203125 64.796875 32.078125 64.796875 
z
" id="BitstreamVeraSans-Roman-52"/>
      <path d="M 2.984375 54.6875 
L 12.5 54.6875 
L 29.59375 8.796875 
L 46.6875 54.6875 
L 56.203125 54.6875 
L 35.6875 0 
L 23.484375 0 
z
" id="BitstreamVeraSans-Roman-76"/>
      <path d="M 9.8125 72.90625 
L 51.703125 72.90625 
L 51.703125 64.59375 
L 19.671875 64.59375 
L 19.671875 43.109375 
L 48.578125 43.109375 
L 48.578125 34.8125 
L 19.671875 34.8125 
L 19.671875 0 
L 9.8125 0 
z
" id="BitstreamVeraSans-Roman-46"/>
      <path d="M 19.671875 64.796875 
L 19.671875 37.40625 
L 32.078125 37.40625 
Q 38.96875 37.40625 42.71875 40.96875 
Q 46.484375 44.53125 46.484375 51.125 
Q 46.484375 57.671875 42.71875 61.234375 
Q 38.96875 64.796875 32.078125 64.796875 
z
M 9.8125 72.90625 
L 32.078125 72.90625 
Q 44.34375 72.90625 50.609375 67.359375 
Q 56.890625 61.8125 56.890625 51.125 
Q 56.890625 40.328125 50.609375 34.8125 
Q 44.34375 29.296875 32.078125 29.296875 
L 19.671875 29.296875 
L 19.671875 0 
L 9.8125 0 
z
" id="BitstreamVeraSans-Roman-50"/>
      <path d="M 30.609375 48.390625 
Q 23.390625 48.390625 19.1875 42.75 
Q 14.984375 37.109375 14.984375 27.296875 
Q 14.984375 17.484375 19.15625 11.84375 
Q 23.34375 6.203125 30.609375 6.203125 
Q 37.796875 6.203125 41.984375 11.859375 
Q 46.1875 17.53125 46.1875 27.296875 
Q 46.1875 37.015625 41.984375 42.703125 
Q 37.796875 48.390625 30.609375 48.390625 
M 30.609375 56 
Q 42.328125 56 49.015625 48.375 
Q 55.71875 40.765625 55.71875 27.296875 
Q 55.71875 13.875 49.015625 6.21875 
Q 42.328125 -1.421875 30.609375 -1.421875 
Q 18.84375 -1.421875 12.171875 6.21875 
Q 5.515625 13.875 5.515625 27.296875 
Q 5.515625 40.765625 12.171875 48.375 
Q 18.84375 56 30.609375 56 
" id="BitstreamVeraSans-Roman-6f"/>
      <path d="M 44.28125 53.078125 
L 44.28125 44.578125 
Q 40.484375 46.53125 36.375 47.5 
Q 32.28125 48.484375 27.875 48.484375 
Q 21.1875 48.484375 17.84375 46.4375 
Q 14.5 44.390625 14.5 40.28125 
Q 14.5 37.15625 16.890625 35.375 
Q 19.28125 33.59375 26.515625 31.984375 
L 29.59375 31.296875 
Q 39.15625 29.25 43.1875 25.515625 
Q 47.21875 21.78125 47.21875 15.09375 
Q 47.21875 7.46875 41.1875 3.015625 
Q 35.15625 -1.421875 24.609375 -1.421875 
Q 20.21875 -1.421875 15.453125 -0.5625 
Q 10.6875 0.296875 5.421875 2 
L 5.421875 11.28125 
Q 10.40625 8.6875 15.234375 7.390625 
Q 20.0625 6.109375 24.8125 6.109375 
Q 31.15625 6.109375 34.5625 8.28125 
Q 37.984375 10.453125 37.984375 14.40625 
Q 37.984375 18.0625 35.515625 20.015625 
Q 33.0625 21.96875 24.703125 23.78125 
L 21.578125 24.515625 
Q 13.234375 26.265625 9.515625 29.90625 
Q 5.8125 33.546875 5.8125 39.890625 
Q 5.8125 47.609375 11.28125 51.796875 
Q 16.75 56 26.8125 56 
Q 31.78125 56 36.171875 55.265625 
Q 40.578125 54.546875 44.28125 53.078125 
" id="BitstreamVeraSans-Roman-73"/>
      <path id="BitstreamVeraSans-Roman-20"/>
      <path d="M 56.203125 29.59375 
L 56.203125 25.203125 
L 14.890625 25.203125 
Q 15.484375 15.921875 20.484375 11.0625 
Q 25.484375 6.203125 34.421875 6.203125 
Q 39.59375 6.203125 44.453125 7.46875 
Q 49.3125 8.734375 54.109375 11.28125 
L 54.109375 2.78125 
Q 49.265625 0.734375 44.1875 -0.34375 
Q 39.109375 -1.421875 33.890625 -1.421875 
Q 20.796875 -1.421875 13.15625 6.1875 
Q 5.515625 13.8125 5.515625 26.8125 
Q 5.515625 40.234375 12.765625 48.109375 
Q 20.015625 56 32.328125 56 
Q 43.359375 56 49.78125 48.890625 
Q 56.203125 41.796875 56.203125 29.59375 
M 47.21875 32.234375 
Q 47.125 39.59375 43.09375 43.984375 
Q 39.0625 48.390625 32.421875 48.390625 
Q 24.90625 48.390625 20.390625 44.140625 
Q 15.875 39.890625 15.1875 32.171875 
z
" id="BitstreamVeraSans-Roman-65"/>
      <path d="M 9.421875 54.6875 
L 18.40625 54.6875 
L 18.40625 0 
L 9.421875 0 
z
M 9.421875 75.984375 
L 18.40625 75.984375 
L 18.40625 64.59375 
L 9.421875 64.59375 
z
" id="BitstreamVeraSans-Roman-69"/>
      <path d="M 34.28125 27.484375 
Q 23.390625 27.484375 19.1875 25 
Q 14.984375 22.515625 14.984375 16.5 
Q 14.984375 11.71875 18.140625 8.90625 
Q 21.296875 6.109375 26.703125 6.109375 
Q 34.1875 6.109375 38.703125 11.40625 
Q 43.21875 16.703125 43.21875 25.484375 
L 43.21875 27.484375 
z
M 52.203125 31.203125 
L 52.203125 0 
L 43.21875 0 
L 43.21875 8.296875 
Q 40.140625 3.328125 35.546875 0.953125 
Q 30.953125 -1.421875 24.3125 -1.421875 
Q 15.921875 -1.421875 10.953125 3.296875 
Q 6 8.015625 6 15.921875 
Q 6 25.140625 12.171875 29.828125 
Q 18.359375 34.515625 30.609375 34.515625 
L 43.21875 34.515625 
L 43.21875 35.40625 
Q 43.21875 41.609375 39.140625 45 
Q 35.0625 48.390625 27.6875 48.390625 
Q 23 48.390625 18.546875 47.265625 
Q 14.109375 46.140625 10.015625 43.890625 
L 10.015625 52.203125 
Q 14.9375 54.109375 19.578125 55.046875 
Q 24.21875 56 28.609375 56 
Q 40.484375 56 46.34375 49.84375 
Q 52.203125 43.703125 52.203125 31.203125 
" id="BitstreamVeraSans-Roman-61"/>
      <path d="M 9.421875 75.984375 
L 18.40625 75.984375 
L 18.40625 0 
L 9.421875 0 
z
" id="BitstreamVeraSans-Roman-6c"/>
     </defs>
     <g transform="translate(213.4509375 414.598475)scale(0.12 -0.12)">
      <use xlink:href="#BitstreamVeraSans-Roman-46"/>
      <use x="57.37890625" xlink:href="#BitstreamVeraSans-Roman-61"/>
      <use x="118.658203125" xlink:href="#BitstreamVeraSans-Roman-6c"/>
      <use x="146.44140625" xlink:href="#BitstreamVeraSans-Roman-73"/>
      <use x="198.541015625" xlink:href="#BitstreamVeraSans-Roman-65"/>
      <use x="260.064453125" xlink:href="#BitstreamVeraSans-Roman-20"/>
      <use x="291.8515625" xlink:href="#BitstreamVeraSans-Roman-50"/>
      <use x="352.107421875" xlink:href="#BitstreamVeraSans-Roman-6f"/>
      <use x="413.2890625" xlink:href="#BitstreamVeraSans-Roman-73"/>
      <use x="465.388671875" xlink:href="#BitstreamVeraSans-Roman-69"/>
      <use x="493.171875" xlink:href="#BitstreamVeraSans-Roman-74"/>
      <use x="532.380859375" xlink:href="#BitstreamVeraSans-Roman-69"/>
      <use x="560.1640625" xlink:href="#BitstreamVeraSans-Roman-76"/>
      <use x="619.34375" xlink:href="#BitstreamVeraSans-Roman-65"/>
      <use x="680.8671875" xlink:href="#BitstreamVeraSans-Roman-20"/>
      <use x="712.654296875" xlink:href="#BitstreamVeraSans-Roman-52"/>
      <use x="782.10546875" xlink:href="#BitstreamVeraSans-Roman-61"/>
      <use x="843.384765625" xlink:href="#BitstreamVeraSans-Roman-74"/>
      <use x="882.59375" xlink:href="#BitstreamVeraSans-Roman-65"/>
     </g>
    </g>
   </g>
   <g id="matplotlib.axis_2">
    <g id="ytick_1">
     <g id="line2d_17">
      <defs>
       <path d="M 0 0 
L 4 0 
" id="mb6912c0a51" style="stroke:#000000;stroke-width:0.5;"/>
      </defs>
      <g>
       <use style="stroke:#000000;stroke-width:0.5;" x="46.8975" xlink:href="#mb6912c0a51" y="384.8666"/>
      </g>
     </g>
     <g id="line2d_18">
      <defs>
       <path d="M 0 0 
L -4 0 
" id="m8414de5abe" style="stroke:#000000;stroke-width:0.5;"/>
      </defs>
      <g>
       <use style="stroke:#000000;stroke-width:0.5;" x="493.2975" xlink:href="#m8414de5abe" y="384.8666"/>
      </g>
     </g>
     <g id="text_8">
      <!-- 0.0 -->
      <g transform="translate(23.81375 388.17785)scale(0.12 -0.12)">
       <use xlink:href="#BitstreamVeraSans-Roman-30"/>
       <use x="63.623046875" xlink:href="#BitstreamVeraSans-Roman-2e"/>
       <use x="95.41015625" xlink:href="#BitstreamVeraSans-Roman-30"/>
      </g>
     </g>
    </g>
    <g id="ytick_2">
     <g id="line2d_19">
      <g>
       <use style="stroke:#000000;stroke-width:0.5;" x="46.8975" xlink:href="#mb6912c0a51" y="319.038028571"/>
      </g>
     </g>
     <g id="line2d_20">
      <g>
       <use style="stroke:#000000;stroke-width:0.5;" x="493.2975" xlink:href="#m8414de5abe" y="319.038028571"/>
      </g>
     </g>
     <g id="text_9">
      <!-- 0.2 -->
      <g transform="translate(23.81375 322.349278571)scale(0.12 -0.12)">
       <use xlink:href="#BitstreamVeraSans-Roman-30"/>
       <use x="63.623046875" xlink:href="#BitstreamVeraSans-Roman-2e"/>
       <use x="95.41015625" xlink:href="#BitstreamVeraSans-Roman-32"/>
      </g>
     </g>
    </g>
    <g id="ytick_3">
     <g id="line2d_21">
      <g>
       <use style="stroke:#000000;stroke-width:0.5;" x="46.8975" xlink:href="#mb6912c0a51" y="253.209457143"/>
      </g>
     </g>
     <g id="line2d_22">
      <g>
       <use style="stroke:#000000;stroke-width:0.5;" x="493.2975" xlink:href="#m8414de5abe" y="253.209457143"/>
      </g>
     </g>
     <g id="text_10">
      <!-- 0.4 -->
      <g transform="translate(23.81375 256.520707143)scale(0.12 -0.12)">
       <use xlink:href="#BitstreamVeraSans-Roman-30"/>
       <use x="63.623046875" xlink:href="#BitstreamVeraSans-Roman-2e"/>
       <use x="95.41015625" xlink:href="#BitstreamVeraSans-Roman-34"/>
      </g>
     </g>
    </g>
    <g id="ytick_4">
     <g id="line2d_23">
      <g>
       <use style="stroke:#000000;stroke-width:0.5;" x="46.8975" xlink:href="#mb6912c0a51" y="187.380885714"/>
      </g>
     </g>
     <g id="line2d_24">
      <g>
       <use style="stroke:#000000;stroke-width:0.5;" x="493.2975" xlink:href="#m8414de5abe" y="187.380885714"/>
      </g>
     </g>
     <g id="text_11">
      <!-- 0.6 -->
      <g transform="translate(23.81375 190.692135714)scale(0.12 -0.12)">
       <use xlink:href="#BitstreamVeraSans-Roman-30"/>
       <use x="63.623046875" xlink:href="#BitstreamVeraSans-Roman-2e"/>
       <use x="95.41015625" xlink:href="#BitstreamVeraSans-Roman-36"/>
      </g>
     </g>
    </g>
    <g id="ytick_5">
     <g id="line2d_25">
      <g>
       <use style="stroke:#000000;stroke-width:0.5;" x="46.8975" xlink:href="#mb6912c0a51" y="121.552314286"/>
      </g>
     </g>
     <g id="line2d_26">
      <g>
       <use style="stroke:#000000;stroke-width:0.5;" x="493.2975" xlink:href="#m8414de5abe" y="121.552314286"/>
      </g>
     </g>
     <g id="text_12">
      <!-- 0.8 -->
      <g transform="translate(23.81375 124.863564286)scale(0.12 -0.12)">
       <use xlink:href="#BitstreamVeraSans-Roman-30"/>
       <use x="63.623046875" xlink:href="#BitstreamVeraSans-Roman-2e"/>
       <use x="95.41015625" xlink:href="#BitstreamVeraSans-Roman-38"/>
      </g>
     </g>
    </g>
    <g id="ytick_6">
     <g id="line2d_27">
      <g>
       <use style="stroke:#000000;stroke-width:0.5;" x="46.8975" xlink:href="#mb6912c0a51" y="55.7237428571"/>
      </g>
     </g>
     <g id="line2d_28">
      <g>
       <use style="stroke:#000000;stroke-width:0.5;" x="493.2975" xlink:href="#m8414de5abe" y="55.7237428571"/>
      </g>
     </g>
     <g id="text_13">
      <!-- 1.0 -->
      <g transform="translate(23.81375 59.0349928571)scale(0.12 -0.12)">
       <use xlink:href="#BitstreamVeraSans-Roman-31"/>
       <use x="63.623046875" xlink:href="#BitstreamVeraSans-Roman-2e"/>
       <use x="95.41015625" xlink:href="#BitstreamVeraSans-Roman-30"/>
      </g>
     </g>
    </g>
    <g id="text_14">
     <!-- True Positive Rate -->
     <defs>
      <path d="M -0.296875 72.90625 
L 61.375 72.90625 
L 61.375 64.59375 
L 35.5 64.59375 
L 35.5 0 
L 25.59375 0 
L 25.59375 64.59375 
L -0.296875 64.59375 
z
" id="BitstreamVeraSans-Roman-54"/>
      <path d="M 8.5 21.578125 
L 8.5 54.6875 
L 17.484375 54.6875 
L 17.484375 21.921875 
Q 17.484375 14.15625 20.5 10.265625 
Q 23.53125 6.390625 29.59375 6.390625 
Q 36.859375 6.390625 41.078125 11.03125 
Q 45.3125 15.671875 45.3125 23.6875 
L 45.3125 54.6875 
L 54.296875 54.6875 
L 54.296875 0 
L 45.3125 0 
L 45.3125 8.40625 
Q 42.046875 3.421875 37.71875 1 
Q 33.40625 -1.421875 27.6875 -1.421875 
Q 18.265625 -1.421875 13.375 4.4375 
Q 8.5 10.296875 8.5 21.578125 
" id="BitstreamVeraSans-Roman-75"/>
      <path d="M 41.109375 46.296875 
Q 39.59375 47.171875 37.8125 47.578125 
Q 36.03125 48 33.890625 48 
Q 26.265625 48 22.1875 43.046875 
Q 18.109375 38.09375 18.109375 28.8125 
L 18.109375 0 
L 9.078125 0 
L 9.078125 54.6875 
L 18.109375 54.6875 
L 18.109375 46.1875 
Q 20.953125 51.171875 25.484375 53.578125 
Q 30.03125 56 36.53125 56 
Q 37.453125 56 38.578125 55.875 
Q 39.703125 55.765625 41.0625 55.515625 
z
" id="BitstreamVeraSans-Roman-72"/>
     </defs>
     <g transform="translate(16.318125 266.7219125)rotate(-90.0)scale(0.12 -0.12)">
      <use xlink:href="#BitstreamVeraSans-Roman-54"/>
      <use x="60.865234375" xlink:href="#BitstreamVeraSans-Roman-72"/>
      <use x="101.978515625" xlink:href="#BitstreamVeraSans-Roman-75"/>
      <use x="165.357421875" xlink:href="#BitstreamVeraSans-Roman-65"/>
      <use x="226.880859375" xlink:href="#BitstreamVeraSans-Roman-20"/>
      <use x="258.66796875" xlink:href="#BitstreamVeraSans-Roman-50"/>
      <use x="318.923828125" xlink:href="#BitstreamVeraSans-Roman-6f"/>
      <use x="380.10546875" xlink:href="#BitstreamVeraSans-Roman-73"/>
      <use x="432.205078125" xlink:href="#BitstreamVeraSans-Roman-69"/>
      <use x="459.98828125" xlink:href="#BitstreamVeraSans-Roman-74"/>
      <use x="499.197265625" xlink:href="#BitstreamVeraSans-Roman-69"/>
      <use x="526.98046875" xlink:href="#BitstreamVeraSans-Roman-76"/>
      <use x="586.16015625" xlink:href="#BitstreamVeraSans-Roman-65"/>
      <use x="647.68359375" xlink:href="#BitstreamVeraSans-Roman-20"/>
      <use x="679.470703125" xlink:href="#BitstreamVeraSans-Roman-52"/>
      <use x="748.921875" xlink:href="#BitstreamVeraSans-Roman-61"/>
      <use x="810.201171875" xlink:href="#BitstreamVeraSans-Roman-74"/>
      <use x="849.41015625" xlink:href="#BitstreamVeraSans-Roman-65"/>
     </g>
    </g>
   </g>
   <g id="text_15">
    <!-- ROC Curve GradientBoosting + RandomOverSampler -->
    <defs>
     <path d="M 53.515625 70.515625 
L 53.515625 60.890625 
Q 47.90625 63.578125 42.921875 64.890625 
Q 37.9375 66.21875 33.296875 66.21875 
Q 25.25 66.21875 20.875 63.09375 
Q 16.5 59.96875 16.5 54.203125 
Q 16.5 49.359375 19.40625 46.890625 
Q 22.3125 44.4375 30.421875 42.921875 
L 36.375 41.703125 
Q 47.40625 39.59375 52.65625 34.296875 
Q 57.90625 29 57.90625 20.125 
Q 57.90625 9.515625 50.796875 4.046875 
Q 43.703125 -1.421875 29.984375 -1.421875 
Q 24.8125 -1.421875 18.96875 -0.25 
Q 13.140625 0.921875 6.890625 3.21875 
L 6.890625 13.375 
Q 12.890625 10.015625 18.65625 8.296875 
Q 24.421875 6.59375 29.984375 6.59375 
Q 38.421875 6.59375 43.015625 9.90625 
Q 47.609375 13.234375 47.609375 19.390625 
Q 47.609375 24.75 44.3125 27.78125 
Q 41.015625 30.8125 33.5 32.328125 
L 27.484375 33.5 
Q 16.453125 35.6875 11.515625 40.375 
Q 6.59375 45.0625 6.59375 53.421875 
Q 6.59375 63.09375 13.40625 68.65625 
Q 20.21875 74.21875 32.171875 74.21875 
Q 37.3125 74.21875 42.625 73.28125 
Q 47.953125 72.359375 53.515625 70.515625 
" id="BitstreamVeraSans-Roman-53"/>
     <path d="M 45.40625 46.390625 
L 45.40625 75.984375 
L 54.390625 75.984375 
L 54.390625 0 
L 45.40625 0 
L 45.40625 8.203125 
Q 42.578125 3.328125 38.25 0.953125 
Q 33.9375 -1.421875 27.875 -1.421875 
Q 17.96875 -1.421875 11.734375 6.484375 
Q 5.515625 14.40625 5.515625 27.296875 
Q 5.515625 40.1875 11.734375 48.09375 
Q 17.96875 56 27.875 56 
Q 33.9375 56 38.25 53.625 
Q 42.578125 51.265625 45.40625 46.390625 
M 14.796875 27.296875 
Q 14.796875 17.390625 18.875 11.75 
Q 22.953125 6.109375 30.078125 6.109375 
Q 37.203125 6.109375 41.296875 11.75 
Q 45.40625 17.390625 45.40625 27.296875 
Q 45.40625 37.203125 41.296875 42.84375 
Q 37.203125 48.484375 30.078125 48.484375 
Q 22.953125 48.484375 18.875 42.84375 
Q 14.796875 37.203125 14.796875 27.296875 
" id="BitstreamVeraSans-Roman-64"/>
     <path d="M 18.109375 8.203125 
L 18.109375 -20.796875 
L 9.078125 -20.796875 
L 9.078125 54.6875 
L 18.109375 54.6875 
L 18.109375 46.390625 
Q 20.953125 51.265625 25.265625 53.625 
Q 29.59375 56 35.59375 56 
Q 45.5625 56 51.78125 48.09375 
Q 58.015625 40.1875 58.015625 27.296875 
Q 58.015625 14.40625 51.78125 6.484375 
Q 45.5625 -1.421875 35.59375 -1.421875 
Q 29.59375 -1.421875 25.265625 0.953125 
Q 20.953125 3.328125 18.109375 8.203125 
M 48.6875 27.296875 
Q 48.6875 37.203125 44.609375 42.84375 
Q 40.53125 48.484375 33.40625 48.484375 
Q 26.265625 48.484375 22.1875 42.84375 
Q 18.109375 37.203125 18.109375 27.296875 
Q 18.109375 17.390625 22.1875 11.75 
Q 26.265625 6.109375 33.40625 6.109375 
Q 40.53125 6.109375 44.609375 11.75 
Q 48.6875 17.390625 48.6875 27.296875 
" id="BitstreamVeraSans-Roman-70"/>
     <path d="M 59.515625 10.40625 
L 59.515625 29.984375 
L 43.40625 29.984375 
L 43.40625 38.09375 
L 69.28125 38.09375 
L 69.28125 6.78125 
Q 63.578125 2.734375 56.6875 0.65625 
Q 49.8125 -1.421875 42 -1.421875 
Q 24.90625 -1.421875 15.25 8.5625 
Q 5.609375 18.5625 5.609375 36.375 
Q 5.609375 54.25 15.25 64.234375 
Q 24.90625 74.21875 42 74.21875 
Q 49.125 74.21875 55.546875 72.453125 
Q 61.96875 70.703125 67.390625 67.28125 
L 67.390625 56.78125 
Q 61.921875 61.421875 55.765625 63.765625 
Q 49.609375 66.109375 42.828125 66.109375 
Q 29.4375 66.109375 22.71875 58.640625 
Q 16.015625 51.171875 16.015625 36.375 
Q 16.015625 21.625 22.71875 14.15625 
Q 29.4375 6.6875 42.828125 6.6875 
Q 48.046875 6.6875 52.140625 7.59375 
Q 56.25 8.5 59.515625 10.40625 
" id="BitstreamVeraSans-Roman-47"/>
     <path d="M 52 44.1875 
Q 55.375 50.25 60.0625 53.125 
Q 64.75 56 71.09375 56 
Q 79.640625 56 84.28125 50.015625 
Q 88.921875 44.046875 88.921875 33.015625 
L 88.921875 0 
L 79.890625 0 
L 79.890625 32.71875 
Q 79.890625 40.578125 77.09375 44.375 
Q 74.3125 48.1875 68.609375 48.1875 
Q 61.625 48.1875 57.5625 43.546875 
Q 53.515625 38.921875 53.515625 30.90625 
L 53.515625 0 
L 44.484375 0 
L 44.484375 32.71875 
Q 44.484375 40.625 41.703125 44.40625 
Q 38.921875 48.1875 33.109375 48.1875 
Q 26.21875 48.1875 22.15625 43.53125 
Q 18.109375 38.875 18.109375 30.90625 
L 18.109375 0 
L 9.078125 0 
L 9.078125 54.6875 
L 18.109375 54.6875 
L 18.109375 46.1875 
Q 21.1875 51.21875 25.484375 53.609375 
Q 29.78125 56 35.6875 56 
Q 41.65625 56 45.828125 52.96875 
Q 50 49.953125 52 44.1875 
" id="BitstreamVeraSans-Roman-6d"/>
     <path d="M 19.671875 34.8125 
L 19.671875 8.109375 
L 35.5 8.109375 
Q 43.453125 8.109375 47.28125 11.40625 
Q 51.125 14.703125 51.125 21.484375 
Q 51.125 28.328125 47.28125 31.5625 
Q 43.453125 34.8125 35.5 34.8125 
z
M 19.671875 64.796875 
L 19.671875 42.828125 
L 34.28125 42.828125 
Q 41.5 42.828125 45.03125 45.53125 
Q 48.578125 48.25 48.578125 53.8125 
Q 48.578125 59.328125 45.03125 62.0625 
Q 41.5 64.796875 34.28125 64.796875 
z
M 9.8125 72.90625 
L 35.015625 72.90625 
Q 46.296875 72.90625 52.390625 68.21875 
Q 58.5 63.53125 58.5 54.890625 
Q 58.5 48.1875 55.375 44.234375 
Q 52.25 40.28125 46.1875 39.3125 
Q 53.46875 37.75 57.5 32.78125 
Q 61.53125 27.828125 61.53125 20.40625 
Q 61.53125 10.640625 54.890625 5.3125 
Q 48.25 0 35.984375 0 
L 9.8125 0 
z
" id="BitstreamVeraSans-Roman-42"/>
     <path d="M 54.890625 33.015625 
L 54.890625 0 
L 45.90625 0 
L 45.90625 32.71875 
Q 45.90625 40.484375 42.875 44.328125 
Q 39.84375 48.1875 33.796875 48.1875 
Q 26.515625 48.1875 22.3125 43.546875 
Q 18.109375 38.921875 18.109375 30.90625 
L 18.109375 0 
L 9.078125 0 
L 9.078125 54.6875 
L 18.109375 54.6875 
L 18.109375 46.1875 
Q 21.34375 51.125 25.703125 53.5625 
Q 30.078125 56 35.796875 56 
Q 45.21875 56 50.046875 50.171875 
Q 54.890625 44.34375 54.890625 33.015625 
" id="BitstreamVeraSans-Roman-6e"/>
     <path d="M 64.40625 67.28125 
L 64.40625 56.890625 
Q 59.421875 61.53125 53.78125 63.8125 
Q 48.140625 66.109375 41.796875 66.109375 
Q 29.296875 66.109375 22.65625 58.46875 
Q 16.015625 50.828125 16.015625 36.375 
Q 16.015625 21.96875 22.65625 14.328125 
Q 29.296875 6.6875 41.796875 6.6875 
Q 48.140625 6.6875 53.78125 8.984375 
Q 59.421875 11.28125 64.40625 15.921875 
L 64.40625 5.609375 
Q 59.234375 2.09375 53.4375 0.328125 
Q 47.65625 -1.421875 41.21875 -1.421875 
Q 24.65625 -1.421875 15.125 8.703125 
Q 5.609375 18.84375 5.609375 36.375 
Q 5.609375 53.953125 15.125 64.078125 
Q 24.65625 74.21875 41.21875 74.21875 
Q 47.75 74.21875 53.53125 72.484375 
Q 59.328125 70.75 64.40625 67.28125 
" id="BitstreamVeraSans-Roman-43"/>
     <path d="M 39.40625 66.21875 
Q 28.65625 66.21875 22.328125 58.203125 
Q 16.015625 50.203125 16.015625 36.375 
Q 16.015625 22.609375 22.328125 14.59375 
Q 28.65625 6.59375 39.40625 6.59375 
Q 50.140625 6.59375 56.421875 14.59375 
Q 62.703125 22.609375 62.703125 36.375 
Q 62.703125 50.203125 56.421875 58.203125 
Q 50.140625 66.21875 39.40625 66.21875 
M 39.40625 74.21875 
Q 54.734375 74.21875 63.90625 63.9375 
Q 73.09375 53.65625 73.09375 36.375 
Q 73.09375 19.140625 63.90625 8.859375 
Q 54.734375 -1.421875 39.40625 -1.421875 
Q 24.03125 -1.421875 14.8125 8.828125 
Q 5.609375 19.09375 5.609375 36.375 
Q 5.609375 53.65625 14.8125 63.9375 
Q 24.03125 74.21875 39.40625 74.21875 
" id="BitstreamVeraSans-Roman-4f"/>
     <path d="M 45.40625 27.984375 
Q 45.40625 37.75 41.375 43.109375 
Q 37.359375 48.484375 30.078125 48.484375 
Q 22.859375 48.484375 18.828125 43.109375 
Q 14.796875 37.75 14.796875 27.984375 
Q 14.796875 18.265625 18.828125 12.890625 
Q 22.859375 7.515625 30.078125 7.515625 
Q 37.359375 7.515625 41.375 12.890625 
Q 45.40625 18.265625 45.40625 27.984375 
M 54.390625 6.78125 
Q 54.390625 -7.171875 48.1875 -13.984375 
Q 42 -20.796875 29.203125 -20.796875 
Q 24.46875 -20.796875 20.265625 -20.09375 
Q 16.0625 -19.390625 12.109375 -17.921875 
L 12.109375 -9.1875 
Q 16.0625 -11.328125 19.921875 -12.34375 
Q 23.78125 -13.375 27.78125 -13.375 
Q 36.625 -13.375 41.015625 -8.765625 
Q 45.40625 -4.15625 45.40625 5.171875 
L 45.40625 9.625 
Q 42.625 4.78125 38.28125 2.390625 
Q 33.9375 0 27.875 0 
Q 17.828125 0 11.671875 7.65625 
Q 5.515625 15.328125 5.515625 27.984375 
Q 5.515625 40.671875 11.671875 48.328125 
Q 17.828125 56 27.875 56 
Q 33.9375 56 38.28125 53.609375 
Q 42.625 51.21875 45.40625 46.390625 
L 45.40625 54.6875 
L 54.390625 54.6875 
z
" id="BitstreamVeraSans-Roman-67"/>
     <path d="M 46 62.703125 
L 46 35.5 
L 73.1875 35.5 
L 73.1875 27.203125 
L 46 27.203125 
L 46 0 
L 37.796875 0 
L 37.796875 27.203125 
L 10.59375 27.203125 
L 10.59375 35.5 
L 37.796875 35.5 
L 37.796875 62.703125 
z
" id="BitstreamVeraSans-Roman-2b"/>
    </defs>
    <g transform="translate(77.93175 18.14175)scale(0.144 -0.144)">
     <use xlink:href="#BitstreamVeraSans-Roman-52"/>
     <use x="69.482421875" xlink:href="#BitstreamVeraSans-Roman-4f"/>
     <use x="148.193359375" xlink:href="#BitstreamVeraSans-Roman-43"/>
     <use x="218.017578125" xlink:href="#BitstreamVeraSans-Roman-20"/>
     <use x="249.8046875" xlink:href="#BitstreamVeraSans-Roman-43"/>
     <use x="319.62890625" xlink:href="#BitstreamVeraSans-Roman-75"/>
     <use x="383.0078125" xlink:href="#BitstreamVeraSans-Roman-72"/>
     <use x="424.12109375" xlink:href="#BitstreamVeraSans-Roman-76"/>
     <use x="483.30078125" xlink:href="#BitstreamVeraSans-Roman-65"/>
     <use x="544.82421875" xlink:href="#BitstreamVeraSans-Roman-20"/>
     <use x="576.611328125" xlink:href="#BitstreamVeraSans-Roman-47"/>
     <use x="654.1015625" xlink:href="#BitstreamVeraSans-Roman-72"/>
     <use x="695.21484375" xlink:href="#BitstreamVeraSans-Roman-61"/>
     <use x="756.494140625" xlink:href="#BitstreamVeraSans-Roman-64"/>
     <use x="819.970703125" xlink:href="#BitstreamVeraSans-Roman-69"/>
     <use x="847.75390625" xlink:href="#BitstreamVeraSans-Roman-65"/>
     <use x="909.27734375" xlink:href="#BitstreamVeraSans-Roman-6e"/>
     <use x="972.65625" xlink:href="#BitstreamVeraSans-Roman-74"/>
     <use x="1011.865234375" xlink:href="#BitstreamVeraSans-Roman-42"/>
     <use x="1080.46875" xlink:href="#BitstreamVeraSans-Roman-6f"/>
     <use x="1141.650390625" xlink:href="#BitstreamVeraSans-Roman-6f"/>
     <use x="1202.83203125" xlink:href="#BitstreamVeraSans-Roman-73"/>
     <use x="1254.931640625" xlink:href="#BitstreamVeraSans-Roman-74"/>
     <use x="1294.140625" xlink:href="#BitstreamVeraSans-Roman-69"/>
     <use x="1321.923828125" xlink:href="#BitstreamVeraSans-Roman-6e"/>
     <use x="1385.302734375" xlink:href="#BitstreamVeraSans-Roman-67"/>
     <use x="1448.779296875" xlink:href="#BitstreamVeraSans-Roman-20"/>
     <use x="1480.56640625" xlink:href="#BitstreamVeraSans-Roman-2b"/>
     <use x="1564.35546875" xlink:href="#BitstreamVeraSans-Roman-20"/>
     <use x="1596.142578125" xlink:href="#BitstreamVeraSans-Roman-52"/>
     <use x="1665.59375" xlink:href="#BitstreamVeraSans-Roman-61"/>
     <use x="1726.873046875" xlink:href="#BitstreamVeraSans-Roman-6e"/>
     <use x="1790.251953125" xlink:href="#BitstreamVeraSans-Roman-64"/>
     <use x="1853.728515625" xlink:href="#BitstreamVeraSans-Roman-6f"/>
     <use x="1914.91015625" xlink:href="#BitstreamVeraSans-Roman-6d"/>
     <use x="2012.322265625" xlink:href="#BitstreamVeraSans-Roman-4f"/>
     <use x="2091.033203125" xlink:href="#BitstreamVeraSans-Roman-76"/>
     <use x="2150.212890625" xlink:href="#BitstreamVeraSans-Roman-65"/>
     <use x="2211.736328125" xlink:href="#BitstreamVeraSans-Roman-72"/>
     <use x="2252.849609375" xlink:href="#BitstreamVeraSans-Roman-53"/>
     <use x="2316.326171875" xlink:href="#BitstreamVeraSans-Roman-61"/>
     <use x="2377.60546875" xlink:href="#BitstreamVeraSans-Roman-6d"/>
     <use x="2475.017578125" xlink:href="#BitstreamVeraSans-Roman-70"/>
     <use x="2538.494140625" xlink:href="#BitstreamVeraSans-Roman-6c"/>
     <use x="2566.27734375" xlink:href="#BitstreamVeraSans-Roman-65"/>
     <use x="2627.80078125" xlink:href="#BitstreamVeraSans-Roman-72"/>
    </g>
    <!-- Train: 24   Test: 24 -->
    <defs>
     <path d="M 11.71875 12.40625 
L 22.015625 12.40625 
L 22.015625 0 
L 11.71875 0 
z
M 11.71875 51.703125 
L 22.015625 51.703125 
L 22.015625 39.3125 
L 11.71875 39.3125 
z
" id="BitstreamVeraSans-Roman-3a"/>
    </defs>
    <g transform="translate(201.781875 34.2666)scale(0.144 -0.144)">
     <use xlink:href="#BitstreamVeraSans-Roman-54"/>
     <use x="60.865234375" xlink:href="#BitstreamVeraSans-Roman-72"/>
     <use x="101.978515625" xlink:href="#BitstreamVeraSans-Roman-61"/>
     <use x="163.2578125" xlink:href="#BitstreamVeraSans-Roman-69"/>
     <use x="191.041015625" xlink:href="#BitstreamVeraSans-Roman-6e"/>
     <use x="254.419921875" xlink:href="#BitstreamVeraSans-Roman-3a"/>
     <use x="288.111328125" xlink:href="#BitstreamVeraSans-Roman-20"/>
     <use x="319.8984375" xlink:href="#BitstreamVeraSans-Roman-32"/>
     <use x="383.521484375" xlink:href="#BitstreamVeraSans-Roman-34"/>
     <use x="447.14453125" xlink:href="#BitstreamVeraSans-Roman-20"/>
     <use x="478.931640625" xlink:href="#BitstreamVeraSans-Roman-20"/>
     <use x="510.71875" xlink:href="#BitstreamVeraSans-Roman-20"/>
     <use x="542.505859375" xlink:href="#BitstreamVeraSans-Roman-54"/>
     <use x="603.32421875" xlink:href="#BitstreamVeraSans-Roman-65"/>
     <use x="664.84765625" xlink:href="#BitstreamVeraSans-Roman-73"/>
     <use x="716.947265625" xlink:href="#BitstreamVeraSans-Roman-74"/>
     <use x="756.15625" xlink:href="#BitstreamVeraSans-Roman-3a"/>
     <use x="789.84765625" xlink:href="#BitstreamVeraSans-Roman-20"/>
     <use x="821.634765625" xlink:href="#BitstreamVeraSans-Roman-32"/>
     <use x="885.2578125" xlink:href="#BitstreamVeraSans-Roman-34"/>
    </g>
   </g>
   <g id="legend_1">
    <g id="patch_7">
     <path d="M 180.46425 377.6666 
L 486.0975 377.6666 
L 486.0975 309.9371 
L 180.46425 309.9371 
z
" style="fill:#ffffff;stroke:#000000;stroke-linejoin:miter;"/>
    </g>
    <g id="line2d_29">
     <path d="M 190.54425 321.59885 
L 210.70425 321.59885 
" style="fill:none;stroke:#0000ff;stroke-linecap:square;"/>
    </g>
    <g id="line2d_30"/>
    <g id="text_16">
     <!-- cometROC curve - 0 (AUC = 0.759) -->
     <defs>
      <path d="M 10.984375 1.515625 
L 10.984375 10.5 
Q 14.703125 8.734375 18.5 7.8125 
Q 22.3125 6.890625 25.984375 6.890625 
Q 35.75 6.890625 40.890625 13.453125 
Q 46.046875 20.015625 46.78125 33.40625 
Q 43.953125 29.203125 39.59375 26.953125 
Q 35.25 24.703125 29.984375 24.703125 
Q 19.046875 24.703125 12.671875 31.3125 
Q 6.296875 37.9375 6.296875 49.421875 
Q 6.296875 60.640625 12.9375 67.421875 
Q 19.578125 74.21875 30.609375 74.21875 
Q 43.265625 74.21875 49.921875 64.515625 
Q 56.59375 54.828125 56.59375 36.375 
Q 56.59375 19.140625 48.40625 8.859375 
Q 40.234375 -1.421875 26.421875 -1.421875 
Q 22.703125 -1.421875 18.890625 -0.6875 
Q 15.09375 0.046875 10.984375 1.515625 
M 30.609375 32.421875 
Q 37.25 32.421875 41.125 36.953125 
Q 45.015625 41.5 45.015625 49.421875 
Q 45.015625 57.28125 41.125 61.84375 
Q 37.25 66.40625 30.609375 66.40625 
Q 23.96875 66.40625 20.09375 61.84375 
Q 16.21875 57.28125 16.21875 49.421875 
Q 16.21875 41.5 20.09375 36.953125 
Q 23.96875 32.421875 30.609375 32.421875 
" id="BitstreamVeraSans-Roman-39"/>
      <path d="M 34.1875 63.1875 
L 20.796875 26.90625 
L 47.609375 26.90625 
z
M 28.609375 72.90625 
L 39.796875 72.90625 
L 67.578125 0 
L 57.328125 0 
L 50.6875 18.703125 
L 17.828125 18.703125 
L 11.1875 0 
L 0.78125 0 
z
" id="BitstreamVeraSans-Roman-41"/>
      <path d="M 8.015625 75.875 
L 15.828125 75.875 
Q 23.140625 64.359375 26.78125 53.3125 
Q 30.421875 42.28125 30.421875 31.390625 
Q 30.421875 20.453125 26.78125 9.375 
Q 23.140625 -1.703125 15.828125 -13.1875 
L 8.015625 -13.1875 
Q 14.5 -2 17.703125 9.0625 
Q 20.90625 20.125 20.90625 31.390625 
Q 20.90625 42.671875 17.703125 53.65625 
Q 14.5 64.65625 8.015625 75.875 
" id="BitstreamVeraSans-Roman-29"/>
      <path d="M 31 75.875 
Q 24.46875 64.65625 21.28125 53.65625 
Q 18.109375 42.671875 18.109375 31.390625 
Q 18.109375 20.125 21.3125 9.0625 
Q 24.515625 -2 31 -13.1875 
L 23.1875 -13.1875 
Q 15.875 -1.703125 12.234375 9.375 
Q 8.59375 20.453125 8.59375 31.390625 
Q 8.59375 42.28125 12.203125 53.3125 
Q 15.828125 64.359375 23.1875 75.875 
z
" id="BitstreamVeraSans-Roman-28"/>
      <path d="M 8.6875 72.90625 
L 18.609375 72.90625 
L 18.609375 28.609375 
Q 18.609375 16.890625 22.84375 11.734375 
Q 27.09375 6.59375 36.625 6.59375 
Q 46.09375 6.59375 50.34375 11.734375 
Q 54.59375 16.890625 54.59375 28.609375 
L 54.59375 72.90625 
L 64.5 72.90625 
L 64.5 27.390625 
Q 64.5 13.140625 57.4375 5.859375 
Q 50.390625 -1.421875 36.625 -1.421875 
Q 22.796875 -1.421875 15.734375 5.859375 
Q 8.6875 13.140625 8.6875 27.390625 
z
" id="BitstreamVeraSans-Roman-55"/>
      <path d="M 48.78125 52.59375 
L 48.78125 44.1875 
Q 44.96875 46.296875 41.140625 47.34375 
Q 37.3125 48.390625 33.40625 48.390625 
Q 24.65625 48.390625 19.8125 42.84375 
Q 14.984375 37.3125 14.984375 27.296875 
Q 14.984375 17.28125 19.8125 11.734375 
Q 24.65625 6.203125 33.40625 6.203125 
Q 37.3125 6.203125 41.140625 7.25 
Q 44.96875 8.296875 48.78125 10.40625 
L 48.78125 2.09375 
Q 45.015625 0.34375 40.984375 -0.53125 
Q 36.96875 -1.421875 32.421875 -1.421875 
Q 20.0625 -1.421875 12.78125 6.34375 
Q 5.515625 14.109375 5.515625 27.296875 
Q 5.515625 40.671875 12.859375 48.328125 
Q 20.21875 56 33.015625 56 
Q 37.15625 56 41.109375 55.140625 
Q 45.0625 54.296875 48.78125 52.59375 
" id="BitstreamVeraSans-Roman-63"/>
      <path d="M 10.796875 72.90625 
L 49.515625 72.90625 
L 49.515625 64.59375 
L 19.828125 64.59375 
L 19.828125 46.734375 
Q 21.96875 47.46875 24.109375 47.828125 
Q 26.265625 48.1875 28.421875 48.1875 
Q 40.625 48.1875 47.75 41.5 
Q 54.890625 34.8125 54.890625 23.390625 
Q 54.890625 11.625 47.5625 5.09375 
Q 40.234375 -1.421875 26.90625 -1.421875 
Q 22.3125 -1.421875 17.546875 -0.640625 
Q 12.796875 0.140625 7.71875 1.703125 
L 7.71875 11.625 
Q 12.109375 9.234375 16.796875 8.0625 
Q 21.484375 6.890625 26.703125 6.890625 
Q 35.15625 6.890625 40.078125 11.328125 
Q 45.015625 15.765625 45.015625 23.390625 
Q 45.015625 31 40.078125 35.4375 
Q 35.15625 39.890625 26.703125 39.890625 
Q 22.75 39.890625 18.8125 39.015625 
Q 14.890625 38.140625 10.796875 36.28125 
z
" id="BitstreamVeraSans-Roman-35"/>
      <path d="M 8.203125 72.90625 
L 55.078125 72.90625 
L 55.078125 68.703125 
L 28.609375 0 
L 18.3125 0 
L 43.21875 64.59375 
L 8.203125 64.59375 
z
" id="BitstreamVeraSans-Roman-37"/>
      <path d="M 10.59375 45.40625 
L 73.1875 45.40625 
L 73.1875 37.203125 
L 10.59375 37.203125 
z
M 10.59375 25.484375 
L 73.1875 25.484375 
L 73.1875 17.1875 
L 10.59375 17.1875 
z
" id="BitstreamVeraSans-Roman-3d"/>
      <path d="M 4.890625 31.390625 
L 31.203125 31.390625 
L 31.203125 23.390625 
L 4.890625 23.390625 
z
" id="BitstreamVeraSans-Roman-2d"/>
     </defs>
     <g transform="translate(226.54425 326.63885)scale(0.144 -0.144)">
      <use xlink:href="#BitstreamVeraSans-Roman-63"/>
      <use x="54.98046875" xlink:href="#BitstreamVeraSans-Roman-6f"/>
      <use x="116.162109375" xlink:href="#BitstreamVeraSans-Roman-6d"/>
      <use x="213.57421875" xlink:href="#BitstreamVeraSans-Roman-65"/>
      <use x="275.09765625" xlink:href="#BitstreamVeraSans-Roman-74"/>
      <use x="314.306640625" xlink:href="#BitstreamVeraSans-Roman-52"/>
      <use x="383.7890625" xlink:href="#BitstreamVeraSans-Roman-4f"/>
      <use x="462.5" xlink:href="#BitstreamVeraSans-Roman-43"/>
      <use x="532.32421875" xlink:href="#BitstreamVeraSans-Roman-20"/>
      <use x="564.111328125" xlink:href="#BitstreamVeraSans-Roman-63"/>
      <use x="619.091796875" xlink:href="#BitstreamVeraSans-Roman-75"/>
      <use x="682.470703125" xlink:href="#BitstreamVeraSans-Roman-72"/>
      <use x="723.583984375" xlink:href="#BitstreamVeraSans-Roman-76"/>
      <use x="782.763671875" xlink:href="#BitstreamVeraSans-Roman-65"/>
      <use x="844.287109375" xlink:href="#BitstreamVeraSans-Roman-20"/>
      <use x="876.07421875" xlink:href="#BitstreamVeraSans-Roman-2d"/>
      <use x="912.158203125" xlink:href="#BitstreamVeraSans-Roman-20"/>
      <use x="943.9453125" xlink:href="#BitstreamVeraSans-Roman-30"/>
      <use x="1007.568359375" xlink:href="#BitstreamVeraSans-Roman-20"/>
      <use x="1039.35546875" xlink:href="#BitstreamVeraSans-Roman-28"/>
      <use x="1078.369140625" xlink:href="#BitstreamVeraSans-Roman-41"/>
      <use x="1146.77734375" xlink:href="#BitstreamVeraSans-Roman-55"/>
      <use x="1219.970703125" xlink:href="#BitstreamVeraSans-Roman-43"/>
      <use x="1289.794921875" xlink:href="#BitstreamVeraSans-Roman-20"/>
      <use x="1321.58203125" xlink:href="#BitstreamVeraSans-Roman-3d"/>
      <use x="1405.37109375" xlink:href="#BitstreamVeraSans-Roman-20"/>
      <use x="1437.158203125" xlink:href="#BitstreamVeraSans-Roman-30"/>
      <use x="1500.78125" xlink:href="#BitstreamVeraSans-Roman-2e"/>
      <use x="1532.568359375" xlink:href="#BitstreamVeraSans-Roman-37"/>
      <use x="1596.19140625" xlink:href="#BitstreamVeraSans-Roman-35"/>
      <use x="1659.814453125" xlink:href="#BitstreamVeraSans-Roman-39"/>
      <use x="1723.4375" xlink:href="#BitstreamVeraSans-Roman-29"/>
     </g>
    </g>
    <g id="line2d_31">
     <path d="M 190.54425 342.73535 
L 210.70425 342.73535 
" style="fill:none;stroke:#008000;stroke-linecap:square;"/>
    </g>
    <g id="line2d_32"/>
    <g id="text_17">
     <!-- cometROC curve - 1 (AUC = 0.746) -->
     <g transform="translate(226.54425 347.77535)scale(0.144 -0.144)">
      <use xlink:href="#BitstreamVeraSans-Roman-63"/>
      <use x="54.98046875" xlink:href="#BitstreamVeraSans-Roman-6f"/>
      <use x="116.162109375" xlink:href="#BitstreamVeraSans-Roman-6d"/>
      <use x="213.57421875" xlink:href="#BitstreamVeraSans-Roman-65"/>
      <use x="275.09765625" xlink:href="#BitstreamVeraSans-Roman-74"/>
      <use x="314.306640625" xlink:href="#BitstreamVeraSans-Roman-52"/>
      <use x="383.7890625" xlink:href="#BitstreamVeraSans-Roman-4f"/>
      <use x="462.5" xlink:href="#BitstreamVeraSans-Roman-43"/>
      <use x="532.32421875" xlink:href="#BitstreamVeraSans-Roman-20"/>
      <use x="564.111328125" xlink:href="#BitstreamVeraSans-Roman-63"/>
      <use x="619.091796875" xlink:href="#BitstreamVeraSans-Roman-75"/>
      <use x="682.470703125" xlink:href="#BitstreamVeraSans-Roman-72"/>
      <use x="723.583984375" xlink:href="#BitstreamVeraSans-Roman-76"/>
      <use x="782.763671875" xlink:href="#BitstreamVeraSans-Roman-65"/>
      <use x="844.287109375" xlink:href="#BitstreamVeraSans-Roman-20"/>
      <use x="876.07421875" xlink:href="#BitstreamVeraSans-Roman-2d"/>
      <use x="912.158203125" xlink:href="#BitstreamVeraSans-Roman-20"/>
      <use x="943.9453125" xlink:href="#BitstreamVeraSans-Roman-31"/>
      <use x="1007.568359375" xlink:href="#BitstreamVeraSans-Roman-20"/>
      <use x="1039.35546875" xlink:href="#BitstreamVeraSans-Roman-28"/>
      <use x="1078.369140625" xlink:href="#BitstreamVeraSans-Roman-41"/>
      <use x="1146.77734375" xlink:href="#BitstreamVeraSans-Roman-55"/>
      <use x="1219.970703125" xlink:href="#BitstreamVeraSans-Roman-43"/>
      <use x="1289.794921875" xlink:href="#BitstreamVeraSans-Roman-20"/>
      <use x="1321.58203125" xlink:href="#BitstreamVeraSans-Roman-3d"/>
      <use x="1405.37109375" xlink:href="#BitstreamVeraSans-Roman-20"/>
      <use x="1437.158203125" xlink:href="#BitstreamVeraSans-Roman-30"/>
      <use x="1500.78125" xlink:href="#BitstreamVeraSans-Roman-2e"/>
      <use x="1532.568359375" xlink:href="#BitstreamVeraSans-Roman-37"/>
      <use x="1596.19140625" xlink:href="#BitstreamVeraSans-Roman-34"/>
      <use x="1659.814453125" xlink:href="#BitstreamVeraSans-Roman-36"/>
      <use x="1723.4375" xlink:href="#BitstreamVeraSans-Roman-29"/>
     </g>
    </g>
    <g id="line2d_33">
     <path d="M 190.54425 363.87185 
L 210.70425 363.87185 
" style="fill:none;stroke:#ff0000;stroke-linecap:square;"/>
    </g>
    <g id="line2d_34"/>
    <g id="text_18">
     <!-- cometROC curve - 2 (AUC = 0.800) -->
     <g transform="translate(226.54425 368.91185)scale(0.144 -0.144)">
      <use xlink:href="#BitstreamVeraSans-Roman-63"/>
      <use x="54.98046875" xlink:href="#BitstreamVeraSans-Roman-6f"/>
      <use x="116.162109375" xlink:href="#BitstreamVeraSans-Roman-6d"/>
      <use x="213.57421875" xlink:href="#BitstreamVeraSans-Roman-65"/>
      <use x="275.09765625" xlink:href="#BitstreamVeraSans-Roman-74"/>
      <use x="314.306640625" xlink:href="#BitstreamVeraSans-Roman-52"/>
      <use x="383.7890625" xlink:href="#BitstreamVeraSans-Roman-4f"/>
      <use x="462.5" xlink:href="#BitstreamVeraSans-Roman-43"/>
      <use x="532.32421875" xlink:href="#BitstreamVeraSans-Roman-20"/>
      <use x="564.111328125" xlink:href="#BitstreamVeraSans-Roman-63"/>
      <use x="619.091796875" xlink:href="#BitstreamVeraSans-Roman-75"/>
      <use x="682.470703125" xlink:href="#BitstreamVeraSans-Roman-72"/>
      <use x="723.583984375" xlink:href="#BitstreamVeraSans-Roman-76"/>
      <use x="782.763671875" xlink:href="#BitstreamVeraSans-Roman-65"/>
      <use x="844.287109375" xlink:href="#BitstreamVeraSans-Roman-20"/>
      <use x="876.07421875" xlink:href="#BitstreamVeraSans-Roman-2d"/>
      <use x="912.158203125" xlink:href="#BitstreamVeraSans-Roman-20"/>
      <use x="943.9453125" xlink:href="#BitstreamVeraSans-Roman-32"/>
      <use x="1007.568359375" xlink:href="#BitstreamVeraSans-Roman-20"/>
      <use x="1039.35546875" xlink:href="#BitstreamVeraSans-Roman-28"/>
      <use x="1078.369140625" xlink:href="#BitstreamVeraSans-Roman-41"/>
      <use x="1146.77734375" xlink:href="#BitstreamVeraSans-Roman-55"/>
      <use x="1219.970703125" xlink:href="#BitstreamVeraSans-Roman-43"/>
      <use x="1289.794921875" xlink:href="#BitstreamVeraSans-Roman-20"/>
      <use x="1321.58203125" xlink:href="#BitstreamVeraSans-Roman-3d"/>
      <use x="1405.37109375" xlink:href="#BitstreamVeraSans-Roman-20"/>
      <use x="1437.158203125" xlink:href="#BitstreamVeraSans-Roman-30"/>
      <use x="1500.78125" xlink:href="#BitstreamVeraSans-Roman-2e"/>
      <use x="1532.568359375" xlink:href="#BitstreamVeraSans-Roman-38"/>
      <use x="1596.19140625" xlink:href="#BitstreamVeraSans-Roman-30"/>
      <use x="1659.814453125" xlink:href="#BitstreamVeraSans-Roman-30"/>
      <use x="1723.4375" xlink:href="#BitstreamVeraSans-Roman-29"/>
     </g>
    </g>
   </g>
  </g>
 </g>
 <defs>
  <clipPath id="pe03ed23688">
   <rect height="345.6" width="446.4" x="46.8975" y="39.2666"/>
  </clipPath>
 </defs>
</svg>
