<?xml version="1.0" encoding="utf-8" standalone="no"?>
<!DOCTYPE svg PUBLIC "-//W3C//DTD SVG 1.1//EN"
  "http://www.w3.org/Graphics/SVG/1.1/DTD/svg11.dtd">
<!-- Created with matplotlib (http://matplotlib.org/) -->
<svg height="424pt" version="1.1" viewBox="0 0 510 424" width="510pt" xmlns="http://www.w3.org/2000/svg" xmlns:xlink="http://www.w3.org/1999/xlink">
 <defs>
  <style type="text/css">
*{stroke-linecap:butt;stroke-linejoin:round;stroke-miterlimit:100000;}
  </style>
 </defs>
 <g id="figure_1">
  <g id="patch_1">
   <path d="M 0 424.2941 
L 510.039375 424.2941 
L 510.039375 0 
L 0 0 
z
" style="fill:#ffffff;"/>
  </g>
  <g id="axes_1">
   <g id="patch_2">
    <path d="M 46.8975 384.8666 
L 493.2975 384.8666 
L 493.2975 39.2666 
L 46.8975 39.2666 
z
" style="fill:#ffffff;"/>
   </g>
   <g id="line2d_1">
    <path clip-path="url(#paee8f93d9b)" d="M 46.8975 384.8666 
L 46.929528 382.909358 
L 48.426843 344.416933 
L 48.57097 343.112105 
L 49.715975 321.256236 
L 49.924158 319.298994 
L 50.132341 316.689338 
L 50.204404 316.363131 
L 50.796924 309.838991 
L 50.9971 307.555542 
L 53.102949 287.004502 
L 53.18302 287.004502 
L 53.735505 282.111397 
L 54.183898 278.849327 
L 54.247955 277.870706 
L 55.457016 267.758289 
L 55.681213 266.453461 
L 55.833347 265.47484 
L 55.913417 265.47484 
L 56.225691 263.843805 
L 56.650064 260.255528 
L 56.730134 260.255528 
L 57.79507 250.469318 
L 57.939196 249.490697 
L 58.155386 247.859662 
L 58.235456 247.859662 
L 59.11623 240.356902 
L 59.1963 240.356902 
L 59.548609 236.442418 
L 60.253228 228.287243 
L 60.669594 224.372759 
L 60.749664 224.372759 
L 61.62243 216.543791 
L 61.990754 213.607928 
L 62.070824 213.607928 
L 62.895548 204.474132 
L 63.536111 196.971371 
L 63.656216 196.971371 
L 63.800343 194.035508 
L 64.641081 194.035508 
L 64.75318 193.056887 
L 65.954234 193.056887 
L 66.050319 192.078266 
L 66.170424 192.078266 
L 66.266509 191.099645 
L 66.987141 191.099645 
L 67.083226 190.121024 
L 67.563648 190.121024 
L 67.675746 189.142403 
L 67.795852 189.142403 
L 67.899943 187.185162 
L 68.260259 187.185162 
L 68.364351 185.22792 
L 68.604562 185.22792 
L 68.796731 183.270678 
L 68.916836 183.270678 
L 69.245124 181.313436 
L 69.605441 181.313436 
L 69.717539 180.334815 
L 70.438172 180.334815 
L 70.654362 177.398952 
L 71.254889 177.398952 
L 71.447058 175.44171 
L 72.167691 175.44171 
L 72.311817 171.527226 
L 73.392766 171.527226 
L 73.504865 170.548605 
L 73.62497 170.548605 
L 73.745076 169.896191 
L 74.105392 169.896191 
L 74.177456 167.938949 
L 74.297561 167.938949 
L 74.369624 166.960328 
L 78.092894 166.960328 
L 78.196985 165.003086 
L 82.760993 165.003086 
L 82.873091 164.024465 
L 83.954041 164.024465 
L 84.290336 163.045844 
L 85.010969 163.045844 
L 85.131074 162.39343 
L 88.453992 162.39343 
L 88.910393 161.414809 
L 89.51092 161.414809 
L 89.582984 159.457567 
L 90.303616 159.457567 
L 90.37568 157.500325 
L 90.735996 157.500325 
L 90.928165 155.543083 
L 91.408587 155.543083 
L 91.456629 152.60722 
L 93.618527 152.60722 
L 94.074928 151.628599 
L 95.596264 151.628599 
L 95.708363 150.649978 
L 98.710999 150.649978 
L 98.807084 149.671357 
L 99.527716 149.671357 
L 99.59978 147.714115 
L 103.283014 147.714115 
L 103.747422 144.452045 
L 107.390621 144.452045 
L 107.702895 142.494803 
L 122.716079 142.494803 
L 493.2975 55.723743 
L 493.2975 55.723743 
" style="fill:none;stroke:#0000ff;stroke-linecap:square;"/>
   </g>
   <g id="line2d_2">
    <path clip-path="url(#paee8f93d9b)" d="M 46.8975 384.8666 
L 56.418031 331.31558 
L 56.778354 329.356396 
L 57.138677 329.356396 
L 57.378892 328.050273 
L 57.499 328.050273 
L 57.563057 324.131906 
L 57.803272 322.825784 
L 58.211638 314.335988 
L 58.331746 313.356396 
L 58.828191 300.948233 
L 58.948298 300.948233 
L 59.044384 298.335988 
L 59.404707 296.050273 
L 59.70898 290.825784 
L 59.949195 289.519661 
L 60.317525 282.335988 
L 60.677848 280.050273 
L 61.166286 269.601294 
L 61.430522 266.989049 
L 61.894939 260.458437 
L 62.103125 257.846192 
L 62.295297 253.601294 
L 62.91185 246.41762 
L 63.456338 237.927824 
L 63.720574 235.968641 
L 63.992818 232.376804 
L 64.112926 231.723743 
L 66.050662 212.784967 
L 68.412779 192.8666 
L 70.078271 176.8666 
L 72.400352 176.8666 
L 72.560496 175.560478 
L 72.680603 175.560478 
L 72.752668 174.580886 
L 72.952847 173.927824 
L 73.096976 172.621702 
L 73.217084 172.621702 
L 73.881679 167.397212 
L 74.001787 167.397212 
L 74.065844 166.744151 
L 74.185952 166.744151 
L 74.330081 166.09109 
L 74.490225 164.784967 
L 74.610332 164.784967 
L 74.850548 162.825784 
L 76.291839 162.172722 
L 77.492915 162.172722 
L 77.73313 160.213539 
L 78.213561 160.213539 
L 81.936897 159.560478 
L 86.621095 159.560478 
L 86.941382 158.254355 
L 95.228808 158.254355 
L 95.348915 157.601294 
L 95.469023 157.601294 
L 98.832036 155.968641 
L 99.432574 155.968641 
L 99.552682 155.31558 
L 99.913005 155.31558 
L 100.033113 154.662518 
L 104.477095 153.682927 
L 104.71731 150.744151 
L 105.413934 150.744151 
L 105.485999 148.784967 
L 105.870343 148.784967 
L 105.990451 148.131906 
L 106.350774 148.131906 
L 106.470881 146.172722 
L 107.311635 146.172722 
L 107.431742 145.193131 
L 107.671957 145.193131 
L 114.878415 144.540069 
L 114.974501 143.560478 
L 115.094609 143.560478 
L 115.246745 140.621702 
L 116.808144 140.621702 
L 116.90423 139.64211 
L 117.144445 139.64211 
L 117.240531 138.662518 
L 118.922038 138.662518 
L 119.122217 135.723743 
L 120.443401 135.723743 
L 120.563509 135.070682 
L 121.764585 135.070682 
L 121.884693 134.41762 
L 122.245016 134.41762 
L 144.512969 122.662518 
L 146.63487 122.662518 
L 146.83505 120.703335 
L 147.31548 120.703335 
L 147.651782 120.050273 
L 148.012104 120.050273 
L 148.428478 119.070682 
L 151.351096 119.070682 
L 151.431168 118.09109 
L 153.633141 118.09109 
L 153.753249 117.438029 
L 154.073536 117.438029 
L 154.193643 116.458437 
L 154.818203 113.846192 
L 155.178526 113.846192 
L 155.298634 112.8666 
L 158.501504 112.8666 
L 493.2975 55.723743 
L 493.2975 55.723743 
" style="fill:none;stroke:#008000;stroke-linecap:square;"/>
   </g>
   <g id="line2d_3">
    <path clip-path="url(#paee8f93d9b)" d="M 46.8975 384.8666 
L 53.271211 358.09109 
L 53.751642 358.09109 
L 53.871749 357.111498 
L 54.111965 357.111498 
L 54.192036 353.846192 
L 54.312144 353.846192 
L 54.488302 347.968641 
L 54.744531 338.825784 
L 54.864639 338.825784 
L 55.849522 314.662518 
L 56.13778 308.784967 
L 56.233866 306.172722 
L 56.554153 300.948233 
L 56.674261 300.948233 
L 57.322842 292.131906 
L 57.450957 290.825784 
L 58.139574 281.029865 
L 58.620004 276.458437 
L 58.860219 273.846192 
L 60.982121 253.274763 
L 64.12894 226.825784 
L 64.737486 221.601294 
L 67.604054 197.438029 
L 68.284664 197.438029 
L 68.845166 192.8666 
L 68.965274 192.8666 
L 69.846063 185.682927 
L 69.966171 185.682927 
L 70.206386 183.723743 
L 71.607642 183.723743 
L 71.727749 182.744151 
L 71.967965 182.744151 
L 72.20818 180.784967 
L 72.328287 180.784967 
L 72.448395 179.805376 
L 72.68861 179.805376 
L 72.808718 179.152314 
L 74.009794 179.152314 
L 74.129902 177.193131 
L 74.250009 177.193131 
L 74.370117 175.233947 
L 74.610332 175.233947 
L 74.73044 174.254355 
L 74.970655 174.254355 
L 75.21087 170.989049 
L 75.403043 168.050273 
L 75.883473 168.050273 
L 76.123688 166.41762 
L 77.284729 165.764559 
L 78.125482 165.764559 
L 78.24559 164.458437 
L 78.485805 164.458437 
L 78.605913 162.499253 
L 78.966235 162.499253 
L 79.086343 160.540069 
L 79.806989 160.540069 
L 79.903075 159.560478 
L 80.383505 159.560478 
L 81.904869 157.601294 
L 82.385299 157.601294 
L 82.457364 156.295171 
L 82.817687 156.295171 
L 82.937794 154.335988 
L 84.258978 154.335988 
L 84.499193 151.397212 
L 84.739409 151.397212 
L 84.859516 150.41762 
L 84.979624 150.41762 
L 85.07571 149.438029 
L 85.315925 149.438029 
L 85.436033 147.478845 
L 85.55614 147.478845 
L 85.676248 146.499253 
L 86.156678 146.499253 
L 89.135348 137.682927 
L 89.815957 137.682927 
L 89.912043 136.703335 
L 90.032151 136.703335 
L 90.128237 134.744151 
L 90.728775 134.744151 
L 90.848883 133.764559 
L 91.209206 133.764559 
L 91.305292 132.784967 
L 91.665615 132.784967 
L 92.122024 129.519661 
L 92.242131 129.519661 
L 92.362239 128.540069 
L 92.84267 128.540069 
L 92.962777 127.560478 
L 93.202992 127.560478 
L 93.3231 126.580886 
L 93.563315 126.580886 
L 94.980585 123.64211 
L 95.076671 122.662518 
L 96.758178 122.662518 
L 96.926329 119.723743 
L 97.166544 119.723743 
L 97.286652 118.744151 
L 98.007297 118.744151 
L 98.127405 117.764559 
L 98.247513 117.764559 
L 98.319577 115.805376 
L 99.880976 115.805376 
L 100.121191 113.846192 
L 100.241299 113.846192 
L 100.361407 111.887008 
L 101.122088 111.887008 
L 101.234189 110.907416 
L 102.795588 110.907416 
L 102.891674 109.927824 
L 103.732427 109.927824 
L 103.852535 108.948233 
L 104.212858 108.948233 
L 108.752926 103.070682 
L 109.593679 103.070682 
L 109.665744 101.111498 
L 109.905959 101.111498 
L 110.146174 99.805376 
L 111.187107 99.805376 
L 111.283193 99.152314 
L 111.403301 99.152314 
L 111.739602 98.499253 
L 111.85971 97.519661 
L 112.099925 96.540069 
L 112.580356 96.540069 
L 112.820571 95.233947 
L 113.180894 95.233947 
L 113.373066 92.621702 
L 113.733389 92.621702 
L 113.973604 92.295171 
L 116.455828 92.295171 
L 116.575936 90.335988 
L 116.696043 90.335988 
L 116.816151 89.356396 
L 118.137335 89.356396 
L 118.257443 88.376804 
L 134.81628 87.070682 
L 136.617895 87.070682 
L 137.050282 83.152314 
L 141.614372 83.152314 
L 141.830565 82.172722 
L 142.511175 82.172722 
L 142.847477 81.193131 
L 144.128625 81.193131 
L 144.224711 80.213539 
L 144.945357 80.213539 
L 145.065464 79.233947 
L 146.867078 79.233947 
L 146.987186 78.254355 
L 149.46941 78.254355 
L 493.2975 55.723743 
L 493.2975 55.723743 
" style="fill:none;stroke:#ff0000;stroke-linecap:square;"/>
   </g>
   <g id="line2d_4">
    <path clip-path="url(#paee8f93d9b)" d="M 46.8975 384.8666 
L 493.2975 55.723743 
" style="fill:none;stroke:#000000;stroke-dasharray:6.000000,6.000000;stroke-dashoffset:0.0;"/>
   </g>
   <g id="patch_3">
    <path d="M 46.8975 384.8666 
L 46.8975 39.2666 
" style="fill:none;stroke:#000000;stroke-linecap:square;stroke-linejoin:miter;"/>
   </g>
   <g id="patch_4">
    <path d="M 493.2975 384.8666 
L 493.2975 39.2666 
" style="fill:none;stroke:#000000;stroke-linecap:square;stroke-linejoin:miter;"/>
   </g>
   <g id="patch_5">
    <path d="M 46.8975 39.2666 
L 493.2975 39.2666 
" style="fill:none;stroke:#000000;stroke-linecap:square;stroke-linejoin:miter;"/>
   </g>
   <g id="patch_6">
    <path d="M 46.8975 384.8666 
L 493.2975 384.8666 
" style="fill:none;stroke:#000000;stroke-linecap:square;stroke-linejoin:miter;"/>
   </g>
   <g id="matplotlib.axis_1">
    <g id="xtick_1">
     <g id="line2d_5">
      <defs>
       <path d="M 0 0 
L 0 -4 
" id="m1cd5f8d380" style="stroke:#000000;stroke-width:0.5;"/>
      </defs>
      <g>
       <use style="stroke:#000000;stroke-width:0.5;" x="46.8975" xlink:href="#m1cd5f8d380" y="384.8666"/>
      </g>
     </g>
     <g id="line2d_6">
      <defs>
       <path d="M 0 0 
L 0 4 
" id="mc53e61c238" style="stroke:#000000;stroke-width:0.5;"/>
      </defs>
      <g>
       <use style="stroke:#000000;stroke-width:0.5;" x="46.8975" xlink:href="#mc53e61c238" y="39.2666"/>
      </g>
     </g>
     <g id="text_1">
      <!-- 0.0 -->
      <defs>
       <path d="M 31.78125 66.40625 
Q 24.171875 66.40625 20.328125 58.90625 
Q 16.5 51.421875 16.5 36.375 
Q 16.5 21.390625 20.328125 13.890625 
Q 24.171875 6.390625 31.78125 6.390625 
Q 39.453125 6.390625 43.28125 13.890625 
Q 47.125 21.390625 47.125 36.375 
Q 47.125 51.421875 43.28125 58.90625 
Q 39.453125 66.40625 31.78125 66.40625 
M 31.78125 74.21875 
Q 44.046875 74.21875 50.515625 64.515625 
Q 56.984375 54.828125 56.984375 36.375 
Q 56.984375 17.96875 50.515625 8.265625 
Q 44.046875 -1.421875 31.78125 -1.421875 
Q 19.53125 -1.421875 13.0625 8.265625 
Q 6.59375 17.96875 6.59375 36.375 
Q 6.59375 54.828125 13.0625 64.515625 
Q 19.53125 74.21875 31.78125 74.21875 
" id="BitstreamVeraSans-Roman-30"/>
       <path d="M 10.6875 12.40625 
L 21 12.40625 
L 21 0 
L 10.6875 0 
z
" id="BitstreamVeraSans-Roman-2e"/>
      </defs>
      <g transform="translate(37.355625 397.984725)scale(0.12 -0.12)">
       <use xlink:href="#BitstreamVeraSans-Roman-30"/>
       <use x="63.623046875" xlink:href="#BitstreamVeraSans-Roman-2e"/>
       <use x="95.41015625" xlink:href="#BitstreamVeraSans-Roman-30"/>
      </g>
     </g>
    </g>
    <g id="xtick_2">
     <g id="line2d_7">
      <g>
       <use style="stroke:#000000;stroke-width:0.5;" x="136.1775" xlink:href="#m1cd5f8d380" y="384.8666"/>
      </g>
     </g>
     <g id="line2d_8">
      <g>
       <use style="stroke:#000000;stroke-width:0.5;" x="136.1775" xlink:href="#mc53e61c238" y="39.2666"/>
      </g>
     </g>
     <g id="text_2">
      <!-- 0.2 -->
      <defs>
       <path d="M 19.1875 8.296875 
L 53.609375 8.296875 
L 53.609375 0 
L 7.328125 0 
L 7.328125 8.296875 
Q 12.9375 14.109375 22.625 23.890625 
Q 32.328125 33.6875 34.8125 36.53125 
Q 39.546875 41.84375 41.421875 45.53125 
Q 43.3125 49.21875 43.3125 52.78125 
Q 43.3125 58.59375 39.234375 62.25 
Q 35.15625 65.921875 28.609375 65.921875 
Q 23.96875 65.921875 18.8125 64.3125 
Q 13.671875 62.703125 7.8125 59.421875 
L 7.8125 69.390625 
Q 13.765625 71.78125 18.9375 73 
Q 24.125 74.21875 28.421875 74.21875 
Q 39.75 74.21875 46.484375 68.546875 
Q 53.21875 62.890625 53.21875 53.421875 
Q 53.21875 48.921875 51.53125 44.890625 
Q 49.859375 40.875 45.40625 35.40625 
Q 44.1875 33.984375 37.640625 27.21875 
Q 31.109375 20.453125 19.1875 8.296875 
" id="BitstreamVeraSans-Roman-32"/>
      </defs>
      <g transform="translate(126.635625 397.984725)scale(0.12 -0.12)">
       <use xlink:href="#BitstreamVeraSans-Roman-30"/>
       <use x="63.623046875" xlink:href="#BitstreamVeraSans-Roman-2e"/>
       <use x="95.41015625" xlink:href="#BitstreamVeraSans-Roman-32"/>
      </g>
     </g>
    </g>
    <g id="xtick_3">
     <g id="line2d_9">
      <g>
       <use style="stroke:#000000;stroke-width:0.5;" x="225.4575" xlink:href="#m1cd5f8d380" y="384.8666"/>
      </g>
     </g>
     <g id="line2d_10">
      <g>
       <use style="stroke:#000000;stroke-width:0.5;" x="225.4575" xlink:href="#mc53e61c238" y="39.2666"/>
      </g>
     </g>
     <g id="text_3">
      <!-- 0.4 -->
      <defs>
       <path d="M 37.796875 64.3125 
L 12.890625 25.390625 
L 37.796875 25.390625 
z
M 35.203125 72.90625 
L 47.609375 72.90625 
L 47.609375 25.390625 
L 58.015625 25.390625 
L 58.015625 17.1875 
L 47.609375 17.1875 
L 47.609375 0 
L 37.796875 0 
L 37.796875 17.1875 
L 4.890625 17.1875 
L 4.890625 26.703125 
z
" id="BitstreamVeraSans-Roman-34"/>
      </defs>
      <g transform="translate(215.915625 397.984725)scale(0.12 -0.12)">
       <use xlink:href="#BitstreamVeraSans-Roman-30"/>
       <use x="63.623046875" xlink:href="#BitstreamVeraSans-Roman-2e"/>
       <use x="95.41015625" xlink:href="#BitstreamVeraSans-Roman-34"/>
      </g>
     </g>
    </g>
    <g id="xtick_4">
     <g id="line2d_11">
      <g>
       <use style="stroke:#000000;stroke-width:0.5;" x="314.7375" xlink:href="#m1cd5f8d380" y="384.8666"/>
      </g>
     </g>
     <g id="line2d_12">
      <g>
       <use style="stroke:#000000;stroke-width:0.5;" x="314.7375" xlink:href="#mc53e61c238" y="39.2666"/>
      </g>
     </g>
     <g id="text_4">
      <!-- 0.6 -->
      <defs>
       <path d="M 33.015625 40.375 
Q 26.375 40.375 22.484375 35.828125 
Q 18.609375 31.296875 18.609375 23.390625 
Q 18.609375 15.53125 22.484375 10.953125 
Q 26.375 6.390625 33.015625 6.390625 
Q 39.65625 6.390625 43.53125 10.953125 
Q 47.40625 15.53125 47.40625 23.390625 
Q 47.40625 31.296875 43.53125 35.828125 
Q 39.65625 40.375 33.015625 40.375 
M 52.59375 71.296875 
L 52.59375 62.3125 
Q 48.875 64.0625 45.09375 64.984375 
Q 41.3125 65.921875 37.59375 65.921875 
Q 27.828125 65.921875 22.671875 59.328125 
Q 17.53125 52.734375 16.796875 39.40625 
Q 19.671875 43.65625 24.015625 45.921875 
Q 28.375 48.1875 33.59375 48.1875 
Q 44.578125 48.1875 50.953125 41.515625 
Q 57.328125 34.859375 57.328125 23.390625 
Q 57.328125 12.15625 50.6875 5.359375 
Q 44.046875 -1.421875 33.015625 -1.421875 
Q 20.359375 -1.421875 13.671875 8.265625 
Q 6.984375 17.96875 6.984375 36.375 
Q 6.984375 53.65625 15.1875 63.9375 
Q 23.390625 74.21875 37.203125 74.21875 
Q 40.921875 74.21875 44.703125 73.484375 
Q 48.484375 72.75 52.59375 71.296875 
" id="BitstreamVeraSans-Roman-36"/>
      </defs>
      <g transform="translate(305.195625 397.984725)scale(0.12 -0.12)">
       <use xlink:href="#BitstreamVeraSans-Roman-30"/>
       <use x="63.623046875" xlink:href="#BitstreamVeraSans-Roman-2e"/>
       <use x="95.41015625" xlink:href="#BitstreamVeraSans-Roman-36"/>
      </g>
     </g>
    </g>
    <g id="xtick_5">
     <g id="line2d_13">
      <g>
       <use style="stroke:#000000;stroke-width:0.5;" x="404.0175" xlink:href="#m1cd5f8d380" y="384.8666"/>
      </g>
     </g>
     <g id="line2d_14">
      <g>
       <use style="stroke:#000000;stroke-width:0.5;" x="404.0175" xlink:href="#mc53e61c238" y="39.2666"/>
      </g>
     </g>
     <g id="text_5">
      <!-- 0.8 -->
      <defs>
       <path d="M 31.78125 34.625 
Q 24.75 34.625 20.71875 30.859375 
Q 16.703125 27.09375 16.703125 20.515625 
Q 16.703125 13.921875 20.71875 10.15625 
Q 24.75 6.390625 31.78125 6.390625 
Q 38.8125 6.390625 42.859375 10.171875 
Q 46.921875 13.96875 46.921875 20.515625 
Q 46.921875 27.09375 42.890625 30.859375 
Q 38.875 34.625 31.78125 34.625 
M 21.921875 38.8125 
Q 15.578125 40.375 12.03125 44.71875 
Q 8.5 49.078125 8.5 55.328125 
Q 8.5 64.0625 14.71875 69.140625 
Q 20.953125 74.21875 31.78125 74.21875 
Q 42.671875 74.21875 48.875 69.140625 
Q 55.078125 64.0625 55.078125 55.328125 
Q 55.078125 49.078125 51.53125 44.71875 
Q 48 40.375 41.703125 38.8125 
Q 48.828125 37.15625 52.796875 32.3125 
Q 56.78125 27.484375 56.78125 20.515625 
Q 56.78125 9.90625 50.3125 4.234375 
Q 43.84375 -1.421875 31.78125 -1.421875 
Q 19.734375 -1.421875 13.25 4.234375 
Q 6.78125 9.90625 6.78125 20.515625 
Q 6.78125 27.484375 10.78125 32.3125 
Q 14.796875 37.15625 21.921875 38.8125 
M 18.3125 54.390625 
Q 18.3125 48.734375 21.84375 45.5625 
Q 25.390625 42.390625 31.78125 42.390625 
Q 38.140625 42.390625 41.71875 45.5625 
Q 45.3125 48.734375 45.3125 54.390625 
Q 45.3125 60.0625 41.71875 63.234375 
Q 38.140625 66.40625 31.78125 66.40625 
Q 25.390625 66.40625 21.84375 63.234375 
Q 18.3125 60.0625 18.3125 54.390625 
" id="BitstreamVeraSans-Roman-38"/>
      </defs>
      <g transform="translate(394.475625 397.984725)scale(0.12 -0.12)">
       <use xlink:href="#BitstreamVeraSans-Roman-30"/>
       <use x="63.623046875" xlink:href="#BitstreamVeraSans-Roman-2e"/>
       <use x="95.41015625" xlink:href="#BitstreamVeraSans-Roman-38"/>
      </g>
     </g>
    </g>
    <g id="xtick_6">
     <g id="line2d_15">
      <g>
       <use style="stroke:#000000;stroke-width:0.5;" x="493.2975" xlink:href="#m1cd5f8d380" y="384.8666"/>
      </g>
     </g>
     <g id="line2d_16">
      <g>
       <use style="stroke:#000000;stroke-width:0.5;" x="493.2975" xlink:href="#mc53e61c238" y="39.2666"/>
      </g>
     </g>
     <g id="text_6">
      <!-- 1.0 -->
      <defs>
       <path d="M 12.40625 8.296875 
L 28.515625 8.296875 
L 28.515625 63.921875 
L 10.984375 60.40625 
L 10.984375 69.390625 
L 28.421875 72.90625 
L 38.28125 72.90625 
L 38.28125 8.296875 
L 54.390625 8.296875 
L 54.390625 0 
L 12.40625 0 
z
" id="BitstreamVeraSans-Roman-31"/>
      </defs>
      <g transform="translate(483.755625 397.984725)scale(0.12 -0.12)">
       <use xlink:href="#BitstreamVeraSans-Roman-31"/>
       <use x="63.623046875" xlink:href="#BitstreamVeraSans-Roman-2e"/>
       <use x="95.41015625" xlink:href="#BitstreamVeraSans-Roman-30"/>
      </g>
     </g>
    </g>
    <g id="text_7">
     <!-- False Positive Rate -->
     <defs>
      <path d="M 18.3125 70.21875 
L 18.3125 54.6875 
L 36.8125 54.6875 
L 36.8125 47.703125 
L 18.3125 47.703125 
L 18.3125 18.015625 
Q 18.3125 11.328125 20.140625 9.421875 
Q 21.96875 7.515625 27.59375 7.515625 
L 36.8125 7.515625 
L 36.8125 0 
L 27.59375 0 
Q 17.1875 0 13.234375 3.875 
Q 9.28125 7.765625 9.28125 18.015625 
L 9.28125 47.703125 
L 2.6875 47.703125 
L 2.6875 54.6875 
L 9.28125 54.6875 
L 9.28125 70.21875 
z
" id="BitstreamVeraSans-Roman-74"/>
      <path d="M 44.390625 34.1875 
Q 47.5625 33.109375 50.5625 29.59375 
Q 53.5625 26.078125 56.59375 19.921875 
L 66.609375 0 
L 56 0 
L 46.6875 18.703125 
Q 43.0625 26.03125 39.671875 28.421875 
Q 36.28125 30.8125 30.421875 30.8125 
L 19.671875 30.8125 
L 19.671875 0 
L 9.8125 0 
L 9.8125 72.90625 
L 32.078125 72.90625 
Q 44.578125 72.90625 50.734375 67.671875 
Q 56.890625 62.453125 56.890625 51.90625 
Q 56.890625 45.015625 53.6875 40.46875 
Q 50.484375 35.9375 44.390625 34.1875 
M 19.671875 64.796875 
L 19.671875 38.921875 
L 32.078125 38.921875 
Q 39.203125 38.921875 42.84375 42.21875 
Q 46.484375 45.515625 46.484375 51.90625 
Q 46.484375 58.296875 42.84375 61.546875 
Q 39.203125 64.796875 32.078125 64.796875 
z
" id="BitstreamVeraSans-Roman-52"/>
      <path d="M 2.984375 54.6875 
L 12.5 54.6875 
L 29.59375 8.796875 
L 46.6875 54.6875 
L 56.203125 54.6875 
L 35.6875 0 
L 23.484375 0 
z
" id="BitstreamVeraSans-Roman-76"/>
      <path d="M 9.8125 72.90625 
L 51.703125 72.90625 
L 51.703125 64.59375 
L 19.671875 64.59375 
L 19.671875 43.109375 
L 48.578125 43.109375 
L 48.578125 34.8125 
L 19.671875 34.8125 
L 19.671875 0 
L 9.8125 0 
z
" id="BitstreamVeraSans-Roman-46"/>
      <path d="M 19.671875 64.796875 
L 19.671875 37.40625 
L 32.078125 37.40625 
Q 38.96875 37.40625 42.71875 40.96875 
Q 46.484375 44.53125 46.484375 51.125 
Q 46.484375 57.671875 42.71875 61.234375 
Q 38.96875 64.796875 32.078125 64.796875 
z
M 9.8125 72.90625 
L 32.078125 72.90625 
Q 44.34375 72.90625 50.609375 67.359375 
Q 56.890625 61.8125 56.890625 51.125 
Q 56.890625 40.328125 50.609375 34.8125 
Q 44.34375 29.296875 32.078125 29.296875 
L 19.671875 29.296875 
L 19.671875 0 
L 9.8125 0 
z
" id="BitstreamVeraSans-Roman-50"/>
      <path d="M 30.609375 48.390625 
Q 23.390625 48.390625 19.1875 42.75 
Q 14.984375 37.109375 14.984375 27.296875 
Q 14.984375 17.484375 19.15625 11.84375 
Q 23.34375 6.203125 30.609375 6.203125 
Q 37.796875 6.203125 41.984375 11.859375 
Q 46.1875 17.53125 46.1875 27.296875 
Q 46.1875 37.015625 41.984375 42.703125 
Q 37.796875 48.390625 30.609375 48.390625 
M 30.609375 56 
Q 42.328125 56 49.015625 48.375 
Q 55.71875 40.765625 55.71875 27.296875 
Q 55.71875 13.875 49.015625 6.21875 
Q 42.328125 -1.421875 30.609375 -1.421875 
Q 18.84375 -1.421875 12.171875 6.21875 
Q 5.515625 13.875 5.515625 27.296875 
Q 5.515625 40.765625 12.171875 48.375 
Q 18.84375 56 30.609375 56 
" id="BitstreamVeraSans-Roman-6f"/>
      <path d="M 44.28125 53.078125 
L 44.28125 44.578125 
Q 40.484375 46.53125 36.375 47.5 
Q 32.28125 48.484375 27.875 48.484375 
Q 21.1875 48.484375 17.84375 46.4375 
Q 14.5 44.390625 14.5 40.28125 
Q 14.5 37.15625 16.890625 35.375 
Q 19.28125 33.59375 26.515625 31.984375 
L 29.59375 31.296875 
Q 39.15625 29.25 43.1875 25.515625 
Q 47.21875 21.78125 47.21875 15.09375 
Q 47.21875 7.46875 41.1875 3.015625 
Q 35.15625 -1.421875 24.609375 -1.421875 
Q 20.21875 -1.421875 15.453125 -0.5625 
Q 10.6875 0.296875 5.421875 2 
L 5.421875 11.28125 
Q 10.40625 8.6875 15.234375 7.390625 
Q 20.0625 6.109375 24.8125 6.109375 
Q 31.15625 6.109375 34.5625 8.28125 
Q 37.984375 10.453125 37.984375 14.40625 
Q 37.984375 18.0625 35.515625 20.015625 
Q 33.0625 21.96875 24.703125 23.78125 
L 21.578125 24.515625 
Q 13.234375 26.265625 9.515625 29.90625 
Q 5.8125 33.546875 5.8125 39.890625 
Q 5.8125 47.609375 11.28125 51.796875 
Q 16.75 56 26.8125 56 
Q 31.78125 56 36.171875 55.265625 
Q 40.578125 54.546875 44.28125 53.078125 
" id="BitstreamVeraSans-Roman-73"/>
      <path id="BitstreamVeraSans-Roman-20"/>
      <path d="M 56.203125 29.59375 
L 56.203125 25.203125 
L 14.890625 25.203125 
Q 15.484375 15.921875 20.484375 11.0625 
Q 25.484375 6.203125 34.421875 6.203125 
Q 39.59375 6.203125 44.453125 7.46875 
Q 49.3125 8.734375 54.109375 11.28125 
L 54.109375 2.78125 
Q 49.265625 0.734375 44.1875 -0.34375 
Q 39.109375 -1.421875 33.890625 -1.421875 
Q 20.796875 -1.421875 13.15625 6.1875 
Q 5.515625 13.8125 5.515625 26.8125 
Q 5.515625 40.234375 12.765625 48.109375 
Q 20.015625 56 32.328125 56 
Q 43.359375 56 49.78125 48.890625 
Q 56.203125 41.796875 56.203125 29.59375 
M 47.21875 32.234375 
Q 47.125 39.59375 43.09375 43.984375 
Q 39.0625 48.390625 32.421875 48.390625 
Q 24.90625 48.390625 20.390625 44.140625 
Q 15.875 39.890625 15.1875 32.171875 
z
" id="BitstreamVeraSans-Roman-65"/>
      <path d="M 9.421875 54.6875 
L 18.40625 54.6875 
L 18.40625 0 
L 9.421875 0 
z
M 9.421875 75.984375 
L 18.40625 75.984375 
L 18.40625 64.59375 
L 9.421875 64.59375 
z
" id="BitstreamVeraSans-Roman-69"/>
      <path d="M 34.28125 27.484375 
Q 23.390625 27.484375 19.1875 25 
Q 14.984375 22.515625 14.984375 16.5 
Q 14.984375 11.71875 18.140625 8.90625 
Q 21.296875 6.109375 26.703125 6.109375 
Q 34.1875 6.109375 38.703125 11.40625 
Q 43.21875 16.703125 43.21875 25.484375 
L 43.21875 27.484375 
z
M 52.203125 31.203125 
L 52.203125 0 
L 43.21875 0 
L 43.21875 8.296875 
Q 40.140625 3.328125 35.546875 0.953125 
Q 30.953125 -1.421875 24.3125 -1.421875 
Q 15.921875 -1.421875 10.953125 3.296875 
Q 6 8.015625 6 15.921875 
Q 6 25.140625 12.171875 29.828125 
Q 18.359375 34.515625 30.609375 34.515625 
L 43.21875 34.515625 
L 43.21875 35.40625 
Q 43.21875 41.609375 39.140625 45 
Q 35.0625 48.390625 27.6875 48.390625 
Q 23 48.390625 18.546875 47.265625 
Q 14.109375 46.140625 10.015625 43.890625 
L 10.015625 52.203125 
Q 14.9375 54.109375 19.578125 55.046875 
Q 24.21875 56 28.609375 56 
Q 40.484375 56 46.34375 49.84375 
Q 52.203125 43.703125 52.203125 31.203125 
" id="BitstreamVeraSans-Roman-61"/>
      <path d="M 9.421875 75.984375 
L 18.40625 75.984375 
L 18.40625 0 
L 9.421875 0 
z
" id="BitstreamVeraSans-Roman-6c"/>
     </defs>
     <g transform="translate(213.4509375 414.598475)scale(0.12 -0.12)">
      <use xlink:href="#BitstreamVeraSans-Roman-46"/>
      <use x="57.37890625" xlink:href="#BitstreamVeraSans-Roman-61"/>
      <use x="118.658203125" xlink:href="#BitstreamVeraSans-Roman-6c"/>
      <use x="146.44140625" xlink:href="#BitstreamVeraSans-Roman-73"/>
      <use x="198.541015625" xlink:href="#BitstreamVeraSans-Roman-65"/>
      <use x="260.064453125" xlink:href="#BitstreamVeraSans-Roman-20"/>
      <use x="291.8515625" xlink:href="#BitstreamVeraSans-Roman-50"/>
      <use x="352.107421875" xlink:href="#BitstreamVeraSans-Roman-6f"/>
      <use x="413.2890625" xlink:href="#BitstreamVeraSans-Roman-73"/>
      <use x="465.388671875" xlink:href="#BitstreamVeraSans-Roman-69"/>
      <use x="493.171875" xlink:href="#BitstreamVeraSans-Roman-74"/>
      <use x="532.380859375" xlink:href="#BitstreamVeraSans-Roman-69"/>
      <use x="560.1640625" xlink:href="#BitstreamVeraSans-Roman-76"/>
      <use x="619.34375" xlink:href="#BitstreamVeraSans-Roman-65"/>
      <use x="680.8671875" xlink:href="#BitstreamVeraSans-Roman-20"/>
      <use x="712.654296875" xlink:href="#BitstreamVeraSans-Roman-52"/>
      <use x="782.10546875" xlink:href="#BitstreamVeraSans-Roman-61"/>
      <use x="843.384765625" xlink:href="#BitstreamVeraSans-Roman-74"/>
      <use x="882.59375" xlink:href="#BitstreamVeraSans-Roman-65"/>
     </g>
    </g>
   </g>
   <g id="matplotlib.axis_2">
    <g id="ytick_1">
     <g id="line2d_17">
      <defs>
       <path d="M 0 0 
L 4 0 
" id="m1ee6004cd9" style="stroke:#000000;stroke-width:0.5;"/>
      </defs>
      <g>
       <use style="stroke:#000000;stroke-width:0.5;" x="46.8975" xlink:href="#m1ee6004cd9" y="384.8666"/>
      </g>
     </g>
     <g id="line2d_18">
      <defs>
       <path d="M 0 0 
L -4 0 
" id="m36f582104a" style="stroke:#000000;stroke-width:0.5;"/>
      </defs>
      <g>
       <use style="stroke:#000000;stroke-width:0.5;" x="493.2975" xlink:href="#m36f582104a" y="384.8666"/>
      </g>
     </g>
     <g id="text_8">
      <!-- 0.0 -->
      <g transform="translate(23.81375 388.17785)scale(0.12 -0.12)">
       <use xlink:href="#BitstreamVeraSans-Roman-30"/>
       <use x="63.623046875" xlink:href="#BitstreamVeraSans-Roman-2e"/>
       <use x="95.41015625" xlink:href="#BitstreamVeraSans-Roman-30"/>
      </g>
     </g>
    </g>
    <g id="ytick_2">
     <g id="line2d_19">
      <g>
       <use style="stroke:#000000;stroke-width:0.5;" x="46.8975" xlink:href="#m1ee6004cd9" y="319.038028571"/>
      </g>
     </g>
     <g id="line2d_20">
      <g>
       <use style="stroke:#000000;stroke-width:0.5;" x="493.2975" xlink:href="#m36f582104a" y="319.038028571"/>
      </g>
     </g>
     <g id="text_9">
      <!-- 0.2 -->
      <g transform="translate(23.81375 322.349278571)scale(0.12 -0.12)">
       <use xlink:href="#BitstreamVeraSans-Roman-30"/>
       <use x="63.623046875" xlink:href="#BitstreamVeraSans-Roman-2e"/>
       <use x="95.41015625" xlink:href="#BitstreamVeraSans-Roman-32"/>
      </g>
     </g>
    </g>
    <g id="ytick_3">
     <g id="line2d_21">
      <g>
       <use style="stroke:#000000;stroke-width:0.5;" x="46.8975" xlink:href="#m1ee6004cd9" y="253.209457143"/>
      </g>
     </g>
     <g id="line2d_22">
      <g>
       <use style="stroke:#000000;stroke-width:0.5;" x="493.2975" xlink:href="#m36f582104a" y="253.209457143"/>
      </g>
     </g>
     <g id="text_10">
      <!-- 0.4 -->
      <g transform="translate(23.81375 256.520707143)scale(0.12 -0.12)">
       <use xlink:href="#BitstreamVeraSans-Roman-30"/>
       <use x="63.623046875" xlink:href="#BitstreamVeraSans-Roman-2e"/>
       <use x="95.41015625" xlink:href="#BitstreamVeraSans-Roman-34"/>
      </g>
     </g>
    </g>
    <g id="ytick_4">
     <g id="line2d_23">
      <g>
       <use style="stroke:#000000;stroke-width:0.5;" x="46.8975" xlink:href="#m1ee6004cd9" y="187.380885714"/>
      </g>
     </g>
     <g id="line2d_24">
      <g>
       <use style="stroke:#000000;stroke-width:0.5;" x="493.2975" xlink:href="#m36f582104a" y="187.380885714"/>
      </g>
     </g>
     <g id="text_11">
      <!-- 0.6 -->
      <g transform="translate(23.81375 190.692135714)scale(0.12 -0.12)">
       <use xlink:href="#BitstreamVeraSans-Roman-30"/>
       <use x="63.623046875" xlink:href="#BitstreamVeraSans-Roman-2e"/>
       <use x="95.41015625" xlink:href="#BitstreamVeraSans-Roman-36"/>
      </g>
     </g>
    </g>
    <g id="ytick_5">
     <g id="line2d_25">
      <g>
       <use style="stroke:#000000;stroke-width:0.5;" x="46.8975" xlink:href="#m1ee6004cd9" y="121.552314286"/>
      </g>
     </g>
     <g id="line2d_26">
      <g>
       <use style="stroke:#000000;stroke-width:0.5;" x="493.2975" xlink:href="#m36f582104a" y="121.552314286"/>
      </g>
     </g>
     <g id="text_12">
      <!-- 0.8 -->
      <g transform="translate(23.81375 124.863564286)scale(0.12 -0.12)">
       <use xlink:href="#BitstreamVeraSans-Roman-30"/>
       <use x="63.623046875" xlink:href="#BitstreamVeraSans-Roman-2e"/>
       <use x="95.41015625" xlink:href="#BitstreamVeraSans-Roman-38"/>
      </g>
     </g>
    </g>
    <g id="ytick_6">
     <g id="line2d_27">
      <g>
       <use style="stroke:#000000;stroke-width:0.5;" x="46.8975" xlink:href="#m1ee6004cd9" y="55.7237428571"/>
      </g>
     </g>
     <g id="line2d_28">
      <g>
       <use style="stroke:#000000;stroke-width:0.5;" x="493.2975" xlink:href="#m36f582104a" y="55.7237428571"/>
      </g>
     </g>
     <g id="text_13">
      <!-- 1.0 -->
      <g transform="translate(23.81375 59.0349928571)scale(0.12 -0.12)">
       <use xlink:href="#BitstreamVeraSans-Roman-31"/>
       <use x="63.623046875" xlink:href="#BitstreamVeraSans-Roman-2e"/>
       <use x="95.41015625" xlink:href="#BitstreamVeraSans-Roman-30"/>
      </g>
     </g>
    </g>
    <g id="text_14">
     <!-- True Positive Rate -->
     <defs>
      <path d="M -0.296875 72.90625 
L 61.375 72.90625 
L 61.375 64.59375 
L 35.5 64.59375 
L 35.5 0 
L 25.59375 0 
L 25.59375 64.59375 
L -0.296875 64.59375 
z
" id="BitstreamVeraSans-Roman-54"/>
      <path d="M 8.5 21.578125 
L 8.5 54.6875 
L 17.484375 54.6875 
L 17.484375 21.921875 
Q 17.484375 14.15625 20.5 10.265625 
Q 23.53125 6.390625 29.59375 6.390625 
Q 36.859375 6.390625 41.078125 11.03125 
Q 45.3125 15.671875 45.3125 23.6875 
L 45.3125 54.6875 
L 54.296875 54.6875 
L 54.296875 0 
L 45.3125 0 
L 45.3125 8.40625 
Q 42.046875 3.421875 37.71875 1 
Q 33.40625 -1.421875 27.6875 -1.421875 
Q 18.265625 -1.421875 13.375 4.4375 
Q 8.5 10.296875 8.5 21.578125 
" id="BitstreamVeraSans-Roman-75"/>
      <path d="M 41.109375 46.296875 
Q 39.59375 47.171875 37.8125 47.578125 
Q 36.03125 48 33.890625 48 
Q 26.265625 48 22.1875 43.046875 
Q 18.109375 38.09375 18.109375 28.8125 
L 18.109375 0 
L 9.078125 0 
L 9.078125 54.6875 
L 18.109375 54.6875 
L 18.109375 46.1875 
Q 20.953125 51.171875 25.484375 53.578125 
Q 30.03125 56 36.53125 56 
Q 37.453125 56 38.578125 55.875 
Q 39.703125 55.765625 41.0625 55.515625 
z
" id="BitstreamVeraSans-Roman-72"/>
     </defs>
     <g transform="translate(16.318125 266.7219125)rotate(-90.0)scale(0.12 -0.12)">
      <use xlink:href="#BitstreamVeraSans-Roman-54"/>
      <use x="60.865234375" xlink:href="#BitstreamVeraSans-Roman-72"/>
      <use x="101.978515625" xlink:href="#BitstreamVeraSans-Roman-75"/>
      <use x="165.357421875" xlink:href="#BitstreamVeraSans-Roman-65"/>
      <use x="226.880859375" xlink:href="#BitstreamVeraSans-Roman-20"/>
      <use x="258.66796875" xlink:href="#BitstreamVeraSans-Roman-50"/>
      <use x="318.923828125" xlink:href="#BitstreamVeraSans-Roman-6f"/>
      <use x="380.10546875" xlink:href="#BitstreamVeraSans-Roman-73"/>
      <use x="432.205078125" xlink:href="#BitstreamVeraSans-Roman-69"/>
      <use x="459.98828125" xlink:href="#BitstreamVeraSans-Roman-74"/>
      <use x="499.197265625" xlink:href="#BitstreamVeraSans-Roman-69"/>
      <use x="526.98046875" xlink:href="#BitstreamVeraSans-Roman-76"/>
      <use x="586.16015625" xlink:href="#BitstreamVeraSans-Roman-65"/>
      <use x="647.68359375" xlink:href="#BitstreamVeraSans-Roman-20"/>
      <use x="679.470703125" xlink:href="#BitstreamVeraSans-Roman-52"/>
      <use x="748.921875" xlink:href="#BitstreamVeraSans-Roman-61"/>
      <use x="810.201171875" xlink:href="#BitstreamVeraSans-Roman-74"/>
      <use x="849.41015625" xlink:href="#BitstreamVeraSans-Roman-65"/>
     </g>
    </g>
   </g>
   <g id="text_15">
    <!-- ROC Curve RandomForest + RandomOverSampler -->
    <defs>
     <path d="M 53.515625 70.515625 
L 53.515625 60.890625 
Q 47.90625 63.578125 42.921875 64.890625 
Q 37.9375 66.21875 33.296875 66.21875 
Q 25.25 66.21875 20.875 63.09375 
Q 16.5 59.96875 16.5 54.203125 
Q 16.5 49.359375 19.40625 46.890625 
Q 22.3125 44.4375 30.421875 42.921875 
L 36.375 41.703125 
Q 47.40625 39.59375 52.65625 34.296875 
Q 57.90625 29 57.90625 20.125 
Q 57.90625 9.515625 50.796875 4.046875 
Q 43.703125 -1.421875 29.984375 -1.421875 
Q 24.8125 -1.421875 18.96875 -0.25 
Q 13.140625 0.921875 6.890625 3.21875 
L 6.890625 13.375 
Q 12.890625 10.015625 18.65625 8.296875 
Q 24.421875 6.59375 29.984375 6.59375 
Q 38.421875 6.59375 43.015625 9.90625 
Q 47.609375 13.234375 47.609375 19.390625 
Q 47.609375 24.75 44.3125 27.78125 
Q 41.015625 30.8125 33.5 32.328125 
L 27.484375 33.5 
Q 16.453125 35.6875 11.515625 40.375 
Q 6.59375 45.0625 6.59375 53.421875 
Q 6.59375 63.09375 13.40625 68.65625 
Q 20.21875 74.21875 32.171875 74.21875 
Q 37.3125 74.21875 42.625 73.28125 
Q 47.953125 72.359375 53.515625 70.515625 
" id="BitstreamVeraSans-Roman-53"/>
     <path d="M 45.40625 46.390625 
L 45.40625 75.984375 
L 54.390625 75.984375 
L 54.390625 0 
L 45.40625 0 
L 45.40625 8.203125 
Q 42.578125 3.328125 38.25 0.953125 
Q 33.9375 -1.421875 27.875 -1.421875 
Q 17.96875 -1.421875 11.734375 6.484375 
Q 5.515625 14.40625 5.515625 27.296875 
Q 5.515625 40.1875 11.734375 48.09375 
Q 17.96875 56 27.875 56 
Q 33.9375 56 38.25 53.625 
Q 42.578125 51.265625 45.40625 46.390625 
M 14.796875 27.296875 
Q 14.796875 17.390625 18.875 11.75 
Q 22.953125 6.109375 30.078125 6.109375 
Q 37.203125 6.109375 41.296875 11.75 
Q 45.40625 17.390625 45.40625 27.296875 
Q 45.40625 37.203125 41.296875 42.84375 
Q 37.203125 48.484375 30.078125 48.484375 
Q 22.953125 48.484375 18.875 42.84375 
Q 14.796875 37.203125 14.796875 27.296875 
" id="BitstreamVeraSans-Roman-64"/>
     <path d="M 52 44.1875 
Q 55.375 50.25 60.0625 53.125 
Q 64.75 56 71.09375 56 
Q 79.640625 56 84.28125 50.015625 
Q 88.921875 44.046875 88.921875 33.015625 
L 88.921875 0 
L 79.890625 0 
L 79.890625 32.71875 
Q 79.890625 40.578125 77.09375 44.375 
Q 74.3125 48.1875 68.609375 48.1875 
Q 61.625 48.1875 57.5625 43.546875 
Q 53.515625 38.921875 53.515625 30.90625 
L 53.515625 0 
L 44.484375 0 
L 44.484375 32.71875 
Q 44.484375 40.625 41.703125 44.40625 
Q 38.921875 48.1875 33.109375 48.1875 
Q 26.21875 48.1875 22.15625 43.53125 
Q 18.109375 38.875 18.109375 30.90625 
L 18.109375 0 
L 9.078125 0 
L 9.078125 54.6875 
L 18.109375 54.6875 
L 18.109375 46.1875 
Q 21.1875 51.21875 25.484375 53.609375 
Q 29.78125 56 35.6875 56 
Q 41.65625 56 45.828125 52.96875 
Q 50 49.953125 52 44.1875 
" id="BitstreamVeraSans-Roman-6d"/>
     <path d="M 54.890625 33.015625 
L 54.890625 0 
L 45.90625 0 
L 45.90625 32.71875 
Q 45.90625 40.484375 42.875 44.328125 
Q 39.84375 48.1875 33.796875 48.1875 
Q 26.515625 48.1875 22.3125 43.546875 
Q 18.109375 38.921875 18.109375 30.90625 
L 18.109375 0 
L 9.078125 0 
L 9.078125 54.6875 
L 18.109375 54.6875 
L 18.109375 46.1875 
Q 21.34375 51.125 25.703125 53.5625 
Q 30.078125 56 35.796875 56 
Q 45.21875 56 50.046875 50.171875 
Q 54.890625 44.34375 54.890625 33.015625 
" id="BitstreamVeraSans-Roman-6e"/>
     <path d="M 64.40625 67.28125 
L 64.40625 56.890625 
Q 59.421875 61.53125 53.78125 63.8125 
Q 48.140625 66.109375 41.796875 66.109375 
Q 29.296875 66.109375 22.65625 58.46875 
Q 16.015625 50.828125 16.015625 36.375 
Q 16.015625 21.96875 22.65625 14.328125 
Q 29.296875 6.6875 41.796875 6.6875 
Q 48.140625 6.6875 53.78125 8.984375 
Q 59.421875 11.28125 64.40625 15.921875 
L 64.40625 5.609375 
Q 59.234375 2.09375 53.4375 0.328125 
Q 47.65625 -1.421875 41.21875 -1.421875 
Q 24.65625 -1.421875 15.125 8.703125 
Q 5.609375 18.84375 5.609375 36.375 
Q 5.609375 53.953125 15.125 64.078125 
Q 24.65625 74.21875 41.21875 74.21875 
Q 47.75 74.21875 53.53125 72.484375 
Q 59.328125 70.75 64.40625 67.28125 
" id="BitstreamVeraSans-Roman-43"/>
     <path d="M 39.40625 66.21875 
Q 28.65625 66.21875 22.328125 58.203125 
Q 16.015625 50.203125 16.015625 36.375 
Q 16.015625 22.609375 22.328125 14.59375 
Q 28.65625 6.59375 39.40625 6.59375 
Q 50.140625 6.59375 56.421875 14.59375 
Q 62.703125 22.609375 62.703125 36.375 
Q 62.703125 50.203125 56.421875 58.203125 
Q 50.140625 66.21875 39.40625 66.21875 
M 39.40625 74.21875 
Q 54.734375 74.21875 63.90625 63.9375 
Q 73.09375 53.65625 73.09375 36.375 
Q 73.09375 19.140625 63.90625 8.859375 
Q 54.734375 -1.421875 39.40625 -1.421875 
Q 24.03125 -1.421875 14.8125 8.828125 
Q 5.609375 19.09375 5.609375 36.375 
Q 5.609375 53.65625 14.8125 63.9375 
Q 24.03125 74.21875 39.40625 74.21875 
" id="BitstreamVeraSans-Roman-4f"/>
     <path d="M 18.109375 8.203125 
L 18.109375 -20.796875 
L 9.078125 -20.796875 
L 9.078125 54.6875 
L 18.109375 54.6875 
L 18.109375 46.390625 
Q 20.953125 51.265625 25.265625 53.625 
Q 29.59375 56 35.59375 56 
Q 45.5625 56 51.78125 48.09375 
Q 58.015625 40.1875 58.015625 27.296875 
Q 58.015625 14.40625 51.78125 6.484375 
Q 45.5625 -1.421875 35.59375 -1.421875 
Q 29.59375 -1.421875 25.265625 0.953125 
Q 20.953125 3.328125 18.109375 8.203125 
M 48.6875 27.296875 
Q 48.6875 37.203125 44.609375 42.84375 
Q 40.53125 48.484375 33.40625 48.484375 
Q 26.265625 48.484375 22.1875 42.84375 
Q 18.109375 37.203125 18.109375 27.296875 
Q 18.109375 17.390625 22.1875 11.75 
Q 26.265625 6.109375 33.40625 6.109375 
Q 40.53125 6.109375 44.609375 11.75 
Q 48.6875 17.390625 48.6875 27.296875 
" id="BitstreamVeraSans-Roman-70"/>
     <path d="M 46 62.703125 
L 46 35.5 
L 73.1875 35.5 
L 73.1875 27.203125 
L 46 27.203125 
L 46 0 
L 37.796875 0 
L 37.796875 27.203125 
L 10.59375 27.203125 
L 10.59375 35.5 
L 37.796875 35.5 
L 37.796875 62.703125 
z
" id="BitstreamVeraSans-Roman-2b"/>
    </defs>
    <g transform="translate(88.258125 18.14175)scale(0.144 -0.144)">
     <use xlink:href="#BitstreamVeraSans-Roman-52"/>
     <use x="69.482421875" xlink:href="#BitstreamVeraSans-Roman-4f"/>
     <use x="148.193359375" xlink:href="#BitstreamVeraSans-Roman-43"/>
     <use x="218.017578125" xlink:href="#BitstreamVeraSans-Roman-20"/>
     <use x="249.8046875" xlink:href="#BitstreamVeraSans-Roman-43"/>
     <use x="319.62890625" xlink:href="#BitstreamVeraSans-Roman-75"/>
     <use x="383.0078125" xlink:href="#BitstreamVeraSans-Roman-72"/>
     <use x="424.12109375" xlink:href="#BitstreamVeraSans-Roman-76"/>
     <use x="483.30078125" xlink:href="#BitstreamVeraSans-Roman-65"/>
     <use x="544.82421875" xlink:href="#BitstreamVeraSans-Roman-20"/>
     <use x="576.611328125" xlink:href="#BitstreamVeraSans-Roman-52"/>
     <use x="646.0625" xlink:href="#BitstreamVeraSans-Roman-61"/>
     <use x="707.341796875" xlink:href="#BitstreamVeraSans-Roman-6e"/>
     <use x="770.720703125" xlink:href="#BitstreamVeraSans-Roman-64"/>
     <use x="834.197265625" xlink:href="#BitstreamVeraSans-Roman-6f"/>
     <use x="895.37890625" xlink:href="#BitstreamVeraSans-Roman-6d"/>
     <use x="992.791015625" xlink:href="#BitstreamVeraSans-Roman-46"/>
     <use x="1050.263671875" xlink:href="#BitstreamVeraSans-Roman-6f"/>
     <use x="1111.4453125" xlink:href="#BitstreamVeraSans-Roman-72"/>
     <use x="1152.52734375" xlink:href="#BitstreamVeraSans-Roman-65"/>
     <use x="1214.05078125" xlink:href="#BitstreamVeraSans-Roman-73"/>
     <use x="1266.150390625" xlink:href="#BitstreamVeraSans-Roman-74"/>
     <use x="1305.359375" xlink:href="#BitstreamVeraSans-Roman-20"/>
     <use x="1337.146484375" xlink:href="#BitstreamVeraSans-Roman-2b"/>
     <use x="1420.935546875" xlink:href="#BitstreamVeraSans-Roman-20"/>
     <use x="1452.72265625" xlink:href="#BitstreamVeraSans-Roman-52"/>
     <use x="1522.173828125" xlink:href="#BitstreamVeraSans-Roman-61"/>
     <use x="1583.453125" xlink:href="#BitstreamVeraSans-Roman-6e"/>
     <use x="1646.83203125" xlink:href="#BitstreamVeraSans-Roman-64"/>
     <use x="1710.30859375" xlink:href="#BitstreamVeraSans-Roman-6f"/>
     <use x="1771.490234375" xlink:href="#BitstreamVeraSans-Roman-6d"/>
     <use x="1868.90234375" xlink:href="#BitstreamVeraSans-Roman-4f"/>
     <use x="1947.61328125" xlink:href="#BitstreamVeraSans-Roman-76"/>
     <use x="2006.79296875" xlink:href="#BitstreamVeraSans-Roman-65"/>
     <use x="2068.31640625" xlink:href="#BitstreamVeraSans-Roman-72"/>
     <use x="2109.4296875" xlink:href="#BitstreamVeraSans-Roman-53"/>
     <use x="2172.90625" xlink:href="#BitstreamVeraSans-Roman-61"/>
     <use x="2234.185546875" xlink:href="#BitstreamVeraSans-Roman-6d"/>
     <use x="2331.59765625" xlink:href="#BitstreamVeraSans-Roman-70"/>
     <use x="2395.07421875" xlink:href="#BitstreamVeraSans-Roman-6c"/>
     <use x="2422.857421875" xlink:href="#BitstreamVeraSans-Roman-65"/>
     <use x="2484.380859375" xlink:href="#BitstreamVeraSans-Roman-72"/>
    </g>
    <!-- Train: 24   Test: [1, 4, 8, 12, 16, 20, 24] -->
    <defs>
     <path d="M 8.59375 75.984375 
L 29.296875 75.984375 
L 29.296875 69 
L 17.578125 69 
L 17.578125 -6.203125 
L 29.296875 -6.203125 
L 29.296875 -13.1875 
L 8.59375 -13.1875 
z
" id="BitstreamVeraSans-Roman-5b"/>
     <path d="M 11.71875 12.40625 
L 22.015625 12.40625 
L 22.015625 0 
L 11.71875 0 
z
M 11.71875 51.703125 
L 22.015625 51.703125 
L 22.015625 39.3125 
L 11.71875 39.3125 
z
" id="BitstreamVeraSans-Roman-3a"/>
     <path d="M 11.71875 12.40625 
L 22.015625 12.40625 
L 22.015625 4 
L 14.015625 -11.625 
L 7.71875 -11.625 
L 11.71875 4 
z
" id="BitstreamVeraSans-Roman-2c"/>
     <path d="M 30.421875 75.984375 
L 30.421875 -13.1875 
L 9.71875 -13.1875 
L 9.71875 -6.203125 
L 21.390625 -6.203125 
L 21.390625 69 
L 9.71875 69 
L 9.71875 75.984375 
z
" id="BitstreamVeraSans-Roman-5d"/>
    </defs>
    <g transform="translate(127.475625 34.2666)scale(0.144 -0.144)">
     <use xlink:href="#BitstreamVeraSans-Roman-54"/>
     <use x="60.865234375" xlink:href="#BitstreamVeraSans-Roman-72"/>
     <use x="101.978515625" xlink:href="#BitstreamVeraSans-Roman-61"/>
     <use x="163.2578125" xlink:href="#BitstreamVeraSans-Roman-69"/>
     <use x="191.041015625" xlink:href="#BitstreamVeraSans-Roman-6e"/>
     <use x="254.419921875" xlink:href="#BitstreamVeraSans-Roman-3a"/>
     <use x="288.111328125" xlink:href="#BitstreamVeraSans-Roman-20"/>
     <use x="319.8984375" xlink:href="#BitstreamVeraSans-Roman-32"/>
     <use x="383.521484375" xlink:href="#BitstreamVeraSans-Roman-34"/>
     <use x="447.14453125" xlink:href="#BitstreamVeraSans-Roman-20"/>
     <use x="478.931640625" xlink:href="#BitstreamVeraSans-Roman-20"/>
     <use x="510.71875" xlink:href="#BitstreamVeraSans-Roman-20"/>
     <use x="542.505859375" xlink:href="#BitstreamVeraSans-Roman-54"/>
     <use x="603.32421875" xlink:href="#BitstreamVeraSans-Roman-65"/>
     <use x="664.84765625" xlink:href="#BitstreamVeraSans-Roman-73"/>
     <use x="716.947265625" xlink:href="#BitstreamVeraSans-Roman-74"/>
     <use x="756.15625" xlink:href="#BitstreamVeraSans-Roman-3a"/>
     <use x="789.84765625" xlink:href="#BitstreamVeraSans-Roman-20"/>
     <use x="821.634765625" xlink:href="#BitstreamVeraSans-Roman-5b"/>
     <use x="860.6484375" xlink:href="#BitstreamVeraSans-Roman-31"/>
     <use x="924.271484375" xlink:href="#BitstreamVeraSans-Roman-2c"/>
     <use x="956.05859375" xlink:href="#BitstreamVeraSans-Roman-20"/>
     <use x="987.845703125" xlink:href="#BitstreamVeraSans-Roman-34"/>
     <use x="1051.46875" xlink:href="#BitstreamVeraSans-Roman-2c"/>
     <use x="1083.255859375" xlink:href="#BitstreamVeraSans-Roman-20"/>
     <use x="1115.04296875" xlink:href="#BitstreamVeraSans-Roman-38"/>
     <use x="1178.666015625" xlink:href="#BitstreamVeraSans-Roman-2c"/>
     <use x="1210.453125" xlink:href="#BitstreamVeraSans-Roman-20"/>
     <use x="1242.240234375" xlink:href="#BitstreamVeraSans-Roman-31"/>
     <use x="1305.86328125" xlink:href="#BitstreamVeraSans-Roman-32"/>
     <use x="1369.486328125" xlink:href="#BitstreamVeraSans-Roman-2c"/>
     <use x="1401.2734375" xlink:href="#BitstreamVeraSans-Roman-20"/>
     <use x="1433.060546875" xlink:href="#BitstreamVeraSans-Roman-31"/>
     <use x="1496.68359375" xlink:href="#BitstreamVeraSans-Roman-36"/>
     <use x="1560.306640625" xlink:href="#BitstreamVeraSans-Roman-2c"/>
     <use x="1592.09375" xlink:href="#BitstreamVeraSans-Roman-20"/>
     <use x="1623.880859375" xlink:href="#BitstreamVeraSans-Roman-32"/>
     <use x="1687.50390625" xlink:href="#BitstreamVeraSans-Roman-30"/>
     <use x="1751.126953125" xlink:href="#BitstreamVeraSans-Roman-2c"/>
     <use x="1782.9140625" xlink:href="#BitstreamVeraSans-Roman-20"/>
     <use x="1814.701171875" xlink:href="#BitstreamVeraSans-Roman-32"/>
     <use x="1878.32421875" xlink:href="#BitstreamVeraSans-Roman-34"/>
     <use x="1941.947265625" xlink:href="#BitstreamVeraSans-Roman-5d"/>
    </g>
   </g>
   <g id="legend_1">
    <g id="patch_7">
     <path d="M 180.46425 377.6666 
L 486.0975 377.6666 
L 486.0975 309.9371 
L 180.46425 309.9371 
z
" style="fill:#ffffff;stroke:#000000;stroke-linejoin:miter;"/>
    </g>
    <g id="line2d_29">
     <path d="M 190.54425 321.59885 
L 210.70425 321.59885 
" style="fill:none;stroke:#0000ff;stroke-linecap:square;"/>
    </g>
    <g id="line2d_30"/>
    <g id="text_16">
     <!-- cometROC curve - 0 (AUC = 0.825) -->
     <defs>
      <path d="M 34.1875 63.1875 
L 20.796875 26.90625 
L 47.609375 26.90625 
z
M 28.609375 72.90625 
L 39.796875 72.90625 
L 67.578125 0 
L 57.328125 0 
L 50.6875 18.703125 
L 17.828125 18.703125 
L 11.1875 0 
L 0.78125 0 
z
" id="BitstreamVeraSans-Roman-41"/>
      <path d="M 8.015625 75.875 
L 15.828125 75.875 
Q 23.140625 64.359375 26.78125 53.3125 
Q 30.421875 42.28125 30.421875 31.390625 
Q 30.421875 20.453125 26.78125 9.375 
Q 23.140625 -1.703125 15.828125 -13.1875 
L 8.015625 -13.1875 
Q 14.5 -2 17.703125 9.0625 
Q 20.90625 20.125 20.90625 31.390625 
Q 20.90625 42.671875 17.703125 53.65625 
Q 14.5 64.65625 8.015625 75.875 
" id="BitstreamVeraSans-Roman-29"/>
      <path d="M 31 75.875 
Q 24.46875 64.65625 21.28125 53.65625 
Q 18.109375 42.671875 18.109375 31.390625 
Q 18.109375 20.125 21.3125 9.0625 
Q 24.515625 -2 31 -13.1875 
L 23.1875 -13.1875 
Q 15.875 -1.703125 12.234375 9.375 
Q 8.59375 20.453125 8.59375 31.390625 
Q 8.59375 42.28125 12.203125 53.3125 
Q 15.828125 64.359375 23.1875 75.875 
z
" id="BitstreamVeraSans-Roman-28"/>
      <path d="M 8.6875 72.90625 
L 18.609375 72.90625 
L 18.609375 28.609375 
Q 18.609375 16.890625 22.84375 11.734375 
Q 27.09375 6.59375 36.625 6.59375 
Q 46.09375 6.59375 50.34375 11.734375 
Q 54.59375 16.890625 54.59375 28.609375 
L 54.59375 72.90625 
L 64.5 72.90625 
L 64.5 27.390625 
Q 64.5 13.140625 57.4375 5.859375 
Q 50.390625 -1.421875 36.625 -1.421875 
Q 22.796875 -1.421875 15.734375 5.859375 
Q 8.6875 13.140625 8.6875 27.390625 
z
" id="BitstreamVeraSans-Roman-55"/>
      <path d="M 48.78125 52.59375 
L 48.78125 44.1875 
Q 44.96875 46.296875 41.140625 47.34375 
Q 37.3125 48.390625 33.40625 48.390625 
Q 24.65625 48.390625 19.8125 42.84375 
Q 14.984375 37.3125 14.984375 27.296875 
Q 14.984375 17.28125 19.8125 11.734375 
Q 24.65625 6.203125 33.40625 6.203125 
Q 37.3125 6.203125 41.140625 7.25 
Q 44.96875 8.296875 48.78125 10.40625 
L 48.78125 2.09375 
Q 45.015625 0.34375 40.984375 -0.53125 
Q 36.96875 -1.421875 32.421875 -1.421875 
Q 20.0625 -1.421875 12.78125 6.34375 
Q 5.515625 14.109375 5.515625 27.296875 
Q 5.515625 40.671875 12.859375 48.328125 
Q 20.21875 56 33.015625 56 
Q 37.15625 56 41.109375 55.140625 
Q 45.0625 54.296875 48.78125 52.59375 
" id="BitstreamVeraSans-Roman-63"/>
      <path d="M 10.796875 72.90625 
L 49.515625 72.90625 
L 49.515625 64.59375 
L 19.828125 64.59375 
L 19.828125 46.734375 
Q 21.96875 47.46875 24.109375 47.828125 
Q 26.265625 48.1875 28.421875 48.1875 
Q 40.625 48.1875 47.75 41.5 
Q 54.890625 34.8125 54.890625 23.390625 
Q 54.890625 11.625 47.5625 5.09375 
Q 40.234375 -1.421875 26.90625 -1.421875 
Q 22.3125 -1.421875 17.546875 -0.640625 
Q 12.796875 0.140625 7.71875 1.703125 
L 7.71875 11.625 
Q 12.109375 9.234375 16.796875 8.0625 
Q 21.484375 6.890625 26.703125 6.890625 
Q 35.15625 6.890625 40.078125 11.328125 
Q 45.015625 15.765625 45.015625 23.390625 
Q 45.015625 31 40.078125 35.4375 
Q 35.15625 39.890625 26.703125 39.890625 
Q 22.75 39.890625 18.8125 39.015625 
Q 14.890625 38.140625 10.796875 36.28125 
z
" id="BitstreamVeraSans-Roman-35"/>
      <path d="M 10.59375 45.40625 
L 73.1875 45.40625 
L 73.1875 37.203125 
L 10.59375 37.203125 
z
M 10.59375 25.484375 
L 73.1875 25.484375 
L 73.1875 17.1875 
L 10.59375 17.1875 
z
" id="BitstreamVeraSans-Roman-3d"/>
      <path d="M 4.890625 31.390625 
L 31.203125 31.390625 
L 31.203125 23.390625 
L 4.890625 23.390625 
z
" id="BitstreamVeraSans-Roman-2d"/>
     </defs>
     <g transform="translate(226.54425 326.63885)scale(0.144 -0.144)">
      <use xlink:href="#BitstreamVeraSans-Roman-63"/>
      <use x="54.98046875" xlink:href="#BitstreamVeraSans-Roman-6f"/>
      <use x="116.162109375" xlink:href="#BitstreamVeraSans-Roman-6d"/>
      <use x="213.57421875" xlink:href="#BitstreamVeraSans-Roman-65"/>
      <use x="275.09765625" xlink:href="#BitstreamVeraSans-Roman-74"/>
      <use x="314.306640625" xlink:href="#BitstreamVeraSans-Roman-52"/>
      <use x="383.7890625" xlink:href="#BitstreamVeraSans-Roman-4f"/>
      <use x="462.5" xlink:href="#BitstreamVeraSans-Roman-43"/>
      <use x="532.32421875" xlink:href="#BitstreamVeraSans-Roman-20"/>
      <use x="564.111328125" xlink:href="#BitstreamVeraSans-Roman-63"/>
      <use x="619.091796875" xlink:href="#BitstreamVeraSans-Roman-75"/>
      <use x="682.470703125" xlink:href="#BitstreamVeraSans-Roman-72"/>
      <use x="723.583984375" xlink:href="#BitstreamVeraSans-Roman-76"/>
      <use x="782.763671875" xlink:href="#BitstreamVeraSans-Roman-65"/>
      <use x="844.287109375" xlink:href="#BitstreamVeraSans-Roman-20"/>
      <use x="876.07421875" xlink:href="#BitstreamVeraSans-Roman-2d"/>
      <use x="912.158203125" xlink:href="#BitstreamVeraSans-Roman-20"/>
      <use x="943.9453125" xlink:href="#BitstreamVeraSans-Roman-30"/>
      <use x="1007.568359375" xlink:href="#BitstreamVeraSans-Roman-20"/>
      <use x="1039.35546875" xlink:href="#BitstreamVeraSans-Roman-28"/>
      <use x="1078.369140625" xlink:href="#BitstreamVeraSans-Roman-41"/>
      <use x="1146.77734375" xlink:href="#BitstreamVeraSans-Roman-55"/>
      <use x="1219.970703125" xlink:href="#BitstreamVeraSans-Roman-43"/>
      <use x="1289.794921875" xlink:href="#BitstreamVeraSans-Roman-20"/>
      <use x="1321.58203125" xlink:href="#BitstreamVeraSans-Roman-3d"/>
      <use x="1405.37109375" xlink:href="#BitstreamVeraSans-Roman-20"/>
      <use x="1437.158203125" xlink:href="#BitstreamVeraSans-Roman-30"/>
      <use x="1500.78125" xlink:href="#BitstreamVeraSans-Roman-2e"/>
      <use x="1532.568359375" xlink:href="#BitstreamVeraSans-Roman-38"/>
      <use x="1596.19140625" xlink:href="#BitstreamVeraSans-Roman-32"/>
      <use x="1659.814453125" xlink:href="#BitstreamVeraSans-Roman-35"/>
      <use x="1723.4375" xlink:href="#BitstreamVeraSans-Roman-29"/>
     </g>
    </g>
    <g id="line2d_31">
     <path d="M 190.54425 342.73535 
L 210.70425 342.73535 
" style="fill:none;stroke:#008000;stroke-linecap:square;"/>
    </g>
    <g id="line2d_32"/>
    <g id="text_17">
     <!-- cometROC curve - 1 (AUC = 0.845) -->
     <g transform="translate(226.54425 347.77535)scale(0.144 -0.144)">
      <use xlink:href="#BitstreamVeraSans-Roman-63"/>
      <use x="54.98046875" xlink:href="#BitstreamVeraSans-Roman-6f"/>
      <use x="116.162109375" xlink:href="#BitstreamVeraSans-Roman-6d"/>
      <use x="213.57421875" xlink:href="#BitstreamVeraSans-Roman-65"/>
      <use x="275.09765625" xlink:href="#BitstreamVeraSans-Roman-74"/>
      <use x="314.306640625" xlink:href="#BitstreamVeraSans-Roman-52"/>
      <use x="383.7890625" xlink:href="#BitstreamVeraSans-Roman-4f"/>
      <use x="462.5" xlink:href="#BitstreamVeraSans-Roman-43"/>
      <use x="532.32421875" xlink:href="#BitstreamVeraSans-Roman-20"/>
      <use x="564.111328125" xlink:href="#BitstreamVeraSans-Roman-63"/>
      <use x="619.091796875" xlink:href="#BitstreamVeraSans-Roman-75"/>
      <use x="682.470703125" xlink:href="#BitstreamVeraSans-Roman-72"/>
      <use x="723.583984375" xlink:href="#BitstreamVeraSans-Roman-76"/>
      <use x="782.763671875" xlink:href="#BitstreamVeraSans-Roman-65"/>
      <use x="844.287109375" xlink:href="#BitstreamVeraSans-Roman-20"/>
      <use x="876.07421875" xlink:href="#BitstreamVeraSans-Roman-2d"/>
      <use x="912.158203125" xlink:href="#BitstreamVeraSans-Roman-20"/>
      <use x="943.9453125" xlink:href="#BitstreamVeraSans-Roman-31"/>
      <use x="1007.568359375" xlink:href="#BitstreamVeraSans-Roman-20"/>
      <use x="1039.35546875" xlink:href="#BitstreamVeraSans-Roman-28"/>
      <use x="1078.369140625" xlink:href="#BitstreamVeraSans-Roman-41"/>
      <use x="1146.77734375" xlink:href="#BitstreamVeraSans-Roman-55"/>
      <use x="1219.970703125" xlink:href="#BitstreamVeraSans-Roman-43"/>
      <use x="1289.794921875" xlink:href="#BitstreamVeraSans-Roman-20"/>
      <use x="1321.58203125" xlink:href="#BitstreamVeraSans-Roman-3d"/>
      <use x="1405.37109375" xlink:href="#BitstreamVeraSans-Roman-20"/>
      <use x="1437.158203125" xlink:href="#BitstreamVeraSans-Roman-30"/>
      <use x="1500.78125" xlink:href="#BitstreamVeraSans-Roman-2e"/>
      <use x="1532.568359375" xlink:href="#BitstreamVeraSans-Roman-38"/>
      <use x="1596.19140625" xlink:href="#BitstreamVeraSans-Roman-34"/>
      <use x="1659.814453125" xlink:href="#BitstreamVeraSans-Roman-35"/>
      <use x="1723.4375" xlink:href="#BitstreamVeraSans-Roman-29"/>
     </g>
    </g>
    <g id="line2d_33">
     <path d="M 190.54425 363.87185 
L 210.70425 363.87185 
" style="fill:none;stroke:#ff0000;stroke-linecap:square;"/>
    </g>
    <g id="line2d_34"/>
    <g id="text_18">
     <!-- cometROC curve - 2 (AUC = 0.906) -->
     <defs>
      <path d="M 10.984375 1.515625 
L 10.984375 10.5 
Q 14.703125 8.734375 18.5 7.8125 
Q 22.3125 6.890625 25.984375 6.890625 
Q 35.75 6.890625 40.890625 13.453125 
Q 46.046875 20.015625 46.78125 33.40625 
Q 43.953125 29.203125 39.59375 26.953125 
Q 35.25 24.703125 29.984375 24.703125 
Q 19.046875 24.703125 12.671875 31.3125 
Q 6.296875 37.9375 6.296875 49.421875 
Q 6.296875 60.640625 12.9375 67.421875 
Q 19.578125 74.21875 30.609375 74.21875 
Q 43.265625 74.21875 49.921875 64.515625 
Q 56.59375 54.828125 56.59375 36.375 
Q 56.59375 19.140625 48.40625 8.859375 
Q 40.234375 -1.421875 26.421875 -1.421875 
Q 22.703125 -1.421875 18.890625 -0.6875 
Q 15.09375 0.046875 10.984375 1.515625 
M 30.609375 32.421875 
Q 37.25 32.421875 41.125 36.953125 
Q 45.015625 41.5 45.015625 49.421875 
Q 45.015625 57.28125 41.125 61.84375 
Q 37.25 66.40625 30.609375 66.40625 
Q 23.96875 66.40625 20.09375 61.84375 
Q 16.21875 57.28125 16.21875 49.421875 
Q 16.21875 41.5 20.09375 36.953125 
Q 23.96875 32.421875 30.609375 32.421875 
" id="BitstreamVeraSans-Roman-39"/>
     </defs>
     <g transform="translate(226.54425 368.91185)scale(0.144 -0.144)">
      <use xlink:href="#BitstreamVeraSans-Roman-63"/>
      <use x="54.98046875" xlink:href="#BitstreamVeraSans-Roman-6f"/>
      <use x="116.162109375" xlink:href="#BitstreamVeraSans-Roman-6d"/>
      <use x="213.57421875" xlink:href="#BitstreamVeraSans-Roman-65"/>
      <use x="275.09765625" xlink:href="#BitstreamVeraSans-Roman-74"/>
      <use x="314.306640625" xlink:href="#BitstreamVeraSans-Roman-52"/>
      <use x="383.7890625" xlink:href="#BitstreamVeraSans-Roman-4f"/>
      <use x="462.5" xlink:href="#BitstreamVeraSans-Roman-43"/>
      <use x="532.32421875" xlink:href="#BitstreamVeraSans-Roman-20"/>
      <use x="564.111328125" xlink:href="#BitstreamVeraSans-Roman-63"/>
      <use x="619.091796875" xlink:href="#BitstreamVeraSans-Roman-75"/>
      <use x="682.470703125" xlink:href="#BitstreamVeraSans-Roman-72"/>
      <use x="723.583984375" xlink:href="#BitstreamVeraSans-Roman-76"/>
      <use x="782.763671875" xlink:href="#BitstreamVeraSans-Roman-65"/>
      <use x="844.287109375" xlink:href="#BitstreamVeraSans-Roman-20"/>
      <use x="876.07421875" xlink:href="#BitstreamVeraSans-Roman-2d"/>
      <use x="912.158203125" xlink:href="#BitstreamVeraSans-Roman-20"/>
      <use x="943.9453125" xlink:href="#BitstreamVeraSans-Roman-32"/>
      <use x="1007.568359375" xlink:href="#BitstreamVeraSans-Roman-20"/>
      <use x="1039.35546875" xlink:href="#BitstreamVeraSans-Roman-28"/>
      <use x="1078.369140625" xlink:href="#BitstreamVeraSans-Roman-41"/>
      <use x="1146.77734375" xlink:href="#BitstreamVeraSans-Roman-55"/>
      <use x="1219.970703125" xlink:href="#BitstreamVeraSans-Roman-43"/>
      <use x="1289.794921875" xlink:href="#BitstreamVeraSans-Roman-20"/>
      <use x="1321.58203125" xlink:href="#BitstreamVeraSans-Roman-3d"/>
      <use x="1405.37109375" xlink:href="#BitstreamVeraSans-Roman-20"/>
      <use x="1437.158203125" xlink:href="#BitstreamVeraSans-Roman-30"/>
      <use x="1500.78125" xlink:href="#BitstreamVeraSans-Roman-2e"/>
      <use x="1532.568359375" xlink:href="#BitstreamVeraSans-Roman-39"/>
      <use x="1596.19140625" xlink:href="#BitstreamVeraSans-Roman-30"/>
      <use x="1659.814453125" xlink:href="#BitstreamVeraSans-Roman-36"/>
      <use x="1723.4375" xlink:href="#BitstreamVeraSans-Roman-29"/>
     </g>
    </g>
   </g>
  </g>
 </g>
 <defs>
  <clipPath id="paee8f93d9b">
   <rect height="345.6" width="446.4" x="46.8975" y="39.2666"/>
  </clipPath>
 </defs>
</svg>
