<?xml version="1.0" encoding="utf-8" standalone="no"?>
<!DOCTYPE svg PUBLIC "-//W3C//DTD SVG 1.1//EN"
  "http://www.w3.org/Graphics/SVG/1.1/DTD/svg11.dtd">
<!-- Created with matplotlib (http://matplotlib.org/) -->
<svg height="424pt" version="1.1" viewBox="0 0 510 424" width="510pt" xmlns="http://www.w3.org/2000/svg" xmlns:xlink="http://www.w3.org/1999/xlink">
 <defs>
  <style type="text/css">
*{stroke-linecap:butt;stroke-linejoin:round;stroke-miterlimit:100000;}
  </style>
 </defs>
 <g id="figure_1">
  <g id="patch_1">
   <path d="M 0 424.2941 
L 510.039375 424.2941 
L 510.039375 0 
L 0 0 
z
" style="fill:#ffffff;"/>
  </g>
  <g id="axes_1">
   <g id="patch_2">
    <path d="M 46.8975 384.8666 
L 493.2975 384.8666 
L 493.2975 39.2666 
L 46.8975 39.2666 
z
" style="fill:#ffffff;"/>
   </g>
   <g id="line2d_1">
    <path clip-path="url(#p6a619daa4e)" d="M 46.8975 384.8666 
L 47.737194 378.888977 
L 47.830493 378.888977 
L 52.224892 342.276037 
L 52.280872 340.781632 
L 53.120566 334.056806 
L 54.613355 328.826386 
L 54.706654 328.079183 
L 54.743974 325.837575 
L 55.023872 324.343169 
L 55.210471 324.343169 
L 56.050165 320.607155 
L 56.236763 320.607155 
L 56.423362 318.365546 
L 56.572641 316.87114 
L 56.66594 316.123937 
L 56.815219 314.629532 
L 56.908519 313.882329 
L 57.151097 310.146315 
L 57.337696 310.146315 
L 57.393675 308.651909 
L 57.766873 308.651909 
L 58.018781 305.663097 
L 58.16806 302.674286 
L 58.261359 302.674286 
L 58.615897 299.685475 
L 58.802495 299.685475 
L 58.895795 298.938272 
L 59.082393 298.938272 
L 59.175693 298.191069 
L 59.231672 296.696663 
L 59.51157 296.696663 
L 59.735489 294.455055 
L 60.108686 294.455055 
L 60.332604 292.213446 
L 60.612502 292.213446 
L 61.172298 287.730229 
L 62.011992 287.730229 
L 62.525139 283.994215 
L 63.056945 276.522186 
L 63.150244 275.774983 
L 63.71004 275.774983 
L 63.80334 275.401382 
L 64.176537 275.401382 
L 64.251176 274.654179 
L 64.624374 274.654179 
L 64.782983 273.159773 
L 65.249479 273.159773 
L 65.492058 270.170962 
L 65.678656 270.170962 
L 65.827935 267.929353 
L 65.921234 267.929353 
L 66.107833 266.434948 
L 66.55567 261.951731 
L 67.115466 261.951731 
L 67.339384 259.710122 
L 68.085779 259.710122 
L 68.337687 258.215716 
L 68.617585 258.215716 
L 68.766864 256.721311 
L 68.860164 255.974108 
L 69.140062 255.974108 
L 69.31733 255.226905 
L 69.597228 255.226905 
L 69.765167 253.732499 
L 70.138364 253.732499 
L 70.194344 252.238093 
L 70.567541 252.238093 
L 70.75414 250.743688 
L 71.127337 247.754876 
L 71.593834 247.754876 
L 71.668474 247.007673 
L 72.13497 247.007673 
L 72.396208 244.766065 
L 72.582807 244.766065 
L 72.825385 243.271659 
L 73.273222 241.030051 
L 74.486113 241.030051 
L 74.579413 240.282848 
L 74.95261 240.282848 
L 75.045909 238.788442 
L 75.232508 238.788442 
L 75.325807 237.294036 
L 75.512406 237.294036 
L 75.699005 234.305225 
L 75.978903 234.305225 
L 76.212151 231.690015 
L 76.492049 231.690015 
L 76.659988 230.942812 
L 76.846587 230.942812 
L 76.939886 230.195609 
L 77.089165 228.701204 
L 77.275764 225.712392 
L 77.555662 225.712392 
L 77.648961 224.217986 
L 78.955152 224.217986 
L 79.029791 223.470784 
L 79.21639 223.470784 
L 79.309689 222.723581 
L 80.335982 222.723581 
L 80.485261 220.108371 
L 80.57856 219.734769 
L 81.324955 219.734769 
L 81.511553 218.240364 
L 81.97805 218.240364 
L 82.425887 214.504349 
L 82.612486 214.504349 
L 82.705785 213.757146 
L 82.985683 213.757146 
L 83.060322 213.009944 
L 83.43352 213.009944 
L 83.508159 212.262741 
L 83.788057 212.262741 
L 83.862697 210.768335 
L 84.329193 210.768335 
L 84.478472 209.273929 
L 84.944969 208.526726 
L 85.038268 207.032321 
L 85.504765 207.032321 
L 85.598064 206.285118 
L 85.971262 206.285118 
L 86.325799 204.043509 
L 87.258792 204.043509 
L 87.501371 201.054698 
L 87.59467 201.054698 
L 87.66931 200.307495 
L 87.855908 200.307495 
L 87.930548 199.560292 
L 88.117146 199.560292 
L 88.434364 197.318684 
L 88.99416 197.318684 
L 89.255398 195.077075 
L 89.815194 195.077075 
L 89.889834 194.329872 
L 90.542929 194.329872 
L 90.636228 192.835467 
L 91.289324 192.835467 
L 91.382623 191.341061 
L 93.062011 191.341061 
L 93.117991 189.846655 
L 95.637073 189.846655 
L 95.711712 189.099452 
L 96.644706 189.099452 
L 96.719345 188.352249 
L 96.905944 188.352249 
L 96.999243 187.605047 
L 97.37244 187.605047 
L 97.46574 186.857844 
L 97.745638 186.857844 
L 97.838937 186.110641 
L 98.398733 186.110641 
L 98.566672 185.363438 
L 99.126468 185.363438 
L 99.219767 183.869032 
L 99.406366 183.869032 
L 99.462346 182.374627 
L 100.115441 182.374627 
L 100.20874 181.627424 
L 100.768536 181.627424 
L 100.917815 180.133018 
L 101.085754 178.638612 
L 102.018747 178.638612 
L 102.074727 177.144207 
L 102.821122 177.144207 
L 102.970401 175.649801 
L 104.089993 175.649801 
L 104.257931 174.155395 
L 105.097625 174.155395 
L 105.190925 173.408192 
L 106.310517 173.408192 
L 106.553095 170.04578 
L 107.20619 170.04578 
L 107.28083 168.551374 
L 107.467429 168.551374 
L 107.654027 167.056968 
L 107.933925 167.056968 
L 108.288463 165.562562 
L 108.512381 163.320954 
L 109.538674 163.320954 
L 109.687953 161.826548 
L 109.874551 160.332142 
L 110.06115 160.332142 
L 110.154449 159.58494 
L 110.210429 158.090534 
L 110.956824 158.090534 
L 111.012803 156.596128 
L 112.039096 156.596128 
L 112.132395 155.848925 
L 112.785491 155.848925 
L 112.953429 154.35452 
L 114.073021 154.35452 
L 114.147661 153.607317 
L 116.853342 153.607317 
L 117.09592 151.365708 
L 117.935614 151.365708 
L 118.010253 150.618505 
L 118.290151 150.618505 
L 118.570049 150.244904 
L 118.831288 148.750498 
L 119.577682 148.750498 
L 119.745621 148.003295 
L 120.678614 148.003295 
L 120.771914 147.256092 
L 122.451302 147.256092 
L 122.544601 145.761687 
L 123.850792 145.761687 
L 123.925431 145.014484 
L 124.485227 145.014484 
L 124.653166 144.267281 
L 124.933064 144.267281 
L 125.026363 143.520078 
L 125.063683 141.27847 
L 125.343581 141.27847 
L 125.418221 140.531267 
L 129.056895 140.531267 
L 129.131534 139.784064 
L 129.318133 139.784064 
L 129.374112 137.542455 
L 130.400405 137.542455 
L 130.493704 136.795253 
L 131.706596 136.795253 
L 131.855875 135.300847 
L 131.930514 134.553644 
L 132.863508 134.553644 
L 132.938147 133.806441 
L 136.950018 133.806441 
L 137.043318 133.059238 
L 138.909305 133.059238 
L 138.983944 131.938434 
L 140.103536 131.938434 
L 140.271475 131.191231 
L 143.070455 131.191231 
L 143.145094 130.444028 
L 145.19768 130.444028 
L 145.757476 129.696825 
L 152.754926 129.696825 
L 152.941525 125.960811 
L 155.274008 125.960811 
L 155.525916 124.466405 
L 163.083162 124.466405 
L 163.232441 122.972 
L 165.098428 122.972 
L 165.191727 122.598398 
L 165.378326 122.598398 
L 165.452965 121.851195 
L 165.919462 121.851195 
L 165.994102 121.103993 
L 166.460598 121.103993 
L 166.535238 120.35679 
L 180.110291 120.35679 
L 180.166271 118.115181 
L 190.335898 118.115181 
L 190.485177 116.620775 
L 193.377457 116.620775 
L 193.564055 115.873573 
L 200.188308 115.873573 
L 200.262947 115.12637 
L 200.636145 115.12637 
L 200.692124 113.631964 
L 203.677703 113.631964 
L 203.752343 112.884761 
L 210.563194 112.884761 
L 210.637834 112.137558 
L 211.850725 112.137558 
L 211.944024 111.763957 
L 213.716712 111.763957 
L 213.99661 110.269551 
L 214.743004 110.269551 
L 214.817644 109.522348 
L 218.456318 109.522348 
L 218.530957 108.775145 
L 222.449529 108.775145 
L 222.580148 106.533537 
L 226.61068 106.533537 
L 226.685319 105.786334 
L 229.577599 105.786334 
L 229.633578 104.291928 
L 231.872762 104.291928 
L 232.040701 103.544726 
L 232.787096 103.544726 
L 232.880395 99.808711 
L 233.066994 99.808711 
L 233.160293 99.061508 
L 236.052573 99.061508 
L 236.145872 96.8199 
L 236.985566 96.8199 
L 237.452063 96.072697 
L 237.82526 96.072697 
L 237.899899 95.325494 
L 240.232383 95.325494 
L 240.307022 94.578291 
L 241.240016 94.578291 
L 241.426614 94.20469 
L 241.799812 94.20469 
L 242.359608 93.457487 
L 255.328215 93.457487 
L 255.402855 92.710284 
L 260.161121 92.710284 
L 260.441019 92.336683 
L 260.907515 92.336683 
L 261.150094 90.842277 
L 263.202679 90.842277 
L 263.295978 87.106263 
L 264.928717 87.106263 
L 264.984696 85.611857 
L 275.900719 85.611857 
L 276.068657 84.864654 
L 281.946516 84.864654 
L 282.282393 82.623046 
L 282.468992 82.623046 
L 282.543631 81.875843 
L 288.887986 81.875843 
L 293.459654 81.12864 
L 293.534293 80.381437 
L 296.006725 80.381437 
L 296.081365 79.634234 
L 301.586026 79.634234 
L 301.660665 78.887031 
L 305.18738 78.887031 
L 305.26202 77.766227 
L 316.084742 77.766227 
L 316.159382 77.019024 
L 323.43673 77.019024 
L 323.697968 76.271821 
L 326.496948 76.271821 
L 326.571588 75.524618 
L 331.049956 75.524618 
L 331.217895 74.777416 
L 340.174631 74.777416 
L 340.26793 74.030213 
L 346.472336 74.030213 
L 346.565635 73.28301 
L 349.924411 73.28301 
L 350.017711 72.535807 
L 359.067746 72.535807 
L 359.440944 71.788604 
L 360.933733 71.788604 
L 361.120332 71.415003 
L 362.79972 71.415003 
L 362.893019 70.6678 
L 391.489265 70.6678 
L 391.582565 69.920597 
L 393.122004 69.920597 
L 393.6818 69.173394 
L 395.267888 69.173394 
L 395.342528 68.426191 
L 402.246679 68.426191 
L 402.993073 67.678989 
L 408.264486 67.678989 
L 408.992221 65.43738 
L 421.587631 65.43738 
L 421.77423 65.063779 
L 430.917564 65.063779 
L 431.010864 64.316576 
L 435.862429 64.316576 
L 437.355219 59.086156 
L 440.807294 59.086156 
L 445.752159 57.965351 
L 472.342469 57.965351 
L 472.529068 57.218149 
L 483.351791 57.218149 
L 483.42643 56.470946 
L 484.639322 56.470946 
L 484.713961 55.723743 
L 493.2975 55.723743 
L 493.2975 55.723743 
" style="fill:none;stroke:#0000ff;stroke-linecap:square;"/>
   </g>
   <g id="line2d_2">
    <path clip-path="url(#p6a619daa4e)" d="M 46.8975 384.8666 
L 46.990799 381.130586 
L 47.084099 379.63618 
L 47.270697 379.63618 
L 47.457296 374.40576 
L 47.550595 374.40576 
L 47.643895 370.669746 
L 47.830493 370.669746 
L 52.588759 331.815197 
L 52.775358 329.573589 
L 53.577732 323.595966 
L 53.671032 323.595966 
L 53.95093 320.607155 
L 54.137528 320.607155 
L 54.548046 318.365546 
L 54.641345 316.87114 
L 54.921243 316.87114 
L 55.107842 315.376735 
L 55.29444 315.376735 
L 55.443719 313.135126 
L 55.537018 313.135126 
L 55.816916 311.64072 
L 56.432692 309.399112 
L 56.470012 307.157503 
L 56.843209 307.157503 
L 56.917849 306.4103 
L 57.104447 306.4103 
L 57.440325 301.17988 
L 57.626924 301.17988 
L 57.720223 300.432678 
L 58.09342 300.432678 
L 58.280019 298.938272 
L 58.466618 298.938272 
L 58.709196 296.696663 
L 59.175693 296.696663 
L 59.660849 289.971838 
L 59.940747 289.971838 
L 60.220645 283.247012 
L 60.407244 283.247012 
L 60.593842 281.005403 
L 60.743121 278.763795 
L 61.023019 278.763795 
L 61.265598 275.774983 
L 61.452196 275.774983 
L 61.545496 274.280578 
L 61.732094 274.280578 
L 61.825394 272.786172 
L 62.011992 272.786172 
L 62.34787 267.555752 
L 62.814367 267.555752 
L 63.056945 264.566941 
L 63.430142 264.566941 
L 63.523442 263.819738 
L 63.80334 263.819738 
L 64.083238 260.830926 
L 64.176537 260.830926 
L 64.549734 256.347709 
L 64.643034 255.600506 
L 65.016231 255.600506 
L 65.221489 252.611695 
L 65.687986 252.611695 
L 66.061183 251.117289 
L 68.113769 251.117289 
L 68.356347 248.128478 
L 68.449646 248.128478 
L 68.524286 247.381275 
L 68.710885 247.381275 
L 68.766864 245.886869 
L 69.32666 245.886869 
L 69.41996 244.392463 
L 69.606558 244.392463 
L 69.699858 243.645261 
L 70.073055 243.645261 
L 70.166354 242.898058 
L 70.352953 242.898058 
L 70.446252 241.403652 
L 70.81945 241.403652 
L 70.875429 240.656449 
L 71.248627 240.656449 
L 71.621824 237.667638 
L 71.995021 237.667638 
L 72.088321 236.173232 
L 72.554817 236.173232 
L 72.610797 234.678826 
L 72.797395 234.678826 
L 73.039974 233.184421 
L 73.786368 233.184421 
L 73.972967 231.690015 
L 75.185858 231.690015 
L 75.633695 229.448406 
L 76.38009 229.448406 
L 76.566689 227.954001 
L 76.846587 227.206798 
L 77.406383 223.470784 
L 77.462362 221.976378 
L 77.928859 221.976378 
L 78.022158 220.481972 
L 78.749893 216.745958 
L 79.402988 216.745958 
L 79.682886 215.998755 
L 80.000104 213.009944 
L 80.373302 213.009944 
L 80.52258 211.515538 
L 80.989077 211.515538 
L 81.175676 210.021132 
L 81.362274 210.021132 
L 81.455574 209.273929 
L 82.201969 209.273929 
L 82.351247 207.779524 
L 82.537846 206.285118 
L 82.799084 204.043509 
L 83.041663 202.549104 
L 83.694758 202.549104 
L 83.750737 201.054698 
L 84.497132 201.054698 
L 84.571772 200.307495 
L 84.944969 200.307495 
L 85.000949 198.813089 
L 85.280847 198.813089 
L 85.355486 198.065887 
L 85.635384 198.065887 
L 85.821983 195.077075 
L 86.008581 195.077075 
L 86.568377 191.341061 
L 86.848275 191.341061 
L 86.941575 190.593858 
L 87.59467 190.593858 
L 87.762609 189.099452 
L 88.042507 189.099452 
L 88.117146 188.352249 
L 92.968712 188.352249 
L 93.24861 186.857844 
L 93.435208 186.857844 
L 93.509848 185.363438 
L 94.069644 185.363438 
L 94.62944 184.616235 
L 95.002637 180.133018 
L 96.215529 180.133018 
L 96.402127 178.638612 
L 96.570066 177.891409 
L 96.756665 177.144207 
L 96.943263 177.144207 
L 97.017903 176.397004 
L 98.88389 176.397004 
L 99.051828 175.649801 
L 102.130707 175.649801 
L 102.224006 174.902598 
L 105.116285 174.902598 
L 105.172265 173.408192 
L 108.904238 173.408192 
L 109.146817 171.913787 
L 109.408055 170.419381 
L 109.687953 170.419381 
L 109.781252 169.672178 
L 109.967851 169.672178 
L 110.154449 168.177772 
L 111.367341 168.177772 
L 111.44198 167.43057 
L 111.628579 167.43057 
L 111.684558 165.936164 
L 112.337654 165.936164 
L 112.430953 164.441758 
L 113.270647 164.441758 
L 113.363947 163.694555 
L 114.670137 163.694555 
L 114.744777 162.947352 
L 115.304573 162.947352 
L 115.379212 162.20015 
L 116.218906 162.20015 
L 116.386845 161.452947 
L 116.480144 160.705744 
L 117.319838 160.705744 
L 117.375818 159.211338 
L 118.588709 159.211338 
L 118.756648 157.716932 
L 119.036546 157.716932 
L 119.223145 156.96973 
L 119.409743 156.96973 
L 119.652322 154.728121 
L 120.118818 154.728121 
L 120.305417 153.980918 
L 121.518308 153.980918 
L 121.704907 152.486512 
L 123.384295 152.486512 
L 123.533574 150.992107 
L 125.026363 150.992107 
L 125.175642 149.1241 
L 125.735438 149.1241 
L 125.828738 148.376897 
L 126.015336 148.376897 
L 126.183275 147.629694 
L 126.463173 146.135288 
L 127.116269 146.135288 
L 127.209568 145.388085 
L 128.982255 145.388085 
L 129.150194 144.640882 
L 129.392772 142.399274 
L 130.045868 142.399274 
L 130.213806 140.904868 
L 134.039079 140.904868 
L 134.113719 140.157665 
L 134.393617 140.157665 
L 134.468256 139.410462 
L 137.360536 139.410462 
L 137.453835 138.66326 
L 138.666726 138.66326 
L 139.002604 135.674448 
L 141.241788 135.674448 
L 141.316427 134.927245 
L 141.876223 134.927245 
L 142.118802 133.43284 
L 142.212101 133.43284 
L 142.38004 131.938434 
L 143.592931 131.938434 
L 143.74221 130.444028 
L 147.94068 130.444028 
L 147.99666 128.949623 
L 148.183258 128.949623 
L 148.537796 128.20242 
L 149.750687 128.20242 
L 149.918626 127.455217 
L 150.105225 127.455217 
L 150.291823 125.960811 
L 154.322355 125.960811 
L 154.396994 125.213608 
L 155.889784 125.213608 
L 155.964423 124.466405 
L 157.83041 124.466405 
L 157.979689 122.972 
L 158.352886 122.972 
L 158.539485 121.477594 
L 162.271458 121.477594 
L 162.346098 120.730391 
L 165.424976 120.730391 
L 165.667554 118.488783 
L 168.279935 118.488783 
L 168.466534 117.74158 
L 168.746432 117.74158 
L 168.821071 116.994377 
L 169.660765 116.994377 
L 169.735405 116.247174 
L 173.094181 116.247174 
L 173.18748 115.499971 
L 178.132345 115.499971 
L 178.206985 114.752768 
L 179.233277 114.752768 
L 179.326577 114.005565 
L 179.513175 114.005565 
L 179.606475 113.258363 
L 181.192563 113.258363 
L 181.285863 112.51116 
L 181.65906 112.51116 
L 181.733699 111.763957 
L 182.853291 111.763957 
L 182.927931 111.016754 
L 186.006809 111.016754 
L 186.174748 110.269551 
L 188.040735 110.269551 
L 188.190013 108.775145 
L 190.522497 108.775145 
L 190.615796 108.027943 
L 195.74726 108.027943 
L 195.803239 106.533537 
L 196.922831 106.533537 
L 196.997471 105.786334 
L 199.609852 105.786334 
L 199.684492 105.039131 
L 199.87109 105.039131 
L 200.020369 103.544726 
L 200.300267 103.544726 
L 200.374907 103.171124 
L 203.173887 103.171124 
L 203.229866 101.676718 
L 205.655649 101.676718 
L 205.730289 100.929516 
L 208.622568 100.929516 
L 208.715867 100.182313 
L 210.768453 100.182313 
L 210.861752 99.43511 
L 214.687025 99.43511 
L 214.761664 98.687907 
L 219.986427 98.687907 
L 220.042407 97.193501 
L 220.508903 97.193501 
L 220.564883 95.699096 
L 231.201007 95.699096 
L 231.294306 94.951893 
L 236.892267 94.951893 
L 237.134845 93.457487 
L 241.146716 93.457487 
L 241.221356 92.710284 
L 243.833737 92.710284 
L 244.020336 91.963081 
L 251.81083 91.963081 
L 251.88547 91.215878 
L 253.098361 91.215878 
L 253.173001 90.468676 
L 253.546198 90.468676 
L 253.732797 89.721473 
L 257.837967 89.721473 
L 257.912607 88.97427 
L 266.402846 88.97427 
L 266.850683 88.227067 
L 270.396058 88.227067 
L 270.489357 86.732661 
L 278.5131 86.732661 
L 278.58774 85.985458 
L 284.838795 85.985458 
L 284.932094 85.238256 
L 296.221314 85.238256 
L 296.389253 84.491053 
L 299.020294 84.491053 
L 299.094933 83.74385 
L 301.520716 83.74385 
L 301.688655 82.996647 
L 305.775166 82.996647 
L 305.849805 82.249444 
L 307.902391 82.249444 
L 310.421473 81.502241 
L 312.753956 81.502241 
L 312.940555 80.755038 
L 314.99314 80.755038 
L 316.019433 79.260633 
L 324.397713 79.260633 
L 324.546992 77.766227 
L 324.640291 77.392626 
L 330.51815 77.392626 
L 330.611449 76.645423 
L 332.943932 76.645423 
L 333.037232 75.89822 
L 339.754784 75.89822 
L 340.22128 75.151017 
L 341.527471 75.151017 
L 341.993968 73.656611 
L 345.819241 73.656611 
L 346.845533 72.909408 
L 347.685227 72.909408 
L 347.871826 72.162206 
L 353.469786 72.162206 
L 353.544426 71.415003 
L 355.69031 71.415003 
L 356.250106 67.678989 
L 366.233135 67.678989 
L 366.606333 66.931786 
L 368.845517 66.931786 
L 369.013455 66.184583 
L 373.762392 66.184583 
L 373.93033 65.43738 
L 380.554583 65.43738 
L 380.834481 64.690177 
L 383.073665 64.690177 
L 383.633461 63.942974 
L 384.379856 63.942974 
L 384.473155 63.195771 
L 386.992237 63.195771 
L 387.365435 61.701366 
L 387.645333 61.701366 
L 387.738632 60.954163 
L 413.116051 60.954163 
L 413.190691 60.20696 
L 423.08042 60.20696 
L 423.15506 59.459757 
L 463.740271 59.459757 
L 463.81491 58.712554 
L 478.462906 58.712554 
L 478.556205 57.965351 
L 478.742804 57.965351 
L 478.836103 57.218149 
L 483.221172 57.218149 
L 483.314471 56.470946 
L 485.367056 56.470946 
L 485.460356 55.723743 
L 493.2975 55.723743 
L 493.2975 55.723743 
" style="fill:none;stroke:#008000;stroke-linecap:square;"/>
   </g>
   <g id="line2d_3">
    <path clip-path="url(#p6a619daa4e)" d="M 46.8975 384.8666 
L 47.084103 384.8666 
L 47.830513 379.630236 
L 48.017115 379.630236 
L 52.68218 342.975691 
L 54.361603 333.251016 
L 54.454904 331.754912 
L 54.548205 328.014652 
L 54.734808 326.518548 
L 54.828109 322.778288 
L 55.014712 322.778288 
L 55.481218 319.038029 
L 55.667821 319.038029 
L 55.947725 313.801665 
L 56.414231 310.809457 
L 56.600834 310.809457 
L 56.694135 309.313353 
L 57.440545 305.573094 
L 58.280257 305.573094 
L 58.429539 302.580886 
L 58.52284 302.580886 
L 58.989347 299.588678 
L 59.082648 299.588678 
L 59.175949 298.840626 
L 59.362552 298.840626 
L 59.549154 298.092574 
L 59.829058 297.344522 
L 59.97834 295.848418 
L 60.351545 295.848418 
L 60.538148 295.100366 
L 61.191257 294.352314 
L 61.284558 292.108158 
L 61.751065 292.108158 
L 61.937667 290.612055 
L 62.030968 289.864003 
L 62.217571 286.871795 
L 62.404174 286.871795 
L 62.590776 285.375691 
L 62.777379 285.375691 
L 63.057283 282.383483 
L 63.337186 282.383483 
L 63.59843 280.139327 
L 64.34484 280.139327 
L 64.494122 279.391275 
L 64.736706 277.147119 
L 64.830007 277.147119 
L 64.997949 274.902964 
L 65.277853 274.902964 
L 65.651058 271.910756 
L 66.677373 271.910756 
L 66.919956 268.918548 
L 67.106558 268.918548 
L 67.293161 267.422444 
L 68.226174 267.422444 
L 68.319475 265.92634 
L 68.506078 265.92634 
L 68.841962 264.05621 
L 68.935264 264.05621 
L 69.308469 261.812055 
L 69.40177 261.812055 
L 69.607033 258.071795 
L 69.886937 258.071795 
L 70.054879 257.323743 
L 70.14818 256.575691 
L 70.428084 256.575691 
L 70.521385 255.079587 
L 70.801289 255.079587 
L 70.83861 252.835431 
L 71.025212 252.835431 
L 71.454398 249.095171 
L 71.5477 247.599068 
L 72.014206 247.599068 
L 72.070187 246.102964 
L 72.350091 246.102964 
L 72.518033 245.354912 
L 72.797937 245.354912 
L 72.872578 244.60686 
L 73.339084 244.60686 
L 73.507027 243.858808 
L 73.693629 242.362704 
L 73.880232 242.362704 
L 74.272097 236.378288 
L 74.552001 236.378288 
L 74.869225 228.897769 
L 75.335732 228.897769 
L 75.391713 227.401665 
L 75.578315 226.653613 
L 75.95152 226.653613 
L 76.063482 223.661405 
L 76.809892 223.661405 
L 77.052475 222.165301 
L 77.332379 222.165301 
L 77.481661 220.669197 
L 77.556302 220.295171 
L 77.649604 218.799068 
L 77.836206 218.799068 
L 78.022809 218.051016 
L 78.284052 213.562704 
L 78.470655 213.562704 
L 78.526636 212.0666 
L 78.713238 212.0666 
L 78.899841 210.570496 
L 79.086443 210.570496 
L 79.179745 209.822444 
L 79.55295 209.822444 
L 79.720892 207.578288 
L 79.814193 207.578288 
L 79.907495 206.082184 
L 80.187399 206.082184 
L 80.336681 204.586081 
L 80.98979 204.586081 
L 81.101751 201.593873 
L 81.288354 201.593873 
L 81.381655 201.219847 
L 81.530937 198.227639 
L 81.904142 198.227639 
L 81.960123 196.731535 
L 82.146726 196.731535 
L 82.296008 193.739327 
L 84.535239 193.739327 
L 84.62854 192.991275 
L 85.188348 192.991275 
L 85.318969 190.747119 
L 85.598873 187.754912 
L 86.718489 187.754912 
L 86.79313 187.00686 
L 87.073033 187.00686 
L 87.166335 186.258808 
L 87.352937 186.258808 
L 87.427578 185.510756 
L 87.614181 185.510756 
L 87.800784 182.518548 
L 88.080687 182.518548 
L 88.173989 181.770496 
L 88.733796 181.770496 
L 88.901739 180.274392 
L 90.301258 180.274392 
L 90.45054 178.778288 
L 90.917046 178.778288 
L 91.19695 175.786081 
L 91.271591 175.038029 
L 91.831399 175.038029 
L 91.88738 173.541925 
L 92.073982 173.541925 
L 92.129963 172.045821 
L 92.316566 172.045821 
L 92.391207 171.297769 
L 92.671111 171.297769 
L 92.727091 169.801665 
L 95.432829 169.801665 
L 95.582111 167.557509 
L 96.23522 167.557509 
L 96.2912 166.061405 
L 96.664406 166.061405 
L 96.757707 165.313353 
L 96.944309 165.313353 
L 97.056271 162.321145 
L 97.522777 162.321145 
L 97.69072 161.573094 
L 98.063925 161.573094 
L 98.157226 160.825042 
L 98.343829 160.825042 
L 98.43713 160.07699 
L 99.650047 160.07699 
L 99.724688 159.328938 
L 100.097893 159.328938 
L 100.191194 158.580886 
L 100.377797 158.580886 
L 100.471098 157.832834 
L 101.31081 157.832834 
L 101.404111 157.084782 
L 103.643342 157.084782 
L 103.717983 156.33673 
L 104.184489 156.33673 
L 104.371092 154.092574 
L 104.9309 154.092574 
L 105.098842 153.344522 
L 105.360085 151.848418 
L 105.639989 151.848418 
L 105.71463 151.474392 
L 106.087835 151.474392 
L 106.181137 150.72634 
L 106.461041 150.72634 
L 106.517021 149.230236 
L 108.56965 149.230236 
L 108.644291 148.482184 
L 109.857207 148.482184 
L 109.950509 146.986081 
L 110.323714 146.986081 
L 110.398355 146.238029 
L 110.678259 146.238029 
L 110.7529 144.741925 
L 112.059118 144.741925 
L 112.152419 143.993873 
L 112.339022 143.993873 
L 112.432323 143.245821 
L 112.618925 143.245821 
L 112.712227 142.871795 
L 113.365336 142.871795 
L 113.533278 141.375691 
L 114.466291 141.375691 
L 114.540932 140.627639 
L 115.194041 140.627639 
L 115.268682 139.879587 
L 117.041406 139.879587 
L 117.116047 139.131535 
L 119.355278 139.131535 
L 119.429919 138.383483 
L 121.034701 138.383483 
L 121.128003 137.635431 
L 122.434221 137.635431 
L 122.508862 136.887379 
L 124.468189 136.887379 
L 124.54283 136.139327 
L 132.380138 136.139327 
L 132.454779 135.391275 
L 132.827984 135.391275 
L 132.921285 133.895171 
L 133.107888 133.895171 
L 133.201189 133.521145 
L 133.29449 132.025042 
L 134.880612 132.025042 
L 134.973913 131.27699 
L 135.029894 129.780886 
L 137.175824 129.780886 
L 137.250465 129.032834 
L 138.743285 129.032834 
L 138.817926 128.284782 
L 140.217446 128.284782 
L 140.292087 127.53673 
L 143.650933 127.53673 
L 143.744234 126.788678 
L 144.304042 126.788678 
L 144.397343 125.292574 
L 145.516959 125.292574 
L 145.5916 124.544522 
L 147.177722 124.544522 
L 147.252363 123.79647 
L 148.092074 123.79647 
L 148.185375 123.048418 
L 148.651882 123.048418 
L 148.745183 122.300366 
L 152.010728 122.300366 
L 152.104029 121.552314 
L 152.663837 121.552314 
L 152.85044 120.804262 
L 157.328901 120.804262 
L 157.422203 120.05621 
L 158.075312 120.05621 
L 158.168613 119.308158 
L 160.687748 119.308158 
L 160.87435 118.560106 
L 168.431754 118.560106 
L 168.599697 117.812055 
L 172.798255 117.812055 
L 172.984857 117.438029 
L 174.850883 117.438029 
L 174.925524 116.689977 
L 176.231742 116.689977 
L 176.474325 115.193873 
L 176.84753 115.193873 
L 176.903511 113.697769 
L 179.70255 113.697769 
L 179.870492 112.949717 
L 179.963793 112.201665 
L 180.4303 112.201665 
L 180.504941 111.453613 
L 184.610197 111.453613 
L 184.684838 110.705561 
L 185.897755 110.705561 
L 185.972396 109.957509 
L 187.74512 109.957509 
L 187.838422 109.209457 
L 191.197268 109.209457 
L 191.290569 108.461405 
L 195.769031 108.461405 
L 195.862332 107.713353 
L 199.127877 107.713353 
L 199.202518 106.965301 
L 201.53505 106.965301 
L 201.628352 106.217249 
L 208.06614 106.217249 
L 208.159442 105.469197 
L 215.436942 105.469197 
L 215.511583 104.721145 
L 217.097705 104.721145 
L 217.340288 103.225042 
L 221.258942 103.225042 
L 221.333583 102.47699 
L 221.706788 102.47699 
L 221.893391 101.728938 
L 224.972333 101.728938 
L 225.065635 100.980886 
L 227.211564 100.980886 
L 227.267545 99.484782 
L 230.253186 99.484782 
L 230.327827 98.73673 
L 231.634045 98.73673 
L 231.708686 97.988678 
L 234.694327 97.988678 
L 234.768968 97.240626 
L 236.261789 97.240626 
L 236.33643 96.492574 
L 241.468001 96.492574 
L 241.561302 95.744522 
L 246.412969 95.744522 
L 246.50627 94.99647 
L 248.185693 94.99647 
L 248.260334 94.248418 
L 252.178988 94.248418 
L 252.272289 92.752314 
L 253.298604 92.752314 
L 253.391905 92.004262 
L 260.856008 92.004262 
L 260.949309 91.630236 
L 268.394752 91.630236 
L 268.488053 90.882184 
L 272.500008 90.882184 
L 272.593309 89.386081 
L 281.923438 89.386081 
L 281.998079 88.638029 
L 286.010034 88.638029 
L 286.084675 87.889977 
L 290.096631 87.889977 
L 290.189932 87.141925 
L 295.1349 87.141925 
L 295.228201 86.393873 
L 299.799964 86.393873 
L 299.874605 85.645821 
L 303.793259 85.645821 
L 303.961202 84.149717 
L 323.927677 84.149717 
L 324.114279 83.401665 
L 327.193222 83.401665 
L 327.286523 82.653613 
L 329.059247 82.653613 
L 329.507093 81.905561 
L 334.078856 81.905561 
L 334.172158 81.157509 
L 336.616651 81.157509 
L 336.691292 80.409457 
L 336.877895 80.409457 
L 337.139139 79.661405 
L 337.885549 79.661405 
L 337.97885 78.913353 
L 343.110421 78.913353 
L 343.185062 78.165301 
L 363.058236 78.165301 
L 363.244838 77.417249 
L 364.644358 77.417249 
L 364.83096 76.669197 
L 365.624021 76.669197 
L 365.698662 75.921145 
L 375.6819 75.921145 
L 376.055105 74.425042 
L 379.787156 74.425042 
L 380.346964 73.67699 
L 385.254612 73.67699 
L 385.329253 72.928938 
L 391.767041 72.928938 
L 391.860343 72.180886 
L 398.466074 72.180886 
L 398.540715 71.432834 
L 401.059849 71.432834 
L 401.13449 70.684782 
L 426.325837 70.684782 
L 427.352151 68.440626 
L 429.498081 68.440626 
L 433.510036 66.19647 
L 435.469363 66.19647 
L 435.590655 65.448418 
L 447.906425 65.448418 
L 447.999726 64.700366 
L 458.776024 64.700366 
L 459.429133 63.204262 
L 465.307114 63.204262 
L 465.363095 61.708158 
L 465.549698 61.708158 
L 465.624339 60.960106 
L 473.181743 60.960106 
L 473.349685 60.212055 
L 475.029108 60.212055 
L 475.588916 56.471795 
L 490.797026 56.471795 
L 490.871667 55.723743 
L 493.2975 55.723743 
L 493.2975 55.723743 
" style="fill:none;stroke:#ff0000;stroke-linecap:square;"/>
   </g>
   <g id="line2d_4">
    <path clip-path="url(#p6a619daa4e)" d="M 46.8975 384.8666 
L 493.2975 55.723743 
" style="fill:none;stroke:#000000;stroke-dasharray:6.000000,6.000000;stroke-dashoffset:0.0;"/>
   </g>
   <g id="patch_3">
    <path d="M 46.8975 384.8666 
L 46.8975 39.2666 
" style="fill:none;stroke:#000000;stroke-linecap:square;stroke-linejoin:miter;"/>
   </g>
   <g id="patch_4">
    <path d="M 493.2975 384.8666 
L 493.2975 39.2666 
" style="fill:none;stroke:#000000;stroke-linecap:square;stroke-linejoin:miter;"/>
   </g>
   <g id="patch_5">
    <path d="M 46.8975 39.2666 
L 493.2975 39.2666 
" style="fill:none;stroke:#000000;stroke-linecap:square;stroke-linejoin:miter;"/>
   </g>
   <g id="patch_6">
    <path d="M 46.8975 384.8666 
L 493.2975 384.8666 
" style="fill:none;stroke:#000000;stroke-linecap:square;stroke-linejoin:miter;"/>
   </g>
   <g id="matplotlib.axis_1">
    <g id="xtick_1">
     <g id="line2d_5">
      <defs>
       <path d="M 0 0 
L 0 -4 
" id="m09b9fc4c59" style="stroke:#000000;stroke-width:0.5;"/>
      </defs>
      <g>
       <use style="stroke:#000000;stroke-width:0.5;" x="46.8975" xlink:href="#m09b9fc4c59" y="384.8666"/>
      </g>
     </g>
     <g id="line2d_6">
      <defs>
       <path d="M 0 0 
L 0 4 
" id="m56bdadbc83" style="stroke:#000000;stroke-width:0.5;"/>
      </defs>
      <g>
       <use style="stroke:#000000;stroke-width:0.5;" x="46.8975" xlink:href="#m56bdadbc83" y="39.2666"/>
      </g>
     </g>
     <g id="text_1">
      <!-- 0.0 -->
      <defs>
       <path d="M 31.78125 66.40625 
Q 24.171875 66.40625 20.328125 58.90625 
Q 16.5 51.421875 16.5 36.375 
Q 16.5 21.390625 20.328125 13.890625 
Q 24.171875 6.390625 31.78125 6.390625 
Q 39.453125 6.390625 43.28125 13.890625 
Q 47.125 21.390625 47.125 36.375 
Q 47.125 51.421875 43.28125 58.90625 
Q 39.453125 66.40625 31.78125 66.40625 
M 31.78125 74.21875 
Q 44.046875 74.21875 50.515625 64.515625 
Q 56.984375 54.828125 56.984375 36.375 
Q 56.984375 17.96875 50.515625 8.265625 
Q 44.046875 -1.421875 31.78125 -1.421875 
Q 19.53125 -1.421875 13.0625 8.265625 
Q 6.59375 17.96875 6.59375 36.375 
Q 6.59375 54.828125 13.0625 64.515625 
Q 19.53125 74.21875 31.78125 74.21875 
" id="BitstreamVeraSans-Roman-30"/>
       <path d="M 10.6875 12.40625 
L 21 12.40625 
L 21 0 
L 10.6875 0 
z
" id="BitstreamVeraSans-Roman-2e"/>
      </defs>
      <g transform="translate(37.355625 397.984725)scale(0.12 -0.12)">
       <use xlink:href="#BitstreamVeraSans-Roman-30"/>
       <use x="63.623046875" xlink:href="#BitstreamVeraSans-Roman-2e"/>
       <use x="95.41015625" xlink:href="#BitstreamVeraSans-Roman-30"/>
      </g>
     </g>
    </g>
    <g id="xtick_2">
     <g id="line2d_7">
      <g>
       <use style="stroke:#000000;stroke-width:0.5;" x="136.1775" xlink:href="#m09b9fc4c59" y="384.8666"/>
      </g>
     </g>
     <g id="line2d_8">
      <g>
       <use style="stroke:#000000;stroke-width:0.5;" x="136.1775" xlink:href="#m56bdadbc83" y="39.2666"/>
      </g>
     </g>
     <g id="text_2">
      <!-- 0.2 -->
      <defs>
       <path d="M 19.1875 8.296875 
L 53.609375 8.296875 
L 53.609375 0 
L 7.328125 0 
L 7.328125 8.296875 
Q 12.9375 14.109375 22.625 23.890625 
Q 32.328125 33.6875 34.8125 36.53125 
Q 39.546875 41.84375 41.421875 45.53125 
Q 43.3125 49.21875 43.3125 52.78125 
Q 43.3125 58.59375 39.234375 62.25 
Q 35.15625 65.921875 28.609375 65.921875 
Q 23.96875 65.921875 18.8125 64.3125 
Q 13.671875 62.703125 7.8125 59.421875 
L 7.8125 69.390625 
Q 13.765625 71.78125 18.9375 73 
Q 24.125 74.21875 28.421875 74.21875 
Q 39.75 74.21875 46.484375 68.546875 
Q 53.21875 62.890625 53.21875 53.421875 
Q 53.21875 48.921875 51.53125 44.890625 
Q 49.859375 40.875 45.40625 35.40625 
Q 44.1875 33.984375 37.640625 27.21875 
Q 31.109375 20.453125 19.1875 8.296875 
" id="BitstreamVeraSans-Roman-32"/>
      </defs>
      <g transform="translate(126.635625 397.984725)scale(0.12 -0.12)">
       <use xlink:href="#BitstreamVeraSans-Roman-30"/>
       <use x="63.623046875" xlink:href="#BitstreamVeraSans-Roman-2e"/>
       <use x="95.41015625" xlink:href="#BitstreamVeraSans-Roman-32"/>
      </g>
     </g>
    </g>
    <g id="xtick_3">
     <g id="line2d_9">
      <g>
       <use style="stroke:#000000;stroke-width:0.5;" x="225.4575" xlink:href="#m09b9fc4c59" y="384.8666"/>
      </g>
     </g>
     <g id="line2d_10">
      <g>
       <use style="stroke:#000000;stroke-width:0.5;" x="225.4575" xlink:href="#m56bdadbc83" y="39.2666"/>
      </g>
     </g>
     <g id="text_3">
      <!-- 0.4 -->
      <defs>
       <path d="M 37.796875 64.3125 
L 12.890625 25.390625 
L 37.796875 25.390625 
z
M 35.203125 72.90625 
L 47.609375 72.90625 
L 47.609375 25.390625 
L 58.015625 25.390625 
L 58.015625 17.1875 
L 47.609375 17.1875 
L 47.609375 0 
L 37.796875 0 
L 37.796875 17.1875 
L 4.890625 17.1875 
L 4.890625 26.703125 
z
" id="BitstreamVeraSans-Roman-34"/>
      </defs>
      <g transform="translate(215.915625 397.984725)scale(0.12 -0.12)">
       <use xlink:href="#BitstreamVeraSans-Roman-30"/>
       <use x="63.623046875" xlink:href="#BitstreamVeraSans-Roman-2e"/>
       <use x="95.41015625" xlink:href="#BitstreamVeraSans-Roman-34"/>
      </g>
     </g>
    </g>
    <g id="xtick_4">
     <g id="line2d_11">
      <g>
       <use style="stroke:#000000;stroke-width:0.5;" x="314.7375" xlink:href="#m09b9fc4c59" y="384.8666"/>
      </g>
     </g>
     <g id="line2d_12">
      <g>
       <use style="stroke:#000000;stroke-width:0.5;" x="314.7375" xlink:href="#m56bdadbc83" y="39.2666"/>
      </g>
     </g>
     <g id="text_4">
      <!-- 0.6 -->
      <defs>
       <path d="M 33.015625 40.375 
Q 26.375 40.375 22.484375 35.828125 
Q 18.609375 31.296875 18.609375 23.390625 
Q 18.609375 15.53125 22.484375 10.953125 
Q 26.375 6.390625 33.015625 6.390625 
Q 39.65625 6.390625 43.53125 10.953125 
Q 47.40625 15.53125 47.40625 23.390625 
Q 47.40625 31.296875 43.53125 35.828125 
Q 39.65625 40.375 33.015625 40.375 
M 52.59375 71.296875 
L 52.59375 62.3125 
Q 48.875 64.0625 45.09375 64.984375 
Q 41.3125 65.921875 37.59375 65.921875 
Q 27.828125 65.921875 22.671875 59.328125 
Q 17.53125 52.734375 16.796875 39.40625 
Q 19.671875 43.65625 24.015625 45.921875 
Q 28.375 48.1875 33.59375 48.1875 
Q 44.578125 48.1875 50.953125 41.515625 
Q 57.328125 34.859375 57.328125 23.390625 
Q 57.328125 12.15625 50.6875 5.359375 
Q 44.046875 -1.421875 33.015625 -1.421875 
Q 20.359375 -1.421875 13.671875 8.265625 
Q 6.984375 17.96875 6.984375 36.375 
Q 6.984375 53.65625 15.1875 63.9375 
Q 23.390625 74.21875 37.203125 74.21875 
Q 40.921875 74.21875 44.703125 73.484375 
Q 48.484375 72.75 52.59375 71.296875 
" id="BitstreamVeraSans-Roman-36"/>
      </defs>
      <g transform="translate(305.195625 397.984725)scale(0.12 -0.12)">
       <use xlink:href="#BitstreamVeraSans-Roman-30"/>
       <use x="63.623046875" xlink:href="#BitstreamVeraSans-Roman-2e"/>
       <use x="95.41015625" xlink:href="#BitstreamVeraSans-Roman-36"/>
      </g>
     </g>
    </g>
    <g id="xtick_5">
     <g id="line2d_13">
      <g>
       <use style="stroke:#000000;stroke-width:0.5;" x="404.0175" xlink:href="#m09b9fc4c59" y="384.8666"/>
      </g>
     </g>
     <g id="line2d_14">
      <g>
       <use style="stroke:#000000;stroke-width:0.5;" x="404.0175" xlink:href="#m56bdadbc83" y="39.2666"/>
      </g>
     </g>
     <g id="text_5">
      <!-- 0.8 -->
      <defs>
       <path d="M 31.78125 34.625 
Q 24.75 34.625 20.71875 30.859375 
Q 16.703125 27.09375 16.703125 20.515625 
Q 16.703125 13.921875 20.71875 10.15625 
Q 24.75 6.390625 31.78125 6.390625 
Q 38.8125 6.390625 42.859375 10.171875 
Q 46.921875 13.96875 46.921875 20.515625 
Q 46.921875 27.09375 42.890625 30.859375 
Q 38.875 34.625 31.78125 34.625 
M 21.921875 38.8125 
Q 15.578125 40.375 12.03125 44.71875 
Q 8.5 49.078125 8.5 55.328125 
Q 8.5 64.0625 14.71875 69.140625 
Q 20.953125 74.21875 31.78125 74.21875 
Q 42.671875 74.21875 48.875 69.140625 
Q 55.078125 64.0625 55.078125 55.328125 
Q 55.078125 49.078125 51.53125 44.71875 
Q 48 40.375 41.703125 38.8125 
Q 48.828125 37.15625 52.796875 32.3125 
Q 56.78125 27.484375 56.78125 20.515625 
Q 56.78125 9.90625 50.3125 4.234375 
Q 43.84375 -1.421875 31.78125 -1.421875 
Q 19.734375 -1.421875 13.25 4.234375 
Q 6.78125 9.90625 6.78125 20.515625 
Q 6.78125 27.484375 10.78125 32.3125 
Q 14.796875 37.15625 21.921875 38.8125 
M 18.3125 54.390625 
Q 18.3125 48.734375 21.84375 45.5625 
Q 25.390625 42.390625 31.78125 42.390625 
Q 38.140625 42.390625 41.71875 45.5625 
Q 45.3125 48.734375 45.3125 54.390625 
Q 45.3125 60.0625 41.71875 63.234375 
Q 38.140625 66.40625 31.78125 66.40625 
Q 25.390625 66.40625 21.84375 63.234375 
Q 18.3125 60.0625 18.3125 54.390625 
" id="BitstreamVeraSans-Roman-38"/>
      </defs>
      <g transform="translate(394.475625 397.984725)scale(0.12 -0.12)">
       <use xlink:href="#BitstreamVeraSans-Roman-30"/>
       <use x="63.623046875" xlink:href="#BitstreamVeraSans-Roman-2e"/>
       <use x="95.41015625" xlink:href="#BitstreamVeraSans-Roman-38"/>
      </g>
     </g>
    </g>
    <g id="xtick_6">
     <g id="line2d_15">
      <g>
       <use style="stroke:#000000;stroke-width:0.5;" x="493.2975" xlink:href="#m09b9fc4c59" y="384.8666"/>
      </g>
     </g>
     <g id="line2d_16">
      <g>
       <use style="stroke:#000000;stroke-width:0.5;" x="493.2975" xlink:href="#m56bdadbc83" y="39.2666"/>
      </g>
     </g>
     <g id="text_6">
      <!-- 1.0 -->
      <defs>
       <path d="M 12.40625 8.296875 
L 28.515625 8.296875 
L 28.515625 63.921875 
L 10.984375 60.40625 
L 10.984375 69.390625 
L 28.421875 72.90625 
L 38.28125 72.90625 
L 38.28125 8.296875 
L 54.390625 8.296875 
L 54.390625 0 
L 12.40625 0 
z
" id="BitstreamVeraSans-Roman-31"/>
      </defs>
      <g transform="translate(483.755625 397.984725)scale(0.12 -0.12)">
       <use xlink:href="#BitstreamVeraSans-Roman-31"/>
       <use x="63.623046875" xlink:href="#BitstreamVeraSans-Roman-2e"/>
       <use x="95.41015625" xlink:href="#BitstreamVeraSans-Roman-30"/>
      </g>
     </g>
    </g>
    <g id="text_7">
     <!-- False Positive Rate -->
     <defs>
      <path d="M 18.3125 70.21875 
L 18.3125 54.6875 
L 36.8125 54.6875 
L 36.8125 47.703125 
L 18.3125 47.703125 
L 18.3125 18.015625 
Q 18.3125 11.328125 20.140625 9.421875 
Q 21.96875 7.515625 27.59375 7.515625 
L 36.8125 7.515625 
L 36.8125 0 
L 27.59375 0 
Q 17.1875 0 13.234375 3.875 
Q 9.28125 7.765625 9.28125 18.015625 
L 9.28125 47.703125 
L 2.6875 47.703125 
L 2.6875 54.6875 
L 9.28125 54.6875 
L 9.28125 70.21875 
z
" id="BitstreamVeraSans-Roman-74"/>
      <path d="M 44.390625 34.1875 
Q 47.5625 33.109375 50.5625 29.59375 
Q 53.5625 26.078125 56.59375 19.921875 
L 66.609375 0 
L 56 0 
L 46.6875 18.703125 
Q 43.0625 26.03125 39.671875 28.421875 
Q 36.28125 30.8125 30.421875 30.8125 
L 19.671875 30.8125 
L 19.671875 0 
L 9.8125 0 
L 9.8125 72.90625 
L 32.078125 72.90625 
Q 44.578125 72.90625 50.734375 67.671875 
Q 56.890625 62.453125 56.890625 51.90625 
Q 56.890625 45.015625 53.6875 40.46875 
Q 50.484375 35.9375 44.390625 34.1875 
M 19.671875 64.796875 
L 19.671875 38.921875 
L 32.078125 38.921875 
Q 39.203125 38.921875 42.84375 42.21875 
Q 46.484375 45.515625 46.484375 51.90625 
Q 46.484375 58.296875 42.84375 61.546875 
Q 39.203125 64.796875 32.078125 64.796875 
z
" id="BitstreamVeraSans-Roman-52"/>
      <path d="M 2.984375 54.6875 
L 12.5 54.6875 
L 29.59375 8.796875 
L 46.6875 54.6875 
L 56.203125 54.6875 
L 35.6875 0 
L 23.484375 0 
z
" id="BitstreamVeraSans-Roman-76"/>
      <path d="M 9.8125 72.90625 
L 51.703125 72.90625 
L 51.703125 64.59375 
L 19.671875 64.59375 
L 19.671875 43.109375 
L 48.578125 43.109375 
L 48.578125 34.8125 
L 19.671875 34.8125 
L 19.671875 0 
L 9.8125 0 
z
" id="BitstreamVeraSans-Roman-46"/>
      <path d="M 19.671875 64.796875 
L 19.671875 37.40625 
L 32.078125 37.40625 
Q 38.96875 37.40625 42.71875 40.96875 
Q 46.484375 44.53125 46.484375 51.125 
Q 46.484375 57.671875 42.71875 61.234375 
Q 38.96875 64.796875 32.078125 64.796875 
z
M 9.8125 72.90625 
L 32.078125 72.90625 
Q 44.34375 72.90625 50.609375 67.359375 
Q 56.890625 61.8125 56.890625 51.125 
Q 56.890625 40.328125 50.609375 34.8125 
Q 44.34375 29.296875 32.078125 29.296875 
L 19.671875 29.296875 
L 19.671875 0 
L 9.8125 0 
z
" id="BitstreamVeraSans-Roman-50"/>
      <path d="M 30.609375 48.390625 
Q 23.390625 48.390625 19.1875 42.75 
Q 14.984375 37.109375 14.984375 27.296875 
Q 14.984375 17.484375 19.15625 11.84375 
Q 23.34375 6.203125 30.609375 6.203125 
Q 37.796875 6.203125 41.984375 11.859375 
Q 46.1875 17.53125 46.1875 27.296875 
Q 46.1875 37.015625 41.984375 42.703125 
Q 37.796875 48.390625 30.609375 48.390625 
M 30.609375 56 
Q 42.328125 56 49.015625 48.375 
Q 55.71875 40.765625 55.71875 27.296875 
Q 55.71875 13.875 49.015625 6.21875 
Q 42.328125 -1.421875 30.609375 -1.421875 
Q 18.84375 -1.421875 12.171875 6.21875 
Q 5.515625 13.875 5.515625 27.296875 
Q 5.515625 40.765625 12.171875 48.375 
Q 18.84375 56 30.609375 56 
" id="BitstreamVeraSans-Roman-6f"/>
      <path d="M 44.28125 53.078125 
L 44.28125 44.578125 
Q 40.484375 46.53125 36.375 47.5 
Q 32.28125 48.484375 27.875 48.484375 
Q 21.1875 48.484375 17.84375 46.4375 
Q 14.5 44.390625 14.5 40.28125 
Q 14.5 37.15625 16.890625 35.375 
Q 19.28125 33.59375 26.515625 31.984375 
L 29.59375 31.296875 
Q 39.15625 29.25 43.1875 25.515625 
Q 47.21875 21.78125 47.21875 15.09375 
Q 47.21875 7.46875 41.1875 3.015625 
Q 35.15625 -1.421875 24.609375 -1.421875 
Q 20.21875 -1.421875 15.453125 -0.5625 
Q 10.6875 0.296875 5.421875 2 
L 5.421875 11.28125 
Q 10.40625 8.6875 15.234375 7.390625 
Q 20.0625 6.109375 24.8125 6.109375 
Q 31.15625 6.109375 34.5625 8.28125 
Q 37.984375 10.453125 37.984375 14.40625 
Q 37.984375 18.0625 35.515625 20.015625 
Q 33.0625 21.96875 24.703125 23.78125 
L 21.578125 24.515625 
Q 13.234375 26.265625 9.515625 29.90625 
Q 5.8125 33.546875 5.8125 39.890625 
Q 5.8125 47.609375 11.28125 51.796875 
Q 16.75 56 26.8125 56 
Q 31.78125 56 36.171875 55.265625 
Q 40.578125 54.546875 44.28125 53.078125 
" id="BitstreamVeraSans-Roman-73"/>
      <path id="BitstreamVeraSans-Roman-20"/>
      <path d="M 56.203125 29.59375 
L 56.203125 25.203125 
L 14.890625 25.203125 
Q 15.484375 15.921875 20.484375 11.0625 
Q 25.484375 6.203125 34.421875 6.203125 
Q 39.59375 6.203125 44.453125 7.46875 
Q 49.3125 8.734375 54.109375 11.28125 
L 54.109375 2.78125 
Q 49.265625 0.734375 44.1875 -0.34375 
Q 39.109375 -1.421875 33.890625 -1.421875 
Q 20.796875 -1.421875 13.15625 6.1875 
Q 5.515625 13.8125 5.515625 26.8125 
Q 5.515625 40.234375 12.765625 48.109375 
Q 20.015625 56 32.328125 56 
Q 43.359375 56 49.78125 48.890625 
Q 56.203125 41.796875 56.203125 29.59375 
M 47.21875 32.234375 
Q 47.125 39.59375 43.09375 43.984375 
Q 39.0625 48.390625 32.421875 48.390625 
Q 24.90625 48.390625 20.390625 44.140625 
Q 15.875 39.890625 15.1875 32.171875 
z
" id="BitstreamVeraSans-Roman-65"/>
      <path d="M 9.421875 54.6875 
L 18.40625 54.6875 
L 18.40625 0 
L 9.421875 0 
z
M 9.421875 75.984375 
L 18.40625 75.984375 
L 18.40625 64.59375 
L 9.421875 64.59375 
z
" id="BitstreamVeraSans-Roman-69"/>
      <path d="M 34.28125 27.484375 
Q 23.390625 27.484375 19.1875 25 
Q 14.984375 22.515625 14.984375 16.5 
Q 14.984375 11.71875 18.140625 8.90625 
Q 21.296875 6.109375 26.703125 6.109375 
Q 34.1875 6.109375 38.703125 11.40625 
Q 43.21875 16.703125 43.21875 25.484375 
L 43.21875 27.484375 
z
M 52.203125 31.203125 
L 52.203125 0 
L 43.21875 0 
L 43.21875 8.296875 
Q 40.140625 3.328125 35.546875 0.953125 
Q 30.953125 -1.421875 24.3125 -1.421875 
Q 15.921875 -1.421875 10.953125 3.296875 
Q 6 8.015625 6 15.921875 
Q 6 25.140625 12.171875 29.828125 
Q 18.359375 34.515625 30.609375 34.515625 
L 43.21875 34.515625 
L 43.21875 35.40625 
Q 43.21875 41.609375 39.140625 45 
Q 35.0625 48.390625 27.6875 48.390625 
Q 23 48.390625 18.546875 47.265625 
Q 14.109375 46.140625 10.015625 43.890625 
L 10.015625 52.203125 
Q 14.9375 54.109375 19.578125 55.046875 
Q 24.21875 56 28.609375 56 
Q 40.484375 56 46.34375 49.84375 
Q 52.203125 43.703125 52.203125 31.203125 
" id="BitstreamVeraSans-Roman-61"/>
      <path d="M 9.421875 75.984375 
L 18.40625 75.984375 
L 18.40625 0 
L 9.421875 0 
z
" id="BitstreamVeraSans-Roman-6c"/>
     </defs>
     <g transform="translate(213.4509375 414.598475)scale(0.12 -0.12)">
      <use xlink:href="#BitstreamVeraSans-Roman-46"/>
      <use x="57.37890625" xlink:href="#BitstreamVeraSans-Roman-61"/>
      <use x="118.658203125" xlink:href="#BitstreamVeraSans-Roman-6c"/>
      <use x="146.44140625" xlink:href="#BitstreamVeraSans-Roman-73"/>
      <use x="198.541015625" xlink:href="#BitstreamVeraSans-Roman-65"/>
      <use x="260.064453125" xlink:href="#BitstreamVeraSans-Roman-20"/>
      <use x="291.8515625" xlink:href="#BitstreamVeraSans-Roman-50"/>
      <use x="352.107421875" xlink:href="#BitstreamVeraSans-Roman-6f"/>
      <use x="413.2890625" xlink:href="#BitstreamVeraSans-Roman-73"/>
      <use x="465.388671875" xlink:href="#BitstreamVeraSans-Roman-69"/>
      <use x="493.171875" xlink:href="#BitstreamVeraSans-Roman-74"/>
      <use x="532.380859375" xlink:href="#BitstreamVeraSans-Roman-69"/>
      <use x="560.1640625" xlink:href="#BitstreamVeraSans-Roman-76"/>
      <use x="619.34375" xlink:href="#BitstreamVeraSans-Roman-65"/>
      <use x="680.8671875" xlink:href="#BitstreamVeraSans-Roman-20"/>
      <use x="712.654296875" xlink:href="#BitstreamVeraSans-Roman-52"/>
      <use x="782.10546875" xlink:href="#BitstreamVeraSans-Roman-61"/>
      <use x="843.384765625" xlink:href="#BitstreamVeraSans-Roman-74"/>
      <use x="882.59375" xlink:href="#BitstreamVeraSans-Roman-65"/>
     </g>
    </g>
   </g>
   <g id="matplotlib.axis_2">
    <g id="ytick_1">
     <g id="line2d_17">
      <defs>
       <path d="M 0 0 
L 4 0 
" id="m101dd2e461" style="stroke:#000000;stroke-width:0.5;"/>
      </defs>
      <g>
       <use style="stroke:#000000;stroke-width:0.5;" x="46.8975" xlink:href="#m101dd2e461" y="384.8666"/>
      </g>
     </g>
     <g id="line2d_18">
      <defs>
       <path d="M 0 0 
L -4 0 
" id="m209c4790a9" style="stroke:#000000;stroke-width:0.5;"/>
      </defs>
      <g>
       <use style="stroke:#000000;stroke-width:0.5;" x="493.2975" xlink:href="#m209c4790a9" y="384.8666"/>
      </g>
     </g>
     <g id="text_8">
      <!-- 0.0 -->
      <g transform="translate(23.81375 388.17785)scale(0.12 -0.12)">
       <use xlink:href="#BitstreamVeraSans-Roman-30"/>
       <use x="63.623046875" xlink:href="#BitstreamVeraSans-Roman-2e"/>
       <use x="95.41015625" xlink:href="#BitstreamVeraSans-Roman-30"/>
      </g>
     </g>
    </g>
    <g id="ytick_2">
     <g id="line2d_19">
      <g>
       <use style="stroke:#000000;stroke-width:0.5;" x="46.8975" xlink:href="#m101dd2e461" y="319.038028571"/>
      </g>
     </g>
     <g id="line2d_20">
      <g>
       <use style="stroke:#000000;stroke-width:0.5;" x="493.2975" xlink:href="#m209c4790a9" y="319.038028571"/>
      </g>
     </g>
     <g id="text_9">
      <!-- 0.2 -->
      <g transform="translate(23.81375 322.349278571)scale(0.12 -0.12)">
       <use xlink:href="#BitstreamVeraSans-Roman-30"/>
       <use x="63.623046875" xlink:href="#BitstreamVeraSans-Roman-2e"/>
       <use x="95.41015625" xlink:href="#BitstreamVeraSans-Roman-32"/>
      </g>
     </g>
    </g>
    <g id="ytick_3">
     <g id="line2d_21">
      <g>
       <use style="stroke:#000000;stroke-width:0.5;" x="46.8975" xlink:href="#m101dd2e461" y="253.209457143"/>
      </g>
     </g>
     <g id="line2d_22">
      <g>
       <use style="stroke:#000000;stroke-width:0.5;" x="493.2975" xlink:href="#m209c4790a9" y="253.209457143"/>
      </g>
     </g>
     <g id="text_10">
      <!-- 0.4 -->
      <g transform="translate(23.81375 256.520707143)scale(0.12 -0.12)">
       <use xlink:href="#BitstreamVeraSans-Roman-30"/>
       <use x="63.623046875" xlink:href="#BitstreamVeraSans-Roman-2e"/>
       <use x="95.41015625" xlink:href="#BitstreamVeraSans-Roman-34"/>
      </g>
     </g>
    </g>
    <g id="ytick_4">
     <g id="line2d_23">
      <g>
       <use style="stroke:#000000;stroke-width:0.5;" x="46.8975" xlink:href="#m101dd2e461" y="187.380885714"/>
      </g>
     </g>
     <g id="line2d_24">
      <g>
       <use style="stroke:#000000;stroke-width:0.5;" x="493.2975" xlink:href="#m209c4790a9" y="187.380885714"/>
      </g>
     </g>
     <g id="text_11">
      <!-- 0.6 -->
      <g transform="translate(23.81375 190.692135714)scale(0.12 -0.12)">
       <use xlink:href="#BitstreamVeraSans-Roman-30"/>
       <use x="63.623046875" xlink:href="#BitstreamVeraSans-Roman-2e"/>
       <use x="95.41015625" xlink:href="#BitstreamVeraSans-Roman-36"/>
      </g>
     </g>
    </g>
    <g id="ytick_5">
     <g id="line2d_25">
      <g>
       <use style="stroke:#000000;stroke-width:0.5;" x="46.8975" xlink:href="#m101dd2e461" y="121.552314286"/>
      </g>
     </g>
     <g id="line2d_26">
      <g>
       <use style="stroke:#000000;stroke-width:0.5;" x="493.2975" xlink:href="#m209c4790a9" y="121.552314286"/>
      </g>
     </g>
     <g id="text_12">
      <!-- 0.8 -->
      <g transform="translate(23.81375 124.863564286)scale(0.12 -0.12)">
       <use xlink:href="#BitstreamVeraSans-Roman-30"/>
       <use x="63.623046875" xlink:href="#BitstreamVeraSans-Roman-2e"/>
       <use x="95.41015625" xlink:href="#BitstreamVeraSans-Roman-38"/>
      </g>
     </g>
    </g>
    <g id="ytick_6">
     <g id="line2d_27">
      <g>
       <use style="stroke:#000000;stroke-width:0.5;" x="46.8975" xlink:href="#m101dd2e461" y="55.7237428571"/>
      </g>
     </g>
     <g id="line2d_28">
      <g>
       <use style="stroke:#000000;stroke-width:0.5;" x="493.2975" xlink:href="#m209c4790a9" y="55.7237428571"/>
      </g>
     </g>
     <g id="text_13">
      <!-- 1.0 -->
      <g transform="translate(23.81375 59.0349928571)scale(0.12 -0.12)">
       <use xlink:href="#BitstreamVeraSans-Roman-31"/>
       <use x="63.623046875" xlink:href="#BitstreamVeraSans-Roman-2e"/>
       <use x="95.41015625" xlink:href="#BitstreamVeraSans-Roman-30"/>
      </g>
     </g>
    </g>
    <g id="text_14">
     <!-- True Positive Rate -->
     <defs>
      <path d="M -0.296875 72.90625 
L 61.375 72.90625 
L 61.375 64.59375 
L 35.5 64.59375 
L 35.5 0 
L 25.59375 0 
L 25.59375 64.59375 
L -0.296875 64.59375 
z
" id="BitstreamVeraSans-Roman-54"/>
      <path d="M 8.5 21.578125 
L 8.5 54.6875 
L 17.484375 54.6875 
L 17.484375 21.921875 
Q 17.484375 14.15625 20.5 10.265625 
Q 23.53125 6.390625 29.59375 6.390625 
Q 36.859375 6.390625 41.078125 11.03125 
Q 45.3125 15.671875 45.3125 23.6875 
L 45.3125 54.6875 
L 54.296875 54.6875 
L 54.296875 0 
L 45.3125 0 
L 45.3125 8.40625 
Q 42.046875 3.421875 37.71875 1 
Q 33.40625 -1.421875 27.6875 -1.421875 
Q 18.265625 -1.421875 13.375 4.4375 
Q 8.5 10.296875 8.5 21.578125 
" id="BitstreamVeraSans-Roman-75"/>
      <path d="M 41.109375 46.296875 
Q 39.59375 47.171875 37.8125 47.578125 
Q 36.03125 48 33.890625 48 
Q 26.265625 48 22.1875 43.046875 
Q 18.109375 38.09375 18.109375 28.8125 
L 18.109375 0 
L 9.078125 0 
L 9.078125 54.6875 
L 18.109375 54.6875 
L 18.109375 46.1875 
Q 20.953125 51.171875 25.484375 53.578125 
Q 30.03125 56 36.53125 56 
Q 37.453125 56 38.578125 55.875 
Q 39.703125 55.765625 41.0625 55.515625 
z
" id="BitstreamVeraSans-Roman-72"/>
     </defs>
     <g transform="translate(16.318125 266.7219125)rotate(-90.0)scale(0.12 -0.12)">
      <use xlink:href="#BitstreamVeraSans-Roman-54"/>
      <use x="60.865234375" xlink:href="#BitstreamVeraSans-Roman-72"/>
      <use x="101.978515625" xlink:href="#BitstreamVeraSans-Roman-75"/>
      <use x="165.357421875" xlink:href="#BitstreamVeraSans-Roman-65"/>
      <use x="226.880859375" xlink:href="#BitstreamVeraSans-Roman-20"/>
      <use x="258.66796875" xlink:href="#BitstreamVeraSans-Roman-50"/>
      <use x="318.923828125" xlink:href="#BitstreamVeraSans-Roman-6f"/>
      <use x="380.10546875" xlink:href="#BitstreamVeraSans-Roman-73"/>
      <use x="432.205078125" xlink:href="#BitstreamVeraSans-Roman-69"/>
      <use x="459.98828125" xlink:href="#BitstreamVeraSans-Roman-74"/>
      <use x="499.197265625" xlink:href="#BitstreamVeraSans-Roman-69"/>
      <use x="526.98046875" xlink:href="#BitstreamVeraSans-Roman-76"/>
      <use x="586.16015625" xlink:href="#BitstreamVeraSans-Roman-65"/>
      <use x="647.68359375" xlink:href="#BitstreamVeraSans-Roman-20"/>
      <use x="679.470703125" xlink:href="#BitstreamVeraSans-Roman-52"/>
      <use x="748.921875" xlink:href="#BitstreamVeraSans-Roman-61"/>
      <use x="810.201171875" xlink:href="#BitstreamVeraSans-Roman-74"/>
      <use x="849.41015625" xlink:href="#BitstreamVeraSans-Roman-65"/>
     </g>
    </g>
   </g>
   <g id="text_15">
    <!-- ROC Curve GradientBoosting + SMOTE -->
    <defs>
     <path d="M 53.515625 70.515625 
L 53.515625 60.890625 
Q 47.90625 63.578125 42.921875 64.890625 
Q 37.9375 66.21875 33.296875 66.21875 
Q 25.25 66.21875 20.875 63.09375 
Q 16.5 59.96875 16.5 54.203125 
Q 16.5 49.359375 19.40625 46.890625 
Q 22.3125 44.4375 30.421875 42.921875 
L 36.375 41.703125 
Q 47.40625 39.59375 52.65625 34.296875 
Q 57.90625 29 57.90625 20.125 
Q 57.90625 9.515625 50.796875 4.046875 
Q 43.703125 -1.421875 29.984375 -1.421875 
Q 24.8125 -1.421875 18.96875 -0.25 
Q 13.140625 0.921875 6.890625 3.21875 
L 6.890625 13.375 
Q 12.890625 10.015625 18.65625 8.296875 
Q 24.421875 6.59375 29.984375 6.59375 
Q 38.421875 6.59375 43.015625 9.90625 
Q 47.609375 13.234375 47.609375 19.390625 
Q 47.609375 24.75 44.3125 27.78125 
Q 41.015625 30.8125 33.5 32.328125 
L 27.484375 33.5 
Q 16.453125 35.6875 11.515625 40.375 
Q 6.59375 45.0625 6.59375 53.421875 
Q 6.59375 63.09375 13.40625 68.65625 
Q 20.21875 74.21875 32.171875 74.21875 
Q 37.3125 74.21875 42.625 73.28125 
Q 47.953125 72.359375 53.515625 70.515625 
" id="BitstreamVeraSans-Roman-53"/>
     <path d="M 45.40625 46.390625 
L 45.40625 75.984375 
L 54.390625 75.984375 
L 54.390625 0 
L 45.40625 0 
L 45.40625 8.203125 
Q 42.578125 3.328125 38.25 0.953125 
Q 33.9375 -1.421875 27.875 -1.421875 
Q 17.96875 -1.421875 11.734375 6.484375 
Q 5.515625 14.40625 5.515625 27.296875 
Q 5.515625 40.1875 11.734375 48.09375 
Q 17.96875 56 27.875 56 
Q 33.9375 56 38.25 53.625 
Q 42.578125 51.265625 45.40625 46.390625 
M 14.796875 27.296875 
Q 14.796875 17.390625 18.875 11.75 
Q 22.953125 6.109375 30.078125 6.109375 
Q 37.203125 6.109375 41.296875 11.75 
Q 45.40625 17.390625 45.40625 27.296875 
Q 45.40625 37.203125 41.296875 42.84375 
Q 37.203125 48.484375 30.078125 48.484375 
Q 22.953125 48.484375 18.875 42.84375 
Q 14.796875 37.203125 14.796875 27.296875 
" id="BitstreamVeraSans-Roman-64"/>
     <path d="M 59.515625 10.40625 
L 59.515625 29.984375 
L 43.40625 29.984375 
L 43.40625 38.09375 
L 69.28125 38.09375 
L 69.28125 6.78125 
Q 63.578125 2.734375 56.6875 0.65625 
Q 49.8125 -1.421875 42 -1.421875 
Q 24.90625 -1.421875 15.25 8.5625 
Q 5.609375 18.5625 5.609375 36.375 
Q 5.609375 54.25 15.25 64.234375 
Q 24.90625 74.21875 42 74.21875 
Q 49.125 74.21875 55.546875 72.453125 
Q 61.96875 70.703125 67.390625 67.28125 
L 67.390625 56.78125 
Q 61.921875 61.421875 55.765625 63.765625 
Q 49.609375 66.109375 42.828125 66.109375 
Q 29.4375 66.109375 22.71875 58.640625 
Q 16.015625 51.171875 16.015625 36.375 
Q 16.015625 21.625 22.71875 14.15625 
Q 29.4375 6.6875 42.828125 6.6875 
Q 48.046875 6.6875 52.140625 7.59375 
Q 56.25 8.5 59.515625 10.40625 
" id="BitstreamVeraSans-Roman-47"/>
     <path d="M 9.8125 72.90625 
L 55.90625 72.90625 
L 55.90625 64.59375 
L 19.671875 64.59375 
L 19.671875 43.015625 
L 54.390625 43.015625 
L 54.390625 34.71875 
L 19.671875 34.71875 
L 19.671875 8.296875 
L 56.78125 8.296875 
L 56.78125 0 
L 9.8125 0 
z
" id="BitstreamVeraSans-Roman-45"/>
     <path d="M 19.671875 34.8125 
L 19.671875 8.109375 
L 35.5 8.109375 
Q 43.453125 8.109375 47.28125 11.40625 
Q 51.125 14.703125 51.125 21.484375 
Q 51.125 28.328125 47.28125 31.5625 
Q 43.453125 34.8125 35.5 34.8125 
z
M 19.671875 64.796875 
L 19.671875 42.828125 
L 34.28125 42.828125 
Q 41.5 42.828125 45.03125 45.53125 
Q 48.578125 48.25 48.578125 53.8125 
Q 48.578125 59.328125 45.03125 62.0625 
Q 41.5 64.796875 34.28125 64.796875 
z
M 9.8125 72.90625 
L 35.015625 72.90625 
Q 46.296875 72.90625 52.390625 68.21875 
Q 58.5 63.53125 58.5 54.890625 
Q 58.5 48.1875 55.375 44.234375 
Q 52.25 40.28125 46.1875 39.3125 
Q 53.46875 37.75 57.5 32.78125 
Q 61.53125 27.828125 61.53125 20.40625 
Q 61.53125 10.640625 54.890625 5.3125 
Q 48.25 0 35.984375 0 
L 9.8125 0 
z
" id="BitstreamVeraSans-Roman-42"/>
     <path d="M 54.890625 33.015625 
L 54.890625 0 
L 45.90625 0 
L 45.90625 32.71875 
Q 45.90625 40.484375 42.875 44.328125 
Q 39.84375 48.1875 33.796875 48.1875 
Q 26.515625 48.1875 22.3125 43.546875 
Q 18.109375 38.921875 18.109375 30.90625 
L 18.109375 0 
L 9.078125 0 
L 9.078125 54.6875 
L 18.109375 54.6875 
L 18.109375 46.1875 
Q 21.34375 51.125 25.703125 53.5625 
Q 30.078125 56 35.796875 56 
Q 45.21875 56 50.046875 50.171875 
Q 54.890625 44.34375 54.890625 33.015625 
" id="BitstreamVeraSans-Roman-6e"/>
     <path d="M 64.40625 67.28125 
L 64.40625 56.890625 
Q 59.421875 61.53125 53.78125 63.8125 
Q 48.140625 66.109375 41.796875 66.109375 
Q 29.296875 66.109375 22.65625 58.46875 
Q 16.015625 50.828125 16.015625 36.375 
Q 16.015625 21.96875 22.65625 14.328125 
Q 29.296875 6.6875 41.796875 6.6875 
Q 48.140625 6.6875 53.78125 8.984375 
Q 59.421875 11.28125 64.40625 15.921875 
L 64.40625 5.609375 
Q 59.234375 2.09375 53.4375 0.328125 
Q 47.65625 -1.421875 41.21875 -1.421875 
Q 24.65625 -1.421875 15.125 8.703125 
Q 5.609375 18.84375 5.609375 36.375 
Q 5.609375 53.953125 15.125 64.078125 
Q 24.65625 74.21875 41.21875 74.21875 
Q 47.75 74.21875 53.53125 72.484375 
Q 59.328125 70.75 64.40625 67.28125 
" id="BitstreamVeraSans-Roman-43"/>
     <path d="M 39.40625 66.21875 
Q 28.65625 66.21875 22.328125 58.203125 
Q 16.015625 50.203125 16.015625 36.375 
Q 16.015625 22.609375 22.328125 14.59375 
Q 28.65625 6.59375 39.40625 6.59375 
Q 50.140625 6.59375 56.421875 14.59375 
Q 62.703125 22.609375 62.703125 36.375 
Q 62.703125 50.203125 56.421875 58.203125 
Q 50.140625 66.21875 39.40625 66.21875 
M 39.40625 74.21875 
Q 54.734375 74.21875 63.90625 63.9375 
Q 73.09375 53.65625 73.09375 36.375 
Q 73.09375 19.140625 63.90625 8.859375 
Q 54.734375 -1.421875 39.40625 -1.421875 
Q 24.03125 -1.421875 14.8125 8.828125 
Q 5.609375 19.09375 5.609375 36.375 
Q 5.609375 53.65625 14.8125 63.9375 
Q 24.03125 74.21875 39.40625 74.21875 
" id="BitstreamVeraSans-Roman-4f"/>
     <path d="M 45.40625 27.984375 
Q 45.40625 37.75 41.375 43.109375 
Q 37.359375 48.484375 30.078125 48.484375 
Q 22.859375 48.484375 18.828125 43.109375 
Q 14.796875 37.75 14.796875 27.984375 
Q 14.796875 18.265625 18.828125 12.890625 
Q 22.859375 7.515625 30.078125 7.515625 
Q 37.359375 7.515625 41.375 12.890625 
Q 45.40625 18.265625 45.40625 27.984375 
M 54.390625 6.78125 
Q 54.390625 -7.171875 48.1875 -13.984375 
Q 42 -20.796875 29.203125 -20.796875 
Q 24.46875 -20.796875 20.265625 -20.09375 
Q 16.0625 -19.390625 12.109375 -17.921875 
L 12.109375 -9.1875 
Q 16.0625 -11.328125 19.921875 -12.34375 
Q 23.78125 -13.375 27.78125 -13.375 
Q 36.625 -13.375 41.015625 -8.765625 
Q 45.40625 -4.15625 45.40625 5.171875 
L 45.40625 9.625 
Q 42.625 4.78125 38.28125 2.390625 
Q 33.9375 0 27.875 0 
Q 17.828125 0 11.671875 7.65625 
Q 5.515625 15.328125 5.515625 27.984375 
Q 5.515625 40.671875 11.671875 48.328125 
Q 17.828125 56 27.875 56 
Q 33.9375 56 38.28125 53.609375 
Q 42.625 51.21875 45.40625 46.390625 
L 45.40625 54.6875 
L 54.390625 54.6875 
z
" id="BitstreamVeraSans-Roman-67"/>
     <path d="M 46 62.703125 
L 46 35.5 
L 73.1875 35.5 
L 73.1875 27.203125 
L 46 27.203125 
L 46 0 
L 37.796875 0 
L 37.796875 27.203125 
L 10.59375 27.203125 
L 10.59375 35.5 
L 37.796875 35.5 
L 37.796875 62.703125 
z
" id="BitstreamVeraSans-Roman-2b"/>
     <path d="M 9.8125 72.90625 
L 24.515625 72.90625 
L 43.109375 23.296875 
L 61.8125 72.90625 
L 76.515625 72.90625 
L 76.515625 0 
L 66.890625 0 
L 66.890625 64.015625 
L 48.09375 14.015625 
L 38.1875 14.015625 
L 19.390625 64.015625 
L 19.390625 0 
L 9.8125 0 
z
" id="BitstreamVeraSans-Roman-4d"/>
    </defs>
    <g transform="translate(129.77625 18.14175)scale(0.144 -0.144)">
     <use xlink:href="#BitstreamVeraSans-Roman-52"/>
     <use x="69.482421875" xlink:href="#BitstreamVeraSans-Roman-4f"/>
     <use x="148.193359375" xlink:href="#BitstreamVeraSans-Roman-43"/>
     <use x="218.017578125" xlink:href="#BitstreamVeraSans-Roman-20"/>
     <use x="249.8046875" xlink:href="#BitstreamVeraSans-Roman-43"/>
     <use x="319.62890625" xlink:href="#BitstreamVeraSans-Roman-75"/>
     <use x="383.0078125" xlink:href="#BitstreamVeraSans-Roman-72"/>
     <use x="424.12109375" xlink:href="#BitstreamVeraSans-Roman-76"/>
     <use x="483.30078125" xlink:href="#BitstreamVeraSans-Roman-65"/>
     <use x="544.82421875" xlink:href="#BitstreamVeraSans-Roman-20"/>
     <use x="576.611328125" xlink:href="#BitstreamVeraSans-Roman-47"/>
     <use x="654.1015625" xlink:href="#BitstreamVeraSans-Roman-72"/>
     <use x="695.21484375" xlink:href="#BitstreamVeraSans-Roman-61"/>
     <use x="756.494140625" xlink:href="#BitstreamVeraSans-Roman-64"/>
     <use x="819.970703125" xlink:href="#BitstreamVeraSans-Roman-69"/>
     <use x="847.75390625" xlink:href="#BitstreamVeraSans-Roman-65"/>
     <use x="909.27734375" xlink:href="#BitstreamVeraSans-Roman-6e"/>
     <use x="972.65625" xlink:href="#BitstreamVeraSans-Roman-74"/>
     <use x="1011.865234375" xlink:href="#BitstreamVeraSans-Roman-42"/>
     <use x="1080.46875" xlink:href="#BitstreamVeraSans-Roman-6f"/>
     <use x="1141.650390625" xlink:href="#BitstreamVeraSans-Roman-6f"/>
     <use x="1202.83203125" xlink:href="#BitstreamVeraSans-Roman-73"/>
     <use x="1254.931640625" xlink:href="#BitstreamVeraSans-Roman-74"/>
     <use x="1294.140625" xlink:href="#BitstreamVeraSans-Roman-69"/>
     <use x="1321.923828125" xlink:href="#BitstreamVeraSans-Roman-6e"/>
     <use x="1385.302734375" xlink:href="#BitstreamVeraSans-Roman-67"/>
     <use x="1448.779296875" xlink:href="#BitstreamVeraSans-Roman-20"/>
     <use x="1480.56640625" xlink:href="#BitstreamVeraSans-Roman-2b"/>
     <use x="1564.35546875" xlink:href="#BitstreamVeraSans-Roman-20"/>
     <use x="1596.142578125" xlink:href="#BitstreamVeraSans-Roman-53"/>
     <use x="1659.619140625" xlink:href="#BitstreamVeraSans-Roman-4d"/>
     <use x="1745.8984375" xlink:href="#BitstreamVeraSans-Roman-4f"/>
     <use x="1824.609375" xlink:href="#BitstreamVeraSans-Roman-54"/>
     <use x="1885.693359375" xlink:href="#BitstreamVeraSans-Roman-45"/>
    </g>
    <!-- Train: 1   Test: [4, 8, 12, 16, 20, 24] -->
    <defs>
     <path d="M 8.59375 75.984375 
L 29.296875 75.984375 
L 29.296875 69 
L 17.578125 69 
L 17.578125 -6.203125 
L 29.296875 -6.203125 
L 29.296875 -13.1875 
L 8.59375 -13.1875 
z
" id="BitstreamVeraSans-Roman-5b"/>
     <path d="M 11.71875 12.40625 
L 22.015625 12.40625 
L 22.015625 0 
L 11.71875 0 
z
M 11.71875 51.703125 
L 22.015625 51.703125 
L 22.015625 39.3125 
L 11.71875 39.3125 
z
" id="BitstreamVeraSans-Roman-3a"/>
     <path d="M 11.71875 12.40625 
L 22.015625 12.40625 
L 22.015625 4 
L 14.015625 -11.625 
L 7.71875 -11.625 
L 11.71875 4 
z
" id="BitstreamVeraSans-Roman-2c"/>
     <path d="M 30.421875 75.984375 
L 30.421875 -13.1875 
L 9.71875 -13.1875 
L 9.71875 -6.203125 
L 21.390625 -6.203125 
L 21.390625 69 
L 9.71875 69 
L 9.71875 75.984375 
z
" id="BitstreamVeraSans-Roman-5d"/>
    </defs>
    <g transform="translate(141.214125 34.2666)scale(0.144 -0.144)">
     <use xlink:href="#BitstreamVeraSans-Roman-54"/>
     <use x="60.865234375" xlink:href="#BitstreamVeraSans-Roman-72"/>
     <use x="101.978515625" xlink:href="#BitstreamVeraSans-Roman-61"/>
     <use x="163.2578125" xlink:href="#BitstreamVeraSans-Roman-69"/>
     <use x="191.041015625" xlink:href="#BitstreamVeraSans-Roman-6e"/>
     <use x="254.419921875" xlink:href="#BitstreamVeraSans-Roman-3a"/>
     <use x="288.111328125" xlink:href="#BitstreamVeraSans-Roman-20"/>
     <use x="319.8984375" xlink:href="#BitstreamVeraSans-Roman-31"/>
     <use x="383.521484375" xlink:href="#BitstreamVeraSans-Roman-20"/>
     <use x="415.30859375" xlink:href="#BitstreamVeraSans-Roman-20"/>
     <use x="447.095703125" xlink:href="#BitstreamVeraSans-Roman-20"/>
     <use x="478.8828125" xlink:href="#BitstreamVeraSans-Roman-54"/>
     <use x="539.701171875" xlink:href="#BitstreamVeraSans-Roman-65"/>
     <use x="601.224609375" xlink:href="#BitstreamVeraSans-Roman-73"/>
     <use x="653.32421875" xlink:href="#BitstreamVeraSans-Roman-74"/>
     <use x="692.533203125" xlink:href="#BitstreamVeraSans-Roman-3a"/>
     <use x="726.224609375" xlink:href="#BitstreamVeraSans-Roman-20"/>
     <use x="758.01171875" xlink:href="#BitstreamVeraSans-Roman-5b"/>
     <use x="797.025390625" xlink:href="#BitstreamVeraSans-Roman-34"/>
     <use x="860.6484375" xlink:href="#BitstreamVeraSans-Roman-2c"/>
     <use x="892.435546875" xlink:href="#BitstreamVeraSans-Roman-20"/>
     <use x="924.22265625" xlink:href="#BitstreamVeraSans-Roman-38"/>
     <use x="987.845703125" xlink:href="#BitstreamVeraSans-Roman-2c"/>
     <use x="1019.6328125" xlink:href="#BitstreamVeraSans-Roman-20"/>
     <use x="1051.419921875" xlink:href="#BitstreamVeraSans-Roman-31"/>
     <use x="1115.04296875" xlink:href="#BitstreamVeraSans-Roman-32"/>
     <use x="1178.666015625" xlink:href="#BitstreamVeraSans-Roman-2c"/>
     <use x="1210.453125" xlink:href="#BitstreamVeraSans-Roman-20"/>
     <use x="1242.240234375" xlink:href="#BitstreamVeraSans-Roman-31"/>
     <use x="1305.86328125" xlink:href="#BitstreamVeraSans-Roman-36"/>
     <use x="1369.486328125" xlink:href="#BitstreamVeraSans-Roman-2c"/>
     <use x="1401.2734375" xlink:href="#BitstreamVeraSans-Roman-20"/>
     <use x="1433.060546875" xlink:href="#BitstreamVeraSans-Roman-32"/>
     <use x="1496.68359375" xlink:href="#BitstreamVeraSans-Roman-30"/>
     <use x="1560.306640625" xlink:href="#BitstreamVeraSans-Roman-2c"/>
     <use x="1592.09375" xlink:href="#BitstreamVeraSans-Roman-20"/>
     <use x="1623.880859375" xlink:href="#BitstreamVeraSans-Roman-32"/>
     <use x="1687.50390625" xlink:href="#BitstreamVeraSans-Roman-34"/>
     <use x="1751.126953125" xlink:href="#BitstreamVeraSans-Roman-5d"/>
    </g>
   </g>
   <g id="legend_1">
    <g id="patch_7">
     <path d="M 180.46425 377.6666 
L 486.0975 377.6666 
L 486.0975 309.9371 
L 180.46425 309.9371 
z
" style="fill:#ffffff;stroke:#000000;stroke-linejoin:miter;"/>
    </g>
    <g id="line2d_29">
     <path d="M 190.54425 321.59885 
L 210.70425 321.59885 
" style="fill:none;stroke:#0000ff;stroke-linecap:square;"/>
    </g>
    <g id="line2d_30"/>
    <g id="text_16">
     <!-- cometROC curve - 0 (AUC = 0.833) -->
     <defs>
      <path d="M 40.578125 39.3125 
Q 47.65625 37.796875 51.625 33 
Q 55.609375 28.21875 55.609375 21.1875 
Q 55.609375 10.40625 48.1875 4.484375 
Q 40.765625 -1.421875 27.09375 -1.421875 
Q 22.515625 -1.421875 17.65625 -0.515625 
Q 12.796875 0.390625 7.625 2.203125 
L 7.625 11.71875 
Q 11.71875 9.328125 16.59375 8.109375 
Q 21.484375 6.890625 26.8125 6.890625 
Q 36.078125 6.890625 40.9375 10.546875 
Q 45.796875 14.203125 45.796875 21.1875 
Q 45.796875 27.640625 41.28125 31.265625 
Q 36.765625 34.90625 28.71875 34.90625 
L 20.21875 34.90625 
L 20.21875 43.015625 
L 29.109375 43.015625 
Q 36.375 43.015625 40.234375 45.921875 
Q 44.09375 48.828125 44.09375 54.296875 
Q 44.09375 59.90625 40.109375 62.90625 
Q 36.140625 65.921875 28.71875 65.921875 
Q 24.65625 65.921875 20.015625 65.03125 
Q 15.375 64.15625 9.8125 62.3125 
L 9.8125 71.09375 
Q 15.4375 72.65625 20.34375 73.4375 
Q 25.25 74.21875 29.59375 74.21875 
Q 40.828125 74.21875 47.359375 69.109375 
Q 53.90625 64.015625 53.90625 55.328125 
Q 53.90625 49.265625 50.4375 45.09375 
Q 46.96875 40.921875 40.578125 39.3125 
" id="BitstreamVeraSans-Roman-33"/>
      <path d="M 34.1875 63.1875 
L 20.796875 26.90625 
L 47.609375 26.90625 
z
M 28.609375 72.90625 
L 39.796875 72.90625 
L 67.578125 0 
L 57.328125 0 
L 50.6875 18.703125 
L 17.828125 18.703125 
L 11.1875 0 
L 0.78125 0 
z
" id="BitstreamVeraSans-Roman-41"/>
      <path d="M 52 44.1875 
Q 55.375 50.25 60.0625 53.125 
Q 64.75 56 71.09375 56 
Q 79.640625 56 84.28125 50.015625 
Q 88.921875 44.046875 88.921875 33.015625 
L 88.921875 0 
L 79.890625 0 
L 79.890625 32.71875 
Q 79.890625 40.578125 77.09375 44.375 
Q 74.3125 48.1875 68.609375 48.1875 
Q 61.625 48.1875 57.5625 43.546875 
Q 53.515625 38.921875 53.515625 30.90625 
L 53.515625 0 
L 44.484375 0 
L 44.484375 32.71875 
Q 44.484375 40.625 41.703125 44.40625 
Q 38.921875 48.1875 33.109375 48.1875 
Q 26.21875 48.1875 22.15625 43.53125 
Q 18.109375 38.875 18.109375 30.90625 
L 18.109375 0 
L 9.078125 0 
L 9.078125 54.6875 
L 18.109375 54.6875 
L 18.109375 46.1875 
Q 21.1875 51.21875 25.484375 53.609375 
Q 29.78125 56 35.6875 56 
Q 41.65625 56 45.828125 52.96875 
Q 50 49.953125 52 44.1875 
" id="BitstreamVeraSans-Roman-6d"/>
      <path d="M 31 75.875 
Q 24.46875 64.65625 21.28125 53.65625 
Q 18.109375 42.671875 18.109375 31.390625 
Q 18.109375 20.125 21.3125 9.0625 
Q 24.515625 -2 31 -13.1875 
L 23.1875 -13.1875 
Q 15.875 -1.703125 12.234375 9.375 
Q 8.59375 20.453125 8.59375 31.390625 
Q 8.59375 42.28125 12.203125 53.3125 
Q 15.828125 64.359375 23.1875 75.875 
z
" id="BitstreamVeraSans-Roman-28"/>
      <path d="M 8.6875 72.90625 
L 18.609375 72.90625 
L 18.609375 28.609375 
Q 18.609375 16.890625 22.84375 11.734375 
Q 27.09375 6.59375 36.625 6.59375 
Q 46.09375 6.59375 50.34375 11.734375 
Q 54.59375 16.890625 54.59375 28.609375 
L 54.59375 72.90625 
L 64.5 72.90625 
L 64.5 27.390625 
Q 64.5 13.140625 57.4375 5.859375 
Q 50.390625 -1.421875 36.625 -1.421875 
Q 22.796875 -1.421875 15.734375 5.859375 
Q 8.6875 13.140625 8.6875 27.390625 
z
" id="BitstreamVeraSans-Roman-55"/>
      <path d="M 48.78125 52.59375 
L 48.78125 44.1875 
Q 44.96875 46.296875 41.140625 47.34375 
Q 37.3125 48.390625 33.40625 48.390625 
Q 24.65625 48.390625 19.8125 42.84375 
Q 14.984375 37.3125 14.984375 27.296875 
Q 14.984375 17.28125 19.8125 11.734375 
Q 24.65625 6.203125 33.40625 6.203125 
Q 37.3125 6.203125 41.140625 7.25 
Q 44.96875 8.296875 48.78125 10.40625 
L 48.78125 2.09375 
Q 45.015625 0.34375 40.984375 -0.53125 
Q 36.96875 -1.421875 32.421875 -1.421875 
Q 20.0625 -1.421875 12.78125 6.34375 
Q 5.515625 14.109375 5.515625 27.296875 
Q 5.515625 40.671875 12.859375 48.328125 
Q 20.21875 56 33.015625 56 
Q 37.15625 56 41.109375 55.140625 
Q 45.0625 54.296875 48.78125 52.59375 
" id="BitstreamVeraSans-Roman-63"/>
      <path d="M 8.015625 75.875 
L 15.828125 75.875 
Q 23.140625 64.359375 26.78125 53.3125 
Q 30.421875 42.28125 30.421875 31.390625 
Q 30.421875 20.453125 26.78125 9.375 
Q 23.140625 -1.703125 15.828125 -13.1875 
L 8.015625 -13.1875 
Q 14.5 -2 17.703125 9.0625 
Q 20.90625 20.125 20.90625 31.390625 
Q 20.90625 42.671875 17.703125 53.65625 
Q 14.5 64.65625 8.015625 75.875 
" id="BitstreamVeraSans-Roman-29"/>
      <path d="M 10.59375 45.40625 
L 73.1875 45.40625 
L 73.1875 37.203125 
L 10.59375 37.203125 
z
M 10.59375 25.484375 
L 73.1875 25.484375 
L 73.1875 17.1875 
L 10.59375 17.1875 
z
" id="BitstreamVeraSans-Roman-3d"/>
      <path d="M 4.890625 31.390625 
L 31.203125 31.390625 
L 31.203125 23.390625 
L 4.890625 23.390625 
z
" id="BitstreamVeraSans-Roman-2d"/>
     </defs>
     <g transform="translate(226.54425 326.63885)scale(0.144 -0.144)">
      <use xlink:href="#BitstreamVeraSans-Roman-63"/>
      <use x="54.98046875" xlink:href="#BitstreamVeraSans-Roman-6f"/>
      <use x="116.162109375" xlink:href="#BitstreamVeraSans-Roman-6d"/>
      <use x="213.57421875" xlink:href="#BitstreamVeraSans-Roman-65"/>
      <use x="275.09765625" xlink:href="#BitstreamVeraSans-Roman-74"/>
      <use x="314.306640625" xlink:href="#BitstreamVeraSans-Roman-52"/>
      <use x="383.7890625" xlink:href="#BitstreamVeraSans-Roman-4f"/>
      <use x="462.5" xlink:href="#BitstreamVeraSans-Roman-43"/>
      <use x="532.32421875" xlink:href="#BitstreamVeraSans-Roman-20"/>
      <use x="564.111328125" xlink:href="#BitstreamVeraSans-Roman-63"/>
      <use x="619.091796875" xlink:href="#BitstreamVeraSans-Roman-75"/>
      <use x="682.470703125" xlink:href="#BitstreamVeraSans-Roman-72"/>
      <use x="723.583984375" xlink:href="#BitstreamVeraSans-Roman-76"/>
      <use x="782.763671875" xlink:href="#BitstreamVeraSans-Roman-65"/>
      <use x="844.287109375" xlink:href="#BitstreamVeraSans-Roman-20"/>
      <use x="876.07421875" xlink:href="#BitstreamVeraSans-Roman-2d"/>
      <use x="912.158203125" xlink:href="#BitstreamVeraSans-Roman-20"/>
      <use x="943.9453125" xlink:href="#BitstreamVeraSans-Roman-30"/>
      <use x="1007.568359375" xlink:href="#BitstreamVeraSans-Roman-20"/>
      <use x="1039.35546875" xlink:href="#BitstreamVeraSans-Roman-28"/>
      <use x="1078.369140625" xlink:href="#BitstreamVeraSans-Roman-41"/>
      <use x="1146.77734375" xlink:href="#BitstreamVeraSans-Roman-55"/>
      <use x="1219.970703125" xlink:href="#BitstreamVeraSans-Roman-43"/>
      <use x="1289.794921875" xlink:href="#BitstreamVeraSans-Roman-20"/>
      <use x="1321.58203125" xlink:href="#BitstreamVeraSans-Roman-3d"/>
      <use x="1405.37109375" xlink:href="#BitstreamVeraSans-Roman-20"/>
      <use x="1437.158203125" xlink:href="#BitstreamVeraSans-Roman-30"/>
      <use x="1500.78125" xlink:href="#BitstreamVeraSans-Roman-2e"/>
      <use x="1532.568359375" xlink:href="#BitstreamVeraSans-Roman-38"/>
      <use x="1596.19140625" xlink:href="#BitstreamVeraSans-Roman-33"/>
      <use x="1659.814453125" xlink:href="#BitstreamVeraSans-Roman-33"/>
      <use x="1723.4375" xlink:href="#BitstreamVeraSans-Roman-29"/>
     </g>
    </g>
    <g id="line2d_31">
     <path d="M 190.54425 342.73535 
L 210.70425 342.73535 
" style="fill:none;stroke:#008000;stroke-linecap:square;"/>
    </g>
    <g id="line2d_32"/>
    <g id="text_17">
     <!-- cometROC curve - 1 (AUC = 0.841) -->
     <g transform="translate(226.54425 347.77535)scale(0.144 -0.144)">
      <use xlink:href="#BitstreamVeraSans-Roman-63"/>
      <use x="54.98046875" xlink:href="#BitstreamVeraSans-Roman-6f"/>
      <use x="116.162109375" xlink:href="#BitstreamVeraSans-Roman-6d"/>
      <use x="213.57421875" xlink:href="#BitstreamVeraSans-Roman-65"/>
      <use x="275.09765625" xlink:href="#BitstreamVeraSans-Roman-74"/>
      <use x="314.306640625" xlink:href="#BitstreamVeraSans-Roman-52"/>
      <use x="383.7890625" xlink:href="#BitstreamVeraSans-Roman-4f"/>
      <use x="462.5" xlink:href="#BitstreamVeraSans-Roman-43"/>
      <use x="532.32421875" xlink:href="#BitstreamVeraSans-Roman-20"/>
      <use x="564.111328125" xlink:href="#BitstreamVeraSans-Roman-63"/>
      <use x="619.091796875" xlink:href="#BitstreamVeraSans-Roman-75"/>
      <use x="682.470703125" xlink:href="#BitstreamVeraSans-Roman-72"/>
      <use x="723.583984375" xlink:href="#BitstreamVeraSans-Roman-76"/>
      <use x="782.763671875" xlink:href="#BitstreamVeraSans-Roman-65"/>
      <use x="844.287109375" xlink:href="#BitstreamVeraSans-Roman-20"/>
      <use x="876.07421875" xlink:href="#BitstreamVeraSans-Roman-2d"/>
      <use x="912.158203125" xlink:href="#BitstreamVeraSans-Roman-20"/>
      <use x="943.9453125" xlink:href="#BitstreamVeraSans-Roman-31"/>
      <use x="1007.568359375" xlink:href="#BitstreamVeraSans-Roman-20"/>
      <use x="1039.35546875" xlink:href="#BitstreamVeraSans-Roman-28"/>
      <use x="1078.369140625" xlink:href="#BitstreamVeraSans-Roman-41"/>
      <use x="1146.77734375" xlink:href="#BitstreamVeraSans-Roman-55"/>
      <use x="1219.970703125" xlink:href="#BitstreamVeraSans-Roman-43"/>
      <use x="1289.794921875" xlink:href="#BitstreamVeraSans-Roman-20"/>
      <use x="1321.58203125" xlink:href="#BitstreamVeraSans-Roman-3d"/>
      <use x="1405.37109375" xlink:href="#BitstreamVeraSans-Roman-20"/>
      <use x="1437.158203125" xlink:href="#BitstreamVeraSans-Roman-30"/>
      <use x="1500.78125" xlink:href="#BitstreamVeraSans-Roman-2e"/>
      <use x="1532.568359375" xlink:href="#BitstreamVeraSans-Roman-38"/>
      <use x="1596.19140625" xlink:href="#BitstreamVeraSans-Roman-34"/>
      <use x="1659.814453125" xlink:href="#BitstreamVeraSans-Roman-31"/>
      <use x="1723.4375" xlink:href="#BitstreamVeraSans-Roman-29"/>
     </g>
    </g>
    <g id="line2d_33">
     <path d="M 190.54425 363.87185 
L 210.70425 363.87185 
" style="fill:none;stroke:#ff0000;stroke-linecap:square;"/>
    </g>
    <g id="line2d_34"/>
    <g id="text_18">
     <!-- cometROC curve - 2 (AUC = 0.834) -->
     <g transform="translate(226.54425 368.91185)scale(0.144 -0.144)">
      <use xlink:href="#BitstreamVeraSans-Roman-63"/>
      <use x="54.98046875" xlink:href="#BitstreamVeraSans-Roman-6f"/>
      <use x="116.162109375" xlink:href="#BitstreamVeraSans-Roman-6d"/>
      <use x="213.57421875" xlink:href="#BitstreamVeraSans-Roman-65"/>
      <use x="275.09765625" xlink:href="#BitstreamVeraSans-Roman-74"/>
      <use x="314.306640625" xlink:href="#BitstreamVeraSans-Roman-52"/>
      <use x="383.7890625" xlink:href="#BitstreamVeraSans-Roman-4f"/>
      <use x="462.5" xlink:href="#BitstreamVeraSans-Roman-43"/>
      <use x="532.32421875" xlink:href="#BitstreamVeraSans-Roman-20"/>
      <use x="564.111328125" xlink:href="#BitstreamVeraSans-Roman-63"/>
      <use x="619.091796875" xlink:href="#BitstreamVeraSans-Roman-75"/>
      <use x="682.470703125" xlink:href="#BitstreamVeraSans-Roman-72"/>
      <use x="723.583984375" xlink:href="#BitstreamVeraSans-Roman-76"/>
      <use x="782.763671875" xlink:href="#BitstreamVeraSans-Roman-65"/>
      <use x="844.287109375" xlink:href="#BitstreamVeraSans-Roman-20"/>
      <use x="876.07421875" xlink:href="#BitstreamVeraSans-Roman-2d"/>
      <use x="912.158203125" xlink:href="#BitstreamVeraSans-Roman-20"/>
      <use x="943.9453125" xlink:href="#BitstreamVeraSans-Roman-32"/>
      <use x="1007.568359375" xlink:href="#BitstreamVeraSans-Roman-20"/>
      <use x="1039.35546875" xlink:href="#BitstreamVeraSans-Roman-28"/>
      <use x="1078.369140625" xlink:href="#BitstreamVeraSans-Roman-41"/>
      <use x="1146.77734375" xlink:href="#BitstreamVeraSans-Roman-55"/>
      <use x="1219.970703125" xlink:href="#BitstreamVeraSans-Roman-43"/>
      <use x="1289.794921875" xlink:href="#BitstreamVeraSans-Roman-20"/>
      <use x="1321.58203125" xlink:href="#BitstreamVeraSans-Roman-3d"/>
      <use x="1405.37109375" xlink:href="#BitstreamVeraSans-Roman-20"/>
      <use x="1437.158203125" xlink:href="#BitstreamVeraSans-Roman-30"/>
      <use x="1500.78125" xlink:href="#BitstreamVeraSans-Roman-2e"/>
      <use x="1532.568359375" xlink:href="#BitstreamVeraSans-Roman-38"/>
      <use x="1596.19140625" xlink:href="#BitstreamVeraSans-Roman-33"/>
      <use x="1659.814453125" xlink:href="#BitstreamVeraSans-Roman-34"/>
      <use x="1723.4375" xlink:href="#BitstreamVeraSans-Roman-29"/>
     </g>
    </g>
   </g>
  </g>
 </g>
 <defs>
  <clipPath id="p6a619daa4e">
   <rect height="345.6" width="446.4" x="46.8975" y="39.2666"/>
  </clipPath>
 </defs>
</svg>
