<?xml version="1.0" encoding="utf-8" standalone="no"?>
<!DOCTYPE svg PUBLIC "-//W3C//DTD SVG 1.1//EN"
  "http://www.w3.org/Graphics/SVG/1.1/DTD/svg11.dtd">
<!-- Created with matplotlib (http://matplotlib.org/) -->
<svg height="424pt" version="1.1" viewBox="0 0 510 424" width="510pt" xmlns="http://www.w3.org/2000/svg" xmlns:xlink="http://www.w3.org/1999/xlink">
 <defs>
  <style type="text/css">
*{stroke-linecap:butt;stroke-linejoin:round;stroke-miterlimit:100000;}
  </style>
 </defs>
 <g id="figure_1">
  <g id="patch_1">
   <path d="M 0 424.2941 
L 510.039375 424.2941 
L 510.039375 0 
L 0 0 
z
" style="fill:#ffffff;"/>
  </g>
  <g id="axes_1">
   <g id="patch_2">
    <path d="M 46.8975 384.8666 
L 493.2975 384.8666 
L 493.2975 39.2666 
L 46.8975 39.2666 
z
" style="fill:#ffffff;"/>
   </g>
   <g id="line2d_1">
    <path clip-path="url(#p4b83e8b98f)" d="M 46.8975 384.8666 
L 47.195021 384.8666 
L 48.385103 384.8666 
L 49.277665 384.8666 
L 50.467748 384.8666 
L 50.467748 381.36508 
L 51.062789 381.36508 
L 51.657831 381.36508 
L 52.550393 381.36508 
L 53.442955 381.36508 
L 54.037996 381.36508 
L 54.037996 377.86356 
L 54.930558 377.86356 
L 55.466095 374.362041 
L 56.061136 374.362041 
L 56.656178 374.362041 
L 57.251219 374.362041 
L 67.842955 367.359001 
L 68.437996 367.359001 
L 68.437996 363.857481 
L 68.735517 363.857481 
L 69.330558 363.857481 
L 69.925599 363.857481 
L 70.104112 356.854442 
L 71.294194 356.854442 
L 71.829731 353.352922 
L 72.424773 353.352922 
L 93.727252 346.349883 
L 94.917335 346.349883 
L 96.107417 346.349883 
L 97.595021 346.349883 
L 98.487583 346.349883 
L 98.963616 339.346843 
L 100.391715 335.845323 
L 101.284277 335.845323 
L 128.477665 325.340764 
L 129.072707 325.340764 
L 129.310723 321.839244 
L 130.203285 321.839244 
L 131.393368 321.839244 
L 132.58345 321.839244 
L 132.821467 314.836205 
L 133.357004 311.334685 
L 135.142128 311.334685 
L 135.439649 311.334685 
L 138.414855 311.334685 
L 139.009897 311.334685 
L 140.199979 311.334685 
L 140.437996 307.833165 
L 141.330558 307.833165 
L 186.256178 272.817968 
L 186.553698 272.817968 
L 187.14874 272.817968 
L 188.636343 272.817968 
L 189.528905 272.817968 
L 189.707417 265.814928 
L 190.302459 265.814928 
L 191.790062 265.814928 
L 192.980145 265.814928 
L 193.277665 265.814928 
L 193.277665 262.313409 
L 195.598326 258.811889 
L 197.08593 258.811889 
L 197.680971 258.811889 
L 199.168574 258.811889 
L 200.358657 258.811889 
L 243.915682 244.80581 
L 244.213202 244.80581 
L 244.808244 244.80581 
L 244.986756 237.80277 
L 245.581798 237.80277 
L 246.47436 237.80277 
L 247.961963 237.80277 
L 247.961963 234.30125 
L 248.557004 234.30125 
L 249.747087 234.30125 
L 250.282624 230.799731 
L 250.282624 223.796691 
L 250.52064 220.295171 
L 251.413202 220.295171 
L 254.98345 220.295171 
L 256.471054 220.295171 
L 257.066095 220.295171 
L 259.743781 220.295171 
L 260.041302 220.295171 
L 365.125599 206.289092 
L 366.315682 206.289092 
L 366.910723 206.289092 
L 367.803285 206.289092 
L 367.803285 202.787573 
L 368.100806 202.787573 
L 368.100806 199.286053 
L 368.695847 195.784533 
L 369.88593 195.784533 
L 370.778492 195.784533 
L 371.968574 195.784533 
L 372.861136 195.784533 
L 493.2975 55.723743 
" style="fill:none;stroke:#0000ff;stroke-linecap:square;"/>
   </g>
   <g id="line2d_2">
    <path clip-path="url(#p4b83e8b98f)" d="M 46.8975 384.8666 
L 65.522293 353.352922 
L 65.819814 353.352922 
L 68.140475 335.845323 
L 68.437996 335.845323 
L 69.925599 335.845323 
L 70.22312 335.845323 
L 71.591715 332.343804 
L 71.889236 332.343804 
L 72.127252 328.842284 
L 72.365269 328.842284 
L 72.662789 328.842284 
L 73.555351 328.842284 
L 74.626426 325.340764 
L 74.864442 321.839244 
L 76.054525 321.839244 
L 76.292541 318.337725 
L 76.828079 314.836205 
L 77.601632 307.833165 
L 77.839649 304.331646 
L 78.43469 304.331646 
L 87.479318 304.331646 
L 87.776839 300.830126 
L 88.37188 300.830126 
L 89.264442 300.830126 
L 89.561963 300.830126 
L 89.799979 297.328606 
L 89.978492 290.325567 
L 90.216508 290.325567 
L 90.454525 286.824047 
L 90.752045 286.824047 
L 108.127252 276.319488 
L 108.365269 276.319488 
L 109.555351 276.319488 
L 110.447913 276.319488 
L 111.340475 276.319488 
L 111.935517 276.319488 
L 112.530558 276.319488 
L 113.006591 269.316448 
L 113.006591 265.814928 
L 113.304112 265.814928 
L 133.595021 258.811889 
L 133.892541 258.811889 
L 134.071054 251.808849 
L 135.261136 251.808849 
L 135.439649 244.80581 
L 136.629731 244.80581 
L 153.528905 241.30429 
L 153.826426 241.30429 
L 154.302459 234.30125 
L 154.8975 234.30125 
L 155.492541 234.30125 
L 155.790062 234.30125 
L 156.028079 230.799731 
L 156.325599 230.799731 
L 156.563616 227.298211 
L 157.753698 227.298211 
L 182.923946 199.286053 
L 183.518988 199.286053 
L 184.41155 199.286053 
L 186.791715 199.286053 
L 187.267748 192.283013 
L 188.16031 192.283013 
L 188.695847 188.781494 
L 188.695847 185.279974 
L 225.826426 164.270855 
L 226.123946 160.769336 
L 227.016508 160.769336 
L 227.492541 153.766296 
L 227.790062 153.766296 
L 228.682624 153.766296 
L 229.218161 150.264776 
L 229.456178 146.763257 
L 282.712376 125.754138 
L 283.902459 125.754138 
L 284.080971 125.754138 
L 285.271054 125.754138 
L 286.163616 125.754138 
L 287.353698 125.754138 
L 332.398326 115.249579 
L 332.636343 108.246539 
L 332.933864 108.246539 
L 332.933864 104.745019 
L 335.016508 104.745019 
L 335.492541 97.74198 
L 410.884277 83.735901 
L 411.776839 83.735901 
L 493.2975 55.723743 
" style="fill:none;stroke:#008000;stroke-linecap:square;"/>
   </g>
   <g id="line2d_3">
    <path clip-path="url(#p4b83e8b98f)" d="M 46.8975 384.8666 
L 49.63469 384.8666 
L 51.062789 384.8666 
L 51.538822 381.36508 
L 51.776839 377.86356 
L 56.953698 377.86356 
L 57.191715 374.362041 
L 58.381798 374.362041 
L 63.618161 367.359001 
L 66.295847 367.359001 
L 66.533864 363.857481 
L 68.616508 363.857481 
L 68.854525 360.355962 
L 70.342128 360.355962 
L 78.494194 353.352922 
L 78.791715 353.352922 
L 78.970227 346.349883 
L 79.208244 342.848363 
L 79.505764 342.848363 
L 79.981798 335.845323 
L 80.87436 335.845323 
L 81.112376 332.343804 
L 81.707417 332.343804 
L 81.945434 328.842284 
L 85.515682 328.842284 
L 86.051219 325.340764 
L 88.133864 325.340764 
L 103.247913 286.824047 
L 106.52064 286.824047 
L 106.758657 283.322527 
L 107.056178 283.322527 
L 107.829731 276.319488 
L 108.127252 276.319488 
L 109.555351 272.817968 
L 115.505764 272.817968 
L 138.652872 234.30125 
L 138.831384 227.298211 
L 140.318988 227.298211 
L 140.4975 220.295171 
L 154.18345 220.295171 
L 177.50907 192.283013 
L 180.484277 192.283013 
L 180.722293 188.781494 
L 181.317335 188.781494 
L 181.793368 181.778454 
L 183.876012 181.778454 
L 184.70907 178.276934 
L 186.791715 178.276934 
L 187.565269 171.273895 
L 187.803285 167.772375 
L 190.480971 167.772375 
L 228.266095 150.264776 
L 232.133864 150.264776 
L 232.609897 143.261737 
L 232.847913 143.261737 
L 233.918988 136.258697 
L 235.704112 136.258697 
L 235.882624 129.255658 
L 239.750393 129.255658 
L 294.196674 87.237421 
L 297.469401 87.237421 
L 297.707417 83.735901 
L 302.765269 83.735901 
L 303.241302 76.732861 
L 304.133864 76.732861 
L 411.062789 62.726782 
L 414.930558 62.726782 
L 493.2975 55.723743 
L 493.2975 55.723743 
" style="fill:none;stroke:#ff0000;stroke-linecap:square;"/>
   </g>
   <g id="line2d_4">
    <path clip-path="url(#p4b83e8b98f)" d="M 46.8975 384.8666 
L 493.2975 55.723743 
" style="fill:none;stroke:#000000;stroke-dasharray:6.000000,6.000000;stroke-dashoffset:0.0;"/>
   </g>
   <g id="patch_3">
    <path d="M 46.8975 384.8666 
L 46.8975 39.2666 
" style="fill:none;stroke:#000000;stroke-linecap:square;stroke-linejoin:miter;"/>
   </g>
   <g id="patch_4">
    <path d="M 493.2975 384.8666 
L 493.2975 39.2666 
" style="fill:none;stroke:#000000;stroke-linecap:square;stroke-linejoin:miter;"/>
   </g>
   <g id="patch_5">
    <path d="M 46.8975 39.2666 
L 493.2975 39.2666 
" style="fill:none;stroke:#000000;stroke-linecap:square;stroke-linejoin:miter;"/>
   </g>
   <g id="patch_6">
    <path d="M 46.8975 384.8666 
L 493.2975 384.8666 
" style="fill:none;stroke:#000000;stroke-linecap:square;stroke-linejoin:miter;"/>
   </g>
   <g id="matplotlib.axis_1">
    <g id="xtick_1">
     <g id="line2d_5">
      <defs>
       <path d="M 0 0 
L 0 -4 
" id="mf0f40fdc96" style="stroke:#000000;stroke-width:0.5;"/>
      </defs>
      <g>
       <use style="stroke:#000000;stroke-width:0.5;" x="46.8975" xlink:href="#mf0f40fdc96" y="384.8666"/>
      </g>
     </g>
     <g id="line2d_6">
      <defs>
       <path d="M 0 0 
L 0 4 
" id="mbd5052ca7e" style="stroke:#000000;stroke-width:0.5;"/>
      </defs>
      <g>
       <use style="stroke:#000000;stroke-width:0.5;" x="46.8975" xlink:href="#mbd5052ca7e" y="39.2666"/>
      </g>
     </g>
     <g id="text_1">
      <!-- 0.0 -->
      <defs>
       <path d="M 31.78125 66.40625 
Q 24.171875 66.40625 20.328125 58.90625 
Q 16.5 51.421875 16.5 36.375 
Q 16.5 21.390625 20.328125 13.890625 
Q 24.171875 6.390625 31.78125 6.390625 
Q 39.453125 6.390625 43.28125 13.890625 
Q 47.125 21.390625 47.125 36.375 
Q 47.125 51.421875 43.28125 58.90625 
Q 39.453125 66.40625 31.78125 66.40625 
M 31.78125 74.21875 
Q 44.046875 74.21875 50.515625 64.515625 
Q 56.984375 54.828125 56.984375 36.375 
Q 56.984375 17.96875 50.515625 8.265625 
Q 44.046875 -1.421875 31.78125 -1.421875 
Q 19.53125 -1.421875 13.0625 8.265625 
Q 6.59375 17.96875 6.59375 36.375 
Q 6.59375 54.828125 13.0625 64.515625 
Q 19.53125 74.21875 31.78125 74.21875 
" id="BitstreamVeraSans-Roman-30"/>
       <path d="M 10.6875 12.40625 
L 21 12.40625 
L 21 0 
L 10.6875 0 
z
" id="BitstreamVeraSans-Roman-2e"/>
      </defs>
      <g transform="translate(37.355625 397.984725)scale(0.12 -0.12)">
       <use xlink:href="#BitstreamVeraSans-Roman-30"/>
       <use x="63.623046875" xlink:href="#BitstreamVeraSans-Roman-2e"/>
       <use x="95.41015625" xlink:href="#BitstreamVeraSans-Roman-30"/>
      </g>
     </g>
    </g>
    <g id="xtick_2">
     <g id="line2d_7">
      <g>
       <use style="stroke:#000000;stroke-width:0.5;" x="136.1775" xlink:href="#mf0f40fdc96" y="384.8666"/>
      </g>
     </g>
     <g id="line2d_8">
      <g>
       <use style="stroke:#000000;stroke-width:0.5;" x="136.1775" xlink:href="#mbd5052ca7e" y="39.2666"/>
      </g>
     </g>
     <g id="text_2">
      <!-- 0.2 -->
      <defs>
       <path d="M 19.1875 8.296875 
L 53.609375 8.296875 
L 53.609375 0 
L 7.328125 0 
L 7.328125 8.296875 
Q 12.9375 14.109375 22.625 23.890625 
Q 32.328125 33.6875 34.8125 36.53125 
Q 39.546875 41.84375 41.421875 45.53125 
Q 43.3125 49.21875 43.3125 52.78125 
Q 43.3125 58.59375 39.234375 62.25 
Q 35.15625 65.921875 28.609375 65.921875 
Q 23.96875 65.921875 18.8125 64.3125 
Q 13.671875 62.703125 7.8125 59.421875 
L 7.8125 69.390625 
Q 13.765625 71.78125 18.9375 73 
Q 24.125 74.21875 28.421875 74.21875 
Q 39.75 74.21875 46.484375 68.546875 
Q 53.21875 62.890625 53.21875 53.421875 
Q 53.21875 48.921875 51.53125 44.890625 
Q 49.859375 40.875 45.40625 35.40625 
Q 44.1875 33.984375 37.640625 27.21875 
Q 31.109375 20.453125 19.1875 8.296875 
" id="BitstreamVeraSans-Roman-32"/>
      </defs>
      <g transform="translate(126.635625 397.984725)scale(0.12 -0.12)">
       <use xlink:href="#BitstreamVeraSans-Roman-30"/>
       <use x="63.623046875" xlink:href="#BitstreamVeraSans-Roman-2e"/>
       <use x="95.41015625" xlink:href="#BitstreamVeraSans-Roman-32"/>
      </g>
     </g>
    </g>
    <g id="xtick_3">
     <g id="line2d_9">
      <g>
       <use style="stroke:#000000;stroke-width:0.5;" x="225.4575" xlink:href="#mf0f40fdc96" y="384.8666"/>
      </g>
     </g>
     <g id="line2d_10">
      <g>
       <use style="stroke:#000000;stroke-width:0.5;" x="225.4575" xlink:href="#mbd5052ca7e" y="39.2666"/>
      </g>
     </g>
     <g id="text_3">
      <!-- 0.4 -->
      <defs>
       <path d="M 37.796875 64.3125 
L 12.890625 25.390625 
L 37.796875 25.390625 
z
M 35.203125 72.90625 
L 47.609375 72.90625 
L 47.609375 25.390625 
L 58.015625 25.390625 
L 58.015625 17.1875 
L 47.609375 17.1875 
L 47.609375 0 
L 37.796875 0 
L 37.796875 17.1875 
L 4.890625 17.1875 
L 4.890625 26.703125 
z
" id="BitstreamVeraSans-Roman-34"/>
      </defs>
      <g transform="translate(215.915625 397.984725)scale(0.12 -0.12)">
       <use xlink:href="#BitstreamVeraSans-Roman-30"/>
       <use x="63.623046875" xlink:href="#BitstreamVeraSans-Roman-2e"/>
       <use x="95.41015625" xlink:href="#BitstreamVeraSans-Roman-34"/>
      </g>
     </g>
    </g>
    <g id="xtick_4">
     <g id="line2d_11">
      <g>
       <use style="stroke:#000000;stroke-width:0.5;" x="314.7375" xlink:href="#mf0f40fdc96" y="384.8666"/>
      </g>
     </g>
     <g id="line2d_12">
      <g>
       <use style="stroke:#000000;stroke-width:0.5;" x="314.7375" xlink:href="#mbd5052ca7e" y="39.2666"/>
      </g>
     </g>
     <g id="text_4">
      <!-- 0.6 -->
      <defs>
       <path d="M 33.015625 40.375 
Q 26.375 40.375 22.484375 35.828125 
Q 18.609375 31.296875 18.609375 23.390625 
Q 18.609375 15.53125 22.484375 10.953125 
Q 26.375 6.390625 33.015625 6.390625 
Q 39.65625 6.390625 43.53125 10.953125 
Q 47.40625 15.53125 47.40625 23.390625 
Q 47.40625 31.296875 43.53125 35.828125 
Q 39.65625 40.375 33.015625 40.375 
M 52.59375 71.296875 
L 52.59375 62.3125 
Q 48.875 64.0625 45.09375 64.984375 
Q 41.3125 65.921875 37.59375 65.921875 
Q 27.828125 65.921875 22.671875 59.328125 
Q 17.53125 52.734375 16.796875 39.40625 
Q 19.671875 43.65625 24.015625 45.921875 
Q 28.375 48.1875 33.59375 48.1875 
Q 44.578125 48.1875 50.953125 41.515625 
Q 57.328125 34.859375 57.328125 23.390625 
Q 57.328125 12.15625 50.6875 5.359375 
Q 44.046875 -1.421875 33.015625 -1.421875 
Q 20.359375 -1.421875 13.671875 8.265625 
Q 6.984375 17.96875 6.984375 36.375 
Q 6.984375 53.65625 15.1875 63.9375 
Q 23.390625 74.21875 37.203125 74.21875 
Q 40.921875 74.21875 44.703125 73.484375 
Q 48.484375 72.75 52.59375 71.296875 
" id="BitstreamVeraSans-Roman-36"/>
      </defs>
      <g transform="translate(305.195625 397.984725)scale(0.12 -0.12)">
       <use xlink:href="#BitstreamVeraSans-Roman-30"/>
       <use x="63.623046875" xlink:href="#BitstreamVeraSans-Roman-2e"/>
       <use x="95.41015625" xlink:href="#BitstreamVeraSans-Roman-36"/>
      </g>
     </g>
    </g>
    <g id="xtick_5">
     <g id="line2d_13">
      <g>
       <use style="stroke:#000000;stroke-width:0.5;" x="404.0175" xlink:href="#mf0f40fdc96" y="384.8666"/>
      </g>
     </g>
     <g id="line2d_14">
      <g>
       <use style="stroke:#000000;stroke-width:0.5;" x="404.0175" xlink:href="#mbd5052ca7e" y="39.2666"/>
      </g>
     </g>
     <g id="text_5">
      <!-- 0.8 -->
      <defs>
       <path d="M 31.78125 34.625 
Q 24.75 34.625 20.71875 30.859375 
Q 16.703125 27.09375 16.703125 20.515625 
Q 16.703125 13.921875 20.71875 10.15625 
Q 24.75 6.390625 31.78125 6.390625 
Q 38.8125 6.390625 42.859375 10.171875 
Q 46.921875 13.96875 46.921875 20.515625 
Q 46.921875 27.09375 42.890625 30.859375 
Q 38.875 34.625 31.78125 34.625 
M 21.921875 38.8125 
Q 15.578125 40.375 12.03125 44.71875 
Q 8.5 49.078125 8.5 55.328125 
Q 8.5 64.0625 14.71875 69.140625 
Q 20.953125 74.21875 31.78125 74.21875 
Q 42.671875 74.21875 48.875 69.140625 
Q 55.078125 64.0625 55.078125 55.328125 
Q 55.078125 49.078125 51.53125 44.71875 
Q 48 40.375 41.703125 38.8125 
Q 48.828125 37.15625 52.796875 32.3125 
Q 56.78125 27.484375 56.78125 20.515625 
Q 56.78125 9.90625 50.3125 4.234375 
Q 43.84375 -1.421875 31.78125 -1.421875 
Q 19.734375 -1.421875 13.25 4.234375 
Q 6.78125 9.90625 6.78125 20.515625 
Q 6.78125 27.484375 10.78125 32.3125 
Q 14.796875 37.15625 21.921875 38.8125 
M 18.3125 54.390625 
Q 18.3125 48.734375 21.84375 45.5625 
Q 25.390625 42.390625 31.78125 42.390625 
Q 38.140625 42.390625 41.71875 45.5625 
Q 45.3125 48.734375 45.3125 54.390625 
Q 45.3125 60.0625 41.71875 63.234375 
Q 38.140625 66.40625 31.78125 66.40625 
Q 25.390625 66.40625 21.84375 63.234375 
Q 18.3125 60.0625 18.3125 54.390625 
" id="BitstreamVeraSans-Roman-38"/>
      </defs>
      <g transform="translate(394.475625 397.984725)scale(0.12 -0.12)">
       <use xlink:href="#BitstreamVeraSans-Roman-30"/>
       <use x="63.623046875" xlink:href="#BitstreamVeraSans-Roman-2e"/>
       <use x="95.41015625" xlink:href="#BitstreamVeraSans-Roman-38"/>
      </g>
     </g>
    </g>
    <g id="xtick_6">
     <g id="line2d_15">
      <g>
       <use style="stroke:#000000;stroke-width:0.5;" x="493.2975" xlink:href="#mf0f40fdc96" y="384.8666"/>
      </g>
     </g>
     <g id="line2d_16">
      <g>
       <use style="stroke:#000000;stroke-width:0.5;" x="493.2975" xlink:href="#mbd5052ca7e" y="39.2666"/>
      </g>
     </g>
     <g id="text_6">
      <!-- 1.0 -->
      <defs>
       <path d="M 12.40625 8.296875 
L 28.515625 8.296875 
L 28.515625 63.921875 
L 10.984375 60.40625 
L 10.984375 69.390625 
L 28.421875 72.90625 
L 38.28125 72.90625 
L 38.28125 8.296875 
L 54.390625 8.296875 
L 54.390625 0 
L 12.40625 0 
z
" id="BitstreamVeraSans-Roman-31"/>
      </defs>
      <g transform="translate(483.755625 397.984725)scale(0.12 -0.12)">
       <use xlink:href="#BitstreamVeraSans-Roman-31"/>
       <use x="63.623046875" xlink:href="#BitstreamVeraSans-Roman-2e"/>
       <use x="95.41015625" xlink:href="#BitstreamVeraSans-Roman-30"/>
      </g>
     </g>
    </g>
    <g id="text_7">
     <!-- False Positive Rate -->
     <defs>
      <path d="M 9.421875 54.6875 
L 18.40625 54.6875 
L 18.40625 0 
L 9.421875 0 
z
M 9.421875 75.984375 
L 18.40625 75.984375 
L 18.40625 64.59375 
L 9.421875 64.59375 
z
" id="BitstreamVeraSans-Roman-69"/>
      <path d="M 44.28125 53.078125 
L 44.28125 44.578125 
Q 40.484375 46.53125 36.375 47.5 
Q 32.28125 48.484375 27.875 48.484375 
Q 21.1875 48.484375 17.84375 46.4375 
Q 14.5 44.390625 14.5 40.28125 
Q 14.5 37.15625 16.890625 35.375 
Q 19.28125 33.59375 26.515625 31.984375 
L 29.59375 31.296875 
Q 39.15625 29.25 43.1875 25.515625 
Q 47.21875 21.78125 47.21875 15.09375 
Q 47.21875 7.46875 41.1875 3.015625 
Q 35.15625 -1.421875 24.609375 -1.421875 
Q 20.21875 -1.421875 15.453125 -0.5625 
Q 10.6875 0.296875 5.421875 2 
L 5.421875 11.28125 
Q 10.40625 8.6875 15.234375 7.390625 
Q 20.0625 6.109375 24.8125 6.109375 
Q 31.15625 6.109375 34.5625 8.28125 
Q 37.984375 10.453125 37.984375 14.40625 
Q 37.984375 18.0625 35.515625 20.015625 
Q 33.0625 21.96875 24.703125 23.78125 
L 21.578125 24.515625 
Q 13.234375 26.265625 9.515625 29.90625 
Q 5.8125 33.546875 5.8125 39.890625 
Q 5.8125 47.609375 11.28125 51.796875 
Q 16.75 56 26.8125 56 
Q 31.78125 56 36.171875 55.265625 
Q 40.578125 54.546875 44.28125 53.078125 
" id="BitstreamVeraSans-Roman-73"/>
      <path id="BitstreamVeraSans-Roman-20"/>
      <path d="M 19.671875 64.796875 
L 19.671875 37.40625 
L 32.078125 37.40625 
Q 38.96875 37.40625 42.71875 40.96875 
Q 46.484375 44.53125 46.484375 51.125 
Q 46.484375 57.671875 42.71875 61.234375 
Q 38.96875 64.796875 32.078125 64.796875 
z
M 9.8125 72.90625 
L 32.078125 72.90625 
Q 44.34375 72.90625 50.609375 67.359375 
Q 56.890625 61.8125 56.890625 51.125 
Q 56.890625 40.328125 50.609375 34.8125 
Q 44.34375 29.296875 32.078125 29.296875 
L 19.671875 29.296875 
L 19.671875 0 
L 9.8125 0 
z
" id="BitstreamVeraSans-Roman-50"/>
      <path d="M 44.390625 34.1875 
Q 47.5625 33.109375 50.5625 29.59375 
Q 53.5625 26.078125 56.59375 19.921875 
L 66.609375 0 
L 56 0 
L 46.6875 18.703125 
Q 43.0625 26.03125 39.671875 28.421875 
Q 36.28125 30.8125 30.421875 30.8125 
L 19.671875 30.8125 
L 19.671875 0 
L 9.8125 0 
L 9.8125 72.90625 
L 32.078125 72.90625 
Q 44.578125 72.90625 50.734375 67.671875 
Q 56.890625 62.453125 56.890625 51.90625 
Q 56.890625 45.015625 53.6875 40.46875 
Q 50.484375 35.9375 44.390625 34.1875 
M 19.671875 64.796875 
L 19.671875 38.921875 
L 32.078125 38.921875 
Q 39.203125 38.921875 42.84375 42.21875 
Q 46.484375 45.515625 46.484375 51.90625 
Q 46.484375 58.296875 42.84375 61.546875 
Q 39.203125 64.796875 32.078125 64.796875 
z
" id="BitstreamVeraSans-Roman-52"/>
      <path d="M 30.609375 48.390625 
Q 23.390625 48.390625 19.1875 42.75 
Q 14.984375 37.109375 14.984375 27.296875 
Q 14.984375 17.484375 19.15625 11.84375 
Q 23.34375 6.203125 30.609375 6.203125 
Q 37.796875 6.203125 41.984375 11.859375 
Q 46.1875 17.53125 46.1875 27.296875 
Q 46.1875 37.015625 41.984375 42.703125 
Q 37.796875 48.390625 30.609375 48.390625 
M 30.609375 56 
Q 42.328125 56 49.015625 48.375 
Q 55.71875 40.765625 55.71875 27.296875 
Q 55.71875 13.875 49.015625 6.21875 
Q 42.328125 -1.421875 30.609375 -1.421875 
Q 18.84375 -1.421875 12.171875 6.21875 
Q 5.515625 13.875 5.515625 27.296875 
Q 5.515625 40.765625 12.171875 48.375 
Q 18.84375 56 30.609375 56 
" id="BitstreamVeraSans-Roman-6f"/>
      <path d="M 9.8125 72.90625 
L 51.703125 72.90625 
L 51.703125 64.59375 
L 19.671875 64.59375 
L 19.671875 43.109375 
L 48.578125 43.109375 
L 48.578125 34.8125 
L 19.671875 34.8125 
L 19.671875 0 
L 9.8125 0 
z
" id="BitstreamVeraSans-Roman-46"/>
      <path d="M 18.3125 70.21875 
L 18.3125 54.6875 
L 36.8125 54.6875 
L 36.8125 47.703125 
L 18.3125 47.703125 
L 18.3125 18.015625 
Q 18.3125 11.328125 20.140625 9.421875 
Q 21.96875 7.515625 27.59375 7.515625 
L 36.8125 7.515625 
L 36.8125 0 
L 27.59375 0 
Q 17.1875 0 13.234375 3.875 
Q 9.28125 7.765625 9.28125 18.015625 
L 9.28125 47.703125 
L 2.6875 47.703125 
L 2.6875 54.6875 
L 9.28125 54.6875 
L 9.28125 70.21875 
z
" id="BitstreamVeraSans-Roman-74"/>
      <path d="M 9.421875 75.984375 
L 18.40625 75.984375 
L 18.40625 0 
L 9.421875 0 
z
" id="BitstreamVeraSans-Roman-6c"/>
      <path d="M 2.984375 54.6875 
L 12.5 54.6875 
L 29.59375 8.796875 
L 46.6875 54.6875 
L 56.203125 54.6875 
L 35.6875 0 
L 23.484375 0 
z
" id="BitstreamVeraSans-Roman-76"/>
      <path d="M 34.28125 27.484375 
Q 23.390625 27.484375 19.1875 25 
Q 14.984375 22.515625 14.984375 16.5 
Q 14.984375 11.71875 18.140625 8.90625 
Q 21.296875 6.109375 26.703125 6.109375 
Q 34.1875 6.109375 38.703125 11.40625 
Q 43.21875 16.703125 43.21875 25.484375 
L 43.21875 27.484375 
z
M 52.203125 31.203125 
L 52.203125 0 
L 43.21875 0 
L 43.21875 8.296875 
Q 40.140625 3.328125 35.546875 0.953125 
Q 30.953125 -1.421875 24.3125 -1.421875 
Q 15.921875 -1.421875 10.953125 3.296875 
Q 6 8.015625 6 15.921875 
Q 6 25.140625 12.171875 29.828125 
Q 18.359375 34.515625 30.609375 34.515625 
L 43.21875 34.515625 
L 43.21875 35.40625 
Q 43.21875 41.609375 39.140625 45 
Q 35.0625 48.390625 27.6875 48.390625 
Q 23 48.390625 18.546875 47.265625 
Q 14.109375 46.140625 10.015625 43.890625 
L 10.015625 52.203125 
Q 14.9375 54.109375 19.578125 55.046875 
Q 24.21875 56 28.609375 56 
Q 40.484375 56 46.34375 49.84375 
Q 52.203125 43.703125 52.203125 31.203125 
" id="BitstreamVeraSans-Roman-61"/>
      <path d="M 56.203125 29.59375 
L 56.203125 25.203125 
L 14.890625 25.203125 
Q 15.484375 15.921875 20.484375 11.0625 
Q 25.484375 6.203125 34.421875 6.203125 
Q 39.59375 6.203125 44.453125 7.46875 
Q 49.3125 8.734375 54.109375 11.28125 
L 54.109375 2.78125 
Q 49.265625 0.734375 44.1875 -0.34375 
Q 39.109375 -1.421875 33.890625 -1.421875 
Q 20.796875 -1.421875 13.15625 6.1875 
Q 5.515625 13.8125 5.515625 26.8125 
Q 5.515625 40.234375 12.765625 48.109375 
Q 20.015625 56 32.328125 56 
Q 43.359375 56 49.78125 48.890625 
Q 56.203125 41.796875 56.203125 29.59375 
M 47.21875 32.234375 
Q 47.125 39.59375 43.09375 43.984375 
Q 39.0625 48.390625 32.421875 48.390625 
Q 24.90625 48.390625 20.390625 44.140625 
Q 15.875 39.890625 15.1875 32.171875 
z
" id="BitstreamVeraSans-Roman-65"/>
     </defs>
     <g transform="translate(213.4509375 414.598475)scale(0.12 -0.12)">
      <use xlink:href="#BitstreamVeraSans-Roman-46"/>
      <use x="57.37890625" xlink:href="#BitstreamVeraSans-Roman-61"/>
      <use x="118.658203125" xlink:href="#BitstreamVeraSans-Roman-6c"/>
      <use x="146.44140625" xlink:href="#BitstreamVeraSans-Roman-73"/>
      <use x="198.541015625" xlink:href="#BitstreamVeraSans-Roman-65"/>
      <use x="260.064453125" xlink:href="#BitstreamVeraSans-Roman-20"/>
      <use x="291.8515625" xlink:href="#BitstreamVeraSans-Roman-50"/>
      <use x="352.107421875" xlink:href="#BitstreamVeraSans-Roman-6f"/>
      <use x="413.2890625" xlink:href="#BitstreamVeraSans-Roman-73"/>
      <use x="465.388671875" xlink:href="#BitstreamVeraSans-Roman-69"/>
      <use x="493.171875" xlink:href="#BitstreamVeraSans-Roman-74"/>
      <use x="532.380859375" xlink:href="#BitstreamVeraSans-Roman-69"/>
      <use x="560.1640625" xlink:href="#BitstreamVeraSans-Roman-76"/>
      <use x="619.34375" xlink:href="#BitstreamVeraSans-Roman-65"/>
      <use x="680.8671875" xlink:href="#BitstreamVeraSans-Roman-20"/>
      <use x="712.654296875" xlink:href="#BitstreamVeraSans-Roman-52"/>
      <use x="782.10546875" xlink:href="#BitstreamVeraSans-Roman-61"/>
      <use x="843.384765625" xlink:href="#BitstreamVeraSans-Roman-74"/>
      <use x="882.59375" xlink:href="#BitstreamVeraSans-Roman-65"/>
     </g>
    </g>
   </g>
   <g id="matplotlib.axis_2">
    <g id="ytick_1">
     <g id="line2d_17">
      <defs>
       <path d="M 0 0 
L 4 0 
" id="m0a69e0b35d" style="stroke:#000000;stroke-width:0.5;"/>
      </defs>
      <g>
       <use style="stroke:#000000;stroke-width:0.5;" x="46.8975" xlink:href="#m0a69e0b35d" y="384.8666"/>
      </g>
     </g>
     <g id="line2d_18">
      <defs>
       <path d="M 0 0 
L -4 0 
" id="mcfdf29f634" style="stroke:#000000;stroke-width:0.5;"/>
      </defs>
      <g>
       <use style="stroke:#000000;stroke-width:0.5;" x="493.2975" xlink:href="#mcfdf29f634" y="384.8666"/>
      </g>
     </g>
     <g id="text_8">
      <!-- 0.0 -->
      <g transform="translate(23.81375 388.17785)scale(0.12 -0.12)">
       <use xlink:href="#BitstreamVeraSans-Roman-30"/>
       <use x="63.623046875" xlink:href="#BitstreamVeraSans-Roman-2e"/>
       <use x="95.41015625" xlink:href="#BitstreamVeraSans-Roman-30"/>
      </g>
     </g>
    </g>
    <g id="ytick_2">
     <g id="line2d_19">
      <g>
       <use style="stroke:#000000;stroke-width:0.5;" x="46.8975" xlink:href="#m0a69e0b35d" y="319.038028571"/>
      </g>
     </g>
     <g id="line2d_20">
      <g>
       <use style="stroke:#000000;stroke-width:0.5;" x="493.2975" xlink:href="#mcfdf29f634" y="319.038028571"/>
      </g>
     </g>
     <g id="text_9">
      <!-- 0.2 -->
      <g transform="translate(23.81375 322.349278571)scale(0.12 -0.12)">
       <use xlink:href="#BitstreamVeraSans-Roman-30"/>
       <use x="63.623046875" xlink:href="#BitstreamVeraSans-Roman-2e"/>
       <use x="95.41015625" xlink:href="#BitstreamVeraSans-Roman-32"/>
      </g>
     </g>
    </g>
    <g id="ytick_3">
     <g id="line2d_21">
      <g>
       <use style="stroke:#000000;stroke-width:0.5;" x="46.8975" xlink:href="#m0a69e0b35d" y="253.209457143"/>
      </g>
     </g>
     <g id="line2d_22">
      <g>
       <use style="stroke:#000000;stroke-width:0.5;" x="493.2975" xlink:href="#mcfdf29f634" y="253.209457143"/>
      </g>
     </g>
     <g id="text_10">
      <!-- 0.4 -->
      <g transform="translate(23.81375 256.520707143)scale(0.12 -0.12)">
       <use xlink:href="#BitstreamVeraSans-Roman-30"/>
       <use x="63.623046875" xlink:href="#BitstreamVeraSans-Roman-2e"/>
       <use x="95.41015625" xlink:href="#BitstreamVeraSans-Roman-34"/>
      </g>
     </g>
    </g>
    <g id="ytick_4">
     <g id="line2d_23">
      <g>
       <use style="stroke:#000000;stroke-width:0.5;" x="46.8975" xlink:href="#m0a69e0b35d" y="187.380885714"/>
      </g>
     </g>
     <g id="line2d_24">
      <g>
       <use style="stroke:#000000;stroke-width:0.5;" x="493.2975" xlink:href="#mcfdf29f634" y="187.380885714"/>
      </g>
     </g>
     <g id="text_11">
      <!-- 0.6 -->
      <g transform="translate(23.81375 190.692135714)scale(0.12 -0.12)">
       <use xlink:href="#BitstreamVeraSans-Roman-30"/>
       <use x="63.623046875" xlink:href="#BitstreamVeraSans-Roman-2e"/>
       <use x="95.41015625" xlink:href="#BitstreamVeraSans-Roman-36"/>
      </g>
     </g>
    </g>
    <g id="ytick_5">
     <g id="line2d_25">
      <g>
       <use style="stroke:#000000;stroke-width:0.5;" x="46.8975" xlink:href="#m0a69e0b35d" y="121.552314286"/>
      </g>
     </g>
     <g id="line2d_26">
      <g>
       <use style="stroke:#000000;stroke-width:0.5;" x="493.2975" xlink:href="#mcfdf29f634" y="121.552314286"/>
      </g>
     </g>
     <g id="text_12">
      <!-- 0.8 -->
      <g transform="translate(23.81375 124.863564286)scale(0.12 -0.12)">
       <use xlink:href="#BitstreamVeraSans-Roman-30"/>
       <use x="63.623046875" xlink:href="#BitstreamVeraSans-Roman-2e"/>
       <use x="95.41015625" xlink:href="#BitstreamVeraSans-Roman-38"/>
      </g>
     </g>
    </g>
    <g id="ytick_6">
     <g id="line2d_27">
      <g>
       <use style="stroke:#000000;stroke-width:0.5;" x="46.8975" xlink:href="#m0a69e0b35d" y="55.7237428571"/>
      </g>
     </g>
     <g id="line2d_28">
      <g>
       <use style="stroke:#000000;stroke-width:0.5;" x="493.2975" xlink:href="#mcfdf29f634" y="55.7237428571"/>
      </g>
     </g>
     <g id="text_13">
      <!-- 1.0 -->
      <g transform="translate(23.81375 59.0349928571)scale(0.12 -0.12)">
       <use xlink:href="#BitstreamVeraSans-Roman-31"/>
       <use x="63.623046875" xlink:href="#BitstreamVeraSans-Roman-2e"/>
       <use x="95.41015625" xlink:href="#BitstreamVeraSans-Roman-30"/>
      </g>
     </g>
    </g>
    <g id="text_14">
     <!-- True Positive Rate -->
     <defs>
      <path d="M -0.296875 72.90625 
L 61.375 72.90625 
L 61.375 64.59375 
L 35.5 64.59375 
L 35.5 0 
L 25.59375 0 
L 25.59375 64.59375 
L -0.296875 64.59375 
z
" id="BitstreamVeraSans-Roman-54"/>
      <path d="M 41.109375 46.296875 
Q 39.59375 47.171875 37.8125 47.578125 
Q 36.03125 48 33.890625 48 
Q 26.265625 48 22.1875 43.046875 
Q 18.109375 38.09375 18.109375 28.8125 
L 18.109375 0 
L 9.078125 0 
L 9.078125 54.6875 
L 18.109375 54.6875 
L 18.109375 46.1875 
Q 20.953125 51.171875 25.484375 53.578125 
Q 30.03125 56 36.53125 56 
Q 37.453125 56 38.578125 55.875 
Q 39.703125 55.765625 41.0625 55.515625 
z
" id="BitstreamVeraSans-Roman-72"/>
      <path d="M 8.5 21.578125 
L 8.5 54.6875 
L 17.484375 54.6875 
L 17.484375 21.921875 
Q 17.484375 14.15625 20.5 10.265625 
Q 23.53125 6.390625 29.59375 6.390625 
Q 36.859375 6.390625 41.078125 11.03125 
Q 45.3125 15.671875 45.3125 23.6875 
L 45.3125 54.6875 
L 54.296875 54.6875 
L 54.296875 0 
L 45.3125 0 
L 45.3125 8.40625 
Q 42.046875 3.421875 37.71875 1 
Q 33.40625 -1.421875 27.6875 -1.421875 
Q 18.265625 -1.421875 13.375 4.4375 
Q 8.5 10.296875 8.5 21.578125 
" id="BitstreamVeraSans-Roman-75"/>
     </defs>
     <g transform="translate(16.318125 266.7219125)rotate(-90.0)scale(0.12 -0.12)">
      <use xlink:href="#BitstreamVeraSans-Roman-54"/>
      <use x="60.865234375" xlink:href="#BitstreamVeraSans-Roman-72"/>
      <use x="101.978515625" xlink:href="#BitstreamVeraSans-Roman-75"/>
      <use x="165.357421875" xlink:href="#BitstreamVeraSans-Roman-65"/>
      <use x="226.880859375" xlink:href="#BitstreamVeraSans-Roman-20"/>
      <use x="258.66796875" xlink:href="#BitstreamVeraSans-Roman-50"/>
      <use x="318.923828125" xlink:href="#BitstreamVeraSans-Roman-6f"/>
      <use x="380.10546875" xlink:href="#BitstreamVeraSans-Roman-73"/>
      <use x="432.205078125" xlink:href="#BitstreamVeraSans-Roman-69"/>
      <use x="459.98828125" xlink:href="#BitstreamVeraSans-Roman-74"/>
      <use x="499.197265625" xlink:href="#BitstreamVeraSans-Roman-69"/>
      <use x="526.98046875" xlink:href="#BitstreamVeraSans-Roman-76"/>
      <use x="586.16015625" xlink:href="#BitstreamVeraSans-Roman-65"/>
      <use x="647.68359375" xlink:href="#BitstreamVeraSans-Roman-20"/>
      <use x="679.470703125" xlink:href="#BitstreamVeraSans-Roman-52"/>
      <use x="748.921875" xlink:href="#BitstreamVeraSans-Roman-61"/>
      <use x="810.201171875" xlink:href="#BitstreamVeraSans-Roman-74"/>
      <use x="849.41015625" xlink:href="#BitstreamVeraSans-Roman-65"/>
     </g>
    </g>
   </g>
   <g id="text_15">
    <!-- ROC Curve RandomForest + SMOTE -->
    <defs>
     <path d="M 64.40625 67.28125 
L 64.40625 56.890625 
Q 59.421875 61.53125 53.78125 63.8125 
Q 48.140625 66.109375 41.796875 66.109375 
Q 29.296875 66.109375 22.65625 58.46875 
Q 16.015625 50.828125 16.015625 36.375 
Q 16.015625 21.96875 22.65625 14.328125 
Q 29.296875 6.6875 41.796875 6.6875 
Q 48.140625 6.6875 53.78125 8.984375 
Q 59.421875 11.28125 64.40625 15.921875 
L 64.40625 5.609375 
Q 59.234375 2.09375 53.4375 0.328125 
Q 47.65625 -1.421875 41.21875 -1.421875 
Q 24.65625 -1.421875 15.125 8.703125 
Q 5.609375 18.84375 5.609375 36.375 
Q 5.609375 53.953125 15.125 64.078125 
Q 24.65625 74.21875 41.21875 74.21875 
Q 47.75 74.21875 53.53125 72.484375 
Q 59.328125 70.75 64.40625 67.28125 
" id="BitstreamVeraSans-Roman-43"/>
     <path d="M 45.40625 46.390625 
L 45.40625 75.984375 
L 54.390625 75.984375 
L 54.390625 0 
L 45.40625 0 
L 45.40625 8.203125 
Q 42.578125 3.328125 38.25 0.953125 
Q 33.9375 -1.421875 27.875 -1.421875 
Q 17.96875 -1.421875 11.734375 6.484375 
Q 5.515625 14.40625 5.515625 27.296875 
Q 5.515625 40.1875 11.734375 48.09375 
Q 17.96875 56 27.875 56 
Q 33.9375 56 38.25 53.625 
Q 42.578125 51.265625 45.40625 46.390625 
M 14.796875 27.296875 
Q 14.796875 17.390625 18.875 11.75 
Q 22.953125 6.109375 30.078125 6.109375 
Q 37.203125 6.109375 41.296875 11.75 
Q 45.40625 17.390625 45.40625 27.296875 
Q 45.40625 37.203125 41.296875 42.84375 
Q 37.203125 48.484375 30.078125 48.484375 
Q 22.953125 48.484375 18.875 42.84375 
Q 14.796875 37.203125 14.796875 27.296875 
" id="BitstreamVeraSans-Roman-64"/>
     <path d="M 52 44.1875 
Q 55.375 50.25 60.0625 53.125 
Q 64.75 56 71.09375 56 
Q 79.640625 56 84.28125 50.015625 
Q 88.921875 44.046875 88.921875 33.015625 
L 88.921875 0 
L 79.890625 0 
L 79.890625 32.71875 
Q 79.890625 40.578125 77.09375 44.375 
Q 74.3125 48.1875 68.609375 48.1875 
Q 61.625 48.1875 57.5625 43.546875 
Q 53.515625 38.921875 53.515625 30.90625 
L 53.515625 0 
L 44.484375 0 
L 44.484375 32.71875 
Q 44.484375 40.625 41.703125 44.40625 
Q 38.921875 48.1875 33.109375 48.1875 
Q 26.21875 48.1875 22.15625 43.53125 
Q 18.109375 38.875 18.109375 30.90625 
L 18.109375 0 
L 9.078125 0 
L 9.078125 54.6875 
L 18.109375 54.6875 
L 18.109375 46.1875 
Q 21.1875 51.21875 25.484375 53.609375 
Q 29.78125 56 35.6875 56 
Q 41.65625 56 45.828125 52.96875 
Q 50 49.953125 52 44.1875 
" id="BitstreamVeraSans-Roman-6d"/>
     <path d="M 53.515625 70.515625 
L 53.515625 60.890625 
Q 47.90625 63.578125 42.921875 64.890625 
Q 37.9375 66.21875 33.296875 66.21875 
Q 25.25 66.21875 20.875 63.09375 
Q 16.5 59.96875 16.5 54.203125 
Q 16.5 49.359375 19.40625 46.890625 
Q 22.3125 44.4375 30.421875 42.921875 
L 36.375 41.703125 
Q 47.40625 39.59375 52.65625 34.296875 
Q 57.90625 29 57.90625 20.125 
Q 57.90625 9.515625 50.796875 4.046875 
Q 43.703125 -1.421875 29.984375 -1.421875 
Q 24.8125 -1.421875 18.96875 -0.25 
Q 13.140625 0.921875 6.890625 3.21875 
L 6.890625 13.375 
Q 12.890625 10.015625 18.65625 8.296875 
Q 24.421875 6.59375 29.984375 6.59375 
Q 38.421875 6.59375 43.015625 9.90625 
Q 47.609375 13.234375 47.609375 19.390625 
Q 47.609375 24.75 44.3125 27.78125 
Q 41.015625 30.8125 33.5 32.328125 
L 27.484375 33.5 
Q 16.453125 35.6875 11.515625 40.375 
Q 6.59375 45.0625 6.59375 53.421875 
Q 6.59375 63.09375 13.40625 68.65625 
Q 20.21875 74.21875 32.171875 74.21875 
Q 37.3125 74.21875 42.625 73.28125 
Q 47.953125 72.359375 53.515625 70.515625 
" id="BitstreamVeraSans-Roman-53"/>
     <path d="M 39.40625 66.21875 
Q 28.65625 66.21875 22.328125 58.203125 
Q 16.015625 50.203125 16.015625 36.375 
Q 16.015625 22.609375 22.328125 14.59375 
Q 28.65625 6.59375 39.40625 6.59375 
Q 50.140625 6.59375 56.421875 14.59375 
Q 62.703125 22.609375 62.703125 36.375 
Q 62.703125 50.203125 56.421875 58.203125 
Q 50.140625 66.21875 39.40625 66.21875 
M 39.40625 74.21875 
Q 54.734375 74.21875 63.90625 63.9375 
Q 73.09375 53.65625 73.09375 36.375 
Q 73.09375 19.140625 63.90625 8.859375 
Q 54.734375 -1.421875 39.40625 -1.421875 
Q 24.03125 -1.421875 14.8125 8.828125 
Q 5.609375 19.09375 5.609375 36.375 
Q 5.609375 53.65625 14.8125 63.9375 
Q 24.03125 74.21875 39.40625 74.21875 
" id="BitstreamVeraSans-Roman-4f"/>
     <path d="M 46 62.703125 
L 46 35.5 
L 73.1875 35.5 
L 73.1875 27.203125 
L 46 27.203125 
L 46 0 
L 37.796875 0 
L 37.796875 27.203125 
L 10.59375 27.203125 
L 10.59375 35.5 
L 37.796875 35.5 
L 37.796875 62.703125 
z
" id="BitstreamVeraSans-Roman-2b"/>
     <path d="M 9.8125 72.90625 
L 55.90625 72.90625 
L 55.90625 64.59375 
L 19.671875 64.59375 
L 19.671875 43.015625 
L 54.390625 43.015625 
L 54.390625 34.71875 
L 19.671875 34.71875 
L 19.671875 8.296875 
L 56.78125 8.296875 
L 56.78125 0 
L 9.8125 0 
z
" id="BitstreamVeraSans-Roman-45"/>
     <path d="M 9.8125 72.90625 
L 24.515625 72.90625 
L 43.109375 23.296875 
L 61.8125 72.90625 
L 76.515625 72.90625 
L 76.515625 0 
L 66.890625 0 
L 66.890625 64.015625 
L 48.09375 14.015625 
L 38.1875 14.015625 
L 19.390625 64.015625 
L 19.390625 0 
L 9.8125 0 
z
" id="BitstreamVeraSans-Roman-4d"/>
     <path d="M 54.890625 33.015625 
L 54.890625 0 
L 45.90625 0 
L 45.90625 32.71875 
Q 45.90625 40.484375 42.875 44.328125 
Q 39.84375 48.1875 33.796875 48.1875 
Q 26.515625 48.1875 22.3125 43.546875 
Q 18.109375 38.921875 18.109375 30.90625 
L 18.109375 0 
L 9.078125 0 
L 9.078125 54.6875 
L 18.109375 54.6875 
L 18.109375 46.1875 
Q 21.34375 51.125 25.703125 53.5625 
Q 30.078125 56 35.796875 56 
Q 45.21875 56 50.046875 50.171875 
Q 54.890625 44.34375 54.890625 33.015625 
" id="BitstreamVeraSans-Roman-6e"/>
    </defs>
    <g transform="translate(140.102625 18.14175)scale(0.144 -0.144)">
     <use xlink:href="#BitstreamVeraSans-Roman-52"/>
     <use x="69.482421875" xlink:href="#BitstreamVeraSans-Roman-4f"/>
     <use x="148.193359375" xlink:href="#BitstreamVeraSans-Roman-43"/>
     <use x="218.017578125" xlink:href="#BitstreamVeraSans-Roman-20"/>
     <use x="249.8046875" xlink:href="#BitstreamVeraSans-Roman-43"/>
     <use x="319.62890625" xlink:href="#BitstreamVeraSans-Roman-75"/>
     <use x="383.0078125" xlink:href="#BitstreamVeraSans-Roman-72"/>
     <use x="424.12109375" xlink:href="#BitstreamVeraSans-Roman-76"/>
     <use x="483.30078125" xlink:href="#BitstreamVeraSans-Roman-65"/>
     <use x="544.82421875" xlink:href="#BitstreamVeraSans-Roman-20"/>
     <use x="576.611328125" xlink:href="#BitstreamVeraSans-Roman-52"/>
     <use x="646.0625" xlink:href="#BitstreamVeraSans-Roman-61"/>
     <use x="707.341796875" xlink:href="#BitstreamVeraSans-Roman-6e"/>
     <use x="770.720703125" xlink:href="#BitstreamVeraSans-Roman-64"/>
     <use x="834.197265625" xlink:href="#BitstreamVeraSans-Roman-6f"/>
     <use x="895.37890625" xlink:href="#BitstreamVeraSans-Roman-6d"/>
     <use x="992.791015625" xlink:href="#BitstreamVeraSans-Roman-46"/>
     <use x="1050.263671875" xlink:href="#BitstreamVeraSans-Roman-6f"/>
     <use x="1111.4453125" xlink:href="#BitstreamVeraSans-Roman-72"/>
     <use x="1152.52734375" xlink:href="#BitstreamVeraSans-Roman-65"/>
     <use x="1214.05078125" xlink:href="#BitstreamVeraSans-Roman-73"/>
     <use x="1266.150390625" xlink:href="#BitstreamVeraSans-Roman-74"/>
     <use x="1305.359375" xlink:href="#BitstreamVeraSans-Roman-20"/>
     <use x="1337.146484375" xlink:href="#BitstreamVeraSans-Roman-2b"/>
     <use x="1420.935546875" xlink:href="#BitstreamVeraSans-Roman-20"/>
     <use x="1452.72265625" xlink:href="#BitstreamVeraSans-Roman-53"/>
     <use x="1516.19921875" xlink:href="#BitstreamVeraSans-Roman-4d"/>
     <use x="1602.478515625" xlink:href="#BitstreamVeraSans-Roman-4f"/>
     <use x="1681.189453125" xlink:href="#BitstreamVeraSans-Roman-54"/>
     <use x="1742.2734375" xlink:href="#BitstreamVeraSans-Roman-45"/>
    </g>
    <!-- Train: 28   Test: 1 -->
    <defs>
     <path d="M 11.71875 12.40625 
L 22.015625 12.40625 
L 22.015625 0 
L 11.71875 0 
z
M 11.71875 51.703125 
L 22.015625 51.703125 
L 22.015625 39.3125 
L 11.71875 39.3125 
z
" id="BitstreamVeraSans-Roman-3a"/>
    </defs>
    <g transform="translate(206.362875 34.2666)scale(0.144 -0.144)">
     <use xlink:href="#BitstreamVeraSans-Roman-54"/>
     <use x="60.865234375" xlink:href="#BitstreamVeraSans-Roman-72"/>
     <use x="101.978515625" xlink:href="#BitstreamVeraSans-Roman-61"/>
     <use x="163.2578125" xlink:href="#BitstreamVeraSans-Roman-69"/>
     <use x="191.041015625" xlink:href="#BitstreamVeraSans-Roman-6e"/>
     <use x="254.419921875" xlink:href="#BitstreamVeraSans-Roman-3a"/>
     <use x="288.111328125" xlink:href="#BitstreamVeraSans-Roman-20"/>
     <use x="319.8984375" xlink:href="#BitstreamVeraSans-Roman-32"/>
     <use x="383.521484375" xlink:href="#BitstreamVeraSans-Roman-38"/>
     <use x="447.14453125" xlink:href="#BitstreamVeraSans-Roman-20"/>
     <use x="478.931640625" xlink:href="#BitstreamVeraSans-Roman-20"/>
     <use x="510.71875" xlink:href="#BitstreamVeraSans-Roman-20"/>
     <use x="542.505859375" xlink:href="#BitstreamVeraSans-Roman-54"/>
     <use x="603.32421875" xlink:href="#BitstreamVeraSans-Roman-65"/>
     <use x="664.84765625" xlink:href="#BitstreamVeraSans-Roman-73"/>
     <use x="716.947265625" xlink:href="#BitstreamVeraSans-Roman-74"/>
     <use x="756.15625" xlink:href="#BitstreamVeraSans-Roman-3a"/>
     <use x="789.84765625" xlink:href="#BitstreamVeraSans-Roman-20"/>
     <use x="821.634765625" xlink:href="#BitstreamVeraSans-Roman-31"/>
    </g>
   </g>
   <g id="legend_1">
    <g id="patch_7">
     <path d="M 172.01775 377.6666 
L 486.0975 377.6666 
L 486.0975 309.9371 
L 172.01775 309.9371 
z
" style="fill:#ffffff;stroke:#000000;stroke-linejoin:miter;"/>
    </g>
    <g id="line2d_29">
     <path d="M 182.09775 321.59885 
L 202.25775 321.59885 
" style="fill:none;stroke:#0000ff;stroke-linecap:square;"/>
    </g>
    <g id="line2d_30"/>
    <g id="text_16">
     <!-- bridgesROC curve - 0 (AUC = 0.468) -->
     <defs>
      <path d="M 48.6875 27.296875 
Q 48.6875 37.203125 44.609375 42.84375 
Q 40.53125 48.484375 33.40625 48.484375 
Q 26.265625 48.484375 22.1875 42.84375 
Q 18.109375 37.203125 18.109375 27.296875 
Q 18.109375 17.390625 22.1875 11.75 
Q 26.265625 6.109375 33.40625 6.109375 
Q 40.53125 6.109375 44.609375 11.75 
Q 48.6875 17.390625 48.6875 27.296875 
M 18.109375 46.390625 
Q 20.953125 51.265625 25.265625 53.625 
Q 29.59375 56 35.59375 56 
Q 45.5625 56 51.78125 48.09375 
Q 58.015625 40.1875 58.015625 27.296875 
Q 58.015625 14.40625 51.78125 6.484375 
Q 45.5625 -1.421875 35.59375 -1.421875 
Q 29.59375 -1.421875 25.265625 0.953125 
Q 20.953125 3.328125 18.109375 8.203125 
L 18.109375 0 
L 9.078125 0 
L 9.078125 75.984375 
L 18.109375 75.984375 
z
" id="BitstreamVeraSans-Roman-62"/>
      <path d="M 48.78125 52.59375 
L 48.78125 44.1875 
Q 44.96875 46.296875 41.140625 47.34375 
Q 37.3125 48.390625 33.40625 48.390625 
Q 24.65625 48.390625 19.8125 42.84375 
Q 14.984375 37.3125 14.984375 27.296875 
Q 14.984375 17.28125 19.8125 11.734375 
Q 24.65625 6.203125 33.40625 6.203125 
Q 37.3125 6.203125 41.140625 7.25 
Q 44.96875 8.296875 48.78125 10.40625 
L 48.78125 2.09375 
Q 45.015625 0.34375 40.984375 -0.53125 
Q 36.96875 -1.421875 32.421875 -1.421875 
Q 20.0625 -1.421875 12.78125 6.34375 
Q 5.515625 14.109375 5.515625 27.296875 
Q 5.515625 40.671875 12.859375 48.328125 
Q 20.21875 56 33.015625 56 
Q 37.15625 56 41.109375 55.140625 
Q 45.0625 54.296875 48.78125 52.59375 
" id="BitstreamVeraSans-Roman-63"/>
      <path d="M 8.015625 75.875 
L 15.828125 75.875 
Q 23.140625 64.359375 26.78125 53.3125 
Q 30.421875 42.28125 30.421875 31.390625 
Q 30.421875 20.453125 26.78125 9.375 
Q 23.140625 -1.703125 15.828125 -13.1875 
L 8.015625 -13.1875 
Q 14.5 -2 17.703125 9.0625 
Q 20.90625 20.125 20.90625 31.390625 
Q 20.90625 42.671875 17.703125 53.65625 
Q 14.5 64.65625 8.015625 75.875 
" id="BitstreamVeraSans-Roman-29"/>
      <path d="M 8.6875 72.90625 
L 18.609375 72.90625 
L 18.609375 28.609375 
Q 18.609375 16.890625 22.84375 11.734375 
Q 27.09375 6.59375 36.625 6.59375 
Q 46.09375 6.59375 50.34375 11.734375 
Q 54.59375 16.890625 54.59375 28.609375 
L 54.59375 72.90625 
L 64.5 72.90625 
L 64.5 27.390625 
Q 64.5 13.140625 57.4375 5.859375 
Q 50.390625 -1.421875 36.625 -1.421875 
Q 22.796875 -1.421875 15.734375 5.859375 
Q 8.6875 13.140625 8.6875 27.390625 
z
" id="BitstreamVeraSans-Roman-55"/>
      <path d="M 34.1875 63.1875 
L 20.796875 26.90625 
L 47.609375 26.90625 
z
M 28.609375 72.90625 
L 39.796875 72.90625 
L 67.578125 0 
L 57.328125 0 
L 50.6875 18.703125 
L 17.828125 18.703125 
L 11.1875 0 
L 0.78125 0 
z
" id="BitstreamVeraSans-Roman-41"/>
      <path d="M 31 75.875 
Q 24.46875 64.65625 21.28125 53.65625 
Q 18.109375 42.671875 18.109375 31.390625 
Q 18.109375 20.125 21.3125 9.0625 
Q 24.515625 -2 31 -13.1875 
L 23.1875 -13.1875 
Q 15.875 -1.703125 12.234375 9.375 
Q 8.59375 20.453125 8.59375 31.390625 
Q 8.59375 42.28125 12.203125 53.3125 
Q 15.828125 64.359375 23.1875 75.875 
z
" id="BitstreamVeraSans-Roman-28"/>
      <path d="M 45.40625 27.984375 
Q 45.40625 37.75 41.375 43.109375 
Q 37.359375 48.484375 30.078125 48.484375 
Q 22.859375 48.484375 18.828125 43.109375 
Q 14.796875 37.75 14.796875 27.984375 
Q 14.796875 18.265625 18.828125 12.890625 
Q 22.859375 7.515625 30.078125 7.515625 
Q 37.359375 7.515625 41.375 12.890625 
Q 45.40625 18.265625 45.40625 27.984375 
M 54.390625 6.78125 
Q 54.390625 -7.171875 48.1875 -13.984375 
Q 42 -20.796875 29.203125 -20.796875 
Q 24.46875 -20.796875 20.265625 -20.09375 
Q 16.0625 -19.390625 12.109375 -17.921875 
L 12.109375 -9.1875 
Q 16.0625 -11.328125 19.921875 -12.34375 
Q 23.78125 -13.375 27.78125 -13.375 
Q 36.625 -13.375 41.015625 -8.765625 
Q 45.40625 -4.15625 45.40625 5.171875 
L 45.40625 9.625 
Q 42.625 4.78125 38.28125 2.390625 
Q 33.9375 0 27.875 0 
Q 17.828125 0 11.671875 7.65625 
Q 5.515625 15.328125 5.515625 27.984375 
Q 5.515625 40.671875 11.671875 48.328125 
Q 17.828125 56 27.875 56 
Q 33.9375 56 38.28125 53.609375 
Q 42.625 51.21875 45.40625 46.390625 
L 45.40625 54.6875 
L 54.390625 54.6875 
z
" id="BitstreamVeraSans-Roman-67"/>
      <path d="M 4.890625 31.390625 
L 31.203125 31.390625 
L 31.203125 23.390625 
L 4.890625 23.390625 
z
" id="BitstreamVeraSans-Roman-2d"/>
      <path d="M 10.59375 45.40625 
L 73.1875 45.40625 
L 73.1875 37.203125 
L 10.59375 37.203125 
z
M 10.59375 25.484375 
L 73.1875 25.484375 
L 73.1875 17.1875 
L 10.59375 17.1875 
z
" id="BitstreamVeraSans-Roman-3d"/>
     </defs>
     <g transform="translate(218.09775 326.63885)scale(0.144 -0.144)">
      <use xlink:href="#BitstreamVeraSans-Roman-62"/>
      <use x="63.4765625" xlink:href="#BitstreamVeraSans-Roman-72"/>
      <use x="104.58984375" xlink:href="#BitstreamVeraSans-Roman-69"/>
      <use x="132.373046875" xlink:href="#BitstreamVeraSans-Roman-64"/>
      <use x="195.849609375" xlink:href="#BitstreamVeraSans-Roman-67"/>
      <use x="259.326171875" xlink:href="#BitstreamVeraSans-Roman-65"/>
      <use x="320.849609375" xlink:href="#BitstreamVeraSans-Roman-73"/>
      <use x="372.94921875" xlink:href="#BitstreamVeraSans-Roman-52"/>
      <use x="442.431640625" xlink:href="#BitstreamVeraSans-Roman-4f"/>
      <use x="521.142578125" xlink:href="#BitstreamVeraSans-Roman-43"/>
      <use x="590.966796875" xlink:href="#BitstreamVeraSans-Roman-20"/>
      <use x="622.75390625" xlink:href="#BitstreamVeraSans-Roman-63"/>
      <use x="677.734375" xlink:href="#BitstreamVeraSans-Roman-75"/>
      <use x="741.11328125" xlink:href="#BitstreamVeraSans-Roman-72"/>
      <use x="782.2265625" xlink:href="#BitstreamVeraSans-Roman-76"/>
      <use x="841.40625" xlink:href="#BitstreamVeraSans-Roman-65"/>
      <use x="902.9296875" xlink:href="#BitstreamVeraSans-Roman-20"/>
      <use x="934.716796875" xlink:href="#BitstreamVeraSans-Roman-2d"/>
      <use x="970.80078125" xlink:href="#BitstreamVeraSans-Roman-20"/>
      <use x="1002.587890625" xlink:href="#BitstreamVeraSans-Roman-30"/>
      <use x="1066.2109375" xlink:href="#BitstreamVeraSans-Roman-20"/>
      <use x="1097.998046875" xlink:href="#BitstreamVeraSans-Roman-28"/>
      <use x="1137.01171875" xlink:href="#BitstreamVeraSans-Roman-41"/>
      <use x="1205.419921875" xlink:href="#BitstreamVeraSans-Roman-55"/>
      <use x="1278.61328125" xlink:href="#BitstreamVeraSans-Roman-43"/>
      <use x="1348.4375" xlink:href="#BitstreamVeraSans-Roman-20"/>
      <use x="1380.224609375" xlink:href="#BitstreamVeraSans-Roman-3d"/>
      <use x="1464.013671875" xlink:href="#BitstreamVeraSans-Roman-20"/>
      <use x="1495.80078125" xlink:href="#BitstreamVeraSans-Roman-30"/>
      <use x="1559.423828125" xlink:href="#BitstreamVeraSans-Roman-2e"/>
      <use x="1591.2109375" xlink:href="#BitstreamVeraSans-Roman-34"/>
      <use x="1654.833984375" xlink:href="#BitstreamVeraSans-Roman-36"/>
      <use x="1718.45703125" xlink:href="#BitstreamVeraSans-Roman-38"/>
      <use x="1782.080078125" xlink:href="#BitstreamVeraSans-Roman-29"/>
     </g>
    </g>
    <g id="line2d_31">
     <path d="M 182.09775 342.73535 
L 202.25775 342.73535 
" style="fill:none;stroke:#008000;stroke-linecap:square;"/>
    </g>
    <g id="line2d_32"/>
    <g id="text_17">
     <!-- bridgesROC curve - 1 (AUC = 0.679) -->
     <defs>
      <path d="M 10.984375 1.515625 
L 10.984375 10.5 
Q 14.703125 8.734375 18.5 7.8125 
Q 22.3125 6.890625 25.984375 6.890625 
Q 35.75 6.890625 40.890625 13.453125 
Q 46.046875 20.015625 46.78125 33.40625 
Q 43.953125 29.203125 39.59375 26.953125 
Q 35.25 24.703125 29.984375 24.703125 
Q 19.046875 24.703125 12.671875 31.3125 
Q 6.296875 37.9375 6.296875 49.421875 
Q 6.296875 60.640625 12.9375 67.421875 
Q 19.578125 74.21875 30.609375 74.21875 
Q 43.265625 74.21875 49.921875 64.515625 
Q 56.59375 54.828125 56.59375 36.375 
Q 56.59375 19.140625 48.40625 8.859375 
Q 40.234375 -1.421875 26.421875 -1.421875 
Q 22.703125 -1.421875 18.890625 -0.6875 
Q 15.09375 0.046875 10.984375 1.515625 
M 30.609375 32.421875 
Q 37.25 32.421875 41.125 36.953125 
Q 45.015625 41.5 45.015625 49.421875 
Q 45.015625 57.28125 41.125 61.84375 
Q 37.25 66.40625 30.609375 66.40625 
Q 23.96875 66.40625 20.09375 61.84375 
Q 16.21875 57.28125 16.21875 49.421875 
Q 16.21875 41.5 20.09375 36.953125 
Q 23.96875 32.421875 30.609375 32.421875 
" id="BitstreamVeraSans-Roman-39"/>
      <path d="M 8.203125 72.90625 
L 55.078125 72.90625 
L 55.078125 68.703125 
L 28.609375 0 
L 18.3125 0 
L 43.21875 64.59375 
L 8.203125 64.59375 
z
" id="BitstreamVeraSans-Roman-37"/>
     </defs>
     <g transform="translate(218.09775 347.77535)scale(0.144 -0.144)">
      <use xlink:href="#BitstreamVeraSans-Roman-62"/>
      <use x="63.4765625" xlink:href="#BitstreamVeraSans-Roman-72"/>
      <use x="104.58984375" xlink:href="#BitstreamVeraSans-Roman-69"/>
      <use x="132.373046875" xlink:href="#BitstreamVeraSans-Roman-64"/>
      <use x="195.849609375" xlink:href="#BitstreamVeraSans-Roman-67"/>
      <use x="259.326171875" xlink:href="#BitstreamVeraSans-Roman-65"/>
      <use x="320.849609375" xlink:href="#BitstreamVeraSans-Roman-73"/>
      <use x="372.94921875" xlink:href="#BitstreamVeraSans-Roman-52"/>
      <use x="442.431640625" xlink:href="#BitstreamVeraSans-Roman-4f"/>
      <use x="521.142578125" xlink:href="#BitstreamVeraSans-Roman-43"/>
      <use x="590.966796875" xlink:href="#BitstreamVeraSans-Roman-20"/>
      <use x="622.75390625" xlink:href="#BitstreamVeraSans-Roman-63"/>
      <use x="677.734375" xlink:href="#BitstreamVeraSans-Roman-75"/>
      <use x="741.11328125" xlink:href="#BitstreamVeraSans-Roman-72"/>
      <use x="782.2265625" xlink:href="#BitstreamVeraSans-Roman-76"/>
      <use x="841.40625" xlink:href="#BitstreamVeraSans-Roman-65"/>
      <use x="902.9296875" xlink:href="#BitstreamVeraSans-Roman-20"/>
      <use x="934.716796875" xlink:href="#BitstreamVeraSans-Roman-2d"/>
      <use x="970.80078125" xlink:href="#BitstreamVeraSans-Roman-20"/>
      <use x="1002.587890625" xlink:href="#BitstreamVeraSans-Roman-31"/>
      <use x="1066.2109375" xlink:href="#BitstreamVeraSans-Roman-20"/>
      <use x="1097.998046875" xlink:href="#BitstreamVeraSans-Roman-28"/>
      <use x="1137.01171875" xlink:href="#BitstreamVeraSans-Roman-41"/>
      <use x="1205.419921875" xlink:href="#BitstreamVeraSans-Roman-55"/>
      <use x="1278.61328125" xlink:href="#BitstreamVeraSans-Roman-43"/>
      <use x="1348.4375" xlink:href="#BitstreamVeraSans-Roman-20"/>
      <use x="1380.224609375" xlink:href="#BitstreamVeraSans-Roman-3d"/>
      <use x="1464.013671875" xlink:href="#BitstreamVeraSans-Roman-20"/>
      <use x="1495.80078125" xlink:href="#BitstreamVeraSans-Roman-30"/>
      <use x="1559.423828125" xlink:href="#BitstreamVeraSans-Roman-2e"/>
      <use x="1591.2109375" xlink:href="#BitstreamVeraSans-Roman-36"/>
      <use x="1654.833984375" xlink:href="#BitstreamVeraSans-Roman-37"/>
      <use x="1718.45703125" xlink:href="#BitstreamVeraSans-Roman-39"/>
      <use x="1782.080078125" xlink:href="#BitstreamVeraSans-Roman-29"/>
     </g>
    </g>
    <g id="line2d_33">
     <path d="M 182.09775 363.87185 
L 202.25775 363.87185 
" style="fill:none;stroke:#ff0000;stroke-linecap:square;"/>
    </g>
    <g id="line2d_34"/>
    <g id="text_18">
     <!-- bridgesROC curve - 2 (AUC = 0.720) -->
     <g transform="translate(218.09775 368.91185)scale(0.144 -0.144)">
      <use xlink:href="#BitstreamVeraSans-Roman-62"/>
      <use x="63.4765625" xlink:href="#BitstreamVeraSans-Roman-72"/>
      <use x="104.58984375" xlink:href="#BitstreamVeraSans-Roman-69"/>
      <use x="132.373046875" xlink:href="#BitstreamVeraSans-Roman-64"/>
      <use x="195.849609375" xlink:href="#BitstreamVeraSans-Roman-67"/>
      <use x="259.326171875" xlink:href="#BitstreamVeraSans-Roman-65"/>
      <use x="320.849609375" xlink:href="#BitstreamVeraSans-Roman-73"/>
      <use x="372.94921875" xlink:href="#BitstreamVeraSans-Roman-52"/>
      <use x="442.431640625" xlink:href="#BitstreamVeraSans-Roman-4f"/>
      <use x="521.142578125" xlink:href="#BitstreamVeraSans-Roman-43"/>
      <use x="590.966796875" xlink:href="#BitstreamVeraSans-Roman-20"/>
      <use x="622.75390625" xlink:href="#BitstreamVeraSans-Roman-63"/>
      <use x="677.734375" xlink:href="#BitstreamVeraSans-Roman-75"/>
      <use x="741.11328125" xlink:href="#BitstreamVeraSans-Roman-72"/>
      <use x="782.2265625" xlink:href="#BitstreamVeraSans-Roman-76"/>
      <use x="841.40625" xlink:href="#BitstreamVeraSans-Roman-65"/>
      <use x="902.9296875" xlink:href="#BitstreamVeraSans-Roman-20"/>
      <use x="934.716796875" xlink:href="#BitstreamVeraSans-Roman-2d"/>
      <use x="970.80078125" xlink:href="#BitstreamVeraSans-Roman-20"/>
      <use x="1002.587890625" xlink:href="#BitstreamVeraSans-Roman-32"/>
      <use x="1066.2109375" xlink:href="#BitstreamVeraSans-Roman-20"/>
      <use x="1097.998046875" xlink:href="#BitstreamVeraSans-Roman-28"/>
      <use x="1137.01171875" xlink:href="#BitstreamVeraSans-Roman-41"/>
      <use x="1205.419921875" xlink:href="#BitstreamVeraSans-Roman-55"/>
      <use x="1278.61328125" xlink:href="#BitstreamVeraSans-Roman-43"/>
      <use x="1348.4375" xlink:href="#BitstreamVeraSans-Roman-20"/>
      <use x="1380.224609375" xlink:href="#BitstreamVeraSans-Roman-3d"/>
      <use x="1464.013671875" xlink:href="#BitstreamVeraSans-Roman-20"/>
      <use x="1495.80078125" xlink:href="#BitstreamVeraSans-Roman-30"/>
      <use x="1559.423828125" xlink:href="#BitstreamVeraSans-Roman-2e"/>
      <use x="1591.2109375" xlink:href="#BitstreamVeraSans-Roman-37"/>
      <use x="1654.833984375" xlink:href="#BitstreamVeraSans-Roman-32"/>
      <use x="1718.45703125" xlink:href="#BitstreamVeraSans-Roman-30"/>
      <use x="1782.080078125" xlink:href="#BitstreamVeraSans-Roman-29"/>
     </g>
    </g>
   </g>
  </g>
 </g>
 <defs>
  <clipPath id="p4b83e8b98f">
   <rect height="345.6" width="446.4" x="46.8975" y="39.2666"/>
  </clipPath>
 </defs>
</svg>
