<?xml version="1.0" encoding="utf-8" standalone="no"?>
<!DOCTYPE svg PUBLIC "-//W3C//DTD SVG 1.1//EN"
  "http://www.w3.org/Graphics/SVG/1.1/DTD/svg11.dtd">
<!-- Created with matplotlib (http://matplotlib.org/) -->
<svg height="339pt" version="1.1" viewBox="0 0 433 339" width="433pt" xmlns="http://www.w3.org/2000/svg" xmlns:xlink="http://www.w3.org/1999/xlink">
 <defs>
  <style type="text/css">
*{stroke-linecap:butt;stroke-linejoin:round;}
  </style>
 </defs>
 <g id="figure_1">
  <g id="patch_1">
   <path d="M 0 339.42375 
L 433.212187 339.42375 
L 433.212187 0 
L 0 0 
z
" style="fill:#ffffff;"/>
  </g>
  <g id="axes_1">
   <g id="patch_2">
    <path d="M 43.78125 301.8675 
L 400.90125 301.8675 
L 400.90125 35.7555 
L 43.78125 35.7555 
z
" style="fill:#ffffff;"/>
   </g>
   <g id="matplotlib.axis_1">
    <g id="xtick_1">
     <g id="line2d_1">
      <defs>
       <path d="M 0 0 
L 0 3.5 
" id="m17627ba814" style="stroke:#000000;stroke-width:0.8;"/>
      </defs>
      <g>
       <use style="stroke:#000000;stroke-width:0.8;" x="43.78125" xlink:href="#m17627ba814" y="301.8675"/>
      </g>
     </g>
     <g id="text_1">
      <!-- 0.0 -->
      <defs>
       <path d="M 31.78125 66.40625 
Q 24.171875 66.40625 20.328125 58.90625 
Q 16.5 51.421875 16.5 36.375 
Q 16.5 21.390625 20.328125 13.890625 
Q 24.171875 6.390625 31.78125 6.390625 
Q 39.453125 6.390625 43.28125 13.890625 
Q 47.125 21.390625 47.125 36.375 
Q 47.125 51.421875 43.28125 58.90625 
Q 39.453125 66.40625 31.78125 66.40625 
M 31.78125 74.21875 
Q 44.046875 74.21875 50.515625 64.515625 
Q 56.984375 54.828125 56.984375 36.375 
Q 56.984375 17.96875 50.515625 8.265625 
Q 44.046875 -1.421875 31.78125 -1.421875 
Q 19.53125 -1.421875 13.0625 8.265625 
Q 6.59375 17.96875 6.59375 36.375 
Q 6.59375 54.828125 13.0625 64.515625 
Q 19.53125 74.21875 31.78125 74.21875 
" id="DejaVuSans-30"/>
       <path d="M 10.6875 12.40625 
L 21 12.40625 
L 21 0 
L 10.6875 0 
z
" id="DejaVuSans-2e"/>
      </defs>
      <g transform="translate(35.829688 316.465937)scale(0.1 -0.1)">
       <use xlink:href="#DejaVuSans-30"/>
       <use x="63.623047" xlink:href="#DejaVuSans-2e"/>
       <use x="95.410156" xlink:href="#DejaVuSans-30"/>
      </g>
     </g>
    </g>
    <g id="xtick_2">
     <g id="line2d_2">
      <g>
       <use style="stroke:#000000;stroke-width:0.8;" x="115.20525" xlink:href="#m17627ba814" y="301.8675"/>
      </g>
     </g>
     <g id="text_2">
      <!-- 0.2 -->
      <defs>
       <path d="M 19.1875 8.296875 
L 53.609375 8.296875 
L 53.609375 0 
L 7.328125 0 
L 7.328125 8.296875 
Q 12.9375 14.109375 22.625 23.890625 
Q 32.328125 33.6875 34.8125 36.53125 
Q 39.546875 41.84375 41.421875 45.53125 
Q 43.3125 49.21875 43.3125 52.78125 
Q 43.3125 58.59375 39.234375 62.25 
Q 35.15625 65.921875 28.609375 65.921875 
Q 23.96875 65.921875 18.8125 64.3125 
Q 13.671875 62.703125 7.8125 59.421875 
L 7.8125 69.390625 
Q 13.765625 71.78125 18.9375 73 
Q 24.125 74.21875 28.421875 74.21875 
Q 39.75 74.21875 46.484375 68.546875 
Q 53.21875 62.890625 53.21875 53.421875 
Q 53.21875 48.921875 51.53125 44.890625 
Q 49.859375 40.875 45.40625 35.40625 
Q 44.1875 33.984375 37.640625 27.21875 
Q 31.109375 20.453125 19.1875 8.296875 
" id="DejaVuSans-32"/>
      </defs>
      <g transform="translate(107.253688 316.465937)scale(0.1 -0.1)">
       <use xlink:href="#DejaVuSans-30"/>
       <use x="63.623047" xlink:href="#DejaVuSans-2e"/>
       <use x="95.410156" xlink:href="#DejaVuSans-32"/>
      </g>
     </g>
    </g>
    <g id="xtick_3">
     <g id="line2d_3">
      <g>
       <use style="stroke:#000000;stroke-width:0.8;" x="186.62925" xlink:href="#m17627ba814" y="301.8675"/>
      </g>
     </g>
     <g id="text_3">
      <!-- 0.4 -->
      <defs>
       <path d="M 37.796875 64.3125 
L 12.890625 25.390625 
L 37.796875 25.390625 
z
M 35.203125 72.90625 
L 47.609375 72.90625 
L 47.609375 25.390625 
L 58.015625 25.390625 
L 58.015625 17.1875 
L 47.609375 17.1875 
L 47.609375 0 
L 37.796875 0 
L 37.796875 17.1875 
L 4.890625 17.1875 
L 4.890625 26.703125 
z
" id="DejaVuSans-34"/>
      </defs>
      <g transform="translate(178.677688 316.465937)scale(0.1 -0.1)">
       <use xlink:href="#DejaVuSans-30"/>
       <use x="63.623047" xlink:href="#DejaVuSans-2e"/>
       <use x="95.410156" xlink:href="#DejaVuSans-34"/>
      </g>
     </g>
    </g>
    <g id="xtick_4">
     <g id="line2d_4">
      <g>
       <use style="stroke:#000000;stroke-width:0.8;" x="258.05325" xlink:href="#m17627ba814" y="301.8675"/>
      </g>
     </g>
     <g id="text_4">
      <!-- 0.6 -->
      <defs>
       <path d="M 33.015625 40.375 
Q 26.375 40.375 22.484375 35.828125 
Q 18.609375 31.296875 18.609375 23.390625 
Q 18.609375 15.53125 22.484375 10.953125 
Q 26.375 6.390625 33.015625 6.390625 
Q 39.65625 6.390625 43.53125 10.953125 
Q 47.40625 15.53125 47.40625 23.390625 
Q 47.40625 31.296875 43.53125 35.828125 
Q 39.65625 40.375 33.015625 40.375 
M 52.59375 71.296875 
L 52.59375 62.3125 
Q 48.875 64.0625 45.09375 64.984375 
Q 41.3125 65.921875 37.59375 65.921875 
Q 27.828125 65.921875 22.671875 59.328125 
Q 17.53125 52.734375 16.796875 39.40625 
Q 19.671875 43.65625 24.015625 45.921875 
Q 28.375 48.1875 33.59375 48.1875 
Q 44.578125 48.1875 50.953125 41.515625 
Q 57.328125 34.859375 57.328125 23.390625 
Q 57.328125 12.15625 50.6875 5.359375 
Q 44.046875 -1.421875 33.015625 -1.421875 
Q 20.359375 -1.421875 13.671875 8.265625 
Q 6.984375 17.96875 6.984375 36.375 
Q 6.984375 53.65625 15.1875 63.9375 
Q 23.390625 74.21875 37.203125 74.21875 
Q 40.921875 74.21875 44.703125 73.484375 
Q 48.484375 72.75 52.59375 71.296875 
" id="DejaVuSans-36"/>
      </defs>
      <g transform="translate(250.101688 316.465937)scale(0.1 -0.1)">
       <use xlink:href="#DejaVuSans-30"/>
       <use x="63.623047" xlink:href="#DejaVuSans-2e"/>
       <use x="95.410156" xlink:href="#DejaVuSans-36"/>
      </g>
     </g>
    </g>
    <g id="xtick_5">
     <g id="line2d_5">
      <g>
       <use style="stroke:#000000;stroke-width:0.8;" x="329.47725" xlink:href="#m17627ba814" y="301.8675"/>
      </g>
     </g>
     <g id="text_5">
      <!-- 0.8 -->
      <defs>
       <path d="M 31.78125 34.625 
Q 24.75 34.625 20.71875 30.859375 
Q 16.703125 27.09375 16.703125 20.515625 
Q 16.703125 13.921875 20.71875 10.15625 
Q 24.75 6.390625 31.78125 6.390625 
Q 38.8125 6.390625 42.859375 10.171875 
Q 46.921875 13.96875 46.921875 20.515625 
Q 46.921875 27.09375 42.890625 30.859375 
Q 38.875 34.625 31.78125 34.625 
M 21.921875 38.8125 
Q 15.578125 40.375 12.03125 44.71875 
Q 8.5 49.078125 8.5 55.328125 
Q 8.5 64.0625 14.71875 69.140625 
Q 20.953125 74.21875 31.78125 74.21875 
Q 42.671875 74.21875 48.875 69.140625 
Q 55.078125 64.0625 55.078125 55.328125 
Q 55.078125 49.078125 51.53125 44.71875 
Q 48 40.375 41.703125 38.8125 
Q 48.828125 37.15625 52.796875 32.3125 
Q 56.78125 27.484375 56.78125 20.515625 
Q 56.78125 9.90625 50.3125 4.234375 
Q 43.84375 -1.421875 31.78125 -1.421875 
Q 19.734375 -1.421875 13.25 4.234375 
Q 6.78125 9.90625 6.78125 20.515625 
Q 6.78125 27.484375 10.78125 32.3125 
Q 14.796875 37.15625 21.921875 38.8125 
M 18.3125 54.390625 
Q 18.3125 48.734375 21.84375 45.5625 
Q 25.390625 42.390625 31.78125 42.390625 
Q 38.140625 42.390625 41.71875 45.5625 
Q 45.3125 48.734375 45.3125 54.390625 
Q 45.3125 60.0625 41.71875 63.234375 
Q 38.140625 66.40625 31.78125 66.40625 
Q 25.390625 66.40625 21.84375 63.234375 
Q 18.3125 60.0625 18.3125 54.390625 
" id="DejaVuSans-38"/>
      </defs>
      <g transform="translate(321.525688 316.465937)scale(0.1 -0.1)">
       <use xlink:href="#DejaVuSans-30"/>
       <use x="63.623047" xlink:href="#DejaVuSans-2e"/>
       <use x="95.410156" xlink:href="#DejaVuSans-38"/>
      </g>
     </g>
    </g>
    <g id="xtick_6">
     <g id="line2d_6">
      <g>
       <use style="stroke:#000000;stroke-width:0.8;" x="400.90125" xlink:href="#m17627ba814" y="301.8675"/>
      </g>
     </g>
     <g id="text_6">
      <!-- 1.0 -->
      <defs>
       <path d="M 12.40625 8.296875 
L 28.515625 8.296875 
L 28.515625 63.921875 
L 10.984375 60.40625 
L 10.984375 69.390625 
L 28.421875 72.90625 
L 38.28125 72.90625 
L 38.28125 8.296875 
L 54.390625 8.296875 
L 54.390625 0 
L 12.40625 0 
z
" id="DejaVuSans-31"/>
      </defs>
      <g transform="translate(392.949688 316.465937)scale(0.1 -0.1)">
       <use xlink:href="#DejaVuSans-31"/>
       <use x="63.623047" xlink:href="#DejaVuSans-2e"/>
       <use x="95.410156" xlink:href="#DejaVuSans-30"/>
      </g>
     </g>
    </g>
    <g id="text_7">
     <!-- False Positive Rate -->
     <defs>
      <path d="M 9.8125 72.90625 
L 51.703125 72.90625 
L 51.703125 64.59375 
L 19.671875 64.59375 
L 19.671875 43.109375 
L 48.578125 43.109375 
L 48.578125 34.8125 
L 19.671875 34.8125 
L 19.671875 0 
L 9.8125 0 
z
" id="DejaVuSans-46"/>
      <path d="M 34.28125 27.484375 
Q 23.390625 27.484375 19.1875 25 
Q 14.984375 22.515625 14.984375 16.5 
Q 14.984375 11.71875 18.140625 8.90625 
Q 21.296875 6.109375 26.703125 6.109375 
Q 34.1875 6.109375 38.703125 11.40625 
Q 43.21875 16.703125 43.21875 25.484375 
L 43.21875 27.484375 
z
M 52.203125 31.203125 
L 52.203125 0 
L 43.21875 0 
L 43.21875 8.296875 
Q 40.140625 3.328125 35.546875 0.953125 
Q 30.953125 -1.421875 24.3125 -1.421875 
Q 15.921875 -1.421875 10.953125 3.296875 
Q 6 8.015625 6 15.921875 
Q 6 25.140625 12.171875 29.828125 
Q 18.359375 34.515625 30.609375 34.515625 
L 43.21875 34.515625 
L 43.21875 35.40625 
Q 43.21875 41.609375 39.140625 45 
Q 35.0625 48.390625 27.6875 48.390625 
Q 23 48.390625 18.546875 47.265625 
Q 14.109375 46.140625 10.015625 43.890625 
L 10.015625 52.203125 
Q 14.9375 54.109375 19.578125 55.046875 
Q 24.21875 56 28.609375 56 
Q 40.484375 56 46.34375 49.84375 
Q 52.203125 43.703125 52.203125 31.203125 
" id="DejaVuSans-61"/>
      <path d="M 9.421875 75.984375 
L 18.40625 75.984375 
L 18.40625 0 
L 9.421875 0 
z
" id="DejaVuSans-6c"/>
      <path d="M 44.28125 53.078125 
L 44.28125 44.578125 
Q 40.484375 46.53125 36.375 47.5 
Q 32.28125 48.484375 27.875 48.484375 
Q 21.1875 48.484375 17.84375 46.4375 
Q 14.5 44.390625 14.5 40.28125 
Q 14.5 37.15625 16.890625 35.375 
Q 19.28125 33.59375 26.515625 31.984375 
L 29.59375 31.296875 
Q 39.15625 29.25 43.1875 25.515625 
Q 47.21875 21.78125 47.21875 15.09375 
Q 47.21875 7.46875 41.1875 3.015625 
Q 35.15625 -1.421875 24.609375 -1.421875 
Q 20.21875 -1.421875 15.453125 -0.5625 
Q 10.6875 0.296875 5.421875 2 
L 5.421875 11.28125 
Q 10.40625 8.6875 15.234375 7.390625 
Q 20.0625 6.109375 24.8125 6.109375 
Q 31.15625 6.109375 34.5625 8.28125 
Q 37.984375 10.453125 37.984375 14.40625 
Q 37.984375 18.0625 35.515625 20.015625 
Q 33.0625 21.96875 24.703125 23.78125 
L 21.578125 24.515625 
Q 13.234375 26.265625 9.515625 29.90625 
Q 5.8125 33.546875 5.8125 39.890625 
Q 5.8125 47.609375 11.28125 51.796875 
Q 16.75 56 26.8125 56 
Q 31.78125 56 36.171875 55.265625 
Q 40.578125 54.546875 44.28125 53.078125 
" id="DejaVuSans-73"/>
      <path d="M 56.203125 29.59375 
L 56.203125 25.203125 
L 14.890625 25.203125 
Q 15.484375 15.921875 20.484375 11.0625 
Q 25.484375 6.203125 34.421875 6.203125 
Q 39.59375 6.203125 44.453125 7.46875 
Q 49.3125 8.734375 54.109375 11.28125 
L 54.109375 2.78125 
Q 49.265625 0.734375 44.1875 -0.34375 
Q 39.109375 -1.421875 33.890625 -1.421875 
Q 20.796875 -1.421875 13.15625 6.1875 
Q 5.515625 13.8125 5.515625 26.8125 
Q 5.515625 40.234375 12.765625 48.109375 
Q 20.015625 56 32.328125 56 
Q 43.359375 56 49.78125 48.890625 
Q 56.203125 41.796875 56.203125 29.59375 
M 47.21875 32.234375 
Q 47.125 39.59375 43.09375 43.984375 
Q 39.0625 48.390625 32.421875 48.390625 
Q 24.90625 48.390625 20.390625 44.140625 
Q 15.875 39.890625 15.1875 32.171875 
z
" id="DejaVuSans-65"/>
      <path id="DejaVuSans-20"/>
      <path d="M 19.671875 64.796875 
L 19.671875 37.40625 
L 32.078125 37.40625 
Q 38.96875 37.40625 42.71875 40.96875 
Q 46.484375 44.53125 46.484375 51.125 
Q 46.484375 57.671875 42.71875 61.234375 
Q 38.96875 64.796875 32.078125 64.796875 
z
M 9.8125 72.90625 
L 32.078125 72.90625 
Q 44.34375 72.90625 50.609375 67.359375 
Q 56.890625 61.8125 56.890625 51.125 
Q 56.890625 40.328125 50.609375 34.8125 
Q 44.34375 29.296875 32.078125 29.296875 
L 19.671875 29.296875 
L 19.671875 0 
L 9.8125 0 
z
" id="DejaVuSans-50"/>
      <path d="M 30.609375 48.390625 
Q 23.390625 48.390625 19.1875 42.75 
Q 14.984375 37.109375 14.984375 27.296875 
Q 14.984375 17.484375 19.15625 11.84375 
Q 23.34375 6.203125 30.609375 6.203125 
Q 37.796875 6.203125 41.984375 11.859375 
Q 46.1875 17.53125 46.1875 27.296875 
Q 46.1875 37.015625 41.984375 42.703125 
Q 37.796875 48.390625 30.609375 48.390625 
M 30.609375 56 
Q 42.328125 56 49.015625 48.375 
Q 55.71875 40.765625 55.71875 27.296875 
Q 55.71875 13.875 49.015625 6.21875 
Q 42.328125 -1.421875 30.609375 -1.421875 
Q 18.84375 -1.421875 12.171875 6.21875 
Q 5.515625 13.875 5.515625 27.296875 
Q 5.515625 40.765625 12.171875 48.375 
Q 18.84375 56 30.609375 56 
" id="DejaVuSans-6f"/>
      <path d="M 9.421875 54.6875 
L 18.40625 54.6875 
L 18.40625 0 
L 9.421875 0 
z
M 9.421875 75.984375 
L 18.40625 75.984375 
L 18.40625 64.59375 
L 9.421875 64.59375 
z
" id="DejaVuSans-69"/>
      <path d="M 18.3125 70.21875 
L 18.3125 54.6875 
L 36.8125 54.6875 
L 36.8125 47.703125 
L 18.3125 47.703125 
L 18.3125 18.015625 
Q 18.3125 11.328125 20.140625 9.421875 
Q 21.96875 7.515625 27.59375 7.515625 
L 36.8125 7.515625 
L 36.8125 0 
L 27.59375 0 
Q 17.1875 0 13.234375 3.875 
Q 9.28125 7.765625 9.28125 18.015625 
L 9.28125 47.703125 
L 2.6875 47.703125 
L 2.6875 54.6875 
L 9.28125 54.6875 
L 9.28125 70.21875 
z
" id="DejaVuSans-74"/>
      <path d="M 2.984375 54.6875 
L 12.5 54.6875 
L 29.59375 8.796875 
L 46.6875 54.6875 
L 56.203125 54.6875 
L 35.6875 0 
L 23.484375 0 
z
" id="DejaVuSans-76"/>
      <path d="M 44.390625 34.1875 
Q 47.5625 33.109375 50.5625 29.59375 
Q 53.5625 26.078125 56.59375 19.921875 
L 66.609375 0 
L 56 0 
L 46.6875 18.703125 
Q 43.0625 26.03125 39.671875 28.421875 
Q 36.28125 30.8125 30.421875 30.8125 
L 19.671875 30.8125 
L 19.671875 0 
L 9.8125 0 
L 9.8125 72.90625 
L 32.078125 72.90625 
Q 44.578125 72.90625 50.734375 67.671875 
Q 56.890625 62.453125 56.890625 51.90625 
Q 56.890625 45.015625 53.6875 40.46875 
Q 50.484375 35.9375 44.390625 34.1875 
M 19.671875 64.796875 
L 19.671875 38.921875 
L 32.078125 38.921875 
Q 39.203125 38.921875 42.84375 42.21875 
Q 46.484375 45.515625 46.484375 51.90625 
Q 46.484375 58.296875 42.84375 61.546875 
Q 39.203125 64.796875 32.078125 64.796875 
z
" id="DejaVuSans-52"/>
     </defs>
     <g transform="translate(175.135781 330.144062)scale(0.1 -0.1)">
      <use xlink:href="#DejaVuSans-46"/>
      <use x="57.378906" xlink:href="#DejaVuSans-61"/>
      <use x="118.658203" xlink:href="#DejaVuSans-6c"/>
      <use x="146.441406" xlink:href="#DejaVuSans-73"/>
      <use x="198.541016" xlink:href="#DejaVuSans-65"/>
      <use x="260.064453" xlink:href="#DejaVuSans-20"/>
      <use x="291.851562" xlink:href="#DejaVuSans-50"/>
      <use x="352.107422" xlink:href="#DejaVuSans-6f"/>
      <use x="413.289062" xlink:href="#DejaVuSans-73"/>
      <use x="465.388672" xlink:href="#DejaVuSans-69"/>
      <use x="493.171875" xlink:href="#DejaVuSans-74"/>
      <use x="532.380859" xlink:href="#DejaVuSans-69"/>
      <use x="560.164062" xlink:href="#DejaVuSans-76"/>
      <use x="619.34375" xlink:href="#DejaVuSans-65"/>
      <use x="680.867188" xlink:href="#DejaVuSans-20"/>
      <use x="712.654297" xlink:href="#DejaVuSans-52"/>
      <use x="782.105469" xlink:href="#DejaVuSans-61"/>
      <use x="843.384766" xlink:href="#DejaVuSans-74"/>
      <use x="882.59375" xlink:href="#DejaVuSans-65"/>
     </g>
    </g>
   </g>
   <g id="matplotlib.axis_2">
    <g id="ytick_1">
     <g id="line2d_7">
      <defs>
       <path d="M 0 0 
L -3.5 0 
" id="mabbc5d839c" style="stroke:#000000;stroke-width:0.8;"/>
      </defs>
      <g>
       <use style="stroke:#000000;stroke-width:0.8;" x="43.78125" xlink:href="#mabbc5d839c" y="301.8675"/>
      </g>
     </g>
     <g id="text_8">
      <!-- 0.0 -->
      <g transform="translate(20.878125 305.666719)scale(0.1 -0.1)">
       <use xlink:href="#DejaVuSans-30"/>
       <use x="63.623047" xlink:href="#DejaVuSans-2e"/>
       <use x="95.410156" xlink:href="#DejaVuSans-30"/>
      </g>
     </g>
    </g>
    <g id="ytick_2">
     <g id="line2d_8">
      <g>
       <use style="stroke:#000000;stroke-width:0.8;" x="43.78125" xlink:href="#mabbc5d839c" y="251.1795"/>
      </g>
     </g>
     <g id="text_9">
      <!-- 0.2 -->
      <g transform="translate(20.878125 254.978719)scale(0.1 -0.1)">
       <use xlink:href="#DejaVuSans-30"/>
       <use x="63.623047" xlink:href="#DejaVuSans-2e"/>
       <use x="95.410156" xlink:href="#DejaVuSans-32"/>
      </g>
     </g>
    </g>
    <g id="ytick_3">
     <g id="line2d_9">
      <g>
       <use style="stroke:#000000;stroke-width:0.8;" x="43.78125" xlink:href="#mabbc5d839c" y="200.4915"/>
      </g>
     </g>
     <g id="text_10">
      <!-- 0.4 -->
      <g transform="translate(20.878125 204.290719)scale(0.1 -0.1)">
       <use xlink:href="#DejaVuSans-30"/>
       <use x="63.623047" xlink:href="#DejaVuSans-2e"/>
       <use x="95.410156" xlink:href="#DejaVuSans-34"/>
      </g>
     </g>
    </g>
    <g id="ytick_4">
     <g id="line2d_10">
      <g>
       <use style="stroke:#000000;stroke-width:0.8;" x="43.78125" xlink:href="#mabbc5d839c" y="149.8035"/>
      </g>
     </g>
     <g id="text_11">
      <!-- 0.6 -->
      <g transform="translate(20.878125 153.602719)scale(0.1 -0.1)">
       <use xlink:href="#DejaVuSans-30"/>
       <use x="63.623047" xlink:href="#DejaVuSans-2e"/>
       <use x="95.410156" xlink:href="#DejaVuSans-36"/>
      </g>
     </g>
    </g>
    <g id="ytick_5">
     <g id="line2d_11">
      <g>
       <use style="stroke:#000000;stroke-width:0.8;" x="43.78125" xlink:href="#mabbc5d839c" y="99.1155"/>
      </g>
     </g>
     <g id="text_12">
      <!-- 0.8 -->
      <g transform="translate(20.878125 102.914719)scale(0.1 -0.1)">
       <use xlink:href="#DejaVuSans-30"/>
       <use x="63.623047" xlink:href="#DejaVuSans-2e"/>
       <use x="95.410156" xlink:href="#DejaVuSans-38"/>
      </g>
     </g>
    </g>
    <g id="ytick_6">
     <g id="line2d_12">
      <g>
       <use style="stroke:#000000;stroke-width:0.8;" x="43.78125" xlink:href="#mabbc5d839c" y="48.4275"/>
      </g>
     </g>
     <g id="text_13">
      <!-- 1.0 -->
      <g transform="translate(20.878125 52.226719)scale(0.1 -0.1)">
       <use xlink:href="#DejaVuSans-31"/>
       <use x="63.623047" xlink:href="#DejaVuSans-2e"/>
       <use x="95.410156" xlink:href="#DejaVuSans-30"/>
      </g>
     </g>
    </g>
    <g id="text_14">
     <!-- True Positive Rate -->
     <defs>
      <path d="M -0.296875 72.90625 
L 61.375 72.90625 
L 61.375 64.59375 
L 35.5 64.59375 
L 35.5 0 
L 25.59375 0 
L 25.59375 64.59375 
L -0.296875 64.59375 
z
" id="DejaVuSans-54"/>
      <path d="M 41.109375 46.296875 
Q 39.59375 47.171875 37.8125 47.578125 
Q 36.03125 48 33.890625 48 
Q 26.265625 48 22.1875 43.046875 
Q 18.109375 38.09375 18.109375 28.8125 
L 18.109375 0 
L 9.078125 0 
L 9.078125 54.6875 
L 18.109375 54.6875 
L 18.109375 46.1875 
Q 20.953125 51.171875 25.484375 53.578125 
Q 30.03125 56 36.53125 56 
Q 37.453125 56 38.578125 55.875 
Q 39.703125 55.765625 41.0625 55.515625 
z
" id="DejaVuSans-72"/>
      <path d="M 8.5 21.578125 
L 8.5 54.6875 
L 17.484375 54.6875 
L 17.484375 21.921875 
Q 17.484375 14.15625 20.5 10.265625 
Q 23.53125 6.390625 29.59375 6.390625 
Q 36.859375 6.390625 41.078125 11.03125 
Q 45.3125 15.671875 45.3125 23.6875 
L 45.3125 54.6875 
L 54.296875 54.6875 
L 54.296875 0 
L 45.3125 0 
L 45.3125 8.40625 
Q 42.046875 3.421875 37.71875 1 
Q 33.40625 -1.421875 27.6875 -1.421875 
Q 18.265625 -1.421875 13.375 4.4375 
Q 8.5 10.296875 8.5 21.578125 
M 31.109375 56 
z
" id="DejaVuSans-75"/>
     </defs>
     <g transform="translate(14.798438 214.357594)rotate(-90)scale(0.1 -0.1)">
      <use xlink:href="#DejaVuSans-54"/>
      <use x="60.865234" xlink:href="#DejaVuSans-72"/>
      <use x="101.978516" xlink:href="#DejaVuSans-75"/>
      <use x="165.357422" xlink:href="#DejaVuSans-65"/>
      <use x="226.880859" xlink:href="#DejaVuSans-20"/>
      <use x="258.667969" xlink:href="#DejaVuSans-50"/>
      <use x="318.923828" xlink:href="#DejaVuSans-6f"/>
      <use x="380.105469" xlink:href="#DejaVuSans-73"/>
      <use x="432.205078" xlink:href="#DejaVuSans-69"/>
      <use x="459.988281" xlink:href="#DejaVuSans-74"/>
      <use x="499.197266" xlink:href="#DejaVuSans-69"/>
      <use x="526.980469" xlink:href="#DejaVuSans-76"/>
      <use x="586.160156" xlink:href="#DejaVuSans-65"/>
      <use x="647.683594" xlink:href="#DejaVuSans-20"/>
      <use x="679.470703" xlink:href="#DejaVuSans-52"/>
      <use x="748.921875" xlink:href="#DejaVuSans-61"/>
      <use x="810.201172" xlink:href="#DejaVuSans-74"/>
      <use x="849.410156" xlink:href="#DejaVuSans-65"/>
     </g>
    </g>
   </g>
   <g id="line2d_13">
    <path clip-path="url(#p06138fb5da)" d="M 43.78125 301.8675 
L 43.869899 301.8675 
L 44.029468 299.634548 
L 44.212676 295.447764 
L 44.295415 292.656575 
L 44.413614 292.656575 
L 44.614552 290.981861 
L 44.703201 290.981861 
L 44.892319 287.632434 
L 45.069617 287.632434 
L 47.853199 265.861156 
L 48.060047 263.349086 
L 48.172336 262.790848 
L 48.349634 262.790848 
L 48.396914 262.23261 
L 49.578902 252.742566 
L 49.78575 252.742566 
L 50.122617 247.718425 
L 50.359014 247.718425 
L 50.494943 247.160187 
L 50.613142 243.81076 
L 50.76089 243.81076 
L 50.932279 242.973403 
L 51.139126 234.599835 
L 51.316425 234.599835 
L 51.487813 233.762478 
L 51.694661 233.762478 
L 51.866049 233.483359 
L 51.925149 233.483359 
L 52.096537 232.646002 
L 52.392034 232.646002 
L 52.646161 230.971289 
L 52.79391 230.971289 
L 55.837529 228.180099 
L 56.026648 225.668029 
L 56.085747 225.668029 
L 56.274865 223.155958 
L 56.706291 220.923007 
L 56.854039 219.806531 
L 58.036028 218.690055 
L 59.093907 211.712081 
L 59.330305 211.712081 
L 59.566702 210.874725 
L 60.920079 202.501156 
L 61.363324 202.501156 
L 61.534713 201.384681 
L 61.83021 201.384681 
L 62.031148 200.547324 
L 62.563042 200.547324 
L 62.81717 199.430848 
L 62.994468 199.430848 
L 63.201316 195.244064 
L 63.260415 195.244064 
L 63.313605 194.406707 
L 63.479083 193.56935 
L 63.80413 193.56935 
L 63.945968 192.731993 
L 64.347844 192.731993 
L 64.401034 191.894637 
L 64.726081 191.894637 
L 64.83246 191.05728 
L 65.098407 191.05728 
L 65.240245 190.219923 
L 65.299345 190.219923 
L 65.470733 187.986971 
L 65.642121 184.358425 
L 65.878519 184.358425 
L 65.996718 183.800187 
L 66.203566 183.800187 
L 66.593622 181.008998 
L 66.83002 181.008998 
L 67.007318 180.171641 
L 67.74606 180.171641 
L 67.8288 179.334284 
L 68.331145 179.334284 
L 68.532083 177.65957 
L 68.975328 177.65957 
L 69.063977 177.380452 
L 70.565102 168.169526 
L 70.978798 168.169526 
L 71.120637 167.33217 
L 71.593432 167.33217 
L 71.77073 167.053051 
L 71.82983 167.053051 
L 71.912569 166.215694 
L 71.959848 164.54098 
L 72.361724 162.308029 
L 72.686771 162.308029 
L 72.864069 162.02891 
L 72.964538 160.354196 
L 73.732831 160.354196 
L 73.969228 160.075077 
L 74.146526 160.075077 
L 74.365194 157.563007 
L 74.453843 157.563007 
L 74.501123 155.888293 
L 74.855719 155.888293 
L 75.180766 155.330055 
L 75.328515 152.817985 
L 75.505813 152.817985 
L 75.588552 151.980628 
L 75.76585 151.980628 
L 75.848589 151.143271 
L 76.025888 151.143271 
L 76.090897 150.026795 
L 76.327295 150.026795 
L 76.439584 148.352081 
L 76.705531 148.352081 
L 76.882829 148.072963 
L 77.237426 144.723535 
L 78.448963 144.165297 
L 78.502153 142.490584 
L 78.679451 142.490584 
L 78.80947 141.653227 
L 79.134517 141.653227 
L 79.335455 140.257632 
L 79.595492 139.141156 
L 79.654591 138.582919 
L 79.77279 138.582919 
L 79.861439 138.3038 
L 80.216036 138.3038 
L 80.269225 137.745562 
L 80.594272 137.745562 
L 80.736111 136.070848 
L 80.913409 135.51261 
L 81.002058 135.51261 
L 81.132077 134.675253 
L 81.457123 134.675253 
L 81.593052 133.837896 
L 81.652151 133.837896 
L 81.78808 133.00054 
L 81.906279 133.00054 
L 81.983108 131.325826 
L 82.249055 131.325826 
L 82.379074 130.488469 
L 82.668661 129.651112 
L 82.75731 129.651112 
L 82.899149 127.976399 
L 83.135547 127.976399 
L 83.283295 127.69728 
L 84.022038 127.69728 
L 84.069317 127.139042 
L 85.428604 127.139042 
L 85.564532 126.301685 
L 85.623632 126.301685 
L 85.712281 126.022566 
L 85.79502 125.185209 
L 86.386014 125.185209 
L 86.439204 123.510496 
L 86.705151 123.510496 
L 86.76425 123.231377 
L 87.059747 123.231377 
L 87.118847 122.673139 
L 87.621192 122.673139 
L 87.83395 121.277544 
L 88.052617 119.881949 
L 89.323255 119.044593 
L 89.500553 119.044593 
L 89.713311 117.09076 
L 89.80196 117.09076 
L 89.949708 116.811641 
L 90.304305 116.811641 
L 90.351584 116.253403 
L 90.676631 116.253403 
L 90.853929 115.974284 
L 90.960308 115.136927 
L 91.137607 115.136927 
L 91.314905 113.741333 
L 91.905899 113.741333 
L 92.142297 113.183095 
L 92.213216 111.508381 
L 93.158806 111.508381 
L 93.300645 110.671024 
L 93.537043 110.671024 
L 93.690701 109.554548 
L 94.311245 109.554548 
L 94.417624 108.717192 
L 95.185916 108.717192 
L 95.315935 107.879835 
L 95.404584 107.879835 
L 95.457773 107.042478 
L 96.78751 107.042478 
L 97.112557 106.205121 
L 97.555802 106.205121 
L 97.697641 105.926002 
L 98.259085 105.926002 
L 98.400924 105.646883 
L 100.144357 105.646883 
L 100.221186 105.088645 
L 100.398484 105.088645 
L 100.451673 104.251289 
L 100.983568 104.251289 
L 101.237696 103.693051 
L 103.867619 103.693051 
L 104.104017 101.18098 
L 104.251765 101.18098 
L 104.375874 99.506267 
L 106.651202 99.506267 
L 106.79895 96.994196 
L 107.064897 96.994196 
L 107.206736 95.319482 
L 107.443134 95.319482 
L 107.584972 93.644769 
L 107.76227 93.644769 
L 107.921839 92.807412 
L 108.158236 92.807412 
L 108.235066 92.249174 
L 109.092007 92.249174 
L 109.162926 91.411817 
L 109.694821 91.411817 
L 109.82484 90.57446 
L 111.331875 90.57446 
L 111.509173 88.899747 
L 112.307015 88.899747 
L 112.360204 88.06239 
L 112.626152 88.06239 
L 112.7739 87.783271 
L 115.196976 87.783271 
L 115.332905 87.225033 
L 115.687501 87.225033 
L 115.77024 86.945914 
L 115.900259 86.108557 
L 116.166206 86.108557 
L 116.272585 85.2712 
L 119.050258 85.2712 
L 119.186186 83.596487 
L 119.363484 83.596487 
L 119.534873 83.317368 
L 119.617612 82.480011 
L 119.913109 82.480011 
L 119.966298 82.200892 
L 120.202696 82.200892 
L 120.445004 80.526178 
L 123.547723 80.526178 
L 123.677741 79.688822 
L 126.071267 79.688822 
L 126.142187 78.851465 
L 126.526333 78.851465 
L 126.597252 78.014108 
L 127.070047 78.014108 
L 127.330085 74.664681 
L 127.684681 74.664681 
L 127.80879 72.989967 
L 128.606632 72.989967 
L 128.7662 72.15261 
L 128.8253 71.873491 
L 130.627832 71.873491 
L 130.76376 70.198778 
L 132.211696 70.198778 
L 132.282615 69.361421 
L 138.901749 69.361421 
L 139.067227 68.803183 
L 139.197246 67.965826 
L 139.758691 67.965826 
L 139.82961 67.128469 
L 144.616662 67.128469 
L 144.752591 66.570231 
L 144.81169 66.570231 
L 144.85897 66.011993 
L 145.331765 66.011993 
L 145.420414 65.732874 
L 146.903809 65.732874 
L 146.951089 65.174637 
L 148.635422 65.174637 
L 148.77726 64.058161 
L 155.526413 64.058161 
L 155.685981 63.220804 
L 157.163467 63.220804 
L 160.207086 61.54609 
L 164.225846 61.54609 
L 164.308585 61.266971 
L 164.899579 61.266971 
L 164.970499 60.429615 
L 168.368715 60.429615 
L 168.510553 60.150496 
L 169.84029 60.150496 
L 170.088507 59.313139 
L 172.363835 59.313139 
L 172.499763 58.475782 
L 175.484283 58.475782 
L 175.632032 58.196663 
L 180.094037 58.196663 
L 184.290095 57.917544 
L 187.83606 57.917544 
L 194.721141 57.080187 
L 199.774141 57.080187 
L 199.83324 56.801068 
L 207.262036 56.801068 
L 207.350685 55.963711 
L 207.82348 55.963711 
L 207.959409 55.405474 
L 220.275726 55.405474 
L 220.382105 54.568117 
L 221.593642 54.568117 
L 221.729571 54.009879 
L 228.715121 54.009879 
L 229.205646 51.776927 
L 233.253956 51.776927 
L 233.342605 51.497808 
L 236.88857 51.497808 
L 236.959489 50.660452 
L 237.520933 50.660452 
L 237.609582 50.381333 
L 248.158827 50.381333 
L 248.483874 50.102214 
L 252.774491 50.102214 
L 252.934059 49.264857 
L 271.166227 49.264857 
L 271.639022 48.985738 
L 279.174197 48.985738 
L 280.149337 48.4275 
L 400.90125 48.4275 
L 400.90125 48.4275 
" style="fill:none;stroke:#1f77b4;stroke-linecap:square;stroke-width:1.5;"/>
   </g>
   <g id="line2d_14">
    <path clip-path="url(#p06138fb5da)" d="M 43.78125 301.8675 
L 45.908829 287.911553 
L 47.268115 278.979747 
L 47.315395 277.863271 
L 47.551792 277.863271 
L 47.587252 276.746795 
L 47.82365 276.746795 
L 48.461923 271.722654 
L 48.521023 271.722654 
L 48.580122 271.164416 
L 48.875619 271.164416 
L 49.047007 267.53587 
L 49.224306 265.302919 
L 49.460703 264.186443 
L 49.697101 261.953491 
L 49.874399 261.953491 
L 50.110797 260.837015 
L 50.938188 256.371112 
L 51.056387 256.371112 
L 51.115487 255.254637 
L 51.292785 255.254637 
L 51.410984 254.696399 
L 51.529183 251.905209 
L 51.647381 251.905209 
L 51.76558 251.346971 
L 52.001978 251.346971 
L 52.82937 247.439306 
L 53.065767 247.439306 
L 53.243065 246.601949 
L 53.337624 245.485474 
L 54.046817 241.01957 
L 54.165016 241.01957 
L 54.247755 238.228381 
L 54.365954 238.228381 
L 54.425054 237.111905 
L 54.720551 237.111905 
L 55.069237 234.320716 
L 55.187436 234.320716 
L 55.305635 233.762478 
L 55.542032 233.20424 
L 55.77843 230.971289 
L 55.896629 230.971289 
L 56.700381 224.272434 
L 56.877679 224.272434 
L 56.936778 223.714196 
L 57.054977 223.714196 
L 57.409574 220.364769 
L 57.586872 220.364769 
L 57.645971 219.248293 
L 57.76417 219.248293 
L 57.941468 217.573579 
L 58.059667 217.573579 
L 58.118767 216.457104 
L 58.355164 216.457104 
L 58.473363 215.898866 
L 58.709761 215.898866 
L 58.946158 214.78239 
L 59.241655 214.78239 
L 59.418954 213.665914 
L 59.950848 213.665914 
L 60.222706 210.874725 
L 60.400004 210.874725 
L 60.553662 208.641773 
L 60.671861 208.641773 
L 60.849159 206.408822 
L 61.144656 206.408822 
L 61.381054 205.292346 
L 61.416514 204.17587 
L 61.534713 204.17587 
L 61.593812 203.617632 
L 61.77111 203.617632 
L 62.007508 201.942919 
L 62.303005 201.942919 
L 62.415294 201.384681 
L 62.533493 201.384681 
L 62.592592 200.826443 
L 62.76989 200.826443 
L 62.876269 199.151729 
L 62.994468 199.151729 
L 63.112667 198.87261 
L 63.76276 198.87261 
L 63.82186 198.593491 
L 64.058257 198.593491 
L 64.353754 197.477015 
L 64.578332 195.244064 
L 64.637432 195.244064 
L 64.696531 194.685826 
L 65.051127 194.685826 
L 65.169326 193.848469 
L 65.405724 193.848469 
L 65.512103 193.290231 
L 67.639681 184.916663 
L 67.81698 184.916663 
L 67.911539 183.241949 
L 68.029738 182.125474 
L 68.443433 182.125474 
L 68.620732 181.008998 
L 69.211726 181.008998 
L 69.389024 179.892522 
L 69.507223 179.334284 
L 70.216416 179.334284 
L 70.275515 178.776046 
L 70.571012 178.776046 
L 70.630112 178.217808 
L 70.74831 178.217808 
L 70.890149 175.984857 
L 71.067447 175.984857 
L 71.126547 175.705738 
L 71.717541 175.705738 
L 72.166696 172.356311 
L 72.343994 172.356311 
L 72.403094 171.798073 
L 72.698591 171.798073 
L 72.79315 170.681597 
L 73.561442 170.681597 
L 74.329735 168.448645 
L 74.979828 168.448645 
L 75.086207 167.890407 
L 75.618102 167.890407 
L 75.677201 167.33217 
L 75.972698 167.33217 
L 76.019978 166.773932 
L 76.197276 166.773932 
L 76.492773 163.703623 
L 76.75872 163.703623 
L 76.924199 162.866267 
L 76.983298 162.866267 
L 77.030578 162.308029 
L 77.444273 162.308029 
L 77.609752 160.075077 
L 77.668851 160.075077 
L 77.722041 159.516839 
L 78.75628 159.516839 
L 78.874479 158.958601 
L 79.394554 155.050936 
L 79.926449 155.050936 
L 80.576542 153.93446 
L 80.730201 151.143271 
L 80.848399 151.143271 
L 81.025698 149.468557 
L 81.173446 149.468557 
L 81.315285 147.793844 
L 81.492583 147.793844 
L 81.610782 147.235606 
L 82.024478 147.235606 
L 82.083577 146.677368 
L 82.379074 146.677368 
L 82.674571 145.560892 
L 83.029168 145.560892 
L 83.206466 144.444416 
L 83.620162 144.444416 
L 83.655621 143.327941 
L 83.892019 143.327941 
L 83.939299 142.769703 
L 85.032638 142.769703 
L 85.091737 142.211465 
L 85.269035 142.211465 
L 85.434514 140.81587 
L 85.730011 140.81587 
L 85.81275 139.141156 
L 86.640142 139.141156 
L 86.687421 138.582919 
L 87.721661 138.582919 
L 87.76894 138.024681 
L 87.946238 138.024681 
L 88.064437 137.466443 
L 88.891829 136.349967 
L 89.305525 136.349967 
L 89.323255 135.791729 
L 90.859839 135.791729 
L 90.948488 135.51261 
L 91.184886 135.51261 
L 91.515843 134.117015 
L 91.693141 134.117015 
L 91.693141 130.20935 
L 91.722691 130.20935 
L 92.254585 130.20935 
L 92.301865 129.651112 
L 92.892859 129.651112 
L 92.999238 129.092874 
L 93.324285 129.092874 
L 93.324285 127.69728 
L 93.737981 127.69728 
L 94.051207 126.301685 
L 94.524003 126.301685 
L 94.659931 125.743447 
L 95.250925 125.743447 
L 95.250925 125.464328 
L 95.310025 125.464328 
L 96.610212 125.464328 
L 96.633852 125.185209 
L 96.8407 125.185209 
L 96.8407 124.90609 
L 97.136197 124.90609 
L 97.136197 124.626971 
L 97.431694 124.626971 
L 97.579442 123.789615 
L 97.697641 123.789615 
L 97.75674 123.510496 
L 98.140887 123.510496 
L 98.188166 122.952258 
L 98.513213 122.952258 
L 98.631412 122.39402 
L 99.370154 122.39402 
L 99.417434 121.835782 
L 100.658521 121.835782 
L 100.83582 120.719306 
L 100.954018 120.719306 
L 101.013118 120.161068 
L 101.214056 120.161068 
L 101.296795 119.60283 
L 101.414994 119.60283 
L 101.474093 118.207236 
L 101.592292 118.207236 
L 101.651391 117.648998 
L 102.715181 117.648998 
L 102.715181 117.369879 
L 102.80383 117.369879 
L 103.128877 117.369879 
L 103.199796 116.532522 
L 103.347545 116.532522 
L 103.453923 115.974284 
L 103.690321 115.974284 
L 103.80852 115.416046 
L 104.541353 115.416046 
L 104.659551 114.578689 
L 104.895949 114.578689 
L 104.943229 114.020452 
L 105.179626 114.020452 
L 105.256455 112.066619 
L 105.492853 112.066619 
L 105.551953 111.7875 
L 106.172496 111.7875 
L 106.261145 110.950143 
L 106.379344 110.950143 
L 106.515273 110.391905 
L 106.698481 109.27543 
L 107.466773 109.27543 
L 107.584972 108.717192 
L 108.441914 108.717192 
L 108.441914 108.438073 
L 108.471463 108.438073 
L 108.737411 108.438073 
L 108.737411 108.158954 
L 111.278685 108.158954 
L 111.414614 107.600716 
L 111.82831 107.600716 
L 111.857859 107.042478 
L 112.448854 107.042478 
L 112.448854 106.763359 
L 112.478403 106.763359 
L 112.980748 106.763359 
L 113.039848 105.926002 
L 113.098947 105.926002 
L 113.098947 104.809526 
L 113.158046 104.809526 
L 117.117707 104.809526 
L 117.271365 103.693051 
L 117.537313 103.693051 
L 117.584592 103.134813 
L 118.086937 103.134813 
L 118.122397 102.018337 
L 119.393034 102.018337 
L 119.393034 101.460099 
L 119.481683 101.460099 
L 119.647162 100.343623 
L 121.183746 100.343623 
L 121.301945 99.785385 
L 122.212076 99.785385 
L 122.212076 98.389791 
L 122.300725 98.389791 
L 123.098567 98.389791 
L 123.128117 97.831553 
L 124.162356 97.831553 
L 124.398754 96.715077 
L 124.516953 96.715077 
L 124.564232 96.156839 
L 125.184776 96.156839 
L 125.184776 95.87772 
L 125.302975 95.87772 
L 125.421174 94.761244 
L 128.730741 94.761244 
L 128.730741 94.203007 
L 129.528583 94.203007 
L 129.528583 93.644769 
L 130.586462 93.644769 
L 130.734211 93.086531 
L 131.059258 93.086531 
L 131.088807 92.807412 
L 131.472953 92.807412 
L 131.472953 92.249174 
L 131.82755 92.249174 
L 131.886649 91.690936 
L 133.216386 91.690936 
L 133.541433 89.457985 
L 134.575672 89.457985 
L 134.652502 88.899747 
L 136.011788 88.899747 
L 136.059068 88.341509 
L 136.79781 88.341509 
L 136.82736 88.06239 
L 137.654752 88.06239 
L 137.654752 87.783271 
L 138.748091 87.783271 
L 138.85447 87.225033 
L 139.445464 87.225033 
L 139.475013 86.945914 
L 141.070697 86.945914 
L 141.070697 86.387676 
L 141.307095 86.387676 
L 141.413474 85.829438 
L 141.531673 85.829438 
L 141.561223 85.2712 
L 141.974918 85.2712 
L 142.081297 84.712963 
L 142.78458 84.712963 
L 142.81413 84.433844 
L 143.050528 84.433844 
L 143.127357 83.875606 
L 144.043398 83.875606 
L 144.191146 83.038249 
L 145.018538 83.038249 
L 145.018538 82.75913 
L 145.107187 82.75913 
L 147.506623 82.75913 
L 147.536173 82.480011 
L 149.84105 82.480011 
L 149.870599 82.200892 
L 150.461594 82.200892 
L 150.579792 81.642654 
L 155.691891 81.642654 
L 155.916469 80.247059 
L 156.86206 80.247059 
L 156.980258 79.688822 
L 157.535793 79.688822 
L 157.648082 79.409703 
L 157.707181 79.409703 
L 157.707181 79.130584 
L 157.85493 79.130584 
L 158.061778 78.572346 
L 160.012058 78.572346 
L 160.012058 75.502037 
L 162.760181 75.502037 
L 162.760181 75.222919 
L 162.937479 75.222919 
L 163.055678 74.9438 
L 165.419654 74.9438 
L 165.537853 74.664681 
L 165.596952 74.664681 
L 165.644232 74.106443 
L 167.446764 74.106443 
L 167.618152 73.548205 
L 167.85455 73.548205 
L 167.884099 73.269086 
L 169.302485 73.269086 
L 169.332035 72.989967 
L 172.966649 72.989967 
L 172.996198 72.710848 
L 174.444134 72.710848 
L 174.615522 71.873491 
L 180.052668 71.873491 
L 180.052668 71.594372 
L 180.082217 71.594372 
L 182.357545 71.594372 
L 182.463924 70.477896 
L 182.729871 70.477896 
L 182.777151 69.919659 
L 184.343285 69.919659 
L 184.343285 69.64054 
L 186.264016 69.64054 
L 186.264016 69.082302 
L 186.352665 69.082302 
L 188.675272 69.082302 
L 188.675272 68.803183 
L 188.734371 68.803183 
L 190.241406 68.803183 
L 190.241406 68.524064 
L 190.773301 68.524064 
L 190.79103 67.965826 
L 192.357165 67.965826 
L 192.475364 67.686707 
L 192.85951 67.686707 
L 192.906789 67.128469 
L 193.290935 67.128469 
L 193.308665 66.291112 
L 195.767201 66.291112 
L 195.909039 65.453756 
L 196.677332 65.453756 
L 196.765981 65.174637 
L 203.184177 65.174637 
L 203.290555 64.616399 
L 205.388584 64.616399 
L 205.418134 64.33728 
L 206.304625 64.33728 
L 206.440554 63.779042 
L 206.676952 63.779042 
L 206.676952 63.220804 
L 206.736051 63.220804 
L 207.79984 63.220804 
L 207.82939 62.941685 
L 209.035018 62.941685 
L 209.035018 62.662566 
L 209.064568 62.662566 
L 212.81738 62.662566 
L 212.81738 62.104328 
L 215.063158 62.104328 
L 215.092707 61.825209 
L 215.270006 61.825209 
L 215.270006 61.54609 
L 218.254526 61.54609 
L 218.390454 60.987852 
L 219.779291 60.987852 
L 219.80884 60.708733 
L 220.577133 60.708733 
L 220.577133 60.429615 
L 220.990828 60.429615 
L 221.126757 59.871377 
L 226.026098 59.871377 
L 226.026098 59.592258 
L 226.906679 59.592258 
L 226.936229 59.313139 
L 234.382755 59.313139 
L 234.495044 59.03402 
L 235.470184 59.03402 
L 235.493824 58.754901 
L 240.280876 58.754901 
L 240.310425 58.475782 
L 241.433314 58.475782 
L 241.433314 58.196663 
L 241.516053 58.196663 
L 241.663802 58.196663 
L 241.681532 57.638425 
L 245.81849 57.638425 
L 245.81849 57.359306 
L 246.202636 57.359306 
L 246.226276 57.080187 
L 251.692972 57.080187 
L 251.8289 56.521949 
L 252.774491 56.521949 
L 252.774491 56.24283 
L 252.80404 56.24283 
L 253.424584 56.24283 
L 253.542783 55.963711 
L 254.311075 55.963711 
L 254.423364 55.684593 
L 261.86989 55.684593 
L 261.86989 55.405474 
L 268.607222 55.405474 
L 268.719511 55.126355 
L 277.761721 55.126355 
L 277.785361 54.847236 
L 279.676542 54.847236 
L 279.794741 54.568117 
L 280.326635 54.568117 
L 280.373915 54.009879 
L 282.353745 54.009879 
L 282.353745 53.451641 
L 282.442394 53.451641 
L 288.027288 53.451641 
L 288.027288 53.172522 
L 293.375785 53.172522 
L 293.375785 52.893403 
L 293.464434 52.893403 
L 297.89689 52.893403 
L 297.89689 52.614284 
L 297.926439 52.614284 
L 299.965369 52.614284 
L 300.077658 52.335165 
L 305.042008 52.335165 
L 305.042008 52.056046 
L 305.751201 52.056046 
L 305.774841 51.776927 
L 306.690882 51.776927 
L 306.744071 51.497808 
L 315.697632 51.497808 
L 315.815831 51.218689 
L 326.542373 51.218689 
L 326.542373 50.93957 
L 326.601473 50.93957 
L 328.138057 50.93957 
L 328.250346 50.660452 
L 332.416855 50.660452 
L 332.416855 50.381333 
L 336.524264 50.381333 
L 336.577453 50.102214 
L 341.571353 50.102214 
L 341.689552 49.823095 
L 341.807751 49.823095 
L 341.831391 49.543976 
L 353.633543 49.543976 
L 353.692642 49.264857 
L 354.992829 49.264857 
L 355.016469 48.985738 
L 356.984479 48.985738 
L 357.008119 48.706619 
L 360.317686 48.706619 
L 360.317686 48.4275 
L 360.347235 48.4275 
L 400.90125 48.4275 
L 400.90125 48.4275 
" style="fill:none;stroke:#ff7f0e;stroke-linecap:square;stroke-width:1.5;"/>
   </g>
   <g id="line2d_15">
    <path clip-path="url(#p06138fb5da)" d="M 43.78125 301.8675 
L 46.79537 285.101899 
L 47.061321 284.543046 
L 48.745683 274.763112 
L 48.834333 271.968845 
L 49.011634 271.968845 
L 49.366237 269.733432 
L 49.543538 269.174578 
L 49.93951 267.218592 
L 50.205462 266.659738 
L 50.382763 264.424325 
L 50.560064 262.747765 
L 50.737366 262.747765 
L 51.801173 259.115218 
L 52.155775 255.762098 
L 52.569478 255.762098 
L 52.92408 253.247257 
L 53.190032 253.247257 
L 53.367333 252.688404 
L 53.633285 250.452991 
L 53.721935 250.452991 
L 53.899236 248.217577 
L 53.987887 247.658724 
L 55.494947 241.23191 
L 55.642698 239.55535 
L 55.819999 238.71707 
L 56.085951 238.71707 
L 56.174601 237.04051 
L 56.351902 237.04051 
L 57.061107 231.17255 
L 57.386159 228.937136 
L 57.56346 228.937136 
L 57.740761 225.584016 
L 57.918063 225.584016 
L 58.065814 224.466309 
L 58.390866 221.392616 
L 59.247821 221.392616 
L 59.336472 219.716056 
L 59.661524 219.716056 
L 59.750175 218.039496 
L 59.897926 218.039496 
L 60.045677 217.201216 
L 60.282078 217.201216 
L 60.926272 210.494975 
L 61.103574 210.494975 
L 61.192224 209.656695 
L 61.458176 209.656695 
L 61.546826 208.538988 
L 61.812778 208.538988 
L 61.901429 206.862428 
L 62.16738 206.862428 
L 62.433332 204.906442 
L 62.669734 204.906442 
L 62.847035 203.509308 
L 62.935686 203.509308 
L 63.172087 201.553321 
L 63.260738 201.553321 
L 63.438039 200.715041 
L 63.703991 200.715041 
L 63.792641 199.876761 
L 63.969942 199.876761 
L 64.111783 198.200201 
L 64.170884 197.641348 
L 64.348185 197.641348 
L 67.628256 187.581987 
L 67.864658 187.581987 
L 68.101059 186.184854 
L 68.337461 186.184854 
L 68.662513 183.390587 
L 68.839814 183.390587 
L 69.052576 181.4346 
L 69.554929 181.4346 
L 69.73223 180.037467 
L 69.998182 180.037467 
L 70.145933 178.91976 
L 71.18019 178.91976 
L 71.26884 178.08148 
L 71.800744 178.08148 
L 72.125796 175.846067 
L 72.362197 175.846067 
L 72.450848 175.007787 
L 72.864551 175.007787 
L 72.953201 174.448933 
L 73.041852 172.772373 
L 73.307803 172.772373 
L 73.485105 171.934093 
L 73.898807 171.934093 
L 75.051265 168.8604 
L 76.174172 168.8604 
L 76.321923 167.463266 
L 77.444831 167.463266 
L 77.503931 166.904413 
L 78.035834 166.904413 
L 78.213136 165.227853 
L 78.508638 165.227853 
L 78.656389 164.668999 
L 78.804139 164.110146 
L 79.158742 164.110146 
L 79.501524 159.918746 
L 80.653982 159.918746 
L 80.724902 159.080466 
L 81.079504 157.124479 
L 81.434107 157.124479 
L 81.522757 156.565626 
L 82.113761 156.565626 
L 82.338343 153.771359 
L 82.663395 153.771359 
L 82.793416 152.933079 
L 84.684628 152.933079 
L 86.103037 150.418239 
L 86.368989 150.418239 
L 86.735411 147.623972 
L 86.824062 147.623972 
L 87.001363 147.065119 
L 87.237765 145.667985 
L 87.474166 145.667985 
L 87.710568 143.432572 
L 88.242471 143.432572 
L 88.301572 142.873718 
L 88.567523 142.873718 
L 88.656174 141.197158 
L 89.808632 139.800025 
L 89.950473 138.123465 
L 90.157324 138.123465 
L 90.234154 136.446905 
L 90.647857 136.446905 
L 90.913809 133.652638 
L 91.888965 133.652638 
L 92.332218 130.299518 
L 92.952772 130.299518 
L 93.141893 128.622958 
L 93.319195 128.622958 
L 93.407845 127.225824 
L 93.939749 127.225824 
L 94.057949 125.549264 
L 94.294351 124.710984 
L 94.383002 123.034424 
L 94.648953 123.034424 
L 94.737604 122.196144 
L 95.003556 122.196144 
L 95.180857 120.519584 
L 95.505909 120.519584 
L 95.901882 117.44589 
L 95.990532 117.44589 
L 96.179653 112.975063 
L 96.445605 112.975063 
L 96.516526 112.136783 
L 96.841578 112.136783 
L 96.989329 111.298503 
L 97.077979 111.298503 
L 97.326201 109.621943 
L 97.769454 109.621943 
L 97.840374 108.783663 
L 98.372278 108.783663 
L 98.407738 107.665956 
L 98.585039 107.665956 
L 98.821441 105.989396 
L 99.353344 105.989396 
L 99.441995 105.151116 
L 99.707946 105.151116 
L 99.778867 104.312836 
L 100.28122 104.312836 
L 100.576722 101.239143 
L 104.625099 101.239143 
L 104.75512 100.680289 
L 106.262179 100.680289 
L 106.439481 99.842009 
L 106.675882 99.842009 
L 106.823633 99.283156 
L 107.266886 99.283156 
L 107.337806 98.724303 
L 107.515108 98.724303 
L 107.781059 97.886023 
L 109.642722 97.886023 
L 109.766832 96.768316 
L 110.298736 95.371182 
L 110.357836 95.371182 
L 110.854279 93.415196 
L 111.711235 93.415196 
L 111.858986 92.576916 
L 113.750198 92.576916 
L 113.886129 91.738636 
L 114.270282 91.738636 
L 114.317562 91.179782 
L 114.613064 91.179782 
L 114.683985 90.341502 
L 114.861286 90.341502 
L 114.949936 89.503222 
L 120.298521 89.503222 
L 120.369442 88.664942 
L 121.965152 88.664942 
L 122.053803 87.826662 
L 122.290204 87.826662 
L 122.349305 87.547235 
L 123.590413 87.547235 
L 123.661333 86.708955 
L 124.134137 86.708955 
L 124.205057 86.150102 
L 124.471009 86.150102 
L 124.541929 85.311822 
L 124.985182 85.311822 
L 125.038372 83.635262 
L 125.156573 83.635262 
L 125.227494 82.796982 
L 126.054899 82.796982 
L 126.1731 82.238128 
L 130.191926 82.238128 
L 130.262847 81.399848 
L 130.528798 81.399848 
L 130.664729 80.840995 
L 131.935388 80.840995 
L 132.154059 79.723288 
L 132.390461 79.723288 
L 132.425921 78.605582 
L 133.371527 78.605582 
L 133.501548 78.046728 
L 134.890407 78.046728 
L 135.049978 77.487875 
L 135.552331 77.487875 
L 135.700082 77.208448 
L 136.497938 77.208448 
L 136.763889 76.370168 
L 141.580571 76.370168 
L 141.639671 75.811315 
L 143.944586 75.811315 
L 143.997777 75.252461 
L 146.06629 75.252461 
L 146.137211 74.414181 
L 148.560327 74.414181 
L 148.755358 73.575901 
L 149.287261 73.575901 
L 149.417282 72.458195 
L 149.771884 72.458195 
L 149.919635 71.899341 
L 150.244688 71.899341 
L 150.421989 69.663928 
L 160.025802 69.663928 
L 160.155823 68.546221 
L 162.253886 68.546221 
L 162.383907 67.707941 
L 163.565915 67.707941 
L 163.695936 66.869661 
L 165.498498 66.869661 
L 165.646249 66.310808 
L 166.207702 66.310808 
L 166.254982 65.751954 
L 166.373183 65.751954 
L 166.444104 65.193101 
L 169.724175 65.193101 
L 169.931027 64.354821 
L 170.551581 64.354821 
L 170.711152 63.795967 
L 170.918003 63.795967 
L 171.065754 62.957687 
L 171.597658 62.957687 
L 171.774959 62.119407 
L 171.98181 62.119407 
L 172.070461 60.442847 
L 172.986517 60.442847 
L 173.033797 59.883994 
L 174.186254 59.883994 
L 174.316275 59.325141 
L 179.517109 59.325141 
L 179.58803 58.486861 
L 189.723746 58.486861 
L 189.883317 57.64858 
L 191.065325 57.64858 
L 191.224896 56.8103 
L 195.450574 56.8103 
L 195.610145 55.97202 
L 198.978867 55.97202 
L 199.227089 55.413167 
L 207.560243 55.413167 
L 207.690264 54.854314 
L 208.163067 54.854314 
L 208.222167 54.29546 
L 211.945492 54.29546 
L 212.016412 53.45718 
L 217.246797 53.45718 
L 217.294077 52.898327 
L 220.042245 52.898327 
L 220.201816 52.339474 
L 224.935757 52.339474 
L 224.983037 51.78062 
L 226.815149 51.78062 
L 226.9038 51.501193 
L 239.634023 51.501193 
L 239.704944 50.662913 
L 253.883127 50.662913 
L 253.942227 50.383487 
L 270.496246 50.383487 
L 270.655817 49.545207 
L 298.019296 49.545207 
L 298.167047 49.26578 
L 322.782358 49.26578 
L 322.841459 48.986353 
L 339.454577 48.986353 
L 339.602328 48.4275 
L 400.90125 48.4275 
L 400.90125 48.4275 
" style="fill:none;stroke:#2ca02c;stroke-linecap:square;stroke-width:1.5;"/>
   </g>
   <g id="line2d_16">
    <path clip-path="url(#p06138fb5da)" d="M 43.78125 301.8675 
L 400.90125 48.4275 
" style="fill:none;stroke:#000000;stroke-dasharray:5.6,2.4;stroke-dashoffset:0;stroke-width:1.5;"/>
   </g>
   <g id="patch_3">
    <path d="M 43.78125 301.8675 
L 43.78125 35.7555 
" style="fill:none;stroke:#000000;stroke-linecap:square;stroke-linejoin:miter;stroke-width:0.8;"/>
   </g>
   <g id="patch_4">
    <path d="M 400.90125 301.8675 
L 400.90125 35.7555 
" style="fill:none;stroke:#000000;stroke-linecap:square;stroke-linejoin:miter;stroke-width:0.8;"/>
   </g>
   <g id="patch_5">
    <path d="M 43.78125 301.8675 
L 400.90125 301.8675 
" style="fill:none;stroke:#000000;stroke-linecap:square;stroke-linejoin:miter;stroke-width:0.8;"/>
   </g>
   <g id="patch_6">
    <path d="M 43.78125 35.7555 
L 400.90125 35.7555 
" style="fill:none;stroke:#000000;stroke-linecap:square;stroke-linejoin:miter;stroke-width:0.8;"/>
   </g>
   <g id="text_15">
    <!-- ROC Curve GradientBoosting + SMOTE -->
    <defs>
     <path d="M 39.40625 66.21875 
Q 28.65625 66.21875 22.328125 58.203125 
Q 16.015625 50.203125 16.015625 36.375 
Q 16.015625 22.609375 22.328125 14.59375 
Q 28.65625 6.59375 39.40625 6.59375 
Q 50.140625 6.59375 56.421875 14.59375 
Q 62.703125 22.609375 62.703125 36.375 
Q 62.703125 50.203125 56.421875 58.203125 
Q 50.140625 66.21875 39.40625 66.21875 
M 39.40625 74.21875 
Q 54.734375 74.21875 63.90625 63.9375 
Q 73.09375 53.65625 73.09375 36.375 
Q 73.09375 19.140625 63.90625 8.859375 
Q 54.734375 -1.421875 39.40625 -1.421875 
Q 24.03125 -1.421875 14.8125 8.828125 
Q 5.609375 19.09375 5.609375 36.375 
Q 5.609375 53.65625 14.8125 63.9375 
Q 24.03125 74.21875 39.40625 74.21875 
" id="DejaVuSans-4f"/>
     <path d="M 64.40625 67.28125 
L 64.40625 56.890625 
Q 59.421875 61.53125 53.78125 63.8125 
Q 48.140625 66.109375 41.796875 66.109375 
Q 29.296875 66.109375 22.65625 58.46875 
Q 16.015625 50.828125 16.015625 36.375 
Q 16.015625 21.96875 22.65625 14.328125 
Q 29.296875 6.6875 41.796875 6.6875 
Q 48.140625 6.6875 53.78125 8.984375 
Q 59.421875 11.28125 64.40625 15.921875 
L 64.40625 5.609375 
Q 59.234375 2.09375 53.4375 0.328125 
Q 47.65625 -1.421875 41.21875 -1.421875 
Q 24.65625 -1.421875 15.125 8.703125 
Q 5.609375 18.84375 5.609375 36.375 
Q 5.609375 53.953125 15.125 64.078125 
Q 24.65625 74.21875 41.21875 74.21875 
Q 47.75 74.21875 53.53125 72.484375 
Q 59.328125 70.75 64.40625 67.28125 
" id="DejaVuSans-43"/>
     <path d="M 59.515625 10.40625 
L 59.515625 29.984375 
L 43.40625 29.984375 
L 43.40625 38.09375 
L 69.28125 38.09375 
L 69.28125 6.78125 
Q 63.578125 2.734375 56.6875 0.65625 
Q 49.8125 -1.421875 42 -1.421875 
Q 24.90625 -1.421875 15.25 8.5625 
Q 5.609375 18.5625 5.609375 36.375 
Q 5.609375 54.25 15.25 64.234375 
Q 24.90625 74.21875 42 74.21875 
Q 49.125 74.21875 55.546875 72.453125 
Q 61.96875 70.703125 67.390625 67.28125 
L 67.390625 56.78125 
Q 61.921875 61.421875 55.765625 63.765625 
Q 49.609375 66.109375 42.828125 66.109375 
Q 29.4375 66.109375 22.71875 58.640625 
Q 16.015625 51.171875 16.015625 36.375 
Q 16.015625 21.625 22.71875 14.15625 
Q 29.4375 6.6875 42.828125 6.6875 
Q 48.046875 6.6875 52.140625 7.59375 
Q 56.25 8.5 59.515625 10.40625 
" id="DejaVuSans-47"/>
     <path d="M 45.40625 46.390625 
L 45.40625 75.984375 
L 54.390625 75.984375 
L 54.390625 0 
L 45.40625 0 
L 45.40625 8.203125 
Q 42.578125 3.328125 38.25 0.953125 
Q 33.9375 -1.421875 27.875 -1.421875 
Q 17.96875 -1.421875 11.734375 6.484375 
Q 5.515625 14.40625 5.515625 27.296875 
Q 5.515625 40.1875 11.734375 48.09375 
Q 17.96875 56 27.875 56 
Q 33.9375 56 38.25 53.625 
Q 42.578125 51.265625 45.40625 46.390625 
M 14.796875 27.296875 
Q 14.796875 17.390625 18.875 11.75 
Q 22.953125 6.109375 30.078125 6.109375 
Q 37.203125 6.109375 41.296875 11.75 
Q 45.40625 17.390625 45.40625 27.296875 
Q 45.40625 37.203125 41.296875 42.84375 
Q 37.203125 48.484375 30.078125 48.484375 
Q 22.953125 48.484375 18.875 42.84375 
Q 14.796875 37.203125 14.796875 27.296875 
" id="DejaVuSans-64"/>
     <path d="M 54.890625 33.015625 
L 54.890625 0 
L 45.90625 0 
L 45.90625 32.71875 
Q 45.90625 40.484375 42.875 44.328125 
Q 39.84375 48.1875 33.796875 48.1875 
Q 26.515625 48.1875 22.3125 43.546875 
Q 18.109375 38.921875 18.109375 30.90625 
L 18.109375 0 
L 9.078125 0 
L 9.078125 54.6875 
L 18.109375 54.6875 
L 18.109375 46.1875 
Q 21.34375 51.125 25.703125 53.5625 
Q 30.078125 56 35.796875 56 
Q 45.21875 56 50.046875 50.171875 
Q 54.890625 44.34375 54.890625 33.015625 
" id="DejaVuSans-6e"/>
     <path d="M 19.671875 34.8125 
L 19.671875 8.109375 
L 35.5 8.109375 
Q 43.453125 8.109375 47.28125 11.40625 
Q 51.125 14.703125 51.125 21.484375 
Q 51.125 28.328125 47.28125 31.5625 
Q 43.453125 34.8125 35.5 34.8125 
z
M 19.671875 64.796875 
L 19.671875 42.828125 
L 34.28125 42.828125 
Q 41.5 42.828125 45.03125 45.53125 
Q 48.578125 48.25 48.578125 53.8125 
Q 48.578125 59.328125 45.03125 62.0625 
Q 41.5 64.796875 34.28125 64.796875 
z
M 9.8125 72.90625 
L 35.015625 72.90625 
Q 46.296875 72.90625 52.390625 68.21875 
Q 58.5 63.53125 58.5 54.890625 
Q 58.5 48.1875 55.375 44.234375 
Q 52.25 40.28125 46.1875 39.3125 
Q 53.46875 37.75 57.5 32.78125 
Q 61.53125 27.828125 61.53125 20.40625 
Q 61.53125 10.640625 54.890625 5.3125 
Q 48.25 0 35.984375 0 
L 9.8125 0 
z
" id="DejaVuSans-42"/>
     <path d="M 45.40625 27.984375 
Q 45.40625 37.75 41.375 43.109375 
Q 37.359375 48.484375 30.078125 48.484375 
Q 22.859375 48.484375 18.828125 43.109375 
Q 14.796875 37.75 14.796875 27.984375 
Q 14.796875 18.265625 18.828125 12.890625 
Q 22.859375 7.515625 30.078125 7.515625 
Q 37.359375 7.515625 41.375 12.890625 
Q 45.40625 18.265625 45.40625 27.984375 
M 54.390625 6.78125 
Q 54.390625 -7.171875 48.1875 -13.984375 
Q 42 -20.796875 29.203125 -20.796875 
Q 24.46875 -20.796875 20.265625 -20.09375 
Q 16.0625 -19.390625 12.109375 -17.921875 
L 12.109375 -9.1875 
Q 16.0625 -11.328125 19.921875 -12.34375 
Q 23.78125 -13.375 27.78125 -13.375 
Q 36.625 -13.375 41.015625 -8.765625 
Q 45.40625 -4.15625 45.40625 5.171875 
L 45.40625 9.625 
Q 42.625 4.78125 38.28125 2.390625 
Q 33.9375 0 27.875 0 
Q 17.828125 0 11.671875 7.65625 
Q 5.515625 15.328125 5.515625 27.984375 
Q 5.515625 40.671875 11.671875 48.328125 
Q 17.828125 56 27.875 56 
Q 33.9375 56 38.28125 53.609375 
Q 42.625 51.21875 45.40625 46.390625 
L 45.40625 54.6875 
L 54.390625 54.6875 
z
" id="DejaVuSans-67"/>
     <path d="M 46 62.703125 
L 46 35.5 
L 73.1875 35.5 
L 73.1875 27.203125 
L 46 27.203125 
L 46 0 
L 37.796875 0 
L 37.796875 27.203125 
L 10.59375 27.203125 
L 10.59375 35.5 
L 37.796875 35.5 
L 37.796875 62.703125 
z
" id="DejaVuSans-2b"/>
     <path d="M 53.515625 70.515625 
L 53.515625 60.890625 
Q 47.90625 63.578125 42.921875 64.890625 
Q 37.9375 66.21875 33.296875 66.21875 
Q 25.25 66.21875 20.875 63.09375 
Q 16.5 59.96875 16.5 54.203125 
Q 16.5 49.359375 19.40625 46.890625 
Q 22.3125 44.4375 30.421875 42.921875 
L 36.375 41.703125 
Q 47.40625 39.59375 52.65625 34.296875 
Q 57.90625 29 57.90625 20.125 
Q 57.90625 9.515625 50.796875 4.046875 
Q 43.703125 -1.421875 29.984375 -1.421875 
Q 24.8125 -1.421875 18.96875 -0.25 
Q 13.140625 0.921875 6.890625 3.21875 
L 6.890625 13.375 
Q 12.890625 10.015625 18.65625 8.296875 
Q 24.421875 6.59375 29.984375 6.59375 
Q 38.421875 6.59375 43.015625 9.90625 
Q 47.609375 13.234375 47.609375 19.390625 
Q 47.609375 24.75 44.3125 27.78125 
Q 41.015625 30.8125 33.5 32.328125 
L 27.484375 33.5 
Q 16.453125 35.6875 11.515625 40.375 
Q 6.59375 45.0625 6.59375 53.421875 
Q 6.59375 63.09375 13.40625 68.65625 
Q 20.21875 74.21875 32.171875 74.21875 
Q 37.3125 74.21875 42.625 73.28125 
Q 47.953125 72.359375 53.515625 70.515625 
" id="DejaVuSans-53"/>
     <path d="M 9.8125 72.90625 
L 24.515625 72.90625 
L 43.109375 23.296875 
L 61.8125 72.90625 
L 76.515625 72.90625 
L 76.515625 0 
L 66.890625 0 
L 66.890625 64.015625 
L 48.09375 14.015625 
L 38.1875 14.015625 
L 19.390625 64.015625 
L 19.390625 0 
L 9.8125 0 
z
" id="DejaVuSans-4d"/>
     <path d="M 9.8125 72.90625 
L 55.90625 72.90625 
L 55.90625 64.59375 
L 19.671875 64.59375 
L 19.671875 43.015625 
L 54.390625 43.015625 
L 54.390625 34.71875 
L 19.671875 34.71875 
L 19.671875 8.296875 
L 56.78125 8.296875 
L 56.78125 0 
L 9.8125 0 
z
" id="DejaVuSans-45"/>
    </defs>
    <g transform="translate(105.406875 16.318125)scale(0.12 -0.12)">
     <use xlink:href="#DejaVuSans-52"/>
     <use x="69.482422" xlink:href="#DejaVuSans-4f"/>
     <use x="148.193359" xlink:href="#DejaVuSans-43"/>
     <use x="218.017578" xlink:href="#DejaVuSans-20"/>
     <use x="249.804688" xlink:href="#DejaVuSans-43"/>
     <use x="319.628906" xlink:href="#DejaVuSans-75"/>
     <use x="383.007812" xlink:href="#DejaVuSans-72"/>
     <use x="424.121094" xlink:href="#DejaVuSans-76"/>
     <use x="483.300781" xlink:href="#DejaVuSans-65"/>
     <use x="544.824219" xlink:href="#DejaVuSans-20"/>
     <use x="576.611328" xlink:href="#DejaVuSans-47"/>
     <use x="654.101562" xlink:href="#DejaVuSans-72"/>
     <use x="695.214844" xlink:href="#DejaVuSans-61"/>
     <use x="756.494141" xlink:href="#DejaVuSans-64"/>
     <use x="819.970703" xlink:href="#DejaVuSans-69"/>
     <use x="847.753906" xlink:href="#DejaVuSans-65"/>
     <use x="909.277344" xlink:href="#DejaVuSans-6e"/>
     <use x="972.65625" xlink:href="#DejaVuSans-74"/>
     <use x="1011.865234" xlink:href="#DejaVuSans-42"/>
     <use x="1080.46875" xlink:href="#DejaVuSans-6f"/>
     <use x="1141.650391" xlink:href="#DejaVuSans-6f"/>
     <use x="1202.832031" xlink:href="#DejaVuSans-73"/>
     <use x="1254.931641" xlink:href="#DejaVuSans-74"/>
     <use x="1294.140625" xlink:href="#DejaVuSans-69"/>
     <use x="1321.923828" xlink:href="#DejaVuSans-6e"/>
     <use x="1385.302734" xlink:href="#DejaVuSans-67"/>
     <use x="1448.779297" xlink:href="#DejaVuSans-20"/>
     <use x="1480.566406" xlink:href="#DejaVuSans-2b"/>
     <use x="1564.355469" xlink:href="#DejaVuSans-20"/>
     <use x="1596.142578" xlink:href="#DejaVuSans-53"/>
     <use x="1659.619141" xlink:href="#DejaVuSans-4d"/>
     <use x="1745.898438" xlink:href="#DejaVuSans-4f"/>
     <use x="1824.609375" xlink:href="#DejaVuSans-54"/>
     <use x="1885.693359" xlink:href="#DejaVuSans-45"/>
    </g>
    <!-- Train: [1, 4, 8, 12, 16, 20, 24, 28]   Test: [1, 4, 8, 12, 16, 20, 24, 28] -->
    <defs>
     <path d="M 11.71875 12.40625 
L 22.015625 12.40625 
L 22.015625 0 
L 11.71875 0 
z
M 11.71875 51.703125 
L 22.015625 51.703125 
L 22.015625 39.3125 
L 11.71875 39.3125 
z
" id="DejaVuSans-3a"/>
     <path d="M 8.59375 75.984375 
L 29.296875 75.984375 
L 29.296875 69 
L 17.578125 69 
L 17.578125 -6.203125 
L 29.296875 -6.203125 
L 29.296875 -13.1875 
L 8.59375 -13.1875 
z
" id="DejaVuSans-5b"/>
     <path d="M 11.71875 12.40625 
L 22.015625 12.40625 
L 22.015625 4 
L 14.015625 -11.625 
L 7.71875 -11.625 
L 11.71875 4 
z
" id="DejaVuSans-2c"/>
     <path d="M 30.421875 75.984375 
L 30.421875 -13.1875 
L 9.71875 -13.1875 
L 9.71875 -6.203125 
L 21.390625 -6.203125 
L 21.390625 69 
L 9.71875 69 
L 9.71875 75.984375 
z
" id="DejaVuSans-5d"/>
    </defs>
    <g transform="translate(18.670313 29.7555)scale(0.12 -0.12)">
     <use xlink:href="#DejaVuSans-54"/>
     <use x="60.865234" xlink:href="#DejaVuSans-72"/>
     <use x="101.978516" xlink:href="#DejaVuSans-61"/>
     <use x="163.257812" xlink:href="#DejaVuSans-69"/>
     <use x="191.041016" xlink:href="#DejaVuSans-6e"/>
     <use x="254.419922" xlink:href="#DejaVuSans-3a"/>
     <use x="288.111328" xlink:href="#DejaVuSans-20"/>
     <use x="319.898438" xlink:href="#DejaVuSans-5b"/>
     <use x="358.912109" xlink:href="#DejaVuSans-31"/>
     <use x="422.535156" xlink:href="#DejaVuSans-2c"/>
     <use x="454.322266" xlink:href="#DejaVuSans-20"/>
     <use x="486.109375" xlink:href="#DejaVuSans-34"/>
     <use x="549.732422" xlink:href="#DejaVuSans-2c"/>
     <use x="581.519531" xlink:href="#DejaVuSans-20"/>
     <use x="613.306641" xlink:href="#DejaVuSans-38"/>
     <use x="676.929688" xlink:href="#DejaVuSans-2c"/>
     <use x="708.716797" xlink:href="#DejaVuSans-20"/>
     <use x="740.503906" xlink:href="#DejaVuSans-31"/>
     <use x="804.126953" xlink:href="#DejaVuSans-32"/>
     <use x="867.75" xlink:href="#DejaVuSans-2c"/>
     <use x="899.537109" xlink:href="#DejaVuSans-20"/>
     <use x="931.324219" xlink:href="#DejaVuSans-31"/>
     <use x="994.947266" xlink:href="#DejaVuSans-36"/>
     <use x="1058.570312" xlink:href="#DejaVuSans-2c"/>
     <use x="1090.357422" xlink:href="#DejaVuSans-20"/>
     <use x="1122.144531" xlink:href="#DejaVuSans-32"/>
     <use x="1185.767578" xlink:href="#DejaVuSans-30"/>
     <use x="1249.390625" xlink:href="#DejaVuSans-2c"/>
     <use x="1281.177734" xlink:href="#DejaVuSans-20"/>
     <use x="1312.964844" xlink:href="#DejaVuSans-32"/>
     <use x="1376.587891" xlink:href="#DejaVuSans-34"/>
     <use x="1440.210938" xlink:href="#DejaVuSans-2c"/>
     <use x="1471.998047" xlink:href="#DejaVuSans-20"/>
     <use x="1503.785156" xlink:href="#DejaVuSans-32"/>
     <use x="1567.408203" xlink:href="#DejaVuSans-38"/>
     <use x="1631.03125" xlink:href="#DejaVuSans-5d"/>
     <use x="1670.044922" xlink:href="#DejaVuSans-20"/>
     <use x="1701.832031" xlink:href="#DejaVuSans-20"/>
     <use x="1733.619141" xlink:href="#DejaVuSans-20"/>
     <use x="1765.40625" xlink:href="#DejaVuSans-54"/>
     <use x="1826.224609" xlink:href="#DejaVuSans-65"/>
     <use x="1887.748047" xlink:href="#DejaVuSans-73"/>
     <use x="1939.847656" xlink:href="#DejaVuSans-74"/>
     <use x="1979.056641" xlink:href="#DejaVuSans-3a"/>
     <use x="2012.748047" xlink:href="#DejaVuSans-20"/>
     <use x="2044.535156" xlink:href="#DejaVuSans-5b"/>
     <use x="2083.548828" xlink:href="#DejaVuSans-31"/>
     <use x="2147.171875" xlink:href="#DejaVuSans-2c"/>
     <use x="2178.958984" xlink:href="#DejaVuSans-20"/>
     <use x="2210.746094" xlink:href="#DejaVuSans-34"/>
     <use x="2274.369141" xlink:href="#DejaVuSans-2c"/>
     <use x="2306.15625" xlink:href="#DejaVuSans-20"/>
     <use x="2337.943359" xlink:href="#DejaVuSans-38"/>
     <use x="2401.566406" xlink:href="#DejaVuSans-2c"/>
     <use x="2433.353516" xlink:href="#DejaVuSans-20"/>
     <use x="2465.140625" xlink:href="#DejaVuSans-31"/>
     <use x="2528.763672" xlink:href="#DejaVuSans-32"/>
     <use x="2592.386719" xlink:href="#DejaVuSans-2c"/>
     <use x="2624.173828" xlink:href="#DejaVuSans-20"/>
     <use x="2655.960938" xlink:href="#DejaVuSans-31"/>
     <use x="2719.583984" xlink:href="#DejaVuSans-36"/>
     <use x="2783.207031" xlink:href="#DejaVuSans-2c"/>
     <use x="2814.994141" xlink:href="#DejaVuSans-20"/>
     <use x="2846.78125" xlink:href="#DejaVuSans-32"/>
     <use x="2910.404297" xlink:href="#DejaVuSans-30"/>
     <use x="2974.027344" xlink:href="#DejaVuSans-2c"/>
     <use x="3005.814453" xlink:href="#DejaVuSans-20"/>
     <use x="3037.601562" xlink:href="#DejaVuSans-32"/>
     <use x="3101.224609" xlink:href="#DejaVuSans-34"/>
     <use x="3164.847656" xlink:href="#DejaVuSans-2c"/>
     <use x="3196.634766" xlink:href="#DejaVuSans-20"/>
     <use x="3228.421875" xlink:href="#DejaVuSans-32"/>
     <use x="3292.044922" xlink:href="#DejaVuSans-38"/>
     <use x="3355.667969" xlink:href="#DejaVuSans-5d"/>
    </g>
   </g>
   <g id="legend_1">
    <g id="patch_7">
     <path d="M 217.087188 296.8675 
L 393.90125 296.8675 
Q 395.90125 296.8675 395.90125 294.8675 
L 395.90125 251.833125 
Q 395.90125 249.833125 393.90125 249.833125 
L 217.087188 249.833125 
Q 215.087188 249.833125 215.087188 251.833125 
L 215.087188 294.8675 
Q 215.087188 296.8675 217.087188 296.8675 
z
" style="fill:#ffffff;opacity:0.8;stroke:#cccccc;stroke-linejoin:miter;"/>
    </g>
    <g id="line2d_17">
     <path d="M 219.087188 257.931562 
L 239.087188 257.931562 
" style="fill:none;stroke:#1f77b4;stroke-linecap:square;stroke-width:1.5;"/>
    </g>
    <g id="line2d_18"/>
    <g id="text_16">
     <!-- ROC curve - 0 (AUC = 0.895) -->
     <defs>
      <path d="M 48.78125 52.59375 
L 48.78125 44.1875 
Q 44.96875 46.296875 41.140625 47.34375 
Q 37.3125 48.390625 33.40625 48.390625 
Q 24.65625 48.390625 19.8125 42.84375 
Q 14.984375 37.3125 14.984375 27.296875 
Q 14.984375 17.28125 19.8125 11.734375 
Q 24.65625 6.203125 33.40625 6.203125 
Q 37.3125 6.203125 41.140625 7.25 
Q 44.96875 8.296875 48.78125 10.40625 
L 48.78125 2.09375 
Q 45.015625 0.34375 40.984375 -0.53125 
Q 36.96875 -1.421875 32.421875 -1.421875 
Q 20.0625 -1.421875 12.78125 6.34375 
Q 5.515625 14.109375 5.515625 27.296875 
Q 5.515625 40.671875 12.859375 48.328125 
Q 20.21875 56 33.015625 56 
Q 37.15625 56 41.109375 55.140625 
Q 45.0625 54.296875 48.78125 52.59375 
" id="DejaVuSans-63"/>
      <path d="M 4.890625 31.390625 
L 31.203125 31.390625 
L 31.203125 23.390625 
L 4.890625 23.390625 
z
" id="DejaVuSans-2d"/>
      <path d="M 31 75.875 
Q 24.46875 64.65625 21.28125 53.65625 
Q 18.109375 42.671875 18.109375 31.390625 
Q 18.109375 20.125 21.3125 9.0625 
Q 24.515625 -2 31 -13.1875 
L 23.1875 -13.1875 
Q 15.875 -1.703125 12.234375 9.375 
Q 8.59375 20.453125 8.59375 31.390625 
Q 8.59375 42.28125 12.203125 53.3125 
Q 15.828125 64.359375 23.1875 75.875 
z
" id="DejaVuSans-28"/>
      <path d="M 34.1875 63.1875 
L 20.796875 26.90625 
L 47.609375 26.90625 
z
M 28.609375 72.90625 
L 39.796875 72.90625 
L 67.578125 0 
L 57.328125 0 
L 50.6875 18.703125 
L 17.828125 18.703125 
L 11.1875 0 
L 0.78125 0 
z
" id="DejaVuSans-41"/>
      <path d="M 8.6875 72.90625 
L 18.609375 72.90625 
L 18.609375 28.609375 
Q 18.609375 16.890625 22.84375 11.734375 
Q 27.09375 6.59375 36.625 6.59375 
Q 46.09375 6.59375 50.34375 11.734375 
Q 54.59375 16.890625 54.59375 28.609375 
L 54.59375 72.90625 
L 64.5 72.90625 
L 64.5 27.390625 
Q 64.5 13.140625 57.4375 5.859375 
Q 50.390625 -1.421875 36.625 -1.421875 
Q 22.796875 -1.421875 15.734375 5.859375 
Q 8.6875 13.140625 8.6875 27.390625 
z
" id="DejaVuSans-55"/>
      <path d="M 10.59375 45.40625 
L 73.1875 45.40625 
L 73.1875 37.203125 
L 10.59375 37.203125 
z
M 10.59375 25.484375 
L 73.1875 25.484375 
L 73.1875 17.1875 
L 10.59375 17.1875 
z
" id="DejaVuSans-3d"/>
      <path d="M 10.984375 1.515625 
L 10.984375 10.5 
Q 14.703125 8.734375 18.5 7.8125 
Q 22.3125 6.890625 25.984375 6.890625 
Q 35.75 6.890625 40.890625 13.453125 
Q 46.046875 20.015625 46.78125 33.40625 
Q 43.953125 29.203125 39.59375 26.953125 
Q 35.25 24.703125 29.984375 24.703125 
Q 19.046875 24.703125 12.671875 31.3125 
Q 6.296875 37.9375 6.296875 49.421875 
Q 6.296875 60.640625 12.9375 67.421875 
Q 19.578125 74.21875 30.609375 74.21875 
Q 43.265625 74.21875 49.921875 64.515625 
Q 56.59375 54.828125 56.59375 36.375 
Q 56.59375 19.140625 48.40625 8.859375 
Q 40.234375 -1.421875 26.421875 -1.421875 
Q 22.703125 -1.421875 18.890625 -0.6875 
Q 15.09375 0.046875 10.984375 1.515625 
M 30.609375 32.421875 
Q 37.25 32.421875 41.125 36.953125 
Q 45.015625 41.5 45.015625 49.421875 
Q 45.015625 57.28125 41.125 61.84375 
Q 37.25 66.40625 30.609375 66.40625 
Q 23.96875 66.40625 20.09375 61.84375 
Q 16.21875 57.28125 16.21875 49.421875 
Q 16.21875 41.5 20.09375 36.953125 
Q 23.96875 32.421875 30.609375 32.421875 
" id="DejaVuSans-39"/>
      <path d="M 10.796875 72.90625 
L 49.515625 72.90625 
L 49.515625 64.59375 
L 19.828125 64.59375 
L 19.828125 46.734375 
Q 21.96875 47.46875 24.109375 47.828125 
Q 26.265625 48.1875 28.421875 48.1875 
Q 40.625 48.1875 47.75 41.5 
Q 54.890625 34.8125 54.890625 23.390625 
Q 54.890625 11.625 47.5625 5.09375 
Q 40.234375 -1.421875 26.90625 -1.421875 
Q 22.3125 -1.421875 17.546875 -0.640625 
Q 12.796875 0.140625 7.71875 1.703125 
L 7.71875 11.625 
Q 12.109375 9.234375 16.796875 8.0625 
Q 21.484375 6.890625 26.703125 6.890625 
Q 35.15625 6.890625 40.078125 11.328125 
Q 45.015625 15.765625 45.015625 23.390625 
Q 45.015625 31 40.078125 35.4375 
Q 35.15625 39.890625 26.703125 39.890625 
Q 22.75 39.890625 18.8125 39.015625 
Q 14.890625 38.140625 10.796875 36.28125 
z
" id="DejaVuSans-35"/>
      <path d="M 8.015625 75.875 
L 15.828125 75.875 
Q 23.140625 64.359375 26.78125 53.3125 
Q 30.421875 42.28125 30.421875 31.390625 
Q 30.421875 20.453125 26.78125 9.375 
Q 23.140625 -1.703125 15.828125 -13.1875 
L 8.015625 -13.1875 
Q 14.5 -2 17.703125 9.0625 
Q 20.90625 20.125 20.90625 31.390625 
Q 20.90625 42.671875 17.703125 53.65625 
Q 14.5 64.65625 8.015625 75.875 
" id="DejaVuSans-29"/>
     </defs>
     <g transform="translate(247.087188 261.431562)scale(0.1 -0.1)">
      <use xlink:href="#DejaVuSans-52"/>
      <use x="69.482422" xlink:href="#DejaVuSans-4f"/>
      <use x="148.193359" xlink:href="#DejaVuSans-43"/>
      <use x="218.017578" xlink:href="#DejaVuSans-20"/>
      <use x="249.804688" xlink:href="#DejaVuSans-63"/>
      <use x="304.785156" xlink:href="#DejaVuSans-75"/>
      <use x="368.164062" xlink:href="#DejaVuSans-72"/>
      <use x="409.277344" xlink:href="#DejaVuSans-76"/>
      <use x="468.457031" xlink:href="#DejaVuSans-65"/>
      <use x="529.980469" xlink:href="#DejaVuSans-20"/>
      <use x="561.767578" xlink:href="#DejaVuSans-2d"/>
      <use x="597.851562" xlink:href="#DejaVuSans-20"/>
      <use x="629.638672" xlink:href="#DejaVuSans-30"/>
      <use x="693.261719" xlink:href="#DejaVuSans-20"/>
      <use x="725.048828" xlink:href="#DejaVuSans-28"/>
      <use x="764.0625" xlink:href="#DejaVuSans-41"/>
      <use x="832.470703" xlink:href="#DejaVuSans-55"/>
      <use x="905.664062" xlink:href="#DejaVuSans-43"/>
      <use x="975.488281" xlink:href="#DejaVuSans-20"/>
      <use x="1007.275391" xlink:href="#DejaVuSans-3d"/>
      <use x="1091.064453" xlink:href="#DejaVuSans-20"/>
      <use x="1122.851562" xlink:href="#DejaVuSans-30"/>
      <use x="1186.474609" xlink:href="#DejaVuSans-2e"/>
      <use x="1218.261719" xlink:href="#DejaVuSans-38"/>
      <use x="1281.884766" xlink:href="#DejaVuSans-39"/>
      <use x="1345.507812" xlink:href="#DejaVuSans-35"/>
      <use x="1409.130859" xlink:href="#DejaVuSans-29"/>
     </g>
    </g>
    <g id="line2d_19">
     <path d="M 219.087188 272.609687 
L 239.087188 272.609687 
" style="fill:none;stroke:#ff7f0e;stroke-linecap:square;stroke-width:1.5;"/>
    </g>
    <g id="line2d_20"/>
    <g id="text_17">
     <!-- ROC curve - 1 (AUC = 0.863) -->
     <defs>
      <path d="M 40.578125 39.3125 
Q 47.65625 37.796875 51.625 33 
Q 55.609375 28.21875 55.609375 21.1875 
Q 55.609375 10.40625 48.1875 4.484375 
Q 40.765625 -1.421875 27.09375 -1.421875 
Q 22.515625 -1.421875 17.65625 -0.515625 
Q 12.796875 0.390625 7.625 2.203125 
L 7.625 11.71875 
Q 11.71875 9.328125 16.59375 8.109375 
Q 21.484375 6.890625 26.8125 6.890625 
Q 36.078125 6.890625 40.9375 10.546875 
Q 45.796875 14.203125 45.796875 21.1875 
Q 45.796875 27.640625 41.28125 31.265625 
Q 36.765625 34.90625 28.71875 34.90625 
L 20.21875 34.90625 
L 20.21875 43.015625 
L 29.109375 43.015625 
Q 36.375 43.015625 40.234375 45.921875 
Q 44.09375 48.828125 44.09375 54.296875 
Q 44.09375 59.90625 40.109375 62.90625 
Q 36.140625 65.921875 28.71875 65.921875 
Q 24.65625 65.921875 20.015625 65.03125 
Q 15.375 64.15625 9.8125 62.3125 
L 9.8125 71.09375 
Q 15.4375 72.65625 20.34375 73.4375 
Q 25.25 74.21875 29.59375 74.21875 
Q 40.828125 74.21875 47.359375 69.109375 
Q 53.90625 64.015625 53.90625 55.328125 
Q 53.90625 49.265625 50.4375 45.09375 
Q 46.96875 40.921875 40.578125 39.3125 
" id="DejaVuSans-33"/>
     </defs>
     <g transform="translate(247.087188 276.109687)scale(0.1 -0.1)">
      <use xlink:href="#DejaVuSans-52"/>
      <use x="69.482422" xlink:href="#DejaVuSans-4f"/>
      <use x="148.193359" xlink:href="#DejaVuSans-43"/>
      <use x="218.017578" xlink:href="#DejaVuSans-20"/>
      <use x="249.804688" xlink:href="#DejaVuSans-63"/>
      <use x="304.785156" xlink:href="#DejaVuSans-75"/>
      <use x="368.164062" xlink:href="#DejaVuSans-72"/>
      <use x="409.277344" xlink:href="#DejaVuSans-76"/>
      <use x="468.457031" xlink:href="#DejaVuSans-65"/>
      <use x="529.980469" xlink:href="#DejaVuSans-20"/>
      <use x="561.767578" xlink:href="#DejaVuSans-2d"/>
      <use x="597.851562" xlink:href="#DejaVuSans-20"/>
      <use x="629.638672" xlink:href="#DejaVuSans-31"/>
      <use x="693.261719" xlink:href="#DejaVuSans-20"/>
      <use x="725.048828" xlink:href="#DejaVuSans-28"/>
      <use x="764.0625" xlink:href="#DejaVuSans-41"/>
      <use x="832.470703" xlink:href="#DejaVuSans-55"/>
      <use x="905.664062" xlink:href="#DejaVuSans-43"/>
      <use x="975.488281" xlink:href="#DejaVuSans-20"/>
      <use x="1007.275391" xlink:href="#DejaVuSans-3d"/>
      <use x="1091.064453" xlink:href="#DejaVuSans-20"/>
      <use x="1122.851562" xlink:href="#DejaVuSans-30"/>
      <use x="1186.474609" xlink:href="#DejaVuSans-2e"/>
      <use x="1218.261719" xlink:href="#DejaVuSans-38"/>
      <use x="1281.884766" xlink:href="#DejaVuSans-36"/>
      <use x="1345.507812" xlink:href="#DejaVuSans-33"/>
      <use x="1409.130859" xlink:href="#DejaVuSans-29"/>
     </g>
    </g>
    <g id="line2d_21">
     <path d="M 219.087188 287.287812 
L 239.087188 287.287812 
" style="fill:none;stroke:#2ca02c;stroke-linecap:square;stroke-width:1.5;"/>
    </g>
    <g id="line2d_22"/>
    <g id="text_18">
     <!-- ROC curve - 2 (AUC = 0.881) -->
     <g transform="translate(247.087188 290.787812)scale(0.1 -0.1)">
      <use xlink:href="#DejaVuSans-52"/>
      <use x="69.482422" xlink:href="#DejaVuSans-4f"/>
      <use x="148.193359" xlink:href="#DejaVuSans-43"/>
      <use x="218.017578" xlink:href="#DejaVuSans-20"/>
      <use x="249.804688" xlink:href="#DejaVuSans-63"/>
      <use x="304.785156" xlink:href="#DejaVuSans-75"/>
      <use x="368.164062" xlink:href="#DejaVuSans-72"/>
      <use x="409.277344" xlink:href="#DejaVuSans-76"/>
      <use x="468.457031" xlink:href="#DejaVuSans-65"/>
      <use x="529.980469" xlink:href="#DejaVuSans-20"/>
      <use x="561.767578" xlink:href="#DejaVuSans-2d"/>
      <use x="597.851562" xlink:href="#DejaVuSans-20"/>
      <use x="629.638672" xlink:href="#DejaVuSans-32"/>
      <use x="693.261719" xlink:href="#DejaVuSans-20"/>
      <use x="725.048828" xlink:href="#DejaVuSans-28"/>
      <use x="764.0625" xlink:href="#DejaVuSans-41"/>
      <use x="832.470703" xlink:href="#DejaVuSans-55"/>
      <use x="905.664062" xlink:href="#DejaVuSans-43"/>
      <use x="975.488281" xlink:href="#DejaVuSans-20"/>
      <use x="1007.275391" xlink:href="#DejaVuSans-3d"/>
      <use x="1091.064453" xlink:href="#DejaVuSans-20"/>
      <use x="1122.851562" xlink:href="#DejaVuSans-30"/>
      <use x="1186.474609" xlink:href="#DejaVuSans-2e"/>
      <use x="1218.261719" xlink:href="#DejaVuSans-38"/>
      <use x="1281.884766" xlink:href="#DejaVuSans-38"/>
      <use x="1345.507812" xlink:href="#DejaVuSans-31"/>
      <use x="1409.130859" xlink:href="#DejaVuSans-29"/>
     </g>
    </g>
   </g>
  </g>
 </g>
 <defs>
  <clipPath id="p06138fb5da">
   <rect height="266.112" width="357.12" x="43.78125" y="35.7555"/>
  </clipPath>
 </defs>
</svg>
